<?xml version="1.0" encoding="utf-8" standalone="no"?>
<!DOCTYPE svg PUBLIC "-//W3C//DTD SVG 1.1//EN"
  "http://www.w3.org/Graphics/SVG/1.1/DTD/svg11.dtd">
<svg xmlns:xlink="http://www.w3.org/1999/xlink" width="576pt" height="288pt" viewBox="0 0 576 288" xmlns="http://www.w3.org/2000/svg" version="1.1">
 <metadata>
  <rdf:RDF xmlns:dc="http://purl.org/dc/elements/1.1/" xmlns:cc="http://creativecommons.org/ns#" xmlns:rdf="http://www.w3.org/1999/02/22-rdf-syntax-ns#">
   <cc:Work>
    <dc:type rdf:resource="http://purl.org/dc/dcmitype/StillImage"/>
    <dc:date>2023-05-31T12:24:05.234419</dc:date>
    <dc:format>image/svg+xml</dc:format>
    <dc:creator>
     <cc:Agent>
      <dc:title>Matplotlib v3.5.3, https://matplotlib.org/</dc:title>
     </cc:Agent>
    </dc:creator>
   </cc:Work>
  </rdf:RDF>
 </metadata>
 <defs>
  <style type="text/css">*{stroke-linejoin: round; stroke-linecap: butt}</style>
 </defs>
 <g id="figure_1">
  <g id="patch_1">
   <path d="M 0 288 
L 576 288 
L 576 0 
L 0 0 
z
" style="fill: #ffffff"/>
  </g>
  <g id="axes_1">
   <g id="patch_2">
    <path d="M 50.8925 273.6 
L 106.344 273.6 
L 106.344 47.04 
L 50.8925 47.04 
z
" style="fill: #ffffff"/>
   </g>
   <g id="PolyCollection_1">
    <path d="M 81.623904 263.301818 
L 75.612596 263.301818 
L 75.065705 261.221377 
L 74.451643 259.140937 
L 73.767779 257.060496 
L 73.012316 254.980055 
L 72.184488 252.899614 
L 71.284755 250.819174 
L 70.315038 248.738733 
L 69.278941 246.658292 
L 68.181977 244.577851 
L 67.031756 242.49741 
L 65.838122 240.41697 
L 64.613194 238.336529 
L 63.371284 236.256088 
L 62.128683 234.175647 
L 60.903287 232.095207 
L 59.714068 230.014766 
L 58.580436 227.934325 
L 57.521504 225.853884 
L 56.555331 223.773444 
L 55.698211 221.693003 
L 54.964043 219.612562 
L 54.363869 217.532121 
L 53.905583 215.45168 
L 53.593838 213.37124 
L 53.430129 211.290799 
L 53.413023 209.210358 
L 53.538473 207.129917 
L 53.800183 205.049477 
L 54.189951 202.969036 
L 54.697975 200.888595 
L 55.313093 198.808154 
L 56.02296 196.727713 
L 56.814185 194.647273 
L 57.672459 192.566832 
L 58.582707 190.486391 
L 59.529286 188.40595 
L 60.496264 186.32551 
L 61.467767 184.245069 
L 62.428388 182.164628 
L 63.363632 180.084187 
L 64.260356 178.003747 
L 65.107175 175.923306 
L 65.894785 173.842865 
L 66.616188 171.762424 
L 67.266794 169.681983 
L 67.84441 167.601543 
L 68.34911 165.521102 
L 68.783019 163.440661 
L 69.150022 161.36022 
L 69.455432 159.27978 
L 69.705637 157.199339 
L 69.907743 155.118898 
L 70.069231 153.038457 
L 70.197647 150.958017 
L 70.300314 148.877576 
L 70.384098 146.797135 
L 70.455217 144.716694 
L 70.519103 142.636253 
L 70.580314 140.555813 
L 70.642504 138.475372 
L 70.708432 136.394931 
L 70.780018 134.31449 
L 70.858427 132.23405 
L 70.944167 130.153609 
L 71.0372 128.073168 
L 71.137057 125.992727 
L 71.242947 123.912287 
L 71.35386 121.831846 
L 71.468673 119.751405 
L 71.586247 117.670964 
L 71.705516 115.590523 
L 71.825579 113.510083 
L 71.945769 111.429642 
L 72.065707 109.349201 
L 72.185337 107.26876 
L 72.304929 105.18832 
L 72.425056 103.107879 
L 72.546551 101.027438 
L 72.670442 98.946997 
L 72.797885 96.866556 
L 72.93009 94.786116 
L 73.068256 92.705675 
L 73.213516 90.625234 
L 73.366889 88.544793 
L 73.52924 86.464353 
L 73.701245 84.383912 
L 73.883361 82.303471 
L 74.075788 80.22303 
L 74.278444 78.14259 
L 74.490935 76.062149 
L 74.712536 73.981708 
L 74.942187 71.901267 
L 75.178499 69.820826 
L 75.419783 67.740386 
L 75.664084 65.659945 
L 75.909243 63.579504 
L 76.152959 61.499063 
L 76.392864 59.418623 
L 76.626598 57.338182 
L 80.609902 57.338182 
L 80.609902 57.338182 
L 80.843636 59.418623 
L 81.083541 61.499063 
L 81.327257 63.579504 
L 81.572416 65.659945 
L 81.816717 67.740386 
L 82.058001 69.820826 
L 82.294313 71.901267 
L 82.523964 73.981708 
L 82.745565 76.062149 
L 82.958056 78.14259 
L 83.160712 80.22303 
L 83.353139 82.303471 
L 83.535255 84.383912 
L 83.70726 86.464353 
L 83.869611 88.544793 
L 84.022984 90.625234 
L 84.168244 92.705675 
L 84.30641 94.786116 
L 84.438615 96.866556 
L 84.566058 98.946997 
L 84.689949 101.027438 
L 84.811444 103.107879 
L 84.931571 105.18832 
L 85.051163 107.26876 
L 85.170793 109.349201 
L 85.290731 111.429642 
L 85.410921 113.510083 
L 85.530984 115.590523 
L 85.650253 117.670964 
L 85.767827 119.751405 
L 85.88264 121.831846 
L 85.993553 123.912287 
L 86.099443 125.992727 
L 86.1993 128.073168 
L 86.292333 130.153609 
L 86.378073 132.23405 
L 86.456482 134.31449 
L 86.528068 136.394931 
L 86.593996 138.475372 
L 86.656186 140.555813 
L 86.717397 142.636253 
L 86.781283 144.716694 
L 86.852402 146.797135 
L 86.936186 148.877576 
L 87.038853 150.958017 
L 87.167269 153.038457 
L 87.328757 155.118898 
L 87.530863 157.199339 
L 87.781068 159.27978 
L 88.086478 161.36022 
L 88.453481 163.440661 
L 88.88739 165.521102 
L 89.39209 167.601543 
L 89.969706 169.681983 
L 90.620312 171.762424 
L 91.341715 173.842865 
L 92.129325 175.923306 
L 92.976144 178.003747 
L 93.872868 180.084187 
L 94.808112 182.164628 
L 95.768733 184.245069 
L 96.740236 186.32551 
L 97.707214 188.40595 
L 98.653793 190.486391 
L 99.564041 192.566832 
L 100.422315 194.647273 
L 101.21354 196.727713 
L 101.923407 198.808154 
L 102.538525 200.888595 
L 103.046549 202.969036 
L 103.436317 205.049477 
L 103.698027 207.129917 
L 103.823477 209.210358 
L 103.806371 211.290799 
L 103.642662 213.37124 
L 103.330917 215.45168 
L 102.872631 217.532121 
L 102.272457 219.612562 
L 101.538289 221.693003 
L 100.681169 223.773444 
L 99.714996 225.853884 
L 98.656064 227.934325 
L 97.522432 230.014766 
L 96.333213 232.095207 
L 95.107817 234.175647 
L 93.865216 236.256088 
L 92.623306 238.336529 
L 91.398378 240.41697 
L 90.204744 242.49741 
L 89.054523 244.577851 
L 87.957559 246.658292 
L 86.921462 248.738733 
L 85.951745 250.819174 
L 85.052012 252.899614 
L 84.224184 254.980055 
L 83.468721 257.060496 
L 82.784857 259.140937 
L 82.170795 261.221377 
L 81.623904 263.301818 
z
" clip-path="url(#pa3496150da)" style="fill: #1f77b4; fill-opacity: 0.3"/>
   </g>
   <g id="matplotlib.axis_1">
    <g id="ytick_1">
     <g id="line2d_1">
      <defs>
       <path id="m393432ffa8" d="M 0 0 
L -3.5 0 
" style="stroke: #000000; stroke-width: 0.8"/>
      </defs>
      <g>
       <use xlink:href="#m393432ffa8" x="50.8925" y="245.958467" style="stroke: #000000; stroke-width: 0.8"/>
      </g>
     </g>
     <g id="text_1">
      <!-- 1.1 -->
      <g transform="translate(27.989375 249.757685)scale(0.1 -0.1)">
       <defs>
        <path id="DejaVuSans-31" d="M 794 531 
L 1825 531 
L 1825 4091 
L 703 3866 
L 703 4441 
L 1819 4666 
L 2450 4666 
L 2450 531 
L 3481 531 
L 3481 0 
L 794 0 
L 794 531 
z
" transform="scale(0.015625)"/>
        <path id="DejaVuSans-2e" d="M 684 794 
L 1344 794 
L 1344 0 
L 684 0 
L 684 794 
z
" transform="scale(0.015625)"/>
       </defs>
       <use xlink:href="#DejaVuSans-31"/>
       <use xlink:href="#DejaVuSans-2e" x="63.623047"/>
       <use xlink:href="#DejaVuSans-31" x="95.410156"/>
      </g>
     </g>
    </g>
    <g id="ytick_2">
     <g id="line2d_2">
      <g>
       <use xlink:href="#m393432ffa8" x="50.8925" y="213.924308" style="stroke: #000000; stroke-width: 0.8"/>
      </g>
     </g>
     <g id="text_2">
      <!-- 1.2 -->
      <g transform="translate(27.989375 217.723526)scale(0.1 -0.1)">
       <defs>
        <path id="DejaVuSans-32" d="M 1228 531 
L 3431 531 
L 3431 0 
L 469 0 
L 469 531 
Q 828 903 1448 1529 
Q 2069 2156 2228 2338 
Q 2531 2678 2651 2914 
Q 2772 3150 2772 3378 
Q 2772 3750 2511 3984 
Q 2250 4219 1831 4219 
Q 1534 4219 1204 4116 
Q 875 4013 500 3803 
L 500 4441 
Q 881 4594 1212 4672 
Q 1544 4750 1819 4750 
Q 2544 4750 2975 4387 
Q 3406 4025 3406 3419 
Q 3406 3131 3298 2873 
Q 3191 2616 2906 2266 
Q 2828 2175 2409 1742 
Q 1991 1309 1228 531 
z
" transform="scale(0.015625)"/>
       </defs>
       <use xlink:href="#DejaVuSans-31"/>
       <use xlink:href="#DejaVuSans-2e" x="63.623047"/>
       <use xlink:href="#DejaVuSans-32" x="95.410156"/>
      </g>
     </g>
    </g>
    <g id="ytick_3">
     <g id="line2d_3">
      <g>
       <use xlink:href="#m393432ffa8" x="50.8925" y="181.890149" style="stroke: #000000; stroke-width: 0.8"/>
      </g>
     </g>
     <g id="text_3">
      <!-- 1.3 -->
      <g transform="translate(27.989375 185.689367)scale(0.1 -0.1)">
       <defs>
        <path id="DejaVuSans-33" d="M 2597 2516 
Q 3050 2419 3304 2112 
Q 3559 1806 3559 1356 
Q 3559 666 3084 287 
Q 2609 -91 1734 -91 
Q 1441 -91 1130 -33 
Q 819 25 488 141 
L 488 750 
Q 750 597 1062 519 
Q 1375 441 1716 441 
Q 2309 441 2620 675 
Q 2931 909 2931 1356 
Q 2931 1769 2642 2001 
Q 2353 2234 1838 2234 
L 1294 2234 
L 1294 2753 
L 1863 2753 
Q 2328 2753 2575 2939 
Q 2822 3125 2822 3475 
Q 2822 3834 2567 4026 
Q 2313 4219 1838 4219 
Q 1578 4219 1281 4162 
Q 984 4106 628 3988 
L 628 4550 
Q 988 4650 1302 4700 
Q 1616 4750 1894 4750 
Q 2613 4750 3031 4423 
Q 3450 4097 3450 3541 
Q 3450 3153 3228 2886 
Q 3006 2619 2597 2516 
z
" transform="scale(0.015625)"/>
       </defs>
       <use xlink:href="#DejaVuSans-31"/>
       <use xlink:href="#DejaVuSans-2e" x="63.623047"/>
       <use xlink:href="#DejaVuSans-33" x="95.410156"/>
      </g>
     </g>
    </g>
    <g id="ytick_4">
     <g id="line2d_4">
      <g>
       <use xlink:href="#m393432ffa8" x="50.8925" y="149.85599" style="stroke: #000000; stroke-width: 0.8"/>
      </g>
     </g>
     <g id="text_4">
      <!-- 1.4 -->
      <g transform="translate(27.989375 153.655208)scale(0.1 -0.1)">
       <defs>
        <path id="DejaVuSans-34" d="M 2419 4116 
L 825 1625 
L 2419 1625 
L 2419 4116 
z
M 2253 4666 
L 3047 4666 
L 3047 1625 
L 3713 1625 
L 3713 1100 
L 3047 1100 
L 3047 0 
L 2419 0 
L 2419 1100 
L 313 1100 
L 313 1709 
L 2253 4666 
z
" transform="scale(0.015625)"/>
       </defs>
       <use xlink:href="#DejaVuSans-31"/>
       <use xlink:href="#DejaVuSans-2e" x="63.623047"/>
       <use xlink:href="#DejaVuSans-34" x="95.410156"/>
      </g>
     </g>
    </g>
    <g id="ytick_5">
     <g id="line2d_5">
      <g>
       <use xlink:href="#m393432ffa8" x="50.8925" y="117.821831" style="stroke: #000000; stroke-width: 0.8"/>
      </g>
     </g>
     <g id="text_5">
      <!-- 1.5 -->
      <g transform="translate(27.989375 121.621049)scale(0.1 -0.1)">
       <defs>
        <path id="DejaVuSans-35" d="M 691 4666 
L 3169 4666 
L 3169 4134 
L 1269 4134 
L 1269 2991 
Q 1406 3038 1543 3061 
Q 1681 3084 1819 3084 
Q 2600 3084 3056 2656 
Q 3513 2228 3513 1497 
Q 3513 744 3044 326 
Q 2575 -91 1722 -91 
Q 1428 -91 1123 -41 
Q 819 9 494 109 
L 494 744 
Q 775 591 1075 516 
Q 1375 441 1709 441 
Q 2250 441 2565 725 
Q 2881 1009 2881 1497 
Q 2881 1984 2565 2268 
Q 2250 2553 1709 2553 
Q 1456 2553 1204 2497 
Q 953 2441 691 2322 
L 691 4666 
z
" transform="scale(0.015625)"/>
       </defs>
       <use xlink:href="#DejaVuSans-31"/>
       <use xlink:href="#DejaVuSans-2e" x="63.623047"/>
       <use xlink:href="#DejaVuSans-35" x="95.410156"/>
      </g>
     </g>
    </g>
    <g id="ytick_6">
     <g id="line2d_6">
      <g>
       <use xlink:href="#m393432ffa8" x="50.8925" y="85.787672" style="stroke: #000000; stroke-width: 0.8"/>
      </g>
     </g>
     <g id="text_6">
      <!-- 1.6 -->
      <g transform="translate(27.989375 89.58689)scale(0.1 -0.1)">
       <defs>
        <path id="DejaVuSans-36" d="M 2113 2584 
Q 1688 2584 1439 2293 
Q 1191 2003 1191 1497 
Q 1191 994 1439 701 
Q 1688 409 2113 409 
Q 2538 409 2786 701 
Q 3034 994 3034 1497 
Q 3034 2003 2786 2293 
Q 2538 2584 2113 2584 
z
M 3366 4563 
L 3366 3988 
Q 3128 4100 2886 4159 
Q 2644 4219 2406 4219 
Q 1781 4219 1451 3797 
Q 1122 3375 1075 2522 
Q 1259 2794 1537 2939 
Q 1816 3084 2150 3084 
Q 2853 3084 3261 2657 
Q 3669 2231 3669 1497 
Q 3669 778 3244 343 
Q 2819 -91 2113 -91 
Q 1303 -91 875 529 
Q 447 1150 447 2328 
Q 447 3434 972 4092 
Q 1497 4750 2381 4750 
Q 2619 4750 2861 4703 
Q 3103 4656 3366 4563 
z
" transform="scale(0.015625)"/>
       </defs>
       <use xlink:href="#DejaVuSans-31"/>
       <use xlink:href="#DejaVuSans-2e" x="63.623047"/>
       <use xlink:href="#DejaVuSans-36" x="95.410156"/>
      </g>
     </g>
    </g>
    <g id="ytick_7">
     <g id="line2d_7">
      <g>
       <use xlink:href="#m393432ffa8" x="50.8925" y="53.753513" style="stroke: #000000; stroke-width: 0.8"/>
      </g>
     </g>
     <g id="text_7">
      <!-- 1.7 -->
      <g transform="translate(27.989375 57.552731)scale(0.1 -0.1)">
       <defs>
        <path id="DejaVuSans-37" d="M 525 4666 
L 3525 4666 
L 3525 4397 
L 1831 0 
L 1172 0 
L 2766 4134 
L 525 4134 
L 525 4666 
z
" transform="scale(0.015625)"/>
       </defs>
       <use xlink:href="#DejaVuSans-31"/>
       <use xlink:href="#DejaVuSans-2e" x="63.623047"/>
       <use xlink:href="#DejaVuSans-37" x="95.410156"/>
      </g>
     </g>
    </g>
    <g id="text_8">
     <!-- RMSD [$\AA$] -->
     <g transform="translate(21.909688 184.07)rotate(-90)scale(0.1 -0.1)">
      <defs>
       <path id="DejaVuSans-52" d="M 2841 2188 
Q 3044 2119 3236 1894 
Q 3428 1669 3622 1275 
L 4263 0 
L 3584 0 
L 2988 1197 
Q 2756 1666 2539 1819 
Q 2322 1972 1947 1972 
L 1259 1972 
L 1259 0 
L 628 0 
L 628 4666 
L 2053 4666 
Q 2853 4666 3247 4331 
Q 3641 3997 3641 3322 
Q 3641 2881 3436 2590 
Q 3231 2300 2841 2188 
z
M 1259 4147 
L 1259 2491 
L 2053 2491 
Q 2509 2491 2742 2702 
Q 2975 2913 2975 3322 
Q 2975 3731 2742 3939 
Q 2509 4147 2053 4147 
L 1259 4147 
z
" transform="scale(0.015625)"/>
       <path id="DejaVuSans-4d" d="M 628 4666 
L 1569 4666 
L 2759 1491 
L 3956 4666 
L 4897 4666 
L 4897 0 
L 4281 0 
L 4281 4097 
L 3078 897 
L 2444 897 
L 1241 4097 
L 1241 0 
L 628 0 
L 628 4666 
z
" transform="scale(0.015625)"/>
       <path id="DejaVuSans-53" d="M 3425 4513 
L 3425 3897 
Q 3066 4069 2747 4153 
Q 2428 4238 2131 4238 
Q 1616 4238 1336 4038 
Q 1056 3838 1056 3469 
Q 1056 3159 1242 3001 
Q 1428 2844 1947 2747 
L 2328 2669 
Q 3034 2534 3370 2195 
Q 3706 1856 3706 1288 
Q 3706 609 3251 259 
Q 2797 -91 1919 -91 
Q 1588 -91 1214 -16 
Q 841 59 441 206 
L 441 856 
Q 825 641 1194 531 
Q 1563 422 1919 422 
Q 2459 422 2753 634 
Q 3047 847 3047 1241 
Q 3047 1584 2836 1778 
Q 2625 1972 2144 2069 
L 1759 2144 
Q 1053 2284 737 2584 
Q 422 2884 422 3419 
Q 422 4038 858 4394 
Q 1294 4750 2059 4750 
Q 2388 4750 2728 4690 
Q 3069 4631 3425 4513 
z
" transform="scale(0.015625)"/>
       <path id="DejaVuSans-44" d="M 1259 4147 
L 1259 519 
L 2022 519 
Q 2988 519 3436 956 
Q 3884 1394 3884 2338 
Q 3884 3275 3436 3711 
Q 2988 4147 2022 4147 
L 1259 4147 
z
M 628 4666 
L 1925 4666 
Q 3281 4666 3915 4102 
Q 4550 3538 4550 2338 
Q 4550 1131 3912 565 
Q 3275 0 1925 0 
L 628 0 
L 628 4666 
z
" transform="scale(0.015625)"/>
       <path id="DejaVuSans-20" transform="scale(0.015625)"/>
       <path id="DejaVuSans-5b" d="M 550 4863 
L 1875 4863 
L 1875 4416 
L 1125 4416 
L 1125 -397 
L 1875 -397 
L 1875 -844 
L 550 -844 
L 550 4863 
z
" transform="scale(0.015625)"/>
       <path id="DejaVuSans-Oblique-c5" d="M 3188 5081 
Q 3188 5278 3048 5417 
Q 2909 5556 2713 5556 
Q 2513 5556 2377 5420 
Q 2241 5284 2241 5081 
Q 2241 4884 2377 4746 
Q 2513 4609 2713 4609 
Q 2909 4609 3048 4746 
Q 3188 4884 3188 5081 
z
M 2203 4397 
Q 2034 4513 1945 4689 
Q 1856 4866 1856 5081 
Q 1856 5438 2106 5689 
Q 2356 5941 2713 5941 
Q 3069 5941 3320 5689 
Q 3572 5438 3572 5081 
Q 3572 4834 3458 4643 
Q 3344 4453 3128 4341 
L 3938 0 
L 3278 0 
L 3084 1197 
L 984 1197 
L 325 0 
L -341 0 
L 2203 4397 
z
M 2584 4044 
L 1275 1722 
L 2988 1722 
L 2584 4044 
z
" transform="scale(0.015625)"/>
       <path id="DejaVuSans-5d" d="M 1947 4863 
L 1947 -844 
L 622 -844 
L 622 -397 
L 1369 -397 
L 1369 4416 
L 622 4416 
L 622 4863 
L 1947 4863 
z
" transform="scale(0.015625)"/>
      </defs>
      <use xlink:href="#DejaVuSans-52" transform="translate(0 0.171875)"/>
      <use xlink:href="#DejaVuSans-4d" transform="translate(69.482422 0.171875)"/>
      <use xlink:href="#DejaVuSans-53" transform="translate(155.761719 0.171875)"/>
      <use xlink:href="#DejaVuSans-44" transform="translate(219.238281 0.171875)"/>
      <use xlink:href="#DejaVuSans-20" transform="translate(296.240234 0.171875)"/>
      <use xlink:href="#DejaVuSans-5b" transform="translate(328.027344 0.171875)"/>
      <use xlink:href="#DejaVuSans-Oblique-c5" transform="translate(367.041016 0.171875)"/>
      <use xlink:href="#DejaVuSans-5d" transform="translate(435.449219 0.171875)"/>
     </g>
    </g>
   </g>
   <g id="LineCollection_1">
    <path d="M 66.015636 182.930057 
L 91.220864 182.930057 
" clip-path="url(#pa3496150da)" style="fill: none; stroke: #1f77b4; stroke-width: 1.5"/>
   </g>
   <g id="LineCollection_2">
    <path d="M 66.015636 57.338182 
L 91.220864 57.338182 
" clip-path="url(#pa3496150da)" style="fill: none; stroke: #1f77b4; stroke-width: 1.5"/>
   </g>
   <g id="LineCollection_3">
    <path d="M 66.015636 263.301818 
L 91.220864 263.301818 
" clip-path="url(#pa3496150da)" style="fill: none; stroke: #1f77b4; stroke-width: 1.5"/>
   </g>
   <g id="LineCollection_4">
    <path d="M 78.61825 263.301818 
L 78.61825 57.338182 
" clip-path="url(#pa3496150da)" style="fill: none; stroke: #1f77b4; stroke-width: 1.5"/>
   </g>
   <g id="patch_3">
    <path d="M 50.8925 273.6 
L 50.8925 47.04 
" style="fill: none; stroke: #000000; stroke-width: 0.8; stroke-linejoin: miter; stroke-linecap: square"/>
   </g>
   <g id="patch_4">
    <path d="M 106.344 273.6 
L 106.344 47.04 
" style="fill: none; stroke: #000000; stroke-width: 0.8; stroke-linejoin: miter; stroke-linecap: square"/>
   </g>
   <g id="patch_5">
    <path d="M 50.8925 273.6 
L 106.344 273.6 
" style="fill: none; stroke: #000000; stroke-width: 0.8; stroke-linejoin: miter; stroke-linecap: square"/>
   </g>
   <g id="patch_6">
    <path d="M 50.8925 47.04 
L 106.344 47.04 
" style="fill: none; stroke: #000000; stroke-width: 0.8; stroke-linejoin: miter; stroke-linecap: square"/>
   </g>
   <g id="text_9">
    <!-- RMSD -->
    <g transform="translate(60.84325 41.04)scale(0.12 -0.12)">
     <use xlink:href="#DejaVuSans-52"/>
     <use xlink:href="#DejaVuSans-4d" x="69.482422"/>
     <use xlink:href="#DejaVuSans-53" x="155.761719"/>
     <use xlink:href="#DejaVuSans-44" x="219.238281"/>
    </g>
   </g>
  </g>
  <g id="axes_2">
   <g id="patch_7">
    <path d="M 165.6065 273.6 
L 221.058 273.6 
L 221.058 47.04 
L 165.6065 47.04 
z
" style="fill: #ffffff"/>
   </g>
   <g id="PolyCollection_2">
    <path d="M 193.868123 263.301818 
L 192.796377 263.301818 
L 192.724729 261.221377 
L 192.646801 259.140937 
L 192.560238 257.060496 
L 192.4618 254.980055 
L 192.347388 252.899614 
L 192.212168 250.819174 
L 192.050799 248.738733 
L 191.857798 246.658292 
L 191.627992 244.577851 
L 191.357014 242.49741 
L 191.041753 240.41697 
L 190.680656 238.336529 
L 190.273801 236.256088 
L 189.822672 234.175647 
L 189.329664 232.095207 
L 188.797377 230.014766 
L 188.22783 227.934325 
L 187.621759 225.853884 
L 186.978132 223.773444 
L 186.294022 221.693003 
L 185.564872 219.612562 
L 184.785148 217.532121 
L 183.949299 215.45168 
L 183.052879 213.37124 
L 182.09369 211.290799 
L 181.072765 209.210358 
L 179.995091 207.129917 
L 178.869943 205.049477 
L 177.710841 202.969036 
L 176.535114 200.888595 
L 175.363137 198.808154 
L 174.217324 196.727713 
L 173.120929 194.647273 
L 172.096745 192.566832 
L 171.165756 190.486391 
L 170.345808 188.40595 
L 169.650416 186.32551 
L 169.087793 184.245069 
L 168.660289 182.164628 
L 168.364325 180.084187 
L 168.190953 178.003747 
L 168.127023 175.923306 
L 168.156849 173.842865 
L 168.264182 171.762424 
L 168.434186 169.681983 
L 168.655101 167.601543 
L 168.919362 165.521102 
L 169.22398 163.440661 
L 169.570199 161.36022 
L 169.962526 159.27978 
L 170.407374 157.199339 
L 170.911573 155.118898 
L 171.480985 153.038457 
L 172.119408 150.958017 
L 172.827831 148.877576 
L 173.604035 146.797135 
L 174.442473 144.716694 
L 175.33435 142.636253 
L 176.267875 140.555813 
L 177.228656 138.475372 
L 178.200284 136.394931 
L 179.165132 134.31449 
L 180.105366 132.23405 
L 181.004106 130.153609 
L 181.846621 128.073168 
L 182.621385 125.992727 
L 183.320841 123.912287 
L 183.941734 121.831846 
L 184.484994 119.751405 
L 184.955184 117.670964 
L 185.359651 115.590523 
L 185.70753 113.510083 
L 186.008755 111.429642 
L 186.273227 109.349201 
L 186.510175 107.26876 
L 186.727778 105.18832 
L 186.93297 103.107879 
L 187.131423 101.027438 
L 187.327613 98.946997 
L 187.524951 96.866556 
L 187.725936 94.786116 
L 187.932321 92.705675 
L 188.145282 90.625234 
L 188.365592 88.544793 
L 188.593781 86.464353 
L 188.830253 84.383912 
L 189.075336 82.303471 
L 189.329242 80.22303 
L 189.591934 78.14259 
L 189.862925 76.062149 
L 190.141053 73.981708 
L 190.424311 71.901267 
L 190.709784 69.820826 
L 190.993742 67.740386 
L 191.271887 65.659945 
L 191.539724 63.579504 
L 191.792974 61.499063 
L 192.02797 59.418623 
L 192.24195 57.338182 
L 194.42255 57.338182 
L 194.42255 57.338182 
L 194.63653 59.418623 
L 194.871526 61.499063 
L 195.124776 63.579504 
L 195.392613 65.659945 
L 195.670758 67.740386 
L 195.954716 69.820826 
L 196.240189 71.901267 
L 196.523447 73.981708 
L 196.801575 76.062149 
L 197.072566 78.14259 
L 197.335258 80.22303 
L 197.589164 82.303471 
L 197.834247 84.383912 
L 198.070719 86.464353 
L 198.298908 88.544793 
L 198.519218 90.625234 
L 198.732179 92.705675 
L 198.938564 94.786116 
L 199.139549 96.866556 
L 199.336887 98.946997 
L 199.533077 101.027438 
L 199.73153 103.107879 
L 199.936722 105.18832 
L 200.154325 107.26876 
L 200.391273 109.349201 
L 200.655745 111.429642 
L 200.95697 113.510083 
L 201.304849 115.590523 
L 201.709316 117.670964 
L 202.179506 119.751405 
L 202.722766 121.831846 
L 203.343659 123.912287 
L 204.043115 125.992727 
L 204.817879 128.073168 
L 205.660394 130.153609 
L 206.559134 132.23405 
L 207.499368 134.31449 
L 208.464216 136.394931 
L 209.435844 138.475372 
L 210.396625 140.555813 
L 211.33015 142.636253 
L 212.222027 144.716694 
L 213.060465 146.797135 
L 213.836669 148.877576 
L 214.545092 150.958017 
L 215.183515 153.038457 
L 215.752927 155.118898 
L 216.257126 157.199339 
L 216.701974 159.27978 
L 217.094301 161.36022 
L 217.44052 163.440661 
L 217.745138 165.521102 
L 218.009399 167.601543 
L 218.230314 169.681983 
L 218.400318 171.762424 
L 218.507651 173.842865 
L 218.537477 175.923306 
L 218.473547 178.003747 
L 218.300175 180.084187 
L 218.004211 182.164628 
L 217.576707 184.245069 
L 217.014084 186.32551 
L 216.318692 188.40595 
L 215.498744 190.486391 
L 214.567755 192.566832 
L 213.543571 194.647273 
L 212.447176 196.727713 
L 211.301363 198.808154 
L 210.129386 200.888595 
L 208.953659 202.969036 
L 207.794557 205.049477 
L 206.669409 207.129917 
L 205.591735 209.210358 
L 204.57081 211.290799 
L 203.611621 213.37124 
L 202.715201 215.45168 
L 201.879352 217.532121 
L 201.099628 219.612562 
L 200.370478 221.693003 
L 199.686368 223.773444 
L 199.042741 225.853884 
L 198.43667 227.934325 
L 197.867123 230.014766 
L 197.334836 232.095207 
L 196.841828 234.175647 
L 196.390699 236.256088 
L 195.983844 238.336529 
L 195.622747 240.41697 
L 195.307486 242.49741 
L 195.036508 244.577851 
L 194.806702 246.658292 
L 194.613701 248.738733 
L 194.452332 250.819174 
L 194.317112 252.899614 
L 194.2027 254.980055 
L 194.104262 257.060496 
L 194.017699 259.140937 
L 193.939771 261.221377 
L 193.868123 263.301818 
z
" clip-path="url(#pc4a040a077)" style="fill: #1f77b4; fill-opacity: 0.3"/>
   </g>
   <g id="matplotlib.axis_2">
    <g id="ytick_8">
     <g id="line2d_8">
      <g>
       <use xlink:href="#m393432ffa8" x="165.6065" y="263.309231" style="stroke: #000000; stroke-width: 0.8"/>
      </g>
     </g>
     <g id="text_10">
      <!-- 0.8 -->
      <g transform="translate(142.703375 267.10845)scale(0.1 -0.1)">
       <defs>
        <path id="DejaVuSans-30" d="M 2034 4250 
Q 1547 4250 1301 3770 
Q 1056 3291 1056 2328 
Q 1056 1369 1301 889 
Q 1547 409 2034 409 
Q 2525 409 2770 889 
Q 3016 1369 3016 2328 
Q 3016 3291 2770 3770 
Q 2525 4250 2034 4250 
z
M 2034 4750 
Q 2819 4750 3233 4129 
Q 3647 3509 3647 2328 
Q 3647 1150 3233 529 
Q 2819 -91 2034 -91 
Q 1250 -91 836 529 
Q 422 1150 422 2328 
Q 422 3509 836 4129 
Q 1250 4750 2034 4750 
z
" transform="scale(0.015625)"/>
        <path id="DejaVuSans-38" d="M 2034 2216 
Q 1584 2216 1326 1975 
Q 1069 1734 1069 1313 
Q 1069 891 1326 650 
Q 1584 409 2034 409 
Q 2484 409 2743 651 
Q 3003 894 3003 1313 
Q 3003 1734 2745 1975 
Q 2488 2216 2034 2216 
z
M 1403 2484 
Q 997 2584 770 2862 
Q 544 3141 544 3541 
Q 544 4100 942 4425 
Q 1341 4750 2034 4750 
Q 2731 4750 3128 4425 
Q 3525 4100 3525 3541 
Q 3525 3141 3298 2862 
Q 3072 2584 2669 2484 
Q 3125 2378 3379 2068 
Q 3634 1759 3634 1313 
Q 3634 634 3220 271 
Q 2806 -91 2034 -91 
Q 1263 -91 848 271 
Q 434 634 434 1313 
Q 434 1759 690 2068 
Q 947 2378 1403 2484 
z
M 1172 3481 
Q 1172 3119 1398 2916 
Q 1625 2713 2034 2713 
Q 2441 2713 2670 2916 
Q 2900 3119 2900 3481 
Q 2900 3844 2670 4047 
Q 2441 4250 2034 4250 
Q 1625 4250 1398 4047 
Q 1172 3844 1172 3481 
z
" transform="scale(0.015625)"/>
       </defs>
       <use xlink:href="#DejaVuSans-30"/>
       <use xlink:href="#DejaVuSans-2e" x="63.623047"/>
       <use xlink:href="#DejaVuSans-38" x="95.410156"/>
      </g>
     </g>
    </g>
    <g id="ytick_9">
     <g id="line2d_9">
      <g>
       <use xlink:href="#m393432ffa8" x="165.6065" y="217.49176" style="stroke: #000000; stroke-width: 0.8"/>
      </g>
     </g>
     <g id="text_11">
      <!-- 0.9 -->
      <g transform="translate(142.703375 221.290979)scale(0.1 -0.1)">
       <defs>
        <path id="DejaVuSans-39" d="M 703 97 
L 703 672 
Q 941 559 1184 500 
Q 1428 441 1663 441 
Q 2288 441 2617 861 
Q 2947 1281 2994 2138 
Q 2813 1869 2534 1725 
Q 2256 1581 1919 1581 
Q 1219 1581 811 2004 
Q 403 2428 403 3163 
Q 403 3881 828 4315 
Q 1253 4750 1959 4750 
Q 2769 4750 3195 4129 
Q 3622 3509 3622 2328 
Q 3622 1225 3098 567 
Q 2575 -91 1691 -91 
Q 1453 -91 1209 -44 
Q 966 3 703 97 
z
M 1959 2075 
Q 2384 2075 2632 2365 
Q 2881 2656 2881 3163 
Q 2881 3666 2632 3958 
Q 2384 4250 1959 4250 
Q 1534 4250 1286 3958 
Q 1038 3666 1038 3163 
Q 1038 2656 1286 2365 
Q 1534 2075 1959 2075 
z
" transform="scale(0.015625)"/>
       </defs>
       <use xlink:href="#DejaVuSans-30"/>
       <use xlink:href="#DejaVuSans-2e" x="63.623047"/>
       <use xlink:href="#DejaVuSans-39" x="95.410156"/>
      </g>
     </g>
    </g>
    <g id="ytick_10">
     <g id="line2d_10">
      <g>
       <use xlink:href="#m393432ffa8" x="165.6065" y="171.674289" style="stroke: #000000; stroke-width: 0.8"/>
      </g>
     </g>
     <g id="text_12">
      <!-- 1.0 -->
      <g transform="translate(142.703375 175.473507)scale(0.1 -0.1)">
       <use xlink:href="#DejaVuSans-31"/>
       <use xlink:href="#DejaVuSans-2e" x="63.623047"/>
       <use xlink:href="#DejaVuSans-30" x="95.410156"/>
      </g>
     </g>
    </g>
    <g id="ytick_11">
     <g id="line2d_11">
      <g>
       <use xlink:href="#m393432ffa8" x="165.6065" y="125.856817" style="stroke: #000000; stroke-width: 0.8"/>
      </g>
     </g>
     <g id="text_13">
      <!-- 1.1 -->
      <g transform="translate(142.703375 129.656036)scale(0.1 -0.1)">
       <use xlink:href="#DejaVuSans-31"/>
       <use xlink:href="#DejaVuSans-2e" x="63.623047"/>
       <use xlink:href="#DejaVuSans-31" x="95.410156"/>
      </g>
     </g>
    </g>
    <g id="ytick_12">
     <g id="line2d_12">
      <g>
       <use xlink:href="#m393432ffa8" x="165.6065" y="80.039346" style="stroke: #000000; stroke-width: 0.8"/>
      </g>
     </g>
     <g id="text_14">
      <!-- 1.2 -->
      <g transform="translate(142.703375 83.838564)scale(0.1 -0.1)">
       <use xlink:href="#DejaVuSans-31"/>
       <use xlink:href="#DejaVuSans-2e" x="63.623047"/>
       <use xlink:href="#DejaVuSans-32" x="95.410156"/>
      </g>
     </g>
    </g>
    <g id="text_15">
     <!-- MAE [$\AA$] -->
     <g transform="translate(136.623687 180.17)rotate(-90)scale(0.1 -0.1)">
      <defs>
       <path id="DejaVuSans-41" d="M 2188 4044 
L 1331 1722 
L 3047 1722 
L 2188 4044 
z
M 1831 4666 
L 2547 4666 
L 4325 0 
L 3669 0 
L 3244 1197 
L 1141 1197 
L 716 0 
L 50 0 
L 1831 4666 
z
" transform="scale(0.015625)"/>
       <path id="DejaVuSans-45" d="M 628 4666 
L 3578 4666 
L 3578 4134 
L 1259 4134 
L 1259 2753 
L 3481 2753 
L 3481 2222 
L 1259 2222 
L 1259 531 
L 3634 531 
L 3634 0 
L 628 0 
L 628 4666 
z
" transform="scale(0.015625)"/>
      </defs>
      <use xlink:href="#DejaVuSans-4d" transform="translate(0 0.171875)"/>
      <use xlink:href="#DejaVuSans-41" transform="translate(86.279297 0.171875)"/>
      <use xlink:href="#DejaVuSans-45" transform="translate(154.6875 0.171875)"/>
      <use xlink:href="#DejaVuSans-20" transform="translate(217.871094 0.171875)"/>
      <use xlink:href="#DejaVuSans-5b" transform="translate(249.658203 0.171875)"/>
      <use xlink:href="#DejaVuSans-Oblique-c5" transform="translate(288.671875 0.171875)"/>
      <use xlink:href="#DejaVuSans-5d" transform="translate(357.080078 0.171875)"/>
     </g>
    </g>
   </g>
   <g id="LineCollection_5">
    <path d="M 180.729636 163.399129 
L 205.934864 163.399129 
" clip-path="url(#pc4a040a077)" style="fill: none; stroke: #1f77b4; stroke-width: 1.5"/>
   </g>
   <g id="LineCollection_6">
    <path d="M 180.729636 57.338182 
L 205.934864 57.338182 
" clip-path="url(#pc4a040a077)" style="fill: none; stroke: #1f77b4; stroke-width: 1.5"/>
   </g>
   <g id="LineCollection_7">
    <path d="M 180.729636 263.301818 
L 205.934864 263.301818 
" clip-path="url(#pc4a040a077)" style="fill: none; stroke: #1f77b4; stroke-width: 1.5"/>
   </g>
   <g id="LineCollection_8">
    <path d="M 193.33225 263.301818 
L 193.33225 57.338182 
" clip-path="url(#pc4a040a077)" style="fill: none; stroke: #1f77b4; stroke-width: 1.5"/>
   </g>
   <g id="patch_8">
    <path d="M 165.6065 273.6 
L 165.6065 47.04 
" style="fill: none; stroke: #000000; stroke-width: 0.8; stroke-linejoin: miter; stroke-linecap: square"/>
   </g>
   <g id="patch_9">
    <path d="M 221.058 273.6 
L 221.058 47.04 
" style="fill: none; stroke: #000000; stroke-width: 0.8; stroke-linejoin: miter; stroke-linecap: square"/>
   </g>
   <g id="patch_10">
    <path d="M 165.6065 273.6 
L 221.058 273.6 
" style="fill: none; stroke: #000000; stroke-width: 0.8; stroke-linejoin: miter; stroke-linecap: square"/>
   </g>
   <g id="patch_11">
    <path d="M 165.6065 47.04 
L 221.058 47.04 
" style="fill: none; stroke: #000000; stroke-width: 0.8; stroke-linejoin: miter; stroke-linecap: square"/>
   </g>
   <g id="text_16">
    <!-- MAE -->
    <g transform="translate(180.25975 41.04)scale(0.12 -0.12)">
     <use xlink:href="#DejaVuSans-4d"/>
     <use xlink:href="#DejaVuSans-41" x="86.279297"/>
     <use xlink:href="#DejaVuSans-45" x="154.6875"/>
    </g>
   </g>
  </g>
  <g id="axes_3">
   <g id="patch_12">
    <path d="M 280.3205 273.6 
L 335.772 273.6 
L 335.772 47.04 
L 280.3205 47.04 
z
" style="fill: #ffffff"/>
   </g>
   <g id="PolyCollection_3">
    <path d="M 310.937422 263.301818 
L 305.155078 263.301818 
L 304.663017 261.221377 
L 304.12419 259.140937 
L 303.540113 257.060496 
L 302.912982 254.980055 
L 302.245538 252.899614 
L 301.540923 250.819174 
L 300.802528 248.738733 
L 300.033868 246.658292 
L 299.238476 244.577851 
L 298.419834 242.49741 
L 297.581349 240.41697 
L 296.726334 238.336529 
L 295.85803 236.256088 
L 294.979612 234.175647 
L 294.094212 232.095207 
L 293.204933 230.014766 
L 292.314881 227.934325 
L 291.427225 225.853884 
L 290.545314 223.773444 
L 289.67286 221.693003 
L 288.814201 219.612562 
L 287.974618 217.532121 
L 287.160692 215.45168 
L 286.380612 213.37124 
L 285.644397 211.290799 
L 284.963926 209.210358 
L 284.352729 207.129917 
L 283.825493 205.049477 
L 283.397289 202.969036 
L 283.082555 200.888595 
L 282.893924 198.808154 
L 282.841023 196.727713 
L 282.929369 194.647273 
L 283.159514 192.566832 
L 283.526542 190.486391 
L 284.019999 188.40595 
L 284.624293 186.32551 
L 285.319528 184.245069 
L 286.082705 182.164628 
L 286.889169 180.084187 
L 287.71417 178.003747 
L 288.534384 175.923306 
L 289.329254 173.842865 
L 290.082046 171.762424 
L 290.780527 169.681983 
L 291.417236 167.601543 
L 291.989354 165.521102 
L 292.4982 163.440661 
L 292.94845 161.36022 
L 293.347156 159.27978 
L 293.70269 157.199339 
L 294.023706 155.118898 
L 294.318225 153.038457 
L 294.592912 150.958017 
L 294.852603 148.877576 
L 295.100087 146.797135 
L 295.336153 144.716694 
L 295.559851 142.636253 
L 295.768923 140.555813 
L 295.960341 138.475372 
L 296.130879 136.394931 
L 296.277661 134.31449 
L 296.398635 132.23405 
L 296.492938 130.153609 
L 296.561128 128.073168 
L 296.605288 125.992727 
L 296.629007 123.912287 
L 296.637257 121.831846 
L 296.636189 119.751405 
L 296.63287 117.670964 
L 296.634985 115.590523 
L 296.65051 113.510083 
L 296.687376 111.429642 
L 296.753132 109.349201 
L 296.854613 107.26876 
L 296.997626 105.18832 
L 297.18667 103.107879 
L 297.424698 101.027438 
L 297.712946 98.946997 
L 298.050842 96.866556 
L 298.436005 94.786116 
L 298.864345 92.705675 
L 299.330253 90.625234 
L 299.826884 88.544793 
L 300.346493 86.464353 
L 300.880825 84.383912 
L 301.421511 82.303471 
L 301.960449 80.22303 
L 302.490147 78.14259 
L 303.004 76.062149 
L 303.496494 73.981708 
L 303.96332 71.901267 
L 304.401405 69.820826 
L 304.808862 67.740386 
L 305.184874 65.659945 
L 305.529527 63.579504 
L 305.843614 61.499063 
L 306.128432 59.418623 
L 306.385587 57.338182 
L 309.706913 57.338182 
L 309.706913 57.338182 
L 309.964068 59.418623 
L 310.248886 61.499063 
L 310.562973 63.579504 
L 310.907626 65.659945 
L 311.283638 67.740386 
L 311.691095 69.820826 
L 312.12918 71.901267 
L 312.596006 73.981708 
L 313.0885 76.062149 
L 313.602353 78.14259 
L 314.132051 80.22303 
L 314.670989 82.303471 
L 315.211675 84.383912 
L 315.746007 86.464353 
L 316.265616 88.544793 
L 316.762247 90.625234 
L 317.228155 92.705675 
L 317.656495 94.786116 
L 318.041658 96.866556 
L 318.379554 98.946997 
L 318.667802 101.027438 
L 318.90583 103.107879 
L 319.094874 105.18832 
L 319.237887 107.26876 
L 319.339368 109.349201 
L 319.405124 111.429642 
L 319.44199 113.510083 
L 319.457515 115.590523 
L 319.45963 117.670964 
L 319.456311 119.751405 
L 319.455243 121.831846 
L 319.463493 123.912287 
L 319.487212 125.992727 
L 319.531372 128.073168 
L 319.599562 130.153609 
L 319.693865 132.23405 
L 319.814839 134.31449 
L 319.961621 136.394931 
L 320.132159 138.475372 
L 320.323577 140.555813 
L 320.532649 142.636253 
L 320.756347 144.716694 
L 320.992413 146.797135 
L 321.239897 148.877576 
L 321.499588 150.958017 
L 321.774275 153.038457 
L 322.068794 155.118898 
L 322.38981 157.199339 
L 322.745344 159.27978 
L 323.14405 161.36022 
L 323.5943 163.440661 
L 324.103146 165.521102 
L 324.675264 167.601543 
L 325.311973 169.681983 
L 326.010454 171.762424 
L 326.763246 173.842865 
L 327.558116 175.923306 
L 328.37833 178.003747 
L 329.203331 180.084187 
L 330.009795 182.164628 
L 330.772972 184.245069 
L 331.468207 186.32551 
L 332.072501 188.40595 
L 332.565958 190.486391 
L 332.932986 192.566832 
L 333.163131 194.647273 
L 333.251477 196.727713 
L 333.198576 198.808154 
L 333.009945 200.888595 
L 332.695211 202.969036 
L 332.267007 205.049477 
L 331.739771 207.129917 
L 331.128574 209.210358 
L 330.448103 211.290799 
L 329.711888 213.37124 
L 328.931808 215.45168 
L 328.117882 217.532121 
L 327.278299 219.612562 
L 326.41964 221.693003 
L 325.547186 223.773444 
L 324.665275 225.853884 
L 323.777619 227.934325 
L 322.887567 230.014766 
L 321.998288 232.095207 
L 321.112888 234.175647 
L 320.23447 236.256088 
L 319.366166 238.336529 
L 318.511151 240.41697 
L 317.672666 242.49741 
L 316.854024 244.577851 
L 316.058632 246.658292 
L 315.289972 248.738733 
L 314.551577 250.819174 
L 313.846962 252.899614 
L 313.179518 254.980055 
L 312.552387 257.060496 
L 311.96831 259.140937 
L 311.429483 261.221377 
L 310.937422 263.301818 
z
" clip-path="url(#p16cbad7bf4)" style="fill: #1f77b4; fill-opacity: 0.3"/>
   </g>
   <g id="matplotlib.axis_3">
    <g id="ytick_13">
     <g id="line2d_13">
      <g>
       <use xlink:href="#m393432ffa8" x="280.3205" y="239.883224" style="stroke: #000000; stroke-width: 0.8"/>
      </g>
     </g>
     <g id="text_17">
      <!-- −0.9 -->
      <g transform="translate(249.037687 243.682442)scale(0.1 -0.1)">
       <defs>
        <path id="DejaVuSans-2212" d="M 678 2272 
L 4684 2272 
L 4684 1741 
L 678 1741 
L 678 2272 
z
" transform="scale(0.015625)"/>
       </defs>
       <use xlink:href="#DejaVuSans-2212"/>
       <use xlink:href="#DejaVuSans-30" x="83.789062"/>
       <use xlink:href="#DejaVuSans-2e" x="147.412109"/>
       <use xlink:href="#DejaVuSans-39" x="179.199219"/>
      </g>
     </g>
    </g>
    <g id="ytick_14">
     <g id="line2d_14">
      <g>
       <use xlink:href="#m393432ffa8" x="280.3205" y="206.128696" style="stroke: #000000; stroke-width: 0.8"/>
      </g>
     </g>
     <g id="text_18">
      <!-- −0.8 -->
      <g transform="translate(249.037687 209.927915)scale(0.1 -0.1)">
       <use xlink:href="#DejaVuSans-2212"/>
       <use xlink:href="#DejaVuSans-30" x="83.789062"/>
       <use xlink:href="#DejaVuSans-2e" x="147.412109"/>
       <use xlink:href="#DejaVuSans-38" x="179.199219"/>
      </g>
     </g>
    </g>
    <g id="ytick_15">
     <g id="line2d_15">
      <g>
       <use xlink:href="#m393432ffa8" x="280.3205" y="172.374168" style="stroke: #000000; stroke-width: 0.8"/>
      </g>
     </g>
     <g id="text_19">
      <!-- −0.7 -->
      <g transform="translate(249.037687 176.173387)scale(0.1 -0.1)">
       <use xlink:href="#DejaVuSans-2212"/>
       <use xlink:href="#DejaVuSans-30" x="83.789062"/>
       <use xlink:href="#DejaVuSans-2e" x="147.412109"/>
       <use xlink:href="#DejaVuSans-37" x="179.199219"/>
      </g>
     </g>
    </g>
    <g id="ytick_16">
     <g id="line2d_16">
      <g>
       <use xlink:href="#m393432ffa8" x="280.3205" y="138.619641" style="stroke: #000000; stroke-width: 0.8"/>
      </g>
     </g>
     <g id="text_20">
      <!-- −0.6 -->
      <g transform="translate(249.037687 142.418859)scale(0.1 -0.1)">
       <use xlink:href="#DejaVuSans-2212"/>
       <use xlink:href="#DejaVuSans-30" x="83.789062"/>
       <use xlink:href="#DejaVuSans-2e" x="147.412109"/>
       <use xlink:href="#DejaVuSans-36" x="179.199219"/>
      </g>
     </g>
    </g>
    <g id="ytick_17">
     <g id="line2d_17">
      <g>
       <use xlink:href="#m393432ffa8" x="280.3205" y="104.865113" style="stroke: #000000; stroke-width: 0.8"/>
      </g>
     </g>
     <g id="text_21">
      <!-- −0.5 -->
      <g transform="translate(249.037687 108.664332)scale(0.1 -0.1)">
       <use xlink:href="#DejaVuSans-2212"/>
       <use xlink:href="#DejaVuSans-30" x="83.789062"/>
       <use xlink:href="#DejaVuSans-2e" x="147.412109"/>
       <use xlink:href="#DejaVuSans-35" x="179.199219"/>
      </g>
     </g>
    </g>
    <g id="ytick_18">
     <g id="line2d_18">
      <g>
       <use xlink:href="#m393432ffa8" x="280.3205" y="71.110585" style="stroke: #000000; stroke-width: 0.8"/>
      </g>
     </g>
     <g id="text_22">
      <!-- −0.4 -->
      <g transform="translate(249.037687 74.909804)scale(0.1 -0.1)">
       <use xlink:href="#DejaVuSans-2212"/>
       <use xlink:href="#DejaVuSans-30" x="83.789062"/>
       <use xlink:href="#DejaVuSans-2e" x="147.412109"/>
       <use xlink:href="#DejaVuSans-34" x="179.199219"/>
      </g>
     </g>
    </g>
    <g id="text_23">
     <!-- MSE [$\AA$] -->
     <g transform="translate(242.958 179.92)rotate(-90)scale(0.1 -0.1)">
      <use xlink:href="#DejaVuSans-4d" transform="translate(0 0.171875)"/>
      <use xlink:href="#DejaVuSans-53" transform="translate(86.279297 0.171875)"/>
      <use xlink:href="#DejaVuSans-45" transform="translate(149.755859 0.171875)"/>
      <use xlink:href="#DejaVuSans-20" transform="translate(212.939453 0.171875)"/>
      <use xlink:href="#DejaVuSans-5b" transform="translate(244.726562 0.171875)"/>
      <use xlink:href="#DejaVuSans-Oblique-c5" transform="translate(283.740234 0.171875)"/>
      <use xlink:href="#DejaVuSans-5d" transform="translate(352.148438 0.171875)"/>
     </g>
    </g>
   </g>
   <g id="LineCollection_9">
    <path d="M 295.443636 173.093091 
L 320.648864 173.093091 
" clip-path="url(#p16cbad7bf4)" style="fill: none; stroke: #1f77b4; stroke-width: 1.5"/>
   </g>
   <g id="LineCollection_10">
    <path d="M 295.443636 57.338182 
L 320.648864 57.338182 
" clip-path="url(#p16cbad7bf4)" style="fill: none; stroke: #1f77b4; stroke-width: 1.5"/>
   </g>
   <g id="LineCollection_11">
    <path d="M 295.443636 263.301818 
L 320.648864 263.301818 
" clip-path="url(#p16cbad7bf4)" style="fill: none; stroke: #1f77b4; stroke-width: 1.5"/>
   </g>
   <g id="LineCollection_12">
    <path d="M 308.04625 263.301818 
L 308.04625 57.338182 
" clip-path="url(#p16cbad7bf4)" style="fill: none; stroke: #1f77b4; stroke-width: 1.5"/>
   </g>
   <g id="patch_13">
    <path d="M 280.3205 273.6 
L 280.3205 47.04 
" style="fill: none; stroke: #000000; stroke-width: 0.8; stroke-linejoin: miter; stroke-linecap: square"/>
   </g>
   <g id="patch_14">
    <path d="M 335.772 273.6 
L 335.772 47.04 
" style="fill: none; stroke: #000000; stroke-width: 0.8; stroke-linejoin: miter; stroke-linecap: square"/>
   </g>
   <g id="patch_15">
    <path d="M 280.3205 273.6 
L 335.772 273.6 
" style="fill: none; stroke: #000000; stroke-width: 0.8; stroke-linejoin: miter; stroke-linecap: square"/>
   </g>
   <g id="patch_16">
    <path d="M 280.3205 47.04 
L 335.772 47.04 
" style="fill: none; stroke: #000000; stroke-width: 0.8; stroke-linejoin: miter; stroke-linecap: square"/>
   </g>
   <g id="text_24">
    <!-- MSE -->
    <g transform="translate(295.269062 41.04)scale(0.12 -0.12)">
     <use xlink:href="#DejaVuSans-4d"/>
     <use xlink:href="#DejaVuSans-53" x="86.279297"/>
     <use xlink:href="#DejaVuSans-45" x="149.755859"/>
    </g>
   </g>
  </g>
  <g id="axes_4">
   <g id="patch_17">
    <path d="M 395.0345 273.6 
L 450.486 273.6 
L 450.486 47.04 
L 395.0345 47.04 
z
" style="fill: #ffffff"/>
   </g>
   <g id="PolyCollection_4">
    <path d="M 423.984059 263.301818 
L 421.536441 263.301818 
L 421.378899 261.221377 
L 421.215356 259.140937 
L 421.046726 257.060496 
L 420.87376 254.980055 
L 420.696861 252.899614 
L 420.51583 250.819174 
L 420.329588 248.738733 
L 420.135909 246.658292 
L 419.931248 244.577851 
L 419.710709 242.49741 
L 419.468199 240.41697 
L 419.19679 238.336529 
L 418.889266 236.256088 
L 418.538839 234.175647 
L 418.139944 232.095207 
L 417.68905 230.014766 
L 417.185348 227.934325 
L 416.631206 225.853884 
L 416.032275 223.773444 
L 415.397158 221.693003 
L 414.736672 219.612562 
L 414.062766 217.532121 
L 413.38729 215.45168 
L 412.720839 213.37124 
L 412.071874 211.290799 
L 411.446274 209.210358 
L 410.847332 207.129917 
L 410.276121 205.049477 
L 409.732044 202.969036 
L 409.213413 200.888595 
L 408.717894 198.808154 
L 408.242798 196.727713 
L 407.78524 194.647273 
L 407.342258 192.566832 
L 406.910942 190.486391 
L 406.488609 188.40595 
L 406.072962 186.32551 
L 405.662175 184.245069 
L 405.254845 182.164628 
L 404.849822 180.084187 
L 404.445973 178.003747 
L 404.042014 175.923306 
L 403.636469 173.842865 
L 403.227799 171.762424 
L 402.814661 169.681983 
L 402.396184 167.601543 
L 401.972182 165.521102 
L 401.543257 163.440661 
L 401.11083 161.36022 
L 400.677158 159.27978 
L 400.245432 157.199339 
L 399.819947 155.118898 
L 399.406302 153.038457 
L 399.011502 150.958017 
L 398.643884 148.877576 
L 398.312818 146.797135 
L 398.028279 144.716694 
L 397.800432 142.636253 
L 397.639363 140.555813 
L 397.555023 138.475372 
L 397.557309 136.394931 
L 397.656082 134.31449 
L 397.860902 132.23405 
L 398.18035 130.153609 
L 398.620966 128.073168 
L 399.186024 125.992727 
L 399.874485 123.912287 
L 400.680466 121.831846 
L 401.593419 119.751405 
L 402.598976 117.670964 
L 403.680243 115.590523 
L 404.819156 113.510083 
L 405.997574 111.429642 
L 407.197893 109.349201 
L 408.403186 107.26876 
L 409.59706 105.18832 
L 410.76348 103.107879 
L 411.886843 101.027438 
L 412.952411 98.946997 
L 413.947091 96.866556 
L 414.860393 94.786116 
L 415.685337 92.705675 
L 416.419082 90.625234 
L 417.063121 88.544793 
L 417.622997 86.464353 
L 418.107594 84.383912 
L 418.528106 82.303471 
L 418.89685 80.22303 
L 419.226075 78.14259 
L 419.5269 76.062149 
L 419.808489 73.981708 
L 420.07754 71.901267 
L 420.33811 69.820826 
L 420.591777 67.740386 
L 420.838067 65.659945 
L 421.075065 63.579504 
L 421.300095 61.499063 
L 421.510362 59.418623 
L 421.703457 57.338182 
L 423.817043 57.338182 
L 423.817043 57.338182 
L 424.010138 59.418623 
L 424.220405 61.499063 
L 424.445435 63.579504 
L 424.682433 65.659945 
L 424.928723 67.740386 
L 425.18239 69.820826 
L 425.44296 71.901267 
L 425.712011 73.981708 
L 425.9936 76.062149 
L 426.294425 78.14259 
L 426.62365 80.22303 
L 426.992394 82.303471 
L 427.412906 84.383912 
L 427.897503 86.464353 
L 428.457379 88.544793 
L 429.101418 90.625234 
L 429.835163 92.705675 
L 430.660107 94.786116 
L 431.573409 96.866556 
L 432.568089 98.946997 
L 433.633657 101.027438 
L 434.75702 103.107879 
L 435.92344 105.18832 
L 437.117314 107.26876 
L 438.322607 109.349201 
L 439.522926 111.429642 
L 440.701344 113.510083 
L 441.840257 115.590523 
L 442.921524 117.670964 
L 443.927081 119.751405 
L 444.840034 121.831846 
L 445.646015 123.912287 
L 446.334476 125.992727 
L 446.899534 128.073168 
L 447.34015 130.153609 
L 447.659598 132.23405 
L 447.864418 134.31449 
L 447.963191 136.394931 
L 447.965477 138.475372 
L 447.881137 140.555813 
L 447.720068 142.636253 
L 447.492221 144.716694 
L 447.207682 146.797135 
L 446.876616 148.877576 
L 446.508998 150.958017 
L 446.114198 153.038457 
L 445.700553 155.118898 
L 445.275068 157.199339 
L 444.843342 159.27978 
L 444.40967 161.36022 
L 443.977243 163.440661 
L 443.548318 165.521102 
L 443.124316 167.601543 
L 442.705839 169.681983 
L 442.292701 171.762424 
L 441.884031 173.842865 
L 441.478486 175.923306 
L 441.074527 178.003747 
L 440.670678 180.084187 
L 440.265655 182.164628 
L 439.858325 184.245069 
L 439.447538 186.32551 
L 439.031891 188.40595 
L 438.609558 190.486391 
L 438.178242 192.566832 
L 437.73526 194.647273 
L 437.277702 196.727713 
L 436.802606 198.808154 
L 436.307087 200.888595 
L 435.788456 202.969036 
L 435.244379 205.049477 
L 434.673168 207.129917 
L 434.074226 209.210358 
L 433.448626 211.290799 
L 432.799661 213.37124 
L 432.13321 215.45168 
L 431.457734 217.532121 
L 430.783828 219.612562 
L 430.123342 221.693003 
L 429.488225 223.773444 
L 428.889294 225.853884 
L 428.335152 227.934325 
L 427.83145 230.014766 
L 427.380556 232.095207 
L 426.981661 234.175647 
L 426.631234 236.256088 
L 426.32371 238.336529 
L 426.052301 240.41697 
L 425.809791 242.49741 
L 425.589252 244.577851 
L 425.384591 246.658292 
L 425.190912 248.738733 
L 425.00467 250.819174 
L 424.823639 252.899614 
L 424.64674 254.980055 
L 424.473774 257.060496 
L 424.305144 259.140937 
L 424.141601 261.221377 
L 423.984059 263.301818 
z
" clip-path="url(#pb0247b1ace)" style="fill: #1f77b4; fill-opacity: 0.3"/>
   </g>
   <g id="matplotlib.axis_4">
    <g id="ytick_19">
     <g id="line2d_19">
      <g>
       <use xlink:href="#m393432ffa8" x="395.0345" y="271.025455" style="stroke: #000000; stroke-width: 0.8"/>
      </g>
     </g>
     <g id="text_25">
      <!-- 0.65 -->
      <g transform="translate(365.768875 274.824673)scale(0.1 -0.1)">
       <use xlink:href="#DejaVuSans-30"/>
       <use xlink:href="#DejaVuSans-2e" x="63.623047"/>
       <use xlink:href="#DejaVuSans-36" x="95.410156"/>
       <use xlink:href="#DejaVuSans-35" x="159.033203"/>
      </g>
     </g>
    </g>
    <g id="ytick_20">
     <g id="line2d_20">
      <g>
       <use xlink:href="#m393432ffa8" x="395.0345" y="230.690909" style="stroke: #000000; stroke-width: 0.8"/>
      </g>
     </g>
     <g id="text_26">
      <!-- 0.70 -->
      <g transform="translate(365.768875 234.490128)scale(0.1 -0.1)">
       <use xlink:href="#DejaVuSans-30"/>
       <use xlink:href="#DejaVuSans-2e" x="63.623047"/>
       <use xlink:href="#DejaVuSans-37" x="95.410156"/>
       <use xlink:href="#DejaVuSans-30" x="159.033203"/>
      </g>
     </g>
    </g>
    <g id="ytick_21">
     <g id="line2d_21">
      <g>
       <use xlink:href="#m393432ffa8" x="395.0345" y="190.356364" style="stroke: #000000; stroke-width: 0.8"/>
      </g>
     </g>
     <g id="text_27">
      <!-- 0.75 -->
      <g transform="translate(365.768875 194.155582)scale(0.1 -0.1)">
       <use xlink:href="#DejaVuSans-30"/>
       <use xlink:href="#DejaVuSans-2e" x="63.623047"/>
       <use xlink:href="#DejaVuSans-37" x="95.410156"/>
       <use xlink:href="#DejaVuSans-35" x="159.033203"/>
      </g>
     </g>
    </g>
    <g id="ytick_22">
     <g id="line2d_22">
      <g>
       <use xlink:href="#m393432ffa8" x="395.0345" y="150.021818" style="stroke: #000000; stroke-width: 0.8"/>
      </g>
     </g>
     <g id="text_28">
      <!-- 0.80 -->
      <g transform="translate(365.768875 153.821037)scale(0.1 -0.1)">
       <use xlink:href="#DejaVuSans-30"/>
       <use xlink:href="#DejaVuSans-2e" x="63.623047"/>
       <use xlink:href="#DejaVuSans-38" x="95.410156"/>
       <use xlink:href="#DejaVuSans-30" x="159.033203"/>
      </g>
     </g>
    </g>
    <g id="ytick_23">
     <g id="line2d_23">
      <g>
       <use xlink:href="#m393432ffa8" x="395.0345" y="109.687273" style="stroke: #000000; stroke-width: 0.8"/>
      </g>
     </g>
     <g id="text_29">
      <!-- 0.85 -->
      <g transform="translate(365.768875 113.486491)scale(0.1 -0.1)">
       <use xlink:href="#DejaVuSans-30"/>
       <use xlink:href="#DejaVuSans-2e" x="63.623047"/>
       <use xlink:href="#DejaVuSans-38" x="95.410156"/>
       <use xlink:href="#DejaVuSans-35" x="159.033203"/>
      </g>
     </g>
    </g>
    <g id="ytick_24">
     <g id="line2d_24">
      <g>
       <use xlink:href="#m393432ffa8" x="395.0345" y="69.352727" style="stroke: #000000; stroke-width: 0.8"/>
      </g>
     </g>
     <g id="text_30">
      <!-- 0.90 -->
      <g transform="translate(365.768875 73.151946)scale(0.1 -0.1)">
       <use xlink:href="#DejaVuSans-30"/>
       <use xlink:href="#DejaVuSans-2e" x="63.623047"/>
       <use xlink:href="#DejaVuSans-39" x="95.410156"/>
       <use xlink:href="#DejaVuSans-30" x="159.033203"/>
      </g>
     </g>
    </g>
    <g id="text_31">
     <!-- % NOE fulfilled [1/100 %] -->
     <g transform="translate(359.689188 223.820781)rotate(-90)scale(0.1 -0.1)">
      <defs>
       <path id="DejaVuSans-25" d="M 4653 2053 
Q 4381 2053 4226 1822 
Q 4072 1591 4072 1178 
Q 4072 772 4226 539 
Q 4381 306 4653 306 
Q 4919 306 5073 539 
Q 5228 772 5228 1178 
Q 5228 1588 5073 1820 
Q 4919 2053 4653 2053 
z
M 4653 2450 
Q 5147 2450 5437 2106 
Q 5728 1763 5728 1178 
Q 5728 594 5436 251 
Q 5144 -91 4653 -91 
Q 4153 -91 3862 251 
Q 3572 594 3572 1178 
Q 3572 1766 3864 2108 
Q 4156 2450 4653 2450 
z
M 1428 4353 
Q 1159 4353 1004 4120 
Q 850 3888 850 3481 
Q 850 3069 1003 2837 
Q 1156 2606 1428 2606 
Q 1700 2606 1854 2837 
Q 2009 3069 2009 3481 
Q 2009 3884 1853 4118 
Q 1697 4353 1428 4353 
z
M 4250 4750 
L 4750 4750 
L 1831 -91 
L 1331 -91 
L 4250 4750 
z
M 1428 4750 
Q 1922 4750 2215 4408 
Q 2509 4066 2509 3481 
Q 2509 2891 2217 2550 
Q 1925 2209 1428 2209 
Q 931 2209 642 2551 
Q 353 2894 353 3481 
Q 353 4063 643 4406 
Q 934 4750 1428 4750 
z
" transform="scale(0.015625)"/>
       <path id="DejaVuSans-4e" d="M 628 4666 
L 1478 4666 
L 3547 763 
L 3547 4666 
L 4159 4666 
L 4159 0 
L 3309 0 
L 1241 3903 
L 1241 0 
L 628 0 
L 628 4666 
z
" transform="scale(0.015625)"/>
       <path id="DejaVuSans-4f" d="M 2522 4238 
Q 1834 4238 1429 3725 
Q 1025 3213 1025 2328 
Q 1025 1447 1429 934 
Q 1834 422 2522 422 
Q 3209 422 3611 934 
Q 4013 1447 4013 2328 
Q 4013 3213 3611 3725 
Q 3209 4238 2522 4238 
z
M 2522 4750 
Q 3503 4750 4090 4092 
Q 4678 3434 4678 2328 
Q 4678 1225 4090 567 
Q 3503 -91 2522 -91 
Q 1538 -91 948 565 
Q 359 1222 359 2328 
Q 359 3434 948 4092 
Q 1538 4750 2522 4750 
z
" transform="scale(0.015625)"/>
       <path id="DejaVuSans-66" d="M 2375 4863 
L 2375 4384 
L 1825 4384 
Q 1516 4384 1395 4259 
Q 1275 4134 1275 3809 
L 1275 3500 
L 2222 3500 
L 2222 3053 
L 1275 3053 
L 1275 0 
L 697 0 
L 697 3053 
L 147 3053 
L 147 3500 
L 697 3500 
L 697 3744 
Q 697 4328 969 4595 
Q 1241 4863 1831 4863 
L 2375 4863 
z
" transform="scale(0.015625)"/>
       <path id="DejaVuSans-75" d="M 544 1381 
L 544 3500 
L 1119 3500 
L 1119 1403 
Q 1119 906 1312 657 
Q 1506 409 1894 409 
Q 2359 409 2629 706 
Q 2900 1003 2900 1516 
L 2900 3500 
L 3475 3500 
L 3475 0 
L 2900 0 
L 2900 538 
Q 2691 219 2414 64 
Q 2138 -91 1772 -91 
Q 1169 -91 856 284 
Q 544 659 544 1381 
z
M 1991 3584 
L 1991 3584 
z
" transform="scale(0.015625)"/>
       <path id="DejaVuSans-6c" d="M 603 4863 
L 1178 4863 
L 1178 0 
L 603 0 
L 603 4863 
z
" transform="scale(0.015625)"/>
       <path id="DejaVuSans-69" d="M 603 3500 
L 1178 3500 
L 1178 0 
L 603 0 
L 603 3500 
z
M 603 4863 
L 1178 4863 
L 1178 4134 
L 603 4134 
L 603 4863 
z
" transform="scale(0.015625)"/>
       <path id="DejaVuSans-65" d="M 3597 1894 
L 3597 1613 
L 953 1613 
Q 991 1019 1311 708 
Q 1631 397 2203 397 
Q 2534 397 2845 478 
Q 3156 559 3463 722 
L 3463 178 
Q 3153 47 2828 -22 
Q 2503 -91 2169 -91 
Q 1331 -91 842 396 
Q 353 884 353 1716 
Q 353 2575 817 3079 
Q 1281 3584 2069 3584 
Q 2775 3584 3186 3129 
Q 3597 2675 3597 1894 
z
M 3022 2063 
Q 3016 2534 2758 2815 
Q 2500 3097 2075 3097 
Q 1594 3097 1305 2825 
Q 1016 2553 972 2059 
L 3022 2063 
z
" transform="scale(0.015625)"/>
       <path id="DejaVuSans-64" d="M 2906 2969 
L 2906 4863 
L 3481 4863 
L 3481 0 
L 2906 0 
L 2906 525 
Q 2725 213 2448 61 
Q 2172 -91 1784 -91 
Q 1150 -91 751 415 
Q 353 922 353 1747 
Q 353 2572 751 3078 
Q 1150 3584 1784 3584 
Q 2172 3584 2448 3432 
Q 2725 3281 2906 2969 
z
M 947 1747 
Q 947 1113 1208 752 
Q 1469 391 1925 391 
Q 2381 391 2643 752 
Q 2906 1113 2906 1747 
Q 2906 2381 2643 2742 
Q 2381 3103 1925 3103 
Q 1469 3103 1208 2742 
Q 947 2381 947 1747 
z
" transform="scale(0.015625)"/>
       <path id="DejaVuSans-2f" d="M 1625 4666 
L 2156 4666 
L 531 -594 
L 0 -594 
L 1625 4666 
z
" transform="scale(0.015625)"/>
      </defs>
      <use xlink:href="#DejaVuSans-25"/>
      <use xlink:href="#DejaVuSans-20" x="95.019531"/>
      <use xlink:href="#DejaVuSans-4e" x="126.806641"/>
      <use xlink:href="#DejaVuSans-4f" x="201.611328"/>
      <use xlink:href="#DejaVuSans-45" x="280.322266"/>
      <use xlink:href="#DejaVuSans-20" x="343.505859"/>
      <use xlink:href="#DejaVuSans-66" x="375.292969"/>
      <use xlink:href="#DejaVuSans-75" x="410.498047"/>
      <use xlink:href="#DejaVuSans-6c" x="473.876953"/>
      <use xlink:href="#DejaVuSans-66" x="501.660156"/>
      <use xlink:href="#DejaVuSans-69" x="536.865234"/>
      <use xlink:href="#DejaVuSans-6c" x="564.648438"/>
      <use xlink:href="#DejaVuSans-6c" x="592.431641"/>
      <use xlink:href="#DejaVuSans-65" x="620.214844"/>
      <use xlink:href="#DejaVuSans-64" x="681.738281"/>
      <use xlink:href="#DejaVuSans-20" x="745.214844"/>
      <use xlink:href="#DejaVuSans-5b" x="777.001953"/>
      <use xlink:href="#DejaVuSans-31" x="816.015625"/>
      <use xlink:href="#DejaVuSans-2f" x="879.638672"/>
      <use xlink:href="#DejaVuSans-31" x="913.330078"/>
      <use xlink:href="#DejaVuSans-30" x="976.953125"/>
      <use xlink:href="#DejaVuSans-30" x="1040.576172"/>
      <use xlink:href="#DejaVuSans-20" x="1104.199219"/>
      <use xlink:href="#DejaVuSans-25" x="1135.986328"/>
      <use xlink:href="#DejaVuSans-5d" x="1231.005859"/>
     </g>
    </g>
   </g>
   <g id="LineCollection_13">
    <path d="M 410.157636 155.362993 
L 435.362864 155.362993 
" clip-path="url(#pb0247b1ace)" style="fill: none; stroke: #1f77b4; stroke-width: 1.5"/>
   </g>
   <g id="LineCollection_14">
    <path d="M 410.157636 57.338182 
L 435.362864 57.338182 
" clip-path="url(#pb0247b1ace)" style="fill: none; stroke: #1f77b4; stroke-width: 1.5"/>
   </g>
   <g id="LineCollection_15">
    <path d="M 410.157636 263.301818 
L 435.362864 263.301818 
" clip-path="url(#pb0247b1ace)" style="fill: none; stroke: #1f77b4; stroke-width: 1.5"/>
   </g>
   <g id="LineCollection_16">
    <path d="M 422.76025 263.301818 
L 422.76025 57.338182 
" clip-path="url(#pb0247b1ace)" style="fill: none; stroke: #1f77b4; stroke-width: 1.5"/>
   </g>
   <g id="patch_18">
    <path d="M 395.0345 273.6 
L 395.0345 47.04 
" style="fill: none; stroke: #000000; stroke-width: 0.8; stroke-linejoin: miter; stroke-linecap: square"/>
   </g>
   <g id="patch_19">
    <path d="M 450.486 273.6 
L 450.486 47.04 
" style="fill: none; stroke: #000000; stroke-width: 0.8; stroke-linejoin: miter; stroke-linecap: square"/>
   </g>
   <g id="patch_20">
    <path d="M 395.0345 273.6 
L 450.486 273.6 
" style="fill: none; stroke: #000000; stroke-width: 0.8; stroke-linejoin: miter; stroke-linecap: square"/>
   </g>
   <g id="patch_21">
    <path d="M 395.0345 47.04 
L 450.486 47.04 
" style="fill: none; stroke: #000000; stroke-width: 0.8; stroke-linejoin: miter; stroke-linecap: square"/>
   </g>
   <g id="text_32">
    <!-- % NOE fulfilled -->
    <g transform="translate(378.047125 41.04)scale(0.12 -0.12)">
     <use xlink:href="#DejaVuSans-25"/>
     <use xlink:href="#DejaVuSans-20" x="95.019531"/>
     <use xlink:href="#DejaVuSans-4e" x="126.806641"/>
     <use xlink:href="#DejaVuSans-4f" x="201.611328"/>
     <use xlink:href="#DejaVuSans-45" x="280.322266"/>
     <use xlink:href="#DejaVuSans-20" x="343.505859"/>
     <use xlink:href="#DejaVuSans-66" x="375.292969"/>
     <use xlink:href="#DejaVuSans-75" x="410.498047"/>
     <use xlink:href="#DejaVuSans-6c" x="473.876953"/>
     <use xlink:href="#DejaVuSans-66" x="501.660156"/>
     <use xlink:href="#DejaVuSans-69" x="536.865234"/>
     <use xlink:href="#DejaVuSans-6c" x="564.648438"/>
     <use xlink:href="#DejaVuSans-6c" x="592.431641"/>
     <use xlink:href="#DejaVuSans-65" x="620.214844"/>
     <use xlink:href="#DejaVuSans-64" x="681.738281"/>
    </g>
   </g>
  </g>
  <g id="axes_5">
   <g id="patch_22">
    <path d="M 509.7485 273.6 
L 565.2 273.6 
L 565.2 47.04 
L 509.7485 47.04 
z
" style="fill: #ffffff"/>
   </g>
   <g id="PolyCollection_5">
    <path d="M 538.037452 263.301818 
L 536.911048 263.301818 
L 536.816338 261.221377 
L 536.705482 259.140937 
L 536.57669 257.060496 
L 536.429516 254.980055 
L 536.265337 252.899614 
L 536.08752 250.819174 
L 535.901205 248.738733 
L 535.712645 246.658292 
L 535.528199 244.577851 
L 535.353139 242.49741 
L 535.19053 240.41697 
L 535.040401 238.336529 
L 534.899407 236.256088 
L 534.761021 234.175647 
L 534.616168 232.095207 
L 534.454128 230.014766 
L 534.263425 227.934325 
L 534.032528 225.853884 
L 533.750261 223.773444 
L 533.405985 221.693003 
L 532.989728 219.612562 
L 532.492499 217.532121 
L 531.906937 215.45168 
L 531.228279 213.37124 
L 530.455453 211.290799 
L 529.591925 209.210358 
L 528.645925 207.129917 
L 527.629797 205.049477 
L 526.558501 202.969036 
L 525.447618 200.888595 
L 524.311416 198.808154 
L 523.161643 196.727713 
L 522.007465 194.647273 
L 520.856617 192.566832 
L 519.717401 190.486391 
L 518.600774 188.40595 
L 517.521725 186.32551 
L 516.499291 184.245069 
L 515.555039 182.164628 
L 514.710355 180.084187 
L 513.983296 178.003747 
L 513.385898 175.923306 
L 512.922668 173.842865 
L 512.590563 171.762424 
L 512.380278 169.681983 
L 512.278296 167.601543 
L 512.269023 165.521102 
L 512.336491 163.440661 
L 512.465392 161.36022 
L 512.64155 159.27978 
L 512.852124 157.199339 
L 513.085834 155.118898 
L 513.333347 153.038457 
L 513.587749 150.958017 
L 513.844901 148.877576 
L 514.103441 146.797135 
L 514.364337 144.716694 
L 514.630094 142.636253 
L 514.903816 140.555813 
L 515.18842 138.475372 
L 515.486176 136.394931 
L 515.798634 134.31449 
L 516.12683 132.23405 
L 516.471612 130.153609 
L 516.833933 128.073168 
L 517.215026 125.992727 
L 517.616461 123.912287 
L 518.040157 121.831846 
L 518.488394 119.751405 
L 518.96384 117.670964 
L 519.469577 115.590523 
L 520.009041 113.510083 
L 520.585833 111.429642 
L 521.20337 109.349201 
L 521.864372 107.26876 
L 522.570262 105.18832 
L 523.320518 103.107879 
L 524.112107 101.027438 
L 524.939081 98.946997 
L 525.792441 96.866556 
L 526.660367 94.786116 
L 527.528841 92.705675 
L 528.382648 90.625234 
L 529.206657 88.544793 
L 529.987188 86.464353 
L 530.71328 84.383912 
L 531.377629 82.303471 
L 531.977064 80.22303 
L 532.512487 78.14259 
L 532.988312 76.062149 
L 533.411538 73.981708 
L 533.790618 71.901267 
L 534.134315 69.820826 
L 534.450717 67.740386 
L 534.746515 65.659945 
L 535.026591 63.579504 
L 535.293925 61.499063 
L 535.549741 59.418623 
L 535.793838 57.338182 
L 539.154662 57.338182 
L 539.154662 57.338182 
L 539.398759 59.418623 
L 539.654575 61.499063 
L 539.921909 63.579504 
L 540.201985 65.659945 
L 540.497783 67.740386 
L 540.814185 69.820826 
L 541.157882 71.901267 
L 541.536962 73.981708 
L 541.960188 76.062149 
L 542.436013 78.14259 
L 542.971436 80.22303 
L 543.570871 82.303471 
L 544.23522 84.383912 
L 544.961312 86.464353 
L 545.741843 88.544793 
L 546.565852 90.625234 
L 547.419659 92.705675 
L 548.288133 94.786116 
L 549.156059 96.866556 
L 550.009419 98.946997 
L 550.836393 101.027438 
L 551.627982 103.107879 
L 552.378238 105.18832 
L 553.084128 107.26876 
L 553.74513 109.349201 
L 554.362667 111.429642 
L 554.939459 113.510083 
L 555.478923 115.590523 
L 555.98466 117.670964 
L 556.460106 119.751405 
L 556.908343 121.831846 
L 557.332039 123.912287 
L 557.733474 125.992727 
L 558.114567 128.073168 
L 558.476888 130.153609 
L 558.82167 132.23405 
L 559.149866 134.31449 
L 559.462324 136.394931 
L 559.76008 138.475372 
L 560.044684 140.555813 
L 560.318406 142.636253 
L 560.584163 144.716694 
L 560.845059 146.797135 
L 561.103599 148.877576 
L 561.360751 150.958017 
L 561.615153 153.038457 
L 561.862666 155.118898 
L 562.096376 157.199339 
L 562.30695 159.27978 
L 562.483108 161.36022 
L 562.612009 163.440661 
L 562.679477 165.521102 
L 562.670204 167.601543 
L 562.568222 169.681983 
L 562.357937 171.762424 
L 562.025832 173.842865 
L 561.562602 175.923306 
L 560.965204 178.003747 
L 560.238145 180.084187 
L 559.393461 182.164628 
L 558.449209 184.245069 
L 557.426775 186.32551 
L 556.347726 188.40595 
L 555.231099 190.486391 
L 554.091883 192.566832 
L 552.941035 194.647273 
L 551.786857 196.727713 
L 550.637084 198.808154 
L 549.500882 200.888595 
L 548.389999 202.969036 
L 547.318703 205.049477 
L 546.302575 207.129917 
L 545.356575 209.210358 
L 544.493047 211.290799 
L 543.720221 213.37124 
L 543.041563 215.45168 
L 542.456001 217.532121 
L 541.958772 219.612562 
L 541.542515 221.693003 
L 541.198239 223.773444 
L 540.915972 225.853884 
L 540.685075 227.934325 
L 540.494372 230.014766 
L 540.332332 232.095207 
L 540.187479 234.175647 
L 540.049093 236.256088 
L 539.908099 238.336529 
L 539.75797 240.41697 
L 539.595361 242.49741 
L 539.420301 244.577851 
L 539.235855 246.658292 
L 539.047295 248.738733 
L 538.86098 250.819174 
L 538.683163 252.899614 
L 538.518984 254.980055 
L 538.37181 257.060496 
L 538.243018 259.140937 
L 538.132162 261.221377 
L 538.037452 263.301818 
z
" clip-path="url(#pcc3a4df383)" style="fill: #1f77b4; fill-opacity: 0.3"/>
   </g>
   <g id="matplotlib.axis_5">
    <g id="ytick_25">
     <g id="line2d_25">
      <g>
       <use xlink:href="#m393432ffa8" x="509.7485" y="248.638025" style="stroke: #000000; stroke-width: 0.8"/>
      </g>
     </g>
     <g id="text_33">
      <!-- 0.5 -->
      <g transform="translate(486.845375 252.437243)scale(0.1 -0.1)">
       <use xlink:href="#DejaVuSans-30"/>
       <use xlink:href="#DejaVuSans-2e" x="63.623047"/>
       <use xlink:href="#DejaVuSans-35" x="95.410156"/>
      </g>
     </g>
    </g>
    <g id="ytick_26">
     <g id="line2d_26">
      <g>
       <use xlink:href="#m393432ffa8" x="509.7485" y="204.512539" style="stroke: #000000; stroke-width: 0.8"/>
      </g>
     </g>
     <g id="text_34">
      <!-- 0.6 -->
      <g transform="translate(486.845375 208.311757)scale(0.1 -0.1)">
       <use xlink:href="#DejaVuSans-30"/>
       <use xlink:href="#DejaVuSans-2e" x="63.623047"/>
       <use xlink:href="#DejaVuSans-36" x="95.410156"/>
      </g>
     </g>
    </g>
    <g id="ytick_27">
     <g id="line2d_27">
      <g>
       <use xlink:href="#m393432ffa8" x="509.7485" y="160.387053" style="stroke: #000000; stroke-width: 0.8"/>
      </g>
     </g>
     <g id="text_35">
      <!-- 0.7 -->
      <g transform="translate(486.845375 164.186271)scale(0.1 -0.1)">
       <use xlink:href="#DejaVuSans-30"/>
       <use xlink:href="#DejaVuSans-2e" x="63.623047"/>
       <use xlink:href="#DejaVuSans-37" x="95.410156"/>
      </g>
     </g>
    </g>
    <g id="ytick_28">
     <g id="line2d_28">
      <g>
       <use xlink:href="#m393432ffa8" x="509.7485" y="116.261567" style="stroke: #000000; stroke-width: 0.8"/>
      </g>
     </g>
     <g id="text_36">
      <!-- 0.8 -->
      <g transform="translate(486.845375 120.060786)scale(0.1 -0.1)">
       <use xlink:href="#DejaVuSans-30"/>
       <use xlink:href="#DejaVuSans-2e" x="63.623047"/>
       <use xlink:href="#DejaVuSans-38" x="95.410156"/>
      </g>
     </g>
    </g>
    <g id="ytick_29">
     <g id="line2d_29">
      <g>
       <use xlink:href="#m393432ffa8" x="509.7485" y="72.136081" style="stroke: #000000; stroke-width: 0.8"/>
      </g>
     </g>
     <g id="text_37">
      <!-- 0.9 -->
      <g transform="translate(486.845375 75.9353)scale(0.1 -0.1)">
       <use xlink:href="#DejaVuSans-30"/>
       <use xlink:href="#DejaVuSans-2e" x="63.623047"/>
       <use xlink:href="#DejaVuSans-39" x="95.410156"/>
      </g>
     </g>
    </g>
    <g id="text_38">
     <!-- RMSD stepwise [$\AA$] -->
     <g transform="translate(480.745375 207.62)rotate(-90)scale(0.1 -0.1)">
      <defs>
       <path id="DejaVuSans-73" d="M 2834 3397 
L 2834 2853 
Q 2591 2978 2328 3040 
Q 2066 3103 1784 3103 
Q 1356 3103 1142 2972 
Q 928 2841 928 2578 
Q 928 2378 1081 2264 
Q 1234 2150 1697 2047 
L 1894 2003 
Q 2506 1872 2764 1633 
Q 3022 1394 3022 966 
Q 3022 478 2636 193 
Q 2250 -91 1575 -91 
Q 1294 -91 989 -36 
Q 684 19 347 128 
L 347 722 
Q 666 556 975 473 
Q 1284 391 1588 391 
Q 1994 391 2212 530 
Q 2431 669 2431 922 
Q 2431 1156 2273 1281 
Q 2116 1406 1581 1522 
L 1381 1569 
Q 847 1681 609 1914 
Q 372 2147 372 2553 
Q 372 3047 722 3315 
Q 1072 3584 1716 3584 
Q 2034 3584 2315 3537 
Q 2597 3491 2834 3397 
z
" transform="scale(0.015625)"/>
       <path id="DejaVuSans-74" d="M 1172 4494 
L 1172 3500 
L 2356 3500 
L 2356 3053 
L 1172 3053 
L 1172 1153 
Q 1172 725 1289 603 
Q 1406 481 1766 481 
L 2356 481 
L 2356 0 
L 1766 0 
Q 1100 0 847 248 
Q 594 497 594 1153 
L 594 3053 
L 172 3053 
L 172 3500 
L 594 3500 
L 594 4494 
L 1172 4494 
z
" transform="scale(0.015625)"/>
       <path id="DejaVuSans-70" d="M 1159 525 
L 1159 -1331 
L 581 -1331 
L 581 3500 
L 1159 3500 
L 1159 2969 
Q 1341 3281 1617 3432 
Q 1894 3584 2278 3584 
Q 2916 3584 3314 3078 
Q 3713 2572 3713 1747 
Q 3713 922 3314 415 
Q 2916 -91 2278 -91 
Q 1894 -91 1617 61 
Q 1341 213 1159 525 
z
M 3116 1747 
Q 3116 2381 2855 2742 
Q 2594 3103 2138 3103 
Q 1681 3103 1420 2742 
Q 1159 2381 1159 1747 
Q 1159 1113 1420 752 
Q 1681 391 2138 391 
Q 2594 391 2855 752 
Q 3116 1113 3116 1747 
z
" transform="scale(0.015625)"/>
       <path id="DejaVuSans-77" d="M 269 3500 
L 844 3500 
L 1563 769 
L 2278 3500 
L 2956 3500 
L 3675 769 
L 4391 3500 
L 4966 3500 
L 4050 0 
L 3372 0 
L 2619 2869 
L 1863 0 
L 1184 0 
L 269 3500 
z
" transform="scale(0.015625)"/>
      </defs>
      <use xlink:href="#DejaVuSans-52" transform="translate(0 0.171875)"/>
      <use xlink:href="#DejaVuSans-4d" transform="translate(69.482422 0.171875)"/>
      <use xlink:href="#DejaVuSans-53" transform="translate(155.761719 0.171875)"/>
      <use xlink:href="#DejaVuSans-44" transform="translate(219.238281 0.171875)"/>
      <use xlink:href="#DejaVuSans-20" transform="translate(296.240234 0.171875)"/>
      <use xlink:href="#DejaVuSans-73" transform="translate(328.027344 0.171875)"/>
      <use xlink:href="#DejaVuSans-74" transform="translate(380.126953 0.171875)"/>
      <use xlink:href="#DejaVuSans-65" transform="translate(419.335938 0.171875)"/>
      <use xlink:href="#DejaVuSans-70" transform="translate(480.859375 0.171875)"/>
      <use xlink:href="#DejaVuSans-77" transform="translate(544.335938 0.171875)"/>
      <use xlink:href="#DejaVuSans-69" transform="translate(626.123047 0.171875)"/>
      <use xlink:href="#DejaVuSans-73" transform="translate(653.90625 0.171875)"/>
      <use xlink:href="#DejaVuSans-65" transform="translate(706.005859 0.171875)"/>
      <use xlink:href="#DejaVuSans-20" transform="translate(767.529297 0.171875)"/>
      <use xlink:href="#DejaVuSans-5b" transform="translate(799.316406 0.171875)"/>
      <use xlink:href="#DejaVuSans-Oblique-c5" transform="translate(838.330078 0.171875)"/>
      <use xlink:href="#DejaVuSans-5d" transform="translate(906.738281 0.171875)"/>
     </g>
    </g>
   </g>
   <g id="LineCollection_17">
    <path d="M 524.871636 151.007876 
L 550.076864 151.007876 
" clip-path="url(#pcc3a4df383)" style="fill: none; stroke: #1f77b4; stroke-width: 1.5"/>
   </g>
   <g id="LineCollection_18">
    <path d="M 524.871636 57.338182 
L 550.076864 57.338182 
" clip-path="url(#pcc3a4df383)" style="fill: none; stroke: #1f77b4; stroke-width: 1.5"/>
   </g>
   <g id="LineCollection_19">
    <path d="M 524.871636 263.301818 
L 550.076864 263.301818 
" clip-path="url(#pcc3a4df383)" style="fill: none; stroke: #1f77b4; stroke-width: 1.5"/>
   </g>
   <g id="LineCollection_20">
    <path d="M 537.47425 263.301818 
L 537.47425 57.338182 
" clip-path="url(#pcc3a4df383)" style="fill: none; stroke: #1f77b4; stroke-width: 1.5"/>
   </g>
   <g id="patch_23">
    <path d="M 509.7485 273.6 
L 509.7485 47.04 
" style="fill: none; stroke: #000000; stroke-width: 0.8; stroke-linejoin: miter; stroke-linecap: square"/>
   </g>
   <g id="patch_24">
    <path d="M 565.2 273.6 
L 565.2 47.04 
" style="fill: none; stroke: #000000; stroke-width: 0.8; stroke-linejoin: miter; stroke-linecap: square"/>
   </g>
   <g id="patch_25">
    <path d="M 509.7485 273.6 
L 565.2 273.6 
" style="fill: none; stroke: #000000; stroke-width: 0.8; stroke-linejoin: miter; stroke-linecap: square"/>
   </g>
   <g id="patch_26">
    <path d="M 509.7485 47.04 
L 565.2 47.04 
" style="fill: none; stroke: #000000; stroke-width: 0.8; stroke-linejoin: miter; stroke-linecap: square"/>
   </g>
   <g id="text_39">
    <!-- RMSD stepwise -->
    <g transform="translate(491.422375 41.04)scale(0.12 -0.12)">
     <use xlink:href="#DejaVuSans-52"/>
     <use xlink:href="#DejaVuSans-4d" x="69.482422"/>
     <use xlink:href="#DejaVuSans-53" x="155.761719"/>
     <use xlink:href="#DejaVuSans-44" x="219.238281"/>
     <use xlink:href="#DejaVuSans-20" x="296.240234"/>
     <use xlink:href="#DejaVuSans-73" x="328.027344"/>
     <use xlink:href="#DejaVuSans-74" x="380.126953"/>
     <use xlink:href="#DejaVuSans-65" x="419.335938"/>
     <use xlink:href="#DejaVuSans-70" x="480.859375"/>
     <use xlink:href="#DejaVuSans-77" x="544.335938"/>
     <use xlink:href="#DejaVuSans-69" x="626.123047"/>
     <use xlink:href="#DejaVuSans-73" x="653.90625"/>
     <use xlink:href="#DejaVuSans-65" x="706.005859"/>
    </g>
   </g>
  </g>
  <g id="text_40">
   <!-- Compound 66. Omega -->
   <g transform="translate(220.299375 14.878125)scale(0.12 -0.12)">
    <defs>
     <path id="DejaVuSans-43" d="M 4122 4306 
L 4122 3641 
Q 3803 3938 3442 4084 
Q 3081 4231 2675 4231 
Q 1875 4231 1450 3742 
Q 1025 3253 1025 2328 
Q 1025 1406 1450 917 
Q 1875 428 2675 428 
Q 3081 428 3442 575 
Q 3803 722 4122 1019 
L 4122 359 
Q 3791 134 3420 21 
Q 3050 -91 2638 -91 
Q 1578 -91 968 557 
Q 359 1206 359 2328 
Q 359 3453 968 4101 
Q 1578 4750 2638 4750 
Q 3056 4750 3426 4639 
Q 3797 4528 4122 4306 
z
" transform="scale(0.015625)"/>
     <path id="DejaVuSans-6f" d="M 1959 3097 
Q 1497 3097 1228 2736 
Q 959 2375 959 1747 
Q 959 1119 1226 758 
Q 1494 397 1959 397 
Q 2419 397 2687 759 
Q 2956 1122 2956 1747 
Q 2956 2369 2687 2733 
Q 2419 3097 1959 3097 
z
M 1959 3584 
Q 2709 3584 3137 3096 
Q 3566 2609 3566 1747 
Q 3566 888 3137 398 
Q 2709 -91 1959 -91 
Q 1206 -91 779 398 
Q 353 888 353 1747 
Q 353 2609 779 3096 
Q 1206 3584 1959 3584 
z
" transform="scale(0.015625)"/>
     <path id="DejaVuSans-6d" d="M 3328 2828 
Q 3544 3216 3844 3400 
Q 4144 3584 4550 3584 
Q 5097 3584 5394 3201 
Q 5691 2819 5691 2113 
L 5691 0 
L 5113 0 
L 5113 2094 
Q 5113 2597 4934 2840 
Q 4756 3084 4391 3084 
Q 3944 3084 3684 2787 
Q 3425 2491 3425 1978 
L 3425 0 
L 2847 0 
L 2847 2094 
Q 2847 2600 2669 2842 
Q 2491 3084 2119 3084 
Q 1678 3084 1418 2786 
Q 1159 2488 1159 1978 
L 1159 0 
L 581 0 
L 581 3500 
L 1159 3500 
L 1159 2956 
Q 1356 3278 1631 3431 
Q 1906 3584 2284 3584 
Q 2666 3584 2933 3390 
Q 3200 3197 3328 2828 
z
" transform="scale(0.015625)"/>
     <path id="DejaVuSans-6e" d="M 3513 2113 
L 3513 0 
L 2938 0 
L 2938 2094 
Q 2938 2591 2744 2837 
Q 2550 3084 2163 3084 
Q 1697 3084 1428 2787 
Q 1159 2491 1159 1978 
L 1159 0 
L 581 0 
L 581 3500 
L 1159 3500 
L 1159 2956 
Q 1366 3272 1645 3428 
Q 1925 3584 2291 3584 
Q 2894 3584 3203 3211 
Q 3513 2838 3513 2113 
z
" transform="scale(0.015625)"/>
     <path id="DejaVuSans-67" d="M 2906 1791 
Q 2906 2416 2648 2759 
Q 2391 3103 1925 3103 
Q 1463 3103 1205 2759 
Q 947 2416 947 1791 
Q 947 1169 1205 825 
Q 1463 481 1925 481 
Q 2391 481 2648 825 
Q 2906 1169 2906 1791 
z
M 3481 434 
Q 3481 -459 3084 -895 
Q 2688 -1331 1869 -1331 
Q 1566 -1331 1297 -1286 
Q 1028 -1241 775 -1147 
L 775 -588 
Q 1028 -725 1275 -790 
Q 1522 -856 1778 -856 
Q 2344 -856 2625 -561 
Q 2906 -266 2906 331 
L 2906 616 
Q 2728 306 2450 153 
Q 2172 0 1784 0 
Q 1141 0 747 490 
Q 353 981 353 1791 
Q 353 2603 747 3093 
Q 1141 3584 1784 3584 
Q 2172 3584 2450 3431 
Q 2728 3278 2906 2969 
L 2906 3500 
L 3481 3500 
L 3481 434 
z
" transform="scale(0.015625)"/>
     <path id="DejaVuSans-61" d="M 2194 1759 
Q 1497 1759 1228 1600 
Q 959 1441 959 1056 
Q 959 750 1161 570 
Q 1363 391 1709 391 
Q 2188 391 2477 730 
Q 2766 1069 2766 1631 
L 2766 1759 
L 2194 1759 
z
M 3341 1997 
L 3341 0 
L 2766 0 
L 2766 531 
Q 2569 213 2275 61 
Q 1981 -91 1556 -91 
Q 1019 -91 701 211 
Q 384 513 384 1019 
Q 384 1609 779 1909 
Q 1175 2209 1959 2209 
L 2766 2209 
L 2766 2266 
Q 2766 2663 2505 2880 
Q 2244 3097 1772 3097 
Q 1472 3097 1187 3025 
Q 903 2953 641 2809 
L 641 3341 
Q 956 3463 1253 3523 
Q 1550 3584 1831 3584 
Q 2591 3584 2966 3190 
Q 3341 2797 3341 1997 
z
" transform="scale(0.015625)"/>
    </defs>
    <use xlink:href="#DejaVuSans-43"/>
    <use xlink:href="#DejaVuSans-6f" x="69.824219"/>
    <use xlink:href="#DejaVuSans-6d" x="131.005859"/>
    <use xlink:href="#DejaVuSans-70" x="228.417969"/>
    <use xlink:href="#DejaVuSans-6f" x="291.894531"/>
    <use xlink:href="#DejaVuSans-75" x="353.076172"/>
    <use xlink:href="#DejaVuSans-6e" x="416.455078"/>
    <use xlink:href="#DejaVuSans-64" x="479.833984"/>
    <use xlink:href="#DejaVuSans-20" x="543.310547"/>
    <use xlink:href="#DejaVuSans-36" x="575.097656"/>
    <use xlink:href="#DejaVuSans-36" x="638.720703"/>
    <use xlink:href="#DejaVuSans-2e" x="702.34375"/>
    <use xlink:href="#DejaVuSans-20" x="734.130859"/>
    <use xlink:href="#DejaVuSans-4f" x="765.917969"/>
    <use xlink:href="#DejaVuSans-6d" x="844.628906"/>
    <use xlink:href="#DejaVuSans-65" x="942.041016"/>
    <use xlink:href="#DejaVuSans-67" x="1003.564453"/>
    <use xlink:href="#DejaVuSans-61" x="1067.041016"/>
   </g>
  </g>
 </g>
 <defs>
  <clipPath id="pa3496150da">
   <rect x="50.8925" y="47.04" width="55.4515" height="226.56"/>
  </clipPath>
  <clipPath id="pc4a040a077">
   <rect x="165.6065" y="47.04" width="55.4515" height="226.56"/>
  </clipPath>
  <clipPath id="p16cbad7bf4">
   <rect x="280.3205" y="47.04" width="55.4515" height="226.56"/>
  </clipPath>
  <clipPath id="pb0247b1ace">
   <rect x="395.0345" y="47.04" width="55.4515" height="226.56"/>
  </clipPath>
  <clipPath id="pcc3a4df383">
   <rect x="509.7485" y="47.04" width="55.4515" height="226.56"/>
  </clipPath>
 </defs>
</svg>
