<?xml version="1.0" encoding="utf-8" standalone="no"?>
<!DOCTYPE svg PUBLIC "-//W3C//DTD SVG 1.1//EN"
  "http://www.w3.org/Graphics/SVG/1.1/DTD/svg11.dtd">
<svg xmlns:xlink="http://www.w3.org/1999/xlink" width="576pt" height="288pt" viewBox="0 0 576 288" xmlns="http://www.w3.org/2000/svg" version="1.1">
 <metadata>
  <rdf:RDF xmlns:dc="http://purl.org/dc/elements/1.1/" xmlns:cc="http://creativecommons.org/ns#" xmlns:rdf="http://www.w3.org/1999/02/22-rdf-syntax-ns#">
   <cc:Work>
    <dc:type rdf:resource="http://purl.org/dc/dcmitype/StillImage"/>
    <dc:date>2023-05-31T12:16:50.704093</dc:date>
    <dc:format>image/svg+xml</dc:format>
    <dc:creator>
     <cc:Agent>
      <dc:title>Matplotlib v3.5.3, https://matplotlib.org/</dc:title>
     </cc:Agent>
    </dc:creator>
   </cc:Work>
  </rdf:RDF>
 </metadata>
 <defs>
  <style type="text/css">*{stroke-linejoin: round; stroke-linecap: butt}</style>
 </defs>
 <g id="figure_1">
  <g id="patch_1">
   <path d="M 0 288 
L 576 288 
L 576 0 
L 0 0 
z
" style="fill: #ffffff"/>
  </g>
  <g id="axes_1">
   <g id="patch_2">
    <path d="M 50.8925 273.7 
L 110.394 273.7 
L 110.394 47.04 
L 50.8925 47.04 
z
" style="fill: #ffffff"/>
   </g>
   <g id="PolyCollection_1">
    <path d="M 83.57958 263.397273 
L 77.70692 263.397273 
L 77.009878 261.315914 
L 76.228459 259.234555 
L 75.362915 257.153196 
L 74.413328 255.071837 
L 73.380636 252.990478 
L 72.268476 250.909118 
L 71.085351 248.827759 
L 69.846346 246.7464 
L 68.573499 244.665041 
L 67.294211 242.583682 
L 66.037648 240.502323 
L 64.829774 238.420964 
L 63.688298 236.339605 
L 62.61906 234.258246 
L 61.615118 232.176887 
L 60.65914 230.095528 
L 59.728792 228.014169 
L 58.803987 225.93281 
L 57.874372 223.851451 
L 56.945278 221.770092 
L 56.040683 219.688733 
L 55.202256 217.607374 
L 54.484319 215.526015 
L 53.945383 213.444656 
L 53.637724 211.363297 
L 53.597114 209.281938 
L 53.835057 207.200579 
L 54.335627 205.119219 
L 55.058064 203.03786 
L 55.944894 200.956501 
L 56.933778 198.875142 
L 57.970058 196.793783 
L 59.016574 194.712424 
L 60.058004 192.631065 
L 61.098651 190.549706 
L 62.154685 188.468347 
L 63.243653 186.386988 
L 64.374857 184.305629 
L 65.543656 182.22427 
L 66.731098 180.142911 
L 67.90827 178.061552 
L 69.043142 175.980193 
L 70.107171 173.898834 
L 71.079528 171.817475 
L 71.948181 169.736116 
L 72.708488 167.654757 
L 73.360799 165.573398 
L 73.908587 163.492039 
L 74.357911 161.41068 
L 74.71811 159.32932 
L 75.002836 157.247961 
L 75.23037 155.166602 
L 75.422486 153.085243 
L 75.60182 151.003884 
L 75.788421 148.922525 
L 75.996506 146.841166 
L 76.232454 144.759807 
L 76.494609 142.678448 
L 76.77486 140.597089 
L 77.061437 138.51573 
L 77.34205 136.434371 
L 77.606566 134.353012 
L 77.848694 132.271653 
L 78.066503 130.190294 
L 78.261942 128.108935 
L 78.439707 126.027576 
L 78.60583 123.946217 
L 78.766313 121.864858 
L 78.926041 119.783499 
L 79.088082 117.70214 
L 79.253405 115.620781 
L 79.420955 113.539421 
L 79.588011 111.458062 
L 79.750686 109.376703 
L 79.904508 107.295344 
L 80.044985 105.213985 
L 80.168111 103.132626 
L 80.27079 101.051267 
L 80.351136 98.969908 
L 80.408647 96.888549 
L 80.44423 94.80719 
L 80.460085 92.725831 
L 80.459447 90.644472 
L 80.446219 88.563113 
L 80.424526 86.481754 
L 80.398246 84.400395 
L 80.370605 82.319036 
L 80.343927 80.237677 
L 80.319578 78.156318 
L 80.298148 76.074959 
L 80.279782 73.9936 
L 80.264575 71.912241 
L 80.252888 69.830882 
L 80.245501 67.749522 
L 80.243548 65.668163 
L 80.248284 63.586804 
L 80.260734 61.505445 
L 80.281364 59.424086 
L 80.309837 57.342727 
L 80.976663 57.342727 
L 80.976663 57.342727 
L 81.005136 59.424086 
L 81.025766 61.505445 
L 81.038216 63.586804 
L 81.042952 65.668163 
L 81.040999 67.749522 
L 81.033612 69.830882 
L 81.021925 71.912241 
L 81.006718 73.9936 
L 80.988352 76.074959 
L 80.966922 78.156318 
L 80.942573 80.237677 
L 80.915895 82.319036 
L 80.888254 84.400395 
L 80.861974 86.481754 
L 80.840281 88.563113 
L 80.827053 90.644472 
L 80.826415 92.725831 
L 80.84227 94.80719 
L 80.877853 96.888549 
L 80.935364 98.969908 
L 81.01571 101.051267 
L 81.118389 103.132626 
L 81.241515 105.213985 
L 81.381992 107.295344 
L 81.535814 109.376703 
L 81.698489 111.458062 
L 81.865545 113.539421 
L 82.033095 115.620781 
L 82.198418 117.70214 
L 82.360459 119.783499 
L 82.520187 121.864858 
L 82.68067 123.946217 
L 82.846793 126.027576 
L 83.024558 128.108935 
L 83.219997 130.190294 
L 83.437806 132.271653 
L 83.679934 134.353012 
L 83.94445 136.434371 
L 84.225063 138.51573 
L 84.51164 140.597089 
L 84.791891 142.678448 
L 85.054046 144.759807 
L 85.289994 146.841166 
L 85.498079 148.922525 
L 85.68468 151.003884 
L 85.864014 153.085243 
L 86.05613 155.166602 
L 86.283664 157.247961 
L 86.56839 159.32932 
L 86.928589 161.41068 
L 87.377913 163.492039 
L 87.925701 165.573398 
L 88.578012 167.654757 
L 89.338319 169.736116 
L 90.206972 171.817475 
L 91.179329 173.898834 
L 92.243358 175.980193 
L 93.37823 178.061552 
L 94.555402 180.142911 
L 95.742844 182.22427 
L 96.911643 184.305629 
L 98.042847 186.386988 
L 99.131815 188.468347 
L 100.187849 190.549706 
L 101.228496 192.631065 
L 102.269926 194.712424 
L 103.316442 196.793783 
L 104.352722 198.875142 
L 105.341606 200.956501 
L 106.228436 203.03786 
L 106.950873 205.119219 
L 107.451443 207.200579 
L 107.689386 209.281938 
L 107.648776 211.363297 
L 107.341117 213.444656 
L 106.802181 215.526015 
L 106.084244 217.607374 
L 105.245817 219.688733 
L 104.341222 221.770092 
L 103.412128 223.851451 
L 102.482513 225.93281 
L 101.557708 228.014169 
L 100.62736 230.095528 
L 99.671382 232.176887 
L 98.66744 234.258246 
L 97.598202 236.339605 
L 96.456726 238.420964 
L 95.248852 240.502323 
L 93.992289 242.583682 
L 92.713001 244.665041 
L 91.440154 246.7464 
L 90.201149 248.827759 
L 89.018024 250.909118 
L 87.905864 252.990478 
L 86.873172 255.071837 
L 85.923585 257.153196 
L 85.058041 259.234555 
L 84.276622 261.315914 
L 83.57958 263.397273 
z
" clip-path="url(#pe7d12e095c)" style="fill: #1f77b4; fill-opacity: 0.3"/>
   </g>
   <g id="matplotlib.axis_1">
    <g id="ytick_1">
     <g id="line2d_1">
      <defs>
       <path id="m568976d4b8" d="M 0 0 
L -3.5 0 
" style="stroke: #000000; stroke-width: 0.8"/>
      </defs>
      <g>
       <use xlink:href="#m568976d4b8" x="50.8925" y="270.190514" style="stroke: #000000; stroke-width: 0.8"/>
      </g>
     </g>
     <g id="text_1">
      <!-- 0.7 -->
      <g transform="translate(27.989375 273.989732)scale(0.1 -0.1)">
       <defs>
        <path id="DejaVuSans-30" d="M 2034 4250 
Q 1547 4250 1301 3770 
Q 1056 3291 1056 2328 
Q 1056 1369 1301 889 
Q 1547 409 2034 409 
Q 2525 409 2770 889 
Q 3016 1369 3016 2328 
Q 3016 3291 2770 3770 
Q 2525 4250 2034 4250 
z
M 2034 4750 
Q 2819 4750 3233 4129 
Q 3647 3509 3647 2328 
Q 3647 1150 3233 529 
Q 2819 -91 2034 -91 
Q 1250 -91 836 529 
Q 422 1150 422 2328 
Q 422 3509 836 4129 
Q 1250 4750 2034 4750 
z
" transform="scale(0.015625)"/>
        <path id="DejaVuSans-2e" d="M 684 794 
L 1344 794 
L 1344 0 
L 684 0 
L 684 794 
z
" transform="scale(0.015625)"/>
        <path id="DejaVuSans-37" d="M 525 4666 
L 3525 4666 
L 3525 4397 
L 1831 0 
L 1172 0 
L 2766 4134 
L 525 4134 
L 525 4666 
z
" transform="scale(0.015625)"/>
       </defs>
       <use xlink:href="#DejaVuSans-30"/>
       <use xlink:href="#DejaVuSans-2e" x="63.623047"/>
       <use xlink:href="#DejaVuSans-37" x="95.410156"/>
      </g>
     </g>
    </g>
    <g id="ytick_2">
     <g id="line2d_2">
      <g>
       <use xlink:href="#m568976d4b8" x="50.8925" y="241.747122" style="stroke: #000000; stroke-width: 0.8"/>
      </g>
     </g>
     <g id="text_2">
      <!-- 0.8 -->
      <g transform="translate(27.989375 245.54634)scale(0.1 -0.1)">
       <defs>
        <path id="DejaVuSans-38" d="M 2034 2216 
Q 1584 2216 1326 1975 
Q 1069 1734 1069 1313 
Q 1069 891 1326 650 
Q 1584 409 2034 409 
Q 2484 409 2743 651 
Q 3003 894 3003 1313 
Q 3003 1734 2745 1975 
Q 2488 2216 2034 2216 
z
M 1403 2484 
Q 997 2584 770 2862 
Q 544 3141 544 3541 
Q 544 4100 942 4425 
Q 1341 4750 2034 4750 
Q 2731 4750 3128 4425 
Q 3525 4100 3525 3541 
Q 3525 3141 3298 2862 
Q 3072 2584 2669 2484 
Q 3125 2378 3379 2068 
Q 3634 1759 3634 1313 
Q 3634 634 3220 271 
Q 2806 -91 2034 -91 
Q 1263 -91 848 271 
Q 434 634 434 1313 
Q 434 1759 690 2068 
Q 947 2378 1403 2484 
z
M 1172 3481 
Q 1172 3119 1398 2916 
Q 1625 2713 2034 2713 
Q 2441 2713 2670 2916 
Q 2900 3119 2900 3481 
Q 2900 3844 2670 4047 
Q 2441 4250 2034 4250 
Q 1625 4250 1398 4047 
Q 1172 3844 1172 3481 
z
" transform="scale(0.015625)"/>
       </defs>
       <use xlink:href="#DejaVuSans-30"/>
       <use xlink:href="#DejaVuSans-2e" x="63.623047"/>
       <use xlink:href="#DejaVuSans-38" x="95.410156"/>
      </g>
     </g>
    </g>
    <g id="ytick_3">
     <g id="line2d_3">
      <g>
       <use xlink:href="#m568976d4b8" x="50.8925" y="213.303729" style="stroke: #000000; stroke-width: 0.8"/>
      </g>
     </g>
     <g id="text_3">
      <!-- 0.9 -->
      <g transform="translate(27.989375 217.102948)scale(0.1 -0.1)">
       <defs>
        <path id="DejaVuSans-39" d="M 703 97 
L 703 672 
Q 941 559 1184 500 
Q 1428 441 1663 441 
Q 2288 441 2617 861 
Q 2947 1281 2994 2138 
Q 2813 1869 2534 1725 
Q 2256 1581 1919 1581 
Q 1219 1581 811 2004 
Q 403 2428 403 3163 
Q 403 3881 828 4315 
Q 1253 4750 1959 4750 
Q 2769 4750 3195 4129 
Q 3622 3509 3622 2328 
Q 3622 1225 3098 567 
Q 2575 -91 1691 -91 
Q 1453 -91 1209 -44 
Q 966 3 703 97 
z
M 1959 2075 
Q 2384 2075 2632 2365 
Q 2881 2656 2881 3163 
Q 2881 3666 2632 3958 
Q 2384 4250 1959 4250 
Q 1534 4250 1286 3958 
Q 1038 3666 1038 3163 
Q 1038 2656 1286 2365 
Q 1534 2075 1959 2075 
z
" transform="scale(0.015625)"/>
       </defs>
       <use xlink:href="#DejaVuSans-30"/>
       <use xlink:href="#DejaVuSans-2e" x="63.623047"/>
       <use xlink:href="#DejaVuSans-39" x="95.410156"/>
      </g>
     </g>
    </g>
    <g id="ytick_4">
     <g id="line2d_4">
      <g>
       <use xlink:href="#m568976d4b8" x="50.8925" y="184.860337" style="stroke: #000000; stroke-width: 0.8"/>
      </g>
     </g>
     <g id="text_4">
      <!-- 1.0 -->
      <g transform="translate(27.989375 188.659556)scale(0.1 -0.1)">
       <defs>
        <path id="DejaVuSans-31" d="M 794 531 
L 1825 531 
L 1825 4091 
L 703 3866 
L 703 4441 
L 1819 4666 
L 2450 4666 
L 2450 531 
L 3481 531 
L 3481 0 
L 794 0 
L 794 531 
z
" transform="scale(0.015625)"/>
       </defs>
       <use xlink:href="#DejaVuSans-31"/>
       <use xlink:href="#DejaVuSans-2e" x="63.623047"/>
       <use xlink:href="#DejaVuSans-30" x="95.410156"/>
      </g>
     </g>
    </g>
    <g id="ytick_5">
     <g id="line2d_5">
      <g>
       <use xlink:href="#m568976d4b8" x="50.8925" y="156.416945" style="stroke: #000000; stroke-width: 0.8"/>
      </g>
     </g>
     <g id="text_5">
      <!-- 1.1 -->
      <g transform="translate(27.989375 160.216164)scale(0.1 -0.1)">
       <use xlink:href="#DejaVuSans-31"/>
       <use xlink:href="#DejaVuSans-2e" x="63.623047"/>
       <use xlink:href="#DejaVuSans-31" x="95.410156"/>
      </g>
     </g>
    </g>
    <g id="ytick_6">
     <g id="line2d_6">
      <g>
       <use xlink:href="#m568976d4b8" x="50.8925" y="127.973553" style="stroke: #000000; stroke-width: 0.8"/>
      </g>
     </g>
     <g id="text_6">
      <!-- 1.2 -->
      <g transform="translate(27.989375 131.772772)scale(0.1 -0.1)">
       <defs>
        <path id="DejaVuSans-32" d="M 1228 531 
L 3431 531 
L 3431 0 
L 469 0 
L 469 531 
Q 828 903 1448 1529 
Q 2069 2156 2228 2338 
Q 2531 2678 2651 2914 
Q 2772 3150 2772 3378 
Q 2772 3750 2511 3984 
Q 2250 4219 1831 4219 
Q 1534 4219 1204 4116 
Q 875 4013 500 3803 
L 500 4441 
Q 881 4594 1212 4672 
Q 1544 4750 1819 4750 
Q 2544 4750 2975 4387 
Q 3406 4025 3406 3419 
Q 3406 3131 3298 2873 
Q 3191 2616 2906 2266 
Q 2828 2175 2409 1742 
Q 1991 1309 1228 531 
z
" transform="scale(0.015625)"/>
       </defs>
       <use xlink:href="#DejaVuSans-31"/>
       <use xlink:href="#DejaVuSans-2e" x="63.623047"/>
       <use xlink:href="#DejaVuSans-32" x="95.410156"/>
      </g>
     </g>
    </g>
    <g id="ytick_7">
     <g id="line2d_7">
      <g>
       <use xlink:href="#m568976d4b8" x="50.8925" y="99.530161" style="stroke: #000000; stroke-width: 0.8"/>
      </g>
     </g>
     <g id="text_7">
      <!-- 1.3 -->
      <g transform="translate(27.989375 103.32938)scale(0.1 -0.1)">
       <defs>
        <path id="DejaVuSans-33" d="M 2597 2516 
Q 3050 2419 3304 2112 
Q 3559 1806 3559 1356 
Q 3559 666 3084 287 
Q 2609 -91 1734 -91 
Q 1441 -91 1130 -33 
Q 819 25 488 141 
L 488 750 
Q 750 597 1062 519 
Q 1375 441 1716 441 
Q 2309 441 2620 675 
Q 2931 909 2931 1356 
Q 2931 1769 2642 2001 
Q 2353 2234 1838 2234 
L 1294 2234 
L 1294 2753 
L 1863 2753 
Q 2328 2753 2575 2939 
Q 2822 3125 2822 3475 
Q 2822 3834 2567 4026 
Q 2313 4219 1838 4219 
Q 1578 4219 1281 4162 
Q 984 4106 628 3988 
L 628 4550 
Q 988 4650 1302 4700 
Q 1616 4750 1894 4750 
Q 2613 4750 3031 4423 
Q 3450 4097 3450 3541 
Q 3450 3153 3228 2886 
Q 3006 2619 2597 2516 
z
" transform="scale(0.015625)"/>
       </defs>
       <use xlink:href="#DejaVuSans-31"/>
       <use xlink:href="#DejaVuSans-2e" x="63.623047"/>
       <use xlink:href="#DejaVuSans-33" x="95.410156"/>
      </g>
     </g>
    </g>
    <g id="ytick_8">
     <g id="line2d_8">
      <g>
       <use xlink:href="#m568976d4b8" x="50.8925" y="71.086769" style="stroke: #000000; stroke-width: 0.8"/>
      </g>
     </g>
     <g id="text_8">
      <!-- 1.4 -->
      <g transform="translate(27.989375 74.885988)scale(0.1 -0.1)">
       <defs>
        <path id="DejaVuSans-34" d="M 2419 4116 
L 825 1625 
L 2419 1625 
L 2419 4116 
z
M 2253 4666 
L 3047 4666 
L 3047 1625 
L 3713 1625 
L 3713 1100 
L 3047 1100 
L 3047 0 
L 2419 0 
L 2419 1100 
L 313 1100 
L 313 1709 
L 2253 4666 
z
" transform="scale(0.015625)"/>
       </defs>
       <use xlink:href="#DejaVuSans-31"/>
       <use xlink:href="#DejaVuSans-2e" x="63.623047"/>
       <use xlink:href="#DejaVuSans-34" x="95.410156"/>
      </g>
     </g>
    </g>
    <g id="text_9">
     <!-- RMSD [$\AA$] -->
     <g transform="translate(21.909688 184.12)rotate(-90)scale(0.1 -0.1)">
      <defs>
       <path id="DejaVuSans-52" d="M 2841 2188 
Q 3044 2119 3236 1894 
Q 3428 1669 3622 1275 
L 4263 0 
L 3584 0 
L 2988 1197 
Q 2756 1666 2539 1819 
Q 2322 1972 1947 1972 
L 1259 1972 
L 1259 0 
L 628 0 
L 628 4666 
L 2053 4666 
Q 2853 4666 3247 4331 
Q 3641 3997 3641 3322 
Q 3641 2881 3436 2590 
Q 3231 2300 2841 2188 
z
M 1259 4147 
L 1259 2491 
L 2053 2491 
Q 2509 2491 2742 2702 
Q 2975 2913 2975 3322 
Q 2975 3731 2742 3939 
Q 2509 4147 2053 4147 
L 1259 4147 
z
" transform="scale(0.015625)"/>
       <path id="DejaVuSans-4d" d="M 628 4666 
L 1569 4666 
L 2759 1491 
L 3956 4666 
L 4897 4666 
L 4897 0 
L 4281 0 
L 4281 4097 
L 3078 897 
L 2444 897 
L 1241 4097 
L 1241 0 
L 628 0 
L 628 4666 
z
" transform="scale(0.015625)"/>
       <path id="DejaVuSans-53" d="M 3425 4513 
L 3425 3897 
Q 3066 4069 2747 4153 
Q 2428 4238 2131 4238 
Q 1616 4238 1336 4038 
Q 1056 3838 1056 3469 
Q 1056 3159 1242 3001 
Q 1428 2844 1947 2747 
L 2328 2669 
Q 3034 2534 3370 2195 
Q 3706 1856 3706 1288 
Q 3706 609 3251 259 
Q 2797 -91 1919 -91 
Q 1588 -91 1214 -16 
Q 841 59 441 206 
L 441 856 
Q 825 641 1194 531 
Q 1563 422 1919 422 
Q 2459 422 2753 634 
Q 3047 847 3047 1241 
Q 3047 1584 2836 1778 
Q 2625 1972 2144 2069 
L 1759 2144 
Q 1053 2284 737 2584 
Q 422 2884 422 3419 
Q 422 4038 858 4394 
Q 1294 4750 2059 4750 
Q 2388 4750 2728 4690 
Q 3069 4631 3425 4513 
z
" transform="scale(0.015625)"/>
       <path id="DejaVuSans-44" d="M 1259 4147 
L 1259 519 
L 2022 519 
Q 2988 519 3436 956 
Q 3884 1394 3884 2338 
Q 3884 3275 3436 3711 
Q 2988 4147 2022 4147 
L 1259 4147 
z
M 628 4666 
L 1925 4666 
Q 3281 4666 3915 4102 
Q 4550 3538 4550 2338 
Q 4550 1131 3912 565 
Q 3275 0 1925 0 
L 628 0 
L 628 4666 
z
" transform="scale(0.015625)"/>
       <path id="DejaVuSans-20" transform="scale(0.015625)"/>
       <path id="DejaVuSans-5b" d="M 550 4863 
L 1875 4863 
L 1875 4416 
L 1125 4416 
L 1125 -397 
L 1875 -397 
L 1875 -844 
L 550 -844 
L 550 4863 
z
" transform="scale(0.015625)"/>
       <path id="DejaVuSans-Oblique-c5" d="M 3188 5081 
Q 3188 5278 3048 5417 
Q 2909 5556 2713 5556 
Q 2513 5556 2377 5420 
Q 2241 5284 2241 5081 
Q 2241 4884 2377 4746 
Q 2513 4609 2713 4609 
Q 2909 4609 3048 4746 
Q 3188 4884 3188 5081 
z
M 2203 4397 
Q 2034 4513 1945 4689 
Q 1856 4866 1856 5081 
Q 1856 5438 2106 5689 
Q 2356 5941 2713 5941 
Q 3069 5941 3320 5689 
Q 3572 5438 3572 5081 
Q 3572 4834 3458 4643 
Q 3344 4453 3128 4341 
L 3938 0 
L 3278 0 
L 3084 1197 
L 984 1197 
L 325 0 
L -341 0 
L 2203 4397 
z
M 2584 4044 
L 1275 1722 
L 2988 1722 
L 2584 4044 
z
" transform="scale(0.015625)"/>
       <path id="DejaVuSans-5d" d="M 1947 4863 
L 1947 -844 
L 622 -844 
L 622 -397 
L 1369 -397 
L 1369 4416 
L 622 4416 
L 622 4863 
L 1947 4863 
z
" transform="scale(0.015625)"/>
      </defs>
      <use xlink:href="#DejaVuSans-52" transform="translate(0 0.171875)"/>
      <use xlink:href="#DejaVuSans-4d" transform="translate(69.482422 0.171875)"/>
      <use xlink:href="#DejaVuSans-53" transform="translate(155.761719 0.171875)"/>
      <use xlink:href="#DejaVuSans-44" transform="translate(219.238281 0.171875)"/>
      <use xlink:href="#DejaVuSans-20" transform="translate(296.240234 0.171875)"/>
      <use xlink:href="#DejaVuSans-5b" transform="translate(328.027344 0.171875)"/>
      <use xlink:href="#DejaVuSans-Oblique-c5" transform="translate(367.041016 0.171875)"/>
      <use xlink:href="#DejaVuSans-5d" transform="translate(435.449219 0.171875)"/>
     </g>
    </g>
   </g>
   <g id="LineCollection_1">
    <path d="M 67.120182 203.575279 
L 94.166318 203.575279 
" clip-path="url(#pe7d12e095c)" style="fill: none; stroke: #1f77b4; stroke-width: 1.5"/>
   </g>
   <g id="LineCollection_2">
    <path d="M 67.120182 57.342727 
L 94.166318 57.342727 
" clip-path="url(#pe7d12e095c)" style="fill: none; stroke: #1f77b4; stroke-width: 1.5"/>
   </g>
   <g id="LineCollection_3">
    <path d="M 67.120182 263.397273 
L 94.166318 263.397273 
" clip-path="url(#pe7d12e095c)" style="fill: none; stroke: #1f77b4; stroke-width: 1.5"/>
   </g>
   <g id="LineCollection_4">
    <path d="M 80.64325 263.397273 
L 80.64325 57.342727 
" clip-path="url(#pe7d12e095c)" style="fill: none; stroke: #1f77b4; stroke-width: 1.5"/>
   </g>
   <g id="patch_3">
    <path d="M 50.8925 273.7 
L 50.8925 47.04 
" style="fill: none; stroke: #000000; stroke-width: 0.8; stroke-linejoin: miter; stroke-linecap: square"/>
   </g>
   <g id="patch_4">
    <path d="M 110.394 273.7 
L 110.394 47.04 
" style="fill: none; stroke: #000000; stroke-width: 0.8; stroke-linejoin: miter; stroke-linecap: square"/>
   </g>
   <g id="patch_5">
    <path d="M 50.8925 273.7 
L 110.394 273.7 
" style="fill: none; stroke: #000000; stroke-width: 0.8; stroke-linejoin: miter; stroke-linecap: square"/>
   </g>
   <g id="patch_6">
    <path d="M 50.8925 47.04 
L 110.394 47.04 
" style="fill: none; stroke: #000000; stroke-width: 0.8; stroke-linejoin: miter; stroke-linecap: square"/>
   </g>
   <g id="text_10">
    <!-- RMSD -->
    <g transform="translate(62.86825 41.04)scale(0.12 -0.12)">
     <use xlink:href="#DejaVuSans-52"/>
     <use xlink:href="#DejaVuSans-4d" x="69.482422"/>
     <use xlink:href="#DejaVuSans-53" x="155.761719"/>
     <use xlink:href="#DejaVuSans-44" x="219.238281"/>
    </g>
   </g>
  </g>
  <g id="axes_2">
   <g id="patch_7">
    <path d="M 164.594 273.7 
L 224.0955 273.7 
L 224.0955 47.04 
L 164.594 47.04 
z
" style="fill: #ffffff"/>
   </g>
   <g id="PolyCollection_2">
    <path d="M 196.765008 263.397273 
L 191.924492 263.397273 
L 191.472082 261.315914 
L 190.995792 259.234555 
L 190.504147 257.153196 
L 190.004746 255.071837 
L 189.503091 252.990478 
L 189.001586 250.909118 
L 188.498901 248.827759 
L 187.989877 246.7464 
L 187.466071 244.665041 
L 186.916926 242.583682 
L 186.33142 240.502323 
L 185.699954 238.420964 
L 185.016132 236.339605 
L 184.27814 234.258246 
L 183.489476 232.176887 
L 182.658917 230.095528 
L 181.799783 228.014169 
L 180.928653 225.93281 
L 180.063784 223.851451 
L 179.223472 221.770092 
L 178.424544 219.688733 
L 177.681071 217.607374 
L 177.003307 215.526015 
L 176.396803 213.444656 
L 175.861685 211.363297 
L 175.392115 209.281938 
L 174.976129 207.200579 
L 174.596042 205.119219 
L 174.229681 203.03786 
L 173.852531 200.956501 
L 173.440703 198.875142 
L 172.974351 196.793783 
L 172.440992 194.712424 
L 171.838101 192.631065 
L 171.174477 190.549706 
L 170.470091 188.468347 
L 169.754478 186.386988 
L 169.063973 184.305629 
L 168.438271 182.22427 
L 167.916785 180.142911 
L 167.535208 178.061552 
L 167.322521 175.980193 
L 167.298614 173.898834 
L 167.472632 171.817475 
L 167.842175 169.736116 
L 168.393481 167.654757 
L 169.10271 165.573398 
L 169.938299 163.492039 
L 170.864214 161.41068 
L 171.843726 159.32932 
L 172.843242 157.247961 
L 173.83564 155.166602 
L 174.80265 153.085243 
L 175.735951 151.003884 
L 176.636846 148.922525 
L 177.514578 146.841166 
L 178.383566 144.759807 
L 179.260005 142.678448 
L 180.158371 140.597089 
L 181.088416 138.51573 
L 182.053115 136.434371 
L 183.047867 134.353012 
L 184.06099 132.271653 
L 185.075299 130.190294 
L 186.070416 128.108935 
L 187.02532 126.027576 
L 187.920748 123.946217 
L 188.74112 121.864858 
L 189.475817 119.783499 
L 190.119764 117.70214 
L 190.673366 115.620781 
L 191.14189 113.539421 
L 191.534383 111.458062 
L 191.862293 109.376703 
L 192.137909 107.295344 
L 192.372826 105.213985 
L 192.576626 103.132626 
L 192.755965 101.051267 
L 192.914209 98.969908 
L 193.051669 96.888549 
L 193.16638 94.80719 
L 193.255262 92.725831 
L 193.315434 90.644472 
L 193.345417 88.563113 
L 193.346013 86.481754 
L 193.320705 84.400395 
L 193.275533 82.319036 
L 193.218505 80.237677 
L 193.158662 78.156318 
L 193.105013 76.074959 
L 193.065506 73.9936 
L 193.046221 71.912241 
L 193.05089 69.830882 
L 193.080769 67.749522 
L 193.134841 65.668163 
L 193.210244 63.586804 
L 193.302822 61.505445 
L 193.407679 59.424086 
L 193.51969 57.342727 
L 195.16981 57.342727 
L 195.16981 57.342727 
L 195.281821 59.424086 
L 195.386678 61.505445 
L 195.479256 63.586804 
L 195.554659 65.668163 
L 195.608731 67.749522 
L 195.63861 69.830882 
L 195.643279 71.912241 
L 195.623994 73.9936 
L 195.584487 76.074959 
L 195.530838 78.156318 
L 195.470995 80.237677 
L 195.413967 82.319036 
L 195.368795 84.400395 
L 195.343487 86.481754 
L 195.344083 88.563113 
L 195.374066 90.644472 
L 195.434238 92.725831 
L 195.52312 94.80719 
L 195.637831 96.888549 
L 195.775291 98.969908 
L 195.933535 101.051267 
L 196.112874 103.132626 
L 196.316674 105.213985 
L 196.551591 107.295344 
L 196.827207 109.376703 
L 197.155117 111.458062 
L 197.54761 113.539421 
L 198.016134 115.620781 
L 198.569736 117.70214 
L 199.213683 119.783499 
L 199.94838 121.864858 
L 200.768752 123.946217 
L 201.66418 126.027576 
L 202.619084 128.108935 
L 203.614201 130.190294 
L 204.62851 132.271653 
L 205.641633 134.353012 
L 206.636385 136.434371 
L 207.601084 138.51573 
L 208.531129 140.597089 
L 209.429495 142.678448 
L 210.305934 144.759807 
L 211.174922 146.841166 
L 212.052654 148.922525 
L 212.953549 151.003884 
L 213.88685 153.085243 
L 214.85386 155.166602 
L 215.846258 157.247961 
L 216.845774 159.32932 
L 217.825286 161.41068 
L 218.751201 163.492039 
L 219.58679 165.573398 
L 220.296019 167.654757 
L 220.847325 169.736116 
L 221.216868 171.817475 
L 221.390886 173.898834 
L 221.366979 175.980193 
L 221.154292 178.061552 
L 220.772715 180.142911 
L 220.251229 182.22427 
L 219.625527 184.305629 
L 218.935022 186.386988 
L 218.219409 188.468347 
L 217.515023 190.549706 
L 216.851399 192.631065 
L 216.248508 194.712424 
L 215.715149 196.793783 
L 215.248797 198.875142 
L 214.836969 200.956501 
L 214.459819 203.03786 
L 214.093458 205.119219 
L 213.713371 207.200579 
L 213.297385 209.281938 
L 212.827815 211.363297 
L 212.292697 213.444656 
L 211.686193 215.526015 
L 211.008429 217.607374 
L 210.264956 219.688733 
L 209.466028 221.770092 
L 208.625716 223.851451 
L 207.760847 225.93281 
L 206.889717 228.014169 
L 206.030583 230.095528 
L 205.200024 232.176887 
L 204.41136 234.258246 
L 203.673368 236.339605 
L 202.989546 238.420964 
L 202.35808 240.502323 
L 201.772574 242.583682 
L 201.223429 244.665041 
L 200.699623 246.7464 
L 200.190599 248.827759 
L 199.687914 250.909118 
L 199.186409 252.990478 
L 198.684754 255.071837 
L 198.185353 257.153196 
L 197.693708 259.234555 
L 197.217418 261.315914 
L 196.765008 263.397273 
z
" clip-path="url(#p751a381d4d)" style="fill: #1f77b4; fill-opacity: 0.3"/>
   </g>
   <g id="matplotlib.axis_2">
    <g id="ytick_9">
     <g id="line2d_9">
      <g>
       <use xlink:href="#m568976d4b8" x="164.594" y="241.324974" style="stroke: #000000; stroke-width: 0.8"/>
      </g>
     </g>
     <g id="text_11">
      <!-- 0.6 -->
      <g transform="translate(141.690875 245.124193)scale(0.1 -0.1)">
       <defs>
        <path id="DejaVuSans-36" d="M 2113 2584 
Q 1688 2584 1439 2293 
Q 1191 2003 1191 1497 
Q 1191 994 1439 701 
Q 1688 409 2113 409 
Q 2538 409 2786 701 
Q 3034 994 3034 1497 
Q 3034 2003 2786 2293 
Q 2538 2584 2113 2584 
z
M 3366 4563 
L 3366 3988 
Q 3128 4100 2886 4159 
Q 2644 4219 2406 4219 
Q 1781 4219 1451 3797 
Q 1122 3375 1075 2522 
Q 1259 2794 1537 2939 
Q 1816 3084 2150 3084 
Q 2853 3084 3261 2657 
Q 3669 2231 3669 1497 
Q 3669 778 3244 343 
Q 2819 -91 2113 -91 
Q 1303 -91 875 529 
Q 447 1150 447 2328 
Q 447 3434 972 4092 
Q 1497 4750 2381 4750 
Q 2619 4750 2861 4703 
Q 3103 4656 3366 4563 
z
" transform="scale(0.015625)"/>
       </defs>
       <use xlink:href="#DejaVuSans-30"/>
       <use xlink:href="#DejaVuSans-2e" x="63.623047"/>
       <use xlink:href="#DejaVuSans-36" x="95.410156"/>
      </g>
     </g>
    </g>
    <g id="ytick_10">
     <g id="line2d_10">
      <g>
       <use xlink:href="#m568976d4b8" x="164.594" y="193.446478" style="stroke: #000000; stroke-width: 0.8"/>
      </g>
     </g>
     <g id="text_12">
      <!-- 0.7 -->
      <g transform="translate(141.690875 197.245697)scale(0.1 -0.1)">
       <use xlink:href="#DejaVuSans-30"/>
       <use xlink:href="#DejaVuSans-2e" x="63.623047"/>
       <use xlink:href="#DejaVuSans-37" x="95.410156"/>
      </g>
     </g>
    </g>
    <g id="ytick_11">
     <g id="line2d_11">
      <g>
       <use xlink:href="#m568976d4b8" x="164.594" y="145.567983" style="stroke: #000000; stroke-width: 0.8"/>
      </g>
     </g>
     <g id="text_13">
      <!-- 0.8 -->
      <g transform="translate(141.690875 149.367201)scale(0.1 -0.1)">
       <use xlink:href="#DejaVuSans-30"/>
       <use xlink:href="#DejaVuSans-2e" x="63.623047"/>
       <use xlink:href="#DejaVuSans-38" x="95.410156"/>
      </g>
     </g>
    </g>
    <g id="ytick_12">
     <g id="line2d_12">
      <g>
       <use xlink:href="#m568976d4b8" x="164.594" y="97.689487" style="stroke: #000000; stroke-width: 0.8"/>
      </g>
     </g>
     <g id="text_14">
      <!-- 0.9 -->
      <g transform="translate(141.690875 101.488706)scale(0.1 -0.1)">
       <use xlink:href="#DejaVuSans-30"/>
       <use xlink:href="#DejaVuSans-2e" x="63.623047"/>
       <use xlink:href="#DejaVuSans-39" x="95.410156"/>
      </g>
     </g>
    </g>
    <g id="ytick_13">
     <g id="line2d_13">
      <g>
       <use xlink:href="#m568976d4b8" x="164.594" y="49.810991" style="stroke: #000000; stroke-width: 0.8"/>
      </g>
     </g>
     <g id="text_15">
      <!-- 1.0 -->
      <g transform="translate(141.690875 53.61021)scale(0.1 -0.1)">
       <use xlink:href="#DejaVuSans-31"/>
       <use xlink:href="#DejaVuSans-2e" x="63.623047"/>
       <use xlink:href="#DejaVuSans-30" x="95.410156"/>
      </g>
     </g>
    </g>
    <g id="text_16">
     <!-- MAE [$\AA$] -->
     <g transform="translate(135.611187 180.22)rotate(-90)scale(0.1 -0.1)">
      <defs>
       <path id="DejaVuSans-41" d="M 2188 4044 
L 1331 1722 
L 3047 1722 
L 2188 4044 
z
M 1831 4666 
L 2547 4666 
L 4325 0 
L 3669 0 
L 3244 1197 
L 1141 1197 
L 716 0 
L 50 0 
L 1831 4666 
z
" transform="scale(0.015625)"/>
       <path id="DejaVuSans-45" d="M 628 4666 
L 3578 4666 
L 3578 4134 
L 1259 4134 
L 1259 2753 
L 3481 2753 
L 3481 2222 
L 1259 2222 
L 1259 531 
L 3634 531 
L 3634 0 
L 628 0 
L 628 4666 
z
" transform="scale(0.015625)"/>
      </defs>
      <use xlink:href="#DejaVuSans-4d" transform="translate(0 0.171875)"/>
      <use xlink:href="#DejaVuSans-41" transform="translate(86.279297 0.171875)"/>
      <use xlink:href="#DejaVuSans-45" transform="translate(154.6875 0.171875)"/>
      <use xlink:href="#DejaVuSans-20" transform="translate(217.871094 0.171875)"/>
      <use xlink:href="#DejaVuSans-5b" transform="translate(249.658203 0.171875)"/>
      <use xlink:href="#DejaVuSans-Oblique-c5" transform="translate(288.671875 0.171875)"/>
      <use xlink:href="#DejaVuSans-5d" transform="translate(357.080078 0.171875)"/>
     </g>
    </g>
   </g>
   <g id="LineCollection_5">
    <path d="M 180.821682 181.190615 
L 207.867818 181.190615 
" clip-path="url(#p751a381d4d)" style="fill: none; stroke: #1f77b4; stroke-width: 1.5"/>
   </g>
   <g id="LineCollection_6">
    <path d="M 180.821682 57.342727 
L 207.867818 57.342727 
" clip-path="url(#p751a381d4d)" style="fill: none; stroke: #1f77b4; stroke-width: 1.5"/>
   </g>
   <g id="LineCollection_7">
    <path d="M 180.821682 263.397273 
L 207.867818 263.397273 
" clip-path="url(#p751a381d4d)" style="fill: none; stroke: #1f77b4; stroke-width: 1.5"/>
   </g>
   <g id="LineCollection_8">
    <path d="M 194.34475 263.397273 
L 194.34475 57.342727 
" clip-path="url(#p751a381d4d)" style="fill: none; stroke: #1f77b4; stroke-width: 1.5"/>
   </g>
   <g id="patch_8">
    <path d="M 164.594 273.7 
L 164.594 47.04 
" style="fill: none; stroke: #000000; stroke-width: 0.8; stroke-linejoin: miter; stroke-linecap: square"/>
   </g>
   <g id="patch_9">
    <path d="M 224.0955 273.7 
L 224.0955 47.04 
" style="fill: none; stroke: #000000; stroke-width: 0.8; stroke-linejoin: miter; stroke-linecap: square"/>
   </g>
   <g id="patch_10">
    <path d="M 164.594 273.7 
L 224.0955 273.7 
" style="fill: none; stroke: #000000; stroke-width: 0.8; stroke-linejoin: miter; stroke-linecap: square"/>
   </g>
   <g id="patch_11">
    <path d="M 164.594 47.04 
L 224.0955 47.04 
" style="fill: none; stroke: #000000; stroke-width: 0.8; stroke-linejoin: miter; stroke-linecap: square"/>
   </g>
   <g id="text_17">
    <!-- MAE -->
    <g transform="translate(181.27225 41.04)scale(0.12 -0.12)">
     <use xlink:href="#DejaVuSans-4d"/>
     <use xlink:href="#DejaVuSans-41" x="86.279297"/>
     <use xlink:href="#DejaVuSans-45" x="154.6875"/>
    </g>
   </g>
  </g>
  <g id="axes_3">
   <g id="patch_12">
    <path d="M 278.2955 273.7 
L 337.797 273.7 
L 337.797 47.04 
L 278.2955 47.04 
z
" style="fill: #ffffff"/>
   </g>
   <g id="PolyCollection_3">
    <path d="M 308.458255 263.397273 
L 307.634245 263.397273 
L 307.585831 261.315914 
L 307.539137 259.234555 
L 307.48716 257.153196 
L 307.419175 255.071837 
L 307.321997 252.990478 
L 307.181887 250.909118 
L 306.986597 248.827759 
L 306.72697 246.7464 
L 306.397653 244.665041 
L 305.996811 242.583682 
L 305.525024 240.502323 
L 304.98383 238.420964 
L 304.374374 236.339605 
L 303.696449 234.258246 
L 302.947938 232.176887 
L 302.124523 230.095528 
L 301.219602 228.014169 
L 300.224639 225.93281 
L 299.130424 223.851451 
L 297.929662 221.770092 
L 296.620804 219.688733 
L 295.212241 217.607374 
L 293.725353 215.526015 
L 292.194772 213.444656 
L 290.664912 211.363297 
L 289.183104 209.281938 
L 287.791076 207.200579 
L 286.517557 205.119219 
L 285.374774 203.03786 
L 284.360524 200.956501 
L 283.465486 198.875142 
L 282.683256 196.793783 
L 282.019201 194.712424 
L 281.494351 192.631065 
L 281.142345 190.549706 
L 281.000114 188.468347 
L 281.095535 186.386988 
L 281.436471 184.305629 
L 282.005079 182.22427 
L 282.759376 180.142911 
L 283.641477 178.061552 
L 284.589877 175.980193 
L 285.552082 173.898834 
L 286.49411 171.817475 
L 287.404651 169.736116 
L 288.293302 167.654757 
L 289.183913 165.573398 
L 290.105136 163.492039 
L 291.080714 161.41068 
L 292.121911 159.32932 
L 293.223781 157.247961 
L 294.365981 155.166602 
L 295.517602 153.085243 
L 296.644456 151.003884 
L 297.716632 148.922525 
L 298.714193 146.841166 
L 299.629526 144.759807 
L 300.465967 142.678448 
L 301.233475 140.597089 
L 301.942995 138.51573 
L 302.601541 136.434371 
L 303.209644 134.353012 
L 303.761914 132.271653 
L 304.250248 130.190294 
L 304.668214 128.108935 
L 305.014806 126.027576 
L 305.296149 123.946217 
L 305.524705 121.864858 
L 305.716519 119.783499 
L 305.887689 117.70214 
L 306.051257 115.620781 
L 306.215314 113.539421 
L 306.382531 111.458062 
L 306.550868 109.376703 
L 306.715054 107.295344 
L 306.868385 105.213985 
L 307.004502 103.132626 
L 307.11887 101.051267 
L 307.209715 98.969908 
L 307.278309 96.888549 
L 307.32854 94.80719 
L 307.365936 92.725831 
L 307.396389 90.644472 
L 307.424937 88.563113 
L 307.454943 86.481754 
L 307.487839 84.400395 
L 307.523433 82.319036 
L 307.560547 80.237677 
L 307.597668 78.156318 
L 307.633361 76.074959 
L 307.666371 73.9936 
L 307.695566 71.912241 
L 307.719946 69.830882 
L 307.738881 67.749522 
L 307.75253 65.668163 
L 307.762183 63.586804 
L 307.77027 61.505445 
L 307.779882 59.424086 
L 307.793917 57.342727 
L 308.298583 57.342727 
L 308.298583 57.342727 
L 308.312618 59.424086 
L 308.32223 61.505445 
L 308.330317 63.586804 
L 308.33997 65.668163 
L 308.353619 67.749522 
L 308.372554 69.830882 
L 308.396934 71.912241 
L 308.426129 73.9936 
L 308.459139 76.074959 
L 308.494832 78.156318 
L 308.531953 80.237677 
L 308.569067 82.319036 
L 308.604661 84.400395 
L 308.637557 86.481754 
L 308.667563 88.563113 
L 308.696111 90.644472 
L 308.726564 92.725831 
L 308.76396 94.80719 
L 308.814191 96.888549 
L 308.882785 98.969908 
L 308.97363 101.051267 
L 309.087998 103.132626 
L 309.224115 105.213985 
L 309.377446 107.295344 
L 309.541632 109.376703 
L 309.709969 111.458062 
L 309.877186 113.539421 
L 310.041243 115.620781 
L 310.204811 117.70214 
L 310.375981 119.783499 
L 310.567795 121.864858 
L 310.796351 123.946217 
L 311.077694 126.027576 
L 311.424286 128.108935 
L 311.842252 130.190294 
L 312.330586 132.271653 
L 312.882856 134.353012 
L 313.490959 136.434371 
L 314.149505 138.51573 
L 314.859025 140.597089 
L 315.626533 142.678448 
L 316.462974 144.759807 
L 317.378307 146.841166 
L 318.375868 148.922525 
L 319.448044 151.003884 
L 320.574898 153.085243 
L 321.726519 155.166602 
L 322.868719 157.247961 
L 323.970589 159.32932 
L 325.011786 161.41068 
L 325.987364 163.492039 
L 326.908587 165.573398 
L 327.799198 167.654757 
L 328.687849 169.736116 
L 329.59839 171.817475 
L 330.540418 173.898834 
L 331.502623 175.980193 
L 332.451023 178.061552 
L 333.333124 180.142911 
L 334.087421 182.22427 
L 334.656029 184.305629 
L 334.996965 186.386988 
L 335.092386 188.468347 
L 334.950155 190.549706 
L 334.598149 192.631065 
L 334.073299 194.712424 
L 333.409244 196.793783 
L 332.627014 198.875142 
L 331.731976 200.956501 
L 330.717726 203.03786 
L 329.574943 205.119219 
L 328.301424 207.200579 
L 326.909396 209.281938 
L 325.427588 211.363297 
L 323.897728 213.444656 
L 322.367147 215.526015 
L 320.880259 217.607374 
L 319.471696 219.688733 
L 318.162838 221.770092 
L 316.962076 223.851451 
L 315.867861 225.93281 
L 314.872898 228.014169 
L 313.967977 230.095528 
L 313.144562 232.176887 
L 312.396051 234.258246 
L 311.718126 236.339605 
L 311.10867 238.420964 
L 310.567476 240.502323 
L 310.095689 242.583682 
L 309.694847 244.665041 
L 309.36553 246.7464 
L 309.105903 248.827759 
L 308.910613 250.909118 
L 308.770503 252.990478 
L 308.673325 255.071837 
L 308.60534 257.153196 
L 308.553363 259.234555 
L 308.506669 261.315914 
L 308.458255 263.397273 
z
" clip-path="url(#pc473789cdd)" style="fill: #1f77b4; fill-opacity: 0.3"/>
   </g>
   <g id="matplotlib.axis_3">
    <g id="ytick_14">
     <g id="line2d_14">
      <g>
       <use xlink:href="#m568976d4b8" x="278.2955" y="236.165566" style="stroke: #000000; stroke-width: 0.8"/>
      </g>
     </g>
     <g id="text_18">
      <!-- 0.5 -->
      <g transform="translate(255.392375 239.964784)scale(0.1 -0.1)">
       <defs>
        <path id="DejaVuSans-35" d="M 691 4666 
L 3169 4666 
L 3169 4134 
L 1269 4134 
L 1269 2991 
Q 1406 3038 1543 3061 
Q 1681 3084 1819 3084 
Q 2600 3084 3056 2656 
Q 3513 2228 3513 1497 
Q 3513 744 3044 326 
Q 2575 -91 1722 -91 
Q 1428 -91 1123 -41 
Q 819 9 494 109 
L 494 744 
Q 775 591 1075 516 
Q 1375 441 1709 441 
Q 2250 441 2565 725 
Q 2881 1009 2881 1497 
Q 2881 1984 2565 2268 
Q 2250 2553 1709 2553 
Q 1456 2553 1204 2497 
Q 953 2441 691 2322 
L 691 4666 
z
" transform="scale(0.015625)"/>
       </defs>
       <use xlink:href="#DejaVuSans-30"/>
       <use xlink:href="#DejaVuSans-2e" x="63.623047"/>
       <use xlink:href="#DejaVuSans-35" x="95.410156"/>
      </g>
     </g>
    </g>
    <g id="ytick_15">
     <g id="line2d_15">
      <g>
       <use xlink:href="#m568976d4b8" x="278.2955" y="197.939035" style="stroke: #000000; stroke-width: 0.8"/>
      </g>
     </g>
     <g id="text_19">
      <!-- 0.6 -->
      <g transform="translate(255.392375 201.738254)scale(0.1 -0.1)">
       <use xlink:href="#DejaVuSans-30"/>
       <use xlink:href="#DejaVuSans-2e" x="63.623047"/>
       <use xlink:href="#DejaVuSans-36" x="95.410156"/>
      </g>
     </g>
    </g>
    <g id="ytick_16">
     <g id="line2d_16">
      <g>
       <use xlink:href="#m568976d4b8" x="278.2955" y="159.712505" style="stroke: #000000; stroke-width: 0.8"/>
      </g>
     </g>
     <g id="text_20">
      <!-- 0.7 -->
      <g transform="translate(255.392375 163.511724)scale(0.1 -0.1)">
       <use xlink:href="#DejaVuSans-30"/>
       <use xlink:href="#DejaVuSans-2e" x="63.623047"/>
       <use xlink:href="#DejaVuSans-37" x="95.410156"/>
      </g>
     </g>
    </g>
    <g id="ytick_17">
     <g id="line2d_17">
      <g>
       <use xlink:href="#m568976d4b8" x="278.2955" y="121.485975" style="stroke: #000000; stroke-width: 0.8"/>
      </g>
     </g>
     <g id="text_21">
      <!-- 0.8 -->
      <g transform="translate(255.392375 125.285193)scale(0.1 -0.1)">
       <use xlink:href="#DejaVuSans-30"/>
       <use xlink:href="#DejaVuSans-2e" x="63.623047"/>
       <use xlink:href="#DejaVuSans-38" x="95.410156"/>
      </g>
     </g>
    </g>
    <g id="ytick_18">
     <g id="line2d_18">
      <g>
       <use xlink:href="#m568976d4b8" x="278.2955" y="83.259444" style="stroke: #000000; stroke-width: 0.8"/>
      </g>
     </g>
     <g id="text_22">
      <!-- 0.9 -->
      <g transform="translate(255.392375 87.058663)scale(0.1 -0.1)">
       <use xlink:href="#DejaVuSans-30"/>
       <use xlink:href="#DejaVuSans-2e" x="63.623047"/>
       <use xlink:href="#DejaVuSans-39" x="95.410156"/>
      </g>
     </g>
    </g>
    <g id="text_23">
     <!-- MSE [$\AA$] -->
     <g transform="translate(249.312687 179.97)rotate(-90)scale(0.1 -0.1)">
      <use xlink:href="#DejaVuSans-4d" transform="translate(0 0.171875)"/>
      <use xlink:href="#DejaVuSans-53" transform="translate(86.279297 0.171875)"/>
      <use xlink:href="#DejaVuSans-45" transform="translate(149.755859 0.171875)"/>
      <use xlink:href="#DejaVuSans-20" transform="translate(212.939453 0.171875)"/>
      <use xlink:href="#DejaVuSans-5b" transform="translate(244.726562 0.171875)"/>
      <use xlink:href="#DejaVuSans-Oblique-c5" transform="translate(283.740234 0.171875)"/>
      <use xlink:href="#DejaVuSans-5d" transform="translate(352.148438 0.171875)"/>
     </g>
    </g>
   </g>
   <g id="LineCollection_9">
    <path d="M 294.523182 182.812782 
L 321.569318 182.812782 
" clip-path="url(#pc473789cdd)" style="fill: none; stroke: #1f77b4; stroke-width: 1.5"/>
   </g>
   <g id="LineCollection_10">
    <path d="M 294.523182 57.342727 
L 321.569318 57.342727 
" clip-path="url(#pc473789cdd)" style="fill: none; stroke: #1f77b4; stroke-width: 1.5"/>
   </g>
   <g id="LineCollection_11">
    <path d="M 294.523182 263.397273 
L 321.569318 263.397273 
" clip-path="url(#pc473789cdd)" style="fill: none; stroke: #1f77b4; stroke-width: 1.5"/>
   </g>
   <g id="LineCollection_12">
    <path d="M 308.04625 263.397273 
L 308.04625 57.342727 
" clip-path="url(#pc473789cdd)" style="fill: none; stroke: #1f77b4; stroke-width: 1.5"/>
   </g>
   <g id="patch_13">
    <path d="M 278.2955 273.7 
L 278.2955 47.04 
" style="fill: none; stroke: #000000; stroke-width: 0.8; stroke-linejoin: miter; stroke-linecap: square"/>
   </g>
   <g id="patch_14">
    <path d="M 337.797 273.7 
L 337.797 47.04 
" style="fill: none; stroke: #000000; stroke-width: 0.8; stroke-linejoin: miter; stroke-linecap: square"/>
   </g>
   <g id="patch_15">
    <path d="M 278.2955 273.7 
L 337.797 273.7 
" style="fill: none; stroke: #000000; stroke-width: 0.8; stroke-linejoin: miter; stroke-linecap: square"/>
   </g>
   <g id="patch_16">
    <path d="M 278.2955 47.04 
L 337.797 47.04 
" style="fill: none; stroke: #000000; stroke-width: 0.8; stroke-linejoin: miter; stroke-linecap: square"/>
   </g>
   <g id="text_24">
    <!-- MSE -->
    <g transform="translate(295.269062 41.04)scale(0.12 -0.12)">
     <use xlink:href="#DejaVuSans-4d"/>
     <use xlink:href="#DejaVuSans-53" x="86.279297"/>
     <use xlink:href="#DejaVuSans-45" x="149.755859"/>
    </g>
   </g>
  </g>
  <g id="axes_4">
   <g id="patch_17">
    <path d="M 391.997 273.7 
L 451.4985 273.7 
L 451.4985 47.04 
L 391.997 47.04 
z
" style="fill: #ffffff"/>
   </g>
   <g id="PolyCollection_4">
    <path d="M 424.450845 263.397273 
L 419.044655 263.397273 
L 418.997825 261.315914 
L 418.982172 259.234555 
L 418.982966 257.153196 
L 418.98185 255.071837 
L 418.959055 252.990478 
L 418.896028 250.909118 
L 418.778109 248.827759 
L 418.596866 246.7464 
L 418.351673 244.665041 
L 418.050227 242.583682 
L 417.707777 240.502323 
L 417.345046 238.420964 
L 416.984996 236.339605 
L 416.648799 234.258246 
L 416.351545 232.176887 
L 416.098326 230.095528 
L 415.88138 228.014169 
L 415.678895 225.93281 
L 415.455909 223.851451 
L 415.167481 221.770092 
L 414.763998 219.688733 
L 414.198112 217.607374 
L 413.432513 215.526015 
L 412.447468 213.444656 
L 411.246929 211.363297 
L 409.862056 209.281938 
L 408.351205 207.200579 
L 406.795875 205.119219 
L 405.292681 203.03786 
L 403.942074 200.956501 
L 402.83519 198.875142 
L 402.04066 196.793783 
L 401.593448 194.712424 
L 401.487621 192.631065 
L 401.674499 190.549706 
L 402.066841 188.468347 
L 402.548838 186.386988 
L 402.990753 184.305629 
L 403.266288 182.22427 
L 403.270305 180.142911 
L 402.934365 178.061552 
L 402.237796 175.980193 
L 401.212556 173.898834 
L 399.940983 171.817475 
L 398.546493 169.736116 
L 397.178318 167.654757 
L 395.992295 165.573398 
L 395.130348 163.492039 
L 394.701614 161.41068 
L 394.767966 159.32932 
L 395.336071 157.247961 
L 396.357112 155.166602 
L 397.734119 153.085243 
L 399.335685 151.003884 
L 401.013903 148.922525 
L 402.623787 146.841166 
L 404.041363 144.759807 
L 405.177985 142.678448 
L 405.989075 140.597089 
L 406.476466 138.51573 
L 406.684399 136.434371 
L 406.690156 134.353012 
L 406.590926 132.271653 
L 406.488939 130.190294 
L 406.47699 128.108935 
L 406.626321 126.027576 
L 406.978355 123.946217 
L 407.541186 121.864858 
L 408.290978 119.783499 
L 409.177721 117.70214 
L 410.134227 115.620781 
L 411.086812 113.539421 
L 411.966066 111.458062 
L 412.716152 109.376703 
L 413.3015 107.295344 
L 413.710155 105.213985 
L 413.95364 103.132626 
L 414.063622 101.051267 
L 414.086125 98.969908 
L 414.074278 96.888549 
L 414.080703 94.80719 
L 414.150615 92.725831 
L 414.31652 90.644472 
L 414.595099 88.563113 
L 414.986529 86.481754 
L 415.476079 84.400395 
L 416.037553 82.319036 
L 416.637888 80.237677 
L 417.242119 78.156318 
L 417.817978 76.074959 
L 418.33953 73.9936 
L 418.789468 71.912241 
L 419.159946 69.830882 
L 419.452065 67.749522 
L 419.674286 65.668163 
L 419.840169 63.586804 
L 419.965837 61.505445 
L 420.067566 59.424086 
L 420.15978 57.342727 
L 423.33572 57.342727 
L 423.33572 57.342727 
L 423.427934 59.424086 
L 423.529663 61.505445 
L 423.655331 63.586804 
L 423.821214 65.668163 
L 424.043435 67.749522 
L 424.335554 69.830882 
L 424.706032 71.912241 
L 425.15597 73.9936 
L 425.677522 76.074959 
L 426.253381 78.156318 
L 426.857612 80.237677 
L 427.457947 82.319036 
L 428.019421 84.400395 
L 428.508971 86.481754 
L 428.900401 88.563113 
L 429.17898 90.644472 
L 429.344885 92.725831 
L 429.414797 94.80719 
L 429.421222 96.888549 
L 429.409375 98.969908 
L 429.431878 101.051267 
L 429.54186 103.132626 
L 429.785345 105.213985 
L 430.194 107.295344 
L 430.779348 109.376703 
L 431.529434 111.458062 
L 432.408688 113.539421 
L 433.361273 115.620781 
L 434.317779 117.70214 
L 435.204522 119.783499 
L 435.954314 121.864858 
L 436.517145 123.946217 
L 436.869179 126.027576 
L 437.01851 128.108935 
L 437.006561 130.190294 
L 436.904574 132.271653 
L 436.805344 134.353012 
L 436.811101 136.434371 
L 437.019034 138.51573 
L 437.506425 140.597089 
L 438.317515 142.678448 
L 439.454137 144.759807 
L 440.871713 146.841166 
L 442.481597 148.922525 
L 444.159815 151.003884 
L 445.761381 153.085243 
L 447.138388 155.166602 
L 448.159429 157.247961 
L 448.727534 159.32932 
L 448.793886 161.41068 
L 448.365152 163.492039 
L 447.503205 165.573398 
L 446.317182 167.654757 
L 444.949007 169.736116 
L 443.554517 171.817475 
L 442.282944 173.898834 
L 441.257704 175.980193 
L 440.561135 178.061552 
L 440.225195 180.142911 
L 440.229212 182.22427 
L 440.504747 184.305629 
L 440.946662 186.386988 
L 441.428659 188.468347 
L 441.821001 190.549706 
L 442.007879 192.631065 
L 441.902052 194.712424 
L 441.45484 196.793783 
L 440.66031 198.875142 
L 439.553426 200.956501 
L 438.202819 203.03786 
L 436.699625 205.119219 
L 435.144295 207.200579 
L 433.633444 209.281938 
L 432.248571 211.363297 
L 431.048032 213.444656 
L 430.062987 215.526015 
L 429.297388 217.607374 
L 428.731502 219.688733 
L 428.328019 221.770092 
L 428.039591 223.851451 
L 427.816605 225.93281 
L 427.61412 228.014169 
L 427.397174 230.095528 
L 427.143955 232.176887 
L 426.846701 234.258246 
L 426.510504 236.339605 
L 426.150454 238.420964 
L 425.787723 240.502323 
L 425.445273 242.583682 
L 425.143827 244.665041 
L 424.898634 246.7464 
L 424.717391 248.827759 
L 424.599472 250.909118 
L 424.536445 252.990478 
L 424.51365 255.071837 
L 424.512534 257.153196 
L 424.513328 259.234555 
L 424.497675 261.315914 
L 424.450845 263.397273 
z
" clip-path="url(#pd5e293ca5e)" style="fill: #1f77b4; fill-opacity: 0.3"/>
   </g>
   <g id="matplotlib.axis_4">
    <g id="ytick_19">
     <g id="line2d_19">
      <g>
       <use xlink:href="#m568976d4b8" x="391.997" y="270.265758" style="stroke: #000000; stroke-width: 0.8"/>
      </g>
     </g>
     <g id="text_25">
      <!-- 0.40 -->
      <g transform="translate(362.731375 274.064976)scale(0.1 -0.1)">
       <use xlink:href="#DejaVuSans-30"/>
       <use xlink:href="#DejaVuSans-2e" x="63.623047"/>
       <use xlink:href="#DejaVuSans-34" x="95.410156"/>
       <use xlink:href="#DejaVuSans-30" x="159.033203"/>
      </g>
     </g>
    </g>
    <g id="ytick_20">
     <g id="line2d_20">
      <g>
       <use xlink:href="#m568976d4b8" x="391.997" y="232.489091" style="stroke: #000000; stroke-width: 0.8"/>
      </g>
     </g>
     <g id="text_26">
      <!-- 0.45 -->
      <g transform="translate(362.731375 236.28831)scale(0.1 -0.1)">
       <use xlink:href="#DejaVuSans-30"/>
       <use xlink:href="#DejaVuSans-2e" x="63.623047"/>
       <use xlink:href="#DejaVuSans-34" x="95.410156"/>
       <use xlink:href="#DejaVuSans-35" x="159.033203"/>
      </g>
     </g>
    </g>
    <g id="ytick_21">
     <g id="line2d_21">
      <g>
       <use xlink:href="#m568976d4b8" x="391.997" y="194.712424" style="stroke: #000000; stroke-width: 0.8"/>
      </g>
     </g>
     <g id="text_27">
      <!-- 0.50 -->
      <g transform="translate(362.731375 198.511643)scale(0.1 -0.1)">
       <use xlink:href="#DejaVuSans-30"/>
       <use xlink:href="#DejaVuSans-2e" x="63.623047"/>
       <use xlink:href="#DejaVuSans-35" x="95.410156"/>
       <use xlink:href="#DejaVuSans-30" x="159.033203"/>
      </g>
     </g>
    </g>
    <g id="ytick_22">
     <g id="line2d_22">
      <g>
       <use xlink:href="#m568976d4b8" x="391.997" y="156.935758" style="stroke: #000000; stroke-width: 0.8"/>
      </g>
     </g>
     <g id="text_28">
      <!-- 0.55 -->
      <g transform="translate(362.731375 160.734976)scale(0.1 -0.1)">
       <use xlink:href="#DejaVuSans-30"/>
       <use xlink:href="#DejaVuSans-2e" x="63.623047"/>
       <use xlink:href="#DejaVuSans-35" x="95.410156"/>
       <use xlink:href="#DejaVuSans-35" x="159.033203"/>
      </g>
     </g>
    </g>
    <g id="ytick_23">
     <g id="line2d_23">
      <g>
       <use xlink:href="#m568976d4b8" x="391.997" y="119.159091" style="stroke: #000000; stroke-width: 0.8"/>
      </g>
     </g>
     <g id="text_29">
      <!-- 0.60 -->
      <g transform="translate(362.731375 122.95831)scale(0.1 -0.1)">
       <use xlink:href="#DejaVuSans-30"/>
       <use xlink:href="#DejaVuSans-2e" x="63.623047"/>
       <use xlink:href="#DejaVuSans-36" x="95.410156"/>
       <use xlink:href="#DejaVuSans-30" x="159.033203"/>
      </g>
     </g>
    </g>
    <g id="ytick_24">
     <g id="line2d_24">
      <g>
       <use xlink:href="#m568976d4b8" x="391.997" y="81.382424" style="stroke: #000000; stroke-width: 0.8"/>
      </g>
     </g>
     <g id="text_30">
      <!-- 0.65 -->
      <g transform="translate(362.731375 85.181643)scale(0.1 -0.1)">
       <use xlink:href="#DejaVuSans-30"/>
       <use xlink:href="#DejaVuSans-2e" x="63.623047"/>
       <use xlink:href="#DejaVuSans-36" x="95.410156"/>
       <use xlink:href="#DejaVuSans-35" x="159.033203"/>
      </g>
     </g>
    </g>
    <g id="text_31">
     <!-- % NOE fulfilled [1/100 %] -->
     <g transform="translate(356.651687 223.870781)rotate(-90)scale(0.1 -0.1)">
      <defs>
       <path id="DejaVuSans-25" d="M 4653 2053 
Q 4381 2053 4226 1822 
Q 4072 1591 4072 1178 
Q 4072 772 4226 539 
Q 4381 306 4653 306 
Q 4919 306 5073 539 
Q 5228 772 5228 1178 
Q 5228 1588 5073 1820 
Q 4919 2053 4653 2053 
z
M 4653 2450 
Q 5147 2450 5437 2106 
Q 5728 1763 5728 1178 
Q 5728 594 5436 251 
Q 5144 -91 4653 -91 
Q 4153 -91 3862 251 
Q 3572 594 3572 1178 
Q 3572 1766 3864 2108 
Q 4156 2450 4653 2450 
z
M 1428 4353 
Q 1159 4353 1004 4120 
Q 850 3888 850 3481 
Q 850 3069 1003 2837 
Q 1156 2606 1428 2606 
Q 1700 2606 1854 2837 
Q 2009 3069 2009 3481 
Q 2009 3884 1853 4118 
Q 1697 4353 1428 4353 
z
M 4250 4750 
L 4750 4750 
L 1831 -91 
L 1331 -91 
L 4250 4750 
z
M 1428 4750 
Q 1922 4750 2215 4408 
Q 2509 4066 2509 3481 
Q 2509 2891 2217 2550 
Q 1925 2209 1428 2209 
Q 931 2209 642 2551 
Q 353 2894 353 3481 
Q 353 4063 643 4406 
Q 934 4750 1428 4750 
z
" transform="scale(0.015625)"/>
       <path id="DejaVuSans-4e" d="M 628 4666 
L 1478 4666 
L 3547 763 
L 3547 4666 
L 4159 4666 
L 4159 0 
L 3309 0 
L 1241 3903 
L 1241 0 
L 628 0 
L 628 4666 
z
" transform="scale(0.015625)"/>
       <path id="DejaVuSans-4f" d="M 2522 4238 
Q 1834 4238 1429 3725 
Q 1025 3213 1025 2328 
Q 1025 1447 1429 934 
Q 1834 422 2522 422 
Q 3209 422 3611 934 
Q 4013 1447 4013 2328 
Q 4013 3213 3611 3725 
Q 3209 4238 2522 4238 
z
M 2522 4750 
Q 3503 4750 4090 4092 
Q 4678 3434 4678 2328 
Q 4678 1225 4090 567 
Q 3503 -91 2522 -91 
Q 1538 -91 948 565 
Q 359 1222 359 2328 
Q 359 3434 948 4092 
Q 1538 4750 2522 4750 
z
" transform="scale(0.015625)"/>
       <path id="DejaVuSans-66" d="M 2375 4863 
L 2375 4384 
L 1825 4384 
Q 1516 4384 1395 4259 
Q 1275 4134 1275 3809 
L 1275 3500 
L 2222 3500 
L 2222 3053 
L 1275 3053 
L 1275 0 
L 697 0 
L 697 3053 
L 147 3053 
L 147 3500 
L 697 3500 
L 697 3744 
Q 697 4328 969 4595 
Q 1241 4863 1831 4863 
L 2375 4863 
z
" transform="scale(0.015625)"/>
       <path id="DejaVuSans-75" d="M 544 1381 
L 544 3500 
L 1119 3500 
L 1119 1403 
Q 1119 906 1312 657 
Q 1506 409 1894 409 
Q 2359 409 2629 706 
Q 2900 1003 2900 1516 
L 2900 3500 
L 3475 3500 
L 3475 0 
L 2900 0 
L 2900 538 
Q 2691 219 2414 64 
Q 2138 -91 1772 -91 
Q 1169 -91 856 284 
Q 544 659 544 1381 
z
M 1991 3584 
L 1991 3584 
z
" transform="scale(0.015625)"/>
       <path id="DejaVuSans-6c" d="M 603 4863 
L 1178 4863 
L 1178 0 
L 603 0 
L 603 4863 
z
" transform="scale(0.015625)"/>
       <path id="DejaVuSans-69" d="M 603 3500 
L 1178 3500 
L 1178 0 
L 603 0 
L 603 3500 
z
M 603 4863 
L 1178 4863 
L 1178 4134 
L 603 4134 
L 603 4863 
z
" transform="scale(0.015625)"/>
       <path id="DejaVuSans-65" d="M 3597 1894 
L 3597 1613 
L 953 1613 
Q 991 1019 1311 708 
Q 1631 397 2203 397 
Q 2534 397 2845 478 
Q 3156 559 3463 722 
L 3463 178 
Q 3153 47 2828 -22 
Q 2503 -91 2169 -91 
Q 1331 -91 842 396 
Q 353 884 353 1716 
Q 353 2575 817 3079 
Q 1281 3584 2069 3584 
Q 2775 3584 3186 3129 
Q 3597 2675 3597 1894 
z
M 3022 2063 
Q 3016 2534 2758 2815 
Q 2500 3097 2075 3097 
Q 1594 3097 1305 2825 
Q 1016 2553 972 2059 
L 3022 2063 
z
" transform="scale(0.015625)"/>
       <path id="DejaVuSans-64" d="M 2906 2969 
L 2906 4863 
L 3481 4863 
L 3481 0 
L 2906 0 
L 2906 525 
Q 2725 213 2448 61 
Q 2172 -91 1784 -91 
Q 1150 -91 751 415 
Q 353 922 353 1747 
Q 353 2572 751 3078 
Q 1150 3584 1784 3584 
Q 2172 3584 2448 3432 
Q 2725 3281 2906 2969 
z
M 947 1747 
Q 947 1113 1208 752 
Q 1469 391 1925 391 
Q 2381 391 2643 752 
Q 2906 1113 2906 1747 
Q 2906 2381 2643 2742 
Q 2381 3103 1925 3103 
Q 1469 3103 1208 2742 
Q 947 2381 947 1747 
z
" transform="scale(0.015625)"/>
       <path id="DejaVuSans-2f" d="M 1625 4666 
L 2156 4666 
L 531 -594 
L 0 -594 
L 1625 4666 
z
" transform="scale(0.015625)"/>
      </defs>
      <use xlink:href="#DejaVuSans-25"/>
      <use xlink:href="#DejaVuSans-20" x="95.019531"/>
      <use xlink:href="#DejaVuSans-4e" x="126.806641"/>
      <use xlink:href="#DejaVuSans-4f" x="201.611328"/>
      <use xlink:href="#DejaVuSans-45" x="280.322266"/>
      <use xlink:href="#DejaVuSans-20" x="343.505859"/>
      <use xlink:href="#DejaVuSans-66" x="375.292969"/>
      <use xlink:href="#DejaVuSans-75" x="410.498047"/>
      <use xlink:href="#DejaVuSans-6c" x="473.876953"/>
      <use xlink:href="#DejaVuSans-66" x="501.660156"/>
      <use xlink:href="#DejaVuSans-69" x="536.865234"/>
      <use xlink:href="#DejaVuSans-6c" x="564.648438"/>
      <use xlink:href="#DejaVuSans-6c" x="592.431641"/>
      <use xlink:href="#DejaVuSans-65" x="620.214844"/>
      <use xlink:href="#DejaVuSans-64" x="681.738281"/>
      <use xlink:href="#DejaVuSans-20" x="745.214844"/>
      <use xlink:href="#DejaVuSans-5b" x="777.001953"/>
      <use xlink:href="#DejaVuSans-31" x="816.015625"/>
      <use xlink:href="#DejaVuSans-2f" x="879.638672"/>
      <use xlink:href="#DejaVuSans-31" x="913.330078"/>
      <use xlink:href="#DejaVuSans-30" x="976.953125"/>
      <use xlink:href="#DejaVuSans-30" x="1040.576172"/>
      <use xlink:href="#DejaVuSans-20" x="1104.199219"/>
      <use xlink:href="#DejaVuSans-25" x="1135.986328"/>
      <use xlink:href="#DejaVuSans-5d" x="1231.005859"/>
     </g>
    </g>
   </g>
   <g id="LineCollection_13">
    <path d="M 408.224682 162.510826 
L 435.270818 162.510826 
" clip-path="url(#pd5e293ca5e)" style="fill: none; stroke: #1f77b4; stroke-width: 1.5"/>
   </g>
   <g id="LineCollection_14">
    <path d="M 408.224682 57.342727 
L 435.270818 57.342727 
" clip-path="url(#pd5e293ca5e)" style="fill: none; stroke: #1f77b4; stroke-width: 1.5"/>
   </g>
   <g id="LineCollection_15">
    <path d="M 408.224682 263.397273 
L 435.270818 263.397273 
" clip-path="url(#pd5e293ca5e)" style="fill: none; stroke: #1f77b4; stroke-width: 1.5"/>
   </g>
   <g id="LineCollection_16">
    <path d="M 421.74775 263.397273 
L 421.74775 57.342727 
" clip-path="url(#pd5e293ca5e)" style="fill: none; stroke: #1f77b4; stroke-width: 1.5"/>
   </g>
   <g id="patch_18">
    <path d="M 391.997 273.7 
L 391.997 47.04 
" style="fill: none; stroke: #000000; stroke-width: 0.8; stroke-linejoin: miter; stroke-linecap: square"/>
   </g>
   <g id="patch_19">
    <path d="M 451.4985 273.7 
L 451.4985 47.04 
" style="fill: none; stroke: #000000; stroke-width: 0.8; stroke-linejoin: miter; stroke-linecap: square"/>
   </g>
   <g id="patch_20">
    <path d="M 391.997 273.7 
L 451.4985 273.7 
" style="fill: none; stroke: #000000; stroke-width: 0.8; stroke-linejoin: miter; stroke-linecap: square"/>
   </g>
   <g id="patch_21">
    <path d="M 391.997 47.04 
L 451.4985 47.04 
" style="fill: none; stroke: #000000; stroke-width: 0.8; stroke-linejoin: miter; stroke-linecap: square"/>
   </g>
   <g id="text_32">
    <!-- % NOE fulfilled -->
    <g transform="translate(377.034625 41.04)scale(0.12 -0.12)">
     <use xlink:href="#DejaVuSans-25"/>
     <use xlink:href="#DejaVuSans-20" x="95.019531"/>
     <use xlink:href="#DejaVuSans-4e" x="126.806641"/>
     <use xlink:href="#DejaVuSans-4f" x="201.611328"/>
     <use xlink:href="#DejaVuSans-45" x="280.322266"/>
     <use xlink:href="#DejaVuSans-20" x="343.505859"/>
     <use xlink:href="#DejaVuSans-66" x="375.292969"/>
     <use xlink:href="#DejaVuSans-75" x="410.498047"/>
     <use xlink:href="#DejaVuSans-6c" x="473.876953"/>
     <use xlink:href="#DejaVuSans-66" x="501.660156"/>
     <use xlink:href="#DejaVuSans-69" x="536.865234"/>
     <use xlink:href="#DejaVuSans-6c" x="564.648438"/>
     <use xlink:href="#DejaVuSans-6c" x="592.431641"/>
     <use xlink:href="#DejaVuSans-65" x="620.214844"/>
     <use xlink:href="#DejaVuSans-64" x="681.738281"/>
    </g>
   </g>
  </g>
  <g id="axes_5">
   <g id="patch_22">
    <path d="M 505.6985 273.7 
L 565.2 273.7 
L 565.2 47.04 
L 505.6985 47.04 
z
" style="fill: #ffffff"/>
   </g>
   <g id="PolyCollection_5">
    <path d="M 535.946069 263.397273 
L 534.952431 263.397273 
L 534.929448 261.315914 
L 534.922914 259.234555 
L 534.933478 257.153196 
L 534.960119 255.071837 
L 535.000274 252.990478 
L 535.050183 250.909118 
L 535.10534 248.827759 
L 535.160934 246.7464 
L 535.21214 244.665041 
L 535.254127 242.583682 
L 535.281719 240.502323 
L 535.288691 238.420964 
L 535.266728 236.339605 
L 535.204209 234.258246 
L 535.085033 232.176887 
L 534.887821 230.095528 
L 534.585923 228.014169 
L 534.148662 225.93281 
L 533.544175 223.851451 
L 532.743963 221.770092 
L 531.728875 219.688733 
L 530.495725 217.607374 
L 529.063311 215.526015 
L 527.476291 213.444656 
L 525.805469 211.363297 
L 524.14359 209.281938 
L 522.596639 207.200579 
L 521.271754 205.119219 
L 520.263795 203.03786 
L 519.643106 200.956501 
L 519.446816 198.875142 
L 519.675226 196.793783 
L 520.293573 194.712424 
L 521.23825 192.631065 
L 522.425659 190.549706 
L 523.761584 188.468347 
L 525.149279 186.386988 
L 526.49521 184.305629 
L 527.712279 182.22427 
L 528.721106 180.142911 
L 529.450358 178.061552 
L 529.837222 175.980193 
L 529.828887 173.898834 
L 529.3855 171.817475 
L 528.484566 169.736116 
L 527.126314 167.654757 
L 525.339082 165.573398 
L 523.183557 163.492039 
L 520.754539 161.41068 
L 518.179095 159.32932 
L 515.610298 157.247961 
L 513.216408 155.166602 
L 511.166069 153.085243 
L 509.61094 151.003884 
L 508.667859 148.922525 
L 508.403114 146.841166 
L 508.821471 144.759807 
L 509.862199 142.678448 
L 511.403452 140.597089 
L 513.275094 138.51573 
L 515.278633 136.434371 
L 517.211588 134.353012 
L 518.892751 132.271653 
L 520.184533 130.190294 
L 521.009004 128.108935 
L 521.355284 126.027576 
L 521.27736 123.946217 
L 520.882943 121.864858 
L 520.315334 119.783499 
L 519.73132 117.70214 
L 519.278535 115.620781 
L 519.075694 113.539421 
L 519.198482 111.458062 
L 519.672817 109.376703 
L 520.476011 107.295344 
L 521.545006 105.213985 
L 522.789836 103.132626 
L 524.109722 101.051267 
L 525.408989 98.969908 
L 526.610244 96.888549 
L 527.66292 94.80719 
L 528.546278 92.725831 
L 529.267007 90.644472 
L 529.852513 88.563113 
L 530.341712 86.481754 
L 530.775377 84.400395 
L 531.18796 82.319036 
L 531.602238 80.237677 
L 532.027381 78.156318 
L 532.460208 76.074959 
L 532.888775 73.9936 
L 533.29706 71.912241 
L 533.669528 69.830882 
L 533.994599 67.749522 
L 534.266528 65.668163 
L 534.485633 63.586804 
L 534.657227 61.505445 
L 534.789777 59.424086 
L 534.892888 57.342727 
L 536.005612 57.342727 
L 536.005612 57.342727 
L 536.108723 59.424086 
L 536.241273 61.505445 
L 536.412867 63.586804 
L 536.631972 65.668163 
L 536.903901 67.749522 
L 537.228972 69.830882 
L 537.60144 71.912241 
L 538.009725 73.9936 
L 538.438292 76.074959 
L 538.871119 78.156318 
L 539.296262 80.237677 
L 539.71054 82.319036 
L 540.123123 84.400395 
L 540.556788 86.481754 
L 541.045987 88.563113 
L 541.631493 90.644472 
L 542.352222 92.725831 
L 543.23558 94.80719 
L 544.288256 96.888549 
L 545.489511 98.969908 
L 546.788778 101.051267 
L 548.108664 103.132626 
L 549.353494 105.213985 
L 550.422489 107.295344 
L 551.225683 109.376703 
L 551.700018 111.458062 
L 551.822806 113.539421 
L 551.619965 115.620781 
L 551.16718 117.70214 
L 550.583166 119.783499 
L 550.015557 121.864858 
L 549.62114 123.946217 
L 549.543216 126.027576 
L 549.889496 128.108935 
L 550.713967 130.190294 
L 552.005749 132.271653 
L 553.686912 134.353012 
L 555.619867 136.434371 
L 557.623406 138.51573 
L 559.495048 140.597089 
L 561.036301 142.678448 
L 562.077029 144.759807 
L 562.495386 146.841166 
L 562.230641 148.922525 
L 561.28756 151.003884 
L 559.732431 153.085243 
L 557.682092 155.166602 
L 555.288202 157.247961 
L 552.719405 159.32932 
L 550.143961 161.41068 
L 547.714943 163.492039 
L 545.559418 165.573398 
L 543.772186 167.654757 
L 542.413934 169.736116 
L 541.513 171.817475 
L 541.069613 173.898834 
L 541.061278 175.980193 
L 541.448142 178.061552 
L 542.177394 180.142911 
L 543.186221 182.22427 
L 544.40329 184.305629 
L 545.749221 186.386988 
L 547.136916 188.468347 
L 548.472841 190.549706 
L 549.66025 192.631065 
L 550.604927 194.712424 
L 551.223274 196.793783 
L 551.451684 198.875142 
L 551.255394 200.956501 
L 550.634705 203.03786 
L 549.626746 205.119219 
L 548.301861 207.200579 
L 546.75491 209.281938 
L 545.093031 211.363297 
L 543.422209 213.444656 
L 541.835189 215.526015 
L 540.402775 217.607374 
L 539.169625 219.688733 
L 538.154537 221.770092 
L 537.354325 223.851451 
L 536.749838 225.93281 
L 536.312577 228.014169 
L 536.010679 230.095528 
L 535.813467 232.176887 
L 535.694291 234.258246 
L 535.631772 236.339605 
L 535.609809 238.420964 
L 535.616781 240.502323 
L 535.644373 242.583682 
L 535.68636 244.665041 
L 535.737566 246.7464 
L 535.79316 248.827759 
L 535.848317 250.909118 
L 535.898226 252.990478 
L 535.938381 255.071837 
L 535.965022 257.153196 
L 535.975586 259.234555 
L 535.969052 261.315914 
L 535.946069 263.397273 
z
" clip-path="url(#p5ab46b2a01)" style="fill: #1f77b4; fill-opacity: 0.3"/>
   </g>
   <g id="matplotlib.axis_5">
    <g id="ytick_25">
     <g id="line2d_25">
      <g>
       <use xlink:href="#m568976d4b8" x="505.6985" y="248.831068" style="stroke: #000000; stroke-width: 0.8"/>
      </g>
     </g>
     <g id="text_33">
      <!-- 0.2 -->
      <g transform="translate(482.795375 252.630287)scale(0.1 -0.1)">
       <use xlink:href="#DejaVuSans-30"/>
       <use xlink:href="#DejaVuSans-2e" x="63.623047"/>
       <use xlink:href="#DejaVuSans-32" x="95.410156"/>
      </g>
     </g>
    </g>
    <g id="ytick_26">
     <g id="line2d_26">
      <g>
       <use xlink:href="#m568976d4b8" x="505.6985" y="211.931519" style="stroke: #000000; stroke-width: 0.8"/>
      </g>
     </g>
     <g id="text_34">
      <!-- 0.3 -->
      <g transform="translate(482.795375 215.730738)scale(0.1 -0.1)">
       <use xlink:href="#DejaVuSans-30"/>
       <use xlink:href="#DejaVuSans-2e" x="63.623047"/>
       <use xlink:href="#DejaVuSans-33" x="95.410156"/>
      </g>
     </g>
    </g>
    <g id="ytick_27">
     <g id="line2d_27">
      <g>
       <use xlink:href="#m568976d4b8" x="505.6985" y="175.03197" style="stroke: #000000; stroke-width: 0.8"/>
      </g>
     </g>
     <g id="text_35">
      <!-- 0.4 -->
      <g transform="translate(482.795375 178.831188)scale(0.1 -0.1)">
       <use xlink:href="#DejaVuSans-30"/>
       <use xlink:href="#DejaVuSans-2e" x="63.623047"/>
       <use xlink:href="#DejaVuSans-34" x="95.410156"/>
      </g>
     </g>
    </g>
    <g id="ytick_28">
     <g id="line2d_28">
      <g>
       <use xlink:href="#m568976d4b8" x="505.6985" y="138.132421" style="stroke: #000000; stroke-width: 0.8"/>
      </g>
     </g>
     <g id="text_36">
      <!-- 0.5 -->
      <g transform="translate(482.795375 141.931639)scale(0.1 -0.1)">
       <use xlink:href="#DejaVuSans-30"/>
       <use xlink:href="#DejaVuSans-2e" x="63.623047"/>
       <use xlink:href="#DejaVuSans-35" x="95.410156"/>
      </g>
     </g>
    </g>
    <g id="ytick_29">
     <g id="line2d_29">
      <g>
       <use xlink:href="#m568976d4b8" x="505.6985" y="101.232872" style="stroke: #000000; stroke-width: 0.8"/>
      </g>
     </g>
     <g id="text_37">
      <!-- 0.6 -->
      <g transform="translate(482.795375 105.03209)scale(0.1 -0.1)">
       <use xlink:href="#DejaVuSans-30"/>
       <use xlink:href="#DejaVuSans-2e" x="63.623047"/>
       <use xlink:href="#DejaVuSans-36" x="95.410156"/>
      </g>
     </g>
    </g>
    <g id="ytick_30">
     <g id="line2d_30">
      <g>
       <use xlink:href="#m568976d4b8" x="505.6985" y="64.333323" style="stroke: #000000; stroke-width: 0.8"/>
      </g>
     </g>
     <g id="text_38">
      <!-- 0.7 -->
      <g transform="translate(482.795375 68.132541)scale(0.1 -0.1)">
       <use xlink:href="#DejaVuSans-30"/>
       <use xlink:href="#DejaVuSans-2e" x="63.623047"/>
       <use xlink:href="#DejaVuSans-37" x="95.410156"/>
      </g>
     </g>
    </g>
    <g id="text_39">
     <!-- RMSD stepwise [$\AA$] -->
     <g transform="translate(476.695375 207.67)rotate(-90)scale(0.1 -0.1)">
      <defs>
       <path id="DejaVuSans-73" d="M 2834 3397 
L 2834 2853 
Q 2591 2978 2328 3040 
Q 2066 3103 1784 3103 
Q 1356 3103 1142 2972 
Q 928 2841 928 2578 
Q 928 2378 1081 2264 
Q 1234 2150 1697 2047 
L 1894 2003 
Q 2506 1872 2764 1633 
Q 3022 1394 3022 966 
Q 3022 478 2636 193 
Q 2250 -91 1575 -91 
Q 1294 -91 989 -36 
Q 684 19 347 128 
L 347 722 
Q 666 556 975 473 
Q 1284 391 1588 391 
Q 1994 391 2212 530 
Q 2431 669 2431 922 
Q 2431 1156 2273 1281 
Q 2116 1406 1581 1522 
L 1381 1569 
Q 847 1681 609 1914 
Q 372 2147 372 2553 
Q 372 3047 722 3315 
Q 1072 3584 1716 3584 
Q 2034 3584 2315 3537 
Q 2597 3491 2834 3397 
z
" transform="scale(0.015625)"/>
       <path id="DejaVuSans-74" d="M 1172 4494 
L 1172 3500 
L 2356 3500 
L 2356 3053 
L 1172 3053 
L 1172 1153 
Q 1172 725 1289 603 
Q 1406 481 1766 481 
L 2356 481 
L 2356 0 
L 1766 0 
Q 1100 0 847 248 
Q 594 497 594 1153 
L 594 3053 
L 172 3053 
L 172 3500 
L 594 3500 
L 594 4494 
L 1172 4494 
z
" transform="scale(0.015625)"/>
       <path id="DejaVuSans-70" d="M 1159 525 
L 1159 -1331 
L 581 -1331 
L 581 3500 
L 1159 3500 
L 1159 2969 
Q 1341 3281 1617 3432 
Q 1894 3584 2278 3584 
Q 2916 3584 3314 3078 
Q 3713 2572 3713 1747 
Q 3713 922 3314 415 
Q 2916 -91 2278 -91 
Q 1894 -91 1617 61 
Q 1341 213 1159 525 
z
M 3116 1747 
Q 3116 2381 2855 2742 
Q 2594 3103 2138 3103 
Q 1681 3103 1420 2742 
Q 1159 2381 1159 1747 
Q 1159 1113 1420 752 
Q 1681 391 2138 391 
Q 2594 391 2855 752 
Q 3116 1113 3116 1747 
z
" transform="scale(0.015625)"/>
       <path id="DejaVuSans-77" d="M 269 3500 
L 844 3500 
L 1563 769 
L 2278 3500 
L 2956 3500 
L 3675 769 
L 4391 3500 
L 4966 3500 
L 4050 0 
L 3372 0 
L 2619 2869 
L 1863 0 
L 1184 0 
L 269 3500 
z
" transform="scale(0.015625)"/>
      </defs>
      <use xlink:href="#DejaVuSans-52" transform="translate(0 0.171875)"/>
      <use xlink:href="#DejaVuSans-4d" transform="translate(69.482422 0.171875)"/>
      <use xlink:href="#DejaVuSans-53" transform="translate(155.761719 0.171875)"/>
      <use xlink:href="#DejaVuSans-44" transform="translate(219.238281 0.171875)"/>
      <use xlink:href="#DejaVuSans-20" transform="translate(296.240234 0.171875)"/>
      <use xlink:href="#DejaVuSans-73" transform="translate(328.027344 0.171875)"/>
      <use xlink:href="#DejaVuSans-74" transform="translate(380.126953 0.171875)"/>
      <use xlink:href="#DejaVuSans-65" transform="translate(419.335938 0.171875)"/>
      <use xlink:href="#DejaVuSans-70" transform="translate(480.859375 0.171875)"/>
      <use xlink:href="#DejaVuSans-77" transform="translate(544.335938 0.171875)"/>
      <use xlink:href="#DejaVuSans-69" transform="translate(626.123047 0.171875)"/>
      <use xlink:href="#DejaVuSans-73" transform="translate(653.90625 0.171875)"/>
      <use xlink:href="#DejaVuSans-65" transform="translate(706.005859 0.171875)"/>
      <use xlink:href="#DejaVuSans-20" transform="translate(767.529297 0.171875)"/>
      <use xlink:href="#DejaVuSans-5b" transform="translate(799.316406 0.171875)"/>
      <use xlink:href="#DejaVuSans-Oblique-c5" transform="translate(838.330078 0.171875)"/>
      <use xlink:href="#DejaVuSans-5d" transform="translate(906.738281 0.171875)"/>
     </g>
    </g>
   </g>
   <g id="LineCollection_17">
    <path d="M 521.926182 149.348427 
L 548.972318 149.348427 
" clip-path="url(#p5ab46b2a01)" style="fill: none; stroke: #1f77b4; stroke-width: 1.5"/>
   </g>
   <g id="LineCollection_18">
    <path d="M 521.926182 57.342727 
L 548.972318 57.342727 
" clip-path="url(#p5ab46b2a01)" style="fill: none; stroke: #1f77b4; stroke-width: 1.5"/>
   </g>
   <g id="LineCollection_19">
    <path d="M 521.926182 263.397273 
L 548.972318 263.397273 
" clip-path="url(#p5ab46b2a01)" style="fill: none; stroke: #1f77b4; stroke-width: 1.5"/>
   </g>
   <g id="LineCollection_20">
    <path d="M 535.44925 263.397273 
L 535.44925 57.342727 
" clip-path="url(#p5ab46b2a01)" style="fill: none; stroke: #1f77b4; stroke-width: 1.5"/>
   </g>
   <g id="patch_23">
    <path d="M 505.6985 273.7 
L 505.6985 47.04 
" style="fill: none; stroke: #000000; stroke-width: 0.8; stroke-linejoin: miter; stroke-linecap: square"/>
   </g>
   <g id="patch_24">
    <path d="M 565.2 273.7 
L 565.2 47.04 
" style="fill: none; stroke: #000000; stroke-width: 0.8; stroke-linejoin: miter; stroke-linecap: square"/>
   </g>
   <g id="patch_25">
    <path d="M 505.6985 273.7 
L 565.2 273.7 
" style="fill: none; stroke: #000000; stroke-width: 0.8; stroke-linejoin: miter; stroke-linecap: square"/>
   </g>
   <g id="patch_26">
    <path d="M 505.6985 47.04 
L 565.2 47.04 
" style="fill: none; stroke: #000000; stroke-width: 0.8; stroke-linejoin: miter; stroke-linecap: square"/>
   </g>
   <g id="text_40">
    <!-- RMSD stepwise -->
    <g transform="translate(489.397375 41.04)scale(0.12 -0.12)">
     <use xlink:href="#DejaVuSans-52"/>
     <use xlink:href="#DejaVuSans-4d" x="69.482422"/>
     <use xlink:href="#DejaVuSans-53" x="155.761719"/>
     <use xlink:href="#DejaVuSans-44" x="219.238281"/>
     <use xlink:href="#DejaVuSans-20" x="296.240234"/>
     <use xlink:href="#DejaVuSans-73" x="328.027344"/>
     <use xlink:href="#DejaVuSans-74" x="380.126953"/>
     <use xlink:href="#DejaVuSans-65" x="419.335938"/>
     <use xlink:href="#DejaVuSans-70" x="480.859375"/>
     <use xlink:href="#DejaVuSans-77" x="544.335938"/>
     <use xlink:href="#DejaVuSans-69" x="626.123047"/>
     <use xlink:href="#DejaVuSans-73" x="653.90625"/>
     <use xlink:href="#DejaVuSans-65" x="706.005859"/>
    </g>
   </g>
  </g>
  <g id="text_41">
   <!-- Compound 22. Rdkit -->
   <g transform="translate(226.573125 14.878125)scale(0.12 -0.12)">
    <defs>
     <path id="DejaVuSans-43" d="M 4122 4306 
L 4122 3641 
Q 3803 3938 3442 4084 
Q 3081 4231 2675 4231 
Q 1875 4231 1450 3742 
Q 1025 3253 1025 2328 
Q 1025 1406 1450 917 
Q 1875 428 2675 428 
Q 3081 428 3442 575 
Q 3803 722 4122 1019 
L 4122 359 
Q 3791 134 3420 21 
Q 3050 -91 2638 -91 
Q 1578 -91 968 557 
Q 359 1206 359 2328 
Q 359 3453 968 4101 
Q 1578 4750 2638 4750 
Q 3056 4750 3426 4639 
Q 3797 4528 4122 4306 
z
" transform="scale(0.015625)"/>
     <path id="DejaVuSans-6f" d="M 1959 3097 
Q 1497 3097 1228 2736 
Q 959 2375 959 1747 
Q 959 1119 1226 758 
Q 1494 397 1959 397 
Q 2419 397 2687 759 
Q 2956 1122 2956 1747 
Q 2956 2369 2687 2733 
Q 2419 3097 1959 3097 
z
M 1959 3584 
Q 2709 3584 3137 3096 
Q 3566 2609 3566 1747 
Q 3566 888 3137 398 
Q 2709 -91 1959 -91 
Q 1206 -91 779 398 
Q 353 888 353 1747 
Q 353 2609 779 3096 
Q 1206 3584 1959 3584 
z
" transform="scale(0.015625)"/>
     <path id="DejaVuSans-6d" d="M 3328 2828 
Q 3544 3216 3844 3400 
Q 4144 3584 4550 3584 
Q 5097 3584 5394 3201 
Q 5691 2819 5691 2113 
L 5691 0 
L 5113 0 
L 5113 2094 
Q 5113 2597 4934 2840 
Q 4756 3084 4391 3084 
Q 3944 3084 3684 2787 
Q 3425 2491 3425 1978 
L 3425 0 
L 2847 0 
L 2847 2094 
Q 2847 2600 2669 2842 
Q 2491 3084 2119 3084 
Q 1678 3084 1418 2786 
Q 1159 2488 1159 1978 
L 1159 0 
L 581 0 
L 581 3500 
L 1159 3500 
L 1159 2956 
Q 1356 3278 1631 3431 
Q 1906 3584 2284 3584 
Q 2666 3584 2933 3390 
Q 3200 3197 3328 2828 
z
" transform="scale(0.015625)"/>
     <path id="DejaVuSans-6e" d="M 3513 2113 
L 3513 0 
L 2938 0 
L 2938 2094 
Q 2938 2591 2744 2837 
Q 2550 3084 2163 3084 
Q 1697 3084 1428 2787 
Q 1159 2491 1159 1978 
L 1159 0 
L 581 0 
L 581 3500 
L 1159 3500 
L 1159 2956 
Q 1366 3272 1645 3428 
Q 1925 3584 2291 3584 
Q 2894 3584 3203 3211 
Q 3513 2838 3513 2113 
z
" transform="scale(0.015625)"/>
     <path id="DejaVuSans-6b" d="M 581 4863 
L 1159 4863 
L 1159 1991 
L 2875 3500 
L 3609 3500 
L 1753 1863 
L 3688 0 
L 2938 0 
L 1159 1709 
L 1159 0 
L 581 0 
L 581 4863 
z
" transform="scale(0.015625)"/>
    </defs>
    <use xlink:href="#DejaVuSans-43"/>
    <use xlink:href="#DejaVuSans-6f" x="69.824219"/>
    <use xlink:href="#DejaVuSans-6d" x="131.005859"/>
    <use xlink:href="#DejaVuSans-70" x="228.417969"/>
    <use xlink:href="#DejaVuSans-6f" x="291.894531"/>
    <use xlink:href="#DejaVuSans-75" x="353.076172"/>
    <use xlink:href="#DejaVuSans-6e" x="416.455078"/>
    <use xlink:href="#DejaVuSans-64" x="479.833984"/>
    <use xlink:href="#DejaVuSans-20" x="543.310547"/>
    <use xlink:href="#DejaVuSans-32" x="575.097656"/>
    <use xlink:href="#DejaVuSans-32" x="638.720703"/>
    <use xlink:href="#DejaVuSans-2e" x="702.34375"/>
    <use xlink:href="#DejaVuSans-20" x="734.130859"/>
    <use xlink:href="#DejaVuSans-52" x="765.917969"/>
    <use xlink:href="#DejaVuSans-64" x="835.400391"/>
    <use xlink:href="#DejaVuSans-6b" x="898.876953"/>
    <use xlink:href="#DejaVuSans-69" x="956.787109"/>
    <use xlink:href="#DejaVuSans-74" x="984.570312"/>
   </g>
  </g>
 </g>
 <defs>
  <clipPath id="pe7d12e095c">
   <rect x="50.8925" y="47.04" width="59.5015" height="226.66"/>
  </clipPath>
  <clipPath id="p751a381d4d">
   <rect x="164.594" y="47.04" width="59.5015" height="226.66"/>
  </clipPath>
  <clipPath id="pc473789cdd">
   <rect x="278.2955" y="47.04" width="59.5015" height="226.66"/>
  </clipPath>
  <clipPath id="pd5e293ca5e">
   <rect x="391.997" y="47.04" width="59.5015" height="226.66"/>
  </clipPath>
  <clipPath id="p5ab46b2a01">
   <rect x="505.6985" y="47.04" width="59.5015" height="226.66"/>
  </clipPath>
 </defs>
</svg>
