<?xml version="1.0" encoding="utf-8" standalone="no"?>
<!DOCTYPE svg PUBLIC "-//W3C//DTD SVG 1.1//EN"
  "http://www.w3.org/Graphics/SVG/1.1/DTD/svg11.dtd">
<svg xmlns:xlink="http://www.w3.org/1999/xlink" width="576pt" height="288pt" viewBox="0 0 576 288" xmlns="http://www.w3.org/2000/svg" version="1.1">
 <metadata>
  <rdf:RDF xmlns:dc="http://purl.org/dc/elements/1.1/" xmlns:cc="http://creativecommons.org/ns#" xmlns:rdf="http://www.w3.org/1999/02/22-rdf-syntax-ns#">
   <cc:Work>
    <dc:type rdf:resource="http://purl.org/dc/dcmitype/StillImage"/>
    <dc:date>2023-05-31T12:16:54.314880</dc:date>
    <dc:format>image/svg+xml</dc:format>
    <dc:creator>
     <cc:Agent>
      <dc:title>Matplotlib v3.5.3, https://matplotlib.org/</dc:title>
     </cc:Agent>
    </dc:creator>
   </cc:Work>
  </rdf:RDF>
 </metadata>
 <defs>
  <style type="text/css">*{stroke-linejoin: round; stroke-linecap: butt}</style>
 </defs>
 <g id="figure_1">
  <g id="patch_1">
   <path d="M 0 288 
L 576 288 
L 576 0 
L 0 0 
z
" style="fill: #ffffff"/>
  </g>
  <g id="axes_1">
   <g id="patch_2">
    <path d="M 50.8925 273.7 
L 110.394 273.7 
L 110.394 47.04 
L 50.8925 47.04 
z
" style="fill: #ffffff"/>
   </g>
   <g id="PolyCollection_1">
    <path d="M 81.699007 263.397273 
L 79.587493 263.397273 
L 79.450945 261.315914 
L 79.303285 259.234555 
L 79.141814 257.153196 
L 78.962932 255.071837 
L 78.762169 252.990478 
L 78.534283 250.909118 
L 78.273415 248.827759 
L 77.973311 246.7464 
L 77.627609 244.665041 
L 77.230185 242.583682 
L 76.775545 240.502323 
L 76.25926 238.420964 
L 75.678402 236.339605 
L 75.031963 234.258246 
L 74.321211 232.176887 
L 73.549942 230.095528 
L 72.724603 228.014169 
L 71.854233 225.93281 
L 70.950221 223.851451 
L 70.025868 221.770092 
L 69.095763 219.688733 
L 68.174996 217.607374 
L 67.278275 215.526015 
L 66.418982 213.444656 
L 65.608268 211.363297 
L 64.854258 209.281938 
L 64.161445 207.200579 
L 63.530361 205.119219 
L 62.957566 203.03786 
L 62.436003 200.956501 
L 61.955695 198.875142 
L 61.50475 196.793783 
L 61.070599 194.712424 
L 60.64132 192.631065 
L 60.206922 190.549706 
L 59.760426 188.468347 
L 59.298602 186.386988 
L 58.822255 184.305629 
L 58.336003 182.22427 
L 57.847584 180.142911 
L 57.366753 178.061552 
L 56.903944 175.980193 
L 56.468868 173.898834 
L 56.06927 171.817475 
L 55.710005 169.736116 
L 55.392588 167.654757 
L 55.115273 165.573398 
L 54.873631 163.492039 
L 54.661545 161.41068 
L 54.472444 159.32932 
L 54.30058 157.247961 
L 54.142139 155.166602 
L 53.996003 153.085243 
L 53.864057 151.003884 
L 53.750974 148.922525 
L 53.663547 146.841166 
L 53.609664 144.759807 
L 53.597114 142.678448 
L 53.632397 140.597089 
L 53.719738 138.51573 
L 53.860408 136.434371 
L 54.052434 134.353012 
L 54.29069 132.271653 
L 54.567281 130.190294 
L 54.872143 128.108935 
L 55.193738 126.027576 
L 55.519785 123.946217 
L 55.837968 121.864858 
L 56.136661 119.783499 
L 56.405687 117.70214 
L 56.637158 115.620781 
L 56.826392 113.539421 
L 56.972859 111.458062 
L 57.081029 109.376703 
L 57.160949 107.295344 
L 57.228354 105.213985 
L 57.304139 103.132626 
L 57.413119 101.051267 
L 57.58209 98.969908 
L 57.837367 96.888549 
L 58.20207 94.80719 
L 58.69355 92.725831 
L 59.321316 90.644472 
L 60.085813 88.563113 
L 60.978257 86.481754 
L 61.981567 84.400395 
L 63.072277 82.319036 
L 64.223106 80.237677 
L 65.405812 78.156318 
L 66.593893 76.074959 
L 67.764742 73.9936 
L 68.901001 71.912241 
L 69.991005 69.830882 
L 71.028355 67.749522 
L 72.01084 65.668163 
L 72.938973 63.586804 
L 73.814472 61.505445 
L 74.638959 59.424086 
L 75.413073 57.342727 
L 85.873427 57.342727 
L 85.873427 57.342727 
L 86.647541 59.424086 
L 87.472028 61.505445 
L 88.347527 63.586804 
L 89.27566 65.668163 
L 90.258145 67.749522 
L 91.295495 69.830882 
L 92.385499 71.912241 
L 93.521758 73.9936 
L 94.692607 76.074959 
L 95.880688 78.156318 
L 97.063394 80.237677 
L 98.214223 82.319036 
L 99.304933 84.400395 
L 100.308243 86.481754 
L 101.200687 88.563113 
L 101.965184 90.644472 
L 102.59295 92.725831 
L 103.08443 94.80719 
L 103.449133 96.888549 
L 103.70441 98.969908 
L 103.873381 101.051267 
L 103.982361 103.132626 
L 104.058146 105.213985 
L 104.125551 107.295344 
L 104.205471 109.376703 
L 104.313641 111.458062 
L 104.460108 113.539421 
L 104.649342 115.620781 
L 104.880813 117.70214 
L 105.149839 119.783499 
L 105.448532 121.864858 
L 105.766715 123.946217 
L 106.092762 126.027576 
L 106.414357 128.108935 
L 106.719219 130.190294 
L 106.99581 132.271653 
L 107.234066 134.353012 
L 107.426092 136.434371 
L 107.566762 138.51573 
L 107.654103 140.597089 
L 107.689386 142.678448 
L 107.676836 144.759807 
L 107.622953 146.841166 
L 107.535526 148.922525 
L 107.422443 151.003884 
L 107.290497 153.085243 
L 107.144361 155.166602 
L 106.98592 157.247961 
L 106.814056 159.32932 
L 106.624955 161.41068 
L 106.412869 163.492039 
L 106.171227 165.573398 
L 105.893912 167.654757 
L 105.576495 169.736116 
L 105.21723 171.817475 
L 104.817632 173.898834 
L 104.382556 175.980193 
L 103.919747 178.061552 
L 103.438916 180.142911 
L 102.950497 182.22427 
L 102.464245 184.305629 
L 101.987898 186.386988 
L 101.526074 188.468347 
L 101.079578 190.549706 
L 100.64518 192.631065 
L 100.215901 194.712424 
L 99.78175 196.793783 
L 99.330805 198.875142 
L 98.850497 200.956501 
L 98.328934 203.03786 
L 97.756139 205.119219 
L 97.125055 207.200579 
L 96.432242 209.281938 
L 95.678232 211.363297 
L 94.867518 213.444656 
L 94.008225 215.526015 
L 93.111504 217.607374 
L 92.190737 219.688733 
L 91.260632 221.770092 
L 90.336279 223.851451 
L 89.432267 225.93281 
L 88.561897 228.014169 
L 87.736558 230.095528 
L 86.965289 232.176887 
L 86.254537 234.258246 
L 85.608098 236.339605 
L 85.02724 238.420964 
L 84.510955 240.502323 
L 84.056315 242.583682 
L 83.658891 244.665041 
L 83.313189 246.7464 
L 83.013085 248.827759 
L 82.752217 250.909118 
L 82.524331 252.990478 
L 82.323568 255.071837 
L 82.144686 257.153196 
L 81.983215 259.234555 
L 81.835555 261.315914 
L 81.699007 263.397273 
z
" clip-path="url(#p9023c71f52)" style="fill: #1f77b4; fill-opacity: 0.3"/>
   </g>
   <g id="matplotlib.axis_1">
    <g id="ytick_1">
     <g id="line2d_1">
      <defs>
       <path id="m7c4014bbc2" d="M 0 0 
L -3.5 0 
" style="stroke: #000000; stroke-width: 0.8"/>
      </defs>
      <g>
       <use xlink:href="#m7c4014bbc2" x="50.8925" y="247.525003" style="stroke: #000000; stroke-width: 0.8"/>
      </g>
     </g>
     <g id="text_1">
      <!-- 0.4 -->
      <g transform="translate(27.989375 251.324222)scale(0.1 -0.1)">
       <defs>
        <path id="DejaVuSans-30" d="M 2034 4250 
Q 1547 4250 1301 3770 
Q 1056 3291 1056 2328 
Q 1056 1369 1301 889 
Q 1547 409 2034 409 
Q 2525 409 2770 889 
Q 3016 1369 3016 2328 
Q 3016 3291 2770 3770 
Q 2525 4250 2034 4250 
z
M 2034 4750 
Q 2819 4750 3233 4129 
Q 3647 3509 3647 2328 
Q 3647 1150 3233 529 
Q 2819 -91 2034 -91 
Q 1250 -91 836 529 
Q 422 1150 422 2328 
Q 422 3509 836 4129 
Q 1250 4750 2034 4750 
z
" transform="scale(0.015625)"/>
        <path id="DejaVuSans-2e" d="M 684 794 
L 1344 794 
L 1344 0 
L 684 0 
L 684 794 
z
" transform="scale(0.015625)"/>
        <path id="DejaVuSans-34" d="M 2419 4116 
L 825 1625 
L 2419 1625 
L 2419 4116 
z
M 2253 4666 
L 3047 4666 
L 3047 1625 
L 3713 1625 
L 3713 1100 
L 3047 1100 
L 3047 0 
L 2419 0 
L 2419 1100 
L 313 1100 
L 313 1709 
L 2253 4666 
z
" transform="scale(0.015625)"/>
       </defs>
       <use xlink:href="#DejaVuSans-30"/>
       <use xlink:href="#DejaVuSans-2e" x="63.623047"/>
       <use xlink:href="#DejaVuSans-34" x="95.410156"/>
      </g>
     </g>
    </g>
    <g id="ytick_2">
     <g id="line2d_2">
      <g>
       <use xlink:href="#m7c4014bbc2" x="50.8925" y="203.432433" style="stroke: #000000; stroke-width: 0.8"/>
      </g>
     </g>
     <g id="text_2">
      <!-- 0.6 -->
      <g transform="translate(27.989375 207.231652)scale(0.1 -0.1)">
       <defs>
        <path id="DejaVuSans-36" d="M 2113 2584 
Q 1688 2584 1439 2293 
Q 1191 2003 1191 1497 
Q 1191 994 1439 701 
Q 1688 409 2113 409 
Q 2538 409 2786 701 
Q 3034 994 3034 1497 
Q 3034 2003 2786 2293 
Q 2538 2584 2113 2584 
z
M 3366 4563 
L 3366 3988 
Q 3128 4100 2886 4159 
Q 2644 4219 2406 4219 
Q 1781 4219 1451 3797 
Q 1122 3375 1075 2522 
Q 1259 2794 1537 2939 
Q 1816 3084 2150 3084 
Q 2853 3084 3261 2657 
Q 3669 2231 3669 1497 
Q 3669 778 3244 343 
Q 2819 -91 2113 -91 
Q 1303 -91 875 529 
Q 447 1150 447 2328 
Q 447 3434 972 4092 
Q 1497 4750 2381 4750 
Q 2619 4750 2861 4703 
Q 3103 4656 3366 4563 
z
" transform="scale(0.015625)"/>
       </defs>
       <use xlink:href="#DejaVuSans-30"/>
       <use xlink:href="#DejaVuSans-2e" x="63.623047"/>
       <use xlink:href="#DejaVuSans-36" x="95.410156"/>
      </g>
     </g>
    </g>
    <g id="ytick_3">
     <g id="line2d_3">
      <g>
       <use xlink:href="#m7c4014bbc2" x="50.8925" y="159.339864" style="stroke: #000000; stroke-width: 0.8"/>
      </g>
     </g>
     <g id="text_3">
      <!-- 0.8 -->
      <g transform="translate(27.989375 163.139082)scale(0.1 -0.1)">
       <defs>
        <path id="DejaVuSans-38" d="M 2034 2216 
Q 1584 2216 1326 1975 
Q 1069 1734 1069 1313 
Q 1069 891 1326 650 
Q 1584 409 2034 409 
Q 2484 409 2743 651 
Q 3003 894 3003 1313 
Q 3003 1734 2745 1975 
Q 2488 2216 2034 2216 
z
M 1403 2484 
Q 997 2584 770 2862 
Q 544 3141 544 3541 
Q 544 4100 942 4425 
Q 1341 4750 2034 4750 
Q 2731 4750 3128 4425 
Q 3525 4100 3525 3541 
Q 3525 3141 3298 2862 
Q 3072 2584 2669 2484 
Q 3125 2378 3379 2068 
Q 3634 1759 3634 1313 
Q 3634 634 3220 271 
Q 2806 -91 2034 -91 
Q 1263 -91 848 271 
Q 434 634 434 1313 
Q 434 1759 690 2068 
Q 947 2378 1403 2484 
z
M 1172 3481 
Q 1172 3119 1398 2916 
Q 1625 2713 2034 2713 
Q 2441 2713 2670 2916 
Q 2900 3119 2900 3481 
Q 2900 3844 2670 4047 
Q 2441 4250 2034 4250 
Q 1625 4250 1398 4047 
Q 1172 3844 1172 3481 
z
" transform="scale(0.015625)"/>
       </defs>
       <use xlink:href="#DejaVuSans-30"/>
       <use xlink:href="#DejaVuSans-2e" x="63.623047"/>
       <use xlink:href="#DejaVuSans-38" x="95.410156"/>
      </g>
     </g>
    </g>
    <g id="ytick_4">
     <g id="line2d_4">
      <g>
       <use xlink:href="#m7c4014bbc2" x="50.8925" y="115.247294" style="stroke: #000000; stroke-width: 0.8"/>
      </g>
     </g>
     <g id="text_4">
      <!-- 1.0 -->
      <g transform="translate(27.989375 119.046512)scale(0.1 -0.1)">
       <defs>
        <path id="DejaVuSans-31" d="M 794 531 
L 1825 531 
L 1825 4091 
L 703 3866 
L 703 4441 
L 1819 4666 
L 2450 4666 
L 2450 531 
L 3481 531 
L 3481 0 
L 794 0 
L 794 531 
z
" transform="scale(0.015625)"/>
       </defs>
       <use xlink:href="#DejaVuSans-31"/>
       <use xlink:href="#DejaVuSans-2e" x="63.623047"/>
       <use xlink:href="#DejaVuSans-30" x="95.410156"/>
      </g>
     </g>
    </g>
    <g id="ytick_5">
     <g id="line2d_5">
      <g>
       <use xlink:href="#m7c4014bbc2" x="50.8925" y="71.154724" style="stroke: #000000; stroke-width: 0.8"/>
      </g>
     </g>
     <g id="text_5">
      <!-- 1.2 -->
      <g transform="translate(27.989375 74.953943)scale(0.1 -0.1)">
       <defs>
        <path id="DejaVuSans-32" d="M 1228 531 
L 3431 531 
L 3431 0 
L 469 0 
L 469 531 
Q 828 903 1448 1529 
Q 2069 2156 2228 2338 
Q 2531 2678 2651 2914 
Q 2772 3150 2772 3378 
Q 2772 3750 2511 3984 
Q 2250 4219 1831 4219 
Q 1534 4219 1204 4116 
Q 875 4013 500 3803 
L 500 4441 
Q 881 4594 1212 4672 
Q 1544 4750 1819 4750 
Q 2544 4750 2975 4387 
Q 3406 4025 3406 3419 
Q 3406 3131 3298 2873 
Q 3191 2616 2906 2266 
Q 2828 2175 2409 1742 
Q 1991 1309 1228 531 
z
" transform="scale(0.015625)"/>
       </defs>
       <use xlink:href="#DejaVuSans-31"/>
       <use xlink:href="#DejaVuSans-2e" x="63.623047"/>
       <use xlink:href="#DejaVuSans-32" x="95.410156"/>
      </g>
     </g>
    </g>
    <g id="text_6">
     <!-- RMSD [$\AA$] -->
     <g transform="translate(21.909688 184.12)rotate(-90)scale(0.1 -0.1)">
      <defs>
       <path id="DejaVuSans-52" d="M 2841 2188 
Q 3044 2119 3236 1894 
Q 3428 1669 3622 1275 
L 4263 0 
L 3584 0 
L 2988 1197 
Q 2756 1666 2539 1819 
Q 2322 1972 1947 1972 
L 1259 1972 
L 1259 0 
L 628 0 
L 628 4666 
L 2053 4666 
Q 2853 4666 3247 4331 
Q 3641 3997 3641 3322 
Q 3641 2881 3436 2590 
Q 3231 2300 2841 2188 
z
M 1259 4147 
L 1259 2491 
L 2053 2491 
Q 2509 2491 2742 2702 
Q 2975 2913 2975 3322 
Q 2975 3731 2742 3939 
Q 2509 4147 2053 4147 
L 1259 4147 
z
" transform="scale(0.015625)"/>
       <path id="DejaVuSans-4d" d="M 628 4666 
L 1569 4666 
L 2759 1491 
L 3956 4666 
L 4897 4666 
L 4897 0 
L 4281 0 
L 4281 4097 
L 3078 897 
L 2444 897 
L 1241 4097 
L 1241 0 
L 628 0 
L 628 4666 
z
" transform="scale(0.015625)"/>
       <path id="DejaVuSans-53" d="M 3425 4513 
L 3425 3897 
Q 3066 4069 2747 4153 
Q 2428 4238 2131 4238 
Q 1616 4238 1336 4038 
Q 1056 3838 1056 3469 
Q 1056 3159 1242 3001 
Q 1428 2844 1947 2747 
L 2328 2669 
Q 3034 2534 3370 2195 
Q 3706 1856 3706 1288 
Q 3706 609 3251 259 
Q 2797 -91 1919 -91 
Q 1588 -91 1214 -16 
Q 841 59 441 206 
L 441 856 
Q 825 641 1194 531 
Q 1563 422 1919 422 
Q 2459 422 2753 634 
Q 3047 847 3047 1241 
Q 3047 1584 2836 1778 
Q 2625 1972 2144 2069 
L 1759 2144 
Q 1053 2284 737 2584 
Q 422 2884 422 3419 
Q 422 4038 858 4394 
Q 1294 4750 2059 4750 
Q 2388 4750 2728 4690 
Q 3069 4631 3425 4513 
z
" transform="scale(0.015625)"/>
       <path id="DejaVuSans-44" d="M 1259 4147 
L 1259 519 
L 2022 519 
Q 2988 519 3436 956 
Q 3884 1394 3884 2338 
Q 3884 3275 3436 3711 
Q 2988 4147 2022 4147 
L 1259 4147 
z
M 628 4666 
L 1925 4666 
Q 3281 4666 3915 4102 
Q 4550 3538 4550 2338 
Q 4550 1131 3912 565 
Q 3275 0 1925 0 
L 628 0 
L 628 4666 
z
" transform="scale(0.015625)"/>
       <path id="DejaVuSans-20" transform="scale(0.015625)"/>
       <path id="DejaVuSans-5b" d="M 550 4863 
L 1875 4863 
L 1875 4416 
L 1125 4416 
L 1125 -397 
L 1875 -397 
L 1875 -844 
L 550 -844 
L 550 4863 
z
" transform="scale(0.015625)"/>
       <path id="DejaVuSans-Oblique-c5" d="M 3188 5081 
Q 3188 5278 3048 5417 
Q 2909 5556 2713 5556 
Q 2513 5556 2377 5420 
Q 2241 5284 2241 5081 
Q 2241 4884 2377 4746 
Q 2513 4609 2713 4609 
Q 2909 4609 3048 4746 
Q 3188 4884 3188 5081 
z
M 2203 4397 
Q 2034 4513 1945 4689 
Q 1856 4866 1856 5081 
Q 1856 5438 2106 5689 
Q 2356 5941 2713 5941 
Q 3069 5941 3320 5689 
Q 3572 5438 3572 5081 
Q 3572 4834 3458 4643 
Q 3344 4453 3128 4341 
L 3938 0 
L 3278 0 
L 3084 1197 
L 984 1197 
L 325 0 
L -341 0 
L 2203 4397 
z
M 2584 4044 
L 1275 1722 
L 2988 1722 
L 2584 4044 
z
" transform="scale(0.015625)"/>
       <path id="DejaVuSans-5d" d="M 1947 4863 
L 1947 -844 
L 622 -844 
L 622 -397 
L 1369 -397 
L 1369 4416 
L 622 4416 
L 622 4863 
L 1947 4863 
z
" transform="scale(0.015625)"/>
      </defs>
      <use xlink:href="#DejaVuSans-52" transform="translate(0 0.171875)"/>
      <use xlink:href="#DejaVuSans-4d" transform="translate(69.482422 0.171875)"/>
      <use xlink:href="#DejaVuSans-53" transform="translate(155.761719 0.171875)"/>
      <use xlink:href="#DejaVuSans-44" transform="translate(219.238281 0.171875)"/>
      <use xlink:href="#DejaVuSans-20" transform="translate(296.240234 0.171875)"/>
      <use xlink:href="#DejaVuSans-5b" transform="translate(328.027344 0.171875)"/>
      <use xlink:href="#DejaVuSans-Oblique-c5" transform="translate(367.041016 0.171875)"/>
      <use xlink:href="#DejaVuSans-5d" transform="translate(435.449219 0.171875)"/>
     </g>
    </g>
   </g>
   <g id="LineCollection_1">
    <path d="M 67.120182 145.775774 
L 94.166318 145.775774 
" clip-path="url(#p9023c71f52)" style="fill: none; stroke: #1f77b4; stroke-width: 1.5"/>
   </g>
   <g id="LineCollection_2">
    <path d="M 67.120182 57.342727 
L 94.166318 57.342727 
" clip-path="url(#p9023c71f52)" style="fill: none; stroke: #1f77b4; stroke-width: 1.5"/>
   </g>
   <g id="LineCollection_3">
    <path d="M 67.120182 263.397273 
L 94.166318 263.397273 
" clip-path="url(#p9023c71f52)" style="fill: none; stroke: #1f77b4; stroke-width: 1.5"/>
   </g>
   <g id="LineCollection_4">
    <path d="M 80.64325 263.397273 
L 80.64325 57.342727 
" clip-path="url(#p9023c71f52)" style="fill: none; stroke: #1f77b4; stroke-width: 1.5"/>
   </g>
   <g id="patch_3">
    <path d="M 50.8925 273.7 
L 50.8925 47.04 
" style="fill: none; stroke: #000000; stroke-width: 0.8; stroke-linejoin: miter; stroke-linecap: square"/>
   </g>
   <g id="patch_4">
    <path d="M 110.394 273.7 
L 110.394 47.04 
" style="fill: none; stroke: #000000; stroke-width: 0.8; stroke-linejoin: miter; stroke-linecap: square"/>
   </g>
   <g id="patch_5">
    <path d="M 50.8925 273.7 
L 110.394 273.7 
" style="fill: none; stroke: #000000; stroke-width: 0.8; stroke-linejoin: miter; stroke-linecap: square"/>
   </g>
   <g id="patch_6">
    <path d="M 50.8925 47.04 
L 110.394 47.04 
" style="fill: none; stroke: #000000; stroke-width: 0.8; stroke-linejoin: miter; stroke-linecap: square"/>
   </g>
   <g id="text_7">
    <!-- RMSD -->
    <g transform="translate(62.86825 41.04)scale(0.12 -0.12)">
     <use xlink:href="#DejaVuSans-52"/>
     <use xlink:href="#DejaVuSans-4d" x="69.482422"/>
     <use xlink:href="#DejaVuSans-53" x="155.761719"/>
     <use xlink:href="#DejaVuSans-44" x="219.238281"/>
    </g>
   </g>
  </g>
  <g id="axes_2">
   <g id="patch_7">
    <path d="M 164.594 273.7 
L 224.0955 273.7 
L 224.0955 47.04 
L 164.594 47.04 
z
" style="fill: #ffffff"/>
   </g>
   <g id="PolyCollection_2">
    <path d="M 195.066543 263.397273 
L 193.622957 263.397273 
L 193.543788 261.315914 
L 193.468259 259.234555 
L 193.39618 257.153196 
L 193.326294 255.071837 
L 193.256272 252.990478 
L 193.182797 250.909118 
L 193.101731 248.827759 
L 193.008342 246.7464 
L 192.897586 244.665041 
L 192.764398 242.583682 
L 192.603983 240.502323 
L 192.412065 238.420964 
L 192.185103 236.339605 
L 191.920491 234.258246 
L 191.61679 232.176887 
L 191.274022 230.095528 
L 190.894039 228.014169 
L 190.480925 225.93281 
L 190.041311 223.851451 
L 189.584458 221.770092 
L 189.12197 219.688733 
L 188.667011 217.607374 
L 188.233056 215.526015 
L 187.832274 213.444656 
L 187.473787 211.363297 
L 187.162097 209.281938 
L 186.895986 207.200579 
L 186.668114 205.119219 
L 186.46543 203.03786 
L 186.270345 200.956501 
L 186.062493 198.875142 
L 185.820791 196.793783 
L 185.525493 194.712424 
L 185.159973 192.631065 
L 184.71206 190.549706 
L 184.174847 188.468347 
L 183.54702 186.386988 
L 182.832784 184.305629 
L 182.041475 182.22427 
L 181.186921 180.142911 
L 180.286577 178.061552 
L 179.360397 175.980193 
L 178.429469 173.898834 
L 177.514424 171.817475 
L 176.633757 169.736116 
L 175.802221 167.654757 
L 175.029513 165.573398 
L 174.319477 163.492039 
L 173.669966 161.41068 
L 173.073448 159.32932 
L 172.518319 157.247961 
L 171.99078 155.166602 
L 171.477072 153.085243 
L 170.965772 151.003884 
L 170.449863 148.922525 
L 169.92829 146.841166 
L 169.406801 144.759807 
L 168.897945 142.678448 
L 168.420237 140.597089 
L 167.996577 138.51573 
L 167.652147 136.434371 
L 167.411998 134.353012 
L 167.298614 132.271653 
L 167.329694 130.190294 
L 167.516405 128.108935 
L 167.862294 126.027576 
L 168.363023 123.946217 
L 169.006978 121.864858 
L 169.776714 119.783499 
L 170.651046 117.70214 
L 171.607473 115.620781 
L 172.624556 113.539421 
L 173.683854 111.458062 
L 174.771107 109.376703 
L 175.876512 107.295344 
L 176.994102 105.213985 
L 178.120425 103.132626 
L 179.25284 101.051267 
L 180.387778 98.969908 
L 181.519333 96.888549 
L 182.638432 94.80719 
L 183.732755 92.725831 
L 184.787422 90.644472 
L 185.786332 88.563113 
L 186.713929 86.481754 
L 187.557094 84.400395 
L 188.306824 82.319036 
L 188.959404 80.237677 
L 189.51686 78.156318 
L 189.986639 76.074959 
L 190.380585 73.9936 
L 190.713412 71.912241 
L 191.000957 69.830882 
L 191.258476 67.749522 
L 191.499223 65.668163 
L 191.733451 63.586804 
L 191.967898 61.505445 
L 192.205726 59.424086 
L 192.44685 57.342727 
L 196.24265 57.342727 
L 196.24265 57.342727 
L 196.483774 59.424086 
L 196.721602 61.505445 
L 196.956049 63.586804 
L 197.190277 65.668163 
L 197.431024 67.749522 
L 197.688543 69.830882 
L 197.976088 71.912241 
L 198.308915 73.9936 
L 198.702861 76.074959 
L 199.17264 78.156318 
L 199.730096 80.237677 
L 200.382676 82.319036 
L 201.132406 84.400395 
L 201.975571 86.481754 
L 202.903168 88.563113 
L 203.902078 90.644472 
L 204.956745 92.725831 
L 206.051068 94.80719 
L 207.170167 96.888549 
L 208.301722 98.969908 
L 209.43666 101.051267 
L 210.569075 103.132626 
L 211.695398 105.213985 
L 212.812988 107.295344 
L 213.918393 109.376703 
L 215.005646 111.458062 
L 216.064944 113.539421 
L 217.082027 115.620781 
L 218.038454 117.70214 
L 218.912786 119.783499 
L 219.682522 121.864858 
L 220.326477 123.946217 
L 220.827206 126.027576 
L 221.173095 128.108935 
L 221.359806 130.190294 
L 221.390886 132.271653 
L 221.277502 134.353012 
L 221.037353 136.434371 
L 220.692923 138.51573 
L 220.269263 140.597089 
L 219.791555 142.678448 
L 219.282699 144.759807 
L 218.76121 146.841166 
L 218.239637 148.922525 
L 217.723728 151.003884 
L 217.212428 153.085243 
L 216.69872 155.166602 
L 216.171181 157.247961 
L 215.616052 159.32932 
L 215.019534 161.41068 
L 214.370023 163.492039 
L 213.659987 165.573398 
L 212.887279 167.654757 
L 212.055743 169.736116 
L 211.175076 171.817475 
L 210.260031 173.898834 
L 209.329103 175.980193 
L 208.402923 178.061552 
L 207.502579 180.142911 
L 206.648025 182.22427 
L 205.856716 184.305629 
L 205.14248 186.386988 
L 204.514653 188.468347 
L 203.97744 190.549706 
L 203.529527 192.631065 
L 203.164007 194.712424 
L 202.868709 196.793783 
L 202.627007 198.875142 
L 202.419155 200.956501 
L 202.22407 203.03786 
L 202.021386 205.119219 
L 201.793514 207.200579 
L 201.527403 209.281938 
L 201.215713 211.363297 
L 200.857226 213.444656 
L 200.456444 215.526015 
L 200.022489 217.607374 
L 199.56753 219.688733 
L 199.105042 221.770092 
L 198.648189 223.851451 
L 198.208575 225.93281 
L 197.795461 228.014169 
L 197.415478 230.095528 
L 197.07271 232.176887 
L 196.769009 234.258246 
L 196.504397 236.339605 
L 196.277435 238.420964 
L 196.085517 240.502323 
L 195.925102 242.583682 
L 195.791914 244.665041 
L 195.681158 246.7464 
L 195.587769 248.827759 
L 195.506703 250.909118 
L 195.433228 252.990478 
L 195.363206 255.071837 
L 195.29332 257.153196 
L 195.221241 259.234555 
L 195.145712 261.315914 
L 195.066543 263.397273 
z
" clip-path="url(#pafda21e6b5)" style="fill: #1f77b4; fill-opacity: 0.3"/>
   </g>
   <g id="matplotlib.axis_2">
    <g id="ytick_6">
     <g id="line2d_6">
      <g>
       <use xlink:href="#m7c4014bbc2" x="164.594" y="245.000294" style="stroke: #000000; stroke-width: 0.8"/>
      </g>
     </g>
     <g id="text_8">
      <!-- 0.3 -->
      <g transform="translate(141.690875 248.799513)scale(0.1 -0.1)">
       <defs>
        <path id="DejaVuSans-33" d="M 2597 2516 
Q 3050 2419 3304 2112 
Q 3559 1806 3559 1356 
Q 3559 666 3084 287 
Q 2609 -91 1734 -91 
Q 1441 -91 1130 -33 
Q 819 25 488 141 
L 488 750 
Q 750 597 1062 519 
Q 1375 441 1716 441 
Q 2309 441 2620 675 
Q 2931 909 2931 1356 
Q 2931 1769 2642 2001 
Q 2353 2234 1838 2234 
L 1294 2234 
L 1294 2753 
L 1863 2753 
Q 2328 2753 2575 2939 
Q 2822 3125 2822 3475 
Q 2822 3834 2567 4026 
Q 2313 4219 1838 4219 
Q 1578 4219 1281 4162 
Q 984 4106 628 3988 
L 628 4550 
Q 988 4650 1302 4700 
Q 1616 4750 1894 4750 
Q 2613 4750 3031 4423 
Q 3450 4097 3450 3541 
Q 3450 3153 3228 2886 
Q 3006 2619 2597 2516 
z
" transform="scale(0.015625)"/>
       </defs>
       <use xlink:href="#DejaVuSans-30"/>
       <use xlink:href="#DejaVuSans-2e" x="63.623047"/>
       <use xlink:href="#DejaVuSans-33" x="95.410156"/>
      </g>
     </g>
    </g>
    <g id="ytick_7">
     <g id="line2d_7">
      <g>
       <use xlink:href="#m7c4014bbc2" x="164.594" y="204.976848" style="stroke: #000000; stroke-width: 0.8"/>
      </g>
     </g>
     <g id="text_9">
      <!-- 0.4 -->
      <g transform="translate(141.690875 208.776067)scale(0.1 -0.1)">
       <use xlink:href="#DejaVuSans-30"/>
       <use xlink:href="#DejaVuSans-2e" x="63.623047"/>
       <use xlink:href="#DejaVuSans-34" x="95.410156"/>
      </g>
     </g>
    </g>
    <g id="ytick_8">
     <g id="line2d_8">
      <g>
       <use xlink:href="#m7c4014bbc2" x="164.594" y="164.953401" style="stroke: #000000; stroke-width: 0.8"/>
      </g>
     </g>
     <g id="text_10">
      <!-- 0.5 -->
      <g transform="translate(141.690875 168.75262)scale(0.1 -0.1)">
       <defs>
        <path id="DejaVuSans-35" d="M 691 4666 
L 3169 4666 
L 3169 4134 
L 1269 4134 
L 1269 2991 
Q 1406 3038 1543 3061 
Q 1681 3084 1819 3084 
Q 2600 3084 3056 2656 
Q 3513 2228 3513 1497 
Q 3513 744 3044 326 
Q 2575 -91 1722 -91 
Q 1428 -91 1123 -41 
Q 819 9 494 109 
L 494 744 
Q 775 591 1075 516 
Q 1375 441 1709 441 
Q 2250 441 2565 725 
Q 2881 1009 2881 1497 
Q 2881 1984 2565 2268 
Q 2250 2553 1709 2553 
Q 1456 2553 1204 2497 
Q 953 2441 691 2322 
L 691 4666 
z
" transform="scale(0.015625)"/>
       </defs>
       <use xlink:href="#DejaVuSans-30"/>
       <use xlink:href="#DejaVuSans-2e" x="63.623047"/>
       <use xlink:href="#DejaVuSans-35" x="95.410156"/>
      </g>
     </g>
    </g>
    <g id="ytick_9">
     <g id="line2d_9">
      <g>
       <use xlink:href="#m7c4014bbc2" x="164.594" y="124.929955" style="stroke: #000000; stroke-width: 0.8"/>
      </g>
     </g>
     <g id="text_11">
      <!-- 0.6 -->
      <g transform="translate(141.690875 128.729174)scale(0.1 -0.1)">
       <use xlink:href="#DejaVuSans-30"/>
       <use xlink:href="#DejaVuSans-2e" x="63.623047"/>
       <use xlink:href="#DejaVuSans-36" x="95.410156"/>
      </g>
     </g>
    </g>
    <g id="ytick_10">
     <g id="line2d_10">
      <g>
       <use xlink:href="#m7c4014bbc2" x="164.594" y="84.906509" style="stroke: #000000; stroke-width: 0.8"/>
      </g>
     </g>
     <g id="text_12">
      <!-- 0.7 -->
      <g transform="translate(141.690875 88.705728)scale(0.1 -0.1)">
       <defs>
        <path id="DejaVuSans-37" d="M 525 4666 
L 3525 4666 
L 3525 4397 
L 1831 0 
L 1172 0 
L 2766 4134 
L 525 4134 
L 525 4666 
z
" transform="scale(0.015625)"/>
       </defs>
       <use xlink:href="#DejaVuSans-30"/>
       <use xlink:href="#DejaVuSans-2e" x="63.623047"/>
       <use xlink:href="#DejaVuSans-37" x="95.410156"/>
      </g>
     </g>
    </g>
    <g id="text_13">
     <!-- MAE [$\AA$] -->
     <g transform="translate(135.611187 180.22)rotate(-90)scale(0.1 -0.1)">
      <defs>
       <path id="DejaVuSans-41" d="M 2188 4044 
L 1331 1722 
L 3047 1722 
L 2188 4044 
z
M 1831 4666 
L 2547 4666 
L 4325 0 
L 3669 0 
L 3244 1197 
L 1141 1197 
L 716 0 
L 50 0 
L 1831 4666 
z
" transform="scale(0.015625)"/>
       <path id="DejaVuSans-45" d="M 628 4666 
L 3578 4666 
L 3578 4134 
L 1259 4134 
L 1259 2753 
L 3481 2753 
L 3481 2222 
L 1259 2222 
L 1259 531 
L 3634 531 
L 3634 0 
L 628 0 
L 628 4666 
z
" transform="scale(0.015625)"/>
      </defs>
      <use xlink:href="#DejaVuSans-4d" transform="translate(0 0.171875)"/>
      <use xlink:href="#DejaVuSans-41" transform="translate(86.279297 0.171875)"/>
      <use xlink:href="#DejaVuSans-45" transform="translate(154.6875 0.171875)"/>
      <use xlink:href="#DejaVuSans-20" transform="translate(217.871094 0.171875)"/>
      <use xlink:href="#DejaVuSans-5b" transform="translate(249.658203 0.171875)"/>
      <use xlink:href="#DejaVuSans-Oblique-c5" transform="translate(288.671875 0.171875)"/>
      <use xlink:href="#DejaVuSans-5d" transform="translate(357.080078 0.171875)"/>
     </g>
    </g>
   </g>
   <g id="LineCollection_5">
    <path d="M 180.821682 144.485985 
L 207.867818 144.485985 
" clip-path="url(#pafda21e6b5)" style="fill: none; stroke: #1f77b4; stroke-width: 1.5"/>
   </g>
   <g id="LineCollection_6">
    <path d="M 180.821682 57.342727 
L 207.867818 57.342727 
" clip-path="url(#pafda21e6b5)" style="fill: none; stroke: #1f77b4; stroke-width: 1.5"/>
   </g>
   <g id="LineCollection_7">
    <path d="M 180.821682 263.397273 
L 207.867818 263.397273 
" clip-path="url(#pafda21e6b5)" style="fill: none; stroke: #1f77b4; stroke-width: 1.5"/>
   </g>
   <g id="LineCollection_8">
    <path d="M 194.34475 263.397273 
L 194.34475 57.342727 
" clip-path="url(#pafda21e6b5)" style="fill: none; stroke: #1f77b4; stroke-width: 1.5"/>
   </g>
   <g id="patch_8">
    <path d="M 164.594 273.7 
L 164.594 47.04 
" style="fill: none; stroke: #000000; stroke-width: 0.8; stroke-linejoin: miter; stroke-linecap: square"/>
   </g>
   <g id="patch_9">
    <path d="M 224.0955 273.7 
L 224.0955 47.04 
" style="fill: none; stroke: #000000; stroke-width: 0.8; stroke-linejoin: miter; stroke-linecap: square"/>
   </g>
   <g id="patch_10">
    <path d="M 164.594 273.7 
L 224.0955 273.7 
" style="fill: none; stroke: #000000; stroke-width: 0.8; stroke-linejoin: miter; stroke-linecap: square"/>
   </g>
   <g id="patch_11">
    <path d="M 164.594 47.04 
L 224.0955 47.04 
" style="fill: none; stroke: #000000; stroke-width: 0.8; stroke-linejoin: miter; stroke-linecap: square"/>
   </g>
   <g id="text_14">
    <!-- MAE -->
    <g transform="translate(181.27225 41.04)scale(0.12 -0.12)">
     <use xlink:href="#DejaVuSans-4d"/>
     <use xlink:href="#DejaVuSans-41" x="86.279297"/>
     <use xlink:href="#DejaVuSans-45" x="154.6875"/>
    </g>
   </g>
  </g>
  <g id="axes_3">
   <g id="patch_12">
    <path d="M 278.2955 273.7 
L 337.797 273.7 
L 337.797 47.04 
L 278.2955 47.04 
z
" style="fill: #ffffff"/>
   </g>
   <g id="PolyCollection_3">
    <path d="M 308.439691 263.397273 
L 307.652809 263.397273 
L 307.598172 261.315914 
L 307.540126 259.234555 
L 307.47809 257.153196 
L 307.411422 255.071837 
L 307.339402 252.990478 
L 307.261108 250.909118 
L 307.175231 248.827759 
L 307.079898 246.7464 
L 306.972629 244.665041 
L 306.850488 242.583682 
L 306.710471 240.502323 
L 306.550047 238.420964 
L 306.367729 236.339605 
L 306.16346 234.258246 
L 305.938676 232.176887 
L 305.695934 230.095528 
L 305.438132 228.014169 
L 305.167465 225.93281 
L 304.884358 223.851451 
L 304.586658 221.770092 
L 304.269332 219.688733 
L 303.924813 217.607374 
L 303.544008 215.526015 
L 303.117783 213.444656 
L 302.638658 211.363297 
L 302.102342 209.281938 
L 301.508777 207.200579 
L 300.862457 205.119219 
L 300.171968 203.03786 
L 299.448833 200.956501 
L 298.705931 198.875142 
L 297.955787 196.793783 
L 297.209037 194.712424 
L 296.473276 192.631065 
L 295.752395 190.549706 
L 295.046427 188.468347 
L 294.35184 186.386988 
L 293.662246 184.305629 
L 292.969467 182.22427 
L 292.264902 180.142911 
L 291.541104 178.061552 
L 290.79336 175.980193 
L 290.020983 173.898834 
L 289.22799 171.817475 
L 288.422884 169.736116 
L 287.61745 167.654757 
L 286.824779 165.573398 
L 286.056979 163.492039 
L 285.323268 161.41068 
L 284.629056 159.32932 
L 283.976441 157.247961 
L 283.366038 155.166602 
L 282.799657 153.085243 
L 282.282977 151.003884 
L 281.827309 148.922525 
L 281.449766 146.841166 
L 281.171636 144.759807 
L 281.015248 142.678448 
L 281.000114 140.597089 
L 281.139248 138.51573 
L 281.436553 136.434371 
L 281.885799 134.353012 
L 282.47134 132.271653 
L 283.17032 130.190294 
L 283.955837 128.108935 
L 284.800448 126.027576 
L 285.679408 123.946217 
L 286.573173 121.864858 
L 287.468866 119.783499 
L 288.360563 117.70214 
L 289.248435 115.620781 
L 290.136946 113.539421 
L 291.032439 111.458062 
L 291.940562 109.376703 
L 292.864024 107.295344 
L 293.801115 105.213985 
L 294.745267 103.132626 
L 295.685737 101.051267 
L 296.609204 98.969908 
L 297.501896 96.888549 
L 298.351745 94.80719 
L 299.150059 92.725831 
L 299.892365 90.644472 
L 300.578277 88.563113 
L 301.210533 86.481754 
L 301.793521 84.400395 
L 302.331773 82.319036 
L 302.828855 80.237677 
L 303.286962 78.156318 
L 303.70724 76.074959 
L 304.090664 73.9936 
L 304.439077 71.912241 
L 304.755974 69.830882 
L 305.046699 67.749522 
L 305.317961 65.668163 
L 305.576771 63.586804 
L 305.829138 61.505445 
L 306.078902 59.424086 
L 306.327039 57.342727 
L 309.765461 57.342727 
L 309.765461 57.342727 
L 310.013598 59.424086 
L 310.263362 61.505445 
L 310.515729 63.586804 
L 310.774539 65.668163 
L 311.045801 67.749522 
L 311.336526 69.830882 
L 311.653423 71.912241 
L 312.001836 73.9936 
L 312.38526 76.074959 
L 312.805538 78.156318 
L 313.263645 80.237677 
L 313.760727 82.319036 
L 314.298979 84.400395 
L 314.881967 86.481754 
L 315.514223 88.563113 
L 316.200135 90.644472 
L 316.942441 92.725831 
L 317.740755 94.80719 
L 318.590604 96.888549 
L 319.483296 98.969908 
L 320.406763 101.051267 
L 321.347233 103.132626 
L 322.291385 105.213985 
L 323.228476 107.295344 
L 324.151938 109.376703 
L 325.060061 111.458062 
L 325.955554 113.539421 
L 326.844065 115.620781 
L 327.731937 117.70214 
L 328.623634 119.783499 
L 329.519327 121.864858 
L 330.413092 123.946217 
L 331.292052 126.027576 
L 332.136663 128.108935 
L 332.92218 130.190294 
L 333.62116 132.271653 
L 334.206701 134.353012 
L 334.655947 136.434371 
L 334.953252 138.51573 
L 335.092386 140.597089 
L 335.077252 142.678448 
L 334.920864 144.759807 
L 334.642734 146.841166 
L 334.265191 148.922525 
L 333.809523 151.003884 
L 333.292843 153.085243 
L 332.726462 155.166602 
L 332.116059 157.247961 
L 331.463444 159.32932 
L 330.769232 161.41068 
L 330.035521 163.492039 
L 329.267721 165.573398 
L 328.47505 167.654757 
L 327.669616 169.736116 
L 326.86451 171.817475 
L 326.071517 173.898834 
L 325.29914 175.980193 
L 324.551396 178.061552 
L 323.827598 180.142911 
L 323.123033 182.22427 
L 322.430254 184.305629 
L 321.74066 186.386988 
L 321.046073 188.468347 
L 320.340105 190.549706 
L 319.619224 192.631065 
L 318.883463 194.712424 
L 318.136713 196.793783 
L 317.386569 198.875142 
L 316.643667 200.956501 
L 315.920532 203.03786 
L 315.230043 205.119219 
L 314.583723 207.200579 
L 313.990158 209.281938 
L 313.453842 211.363297 
L 312.974717 213.444656 
L 312.548492 215.526015 
L 312.167687 217.607374 
L 311.823168 219.688733 
L 311.505842 221.770092 
L 311.208142 223.851451 
L 310.925035 225.93281 
L 310.654368 228.014169 
L 310.396566 230.095528 
L 310.153824 232.176887 
L 309.92904 234.258246 
L 309.724771 236.339605 
L 309.542453 238.420964 
L 309.382029 240.502323 
L 309.242012 242.583682 
L 309.119871 244.665041 
L 309.012602 246.7464 
L 308.917269 248.827759 
L 308.831392 250.909118 
L 308.753098 252.990478 
L 308.681078 255.071837 
L 308.61441 257.153196 
L 308.552374 259.234555 
L 308.494328 261.315914 
L 308.439691 263.397273 
z
" clip-path="url(#p7c75e90252)" style="fill: #1f77b4; fill-opacity: 0.3"/>
   </g>
   <g id="matplotlib.axis_3">
    <g id="ytick_11">
     <g id="line2d_11">
      <g>
       <use xlink:href="#m7c4014bbc2" x="278.2955" y="244.537443" style="stroke: #000000; stroke-width: 0.8"/>
      </g>
     </g>
     <g id="text_15">
      <!-- 0.1 -->
      <g transform="translate(255.392375 248.336662)scale(0.1 -0.1)">
       <use xlink:href="#DejaVuSans-30"/>
       <use xlink:href="#DejaVuSans-2e" x="63.623047"/>
       <use xlink:href="#DejaVuSans-31" x="95.410156"/>
      </g>
     </g>
    </g>
    <g id="ytick_12">
     <g id="line2d_12">
      <g>
       <use xlink:href="#m7c4014bbc2" x="278.2955" y="209.437176" style="stroke: #000000; stroke-width: 0.8"/>
      </g>
     </g>
     <g id="text_16">
      <!-- 0.2 -->
      <g transform="translate(255.392375 213.236395)scale(0.1 -0.1)">
       <use xlink:href="#DejaVuSans-30"/>
       <use xlink:href="#DejaVuSans-2e" x="63.623047"/>
       <use xlink:href="#DejaVuSans-32" x="95.410156"/>
      </g>
     </g>
    </g>
    <g id="ytick_13">
     <g id="line2d_13">
      <g>
       <use xlink:href="#m7c4014bbc2" x="278.2955" y="174.336909" style="stroke: #000000; stroke-width: 0.8"/>
      </g>
     </g>
     <g id="text_17">
      <!-- 0.3 -->
      <g transform="translate(255.392375 178.136128)scale(0.1 -0.1)">
       <use xlink:href="#DejaVuSans-30"/>
       <use xlink:href="#DejaVuSans-2e" x="63.623047"/>
       <use xlink:href="#DejaVuSans-33" x="95.410156"/>
      </g>
     </g>
    </g>
    <g id="ytick_14">
     <g id="line2d_14">
      <g>
       <use xlink:href="#m7c4014bbc2" x="278.2955" y="139.236642" style="stroke: #000000; stroke-width: 0.8"/>
      </g>
     </g>
     <g id="text_18">
      <!-- 0.4 -->
      <g transform="translate(255.392375 143.035861)scale(0.1 -0.1)">
       <use xlink:href="#DejaVuSans-30"/>
       <use xlink:href="#DejaVuSans-2e" x="63.623047"/>
       <use xlink:href="#DejaVuSans-34" x="95.410156"/>
      </g>
     </g>
    </g>
    <g id="ytick_15">
     <g id="line2d_15">
      <g>
       <use xlink:href="#m7c4014bbc2" x="278.2955" y="104.136375" style="stroke: #000000; stroke-width: 0.8"/>
      </g>
     </g>
     <g id="text_19">
      <!-- 0.5 -->
      <g transform="translate(255.392375 107.935593)scale(0.1 -0.1)">
       <use xlink:href="#DejaVuSans-30"/>
       <use xlink:href="#DejaVuSans-2e" x="63.623047"/>
       <use xlink:href="#DejaVuSans-35" x="95.410156"/>
      </g>
     </g>
    </g>
    <g id="ytick_16">
     <g id="line2d_16">
      <g>
       <use xlink:href="#m7c4014bbc2" x="278.2955" y="69.036108" style="stroke: #000000; stroke-width: 0.8"/>
      </g>
     </g>
     <g id="text_20">
      <!-- 0.6 -->
      <g transform="translate(255.392375 72.835326)scale(0.1 -0.1)">
       <use xlink:href="#DejaVuSans-30"/>
       <use xlink:href="#DejaVuSans-2e" x="63.623047"/>
       <use xlink:href="#DejaVuSans-36" x="95.410156"/>
      </g>
     </g>
    </g>
    <g id="text_21">
     <!-- MSE [$\AA$] -->
     <g transform="translate(249.312687 179.97)rotate(-90)scale(0.1 -0.1)">
      <use xlink:href="#DejaVuSans-4d" transform="translate(0 0.171875)"/>
      <use xlink:href="#DejaVuSans-53" transform="translate(86.279297 0.171875)"/>
      <use xlink:href="#DejaVuSans-45" transform="translate(149.755859 0.171875)"/>
      <use xlink:href="#DejaVuSans-20" transform="translate(212.939453 0.171875)"/>
      <use xlink:href="#DejaVuSans-5b" transform="translate(244.726562 0.171875)"/>
      <use xlink:href="#DejaVuSans-Oblique-c5" transform="translate(283.740234 0.171875)"/>
      <use xlink:href="#DejaVuSans-5d" transform="translate(352.148438 0.171875)"/>
     </g>
    </g>
   </g>
   <g id="LineCollection_9">
    <path d="M 294.523182 146.258197 
L 321.569318 146.258197 
" clip-path="url(#p7c75e90252)" style="fill: none; stroke: #1f77b4; stroke-width: 1.5"/>
   </g>
   <g id="LineCollection_10">
    <path d="M 294.523182 57.342727 
L 321.569318 57.342727 
" clip-path="url(#p7c75e90252)" style="fill: none; stroke: #1f77b4; stroke-width: 1.5"/>
   </g>
   <g id="LineCollection_11">
    <path d="M 294.523182 263.397273 
L 321.569318 263.397273 
" clip-path="url(#p7c75e90252)" style="fill: none; stroke: #1f77b4; stroke-width: 1.5"/>
   </g>
   <g id="LineCollection_12">
    <path d="M 308.04625 263.397273 
L 308.04625 57.342727 
" clip-path="url(#p7c75e90252)" style="fill: none; stroke: #1f77b4; stroke-width: 1.5"/>
   </g>
   <g id="patch_13">
    <path d="M 278.2955 273.7 
L 278.2955 47.04 
" style="fill: none; stroke: #000000; stroke-width: 0.8; stroke-linejoin: miter; stroke-linecap: square"/>
   </g>
   <g id="patch_14">
    <path d="M 337.797 273.7 
L 337.797 47.04 
" style="fill: none; stroke: #000000; stroke-width: 0.8; stroke-linejoin: miter; stroke-linecap: square"/>
   </g>
   <g id="patch_15">
    <path d="M 278.2955 273.7 
L 337.797 273.7 
" style="fill: none; stroke: #000000; stroke-width: 0.8; stroke-linejoin: miter; stroke-linecap: square"/>
   </g>
   <g id="patch_16">
    <path d="M 278.2955 47.04 
L 337.797 47.04 
" style="fill: none; stroke: #000000; stroke-width: 0.8; stroke-linejoin: miter; stroke-linecap: square"/>
   </g>
   <g id="text_22">
    <!-- MSE -->
    <g transform="translate(295.269062 41.04)scale(0.12 -0.12)">
     <use xlink:href="#DejaVuSans-4d"/>
     <use xlink:href="#DejaVuSans-53" x="86.279297"/>
     <use xlink:href="#DejaVuSans-45" x="149.755859"/>
    </g>
   </g>
  </g>
  <g id="axes_4">
   <g id="patch_17">
    <path d="M 391.997 273.7 
L 451.4985 273.7 
L 451.4985 47.04 
L 391.997 47.04 
z
" style="fill: #ffffff"/>
   </g>
   <g id="PolyCollection_4">
    <path d="M 423.743834 263.397273 
L 419.751666 263.397273 
L 419.320088 261.315914 
L 418.829277 259.234555 
L 418.277958 257.153196 
L 417.666033 255.071837 
L 416.994531 252.990478 
L 416.265662 250.909118 
L 415.483062 248.827759 
L 414.65223 246.7464 
L 413.780928 244.665041 
L 412.87924 242.583682 
L 411.95901 240.502323 
L 411.032581 238.420964 
L 410.111097 236.339605 
L 409.202866 234.258246 
L 408.312293 232.176887 
L 407.439732 230.095528 
L 406.582216 228.014169 
L 405.734742 225.93281 
L 404.891653 223.851451 
L 404.047814 221.770092 
L 403.199494 219.688733 
L 402.345083 217.607374 
L 401.485745 215.526015 
L 400.625963 213.444656 
L 399.773747 211.363297 
L 398.9403 209.281938 
L 398.139136 207.200579 
L 397.384962 205.119219 
L 396.692817 203.03786 
L 396.077791 200.956501 
L 395.555271 198.875142 
L 395.1412 196.793783 
L 394.85169 194.712424 
L 394.701614 192.631065 
L 394.702358 190.549706 
L 394.859544 188.468347 
L 395.171647 186.386988 
L 395.630162 184.305629 
L 396.221235 182.22427 
L 396.928032 180.142911 
L 397.732885 178.061552 
L 398.618499 175.980193 
L 399.568123 173.898834 
L 400.565141 171.817475 
L 401.59279 169.736116 
L 402.634447 167.654757 
L 403.674532 165.573398 
L 404.699616 163.492039 
L 405.699263 161.41068 
L 406.666282 159.32932 
L 407.596404 157.247961 
L 408.487617 155.166602 
L 409.339446 153.085243 
L 410.152276 151.003884 
L 410.9267 148.922525 
L 411.662798 146.841166 
L 412.359352 144.759807 
L 413.013191 142.678448 
L 413.618962 140.597089 
L 414.16957 138.51573 
L 414.657348 136.434371 
L 415.075772 134.353012 
L 415.421348 132.271653 
L 415.695218 130.190294 
L 415.904106 128.108935 
L 416.060353 126.027576 
L 416.180972 123.946217 
L 416.28583 121.864858 
L 416.395245 119.783499 
L 416.527416 117.70214 
L 416.696191 115.620781 
L 416.909613 113.539421 
L 417.169511 111.458062 
L 417.472146 109.376703 
L 417.809607 107.295344 
L 418.171504 105.213985 
L 418.546491 103.132626 
L 418.923311 101.051267 
L 419.291299 98.969908 
L 419.640522 96.888549 
L 419.961834 94.80719 
L 420.247096 92.725831 
L 420.489676 90.644472 
L 420.68516 88.563113 
L 420.832067 86.481754 
L 420.932308 84.400395 
L 420.991208 82.319036 
L 421.016983 80.237677 
L 421.019747 78.156318 
L 421.01023 76.074959 
L 420.998438 73.9936 
L 420.992532 71.912241 
L 420.998093 69.830882 
L 421.017896 67.749522 
L 421.052148 65.668163 
L 421.099071 63.586804 
L 421.155659 61.505445 
L 421.218416 59.424086 
L 421.283941 57.342727 
L 422.211559 57.342727 
L 422.211559 57.342727 
L 422.277084 59.424086 
L 422.339841 61.505445 
L 422.396429 63.586804 
L 422.443352 65.668163 
L 422.477604 67.749522 
L 422.497407 69.830882 
L 422.502968 71.912241 
L 422.497062 73.9936 
L 422.48527 76.074959 
L 422.475753 78.156318 
L 422.478517 80.237677 
L 422.504292 82.319036 
L 422.563192 84.400395 
L 422.663433 86.481754 
L 422.81034 88.563113 
L 423.005824 90.644472 
L 423.248404 92.725831 
L 423.533666 94.80719 
L 423.854978 96.888549 
L 424.204201 98.969908 
L 424.572189 101.051267 
L 424.949009 103.132626 
L 425.323996 105.213985 
L 425.685893 107.295344 
L 426.023354 109.376703 
L 426.325989 111.458062 
L 426.585887 113.539421 
L 426.799309 115.620781 
L 426.968084 117.70214 
L 427.100255 119.783499 
L 427.20967 121.864858 
L 427.314528 123.946217 
L 427.435147 126.027576 
L 427.591394 128.108935 
L 427.800282 130.190294 
L 428.074152 132.271653 
L 428.419728 134.353012 
L 428.838152 136.434371 
L 429.32593 138.51573 
L 429.876538 140.597089 
L 430.482309 142.678448 
L 431.136148 144.759807 
L 431.832702 146.841166 
L 432.5688 148.922525 
L 433.343224 151.003884 
L 434.156054 153.085243 
L 435.007883 155.166602 
L 435.899096 157.247961 
L 436.829218 159.32932 
L 437.796237 161.41068 
L 438.795884 163.492039 
L 439.820968 165.573398 
L 440.861053 167.654757 
L 441.90271 169.736116 
L 442.930359 171.817475 
L 443.927377 173.898834 
L 444.877001 175.980193 
L 445.762615 178.061552 
L 446.567468 180.142911 
L 447.274265 182.22427 
L 447.865338 184.305629 
L 448.323853 186.386988 
L 448.635956 188.468347 
L 448.793142 190.549706 
L 448.793886 192.631065 
L 448.64381 194.712424 
L 448.3543 196.793783 
L 447.940229 198.875142 
L 447.417709 200.956501 
L 446.802683 203.03786 
L 446.110538 205.119219 
L 445.356364 207.200579 
L 444.5552 209.281938 
L 443.721753 211.363297 
L 442.869537 213.444656 
L 442.009755 215.526015 
L 441.150417 217.607374 
L 440.296006 219.688733 
L 439.447686 221.770092 
L 438.603847 223.851451 
L 437.760758 225.93281 
L 436.913284 228.014169 
L 436.055768 230.095528 
L 435.183207 232.176887 
L 434.292634 234.258246 
L 433.384403 236.339605 
L 432.462919 238.420964 
L 431.53649 240.502323 
L 430.61626 242.583682 
L 429.714572 244.665041 
L 428.84327 246.7464 
L 428.012438 248.827759 
L 427.229838 250.909118 
L 426.500969 252.990478 
L 425.829467 255.071837 
L 425.217542 257.153196 
L 424.666223 259.234555 
L 424.175412 261.315914 
L 423.743834 263.397273 
z
" clip-path="url(#p098c61b58e)" style="fill: #1f77b4; fill-opacity: 0.3"/>
   </g>
   <g id="matplotlib.axis_4">
    <g id="ytick_17">
     <g id="line2d_17">
      <g>
       <use xlink:href="#m7c4014bbc2" x="391.997" y="256.038182" style="stroke: #000000; stroke-width: 0.8"/>
      </g>
     </g>
     <g id="text_23">
      <!-- 0.50 -->
      <g transform="translate(362.731375 259.837401)scale(0.1 -0.1)">
       <use xlink:href="#DejaVuSans-30"/>
       <use xlink:href="#DejaVuSans-2e" x="63.623047"/>
       <use xlink:href="#DejaVuSans-35" x="95.410156"/>
       <use xlink:href="#DejaVuSans-30" x="159.033203"/>
      </g>
     </g>
    </g>
    <g id="ytick_18">
     <g id="line2d_18">
      <g>
       <use xlink:href="#m7c4014bbc2" x="391.997" y="228.809545" style="stroke: #000000; stroke-width: 0.8"/>
      </g>
     </g>
     <g id="text_24">
      <!-- 0.55 -->
      <g transform="translate(362.731375 232.608764)scale(0.1 -0.1)">
       <use xlink:href="#DejaVuSans-30"/>
       <use xlink:href="#DejaVuSans-2e" x="63.623047"/>
       <use xlink:href="#DejaVuSans-35" x="95.410156"/>
       <use xlink:href="#DejaVuSans-35" x="159.033203"/>
      </g>
     </g>
    </g>
    <g id="ytick_19">
     <g id="line2d_19">
      <g>
       <use xlink:href="#m7c4014bbc2" x="391.997" y="201.580909" style="stroke: #000000; stroke-width: 0.8"/>
      </g>
     </g>
     <g id="text_25">
      <!-- 0.60 -->
      <g transform="translate(362.731375 205.380128)scale(0.1 -0.1)">
       <use xlink:href="#DejaVuSans-30"/>
       <use xlink:href="#DejaVuSans-2e" x="63.623047"/>
       <use xlink:href="#DejaVuSans-36" x="95.410156"/>
       <use xlink:href="#DejaVuSans-30" x="159.033203"/>
      </g>
     </g>
    </g>
    <g id="ytick_20">
     <g id="line2d_20">
      <g>
       <use xlink:href="#m7c4014bbc2" x="391.997" y="174.352273" style="stroke: #000000; stroke-width: 0.8"/>
      </g>
     </g>
     <g id="text_26">
      <!-- 0.65 -->
      <g transform="translate(362.731375 178.151491)scale(0.1 -0.1)">
       <use xlink:href="#DejaVuSans-30"/>
       <use xlink:href="#DejaVuSans-2e" x="63.623047"/>
       <use xlink:href="#DejaVuSans-36" x="95.410156"/>
       <use xlink:href="#DejaVuSans-35" x="159.033203"/>
      </g>
     </g>
    </g>
    <g id="ytick_21">
     <g id="line2d_21">
      <g>
       <use xlink:href="#m7c4014bbc2" x="391.997" y="147.123636" style="stroke: #000000; stroke-width: 0.8"/>
      </g>
     </g>
     <g id="text_27">
      <!-- 0.70 -->
      <g transform="translate(362.731375 150.922855)scale(0.1 -0.1)">
       <use xlink:href="#DejaVuSans-30"/>
       <use xlink:href="#DejaVuSans-2e" x="63.623047"/>
       <use xlink:href="#DejaVuSans-37" x="95.410156"/>
       <use xlink:href="#DejaVuSans-30" x="159.033203"/>
      </g>
     </g>
    </g>
    <g id="ytick_22">
     <g id="line2d_22">
      <g>
       <use xlink:href="#m7c4014bbc2" x="391.997" y="119.895" style="stroke: #000000; stroke-width: 0.8"/>
      </g>
     </g>
     <g id="text_28">
      <!-- 0.75 -->
      <g transform="translate(362.731375 123.694219)scale(0.1 -0.1)">
       <use xlink:href="#DejaVuSans-30"/>
       <use xlink:href="#DejaVuSans-2e" x="63.623047"/>
       <use xlink:href="#DejaVuSans-37" x="95.410156"/>
       <use xlink:href="#DejaVuSans-35" x="159.033203"/>
      </g>
     </g>
    </g>
    <g id="ytick_23">
     <g id="line2d_23">
      <g>
       <use xlink:href="#m7c4014bbc2" x="391.997" y="92.666364" style="stroke: #000000; stroke-width: 0.8"/>
      </g>
     </g>
     <g id="text_29">
      <!-- 0.80 -->
      <g transform="translate(362.731375 96.465582)scale(0.1 -0.1)">
       <use xlink:href="#DejaVuSans-30"/>
       <use xlink:href="#DejaVuSans-2e" x="63.623047"/>
       <use xlink:href="#DejaVuSans-38" x="95.410156"/>
       <use xlink:href="#DejaVuSans-30" x="159.033203"/>
      </g>
     </g>
    </g>
    <g id="ytick_24">
     <g id="line2d_24">
      <g>
       <use xlink:href="#m7c4014bbc2" x="391.997" y="65.437727" style="stroke: #000000; stroke-width: 0.8"/>
      </g>
     </g>
     <g id="text_30">
      <!-- 0.85 -->
      <g transform="translate(362.731375 69.236946)scale(0.1 -0.1)">
       <use xlink:href="#DejaVuSans-30"/>
       <use xlink:href="#DejaVuSans-2e" x="63.623047"/>
       <use xlink:href="#DejaVuSans-38" x="95.410156"/>
       <use xlink:href="#DejaVuSans-35" x="159.033203"/>
      </g>
     </g>
    </g>
    <g id="text_31">
     <!-- % NOE fulfilled [1/100 %] -->
     <g transform="translate(356.651687 223.870781)rotate(-90)scale(0.1 -0.1)">
      <defs>
       <path id="DejaVuSans-25" d="M 4653 2053 
Q 4381 2053 4226 1822 
Q 4072 1591 4072 1178 
Q 4072 772 4226 539 
Q 4381 306 4653 306 
Q 4919 306 5073 539 
Q 5228 772 5228 1178 
Q 5228 1588 5073 1820 
Q 4919 2053 4653 2053 
z
M 4653 2450 
Q 5147 2450 5437 2106 
Q 5728 1763 5728 1178 
Q 5728 594 5436 251 
Q 5144 -91 4653 -91 
Q 4153 -91 3862 251 
Q 3572 594 3572 1178 
Q 3572 1766 3864 2108 
Q 4156 2450 4653 2450 
z
M 1428 4353 
Q 1159 4353 1004 4120 
Q 850 3888 850 3481 
Q 850 3069 1003 2837 
Q 1156 2606 1428 2606 
Q 1700 2606 1854 2837 
Q 2009 3069 2009 3481 
Q 2009 3884 1853 4118 
Q 1697 4353 1428 4353 
z
M 4250 4750 
L 4750 4750 
L 1831 -91 
L 1331 -91 
L 4250 4750 
z
M 1428 4750 
Q 1922 4750 2215 4408 
Q 2509 4066 2509 3481 
Q 2509 2891 2217 2550 
Q 1925 2209 1428 2209 
Q 931 2209 642 2551 
Q 353 2894 353 3481 
Q 353 4063 643 4406 
Q 934 4750 1428 4750 
z
" transform="scale(0.015625)"/>
       <path id="DejaVuSans-4e" d="M 628 4666 
L 1478 4666 
L 3547 763 
L 3547 4666 
L 4159 4666 
L 4159 0 
L 3309 0 
L 1241 3903 
L 1241 0 
L 628 0 
L 628 4666 
z
" transform="scale(0.015625)"/>
       <path id="DejaVuSans-4f" d="M 2522 4238 
Q 1834 4238 1429 3725 
Q 1025 3213 1025 2328 
Q 1025 1447 1429 934 
Q 1834 422 2522 422 
Q 3209 422 3611 934 
Q 4013 1447 4013 2328 
Q 4013 3213 3611 3725 
Q 3209 4238 2522 4238 
z
M 2522 4750 
Q 3503 4750 4090 4092 
Q 4678 3434 4678 2328 
Q 4678 1225 4090 567 
Q 3503 -91 2522 -91 
Q 1538 -91 948 565 
Q 359 1222 359 2328 
Q 359 3434 948 4092 
Q 1538 4750 2522 4750 
z
" transform="scale(0.015625)"/>
       <path id="DejaVuSans-66" d="M 2375 4863 
L 2375 4384 
L 1825 4384 
Q 1516 4384 1395 4259 
Q 1275 4134 1275 3809 
L 1275 3500 
L 2222 3500 
L 2222 3053 
L 1275 3053 
L 1275 0 
L 697 0 
L 697 3053 
L 147 3053 
L 147 3500 
L 697 3500 
L 697 3744 
Q 697 4328 969 4595 
Q 1241 4863 1831 4863 
L 2375 4863 
z
" transform="scale(0.015625)"/>
       <path id="DejaVuSans-75" d="M 544 1381 
L 544 3500 
L 1119 3500 
L 1119 1403 
Q 1119 906 1312 657 
Q 1506 409 1894 409 
Q 2359 409 2629 706 
Q 2900 1003 2900 1516 
L 2900 3500 
L 3475 3500 
L 3475 0 
L 2900 0 
L 2900 538 
Q 2691 219 2414 64 
Q 2138 -91 1772 -91 
Q 1169 -91 856 284 
Q 544 659 544 1381 
z
M 1991 3584 
L 1991 3584 
z
" transform="scale(0.015625)"/>
       <path id="DejaVuSans-6c" d="M 603 4863 
L 1178 4863 
L 1178 0 
L 603 0 
L 603 4863 
z
" transform="scale(0.015625)"/>
       <path id="DejaVuSans-69" d="M 603 3500 
L 1178 3500 
L 1178 0 
L 603 0 
L 603 3500 
z
M 603 4863 
L 1178 4863 
L 1178 4134 
L 603 4134 
L 603 4863 
z
" transform="scale(0.015625)"/>
       <path id="DejaVuSans-65" d="M 3597 1894 
L 3597 1613 
L 953 1613 
Q 991 1019 1311 708 
Q 1631 397 2203 397 
Q 2534 397 2845 478 
Q 3156 559 3463 722 
L 3463 178 
Q 3153 47 2828 -22 
Q 2503 -91 2169 -91 
Q 1331 -91 842 396 
Q 353 884 353 1716 
Q 353 2575 817 3079 
Q 1281 3584 2069 3584 
Q 2775 3584 3186 3129 
Q 3597 2675 3597 1894 
z
M 3022 2063 
Q 3016 2534 2758 2815 
Q 2500 3097 2075 3097 
Q 1594 3097 1305 2825 
Q 1016 2553 972 2059 
L 3022 2063 
z
" transform="scale(0.015625)"/>
       <path id="DejaVuSans-64" d="M 2906 2969 
L 2906 4863 
L 3481 4863 
L 3481 0 
L 2906 0 
L 2906 525 
Q 2725 213 2448 61 
Q 2172 -91 1784 -91 
Q 1150 -91 751 415 
Q 353 922 353 1747 
Q 353 2572 751 3078 
Q 1150 3584 1784 3584 
Q 2172 3584 2448 3432 
Q 2725 3281 2906 2969 
z
M 947 1747 
Q 947 1113 1208 752 
Q 1469 391 1925 391 
Q 2381 391 2643 752 
Q 2906 1113 2906 1747 
Q 2906 2381 2643 2742 
Q 2381 3103 1925 3103 
Q 1469 3103 1208 2742 
Q 947 2381 947 1747 
z
" transform="scale(0.015625)"/>
       <path id="DejaVuSans-2f" d="M 1625 4666 
L 2156 4666 
L 531 -594 
L 0 -594 
L 1625 4666 
z
" transform="scale(0.015625)"/>
      </defs>
      <use xlink:href="#DejaVuSans-25"/>
      <use xlink:href="#DejaVuSans-20" x="95.019531"/>
      <use xlink:href="#DejaVuSans-4e" x="126.806641"/>
      <use xlink:href="#DejaVuSans-4f" x="201.611328"/>
      <use xlink:href="#DejaVuSans-45" x="280.322266"/>
      <use xlink:href="#DejaVuSans-20" x="343.505859"/>
      <use xlink:href="#DejaVuSans-66" x="375.292969"/>
      <use xlink:href="#DejaVuSans-75" x="410.498047"/>
      <use xlink:href="#DejaVuSans-6c" x="473.876953"/>
      <use xlink:href="#DejaVuSans-66" x="501.660156"/>
      <use xlink:href="#DejaVuSans-69" x="536.865234"/>
      <use xlink:href="#DejaVuSans-6c" x="564.648438"/>
      <use xlink:href="#DejaVuSans-6c" x="592.431641"/>
      <use xlink:href="#DejaVuSans-65" x="620.214844"/>
      <use xlink:href="#DejaVuSans-64" x="681.738281"/>
      <use xlink:href="#DejaVuSans-20" x="745.214844"/>
      <use xlink:href="#DejaVuSans-5b" x="777.001953"/>
      <use xlink:href="#DejaVuSans-31" x="816.015625"/>
      <use xlink:href="#DejaVuSans-2f" x="879.638672"/>
      <use xlink:href="#DejaVuSans-31" x="913.330078"/>
      <use xlink:href="#DejaVuSans-30" x="976.953125"/>
      <use xlink:href="#DejaVuSans-30" x="1040.576172"/>
      <use xlink:href="#DejaVuSans-20" x="1104.199219"/>
      <use xlink:href="#DejaVuSans-25" x="1135.986328"/>
      <use xlink:href="#DejaVuSans-5d" x="1231.005859"/>
     </g>
    </g>
   </g>
   <g id="LineCollection_13">
    <path d="M 408.224682 186.899523 
L 435.270818 186.899523 
" clip-path="url(#p098c61b58e)" style="fill: none; stroke: #1f77b4; stroke-width: 1.5"/>
   </g>
   <g id="LineCollection_14">
    <path d="M 408.224682 57.342727 
L 435.270818 57.342727 
" clip-path="url(#p098c61b58e)" style="fill: none; stroke: #1f77b4; stroke-width: 1.5"/>
   </g>
   <g id="LineCollection_15">
    <path d="M 408.224682 263.397273 
L 435.270818 263.397273 
" clip-path="url(#p098c61b58e)" style="fill: none; stroke: #1f77b4; stroke-width: 1.5"/>
   </g>
   <g id="LineCollection_16">
    <path d="M 421.74775 263.397273 
L 421.74775 57.342727 
" clip-path="url(#p098c61b58e)" style="fill: none; stroke: #1f77b4; stroke-width: 1.5"/>
   </g>
   <g id="patch_18">
    <path d="M 391.997 273.7 
L 391.997 47.04 
" style="fill: none; stroke: #000000; stroke-width: 0.8; stroke-linejoin: miter; stroke-linecap: square"/>
   </g>
   <g id="patch_19">
    <path d="M 451.4985 273.7 
L 451.4985 47.04 
" style="fill: none; stroke: #000000; stroke-width: 0.8; stroke-linejoin: miter; stroke-linecap: square"/>
   </g>
   <g id="patch_20">
    <path d="M 391.997 273.7 
L 451.4985 273.7 
" style="fill: none; stroke: #000000; stroke-width: 0.8; stroke-linejoin: miter; stroke-linecap: square"/>
   </g>
   <g id="patch_21">
    <path d="M 391.997 47.04 
L 451.4985 47.04 
" style="fill: none; stroke: #000000; stroke-width: 0.8; stroke-linejoin: miter; stroke-linecap: square"/>
   </g>
   <g id="text_32">
    <!-- % NOE fulfilled -->
    <g transform="translate(377.034625 41.04)scale(0.12 -0.12)">
     <use xlink:href="#DejaVuSans-25"/>
     <use xlink:href="#DejaVuSans-20" x="95.019531"/>
     <use xlink:href="#DejaVuSans-4e" x="126.806641"/>
     <use xlink:href="#DejaVuSans-4f" x="201.611328"/>
     <use xlink:href="#DejaVuSans-45" x="280.322266"/>
     <use xlink:href="#DejaVuSans-20" x="343.505859"/>
     <use xlink:href="#DejaVuSans-66" x="375.292969"/>
     <use xlink:href="#DejaVuSans-75" x="410.498047"/>
     <use xlink:href="#DejaVuSans-6c" x="473.876953"/>
     <use xlink:href="#DejaVuSans-66" x="501.660156"/>
     <use xlink:href="#DejaVuSans-69" x="536.865234"/>
     <use xlink:href="#DejaVuSans-6c" x="564.648438"/>
     <use xlink:href="#DejaVuSans-6c" x="592.431641"/>
     <use xlink:href="#DejaVuSans-65" x="620.214844"/>
     <use xlink:href="#DejaVuSans-64" x="681.738281"/>
    </g>
   </g>
  </g>
  <g id="axes_5">
   <g id="patch_22">
    <path d="M 505.6985 273.7 
L 565.2 273.7 
L 565.2 47.04 
L 505.6985 47.04 
z
" style="fill: #ffffff"/>
   </g>
   <g id="PolyCollection_5">
    <path d="M 535.718406 263.397273 
L 535.180094 263.397273 
L 535.147242 261.315914 
L 535.114619 259.234555 
L 535.079409 257.153196 
L 535.03774 255.071837 
L 534.985321 252.990478 
L 534.918259 250.909118 
L 534.833913 248.827759 
L 534.731603 246.7464 
L 534.613001 244.665041 
L 534.482103 242.583682 
L 534.344741 240.502323 
L 534.207717 238.420964 
L 534.077679 236.339605 
L 533.95988 234.258246 
L 533.857013 232.176887 
L 533.768357 230.095528 
L 533.68953 228.014169 
L 533.612999 225.93281 
L 533.529266 223.851451 
L 533.428231 221.770092 
L 533.300064 219.688733 
L 533.134992 217.607374 
L 532.922012 215.526015 
L 532.647193 213.444656 
L 532.292781 211.363297 
L 531.838182 209.281938 
L 531.263122 207.200579 
L 530.552035 205.119219 
L 529.697803 203.03786 
L 528.702844 200.956501 
L 527.576638 198.875142 
L 526.330727 196.793783 
L 524.973894 194.712424 
L 523.510727 192.631065 
L 521.945283 190.549706 
L 520.288735 188.468347 
L 518.567193 186.386988 
L 516.825053 184.305629 
L 515.121145 182.22427 
L 513.518787 180.142911 
L 512.074446 178.061552 
L 510.830762 175.980193 
L 509.817232 173.898834 
L 509.05722 171.817475 
L 508.575921 169.736116 
L 508.403114 167.654757 
L 508.567619 165.573398 
L 509.085488 163.492039 
L 509.947956 161.41068 
L 511.115666 159.32932 
L 512.522422 157.247961 
L 514.086942 155.166602 
L 515.727494 153.085243 
L 517.373822 151.003884 
L 518.972988 148.922525 
L 520.489096 146.841166 
L 521.899374 144.759807 
L 523.18971 142.678448 
L 524.351916 140.597089 
L 525.383328 138.51573 
L 526.287994 136.434371 
L 527.077862 134.353012 
L 527.772435 132.271653 
L 528.396051 130.190294 
L 528.973135 128.108935 
L 529.522866 126.027576 
L 530.055214 123.946217 
L 530.569896 121.864858 
L 531.058573 119.783499 
L 531.50927 117.70214 
L 531.911208 115.620781 
L 532.258329 113.539421 
L 532.550693 111.458062 
L 532.793901 109.376703 
L 532.997375 107.295344 
L 533.172344 105.213985 
L 533.330014 103.132626 
L 533.480022 101.051267 
L 533.62911 98.969908 
L 533.780103 96.888549 
L 533.931476 94.80719 
L 534.07782 92.725831 
L 534.211337 90.644472 
L 534.324034 88.563113 
L 534.410044 86.481754 
L 534.467307 84.400395 
L 534.498144 82.319036 
L 534.508546 80.237677 
L 534.50654 78.156318 
L 534.500206 76.074959 
L 534.496055 73.9936 
L 534.498252 71.912241 
L 534.508826 69.830882 
L 534.528574 67.749522 
L 534.558129 65.668163 
L 534.598594 63.586804 
L 534.65143 61.505445 
L 534.717674 59.424086 
L 534.796913 57.342727 
L 536.101587 57.342727 
L 536.101587 57.342727 
L 536.180826 59.424086 
L 536.24707 61.505445 
L 536.299906 63.586804 
L 536.340371 65.668163 
L 536.369926 67.749522 
L 536.389674 69.830882 
L 536.400248 71.912241 
L 536.402445 73.9936 
L 536.398294 76.074959 
L 536.39196 78.156318 
L 536.389954 80.237677 
L 536.400356 82.319036 
L 536.431193 84.400395 
L 536.488456 86.481754 
L 536.574466 88.563113 
L 536.687163 90.644472 
L 536.82068 92.725831 
L 536.967024 94.80719 
L 537.118397 96.888549 
L 537.26939 98.969908 
L 537.418478 101.051267 
L 537.568486 103.132626 
L 537.726156 105.213985 
L 537.901125 107.295344 
L 538.104599 109.376703 
L 538.347807 111.458062 
L 538.640171 113.539421 
L 538.987292 115.620781 
L 539.38923 117.70214 
L 539.839927 119.783499 
L 540.328604 121.864858 
L 540.843286 123.946217 
L 541.375634 126.027576 
L 541.925365 128.108935 
L 542.502449 130.190294 
L 543.126065 132.271653 
L 543.820638 134.353012 
L 544.610506 136.434371 
L 545.515172 138.51573 
L 546.546584 140.597089 
L 547.70879 142.678448 
L 548.999126 144.759807 
L 550.409404 146.841166 
L 551.925512 148.922525 
L 553.524678 151.003884 
L 555.171006 153.085243 
L 556.811558 155.166602 
L 558.376078 157.247961 
L 559.782834 159.32932 
L 560.950544 161.41068 
L 561.813012 163.492039 
L 562.330881 165.573398 
L 562.495386 167.654757 
L 562.322579 169.736116 
L 561.84128 171.817475 
L 561.081268 173.898834 
L 560.067738 175.980193 
L 558.824054 178.061552 
L 557.379713 180.142911 
L 555.777355 182.22427 
L 554.073447 184.305629 
L 552.331307 186.386988 
L 550.609765 188.468347 
L 548.953217 190.549706 
L 547.387773 192.631065 
L 545.924606 194.712424 
L 544.567773 196.793783 
L 543.321862 198.875142 
L 542.195656 200.956501 
L 541.200697 203.03786 
L 540.346465 205.119219 
L 539.635378 207.200579 
L 539.060318 209.281938 
L 538.605719 211.363297 
L 538.251307 213.444656 
L 537.976488 215.526015 
L 537.763508 217.607374 
L 537.598436 219.688733 
L 537.470269 221.770092 
L 537.369234 223.851451 
L 537.285501 225.93281 
L 537.20897 228.014169 
L 537.130143 230.095528 
L 537.041487 232.176887 
L 536.93862 234.258246 
L 536.820821 236.339605 
L 536.690783 238.420964 
L 536.553759 240.502323 
L 536.416397 242.583682 
L 536.285499 244.665041 
L 536.166897 246.7464 
L 536.064587 248.827759 
L 535.980241 250.909118 
L 535.913179 252.990478 
L 535.86076 255.071837 
L 535.819091 257.153196 
L 535.783881 259.234555 
L 535.751258 261.315914 
L 535.718406 263.397273 
z
" clip-path="url(#p7bec983479)" style="fill: #1f77b4; fill-opacity: 0.3"/>
   </g>
   <g id="matplotlib.axis_5">
    <g id="ytick_25">
     <g id="line2d_25">
      <g>
       <use xlink:href="#m7c4014bbc2" x="505.6985" y="254.267296" style="stroke: #000000; stroke-width: 0.8"/>
      </g>
     </g>
     <g id="text_33">
      <!-- 0.2 -->
      <g transform="translate(482.795375 258.066515)scale(0.1 -0.1)">
       <use xlink:href="#DejaVuSans-30"/>
       <use xlink:href="#DejaVuSans-2e" x="63.623047"/>
       <use xlink:href="#DejaVuSans-32" x="95.410156"/>
      </g>
     </g>
    </g>
    <g id="ytick_26">
     <g id="line2d_26">
      <g>
       <use xlink:href="#m7c4014bbc2" x="505.6985" y="210.111958" style="stroke: #000000; stroke-width: 0.8"/>
      </g>
     </g>
     <g id="text_34">
      <!-- 0.3 -->
      <g transform="translate(482.795375 213.911177)scale(0.1 -0.1)">
       <use xlink:href="#DejaVuSans-30"/>
       <use xlink:href="#DejaVuSans-2e" x="63.623047"/>
       <use xlink:href="#DejaVuSans-33" x="95.410156"/>
      </g>
     </g>
    </g>
    <g id="ytick_27">
     <g id="line2d_27">
      <g>
       <use xlink:href="#m7c4014bbc2" x="505.6985" y="165.95662" style="stroke: #000000; stroke-width: 0.8"/>
      </g>
     </g>
     <g id="text_35">
      <!-- 0.4 -->
      <g transform="translate(482.795375 169.755839)scale(0.1 -0.1)">
       <use xlink:href="#DejaVuSans-30"/>
       <use xlink:href="#DejaVuSans-2e" x="63.623047"/>
       <use xlink:href="#DejaVuSans-34" x="95.410156"/>
      </g>
     </g>
    </g>
    <g id="ytick_28">
     <g id="line2d_28">
      <g>
       <use xlink:href="#m7c4014bbc2" x="505.6985" y="121.801282" style="stroke: #000000; stroke-width: 0.8"/>
      </g>
     </g>
     <g id="text_36">
      <!-- 0.5 -->
      <g transform="translate(482.795375 125.6005)scale(0.1 -0.1)">
       <use xlink:href="#DejaVuSans-30"/>
       <use xlink:href="#DejaVuSans-2e" x="63.623047"/>
       <use xlink:href="#DejaVuSans-35" x="95.410156"/>
      </g>
     </g>
    </g>
    <g id="ytick_29">
     <g id="line2d_29">
      <g>
       <use xlink:href="#m7c4014bbc2" x="505.6985" y="77.645944" style="stroke: #000000; stroke-width: 0.8"/>
      </g>
     </g>
     <g id="text_37">
      <!-- 0.6 -->
      <g transform="translate(482.795375 81.445162)scale(0.1 -0.1)">
       <use xlink:href="#DejaVuSans-30"/>
       <use xlink:href="#DejaVuSans-2e" x="63.623047"/>
       <use xlink:href="#DejaVuSans-36" x="95.410156"/>
      </g>
     </g>
    </g>
    <g id="text_38">
     <!-- RMSD stepwise [$\AA$] -->
     <g transform="translate(476.695375 207.67)rotate(-90)scale(0.1 -0.1)">
      <defs>
       <path id="DejaVuSans-73" d="M 2834 3397 
L 2834 2853 
Q 2591 2978 2328 3040 
Q 2066 3103 1784 3103 
Q 1356 3103 1142 2972 
Q 928 2841 928 2578 
Q 928 2378 1081 2264 
Q 1234 2150 1697 2047 
L 1894 2003 
Q 2506 1872 2764 1633 
Q 3022 1394 3022 966 
Q 3022 478 2636 193 
Q 2250 -91 1575 -91 
Q 1294 -91 989 -36 
Q 684 19 347 128 
L 347 722 
Q 666 556 975 473 
Q 1284 391 1588 391 
Q 1994 391 2212 530 
Q 2431 669 2431 922 
Q 2431 1156 2273 1281 
Q 2116 1406 1581 1522 
L 1381 1569 
Q 847 1681 609 1914 
Q 372 2147 372 2553 
Q 372 3047 722 3315 
Q 1072 3584 1716 3584 
Q 2034 3584 2315 3537 
Q 2597 3491 2834 3397 
z
" transform="scale(0.015625)"/>
       <path id="DejaVuSans-74" d="M 1172 4494 
L 1172 3500 
L 2356 3500 
L 2356 3053 
L 1172 3053 
L 1172 1153 
Q 1172 725 1289 603 
Q 1406 481 1766 481 
L 2356 481 
L 2356 0 
L 1766 0 
Q 1100 0 847 248 
Q 594 497 594 1153 
L 594 3053 
L 172 3053 
L 172 3500 
L 594 3500 
L 594 4494 
L 1172 4494 
z
" transform="scale(0.015625)"/>
       <path id="DejaVuSans-70" d="M 1159 525 
L 1159 -1331 
L 581 -1331 
L 581 3500 
L 1159 3500 
L 1159 2969 
Q 1341 3281 1617 3432 
Q 1894 3584 2278 3584 
Q 2916 3584 3314 3078 
Q 3713 2572 3713 1747 
Q 3713 922 3314 415 
Q 2916 -91 2278 -91 
Q 1894 -91 1617 61 
Q 1341 213 1159 525 
z
M 3116 1747 
Q 3116 2381 2855 2742 
Q 2594 3103 2138 3103 
Q 1681 3103 1420 2742 
Q 1159 2381 1159 1747 
Q 1159 1113 1420 752 
Q 1681 391 2138 391 
Q 2594 391 2855 752 
Q 3116 1113 3116 1747 
z
" transform="scale(0.015625)"/>
       <path id="DejaVuSans-77" d="M 269 3500 
L 844 3500 
L 1563 769 
L 2278 3500 
L 2956 3500 
L 3675 769 
L 4391 3500 
L 4966 3500 
L 4050 0 
L 3372 0 
L 2619 2869 
L 1863 0 
L 1184 0 
L 269 3500 
z
" transform="scale(0.015625)"/>
      </defs>
      <use xlink:href="#DejaVuSans-52" transform="translate(0 0.171875)"/>
      <use xlink:href="#DejaVuSans-4d" transform="translate(69.482422 0.171875)"/>
      <use xlink:href="#DejaVuSans-53" transform="translate(155.761719 0.171875)"/>
      <use xlink:href="#DejaVuSans-44" transform="translate(219.238281 0.171875)"/>
      <use xlink:href="#DejaVuSans-20" transform="translate(296.240234 0.171875)"/>
      <use xlink:href="#DejaVuSans-73" transform="translate(328.027344 0.171875)"/>
      <use xlink:href="#DejaVuSans-74" transform="translate(380.126953 0.171875)"/>
      <use xlink:href="#DejaVuSans-65" transform="translate(419.335938 0.171875)"/>
      <use xlink:href="#DejaVuSans-70" transform="translate(480.859375 0.171875)"/>
      <use xlink:href="#DejaVuSans-77" transform="translate(544.335938 0.171875)"/>
      <use xlink:href="#DejaVuSans-69" transform="translate(626.123047 0.171875)"/>
      <use xlink:href="#DejaVuSans-73" transform="translate(653.90625 0.171875)"/>
      <use xlink:href="#DejaVuSans-65" transform="translate(706.005859 0.171875)"/>
      <use xlink:href="#DejaVuSans-20" transform="translate(767.529297 0.171875)"/>
      <use xlink:href="#DejaVuSans-5b" transform="translate(799.316406 0.171875)"/>
      <use xlink:href="#DejaVuSans-Oblique-c5" transform="translate(838.330078 0.171875)"/>
      <use xlink:href="#DejaVuSans-5d" transform="translate(906.738281 0.171875)"/>
     </g>
    </g>
   </g>
   <g id="LineCollection_17">
    <path d="M 521.926182 164.211689 
L 548.972318 164.211689 
" clip-path="url(#p7bec983479)" style="fill: none; stroke: #1f77b4; stroke-width: 1.5"/>
   </g>
   <g id="LineCollection_18">
    <path d="M 521.926182 57.342727 
L 548.972318 57.342727 
" clip-path="url(#p7bec983479)" style="fill: none; stroke: #1f77b4; stroke-width: 1.5"/>
   </g>
   <g id="LineCollection_19">
    <path d="M 521.926182 263.397273 
L 548.972318 263.397273 
" clip-path="url(#p7bec983479)" style="fill: none; stroke: #1f77b4; stroke-width: 1.5"/>
   </g>
   <g id="LineCollection_20">
    <path d="M 535.44925 263.397273 
L 535.44925 57.342727 
" clip-path="url(#p7bec983479)" style="fill: none; stroke: #1f77b4; stroke-width: 1.5"/>
   </g>
   <g id="patch_23">
    <path d="M 505.6985 273.7 
L 505.6985 47.04 
" style="fill: none; stroke: #000000; stroke-width: 0.8; stroke-linejoin: miter; stroke-linecap: square"/>
   </g>
   <g id="patch_24">
    <path d="M 565.2 273.7 
L 565.2 47.04 
" style="fill: none; stroke: #000000; stroke-width: 0.8; stroke-linejoin: miter; stroke-linecap: square"/>
   </g>
   <g id="patch_25">
    <path d="M 505.6985 273.7 
L 565.2 273.7 
" style="fill: none; stroke: #000000; stroke-width: 0.8; stroke-linejoin: miter; stroke-linecap: square"/>
   </g>
   <g id="patch_26">
    <path d="M 505.6985 47.04 
L 565.2 47.04 
" style="fill: none; stroke: #000000; stroke-width: 0.8; stroke-linejoin: miter; stroke-linecap: square"/>
   </g>
   <g id="text_39">
    <!-- RMSD stepwise -->
    <g transform="translate(489.397375 41.04)scale(0.12 -0.12)">
     <use xlink:href="#DejaVuSans-52"/>
     <use xlink:href="#DejaVuSans-4d" x="69.482422"/>
     <use xlink:href="#DejaVuSans-53" x="155.761719"/>
     <use xlink:href="#DejaVuSans-44" x="219.238281"/>
     <use xlink:href="#DejaVuSans-20" x="296.240234"/>
     <use xlink:href="#DejaVuSans-73" x="328.027344"/>
     <use xlink:href="#DejaVuSans-74" x="380.126953"/>
     <use xlink:href="#DejaVuSans-65" x="419.335938"/>
     <use xlink:href="#DejaVuSans-70" x="480.859375"/>
     <use xlink:href="#DejaVuSans-77" x="544.335938"/>
     <use xlink:href="#DejaVuSans-69" x="626.123047"/>
     <use xlink:href="#DejaVuSans-73" x="653.90625"/>
     <use xlink:href="#DejaVuSans-65" x="706.005859"/>
    </g>
   </g>
  </g>
  <g id="text_40">
   <!-- Compound 41. Omega -->
   <g transform="translate(220.299375 14.878125)scale(0.12 -0.12)">
    <defs>
     <path id="DejaVuSans-43" d="M 4122 4306 
L 4122 3641 
Q 3803 3938 3442 4084 
Q 3081 4231 2675 4231 
Q 1875 4231 1450 3742 
Q 1025 3253 1025 2328 
Q 1025 1406 1450 917 
Q 1875 428 2675 428 
Q 3081 428 3442 575 
Q 3803 722 4122 1019 
L 4122 359 
Q 3791 134 3420 21 
Q 3050 -91 2638 -91 
Q 1578 -91 968 557 
Q 359 1206 359 2328 
Q 359 3453 968 4101 
Q 1578 4750 2638 4750 
Q 3056 4750 3426 4639 
Q 3797 4528 4122 4306 
z
" transform="scale(0.015625)"/>
     <path id="DejaVuSans-6f" d="M 1959 3097 
Q 1497 3097 1228 2736 
Q 959 2375 959 1747 
Q 959 1119 1226 758 
Q 1494 397 1959 397 
Q 2419 397 2687 759 
Q 2956 1122 2956 1747 
Q 2956 2369 2687 2733 
Q 2419 3097 1959 3097 
z
M 1959 3584 
Q 2709 3584 3137 3096 
Q 3566 2609 3566 1747 
Q 3566 888 3137 398 
Q 2709 -91 1959 -91 
Q 1206 -91 779 398 
Q 353 888 353 1747 
Q 353 2609 779 3096 
Q 1206 3584 1959 3584 
z
" transform="scale(0.015625)"/>
     <path id="DejaVuSans-6d" d="M 3328 2828 
Q 3544 3216 3844 3400 
Q 4144 3584 4550 3584 
Q 5097 3584 5394 3201 
Q 5691 2819 5691 2113 
L 5691 0 
L 5113 0 
L 5113 2094 
Q 5113 2597 4934 2840 
Q 4756 3084 4391 3084 
Q 3944 3084 3684 2787 
Q 3425 2491 3425 1978 
L 3425 0 
L 2847 0 
L 2847 2094 
Q 2847 2600 2669 2842 
Q 2491 3084 2119 3084 
Q 1678 3084 1418 2786 
Q 1159 2488 1159 1978 
L 1159 0 
L 581 0 
L 581 3500 
L 1159 3500 
L 1159 2956 
Q 1356 3278 1631 3431 
Q 1906 3584 2284 3584 
Q 2666 3584 2933 3390 
Q 3200 3197 3328 2828 
z
" transform="scale(0.015625)"/>
     <path id="DejaVuSans-6e" d="M 3513 2113 
L 3513 0 
L 2938 0 
L 2938 2094 
Q 2938 2591 2744 2837 
Q 2550 3084 2163 3084 
Q 1697 3084 1428 2787 
Q 1159 2491 1159 1978 
L 1159 0 
L 581 0 
L 581 3500 
L 1159 3500 
L 1159 2956 
Q 1366 3272 1645 3428 
Q 1925 3584 2291 3584 
Q 2894 3584 3203 3211 
Q 3513 2838 3513 2113 
z
" transform="scale(0.015625)"/>
     <path id="DejaVuSans-67" d="M 2906 1791 
Q 2906 2416 2648 2759 
Q 2391 3103 1925 3103 
Q 1463 3103 1205 2759 
Q 947 2416 947 1791 
Q 947 1169 1205 825 
Q 1463 481 1925 481 
Q 2391 481 2648 825 
Q 2906 1169 2906 1791 
z
M 3481 434 
Q 3481 -459 3084 -895 
Q 2688 -1331 1869 -1331 
Q 1566 -1331 1297 -1286 
Q 1028 -1241 775 -1147 
L 775 -588 
Q 1028 -725 1275 -790 
Q 1522 -856 1778 -856 
Q 2344 -856 2625 -561 
Q 2906 -266 2906 331 
L 2906 616 
Q 2728 306 2450 153 
Q 2172 0 1784 0 
Q 1141 0 747 490 
Q 353 981 353 1791 
Q 353 2603 747 3093 
Q 1141 3584 1784 3584 
Q 2172 3584 2450 3431 
Q 2728 3278 2906 2969 
L 2906 3500 
L 3481 3500 
L 3481 434 
z
" transform="scale(0.015625)"/>
     <path id="DejaVuSans-61" d="M 2194 1759 
Q 1497 1759 1228 1600 
Q 959 1441 959 1056 
Q 959 750 1161 570 
Q 1363 391 1709 391 
Q 2188 391 2477 730 
Q 2766 1069 2766 1631 
L 2766 1759 
L 2194 1759 
z
M 3341 1997 
L 3341 0 
L 2766 0 
L 2766 531 
Q 2569 213 2275 61 
Q 1981 -91 1556 -91 
Q 1019 -91 701 211 
Q 384 513 384 1019 
Q 384 1609 779 1909 
Q 1175 2209 1959 2209 
L 2766 2209 
L 2766 2266 
Q 2766 2663 2505 2880 
Q 2244 3097 1772 3097 
Q 1472 3097 1187 3025 
Q 903 2953 641 2809 
L 641 3341 
Q 956 3463 1253 3523 
Q 1550 3584 1831 3584 
Q 2591 3584 2966 3190 
Q 3341 2797 3341 1997 
z
" transform="scale(0.015625)"/>
    </defs>
    <use xlink:href="#DejaVuSans-43"/>
    <use xlink:href="#DejaVuSans-6f" x="69.824219"/>
    <use xlink:href="#DejaVuSans-6d" x="131.005859"/>
    <use xlink:href="#DejaVuSans-70" x="228.417969"/>
    <use xlink:href="#DejaVuSans-6f" x="291.894531"/>
    <use xlink:href="#DejaVuSans-75" x="353.076172"/>
    <use xlink:href="#DejaVuSans-6e" x="416.455078"/>
    <use xlink:href="#DejaVuSans-64" x="479.833984"/>
    <use xlink:href="#DejaVuSans-20" x="543.310547"/>
    <use xlink:href="#DejaVuSans-34" x="575.097656"/>
    <use xlink:href="#DejaVuSans-31" x="638.720703"/>
    <use xlink:href="#DejaVuSans-2e" x="702.34375"/>
    <use xlink:href="#DejaVuSans-20" x="734.130859"/>
    <use xlink:href="#DejaVuSans-4f" x="765.917969"/>
    <use xlink:href="#DejaVuSans-6d" x="844.628906"/>
    <use xlink:href="#DejaVuSans-65" x="942.041016"/>
    <use xlink:href="#DejaVuSans-67" x="1003.564453"/>
    <use xlink:href="#DejaVuSans-61" x="1067.041016"/>
   </g>
  </g>
 </g>
 <defs>
  <clipPath id="p9023c71f52">
   <rect x="50.8925" y="47.04" width="59.5015" height="226.66"/>
  </clipPath>
  <clipPath id="pafda21e6b5">
   <rect x="164.594" y="47.04" width="59.5015" height="226.66"/>
  </clipPath>
  <clipPath id="p7c75e90252">
   <rect x="278.2955" y="47.04" width="59.5015" height="226.66"/>
  </clipPath>
  <clipPath id="p098c61b58e">
   <rect x="391.997" y="47.04" width="59.5015" height="226.66"/>
  </clipPath>
  <clipPath id="p7bec983479">
   <rect x="505.6985" y="47.04" width="59.5015" height="226.66"/>
  </clipPath>
 </defs>
</svg>
