<?xml version="1.0" encoding="utf-8" standalone="no"?>
<!DOCTYPE svg PUBLIC "-//W3C//DTD SVG 1.1//EN"
  "http://www.w3.org/Graphics/SVG/1.1/DTD/svg11.dtd">
<svg xmlns:xlink="http://www.w3.org/1999/xlink" width="576pt" height="288pt" viewBox="0 0 576 288" xmlns="http://www.w3.org/2000/svg" version="1.1">
 <metadata>
  <rdf:RDF xmlns:dc="http://purl.org/dc/elements/1.1/" xmlns:cc="http://creativecommons.org/ns#" xmlns:rdf="http://www.w3.org/1999/02/22-rdf-syntax-ns#">
   <cc:Work>
    <dc:type rdf:resource="http://purl.org/dc/dcmitype/StillImage"/>
    <dc:date>2023-05-31T12:20:13.813313</dc:date>
    <dc:format>image/svg+xml</dc:format>
    <dc:creator>
     <cc:Agent>
      <dc:title>Matplotlib v3.5.3, https://matplotlib.org/</dc:title>
     </cc:Agent>
    </dc:creator>
   </cc:Work>
  </rdf:RDF>
 </metadata>
 <defs>
  <style type="text/css">*{stroke-linejoin: round; stroke-linecap: butt}</style>
 </defs>
 <g id="figure_1">
  <g id="patch_1">
   <path d="M 0 288 
L 576 288 
L 576 0 
L 0 0 
z
" style="fill: #ffffff"/>
  </g>
  <g id="axes_1">
   <g id="patch_2">
    <path d="M 57.2825 273.7 
L 112.05 273.7 
L 112.05 47.90625 
L 57.2825 47.90625 
z
" style="fill: #ffffff"/>
   </g>
   <g id="PolyCollection_1">
    <path d="M 87.280574 263.436648 
L 82.051926 263.436648 
L 81.520549 261.363243 
L 80.926774 259.289839 
L 80.273155 257.216434 
L 79.56469 255.14303 
L 78.80881 253.069625 
L 78.015054 250.996221 
L 77.194416 248.922816 
L 76.358384 246.849412 
L 75.517792 244.776007 
L 74.681638 242.702603 
L 73.856062 240.629198 
L 73.043667 238.555794 
L 72.243329 236.482389 
L 71.450557 234.408985 
L 70.6584 232.33558 
L 69.858814 230.262176 
L 69.044318 228.188771 
L 68.209732 226.115367 
L 67.353762 224.041962 
L 66.48019 221.968558 
L 65.598466 219.895153 
L 64.723553 217.821749 
L 63.874967 215.748344 
L 63.075081 213.67494 
L 62.346845 211.601535 
L 61.711223 209.528131 
L 61.184667 207.454726 
L 60.777015 205.381322 
L 60.490097 203.307917 
L 60.317283 201.234513 
L 60.244045 199.161108 
L 60.249458 197.087704 
L 60.30844 195.014299 
L 60.394431 192.940895 
L 60.482159 190.86749 
L 60.55015 188.794086 
L 60.582689 186.720681 
L 60.571032 184.647277 
L 60.513767 182.573872 
L 60.416342 180.500468 
L 60.289866 178.427063 
L 60.149374 176.353659 
L 60.011791 174.280254 
L 59.893851 172.20685 
L 59.810206 170.133445 
L 59.771932 168.060041 
L 59.785584 165.986636 
L 59.852872 163.913232 
L 59.970965 161.839827 
L 60.133358 159.766423 
L 60.331172 157.693018 
L 60.554723 155.619614 
L 60.795153 153.546209 
L 61.045932 151.472805 
L 61.304054 149.3994 
L 61.570787 147.325996 
L 61.85188 145.252591 
L 62.157212 143.179187 
L 62.499909 141.105782 
L 62.895013 139.032378 
L 63.357854 136.958973 
L 63.902291 134.885569 
L 64.539024 132.812164 
L 65.274151 130.73876 
L 66.108159 128.665355 
L 67.035439 126.591951 
L 68.044401 124.518546 
L 69.118154 122.445142 
L 70.235673 120.371737 
L 71.373304 118.298333 
L 72.506435 116.224928 
L 73.611145 114.151524 
L 74.665686 112.078119 
L 75.65166 110.004715 
L 76.55484 107.93131 
L 77.365602 105.857906 
L 78.07901 103.784501 
L 78.694597 101.711097 
L 79.215928 99.637692 
L 79.650005 97.564288 
L 80.006584 95.490883 
L 80.297441 93.417479 
L 80.535621 91.344074 
L 80.734683 89.27067 
L 80.907942 87.197265 
L 81.067751 85.123861 
L 81.224834 83.050456 
L 81.387724 80.977052 
L 81.562371 78.903647 
L 81.751956 76.830243 
L 81.956955 74.756838 
L 82.175447 72.683434 
L 82.403632 70.610029 
L 82.636486 68.536625 
L 82.868468 66.46322 
L 83.094165 64.389816 
L 83.308823 62.316411 
L 83.508692 60.243007 
L 83.691178 58.169602 
L 85.641322 58.169602 
L 85.641322 58.169602 
L 85.823808 60.243007 
L 86.023677 62.316411 
L 86.238335 64.389816 
L 86.464032 66.46322 
L 86.696014 68.536625 
L 86.928868 70.610029 
L 87.157053 72.683434 
L 87.375545 74.756838 
L 87.580544 76.830243 
L 87.770129 78.903647 
L 87.944776 80.977052 
L 88.107666 83.050456 
L 88.264749 85.123861 
L 88.424558 87.197265 
L 88.597817 89.27067 
L 88.796879 91.344074 
L 89.035059 93.417479 
L 89.325916 95.490883 
L 89.682495 97.564288 
L 90.116572 99.637692 
L 90.637903 101.711097 
L 91.25349 103.784501 
L 91.966898 105.857906 
L 92.77766 107.93131 
L 93.68084 110.004715 
L 94.666814 112.078119 
L 95.721355 114.151524 
L 96.826065 116.224928 
L 97.959196 118.298333 
L 99.096827 120.371737 
L 100.214346 122.445142 
L 101.288099 124.518546 
L 102.297061 126.591951 
L 103.224341 128.665355 
L 104.058349 130.73876 
L 104.793476 132.812164 
L 105.430209 134.885569 
L 105.974646 136.958973 
L 106.437487 139.032378 
L 106.832591 141.105782 
L 107.175288 143.179187 
L 107.48062 145.252591 
L 107.761713 147.325996 
L 108.028446 149.3994 
L 108.286568 151.472805 
L 108.537347 153.546209 
L 108.777777 155.619614 
L 109.001328 157.693018 
L 109.199142 159.766423 
L 109.361535 161.839827 
L 109.479628 163.913232 
L 109.546916 165.986636 
L 109.560568 168.060041 
L 109.522294 170.133445 
L 109.438649 172.20685 
L 109.320709 174.280254 
L 109.183126 176.353659 
L 109.042634 178.427063 
L 108.916158 180.500468 
L 108.818733 182.573872 
L 108.761468 184.647277 
L 108.749811 186.720681 
L 108.78235 188.794086 
L 108.850341 190.86749 
L 108.938069 192.940895 
L 109.02406 195.014299 
L 109.083042 197.087704 
L 109.088455 199.161108 
L 109.015217 201.234513 
L 108.842403 203.307917 
L 108.555485 205.381322 
L 108.147833 207.454726 
L 107.621277 209.528131 
L 106.985655 211.601535 
L 106.257419 213.67494 
L 105.457533 215.748344 
L 104.608947 217.821749 
L 103.734034 219.895153 
L 102.85231 221.968558 
L 101.978738 224.041962 
L 101.122768 226.115367 
L 100.288182 228.188771 
L 99.473686 230.262176 
L 98.6741 232.33558 
L 97.881943 234.408985 
L 97.089171 236.482389 
L 96.288833 238.555794 
L 95.476438 240.629198 
L 94.650862 242.702603 
L 93.814708 244.776007 
L 92.974116 246.849412 
L 92.138084 248.922816 
L 91.317446 250.996221 
L 90.52369 253.069625 
L 89.76781 255.14303 
L 89.059345 257.216434 
L 88.405726 259.289839 
L 87.811951 261.363243 
L 87.280574 263.436648 
z
" clip-path="url(#p9eabf45de0)" style="fill: #1f77b4; fill-opacity: 0.3"/>
   </g>
   <g id="matplotlib.axis_1">
    <g id="ytick_1">
     <g id="line2d_1">
      <defs>
       <path id="m5049dfa5f2" d="M 0 0 
L -3.5 0 
" style="stroke: #000000; stroke-width: 0.8"/>
      </defs>
      <g>
       <use xlink:href="#m5049dfa5f2" x="57.2825" y="244.997686" style="stroke: #000000; stroke-width: 0.8"/>
      </g>
     </g>
     <g id="text_1">
      <!-- 0.50 -->
      <g transform="translate(28.016875 248.796905)scale(0.1 -0.1)">
       <defs>
        <path id="DejaVuSans-30" d="M 2034 4250 
Q 1547 4250 1301 3770 
Q 1056 3291 1056 2328 
Q 1056 1369 1301 889 
Q 1547 409 2034 409 
Q 2525 409 2770 889 
Q 3016 1369 3016 2328 
Q 3016 3291 2770 3770 
Q 2525 4250 2034 4250 
z
M 2034 4750 
Q 2819 4750 3233 4129 
Q 3647 3509 3647 2328 
Q 3647 1150 3233 529 
Q 2819 -91 2034 -91 
Q 1250 -91 836 529 
Q 422 1150 422 2328 
Q 422 3509 836 4129 
Q 1250 4750 2034 4750 
z
" transform="scale(0.015625)"/>
        <path id="DejaVuSans-2e" d="M 684 794 
L 1344 794 
L 1344 0 
L 684 0 
L 684 794 
z
" transform="scale(0.015625)"/>
        <path id="DejaVuSans-35" d="M 691 4666 
L 3169 4666 
L 3169 4134 
L 1269 4134 
L 1269 2991 
Q 1406 3038 1543 3061 
Q 1681 3084 1819 3084 
Q 2600 3084 3056 2656 
Q 3513 2228 3513 1497 
Q 3513 744 3044 326 
Q 2575 -91 1722 -91 
Q 1428 -91 1123 -41 
Q 819 9 494 109 
L 494 744 
Q 775 591 1075 516 
Q 1375 441 1709 441 
Q 2250 441 2565 725 
Q 2881 1009 2881 1497 
Q 2881 1984 2565 2268 
Q 2250 2553 1709 2553 
Q 1456 2553 1204 2497 
Q 953 2441 691 2322 
L 691 4666 
z
" transform="scale(0.015625)"/>
       </defs>
       <use xlink:href="#DejaVuSans-30"/>
       <use xlink:href="#DejaVuSans-2e" x="63.623047"/>
       <use xlink:href="#DejaVuSans-35" x="95.410156"/>
       <use xlink:href="#DejaVuSans-30" x="159.033203"/>
      </g>
     </g>
    </g>
    <g id="ytick_2">
     <g id="line2d_2">
      <g>
       <use xlink:href="#m5049dfa5f2" x="57.2825" y="215.373303" style="stroke: #000000; stroke-width: 0.8"/>
      </g>
     </g>
     <g id="text_2">
      <!-- 0.75 -->
      <g transform="translate(28.016875 219.172522)scale(0.1 -0.1)">
       <defs>
        <path id="DejaVuSans-37" d="M 525 4666 
L 3525 4666 
L 3525 4397 
L 1831 0 
L 1172 0 
L 2766 4134 
L 525 4134 
L 525 4666 
z
" transform="scale(0.015625)"/>
       </defs>
       <use xlink:href="#DejaVuSans-30"/>
       <use xlink:href="#DejaVuSans-2e" x="63.623047"/>
       <use xlink:href="#DejaVuSans-37" x="95.410156"/>
       <use xlink:href="#DejaVuSans-35" x="159.033203"/>
      </g>
     </g>
    </g>
    <g id="ytick_3">
     <g id="line2d_3">
      <g>
       <use xlink:href="#m5049dfa5f2" x="57.2825" y="185.74892" style="stroke: #000000; stroke-width: 0.8"/>
      </g>
     </g>
     <g id="text_3">
      <!-- 1.00 -->
      <g transform="translate(28.016875 189.548139)scale(0.1 -0.1)">
       <defs>
        <path id="DejaVuSans-31" d="M 794 531 
L 1825 531 
L 1825 4091 
L 703 3866 
L 703 4441 
L 1819 4666 
L 2450 4666 
L 2450 531 
L 3481 531 
L 3481 0 
L 794 0 
L 794 531 
z
" transform="scale(0.015625)"/>
       </defs>
       <use xlink:href="#DejaVuSans-31"/>
       <use xlink:href="#DejaVuSans-2e" x="63.623047"/>
       <use xlink:href="#DejaVuSans-30" x="95.410156"/>
       <use xlink:href="#DejaVuSans-30" x="159.033203"/>
      </g>
     </g>
    </g>
    <g id="ytick_4">
     <g id="line2d_4">
      <g>
       <use xlink:href="#m5049dfa5f2" x="57.2825" y="156.124537" style="stroke: #000000; stroke-width: 0.8"/>
      </g>
     </g>
     <g id="text_4">
      <!-- 1.25 -->
      <g transform="translate(28.016875 159.923756)scale(0.1 -0.1)">
       <defs>
        <path id="DejaVuSans-32" d="M 1228 531 
L 3431 531 
L 3431 0 
L 469 0 
L 469 531 
Q 828 903 1448 1529 
Q 2069 2156 2228 2338 
Q 2531 2678 2651 2914 
Q 2772 3150 2772 3378 
Q 2772 3750 2511 3984 
Q 2250 4219 1831 4219 
Q 1534 4219 1204 4116 
Q 875 4013 500 3803 
L 500 4441 
Q 881 4594 1212 4672 
Q 1544 4750 1819 4750 
Q 2544 4750 2975 4387 
Q 3406 4025 3406 3419 
Q 3406 3131 3298 2873 
Q 3191 2616 2906 2266 
Q 2828 2175 2409 1742 
Q 1991 1309 1228 531 
z
" transform="scale(0.015625)"/>
       </defs>
       <use xlink:href="#DejaVuSans-31"/>
       <use xlink:href="#DejaVuSans-2e" x="63.623047"/>
       <use xlink:href="#DejaVuSans-32" x="95.410156"/>
       <use xlink:href="#DejaVuSans-35" x="159.033203"/>
      </g>
     </g>
    </g>
    <g id="ytick_5">
     <g id="line2d_5">
      <g>
       <use xlink:href="#m5049dfa5f2" x="57.2825" y="126.500154" style="stroke: #000000; stroke-width: 0.8"/>
      </g>
     </g>
     <g id="text_5">
      <!-- 1.50 -->
      <g transform="translate(28.016875 130.299373)scale(0.1 -0.1)">
       <use xlink:href="#DejaVuSans-31"/>
       <use xlink:href="#DejaVuSans-2e" x="63.623047"/>
       <use xlink:href="#DejaVuSans-35" x="95.410156"/>
       <use xlink:href="#DejaVuSans-30" x="159.033203"/>
      </g>
     </g>
    </g>
    <g id="ytick_6">
     <g id="line2d_6">
      <g>
       <use xlink:href="#m5049dfa5f2" x="57.2825" y="96.875771" style="stroke: #000000; stroke-width: 0.8"/>
      </g>
     </g>
     <g id="text_6">
      <!-- 1.75 -->
      <g transform="translate(28.016875 100.67499)scale(0.1 -0.1)">
       <use xlink:href="#DejaVuSans-31"/>
       <use xlink:href="#DejaVuSans-2e" x="63.623047"/>
       <use xlink:href="#DejaVuSans-37" x="95.410156"/>
       <use xlink:href="#DejaVuSans-35" x="159.033203"/>
      </g>
     </g>
    </g>
    <g id="ytick_7">
     <g id="line2d_7">
      <g>
       <use xlink:href="#m5049dfa5f2" x="57.2825" y="67.251388" style="stroke: #000000; stroke-width: 0.8"/>
      </g>
     </g>
     <g id="text_7">
      <!-- 2.00 -->
      <g transform="translate(28.016875 71.050607)scale(0.1 -0.1)">
       <use xlink:href="#DejaVuSans-32"/>
       <use xlink:href="#DejaVuSans-2e" x="63.623047"/>
       <use xlink:href="#DejaVuSans-30" x="95.410156"/>
       <use xlink:href="#DejaVuSans-30" x="159.033203"/>
      </g>
     </g>
    </g>
    <g id="text_8">
     <!-- RMSD [$\AA$] -->
     <g transform="translate(21.937187 184.553125)rotate(-90)scale(0.1 -0.1)">
      <defs>
       <path id="DejaVuSans-52" d="M 2841 2188 
Q 3044 2119 3236 1894 
Q 3428 1669 3622 1275 
L 4263 0 
L 3584 0 
L 2988 1197 
Q 2756 1666 2539 1819 
Q 2322 1972 1947 1972 
L 1259 1972 
L 1259 0 
L 628 0 
L 628 4666 
L 2053 4666 
Q 2853 4666 3247 4331 
Q 3641 3997 3641 3322 
Q 3641 2881 3436 2590 
Q 3231 2300 2841 2188 
z
M 1259 4147 
L 1259 2491 
L 2053 2491 
Q 2509 2491 2742 2702 
Q 2975 2913 2975 3322 
Q 2975 3731 2742 3939 
Q 2509 4147 2053 4147 
L 1259 4147 
z
" transform="scale(0.015625)"/>
       <path id="DejaVuSans-4d" d="M 628 4666 
L 1569 4666 
L 2759 1491 
L 3956 4666 
L 4897 4666 
L 4897 0 
L 4281 0 
L 4281 4097 
L 3078 897 
L 2444 897 
L 1241 4097 
L 1241 0 
L 628 0 
L 628 4666 
z
" transform="scale(0.015625)"/>
       <path id="DejaVuSans-53" d="M 3425 4513 
L 3425 3897 
Q 3066 4069 2747 4153 
Q 2428 4238 2131 4238 
Q 1616 4238 1336 4038 
Q 1056 3838 1056 3469 
Q 1056 3159 1242 3001 
Q 1428 2844 1947 2747 
L 2328 2669 
Q 3034 2534 3370 2195 
Q 3706 1856 3706 1288 
Q 3706 609 3251 259 
Q 2797 -91 1919 -91 
Q 1588 -91 1214 -16 
Q 841 59 441 206 
L 441 856 
Q 825 641 1194 531 
Q 1563 422 1919 422 
Q 2459 422 2753 634 
Q 3047 847 3047 1241 
Q 3047 1584 2836 1778 
Q 2625 1972 2144 2069 
L 1759 2144 
Q 1053 2284 737 2584 
Q 422 2884 422 3419 
Q 422 4038 858 4394 
Q 1294 4750 2059 4750 
Q 2388 4750 2728 4690 
Q 3069 4631 3425 4513 
z
" transform="scale(0.015625)"/>
       <path id="DejaVuSans-44" d="M 1259 4147 
L 1259 519 
L 2022 519 
Q 2988 519 3436 956 
Q 3884 1394 3884 2338 
Q 3884 3275 3436 3711 
Q 2988 4147 2022 4147 
L 1259 4147 
z
M 628 4666 
L 1925 4666 
Q 3281 4666 3915 4102 
Q 4550 3538 4550 2338 
Q 4550 1131 3912 565 
Q 3275 0 1925 0 
L 628 0 
L 628 4666 
z
" transform="scale(0.015625)"/>
       <path id="DejaVuSans-20" transform="scale(0.015625)"/>
       <path id="DejaVuSans-5b" d="M 550 4863 
L 1875 4863 
L 1875 4416 
L 1125 4416 
L 1125 -397 
L 1875 -397 
L 1875 -844 
L 550 -844 
L 550 4863 
z
" transform="scale(0.015625)"/>
       <path id="DejaVuSans-Oblique-c5" d="M 3188 5081 
Q 3188 5278 3048 5417 
Q 2909 5556 2713 5556 
Q 2513 5556 2377 5420 
Q 2241 5284 2241 5081 
Q 2241 4884 2377 4746 
Q 2513 4609 2713 4609 
Q 2909 4609 3048 4746 
Q 3188 4884 3188 5081 
z
M 2203 4397 
Q 2034 4513 1945 4689 
Q 1856 4866 1856 5081 
Q 1856 5438 2106 5689 
Q 2356 5941 2713 5941 
Q 3069 5941 3320 5689 
Q 3572 5438 3572 5081 
Q 3572 4834 3458 4643 
Q 3344 4453 3128 4341 
L 3938 0 
L 3278 0 
L 3084 1197 
L 984 1197 
L 325 0 
L -341 0 
L 2203 4397 
z
M 2584 4044 
L 1275 1722 
L 2988 1722 
L 2584 4044 
z
" transform="scale(0.015625)"/>
       <path id="DejaVuSans-5d" d="M 1947 4863 
L 1947 -844 
L 622 -844 
L 622 -397 
L 1369 -397 
L 1369 4416 
L 622 4416 
L 622 4863 
L 1947 4863 
z
" transform="scale(0.015625)"/>
      </defs>
      <use xlink:href="#DejaVuSans-52" transform="translate(0 0.171875)"/>
      <use xlink:href="#DejaVuSans-4d" transform="translate(69.482422 0.171875)"/>
      <use xlink:href="#DejaVuSans-53" transform="translate(155.761719 0.171875)"/>
      <use xlink:href="#DejaVuSans-44" transform="translate(219.238281 0.171875)"/>
      <use xlink:href="#DejaVuSans-20" transform="translate(296.240234 0.171875)"/>
      <use xlink:href="#DejaVuSans-5b" transform="translate(328.027344 0.171875)"/>
      <use xlink:href="#DejaVuSans-Oblique-c5" transform="translate(367.041016 0.171875)"/>
      <use xlink:href="#DejaVuSans-5d" transform="translate(435.449219 0.171875)"/>
     </g>
    </g>
   </g>
   <g id="LineCollection_1">
    <path d="M 72.219091 174.0803 
L 97.113409 174.0803 
" clip-path="url(#p9eabf45de0)" style="fill: none; stroke: #1f77b4; stroke-width: 1.5"/>
   </g>
   <g id="LineCollection_2">
    <path d="M 72.219091 58.169602 
L 97.113409 58.169602 
" clip-path="url(#p9eabf45de0)" style="fill: none; stroke: #1f77b4; stroke-width: 1.5"/>
   </g>
   <g id="LineCollection_3">
    <path d="M 72.219091 263.436648 
L 97.113409 263.436648 
" clip-path="url(#p9eabf45de0)" style="fill: none; stroke: #1f77b4; stroke-width: 1.5"/>
   </g>
   <g id="LineCollection_4">
    <path d="M 84.66625 263.436648 
L 84.66625 58.169602 
" clip-path="url(#p9eabf45de0)" style="fill: none; stroke: #1f77b4; stroke-width: 1.5"/>
   </g>
   <g id="patch_3">
    <path d="M 57.2825 273.7 
L 57.2825 47.90625 
" style="fill: none; stroke: #000000; stroke-width: 0.8; stroke-linejoin: miter; stroke-linecap: square"/>
   </g>
   <g id="patch_4">
    <path d="M 112.05 273.7 
L 112.05 47.90625 
" style="fill: none; stroke: #000000; stroke-width: 0.8; stroke-linejoin: miter; stroke-linecap: square"/>
   </g>
   <g id="patch_5">
    <path d="M 57.2825 273.7 
L 112.05 273.7 
" style="fill: none; stroke: #000000; stroke-width: 0.8; stroke-linejoin: miter; stroke-linecap: square"/>
   </g>
   <g id="patch_6">
    <path d="M 57.2825 47.90625 
L 112.05 47.90625 
" style="fill: none; stroke: #000000; stroke-width: 0.8; stroke-linejoin: miter; stroke-linecap: square"/>
   </g>
   <g id="text_9">
    <!-- RMSD -->
    <g transform="translate(66.89125 41.90625)scale(0.12 -0.12)">
     <use xlink:href="#DejaVuSans-52"/>
     <use xlink:href="#DejaVuSans-4d" x="69.482422"/>
     <use xlink:href="#DejaVuSans-53" x="155.761719"/>
     <use xlink:href="#DejaVuSans-44" x="219.238281"/>
    </g>
   </g>
  </g>
  <g id="axes_2">
   <g id="patch_7">
    <path d="M 170.57 273.7 
L 225.3375 273.7 
L 225.3375 47.90625 
L 170.57 47.90625 
z
" style="fill: #ffffff"/>
   </g>
   <g id="PolyCollection_2">
    <path d="M 200.590918 263.436648 
L 195.316582 263.436648 
L 194.724609 261.363243 
L 194.050109 259.289839 
L 193.29496 257.216434 
L 192.464847 255.14303 
L 191.569328 253.069625 
L 190.621402 250.996221 
L 189.636538 248.922816 
L 188.631259 246.849412 
L 187.621456 244.776007 
L 186.620731 242.702603 
L 185.639089 240.629198 
L 184.68227 238.555794 
L 183.751905 236.482389 
L 182.846519 234.408985 
L 181.96321 232.33558 
L 181.099676 230.262176 
L 180.256128 228.188771 
L 179.436656 226.115367 
L 178.64968 224.041962 
L 177.907316 221.968558 
L 177.223735 219.895153 
L 176.612817 217.821749 
L 176.085596 215.748344 
L 175.648053 213.67494 
L 175.299746 211.601535 
L 175.033595 209.528131 
L 174.836863 207.454726 
L 174.693109 205.381322 
L 174.584652 203.307917 
L 174.495025 201.234513 
L 174.410894 199.161108 
L 174.323124 197.087704 
L 174.226896 195.014299 
L 174.12103 192.940895 
L 174.006845 190.86749 
L 173.886942 188.794086 
L 173.764252 186.720681 
L 173.641542 184.647277 
L 173.521393 182.573872 
L 173.406514 180.500468 
L 173.300192 178.427063 
L 173.206641 176.353659 
L 173.131135 174.280254 
L 173.07984 172.20685 
L 173.059432 170.133445 
L 173.076579 168.060041 
L 173.137439 165.986636 
L 173.247264 163.913232 
L 173.410201 161.839827 
L 173.629298 159.766423 
L 173.906715 157.693018 
L 174.244064 155.619614 
L 174.64281 153.546209 
L 175.104596 151.472805 
L 175.631384 149.3994 
L 176.225283 147.325996 
L 176.888012 145.252591 
L 177.620019 143.179187 
L 178.419395 141.105782 
L 179.280794 139.032378 
L 180.194653 136.958973 
L 181.146983 134.885569 
L 182.119895 132.812164 
L 183.0929 130.73876 
L 184.044832 128.665355 
L 184.95608 126.591951 
L 185.810763 124.518546 
L 186.598422 122.445142 
L 187.314957 120.371737 
L 187.962629 118.298333 
L 188.549171 116.224928 
L 189.086181 114.151524 
L 189.58711 112.078119 
L 190.065177 110.004715 
L 190.531547 107.93131 
L 190.99402 105.857906 
L 191.456376 103.784501 
L 191.918404 101.711097 
L 192.376527 99.637692 
L 192.824861 97.564288 
L 193.256486 95.490883 
L 193.664703 93.417479 
L 194.04407 91.344074 
L 194.391086 89.27067 
L 194.704447 87.197265 
L 194.984915 85.123861 
L 195.23488 83.050456 
L 195.457764 80.977052 
L 195.657414 78.903647 
L 195.83761 76.830243 
L 196.001753 74.756838 
L 196.152752 72.683434 
L 196.293061 70.610029 
L 196.42479 68.536625 
L 196.549815 66.46322 
L 196.669809 64.389816 
L 196.786205 62.316411 
L 196.90007 60.243007 
L 197.011977 58.169602 
L 198.895523 58.169602 
L 198.895523 58.169602 
L 199.00743 60.243007 
L 199.121295 62.316411 
L 199.237691 64.389816 
L 199.357685 66.46322 
L 199.48271 68.536625 
L 199.614439 70.610029 
L 199.754748 72.683434 
L 199.905747 74.756838 
L 200.06989 76.830243 
L 200.250086 78.903647 
L 200.449736 80.977052 
L 200.67262 83.050456 
L 200.922585 85.123861 
L 201.203053 87.197265 
L 201.516414 89.27067 
L 201.86343 91.344074 
L 202.242797 93.417479 
L 202.651014 95.490883 
L 203.082639 97.564288 
L 203.530973 99.637692 
L 203.989096 101.711097 
L 204.451124 103.784501 
L 204.91348 105.857906 
L 205.375953 107.93131 
L 205.842323 110.004715 
L 206.32039 112.078119 
L 206.821319 114.151524 
L 207.358329 116.224928 
L 207.944871 118.298333 
L 208.592543 120.371737 
L 209.309078 122.445142 
L 210.096737 124.518546 
L 210.95142 126.591951 
L 211.862668 128.665355 
L 212.8146 130.73876 
L 213.787605 132.812164 
L 214.760517 134.885569 
L 215.712847 136.958973 
L 216.626706 139.032378 
L 217.488105 141.105782 
L 218.287481 143.179187 
L 219.019488 145.252591 
L 219.682217 147.325996 
L 220.276116 149.3994 
L 220.802904 151.472805 
L 221.26469 153.546209 
L 221.663436 155.619614 
L 222.000785 157.693018 
L 222.278202 159.766423 
L 222.497299 161.839827 
L 222.660236 163.913232 
L 222.770061 165.986636 
L 222.830921 168.060041 
L 222.848068 170.133445 
L 222.82766 172.20685 
L 222.776365 174.280254 
L 222.700859 176.353659 
L 222.607308 178.427063 
L 222.500986 180.500468 
L 222.386107 182.573872 
L 222.265958 184.647277 
L 222.143248 186.720681 
L 222.020558 188.794086 
L 221.900655 190.86749 
L 221.78647 192.940895 
L 221.680604 195.014299 
L 221.584376 197.087704 
L 221.496606 199.161108 
L 221.412475 201.234513 
L 221.322848 203.307917 
L 221.214391 205.381322 
L 221.070637 207.454726 
L 220.873905 209.528131 
L 220.607754 211.601535 
L 220.259447 213.67494 
L 219.821904 215.748344 
L 219.294683 217.821749 
L 218.683765 219.895153 
L 218.000184 221.968558 
L 217.25782 224.041962 
L 216.470844 226.115367 
L 215.651372 228.188771 
L 214.807824 230.262176 
L 213.94429 232.33558 
L 213.060981 234.408985 
L 212.155595 236.482389 
L 211.22523 238.555794 
L 210.268411 240.629198 
L 209.286769 242.702603 
L 208.286044 244.776007 
L 207.276241 246.849412 
L 206.270962 248.922816 
L 205.286098 250.996221 
L 204.338172 253.069625 
L 203.442653 255.14303 
L 202.61254 257.216434 
L 201.857391 259.289839 
L 201.182891 261.363243 
L 200.590918 263.436648 
z
" clip-path="url(#p3daa02dd80)" style="fill: #1f77b4; fill-opacity: 0.3"/>
   </g>
   <g id="matplotlib.axis_2">
    <g id="ytick_8">
     <g id="line2d_8">
      <g>
       <use xlink:href="#m5049dfa5f2" x="170.57" y="269.375357" style="stroke: #000000; stroke-width: 0.8"/>
      </g>
     </g>
     <g id="text_10">
      <!-- 0.2 -->
      <g transform="translate(147.666875 273.174576)scale(0.1 -0.1)">
       <use xlink:href="#DejaVuSans-30"/>
       <use xlink:href="#DejaVuSans-2e" x="63.623047"/>
       <use xlink:href="#DejaVuSans-32" x="95.410156"/>
      </g>
     </g>
    </g>
    <g id="ytick_9">
     <g id="line2d_9">
      <g>
       <use xlink:href="#m5049dfa5f2" x="170.57" y="239.819763" style="stroke: #000000; stroke-width: 0.8"/>
      </g>
     </g>
     <g id="text_11">
      <!-- 0.4 -->
      <g transform="translate(147.666875 243.618982)scale(0.1 -0.1)">
       <defs>
        <path id="DejaVuSans-34" d="M 2419 4116 
L 825 1625 
L 2419 1625 
L 2419 4116 
z
M 2253 4666 
L 3047 4666 
L 3047 1625 
L 3713 1625 
L 3713 1100 
L 3047 1100 
L 3047 0 
L 2419 0 
L 2419 1100 
L 313 1100 
L 313 1709 
L 2253 4666 
z
" transform="scale(0.015625)"/>
       </defs>
       <use xlink:href="#DejaVuSans-30"/>
       <use xlink:href="#DejaVuSans-2e" x="63.623047"/>
       <use xlink:href="#DejaVuSans-34" x="95.410156"/>
      </g>
     </g>
    </g>
    <g id="ytick_10">
     <g id="line2d_10">
      <g>
       <use xlink:href="#m5049dfa5f2" x="170.57" y="210.26417" style="stroke: #000000; stroke-width: 0.8"/>
      </g>
     </g>
     <g id="text_12">
      <!-- 0.6 -->
      <g transform="translate(147.666875 214.063388)scale(0.1 -0.1)">
       <defs>
        <path id="DejaVuSans-36" d="M 2113 2584 
Q 1688 2584 1439 2293 
Q 1191 2003 1191 1497 
Q 1191 994 1439 701 
Q 1688 409 2113 409 
Q 2538 409 2786 701 
Q 3034 994 3034 1497 
Q 3034 2003 2786 2293 
Q 2538 2584 2113 2584 
z
M 3366 4563 
L 3366 3988 
Q 3128 4100 2886 4159 
Q 2644 4219 2406 4219 
Q 1781 4219 1451 3797 
Q 1122 3375 1075 2522 
Q 1259 2794 1537 2939 
Q 1816 3084 2150 3084 
Q 2853 3084 3261 2657 
Q 3669 2231 3669 1497 
Q 3669 778 3244 343 
Q 2819 -91 2113 -91 
Q 1303 -91 875 529 
Q 447 1150 447 2328 
Q 447 3434 972 4092 
Q 1497 4750 2381 4750 
Q 2619 4750 2861 4703 
Q 3103 4656 3366 4563 
z
" transform="scale(0.015625)"/>
       </defs>
       <use xlink:href="#DejaVuSans-30"/>
       <use xlink:href="#DejaVuSans-2e" x="63.623047"/>
       <use xlink:href="#DejaVuSans-36" x="95.410156"/>
      </g>
     </g>
    </g>
    <g id="ytick_11">
     <g id="line2d_11">
      <g>
       <use xlink:href="#m5049dfa5f2" x="170.57" y="180.708576" style="stroke: #000000; stroke-width: 0.8"/>
      </g>
     </g>
     <g id="text_13">
      <!-- 0.8 -->
      <g transform="translate(147.666875 184.507795)scale(0.1 -0.1)">
       <defs>
        <path id="DejaVuSans-38" d="M 2034 2216 
Q 1584 2216 1326 1975 
Q 1069 1734 1069 1313 
Q 1069 891 1326 650 
Q 1584 409 2034 409 
Q 2484 409 2743 651 
Q 3003 894 3003 1313 
Q 3003 1734 2745 1975 
Q 2488 2216 2034 2216 
z
M 1403 2484 
Q 997 2584 770 2862 
Q 544 3141 544 3541 
Q 544 4100 942 4425 
Q 1341 4750 2034 4750 
Q 2731 4750 3128 4425 
Q 3525 4100 3525 3541 
Q 3525 3141 3298 2862 
Q 3072 2584 2669 2484 
Q 3125 2378 3379 2068 
Q 3634 1759 3634 1313 
Q 3634 634 3220 271 
Q 2806 -91 2034 -91 
Q 1263 -91 848 271 
Q 434 634 434 1313 
Q 434 1759 690 2068 
Q 947 2378 1403 2484 
z
M 1172 3481 
Q 1172 3119 1398 2916 
Q 1625 2713 2034 2713 
Q 2441 2713 2670 2916 
Q 2900 3119 2900 3481 
Q 2900 3844 2670 4047 
Q 2441 4250 2034 4250 
Q 1625 4250 1398 4047 
Q 1172 3844 1172 3481 
z
" transform="scale(0.015625)"/>
       </defs>
       <use xlink:href="#DejaVuSans-30"/>
       <use xlink:href="#DejaVuSans-2e" x="63.623047"/>
       <use xlink:href="#DejaVuSans-38" x="95.410156"/>
      </g>
     </g>
    </g>
    <g id="ytick_12">
     <g id="line2d_12">
      <g>
       <use xlink:href="#m5049dfa5f2" x="170.57" y="151.152982" style="stroke: #000000; stroke-width: 0.8"/>
      </g>
     </g>
     <g id="text_14">
      <!-- 1.0 -->
      <g transform="translate(147.666875 154.952201)scale(0.1 -0.1)">
       <use xlink:href="#DejaVuSans-31"/>
       <use xlink:href="#DejaVuSans-2e" x="63.623047"/>
       <use xlink:href="#DejaVuSans-30" x="95.410156"/>
      </g>
     </g>
    </g>
    <g id="ytick_13">
     <g id="line2d_13">
      <g>
       <use xlink:href="#m5049dfa5f2" x="170.57" y="121.597389" style="stroke: #000000; stroke-width: 0.8"/>
      </g>
     </g>
     <g id="text_15">
      <!-- 1.2 -->
      <g transform="translate(147.666875 125.396607)scale(0.1 -0.1)">
       <use xlink:href="#DejaVuSans-31"/>
       <use xlink:href="#DejaVuSans-2e" x="63.623047"/>
       <use xlink:href="#DejaVuSans-32" x="95.410156"/>
      </g>
     </g>
    </g>
    <g id="ytick_14">
     <g id="line2d_14">
      <g>
       <use xlink:href="#m5049dfa5f2" x="170.57" y="92.041795" style="stroke: #000000; stroke-width: 0.8"/>
      </g>
     </g>
     <g id="text_16">
      <!-- 1.4 -->
      <g transform="translate(147.666875 95.841014)scale(0.1 -0.1)">
       <use xlink:href="#DejaVuSans-31"/>
       <use xlink:href="#DejaVuSans-2e" x="63.623047"/>
       <use xlink:href="#DejaVuSans-34" x="95.410156"/>
      </g>
     </g>
    </g>
    <g id="ytick_15">
     <g id="line2d_15">
      <g>
       <use xlink:href="#m5049dfa5f2" x="170.57" y="62.486201" style="stroke: #000000; stroke-width: 0.8"/>
      </g>
     </g>
     <g id="text_17">
      <!-- 1.6 -->
      <g transform="translate(147.666875 66.28542)scale(0.1 -0.1)">
       <use xlink:href="#DejaVuSans-31"/>
       <use xlink:href="#DejaVuSans-2e" x="63.623047"/>
       <use xlink:href="#DejaVuSans-36" x="95.410156"/>
      </g>
     </g>
    </g>
    <g id="text_18">
     <!-- MAE [$\AA$] -->
     <g transform="translate(141.587187 180.653125)rotate(-90)scale(0.1 -0.1)">
      <defs>
       <path id="DejaVuSans-41" d="M 2188 4044 
L 1331 1722 
L 3047 1722 
L 2188 4044 
z
M 1831 4666 
L 2547 4666 
L 4325 0 
L 3669 0 
L 3244 1197 
L 1141 1197 
L 716 0 
L 50 0 
L 1831 4666 
z
" transform="scale(0.015625)"/>
       <path id="DejaVuSans-45" d="M 628 4666 
L 3578 4666 
L 3578 4134 
L 1259 4134 
L 1259 2753 
L 3481 2753 
L 3481 2222 
L 1259 2222 
L 1259 531 
L 3634 531 
L 3634 0 
L 628 0 
L 628 4666 
z
" transform="scale(0.015625)"/>
      </defs>
      <use xlink:href="#DejaVuSans-4d" transform="translate(0 0.171875)"/>
      <use xlink:href="#DejaVuSans-41" transform="translate(86.279297 0.171875)"/>
      <use xlink:href="#DejaVuSans-45" transform="translate(154.6875 0.171875)"/>
      <use xlink:href="#DejaVuSans-20" transform="translate(217.871094 0.171875)"/>
      <use xlink:href="#DejaVuSans-5b" transform="translate(249.658203 0.171875)"/>
      <use xlink:href="#DejaVuSans-Oblique-c5" transform="translate(288.671875 0.171875)"/>
      <use xlink:href="#DejaVuSans-5d" transform="translate(357.080078 0.171875)"/>
     </g>
    </g>
   </g>
   <g id="LineCollection_5">
    <path d="M 185.506591 177.689272 
L 210.400909 177.689272 
" clip-path="url(#p3daa02dd80)" style="fill: none; stroke: #1f77b4; stroke-width: 1.5"/>
   </g>
   <g id="LineCollection_6">
    <path d="M 185.506591 58.169602 
L 210.400909 58.169602 
" clip-path="url(#p3daa02dd80)" style="fill: none; stroke: #1f77b4; stroke-width: 1.5"/>
   </g>
   <g id="LineCollection_7">
    <path d="M 185.506591 263.436648 
L 210.400909 263.436648 
" clip-path="url(#p3daa02dd80)" style="fill: none; stroke: #1f77b4; stroke-width: 1.5"/>
   </g>
   <g id="LineCollection_8">
    <path d="M 197.95375 263.436648 
L 197.95375 58.169602 
" clip-path="url(#p3daa02dd80)" style="fill: none; stroke: #1f77b4; stroke-width: 1.5"/>
   </g>
   <g id="patch_8">
    <path d="M 170.57 273.7 
L 170.57 47.90625 
" style="fill: none; stroke: #000000; stroke-width: 0.8; stroke-linejoin: miter; stroke-linecap: square"/>
   </g>
   <g id="patch_9">
    <path d="M 225.3375 273.7 
L 225.3375 47.90625 
" style="fill: none; stroke: #000000; stroke-width: 0.8; stroke-linejoin: miter; stroke-linecap: square"/>
   </g>
   <g id="patch_10">
    <path d="M 170.57 273.7 
L 225.3375 273.7 
" style="fill: none; stroke: #000000; stroke-width: 0.8; stroke-linejoin: miter; stroke-linecap: square"/>
   </g>
   <g id="patch_11">
    <path d="M 170.57 47.90625 
L 225.3375 47.90625 
" style="fill: none; stroke: #000000; stroke-width: 0.8; stroke-linejoin: miter; stroke-linecap: square"/>
   </g>
   <g id="text_19">
    <!-- MAE -->
    <g transform="translate(184.88125 41.90625)scale(0.12 -0.12)">
     <use xlink:href="#DejaVuSans-4d"/>
     <use xlink:href="#DejaVuSans-41" x="86.279297"/>
     <use xlink:href="#DejaVuSans-45" x="154.6875"/>
    </g>
   </g>
  </g>
  <g id="axes_3">
   <g id="patch_12">
    <path d="M 283.8575 273.7 
L 338.625 273.7 
L 338.625 47.90625 
L 283.8575 47.90625 
z
" style="fill: #ffffff"/>
   </g>
   <g id="PolyCollection_3">
    <path d="M 312.214052 263.436648 
L 310.268448 263.436648 
L 310.075054 261.363243 
L 309.845305 259.289839 
L 309.571242 257.216434 
L 309.244311 255.14303 
L 308.856054 253.069625 
L 308.398952 250.996221 
L 307.867307 248.922816 
L 307.258067 246.849412 
L 306.571473 244.776007 
L 305.811462 242.702603 
L 304.985727 240.629198 
L 304.105436 238.555794 
L 303.184562 236.482389 
L 302.238866 234.408985 
L 301.284584 232.33558 
L 300.33691 230.262176 
L 299.408456 228.188771 
L 298.507894 226.115367 
L 297.639046 224.041962 
L 296.800645 221.968558 
L 295.986944 219.895153 
L 295.189201 217.821749 
L 294.397887 215.748344 
L 293.605282 213.67494 
L 292.808008 211.601535 
L 292.008965 209.528131 
L 291.21824 207.454726 
L 290.452712 205.381322 
L 289.734316 203.307917 
L 289.08721 201.234513 
L 288.534286 199.161108 
L 288.093604 197.087704 
L 287.775344 195.014299 
L 287.579785 192.940895 
L 287.496636 190.86749 
L 287.505836 188.794086 
L 287.579708 186.720681 
L 287.68617 184.647277 
L 287.792539 182.573872 
L 287.869399 180.500468 
L 287.894002 178.427063 
L 287.852732 176.353659 
L 287.742312 174.280254 
L 287.569644 172.20685 
L 287.350346 170.133445 
L 287.106309 168.060041 
L 286.862667 165.986636 
L 286.644691 163.913232 
L 286.475042 161.839827 
L 286.371727 159.766423 
L 286.346932 157.693018 
L 286.406737 155.619614 
L 286.551602 153.546209 
L 286.777394 151.472805 
L 287.076743 149.3994 
L 287.440495 147.325996 
L 287.859114 145.252591 
L 288.323882 143.179187 
L 288.827826 141.105782 
L 289.366286 139.032378 
L 289.937062 136.958973 
L 290.540103 134.885569 
L 291.176765 132.812164 
L 291.848718 130.73876 
L 292.556693 128.665355 
L 293.299313 126.591951 
L 294.072274 124.518546 
L 294.868114 122.445142 
L 295.676674 120.371737 
L 296.486223 118.298333 
L 297.28504 116.224928 
L 298.063113 114.151524 
L 298.8136 112.078119 
L 299.533698 110.004715 
L 300.224729 107.93131 
L 300.891418 105.857906 
L 301.540527 103.784501 
L 302.179151 101.711097 
L 302.813024 99.637692 
L 303.445183 97.564288 
L 304.075206 95.490883 
L 304.699112 93.417479 
L 305.309868 91.344074 
L 305.898341 89.27067 
L 306.454488 87.197265 
L 306.968583 85.123861 
L 307.432321 83.050456 
L 307.839697 80.977052 
L 308.18763 78.903647 
L 308.476299 76.830243 
L 308.709195 74.756838 
L 308.892885 72.683434 
L 309.036493 70.610029 
L 309.150902 68.536625 
L 309.247737 66.46322 
L 309.338238 64.389816 
L 309.432136 62.316411 
L 309.53672 60.243007 
L 309.656222 58.169602 
L 312.826278 58.169602 
L 312.826278 58.169602 
L 312.94578 60.243007 
L 313.050364 62.316411 
L 313.144262 64.389816 
L 313.234763 66.46322 
L 313.331598 68.536625 
L 313.446007 70.610029 
L 313.589615 72.683434 
L 313.773305 74.756838 
L 314.006201 76.830243 
L 314.29487 78.903647 
L 314.642803 80.977052 
L 315.050179 83.050456 
L 315.513917 85.123861 
L 316.028012 87.197265 
L 316.584159 89.27067 
L 317.172632 91.344074 
L 317.783388 93.417479 
L 318.407294 95.490883 
L 319.037317 97.564288 
L 319.669476 99.637692 
L 320.303349 101.711097 
L 320.941973 103.784501 
L 321.591082 105.857906 
L 322.257771 107.93131 
L 322.948802 110.004715 
L 323.6689 112.078119 
L 324.419387 114.151524 
L 325.19746 116.224928 
L 325.996277 118.298333 
L 326.805826 120.371737 
L 327.614386 122.445142 
L 328.410226 124.518546 
L 329.183187 126.591951 
L 329.925807 128.665355 
L 330.633782 130.73876 
L 331.305735 132.812164 
L 331.942397 134.885569 
L 332.545438 136.958973 
L 333.116214 139.032378 
L 333.654674 141.105782 
L 334.158618 143.179187 
L 334.623386 145.252591 
L 335.042005 147.325996 
L 335.405757 149.3994 
L 335.705106 151.472805 
L 335.930898 153.546209 
L 336.075763 155.619614 
L 336.135568 157.693018 
L 336.110773 159.766423 
L 336.007458 161.839827 
L 335.837809 163.913232 
L 335.619833 165.986636 
L 335.376191 168.060041 
L 335.132154 170.133445 
L 334.912856 172.20685 
L 334.740188 174.280254 
L 334.629768 176.353659 
L 334.588498 178.427063 
L 334.613101 180.500468 
L 334.689961 182.573872 
L 334.79633 184.647277 
L 334.902792 186.720681 
L 334.976664 188.794086 
L 334.985864 190.86749 
L 334.902715 192.940895 
L 334.707156 195.014299 
L 334.388896 197.087704 
L 333.948214 199.161108 
L 333.39529 201.234513 
L 332.748184 203.307917 
L 332.029788 205.381322 
L 331.26426 207.454726 
L 330.473535 209.528131 
L 329.674492 211.601535 
L 328.877218 213.67494 
L 328.084613 215.748344 
L 327.293299 217.821749 
L 326.495556 219.895153 
L 325.681855 221.968558 
L 324.843454 224.041962 
L 323.974606 226.115367 
L 323.074044 228.188771 
L 322.14559 230.262176 
L 321.197916 232.33558 
L 320.243634 234.408985 
L 319.297938 236.482389 
L 318.377064 238.555794 
L 317.496773 240.629198 
L 316.671038 242.702603 
L 315.911027 244.776007 
L 315.224433 246.849412 
L 314.615193 248.922816 
L 314.083548 250.996221 
L 313.626446 253.069625 
L 313.238189 255.14303 
L 312.911258 257.216434 
L 312.637195 259.289839 
L 312.407446 261.363243 
L 312.214052 263.436648 
z
" clip-path="url(#pb64575329d)" style="fill: #1f77b4; fill-opacity: 0.3"/>
   </g>
   <g id="matplotlib.axis_3">
    <g id="ytick_16">
     <g id="line2d_16">
      <g>
       <use xlink:href="#m5049dfa5f2" x="283.8575" y="244.041228" style="stroke: #000000; stroke-width: 0.8"/>
      </g>
     </g>
     <g id="text_20">
      <!-- 0.0 -->
      <g transform="translate(260.954375 247.840447)scale(0.1 -0.1)">
       <use xlink:href="#DejaVuSans-30"/>
       <use xlink:href="#DejaVuSans-2e" x="63.623047"/>
       <use xlink:href="#DejaVuSans-30" x="95.410156"/>
      </g>
     </g>
    </g>
    <g id="ytick_17">
     <g id="line2d_17">
      <g>
       <use xlink:href="#m5049dfa5f2" x="283.8575" y="211.679203" style="stroke: #000000; stroke-width: 0.8"/>
      </g>
     </g>
     <g id="text_21">
      <!-- 0.2 -->
      <g transform="translate(260.954375 215.478422)scale(0.1 -0.1)">
       <use xlink:href="#DejaVuSans-30"/>
       <use xlink:href="#DejaVuSans-2e" x="63.623047"/>
       <use xlink:href="#DejaVuSans-32" x="95.410156"/>
      </g>
     </g>
    </g>
    <g id="ytick_18">
     <g id="line2d_18">
      <g>
       <use xlink:href="#m5049dfa5f2" x="283.8575" y="179.317178" style="stroke: #000000; stroke-width: 0.8"/>
      </g>
     </g>
     <g id="text_22">
      <!-- 0.4 -->
      <g transform="translate(260.954375 183.116396)scale(0.1 -0.1)">
       <use xlink:href="#DejaVuSans-30"/>
       <use xlink:href="#DejaVuSans-2e" x="63.623047"/>
       <use xlink:href="#DejaVuSans-34" x="95.410156"/>
      </g>
     </g>
    </g>
    <g id="ytick_19">
     <g id="line2d_19">
      <g>
       <use xlink:href="#m5049dfa5f2" x="283.8575" y="146.955152" style="stroke: #000000; stroke-width: 0.8"/>
      </g>
     </g>
     <g id="text_23">
      <!-- 0.6 -->
      <g transform="translate(260.954375 150.754371)scale(0.1 -0.1)">
       <use xlink:href="#DejaVuSans-30"/>
       <use xlink:href="#DejaVuSans-2e" x="63.623047"/>
       <use xlink:href="#DejaVuSans-36" x="95.410156"/>
      </g>
     </g>
    </g>
    <g id="ytick_20">
     <g id="line2d_20">
      <g>
       <use xlink:href="#m5049dfa5f2" x="283.8575" y="114.593127" style="stroke: #000000; stroke-width: 0.8"/>
      </g>
     </g>
     <g id="text_24">
      <!-- 0.8 -->
      <g transform="translate(260.954375 118.392346)scale(0.1 -0.1)">
       <use xlink:href="#DejaVuSans-30"/>
       <use xlink:href="#DejaVuSans-2e" x="63.623047"/>
       <use xlink:href="#DejaVuSans-38" x="95.410156"/>
      </g>
     </g>
    </g>
    <g id="ytick_21">
     <g id="line2d_21">
      <g>
       <use xlink:href="#m5049dfa5f2" x="283.8575" y="82.231102" style="stroke: #000000; stroke-width: 0.8"/>
      </g>
     </g>
     <g id="text_25">
      <!-- 1.0 -->
      <g transform="translate(260.954375 86.030321)scale(0.1 -0.1)">
       <use xlink:href="#DejaVuSans-31"/>
       <use xlink:href="#DejaVuSans-2e" x="63.623047"/>
       <use xlink:href="#DejaVuSans-30" x="95.410156"/>
      </g>
     </g>
    </g>
    <g id="ytick_22">
     <g id="line2d_22">
      <g>
       <use xlink:href="#m5049dfa5f2" x="283.8575" y="49.869077" style="stroke: #000000; stroke-width: 0.8"/>
      </g>
     </g>
     <g id="text_26">
      <!-- 1.2 -->
      <g transform="translate(260.954375 53.668296)scale(0.1 -0.1)">
       <use xlink:href="#DejaVuSans-31"/>
       <use xlink:href="#DejaVuSans-2e" x="63.623047"/>
       <use xlink:href="#DejaVuSans-32" x="95.410156"/>
      </g>
     </g>
    </g>
    <g id="text_27">
     <!-- MSE [$\AA$] -->
     <g transform="translate(254.874687 180.403125)rotate(-90)scale(0.1 -0.1)">
      <use xlink:href="#DejaVuSans-4d" transform="translate(0 0.171875)"/>
      <use xlink:href="#DejaVuSans-53" transform="translate(86.279297 0.171875)"/>
      <use xlink:href="#DejaVuSans-45" transform="translate(149.755859 0.171875)"/>
      <use xlink:href="#DejaVuSans-20" transform="translate(212.939453 0.171875)"/>
      <use xlink:href="#DejaVuSans-5b" transform="translate(244.726562 0.171875)"/>
      <use xlink:href="#DejaVuSans-Oblique-c5" transform="translate(283.740234 0.171875)"/>
      <use xlink:href="#DejaVuSans-5d" transform="translate(352.148438 0.171875)"/>
     </g>
    </g>
   </g>
   <g id="LineCollection_9">
    <path d="M 298.794091 166.287456 
L 323.688409 166.287456 
" clip-path="url(#pb64575329d)" style="fill: none; stroke: #1f77b4; stroke-width: 1.5"/>
   </g>
   <g id="LineCollection_10">
    <path d="M 298.794091 58.169602 
L 323.688409 58.169602 
" clip-path="url(#pb64575329d)" style="fill: none; stroke: #1f77b4; stroke-width: 1.5"/>
   </g>
   <g id="LineCollection_11">
    <path d="M 298.794091 263.436648 
L 323.688409 263.436648 
" clip-path="url(#pb64575329d)" style="fill: none; stroke: #1f77b4; stroke-width: 1.5"/>
   </g>
   <g id="LineCollection_12">
    <path d="M 311.24125 263.436648 
L 311.24125 58.169602 
" clip-path="url(#pb64575329d)" style="fill: none; stroke: #1f77b4; stroke-width: 1.5"/>
   </g>
   <g id="patch_13">
    <path d="M 283.8575 273.7 
L 283.8575 47.90625 
" style="fill: none; stroke: #000000; stroke-width: 0.8; stroke-linejoin: miter; stroke-linecap: square"/>
   </g>
   <g id="patch_14">
    <path d="M 338.625 273.7 
L 338.625 47.90625 
" style="fill: none; stroke: #000000; stroke-width: 0.8; stroke-linejoin: miter; stroke-linecap: square"/>
   </g>
   <g id="patch_15">
    <path d="M 283.8575 273.7 
L 338.625 273.7 
" style="fill: none; stroke: #000000; stroke-width: 0.8; stroke-linejoin: miter; stroke-linecap: square"/>
   </g>
   <g id="patch_16">
    <path d="M 283.8575 47.90625 
L 338.625 47.90625 
" style="fill: none; stroke: #000000; stroke-width: 0.8; stroke-linejoin: miter; stroke-linecap: square"/>
   </g>
   <g id="text_28">
    <!-- MSE -->
    <g transform="translate(298.464062 41.90625)scale(0.12 -0.12)">
     <use xlink:href="#DejaVuSans-4d"/>
     <use xlink:href="#DejaVuSans-53" x="86.279297"/>
     <use xlink:href="#DejaVuSans-45" x="149.755859"/>
    </g>
   </g>
  </g>
  <g id="axes_4">
   <g id="patch_17">
    <path d="M 397.145 273.7 
L 451.9125 273.7 
L 451.9125 47.90625 
L 397.145 47.90625 
z
" style="fill: #ffffff"/>
   </g>
   <g id="PolyCollection_4">
    <path d="M 425.296033 263.436648 
L 423.761467 263.436648 
L 423.66415 261.363243 
L 423.556505 259.289839 
L 423.435464 257.216434 
L 423.297376 255.14303 
L 423.138057 253.069625 
L 422.952852 250.996221 
L 422.736751 248.922816 
L 422.484617 246.849412 
L 422.191571 244.776007 
L 421.853574 242.702603 
L 421.468124 240.629198 
L 421.034961 238.555794 
L 420.556578 236.482389 
L 420.038343 234.408985 
L 419.488083 232.33558 
L 418.915108 230.262176 
L 418.328841 228.188771 
L 417.737324 226.115367 
L 417.145998 224.041962 
L 416.557104 221.968558 
L 415.969899 219.895153 
L 415.381659 217.821749 
L 414.789167 215.748344 
L 414.190222 213.67494 
L 413.584679 211.601535 
L 412.974643 209.528131 
L 412.363746 207.454726 
L 411.755772 205.381322 
L 411.153117 203.307917 
L 410.555698 201.234513 
L 409.960776 199.161108 
L 409.363825 197.087704 
L 408.760203 195.014299 
L 408.147052 192.940895 
L 407.524702 190.86749 
L 406.897034 188.794086 
L 406.270587 186.720681 
L 405.652704 184.647277 
L 405.049373 182.573872 
L 404.463628 180.500468 
L 403.895171 178.427063 
L 403.34149 176.353659 
L 402.800147 174.280254 
L 402.271447 172.20685 
L 401.760472 170.133445 
L 401.277604 168.060041 
L 400.837189 165.986636 
L 400.4546 163.913232 
L 400.142605 161.839827 
L 399.908195 159.766423 
L 399.75097 157.693018 
L 399.663628 155.619614 
L 399.634432 153.546209 
L 399.650831 151.472805 
L 399.703029 149.3994 
L 399.786331 147.325996 
L 399.901559 145.252591 
L 400.053516 143.179187 
L 400.248191 141.105782 
L 400.489807 139.032378 
L 400.778848 136.958973 
L 401.111789 134.885569 
L 401.482594 132.812164 
L 401.885368 130.73876 
L 402.317119 128.665355 
L 402.779532 126.591951 
L 403.279001 124.518546 
L 403.824818 122.445142 
L 404.426046 120.371737 
L 405.088068 118.298333 
L 405.809924 116.224928 
L 406.583261 114.151524 
L 407.39318 112.078119 
L 408.220675 110.004715 
L 409.04588 107.93131 
L 409.851177 105.857906 
L 410.623365 103.784501 
L 411.354468 101.711097 
L 412.041263 99.637692 
L 412.683967 97.564288 
L 413.284718 95.490883 
L 413.846401 93.417479 
L 414.37214 91.344074 
L 414.865412 89.27067 
L 415.330506 87.197265 
L 415.772902 85.123861 
L 416.199247 83.050456 
L 416.616778 80.977052 
L 417.032303 78.903647 
L 417.451053 76.830243 
L 417.875772 74.756838 
L 418.306355 72.683434 
L 418.740152 70.610029 
L 419.172842 68.536625 
L 419.5996 66.46322 
L 420.016217 64.389816 
L 420.419857 62.316411 
L 420.80928 60.243007 
L 421.184536 58.169602 
L 427.872964 58.169602 
L 427.872964 58.169602 
L 428.24822 60.243007 
L 428.637643 62.316411 
L 429.041283 64.389816 
L 429.4579 66.46322 
L 429.884658 68.536625 
L 430.317348 70.610029 
L 430.751145 72.683434 
L 431.181728 74.756838 
L 431.606447 76.830243 
L 432.025197 78.903647 
L 432.440722 80.977052 
L 432.858253 83.050456 
L 433.284598 85.123861 
L 433.726994 87.197265 
L 434.192088 89.27067 
L 434.68536 91.344074 
L 435.211099 93.417479 
L 435.772782 95.490883 
L 436.373533 97.564288 
L 437.016237 99.637692 
L 437.703032 101.711097 
L 438.434135 103.784501 
L 439.206323 105.857906 
L 440.01162 107.93131 
L 440.836825 110.004715 
L 441.66432 112.078119 
L 442.474239 114.151524 
L 443.247576 116.224928 
L 443.969432 118.298333 
L 444.631454 120.371737 
L 445.232682 122.445142 
L 445.778499 124.518546 
L 446.277968 126.591951 
L 446.740381 128.665355 
L 447.172132 130.73876 
L 447.574906 132.812164 
L 447.945711 134.885569 
L 448.278652 136.958973 
L 448.567693 139.032378 
L 448.809309 141.105782 
L 449.003984 143.179187 
L 449.155941 145.252591 
L 449.271169 147.325996 
L 449.354471 149.3994 
L 449.406669 151.472805 
L 449.423068 153.546209 
L 449.393872 155.619614 
L 449.30653 157.693018 
L 449.149305 159.766423 
L 448.914895 161.839827 
L 448.6029 163.913232 
L 448.220311 165.986636 
L 447.779896 168.060041 
L 447.297028 170.133445 
L 446.786053 172.20685 
L 446.257353 174.280254 
L 445.71601 176.353659 
L 445.162329 178.427063 
L 444.593872 180.500468 
L 444.008127 182.573872 
L 443.404796 184.647277 
L 442.786913 186.720681 
L 442.160466 188.794086 
L 441.532798 190.86749 
L 440.910448 192.940895 
L 440.297297 195.014299 
L 439.693675 197.087704 
L 439.096724 199.161108 
L 438.501802 201.234513 
L 437.904383 203.307917 
L 437.301728 205.381322 
L 436.693754 207.454726 
L 436.082857 209.528131 
L 435.472821 211.601535 
L 434.867278 213.67494 
L 434.268333 215.748344 
L 433.675841 217.821749 
L 433.087601 219.895153 
L 432.500396 221.968558 
L 431.911502 224.041962 
L 431.320176 226.115367 
L 430.728659 228.188771 
L 430.142392 230.262176 
L 429.569417 232.33558 
L 429.019157 234.408985 
L 428.500922 236.482389 
L 428.022539 238.555794 
L 427.589376 240.629198 
L 427.203926 242.702603 
L 426.865929 244.776007 
L 426.572883 246.849412 
L 426.320749 248.922816 
L 426.104648 250.996221 
L 425.919443 253.069625 
L 425.760124 255.14303 
L 425.622036 257.216434 
L 425.500995 259.289839 
L 425.39335 261.363243 
L 425.296033 263.436648 
z
" clip-path="url(#p8f18ab47a0)" style="fill: #1f77b4; fill-opacity: 0.3"/>
   </g>
   <g id="matplotlib.axis_4">
    <g id="ytick_23">
     <g id="line2d_23">
      <g>
       <use xlink:href="#m5049dfa5f2" x="397.145" y="267.541989" style="stroke: #000000; stroke-width: 0.8"/>
      </g>
     </g>
     <g id="text_29">
      <!-- 0.3 -->
      <g transform="translate(374.241875 271.341207)scale(0.1 -0.1)">
       <defs>
        <path id="DejaVuSans-33" d="M 2597 2516 
Q 3050 2419 3304 2112 
Q 3559 1806 3559 1356 
Q 3559 666 3084 287 
Q 2609 -91 1734 -91 
Q 1441 -91 1130 -33 
Q 819 25 488 141 
L 488 750 
Q 750 597 1062 519 
Q 1375 441 1716 441 
Q 2309 441 2620 675 
Q 2931 909 2931 1356 
Q 2931 1769 2642 2001 
Q 2353 2234 1838 2234 
L 1294 2234 
L 1294 2753 
L 1863 2753 
Q 2328 2753 2575 2939 
Q 2822 3125 2822 3475 
Q 2822 3834 2567 4026 
Q 2313 4219 1838 4219 
Q 1578 4219 1281 4162 
Q 984 4106 628 3988 
L 628 4550 
Q 988 4650 1302 4700 
Q 1616 4750 1894 4750 
Q 2613 4750 3031 4423 
Q 3450 4097 3450 3541 
Q 3450 3153 3228 2886 
Q 3006 2619 2597 2516 
z
" transform="scale(0.015625)"/>
       </defs>
       <use xlink:href="#DejaVuSans-30"/>
       <use xlink:href="#DejaVuSans-2e" x="63.623047"/>
       <use xlink:href="#DejaVuSans-33" x="95.410156"/>
      </g>
     </g>
    </g>
    <g id="ytick_24">
     <g id="line2d_24">
      <g>
       <use xlink:href="#m5049dfa5f2" x="397.145" y="234.699261" style="stroke: #000000; stroke-width: 0.8"/>
      </g>
     </g>
     <g id="text_30">
      <!-- 0.4 -->
      <g transform="translate(374.241875 238.49848)scale(0.1 -0.1)">
       <use xlink:href="#DejaVuSans-30"/>
       <use xlink:href="#DejaVuSans-2e" x="63.623047"/>
       <use xlink:href="#DejaVuSans-34" x="95.410156"/>
      </g>
     </g>
    </g>
    <g id="ytick_25">
     <g id="line2d_25">
      <g>
       <use xlink:href="#m5049dfa5f2" x="397.145" y="201.856534" style="stroke: #000000; stroke-width: 0.8"/>
      </g>
     </g>
     <g id="text_31">
      <!-- 0.5 -->
      <g transform="translate(374.241875 205.655753)scale(0.1 -0.1)">
       <use xlink:href="#DejaVuSans-30"/>
       <use xlink:href="#DejaVuSans-2e" x="63.623047"/>
       <use xlink:href="#DejaVuSans-35" x="95.410156"/>
      </g>
     </g>
    </g>
    <g id="ytick_26">
     <g id="line2d_26">
      <g>
       <use xlink:href="#m5049dfa5f2" x="397.145" y="169.013807" style="stroke: #000000; stroke-width: 0.8"/>
      </g>
     </g>
     <g id="text_32">
      <!-- 0.6 -->
      <g transform="translate(374.241875 172.813026)scale(0.1 -0.1)">
       <use xlink:href="#DejaVuSans-30"/>
       <use xlink:href="#DejaVuSans-2e" x="63.623047"/>
       <use xlink:href="#DejaVuSans-36" x="95.410156"/>
      </g>
     </g>
    </g>
    <g id="ytick_27">
     <g id="line2d_27">
      <g>
       <use xlink:href="#m5049dfa5f2" x="397.145" y="136.17108" style="stroke: #000000; stroke-width: 0.8"/>
      </g>
     </g>
     <g id="text_33">
      <!-- 0.7 -->
      <g transform="translate(374.241875 139.970298)scale(0.1 -0.1)">
       <use xlink:href="#DejaVuSans-30"/>
       <use xlink:href="#DejaVuSans-2e" x="63.623047"/>
       <use xlink:href="#DejaVuSans-37" x="95.410156"/>
      </g>
     </g>
    </g>
    <g id="ytick_28">
     <g id="line2d_28">
      <g>
       <use xlink:href="#m5049dfa5f2" x="397.145" y="103.328352" style="stroke: #000000; stroke-width: 0.8"/>
      </g>
     </g>
     <g id="text_34">
      <!-- 0.8 -->
      <g transform="translate(374.241875 107.127571)scale(0.1 -0.1)">
       <use xlink:href="#DejaVuSans-30"/>
       <use xlink:href="#DejaVuSans-2e" x="63.623047"/>
       <use xlink:href="#DejaVuSans-38" x="95.410156"/>
      </g>
     </g>
    </g>
    <g id="ytick_29">
     <g id="line2d_29">
      <g>
       <use xlink:href="#m5049dfa5f2" x="397.145" y="70.485625" style="stroke: #000000; stroke-width: 0.8"/>
      </g>
     </g>
     <g id="text_35">
      <!-- 0.9 -->
      <g transform="translate(374.241875 74.284844)scale(0.1 -0.1)">
       <defs>
        <path id="DejaVuSans-39" d="M 703 97 
L 703 672 
Q 941 559 1184 500 
Q 1428 441 1663 441 
Q 2288 441 2617 861 
Q 2947 1281 2994 2138 
Q 2813 1869 2534 1725 
Q 2256 1581 1919 1581 
Q 1219 1581 811 2004 
Q 403 2428 403 3163 
Q 403 3881 828 4315 
Q 1253 4750 1959 4750 
Q 2769 4750 3195 4129 
Q 3622 3509 3622 2328 
Q 3622 1225 3098 567 
Q 2575 -91 1691 -91 
Q 1453 -91 1209 -44 
Q 966 3 703 97 
z
M 1959 2075 
Q 2384 2075 2632 2365 
Q 2881 2656 2881 3163 
Q 2881 3666 2632 3958 
Q 2384 4250 1959 4250 
Q 1534 4250 1286 3958 
Q 1038 3666 1038 3163 
Q 1038 2656 1286 2365 
Q 1534 2075 1959 2075 
z
" transform="scale(0.015625)"/>
       </defs>
       <use xlink:href="#DejaVuSans-30"/>
       <use xlink:href="#DejaVuSans-2e" x="63.623047"/>
       <use xlink:href="#DejaVuSans-39" x="95.410156"/>
      </g>
     </g>
    </g>
    <g id="text_36">
     <!-- % NOE fulfilled [1/100 %] -->
     <g transform="translate(368.162187 224.303906)rotate(-90)scale(0.1 -0.1)">
      <defs>
       <path id="DejaVuSans-25" d="M 4653 2053 
Q 4381 2053 4226 1822 
Q 4072 1591 4072 1178 
Q 4072 772 4226 539 
Q 4381 306 4653 306 
Q 4919 306 5073 539 
Q 5228 772 5228 1178 
Q 5228 1588 5073 1820 
Q 4919 2053 4653 2053 
z
M 4653 2450 
Q 5147 2450 5437 2106 
Q 5728 1763 5728 1178 
Q 5728 594 5436 251 
Q 5144 -91 4653 -91 
Q 4153 -91 3862 251 
Q 3572 594 3572 1178 
Q 3572 1766 3864 2108 
Q 4156 2450 4653 2450 
z
M 1428 4353 
Q 1159 4353 1004 4120 
Q 850 3888 850 3481 
Q 850 3069 1003 2837 
Q 1156 2606 1428 2606 
Q 1700 2606 1854 2837 
Q 2009 3069 2009 3481 
Q 2009 3884 1853 4118 
Q 1697 4353 1428 4353 
z
M 4250 4750 
L 4750 4750 
L 1831 -91 
L 1331 -91 
L 4250 4750 
z
M 1428 4750 
Q 1922 4750 2215 4408 
Q 2509 4066 2509 3481 
Q 2509 2891 2217 2550 
Q 1925 2209 1428 2209 
Q 931 2209 642 2551 
Q 353 2894 353 3481 
Q 353 4063 643 4406 
Q 934 4750 1428 4750 
z
" transform="scale(0.015625)"/>
       <path id="DejaVuSans-4e" d="M 628 4666 
L 1478 4666 
L 3547 763 
L 3547 4666 
L 4159 4666 
L 4159 0 
L 3309 0 
L 1241 3903 
L 1241 0 
L 628 0 
L 628 4666 
z
" transform="scale(0.015625)"/>
       <path id="DejaVuSans-4f" d="M 2522 4238 
Q 1834 4238 1429 3725 
Q 1025 3213 1025 2328 
Q 1025 1447 1429 934 
Q 1834 422 2522 422 
Q 3209 422 3611 934 
Q 4013 1447 4013 2328 
Q 4013 3213 3611 3725 
Q 3209 4238 2522 4238 
z
M 2522 4750 
Q 3503 4750 4090 4092 
Q 4678 3434 4678 2328 
Q 4678 1225 4090 567 
Q 3503 -91 2522 -91 
Q 1538 -91 948 565 
Q 359 1222 359 2328 
Q 359 3434 948 4092 
Q 1538 4750 2522 4750 
z
" transform="scale(0.015625)"/>
       <path id="DejaVuSans-66" d="M 2375 4863 
L 2375 4384 
L 1825 4384 
Q 1516 4384 1395 4259 
Q 1275 4134 1275 3809 
L 1275 3500 
L 2222 3500 
L 2222 3053 
L 1275 3053 
L 1275 0 
L 697 0 
L 697 3053 
L 147 3053 
L 147 3500 
L 697 3500 
L 697 3744 
Q 697 4328 969 4595 
Q 1241 4863 1831 4863 
L 2375 4863 
z
" transform="scale(0.015625)"/>
       <path id="DejaVuSans-75" d="M 544 1381 
L 544 3500 
L 1119 3500 
L 1119 1403 
Q 1119 906 1312 657 
Q 1506 409 1894 409 
Q 2359 409 2629 706 
Q 2900 1003 2900 1516 
L 2900 3500 
L 3475 3500 
L 3475 0 
L 2900 0 
L 2900 538 
Q 2691 219 2414 64 
Q 2138 -91 1772 -91 
Q 1169 -91 856 284 
Q 544 659 544 1381 
z
M 1991 3584 
L 1991 3584 
z
" transform="scale(0.015625)"/>
       <path id="DejaVuSans-6c" d="M 603 4863 
L 1178 4863 
L 1178 0 
L 603 0 
L 603 4863 
z
" transform="scale(0.015625)"/>
       <path id="DejaVuSans-69" d="M 603 3500 
L 1178 3500 
L 1178 0 
L 603 0 
L 603 3500 
z
M 603 4863 
L 1178 4863 
L 1178 4134 
L 603 4134 
L 603 4863 
z
" transform="scale(0.015625)"/>
       <path id="DejaVuSans-65" d="M 3597 1894 
L 3597 1613 
L 953 1613 
Q 991 1019 1311 708 
Q 1631 397 2203 397 
Q 2534 397 2845 478 
Q 3156 559 3463 722 
L 3463 178 
Q 3153 47 2828 -22 
Q 2503 -91 2169 -91 
Q 1331 -91 842 396 
Q 353 884 353 1716 
Q 353 2575 817 3079 
Q 1281 3584 2069 3584 
Q 2775 3584 3186 3129 
Q 3597 2675 3597 1894 
z
M 3022 2063 
Q 3016 2534 2758 2815 
Q 2500 3097 2075 3097 
Q 1594 3097 1305 2825 
Q 1016 2553 972 2059 
L 3022 2063 
z
" transform="scale(0.015625)"/>
       <path id="DejaVuSans-64" d="M 2906 2969 
L 2906 4863 
L 3481 4863 
L 3481 0 
L 2906 0 
L 2906 525 
Q 2725 213 2448 61 
Q 2172 -91 1784 -91 
Q 1150 -91 751 415 
Q 353 922 353 1747 
Q 353 2572 751 3078 
Q 1150 3584 1784 3584 
Q 2172 3584 2448 3432 
Q 2725 3281 2906 2969 
z
M 947 1747 
Q 947 1113 1208 752 
Q 1469 391 1925 391 
Q 2381 391 2643 752 
Q 2906 1113 2906 1747 
Q 2906 2381 2643 2742 
Q 2381 3103 1925 3103 
Q 1469 3103 1208 2742 
Q 947 2381 947 1747 
z
" transform="scale(0.015625)"/>
       <path id="DejaVuSans-2f" d="M 1625 4666 
L 2156 4666 
L 531 -594 
L 0 -594 
L 1625 4666 
z
" transform="scale(0.015625)"/>
      </defs>
      <use xlink:href="#DejaVuSans-25"/>
      <use xlink:href="#DejaVuSans-20" x="95.019531"/>
      <use xlink:href="#DejaVuSans-4e" x="126.806641"/>
      <use xlink:href="#DejaVuSans-4f" x="201.611328"/>
      <use xlink:href="#DejaVuSans-45" x="280.322266"/>
      <use xlink:href="#DejaVuSans-20" x="343.505859"/>
      <use xlink:href="#DejaVuSans-66" x="375.292969"/>
      <use xlink:href="#DejaVuSans-75" x="410.498047"/>
      <use xlink:href="#DejaVuSans-6c" x="473.876953"/>
      <use xlink:href="#DejaVuSans-66" x="501.660156"/>
      <use xlink:href="#DejaVuSans-69" x="536.865234"/>
      <use xlink:href="#DejaVuSans-6c" x="564.648438"/>
      <use xlink:href="#DejaVuSans-6c" x="592.431641"/>
      <use xlink:href="#DejaVuSans-65" x="620.214844"/>
      <use xlink:href="#DejaVuSans-64" x="681.738281"/>
      <use xlink:href="#DejaVuSans-20" x="745.214844"/>
      <use xlink:href="#DejaVuSans-5b" x="777.001953"/>
      <use xlink:href="#DejaVuSans-31" x="816.015625"/>
      <use xlink:href="#DejaVuSans-2f" x="879.638672"/>
      <use xlink:href="#DejaVuSans-31" x="913.330078"/>
      <use xlink:href="#DejaVuSans-30" x="976.953125"/>
      <use xlink:href="#DejaVuSans-30" x="1040.576172"/>
      <use xlink:href="#DejaVuSans-20" x="1104.199219"/>
      <use xlink:href="#DejaVuSans-25" x="1135.986328"/>
      <use xlink:href="#DejaVuSans-5d" x="1231.005859"/>
     </g>
    </g>
   </g>
   <g id="LineCollection_13">
    <path d="M 412.081591 151.104257 
L 436.975909 151.104257 
" clip-path="url(#p8f18ab47a0)" style="fill: none; stroke: #1f77b4; stroke-width: 1.5"/>
   </g>
   <g id="LineCollection_14">
    <path d="M 412.081591 58.169602 
L 436.975909 58.169602 
" clip-path="url(#p8f18ab47a0)" style="fill: none; stroke: #1f77b4; stroke-width: 1.5"/>
   </g>
   <g id="LineCollection_15">
    <path d="M 412.081591 263.436648 
L 436.975909 263.436648 
" clip-path="url(#p8f18ab47a0)" style="fill: none; stroke: #1f77b4; stroke-width: 1.5"/>
   </g>
   <g id="LineCollection_16">
    <path d="M 424.52875 263.436648 
L 424.52875 58.169602 
" clip-path="url(#p8f18ab47a0)" style="fill: none; stroke: #1f77b4; stroke-width: 1.5"/>
   </g>
   <g id="patch_18">
    <path d="M 397.145 273.7 
L 397.145 47.90625 
" style="fill: none; stroke: #000000; stroke-width: 0.8; stroke-linejoin: miter; stroke-linecap: square"/>
   </g>
   <g id="patch_19">
    <path d="M 451.9125 273.7 
L 451.9125 47.90625 
" style="fill: none; stroke: #000000; stroke-width: 0.8; stroke-linejoin: miter; stroke-linecap: square"/>
   </g>
   <g id="patch_20">
    <path d="M 397.145 273.7 
L 451.9125 273.7 
" style="fill: none; stroke: #000000; stroke-width: 0.8; stroke-linejoin: miter; stroke-linecap: square"/>
   </g>
   <g id="patch_21">
    <path d="M 397.145 47.90625 
L 451.9125 47.90625 
" style="fill: none; stroke: #000000; stroke-width: 0.8; stroke-linejoin: miter; stroke-linecap: square"/>
   </g>
   <g id="text_37">
    <!-- % NOE fulfilled -->
    <g transform="translate(379.815625 41.90625)scale(0.12 -0.12)">
     <use xlink:href="#DejaVuSans-25"/>
     <use xlink:href="#DejaVuSans-20" x="95.019531"/>
     <use xlink:href="#DejaVuSans-4e" x="126.806641"/>
     <use xlink:href="#DejaVuSans-4f" x="201.611328"/>
     <use xlink:href="#DejaVuSans-45" x="280.322266"/>
     <use xlink:href="#DejaVuSans-20" x="343.505859"/>
     <use xlink:href="#DejaVuSans-66" x="375.292969"/>
     <use xlink:href="#DejaVuSans-75" x="410.498047"/>
     <use xlink:href="#DejaVuSans-6c" x="473.876953"/>
     <use xlink:href="#DejaVuSans-66" x="501.660156"/>
     <use xlink:href="#DejaVuSans-69" x="536.865234"/>
     <use xlink:href="#DejaVuSans-6c" x="564.648438"/>
     <use xlink:href="#DejaVuSans-6c" x="592.431641"/>
     <use xlink:href="#DejaVuSans-65" x="620.214844"/>
     <use xlink:href="#DejaVuSans-64" x="681.738281"/>
    </g>
   </g>
  </g>
  <g id="axes_5">
   <g id="patch_22">
    <path d="M 510.4325 273.7 
L 565.2 273.7 
L 565.2 47.90625 
L 510.4325 47.90625 
z
" style="fill: #ffffff"/>
   </g>
   <g id="PolyCollection_5">
    <path d="M 539.231523 263.436648 
L 536.400977 263.436648 
L 536.280098 261.363243 
L 536.170751 259.289839 
L 536.073276 257.216434 
L 535.986518 255.14303 
L 535.907869 253.069625 
L 535.833447 250.996221 
L 535.758365 248.922816 
L 535.677056 246.849412 
L 535.583637 244.776007 
L 535.472265 242.702603 
L 535.337504 240.629198 
L 535.174701 238.555794 
L 534.980365 236.482389 
L 534.75257 234.408985 
L 534.491326 232.33558 
L 534.198895 230.262176 
L 533.879948 228.188771 
L 533.541504 226.115367 
L 533.192561 224.041962 
L 532.843397 221.968558 
L 532.504565 219.895153 
L 532.185677 217.821749 
L 531.894146 215.748344 
L 531.634075 213.67494 
L 531.405495 211.601535 
L 531.204105 209.528131 
L 531.021564 207.454726 
L 530.846322 205.381322 
L 530.664815 203.307917 
L 530.46284 201.234513 
L 530.226864 199.161108 
L 529.945064 197.087704 
L 529.607996 195.014299 
L 529.208858 192.940895 
L 528.743461 190.86749 
L 528.210043 188.794086 
L 527.609114 186.720681 
L 526.943459 184.647277 
L 526.218328 182.573872 
L 525.441775 180.500468 
L 524.624938 178.427063 
L 523.782077 176.353659 
L 522.930137 174.280254 
L 522.087715 172.20685 
L 521.273458 170.133445 
L 520.504062 168.060041 
L 519.792201 165.986636 
L 519.144798 163.913232 
L 518.562029 161.839827 
L 518.037353 159.766423 
L 517.558668 157.693018 
L 517.110464 155.619614 
L 516.676637 153.546209 
L 516.24346 151.472805 
L 515.802204 149.3994 
L 515.350903 147.325996 
L 514.894984 145.252591 
L 514.446657 143.179187 
L 514.023217 141.105782 
L 513.644592 139.032378 
L 513.33058 136.958973 
L 513.098254 134.885569 
L 512.959928 132.812164 
L 512.921932 130.73876 
L 512.984293 128.665355 
L 513.141232 126.591951 
L 513.382269 124.518546 
L 513.693671 122.445142 
L 514.059966 120.371737 
L 514.465326 118.298333 
L 514.894699 116.224928 
L 515.334671 114.151524 
L 515.774123 112.078119 
L 516.204742 110.004715 
L 516.621481 107.93131 
L 517.022939 105.857906 
L 517.411636 103.784501 
L 517.794049 101.711097 
L 518.180299 99.637692 
L 518.583396 97.564288 
L 519.018047 95.490883 
L 519.499109 93.417479 
L 520.039893 91.344074 
L 520.650566 89.27067 
L 521.336906 87.197265 
L 522.0996 85.123861 
L 522.934196 83.050456 
L 523.831654 80.977052 
L 524.779378 78.903647 
L 525.76251 76.830243 
L 526.765244 74.756838 
L 527.77197 72.683434 
L 528.768118 70.610029 
L 529.740658 68.536625 
L 530.678292 66.46322 
L 531.571435 64.389816 
L 532.412095 62.316411 
L 533.193751 60.243007 
L 533.911294 58.169602 
L 541.721206 58.169602 
L 541.721206 58.169602 
L 542.438749 60.243007 
L 543.220405 62.316411 
L 544.061065 64.389816 
L 544.954208 66.46322 
L 545.891842 68.536625 
L 546.864382 70.610029 
L 547.86053 72.683434 
L 548.867256 74.756838 
L 549.86999 76.830243 
L 550.853122 78.903647 
L 551.800846 80.977052 
L 552.698304 83.050456 
L 553.5329 85.123861 
L 554.295594 87.197265 
L 554.981934 89.27067 
L 555.592607 91.344074 
L 556.133391 93.417479 
L 556.614453 95.490883 
L 557.049104 97.564288 
L 557.452201 99.637692 
L 557.838451 101.711097 
L 558.220864 103.784501 
L 558.609561 105.857906 
L 559.011019 107.93131 
L 559.427758 110.004715 
L 559.858377 112.078119 
L 560.297829 114.151524 
L 560.737801 116.224928 
L 561.167174 118.298333 
L 561.572534 120.371737 
L 561.938829 122.445142 
L 562.250231 124.518546 
L 562.491268 126.591951 
L 562.648207 128.665355 
L 562.710568 130.73876 
L 562.672572 132.812164 
L 562.534246 134.885569 
L 562.30192 136.958973 
L 561.987908 139.032378 
L 561.609283 141.105782 
L 561.185843 143.179187 
L 560.737516 145.252591 
L 560.281597 147.325996 
L 559.830296 149.3994 
L 559.38904 151.472805 
L 558.955863 153.546209 
L 558.522036 155.619614 
L 558.073832 157.693018 
L 557.595147 159.766423 
L 557.070471 161.839827 
L 556.487702 163.913232 
L 555.840299 165.986636 
L 555.128438 168.060041 
L 554.359042 170.133445 
L 553.544785 172.20685 
L 552.702363 174.280254 
L 551.850423 176.353659 
L 551.007562 178.427063 
L 550.190725 180.500468 
L 549.414172 182.573872 
L 548.689041 184.647277 
L 548.023386 186.720681 
L 547.422457 188.794086 
L 546.889039 190.86749 
L 546.423642 192.940895 
L 546.024504 195.014299 
L 545.687436 197.087704 
L 545.405636 199.161108 
L 545.16966 201.234513 
L 544.967685 203.307917 
L 544.786178 205.381322 
L 544.610936 207.454726 
L 544.428395 209.528131 
L 544.227005 211.601535 
L 543.998425 213.67494 
L 543.738354 215.748344 
L 543.446823 217.821749 
L 543.127935 219.895153 
L 542.789103 221.968558 
L 542.439939 224.041962 
L 542.090996 226.115367 
L 541.752552 228.188771 
L 541.433605 230.262176 
L 541.141174 232.33558 
L 540.87993 234.408985 
L 540.652135 236.482389 
L 540.457799 238.555794 
L 540.294996 240.629198 
L 540.160235 242.702603 
L 540.048863 244.776007 
L 539.955444 246.849412 
L 539.874135 248.922816 
L 539.799053 250.996221 
L 539.724631 253.069625 
L 539.645982 255.14303 
L 539.559224 257.216434 
L 539.461749 259.289839 
L 539.352402 261.363243 
L 539.231523 263.436648 
z
" clip-path="url(#p531a2f14c5)" style="fill: #1f77b4; fill-opacity: 0.3"/>
   </g>
   <g id="matplotlib.axis_5">
    <g id="ytick_30">
     <g id="line2d_30">
      <g>
       <use xlink:href="#m5049dfa5f2" x="510.4325" y="253.647837" style="stroke: #000000; stroke-width: 0.8"/>
      </g>
     </g>
     <g id="text_38">
      <!-- 0.15 -->
      <g transform="translate(481.166875 257.447056)scale(0.1 -0.1)">
       <use xlink:href="#DejaVuSans-30"/>
       <use xlink:href="#DejaVuSans-2e" x="63.623047"/>
       <use xlink:href="#DejaVuSans-31" x="95.410156"/>
       <use xlink:href="#DejaVuSans-35" x="159.033203"/>
      </g>
     </g>
    </g>
    <g id="ytick_31">
     <g id="line2d_31">
      <g>
       <use xlink:href="#m5049dfa5f2" x="510.4325" y="227.887808" style="stroke: #000000; stroke-width: 0.8"/>
      </g>
     </g>
     <g id="text_39">
      <!-- 0.20 -->
      <g transform="translate(481.166875 231.687027)scale(0.1 -0.1)">
       <use xlink:href="#DejaVuSans-30"/>
       <use xlink:href="#DejaVuSans-2e" x="63.623047"/>
       <use xlink:href="#DejaVuSans-32" x="95.410156"/>
       <use xlink:href="#DejaVuSans-30" x="159.033203"/>
      </g>
     </g>
    </g>
    <g id="ytick_32">
     <g id="line2d_32">
      <g>
       <use xlink:href="#m5049dfa5f2" x="510.4325" y="202.12778" style="stroke: #000000; stroke-width: 0.8"/>
      </g>
     </g>
     <g id="text_40">
      <!-- 0.25 -->
      <g transform="translate(481.166875 205.926998)scale(0.1 -0.1)">
       <use xlink:href="#DejaVuSans-30"/>
       <use xlink:href="#DejaVuSans-2e" x="63.623047"/>
       <use xlink:href="#DejaVuSans-32" x="95.410156"/>
       <use xlink:href="#DejaVuSans-35" x="159.033203"/>
      </g>
     </g>
    </g>
    <g id="ytick_33">
     <g id="line2d_33">
      <g>
       <use xlink:href="#m5049dfa5f2" x="510.4325" y="176.367751" style="stroke: #000000; stroke-width: 0.8"/>
      </g>
     </g>
     <g id="text_41">
      <!-- 0.30 -->
      <g transform="translate(481.166875 180.16697)scale(0.1 -0.1)">
       <use xlink:href="#DejaVuSans-30"/>
       <use xlink:href="#DejaVuSans-2e" x="63.623047"/>
       <use xlink:href="#DejaVuSans-33" x="95.410156"/>
       <use xlink:href="#DejaVuSans-30" x="159.033203"/>
      </g>
     </g>
    </g>
    <g id="ytick_34">
     <g id="line2d_34">
      <g>
       <use xlink:href="#m5049dfa5f2" x="510.4325" y="150.607723" style="stroke: #000000; stroke-width: 0.8"/>
      </g>
     </g>
     <g id="text_42">
      <!-- 0.35 -->
      <g transform="translate(481.166875 154.406941)scale(0.1 -0.1)">
       <use xlink:href="#DejaVuSans-30"/>
       <use xlink:href="#DejaVuSans-2e" x="63.623047"/>
       <use xlink:href="#DejaVuSans-33" x="95.410156"/>
       <use xlink:href="#DejaVuSans-35" x="159.033203"/>
      </g>
     </g>
    </g>
    <g id="ytick_35">
     <g id="line2d_35">
      <g>
       <use xlink:href="#m5049dfa5f2" x="510.4325" y="124.847694" style="stroke: #000000; stroke-width: 0.8"/>
      </g>
     </g>
     <g id="text_43">
      <!-- 0.40 -->
      <g transform="translate(481.166875 128.646913)scale(0.1 -0.1)">
       <use xlink:href="#DejaVuSans-30"/>
       <use xlink:href="#DejaVuSans-2e" x="63.623047"/>
       <use xlink:href="#DejaVuSans-34" x="95.410156"/>
       <use xlink:href="#DejaVuSans-30" x="159.033203"/>
      </g>
     </g>
    </g>
    <g id="ytick_36">
     <g id="line2d_36">
      <g>
       <use xlink:href="#m5049dfa5f2" x="510.4325" y="99.087665" style="stroke: #000000; stroke-width: 0.8"/>
      </g>
     </g>
     <g id="text_44">
      <!-- 0.45 -->
      <g transform="translate(481.166875 102.886884)scale(0.1 -0.1)">
       <use xlink:href="#DejaVuSans-30"/>
       <use xlink:href="#DejaVuSans-2e" x="63.623047"/>
       <use xlink:href="#DejaVuSans-34" x="95.410156"/>
       <use xlink:href="#DejaVuSans-35" x="159.033203"/>
      </g>
     </g>
    </g>
    <g id="ytick_37">
     <g id="line2d_37">
      <g>
       <use xlink:href="#m5049dfa5f2" x="510.4325" y="73.327637" style="stroke: #000000; stroke-width: 0.8"/>
      </g>
     </g>
     <g id="text_45">
      <!-- 0.50 -->
      <g transform="translate(481.166875 77.126856)scale(0.1 -0.1)">
       <use xlink:href="#DejaVuSans-30"/>
       <use xlink:href="#DejaVuSans-2e" x="63.623047"/>
       <use xlink:href="#DejaVuSans-35" x="95.410156"/>
       <use xlink:href="#DejaVuSans-30" x="159.033203"/>
      </g>
     </g>
    </g>
    <g id="text_46">
     <!-- RMSD stepwise [$\AA$] -->
     <g transform="translate(475.066875 208.103125)rotate(-90)scale(0.1 -0.1)">
      <defs>
       <path id="DejaVuSans-73" d="M 2834 3397 
L 2834 2853 
Q 2591 2978 2328 3040 
Q 2066 3103 1784 3103 
Q 1356 3103 1142 2972 
Q 928 2841 928 2578 
Q 928 2378 1081 2264 
Q 1234 2150 1697 2047 
L 1894 2003 
Q 2506 1872 2764 1633 
Q 3022 1394 3022 966 
Q 3022 478 2636 193 
Q 2250 -91 1575 -91 
Q 1294 -91 989 -36 
Q 684 19 347 128 
L 347 722 
Q 666 556 975 473 
Q 1284 391 1588 391 
Q 1994 391 2212 530 
Q 2431 669 2431 922 
Q 2431 1156 2273 1281 
Q 2116 1406 1581 1522 
L 1381 1569 
Q 847 1681 609 1914 
Q 372 2147 372 2553 
Q 372 3047 722 3315 
Q 1072 3584 1716 3584 
Q 2034 3584 2315 3537 
Q 2597 3491 2834 3397 
z
" transform="scale(0.015625)"/>
       <path id="DejaVuSans-74" d="M 1172 4494 
L 1172 3500 
L 2356 3500 
L 2356 3053 
L 1172 3053 
L 1172 1153 
Q 1172 725 1289 603 
Q 1406 481 1766 481 
L 2356 481 
L 2356 0 
L 1766 0 
Q 1100 0 847 248 
Q 594 497 594 1153 
L 594 3053 
L 172 3053 
L 172 3500 
L 594 3500 
L 594 4494 
L 1172 4494 
z
" transform="scale(0.015625)"/>
       <path id="DejaVuSans-70" d="M 1159 525 
L 1159 -1331 
L 581 -1331 
L 581 3500 
L 1159 3500 
L 1159 2969 
Q 1341 3281 1617 3432 
Q 1894 3584 2278 3584 
Q 2916 3584 3314 3078 
Q 3713 2572 3713 1747 
Q 3713 922 3314 415 
Q 2916 -91 2278 -91 
Q 1894 -91 1617 61 
Q 1341 213 1159 525 
z
M 3116 1747 
Q 3116 2381 2855 2742 
Q 2594 3103 2138 3103 
Q 1681 3103 1420 2742 
Q 1159 2381 1159 1747 
Q 1159 1113 1420 752 
Q 1681 391 2138 391 
Q 2594 391 2855 752 
Q 3116 1113 3116 1747 
z
" transform="scale(0.015625)"/>
       <path id="DejaVuSans-77" d="M 269 3500 
L 844 3500 
L 1563 769 
L 2278 3500 
L 2956 3500 
L 3675 769 
L 4391 3500 
L 4966 3500 
L 4050 0 
L 3372 0 
L 2619 2869 
L 1863 0 
L 1184 0 
L 269 3500 
z
" transform="scale(0.015625)"/>
      </defs>
      <use xlink:href="#DejaVuSans-52" transform="translate(0 0.171875)"/>
      <use xlink:href="#DejaVuSans-4d" transform="translate(69.482422 0.171875)"/>
      <use xlink:href="#DejaVuSans-53" transform="translate(155.761719 0.171875)"/>
      <use xlink:href="#DejaVuSans-44" transform="translate(219.238281 0.171875)"/>
      <use xlink:href="#DejaVuSans-20" transform="translate(296.240234 0.171875)"/>
      <use xlink:href="#DejaVuSans-73" transform="translate(328.027344 0.171875)"/>
      <use xlink:href="#DejaVuSans-74" transform="translate(380.126953 0.171875)"/>
      <use xlink:href="#DejaVuSans-65" transform="translate(419.335938 0.171875)"/>
      <use xlink:href="#DejaVuSans-70" transform="translate(480.859375 0.171875)"/>
      <use xlink:href="#DejaVuSans-77" transform="translate(544.335938 0.171875)"/>
      <use xlink:href="#DejaVuSans-69" transform="translate(626.123047 0.171875)"/>
      <use xlink:href="#DejaVuSans-73" transform="translate(653.90625 0.171875)"/>
      <use xlink:href="#DejaVuSans-65" transform="translate(706.005859 0.171875)"/>
      <use xlink:href="#DejaVuSans-20" transform="translate(767.529297 0.171875)"/>
      <use xlink:href="#DejaVuSans-5b" transform="translate(799.316406 0.171875)"/>
      <use xlink:href="#DejaVuSans-Oblique-c5" transform="translate(838.330078 0.171875)"/>
      <use xlink:href="#DejaVuSans-5d" transform="translate(906.738281 0.171875)"/>
     </g>
    </g>
   </g>
   <g id="LineCollection_17">
    <path d="M 525.369091 138.436161 
L 550.263409 138.436161 
" clip-path="url(#p531a2f14c5)" style="fill: none; stroke: #1f77b4; stroke-width: 1.5"/>
   </g>
   <g id="LineCollection_18">
    <path d="M 525.369091 58.169602 
L 550.263409 58.169602 
" clip-path="url(#p531a2f14c5)" style="fill: none; stroke: #1f77b4; stroke-width: 1.5"/>
   </g>
   <g id="LineCollection_19">
    <path d="M 525.369091 263.436648 
L 550.263409 263.436648 
" clip-path="url(#p531a2f14c5)" style="fill: none; stroke: #1f77b4; stroke-width: 1.5"/>
   </g>
   <g id="LineCollection_20">
    <path d="M 537.81625 263.436648 
L 537.81625 58.169602 
" clip-path="url(#p531a2f14c5)" style="fill: none; stroke: #1f77b4; stroke-width: 1.5"/>
   </g>
   <g id="patch_23">
    <path d="M 510.4325 273.7 
L 510.4325 47.90625 
" style="fill: none; stroke: #000000; stroke-width: 0.8; stroke-linejoin: miter; stroke-linecap: square"/>
   </g>
   <g id="patch_24">
    <path d="M 565.2 273.7 
L 565.2 47.90625 
" style="fill: none; stroke: #000000; stroke-width: 0.8; stroke-linejoin: miter; stroke-linecap: square"/>
   </g>
   <g id="patch_25">
    <path d="M 510.4325 273.7 
L 565.2 273.7 
" style="fill: none; stroke: #000000; stroke-width: 0.8; stroke-linejoin: miter; stroke-linecap: square"/>
   </g>
   <g id="patch_26">
    <path d="M 510.4325 47.90625 
L 565.2 47.90625 
" style="fill: none; stroke: #000000; stroke-width: 0.8; stroke-linejoin: miter; stroke-linecap: square"/>
   </g>
   <g id="text_47">
    <!-- RMSD stepwise -->
    <g transform="translate(491.764375 41.90625)scale(0.12 -0.12)">
     <use xlink:href="#DejaVuSans-52"/>
     <use xlink:href="#DejaVuSans-4d" x="69.482422"/>
     <use xlink:href="#DejaVuSans-53" x="155.761719"/>
     <use xlink:href="#DejaVuSans-44" x="219.238281"/>
     <use xlink:href="#DejaVuSans-20" x="296.240234"/>
     <use xlink:href="#DejaVuSans-73" x="328.027344"/>
     <use xlink:href="#DejaVuSans-74" x="380.126953"/>
     <use xlink:href="#DejaVuSans-65" x="419.335938"/>
     <use xlink:href="#DejaVuSans-70" x="480.859375"/>
     <use xlink:href="#DejaVuSans-77" x="544.335938"/>
     <use xlink:href="#DejaVuSans-69" x="626.123047"/>
     <use xlink:href="#DejaVuSans-73" x="653.90625"/>
     <use xlink:href="#DejaVuSans-65" x="706.005859"/>
    </g>
   </g>
  </g>
  <g id="text_48">
   <!-- Compound 1_1. Omega -->
   <g transform="translate(217.299375 14.878125)scale(0.12 -0.12)">
    <defs>
     <path id="DejaVuSans-43" d="M 4122 4306 
L 4122 3641 
Q 3803 3938 3442 4084 
Q 3081 4231 2675 4231 
Q 1875 4231 1450 3742 
Q 1025 3253 1025 2328 
Q 1025 1406 1450 917 
Q 1875 428 2675 428 
Q 3081 428 3442 575 
Q 3803 722 4122 1019 
L 4122 359 
Q 3791 134 3420 21 
Q 3050 -91 2638 -91 
Q 1578 -91 968 557 
Q 359 1206 359 2328 
Q 359 3453 968 4101 
Q 1578 4750 2638 4750 
Q 3056 4750 3426 4639 
Q 3797 4528 4122 4306 
z
" transform="scale(0.015625)"/>
     <path id="DejaVuSans-6f" d="M 1959 3097 
Q 1497 3097 1228 2736 
Q 959 2375 959 1747 
Q 959 1119 1226 758 
Q 1494 397 1959 397 
Q 2419 397 2687 759 
Q 2956 1122 2956 1747 
Q 2956 2369 2687 2733 
Q 2419 3097 1959 3097 
z
M 1959 3584 
Q 2709 3584 3137 3096 
Q 3566 2609 3566 1747 
Q 3566 888 3137 398 
Q 2709 -91 1959 -91 
Q 1206 -91 779 398 
Q 353 888 353 1747 
Q 353 2609 779 3096 
Q 1206 3584 1959 3584 
z
" transform="scale(0.015625)"/>
     <path id="DejaVuSans-6d" d="M 3328 2828 
Q 3544 3216 3844 3400 
Q 4144 3584 4550 3584 
Q 5097 3584 5394 3201 
Q 5691 2819 5691 2113 
L 5691 0 
L 5113 0 
L 5113 2094 
Q 5113 2597 4934 2840 
Q 4756 3084 4391 3084 
Q 3944 3084 3684 2787 
Q 3425 2491 3425 1978 
L 3425 0 
L 2847 0 
L 2847 2094 
Q 2847 2600 2669 2842 
Q 2491 3084 2119 3084 
Q 1678 3084 1418 2786 
Q 1159 2488 1159 1978 
L 1159 0 
L 581 0 
L 581 3500 
L 1159 3500 
L 1159 2956 
Q 1356 3278 1631 3431 
Q 1906 3584 2284 3584 
Q 2666 3584 2933 3390 
Q 3200 3197 3328 2828 
z
" transform="scale(0.015625)"/>
     <path id="DejaVuSans-6e" d="M 3513 2113 
L 3513 0 
L 2938 0 
L 2938 2094 
Q 2938 2591 2744 2837 
Q 2550 3084 2163 3084 
Q 1697 3084 1428 2787 
Q 1159 2491 1159 1978 
L 1159 0 
L 581 0 
L 581 3500 
L 1159 3500 
L 1159 2956 
Q 1366 3272 1645 3428 
Q 1925 3584 2291 3584 
Q 2894 3584 3203 3211 
Q 3513 2838 3513 2113 
z
" transform="scale(0.015625)"/>
     <path id="DejaVuSans-5f" d="M 3263 -1063 
L 3263 -1509 
L -63 -1509 
L -63 -1063 
L 3263 -1063 
z
" transform="scale(0.015625)"/>
     <path id="DejaVuSans-67" d="M 2906 1791 
Q 2906 2416 2648 2759 
Q 2391 3103 1925 3103 
Q 1463 3103 1205 2759 
Q 947 2416 947 1791 
Q 947 1169 1205 825 
Q 1463 481 1925 481 
Q 2391 481 2648 825 
Q 2906 1169 2906 1791 
z
M 3481 434 
Q 3481 -459 3084 -895 
Q 2688 -1331 1869 -1331 
Q 1566 -1331 1297 -1286 
Q 1028 -1241 775 -1147 
L 775 -588 
Q 1028 -725 1275 -790 
Q 1522 -856 1778 -856 
Q 2344 -856 2625 -561 
Q 2906 -266 2906 331 
L 2906 616 
Q 2728 306 2450 153 
Q 2172 0 1784 0 
Q 1141 0 747 490 
Q 353 981 353 1791 
Q 353 2603 747 3093 
Q 1141 3584 1784 3584 
Q 2172 3584 2450 3431 
Q 2728 3278 2906 2969 
L 2906 3500 
L 3481 3500 
L 3481 434 
z
" transform="scale(0.015625)"/>
     <path id="DejaVuSans-61" d="M 2194 1759 
Q 1497 1759 1228 1600 
Q 959 1441 959 1056 
Q 959 750 1161 570 
Q 1363 391 1709 391 
Q 2188 391 2477 730 
Q 2766 1069 2766 1631 
L 2766 1759 
L 2194 1759 
z
M 3341 1997 
L 3341 0 
L 2766 0 
L 2766 531 
Q 2569 213 2275 61 
Q 1981 -91 1556 -91 
Q 1019 -91 701 211 
Q 384 513 384 1019 
Q 384 1609 779 1909 
Q 1175 2209 1959 2209 
L 2766 2209 
L 2766 2266 
Q 2766 2663 2505 2880 
Q 2244 3097 1772 3097 
Q 1472 3097 1187 3025 
Q 903 2953 641 2809 
L 641 3341 
Q 956 3463 1253 3523 
Q 1550 3584 1831 3584 
Q 2591 3584 2966 3190 
Q 3341 2797 3341 1997 
z
" transform="scale(0.015625)"/>
    </defs>
    <use xlink:href="#DejaVuSans-43"/>
    <use xlink:href="#DejaVuSans-6f" x="69.824219"/>
    <use xlink:href="#DejaVuSans-6d" x="131.005859"/>
    <use xlink:href="#DejaVuSans-70" x="228.417969"/>
    <use xlink:href="#DejaVuSans-6f" x="291.894531"/>
    <use xlink:href="#DejaVuSans-75" x="353.076172"/>
    <use xlink:href="#DejaVuSans-6e" x="416.455078"/>
    <use xlink:href="#DejaVuSans-64" x="479.833984"/>
    <use xlink:href="#DejaVuSans-20" x="543.310547"/>
    <use xlink:href="#DejaVuSans-31" x="575.097656"/>
    <use xlink:href="#DejaVuSans-5f" x="638.720703"/>
    <use xlink:href="#DejaVuSans-31" x="688.720703"/>
    <use xlink:href="#DejaVuSans-2e" x="752.34375"/>
    <use xlink:href="#DejaVuSans-20" x="784.130859"/>
    <use xlink:href="#DejaVuSans-4f" x="815.917969"/>
    <use xlink:href="#DejaVuSans-6d" x="894.628906"/>
    <use xlink:href="#DejaVuSans-65" x="992.041016"/>
    <use xlink:href="#DejaVuSans-67" x="1053.564453"/>
    <use xlink:href="#DejaVuSans-61" x="1117.041016"/>
   </g>
  </g>
 </g>
 <defs>
  <clipPath id="p9eabf45de0">
   <rect x="57.2825" y="47.90625" width="54.7675" height="225.79375"/>
  </clipPath>
  <clipPath id="p3daa02dd80">
   <rect x="170.57" y="47.90625" width="54.7675" height="225.79375"/>
  </clipPath>
  <clipPath id="pb64575329d">
   <rect x="283.8575" y="47.90625" width="54.7675" height="225.79375"/>
  </clipPath>
  <clipPath id="p8f18ab47a0">
   <rect x="397.145" y="47.90625" width="54.7675" height="225.79375"/>
  </clipPath>
  <clipPath id="p531a2f14c5">
   <rect x="510.4325" y="47.90625" width="54.7675" height="225.79375"/>
  </clipPath>
 </defs>
</svg>
