<?xml version="1.0" encoding="utf-8" standalone="no"?>
<!DOCTYPE svg PUBLIC "-//W3C//DTD SVG 1.1//EN"
  "http://www.w3.org/Graphics/SVG/1.1/DTD/svg11.dtd">
<svg xmlns:xlink="http://www.w3.org/1999/xlink" width="576pt" height="288pt" viewBox="0 0 576 288" xmlns="http://www.w3.org/2000/svg" version="1.1">
 <metadata>
  <rdf:RDF xmlns:dc="http://purl.org/dc/elements/1.1/" xmlns:cc="http://creativecommons.org/ns#" xmlns:rdf="http://www.w3.org/1999/02/22-rdf-syntax-ns#">
   <cc:Work>
    <dc:type rdf:resource="http://purl.org/dc/dcmitype/StillImage"/>
    <dc:date>2023-05-31T12:16:54.427521</dc:date>
    <dc:format>image/svg+xml</dc:format>
    <dc:creator>
     <cc:Agent>
      <dc:title>Matplotlib v3.5.3, https://matplotlib.org/</dc:title>
     </cc:Agent>
    </dc:creator>
   </cc:Work>
  </rdf:RDF>
 </metadata>
 <defs>
  <style type="text/css">*{stroke-linejoin: round; stroke-linecap: butt}</style>
 </defs>
 <g id="figure_1">
  <g id="patch_1">
   <path d="M 0 288 
L 576 288 
L 576 0 
L 0 0 
z
" style="fill: #ffffff"/>
  </g>
  <g id="axes_1">
   <g id="patch_2">
    <path d="M 50.8925 273.7 
L 110.394 273.7 
L 110.394 47.04 
L 50.8925 47.04 
z
" style="fill: #ffffff"/>
   </g>
   <g id="PolyCollection_1">
    <path d="M 82.291521 263.397273 
L 78.994979 263.397273 
L 78.646755 261.315914 
L 78.247807 259.234555 
L 77.795782 257.153196 
L 77.289203 255.071837 
L 76.727559 252.990478 
L 76.111339 250.909118 
L 75.442006 248.827759 
L 74.721927 246.7464 
L 73.95427 244.665041 
L 73.142915 242.583682 
L 72.292385 240.502323 
L 71.407859 238.420964 
L 70.495254 236.339605 
L 69.561392 234.258246 
L 68.614219 232.176887 
L 67.663012 230.095528 
L 66.718497 228.014169 
L 65.792794 225.93281 
L 64.89909 223.851451 
L 64.051015 221.770092 
L 63.261688 219.688733 
L 62.542536 217.607374 
L 61.901973 215.526015 
L 61.344156 213.444656 
L 60.867988 211.363297 
L 60.466593 209.281938 
L 60.127389 207.200579 
L 59.832861 205.119219 
L 59.561997 203.03786 
L 59.292285 200.956501 
L 59.002061 198.875142 
L 58.672933 196.793783 
L 58.291995 194.712424 
L 57.853518 192.631065 
L 57.359908 190.549706 
L 56.821757 188.468347 
L 56.256961 186.386988 
L 55.688999 184.305629 
L 55.144546 182.22427 
L 54.650744 180.142911 
L 54.232433 178.061552 
L 53.909692 175.980193 
L 53.69599 173.898834 
L 53.597114 171.817475 
L 53.610987 169.736116 
L 53.728331 167.654757 
L 53.93403 165.573398 
L 54.208974 163.492039 
L 54.532135 161.41068 
L 54.882601 159.32932 
L 55.24136 157.247961 
L 55.592675 155.166602 
L 55.924959 153.085243 
L 56.231161 151.003884 
L 56.508696 148.922525 
L 56.759016 146.841166 
L 56.986938 144.759807 
L 57.199813 142.678448 
L 57.406649 140.597089 
L 57.61722 138.51573 
L 57.841237 136.434371 
L 58.087591 134.353012 
L 58.363707 132.271653 
L 58.675033 130.190294 
L 59.024709 128.108935 
L 59.41342 126.027576 
L 59.839488 123.946217 
L 60.299171 121.864858 
L 60.787166 119.783499 
L 61.297245 117.70214 
L 61.822963 115.620781 
L 62.358332 113.539421 
L 62.898394 111.458062 
L 63.439613 109.376703 
L 63.980061 107.295344 
L 64.519389 105.213985 
L 65.058631 103.132626 
L 65.599871 101.051267 
L 66.145861 98.969908 
L 66.699633 96.888549 
L 67.264144 94.80719 
L 67.841991 92.725831 
L 68.435168 90.644472 
L 69.044892 88.563113 
L 69.671445 86.481754 
L 70.314054 84.400395 
L 70.970811 82.319036 
L 71.638629 80.237677 
L 72.313283 78.156318 
L 72.989537 76.074959 
L 73.661362 73.9936 
L 74.32225 71.912241 
L 74.965572 69.830882 
L 75.584968 67.749522 
L 76.174688 65.668163 
L 76.729873 63.586804 
L 77.246738 61.505445 
L 77.722646 59.424086 
L 78.156086 57.342727 
L 83.130414 57.342727 
L 83.130414 57.342727 
L 83.563854 59.424086 
L 84.039762 61.505445 
L 84.556627 63.586804 
L 85.111812 65.668163 
L 85.701532 67.749522 
L 86.320928 69.830882 
L 86.96425 71.912241 
L 87.625138 73.9936 
L 88.296963 76.074959 
L 88.973217 78.156318 
L 89.647871 80.237677 
L 90.315689 82.319036 
L 90.972446 84.400395 
L 91.615055 86.481754 
L 92.241608 88.563113 
L 92.851332 90.644472 
L 93.444509 92.725831 
L 94.022356 94.80719 
L 94.586867 96.888549 
L 95.140639 98.969908 
L 95.686629 101.051267 
L 96.227869 103.132626 
L 96.767111 105.213985 
L 97.306439 107.295344 
L 97.846887 109.376703 
L 98.388106 111.458062 
L 98.928168 113.539421 
L 99.463537 115.620781 
L 99.989255 117.70214 
L 100.499334 119.783499 
L 100.987329 121.864858 
L 101.447012 123.946217 
L 101.87308 126.027576 
L 102.261791 128.108935 
L 102.611467 130.190294 
L 102.922793 132.271653 
L 103.198909 134.353012 
L 103.445263 136.434371 
L 103.66928 138.51573 
L 103.879851 140.597089 
L 104.086687 142.678448 
L 104.299562 144.759807 
L 104.527484 146.841166 
L 104.777804 148.922525 
L 105.055339 151.003884 
L 105.361541 153.085243 
L 105.693825 155.166602 
L 106.04514 157.247961 
L 106.403899 159.32932 
L 106.754365 161.41068 
L 107.077526 163.492039 
L 107.35247 165.573398 
L 107.558169 167.654757 
L 107.675513 169.736116 
L 107.689386 171.817475 
L 107.59051 173.898834 
L 107.376808 175.980193 
L 107.054067 178.061552 
L 106.635756 180.142911 
L 106.141954 182.22427 
L 105.597501 184.305629 
L 105.029539 186.386988 
L 104.464743 188.468347 
L 103.926592 190.549706 
L 103.432982 192.631065 
L 102.994505 194.712424 
L 102.613567 196.793783 
L 102.284439 198.875142 
L 101.994215 200.956501 
L 101.724503 203.03786 
L 101.453639 205.119219 
L 101.159111 207.200579 
L 100.819907 209.281938 
L 100.418512 211.363297 
L 99.942344 213.444656 
L 99.384527 215.526015 
L 98.743964 217.607374 
L 98.024812 219.688733 
L 97.235485 221.770092 
L 96.38741 223.851451 
L 95.493706 225.93281 
L 94.568003 228.014169 
L 93.623488 230.095528 
L 92.672281 232.176887 
L 91.725108 234.258246 
L 90.791246 236.339605 
L 89.878641 238.420964 
L 88.994115 240.502323 
L 88.143585 242.583682 
L 87.33223 244.665041 
L 86.564573 246.7464 
L 85.844494 248.827759 
L 85.175161 250.909118 
L 84.558941 252.990478 
L 83.997297 255.071837 
L 83.490718 257.153196 
L 83.038693 259.234555 
L 82.639745 261.315914 
L 82.291521 263.397273 
z
" clip-path="url(#p58c1609203)" style="fill: #1f77b4; fill-opacity: 0.3"/>
   </g>
   <g id="matplotlib.axis_1">
    <g id="ytick_1">
     <g id="line2d_1">
      <defs>
       <path id="med72b38a83" d="M 0 0 
L -3.5 0 
" style="stroke: #000000; stroke-width: 0.8"/>
      </defs>
      <g>
       <use xlink:href="#med72b38a83" x="50.8925" y="260.837878" style="stroke: #000000; stroke-width: 0.8"/>
      </g>
     </g>
     <g id="text_1">
      <!-- 0.4 -->
      <g transform="translate(27.989375 264.637097)scale(0.1 -0.1)">
       <defs>
        <path id="DejaVuSans-30" d="M 2034 4250 
Q 1547 4250 1301 3770 
Q 1056 3291 1056 2328 
Q 1056 1369 1301 889 
Q 1547 409 2034 409 
Q 2525 409 2770 889 
Q 3016 1369 3016 2328 
Q 3016 3291 2770 3770 
Q 2525 4250 2034 4250 
z
M 2034 4750 
Q 2819 4750 3233 4129 
Q 3647 3509 3647 2328 
Q 3647 1150 3233 529 
Q 2819 -91 2034 -91 
Q 1250 -91 836 529 
Q 422 1150 422 2328 
Q 422 3509 836 4129 
Q 1250 4750 2034 4750 
z
" transform="scale(0.015625)"/>
        <path id="DejaVuSans-2e" d="M 684 794 
L 1344 794 
L 1344 0 
L 684 0 
L 684 794 
z
" transform="scale(0.015625)"/>
        <path id="DejaVuSans-34" d="M 2419 4116 
L 825 1625 
L 2419 1625 
L 2419 4116 
z
M 2253 4666 
L 3047 4666 
L 3047 1625 
L 3713 1625 
L 3713 1100 
L 3047 1100 
L 3047 0 
L 2419 0 
L 2419 1100 
L 313 1100 
L 313 1709 
L 2253 4666 
z
" transform="scale(0.015625)"/>
       </defs>
       <use xlink:href="#DejaVuSans-30"/>
       <use xlink:href="#DejaVuSans-2e" x="63.623047"/>
       <use xlink:href="#DejaVuSans-34" x="95.410156"/>
      </g>
     </g>
    </g>
    <g id="ytick_2">
     <g id="line2d_2">
      <g>
       <use xlink:href="#med72b38a83" x="50.8925" y="217.769909" style="stroke: #000000; stroke-width: 0.8"/>
      </g>
     </g>
     <g id="text_2">
      <!-- 0.6 -->
      <g transform="translate(27.989375 221.569127)scale(0.1 -0.1)">
       <defs>
        <path id="DejaVuSans-36" d="M 2113 2584 
Q 1688 2584 1439 2293 
Q 1191 2003 1191 1497 
Q 1191 994 1439 701 
Q 1688 409 2113 409 
Q 2538 409 2786 701 
Q 3034 994 3034 1497 
Q 3034 2003 2786 2293 
Q 2538 2584 2113 2584 
z
M 3366 4563 
L 3366 3988 
Q 3128 4100 2886 4159 
Q 2644 4219 2406 4219 
Q 1781 4219 1451 3797 
Q 1122 3375 1075 2522 
Q 1259 2794 1537 2939 
Q 1816 3084 2150 3084 
Q 2853 3084 3261 2657 
Q 3669 2231 3669 1497 
Q 3669 778 3244 343 
Q 2819 -91 2113 -91 
Q 1303 -91 875 529 
Q 447 1150 447 2328 
Q 447 3434 972 4092 
Q 1497 4750 2381 4750 
Q 2619 4750 2861 4703 
Q 3103 4656 3366 4563 
z
" transform="scale(0.015625)"/>
       </defs>
       <use xlink:href="#DejaVuSans-30"/>
       <use xlink:href="#DejaVuSans-2e" x="63.623047"/>
       <use xlink:href="#DejaVuSans-36" x="95.410156"/>
      </g>
     </g>
    </g>
    <g id="ytick_3">
     <g id="line2d_3">
      <g>
       <use xlink:href="#med72b38a83" x="50.8925" y="174.701939" style="stroke: #000000; stroke-width: 0.8"/>
      </g>
     </g>
     <g id="text_3">
      <!-- 0.8 -->
      <g transform="translate(27.989375 178.501158)scale(0.1 -0.1)">
       <defs>
        <path id="DejaVuSans-38" d="M 2034 2216 
Q 1584 2216 1326 1975 
Q 1069 1734 1069 1313 
Q 1069 891 1326 650 
Q 1584 409 2034 409 
Q 2484 409 2743 651 
Q 3003 894 3003 1313 
Q 3003 1734 2745 1975 
Q 2488 2216 2034 2216 
z
M 1403 2484 
Q 997 2584 770 2862 
Q 544 3141 544 3541 
Q 544 4100 942 4425 
Q 1341 4750 2034 4750 
Q 2731 4750 3128 4425 
Q 3525 4100 3525 3541 
Q 3525 3141 3298 2862 
Q 3072 2584 2669 2484 
Q 3125 2378 3379 2068 
Q 3634 1759 3634 1313 
Q 3634 634 3220 271 
Q 2806 -91 2034 -91 
Q 1263 -91 848 271 
Q 434 634 434 1313 
Q 434 1759 690 2068 
Q 947 2378 1403 2484 
z
M 1172 3481 
Q 1172 3119 1398 2916 
Q 1625 2713 2034 2713 
Q 2441 2713 2670 2916 
Q 2900 3119 2900 3481 
Q 2900 3844 2670 4047 
Q 2441 4250 2034 4250 
Q 1625 4250 1398 4047 
Q 1172 3844 1172 3481 
z
" transform="scale(0.015625)"/>
       </defs>
       <use xlink:href="#DejaVuSans-30"/>
       <use xlink:href="#DejaVuSans-2e" x="63.623047"/>
       <use xlink:href="#DejaVuSans-38" x="95.410156"/>
      </g>
     </g>
    </g>
    <g id="ytick_4">
     <g id="line2d_4">
      <g>
       <use xlink:href="#med72b38a83" x="50.8925" y="131.63397" style="stroke: #000000; stroke-width: 0.8"/>
      </g>
     </g>
     <g id="text_4">
      <!-- 1.0 -->
      <g transform="translate(27.989375 135.433189)scale(0.1 -0.1)">
       <defs>
        <path id="DejaVuSans-31" d="M 794 531 
L 1825 531 
L 1825 4091 
L 703 3866 
L 703 4441 
L 1819 4666 
L 2450 4666 
L 2450 531 
L 3481 531 
L 3481 0 
L 794 0 
L 794 531 
z
" transform="scale(0.015625)"/>
       </defs>
       <use xlink:href="#DejaVuSans-31"/>
       <use xlink:href="#DejaVuSans-2e" x="63.623047"/>
       <use xlink:href="#DejaVuSans-30" x="95.410156"/>
      </g>
     </g>
    </g>
    <g id="ytick_5">
     <g id="line2d_5">
      <g>
       <use xlink:href="#med72b38a83" x="50.8925" y="88.566001" style="stroke: #000000; stroke-width: 0.8"/>
      </g>
     </g>
     <g id="text_5">
      <!-- 1.2 -->
      <g transform="translate(27.989375 92.365219)scale(0.1 -0.1)">
       <defs>
        <path id="DejaVuSans-32" d="M 1228 531 
L 3431 531 
L 3431 0 
L 469 0 
L 469 531 
Q 828 903 1448 1529 
Q 2069 2156 2228 2338 
Q 2531 2678 2651 2914 
Q 2772 3150 2772 3378 
Q 2772 3750 2511 3984 
Q 2250 4219 1831 4219 
Q 1534 4219 1204 4116 
Q 875 4013 500 3803 
L 500 4441 
Q 881 4594 1212 4672 
Q 1544 4750 1819 4750 
Q 2544 4750 2975 4387 
Q 3406 4025 3406 3419 
Q 3406 3131 3298 2873 
Q 3191 2616 2906 2266 
Q 2828 2175 2409 1742 
Q 1991 1309 1228 531 
z
" transform="scale(0.015625)"/>
       </defs>
       <use xlink:href="#DejaVuSans-31"/>
       <use xlink:href="#DejaVuSans-2e" x="63.623047"/>
       <use xlink:href="#DejaVuSans-32" x="95.410156"/>
      </g>
     </g>
    </g>
    <g id="text_6">
     <!-- RMSD [$\AA$] -->
     <g transform="translate(21.909688 184.12)rotate(-90)scale(0.1 -0.1)">
      <defs>
       <path id="DejaVuSans-52" d="M 2841 2188 
Q 3044 2119 3236 1894 
Q 3428 1669 3622 1275 
L 4263 0 
L 3584 0 
L 2988 1197 
Q 2756 1666 2539 1819 
Q 2322 1972 1947 1972 
L 1259 1972 
L 1259 0 
L 628 0 
L 628 4666 
L 2053 4666 
Q 2853 4666 3247 4331 
Q 3641 3997 3641 3322 
Q 3641 2881 3436 2590 
Q 3231 2300 2841 2188 
z
M 1259 4147 
L 1259 2491 
L 2053 2491 
Q 2509 2491 2742 2702 
Q 2975 2913 2975 3322 
Q 2975 3731 2742 3939 
Q 2509 4147 2053 4147 
L 1259 4147 
z
" transform="scale(0.015625)"/>
       <path id="DejaVuSans-4d" d="M 628 4666 
L 1569 4666 
L 2759 1491 
L 3956 4666 
L 4897 4666 
L 4897 0 
L 4281 0 
L 4281 4097 
L 3078 897 
L 2444 897 
L 1241 4097 
L 1241 0 
L 628 0 
L 628 4666 
z
" transform="scale(0.015625)"/>
       <path id="DejaVuSans-53" d="M 3425 4513 
L 3425 3897 
Q 3066 4069 2747 4153 
Q 2428 4238 2131 4238 
Q 1616 4238 1336 4038 
Q 1056 3838 1056 3469 
Q 1056 3159 1242 3001 
Q 1428 2844 1947 2747 
L 2328 2669 
Q 3034 2534 3370 2195 
Q 3706 1856 3706 1288 
Q 3706 609 3251 259 
Q 2797 -91 1919 -91 
Q 1588 -91 1214 -16 
Q 841 59 441 206 
L 441 856 
Q 825 641 1194 531 
Q 1563 422 1919 422 
Q 2459 422 2753 634 
Q 3047 847 3047 1241 
Q 3047 1584 2836 1778 
Q 2625 1972 2144 2069 
L 1759 2144 
Q 1053 2284 737 2584 
Q 422 2884 422 3419 
Q 422 4038 858 4394 
Q 1294 4750 2059 4750 
Q 2388 4750 2728 4690 
Q 3069 4631 3425 4513 
z
" transform="scale(0.015625)"/>
       <path id="DejaVuSans-44" d="M 1259 4147 
L 1259 519 
L 2022 519 
Q 2988 519 3436 956 
Q 3884 1394 3884 2338 
Q 3884 3275 3436 3711 
Q 2988 4147 2022 4147 
L 1259 4147 
z
M 628 4666 
L 1925 4666 
Q 3281 4666 3915 4102 
Q 4550 3538 4550 2338 
Q 4550 1131 3912 565 
Q 3275 0 1925 0 
L 628 0 
L 628 4666 
z
" transform="scale(0.015625)"/>
       <path id="DejaVuSans-20" transform="scale(0.015625)"/>
       <path id="DejaVuSans-5b" d="M 550 4863 
L 1875 4863 
L 1875 4416 
L 1125 4416 
L 1125 -397 
L 1875 -397 
L 1875 -844 
L 550 -844 
L 550 4863 
z
" transform="scale(0.015625)"/>
       <path id="DejaVuSans-Oblique-c5" d="M 3188 5081 
Q 3188 5278 3048 5417 
Q 2909 5556 2713 5556 
Q 2513 5556 2377 5420 
Q 2241 5284 2241 5081 
Q 2241 4884 2377 4746 
Q 2513 4609 2713 4609 
Q 2909 4609 3048 4746 
Q 3188 4884 3188 5081 
z
M 2203 4397 
Q 2034 4513 1945 4689 
Q 1856 4866 1856 5081 
Q 1856 5438 2106 5689 
Q 2356 5941 2713 5941 
Q 3069 5941 3320 5689 
Q 3572 5438 3572 5081 
Q 3572 4834 3458 4643 
Q 3344 4453 3128 4341 
L 3938 0 
L 3278 0 
L 3084 1197 
L 984 1197 
L 325 0 
L -341 0 
L 2203 4397 
z
M 2584 4044 
L 1275 1722 
L 2988 1722 
L 2584 4044 
z
" transform="scale(0.015625)"/>
       <path id="DejaVuSans-5d" d="M 1947 4863 
L 1947 -844 
L 622 -844 
L 622 -397 
L 1369 -397 
L 1369 4416 
L 622 4416 
L 622 4863 
L 1947 4863 
z
" transform="scale(0.015625)"/>
      </defs>
      <use xlink:href="#DejaVuSans-52" transform="translate(0 0.171875)"/>
      <use xlink:href="#DejaVuSans-4d" transform="translate(69.482422 0.171875)"/>
      <use xlink:href="#DejaVuSans-53" transform="translate(155.761719 0.171875)"/>
      <use xlink:href="#DejaVuSans-44" transform="translate(219.238281 0.171875)"/>
      <use xlink:href="#DejaVuSans-20" transform="translate(296.240234 0.171875)"/>
      <use xlink:href="#DejaVuSans-5b" transform="translate(328.027344 0.171875)"/>
      <use xlink:href="#DejaVuSans-Oblique-c5" transform="translate(367.041016 0.171875)"/>
      <use xlink:href="#DejaVuSans-5d" transform="translate(435.449219 0.171875)"/>
     </g>
    </g>
   </g>
   <g id="LineCollection_1">
    <path d="M 67.120182 160.810149 
L 94.166318 160.810149 
" clip-path="url(#p58c1609203)" style="fill: none; stroke: #1f77b4; stroke-width: 1.5"/>
   </g>
   <g id="LineCollection_2">
    <path d="M 67.120182 57.342727 
L 94.166318 57.342727 
" clip-path="url(#p58c1609203)" style="fill: none; stroke: #1f77b4; stroke-width: 1.5"/>
   </g>
   <g id="LineCollection_3">
    <path d="M 67.120182 263.397273 
L 94.166318 263.397273 
" clip-path="url(#p58c1609203)" style="fill: none; stroke: #1f77b4; stroke-width: 1.5"/>
   </g>
   <g id="LineCollection_4">
    <path d="M 80.64325 263.397273 
L 80.64325 57.342727 
" clip-path="url(#p58c1609203)" style="fill: none; stroke: #1f77b4; stroke-width: 1.5"/>
   </g>
   <g id="patch_3">
    <path d="M 50.8925 273.7 
L 50.8925 47.04 
" style="fill: none; stroke: #000000; stroke-width: 0.8; stroke-linejoin: miter; stroke-linecap: square"/>
   </g>
   <g id="patch_4">
    <path d="M 110.394 273.7 
L 110.394 47.04 
" style="fill: none; stroke: #000000; stroke-width: 0.8; stroke-linejoin: miter; stroke-linecap: square"/>
   </g>
   <g id="patch_5">
    <path d="M 50.8925 273.7 
L 110.394 273.7 
" style="fill: none; stroke: #000000; stroke-width: 0.8; stroke-linejoin: miter; stroke-linecap: square"/>
   </g>
   <g id="patch_6">
    <path d="M 50.8925 47.04 
L 110.394 47.04 
" style="fill: none; stroke: #000000; stroke-width: 0.8; stroke-linejoin: miter; stroke-linecap: square"/>
   </g>
   <g id="text_7">
    <!-- RMSD -->
    <g transform="translate(62.86825 41.04)scale(0.12 -0.12)">
     <use xlink:href="#DejaVuSans-52"/>
     <use xlink:href="#DejaVuSans-4d" x="69.482422"/>
     <use xlink:href="#DejaVuSans-53" x="155.761719"/>
     <use xlink:href="#DejaVuSans-44" x="219.238281"/>
    </g>
   </g>
  </g>
  <g id="axes_2">
   <g id="patch_7">
    <path d="M 164.594 273.7 
L 224.0955 273.7 
L 224.0955 47.04 
L 164.594 47.04 
z
" style="fill: #ffffff"/>
   </g>
   <g id="PolyCollection_2">
    <path d="M 194.741578 263.397273 
L 193.947922 263.397273 
L 193.878812 261.315914 
L 193.793157 259.234555 
L 193.685721 257.153196 
L 193.551207 255.071837 
L 193.384874 252.990478 
L 193.183116 250.909118 
L 192.943891 248.827759 
L 192.666895 246.7464 
L 192.35343 244.665041 
L 192.005977 242.583682 
L 191.627575 240.502323 
L 191.221128 238.420964 
L 190.788831 236.339605 
L 190.331839 234.258246 
L 189.850254 232.176887 
L 189.343425 230.095528 
L 188.810446 228.014169 
L 188.250697 225.93281 
L 187.664266 223.851451 
L 187.052144 221.770092 
L 186.416199 219.688733 
L 185.759016 217.607374 
L 185.083772 215.526015 
L 184.394305 213.444656 
L 183.695441 211.363297 
L 182.993541 209.281938 
L 182.297044 207.200579 
L 181.616711 205.119219 
L 180.965268 203.03786 
L 180.356256 200.956501 
L 179.802109 198.875142 
L 179.311727 196.793783 
L 178.888047 194.712424 
L 178.526196 192.631065 
L 178.212777 190.549706 
L 177.926627 188.468347 
L 177.641049 186.386988 
L 177.327199 184.305629 
L 176.958007 182.22427 
L 176.511916 180.142911 
L 175.975767 178.061552 
L 175.346361 175.980193 
L 174.630547 173.898834 
L 173.843982 171.817475 
L 173.008922 169.736116 
L 172.151576 167.654757 
L 171.299491 165.573398 
L 170.479387 163.492039 
L 169.715676 161.41068 
L 169.029707 159.32932 
L 168.439622 157.247961 
L 167.960556 155.166602 
L 167.604866 153.085243 
L 167.38211 151.003884 
L 167.298614 148.922525 
L 167.356648 146.841166 
L 167.553441 144.759807 
L 167.880391 142.678448 
L 168.322881 140.597089 
L 168.86101 138.51573 
L 169.471308 136.434371 
L 170.129272 134.353012 
L 170.812275 132.271653 
L 171.502276 130.190294 
L 172.187754 128.108935 
L 172.864453 126.027576 
L 173.53478 123.946217 
L 174.20602 121.864858 
L 174.887759 119.783499 
L 175.589101 117.70214 
L 176.316232 115.620781 
L 177.070829 113.539421 
L 177.849564 111.458062 
L 178.644725 109.376703 
L 179.445759 107.295344 
L 180.241345 105.213985 
L 181.021535 103.132626 
L 181.779512 101.051267 
L 182.51262 98.969908 
L 183.222481 96.888549 
L 183.914222 94.80719 
L 184.595019 92.725831 
L 185.272275 90.644472 
L 185.95183 88.563113 
L 186.636542 86.481754 
L 187.325485 84.400395 
L 188.013873 82.319036 
L 188.693648 80.237677 
L 189.35459 78.156318 
L 189.985699 76.074959 
L 190.576615 73.9936 
L 191.118832 71.912241 
L 191.606568 69.830882 
L 192.037178 67.749522 
L 192.411114 65.668163 
L 192.73149 63.586804 
L 193.003364 61.505445 
L 193.232892 59.424086 
L 193.426495 57.342727 
L 195.263005 57.342727 
L 195.263005 57.342727 
L 195.456608 59.424086 
L 195.686136 61.505445 
L 195.95801 63.586804 
L 196.278386 65.668163 
L 196.652322 67.749522 
L 197.082932 69.830882 
L 197.570668 71.912241 
L 198.112885 73.9936 
L 198.703801 76.074959 
L 199.33491 78.156318 
L 199.995852 80.237677 
L 200.675627 82.319036 
L 201.364015 84.400395 
L 202.052958 86.481754 
L 202.73767 88.563113 
L 203.417225 90.644472 
L 204.094481 92.725831 
L 204.775278 94.80719 
L 205.467019 96.888549 
L 206.17688 98.969908 
L 206.909988 101.051267 
L 207.667965 103.132626 
L 208.448155 105.213985 
L 209.243741 107.295344 
L 210.044775 109.376703 
L 210.839936 111.458062 
L 211.618671 113.539421 
L 212.373268 115.620781 
L 213.100399 117.70214 
L 213.801741 119.783499 
L 214.48348 121.864858 
L 215.15472 123.946217 
L 215.825047 126.027576 
L 216.501746 128.108935 
L 217.187224 130.190294 
L 217.877225 132.271653 
L 218.560228 134.353012 
L 219.218192 136.434371 
L 219.82849 138.51573 
L 220.366619 140.597089 
L 220.809109 142.678448 
L 221.136059 144.759807 
L 221.332852 146.841166 
L 221.390886 148.922525 
L 221.30739 151.003884 
L 221.084634 153.085243 
L 220.728944 155.166602 
L 220.249878 157.247961 
L 219.659793 159.32932 
L 218.973824 161.41068 
L 218.210113 163.492039 
L 217.390009 165.573398 
L 216.537924 167.654757 
L 215.680578 169.736116 
L 214.845518 171.817475 
L 214.058953 173.898834 
L 213.343139 175.980193 
L 212.713733 178.061552 
L 212.177584 180.142911 
L 211.731493 182.22427 
L 211.362301 184.305629 
L 211.048451 186.386988 
L 210.762873 188.468347 
L 210.476723 190.549706 
L 210.163304 192.631065 
L 209.801453 194.712424 
L 209.377773 196.793783 
L 208.887391 198.875142 
L 208.333244 200.956501 
L 207.724232 203.03786 
L 207.072789 205.119219 
L 206.392456 207.200579 
L 205.695959 209.281938 
L 204.994059 211.363297 
L 204.295195 213.444656 
L 203.605728 215.526015 
L 202.930484 217.607374 
L 202.273301 219.688733 
L 201.637356 221.770092 
L 201.025234 223.851451 
L 200.438803 225.93281 
L 199.879054 228.014169 
L 199.346075 230.095528 
L 198.839246 232.176887 
L 198.357661 234.258246 
L 197.900669 236.339605 
L 197.468372 238.420964 
L 197.061925 240.502323 
L 196.683523 242.583682 
L 196.33607 244.665041 
L 196.022605 246.7464 
L 195.745609 248.827759 
L 195.506384 250.909118 
L 195.304626 252.990478 
L 195.138293 255.071837 
L 195.003779 257.153196 
L 194.896343 259.234555 
L 194.810688 261.315914 
L 194.741578 263.397273 
z
" clip-path="url(#pafce5c8c94)" style="fill: #1f77b4; fill-opacity: 0.3"/>
   </g>
   <g id="matplotlib.axis_2">
    <g id="ytick_6">
     <g id="line2d_6">
      <g>
       <use xlink:href="#med72b38a83" x="164.594" y="251.352209" style="stroke: #000000; stroke-width: 0.8"/>
      </g>
     </g>
     <g id="text_8">
      <!-- 0.3 -->
      <g transform="translate(141.690875 255.151428)scale(0.1 -0.1)">
       <defs>
        <path id="DejaVuSans-33" d="M 2597 2516 
Q 3050 2419 3304 2112 
Q 3559 1806 3559 1356 
Q 3559 666 3084 287 
Q 2609 -91 1734 -91 
Q 1441 -91 1130 -33 
Q 819 25 488 141 
L 488 750 
Q 750 597 1062 519 
Q 1375 441 1716 441 
Q 2309 441 2620 675 
Q 2931 909 2931 1356 
Q 2931 1769 2642 2001 
Q 2353 2234 1838 2234 
L 1294 2234 
L 1294 2753 
L 1863 2753 
Q 2328 2753 2575 2939 
Q 2822 3125 2822 3475 
Q 2822 3834 2567 4026 
Q 2313 4219 1838 4219 
Q 1578 4219 1281 4162 
Q 984 4106 628 3988 
L 628 4550 
Q 988 4650 1302 4700 
Q 1616 4750 1894 4750 
Q 2613 4750 3031 4423 
Q 3450 4097 3450 3541 
Q 3450 3153 3228 2886 
Q 3006 2619 2597 2516 
z
" transform="scale(0.015625)"/>
       </defs>
       <use xlink:href="#DejaVuSans-30"/>
       <use xlink:href="#DejaVuSans-2e" x="63.623047"/>
       <use xlink:href="#DejaVuSans-33" x="95.410156"/>
      </g>
     </g>
    </g>
    <g id="ytick_7">
     <g id="line2d_7">
      <g>
       <use xlink:href="#med72b38a83" x="164.594" y="213.424706" style="stroke: #000000; stroke-width: 0.8"/>
      </g>
     </g>
     <g id="text_9">
      <!-- 0.4 -->
      <g transform="translate(141.690875 217.223925)scale(0.1 -0.1)">
       <use xlink:href="#DejaVuSans-30"/>
       <use xlink:href="#DejaVuSans-2e" x="63.623047"/>
       <use xlink:href="#DejaVuSans-34" x="95.410156"/>
      </g>
     </g>
    </g>
    <g id="ytick_8">
     <g id="line2d_8">
      <g>
       <use xlink:href="#med72b38a83" x="164.594" y="175.497204" style="stroke: #000000; stroke-width: 0.8"/>
      </g>
     </g>
     <g id="text_10">
      <!-- 0.5 -->
      <g transform="translate(141.690875 179.296423)scale(0.1 -0.1)">
       <defs>
        <path id="DejaVuSans-35" d="M 691 4666 
L 3169 4666 
L 3169 4134 
L 1269 4134 
L 1269 2991 
Q 1406 3038 1543 3061 
Q 1681 3084 1819 3084 
Q 2600 3084 3056 2656 
Q 3513 2228 3513 1497 
Q 3513 744 3044 326 
Q 2575 -91 1722 -91 
Q 1428 -91 1123 -41 
Q 819 9 494 109 
L 494 744 
Q 775 591 1075 516 
Q 1375 441 1709 441 
Q 2250 441 2565 725 
Q 2881 1009 2881 1497 
Q 2881 1984 2565 2268 
Q 2250 2553 1709 2553 
Q 1456 2553 1204 2497 
Q 953 2441 691 2322 
L 691 4666 
z
" transform="scale(0.015625)"/>
       </defs>
       <use xlink:href="#DejaVuSans-30"/>
       <use xlink:href="#DejaVuSans-2e" x="63.623047"/>
       <use xlink:href="#DejaVuSans-35" x="95.410156"/>
      </g>
     </g>
    </g>
    <g id="ytick_9">
     <g id="line2d_9">
      <g>
       <use xlink:href="#med72b38a83" x="164.594" y="137.569702" style="stroke: #000000; stroke-width: 0.8"/>
      </g>
     </g>
     <g id="text_11">
      <!-- 0.6 -->
      <g transform="translate(141.690875 141.36892)scale(0.1 -0.1)">
       <use xlink:href="#DejaVuSans-30"/>
       <use xlink:href="#DejaVuSans-2e" x="63.623047"/>
       <use xlink:href="#DejaVuSans-36" x="95.410156"/>
      </g>
     </g>
    </g>
    <g id="ytick_10">
     <g id="line2d_10">
      <g>
       <use xlink:href="#med72b38a83" x="164.594" y="99.642199" style="stroke: #000000; stroke-width: 0.8"/>
      </g>
     </g>
     <g id="text_12">
      <!-- 0.7 -->
      <g transform="translate(141.690875 103.441418)scale(0.1 -0.1)">
       <defs>
        <path id="DejaVuSans-37" d="M 525 4666 
L 3525 4666 
L 3525 4397 
L 1831 0 
L 1172 0 
L 2766 4134 
L 525 4134 
L 525 4666 
z
" transform="scale(0.015625)"/>
       </defs>
       <use xlink:href="#DejaVuSans-30"/>
       <use xlink:href="#DejaVuSans-2e" x="63.623047"/>
       <use xlink:href="#DejaVuSans-37" x="95.410156"/>
      </g>
     </g>
    </g>
    <g id="ytick_11">
     <g id="line2d_11">
      <g>
       <use xlink:href="#med72b38a83" x="164.594" y="61.714697" style="stroke: #000000; stroke-width: 0.8"/>
      </g>
     </g>
     <g id="text_13">
      <!-- 0.8 -->
      <g transform="translate(141.690875 65.513915)scale(0.1 -0.1)">
       <use xlink:href="#DejaVuSans-30"/>
       <use xlink:href="#DejaVuSans-2e" x="63.623047"/>
       <use xlink:href="#DejaVuSans-38" x="95.410156"/>
      </g>
     </g>
    </g>
    <g id="text_14">
     <!-- MAE [$\AA$] -->
     <g transform="translate(135.611187 180.22)rotate(-90)scale(0.1 -0.1)">
      <defs>
       <path id="DejaVuSans-41" d="M 2188 4044 
L 1331 1722 
L 3047 1722 
L 2188 4044 
z
M 1831 4666 
L 2547 4666 
L 4325 0 
L 3669 0 
L 3244 1197 
L 1141 1197 
L 716 0 
L 50 0 
L 1831 4666 
z
" transform="scale(0.015625)"/>
       <path id="DejaVuSans-45" d="M 628 4666 
L 3578 4666 
L 3578 4134 
L 1259 4134 
L 1259 2753 
L 3481 2753 
L 3481 2222 
L 1259 2222 
L 1259 531 
L 3634 531 
L 3634 0 
L 628 0 
L 628 4666 
z
" transform="scale(0.015625)"/>
      </defs>
      <use xlink:href="#DejaVuSans-4d" transform="translate(0 0.171875)"/>
      <use xlink:href="#DejaVuSans-41" transform="translate(86.279297 0.171875)"/>
      <use xlink:href="#DejaVuSans-45" transform="translate(154.6875 0.171875)"/>
      <use xlink:href="#DejaVuSans-20" transform="translate(217.871094 0.171875)"/>
      <use xlink:href="#DejaVuSans-5b" transform="translate(249.658203 0.171875)"/>
      <use xlink:href="#DejaVuSans-Oblique-c5" transform="translate(288.671875 0.171875)"/>
      <use xlink:href="#DejaVuSans-5d" transform="translate(357.080078 0.171875)"/>
     </g>
    </g>
   </g>
   <g id="LineCollection_5">
    <path d="M 180.821682 153.051145 
L 207.867818 153.051145 
" clip-path="url(#pafce5c8c94)" style="fill: none; stroke: #1f77b4; stroke-width: 1.5"/>
   </g>
   <g id="LineCollection_6">
    <path d="M 180.821682 57.342727 
L 207.867818 57.342727 
" clip-path="url(#pafce5c8c94)" style="fill: none; stroke: #1f77b4; stroke-width: 1.5"/>
   </g>
   <g id="LineCollection_7">
    <path d="M 180.821682 263.397273 
L 207.867818 263.397273 
" clip-path="url(#pafce5c8c94)" style="fill: none; stroke: #1f77b4; stroke-width: 1.5"/>
   </g>
   <g id="LineCollection_8">
    <path d="M 194.34475 263.397273 
L 194.34475 57.342727 
" clip-path="url(#pafce5c8c94)" style="fill: none; stroke: #1f77b4; stroke-width: 1.5"/>
   </g>
   <g id="patch_8">
    <path d="M 164.594 273.7 
L 164.594 47.04 
" style="fill: none; stroke: #000000; stroke-width: 0.8; stroke-linejoin: miter; stroke-linecap: square"/>
   </g>
   <g id="patch_9">
    <path d="M 224.0955 273.7 
L 224.0955 47.04 
" style="fill: none; stroke: #000000; stroke-width: 0.8; stroke-linejoin: miter; stroke-linecap: square"/>
   </g>
   <g id="patch_10">
    <path d="M 164.594 273.7 
L 224.0955 273.7 
" style="fill: none; stroke: #000000; stroke-width: 0.8; stroke-linejoin: miter; stroke-linecap: square"/>
   </g>
   <g id="patch_11">
    <path d="M 164.594 47.04 
L 224.0955 47.04 
" style="fill: none; stroke: #000000; stroke-width: 0.8; stroke-linejoin: miter; stroke-linecap: square"/>
   </g>
   <g id="text_15">
    <!-- MAE -->
    <g transform="translate(181.27225 41.04)scale(0.12 -0.12)">
     <use xlink:href="#DejaVuSans-4d"/>
     <use xlink:href="#DejaVuSans-41" x="86.279297"/>
     <use xlink:href="#DejaVuSans-45" x="154.6875"/>
    </g>
   </g>
  </g>
  <g id="axes_3">
   <g id="patch_12">
    <path d="M 278.2955 273.7 
L 337.797 273.7 
L 337.797 47.04 
L 278.2955 47.04 
z
" style="fill: #ffffff"/>
   </g>
   <g id="PolyCollection_3">
    <path d="M 309.261881 263.397273 
L 306.830619 263.397273 
L 306.627098 261.315914 
L 306.397984 259.234555 
L 306.139134 257.153196 
L 305.845983 255.071837 
L 305.513946 252.990478 
L 305.138939 250.909118 
L 304.717975 248.827759 
L 304.249746 246.7464 
L 303.735129 244.665041 
L 303.177517 242.583682 
L 302.582918 240.502323 
L 301.959759 238.420964 
L 301.318392 236.339605 
L 300.670329 234.258246 
L 300.027277 232.176887 
L 299.400081 230.095528 
L 298.797704 228.014169 
L 298.22636 225.93281 
L 297.688929 223.851451 
L 297.184698 221.770092 
L 296.709469 219.688733 
L 296.256 217.607374 
L 295.814709 215.526015 
L 295.374562 213.444656 
L 294.924009 211.363297 
L 294.451897 209.281938 
L 293.94826 207.200579 
L 293.404923 205.119219 
L 292.815911 203.03786 
L 292.177663 200.956501 
L 291.489093 198.875142 
L 290.751566 196.793783 
L 289.96884 194.712424 
L 289.147046 192.631065 
L 288.294699 190.549706 
L 287.422726 188.468347 
L 286.544434 186.386988 
L 285.675319 184.305629 
L 284.832639 182.22427 
L 284.034705 180.142911 
L 283.299922 178.061552 
L 282.645682 175.980193 
L 282.087256 173.898834 
L 281.636869 171.817475 
L 281.303082 169.736116 
L 281.090548 167.654757 
L 281.000114 165.573398 
L 281.029151 163.492039 
L 281.171992 161.41068 
L 281.420303 159.32932 
L 281.763343 157.247961 
L 282.188104 155.166602 
L 282.679421 153.085243 
L 283.220202 151.003884 
L 283.791919 148.922525 
L 284.375444 146.841166 
L 284.952233 144.759807 
L 285.50574 142.678448 
L 286.022872 140.597089 
L 286.495226 138.51573 
L 286.91988 136.434371 
L 287.299567 134.353012 
L 287.642179 132.271653 
L 287.959647 130.190294 
L 288.266389 128.108935 
L 288.577568 126.027576 
L 288.907424 123.946217 
L 289.267948 121.864858 
L 289.668035 119.783499 
L 290.113205 117.70214 
L 290.605831 115.620781 
L 291.145737 113.539421 
L 291.730964 111.458062 
L 292.358501 109.376703 
L 293.024801 107.295344 
L 293.725993 105.213985 
L 294.457768 103.132626 
L 295.21504 101.051267 
L 295.991532 98.969908 
L 296.77945 96.888549 
L 297.569424 94.80719 
L 298.350795 92.725831 
L 299.112257 90.644472 
L 299.842781 88.563113 
L 300.532665 86.481754 
L 301.17452 84.400395 
L 301.764023 82.319036 
L 302.300284 80.237677 
L 302.785773 78.156318 
L 303.225811 76.074959 
L 303.627714 73.9936 
L 303.999726 71.912241 
L 304.349911 69.830882 
L 304.685162 67.749522 
L 305.01047 65.668163 
L 305.328526 63.586804 
L 305.639688 61.505445 
L 305.94228 59.424086 
L 306.233136 57.342727 
L 309.859364 57.342727 
L 309.859364 57.342727 
L 310.15022 59.424086 
L 310.452812 61.505445 
L 310.763974 63.586804 
L 311.08203 65.668163 
L 311.407338 67.749522 
L 311.742589 69.830882 
L 312.092774 71.912241 
L 312.464786 73.9936 
L 312.866689 76.074959 
L 313.306727 78.156318 
L 313.792216 80.237677 
L 314.328477 82.319036 
L 314.91798 84.400395 
L 315.559835 86.481754 
L 316.249719 88.563113 
L 316.980243 90.644472 
L 317.741705 92.725831 
L 318.523076 94.80719 
L 319.31305 96.888549 
L 320.100968 98.969908 
L 320.87746 101.051267 
L 321.634732 103.132626 
L 322.366507 105.213985 
L 323.067699 107.295344 
L 323.733999 109.376703 
L 324.361536 111.458062 
L 324.946763 113.539421 
L 325.486669 115.620781 
L 325.979295 117.70214 
L 326.424465 119.783499 
L 326.824552 121.864858 
L 327.185076 123.946217 
L 327.514932 126.027576 
L 327.826111 128.108935 
L 328.132853 130.190294 
L 328.450321 132.271653 
L 328.792933 134.353012 
L 329.17262 136.434371 
L 329.597274 138.51573 
L 330.069628 140.597089 
L 330.58676 142.678448 
L 331.140267 144.759807 
L 331.717056 146.841166 
L 332.300581 148.922525 
L 332.872298 151.003884 
L 333.413079 153.085243 
L 333.904396 155.166602 
L 334.329157 157.247961 
L 334.672197 159.32932 
L 334.920508 161.41068 
L 335.063349 163.492039 
L 335.092386 165.573398 
L 335.001952 167.654757 
L 334.789418 169.736116 
L 334.455631 171.817475 
L 334.005244 173.898834 
L 333.446818 175.980193 
L 332.792578 178.061552 
L 332.057795 180.142911 
L 331.259861 182.22427 
L 330.417181 184.305629 
L 329.548066 186.386988 
L 328.669774 188.468347 
L 327.797801 190.549706 
L 326.945454 192.631065 
L 326.12366 194.712424 
L 325.340934 196.793783 
L 324.603407 198.875142 
L 323.914837 200.956501 
L 323.276589 203.03786 
L 322.687577 205.119219 
L 322.14424 207.200579 
L 321.640603 209.281938 
L 321.168491 211.363297 
L 320.717938 213.444656 
L 320.277791 215.526015 
L 319.8365 217.607374 
L 319.383031 219.688733 
L 318.907802 221.770092 
L 318.403571 223.851451 
L 317.86614 225.93281 
L 317.294796 228.014169 
L 316.692419 230.095528 
L 316.065223 232.176887 
L 315.422171 234.258246 
L 314.774108 236.339605 
L 314.132741 238.420964 
L 313.509582 240.502323 
L 312.914983 242.583682 
L 312.357371 244.665041 
L 311.842754 246.7464 
L 311.374525 248.827759 
L 310.953561 250.909118 
L 310.578554 252.990478 
L 310.246517 255.071837 
L 309.953366 257.153196 
L 309.694516 259.234555 
L 309.465402 261.315914 
L 309.261881 263.397273 
z
" clip-path="url(#p78192c9bf8)" style="fill: #1f77b4; fill-opacity: 0.3"/>
   </g>
   <g id="matplotlib.axis_3">
    <g id="ytick_12">
     <g id="line2d_12">
      <g>
       <use xlink:href="#med72b38a83" x="278.2955" y="234.595076" style="stroke: #000000; stroke-width: 0.8"/>
      </g>
     </g>
     <g id="text_16">
      <!-- 0.2 -->
      <g transform="translate(255.392375 238.394294)scale(0.1 -0.1)">
       <use xlink:href="#DejaVuSans-30"/>
       <use xlink:href="#DejaVuSans-2e" x="63.623047"/>
       <use xlink:href="#DejaVuSans-32" x="95.410156"/>
      </g>
     </g>
    </g>
    <g id="ytick_13">
     <g id="line2d_13">
      <g>
       <use xlink:href="#med72b38a83" x="278.2955" y="193.719417" style="stroke: #000000; stroke-width: 0.8"/>
      </g>
     </g>
     <g id="text_17">
      <!-- 0.3 -->
      <g transform="translate(255.392375 197.518635)scale(0.1 -0.1)">
       <use xlink:href="#DejaVuSans-30"/>
       <use xlink:href="#DejaVuSans-2e" x="63.623047"/>
       <use xlink:href="#DejaVuSans-33" x="95.410156"/>
      </g>
     </g>
    </g>
    <g id="ytick_14">
     <g id="line2d_14">
      <g>
       <use xlink:href="#med72b38a83" x="278.2955" y="152.843757" style="stroke: #000000; stroke-width: 0.8"/>
      </g>
     </g>
     <g id="text_18">
      <!-- 0.4 -->
      <g transform="translate(255.392375 156.642976)scale(0.1 -0.1)">
       <use xlink:href="#DejaVuSans-30"/>
       <use xlink:href="#DejaVuSans-2e" x="63.623047"/>
       <use xlink:href="#DejaVuSans-34" x="95.410156"/>
      </g>
     </g>
    </g>
    <g id="ytick_15">
     <g id="line2d_15">
      <g>
       <use xlink:href="#med72b38a83" x="278.2955" y="111.968098" style="stroke: #000000; stroke-width: 0.8"/>
      </g>
     </g>
     <g id="text_19">
      <!-- 0.5 -->
      <g transform="translate(255.392375 115.767317)scale(0.1 -0.1)">
       <use xlink:href="#DejaVuSans-30"/>
       <use xlink:href="#DejaVuSans-2e" x="63.623047"/>
       <use xlink:href="#DejaVuSans-35" x="95.410156"/>
      </g>
     </g>
    </g>
    <g id="ytick_16">
     <g id="line2d_16">
      <g>
       <use xlink:href="#med72b38a83" x="278.2955" y="71.092439" style="stroke: #000000; stroke-width: 0.8"/>
      </g>
     </g>
     <g id="text_20">
      <!-- 0.6 -->
      <g transform="translate(255.392375 74.891658)scale(0.1 -0.1)">
       <use xlink:href="#DejaVuSans-30"/>
       <use xlink:href="#DejaVuSans-2e" x="63.623047"/>
       <use xlink:href="#DejaVuSans-36" x="95.410156"/>
      </g>
     </g>
    </g>
    <g id="text_21">
     <!-- MSE [$\AA$] -->
     <g transform="translate(249.312687 179.97)rotate(-90)scale(0.1 -0.1)">
      <use xlink:href="#DejaVuSans-4d" transform="translate(0 0.171875)"/>
      <use xlink:href="#DejaVuSans-53" transform="translate(86.279297 0.171875)"/>
      <use xlink:href="#DejaVuSans-45" transform="translate(149.755859 0.171875)"/>
      <use xlink:href="#DejaVuSans-20" transform="translate(212.939453 0.171875)"/>
      <use xlink:href="#DejaVuSans-5b" transform="translate(244.726562 0.171875)"/>
      <use xlink:href="#DejaVuSans-Oblique-c5" transform="translate(283.740234 0.171875)"/>
      <use xlink:href="#DejaVuSans-5d" transform="translate(352.148438 0.171875)"/>
     </g>
    </g>
   </g>
   <g id="LineCollection_9">
    <path d="M 294.523182 158.718102 
L 321.569318 158.718102 
" clip-path="url(#p78192c9bf8)" style="fill: none; stroke: #1f77b4; stroke-width: 1.5"/>
   </g>
   <g id="LineCollection_10">
    <path d="M 294.523182 57.342727 
L 321.569318 57.342727 
" clip-path="url(#p78192c9bf8)" style="fill: none; stroke: #1f77b4; stroke-width: 1.5"/>
   </g>
   <g id="LineCollection_11">
    <path d="M 294.523182 263.397273 
L 321.569318 263.397273 
" clip-path="url(#p78192c9bf8)" style="fill: none; stroke: #1f77b4; stroke-width: 1.5"/>
   </g>
   <g id="LineCollection_12">
    <path d="M 308.04625 263.397273 
L 308.04625 57.342727 
" clip-path="url(#p78192c9bf8)" style="fill: none; stroke: #1f77b4; stroke-width: 1.5"/>
   </g>
   <g id="patch_13">
    <path d="M 278.2955 273.7 
L 278.2955 47.04 
" style="fill: none; stroke: #000000; stroke-width: 0.8; stroke-linejoin: miter; stroke-linecap: square"/>
   </g>
   <g id="patch_14">
    <path d="M 337.797 273.7 
L 337.797 47.04 
" style="fill: none; stroke: #000000; stroke-width: 0.8; stroke-linejoin: miter; stroke-linecap: square"/>
   </g>
   <g id="patch_15">
    <path d="M 278.2955 273.7 
L 337.797 273.7 
" style="fill: none; stroke: #000000; stroke-width: 0.8; stroke-linejoin: miter; stroke-linecap: square"/>
   </g>
   <g id="patch_16">
    <path d="M 278.2955 47.04 
L 337.797 47.04 
" style="fill: none; stroke: #000000; stroke-width: 0.8; stroke-linejoin: miter; stroke-linecap: square"/>
   </g>
   <g id="text_22">
    <!-- MSE -->
    <g transform="translate(295.269062 41.04)scale(0.12 -0.12)">
     <use xlink:href="#DejaVuSans-4d"/>
     <use xlink:href="#DejaVuSans-53" x="86.279297"/>
     <use xlink:href="#DejaVuSans-45" x="149.755859"/>
    </g>
   </g>
  </g>
  <g id="axes_4">
   <g id="patch_17">
    <path d="M 391.997 273.7 
L 451.4985 273.7 
L 451.4985 47.04 
L 391.997 47.04 
z
" style="fill: #ffffff"/>
   </g>
   <g id="PolyCollection_4">
    <path d="M 423.235246 263.397273 
L 420.260254 263.397273 
L 419.966171 261.315914 
L 419.639547 259.234555 
L 419.281845 257.153196 
L 418.895113 255.071837 
L 418.481726 252.990478 
L 418.044078 250.909118 
L 417.584305 248.827759 
L 417.104057 246.7464 
L 416.604368 244.665041 
L 416.085617 242.583682 
L 415.547596 240.502323 
L 414.989646 238.420964 
L 414.410853 236.339605 
L 413.81026 234.258246 
L 413.18708 232.176887 
L 412.540879 230.095528 
L 411.871707 228.014169 
L 411.180175 225.93281 
L 410.467456 223.851451 
L 409.735237 221.770092 
L 408.985626 219.688733 
L 408.221053 217.607374 
L 407.444191 215.526015 
L 406.657912 213.444656 
L 405.865285 211.363297 
L 405.069613 209.281938 
L 404.274477 207.200579 
L 403.483781 205.119219 
L 402.701778 203.03786 
L 401.933081 200.956501 
L 401.182647 198.875142 
L 400.455726 196.793783 
L 399.75778 194.712424 
L 399.094323 192.631065 
L 398.470701 190.549706 
L 397.891803 188.468347 
L 397.361737 186.386988 
L 396.88353 184.305629 
L 396.458907 182.22427 
L 396.088183 180.142911 
L 395.770303 178.061552 
L 395.502987 175.980193 
L 395.282956 173.898834 
L 395.106196 171.817475 
L 394.968214 169.736116 
L 394.864294 167.654757 
L 394.789744 165.573398 
L 394.74017 163.492039 
L 394.711765 161.41068 
L 394.701614 159.32932 
L 394.707985 157.247961 
L 394.730571 155.166602 
L 394.770634 153.085243 
L 394.831029 151.003884 
L 394.916066 148.922525 
L 395.031204 146.841166 
L 395.182575 144.759807 
L 395.376353 142.678448 
L 395.618032 140.597089 
L 395.911703 138.51573 
L 396.259428 136.434371 
L 396.660833 134.353012 
L 397.113007 132.271653 
L 397.610727 130.190294 
L 398.146999 128.108935 
L 398.713796 126.027576 
L 399.302893 123.946217 
L 399.90666 121.864858 
L 400.518701 119.783499 
L 401.134272 117.70214 
L 401.750459 115.620781 
L 402.366125 113.539421 
L 402.981658 111.458062 
L 403.598585 109.376703 
L 404.219107 107.295344 
L 404.845623 105.213985 
L 405.480305 103.132626 
L 406.124758 101.051267 
L 406.779805 98.969908 
L 407.445376 96.888549 
L 408.120495 94.80719 
L 408.803321 92.725831 
L 409.491227 90.644472 
L 410.180893 88.563113 
L 410.868429 86.481754 
L 411.549526 84.400395 
L 412.219672 82.319036 
L 412.874411 80.237677 
L 413.509644 78.156318 
L 414.121928 76.074959 
L 414.708723 73.9936 
L 415.268555 71.912241 
L 415.801048 69.830882 
L 416.306824 67.749522 
L 416.787292 65.668163 
L 417.244326 63.586804 
L 417.67991 61.505445 
L 418.095776 59.424086 
L 418.493088 57.342727 
L 425.002412 57.342727 
L 425.002412 57.342727 
L 425.399724 59.424086 
L 425.81559 61.505445 
L 426.251174 63.586804 
L 426.708208 65.668163 
L 427.188676 67.749522 
L 427.694452 69.830882 
L 428.226945 71.912241 
L 428.786777 73.9936 
L 429.373572 76.074959 
L 429.985856 78.156318 
L 430.621089 80.237677 
L 431.275828 82.319036 
L 431.945974 84.400395 
L 432.627071 86.481754 
L 433.314607 88.563113 
L 434.004273 90.644472 
L 434.692179 92.725831 
L 435.375005 94.80719 
L 436.050124 96.888549 
L 436.715695 98.969908 
L 437.370742 101.051267 
L 438.015195 103.132626 
L 438.649877 105.213985 
L 439.276393 107.295344 
L 439.896915 109.376703 
L 440.513842 111.458062 
L 441.129375 113.539421 
L 441.745041 115.620781 
L 442.361228 117.70214 
L 442.976799 119.783499 
L 443.58884 121.864858 
L 444.192607 123.946217 
L 444.781704 126.027576 
L 445.348501 128.108935 
L 445.884773 130.190294 
L 446.382493 132.271653 
L 446.834667 134.353012 
L 447.236072 136.434371 
L 447.583797 138.51573 
L 447.877468 140.597089 
L 448.119147 142.678448 
L 448.312925 144.759807 
L 448.464296 146.841166 
L 448.579434 148.922525 
L 448.664471 151.003884 
L 448.724866 153.085243 
L 448.764929 155.166602 
L 448.787515 157.247961 
L 448.793886 159.32932 
L 448.783735 161.41068 
L 448.75533 163.492039 
L 448.705756 165.573398 
L 448.631206 167.654757 
L 448.527286 169.736116 
L 448.389304 171.817475 
L 448.212544 173.898834 
L 447.992513 175.980193 
L 447.725197 178.061552 
L 447.407317 180.142911 
L 447.036593 182.22427 
L 446.61197 184.305629 
L 446.133763 186.386988 
L 445.603697 188.468347 
L 445.024799 190.549706 
L 444.401177 192.631065 
L 443.73772 194.712424 
L 443.039774 196.793783 
L 442.312853 198.875142 
L 441.562419 200.956501 
L 440.793722 203.03786 
L 440.011719 205.119219 
L 439.221023 207.200579 
L 438.425887 209.281938 
L 437.630215 211.363297 
L 436.837588 213.444656 
L 436.051309 215.526015 
L 435.274447 217.607374 
L 434.509874 219.688733 
L 433.760263 221.770092 
L 433.028044 223.851451 
L 432.315325 225.93281 
L 431.623793 228.014169 
L 430.954621 230.095528 
L 430.30842 232.176887 
L 429.68524 234.258246 
L 429.084647 236.339605 
L 428.505854 238.420964 
L 427.947904 240.502323 
L 427.409883 242.583682 
L 426.891132 244.665041 
L 426.391443 246.7464 
L 425.911195 248.827759 
L 425.451422 250.909118 
L 425.013774 252.990478 
L 424.600387 255.071837 
L 424.213655 257.153196 
L 423.855953 259.234555 
L 423.529329 261.315914 
L 423.235246 263.397273 
z
" clip-path="url(#pfc536f4332)" style="fill: #1f77b4; fill-opacity: 0.3"/>
   </g>
   <g id="matplotlib.axis_4">
    <g id="ytick_17">
     <g id="line2d_17">
      <g>
       <use xlink:href="#med72b38a83" x="391.997" y="253.094545" style="stroke: #000000; stroke-width: 0.8"/>
      </g>
     </g>
     <g id="text_23">
      <!-- 0.45 -->
      <g transform="translate(362.731375 256.893764)scale(0.1 -0.1)">
       <use xlink:href="#DejaVuSans-30"/>
       <use xlink:href="#DejaVuSans-2e" x="63.623047"/>
       <use xlink:href="#DejaVuSans-34" x="95.410156"/>
       <use xlink:href="#DejaVuSans-35" x="159.033203"/>
      </g>
     </g>
    </g>
    <g id="ytick_18">
     <g id="line2d_18">
      <g>
       <use xlink:href="#med72b38a83" x="391.997" y="223.771399" style="stroke: #000000; stroke-width: 0.8"/>
      </g>
     </g>
     <g id="text_24">
      <!-- 0.50 -->
      <g transform="translate(362.731375 227.570617)scale(0.1 -0.1)">
       <use xlink:href="#DejaVuSans-30"/>
       <use xlink:href="#DejaVuSans-2e" x="63.623047"/>
       <use xlink:href="#DejaVuSans-35" x="95.410156"/>
       <use xlink:href="#DejaVuSans-30" x="159.033203"/>
      </g>
     </g>
    </g>
    <g id="ytick_19">
     <g id="line2d_19">
      <g>
       <use xlink:href="#med72b38a83" x="391.997" y="194.448252" style="stroke: #000000; stroke-width: 0.8"/>
      </g>
     </g>
     <g id="text_25">
      <!-- 0.55 -->
      <g transform="translate(362.731375 198.24747)scale(0.1 -0.1)">
       <use xlink:href="#DejaVuSans-30"/>
       <use xlink:href="#DejaVuSans-2e" x="63.623047"/>
       <use xlink:href="#DejaVuSans-35" x="95.410156"/>
       <use xlink:href="#DejaVuSans-35" x="159.033203"/>
      </g>
     </g>
    </g>
    <g id="ytick_20">
     <g id="line2d_20">
      <g>
       <use xlink:href="#med72b38a83" x="391.997" y="165.125105" style="stroke: #000000; stroke-width: 0.8"/>
      </g>
     </g>
     <g id="text_26">
      <!-- 0.60 -->
      <g transform="translate(362.731375 168.924324)scale(0.1 -0.1)">
       <use xlink:href="#DejaVuSans-30"/>
       <use xlink:href="#DejaVuSans-2e" x="63.623047"/>
       <use xlink:href="#DejaVuSans-36" x="95.410156"/>
       <use xlink:href="#DejaVuSans-30" x="159.033203"/>
      </g>
     </g>
    </g>
    <g id="ytick_21">
     <g id="line2d_21">
      <g>
       <use xlink:href="#med72b38a83" x="391.997" y="135.801958" style="stroke: #000000; stroke-width: 0.8"/>
      </g>
     </g>
     <g id="text_27">
      <!-- 0.65 -->
      <g transform="translate(362.731375 139.601177)scale(0.1 -0.1)">
       <use xlink:href="#DejaVuSans-30"/>
       <use xlink:href="#DejaVuSans-2e" x="63.623047"/>
       <use xlink:href="#DejaVuSans-36" x="95.410156"/>
       <use xlink:href="#DejaVuSans-35" x="159.033203"/>
      </g>
     </g>
    </g>
    <g id="ytick_22">
     <g id="line2d_22">
      <g>
       <use xlink:href="#med72b38a83" x="391.997" y="106.478811" style="stroke: #000000; stroke-width: 0.8"/>
      </g>
     </g>
     <g id="text_28">
      <!-- 0.70 -->
      <g transform="translate(362.731375 110.27803)scale(0.1 -0.1)">
       <use xlink:href="#DejaVuSans-30"/>
       <use xlink:href="#DejaVuSans-2e" x="63.623047"/>
       <use xlink:href="#DejaVuSans-37" x="95.410156"/>
       <use xlink:href="#DejaVuSans-30" x="159.033203"/>
      </g>
     </g>
    </g>
    <g id="ytick_23">
     <g id="line2d_23">
      <g>
       <use xlink:href="#med72b38a83" x="391.997" y="77.155664" style="stroke: #000000; stroke-width: 0.8"/>
      </g>
     </g>
     <g id="text_29">
      <!-- 0.75 -->
      <g transform="translate(362.731375 80.954883)scale(0.1 -0.1)">
       <use xlink:href="#DejaVuSans-30"/>
       <use xlink:href="#DejaVuSans-2e" x="63.623047"/>
       <use xlink:href="#DejaVuSans-37" x="95.410156"/>
       <use xlink:href="#DejaVuSans-35" x="159.033203"/>
      </g>
     </g>
    </g>
    <g id="ytick_24">
     <g id="line2d_24">
      <g>
       <use xlink:href="#med72b38a83" x="391.997" y="47.832517" style="stroke: #000000; stroke-width: 0.8"/>
      </g>
     </g>
     <g id="text_30">
      <!-- 0.80 -->
      <g transform="translate(362.731375 51.631736)scale(0.1 -0.1)">
       <use xlink:href="#DejaVuSans-30"/>
       <use xlink:href="#DejaVuSans-2e" x="63.623047"/>
       <use xlink:href="#DejaVuSans-38" x="95.410156"/>
       <use xlink:href="#DejaVuSans-30" x="159.033203"/>
      </g>
     </g>
    </g>
    <g id="text_31">
     <!-- % NOE fulfilled [1/100 %] -->
     <g transform="translate(356.651687 223.870781)rotate(-90)scale(0.1 -0.1)">
      <defs>
       <path id="DejaVuSans-25" d="M 4653 2053 
Q 4381 2053 4226 1822 
Q 4072 1591 4072 1178 
Q 4072 772 4226 539 
Q 4381 306 4653 306 
Q 4919 306 5073 539 
Q 5228 772 5228 1178 
Q 5228 1588 5073 1820 
Q 4919 2053 4653 2053 
z
M 4653 2450 
Q 5147 2450 5437 2106 
Q 5728 1763 5728 1178 
Q 5728 594 5436 251 
Q 5144 -91 4653 -91 
Q 4153 -91 3862 251 
Q 3572 594 3572 1178 
Q 3572 1766 3864 2108 
Q 4156 2450 4653 2450 
z
M 1428 4353 
Q 1159 4353 1004 4120 
Q 850 3888 850 3481 
Q 850 3069 1003 2837 
Q 1156 2606 1428 2606 
Q 1700 2606 1854 2837 
Q 2009 3069 2009 3481 
Q 2009 3884 1853 4118 
Q 1697 4353 1428 4353 
z
M 4250 4750 
L 4750 4750 
L 1831 -91 
L 1331 -91 
L 4250 4750 
z
M 1428 4750 
Q 1922 4750 2215 4408 
Q 2509 4066 2509 3481 
Q 2509 2891 2217 2550 
Q 1925 2209 1428 2209 
Q 931 2209 642 2551 
Q 353 2894 353 3481 
Q 353 4063 643 4406 
Q 934 4750 1428 4750 
z
" transform="scale(0.015625)"/>
       <path id="DejaVuSans-4e" d="M 628 4666 
L 1478 4666 
L 3547 763 
L 3547 4666 
L 4159 4666 
L 4159 0 
L 3309 0 
L 1241 3903 
L 1241 0 
L 628 0 
L 628 4666 
z
" transform="scale(0.015625)"/>
       <path id="DejaVuSans-4f" d="M 2522 4238 
Q 1834 4238 1429 3725 
Q 1025 3213 1025 2328 
Q 1025 1447 1429 934 
Q 1834 422 2522 422 
Q 3209 422 3611 934 
Q 4013 1447 4013 2328 
Q 4013 3213 3611 3725 
Q 3209 4238 2522 4238 
z
M 2522 4750 
Q 3503 4750 4090 4092 
Q 4678 3434 4678 2328 
Q 4678 1225 4090 567 
Q 3503 -91 2522 -91 
Q 1538 -91 948 565 
Q 359 1222 359 2328 
Q 359 3434 948 4092 
Q 1538 4750 2522 4750 
z
" transform="scale(0.015625)"/>
       <path id="DejaVuSans-66" d="M 2375 4863 
L 2375 4384 
L 1825 4384 
Q 1516 4384 1395 4259 
Q 1275 4134 1275 3809 
L 1275 3500 
L 2222 3500 
L 2222 3053 
L 1275 3053 
L 1275 0 
L 697 0 
L 697 3053 
L 147 3053 
L 147 3500 
L 697 3500 
L 697 3744 
Q 697 4328 969 4595 
Q 1241 4863 1831 4863 
L 2375 4863 
z
" transform="scale(0.015625)"/>
       <path id="DejaVuSans-75" d="M 544 1381 
L 544 3500 
L 1119 3500 
L 1119 1403 
Q 1119 906 1312 657 
Q 1506 409 1894 409 
Q 2359 409 2629 706 
Q 2900 1003 2900 1516 
L 2900 3500 
L 3475 3500 
L 3475 0 
L 2900 0 
L 2900 538 
Q 2691 219 2414 64 
Q 2138 -91 1772 -91 
Q 1169 -91 856 284 
Q 544 659 544 1381 
z
M 1991 3584 
L 1991 3584 
z
" transform="scale(0.015625)"/>
       <path id="DejaVuSans-6c" d="M 603 4863 
L 1178 4863 
L 1178 0 
L 603 0 
L 603 4863 
z
" transform="scale(0.015625)"/>
       <path id="DejaVuSans-69" d="M 603 3500 
L 1178 3500 
L 1178 0 
L 603 0 
L 603 3500 
z
M 603 4863 
L 1178 4863 
L 1178 4134 
L 603 4134 
L 603 4863 
z
" transform="scale(0.015625)"/>
       <path id="DejaVuSans-65" d="M 3597 1894 
L 3597 1613 
L 953 1613 
Q 991 1019 1311 708 
Q 1631 397 2203 397 
Q 2534 397 2845 478 
Q 3156 559 3463 722 
L 3463 178 
Q 3153 47 2828 -22 
Q 2503 -91 2169 -91 
Q 1331 -91 842 396 
Q 353 884 353 1716 
Q 353 2575 817 3079 
Q 1281 3584 2069 3584 
Q 2775 3584 3186 3129 
Q 3597 2675 3597 1894 
z
M 3022 2063 
Q 3016 2534 2758 2815 
Q 2500 3097 2075 3097 
Q 1594 3097 1305 2825 
Q 1016 2553 972 2059 
L 3022 2063 
z
" transform="scale(0.015625)"/>
       <path id="DejaVuSans-64" d="M 2906 2969 
L 2906 4863 
L 3481 4863 
L 3481 0 
L 2906 0 
L 2906 525 
Q 2725 213 2448 61 
Q 2172 -91 1784 -91 
Q 1150 -91 751 415 
Q 353 922 353 1747 
Q 353 2572 751 3078 
Q 1150 3584 1784 3584 
Q 2172 3584 2448 3432 
Q 2725 3281 2906 2969 
z
M 947 1747 
Q 947 1113 1208 752 
Q 1469 391 1925 391 
Q 2381 391 2643 752 
Q 2906 1113 2906 1747 
Q 2906 2381 2643 2742 
Q 2381 3103 1925 3103 
Q 1469 3103 1208 2742 
Q 947 2381 947 1747 
z
" transform="scale(0.015625)"/>
       <path id="DejaVuSans-2f" d="M 1625 4666 
L 2156 4666 
L 531 -594 
L 0 -594 
L 1625 4666 
z
" transform="scale(0.015625)"/>
      </defs>
      <use xlink:href="#DejaVuSans-25"/>
      <use xlink:href="#DejaVuSans-20" x="95.019531"/>
      <use xlink:href="#DejaVuSans-4e" x="126.806641"/>
      <use xlink:href="#DejaVuSans-4f" x="201.611328"/>
      <use xlink:href="#DejaVuSans-45" x="280.322266"/>
      <use xlink:href="#DejaVuSans-20" x="343.505859"/>
      <use xlink:href="#DejaVuSans-66" x="375.292969"/>
      <use xlink:href="#DejaVuSans-75" x="410.498047"/>
      <use xlink:href="#DejaVuSans-6c" x="473.876953"/>
      <use xlink:href="#DejaVuSans-66" x="501.660156"/>
      <use xlink:href="#DejaVuSans-69" x="536.865234"/>
      <use xlink:href="#DejaVuSans-6c" x="564.648438"/>
      <use xlink:href="#DejaVuSans-6c" x="592.431641"/>
      <use xlink:href="#DejaVuSans-65" x="620.214844"/>
      <use xlink:href="#DejaVuSans-64" x="681.738281"/>
      <use xlink:href="#DejaVuSans-20" x="745.214844"/>
      <use xlink:href="#DejaVuSans-5b" x="777.001953"/>
      <use xlink:href="#DejaVuSans-31" x="816.015625"/>
      <use xlink:href="#DejaVuSans-2f" x="879.638672"/>
      <use xlink:href="#DejaVuSans-31" x="913.330078"/>
      <use xlink:href="#DejaVuSans-30" x="976.953125"/>
      <use xlink:href="#DejaVuSans-30" x="1040.576172"/>
      <use xlink:href="#DejaVuSans-20" x="1104.199219"/>
      <use xlink:href="#DejaVuSans-25" x="1135.986328"/>
      <use xlink:href="#DejaVuSans-5d" x="1231.005859"/>
     </g>
    </g>
   </g>
   <g id="LineCollection_13">
    <path d="M 408.224682 156.139268 
L 435.270818 156.139268 
" clip-path="url(#pfc536f4332)" style="fill: none; stroke: #1f77b4; stroke-width: 1.5"/>
   </g>
   <g id="LineCollection_14">
    <path d="M 408.224682 57.342727 
L 435.270818 57.342727 
" clip-path="url(#pfc536f4332)" style="fill: none; stroke: #1f77b4; stroke-width: 1.5"/>
   </g>
   <g id="LineCollection_15">
    <path d="M 408.224682 263.397273 
L 435.270818 263.397273 
" clip-path="url(#pfc536f4332)" style="fill: none; stroke: #1f77b4; stroke-width: 1.5"/>
   </g>
   <g id="LineCollection_16">
    <path d="M 421.74775 263.397273 
L 421.74775 57.342727 
" clip-path="url(#pfc536f4332)" style="fill: none; stroke: #1f77b4; stroke-width: 1.5"/>
   </g>
   <g id="patch_18">
    <path d="M 391.997 273.7 
L 391.997 47.04 
" style="fill: none; stroke: #000000; stroke-width: 0.8; stroke-linejoin: miter; stroke-linecap: square"/>
   </g>
   <g id="patch_19">
    <path d="M 451.4985 273.7 
L 451.4985 47.04 
" style="fill: none; stroke: #000000; stroke-width: 0.8; stroke-linejoin: miter; stroke-linecap: square"/>
   </g>
   <g id="patch_20">
    <path d="M 391.997 273.7 
L 451.4985 273.7 
" style="fill: none; stroke: #000000; stroke-width: 0.8; stroke-linejoin: miter; stroke-linecap: square"/>
   </g>
   <g id="patch_21">
    <path d="M 391.997 47.04 
L 451.4985 47.04 
" style="fill: none; stroke: #000000; stroke-width: 0.8; stroke-linejoin: miter; stroke-linecap: square"/>
   </g>
   <g id="text_32">
    <!-- % NOE fulfilled -->
    <g transform="translate(377.034625 41.04)scale(0.12 -0.12)">
     <use xlink:href="#DejaVuSans-25"/>
     <use xlink:href="#DejaVuSans-20" x="95.019531"/>
     <use xlink:href="#DejaVuSans-4e" x="126.806641"/>
     <use xlink:href="#DejaVuSans-4f" x="201.611328"/>
     <use xlink:href="#DejaVuSans-45" x="280.322266"/>
     <use xlink:href="#DejaVuSans-20" x="343.505859"/>
     <use xlink:href="#DejaVuSans-66" x="375.292969"/>
     <use xlink:href="#DejaVuSans-75" x="410.498047"/>
     <use xlink:href="#DejaVuSans-6c" x="473.876953"/>
     <use xlink:href="#DejaVuSans-66" x="501.660156"/>
     <use xlink:href="#DejaVuSans-69" x="536.865234"/>
     <use xlink:href="#DejaVuSans-6c" x="564.648438"/>
     <use xlink:href="#DejaVuSans-6c" x="592.431641"/>
     <use xlink:href="#DejaVuSans-65" x="620.214844"/>
     <use xlink:href="#DejaVuSans-64" x="681.738281"/>
    </g>
   </g>
  </g>
  <g id="axes_5">
   <g id="patch_22">
    <path d="M 505.6985 273.7 
L 565.2 273.7 
L 565.2 47.04 
L 505.6985 47.04 
z
" style="fill: #ffffff"/>
   </g>
   <g id="PolyCollection_5">
    <path d="M 535.872458 263.397273 
L 535.026042 263.397273 
L 534.932777 261.315914 
L 534.811871 259.234555 
L 534.655392 257.153196 
L 534.455725 255.071837 
L 534.2067 252.990478 
L 533.904703 250.909118 
L 533.549553 248.827759 
L 533.144929 246.7464 
L 532.698177 244.665041 
L 532.219455 242.583682 
L 531.720321 240.502323 
L 531.212006 238.420964 
L 530.703696 236.339605 
L 530.201179 234.258246 
L 529.706117 232.176887 
L 529.21605 230.095528 
L 528.725043 228.014169 
L 528.224769 225.93281 
L 527.705715 223.851451 
L 527.15829 221.770092 
L 526.573718 219.688733 
L 525.944744 217.607374 
L 525.26627 215.526015 
L 524.535988 213.444656 
L 523.755004 211.363297 
L 522.928257 209.281938 
L 522.064476 207.200579 
L 521.175475 205.119219 
L 520.274737 203.03786 
L 519.375519 200.956501 
L 518.488915 198.875142 
L 517.622393 196.793783 
L 516.77922 194.712424 
L 515.958924 192.631065 
L 515.158651 190.549706 
L 514.375026 188.468347 
L 513.606039 186.386988 
L 512.852541 184.305629 
L 512.119096 182.22427 
L 511.414121 180.142911 
L 510.749403 178.061552 
L 510.13913 175.980193 
L 509.598651 173.898834 
L 509.143121 171.817475 
L 508.786228 169.736116 
L 508.53916 167.654757 
L 508.409929 165.573398 
L 508.403114 163.492039 
L 508.519983 161.41068 
L 508.758903 159.32932 
L 509.115869 157.247961 
L 509.58503 155.166602 
L 510.159095 153.085243 
L 510.829575 151.003884 
L 511.586817 148.922525 
L 512.419864 146.841166 
L 513.316153 144.759807 
L 514.261142 142.678448 
L 515.237998 140.597089 
L 516.227546 138.51573 
L 517.208695 136.434371 
L 518.159502 134.353012 
L 519.0589 132.271653 
L 519.888945 130.190294 
L 520.637221 128.108935 
L 521.298911 126.027576 
L 521.878056 123.946217 
L 522.387584 121.864858 
L 522.847955 119.783499 
L 523.284538 117.70214 
L 523.724103 115.620781 
L 524.190996 113.539421 
L 524.703656 111.458062 
L 525.272057 109.376703 
L 525.896497 107.295344 
L 526.567876 105.213985 
L 527.269359 103.132626 
L 527.979068 101.051267 
L 528.673269 98.969908 
L 529.329501 96.888549 
L 529.92917 94.80719 
L 530.459265 92.725831 
L 530.913121 90.644472 
L 531.290289 88.563113 
L 531.595756 86.481754 
L 531.838787 84.400395 
L 532.031611 82.319036 
L 532.188129 80.237677 
L 532.322695 78.156318 
L 532.448999 76.074959 
L 532.579044 73.9936 
L 532.72226 71.912241 
L 532.884833 69.830882 
L 533.069336 67.749522 
L 533.274756 65.668163 
L 533.496933 63.586804 
L 533.729364 61.505445 
L 533.964236 59.424086 
L 534.193507 57.342727 
L 536.704993 57.342727 
L 536.704993 57.342727 
L 536.934264 59.424086 
L 537.169136 61.505445 
L 537.401567 63.586804 
L 537.623744 65.668163 
L 537.829164 67.749522 
L 538.013667 69.830882 
L 538.17624 71.912241 
L 538.319456 73.9936 
L 538.449501 76.074959 
L 538.575805 78.156318 
L 538.710371 80.237677 
L 538.866889 82.319036 
L 539.059713 84.400395 
L 539.302744 86.481754 
L 539.608211 88.563113 
L 539.985379 90.644472 
L 540.439235 92.725831 
L 540.96933 94.80719 
L 541.568999 96.888549 
L 542.225231 98.969908 
L 542.919432 101.051267 
L 543.629141 103.132626 
L 544.330624 105.213985 
L 545.002003 107.295344 
L 545.626443 109.376703 
L 546.194844 111.458062 
L 546.707504 113.539421 
L 547.174397 115.620781 
L 547.613962 117.70214 
L 548.050545 119.783499 
L 548.510916 121.864858 
L 549.020444 123.946217 
L 549.599589 126.027576 
L 550.261279 128.108935 
L 551.009555 130.190294 
L 551.8396 132.271653 
L 552.738998 134.353012 
L 553.689805 136.434371 
L 554.670954 138.51573 
L 555.660502 140.597089 
L 556.637358 142.678448 
L 557.582347 144.759807 
L 558.478636 146.841166 
L 559.311683 148.922525 
L 560.068925 151.003884 
L 560.739405 153.085243 
L 561.31347 155.166602 
L 561.782631 157.247961 
L 562.139597 159.32932 
L 562.378517 161.41068 
L 562.495386 163.492039 
L 562.488571 165.573398 
L 562.35934 167.654757 
L 562.112272 169.736116 
L 561.755379 171.817475 
L 561.299849 173.898834 
L 560.75937 175.980193 
L 560.149097 178.061552 
L 559.484379 180.142911 
L 558.779404 182.22427 
L 558.045959 184.305629 
L 557.292461 186.386988 
L 556.523474 188.468347 
L 555.739849 190.549706 
L 554.939576 192.631065 
L 554.11928 194.712424 
L 553.276107 196.793783 
L 552.409585 198.875142 
L 551.522981 200.956501 
L 550.623763 203.03786 
L 549.723025 205.119219 
L 548.834024 207.200579 
L 547.970243 209.281938 
L 547.143496 211.363297 
L 546.362512 213.444656 
L 545.63223 215.526015 
L 544.953756 217.607374 
L 544.324782 219.688733 
L 543.74021 221.770092 
L 543.192785 223.851451 
L 542.673731 225.93281 
L 542.173457 228.014169 
L 541.68245 230.095528 
L 541.192383 232.176887 
L 540.697321 234.258246 
L 540.194804 236.339605 
L 539.686494 238.420964 
L 539.178179 240.502323 
L 538.679045 242.583682 
L 538.200323 244.665041 
L 537.753571 246.7464 
L 537.348947 248.827759 
L 536.993797 250.909118 
L 536.6918 252.990478 
L 536.442775 255.071837 
L 536.243108 257.153196 
L 536.086629 259.234555 
L 535.965723 261.315914 
L 535.872458 263.397273 
z
" clip-path="url(#p53e2da2946)" style="fill: #1f77b4; fill-opacity: 0.3"/>
   </g>
   <g id="matplotlib.axis_5">
    <g id="ytick_25">
     <g id="line2d_25">
      <g>
       <use xlink:href="#med72b38a83" x="505.6985" y="259.359837" style="stroke: #000000; stroke-width: 0.8"/>
      </g>
     </g>
     <g id="text_33">
      <!-- 0.2 -->
      <g transform="translate(482.795375 263.159056)scale(0.1 -0.1)">
       <use xlink:href="#DejaVuSans-30"/>
       <use xlink:href="#DejaVuSans-2e" x="63.623047"/>
       <use xlink:href="#DejaVuSans-32" x="95.410156"/>
      </g>
     </g>
    </g>
    <g id="ytick_26">
     <g id="line2d_26">
      <g>
       <use xlink:href="#med72b38a83" x="505.6985" y="214.81361" style="stroke: #000000; stroke-width: 0.8"/>
      </g>
     </g>
     <g id="text_34">
      <!-- 0.3 -->
      <g transform="translate(482.795375 218.612829)scale(0.1 -0.1)">
       <use xlink:href="#DejaVuSans-30"/>
       <use xlink:href="#DejaVuSans-2e" x="63.623047"/>
       <use xlink:href="#DejaVuSans-33" x="95.410156"/>
      </g>
     </g>
    </g>
    <g id="ytick_27">
     <g id="line2d_27">
      <g>
       <use xlink:href="#med72b38a83" x="505.6985" y="170.267383" style="stroke: #000000; stroke-width: 0.8"/>
      </g>
     </g>
     <g id="text_35">
      <!-- 0.4 -->
      <g transform="translate(482.795375 174.066602)scale(0.1 -0.1)">
       <use xlink:href="#DejaVuSans-30"/>
       <use xlink:href="#DejaVuSans-2e" x="63.623047"/>
       <use xlink:href="#DejaVuSans-34" x="95.410156"/>
      </g>
     </g>
    </g>
    <g id="ytick_28">
     <g id="line2d_28">
      <g>
       <use xlink:href="#med72b38a83" x="505.6985" y="125.721156" style="stroke: #000000; stroke-width: 0.8"/>
      </g>
     </g>
     <g id="text_36">
      <!-- 0.5 -->
      <g transform="translate(482.795375 129.520375)scale(0.1 -0.1)">
       <use xlink:href="#DejaVuSans-30"/>
       <use xlink:href="#DejaVuSans-2e" x="63.623047"/>
       <use xlink:href="#DejaVuSans-35" x="95.410156"/>
      </g>
     </g>
    </g>
    <g id="ytick_29">
     <g id="line2d_29">
      <g>
       <use xlink:href="#med72b38a83" x="505.6985" y="81.174929" style="stroke: #000000; stroke-width: 0.8"/>
      </g>
     </g>
     <g id="text_37">
      <!-- 0.6 -->
      <g transform="translate(482.795375 84.974148)scale(0.1 -0.1)">
       <use xlink:href="#DejaVuSans-30"/>
       <use xlink:href="#DejaVuSans-2e" x="63.623047"/>
       <use xlink:href="#DejaVuSans-36" x="95.410156"/>
      </g>
     </g>
    </g>
    <g id="text_38">
     <!-- RMSD stepwise [$\AA$] -->
     <g transform="translate(476.695375 207.67)rotate(-90)scale(0.1 -0.1)">
      <defs>
       <path id="DejaVuSans-73" d="M 2834 3397 
L 2834 2853 
Q 2591 2978 2328 3040 
Q 2066 3103 1784 3103 
Q 1356 3103 1142 2972 
Q 928 2841 928 2578 
Q 928 2378 1081 2264 
Q 1234 2150 1697 2047 
L 1894 2003 
Q 2506 1872 2764 1633 
Q 3022 1394 3022 966 
Q 3022 478 2636 193 
Q 2250 -91 1575 -91 
Q 1294 -91 989 -36 
Q 684 19 347 128 
L 347 722 
Q 666 556 975 473 
Q 1284 391 1588 391 
Q 1994 391 2212 530 
Q 2431 669 2431 922 
Q 2431 1156 2273 1281 
Q 2116 1406 1581 1522 
L 1381 1569 
Q 847 1681 609 1914 
Q 372 2147 372 2553 
Q 372 3047 722 3315 
Q 1072 3584 1716 3584 
Q 2034 3584 2315 3537 
Q 2597 3491 2834 3397 
z
" transform="scale(0.015625)"/>
       <path id="DejaVuSans-74" d="M 1172 4494 
L 1172 3500 
L 2356 3500 
L 2356 3053 
L 1172 3053 
L 1172 1153 
Q 1172 725 1289 603 
Q 1406 481 1766 481 
L 2356 481 
L 2356 0 
L 1766 0 
Q 1100 0 847 248 
Q 594 497 594 1153 
L 594 3053 
L 172 3053 
L 172 3500 
L 594 3500 
L 594 4494 
L 1172 4494 
z
" transform="scale(0.015625)"/>
       <path id="DejaVuSans-70" d="M 1159 525 
L 1159 -1331 
L 581 -1331 
L 581 3500 
L 1159 3500 
L 1159 2969 
Q 1341 3281 1617 3432 
Q 1894 3584 2278 3584 
Q 2916 3584 3314 3078 
Q 3713 2572 3713 1747 
Q 3713 922 3314 415 
Q 2916 -91 2278 -91 
Q 1894 -91 1617 61 
Q 1341 213 1159 525 
z
M 3116 1747 
Q 3116 2381 2855 2742 
Q 2594 3103 2138 3103 
Q 1681 3103 1420 2742 
Q 1159 2381 1159 1747 
Q 1159 1113 1420 752 
Q 1681 391 2138 391 
Q 2594 391 2855 752 
Q 3116 1113 3116 1747 
z
" transform="scale(0.015625)"/>
       <path id="DejaVuSans-77" d="M 269 3500 
L 844 3500 
L 1563 769 
L 2278 3500 
L 2956 3500 
L 3675 769 
L 4391 3500 
L 4966 3500 
L 4050 0 
L 3372 0 
L 2619 2869 
L 1863 0 
L 1184 0 
L 269 3500 
z
" transform="scale(0.015625)"/>
      </defs>
      <use xlink:href="#DejaVuSans-52" transform="translate(0 0.171875)"/>
      <use xlink:href="#DejaVuSans-4d" transform="translate(69.482422 0.171875)"/>
      <use xlink:href="#DejaVuSans-53" transform="translate(155.761719 0.171875)"/>
      <use xlink:href="#DejaVuSans-44" transform="translate(219.238281 0.171875)"/>
      <use xlink:href="#DejaVuSans-20" transform="translate(296.240234 0.171875)"/>
      <use xlink:href="#DejaVuSans-73" transform="translate(328.027344 0.171875)"/>
      <use xlink:href="#DejaVuSans-74" transform="translate(380.126953 0.171875)"/>
      <use xlink:href="#DejaVuSans-65" transform="translate(419.335938 0.171875)"/>
      <use xlink:href="#DejaVuSans-70" transform="translate(480.859375 0.171875)"/>
      <use xlink:href="#DejaVuSans-77" transform="translate(544.335938 0.171875)"/>
      <use xlink:href="#DejaVuSans-69" transform="translate(626.123047 0.171875)"/>
      <use xlink:href="#DejaVuSans-73" transform="translate(653.90625 0.171875)"/>
      <use xlink:href="#DejaVuSans-65" transform="translate(706.005859 0.171875)"/>
      <use xlink:href="#DejaVuSans-20" transform="translate(767.529297 0.171875)"/>
      <use xlink:href="#DejaVuSans-5b" transform="translate(799.316406 0.171875)"/>
      <use xlink:href="#DejaVuSans-Oblique-c5" transform="translate(838.330078 0.171875)"/>
      <use xlink:href="#DejaVuSans-5d" transform="translate(906.738281 0.171875)"/>
     </g>
    </g>
   </g>
   <g id="LineCollection_17">
    <path d="M 521.926182 162.24045 
L 548.972318 162.24045 
" clip-path="url(#p53e2da2946)" style="fill: none; stroke: #1f77b4; stroke-width: 1.5"/>
   </g>
   <g id="LineCollection_18">
    <path d="M 521.926182 57.342727 
L 548.972318 57.342727 
" clip-path="url(#p53e2da2946)" style="fill: none; stroke: #1f77b4; stroke-width: 1.5"/>
   </g>
   <g id="LineCollection_19">
    <path d="M 521.926182 263.397273 
L 548.972318 263.397273 
" clip-path="url(#p53e2da2946)" style="fill: none; stroke: #1f77b4; stroke-width: 1.5"/>
   </g>
   <g id="LineCollection_20">
    <path d="M 535.44925 263.397273 
L 535.44925 57.342727 
" clip-path="url(#p53e2da2946)" style="fill: none; stroke: #1f77b4; stroke-width: 1.5"/>
   </g>
   <g id="patch_23">
    <path d="M 505.6985 273.7 
L 505.6985 47.04 
" style="fill: none; stroke: #000000; stroke-width: 0.8; stroke-linejoin: miter; stroke-linecap: square"/>
   </g>
   <g id="patch_24">
    <path d="M 565.2 273.7 
L 565.2 47.04 
" style="fill: none; stroke: #000000; stroke-width: 0.8; stroke-linejoin: miter; stroke-linecap: square"/>
   </g>
   <g id="patch_25">
    <path d="M 505.6985 273.7 
L 565.2 273.7 
" style="fill: none; stroke: #000000; stroke-width: 0.8; stroke-linejoin: miter; stroke-linecap: square"/>
   </g>
   <g id="patch_26">
    <path d="M 505.6985 47.04 
L 565.2 47.04 
" style="fill: none; stroke: #000000; stroke-width: 0.8; stroke-linejoin: miter; stroke-linecap: square"/>
   </g>
   <g id="text_39">
    <!-- RMSD stepwise -->
    <g transform="translate(489.397375 41.04)scale(0.12 -0.12)">
     <use xlink:href="#DejaVuSans-52"/>
     <use xlink:href="#DejaVuSans-4d" x="69.482422"/>
     <use xlink:href="#DejaVuSans-53" x="155.761719"/>
     <use xlink:href="#DejaVuSans-44" x="219.238281"/>
     <use xlink:href="#DejaVuSans-20" x="296.240234"/>
     <use xlink:href="#DejaVuSans-73" x="328.027344"/>
     <use xlink:href="#DejaVuSans-74" x="380.126953"/>
     <use xlink:href="#DejaVuSans-65" x="419.335938"/>
     <use xlink:href="#DejaVuSans-70" x="480.859375"/>
     <use xlink:href="#DejaVuSans-77" x="544.335938"/>
     <use xlink:href="#DejaVuSans-69" x="626.123047"/>
     <use xlink:href="#DejaVuSans-73" x="653.90625"/>
     <use xlink:href="#DejaVuSans-65" x="706.005859"/>
    </g>
   </g>
  </g>
  <g id="text_40">
   <!-- Compound 41. Rdkit -->
   <g transform="translate(226.573125 14.878125)scale(0.12 -0.12)">
    <defs>
     <path id="DejaVuSans-43" d="M 4122 4306 
L 4122 3641 
Q 3803 3938 3442 4084 
Q 3081 4231 2675 4231 
Q 1875 4231 1450 3742 
Q 1025 3253 1025 2328 
Q 1025 1406 1450 917 
Q 1875 428 2675 428 
Q 3081 428 3442 575 
Q 3803 722 4122 1019 
L 4122 359 
Q 3791 134 3420 21 
Q 3050 -91 2638 -91 
Q 1578 -91 968 557 
Q 359 1206 359 2328 
Q 359 3453 968 4101 
Q 1578 4750 2638 4750 
Q 3056 4750 3426 4639 
Q 3797 4528 4122 4306 
z
" transform="scale(0.015625)"/>
     <path id="DejaVuSans-6f" d="M 1959 3097 
Q 1497 3097 1228 2736 
Q 959 2375 959 1747 
Q 959 1119 1226 758 
Q 1494 397 1959 397 
Q 2419 397 2687 759 
Q 2956 1122 2956 1747 
Q 2956 2369 2687 2733 
Q 2419 3097 1959 3097 
z
M 1959 3584 
Q 2709 3584 3137 3096 
Q 3566 2609 3566 1747 
Q 3566 888 3137 398 
Q 2709 -91 1959 -91 
Q 1206 -91 779 398 
Q 353 888 353 1747 
Q 353 2609 779 3096 
Q 1206 3584 1959 3584 
z
" transform="scale(0.015625)"/>
     <path id="DejaVuSans-6d" d="M 3328 2828 
Q 3544 3216 3844 3400 
Q 4144 3584 4550 3584 
Q 5097 3584 5394 3201 
Q 5691 2819 5691 2113 
L 5691 0 
L 5113 0 
L 5113 2094 
Q 5113 2597 4934 2840 
Q 4756 3084 4391 3084 
Q 3944 3084 3684 2787 
Q 3425 2491 3425 1978 
L 3425 0 
L 2847 0 
L 2847 2094 
Q 2847 2600 2669 2842 
Q 2491 3084 2119 3084 
Q 1678 3084 1418 2786 
Q 1159 2488 1159 1978 
L 1159 0 
L 581 0 
L 581 3500 
L 1159 3500 
L 1159 2956 
Q 1356 3278 1631 3431 
Q 1906 3584 2284 3584 
Q 2666 3584 2933 3390 
Q 3200 3197 3328 2828 
z
" transform="scale(0.015625)"/>
     <path id="DejaVuSans-6e" d="M 3513 2113 
L 3513 0 
L 2938 0 
L 2938 2094 
Q 2938 2591 2744 2837 
Q 2550 3084 2163 3084 
Q 1697 3084 1428 2787 
Q 1159 2491 1159 1978 
L 1159 0 
L 581 0 
L 581 3500 
L 1159 3500 
L 1159 2956 
Q 1366 3272 1645 3428 
Q 1925 3584 2291 3584 
Q 2894 3584 3203 3211 
Q 3513 2838 3513 2113 
z
" transform="scale(0.015625)"/>
     <path id="DejaVuSans-6b" d="M 581 4863 
L 1159 4863 
L 1159 1991 
L 2875 3500 
L 3609 3500 
L 1753 1863 
L 3688 0 
L 2938 0 
L 1159 1709 
L 1159 0 
L 581 0 
L 581 4863 
z
" transform="scale(0.015625)"/>
    </defs>
    <use xlink:href="#DejaVuSans-43"/>
    <use xlink:href="#DejaVuSans-6f" x="69.824219"/>
    <use xlink:href="#DejaVuSans-6d" x="131.005859"/>
    <use xlink:href="#DejaVuSans-70" x="228.417969"/>
    <use xlink:href="#DejaVuSans-6f" x="291.894531"/>
    <use xlink:href="#DejaVuSans-75" x="353.076172"/>
    <use xlink:href="#DejaVuSans-6e" x="416.455078"/>
    <use xlink:href="#DejaVuSans-64" x="479.833984"/>
    <use xlink:href="#DejaVuSans-20" x="543.310547"/>
    <use xlink:href="#DejaVuSans-34" x="575.097656"/>
    <use xlink:href="#DejaVuSans-31" x="638.720703"/>
    <use xlink:href="#DejaVuSans-2e" x="702.34375"/>
    <use xlink:href="#DejaVuSans-20" x="734.130859"/>
    <use xlink:href="#DejaVuSans-52" x="765.917969"/>
    <use xlink:href="#DejaVuSans-64" x="835.400391"/>
    <use xlink:href="#DejaVuSans-6b" x="898.876953"/>
    <use xlink:href="#DejaVuSans-69" x="956.787109"/>
    <use xlink:href="#DejaVuSans-74" x="984.570312"/>
   </g>
  </g>
 </g>
 <defs>
  <clipPath id="p58c1609203">
   <rect x="50.8925" y="47.04" width="59.5015" height="226.66"/>
  </clipPath>
  <clipPath id="pafce5c8c94">
   <rect x="164.594" y="47.04" width="59.5015" height="226.66"/>
  </clipPath>
  <clipPath id="p78192c9bf8">
   <rect x="278.2955" y="47.04" width="59.5015" height="226.66"/>
  </clipPath>
  <clipPath id="pfc536f4332">
   <rect x="391.997" y="47.04" width="59.5015" height="226.66"/>
  </clipPath>
  <clipPath id="p53e2da2946">
   <rect x="505.6985" y="47.04" width="59.5015" height="226.66"/>
  </clipPath>
 </defs>
</svg>
