<?xml version="1.0" encoding="utf-8" standalone="no"?>
<!DOCTYPE svg PUBLIC "-//W3C//DTD SVG 1.1//EN"
  "http://www.w3.org/Graphics/SVG/1.1/DTD/svg11.dtd">
<svg xmlns:xlink="http://www.w3.org/1999/xlink" width="576pt" height="288pt" viewBox="0 0 576 288" xmlns="http://www.w3.org/2000/svg" version="1.1">
 <metadata>
  <rdf:RDF xmlns:dc="http://purl.org/dc/elements/1.1/" xmlns:cc="http://creativecommons.org/ns#" xmlns:rdf="http://www.w3.org/1999/02/22-rdf-syntax-ns#">
   <cc:Work>
    <dc:type rdf:resource="http://purl.org/dc/dcmitype/StillImage"/>
    <dc:date>2023-05-31T12:20:14.498098</dc:date>
    <dc:format>image/svg+xml</dc:format>
    <dc:creator>
     <cc:Agent>
      <dc:title>Matplotlib v3.5.3, https://matplotlib.org/</dc:title>
     </cc:Agent>
    </dc:creator>
   </cc:Work>
  </rdf:RDF>
 </metadata>
 <defs>
  <style type="text/css">*{stroke-linejoin: round; stroke-linecap: butt}</style>
 </defs>
 <g id="figure_1">
  <g id="patch_1">
   <path d="M 0 288 
L 576 288 
L 576 0 
L 0 0 
z
" style="fill: #ffffff"/>
  </g>
  <g id="axes_1">
   <g id="patch_2">
    <path d="M 50.8925 273.7 
L 112.05 273.7 
L 112.05 47.90625 
L 50.8925 47.90625 
z
" style="fill: #ffffff"/>
   </g>
   <g id="PolyCollection_1">
    <path d="M 85.923716 263.436648 
L 77.018784 263.436648 
L 76.378575 261.363243 
L 75.720753 259.289839 
L 75.056875 257.216434 
L 74.398642 255.14303 
L 73.757231 253.069625 
L 73.142625 250.996221 
L 72.562998 248.922816 
L 72.024176 246.849412 
L 71.529224 244.776007 
L 71.078191 242.702603 
L 70.668044 240.629198 
L 70.292817 238.555794 
L 69.943989 236.482389 
L 69.611065 234.408985 
L 69.282351 232.33558 
L 68.94583 230.262176 
L 68.590068 228.188771 
L 68.205049 226.115367 
L 67.782839 224.041962 
L 67.317999 221.968558 
L 66.80772 219.895153 
L 66.251666 217.821749 
L 65.651584 215.748344 
L 65.01077 213.67494 
L 64.333496 211.601535 
L 63.624504 209.528131 
L 62.888662 207.454726 
L 62.130838 205.381322 
L 61.355982 203.307917 
L 60.56941 201.234513 
L 59.777191 199.161108 
L 58.986572 197.087704 
L 58.206318 195.014299 
L 57.446906 192.940895 
L 56.720488 190.86749 
L 56.040599 188.794086 
L 55.421608 186.720681 
L 54.877921 184.647277 
L 54.423034 182.573872 
L 54.068482 180.500468 
L 53.822821 178.427063 
L 53.690732 176.353659 
L 53.672386 174.280254 
L 53.76315 172.20685 
L 53.953719 170.133445 
L 54.230706 168.060041 
L 54.577671 165.986636 
L 54.976517 163.913232 
L 55.409114 161.839827 
L 55.858998 159.766423 
L 56.312903 157.693018 
L 56.76196 155.619614 
L 57.202352 153.546209 
L 57.635346 151.472805 
L 58.066649 149.3994 
L 58.505174 147.325996 
L 58.961392 145.252591 
L 59.445498 143.179187 
L 59.965657 141.105782 
L 60.526609 139.032378 
L 61.128812 136.958973 
L 61.768238 134.885569 
L 62.436829 132.812164 
L 63.123508 130.73876 
L 63.81556 128.665355 
L 64.500168 126.591951 
L 65.16586 124.518546 
L 65.803692 122.445142 
L 66.408011 120.371737 
L 66.976741 118.298333 
L 67.511212 116.224928 
L 68.015579 114.151524 
L 68.495963 112.078119 
L 68.959441 110.004715 
L 69.413024 107.93131 
L 69.862753 105.857906 
L 70.313012 103.784501 
L 70.766133 101.711097 
L 71.222324 99.637692 
L 71.679912 97.564288 
L 72.135847 95.490883 
L 72.586388 93.417479 
L 73.027861 91.344074 
L 73.457358 89.27067 
L 73.873288 87.197265 
L 74.275666 85.123861 
L 74.666126 83.050456 
L 75.047643 80.977052 
L 75.424021 78.903647 
L 75.799245 76.830243 
L 76.176804 74.756838 
L 76.559085 72.683434 
L 76.946946 70.610029 
L 77.339507 68.536625 
L 77.734194 66.46322 
L 78.126991 64.389816 
L 78.512865 62.316411 
L 78.886282 60.243007 
L 79.241738 58.169602 
L 83.700762 58.169602 
L 83.700762 58.169602 
L 84.056218 60.243007 
L 84.429635 62.316411 
L 84.815509 64.389816 
L 85.208306 66.46322 
L 85.602993 68.536625 
L 85.995554 70.610029 
L 86.383415 72.683434 
L 86.765696 74.756838 
L 87.143255 76.830243 
L 87.518479 78.903647 
L 87.894857 80.977052 
L 88.276374 83.050456 
L 88.666834 85.123861 
L 89.069212 87.197265 
L 89.485142 89.27067 
L 89.914639 91.344074 
L 90.356112 93.417479 
L 90.806653 95.490883 
L 91.262588 97.564288 
L 91.720176 99.637692 
L 92.176367 101.711097 
L 92.629488 103.784501 
L 93.079747 105.857906 
L 93.529476 107.93131 
L 93.983059 110.004715 
L 94.446537 112.078119 
L 94.926921 114.151524 
L 95.431288 116.224928 
L 95.965759 118.298333 
L 96.534489 120.371737 
L 97.138808 122.445142 
L 97.77664 124.518546 
L 98.442332 126.591951 
L 99.12694 128.665355 
L 99.818992 130.73876 
L 100.505671 132.812164 
L 101.174262 134.885569 
L 101.813688 136.958973 
L 102.415891 139.032378 
L 102.976843 141.105782 
L 103.497002 143.179187 
L 103.981108 145.252591 
L 104.437326 147.325996 
L 104.875851 149.3994 
L 105.307154 151.472805 
L 105.740148 153.546209 
L 106.18054 155.619614 
L 106.629597 157.693018 
L 107.083502 159.766423 
L 107.533386 161.839827 
L 107.965983 163.913232 
L 108.364829 165.986636 
L 108.711794 168.060041 
L 108.988781 170.133445 
L 109.17935 172.20685 
L 109.270114 174.280254 
L 109.251768 176.353659 
L 109.119679 178.427063 
L 108.874018 180.500468 
L 108.519466 182.573872 
L 108.064579 184.647277 
L 107.520892 186.720681 
L 106.901901 188.794086 
L 106.222012 190.86749 
L 105.495594 192.940895 
L 104.736182 195.014299 
L 103.955928 197.087704 
L 103.165309 199.161108 
L 102.37309 201.234513 
L 101.586518 203.307917 
L 100.811662 205.381322 
L 100.053838 207.454726 
L 99.317996 209.528131 
L 98.609004 211.601535 
L 97.93173 213.67494 
L 97.290916 215.748344 
L 96.690834 217.821749 
L 96.13478 219.895153 
L 95.624501 221.968558 
L 95.159661 224.041962 
L 94.737451 226.115367 
L 94.352432 228.188771 
L 93.99667 230.262176 
L 93.660149 232.33558 
L 93.331435 234.408985 
L 92.998511 236.482389 
L 92.649683 238.555794 
L 92.274456 240.629198 
L 91.864309 242.702603 
L 91.413276 244.776007 
L 90.918324 246.849412 
L 90.379502 248.922816 
L 89.799875 250.996221 
L 89.185269 253.069625 
L 88.543858 255.14303 
L 87.885625 257.216434 
L 87.221747 259.289839 
L 86.563925 261.363243 
L 85.923716 263.436648 
z
" clip-path="url(#pccca1b3597)" style="fill: #1f77b4; fill-opacity: 0.3"/>
   </g>
   <g id="matplotlib.axis_1">
    <g id="ytick_1">
     <g id="line2d_1">
      <defs>
       <path id="m6e204059e0" d="M 0 0 
L -3.5 0 
" style="stroke: #000000; stroke-width: 0.8"/>
      </defs>
      <g>
       <use xlink:href="#m6e204059e0" x="50.8925" y="255.551823" style="stroke: #000000; stroke-width: 0.8"/>
      </g>
     </g>
     <g id="text_1">
      <!-- 0.4 -->
      <g transform="translate(27.989375 259.351041)scale(0.1 -0.1)">
       <defs>
        <path id="DejaVuSans-30" d="M 2034 4250 
Q 1547 4250 1301 3770 
Q 1056 3291 1056 2328 
Q 1056 1369 1301 889 
Q 1547 409 2034 409 
Q 2525 409 2770 889 
Q 3016 1369 3016 2328 
Q 3016 3291 2770 3770 
Q 2525 4250 2034 4250 
z
M 2034 4750 
Q 2819 4750 3233 4129 
Q 3647 3509 3647 2328 
Q 3647 1150 3233 529 
Q 2819 -91 2034 -91 
Q 1250 -91 836 529 
Q 422 1150 422 2328 
Q 422 3509 836 4129 
Q 1250 4750 2034 4750 
z
" transform="scale(0.015625)"/>
        <path id="DejaVuSans-2e" d="M 684 794 
L 1344 794 
L 1344 0 
L 684 0 
L 684 794 
z
" transform="scale(0.015625)"/>
        <path id="DejaVuSans-34" d="M 2419 4116 
L 825 1625 
L 2419 1625 
L 2419 4116 
z
M 2253 4666 
L 3047 4666 
L 3047 1625 
L 3713 1625 
L 3713 1100 
L 3047 1100 
L 3047 0 
L 2419 0 
L 2419 1100 
L 313 1100 
L 313 1709 
L 2253 4666 
z
" transform="scale(0.015625)"/>
       </defs>
       <use xlink:href="#DejaVuSans-30"/>
       <use xlink:href="#DejaVuSans-2e" x="63.623047"/>
       <use xlink:href="#DejaVuSans-34" x="95.410156"/>
      </g>
     </g>
    </g>
    <g id="ytick_2">
     <g id="line2d_2">
      <g>
       <use xlink:href="#m6e204059e0" x="50.8925" y="226.335129" style="stroke: #000000; stroke-width: 0.8"/>
      </g>
     </g>
     <g id="text_2">
      <!-- 0.6 -->
      <g transform="translate(27.989375 230.134348)scale(0.1 -0.1)">
       <defs>
        <path id="DejaVuSans-36" d="M 2113 2584 
Q 1688 2584 1439 2293 
Q 1191 2003 1191 1497 
Q 1191 994 1439 701 
Q 1688 409 2113 409 
Q 2538 409 2786 701 
Q 3034 994 3034 1497 
Q 3034 2003 2786 2293 
Q 2538 2584 2113 2584 
z
M 3366 4563 
L 3366 3988 
Q 3128 4100 2886 4159 
Q 2644 4219 2406 4219 
Q 1781 4219 1451 3797 
Q 1122 3375 1075 2522 
Q 1259 2794 1537 2939 
Q 1816 3084 2150 3084 
Q 2853 3084 3261 2657 
Q 3669 2231 3669 1497 
Q 3669 778 3244 343 
Q 2819 -91 2113 -91 
Q 1303 -91 875 529 
Q 447 1150 447 2328 
Q 447 3434 972 4092 
Q 1497 4750 2381 4750 
Q 2619 4750 2861 4703 
Q 3103 4656 3366 4563 
z
" transform="scale(0.015625)"/>
       </defs>
       <use xlink:href="#DejaVuSans-30"/>
       <use xlink:href="#DejaVuSans-2e" x="63.623047"/>
       <use xlink:href="#DejaVuSans-36" x="95.410156"/>
      </g>
     </g>
    </g>
    <g id="ytick_3">
     <g id="line2d_3">
      <g>
       <use xlink:href="#m6e204059e0" x="50.8925" y="197.118436" style="stroke: #000000; stroke-width: 0.8"/>
      </g>
     </g>
     <g id="text_3">
      <!-- 0.8 -->
      <g transform="translate(27.989375 200.917654)scale(0.1 -0.1)">
       <defs>
        <path id="DejaVuSans-38" d="M 2034 2216 
Q 1584 2216 1326 1975 
Q 1069 1734 1069 1313 
Q 1069 891 1326 650 
Q 1584 409 2034 409 
Q 2484 409 2743 651 
Q 3003 894 3003 1313 
Q 3003 1734 2745 1975 
Q 2488 2216 2034 2216 
z
M 1403 2484 
Q 997 2584 770 2862 
Q 544 3141 544 3541 
Q 544 4100 942 4425 
Q 1341 4750 2034 4750 
Q 2731 4750 3128 4425 
Q 3525 4100 3525 3541 
Q 3525 3141 3298 2862 
Q 3072 2584 2669 2484 
Q 3125 2378 3379 2068 
Q 3634 1759 3634 1313 
Q 3634 634 3220 271 
Q 2806 -91 2034 -91 
Q 1263 -91 848 271 
Q 434 634 434 1313 
Q 434 1759 690 2068 
Q 947 2378 1403 2484 
z
M 1172 3481 
Q 1172 3119 1398 2916 
Q 1625 2713 2034 2713 
Q 2441 2713 2670 2916 
Q 2900 3119 2900 3481 
Q 2900 3844 2670 4047 
Q 2441 4250 2034 4250 
Q 1625 4250 1398 4047 
Q 1172 3844 1172 3481 
z
" transform="scale(0.015625)"/>
       </defs>
       <use xlink:href="#DejaVuSans-30"/>
       <use xlink:href="#DejaVuSans-2e" x="63.623047"/>
       <use xlink:href="#DejaVuSans-38" x="95.410156"/>
      </g>
     </g>
    </g>
    <g id="ytick_4">
     <g id="line2d_4">
      <g>
       <use xlink:href="#m6e204059e0" x="50.8925" y="167.901742" style="stroke: #000000; stroke-width: 0.8"/>
      </g>
     </g>
     <g id="text_4">
      <!-- 1.0 -->
      <g transform="translate(27.989375 171.700961)scale(0.1 -0.1)">
       <defs>
        <path id="DejaVuSans-31" d="M 794 531 
L 1825 531 
L 1825 4091 
L 703 3866 
L 703 4441 
L 1819 4666 
L 2450 4666 
L 2450 531 
L 3481 531 
L 3481 0 
L 794 0 
L 794 531 
z
" transform="scale(0.015625)"/>
       </defs>
       <use xlink:href="#DejaVuSans-31"/>
       <use xlink:href="#DejaVuSans-2e" x="63.623047"/>
       <use xlink:href="#DejaVuSans-30" x="95.410156"/>
      </g>
     </g>
    </g>
    <g id="ytick_5">
     <g id="line2d_5">
      <g>
       <use xlink:href="#m6e204059e0" x="50.8925" y="138.685049" style="stroke: #000000; stroke-width: 0.8"/>
      </g>
     </g>
     <g id="text_5">
      <!-- 1.2 -->
      <g transform="translate(27.989375 142.484267)scale(0.1 -0.1)">
       <defs>
        <path id="DejaVuSans-32" d="M 1228 531 
L 3431 531 
L 3431 0 
L 469 0 
L 469 531 
Q 828 903 1448 1529 
Q 2069 2156 2228 2338 
Q 2531 2678 2651 2914 
Q 2772 3150 2772 3378 
Q 2772 3750 2511 3984 
Q 2250 4219 1831 4219 
Q 1534 4219 1204 4116 
Q 875 4013 500 3803 
L 500 4441 
Q 881 4594 1212 4672 
Q 1544 4750 1819 4750 
Q 2544 4750 2975 4387 
Q 3406 4025 3406 3419 
Q 3406 3131 3298 2873 
Q 3191 2616 2906 2266 
Q 2828 2175 2409 1742 
Q 1991 1309 1228 531 
z
" transform="scale(0.015625)"/>
       </defs>
       <use xlink:href="#DejaVuSans-31"/>
       <use xlink:href="#DejaVuSans-2e" x="63.623047"/>
       <use xlink:href="#DejaVuSans-32" x="95.410156"/>
      </g>
     </g>
    </g>
    <g id="ytick_6">
     <g id="line2d_6">
      <g>
       <use xlink:href="#m6e204059e0" x="50.8925" y="109.468355" style="stroke: #000000; stroke-width: 0.8"/>
      </g>
     </g>
     <g id="text_6">
      <!-- 1.4 -->
      <g transform="translate(27.989375 113.267574)scale(0.1 -0.1)">
       <use xlink:href="#DejaVuSans-31"/>
       <use xlink:href="#DejaVuSans-2e" x="63.623047"/>
       <use xlink:href="#DejaVuSans-34" x="95.410156"/>
      </g>
     </g>
    </g>
    <g id="ytick_7">
     <g id="line2d_7">
      <g>
       <use xlink:href="#m6e204059e0" x="50.8925" y="80.251662" style="stroke: #000000; stroke-width: 0.8"/>
      </g>
     </g>
     <g id="text_7">
      <!-- 1.6 -->
      <g transform="translate(27.989375 84.05088)scale(0.1 -0.1)">
       <use xlink:href="#DejaVuSans-31"/>
       <use xlink:href="#DejaVuSans-2e" x="63.623047"/>
       <use xlink:href="#DejaVuSans-36" x="95.410156"/>
      </g>
     </g>
    </g>
    <g id="ytick_8">
     <g id="line2d_8">
      <g>
       <use xlink:href="#m6e204059e0" x="50.8925" y="51.034968" style="stroke: #000000; stroke-width: 0.8"/>
      </g>
     </g>
     <g id="text_8">
      <!-- 1.8 -->
      <g transform="translate(27.989375 54.834187)scale(0.1 -0.1)">
       <use xlink:href="#DejaVuSans-31"/>
       <use xlink:href="#DejaVuSans-2e" x="63.623047"/>
       <use xlink:href="#DejaVuSans-38" x="95.410156"/>
      </g>
     </g>
    </g>
    <g id="text_9">
     <!-- RMSD [$\AA$] -->
     <g transform="translate(21.909688 184.553125)rotate(-90)scale(0.1 -0.1)">
      <defs>
       <path id="DejaVuSans-52" d="M 2841 2188 
Q 3044 2119 3236 1894 
Q 3428 1669 3622 1275 
L 4263 0 
L 3584 0 
L 2988 1197 
Q 2756 1666 2539 1819 
Q 2322 1972 1947 1972 
L 1259 1972 
L 1259 0 
L 628 0 
L 628 4666 
L 2053 4666 
Q 2853 4666 3247 4331 
Q 3641 3997 3641 3322 
Q 3641 2881 3436 2590 
Q 3231 2300 2841 2188 
z
M 1259 4147 
L 1259 2491 
L 2053 2491 
Q 2509 2491 2742 2702 
Q 2975 2913 2975 3322 
Q 2975 3731 2742 3939 
Q 2509 4147 2053 4147 
L 1259 4147 
z
" transform="scale(0.015625)"/>
       <path id="DejaVuSans-4d" d="M 628 4666 
L 1569 4666 
L 2759 1491 
L 3956 4666 
L 4897 4666 
L 4897 0 
L 4281 0 
L 4281 4097 
L 3078 897 
L 2444 897 
L 1241 4097 
L 1241 0 
L 628 0 
L 628 4666 
z
" transform="scale(0.015625)"/>
       <path id="DejaVuSans-53" d="M 3425 4513 
L 3425 3897 
Q 3066 4069 2747 4153 
Q 2428 4238 2131 4238 
Q 1616 4238 1336 4038 
Q 1056 3838 1056 3469 
Q 1056 3159 1242 3001 
Q 1428 2844 1947 2747 
L 2328 2669 
Q 3034 2534 3370 2195 
Q 3706 1856 3706 1288 
Q 3706 609 3251 259 
Q 2797 -91 1919 -91 
Q 1588 -91 1214 -16 
Q 841 59 441 206 
L 441 856 
Q 825 641 1194 531 
Q 1563 422 1919 422 
Q 2459 422 2753 634 
Q 3047 847 3047 1241 
Q 3047 1584 2836 1778 
Q 2625 1972 2144 2069 
L 1759 2144 
Q 1053 2284 737 2584 
Q 422 2884 422 3419 
Q 422 4038 858 4394 
Q 1294 4750 2059 4750 
Q 2388 4750 2728 4690 
Q 3069 4631 3425 4513 
z
" transform="scale(0.015625)"/>
       <path id="DejaVuSans-44" d="M 1259 4147 
L 1259 519 
L 2022 519 
Q 2988 519 3436 956 
Q 3884 1394 3884 2338 
Q 3884 3275 3436 3711 
Q 2988 4147 2022 4147 
L 1259 4147 
z
M 628 4666 
L 1925 4666 
Q 3281 4666 3915 4102 
Q 4550 3538 4550 2338 
Q 4550 1131 3912 565 
Q 3275 0 1925 0 
L 628 0 
L 628 4666 
z
" transform="scale(0.015625)"/>
       <path id="DejaVuSans-20" transform="scale(0.015625)"/>
       <path id="DejaVuSans-5b" d="M 550 4863 
L 1875 4863 
L 1875 4416 
L 1125 4416 
L 1125 -397 
L 1875 -397 
L 1875 -844 
L 550 -844 
L 550 4863 
z
" transform="scale(0.015625)"/>
       <path id="DejaVuSans-Oblique-c5" d="M 3188 5081 
Q 3188 5278 3048 5417 
Q 2909 5556 2713 5556 
Q 2513 5556 2377 5420 
Q 2241 5284 2241 5081 
Q 2241 4884 2377 4746 
Q 2513 4609 2713 4609 
Q 2909 4609 3048 4746 
Q 3188 4884 3188 5081 
z
M 2203 4397 
Q 2034 4513 1945 4689 
Q 1856 4866 1856 5081 
Q 1856 5438 2106 5689 
Q 2356 5941 2713 5941 
Q 3069 5941 3320 5689 
Q 3572 5438 3572 5081 
Q 3572 4834 3458 4643 
Q 3344 4453 3128 4341 
L 3938 0 
L 3278 0 
L 3084 1197 
L 984 1197 
L 325 0 
L -341 0 
L 2203 4397 
z
M 2584 4044 
L 1275 1722 
L 2988 1722 
L 2584 4044 
z
" transform="scale(0.015625)"/>
       <path id="DejaVuSans-5d" d="M 1947 4863 
L 1947 -844 
L 622 -844 
L 622 -397 
L 1369 -397 
L 1369 4416 
L 622 4416 
L 622 4863 
L 1947 4863 
z
" transform="scale(0.015625)"/>
      </defs>
      <use xlink:href="#DejaVuSans-52" transform="translate(0 0.171875)"/>
      <use xlink:href="#DejaVuSans-4d" transform="translate(69.482422 0.171875)"/>
      <use xlink:href="#DejaVuSans-53" transform="translate(155.761719 0.171875)"/>
      <use xlink:href="#DejaVuSans-44" transform="translate(219.238281 0.171875)"/>
      <use xlink:href="#DejaVuSans-20" transform="translate(296.240234 0.171875)"/>
      <use xlink:href="#DejaVuSans-5b" transform="translate(328.027344 0.171875)"/>
      <use xlink:href="#DejaVuSans-Oblique-c5" transform="translate(367.041016 0.171875)"/>
      <use xlink:href="#DejaVuSans-5d" transform="translate(435.449219 0.171875)"/>
     </g>
    </g>
   </g>
   <g id="LineCollection_1">
    <path d="M 67.571818 168.534244 
L 95.370682 168.534244 
" clip-path="url(#pccca1b3597)" style="fill: none; stroke: #1f77b4; stroke-width: 1.5"/>
   </g>
   <g id="LineCollection_2">
    <path d="M 67.571818 58.169602 
L 95.370682 58.169602 
" clip-path="url(#pccca1b3597)" style="fill: none; stroke: #1f77b4; stroke-width: 1.5"/>
   </g>
   <g id="LineCollection_3">
    <path d="M 67.571818 263.436648 
L 95.370682 263.436648 
" clip-path="url(#pccca1b3597)" style="fill: none; stroke: #1f77b4; stroke-width: 1.5"/>
   </g>
   <g id="LineCollection_4">
    <path d="M 81.47125 263.436648 
L 81.47125 58.169602 
" clip-path="url(#pccca1b3597)" style="fill: none; stroke: #1f77b4; stroke-width: 1.5"/>
   </g>
   <g id="patch_3">
    <path d="M 50.8925 273.7 
L 50.8925 47.90625 
" style="fill: none; stroke: #000000; stroke-width: 0.8; stroke-linejoin: miter; stroke-linecap: square"/>
   </g>
   <g id="patch_4">
    <path d="M 112.05 273.7 
L 112.05 47.90625 
" style="fill: none; stroke: #000000; stroke-width: 0.8; stroke-linejoin: miter; stroke-linecap: square"/>
   </g>
   <g id="patch_5">
    <path d="M 50.8925 273.7 
L 112.05 273.7 
" style="fill: none; stroke: #000000; stroke-width: 0.8; stroke-linejoin: miter; stroke-linecap: square"/>
   </g>
   <g id="patch_6">
    <path d="M 50.8925 47.90625 
L 112.05 47.90625 
" style="fill: none; stroke: #000000; stroke-width: 0.8; stroke-linejoin: miter; stroke-linecap: square"/>
   </g>
   <g id="text_10">
    <!-- RMSD -->
    <g transform="translate(63.69625 41.90625)scale(0.12 -0.12)">
     <use xlink:href="#DejaVuSans-52"/>
     <use xlink:href="#DejaVuSans-4d" x="69.482422"/>
     <use xlink:href="#DejaVuSans-53" x="155.761719"/>
     <use xlink:href="#DejaVuSans-44" x="219.238281"/>
    </g>
   </g>
  </g>
  <g id="axes_2">
   <g id="patch_7">
    <path d="M 164.18 273.7 
L 225.3375 273.7 
L 225.3375 47.90625 
L 164.18 47.90625 
z
" style="fill: #ffffff"/>
   </g>
   <g id="PolyCollection_2">
    <path d="M 199.888693 263.436648 
L 189.628807 263.436648 
L 188.974495 261.363243 
L 188.318434 259.289839 
L 187.672173 257.216434 
L 187.046013 255.14303 
L 186.448263 253.069625 
L 185.884645 250.996221 
L 185.35788 248.922816 
L 184.867505 246.849412 
L 184.409908 244.776007 
L 183.978597 242.702603 
L 183.564672 240.629198 
L 183.157472 238.555794 
L 182.74537 236.482389 
L 182.316658 234.408985 
L 181.860494 232.33558 
L 181.367817 230.262176 
L 180.832188 228.188771 
L 180.250444 226.115367 
L 179.623101 224.041962 
L 178.95441 221.968558 
L 178.252027 219.895153 
L 177.526294 217.821749 
L 176.789155 215.748344 
L 176.052855 213.67494 
L 175.328563 211.601535 
L 174.625128 209.528131 
L 173.948173 207.454726 
L 173.299705 205.381322 
L 172.67832 203.307917 
L 172.080017 201.234513 
L 171.499502 199.161108 
L 170.931779 197.087704 
L 170.373763 195.014299 
L 169.825631 192.940895 
L 169.291658 190.86749 
L 168.780394 188.794086 
L 168.304116 186.720681 
L 167.877646 184.647277 
L 167.516711 182.573872 
L 167.236087 180.500468 
L 167.047841 178.427063 
L 166.959886 176.353659 
L 166.975085 174.280254 
L 167.090985 172.20685 
L 167.300209 170.133445 
L 167.5914 168.060041 
L 167.950572 165.986636 
L 168.362661 163.913232 
L 168.813035 161.839827 
L 169.288796 159.766423 
L 169.779686 157.693018 
L 170.278531 155.619614 
L 170.781206 153.546209 
L 171.286187 151.472805 
L 171.793808 149.3994 
L 172.305383 147.325996 
L 172.822363 145.252591 
L 173.345654 143.179187 
L 173.875197 141.105782 
L 174.409843 139.032378 
L 174.947485 136.958973 
L 175.485389 134.885569 
L 176.020605 132.812164 
L 176.550382 130.73876 
L 177.072485 128.665355 
L 177.585388 126.591951 
L 178.088327 124.518546 
L 178.581247 122.445142 
L 179.06468 120.371737 
L 179.539613 118.298333 
L 180.007382 116.224928 
L 180.469596 114.151524 
L 180.928117 112.078119 
L 181.385043 110.004715 
L 181.842684 107.93131 
L 182.303496 105.857906 
L 182.769948 103.784501 
L 183.244321 101.711097 
L 183.728461 99.637692 
L 184.223502 97.564288 
L 184.729617 95.490883 
L 185.245833 93.417479 
L 185.769957 91.344074 
L 186.298633 89.27067 
L 186.827551 87.197265 
L 187.351775 85.123861 
L 187.866169 83.050456 
L 188.365863 80.977052 
L 188.846695 78.903647 
L 189.305564 76.830243 
L 189.740655 74.756838 
L 190.151489 72.683434 
L 190.538802 70.610029 
L 190.904278 68.536625 
L 191.25016 66.46322 
L 191.578833 64.389816 
L 191.892409 62.316411 
L 192.1924 60.243007 
L 192.479515 58.169602 
L 197.037985 58.169602 
L 197.037985 58.169602 
L 197.3251 60.243007 
L 197.625091 62.316411 
L 197.938667 64.389816 
L 198.26734 66.46322 
L 198.613222 68.536625 
L 198.978698 70.610029 
L 199.366011 72.683434 
L 199.776845 74.756838 
L 200.211936 76.830243 
L 200.670805 78.903647 
L 201.151637 80.977052 
L 201.651331 83.050456 
L 202.165725 85.123861 
L 202.689949 87.197265 
L 203.218867 89.27067 
L 203.747543 91.344074 
L 204.271667 93.417479 
L 204.787883 95.490883 
L 205.293998 97.564288 
L 205.789039 99.637692 
L 206.273179 101.711097 
L 206.747552 103.784501 
L 207.214004 105.857906 
L 207.674816 107.93131 
L 208.132457 110.004715 
L 208.589383 112.078119 
L 209.047904 114.151524 
L 209.510118 116.224928 
L 209.977887 118.298333 
L 210.45282 120.371737 
L 210.936253 122.445142 
L 211.429173 124.518546 
L 211.932112 126.591951 
L 212.445015 128.665355 
L 212.967118 130.73876 
L 213.496895 132.812164 
L 214.032111 134.885569 
L 214.570015 136.958973 
L 215.107657 139.032378 
L 215.642303 141.105782 
L 216.171846 143.179187 
L 216.695137 145.252591 
L 217.212117 147.325996 
L 217.723692 149.3994 
L 218.231313 151.472805 
L 218.736294 153.546209 
L 219.238969 155.619614 
L 219.737814 157.693018 
L 220.228704 159.766423 
L 220.704465 161.839827 
L 221.154839 163.913232 
L 221.566928 165.986636 
L 221.9261 168.060041 
L 222.217291 170.133445 
L 222.426515 172.20685 
L 222.542415 174.280254 
L 222.557614 176.353659 
L 222.469659 178.427063 
L 222.281413 180.500468 
L 222.000789 182.573872 
L 221.639854 184.647277 
L 221.213384 186.720681 
L 220.737106 188.794086 
L 220.225842 190.86749 
L 219.691869 192.940895 
L 219.143737 195.014299 
L 218.585721 197.087704 
L 218.017998 199.161108 
L 217.437483 201.234513 
L 216.83918 203.307917 
L 216.217795 205.381322 
L 215.569327 207.454726 
L 214.892372 209.528131 
L 214.188937 211.601535 
L 213.464645 213.67494 
L 212.728345 215.748344 
L 211.991206 217.821749 
L 211.265473 219.895153 
L 210.56309 221.968558 
L 209.894399 224.041962 
L 209.267056 226.115367 
L 208.685312 228.188771 
L 208.149683 230.262176 
L 207.657006 232.33558 
L 207.200842 234.408985 
L 206.77213 236.482389 
L 206.360028 238.555794 
L 205.952828 240.629198 
L 205.538903 242.702603 
L 205.107592 244.776007 
L 204.649995 246.849412 
L 204.15962 248.922816 
L 203.632855 250.996221 
L 203.069237 253.069625 
L 202.471487 255.14303 
L 201.845327 257.216434 
L 201.199066 259.289839 
L 200.543005 261.363243 
L 199.888693 263.436648 
z
" clip-path="url(#pb50f1fb8e1)" style="fill: #1f77b4; fill-opacity: 0.3"/>
   </g>
   <g id="matplotlib.axis_2">
    <g id="ytick_9">
     <g id="line2d_9">
      <g>
       <use xlink:href="#m6e204059e0" x="164.18" y="238.987091" style="stroke: #000000; stroke-width: 0.8"/>
      </g>
     </g>
     <g id="text_11">
      <!-- 0.4 -->
      <g transform="translate(141.276875 242.78631)scale(0.1 -0.1)">
       <use xlink:href="#DejaVuSans-30"/>
       <use xlink:href="#DejaVuSans-2e" x="63.623047"/>
       <use xlink:href="#DejaVuSans-34" x="95.410156"/>
      </g>
     </g>
    </g>
    <g id="ytick_10">
     <g id="line2d_10">
      <g>
       <use xlink:href="#m6e204059e0" x="164.18" y="201.69455" style="stroke: #000000; stroke-width: 0.8"/>
      </g>
     </g>
     <g id="text_12">
      <!-- 0.6 -->
      <g transform="translate(141.276875 205.493768)scale(0.1 -0.1)">
       <use xlink:href="#DejaVuSans-30"/>
       <use xlink:href="#DejaVuSans-2e" x="63.623047"/>
       <use xlink:href="#DejaVuSans-36" x="95.410156"/>
      </g>
     </g>
    </g>
    <g id="ytick_11">
     <g id="line2d_11">
      <g>
       <use xlink:href="#m6e204059e0" x="164.18" y="164.402008" style="stroke: #000000; stroke-width: 0.8"/>
      </g>
     </g>
     <g id="text_13">
      <!-- 0.8 -->
      <g transform="translate(141.276875 168.201227)scale(0.1 -0.1)">
       <use xlink:href="#DejaVuSans-30"/>
       <use xlink:href="#DejaVuSans-2e" x="63.623047"/>
       <use xlink:href="#DejaVuSans-38" x="95.410156"/>
      </g>
     </g>
    </g>
    <g id="ytick_12">
     <g id="line2d_12">
      <g>
       <use xlink:href="#m6e204059e0" x="164.18" y="127.109467" style="stroke: #000000; stroke-width: 0.8"/>
      </g>
     </g>
     <g id="text_14">
      <!-- 1.0 -->
      <g transform="translate(141.276875 130.908685)scale(0.1 -0.1)">
       <use xlink:href="#DejaVuSans-31"/>
       <use xlink:href="#DejaVuSans-2e" x="63.623047"/>
       <use xlink:href="#DejaVuSans-30" x="95.410156"/>
      </g>
     </g>
    </g>
    <g id="ytick_13">
     <g id="line2d_13">
      <g>
       <use xlink:href="#m6e204059e0" x="164.18" y="89.816925" style="stroke: #000000; stroke-width: 0.8"/>
      </g>
     </g>
     <g id="text_15">
      <!-- 1.2 -->
      <g transform="translate(141.276875 93.616144)scale(0.1 -0.1)">
       <use xlink:href="#DejaVuSans-31"/>
       <use xlink:href="#DejaVuSans-2e" x="63.623047"/>
       <use xlink:href="#DejaVuSans-32" x="95.410156"/>
      </g>
     </g>
    </g>
    <g id="ytick_14">
     <g id="line2d_14">
      <g>
       <use xlink:href="#m6e204059e0" x="164.18" y="52.524384" style="stroke: #000000; stroke-width: 0.8"/>
      </g>
     </g>
     <g id="text_16">
      <!-- 1.4 -->
      <g transform="translate(141.276875 56.323602)scale(0.1 -0.1)">
       <use xlink:href="#DejaVuSans-31"/>
       <use xlink:href="#DejaVuSans-2e" x="63.623047"/>
       <use xlink:href="#DejaVuSans-34" x="95.410156"/>
      </g>
     </g>
    </g>
    <g id="text_17">
     <!-- MAE [$\AA$] -->
     <g transform="translate(135.197187 180.653125)rotate(-90)scale(0.1 -0.1)">
      <defs>
       <path id="DejaVuSans-41" d="M 2188 4044 
L 1331 1722 
L 3047 1722 
L 2188 4044 
z
M 1831 4666 
L 2547 4666 
L 4325 0 
L 3669 0 
L 3244 1197 
L 1141 1197 
L 716 0 
L 50 0 
L 1831 4666 
z
" transform="scale(0.015625)"/>
       <path id="DejaVuSans-45" d="M 628 4666 
L 3578 4666 
L 3578 4134 
L 1259 4134 
L 1259 2753 
L 3481 2753 
L 3481 2222 
L 1259 2222 
L 1259 531 
L 3634 531 
L 3634 0 
L 628 0 
L 628 4666 
z
" transform="scale(0.015625)"/>
      </defs>
      <use xlink:href="#DejaVuSans-4d" transform="translate(0 0.171875)"/>
      <use xlink:href="#DejaVuSans-41" transform="translate(86.279297 0.171875)"/>
      <use xlink:href="#DejaVuSans-45" transform="translate(154.6875 0.171875)"/>
      <use xlink:href="#DejaVuSans-20" transform="translate(217.871094 0.171875)"/>
      <use xlink:href="#DejaVuSans-5b" transform="translate(249.658203 0.171875)"/>
      <use xlink:href="#DejaVuSans-Oblique-c5" transform="translate(288.671875 0.171875)"/>
      <use xlink:href="#DejaVuSans-5d" transform="translate(357.080078 0.171875)"/>
     </g>
    </g>
   </g>
   <g id="LineCollection_5">
    <path d="M 180.859318 169.678765 
L 208.658182 169.678765 
" clip-path="url(#pb50f1fb8e1)" style="fill: none; stroke: #1f77b4; stroke-width: 1.5"/>
   </g>
   <g id="LineCollection_6">
    <path d="M 180.859318 58.169602 
L 208.658182 58.169602 
" clip-path="url(#pb50f1fb8e1)" style="fill: none; stroke: #1f77b4; stroke-width: 1.5"/>
   </g>
   <g id="LineCollection_7">
    <path d="M 180.859318 263.436648 
L 208.658182 263.436648 
" clip-path="url(#pb50f1fb8e1)" style="fill: none; stroke: #1f77b4; stroke-width: 1.5"/>
   </g>
   <g id="LineCollection_8">
    <path d="M 194.75875 263.436648 
L 194.75875 58.169602 
" clip-path="url(#pb50f1fb8e1)" style="fill: none; stroke: #1f77b4; stroke-width: 1.5"/>
   </g>
   <g id="patch_8">
    <path d="M 164.18 273.7 
L 164.18 47.90625 
" style="fill: none; stroke: #000000; stroke-width: 0.8; stroke-linejoin: miter; stroke-linecap: square"/>
   </g>
   <g id="patch_9">
    <path d="M 225.3375 273.7 
L 225.3375 47.90625 
" style="fill: none; stroke: #000000; stroke-width: 0.8; stroke-linejoin: miter; stroke-linecap: square"/>
   </g>
   <g id="patch_10">
    <path d="M 164.18 273.7 
L 225.3375 273.7 
" style="fill: none; stroke: #000000; stroke-width: 0.8; stroke-linejoin: miter; stroke-linecap: square"/>
   </g>
   <g id="patch_11">
    <path d="M 164.18 47.90625 
L 225.3375 47.90625 
" style="fill: none; stroke: #000000; stroke-width: 0.8; stroke-linejoin: miter; stroke-linecap: square"/>
   </g>
   <g id="text_18">
    <!-- MAE -->
    <g transform="translate(181.68625 41.90625)scale(0.12 -0.12)">
     <use xlink:href="#DejaVuSans-4d"/>
     <use xlink:href="#DejaVuSans-41" x="86.279297"/>
     <use xlink:href="#DejaVuSans-45" x="154.6875"/>
    </g>
   </g>
  </g>
  <g id="axes_3">
   <g id="patch_12">
    <path d="M 277.4675 273.7 
L 338.625 273.7 
L 338.625 47.90625 
L 277.4675 47.90625 
z
" style="fill: #ffffff"/>
   </g>
   <g id="PolyCollection_3">
    <path d="M 312.064548 263.436648 
L 304.027952 263.436648 
L 303.42247 261.363243 
L 302.788784 259.289839 
L 302.135384 257.216434 
L 301.470987 255.14303 
L 300.803943 253.069625 
L 300.141658 250.996221 
L 299.4901 248.922816 
L 298.853414 246.849412 
L 298.23369 244.776007 
L 297.630898 242.702603 
L 297.042966 240.629198 
L 296.466001 238.555794 
L 295.894618 236.482389 
L 295.322355 234.408985 
L 294.742181 232.33558 
L 294.147055 230.262176 
L 293.530571 228.188771 
L 292.887642 226.115367 
L 292.21521 224.041962 
L 291.51292 221.968558 
L 290.783677 219.895153 
L 290.033996 217.821749 
L 289.274044 215.748344 
L 288.517309 213.67494 
L 287.779849 211.601535 
L 287.079144 209.528131 
L 286.432633 207.454726 
L 285.856064 205.381322 
L 285.361844 203.307917 
L 284.957584 201.234513 
L 284.645035 199.161108 
L 284.419577 197.087704 
L 284.270349 195.014299 
L 284.181037 192.940895 
L 284.131266 190.86749 
L 284.098418 188.794086 
L 284.059693 186.720681 
L 283.994175 184.647277 
L 283.884661 182.573872 
L 283.7191 180.500468 
L 283.491497 178.427063 
L 283.202268 176.353659 
L 282.858058 174.280254 
L 282.47112 172.20685 
L 282.058347 170.133445 
L 281.640085 168.060041 
L 281.238803 165.986636 
L 280.877693 163.913232 
L 280.579272 161.839827 
L 280.364016 159.766423 
L 280.249111 157.693018 
L 280.247386 155.619614 
L 280.366531 153.546209 
L 280.60868 151.472805 
L 280.970437 149.3994 
L 281.443345 147.325996 
L 282.014778 145.252591 
L 282.669161 143.179187 
L 283.389353 141.105782 
L 284.158062 139.032378 
L 284.959098 136.958973 
L 285.778356 134.885569 
L 286.604431 132.812164 
L 287.428844 130.73876 
L 288.245914 128.665355 
L 289.052336 126.591951 
L 289.846569 124.518546 
L 290.628151 122.445142 
L 291.39703 120.371737 
L 292.153001 118.298333 
L 292.895304 116.224928 
L 293.622409 114.151524 
L 294.331993 112.078119 
L 295.02107 110.004715 
L 295.686256 107.93131 
L 296.324093 105.857906 
L 296.931403 103.784501 
L 297.505603 101.711097 
L 298.044956 99.637692 
L 298.548729 97.564288 
L 299.017248 95.490883 
L 299.451859 93.417479 
L 299.854817 91.344074 
L 300.22913 89.27067 
L 300.578391 87.197265 
L 300.906625 85.123861 
L 301.218151 83.050456 
L 301.517481 80.977052 
L 301.809218 78.903647 
L 302.097938 76.830243 
L 302.38804 74.756838 
L 302.683536 72.683434 
L 302.98779 70.610029 
L 303.303226 68.536625 
L 303.631046 66.46322 
L 303.971009 64.389816 
L 304.321314 62.316411 
L 304.678638 60.243007 
L 305.038329 58.169602 
L 311.054171 58.169602 
L 311.054171 58.169602 
L 311.413862 60.243007 
L 311.771186 62.316411 
L 312.121491 64.389816 
L 312.461454 66.46322 
L 312.789274 68.536625 
L 313.10471 70.610029 
L 313.408964 72.683434 
L 313.70446 74.756838 
L 313.994562 76.830243 
L 314.283282 78.903647 
L 314.575019 80.977052 
L 314.874349 83.050456 
L 315.185875 85.123861 
L 315.514109 87.197265 
L 315.86337 89.27067 
L 316.237683 91.344074 
L 316.640641 93.417479 
L 317.075252 95.490883 
L 317.543771 97.564288 
L 318.047544 99.637692 
L 318.586897 101.711097 
L 319.161097 103.784501 
L 319.768407 105.857906 
L 320.406244 107.93131 
L 321.07143 110.004715 
L 321.760507 112.078119 
L 322.470091 114.151524 
L 323.197196 116.224928 
L 323.939499 118.298333 
L 324.69547 120.371737 
L 325.464349 122.445142 
L 326.245931 124.518546 
L 327.040164 126.591951 
L 327.846586 128.665355 
L 328.663656 130.73876 
L 329.488069 132.812164 
L 330.314144 134.885569 
L 331.133402 136.958973 
L 331.934438 139.032378 
L 332.703147 141.105782 
L 333.423339 143.179187 
L 334.077722 145.252591 
L 334.649155 147.325996 
L 335.122063 149.3994 
L 335.48382 151.472805 
L 335.725969 153.546209 
L 335.845114 155.619614 
L 335.843389 157.693018 
L 335.728484 159.766423 
L 335.513228 161.839827 
L 335.214807 163.913232 
L 334.853697 165.986636 
L 334.452415 168.060041 
L 334.034153 170.133445 
L 333.62138 172.20685 
L 333.234442 174.280254 
L 332.890232 176.353659 
L 332.601003 178.427063 
L 332.3734 180.500468 
L 332.207839 182.573872 
L 332.098325 184.647277 
L 332.032807 186.720681 
L 331.994082 188.794086 
L 331.961234 190.86749 
L 331.911463 192.940895 
L 331.822151 195.014299 
L 331.672923 197.087704 
L 331.447465 199.161108 
L 331.134916 201.234513 
L 330.730656 203.307917 
L 330.236436 205.381322 
L 329.659867 207.454726 
L 329.013356 209.528131 
L 328.312651 211.601535 
L 327.575191 213.67494 
L 326.818456 215.748344 
L 326.058504 217.821749 
L 325.308823 219.895153 
L 324.57958 221.968558 
L 323.87729 224.041962 
L 323.204858 226.115367 
L 322.561929 228.188771 
L 321.945445 230.262176 
L 321.350319 232.33558 
L 320.770145 234.408985 
L 320.197882 236.482389 
L 319.626499 238.555794 
L 319.049534 240.629198 
L 318.461602 242.702603 
L 317.85881 244.776007 
L 317.239086 246.849412 
L 316.6024 248.922816 
L 315.950842 250.996221 
L 315.288557 253.069625 
L 314.621513 255.14303 
L 313.957116 257.216434 
L 313.303716 259.289839 
L 312.67003 261.363243 
L 312.064548 263.436648 
z
" clip-path="url(#p7bde2b0fae)" style="fill: #1f77b4; fill-opacity: 0.3"/>
   </g>
   <g id="matplotlib.axis_3">
    <g id="ytick_15">
     <g id="line2d_15">
      <g>
       <use xlink:href="#m6e204059e0" x="277.4675" y="240.619486" style="stroke: #000000; stroke-width: 0.8"/>
      </g>
     </g>
     <g id="text_19">
      <!-- 0.0 -->
      <g transform="translate(254.564375 244.418705)scale(0.1 -0.1)">
       <use xlink:href="#DejaVuSans-30"/>
       <use xlink:href="#DejaVuSans-2e" x="63.623047"/>
       <use xlink:href="#DejaVuSans-30" x="95.410156"/>
      </g>
     </g>
    </g>
    <g id="ytick_16">
     <g id="line2d_16">
      <g>
       <use xlink:href="#m6e204059e0" x="277.4675" y="205.283397" style="stroke: #000000; stroke-width: 0.8"/>
      </g>
     </g>
     <g id="text_20">
      <!-- 0.2 -->
      <g transform="translate(254.564375 209.082616)scale(0.1 -0.1)">
       <use xlink:href="#DejaVuSans-30"/>
       <use xlink:href="#DejaVuSans-2e" x="63.623047"/>
       <use xlink:href="#DejaVuSans-32" x="95.410156"/>
      </g>
     </g>
    </g>
    <g id="ytick_17">
     <g id="line2d_17">
      <g>
       <use xlink:href="#m6e204059e0" x="277.4675" y="169.947308" style="stroke: #000000; stroke-width: 0.8"/>
      </g>
     </g>
     <g id="text_21">
      <!-- 0.4 -->
      <g transform="translate(254.564375 173.746527)scale(0.1 -0.1)">
       <use xlink:href="#DejaVuSans-30"/>
       <use xlink:href="#DejaVuSans-2e" x="63.623047"/>
       <use xlink:href="#DejaVuSans-34" x="95.410156"/>
      </g>
     </g>
    </g>
    <g id="ytick_18">
     <g id="line2d_18">
      <g>
       <use xlink:href="#m6e204059e0" x="277.4675" y="134.611219" style="stroke: #000000; stroke-width: 0.8"/>
      </g>
     </g>
     <g id="text_22">
      <!-- 0.6 -->
      <g transform="translate(254.564375 138.410438)scale(0.1 -0.1)">
       <use xlink:href="#DejaVuSans-30"/>
       <use xlink:href="#DejaVuSans-2e" x="63.623047"/>
       <use xlink:href="#DejaVuSans-36" x="95.410156"/>
      </g>
     </g>
    </g>
    <g id="ytick_19">
     <g id="line2d_19">
      <g>
       <use xlink:href="#m6e204059e0" x="277.4675" y="99.27513" style="stroke: #000000; stroke-width: 0.8"/>
      </g>
     </g>
     <g id="text_23">
      <!-- 0.8 -->
      <g transform="translate(254.564375 103.074349)scale(0.1 -0.1)">
       <use xlink:href="#DejaVuSans-30"/>
       <use xlink:href="#DejaVuSans-2e" x="63.623047"/>
       <use xlink:href="#DejaVuSans-38" x="95.410156"/>
      </g>
     </g>
    </g>
    <g id="ytick_20">
     <g id="line2d_20">
      <g>
       <use xlink:href="#m6e204059e0" x="277.4675" y="63.939041" style="stroke: #000000; stroke-width: 0.8"/>
      </g>
     </g>
     <g id="text_24">
      <!-- 1.0 -->
      <g transform="translate(254.564375 67.73826)scale(0.1 -0.1)">
       <use xlink:href="#DejaVuSans-31"/>
       <use xlink:href="#DejaVuSans-2e" x="63.623047"/>
       <use xlink:href="#DejaVuSans-30" x="95.410156"/>
      </g>
     </g>
    </g>
    <g id="text_25">
     <!-- MSE [$\AA$] -->
     <g transform="translate(248.484687 180.403125)rotate(-90)scale(0.1 -0.1)">
      <use xlink:href="#DejaVuSans-4d" transform="translate(0 0.171875)"/>
      <use xlink:href="#DejaVuSans-53" transform="translate(86.279297 0.171875)"/>
      <use xlink:href="#DejaVuSans-45" transform="translate(149.755859 0.171875)"/>
      <use xlink:href="#DejaVuSans-20" transform="translate(212.939453 0.171875)"/>
      <use xlink:href="#DejaVuSans-5b" transform="translate(244.726562 0.171875)"/>
      <use xlink:href="#DejaVuSans-Oblique-c5" transform="translate(283.740234 0.171875)"/>
      <use xlink:href="#DejaVuSans-5d" transform="translate(352.148438 0.171875)"/>
     </g>
    </g>
   </g>
   <g id="LineCollection_9">
    <path d="M 294.146818 167.516206 
L 321.945682 167.516206 
" clip-path="url(#p7bde2b0fae)" style="fill: none; stroke: #1f77b4; stroke-width: 1.5"/>
   </g>
   <g id="LineCollection_10">
    <path d="M 294.146818 58.169602 
L 321.945682 58.169602 
" clip-path="url(#p7bde2b0fae)" style="fill: none; stroke: #1f77b4; stroke-width: 1.5"/>
   </g>
   <g id="LineCollection_11">
    <path d="M 294.146818 263.436648 
L 321.945682 263.436648 
" clip-path="url(#p7bde2b0fae)" style="fill: none; stroke: #1f77b4; stroke-width: 1.5"/>
   </g>
   <g id="LineCollection_12">
    <path d="M 308.04625 263.436648 
L 308.04625 58.169602 
" clip-path="url(#p7bde2b0fae)" style="fill: none; stroke: #1f77b4; stroke-width: 1.5"/>
   </g>
   <g id="patch_13">
    <path d="M 277.4675 273.7 
L 277.4675 47.90625 
" style="fill: none; stroke: #000000; stroke-width: 0.8; stroke-linejoin: miter; stroke-linecap: square"/>
   </g>
   <g id="patch_14">
    <path d="M 338.625 273.7 
L 338.625 47.90625 
" style="fill: none; stroke: #000000; stroke-width: 0.8; stroke-linejoin: miter; stroke-linecap: square"/>
   </g>
   <g id="patch_15">
    <path d="M 277.4675 273.7 
L 338.625 273.7 
" style="fill: none; stroke: #000000; stroke-width: 0.8; stroke-linejoin: miter; stroke-linecap: square"/>
   </g>
   <g id="patch_16">
    <path d="M 277.4675 47.90625 
L 338.625 47.90625 
" style="fill: none; stroke: #000000; stroke-width: 0.8; stroke-linejoin: miter; stroke-linecap: square"/>
   </g>
   <g id="text_26">
    <!-- MSE -->
    <g transform="translate(295.269062 41.90625)scale(0.12 -0.12)">
     <use xlink:href="#DejaVuSans-4d"/>
     <use xlink:href="#DejaVuSans-53" x="86.279297"/>
     <use xlink:href="#DejaVuSans-45" x="149.755859"/>
    </g>
   </g>
  </g>
  <g id="axes_4">
   <g id="patch_17">
    <path d="M 390.755 273.7 
L 451.9125 273.7 
L 451.9125 47.90625 
L 390.755 47.90625 
z
" style="fill: #ffffff"/>
   </g>
   <g id="PolyCollection_4">
    <path d="M 422.554437 263.436648 
L 420.113063 263.436648 
L 419.833104 261.363243 
L 419.510139 259.289839 
L 419.142988 257.216434 
L 418.731212 255.14303 
L 418.27485 253.069625 
L 417.774141 250.996221 
L 417.229295 248.922816 
L 416.640454 246.849412 
L 416.007879 244.776007 
L 415.332327 242.702603 
L 414.615527 240.629198 
L 413.860556 238.555794 
L 413.071957 236.482389 
L 412.255492 234.408985 
L 411.41753 232.33558 
L 410.56424 230.262176 
L 409.700819 228.188771 
L 408.831007 226.115367 
L 407.957068 224.041962 
L 407.080236 221.968558 
L 406.201457 219.895153 
L 405.322148 217.821749 
L 404.444669 215.748344 
L 403.572347 213.67494 
L 402.709049 211.601535 
L 401.858539 209.528131 
L 401.023941 207.454726 
L 400.207599 205.381322 
L 399.411475 203.307917 
L 398.637968 201.234513 
L 397.890835 199.161108 
L 397.175822 197.087704 
L 396.500692 195.014299 
L 395.874594 192.940895 
L 395.306986 190.86749 
L 394.806542 188.794086 
L 394.380506 186.720681 
L 394.034753 184.647277 
L 393.774549 182.573872 
L 393.605603 180.500468 
L 393.534886 178.427063 
L 393.57064 176.353659 
L 393.721329 174.280254 
L 393.993641 172.20685 
L 394.390051 170.133445 
L 394.906671 168.060041 
L 395.532074 165.986636 
L 396.247522 163.913232 
L 397.028573 161.839827 
L 397.847692 159.766423 
L 398.677199 157.693018 
L 399.491905 155.619614 
L 400.27096 153.546209 
L 400.998731 151.472805 
L 401.664852 149.3994 
L 402.263718 147.325996 
L 402.793765 145.252591 
L 403.256744 143.179187 
L 403.657085 141.105782 
L 404.001297 139.032378 
L 404.297372 136.958973 
L 404.554168 134.885569 
L 404.780856 132.812164 
L 404.986551 130.73876 
L 405.180217 128.665355 
L 405.370843 126.591951 
L 405.567741 124.518546 
L 405.78073 122.445142 
L 406.01997 120.371737 
L 406.295314 118.298333 
L 406.615231 116.224928 
L 406.98555 114.151524 
L 407.408372 112.078119 
L 407.881506 110.004715 
L 408.398627 107.93131 
L 408.950171 105.857906 
L 409.524737 103.784501 
L 410.110667 101.711097 
L 410.697432 99.637692 
L 411.276574 97.564288 
L 411.842107 95.490883 
L 412.390448 93.417479 
L 412.920063 91.344074 
L 413.431018 89.27067 
L 413.92458 87.197265 
L 414.402897 85.123861 
L 414.868717 83.050456 
L 415.325076 80.977052 
L 415.774868 78.903647 
L 416.220338 76.830243 
L 416.662553 74.756838 
L 417.101003 72.683434 
L 417.533437 70.610029 
L 417.956018 68.536625 
L 418.36378 66.46322 
L 418.751307 64.389816 
L 419.113462 62.316411 
L 419.446048 60.243007 
L 419.746246 58.169602 
L 422.921254 58.169602 
L 422.921254 58.169602 
L 423.221452 60.243007 
L 423.554038 62.316411 
L 423.916193 64.389816 
L 424.30372 66.46322 
L 424.711482 68.536625 
L 425.134063 70.610029 
L 425.566497 72.683434 
L 426.004947 74.756838 
L 426.447162 76.830243 
L 426.892632 78.903647 
L 427.342424 80.977052 
L 427.798783 83.050456 
L 428.264603 85.123861 
L 428.74292 87.197265 
L 429.236482 89.27067 
L 429.747437 91.344074 
L 430.277052 93.417479 
L 430.825393 95.490883 
L 431.390926 97.564288 
L 431.970068 99.637692 
L 432.556833 101.711097 
L 433.142763 103.784501 
L 433.717329 105.857906 
L 434.268873 107.93131 
L 434.785994 110.004715 
L 435.259128 112.078119 
L 435.68195 114.151524 
L 436.052269 116.224928 
L 436.372186 118.298333 
L 436.64753 120.371737 
L 436.88677 122.445142 
L 437.099759 124.518546 
L 437.296657 126.591951 
L 437.487283 128.665355 
L 437.680949 130.73876 
L 437.886644 132.812164 
L 438.113332 134.885569 
L 438.370128 136.958973 
L 438.666203 139.032378 
L 439.010415 141.105782 
L 439.410756 143.179187 
L 439.873735 145.252591 
L 440.403782 147.325996 
L 441.002648 149.3994 
L 441.668769 151.472805 
L 442.39654 153.546209 
L 443.175595 155.619614 
L 443.990301 157.693018 
L 444.819808 159.766423 
L 445.638927 161.839827 
L 446.419978 163.913232 
L 447.135426 165.986636 
L 447.760829 168.060041 
L 448.277449 170.133445 
L 448.673859 172.20685 
L 448.946171 174.280254 
L 449.09686 176.353659 
L 449.132614 178.427063 
L 449.061897 180.500468 
L 448.892951 182.573872 
L 448.632747 184.647277 
L 448.286994 186.720681 
L 447.860958 188.794086 
L 447.360514 190.86749 
L 446.792906 192.940895 
L 446.166808 195.014299 
L 445.491678 197.087704 
L 444.776665 199.161108 
L 444.029532 201.234513 
L 443.256025 203.307917 
L 442.459901 205.381322 
L 441.643559 207.454726 
L 440.808961 209.528131 
L 439.958451 211.601535 
L 439.095153 213.67494 
L 438.222831 215.748344 
L 437.345352 217.821749 
L 436.466043 219.895153 
L 435.587264 221.968558 
L 434.710432 224.041962 
L 433.836493 226.115367 
L 432.966681 228.188771 
L 432.10326 230.262176 
L 431.24997 232.33558 
L 430.412008 234.408985 
L 429.595543 236.482389 
L 428.806944 238.555794 
L 428.051973 240.629198 
L 427.335173 242.702603 
L 426.659621 244.776007 
L 426.027046 246.849412 
L 425.438205 248.922816 
L 424.893359 250.996221 
L 424.39265 253.069625 
L 423.936288 255.14303 
L 423.524512 257.216434 
L 423.157361 259.289839 
L 422.834396 261.363243 
L 422.554437 263.436648 
z
" clip-path="url(#p0c7fa14db5)" style="fill: #1f77b4; fill-opacity: 0.3"/>
   </g>
   <g id="matplotlib.axis_4">
    <g id="ytick_21">
     <g id="line2d_21">
      <g>
       <use xlink:href="#m6e204059e0" x="390.755" y="267.168776" style="stroke: #000000; stroke-width: 0.8"/>
      </g>
     </g>
     <g id="text_27">
      <!-- 0.3 -->
      <g transform="translate(367.851875 270.967995)scale(0.1 -0.1)">
       <defs>
        <path id="DejaVuSans-33" d="M 2597 2516 
Q 3050 2419 3304 2112 
Q 3559 1806 3559 1356 
Q 3559 666 3084 287 
Q 2609 -91 1734 -91 
Q 1441 -91 1130 -33 
Q 819 25 488 141 
L 488 750 
Q 750 597 1062 519 
Q 1375 441 1716 441 
Q 2309 441 2620 675 
Q 2931 909 2931 1356 
Q 2931 1769 2642 2001 
Q 2353 2234 1838 2234 
L 1294 2234 
L 1294 2753 
L 1863 2753 
Q 2328 2753 2575 2939 
Q 2822 3125 2822 3475 
Q 2822 3834 2567 4026 
Q 2313 4219 1838 4219 
Q 1578 4219 1281 4162 
Q 984 4106 628 3988 
L 628 4550 
Q 988 4650 1302 4700 
Q 1616 4750 1894 4750 
Q 2613 4750 3031 4423 
Q 3450 4097 3450 3541 
Q 3450 3153 3228 2886 
Q 3006 2619 2597 2516 
z
" transform="scale(0.015625)"/>
       </defs>
       <use xlink:href="#DejaVuSans-30"/>
       <use xlink:href="#DejaVuSans-2e" x="63.623047"/>
       <use xlink:href="#DejaVuSans-33" x="95.410156"/>
      </g>
     </g>
    </g>
    <g id="ytick_22">
     <g id="line2d_22">
      <g>
       <use xlink:href="#m6e204059e0" x="390.755" y="237.311751" style="stroke: #000000; stroke-width: 0.8"/>
      </g>
     </g>
     <g id="text_28">
      <!-- 0.4 -->
      <g transform="translate(367.851875 241.11097)scale(0.1 -0.1)">
       <use xlink:href="#DejaVuSans-30"/>
       <use xlink:href="#DejaVuSans-2e" x="63.623047"/>
       <use xlink:href="#DejaVuSans-34" x="95.410156"/>
      </g>
     </g>
    </g>
    <g id="ytick_23">
     <g id="line2d_23">
      <g>
       <use xlink:href="#m6e204059e0" x="390.755" y="207.454726" style="stroke: #000000; stroke-width: 0.8"/>
      </g>
     </g>
     <g id="text_29">
      <!-- 0.5 -->
      <g transform="translate(367.851875 211.253945)scale(0.1 -0.1)">
       <defs>
        <path id="DejaVuSans-35" d="M 691 4666 
L 3169 4666 
L 3169 4134 
L 1269 4134 
L 1269 2991 
Q 1406 3038 1543 3061 
Q 1681 3084 1819 3084 
Q 2600 3084 3056 2656 
Q 3513 2228 3513 1497 
Q 3513 744 3044 326 
Q 2575 -91 1722 -91 
Q 1428 -91 1123 -41 
Q 819 9 494 109 
L 494 744 
Q 775 591 1075 516 
Q 1375 441 1709 441 
Q 2250 441 2565 725 
Q 2881 1009 2881 1497 
Q 2881 1984 2565 2268 
Q 2250 2553 1709 2553 
Q 1456 2553 1204 2497 
Q 953 2441 691 2322 
L 691 4666 
z
" transform="scale(0.015625)"/>
       </defs>
       <use xlink:href="#DejaVuSans-30"/>
       <use xlink:href="#DejaVuSans-2e" x="63.623047"/>
       <use xlink:href="#DejaVuSans-35" x="95.410156"/>
      </g>
     </g>
    </g>
    <g id="ytick_24">
     <g id="line2d_24">
      <g>
       <use xlink:href="#m6e204059e0" x="390.755" y="177.597701" style="stroke: #000000; stroke-width: 0.8"/>
      </g>
     </g>
     <g id="text_30">
      <!-- 0.6 -->
      <g transform="translate(367.851875 181.39692)scale(0.1 -0.1)">
       <use xlink:href="#DejaVuSans-30"/>
       <use xlink:href="#DejaVuSans-2e" x="63.623047"/>
       <use xlink:href="#DejaVuSans-36" x="95.410156"/>
      </g>
     </g>
    </g>
    <g id="ytick_25">
     <g id="line2d_25">
      <g>
       <use xlink:href="#m6e204059e0" x="390.755" y="147.740677" style="stroke: #000000; stroke-width: 0.8"/>
      </g>
     </g>
     <g id="text_31">
      <!-- 0.7 -->
      <g transform="translate(367.851875 151.539895)scale(0.1 -0.1)">
       <defs>
        <path id="DejaVuSans-37" d="M 525 4666 
L 3525 4666 
L 3525 4397 
L 1831 0 
L 1172 0 
L 2766 4134 
L 525 4134 
L 525 4666 
z
" transform="scale(0.015625)"/>
       </defs>
       <use xlink:href="#DejaVuSans-30"/>
       <use xlink:href="#DejaVuSans-2e" x="63.623047"/>
       <use xlink:href="#DejaVuSans-37" x="95.410156"/>
      </g>
     </g>
    </g>
    <g id="ytick_26">
     <g id="line2d_26">
      <g>
       <use xlink:href="#m6e204059e0" x="390.755" y="117.883652" style="stroke: #000000; stroke-width: 0.8"/>
      </g>
     </g>
     <g id="text_32">
      <!-- 0.8 -->
      <g transform="translate(367.851875 121.682871)scale(0.1 -0.1)">
       <use xlink:href="#DejaVuSans-30"/>
       <use xlink:href="#DejaVuSans-2e" x="63.623047"/>
       <use xlink:href="#DejaVuSans-38" x="95.410156"/>
      </g>
     </g>
    </g>
    <g id="ytick_27">
     <g id="line2d_27">
      <g>
       <use xlink:href="#m6e204059e0" x="390.755" y="88.026627" style="stroke: #000000; stroke-width: 0.8"/>
      </g>
     </g>
     <g id="text_33">
      <!-- 0.9 -->
      <g transform="translate(367.851875 91.825846)scale(0.1 -0.1)">
       <defs>
        <path id="DejaVuSans-39" d="M 703 97 
L 703 672 
Q 941 559 1184 500 
Q 1428 441 1663 441 
Q 2288 441 2617 861 
Q 2947 1281 2994 2138 
Q 2813 1869 2534 1725 
Q 2256 1581 1919 1581 
Q 1219 1581 811 2004 
Q 403 2428 403 3163 
Q 403 3881 828 4315 
Q 1253 4750 1959 4750 
Q 2769 4750 3195 4129 
Q 3622 3509 3622 2328 
Q 3622 1225 3098 567 
Q 2575 -91 1691 -91 
Q 1453 -91 1209 -44 
Q 966 3 703 97 
z
M 1959 2075 
Q 2384 2075 2632 2365 
Q 2881 2656 2881 3163 
Q 2881 3666 2632 3958 
Q 2384 4250 1959 4250 
Q 1534 4250 1286 3958 
Q 1038 3666 1038 3163 
Q 1038 2656 1286 2365 
Q 1534 2075 1959 2075 
z
" transform="scale(0.015625)"/>
       </defs>
       <use xlink:href="#DejaVuSans-30"/>
       <use xlink:href="#DejaVuSans-2e" x="63.623047"/>
       <use xlink:href="#DejaVuSans-39" x="95.410156"/>
      </g>
     </g>
    </g>
    <g id="ytick_28">
     <g id="line2d_28">
      <g>
       <use xlink:href="#m6e204059e0" x="390.755" y="58.169602" style="stroke: #000000; stroke-width: 0.8"/>
      </g>
     </g>
     <g id="text_34">
      <!-- 1.0 -->
      <g transform="translate(367.851875 61.968821)scale(0.1 -0.1)">
       <use xlink:href="#DejaVuSans-31"/>
       <use xlink:href="#DejaVuSans-2e" x="63.623047"/>
       <use xlink:href="#DejaVuSans-30" x="95.410156"/>
      </g>
     </g>
    </g>
    <g id="text_35">
     <!-- % NOE fulfilled [1/100 %] -->
     <g transform="translate(361.772188 224.303906)rotate(-90)scale(0.1 -0.1)">
      <defs>
       <path id="DejaVuSans-25" d="M 4653 2053 
Q 4381 2053 4226 1822 
Q 4072 1591 4072 1178 
Q 4072 772 4226 539 
Q 4381 306 4653 306 
Q 4919 306 5073 539 
Q 5228 772 5228 1178 
Q 5228 1588 5073 1820 
Q 4919 2053 4653 2053 
z
M 4653 2450 
Q 5147 2450 5437 2106 
Q 5728 1763 5728 1178 
Q 5728 594 5436 251 
Q 5144 -91 4653 -91 
Q 4153 -91 3862 251 
Q 3572 594 3572 1178 
Q 3572 1766 3864 2108 
Q 4156 2450 4653 2450 
z
M 1428 4353 
Q 1159 4353 1004 4120 
Q 850 3888 850 3481 
Q 850 3069 1003 2837 
Q 1156 2606 1428 2606 
Q 1700 2606 1854 2837 
Q 2009 3069 2009 3481 
Q 2009 3884 1853 4118 
Q 1697 4353 1428 4353 
z
M 4250 4750 
L 4750 4750 
L 1831 -91 
L 1331 -91 
L 4250 4750 
z
M 1428 4750 
Q 1922 4750 2215 4408 
Q 2509 4066 2509 3481 
Q 2509 2891 2217 2550 
Q 1925 2209 1428 2209 
Q 931 2209 642 2551 
Q 353 2894 353 3481 
Q 353 4063 643 4406 
Q 934 4750 1428 4750 
z
" transform="scale(0.015625)"/>
       <path id="DejaVuSans-4e" d="M 628 4666 
L 1478 4666 
L 3547 763 
L 3547 4666 
L 4159 4666 
L 4159 0 
L 3309 0 
L 1241 3903 
L 1241 0 
L 628 0 
L 628 4666 
z
" transform="scale(0.015625)"/>
       <path id="DejaVuSans-4f" d="M 2522 4238 
Q 1834 4238 1429 3725 
Q 1025 3213 1025 2328 
Q 1025 1447 1429 934 
Q 1834 422 2522 422 
Q 3209 422 3611 934 
Q 4013 1447 4013 2328 
Q 4013 3213 3611 3725 
Q 3209 4238 2522 4238 
z
M 2522 4750 
Q 3503 4750 4090 4092 
Q 4678 3434 4678 2328 
Q 4678 1225 4090 567 
Q 3503 -91 2522 -91 
Q 1538 -91 948 565 
Q 359 1222 359 2328 
Q 359 3434 948 4092 
Q 1538 4750 2522 4750 
z
" transform="scale(0.015625)"/>
       <path id="DejaVuSans-66" d="M 2375 4863 
L 2375 4384 
L 1825 4384 
Q 1516 4384 1395 4259 
Q 1275 4134 1275 3809 
L 1275 3500 
L 2222 3500 
L 2222 3053 
L 1275 3053 
L 1275 0 
L 697 0 
L 697 3053 
L 147 3053 
L 147 3500 
L 697 3500 
L 697 3744 
Q 697 4328 969 4595 
Q 1241 4863 1831 4863 
L 2375 4863 
z
" transform="scale(0.015625)"/>
       <path id="DejaVuSans-75" d="M 544 1381 
L 544 3500 
L 1119 3500 
L 1119 1403 
Q 1119 906 1312 657 
Q 1506 409 1894 409 
Q 2359 409 2629 706 
Q 2900 1003 2900 1516 
L 2900 3500 
L 3475 3500 
L 3475 0 
L 2900 0 
L 2900 538 
Q 2691 219 2414 64 
Q 2138 -91 1772 -91 
Q 1169 -91 856 284 
Q 544 659 544 1381 
z
M 1991 3584 
L 1991 3584 
z
" transform="scale(0.015625)"/>
       <path id="DejaVuSans-6c" d="M 603 4863 
L 1178 4863 
L 1178 0 
L 603 0 
L 603 4863 
z
" transform="scale(0.015625)"/>
       <path id="DejaVuSans-69" d="M 603 3500 
L 1178 3500 
L 1178 0 
L 603 0 
L 603 3500 
z
M 603 4863 
L 1178 4863 
L 1178 4134 
L 603 4134 
L 603 4863 
z
" transform="scale(0.015625)"/>
       <path id="DejaVuSans-65" d="M 3597 1894 
L 3597 1613 
L 953 1613 
Q 991 1019 1311 708 
Q 1631 397 2203 397 
Q 2534 397 2845 478 
Q 3156 559 3463 722 
L 3463 178 
Q 3153 47 2828 -22 
Q 2503 -91 2169 -91 
Q 1331 -91 842 396 
Q 353 884 353 1716 
Q 353 2575 817 3079 
Q 1281 3584 2069 3584 
Q 2775 3584 3186 3129 
Q 3597 2675 3597 1894 
z
M 3022 2063 
Q 3016 2534 2758 2815 
Q 2500 3097 2075 3097 
Q 1594 3097 1305 2825 
Q 1016 2553 972 2059 
L 3022 2063 
z
" transform="scale(0.015625)"/>
       <path id="DejaVuSans-64" d="M 2906 2969 
L 2906 4863 
L 3481 4863 
L 3481 0 
L 2906 0 
L 2906 525 
Q 2725 213 2448 61 
Q 2172 -91 1784 -91 
Q 1150 -91 751 415 
Q 353 922 353 1747 
Q 353 2572 751 3078 
Q 1150 3584 1784 3584 
Q 2172 3584 2448 3432 
Q 2725 3281 2906 2969 
z
M 947 1747 
Q 947 1113 1208 752 
Q 1469 391 1925 391 
Q 2381 391 2643 752 
Q 2906 1113 2906 1747 
Q 2906 2381 2643 2742 
Q 2381 3103 1925 3103 
Q 1469 3103 1208 2742 
Q 947 2381 947 1747 
z
" transform="scale(0.015625)"/>
       <path id="DejaVuSans-2f" d="M 1625 4666 
L 2156 4666 
L 531 -594 
L 0 -594 
L 1625 4666 
z
" transform="scale(0.015625)"/>
      </defs>
      <use xlink:href="#DejaVuSans-25"/>
      <use xlink:href="#DejaVuSans-20" x="95.019531"/>
      <use xlink:href="#DejaVuSans-4e" x="126.806641"/>
      <use xlink:href="#DejaVuSans-4f" x="201.611328"/>
      <use xlink:href="#DejaVuSans-45" x="280.322266"/>
      <use xlink:href="#DejaVuSans-20" x="343.505859"/>
      <use xlink:href="#DejaVuSans-66" x="375.292969"/>
      <use xlink:href="#DejaVuSans-75" x="410.498047"/>
      <use xlink:href="#DejaVuSans-6c" x="473.876953"/>
      <use xlink:href="#DejaVuSans-66" x="501.660156"/>
      <use xlink:href="#DejaVuSans-69" x="536.865234"/>
      <use xlink:href="#DejaVuSans-6c" x="564.648438"/>
      <use xlink:href="#DejaVuSans-6c" x="592.431641"/>
      <use xlink:href="#DejaVuSans-65" x="620.214844"/>
      <use xlink:href="#DejaVuSans-64" x="681.738281"/>
      <use xlink:href="#DejaVuSans-20" x="745.214844"/>
      <use xlink:href="#DejaVuSans-5b" x="777.001953"/>
      <use xlink:href="#DejaVuSans-31" x="816.015625"/>
      <use xlink:href="#DejaVuSans-2f" x="879.638672"/>
      <use xlink:href="#DejaVuSans-31" x="913.330078"/>
      <use xlink:href="#DejaVuSans-30" x="976.953125"/>
      <use xlink:href="#DejaVuSans-30" x="1040.576172"/>
      <use xlink:href="#DejaVuSans-20" x="1104.199219"/>
      <use xlink:href="#DejaVuSans-25" x="1135.986328"/>
      <use xlink:href="#DejaVuSans-5d" x="1231.005859"/>
     </g>
    </g>
   </g>
   <g id="LineCollection_13">
    <path d="M 407.434318 165.690436 
L 435.233182 165.690436 
" clip-path="url(#p0c7fa14db5)" style="fill: none; stroke: #1f77b4; stroke-width: 1.5"/>
   </g>
   <g id="LineCollection_14">
    <path d="M 407.434318 58.169602 
L 435.233182 58.169602 
" clip-path="url(#p0c7fa14db5)" style="fill: none; stroke: #1f77b4; stroke-width: 1.5"/>
   </g>
   <g id="LineCollection_15">
    <path d="M 407.434318 263.436648 
L 435.233182 263.436648 
" clip-path="url(#p0c7fa14db5)" style="fill: none; stroke: #1f77b4; stroke-width: 1.5"/>
   </g>
   <g id="LineCollection_16">
    <path d="M 421.33375 263.436648 
L 421.33375 58.169602 
" clip-path="url(#p0c7fa14db5)" style="fill: none; stroke: #1f77b4; stroke-width: 1.5"/>
   </g>
   <g id="patch_18">
    <path d="M 390.755 273.7 
L 390.755 47.90625 
" style="fill: none; stroke: #000000; stroke-width: 0.8; stroke-linejoin: miter; stroke-linecap: square"/>
   </g>
   <g id="patch_19">
    <path d="M 451.9125 273.7 
L 451.9125 47.90625 
" style="fill: none; stroke: #000000; stroke-width: 0.8; stroke-linejoin: miter; stroke-linecap: square"/>
   </g>
   <g id="patch_20">
    <path d="M 390.755 273.7 
L 451.9125 273.7 
" style="fill: none; stroke: #000000; stroke-width: 0.8; stroke-linejoin: miter; stroke-linecap: square"/>
   </g>
   <g id="patch_21">
    <path d="M 390.755 47.90625 
L 451.9125 47.90625 
" style="fill: none; stroke: #000000; stroke-width: 0.8; stroke-linejoin: miter; stroke-linecap: square"/>
   </g>
   <g id="text_36">
    <!-- % NOE fulfilled -->
    <g transform="translate(376.620625 41.90625)scale(0.12 -0.12)">
     <use xlink:href="#DejaVuSans-25"/>
     <use xlink:href="#DejaVuSans-20" x="95.019531"/>
     <use xlink:href="#DejaVuSans-4e" x="126.806641"/>
     <use xlink:href="#DejaVuSans-4f" x="201.611328"/>
     <use xlink:href="#DejaVuSans-45" x="280.322266"/>
     <use xlink:href="#DejaVuSans-20" x="343.505859"/>
     <use xlink:href="#DejaVuSans-66" x="375.292969"/>
     <use xlink:href="#DejaVuSans-75" x="410.498047"/>
     <use xlink:href="#DejaVuSans-6c" x="473.876953"/>
     <use xlink:href="#DejaVuSans-66" x="501.660156"/>
     <use xlink:href="#DejaVuSans-69" x="536.865234"/>
     <use xlink:href="#DejaVuSans-6c" x="564.648438"/>
     <use xlink:href="#DejaVuSans-6c" x="592.431641"/>
     <use xlink:href="#DejaVuSans-65" x="620.214844"/>
     <use xlink:href="#DejaVuSans-64" x="681.738281"/>
    </g>
   </g>
  </g>
  <g id="axes_5">
   <g id="patch_22">
    <path d="M 504.0425 273.7 
L 565.2 273.7 
L 565.2 47.90625 
L 504.0425 47.90625 
z
" style="fill: #ffffff"/>
   </g>
   <g id="PolyCollection_5">
    <path d="M 535.037067 263.436648 
L 534.205433 263.436648 
L 534.211513 261.363243 
L 534.230473 259.289839 
L 534.259273 257.216434 
L 534.293367 255.14303 
L 534.327089 253.069625 
L 534.35409 250.996221 
L 534.367762 248.922816 
L 534.361633 246.849412 
L 534.329761 244.776007 
L 534.267207 242.702603 
L 534.170614 240.629198 
L 534.038909 238.555794 
L 533.873998 236.482389 
L 533.681294 234.408985 
L 533.469797 232.33558 
L 533.251544 230.262176 
L 533.040304 228.188771 
L 532.849637 226.115367 
L 532.690587 224.041962 
L 532.569514 221.968558 
L 532.486533 219.895153 
L 532.43501 217.821749 
L 532.402267 215.748344 
L 532.371413 213.67494 
L 532.323905 211.601535 
L 532.242312 209.528131 
L 532.112725 207.454726 
L 531.926382 205.381322 
L 531.680308 203.307917 
L 531.376969 201.234513 
L 531.023144 199.161108 
L 530.62834 197.087704 
L 530.203082 195.014299 
L 529.757416 192.940895 
L 529.299894 190.86749 
L 528.837162 188.794086 
L 528.374163 186.720681 
L 527.914773 184.647277 
L 527.462533 182.573872 
L 527.021105 180.500468 
L 526.594164 178.427063 
L 526.184633 176.353659 
L 525.79351 174.280254 
L 525.41873 172.20685 
L 525.054649 170.133445 
L 524.692553 168.060041 
L 524.322263 165.986636 
L 523.934513 163.913232 
L 523.523398 161.839827 
L 523.088111 159.766423 
L 522.63334 157.693018 
L 522.168053 155.619614 
L 521.702916 153.546209 
L 521.246951 151.472805 
L 520.804291 149.3994 
L 520.371848 147.325996 
L 519.938499 145.252591 
L 519.486027 143.179187 
L 518.991684 141.105782 
L 518.431893 139.032378 
L 517.786416 136.958973 
L 517.042235 134.885569 
L 516.196446 132.812164 
L 515.257686 130.73876 
L 514.245846 128.665355 
L 513.190154 126.591951 
L 512.125968 124.518546 
L 511.090861 122.445142 
L 510.120659 120.371737 
L 509.246102 118.298333 
L 508.490649 116.224928 
L 507.869714 114.151524 
L 507.391332 112.078119 
L 507.057949 110.004715 
L 506.868824 107.93131 
L 506.822386 105.857906 
L 506.918007 103.784501 
L 507.156797 101.711097 
L 507.541393 99.637692 
L 508.074967 97.564288 
L 508.759879 95.490883 
L 509.596435 93.417479 
L 510.582034 91.344074 
L 511.71078 89.27067 
L 512.973397 87.197265 
L 514.357193 85.123861 
L 515.845876 83.050456 
L 517.419203 80.977052 
L 519.052646 78.903647 
L 520.717422 76.830243 
L 522.381177 74.756838 
L 524.009519 72.683434 
L 525.568292 70.610029 
L 527.026253 68.536625 
L 528.357678 66.46322 
L 529.544366 64.389816 
L 530.576703 62.316411 
L 531.453606 60.243007 
L 532.181491 58.169602 
L 537.061009 58.169602 
L 537.061009 58.169602 
L 537.788894 60.243007 
L 538.665797 62.316411 
L 539.698134 64.389816 
L 540.884822 66.46322 
L 542.216247 68.536625 
L 543.674208 70.610029 
L 545.232981 72.683434 
L 546.861323 74.756838 
L 548.525078 76.830243 
L 550.189854 78.903647 
L 551.823297 80.977052 
L 553.396624 83.050456 
L 554.885307 85.123861 
L 556.269103 87.197265 
L 557.53172 89.27067 
L 558.660466 91.344074 
L 559.646065 93.417479 
L 560.482621 95.490883 
L 561.167533 97.564288 
L 561.701107 99.637692 
L 562.085703 101.711097 
L 562.324493 103.784501 
L 562.420114 105.857906 
L 562.373676 107.93131 
L 562.184551 110.004715 
L 561.851168 112.078119 
L 561.372786 114.151524 
L 560.751851 116.224928 
L 559.996398 118.298333 
L 559.121841 120.371737 
L 558.151639 122.445142 
L 557.116532 124.518546 
L 556.052346 126.591951 
L 554.996654 128.665355 
L 553.984814 130.73876 
L 553.046054 132.812164 
L 552.200265 134.885569 
L 551.456084 136.958973 
L 550.810607 139.032378 
L 550.250816 141.105782 
L 549.756473 143.179187 
L 549.304001 145.252591 
L 548.870652 147.325996 
L 548.438209 149.3994 
L 547.995549 151.472805 
L 547.539584 153.546209 
L 547.074447 155.619614 
L 546.60916 157.693018 
L 546.154389 159.766423 
L 545.719102 161.839827 
L 545.307987 163.913232 
L 544.920237 165.986636 
L 544.549947 168.060041 
L 544.187851 170.133445 
L 543.82377 172.20685 
L 543.44899 174.280254 
L 543.057867 176.353659 
L 542.648336 178.427063 
L 542.221395 180.500468 
L 541.779967 182.573872 
L 541.327727 184.647277 
L 540.868337 186.720681 
L 540.405338 188.794086 
L 539.942606 190.86749 
L 539.485084 192.940895 
L 539.039418 195.014299 
L 538.61416 197.087704 
L 538.219356 199.161108 
L 537.865531 201.234513 
L 537.562192 203.307917 
L 537.316118 205.381322 
L 537.129775 207.454726 
L 537.000188 209.528131 
L 536.918595 211.601535 
L 536.871087 213.67494 
L 536.840233 215.748344 
L 536.80749 217.821749 
L 536.755967 219.895153 
L 536.672986 221.968558 
L 536.551913 224.041962 
L 536.392863 226.115367 
L 536.202196 228.188771 
L 535.990956 230.262176 
L 535.772703 232.33558 
L 535.561206 234.408985 
L 535.368502 236.482389 
L 535.203591 238.555794 
L 535.071886 240.629198 
L 534.975293 242.702603 
L 534.912739 244.776007 
L 534.880867 246.849412 
L 534.874738 248.922816 
L 534.88841 250.996221 
L 534.915411 253.069625 
L 534.949133 255.14303 
L 534.983227 257.216434 
L 535.012027 259.289839 
L 535.030987 261.363243 
L 535.037067 263.436648 
z
" clip-path="url(#p44c8defad6)" style="fill: #1f77b4; fill-opacity: 0.3"/>
   </g>
   <g id="matplotlib.axis_5">
    <g id="ytick_29">
     <g id="line2d_29">
      <g>
       <use xlink:href="#m6e204059e0" x="504.0425" y="263.436648" style="stroke: #000000; stroke-width: 0.8"/>
      </g>
     </g>
     <g id="text_37">
      <!-- 0.0 -->
      <g transform="translate(481.139375 267.235866)scale(0.1 -0.1)">
       <use xlink:href="#DejaVuSans-30"/>
       <use xlink:href="#DejaVuSans-2e" x="63.623047"/>
       <use xlink:href="#DejaVuSans-30" x="95.410156"/>
      </g>
     </g>
    </g>
    <g id="ytick_30">
     <g id="line2d_30">
      <g>
       <use xlink:href="#m6e204059e0" x="504.0425" y="227.410412" style="stroke: #000000; stroke-width: 0.8"/>
      </g>
     </g>
     <g id="text_38">
      <!-- 0.1 -->
      <g transform="translate(481.139375 231.209631)scale(0.1 -0.1)">
       <use xlink:href="#DejaVuSans-30"/>
       <use xlink:href="#DejaVuSans-2e" x="63.623047"/>
       <use xlink:href="#DejaVuSans-31" x="95.410156"/>
      </g>
     </g>
    </g>
    <g id="ytick_31">
     <g id="line2d_31">
      <g>
       <use xlink:href="#m6e204059e0" x="504.0425" y="191.384176" style="stroke: #000000; stroke-width: 0.8"/>
      </g>
     </g>
     <g id="text_39">
      <!-- 0.2 -->
      <g transform="translate(481.139375 195.183395)scale(0.1 -0.1)">
       <use xlink:href="#DejaVuSans-30"/>
       <use xlink:href="#DejaVuSans-2e" x="63.623047"/>
       <use xlink:href="#DejaVuSans-32" x="95.410156"/>
      </g>
     </g>
    </g>
    <g id="ytick_32">
     <g id="line2d_32">
      <g>
       <use xlink:href="#m6e204059e0" x="504.0425" y="155.357941" style="stroke: #000000; stroke-width: 0.8"/>
      </g>
     </g>
     <g id="text_40">
      <!-- 0.3 -->
      <g transform="translate(481.139375 159.15716)scale(0.1 -0.1)">
       <use xlink:href="#DejaVuSans-30"/>
       <use xlink:href="#DejaVuSans-2e" x="63.623047"/>
       <use xlink:href="#DejaVuSans-33" x="95.410156"/>
      </g>
     </g>
    </g>
    <g id="ytick_33">
     <g id="line2d_33">
      <g>
       <use xlink:href="#m6e204059e0" x="504.0425" y="119.331705" style="stroke: #000000; stroke-width: 0.8"/>
      </g>
     </g>
     <g id="text_41">
      <!-- 0.4 -->
      <g transform="translate(481.139375 123.130924)scale(0.1 -0.1)">
       <use xlink:href="#DejaVuSans-30"/>
       <use xlink:href="#DejaVuSans-2e" x="63.623047"/>
       <use xlink:href="#DejaVuSans-34" x="95.410156"/>
      </g>
     </g>
    </g>
    <g id="ytick_34">
     <g id="line2d_34">
      <g>
       <use xlink:href="#m6e204059e0" x="504.0425" y="83.30547" style="stroke: #000000; stroke-width: 0.8"/>
      </g>
     </g>
     <g id="text_42">
      <!-- 0.5 -->
      <g transform="translate(481.139375 87.104688)scale(0.1 -0.1)">
       <use xlink:href="#DejaVuSans-30"/>
       <use xlink:href="#DejaVuSans-2e" x="63.623047"/>
       <use xlink:href="#DejaVuSans-35" x="95.410156"/>
      </g>
     </g>
    </g>
    <g id="text_43">
     <!-- RMSD stepwise [$\AA$] -->
     <g transform="translate(475.039375 208.103125)rotate(-90)scale(0.1 -0.1)">
      <defs>
       <path id="DejaVuSans-73" d="M 2834 3397 
L 2834 2853 
Q 2591 2978 2328 3040 
Q 2066 3103 1784 3103 
Q 1356 3103 1142 2972 
Q 928 2841 928 2578 
Q 928 2378 1081 2264 
Q 1234 2150 1697 2047 
L 1894 2003 
Q 2506 1872 2764 1633 
Q 3022 1394 3022 966 
Q 3022 478 2636 193 
Q 2250 -91 1575 -91 
Q 1294 -91 989 -36 
Q 684 19 347 128 
L 347 722 
Q 666 556 975 473 
Q 1284 391 1588 391 
Q 1994 391 2212 530 
Q 2431 669 2431 922 
Q 2431 1156 2273 1281 
Q 2116 1406 1581 1522 
L 1381 1569 
Q 847 1681 609 1914 
Q 372 2147 372 2553 
Q 372 3047 722 3315 
Q 1072 3584 1716 3584 
Q 2034 3584 2315 3537 
Q 2597 3491 2834 3397 
z
" transform="scale(0.015625)"/>
       <path id="DejaVuSans-74" d="M 1172 4494 
L 1172 3500 
L 2356 3500 
L 2356 3053 
L 1172 3053 
L 1172 1153 
Q 1172 725 1289 603 
Q 1406 481 1766 481 
L 2356 481 
L 2356 0 
L 1766 0 
Q 1100 0 847 248 
Q 594 497 594 1153 
L 594 3053 
L 172 3053 
L 172 3500 
L 594 3500 
L 594 4494 
L 1172 4494 
z
" transform="scale(0.015625)"/>
       <path id="DejaVuSans-70" d="M 1159 525 
L 1159 -1331 
L 581 -1331 
L 581 3500 
L 1159 3500 
L 1159 2969 
Q 1341 3281 1617 3432 
Q 1894 3584 2278 3584 
Q 2916 3584 3314 3078 
Q 3713 2572 3713 1747 
Q 3713 922 3314 415 
Q 2916 -91 2278 -91 
Q 1894 -91 1617 61 
Q 1341 213 1159 525 
z
M 3116 1747 
Q 3116 2381 2855 2742 
Q 2594 3103 2138 3103 
Q 1681 3103 1420 2742 
Q 1159 2381 1159 1747 
Q 1159 1113 1420 752 
Q 1681 391 2138 391 
Q 2594 391 2855 752 
Q 3116 1113 3116 1747 
z
" transform="scale(0.015625)"/>
       <path id="DejaVuSans-77" d="M 269 3500 
L 844 3500 
L 1563 769 
L 2278 3500 
L 2956 3500 
L 3675 769 
L 4391 3500 
L 4966 3500 
L 4050 0 
L 3372 0 
L 2619 2869 
L 1863 0 
L 1184 0 
L 269 3500 
z
" transform="scale(0.015625)"/>
      </defs>
      <use xlink:href="#DejaVuSans-52" transform="translate(0 0.171875)"/>
      <use xlink:href="#DejaVuSans-4d" transform="translate(69.482422 0.171875)"/>
      <use xlink:href="#DejaVuSans-53" transform="translate(155.761719 0.171875)"/>
      <use xlink:href="#DejaVuSans-44" transform="translate(219.238281 0.171875)"/>
      <use xlink:href="#DejaVuSans-20" transform="translate(296.240234 0.171875)"/>
      <use xlink:href="#DejaVuSans-73" transform="translate(328.027344 0.171875)"/>
      <use xlink:href="#DejaVuSans-74" transform="translate(380.126953 0.171875)"/>
      <use xlink:href="#DejaVuSans-65" transform="translate(419.335938 0.171875)"/>
      <use xlink:href="#DejaVuSans-70" transform="translate(480.859375 0.171875)"/>
      <use xlink:href="#DejaVuSans-77" transform="translate(544.335938 0.171875)"/>
      <use xlink:href="#DejaVuSans-69" transform="translate(626.123047 0.171875)"/>
      <use xlink:href="#DejaVuSans-73" transform="translate(653.90625 0.171875)"/>
      <use xlink:href="#DejaVuSans-65" transform="translate(706.005859 0.171875)"/>
      <use xlink:href="#DejaVuSans-20" transform="translate(767.529297 0.171875)"/>
      <use xlink:href="#DejaVuSans-5b" transform="translate(799.316406 0.171875)"/>
      <use xlink:href="#DejaVuSans-Oblique-c5" transform="translate(838.330078 0.171875)"/>
      <use xlink:href="#DejaVuSans-5d" transform="translate(906.738281 0.171875)"/>
     </g>
    </g>
   </g>
   <g id="LineCollection_17">
    <path d="M 520.721818 124.147323 
L 548.520682 124.147323 
" clip-path="url(#p44c8defad6)" style="fill: none; stroke: #1f77b4; stroke-width: 1.5"/>
   </g>
   <g id="LineCollection_18">
    <path d="M 520.721818 58.169602 
L 548.520682 58.169602 
" clip-path="url(#p44c8defad6)" style="fill: none; stroke: #1f77b4; stroke-width: 1.5"/>
   </g>
   <g id="LineCollection_19">
    <path d="M 520.721818 263.436648 
L 548.520682 263.436648 
" clip-path="url(#p44c8defad6)" style="fill: none; stroke: #1f77b4; stroke-width: 1.5"/>
   </g>
   <g id="LineCollection_20">
    <path d="M 534.62125 263.436648 
L 534.62125 58.169602 
" clip-path="url(#p44c8defad6)" style="fill: none; stroke: #1f77b4; stroke-width: 1.5"/>
   </g>
   <g id="patch_23">
    <path d="M 504.0425 273.7 
L 504.0425 47.90625 
" style="fill: none; stroke: #000000; stroke-width: 0.8; stroke-linejoin: miter; stroke-linecap: square"/>
   </g>
   <g id="patch_24">
    <path d="M 565.2 273.7 
L 565.2 47.90625 
" style="fill: none; stroke: #000000; stroke-width: 0.8; stroke-linejoin: miter; stroke-linecap: square"/>
   </g>
   <g id="patch_25">
    <path d="M 504.0425 273.7 
L 565.2 273.7 
" style="fill: none; stroke: #000000; stroke-width: 0.8; stroke-linejoin: miter; stroke-linecap: square"/>
   </g>
   <g id="patch_26">
    <path d="M 504.0425 47.90625 
L 565.2 47.90625 
" style="fill: none; stroke: #000000; stroke-width: 0.8; stroke-linejoin: miter; stroke-linecap: square"/>
   </g>
   <g id="text_44">
    <!-- RMSD stepwise -->
    <g transform="translate(488.569375 41.90625)scale(0.12 -0.12)">
     <use xlink:href="#DejaVuSans-52"/>
     <use xlink:href="#DejaVuSans-4d" x="69.482422"/>
     <use xlink:href="#DejaVuSans-53" x="155.761719"/>
     <use xlink:href="#DejaVuSans-44" x="219.238281"/>
     <use xlink:href="#DejaVuSans-20" x="296.240234"/>
     <use xlink:href="#DejaVuSans-73" x="328.027344"/>
     <use xlink:href="#DejaVuSans-74" x="380.126953"/>
     <use xlink:href="#DejaVuSans-65" x="419.335938"/>
     <use xlink:href="#DejaVuSans-70" x="480.859375"/>
     <use xlink:href="#DejaVuSans-77" x="544.335938"/>
     <use xlink:href="#DejaVuSans-69" x="626.123047"/>
     <use xlink:href="#DejaVuSans-73" x="653.90625"/>
     <use xlink:href="#DejaVuSans-65" x="706.005859"/>
    </g>
   </g>
  </g>
  <g id="text_45">
   <!-- Compound 1_2. Rdkit -->
   <g transform="translate(223.573125 14.878125)scale(0.12 -0.12)">
    <defs>
     <path id="DejaVuSans-43" d="M 4122 4306 
L 4122 3641 
Q 3803 3938 3442 4084 
Q 3081 4231 2675 4231 
Q 1875 4231 1450 3742 
Q 1025 3253 1025 2328 
Q 1025 1406 1450 917 
Q 1875 428 2675 428 
Q 3081 428 3442 575 
Q 3803 722 4122 1019 
L 4122 359 
Q 3791 134 3420 21 
Q 3050 -91 2638 -91 
Q 1578 -91 968 557 
Q 359 1206 359 2328 
Q 359 3453 968 4101 
Q 1578 4750 2638 4750 
Q 3056 4750 3426 4639 
Q 3797 4528 4122 4306 
z
" transform="scale(0.015625)"/>
     <path id="DejaVuSans-6f" d="M 1959 3097 
Q 1497 3097 1228 2736 
Q 959 2375 959 1747 
Q 959 1119 1226 758 
Q 1494 397 1959 397 
Q 2419 397 2687 759 
Q 2956 1122 2956 1747 
Q 2956 2369 2687 2733 
Q 2419 3097 1959 3097 
z
M 1959 3584 
Q 2709 3584 3137 3096 
Q 3566 2609 3566 1747 
Q 3566 888 3137 398 
Q 2709 -91 1959 -91 
Q 1206 -91 779 398 
Q 353 888 353 1747 
Q 353 2609 779 3096 
Q 1206 3584 1959 3584 
z
" transform="scale(0.015625)"/>
     <path id="DejaVuSans-6d" d="M 3328 2828 
Q 3544 3216 3844 3400 
Q 4144 3584 4550 3584 
Q 5097 3584 5394 3201 
Q 5691 2819 5691 2113 
L 5691 0 
L 5113 0 
L 5113 2094 
Q 5113 2597 4934 2840 
Q 4756 3084 4391 3084 
Q 3944 3084 3684 2787 
Q 3425 2491 3425 1978 
L 3425 0 
L 2847 0 
L 2847 2094 
Q 2847 2600 2669 2842 
Q 2491 3084 2119 3084 
Q 1678 3084 1418 2786 
Q 1159 2488 1159 1978 
L 1159 0 
L 581 0 
L 581 3500 
L 1159 3500 
L 1159 2956 
Q 1356 3278 1631 3431 
Q 1906 3584 2284 3584 
Q 2666 3584 2933 3390 
Q 3200 3197 3328 2828 
z
" transform="scale(0.015625)"/>
     <path id="DejaVuSans-6e" d="M 3513 2113 
L 3513 0 
L 2938 0 
L 2938 2094 
Q 2938 2591 2744 2837 
Q 2550 3084 2163 3084 
Q 1697 3084 1428 2787 
Q 1159 2491 1159 1978 
L 1159 0 
L 581 0 
L 581 3500 
L 1159 3500 
L 1159 2956 
Q 1366 3272 1645 3428 
Q 1925 3584 2291 3584 
Q 2894 3584 3203 3211 
Q 3513 2838 3513 2113 
z
" transform="scale(0.015625)"/>
     <path id="DejaVuSans-5f" d="M 3263 -1063 
L 3263 -1509 
L -63 -1509 
L -63 -1063 
L 3263 -1063 
z
" transform="scale(0.015625)"/>
     <path id="DejaVuSans-6b" d="M 581 4863 
L 1159 4863 
L 1159 1991 
L 2875 3500 
L 3609 3500 
L 1753 1863 
L 3688 0 
L 2938 0 
L 1159 1709 
L 1159 0 
L 581 0 
L 581 4863 
z
" transform="scale(0.015625)"/>
    </defs>
    <use xlink:href="#DejaVuSans-43"/>
    <use xlink:href="#DejaVuSans-6f" x="69.824219"/>
    <use xlink:href="#DejaVuSans-6d" x="131.005859"/>
    <use xlink:href="#DejaVuSans-70" x="228.417969"/>
    <use xlink:href="#DejaVuSans-6f" x="291.894531"/>
    <use xlink:href="#DejaVuSans-75" x="353.076172"/>
    <use xlink:href="#DejaVuSans-6e" x="416.455078"/>
    <use xlink:href="#DejaVuSans-64" x="479.833984"/>
    <use xlink:href="#DejaVuSans-20" x="543.310547"/>
    <use xlink:href="#DejaVuSans-31" x="575.097656"/>
    <use xlink:href="#DejaVuSans-5f" x="638.720703"/>
    <use xlink:href="#DejaVuSans-32" x="688.720703"/>
    <use xlink:href="#DejaVuSans-2e" x="752.34375"/>
    <use xlink:href="#DejaVuSans-20" x="784.130859"/>
    <use xlink:href="#DejaVuSans-52" x="815.917969"/>
    <use xlink:href="#DejaVuSans-64" x="885.400391"/>
    <use xlink:href="#DejaVuSans-6b" x="948.876953"/>
    <use xlink:href="#DejaVuSans-69" x="1006.787109"/>
    <use xlink:href="#DejaVuSans-74" x="1034.570312"/>
   </g>
  </g>
 </g>
 <defs>
  <clipPath id="pccca1b3597">
   <rect x="50.8925" y="47.90625" width="61.1575" height="225.79375"/>
  </clipPath>
  <clipPath id="pb50f1fb8e1">
   <rect x="164.18" y="47.90625" width="61.1575" height="225.79375"/>
  </clipPath>
  <clipPath id="p7bde2b0fae">
   <rect x="277.4675" y="47.90625" width="61.1575" height="225.79375"/>
  </clipPath>
  <clipPath id="p0c7fa14db5">
   <rect x="390.755" y="47.90625" width="61.1575" height="225.79375"/>
  </clipPath>
  <clipPath id="p44c8defad6">
   <rect x="504.0425" y="47.90625" width="61.1575" height="225.79375"/>
  </clipPath>
 </defs>
</svg>
