<?xml version="1.0" encoding="utf-8" standalone="no"?>
<!DOCTYPE svg PUBLIC "-//W3C//DTD SVG 1.1//EN"
  "http://www.w3.org/Graphics/SVG/1.1/DTD/svg11.dtd">
<svg xmlns:xlink="http://www.w3.org/1999/xlink" width="576pt" height="288pt" viewBox="0 0 576 288" xmlns="http://www.w3.org/2000/svg" version="1.1">
 <metadata>
  <rdf:RDF xmlns:dc="http://purl.org/dc/elements/1.1/" xmlns:cc="http://creativecommons.org/ns#" xmlns:rdf="http://www.w3.org/1999/02/22-rdf-syntax-ns#">
   <cc:Work>
    <dc:type rdf:resource="http://purl.org/dc/dcmitype/StillImage"/>
    <dc:date>2023-05-31T12:17:00.551329</dc:date>
    <dc:format>image/svg+xml</dc:format>
    <dc:creator>
     <cc:Agent>
      <dc:title>Matplotlib v3.5.3, https://matplotlib.org/</dc:title>
     </cc:Agent>
    </dc:creator>
   </cc:Work>
  </rdf:RDF>
 </metadata>
 <defs>
  <style type="text/css">*{stroke-linejoin: round; stroke-linecap: butt}</style>
 </defs>
 <g id="figure_1">
  <g id="patch_1">
   <path d="M 0 288 
L 576 288 
L 576 0 
L 0 0 
z
" style="fill: #ffffff"/>
  </g>
  <g id="axes_1">
   <g id="patch_2">
    <path d="M 50.8925 272.787788 
L 110.394 272.787788 
L 110.394 47.04 
L 50.8925 47.04 
z
" style="fill: #ffffff"/>
   </g>
   <g id="PolyCollection_1">
    <path d="M 81.330811 262.526525 
L 79.955689 262.526525 
L 79.822977 260.453543 
L 79.676493 258.38056 
L 79.515889 256.307578 
L 79.340855 254.234595 
L 79.151204 252.161613 
L 78.946891 250.08863 
L 78.727939 248.015648 
L 78.494208 245.942666 
L 78.245046 243.869683 
L 77.978877 241.796701 
L 77.692848 239.723718 
L 77.382705 237.650736 
L 77.043027 235.577753 
L 76.667906 233.504771 
L 76.252037 231.431788 
L 75.792051 229.358806 
L 75.287803 227.285824 
L 74.74328 225.212841 
L 74.166844 223.139859 
L 73.570594 221.066876 
L 72.968874 218.993894 
L 72.376074 216.920911 
L 71.804081 214.847929 
L 71.259823 212.774946 
L 70.743394 210.701964 
L 70.247196 208.628982 
L 69.756415 206.555999 
L 69.250909 204.483017 
L 68.708284 202.410034 
L 68.107637 200.337052 
L 67.433195 198.264069 
L 66.677046 196.191087 
L 65.840295 194.118104 
L 64.932404 192.045122 
L 63.968953 189.97214 
L 62.968505 187.899157 
L 61.949531 185.826175 
L 60.928271 183.753192 
L 59.918085 181.68021 
L 58.93032 179.607227 
L 57.976219 177.534245 
L 57.069037 175.461262 
L 56.22547 173.38828 
L 55.465702 171.315298 
L 54.811857 169.242315 
L 54.285122 167.169333 
L 53.902307 165.09635 
L 53.672831 163.023368 
L 53.597114 160.950385 
L 53.666954 158.877403 
L 53.867972 156.80442 
L 54.183469 154.731438 
L 54.598629 152.658456 
L 55.103742 150.585473 
L 55.695421 148.512491 
L 56.375363 146.439508 
L 57.147026 144.366526 
L 58.01129 142.293543 
L 58.962539 140.220561 
L 59.986454 138.147578 
L 61.060278 136.074596 
L 62.155451 134.001614 
L 63.241823 131.928631 
L 64.292192 129.855649 
L 65.285922 127.782666 
L 66.210837 125.709684 
L 67.06319 123.636701 
L 67.846095 121.563719 
L 68.567157 119.490736 
L 69.236098 117.417754 
L 69.862909 115.344772 
L 70.456773 113.271789 
L 71.025658 111.198807 
L 71.57633 109.125824 
L 72.114542 107.052842 
L 72.645217 104.979859 
L 73.172558 102.906877 
L 73.700075 100.833894 
L 74.230511 98.760912 
L 74.765644 96.68793 
L 75.305933 94.614947 
L 75.850036 92.541965 
L 76.394313 90.468982 
L 76.932515 88.396 
L 77.455849 86.323017 
L 77.953578 84.250035 
L 78.414126 82.177052 
L 78.826553 80.10407 
L 79.182095 78.031088 
L 79.475468 75.958105 
L 79.705662 73.885123 
L 79.87609 71.81214 
L 79.994081 69.739158 
L 80.069848 67.666175 
L 80.115125 65.593193 
L 80.141717 63.52021 
L 80.160181 61.447228 
L 80.178832 59.374246 
L 80.203167 57.301263 
L 81.083333 57.301263 
L 81.083333 57.301263 
L 81.107668 59.374246 
L 81.126319 61.447228 
L 81.144783 63.52021 
L 81.171375 65.593193 
L 81.216652 67.666175 
L 81.292419 69.739158 
L 81.41041 71.81214 
L 81.580838 73.885123 
L 81.811032 75.958105 
L 82.104405 78.031088 
L 82.459947 80.10407 
L 82.872374 82.177052 
L 83.332922 84.250035 
L 83.830651 86.323017 
L 84.353985 88.396 
L 84.892187 90.468982 
L 85.436464 92.541965 
L 85.980567 94.614947 
L 86.520856 96.68793 
L 87.055989 98.760912 
L 87.586425 100.833894 
L 88.113942 102.906877 
L 88.641283 104.979859 
L 89.171958 107.052842 
L 89.71017 109.125824 
L 90.260842 111.198807 
L 90.829727 113.271789 
L 91.423591 115.344772 
L 92.050402 117.417754 
L 92.719343 119.490736 
L 93.440405 121.563719 
L 94.22331 123.636701 
L 95.075663 125.709684 
L 96.000578 127.782666 
L 96.994308 129.855649 
L 98.044677 131.928631 
L 99.131049 134.001614 
L 100.226222 136.074596 
L 101.300046 138.147578 
L 102.323961 140.220561 
L 103.27521 142.293543 
L 104.139474 144.366526 
L 104.911137 146.439508 
L 105.591079 148.512491 
L 106.182758 150.585473 
L 106.687871 152.658456 
L 107.103031 154.731438 
L 107.418528 156.80442 
L 107.619546 158.877403 
L 107.689386 160.950385 
L 107.613669 163.023368 
L 107.384193 165.09635 
L 107.001378 167.169333 
L 106.474643 169.242315 
L 105.820798 171.315298 
L 105.06103 173.38828 
L 104.217463 175.461262 
L 103.310281 177.534245 
L 102.35618 179.607227 
L 101.368415 181.68021 
L 100.358229 183.753192 
L 99.336969 185.826175 
L 98.317995 187.899157 
L 97.317547 189.97214 
L 96.354096 192.045122 
L 95.446205 194.118104 
L 94.609454 196.191087 
L 93.853305 198.264069 
L 93.178863 200.337052 
L 92.578216 202.410034 
L 92.035591 204.483017 
L 91.530085 206.555999 
L 91.039304 208.628982 
L 90.543106 210.701964 
L 90.026677 212.774946 
L 89.482419 214.847929 
L 88.910426 216.920911 
L 88.317626 218.993894 
L 87.715906 221.066876 
L 87.119656 223.139859 
L 86.54322 225.212841 
L 85.998697 227.285824 
L 85.494449 229.358806 
L 85.034463 231.431788 
L 84.618594 233.504771 
L 84.243473 235.577753 
L 83.903795 237.650736 
L 83.593652 239.723718 
L 83.307623 241.796701 
L 83.041454 243.869683 
L 82.792292 245.942666 
L 82.558561 248.015648 
L 82.339609 250.08863 
L 82.135296 252.161613 
L 81.945645 254.234595 
L 81.770611 256.307578 
L 81.610007 258.38056 
L 81.463523 260.453543 
L 81.330811 262.526525 
z
" clip-path="url(#p98aa3fbe49)" style="fill: #1f77b4; fill-opacity: 0.3"/>
   </g>
   <g id="matplotlib.axis_1">
    <g id="ytick_1">
     <g id="line2d_1">
      <defs>
       <path id="m58bc5531c1" d="M 0 0 
L -3.5 0 
" style="stroke: #000000; stroke-width: 0.8"/>
      </defs>
      <g>
       <use xlink:href="#m58bc5531c1" x="50.8925" y="271.04929" style="stroke: #000000; stroke-width: 0.8"/>
      </g>
     </g>
     <g id="text_1">
      <!-- 1.0 -->
      <g transform="translate(27.989375 274.848509)scale(0.1 -0.1)">
       <defs>
        <path id="DejaVuSans-31" d="M 794 531 
L 1825 531 
L 1825 4091 
L 703 3866 
L 703 4441 
L 1819 4666 
L 2450 4666 
L 2450 531 
L 3481 531 
L 3481 0 
L 794 0 
L 794 531 
z
" transform="scale(0.015625)"/>
        <path id="DejaVuSans-2e" d="M 684 794 
L 1344 794 
L 1344 0 
L 684 0 
L 684 794 
z
" transform="scale(0.015625)"/>
        <path id="DejaVuSans-30" d="M 2034 4250 
Q 1547 4250 1301 3770 
Q 1056 3291 1056 2328 
Q 1056 1369 1301 889 
Q 1547 409 2034 409 
Q 2525 409 2770 889 
Q 3016 1369 3016 2328 
Q 3016 3291 2770 3770 
Q 2525 4250 2034 4250 
z
M 2034 4750 
Q 2819 4750 3233 4129 
Q 3647 3509 3647 2328 
Q 3647 1150 3233 529 
Q 2819 -91 2034 -91 
Q 1250 -91 836 529 
Q 422 1150 422 2328 
Q 422 3509 836 4129 
Q 1250 4750 2034 4750 
z
" transform="scale(0.015625)"/>
       </defs>
       <use xlink:href="#DejaVuSans-31"/>
       <use xlink:href="#DejaVuSans-2e" x="63.623047"/>
       <use xlink:href="#DejaVuSans-30" x="95.410156"/>
      </g>
     </g>
    </g>
    <g id="ytick_2">
     <g id="line2d_2">
      <g>
       <use xlink:href="#m58bc5531c1" x="50.8925" y="221.661254" style="stroke: #000000; stroke-width: 0.8"/>
      </g>
     </g>
     <g id="text_2">
      <!-- 1.5 -->
      <g transform="translate(27.989375 225.460473)scale(0.1 -0.1)">
       <defs>
        <path id="DejaVuSans-35" d="M 691 4666 
L 3169 4666 
L 3169 4134 
L 1269 4134 
L 1269 2991 
Q 1406 3038 1543 3061 
Q 1681 3084 1819 3084 
Q 2600 3084 3056 2656 
Q 3513 2228 3513 1497 
Q 3513 744 3044 326 
Q 2575 -91 1722 -91 
Q 1428 -91 1123 -41 
Q 819 9 494 109 
L 494 744 
Q 775 591 1075 516 
Q 1375 441 1709 441 
Q 2250 441 2565 725 
Q 2881 1009 2881 1497 
Q 2881 1984 2565 2268 
Q 2250 2553 1709 2553 
Q 1456 2553 1204 2497 
Q 953 2441 691 2322 
L 691 4666 
z
" transform="scale(0.015625)"/>
       </defs>
       <use xlink:href="#DejaVuSans-31"/>
       <use xlink:href="#DejaVuSans-2e" x="63.623047"/>
       <use xlink:href="#DejaVuSans-35" x="95.410156"/>
      </g>
     </g>
    </g>
    <g id="ytick_3">
     <g id="line2d_3">
      <g>
       <use xlink:href="#m58bc5531c1" x="50.8925" y="172.273218" style="stroke: #000000; stroke-width: 0.8"/>
      </g>
     </g>
     <g id="text_3">
      <!-- 2.0 -->
      <g transform="translate(27.989375 176.072437)scale(0.1 -0.1)">
       <defs>
        <path id="DejaVuSans-32" d="M 1228 531 
L 3431 531 
L 3431 0 
L 469 0 
L 469 531 
Q 828 903 1448 1529 
Q 2069 2156 2228 2338 
Q 2531 2678 2651 2914 
Q 2772 3150 2772 3378 
Q 2772 3750 2511 3984 
Q 2250 4219 1831 4219 
Q 1534 4219 1204 4116 
Q 875 4013 500 3803 
L 500 4441 
Q 881 4594 1212 4672 
Q 1544 4750 1819 4750 
Q 2544 4750 2975 4387 
Q 3406 4025 3406 3419 
Q 3406 3131 3298 2873 
Q 3191 2616 2906 2266 
Q 2828 2175 2409 1742 
Q 1991 1309 1228 531 
z
" transform="scale(0.015625)"/>
       </defs>
       <use xlink:href="#DejaVuSans-32"/>
       <use xlink:href="#DejaVuSans-2e" x="63.623047"/>
       <use xlink:href="#DejaVuSans-30" x="95.410156"/>
      </g>
     </g>
    </g>
    <g id="ytick_4">
     <g id="line2d_4">
      <g>
       <use xlink:href="#m58bc5531c1" x="50.8925" y="122.885182" style="stroke: #000000; stroke-width: 0.8"/>
      </g>
     </g>
     <g id="text_4">
      <!-- 2.5 -->
      <g transform="translate(27.989375 126.684401)scale(0.1 -0.1)">
       <use xlink:href="#DejaVuSans-32"/>
       <use xlink:href="#DejaVuSans-2e" x="63.623047"/>
       <use xlink:href="#DejaVuSans-35" x="95.410156"/>
      </g>
     </g>
    </g>
    <g id="ytick_5">
     <g id="line2d_5">
      <g>
       <use xlink:href="#m58bc5531c1" x="50.8925" y="73.497146" style="stroke: #000000; stroke-width: 0.8"/>
      </g>
     </g>
     <g id="text_5">
      <!-- 3.0 -->
      <g transform="translate(27.989375 77.296365)scale(0.1 -0.1)">
       <defs>
        <path id="DejaVuSans-33" d="M 2597 2516 
Q 3050 2419 3304 2112 
Q 3559 1806 3559 1356 
Q 3559 666 3084 287 
Q 2609 -91 1734 -91 
Q 1441 -91 1130 -33 
Q 819 25 488 141 
L 488 750 
Q 750 597 1062 519 
Q 1375 441 1716 441 
Q 2309 441 2620 675 
Q 2931 909 2931 1356 
Q 2931 1769 2642 2001 
Q 2353 2234 1838 2234 
L 1294 2234 
L 1294 2753 
L 1863 2753 
Q 2328 2753 2575 2939 
Q 2822 3125 2822 3475 
Q 2822 3834 2567 4026 
Q 2313 4219 1838 4219 
Q 1578 4219 1281 4162 
Q 984 4106 628 3988 
L 628 4550 
Q 988 4650 1302 4700 
Q 1616 4750 1894 4750 
Q 2613 4750 3031 4423 
Q 3450 4097 3450 3541 
Q 3450 3153 3228 2886 
Q 3006 2619 2597 2516 
z
" transform="scale(0.015625)"/>
       </defs>
       <use xlink:href="#DejaVuSans-33"/>
       <use xlink:href="#DejaVuSans-2e" x="63.623047"/>
       <use xlink:href="#DejaVuSans-30" x="95.410156"/>
      </g>
     </g>
    </g>
    <g id="text_6">
     <!-- RMSD [$\AA$] -->
     <g transform="translate(21.909688 183.663894)rotate(-90)scale(0.1 -0.1)">
      <defs>
       <path id="DejaVuSans-52" d="M 2841 2188 
Q 3044 2119 3236 1894 
Q 3428 1669 3622 1275 
L 4263 0 
L 3584 0 
L 2988 1197 
Q 2756 1666 2539 1819 
Q 2322 1972 1947 1972 
L 1259 1972 
L 1259 0 
L 628 0 
L 628 4666 
L 2053 4666 
Q 2853 4666 3247 4331 
Q 3641 3997 3641 3322 
Q 3641 2881 3436 2590 
Q 3231 2300 2841 2188 
z
M 1259 4147 
L 1259 2491 
L 2053 2491 
Q 2509 2491 2742 2702 
Q 2975 2913 2975 3322 
Q 2975 3731 2742 3939 
Q 2509 4147 2053 4147 
L 1259 4147 
z
" transform="scale(0.015625)"/>
       <path id="DejaVuSans-4d" d="M 628 4666 
L 1569 4666 
L 2759 1491 
L 3956 4666 
L 4897 4666 
L 4897 0 
L 4281 0 
L 4281 4097 
L 3078 897 
L 2444 897 
L 1241 4097 
L 1241 0 
L 628 0 
L 628 4666 
z
" transform="scale(0.015625)"/>
       <path id="DejaVuSans-53" d="M 3425 4513 
L 3425 3897 
Q 3066 4069 2747 4153 
Q 2428 4238 2131 4238 
Q 1616 4238 1336 4038 
Q 1056 3838 1056 3469 
Q 1056 3159 1242 3001 
Q 1428 2844 1947 2747 
L 2328 2669 
Q 3034 2534 3370 2195 
Q 3706 1856 3706 1288 
Q 3706 609 3251 259 
Q 2797 -91 1919 -91 
Q 1588 -91 1214 -16 
Q 841 59 441 206 
L 441 856 
Q 825 641 1194 531 
Q 1563 422 1919 422 
Q 2459 422 2753 634 
Q 3047 847 3047 1241 
Q 3047 1584 2836 1778 
Q 2625 1972 2144 2069 
L 1759 2144 
Q 1053 2284 737 2584 
Q 422 2884 422 3419 
Q 422 4038 858 4394 
Q 1294 4750 2059 4750 
Q 2388 4750 2728 4690 
Q 3069 4631 3425 4513 
z
" transform="scale(0.015625)"/>
       <path id="DejaVuSans-44" d="M 1259 4147 
L 1259 519 
L 2022 519 
Q 2988 519 3436 956 
Q 3884 1394 3884 2338 
Q 3884 3275 3436 3711 
Q 2988 4147 2022 4147 
L 1259 4147 
z
M 628 4666 
L 1925 4666 
Q 3281 4666 3915 4102 
Q 4550 3538 4550 2338 
Q 4550 1131 3912 565 
Q 3275 0 1925 0 
L 628 0 
L 628 4666 
z
" transform="scale(0.015625)"/>
       <path id="DejaVuSans-20" transform="scale(0.015625)"/>
       <path id="DejaVuSans-5b" d="M 550 4863 
L 1875 4863 
L 1875 4416 
L 1125 4416 
L 1125 -397 
L 1875 -397 
L 1875 -844 
L 550 -844 
L 550 4863 
z
" transform="scale(0.015625)"/>
       <path id="DejaVuSans-Oblique-c5" d="M 3188 5081 
Q 3188 5278 3048 5417 
Q 2909 5556 2713 5556 
Q 2513 5556 2377 5420 
Q 2241 5284 2241 5081 
Q 2241 4884 2377 4746 
Q 2513 4609 2713 4609 
Q 2909 4609 3048 4746 
Q 3188 4884 3188 5081 
z
M 2203 4397 
Q 2034 4513 1945 4689 
Q 1856 4866 1856 5081 
Q 1856 5438 2106 5689 
Q 2356 5941 2713 5941 
Q 3069 5941 3320 5689 
Q 3572 5438 3572 5081 
Q 3572 4834 3458 4643 
Q 3344 4453 3128 4341 
L 3938 0 
L 3278 0 
L 3084 1197 
L 984 1197 
L 325 0 
L -341 0 
L 2203 4397 
z
M 2584 4044 
L 1275 1722 
L 2988 1722 
L 2584 4044 
z
" transform="scale(0.015625)"/>
       <path id="DejaVuSans-5d" d="M 1947 4863 
L 1947 -844 
L 622 -844 
L 622 -397 
L 1369 -397 
L 1369 4416 
L 622 4416 
L 622 4863 
L 1947 4863 
z
" transform="scale(0.015625)"/>
      </defs>
      <use xlink:href="#DejaVuSans-52" transform="translate(0 0.171875)"/>
      <use xlink:href="#DejaVuSans-4d" transform="translate(69.482422 0.171875)"/>
      <use xlink:href="#DejaVuSans-53" transform="translate(155.761719 0.171875)"/>
      <use xlink:href="#DejaVuSans-44" transform="translate(219.238281 0.171875)"/>
      <use xlink:href="#DejaVuSans-20" transform="translate(296.240234 0.171875)"/>
      <use xlink:href="#DejaVuSans-5b" transform="translate(328.027344 0.171875)"/>
      <use xlink:href="#DejaVuSans-Oblique-c5" transform="translate(367.041016 0.171875)"/>
      <use xlink:href="#DejaVuSans-5d" transform="translate(435.449219 0.171875)"/>
     </g>
    </g>
   </g>
   <g id="LineCollection_1">
    <path d="M 67.120182 161.581603 
L 94.166318 161.581603 
" clip-path="url(#p98aa3fbe49)" style="fill: none; stroke: #1f77b4; stroke-width: 1.5"/>
   </g>
   <g id="LineCollection_2">
    <path d="M 67.120182 57.301263 
L 94.166318 57.301263 
" clip-path="url(#p98aa3fbe49)" style="fill: none; stroke: #1f77b4; stroke-width: 1.5"/>
   </g>
   <g id="LineCollection_3">
    <path d="M 67.120182 262.526525 
L 94.166318 262.526525 
" clip-path="url(#p98aa3fbe49)" style="fill: none; stroke: #1f77b4; stroke-width: 1.5"/>
   </g>
   <g id="LineCollection_4">
    <path d="M 80.64325 262.526525 
L 80.64325 57.301263 
" clip-path="url(#p98aa3fbe49)" style="fill: none; stroke: #1f77b4; stroke-width: 1.5"/>
   </g>
   <g id="patch_3">
    <path d="M 50.8925 272.787788 
L 50.8925 47.04 
" style="fill: none; stroke: #000000; stroke-width: 0.8; stroke-linejoin: miter; stroke-linecap: square"/>
   </g>
   <g id="patch_4">
    <path d="M 110.394 272.787788 
L 110.394 47.04 
" style="fill: none; stroke: #000000; stroke-width: 0.8; stroke-linejoin: miter; stroke-linecap: square"/>
   </g>
   <g id="patch_5">
    <path d="M 50.8925 272.787788 
L 110.394 272.787788 
" style="fill: none; stroke: #000000; stroke-width: 0.8; stroke-linejoin: miter; stroke-linecap: square"/>
   </g>
   <g id="patch_6">
    <path d="M 50.8925 47.04 
L 110.394 47.04 
" style="fill: none; stroke: #000000; stroke-width: 0.8; stroke-linejoin: miter; stroke-linecap: square"/>
   </g>
   <g id="text_7">
    <!-- RMSD -->
    <g transform="translate(62.86825 41.04)scale(0.12 -0.12)">
     <use xlink:href="#DejaVuSans-52"/>
     <use xlink:href="#DejaVuSans-4d" x="69.482422"/>
     <use xlink:href="#DejaVuSans-53" x="155.761719"/>
     <use xlink:href="#DejaVuSans-44" x="219.238281"/>
    </g>
   </g>
  </g>
  <g id="axes_2">
   <g id="patch_7">
    <path d="M 164.594 272.787788 
L 224.0955 272.787788 
L 224.0955 47.04 
L 164.594 47.04 
z
" style="fill: #ffffff"/>
   </g>
   <g id="PolyCollection_2">
    <path d="M 195.439944 262.526525 
L 193.249556 262.526525 
L 193.064775 260.453543 
L 192.874851 258.38056 
L 192.679497 256.307578 
L 192.476147 254.234595 
L 192.260321 252.161613 
L 192.026474 250.08863 
L 191.769087 248.015648 
L 191.483696 245.942666 
L 191.16753 243.869683 
L 190.819524 241.796701 
L 190.439684 239.723718 
L 190.027967 237.650736 
L 189.583044 235.577753 
L 189.101384 233.504771 
L 188.577025 231.431788 
L 188.002246 229.358806 
L 187.369101 227.285824 
L 186.671509 225.212841 
L 185.907475 223.139859 
L 185.080856 221.066876 
L 184.202184 218.993894 
L 183.288161 216.920911 
L 182.359723 214.847929 
L 181.438891 212.774946 
L 180.545025 210.701964 
L 179.691302 208.628982 
L 178.882323 206.555999 
L 178.113552 204.483017 
L 177.372797 202.410034 
L 176.643429 200.337052 
L 175.90852 198.264069 
L 175.154831 196.191087 
L 174.375654 194.118104 
L 173.57191 192.045122 
L 172.751448 189.97214 
L 171.92711 187.899157 
L 171.114434 185.826175 
L 170.329945 183.753192 
L 169.590614 181.68021 
L 168.914513 179.607227 
L 168.322092 177.534245 
L 167.837158 175.461262 
L 167.486633 173.38828 
L 167.298614 171.315298 
L 167.298812 169.242315 
L 167.506102 167.169333 
L 167.928197 165.09635 
L 168.558543 163.023368 
L 169.375207 160.950385 
L 170.342132 158.877403 
L 171.412642 156.80442 
L 172.53468 154.731438 
L 173.656948 152.658456 
L 174.734933 150.585473 
L 175.735831 148.512491 
L 176.641525 146.439508 
L 177.449201 144.366526 
L 178.169645 142.293543 
L 178.823757 140.220561 
L 179.43809 138.147578 
L 180.040305 136.074596 
L 180.655255 134.001614 
L 181.302099 131.928631 
L 181.992588 129.855649 
L 182.730456 127.782666 
L 183.511766 125.709684 
L 184.326059 123.636701 
L 185.158147 121.563719 
L 185.99032 119.490736 
L 186.804711 117.417754 
L 187.585464 115.344772 
L 188.320424 113.271789 
L 189.002096 111.198807 
L 189.627794 109.125824 
L 190.199012 107.052842 
L 190.720204 104.979859 
L 191.197216 102.906877 
L 191.6357 100.833894 
L 192.039801 98.760912 
L 192.411365 96.68793 
L 192.749822 94.614947 
L 193.052699 92.541965 
L 193.316623 90.468982 
L 193.53851 88.396 
L 193.716667 86.323017 
L 193.851537 84.250035 
L 193.945956 82.177052 
L 194.004936 80.10407 
L 194.035066 78.031088 
L 194.043716 75.958105 
L 194.038219 73.885123 
L 194.025203 71.81214 
L 194.010153 69.739158 
L 193.997238 67.666175 
L 193.989352 65.593193 
L 193.988293 63.52021 
L 193.99497 61.447228 
L 194.009568 59.374246 
L 194.031639 57.301263 
L 194.657861 57.301263 
L 194.657861 57.301263 
L 194.679932 59.374246 
L 194.69453 61.447228 
L 194.701207 63.52021 
L 194.700148 65.593193 
L 194.692262 67.666175 
L 194.679347 69.739158 
L 194.664297 71.81214 
L 194.651281 73.885123 
L 194.645784 75.958105 
L 194.654434 78.031088 
L 194.684564 80.10407 
L 194.743544 82.177052 
L 194.837963 84.250035 
L 194.972833 86.323017 
L 195.15099 88.396 
L 195.372877 90.468982 
L 195.636801 92.541965 
L 195.939678 94.614947 
L 196.278135 96.68793 
L 196.649699 98.760912 
L 197.0538 100.833894 
L 197.492284 102.906877 
L 197.969296 104.979859 
L 198.490488 107.052842 
L 199.061706 109.125824 
L 199.687404 111.198807 
L 200.369076 113.271789 
L 201.104036 115.344772 
L 201.884789 117.417754 
L 202.69918 119.490736 
L 203.531353 121.563719 
L 204.363441 123.636701 
L 205.177734 125.709684 
L 205.959044 127.782666 
L 206.696912 129.855649 
L 207.387401 131.928631 
L 208.034245 134.001614 
L 208.649195 136.074596 
L 209.25141 138.147578 
L 209.865743 140.220561 
L 210.519855 142.293543 
L 211.240299 144.366526 
L 212.047975 146.439508 
L 212.953669 148.512491 
L 213.954567 150.585473 
L 215.032552 152.658456 
L 216.15482 154.731438 
L 217.276858 156.80442 
L 218.347368 158.877403 
L 219.314293 160.950385 
L 220.130957 163.023368 
L 220.761303 165.09635 
L 221.183398 167.169333 
L 221.390688 169.242315 
L 221.390886 171.315298 
L 221.202867 173.38828 
L 220.852342 175.461262 
L 220.367408 177.534245 
L 219.774987 179.607227 
L 219.098886 181.68021 
L 218.359555 183.753192 
L 217.575066 185.826175 
L 216.76239 187.899157 
L 215.938052 189.97214 
L 215.11759 192.045122 
L 214.313846 194.118104 
L 213.534669 196.191087 
L 212.78098 198.264069 
L 212.046071 200.337052 
L 211.316703 202.410034 
L 210.575948 204.483017 
L 209.807177 206.555999 
L 208.998198 208.628982 
L 208.144475 210.701964 
L 207.250609 212.774946 
L 206.329777 214.847929 
L 205.401339 216.920911 
L 204.487316 218.993894 
L 203.608644 221.066876 
L 202.782025 223.139859 
L 202.017991 225.212841 
L 201.320399 227.285824 
L 200.687254 229.358806 
L 200.112475 231.431788 
L 199.588116 233.504771 
L 199.106456 235.577753 
L 198.661533 237.650736 
L 198.249816 239.723718 
L 197.869976 241.796701 
L 197.52197 243.869683 
L 197.205804 245.942666 
L 196.920413 248.015648 
L 196.663026 250.08863 
L 196.429179 252.161613 
L 196.213353 254.234595 
L 196.010003 256.307578 
L 195.814649 258.38056 
L 195.624725 260.453543 
L 195.439944 262.526525 
z
" clip-path="url(#p7979c0e939)" style="fill: #1f77b4; fill-opacity: 0.3"/>
   </g>
   <g id="matplotlib.axis_2">
    <g id="ytick_6">
     <g id="line2d_6">
      <g>
       <use xlink:href="#m58bc5531c1" x="164.594" y="259.078806" style="stroke: #000000; stroke-width: 0.8"/>
      </g>
     </g>
     <g id="text_8">
      <!-- 0.8 -->
      <g transform="translate(141.690875 262.878025)scale(0.1 -0.1)">
       <defs>
        <path id="DejaVuSans-38" d="M 2034 2216 
Q 1584 2216 1326 1975 
Q 1069 1734 1069 1313 
Q 1069 891 1326 650 
Q 1584 409 2034 409 
Q 2484 409 2743 651 
Q 3003 894 3003 1313 
Q 3003 1734 2745 1975 
Q 2488 2216 2034 2216 
z
M 1403 2484 
Q 997 2584 770 2862 
Q 544 3141 544 3541 
Q 544 4100 942 4425 
Q 1341 4750 2034 4750 
Q 2731 4750 3128 4425 
Q 3525 4100 3525 3541 
Q 3525 3141 3298 2862 
Q 3072 2584 2669 2484 
Q 3125 2378 3379 2068 
Q 3634 1759 3634 1313 
Q 3634 634 3220 271 
Q 2806 -91 2034 -91 
Q 1263 -91 848 271 
Q 434 634 434 1313 
Q 434 1759 690 2068 
Q 947 2378 1403 2484 
z
M 1172 3481 
Q 1172 3119 1398 2916 
Q 1625 2713 2034 2713 
Q 2441 2713 2670 2916 
Q 2900 3119 2900 3481 
Q 2900 3844 2670 4047 
Q 2441 4250 2034 4250 
Q 1625 4250 1398 4047 
Q 1172 3844 1172 3481 
z
" transform="scale(0.015625)"/>
       </defs>
       <use xlink:href="#DejaVuSans-30"/>
       <use xlink:href="#DejaVuSans-2e" x="63.623047"/>
       <use xlink:href="#DejaVuSans-38" x="95.410156"/>
      </g>
     </g>
    </g>
    <g id="ytick_7">
     <g id="line2d_7">
      <g>
       <use xlink:href="#m58bc5531c1" x="164.594" y="222.561366" style="stroke: #000000; stroke-width: 0.8"/>
      </g>
     </g>
     <g id="text_9">
      <!-- 1.0 -->
      <g transform="translate(141.690875 226.360584)scale(0.1 -0.1)">
       <use xlink:href="#DejaVuSans-31"/>
       <use xlink:href="#DejaVuSans-2e" x="63.623047"/>
       <use xlink:href="#DejaVuSans-30" x="95.410156"/>
      </g>
     </g>
    </g>
    <g id="ytick_8">
     <g id="line2d_8">
      <g>
       <use xlink:href="#m58bc5531c1" x="164.594" y="186.043925" style="stroke: #000000; stroke-width: 0.8"/>
      </g>
     </g>
     <g id="text_10">
      <!-- 1.2 -->
      <g transform="translate(141.690875 189.843144)scale(0.1 -0.1)">
       <use xlink:href="#DejaVuSans-31"/>
       <use xlink:href="#DejaVuSans-2e" x="63.623047"/>
       <use xlink:href="#DejaVuSans-32" x="95.410156"/>
      </g>
     </g>
    </g>
    <g id="ytick_9">
     <g id="line2d_9">
      <g>
       <use xlink:href="#m58bc5531c1" x="164.594" y="149.526484" style="stroke: #000000; stroke-width: 0.8"/>
      </g>
     </g>
     <g id="text_11">
      <!-- 1.4 -->
      <g transform="translate(141.690875 153.325703)scale(0.1 -0.1)">
       <defs>
        <path id="DejaVuSans-34" d="M 2419 4116 
L 825 1625 
L 2419 1625 
L 2419 4116 
z
M 2253 4666 
L 3047 4666 
L 3047 1625 
L 3713 1625 
L 3713 1100 
L 3047 1100 
L 3047 0 
L 2419 0 
L 2419 1100 
L 313 1100 
L 313 1709 
L 2253 4666 
z
" transform="scale(0.015625)"/>
       </defs>
       <use xlink:href="#DejaVuSans-31"/>
       <use xlink:href="#DejaVuSans-2e" x="63.623047"/>
       <use xlink:href="#DejaVuSans-34" x="95.410156"/>
      </g>
     </g>
    </g>
    <g id="ytick_10">
     <g id="line2d_10">
      <g>
       <use xlink:href="#m58bc5531c1" x="164.594" y="113.009043" style="stroke: #000000; stroke-width: 0.8"/>
      </g>
     </g>
     <g id="text_12">
      <!-- 1.6 -->
      <g transform="translate(141.690875 116.808262)scale(0.1 -0.1)">
       <defs>
        <path id="DejaVuSans-36" d="M 2113 2584 
Q 1688 2584 1439 2293 
Q 1191 2003 1191 1497 
Q 1191 994 1439 701 
Q 1688 409 2113 409 
Q 2538 409 2786 701 
Q 3034 994 3034 1497 
Q 3034 2003 2786 2293 
Q 2538 2584 2113 2584 
z
M 3366 4563 
L 3366 3988 
Q 3128 4100 2886 4159 
Q 2644 4219 2406 4219 
Q 1781 4219 1451 3797 
Q 1122 3375 1075 2522 
Q 1259 2794 1537 2939 
Q 1816 3084 2150 3084 
Q 2853 3084 3261 2657 
Q 3669 2231 3669 1497 
Q 3669 778 3244 343 
Q 2819 -91 2113 -91 
Q 1303 -91 875 529 
Q 447 1150 447 2328 
Q 447 3434 972 4092 
Q 1497 4750 2381 4750 
Q 2619 4750 2861 4703 
Q 3103 4656 3366 4563 
z
" transform="scale(0.015625)"/>
       </defs>
       <use xlink:href="#DejaVuSans-31"/>
       <use xlink:href="#DejaVuSans-2e" x="63.623047"/>
       <use xlink:href="#DejaVuSans-36" x="95.410156"/>
      </g>
     </g>
    </g>
    <g id="ytick_11">
     <g id="line2d_11">
      <g>
       <use xlink:href="#m58bc5531c1" x="164.594" y="76.491602" style="stroke: #000000; stroke-width: 0.8"/>
      </g>
     </g>
     <g id="text_13">
      <!-- 1.8 -->
      <g transform="translate(141.690875 80.290821)scale(0.1 -0.1)">
       <use xlink:href="#DejaVuSans-31"/>
       <use xlink:href="#DejaVuSans-2e" x="63.623047"/>
       <use xlink:href="#DejaVuSans-38" x="95.410156"/>
      </g>
     </g>
    </g>
    <g id="text_14">
     <!-- MAE [$\AA$] -->
     <g transform="translate(135.611187 179.763894)rotate(-90)scale(0.1 -0.1)">
      <defs>
       <path id="DejaVuSans-41" d="M 2188 4044 
L 1331 1722 
L 3047 1722 
L 2188 4044 
z
M 1831 4666 
L 2547 4666 
L 4325 0 
L 3669 0 
L 3244 1197 
L 1141 1197 
L 716 0 
L 50 0 
L 1831 4666 
z
" transform="scale(0.015625)"/>
       <path id="DejaVuSans-45" d="M 628 4666 
L 3578 4666 
L 3578 4134 
L 1259 4134 
L 1259 2753 
L 3481 2753 
L 3481 2222 
L 1259 2222 
L 1259 531 
L 3634 531 
L 3634 0 
L 628 0 
L 628 4666 
z
" transform="scale(0.015625)"/>
      </defs>
      <use xlink:href="#DejaVuSans-4d" transform="translate(0 0.171875)"/>
      <use xlink:href="#DejaVuSans-41" transform="translate(86.279297 0.171875)"/>
      <use xlink:href="#DejaVuSans-45" transform="translate(154.6875 0.171875)"/>
      <use xlink:href="#DejaVuSans-20" transform="translate(217.871094 0.171875)"/>
      <use xlink:href="#DejaVuSans-5b" transform="translate(249.658203 0.171875)"/>
      <use xlink:href="#DejaVuSans-Oblique-c5" transform="translate(288.671875 0.171875)"/>
      <use xlink:href="#DejaVuSans-5d" transform="translate(357.080078 0.171875)"/>
     </g>
    </g>
   </g>
   <g id="LineCollection_5">
    <path d="M 180.821682 172.593437 
L 207.867818 172.593437 
" clip-path="url(#p7979c0e939)" style="fill: none; stroke: #1f77b4; stroke-width: 1.5"/>
   </g>
   <g id="LineCollection_6">
    <path d="M 180.821682 57.301263 
L 207.867818 57.301263 
" clip-path="url(#p7979c0e939)" style="fill: none; stroke: #1f77b4; stroke-width: 1.5"/>
   </g>
   <g id="LineCollection_7">
    <path d="M 180.821682 262.526525 
L 207.867818 262.526525 
" clip-path="url(#p7979c0e939)" style="fill: none; stroke: #1f77b4; stroke-width: 1.5"/>
   </g>
   <g id="LineCollection_8">
    <path d="M 194.34475 262.526525 
L 194.34475 57.301263 
" clip-path="url(#p7979c0e939)" style="fill: none; stroke: #1f77b4; stroke-width: 1.5"/>
   </g>
   <g id="patch_8">
    <path d="M 164.594 272.787788 
L 164.594 47.04 
" style="fill: none; stroke: #000000; stroke-width: 0.8; stroke-linejoin: miter; stroke-linecap: square"/>
   </g>
   <g id="patch_9">
    <path d="M 224.0955 272.787788 
L 224.0955 47.04 
" style="fill: none; stroke: #000000; stroke-width: 0.8; stroke-linejoin: miter; stroke-linecap: square"/>
   </g>
   <g id="patch_10">
    <path d="M 164.594 272.787788 
L 224.0955 272.787788 
" style="fill: none; stroke: #000000; stroke-width: 0.8; stroke-linejoin: miter; stroke-linecap: square"/>
   </g>
   <g id="patch_11">
    <path d="M 164.594 47.04 
L 224.0955 47.04 
" style="fill: none; stroke: #000000; stroke-width: 0.8; stroke-linejoin: miter; stroke-linecap: square"/>
   </g>
   <g id="text_15">
    <!-- MAE -->
    <g transform="translate(181.27225 41.04)scale(0.12 -0.12)">
     <use xlink:href="#DejaVuSans-4d"/>
     <use xlink:href="#DejaVuSans-41" x="86.279297"/>
     <use xlink:href="#DejaVuSans-45" x="154.6875"/>
    </g>
   </g>
  </g>
  <g id="axes_3">
   <g id="patch_12">
    <path d="M 278.2955 272.787788 
L 337.797 272.787788 
L 337.797 47.04 
L 278.2955 47.04 
z
" style="fill: #ffffff"/>
   </g>
   <g id="PolyCollection_3">
    <path d="M 308.308664 262.526525 
L 307.783836 262.526525 
L 307.764322 260.453543 
L 307.74169 258.38056 
L 307.709541 256.307578 
L 307.660131 254.234595 
L 307.585274 252.161613 
L 307.477336 250.08863 
L 307.330172 248.015648 
L 307.139864 245.942666 
L 306.905237 243.869683 
L 306.628148 241.796701 
L 306.313527 239.723718 
L 305.96913 237.650736 
L 305.604875 235.577753 
L 305.231651 233.504771 
L 304.859575 231.431788 
L 304.495875 229.358806 
L 304.142814 227.285824 
L 303.796235 225.212841 
L 303.445353 223.139859 
L 303.074122 221.066876 
L 302.664164 218.993894 
L 302.198678 216.920911 
L 301.666414 214.847929 
L 301.064639 212.774946 
L 300.400218 210.701964 
L 299.68841 208.628982 
L 298.94953 206.555999 
L 298.204218 204.483017 
L 297.468368 202.410034 
L 296.748875 200.337052 
L 296.041176 198.264069 
L 295.329239 196.191087 
L 294.588193 194.118104 
L 293.789299 192.045122 
L 292.906499 189.97214 
L 291.923266 187.899157 
L 290.838245 185.826175 
L 289.668098 183.753192 
L 288.446542 181.68021 
L 287.219419 179.607227 
L 286.03687 177.534245 
L 284.944634 175.461262 
L 283.976869 173.38828 
L 283.152439 171.315298 
L 282.475423 169.242315 
L 281.939201 167.169333 
L 281.532318 165.09635 
L 281.24395 163.023368 
L 281.067284 160.950385 
L 281.000114 158.877403 
L 281.043174 156.80442 
L 281.197527 154.731438 
L 281.46247 152.658456 
L 281.834943 150.585473 
L 282.310516 148.512491 
L 282.885168 146.439508 
L 283.556638 144.366526 
L 284.324304 142.293543 
L 285.187286 140.220561 
L 286.141368 138.147578 
L 287.176005 136.074596 
L 288.272768 134.001614 
L 289.406038 131.928631 
L 290.545887 129.855649 
L 291.66233 127.782666 
L 292.729688 125.709684 
L 293.730005 123.636701 
L 294.654871 121.563719 
L 295.505581 119.490736 
L 296.291889 117.417754 
L 297.029777 115.344772 
L 297.738608 113.271789 
L 298.438012 111.198807 
L 299.14484 109.125824 
L 299.870566 107.052842 
L 300.619539 104.979859 
L 301.388369 102.906877 
L 302.166574 100.833894 
L 302.938324 98.760912 
L 303.684928 96.68793 
L 304.387551 94.614947 
L 305.029685 92.541965 
L 305.598998 90.468982 
L 306.088358 88.396 
L 306.496 86.323017 
L 306.824949 84.250035 
L 307.081873 82.177052 
L 307.27566 80.10407 
L 307.415981 78.031088 
L 307.512147 75.958105 
L 307.572468 73.885123 
L 307.604175 71.81214 
L 307.613803 69.739158 
L 307.607754 67.666175 
L 307.592728 65.593193 
L 307.575736 63.52021 
L 307.563612 61.447228 
L 307.562163 59.374246 
L 307.575239 57.301263 
L 308.517261 57.301263 
L 308.517261 57.301263 
L 308.530337 59.374246 
L 308.528888 61.447228 
L 308.516764 63.52021 
L 308.499772 65.593193 
L 308.484746 67.666175 
L 308.478697 69.739158 
L 308.488325 71.81214 
L 308.520032 73.885123 
L 308.580353 75.958105 
L 308.676519 78.031088 
L 308.81684 80.10407 
L 309.010627 82.177052 
L 309.267551 84.250035 
L 309.5965 86.323017 
L 310.004142 88.396 
L 310.493502 90.468982 
L 311.062815 92.541965 
L 311.704949 94.614947 
L 312.407572 96.68793 
L 313.154176 98.760912 
L 313.925926 100.833894 
L 314.704131 102.906877 
L 315.472961 104.979859 
L 316.221934 107.052842 
L 316.94766 109.125824 
L 317.654488 111.198807 
L 318.353892 113.271789 
L 319.062723 115.344772 
L 319.800611 117.417754 
L 320.586919 119.490736 
L 321.437629 121.563719 
L 322.362495 123.636701 
L 323.362812 125.709684 
L 324.43017 127.782666 
L 325.546613 129.855649 
L 326.686462 131.928631 
L 327.819732 134.001614 
L 328.916495 136.074596 
L 329.951132 138.147578 
L 330.905214 140.220561 
L 331.768196 142.293543 
L 332.535862 144.366526 
L 333.207332 146.439508 
L 333.781984 148.512491 
L 334.257557 150.585473 
L 334.63003 152.658456 
L 334.894973 154.731438 
L 335.049326 156.80442 
L 335.092386 158.877403 
L 335.025216 160.950385 
L 334.84855 163.023368 
L 334.560182 165.09635 
L 334.153299 167.169333 
L 333.617077 169.242315 
L 332.940061 171.315298 
L 332.115631 173.38828 
L 331.147866 175.461262 
L 330.05563 177.534245 
L 328.873081 179.607227 
L 327.645958 181.68021 
L 326.424402 183.753192 
L 325.254255 185.826175 
L 324.169234 187.899157 
L 323.186001 189.97214 
L 322.303201 192.045122 
L 321.504307 194.118104 
L 320.763261 196.191087 
L 320.051324 198.264069 
L 319.343625 200.337052 
L 318.624132 202.410034 
L 317.888282 204.483017 
L 317.14297 206.555999 
L 316.40409 208.628982 
L 315.692282 210.701964 
L 315.027861 212.774946 
L 314.426086 214.847929 
L 313.893822 216.920911 
L 313.428336 218.993894 
L 313.018378 221.066876 
L 312.647147 223.139859 
L 312.296265 225.212841 
L 311.949686 227.285824 
L 311.596625 229.358806 
L 311.232925 231.431788 
L 310.860849 233.504771 
L 310.487625 235.577753 
L 310.12337 237.650736 
L 309.778973 239.723718 
L 309.464352 241.796701 
L 309.187263 243.869683 
L 308.952636 245.942666 
L 308.762328 248.015648 
L 308.615164 250.08863 
L 308.507226 252.161613 
L 308.432369 254.234595 
L 308.382959 256.307578 
L 308.35081 258.38056 
L 308.328178 260.453543 
L 308.308664 262.526525 
z
" clip-path="url(#p1cea3c874e)" style="fill: #1f77b4; fill-opacity: 0.3"/>
   </g>
   <g id="matplotlib.axis_3">
    <g id="ytick_12">
     <g id="line2d_12">
      <g>
       <use xlink:href="#m58bc5531c1" x="278.2955" y="266.011241" style="stroke: #000000; stroke-width: 0.8"/>
      </g>
     </g>
     <g id="text_16">
      <!-- 0.0 -->
      <g transform="translate(255.392375 269.81046)scale(0.1 -0.1)">
       <use xlink:href="#DejaVuSans-30"/>
       <use xlink:href="#DejaVuSans-2e" x="63.623047"/>
       <use xlink:href="#DejaVuSans-30" x="95.410156"/>
      </g>
     </g>
    </g>
    <g id="ytick_13">
     <g id="line2d_13">
      <g>
       <use xlink:href="#m58bc5531c1" x="278.2955" y="233.93454" style="stroke: #000000; stroke-width: 0.8"/>
      </g>
     </g>
     <g id="text_17">
      <!-- 0.2 -->
      <g transform="translate(255.392375 237.733759)scale(0.1 -0.1)">
       <use xlink:href="#DejaVuSans-30"/>
       <use xlink:href="#DejaVuSans-2e" x="63.623047"/>
       <use xlink:href="#DejaVuSans-32" x="95.410156"/>
      </g>
     </g>
    </g>
    <g id="ytick_14">
     <g id="line2d_14">
      <g>
       <use xlink:href="#m58bc5531c1" x="278.2955" y="201.857839" style="stroke: #000000; stroke-width: 0.8"/>
      </g>
     </g>
     <g id="text_18">
      <!-- 0.4 -->
      <g transform="translate(255.392375 205.657058)scale(0.1 -0.1)">
       <use xlink:href="#DejaVuSans-30"/>
       <use xlink:href="#DejaVuSans-2e" x="63.623047"/>
       <use xlink:href="#DejaVuSans-34" x="95.410156"/>
      </g>
     </g>
    </g>
    <g id="ytick_15">
     <g id="line2d_15">
      <g>
       <use xlink:href="#m58bc5531c1" x="278.2955" y="169.781138" style="stroke: #000000; stroke-width: 0.8"/>
      </g>
     </g>
     <g id="text_19">
      <!-- 0.6 -->
      <g transform="translate(255.392375 173.580357)scale(0.1 -0.1)">
       <use xlink:href="#DejaVuSans-30"/>
       <use xlink:href="#DejaVuSans-2e" x="63.623047"/>
       <use xlink:href="#DejaVuSans-36" x="95.410156"/>
      </g>
     </g>
    </g>
    <g id="ytick_16">
     <g id="line2d_16">
      <g>
       <use xlink:href="#m58bc5531c1" x="278.2955" y="137.704438" style="stroke: #000000; stroke-width: 0.8"/>
      </g>
     </g>
     <g id="text_20">
      <!-- 0.8 -->
      <g transform="translate(255.392375 141.503656)scale(0.1 -0.1)">
       <use xlink:href="#DejaVuSans-30"/>
       <use xlink:href="#DejaVuSans-2e" x="63.623047"/>
       <use xlink:href="#DejaVuSans-38" x="95.410156"/>
      </g>
     </g>
    </g>
    <g id="ytick_17">
     <g id="line2d_17">
      <g>
       <use xlink:href="#m58bc5531c1" x="278.2955" y="105.627737" style="stroke: #000000; stroke-width: 0.8"/>
      </g>
     </g>
     <g id="text_21">
      <!-- 1.0 -->
      <g transform="translate(255.392375 109.426956)scale(0.1 -0.1)">
       <use xlink:href="#DejaVuSans-31"/>
       <use xlink:href="#DejaVuSans-2e" x="63.623047"/>
       <use xlink:href="#DejaVuSans-30" x="95.410156"/>
      </g>
     </g>
    </g>
    <g id="ytick_18">
     <g id="line2d_18">
      <g>
       <use xlink:href="#m58bc5531c1" x="278.2955" y="73.551036" style="stroke: #000000; stroke-width: 0.8"/>
      </g>
     </g>
     <g id="text_22">
      <!-- 1.2 -->
      <g transform="translate(255.392375 77.350255)scale(0.1 -0.1)">
       <use xlink:href="#DejaVuSans-31"/>
       <use xlink:href="#DejaVuSans-2e" x="63.623047"/>
       <use xlink:href="#DejaVuSans-32" x="95.410156"/>
      </g>
     </g>
    </g>
    <g id="text_23">
     <!-- MSE [$\AA$] -->
     <g transform="translate(249.312687 179.513894)rotate(-90)scale(0.1 -0.1)">
      <use xlink:href="#DejaVuSans-4d" transform="translate(0 0.171875)"/>
      <use xlink:href="#DejaVuSans-53" transform="translate(86.279297 0.171875)"/>
      <use xlink:href="#DejaVuSans-45" transform="translate(149.755859 0.171875)"/>
      <use xlink:href="#DejaVuSans-20" transform="translate(212.939453 0.171875)"/>
      <use xlink:href="#DejaVuSans-5b" transform="translate(244.726562 0.171875)"/>
      <use xlink:href="#DejaVuSans-Oblique-c5" transform="translate(283.740234 0.171875)"/>
      <use xlink:href="#DejaVuSans-5d" transform="translate(352.148438 0.171875)"/>
     </g>
    </g>
   </g>
   <g id="LineCollection_9">
    <path d="M 294.523182 159.344974 
L 321.569318 159.344974 
" clip-path="url(#p1cea3c874e)" style="fill: none; stroke: #1f77b4; stroke-width: 1.5"/>
   </g>
   <g id="LineCollection_10">
    <path d="M 294.523182 57.301263 
L 321.569318 57.301263 
" clip-path="url(#p1cea3c874e)" style="fill: none; stroke: #1f77b4; stroke-width: 1.5"/>
   </g>
   <g id="LineCollection_11">
    <path d="M 294.523182 262.526525 
L 321.569318 262.526525 
" clip-path="url(#p1cea3c874e)" style="fill: none; stroke: #1f77b4; stroke-width: 1.5"/>
   </g>
   <g id="LineCollection_12">
    <path d="M 308.04625 262.526525 
L 308.04625 57.301263 
" clip-path="url(#p1cea3c874e)" style="fill: none; stroke: #1f77b4; stroke-width: 1.5"/>
   </g>
   <g id="patch_13">
    <path d="M 278.2955 272.787788 
L 278.2955 47.04 
" style="fill: none; stroke: #000000; stroke-width: 0.8; stroke-linejoin: miter; stroke-linecap: square"/>
   </g>
   <g id="patch_14">
    <path d="M 337.797 272.787788 
L 337.797 47.04 
" style="fill: none; stroke: #000000; stroke-width: 0.8; stroke-linejoin: miter; stroke-linecap: square"/>
   </g>
   <g id="patch_15">
    <path d="M 278.2955 272.787788 
L 337.797 272.787788 
" style="fill: none; stroke: #000000; stroke-width: 0.8; stroke-linejoin: miter; stroke-linecap: square"/>
   </g>
   <g id="patch_16">
    <path d="M 278.2955 47.04 
L 337.797 47.04 
" style="fill: none; stroke: #000000; stroke-width: 0.8; stroke-linejoin: miter; stroke-linecap: square"/>
   </g>
   <g id="text_24">
    <!-- MSE -->
    <g transform="translate(295.269062 41.04)scale(0.12 -0.12)">
     <use xlink:href="#DejaVuSans-4d"/>
     <use xlink:href="#DejaVuSans-53" x="86.279297"/>
     <use xlink:href="#DejaVuSans-45" x="149.755859"/>
    </g>
   </g>
  </g>
  <g id="axes_4">
   <g id="patch_17">
    <path d="M 391.997 272.787788 
L 451.4985 272.787788 
L 451.4985 47.04 
L 391.997 47.04 
z
" style="fill: #ffffff"/>
   </g>
   <g id="PolyCollection_4">
    <path d="M 423.251044 262.526525 
L 420.244456 262.526525 
L 420.006742 260.453543 
L 419.739944 258.38056 
L 419.436949 256.307578 
L 419.090431 254.234595 
L 418.693929 252.161613 
L 418.242813 250.08863 
L 417.734913 248.015648 
L 417.170644 245.942666 
L 416.552549 243.869683 
L 415.884348 241.796701 
L 415.169678 239.723718 
L 414.410825 237.650736 
L 413.607768 235.577753 
L 412.757843 233.504771 
L 411.856195 231.431788 
L 410.897045 229.358806 
L 409.875557 227.285824 
L 408.78997 225.212841 
L 407.643488 223.139859 
L 406.445513 221.066876 
L 405.211872 218.993894 
L 403.96396 216.920911 
L 402.726935 214.847929 
L 401.527323 212.774946 
L 400.39048 210.701964 
L 399.338348 208.628982 
L 398.387844 206.555999 
L 397.550021 204.483017 
L 396.83002 202.410034 
L 396.227666 200.337052 
L 395.73853 198.264069 
L 395.355224 196.191087 
L 395.068774 194.118104 
L 394.869874 192.045122 
L 394.74991 189.97214 
L 394.701614 187.899157 
L 394.719283 185.826175 
L 394.798522 183.753192 
L 394.935572 181.68021 
L 395.126405 179.607227 
L 395.365852 177.534245 
L 395.647073 175.461262 
L 395.961641 173.38828 
L 396.300342 171.315298 
L 396.654589 169.242315 
L 397.018106 167.169333 
L 397.388403 165.09635 
L 397.767548 163.023368 
L 398.161932 160.950385 
L 398.581008 158.877403 
L 399.035299 156.80442 
L 399.534231 154.731438 
L 400.084383 152.658456 
L 400.688603 150.585473 
L 401.346143 148.512491 
L 402.053597 146.439508 
L 402.806192 144.366526 
L 403.598897 142.293543 
L 404.426928 140.220561 
L 405.28553 138.147578 
L 406.169212 136.074596 
L 407.070822 134.001614 
L 407.980942 131.928631 
L 408.887922 129.855649 
L 409.77865 127.782666 
L 410.639888 125.709684 
L 411.459812 123.636701 
L 412.229347 121.563719 
L 412.942981 119.490736 
L 413.598922 117.417754 
L 414.198673 115.344772 
L 414.74623 113.271789 
L 415.247174 111.198807 
L 415.70787 109.125824 
L 416.134888 107.052842 
L 416.534648 104.979859 
L 416.913204 102.906877 
L 417.276059 100.833894 
L 417.627926 98.760912 
L 417.972415 96.68793 
L 418.311678 94.614947 
L 418.646109 92.541965 
L 418.974184 90.468982 
L 419.292527 88.396 
L 419.596239 86.323017 
L 419.879479 84.250035 
L 420.136218 82.177052 
L 420.361082 80.10407 
L 420.550153 78.031088 
L 420.701609 75.958105 
L 420.816102 73.885123 
L 420.896822 71.81214 
L 420.949216 69.739158 
L 420.980414 67.666175 
L 420.998439 65.593193 
L 421.011309 63.52021 
L 421.026166 61.447228 
L 421.048547 59.374246 
L 421.081907 57.301263 
L 422.413593 57.301263 
L 422.413593 57.301263 
L 422.446953 59.374246 
L 422.469334 61.447228 
L 422.484191 63.52021 
L 422.497061 65.593193 
L 422.515086 67.666175 
L 422.546284 69.739158 
L 422.598678 71.81214 
L 422.679398 73.885123 
L 422.793891 75.958105 
L 422.945347 78.031088 
L 423.134418 80.10407 
L 423.359282 82.177052 
L 423.616021 84.250035 
L 423.899261 86.323017 
L 424.202973 88.396 
L 424.521316 90.468982 
L 424.849391 92.541965 
L 425.183822 94.614947 
L 425.523085 96.68793 
L 425.867574 98.760912 
L 426.219441 100.833894 
L 426.582296 102.906877 
L 426.960852 104.979859 
L 427.360612 107.052842 
L 427.78763 109.125824 
L 428.248326 111.198807 
L 428.74927 113.271789 
L 429.296827 115.344772 
L 429.896578 117.417754 
L 430.552519 119.490736 
L 431.266153 121.563719 
L 432.035688 123.636701 
L 432.855612 125.709684 
L 433.71685 127.782666 
L 434.607578 129.855649 
L 435.514558 131.928631 
L 436.424678 134.001614 
L 437.326288 136.074596 
L 438.20997 138.147578 
L 439.068572 140.220561 
L 439.896603 142.293543 
L 440.689308 144.366526 
L 441.441903 146.439508 
L 442.149357 148.512491 
L 442.806897 150.585473 
L 443.411117 152.658456 
L 443.961269 154.731438 
L 444.460201 156.80442 
L 444.914492 158.877403 
L 445.333568 160.950385 
L 445.727952 163.023368 
L 446.107097 165.09635 
L 446.477394 167.169333 
L 446.840911 169.242315 
L 447.195158 171.315298 
L 447.533859 173.38828 
L 447.848427 175.461262 
L 448.129648 177.534245 
L 448.369095 179.607227 
L 448.559928 181.68021 
L 448.696978 183.753192 
L 448.776217 185.826175 
L 448.793886 187.899157 
L 448.74559 189.97214 
L 448.625626 192.045122 
L 448.426726 194.118104 
L 448.140276 196.191087 
L 447.75697 198.264069 
L 447.267834 200.337052 
L 446.66548 202.410034 
L 445.945479 204.483017 
L 445.107656 206.555999 
L 444.157152 208.628982 
L 443.10502 210.701964 
L 441.968177 212.774946 
L 440.768565 214.847929 
L 439.53154 216.920911 
L 438.283628 218.993894 
L 437.049987 221.066876 
L 435.852012 223.139859 
L 434.70553 225.212841 
L 433.619943 227.285824 
L 432.598455 229.358806 
L 431.639305 231.431788 
L 430.737657 233.504771 
L 429.887732 235.577753 
L 429.084675 237.650736 
L 428.325822 239.723718 
L 427.611152 241.796701 
L 426.942951 243.869683 
L 426.324856 245.942666 
L 425.760587 248.015648 
L 425.252687 250.08863 
L 424.801571 252.161613 
L 424.405069 254.234595 
L 424.058551 256.307578 
L 423.755556 258.38056 
L 423.488758 260.453543 
L 423.251044 262.526525 
z
" clip-path="url(#p64250253ff)" style="fill: #1f77b4; fill-opacity: 0.3"/>
   </g>
   <g id="matplotlib.axis_4">
    <g id="ytick_19">
     <g id="line2d_19">
      <g>
       <use xlink:href="#m58bc5531c1" x="391.997" y="251.287999" style="stroke: #000000; stroke-width: 0.8"/>
      </g>
     </g>
     <g id="text_25">
      <!-- 0.65 -->
      <g transform="translate(362.731375 255.087218)scale(0.1 -0.1)">
       <use xlink:href="#DejaVuSans-30"/>
       <use xlink:href="#DejaVuSans-2e" x="63.623047"/>
       <use xlink:href="#DejaVuSans-36" x="95.410156"/>
       <use xlink:href="#DejaVuSans-35" x="159.033203"/>
      </g>
     </g>
    </g>
    <g id="ytick_20">
     <g id="line2d_20">
      <g>
       <use xlink:href="#m58bc5531c1" x="391.997" y="206.822525" style="stroke: #000000; stroke-width: 0.8"/>
      </g>
     </g>
     <g id="text_26">
      <!-- 0.70 -->
      <g transform="translate(362.731375 210.621744)scale(0.1 -0.1)">
       <defs>
        <path id="DejaVuSans-37" d="M 525 4666 
L 3525 4666 
L 3525 4397 
L 1831 0 
L 1172 0 
L 2766 4134 
L 525 4134 
L 525 4666 
z
" transform="scale(0.015625)"/>
       </defs>
       <use xlink:href="#DejaVuSans-30"/>
       <use xlink:href="#DejaVuSans-2e" x="63.623047"/>
       <use xlink:href="#DejaVuSans-37" x="95.410156"/>
       <use xlink:href="#DejaVuSans-30" x="159.033203"/>
      </g>
     </g>
    </g>
    <g id="ytick_21">
     <g id="line2d_21">
      <g>
       <use xlink:href="#m58bc5531c1" x="391.997" y="162.357052" style="stroke: #000000; stroke-width: 0.8"/>
      </g>
     </g>
     <g id="text_27">
      <!-- 0.75 -->
      <g transform="translate(362.731375 166.156271)scale(0.1 -0.1)">
       <use xlink:href="#DejaVuSans-30"/>
       <use xlink:href="#DejaVuSans-2e" x="63.623047"/>
       <use xlink:href="#DejaVuSans-37" x="95.410156"/>
       <use xlink:href="#DejaVuSans-35" x="159.033203"/>
      </g>
     </g>
    </g>
    <g id="ytick_22">
     <g id="line2d_22">
      <g>
       <use xlink:href="#m58bc5531c1" x="391.997" y="117.891579" style="stroke: #000000; stroke-width: 0.8"/>
      </g>
     </g>
     <g id="text_28">
      <!-- 0.80 -->
      <g transform="translate(362.731375 121.690797)scale(0.1 -0.1)">
       <use xlink:href="#DejaVuSans-30"/>
       <use xlink:href="#DejaVuSans-2e" x="63.623047"/>
       <use xlink:href="#DejaVuSans-38" x="95.410156"/>
       <use xlink:href="#DejaVuSans-30" x="159.033203"/>
      </g>
     </g>
    </g>
    <g id="ytick_23">
     <g id="line2d_23">
      <g>
       <use xlink:href="#m58bc5531c1" x="391.997" y="73.426105" style="stroke: #000000; stroke-width: 0.8"/>
      </g>
     </g>
     <g id="text_29">
      <!-- 0.85 -->
      <g transform="translate(362.731375 77.225324)scale(0.1 -0.1)">
       <use xlink:href="#DejaVuSans-30"/>
       <use xlink:href="#DejaVuSans-2e" x="63.623047"/>
       <use xlink:href="#DejaVuSans-38" x="95.410156"/>
       <use xlink:href="#DejaVuSans-35" x="159.033203"/>
      </g>
     </g>
    </g>
    <g id="text_30">
     <!-- % NOE fulfilled [1/100 %] -->
     <g transform="translate(356.651687 223.414675)rotate(-90)scale(0.1 -0.1)">
      <defs>
       <path id="DejaVuSans-25" d="M 4653 2053 
Q 4381 2053 4226 1822 
Q 4072 1591 4072 1178 
Q 4072 772 4226 539 
Q 4381 306 4653 306 
Q 4919 306 5073 539 
Q 5228 772 5228 1178 
Q 5228 1588 5073 1820 
Q 4919 2053 4653 2053 
z
M 4653 2450 
Q 5147 2450 5437 2106 
Q 5728 1763 5728 1178 
Q 5728 594 5436 251 
Q 5144 -91 4653 -91 
Q 4153 -91 3862 251 
Q 3572 594 3572 1178 
Q 3572 1766 3864 2108 
Q 4156 2450 4653 2450 
z
M 1428 4353 
Q 1159 4353 1004 4120 
Q 850 3888 850 3481 
Q 850 3069 1003 2837 
Q 1156 2606 1428 2606 
Q 1700 2606 1854 2837 
Q 2009 3069 2009 3481 
Q 2009 3884 1853 4118 
Q 1697 4353 1428 4353 
z
M 4250 4750 
L 4750 4750 
L 1831 -91 
L 1331 -91 
L 4250 4750 
z
M 1428 4750 
Q 1922 4750 2215 4408 
Q 2509 4066 2509 3481 
Q 2509 2891 2217 2550 
Q 1925 2209 1428 2209 
Q 931 2209 642 2551 
Q 353 2894 353 3481 
Q 353 4063 643 4406 
Q 934 4750 1428 4750 
z
" transform="scale(0.015625)"/>
       <path id="DejaVuSans-4e" d="M 628 4666 
L 1478 4666 
L 3547 763 
L 3547 4666 
L 4159 4666 
L 4159 0 
L 3309 0 
L 1241 3903 
L 1241 0 
L 628 0 
L 628 4666 
z
" transform="scale(0.015625)"/>
       <path id="DejaVuSans-4f" d="M 2522 4238 
Q 1834 4238 1429 3725 
Q 1025 3213 1025 2328 
Q 1025 1447 1429 934 
Q 1834 422 2522 422 
Q 3209 422 3611 934 
Q 4013 1447 4013 2328 
Q 4013 3213 3611 3725 
Q 3209 4238 2522 4238 
z
M 2522 4750 
Q 3503 4750 4090 4092 
Q 4678 3434 4678 2328 
Q 4678 1225 4090 567 
Q 3503 -91 2522 -91 
Q 1538 -91 948 565 
Q 359 1222 359 2328 
Q 359 3434 948 4092 
Q 1538 4750 2522 4750 
z
" transform="scale(0.015625)"/>
       <path id="DejaVuSans-66" d="M 2375 4863 
L 2375 4384 
L 1825 4384 
Q 1516 4384 1395 4259 
Q 1275 4134 1275 3809 
L 1275 3500 
L 2222 3500 
L 2222 3053 
L 1275 3053 
L 1275 0 
L 697 0 
L 697 3053 
L 147 3053 
L 147 3500 
L 697 3500 
L 697 3744 
Q 697 4328 969 4595 
Q 1241 4863 1831 4863 
L 2375 4863 
z
" transform="scale(0.015625)"/>
       <path id="DejaVuSans-75" d="M 544 1381 
L 544 3500 
L 1119 3500 
L 1119 1403 
Q 1119 906 1312 657 
Q 1506 409 1894 409 
Q 2359 409 2629 706 
Q 2900 1003 2900 1516 
L 2900 3500 
L 3475 3500 
L 3475 0 
L 2900 0 
L 2900 538 
Q 2691 219 2414 64 
Q 2138 -91 1772 -91 
Q 1169 -91 856 284 
Q 544 659 544 1381 
z
M 1991 3584 
L 1991 3584 
z
" transform="scale(0.015625)"/>
       <path id="DejaVuSans-6c" d="M 603 4863 
L 1178 4863 
L 1178 0 
L 603 0 
L 603 4863 
z
" transform="scale(0.015625)"/>
       <path id="DejaVuSans-69" d="M 603 3500 
L 1178 3500 
L 1178 0 
L 603 0 
L 603 3500 
z
M 603 4863 
L 1178 4863 
L 1178 4134 
L 603 4134 
L 603 4863 
z
" transform="scale(0.015625)"/>
       <path id="DejaVuSans-65" d="M 3597 1894 
L 3597 1613 
L 953 1613 
Q 991 1019 1311 708 
Q 1631 397 2203 397 
Q 2534 397 2845 478 
Q 3156 559 3463 722 
L 3463 178 
Q 3153 47 2828 -22 
Q 2503 -91 2169 -91 
Q 1331 -91 842 396 
Q 353 884 353 1716 
Q 353 2575 817 3079 
Q 1281 3584 2069 3584 
Q 2775 3584 3186 3129 
Q 3597 2675 3597 1894 
z
M 3022 2063 
Q 3016 2534 2758 2815 
Q 2500 3097 2075 3097 
Q 1594 3097 1305 2825 
Q 1016 2553 972 2059 
L 3022 2063 
z
" transform="scale(0.015625)"/>
       <path id="DejaVuSans-64" d="M 2906 2969 
L 2906 4863 
L 3481 4863 
L 3481 0 
L 2906 0 
L 2906 525 
Q 2725 213 2448 61 
Q 2172 -91 1784 -91 
Q 1150 -91 751 415 
Q 353 922 353 1747 
Q 353 2572 751 3078 
Q 1150 3584 1784 3584 
Q 2172 3584 2448 3432 
Q 2725 3281 2906 2969 
z
M 947 1747 
Q 947 1113 1208 752 
Q 1469 391 1925 391 
Q 2381 391 2643 752 
Q 2906 1113 2906 1747 
Q 2906 2381 2643 2742 
Q 2381 3103 1925 3103 
Q 1469 3103 1208 2742 
Q 947 2381 947 1747 
z
" transform="scale(0.015625)"/>
       <path id="DejaVuSans-2f" d="M 1625 4666 
L 2156 4666 
L 531 -594 
L 0 -594 
L 1625 4666 
z
" transform="scale(0.015625)"/>
      </defs>
      <use xlink:href="#DejaVuSans-25"/>
      <use xlink:href="#DejaVuSans-20" x="95.019531"/>
      <use xlink:href="#DejaVuSans-4e" x="126.806641"/>
      <use xlink:href="#DejaVuSans-4f" x="201.611328"/>
      <use xlink:href="#DejaVuSans-45" x="280.322266"/>
      <use xlink:href="#DejaVuSans-20" x="343.505859"/>
      <use xlink:href="#DejaVuSans-66" x="375.292969"/>
      <use xlink:href="#DejaVuSans-75" x="410.498047"/>
      <use xlink:href="#DejaVuSans-6c" x="473.876953"/>
      <use xlink:href="#DejaVuSans-66" x="501.660156"/>
      <use xlink:href="#DejaVuSans-69" x="536.865234"/>
      <use xlink:href="#DejaVuSans-6c" x="564.648438"/>
      <use xlink:href="#DejaVuSans-6c" x="592.431641"/>
      <use xlink:href="#DejaVuSans-65" x="620.214844"/>
      <use xlink:href="#DejaVuSans-64" x="681.738281"/>
      <use xlink:href="#DejaVuSans-20" x="745.214844"/>
      <use xlink:href="#DejaVuSans-5b" x="777.001953"/>
      <use xlink:href="#DejaVuSans-31" x="816.015625"/>
      <use xlink:href="#DejaVuSans-2f" x="879.638672"/>
      <use xlink:href="#DejaVuSans-31" x="913.330078"/>
      <use xlink:href="#DejaVuSans-30" x="976.953125"/>
      <use xlink:href="#DejaVuSans-30" x="1040.576172"/>
      <use xlink:href="#DejaVuSans-20" x="1104.199219"/>
      <use xlink:href="#DejaVuSans-25" x="1135.986328"/>
      <use xlink:href="#DejaVuSans-5d" x="1231.005859"/>
     </g>
    </g>
   </g>
   <g id="LineCollection_13">
    <path d="M 408.224682 175.623399 
L 435.270818 175.623399 
" clip-path="url(#p64250253ff)" style="fill: none; stroke: #1f77b4; stroke-width: 1.5"/>
   </g>
   <g id="LineCollection_14">
    <path d="M 408.224682 57.301263 
L 435.270818 57.301263 
" clip-path="url(#p64250253ff)" style="fill: none; stroke: #1f77b4; stroke-width: 1.5"/>
   </g>
   <g id="LineCollection_15">
    <path d="M 408.224682 262.526525 
L 435.270818 262.526525 
" clip-path="url(#p64250253ff)" style="fill: none; stroke: #1f77b4; stroke-width: 1.5"/>
   </g>
   <g id="LineCollection_16">
    <path d="M 421.74775 262.526525 
L 421.74775 57.301263 
" clip-path="url(#p64250253ff)" style="fill: none; stroke: #1f77b4; stroke-width: 1.5"/>
   </g>
   <g id="patch_18">
    <path d="M 391.997 272.787788 
L 391.997 47.04 
" style="fill: none; stroke: #000000; stroke-width: 0.8; stroke-linejoin: miter; stroke-linecap: square"/>
   </g>
   <g id="patch_19">
    <path d="M 451.4985 272.787788 
L 451.4985 47.04 
" style="fill: none; stroke: #000000; stroke-width: 0.8; stroke-linejoin: miter; stroke-linecap: square"/>
   </g>
   <g id="patch_20">
    <path d="M 391.997 272.787788 
L 451.4985 272.787788 
" style="fill: none; stroke: #000000; stroke-width: 0.8; stroke-linejoin: miter; stroke-linecap: square"/>
   </g>
   <g id="patch_21">
    <path d="M 391.997 47.04 
L 451.4985 47.04 
" style="fill: none; stroke: #000000; stroke-width: 0.8; stroke-linejoin: miter; stroke-linecap: square"/>
   </g>
   <g id="text_31">
    <!-- % NOE fulfilled -->
    <g transform="translate(377.034625 41.04)scale(0.12 -0.12)">
     <use xlink:href="#DejaVuSans-25"/>
     <use xlink:href="#DejaVuSans-20" x="95.019531"/>
     <use xlink:href="#DejaVuSans-4e" x="126.806641"/>
     <use xlink:href="#DejaVuSans-4f" x="201.611328"/>
     <use xlink:href="#DejaVuSans-45" x="280.322266"/>
     <use xlink:href="#DejaVuSans-20" x="343.505859"/>
     <use xlink:href="#DejaVuSans-66" x="375.292969"/>
     <use xlink:href="#DejaVuSans-75" x="410.498047"/>
     <use xlink:href="#DejaVuSans-6c" x="473.876953"/>
     <use xlink:href="#DejaVuSans-66" x="501.660156"/>
     <use xlink:href="#DejaVuSans-69" x="536.865234"/>
     <use xlink:href="#DejaVuSans-6c" x="564.648438"/>
     <use xlink:href="#DejaVuSans-6c" x="592.431641"/>
     <use xlink:href="#DejaVuSans-65" x="620.214844"/>
     <use xlink:href="#DejaVuSans-64" x="681.738281"/>
    </g>
   </g>
  </g>
  <g id="axes_5">
   <g id="patch_22">
    <path d="M 505.6985 272.787788 
L 565.2 272.787788 
L 565.2 47.04 
L 505.6985 47.04 
z
" style="fill: #ffffff"/>
   </g>
   <g id="PolyCollection_5">
    <path d="M 535.683862 262.526525 
L 535.214638 262.526525 
L 535.210741 260.453543 
L 535.212093 258.38056 
L 535.215971 256.307578 
L 535.219081 254.234595 
L 535.218231 252.161613 
L 535.210949 250.08863 
L 535.195852 248.015648 
L 535.172692 245.942666 
L 535.14208 243.869683 
L 535.105021 241.796701 
L 535.062445 239.723718 
L 535.014909 237.650736 
L 534.962559 235.577753 
L 534.905345 233.504771 
L 534.843349 231.431788 
L 534.777029 229.358806 
L 534.707191 227.285824 
L 534.634597 225.212841 
L 534.559257 223.139859 
L 534.479607 221.066876 
L 534.391904 218.993894 
L 534.290152 216.920911 
L 534.166807 214.847929 
L 534.014256 212.774946 
L 533.826832 210.701964 
L 533.602852 208.628982 
L 533.34605 206.555999 
L 533.065812 204.483017 
L 532.775886 202.410034 
L 532.491652 200.337052 
L 532.226478 198.264069 
L 531.988044 196.191087 
L 531.775628 194.118104 
L 531.57916 192.045122 
L 531.380379 189.97214 
L 531.155844 187.899157 
L 530.88102 185.826175 
L 530.534356 183.753192 
L 530.100359 181.68021 
L 529.571036 179.607227 
L 528.945656 177.534245 
L 528.229302 175.461262 
L 527.430988 173.38828 
L 526.562066 171.315298 
L 525.635348 169.242315 
L 524.664938 167.169333 
L 523.666438 165.09635 
L 522.657032 163.023368 
L 521.655085 160.950385 
L 520.679135 158.877403 
L 519.746431 156.80442 
L 518.871317 154.731438 
L 518.06381 152.658456 
L 517.3286 150.585473 
L 516.664602 148.512491 
L 516.065079 146.439508 
L 515.518306 144.366526 
L 515.008758 142.293543 
L 514.518748 140.220561 
L 514.030453 138.147578 
L 513.528161 136.074596 
L 513.000509 134.001614 
L 512.44242 131.928631 
L 511.856381 129.855649 
L 511.252791 127.782666 
L 510.649226 125.709684 
L 510.0687 123.636701 
L 509.537266 121.563719 
L 509.081474 119.490736 
L 508.726273 117.417754 
L 508.493793 115.344772 
L 508.403114 113.271789 
L 508.470734 111.198807 
L 508.711167 109.125824 
L 509.136959 107.052842 
L 509.757647 104.979859 
L 510.577608 102.906877 
L 511.593244 100.833894 
L 512.790398 98.760912 
L 514.14297 96.68793 
L 515.613541 94.614947 
L 517.156291 92.541965 
L 518.721867 90.468982 
L 520.263294 88.396 
L 521.74161 86.323017 
L 523.129916 84.250035 
L 524.414875 82.177052 
L 525.595373 80.10407 
L 526.67887 78.031088 
L 527.676627 75.958105 
L 528.599239 73.885123 
L 529.453715 71.81214 
L 530.242665 69.739158 
L 530.965386 67.666175 
L 531.620032 65.593193 
L 532.205788 63.52021 
L 532.724238 61.447228 
L 533.179529 59.374246 
L 533.577543 57.301263 
L 537.320957 57.301263 
L 537.320957 57.301263 
L 537.718971 59.374246 
L 538.174262 61.447228 
L 538.692712 63.52021 
L 539.278468 65.593193 
L 539.933114 67.666175 
L 540.655835 69.739158 
L 541.444785 71.81214 
L 542.299261 73.885123 
L 543.221873 75.958105 
L 544.21963 78.031088 
L 545.303127 80.10407 
L 546.483625 82.177052 
L 547.768584 84.250035 
L 549.15689 86.323017 
L 550.635206 88.396 
L 552.176633 90.468982 
L 553.742209 92.541965 
L 555.284959 94.614947 
L 556.75553 96.68793 
L 558.108102 98.760912 
L 559.305256 100.833894 
L 560.320892 102.906877 
L 561.140853 104.979859 
L 561.761541 107.052842 
L 562.187333 109.125824 
L 562.427766 111.198807 
L 562.495386 113.271789 
L 562.404707 115.344772 
L 562.172227 117.417754 
L 561.817026 119.490736 
L 561.361234 121.563719 
L 560.8298 123.636701 
L 560.249274 125.709684 
L 559.645709 127.782666 
L 559.042119 129.855649 
L 558.45608 131.928631 
L 557.897991 134.001614 
L 557.370339 136.074596 
L 556.868047 138.147578 
L 556.379752 140.220561 
L 555.889742 142.293543 
L 555.380194 144.366526 
L 554.833421 146.439508 
L 554.233898 148.512491 
L 553.5699 150.585473 
L 552.83469 152.658456 
L 552.027183 154.731438 
L 551.152069 156.80442 
L 550.219365 158.877403 
L 549.243415 160.950385 
L 548.241468 163.023368 
L 547.232062 165.09635 
L 546.233562 167.169333 
L 545.263152 169.242315 
L 544.336434 171.315298 
L 543.467512 173.38828 
L 542.669198 175.461262 
L 541.952844 177.534245 
L 541.327464 179.607227 
L 540.798141 181.68021 
L 540.364144 183.753192 
L 540.01748 185.826175 
L 539.742656 187.899157 
L 539.518121 189.97214 
L 539.31934 192.045122 
L 539.122872 194.118104 
L 538.910456 196.191087 
L 538.672022 198.264069 
L 538.406848 200.337052 
L 538.122614 202.410034 
L 537.832688 204.483017 
L 537.55245 206.555999 
L 537.295648 208.628982 
L 537.071668 210.701964 
L 536.884244 212.774946 
L 536.731693 214.847929 
L 536.608348 216.920911 
L 536.506596 218.993894 
L 536.418893 221.066876 
L 536.339243 223.139859 
L 536.263903 225.212841 
L 536.191309 227.285824 
L 536.121471 229.358806 
L 536.055151 231.431788 
L 535.993155 233.504771 
L 535.935941 235.577753 
L 535.883591 237.650736 
L 535.836055 239.723718 
L 535.793479 241.796701 
L 535.75642 243.869683 
L 535.725808 245.942666 
L 535.702648 248.015648 
L 535.687551 250.08863 
L 535.680269 252.161613 
L 535.679419 254.234595 
L 535.682529 256.307578 
L 535.686407 258.38056 
L 535.687759 260.453543 
L 535.683862 262.526525 
z
" clip-path="url(#pf4fff17c55)" style="fill: #1f77b4; fill-opacity: 0.3"/>
   </g>
   <g id="matplotlib.axis_5">
    <g id="ytick_24">
     <g id="line2d_24">
      <g>
       <use xlink:href="#m58bc5531c1" x="505.6985" y="258.164328" style="stroke: #000000; stroke-width: 0.8"/>
      </g>
     </g>
     <g id="text_32">
      <!-- 0.5 -->
      <g transform="translate(482.795375 261.963547)scale(0.1 -0.1)">
       <use xlink:href="#DejaVuSans-30"/>
       <use xlink:href="#DejaVuSans-2e" x="63.623047"/>
       <use xlink:href="#DejaVuSans-35" x="95.410156"/>
      </g>
     </g>
    </g>
    <g id="ytick_25">
     <g id="line2d_25">
      <g>
       <use xlink:href="#m58bc5531c1" x="505.6985" y="210.194808" style="stroke: #000000; stroke-width: 0.8"/>
      </g>
     </g>
     <g id="text_33">
      <!-- 0.6 -->
      <g transform="translate(482.795375 213.994027)scale(0.1 -0.1)">
       <use xlink:href="#DejaVuSans-30"/>
       <use xlink:href="#DejaVuSans-2e" x="63.623047"/>
       <use xlink:href="#DejaVuSans-36" x="95.410156"/>
      </g>
     </g>
    </g>
    <g id="ytick_26">
     <g id="line2d_26">
      <g>
       <use xlink:href="#m58bc5531c1" x="505.6985" y="162.225288" style="stroke: #000000; stroke-width: 0.8"/>
      </g>
     </g>
     <g id="text_34">
      <!-- 0.7 -->
      <g transform="translate(482.795375 166.024506)scale(0.1 -0.1)">
       <use xlink:href="#DejaVuSans-30"/>
       <use xlink:href="#DejaVuSans-2e" x="63.623047"/>
       <use xlink:href="#DejaVuSans-37" x="95.410156"/>
      </g>
     </g>
    </g>
    <g id="ytick_27">
     <g id="line2d_27">
      <g>
       <use xlink:href="#m58bc5531c1" x="505.6985" y="114.255767" style="stroke: #000000; stroke-width: 0.8"/>
      </g>
     </g>
     <g id="text_35">
      <!-- 0.8 -->
      <g transform="translate(482.795375 118.054986)scale(0.1 -0.1)">
       <use xlink:href="#DejaVuSans-30"/>
       <use xlink:href="#DejaVuSans-2e" x="63.623047"/>
       <use xlink:href="#DejaVuSans-38" x="95.410156"/>
      </g>
     </g>
    </g>
    <g id="ytick_28">
     <g id="line2d_28">
      <g>
       <use xlink:href="#m58bc5531c1" x="505.6985" y="66.286247" style="stroke: #000000; stroke-width: 0.8"/>
      </g>
     </g>
     <g id="text_36">
      <!-- 0.9 -->
      <g transform="translate(482.795375 70.085466)scale(0.1 -0.1)">
       <defs>
        <path id="DejaVuSans-39" d="M 703 97 
L 703 672 
Q 941 559 1184 500 
Q 1428 441 1663 441 
Q 2288 441 2617 861 
Q 2947 1281 2994 2138 
Q 2813 1869 2534 1725 
Q 2256 1581 1919 1581 
Q 1219 1581 811 2004 
Q 403 2428 403 3163 
Q 403 3881 828 4315 
Q 1253 4750 1959 4750 
Q 2769 4750 3195 4129 
Q 3622 3509 3622 2328 
Q 3622 1225 3098 567 
Q 2575 -91 1691 -91 
Q 1453 -91 1209 -44 
Q 966 3 703 97 
z
M 1959 2075 
Q 2384 2075 2632 2365 
Q 2881 2656 2881 3163 
Q 2881 3666 2632 3958 
Q 2384 4250 1959 4250 
Q 1534 4250 1286 3958 
Q 1038 3666 1038 3163 
Q 1038 2656 1286 2365 
Q 1534 2075 1959 2075 
z
" transform="scale(0.015625)"/>
       </defs>
       <use xlink:href="#DejaVuSans-30"/>
       <use xlink:href="#DejaVuSans-2e" x="63.623047"/>
       <use xlink:href="#DejaVuSans-39" x="95.410156"/>
      </g>
     </g>
    </g>
    <g id="text_37">
     <!-- RMSD stepwise [$\AA$] -->
     <g transform="translate(476.695375 207.213894)rotate(-90)scale(0.1 -0.1)">
      <defs>
       <path id="DejaVuSans-73" d="M 2834 3397 
L 2834 2853 
Q 2591 2978 2328 3040 
Q 2066 3103 1784 3103 
Q 1356 3103 1142 2972 
Q 928 2841 928 2578 
Q 928 2378 1081 2264 
Q 1234 2150 1697 2047 
L 1894 2003 
Q 2506 1872 2764 1633 
Q 3022 1394 3022 966 
Q 3022 478 2636 193 
Q 2250 -91 1575 -91 
Q 1294 -91 989 -36 
Q 684 19 347 128 
L 347 722 
Q 666 556 975 473 
Q 1284 391 1588 391 
Q 1994 391 2212 530 
Q 2431 669 2431 922 
Q 2431 1156 2273 1281 
Q 2116 1406 1581 1522 
L 1381 1569 
Q 847 1681 609 1914 
Q 372 2147 372 2553 
Q 372 3047 722 3315 
Q 1072 3584 1716 3584 
Q 2034 3584 2315 3537 
Q 2597 3491 2834 3397 
z
" transform="scale(0.015625)"/>
       <path id="DejaVuSans-74" d="M 1172 4494 
L 1172 3500 
L 2356 3500 
L 2356 3053 
L 1172 3053 
L 1172 1153 
Q 1172 725 1289 603 
Q 1406 481 1766 481 
L 2356 481 
L 2356 0 
L 1766 0 
Q 1100 0 847 248 
Q 594 497 594 1153 
L 594 3053 
L 172 3053 
L 172 3500 
L 594 3500 
L 594 4494 
L 1172 4494 
z
" transform="scale(0.015625)"/>
       <path id="DejaVuSans-70" d="M 1159 525 
L 1159 -1331 
L 581 -1331 
L 581 3500 
L 1159 3500 
L 1159 2969 
Q 1341 3281 1617 3432 
Q 1894 3584 2278 3584 
Q 2916 3584 3314 3078 
Q 3713 2572 3713 1747 
Q 3713 922 3314 415 
Q 2916 -91 2278 -91 
Q 1894 -91 1617 61 
Q 1341 213 1159 525 
z
M 3116 1747 
Q 3116 2381 2855 2742 
Q 2594 3103 2138 3103 
Q 1681 3103 1420 2742 
Q 1159 2381 1159 1747 
Q 1159 1113 1420 752 
Q 1681 391 2138 391 
Q 2594 391 2855 752 
Q 3116 1113 3116 1747 
z
" transform="scale(0.015625)"/>
       <path id="DejaVuSans-77" d="M 269 3500 
L 844 3500 
L 1563 769 
L 2278 3500 
L 2956 3500 
L 3675 769 
L 4391 3500 
L 4966 3500 
L 4050 0 
L 3372 0 
L 2619 2869 
L 1863 0 
L 1184 0 
L 269 3500 
z
" transform="scale(0.015625)"/>
      </defs>
      <use xlink:href="#DejaVuSans-52" transform="translate(0 0.171875)"/>
      <use xlink:href="#DejaVuSans-4d" transform="translate(69.482422 0.171875)"/>
      <use xlink:href="#DejaVuSans-53" transform="translate(155.761719 0.171875)"/>
      <use xlink:href="#DejaVuSans-44" transform="translate(219.238281 0.171875)"/>
      <use xlink:href="#DejaVuSans-20" transform="translate(296.240234 0.171875)"/>
      <use xlink:href="#DejaVuSans-73" transform="translate(328.027344 0.171875)"/>
      <use xlink:href="#DejaVuSans-74" transform="translate(380.126953 0.171875)"/>
      <use xlink:href="#DejaVuSans-65" transform="translate(419.335938 0.171875)"/>
      <use xlink:href="#DejaVuSans-70" transform="translate(480.859375 0.171875)"/>
      <use xlink:href="#DejaVuSans-77" transform="translate(544.335938 0.171875)"/>
      <use xlink:href="#DejaVuSans-69" transform="translate(626.123047 0.171875)"/>
      <use xlink:href="#DejaVuSans-73" transform="translate(653.90625 0.171875)"/>
      <use xlink:href="#DejaVuSans-65" transform="translate(706.005859 0.171875)"/>
      <use xlink:href="#DejaVuSans-20" transform="translate(767.529297 0.171875)"/>
      <use xlink:href="#DejaVuSans-5b" transform="translate(799.316406 0.171875)"/>
      <use xlink:href="#DejaVuSans-Oblique-c5" transform="translate(838.330078 0.171875)"/>
      <use xlink:href="#DejaVuSans-5d" transform="translate(906.738281 0.171875)"/>
     </g>
    </g>
   </g>
   <g id="LineCollection_17">
    <path d="M 521.926182 126.897618 
L 548.972318 126.897618 
" clip-path="url(#pf4fff17c55)" style="fill: none; stroke: #1f77b4; stroke-width: 1.5"/>
   </g>
   <g id="LineCollection_18">
    <path d="M 521.926182 57.301263 
L 548.972318 57.301263 
" clip-path="url(#pf4fff17c55)" style="fill: none; stroke: #1f77b4; stroke-width: 1.5"/>
   </g>
   <g id="LineCollection_19">
    <path d="M 521.926182 262.526525 
L 548.972318 262.526525 
" clip-path="url(#pf4fff17c55)" style="fill: none; stroke: #1f77b4; stroke-width: 1.5"/>
   </g>
   <g id="LineCollection_20">
    <path d="M 535.44925 262.526525 
L 535.44925 57.301263 
" clip-path="url(#pf4fff17c55)" style="fill: none; stroke: #1f77b4; stroke-width: 1.5"/>
   </g>
   <g id="patch_23">
    <path d="M 505.6985 272.787788 
L 505.6985 47.04 
" style="fill: none; stroke: #000000; stroke-width: 0.8; stroke-linejoin: miter; stroke-linecap: square"/>
   </g>
   <g id="patch_24">
    <path d="M 565.2 272.787788 
L 565.2 47.04 
" style="fill: none; stroke: #000000; stroke-width: 0.8; stroke-linejoin: miter; stroke-linecap: square"/>
   </g>
   <g id="patch_25">
    <path d="M 505.6985 272.787788 
L 565.2 272.787788 
" style="fill: none; stroke: #000000; stroke-width: 0.8; stroke-linejoin: miter; stroke-linecap: square"/>
   </g>
   <g id="patch_26">
    <path d="M 505.6985 47.04 
L 565.2 47.04 
" style="fill: none; stroke: #000000; stroke-width: 0.8; stroke-linejoin: miter; stroke-linecap: square"/>
   </g>
   <g id="text_38">
    <!-- RMSD stepwise -->
    <g transform="translate(489.397375 41.04)scale(0.12 -0.12)">
     <use xlink:href="#DejaVuSans-52"/>
     <use xlink:href="#DejaVuSans-4d" x="69.482422"/>
     <use xlink:href="#DejaVuSans-53" x="155.761719"/>
     <use xlink:href="#DejaVuSans-44" x="219.238281"/>
     <use xlink:href="#DejaVuSans-20" x="296.240234"/>
     <use xlink:href="#DejaVuSans-73" x="328.027344"/>
     <use xlink:href="#DejaVuSans-74" x="380.126953"/>
     <use xlink:href="#DejaVuSans-65" x="419.335938"/>
     <use xlink:href="#DejaVuSans-70" x="480.859375"/>
     <use xlink:href="#DejaVuSans-77" x="544.335938"/>
     <use xlink:href="#DejaVuSans-69" x="626.123047"/>
     <use xlink:href="#DejaVuSans-73" x="653.90625"/>
     <use xlink:href="#DejaVuSans-65" x="706.005859"/>
    </g>
   </g>
  </g>
  <g id="text_39">
   <!-- Compound 61. Rdkit -->
   <g transform="translate(226.573125 14.878125)scale(0.12 -0.12)">
    <defs>
     <path id="DejaVuSans-43" d="M 4122 4306 
L 4122 3641 
Q 3803 3938 3442 4084 
Q 3081 4231 2675 4231 
Q 1875 4231 1450 3742 
Q 1025 3253 1025 2328 
Q 1025 1406 1450 917 
Q 1875 428 2675 428 
Q 3081 428 3442 575 
Q 3803 722 4122 1019 
L 4122 359 
Q 3791 134 3420 21 
Q 3050 -91 2638 -91 
Q 1578 -91 968 557 
Q 359 1206 359 2328 
Q 359 3453 968 4101 
Q 1578 4750 2638 4750 
Q 3056 4750 3426 4639 
Q 3797 4528 4122 4306 
z
" transform="scale(0.015625)"/>
     <path id="DejaVuSans-6f" d="M 1959 3097 
Q 1497 3097 1228 2736 
Q 959 2375 959 1747 
Q 959 1119 1226 758 
Q 1494 397 1959 397 
Q 2419 397 2687 759 
Q 2956 1122 2956 1747 
Q 2956 2369 2687 2733 
Q 2419 3097 1959 3097 
z
M 1959 3584 
Q 2709 3584 3137 3096 
Q 3566 2609 3566 1747 
Q 3566 888 3137 398 
Q 2709 -91 1959 -91 
Q 1206 -91 779 398 
Q 353 888 353 1747 
Q 353 2609 779 3096 
Q 1206 3584 1959 3584 
z
" transform="scale(0.015625)"/>
     <path id="DejaVuSans-6d" d="M 3328 2828 
Q 3544 3216 3844 3400 
Q 4144 3584 4550 3584 
Q 5097 3584 5394 3201 
Q 5691 2819 5691 2113 
L 5691 0 
L 5113 0 
L 5113 2094 
Q 5113 2597 4934 2840 
Q 4756 3084 4391 3084 
Q 3944 3084 3684 2787 
Q 3425 2491 3425 1978 
L 3425 0 
L 2847 0 
L 2847 2094 
Q 2847 2600 2669 2842 
Q 2491 3084 2119 3084 
Q 1678 3084 1418 2786 
Q 1159 2488 1159 1978 
L 1159 0 
L 581 0 
L 581 3500 
L 1159 3500 
L 1159 2956 
Q 1356 3278 1631 3431 
Q 1906 3584 2284 3584 
Q 2666 3584 2933 3390 
Q 3200 3197 3328 2828 
z
" transform="scale(0.015625)"/>
     <path id="DejaVuSans-6e" d="M 3513 2113 
L 3513 0 
L 2938 0 
L 2938 2094 
Q 2938 2591 2744 2837 
Q 2550 3084 2163 3084 
Q 1697 3084 1428 2787 
Q 1159 2491 1159 1978 
L 1159 0 
L 581 0 
L 581 3500 
L 1159 3500 
L 1159 2956 
Q 1366 3272 1645 3428 
Q 1925 3584 2291 3584 
Q 2894 3584 3203 3211 
Q 3513 2838 3513 2113 
z
" transform="scale(0.015625)"/>
     <path id="DejaVuSans-6b" d="M 581 4863 
L 1159 4863 
L 1159 1991 
L 2875 3500 
L 3609 3500 
L 1753 1863 
L 3688 0 
L 2938 0 
L 1159 1709 
L 1159 0 
L 581 0 
L 581 4863 
z
" transform="scale(0.015625)"/>
    </defs>
    <use xlink:href="#DejaVuSans-43"/>
    <use xlink:href="#DejaVuSans-6f" x="69.824219"/>
    <use xlink:href="#DejaVuSans-6d" x="131.005859"/>
    <use xlink:href="#DejaVuSans-70" x="228.417969"/>
    <use xlink:href="#DejaVuSans-6f" x="291.894531"/>
    <use xlink:href="#DejaVuSans-75" x="353.076172"/>
    <use xlink:href="#DejaVuSans-6e" x="416.455078"/>
    <use xlink:href="#DejaVuSans-64" x="479.833984"/>
    <use xlink:href="#DejaVuSans-20" x="543.310547"/>
    <use xlink:href="#DejaVuSans-36" x="575.097656"/>
    <use xlink:href="#DejaVuSans-31" x="638.720703"/>
    <use xlink:href="#DejaVuSans-2e" x="702.34375"/>
    <use xlink:href="#DejaVuSans-20" x="734.130859"/>
    <use xlink:href="#DejaVuSans-52" x="765.917969"/>
    <use xlink:href="#DejaVuSans-64" x="835.400391"/>
    <use xlink:href="#DejaVuSans-6b" x="898.876953"/>
    <use xlink:href="#DejaVuSans-69" x="956.787109"/>
    <use xlink:href="#DejaVuSans-74" x="984.570312"/>
   </g>
  </g>
 </g>
 <defs>
  <clipPath id="p98aa3fbe49">
   <rect x="50.8925" y="47.04" width="59.5015" height="225.747788"/>
  </clipPath>
  <clipPath id="p7979c0e939">
   <rect x="164.594" y="47.04" width="59.5015" height="225.747788"/>
  </clipPath>
  <clipPath id="p1cea3c874e">
   <rect x="278.2955" y="47.04" width="59.5015" height="225.747788"/>
  </clipPath>
  <clipPath id="p64250253ff">
   <rect x="391.997" y="47.04" width="59.5015" height="225.747788"/>
  </clipPath>
  <clipPath id="pf4fff17c55">
   <rect x="505.6985" y="47.04" width="59.5015" height="225.747788"/>
  </clipPath>
 </defs>
</svg>
