<?xml version="1.0" encoding="utf-8" standalone="no"?>
<!DOCTYPE svg PUBLIC "-//W3C//DTD SVG 1.1//EN"
  "http://www.w3.org/Graphics/SVG/1.1/DTD/svg11.dtd">
<svg xmlns:xlink="http://www.w3.org/1999/xlink" width="576pt" height="288pt" viewBox="0 0 576 288" xmlns="http://www.w3.org/2000/svg" version="1.1">
 <metadata>
  <rdf:RDF xmlns:dc="http://purl.org/dc/elements/1.1/" xmlns:cc="http://creativecommons.org/ns#" xmlns:rdf="http://www.w3.org/1999/02/22-rdf-syntax-ns#">
   <cc:Work>
    <dc:type rdf:resource="http://purl.org/dc/dcmitype/StillImage"/>
    <dc:date>2023-05-31T12:24:06.372432</dc:date>
    <dc:format>image/svg+xml</dc:format>
    <dc:creator>
     <cc:Agent>
      <dc:title>Matplotlib v3.5.3, https://matplotlib.org/</dc:title>
     </cc:Agent>
    </dc:creator>
   </cc:Work>
  </rdf:RDF>
 </metadata>
 <defs>
  <style type="text/css">*{stroke-linejoin: round; stroke-linecap: butt}</style>
 </defs>
 <g id="figure_1">
  <g id="patch_1">
   <path d="M 0 288 
L 576 288 
L 576 0 
L 0 0 
z
" style="fill: #ffffff"/>
  </g>
  <g id="axes_1">
   <g id="patch_2">
    <path d="M 57.2825 272.141053 
L 112.05 272.141053 
L 112.05 47.04 
L 57.2825 47.04 
z
" style="fill: #ffffff"/>
   </g>
   <g id="PolyCollection_1">
    <path d="M 85.300744 261.909187 
L 84.031756 261.909187 
L 83.924527 259.842143 
L 83.799124 257.775099 
L 83.652296 255.708056 
L 83.481075 253.641012 
L 83.28312 251.573968 
L 83.057011 249.506925 
L 82.802432 247.439881 
L 82.520205 245.372837 
L 82.212167 243.305794 
L 81.880899 241.23875 
L 81.529358 239.171707 
L 81.160485 237.104663 
L 80.776839 235.037619 
L 80.38036 232.970576 
L 79.972264 230.903532 
L 79.553117 228.836488 
L 79.123044 226.769445 
L 78.682025 224.702401 
L 78.230208 222.635357 
L 77.768147 220.568314 
L 77.296917 218.50127 
L 76.818046 216.434226 
L 76.333286 214.367183 
L 75.844232 212.300139 
L 75.351884 210.233096 
L 74.856206 208.166052 
L 74.355812 206.099008 
L 73.847815 204.031965 
L 73.32793 201.964921 
L 72.790818 199.897877 
L 72.23065 197.830834 
L 71.641828 195.76379 
L 71.01976 193.696746 
L 70.361571 191.629703 
L 69.666661 189.562659 
L 68.937012 187.495615 
L 68.177226 185.428572 
L 67.394293 183.361528 
L 66.59715 181.294485 
L 65.796123 179.227441 
L 65.002343 177.160397 
L 64.227239 175.093354 
L 63.482157 173.02631 
L 62.778136 170.959266 
L 62.125802 168.892223 
L 61.535339 166.825179 
L 61.016438 164.758135 
L 60.578162 162.691092 
L 60.228677 160.624048 
L 59.974842 158.557004 
L 59.821695 156.489961 
L 59.771932 154.422917 
L 59.825482 152.355874 
L 59.979283 150.28883 
L 60.227332 148.221786 
L 60.561047 146.154743 
L 60.969907 144.087699 
L 61.442294 142.020655 
L 61.966425 139.953612 
L 62.53126 137.886568 
L 63.127258 135.819524 
L 63.746906 133.752481 
L 64.384963 131.685437 
L 65.038408 129.618394 
L 65.706122 127.55135 
L 66.38836 125.484306 
L 67.086094 123.417263 
L 67.800328 121.350219 
L 68.531466 119.283175 
L 69.278812 117.216132 
L 70.040267 115.149088 
L 70.812225 113.082044 
L 71.589679 111.015001 
L 72.366488 108.947957 
L 73.135765 106.880913 
L 73.890332 104.81387 
L 74.623175 102.746826 
L 75.327868 100.679783 
L 75.998922 98.612739 
L 76.632047 96.545695 
L 77.224315 94.478652 
L 77.774219 92.411608 
L 78.281644 90.344564 
L 78.747761 88.277521 
L 79.174864 86.210477 
L 79.566173 84.143433 
L 79.92561 82.07639 
L 80.257575 80.009346 
L 80.566705 77.942302 
L 80.857643 75.875259 
L 81.134786 73.808215 
L 81.402041 71.741172 
L 81.662591 69.674128 
L 81.918693 67.607084 
L 82.171535 65.540041 
L 82.421184 63.472997 
L 82.666639 61.405953 
L 82.905985 59.33891 
L 83.136658 57.271866 
L 86.195842 57.271866 
L 86.195842 57.271866 
L 86.426515 59.33891 
L 86.665861 61.405953 
L 86.911316 63.472997 
L 87.160965 65.540041 
L 87.413807 67.607084 
L 87.669909 69.674128 
L 87.930459 71.741172 
L 88.197714 73.808215 
L 88.474857 75.875259 
L 88.765795 77.942302 
L 89.074925 80.009346 
L 89.40689 82.07639 
L 89.766327 84.143433 
L 90.157636 86.210477 
L 90.584739 88.277521 
L 91.050856 90.344564 
L 91.558281 92.411608 
L 92.108185 94.478652 
L 92.700453 96.545695 
L 93.333578 98.612739 
L 94.004632 100.679783 
L 94.709325 102.746826 
L 95.442168 104.81387 
L 96.196735 106.880913 
L 96.966012 108.947957 
L 97.742821 111.015001 
L 98.520275 113.082044 
L 99.292233 115.149088 
L 100.053688 117.216132 
L 100.801034 119.283175 
L 101.532172 121.350219 
L 102.246406 123.417263 
L 102.94414 125.484306 
L 103.626378 127.55135 
L 104.294092 129.618394 
L 104.947537 131.685437 
L 105.585594 133.752481 
L 106.205242 135.819524 
L 106.80124 137.886568 
L 107.366075 139.953612 
L 107.890206 142.020655 
L 108.362593 144.087699 
L 108.771453 146.154743 
L 109.105168 148.221786 
L 109.353217 150.28883 
L 109.507018 152.355874 
L 109.560568 154.422917 
L 109.510805 156.489961 
L 109.357658 158.557004 
L 109.103823 160.624048 
L 108.754338 162.691092 
L 108.316062 164.758135 
L 107.797161 166.825179 
L 107.206698 168.892223 
L 106.554364 170.959266 
L 105.850343 173.02631 
L 105.105261 175.093354 
L 104.330157 177.160397 
L 103.536377 179.227441 
L 102.73535 181.294485 
L 101.938207 183.361528 
L 101.155274 185.428572 
L 100.395488 187.495615 
L 99.665839 189.562659 
L 98.970929 191.629703 
L 98.31274 193.696746 
L 97.690672 195.76379 
L 97.10185 197.830834 
L 96.541682 199.897877 
L 96.00457 201.964921 
L 95.484685 204.031965 
L 94.976688 206.099008 
L 94.476294 208.166052 
L 93.980616 210.233096 
L 93.488268 212.300139 
L 92.999214 214.367183 
L 92.514454 216.434226 
L 92.035583 218.50127 
L 91.564353 220.568314 
L 91.102292 222.635357 
L 90.650475 224.702401 
L 90.209456 226.769445 
L 89.779383 228.836488 
L 89.360236 230.903532 
L 88.95214 232.970576 
L 88.555661 235.037619 
L 88.172015 237.104663 
L 87.803142 239.171707 
L 87.451601 241.23875 
L 87.120333 243.305794 
L 86.812295 245.372837 
L 86.530068 247.439881 
L 86.275489 249.506925 
L 86.04938 251.573968 
L 85.851425 253.641012 
L 85.680204 255.708056 
L 85.533376 257.775099 
L 85.407973 259.842143 
L 85.300744 261.909187 
z
" clip-path="url(#p4946c7b5a0)" style="fill: #1f77b4; fill-opacity: 0.3"/>
   </g>
   <g id="matplotlib.axis_1">
    <g id="ytick_1">
     <g id="line2d_1">
      <defs>
       <path id="m7a69596586" d="M 0 0 
L -3.5 0 
" style="stroke: #000000; stroke-width: 0.8"/>
      </defs>
      <g>
       <use xlink:href="#m7a69596586" x="57.2825" y="254.942638" style="stroke: #000000; stroke-width: 0.8"/>
      </g>
     </g>
     <g id="text_1">
      <!-- 1.00 -->
      <g transform="translate(28.016875 258.741857)scale(0.1 -0.1)">
       <defs>
        <path id="DejaVuSans-31" d="M 794 531 
L 1825 531 
L 1825 4091 
L 703 3866 
L 703 4441 
L 1819 4666 
L 2450 4666 
L 2450 531 
L 3481 531 
L 3481 0 
L 794 0 
L 794 531 
z
" transform="scale(0.015625)"/>
        <path id="DejaVuSans-2e" d="M 684 794 
L 1344 794 
L 1344 0 
L 684 0 
L 684 794 
z
" transform="scale(0.015625)"/>
        <path id="DejaVuSans-30" d="M 2034 4250 
Q 1547 4250 1301 3770 
Q 1056 3291 1056 2328 
Q 1056 1369 1301 889 
Q 1547 409 2034 409 
Q 2525 409 2770 889 
Q 3016 1369 3016 2328 
Q 3016 3291 2770 3770 
Q 2525 4250 2034 4250 
z
M 2034 4750 
Q 2819 4750 3233 4129 
Q 3647 3509 3647 2328 
Q 3647 1150 3233 529 
Q 2819 -91 2034 -91 
Q 1250 -91 836 529 
Q 422 1150 422 2328 
Q 422 3509 836 4129 
Q 1250 4750 2034 4750 
z
" transform="scale(0.015625)"/>
       </defs>
       <use xlink:href="#DejaVuSans-31"/>
       <use xlink:href="#DejaVuSans-2e" x="63.623047"/>
       <use xlink:href="#DejaVuSans-30" x="95.410156"/>
       <use xlink:href="#DejaVuSans-30" x="159.033203"/>
      </g>
     </g>
    </g>
    <g id="ytick_2">
     <g id="line2d_2">
      <g>
       <use xlink:href="#m7a69596586" x="57.2825" y="229.076889" style="stroke: #000000; stroke-width: 0.8"/>
      </g>
     </g>
     <g id="text_2">
      <!-- 1.25 -->
      <g transform="translate(28.016875 232.876108)scale(0.1 -0.1)">
       <defs>
        <path id="DejaVuSans-32" d="M 1228 531 
L 3431 531 
L 3431 0 
L 469 0 
L 469 531 
Q 828 903 1448 1529 
Q 2069 2156 2228 2338 
Q 2531 2678 2651 2914 
Q 2772 3150 2772 3378 
Q 2772 3750 2511 3984 
Q 2250 4219 1831 4219 
Q 1534 4219 1204 4116 
Q 875 4013 500 3803 
L 500 4441 
Q 881 4594 1212 4672 
Q 1544 4750 1819 4750 
Q 2544 4750 2975 4387 
Q 3406 4025 3406 3419 
Q 3406 3131 3298 2873 
Q 3191 2616 2906 2266 
Q 2828 2175 2409 1742 
Q 1991 1309 1228 531 
z
" transform="scale(0.015625)"/>
        <path id="DejaVuSans-35" d="M 691 4666 
L 3169 4666 
L 3169 4134 
L 1269 4134 
L 1269 2991 
Q 1406 3038 1543 3061 
Q 1681 3084 1819 3084 
Q 2600 3084 3056 2656 
Q 3513 2228 3513 1497 
Q 3513 744 3044 326 
Q 2575 -91 1722 -91 
Q 1428 -91 1123 -41 
Q 819 9 494 109 
L 494 744 
Q 775 591 1075 516 
Q 1375 441 1709 441 
Q 2250 441 2565 725 
Q 2881 1009 2881 1497 
Q 2881 1984 2565 2268 
Q 2250 2553 1709 2553 
Q 1456 2553 1204 2497 
Q 953 2441 691 2322 
L 691 4666 
z
" transform="scale(0.015625)"/>
       </defs>
       <use xlink:href="#DejaVuSans-31"/>
       <use xlink:href="#DejaVuSans-2e" x="63.623047"/>
       <use xlink:href="#DejaVuSans-32" x="95.410156"/>
       <use xlink:href="#DejaVuSans-35" x="159.033203"/>
      </g>
     </g>
    </g>
    <g id="ytick_3">
     <g id="line2d_3">
      <g>
       <use xlink:href="#m7a69596586" x="57.2825" y="203.21114" style="stroke: #000000; stroke-width: 0.8"/>
      </g>
     </g>
     <g id="text_3">
      <!-- 1.50 -->
      <g transform="translate(28.016875 207.010359)scale(0.1 -0.1)">
       <use xlink:href="#DejaVuSans-31"/>
       <use xlink:href="#DejaVuSans-2e" x="63.623047"/>
       <use xlink:href="#DejaVuSans-35" x="95.410156"/>
       <use xlink:href="#DejaVuSans-30" x="159.033203"/>
      </g>
     </g>
    </g>
    <g id="ytick_4">
     <g id="line2d_4">
      <g>
       <use xlink:href="#m7a69596586" x="57.2825" y="177.345391" style="stroke: #000000; stroke-width: 0.8"/>
      </g>
     </g>
     <g id="text_4">
      <!-- 1.75 -->
      <g transform="translate(28.016875 181.144609)scale(0.1 -0.1)">
       <defs>
        <path id="DejaVuSans-37" d="M 525 4666 
L 3525 4666 
L 3525 4397 
L 1831 0 
L 1172 0 
L 2766 4134 
L 525 4134 
L 525 4666 
z
" transform="scale(0.015625)"/>
       </defs>
       <use xlink:href="#DejaVuSans-31"/>
       <use xlink:href="#DejaVuSans-2e" x="63.623047"/>
       <use xlink:href="#DejaVuSans-37" x="95.410156"/>
       <use xlink:href="#DejaVuSans-35" x="159.033203"/>
      </g>
     </g>
    </g>
    <g id="ytick_5">
     <g id="line2d_5">
      <g>
       <use xlink:href="#m7a69596586" x="57.2825" y="151.479642" style="stroke: #000000; stroke-width: 0.8"/>
      </g>
     </g>
     <g id="text_5">
      <!-- 2.00 -->
      <g transform="translate(28.016875 155.27886)scale(0.1 -0.1)">
       <use xlink:href="#DejaVuSans-32"/>
       <use xlink:href="#DejaVuSans-2e" x="63.623047"/>
       <use xlink:href="#DejaVuSans-30" x="95.410156"/>
       <use xlink:href="#DejaVuSans-30" x="159.033203"/>
      </g>
     </g>
    </g>
    <g id="ytick_6">
     <g id="line2d_6">
      <g>
       <use xlink:href="#m7a69596586" x="57.2825" y="125.613892" style="stroke: #000000; stroke-width: 0.8"/>
      </g>
     </g>
     <g id="text_6">
      <!-- 2.25 -->
      <g transform="translate(28.016875 129.413111)scale(0.1 -0.1)">
       <use xlink:href="#DejaVuSans-32"/>
       <use xlink:href="#DejaVuSans-2e" x="63.623047"/>
       <use xlink:href="#DejaVuSans-32" x="95.410156"/>
       <use xlink:href="#DejaVuSans-35" x="159.033203"/>
      </g>
     </g>
    </g>
    <g id="ytick_7">
     <g id="line2d_7">
      <g>
       <use xlink:href="#m7a69596586" x="57.2825" y="99.748143" style="stroke: #000000; stroke-width: 0.8"/>
      </g>
     </g>
     <g id="text_7">
      <!-- 2.50 -->
      <g transform="translate(28.016875 103.547362)scale(0.1 -0.1)">
       <use xlink:href="#DejaVuSans-32"/>
       <use xlink:href="#DejaVuSans-2e" x="63.623047"/>
       <use xlink:href="#DejaVuSans-35" x="95.410156"/>
       <use xlink:href="#DejaVuSans-30" x="159.033203"/>
      </g>
     </g>
    </g>
    <g id="ytick_8">
     <g id="line2d_8">
      <g>
       <use xlink:href="#m7a69596586" x="57.2825" y="73.882394" style="stroke: #000000; stroke-width: 0.8"/>
      </g>
     </g>
     <g id="text_8">
      <!-- 2.75 -->
      <g transform="translate(28.016875 77.681613)scale(0.1 -0.1)">
       <use xlink:href="#DejaVuSans-32"/>
       <use xlink:href="#DejaVuSans-2e" x="63.623047"/>
       <use xlink:href="#DejaVuSans-37" x="95.410156"/>
       <use xlink:href="#DejaVuSans-35" x="159.033203"/>
      </g>
     </g>
    </g>
    <g id="ytick_9">
     <g id="line2d_9">
      <g>
       <use xlink:href="#m7a69596586" x="57.2825" y="48.016645" style="stroke: #000000; stroke-width: 0.8"/>
      </g>
     </g>
     <g id="text_9">
      <!-- 3.00 -->
      <g transform="translate(28.016875 51.815864)scale(0.1 -0.1)">
       <defs>
        <path id="DejaVuSans-33" d="M 2597 2516 
Q 3050 2419 3304 2112 
Q 3559 1806 3559 1356 
Q 3559 666 3084 287 
Q 2609 -91 1734 -91 
Q 1441 -91 1130 -33 
Q 819 25 488 141 
L 488 750 
Q 750 597 1062 519 
Q 1375 441 1716 441 
Q 2309 441 2620 675 
Q 2931 909 2931 1356 
Q 2931 1769 2642 2001 
Q 2353 2234 1838 2234 
L 1294 2234 
L 1294 2753 
L 1863 2753 
Q 2328 2753 2575 2939 
Q 2822 3125 2822 3475 
Q 2822 3834 2567 4026 
Q 2313 4219 1838 4219 
Q 1578 4219 1281 4162 
Q 984 4106 628 3988 
L 628 4550 
Q 988 4650 1302 4700 
Q 1616 4750 1894 4750 
Q 2613 4750 3031 4423 
Q 3450 4097 3450 3541 
Q 3450 3153 3228 2886 
Q 3006 2619 2597 2516 
z
" transform="scale(0.015625)"/>
       </defs>
       <use xlink:href="#DejaVuSans-33"/>
       <use xlink:href="#DejaVuSans-2e" x="63.623047"/>
       <use xlink:href="#DejaVuSans-30" x="95.410156"/>
       <use xlink:href="#DejaVuSans-30" x="159.033203"/>
      </g>
     </g>
    </g>
    <g id="text_10">
     <!-- RMSD [$\AA$] -->
     <g transform="translate(21.937187 183.340526)rotate(-90)scale(0.1 -0.1)">
      <defs>
       <path id="DejaVuSans-52" d="M 2841 2188 
Q 3044 2119 3236 1894 
Q 3428 1669 3622 1275 
L 4263 0 
L 3584 0 
L 2988 1197 
Q 2756 1666 2539 1819 
Q 2322 1972 1947 1972 
L 1259 1972 
L 1259 0 
L 628 0 
L 628 4666 
L 2053 4666 
Q 2853 4666 3247 4331 
Q 3641 3997 3641 3322 
Q 3641 2881 3436 2590 
Q 3231 2300 2841 2188 
z
M 1259 4147 
L 1259 2491 
L 2053 2491 
Q 2509 2491 2742 2702 
Q 2975 2913 2975 3322 
Q 2975 3731 2742 3939 
Q 2509 4147 2053 4147 
L 1259 4147 
z
" transform="scale(0.015625)"/>
       <path id="DejaVuSans-4d" d="M 628 4666 
L 1569 4666 
L 2759 1491 
L 3956 4666 
L 4897 4666 
L 4897 0 
L 4281 0 
L 4281 4097 
L 3078 897 
L 2444 897 
L 1241 4097 
L 1241 0 
L 628 0 
L 628 4666 
z
" transform="scale(0.015625)"/>
       <path id="DejaVuSans-53" d="M 3425 4513 
L 3425 3897 
Q 3066 4069 2747 4153 
Q 2428 4238 2131 4238 
Q 1616 4238 1336 4038 
Q 1056 3838 1056 3469 
Q 1056 3159 1242 3001 
Q 1428 2844 1947 2747 
L 2328 2669 
Q 3034 2534 3370 2195 
Q 3706 1856 3706 1288 
Q 3706 609 3251 259 
Q 2797 -91 1919 -91 
Q 1588 -91 1214 -16 
Q 841 59 441 206 
L 441 856 
Q 825 641 1194 531 
Q 1563 422 1919 422 
Q 2459 422 2753 634 
Q 3047 847 3047 1241 
Q 3047 1584 2836 1778 
Q 2625 1972 2144 2069 
L 1759 2144 
Q 1053 2284 737 2584 
Q 422 2884 422 3419 
Q 422 4038 858 4394 
Q 1294 4750 2059 4750 
Q 2388 4750 2728 4690 
Q 3069 4631 3425 4513 
z
" transform="scale(0.015625)"/>
       <path id="DejaVuSans-44" d="M 1259 4147 
L 1259 519 
L 2022 519 
Q 2988 519 3436 956 
Q 3884 1394 3884 2338 
Q 3884 3275 3436 3711 
Q 2988 4147 2022 4147 
L 1259 4147 
z
M 628 4666 
L 1925 4666 
Q 3281 4666 3915 4102 
Q 4550 3538 4550 2338 
Q 4550 1131 3912 565 
Q 3275 0 1925 0 
L 628 0 
L 628 4666 
z
" transform="scale(0.015625)"/>
       <path id="DejaVuSans-20" transform="scale(0.015625)"/>
       <path id="DejaVuSans-5b" d="M 550 4863 
L 1875 4863 
L 1875 4416 
L 1125 4416 
L 1125 -397 
L 1875 -397 
L 1875 -844 
L 550 -844 
L 550 4863 
z
" transform="scale(0.015625)"/>
       <path id="DejaVuSans-Oblique-c5" d="M 3188 5081 
Q 3188 5278 3048 5417 
Q 2909 5556 2713 5556 
Q 2513 5556 2377 5420 
Q 2241 5284 2241 5081 
Q 2241 4884 2377 4746 
Q 2513 4609 2713 4609 
Q 2909 4609 3048 4746 
Q 3188 4884 3188 5081 
z
M 2203 4397 
Q 2034 4513 1945 4689 
Q 1856 4866 1856 5081 
Q 1856 5438 2106 5689 
Q 2356 5941 2713 5941 
Q 3069 5941 3320 5689 
Q 3572 5438 3572 5081 
Q 3572 4834 3458 4643 
Q 3344 4453 3128 4341 
L 3938 0 
L 3278 0 
L 3084 1197 
L 984 1197 
L 325 0 
L -341 0 
L 2203 4397 
z
M 2584 4044 
L 1275 1722 
L 2988 1722 
L 2584 4044 
z
" transform="scale(0.015625)"/>
       <path id="DejaVuSans-5d" d="M 1947 4863 
L 1947 -844 
L 622 -844 
L 622 -397 
L 1369 -397 
L 1369 4416 
L 622 4416 
L 622 4863 
L 1947 4863 
z
" transform="scale(0.015625)"/>
      </defs>
      <use xlink:href="#DejaVuSans-52" transform="translate(0 0.171875)"/>
      <use xlink:href="#DejaVuSans-4d" transform="translate(69.482422 0.171875)"/>
      <use xlink:href="#DejaVuSans-53" transform="translate(155.761719 0.171875)"/>
      <use xlink:href="#DejaVuSans-44" transform="translate(219.238281 0.171875)"/>
      <use xlink:href="#DejaVuSans-20" transform="translate(296.240234 0.171875)"/>
      <use xlink:href="#DejaVuSans-5b" transform="translate(328.027344 0.171875)"/>
      <use xlink:href="#DejaVuSans-Oblique-c5" transform="translate(367.041016 0.171875)"/>
      <use xlink:href="#DejaVuSans-5d" transform="translate(435.449219 0.171875)"/>
     </g>
    </g>
   </g>
   <g id="LineCollection_1">
    <path d="M 72.219091 154.781501 
L 97.113409 154.781501 
" clip-path="url(#p4946c7b5a0)" style="fill: none; stroke: #1f77b4; stroke-width: 1.5"/>
   </g>
   <g id="LineCollection_2">
    <path d="M 72.219091 57.271866 
L 97.113409 57.271866 
" clip-path="url(#p4946c7b5a0)" style="fill: none; stroke: #1f77b4; stroke-width: 1.5"/>
   </g>
   <g id="LineCollection_3">
    <path d="M 72.219091 261.909187 
L 97.113409 261.909187 
" clip-path="url(#p4946c7b5a0)" style="fill: none; stroke: #1f77b4; stroke-width: 1.5"/>
   </g>
   <g id="LineCollection_4">
    <path d="M 84.66625 261.909187 
L 84.66625 57.271866 
" clip-path="url(#p4946c7b5a0)" style="fill: none; stroke: #1f77b4; stroke-width: 1.5"/>
   </g>
   <g id="patch_3">
    <path d="M 57.2825 272.141053 
L 57.2825 47.04 
" style="fill: none; stroke: #000000; stroke-width: 0.8; stroke-linejoin: miter; stroke-linecap: square"/>
   </g>
   <g id="patch_4">
    <path d="M 112.05 272.141053 
L 112.05 47.04 
" style="fill: none; stroke: #000000; stroke-width: 0.8; stroke-linejoin: miter; stroke-linecap: square"/>
   </g>
   <g id="patch_5">
    <path d="M 57.2825 272.141053 
L 112.05 272.141053 
" style="fill: none; stroke: #000000; stroke-width: 0.8; stroke-linejoin: miter; stroke-linecap: square"/>
   </g>
   <g id="patch_6">
    <path d="M 57.2825 47.04 
L 112.05 47.04 
" style="fill: none; stroke: #000000; stroke-width: 0.8; stroke-linejoin: miter; stroke-linecap: square"/>
   </g>
   <g id="text_11">
    <!-- RMSD -->
    <g transform="translate(66.89125 41.04)scale(0.12 -0.12)">
     <use xlink:href="#DejaVuSans-52"/>
     <use xlink:href="#DejaVuSans-4d" x="69.482422"/>
     <use xlink:href="#DejaVuSans-53" x="155.761719"/>
     <use xlink:href="#DejaVuSans-44" x="219.238281"/>
    </g>
   </g>
  </g>
  <g id="axes_2">
   <g id="patch_7">
    <path d="M 170.57 272.141053 
L 225.3375 272.141053 
L 225.3375 47.04 
L 170.57 47.04 
z
" style="fill: #ffffff"/>
   </g>
   <g id="PolyCollection_2">
    <path d="M 198.858724 261.909187 
L 197.048776 261.909187 
L 196.881968 259.842143 
L 196.68778 257.775099 
L 196.462542 255.708056 
L 196.20305 253.641012 
L 195.906959 251.573968 
L 195.573126 249.506925 
L 195.201834 247.439881 
L 194.794851 245.372837 
L 194.355316 243.305794 
L 193.887447 241.23875 
L 193.396142 239.171707 
L 192.886543 237.104663 
L 192.363641 235.037619 
L 191.831999 232.970576 
L 191.295631 230.903532 
L 190.758023 228.836488 
L 190.222262 226.769445 
L 189.691171 224.702401 
L 189.167391 222.635357 
L 188.65331 220.568314 
L 188.150836 218.50127 
L 187.661026 216.434226 
L 187.183637 214.367183 
L 186.716734 212.300139 
L 186.256431 210.233096 
L 185.796889 208.166052 
L 185.330579 206.099008 
L 184.848818 204.031965 
L 184.342496 201.964921 
L 183.802898 199.897877 
L 183.222518 197.830834 
L 182.595799 195.76379 
L 181.919736 193.696746 
L 181.194354 191.629703 
L 180.423068 189.562659 
L 179.612938 187.495615 
L 178.774812 185.428572 
L 177.923308 183.361528 
L 177.076564 181.294485 
L 176.255681 179.227441 
L 175.483789 177.160397 
L 174.784746 175.093354 
L 174.181525 173.02631 
L 173.694448 170.959266 
L 173.339461 168.892223 
L 173.126683 166.825179 
L 173.059432 164.758135 
L 173.133881 162.691092 
L 173.339392 160.624048 
L 173.659479 158.557004 
L 174.073261 156.489961 
L 174.557201 154.422917 
L 175.086906 152.355874 
L 175.638773 150.28883 
L 176.191359 148.221786 
L 176.726368 146.154743 
L 177.229302 144.087699 
L 177.689811 142.020655 
L 178.101847 139.953612 
L 178.463712 137.886568 
L 178.77805 135.819524 
L 179.051763 133.752481 
L 179.295823 131.685437 
L 179.524867 129.618394 
L 179.756501 127.55135 
L 180.010235 125.484306 
L 180.306064 123.417263 
L 180.662767 121.350219 
L 181.096082 119.283175 
L 181.616976 117.216132 
L 182.230252 115.149088 
L 182.933733 113.082044 
L 183.718154 111.015001 
L 184.567869 108.947957 
L 185.462278 106.880913 
L 186.377832 104.81387 
L 187.290333 102.746826 
L 188.177234 100.679783 
L 189.01961 98.612739 
L 189.803567 96.545695 
L 190.520918 94.478652 
L 191.1691 92.411608 
L 191.750422 90.344564 
L 192.270813 88.277521 
L 192.73834 86.210477 
L 193.161733 84.143433 
L 193.549145 82.07639 
L 193.907303 80.009346 
L 194.241103 77.942302 
L 194.553637 75.875259 
L 194.846538 73.808215 
L 195.120517 71.741172 
L 195.375925 69.674128 
L 195.613237 67.607084 
L 195.833337 65.540041 
L 196.037606 63.472997 
L 196.227816 61.405953 
L 196.405885 59.33891 
L 196.573589 57.271866 
L 199.333911 57.271866 
L 199.333911 57.271866 
L 199.501615 59.33891 
L 199.679684 61.405953 
L 199.869894 63.472997 
L 200.074163 65.540041 
L 200.294263 67.607084 
L 200.531575 69.674128 
L 200.786983 71.741172 
L 201.060962 73.808215 
L 201.353863 75.875259 
L 201.666397 77.942302 
L 202.000197 80.009346 
L 202.358355 82.07639 
L 202.745767 84.143433 
L 203.16916 86.210477 
L 203.636687 88.277521 
L 204.157078 90.344564 
L 204.7384 92.411608 
L 205.386582 94.478652 
L 206.103933 96.545695 
L 206.88789 98.612739 
L 207.730266 100.679783 
L 208.617167 102.746826 
L 209.529668 104.81387 
L 210.445222 106.880913 
L 211.339631 108.947957 
L 212.189346 111.015001 
L 212.973767 113.082044 
L 213.677248 115.149088 
L 214.290524 117.216132 
L 214.811418 119.283175 
L 215.244733 121.350219 
L 215.601436 123.417263 
L 215.897265 125.484306 
L 216.150999 127.55135 
L 216.382633 129.618394 
L 216.611677 131.685437 
L 216.855737 133.752481 
L 217.12945 135.819524 
L 217.443788 137.886568 
L 217.805653 139.953612 
L 218.217689 142.020655 
L 218.678198 144.087699 
L 219.181132 146.154743 
L 219.716141 148.221786 
L 220.268727 150.28883 
L 220.820594 152.355874 
L 221.350299 154.422917 
L 221.834239 156.489961 
L 222.248021 158.557004 
L 222.568108 160.624048 
L 222.773619 162.691092 
L 222.848068 164.758135 
L 222.780817 166.825179 
L 222.568039 168.892223 
L 222.213052 170.959266 
L 221.725975 173.02631 
L 221.122754 175.093354 
L 220.423711 177.160397 
L 219.651819 179.227441 
L 218.830936 181.294485 
L 217.984192 183.361528 
L 217.132688 185.428572 
L 216.294562 187.495615 
L 215.484432 189.562659 
L 214.713146 191.629703 
L 213.987764 193.696746 
L 213.311701 195.76379 
L 212.684982 197.830834 
L 212.104602 199.897877 
L 211.565004 201.964921 
L 211.058682 204.031965 
L 210.576921 206.099008 
L 210.110611 208.166052 
L 209.651069 210.233096 
L 209.190766 212.300139 
L 208.723863 214.367183 
L 208.246474 216.434226 
L 207.756664 218.50127 
L 207.25419 220.568314 
L 206.740109 222.635357 
L 206.216329 224.702401 
L 205.685238 226.769445 
L 205.149477 228.836488 
L 204.611869 230.903532 
L 204.075501 232.970576 
L 203.543859 235.037619 
L 203.020957 237.104663 
L 202.511358 239.171707 
L 202.020053 241.23875 
L 201.552184 243.305794 
L 201.112649 245.372837 
L 200.705666 247.439881 
L 200.334374 249.506925 
L 200.000541 251.573968 
L 199.70445 253.641012 
L 199.444958 255.708056 
L 199.21972 257.775099 
L 199.025532 259.842143 
L 198.858724 261.909187 
z
" clip-path="url(#pcef034c7e8)" style="fill: #1f77b4; fill-opacity: 0.3"/>
   </g>
   <g id="matplotlib.axis_2">
    <g id="ytick_10">
     <g id="line2d_10">
      <g>
       <use xlink:href="#m7a69596586" x="170.57" y="243.857128" style="stroke: #000000; stroke-width: 0.8"/>
      </g>
     </g>
     <g id="text_12">
      <!-- 0.8 -->
      <g transform="translate(147.666875 247.656346)scale(0.1 -0.1)">
       <defs>
        <path id="DejaVuSans-38" d="M 2034 2216 
Q 1584 2216 1326 1975 
Q 1069 1734 1069 1313 
Q 1069 891 1326 650 
Q 1584 409 2034 409 
Q 2484 409 2743 651 
Q 3003 894 3003 1313 
Q 3003 1734 2745 1975 
Q 2488 2216 2034 2216 
z
M 1403 2484 
Q 997 2584 770 2862 
Q 544 3141 544 3541 
Q 544 4100 942 4425 
Q 1341 4750 2034 4750 
Q 2731 4750 3128 4425 
Q 3525 4100 3525 3541 
Q 3525 3141 3298 2862 
Q 3072 2584 2669 2484 
Q 3125 2378 3379 2068 
Q 3634 1759 3634 1313 
Q 3634 634 3220 271 
Q 2806 -91 2034 -91 
Q 1263 -91 848 271 
Q 434 634 434 1313 
Q 434 1759 690 2068 
Q 947 2378 1403 2484 
z
M 1172 3481 
Q 1172 3119 1398 2916 
Q 1625 2713 2034 2713 
Q 2441 2713 2670 2916 
Q 2900 3119 2900 3481 
Q 2900 3844 2670 4047 
Q 2441 4250 2034 4250 
Q 1625 4250 1398 4047 
Q 1172 3844 1172 3481 
z
" transform="scale(0.015625)"/>
       </defs>
       <use xlink:href="#DejaVuSans-30"/>
       <use xlink:href="#DejaVuSans-2e" x="63.623047"/>
       <use xlink:href="#DejaVuSans-38" x="95.410156"/>
      </g>
     </g>
    </g>
    <g id="ytick_11">
     <g id="line2d_11">
      <g>
       <use xlink:href="#m7a69596586" x="170.57" y="200.268748" style="stroke: #000000; stroke-width: 0.8"/>
      </g>
     </g>
     <g id="text_13">
      <!-- 1.0 -->
      <g transform="translate(147.666875 204.067966)scale(0.1 -0.1)">
       <use xlink:href="#DejaVuSans-31"/>
       <use xlink:href="#DejaVuSans-2e" x="63.623047"/>
       <use xlink:href="#DejaVuSans-30" x="95.410156"/>
      </g>
     </g>
    </g>
    <g id="ytick_12">
     <g id="line2d_12">
      <g>
       <use xlink:href="#m7a69596586" x="170.57" y="156.680367" style="stroke: #000000; stroke-width: 0.8"/>
      </g>
     </g>
     <g id="text_14">
      <!-- 1.2 -->
      <g transform="translate(147.666875 160.479586)scale(0.1 -0.1)">
       <use xlink:href="#DejaVuSans-31"/>
       <use xlink:href="#DejaVuSans-2e" x="63.623047"/>
       <use xlink:href="#DejaVuSans-32" x="95.410156"/>
      </g>
     </g>
    </g>
    <g id="ytick_13">
     <g id="line2d_13">
      <g>
       <use xlink:href="#m7a69596586" x="170.57" y="113.091987" style="stroke: #000000; stroke-width: 0.8"/>
      </g>
     </g>
     <g id="text_15">
      <!-- 1.4 -->
      <g transform="translate(147.666875 116.891206)scale(0.1 -0.1)">
       <defs>
        <path id="DejaVuSans-34" d="M 2419 4116 
L 825 1625 
L 2419 1625 
L 2419 4116 
z
M 2253 4666 
L 3047 4666 
L 3047 1625 
L 3713 1625 
L 3713 1100 
L 3047 1100 
L 3047 0 
L 2419 0 
L 2419 1100 
L 313 1100 
L 313 1709 
L 2253 4666 
z
" transform="scale(0.015625)"/>
       </defs>
       <use xlink:href="#DejaVuSans-31"/>
       <use xlink:href="#DejaVuSans-2e" x="63.623047"/>
       <use xlink:href="#DejaVuSans-34" x="95.410156"/>
      </g>
     </g>
    </g>
    <g id="ytick_14">
     <g id="line2d_14">
      <g>
       <use xlink:href="#m7a69596586" x="170.57" y="69.503607" style="stroke: #000000; stroke-width: 0.8"/>
      </g>
     </g>
     <g id="text_16">
      <!-- 1.6 -->
      <g transform="translate(147.666875 73.302826)scale(0.1 -0.1)">
       <defs>
        <path id="DejaVuSans-36" d="M 2113 2584 
Q 1688 2584 1439 2293 
Q 1191 2003 1191 1497 
Q 1191 994 1439 701 
Q 1688 409 2113 409 
Q 2538 409 2786 701 
Q 3034 994 3034 1497 
Q 3034 2003 2786 2293 
Q 2538 2584 2113 2584 
z
M 3366 4563 
L 3366 3988 
Q 3128 4100 2886 4159 
Q 2644 4219 2406 4219 
Q 1781 4219 1451 3797 
Q 1122 3375 1075 2522 
Q 1259 2794 1537 2939 
Q 1816 3084 2150 3084 
Q 2853 3084 3261 2657 
Q 3669 2231 3669 1497 
Q 3669 778 3244 343 
Q 2819 -91 2113 -91 
Q 1303 -91 875 529 
Q 447 1150 447 2328 
Q 447 3434 972 4092 
Q 1497 4750 2381 4750 
Q 2619 4750 2861 4703 
Q 3103 4656 3366 4563 
z
" transform="scale(0.015625)"/>
       </defs>
       <use xlink:href="#DejaVuSans-31"/>
       <use xlink:href="#DejaVuSans-2e" x="63.623047"/>
       <use xlink:href="#DejaVuSans-36" x="95.410156"/>
      </g>
     </g>
    </g>
    <g id="text_17">
     <!-- MAE [$\AA$] -->
     <g transform="translate(141.587187 179.440526)rotate(-90)scale(0.1 -0.1)">
      <defs>
       <path id="DejaVuSans-41" d="M 2188 4044 
L 1331 1722 
L 3047 1722 
L 2188 4044 
z
M 1831 4666 
L 2547 4666 
L 4325 0 
L 3669 0 
L 3244 1197 
L 1141 1197 
L 716 0 
L 50 0 
L 1831 4666 
z
" transform="scale(0.015625)"/>
       <path id="DejaVuSans-45" d="M 628 4666 
L 3578 4666 
L 3578 4134 
L 1259 4134 
L 1259 2753 
L 3481 2753 
L 3481 2222 
L 1259 2222 
L 1259 531 
L 3634 531 
L 3634 0 
L 628 0 
L 628 4666 
z
" transform="scale(0.015625)"/>
      </defs>
      <use xlink:href="#DejaVuSans-4d" transform="translate(0 0.171875)"/>
      <use xlink:href="#DejaVuSans-41" transform="translate(86.279297 0.171875)"/>
      <use xlink:href="#DejaVuSans-45" transform="translate(154.6875 0.171875)"/>
      <use xlink:href="#DejaVuSans-20" transform="translate(217.871094 0.171875)"/>
      <use xlink:href="#DejaVuSans-5b" transform="translate(249.658203 0.171875)"/>
      <use xlink:href="#DejaVuSans-Oblique-c5" transform="translate(288.671875 0.171875)"/>
      <use xlink:href="#DejaVuSans-5d" transform="translate(357.080078 0.171875)"/>
     </g>
    </g>
   </g>
   <g id="LineCollection_5">
    <path d="M 185.506591 158.898553 
L 210.400909 158.898553 
" clip-path="url(#pcef034c7e8)" style="fill: none; stroke: #1f77b4; stroke-width: 1.5"/>
   </g>
   <g id="LineCollection_6">
    <path d="M 185.506591 57.271866 
L 210.400909 57.271866 
" clip-path="url(#pcef034c7e8)" style="fill: none; stroke: #1f77b4; stroke-width: 1.5"/>
   </g>
   <g id="LineCollection_7">
    <path d="M 185.506591 261.909187 
L 210.400909 261.909187 
" clip-path="url(#pcef034c7e8)" style="fill: none; stroke: #1f77b4; stroke-width: 1.5"/>
   </g>
   <g id="LineCollection_8">
    <path d="M 197.95375 261.909187 
L 197.95375 57.271866 
" clip-path="url(#pcef034c7e8)" style="fill: none; stroke: #1f77b4; stroke-width: 1.5"/>
   </g>
   <g id="patch_8">
    <path d="M 170.57 272.141053 
L 170.57 47.04 
" style="fill: none; stroke: #000000; stroke-width: 0.8; stroke-linejoin: miter; stroke-linecap: square"/>
   </g>
   <g id="patch_9">
    <path d="M 225.3375 272.141053 
L 225.3375 47.04 
" style="fill: none; stroke: #000000; stroke-width: 0.8; stroke-linejoin: miter; stroke-linecap: square"/>
   </g>
   <g id="patch_10">
    <path d="M 170.57 272.141053 
L 225.3375 272.141053 
" style="fill: none; stroke: #000000; stroke-width: 0.8; stroke-linejoin: miter; stroke-linecap: square"/>
   </g>
   <g id="patch_11">
    <path d="M 170.57 47.04 
L 225.3375 47.04 
" style="fill: none; stroke: #000000; stroke-width: 0.8; stroke-linejoin: miter; stroke-linecap: square"/>
   </g>
   <g id="text_18">
    <!-- MAE -->
    <g transform="translate(184.88125 41.04)scale(0.12 -0.12)">
     <use xlink:href="#DejaVuSans-4d"/>
     <use xlink:href="#DejaVuSans-41" x="86.279297"/>
     <use xlink:href="#DejaVuSans-45" x="154.6875"/>
    </g>
   </g>
  </g>
  <g id="axes_3">
   <g id="patch_12">
    <path d="M 283.8575 272.141053 
L 338.625 272.141053 
L 338.625 47.04 
L 283.8575 47.04 
z
" style="fill: #ffffff"/>
   </g>
   <g id="PolyCollection_3">
    <path d="M 313.19523 261.909187 
L 309.28727 261.909187 
L 308.996774 259.842143 
L 308.686503 257.775099 
L 308.357264 255.708056 
L 308.009724 253.641012 
L 307.64438 251.573968 
L 307.261584 249.506925 
L 306.8616 247.439881 
L 306.444712 245.372837 
L 306.011357 243.305794 
L 305.56228 241.23875 
L 305.098677 239.171707 
L 304.622315 237.104663 
L 304.135587 235.037619 
L 303.641481 232.970576 
L 303.143428 230.903532 
L 302.645032 228.836488 
L 302.149676 226.769445 
L 301.660041 224.702401 
L 301.177597 222.635357 
L 300.702134 220.568314 
L 300.231429 218.50127 
L 299.761132 216.434226 
L 299.284929 214.367183 
L 298.795011 212.300139 
L 298.282833 210.233096 
L 297.740074 208.166052 
L 297.159703 206.099008 
L 296.536979 204.031965 
L 295.870259 201.964921 
L 295.161469 199.897877 
L 294.416184 197.830834 
L 293.643288 195.76379 
L 292.854287 193.696746 
L 292.062391 191.629703 
L 291.281505 189.562659 
L 290.525298 187.495615 
L 289.806465 185.428572 
L 289.136241 183.361528 
L 288.524195 181.294485 
L 287.978224 179.227441 
L 287.504666 177.160397 
L 287.108436 175.093354 
L 286.793099 173.02631 
L 286.560844 170.959266 
L 286.4124 168.892223 
L 286.346932 166.825179 
L 286.362027 164.758135 
L 286.453842 162.691092 
L 286.617444 160.624048 
L 286.847332 158.557004 
L 287.138045 156.489961 
L 287.484749 154.422917 
L 287.883631 152.355874 
L 288.332019 150.28883 
L 288.828139 148.221786 
L 289.370559 146.154743 
L 289.9574 144.087699 
L 290.585494 142.020655 
L 291.249675 139.953612 
L 291.942367 137.886568 
L 292.6536 135.819524 
L 293.371484 133.752481 
L 294.083086 131.685437 
L 294.775593 129.618394 
L 295.437573 127.55135 
L 296.060147 125.484306 
L 296.637903 123.417263 
L 297.169421 121.350219 
L 297.657355 119.283175 
L 298.108082 117.216132 
L 298.530958 115.149088 
L 298.937321 113.082044 
L 299.339328 111.015001 
L 299.748784 108.947957 
L 300.176059 106.880913 
L 300.629194 104.81387 
L 301.113262 102.746826 
L 301.630013 100.679783 
L 302.177816 98.612739 
L 302.751881 96.545695 
L 303.344723 94.478652 
L 303.946811 92.411608 
L 304.547367 90.344564 
L 305.135213 88.277521 
L 305.69963 86.210477 
L 306.23115 84.143433 
L 306.722219 82.07639 
L 307.167681 80.009346 
L 307.565047 77.942302 
L 307.914525 75.875259 
L 308.218804 73.808215 
L 308.48264 71.741172 
L 308.712262 69.674128 
L 308.914688 67.607084 
L 309.09702 65.540041 
L 309.265791 63.472997 
L 309.42644 61.405953 
L 309.582961 59.33891 
L 309.73775 57.271866 
L 312.74475 57.271866 
L 312.74475 57.271866 
L 312.899539 59.33891 
L 313.05606 61.405953 
L 313.216709 63.472997 
L 313.38548 65.540041 
L 313.567812 67.607084 
L 313.770238 69.674128 
L 313.99986 71.741172 
L 314.263696 73.808215 
L 314.567975 75.875259 
L 314.917453 77.942302 
L 315.314819 80.009346 
L 315.760281 82.07639 
L 316.25135 84.143433 
L 316.78287 86.210477 
L 317.347287 88.277521 
L 317.935133 90.344564 
L 318.535689 92.411608 
L 319.137777 94.478652 
L 319.730619 96.545695 
L 320.304684 98.612739 
L 320.852487 100.679783 
L 321.369238 102.746826 
L 321.853306 104.81387 
L 322.306441 106.880913 
L 322.733716 108.947957 
L 323.143172 111.015001 
L 323.545179 113.082044 
L 323.951542 115.149088 
L 324.374418 117.216132 
L 324.825145 119.283175 
L 325.313079 121.350219 
L 325.844597 123.417263 
L 326.422353 125.484306 
L 327.044927 127.55135 
L 327.706907 129.618394 
L 328.399414 131.685437 
L 329.111016 133.752481 
L 329.8289 135.819524 
L 330.540133 137.886568 
L 331.232825 139.953612 
L 331.897006 142.020655 
L 332.5251 144.087699 
L 333.111941 146.154743 
L 333.654361 148.221786 
L 334.150481 150.28883 
L 334.598869 152.355874 
L 334.997751 154.422917 
L 335.344455 156.489961 
L 335.635168 158.557004 
L 335.865056 160.624048 
L 336.028658 162.691092 
L 336.120473 164.758135 
L 336.135568 166.825179 
L 336.0701 168.892223 
L 335.921656 170.959266 
L 335.689401 173.02631 
L 335.374064 175.093354 
L 334.977834 177.160397 
L 334.504276 179.227441 
L 333.958305 181.294485 
L 333.346259 183.361528 
L 332.676035 185.428572 
L 331.957202 187.495615 
L 331.200995 189.562659 
L 330.420109 191.629703 
L 329.628213 193.696746 
L 328.839212 195.76379 
L 328.066316 197.830834 
L 327.321031 199.897877 
L 326.612241 201.964921 
L 325.945521 204.031965 
L 325.322797 206.099008 
L 324.742426 208.166052 
L 324.199667 210.233096 
L 323.687489 212.300139 
L 323.197571 214.367183 
L 322.721368 216.434226 
L 322.251071 218.50127 
L 321.780366 220.568314 
L 321.304903 222.635357 
L 320.822459 224.702401 
L 320.332824 226.769445 
L 319.837468 228.836488 
L 319.339072 230.903532 
L 318.841019 232.970576 
L 318.346913 235.037619 
L 317.860185 237.104663 
L 317.383823 239.171707 
L 316.92022 241.23875 
L 316.471143 243.305794 
L 316.037788 245.372837 
L 315.6209 247.439881 
L 315.220916 249.506925 
L 314.83812 251.573968 
L 314.472776 253.641012 
L 314.125236 255.708056 
L 313.795997 257.775099 
L 313.485726 259.842143 
L 313.19523 261.909187 
z
" clip-path="url(#p177028a2a7)" style="fill: #1f77b4; fill-opacity: 0.3"/>
   </g>
   <g id="matplotlib.axis_3">
    <g id="ytick_15">
     <g id="line2d_15">
      <g>
       <use xlink:href="#m7a69596586" x="283.8575" y="238.676889" style="stroke: #000000; stroke-width: 0.8"/>
      </g>
     </g>
     <g id="text_19">
      <!-- 0.2 -->
      <g transform="translate(260.954375 242.476108)scale(0.1 -0.1)">
       <use xlink:href="#DejaVuSans-30"/>
       <use xlink:href="#DejaVuSans-2e" x="63.623047"/>
       <use xlink:href="#DejaVuSans-32" x="95.410156"/>
      </g>
     </g>
    </g>
    <g id="ytick_16">
     <g id="line2d_16">
      <g>
       <use xlink:href="#m7a69596586" x="283.8575" y="197.426261" style="stroke: #000000; stroke-width: 0.8"/>
      </g>
     </g>
     <g id="text_20">
      <!-- 0.4 -->
      <g transform="translate(260.954375 201.225479)scale(0.1 -0.1)">
       <use xlink:href="#DejaVuSans-30"/>
       <use xlink:href="#DejaVuSans-2e" x="63.623047"/>
       <use xlink:href="#DejaVuSans-34" x="95.410156"/>
      </g>
     </g>
    </g>
    <g id="ytick_17">
     <g id="line2d_17">
      <g>
       <use xlink:href="#m7a69596586" x="283.8575" y="156.175632" style="stroke: #000000; stroke-width: 0.8"/>
      </g>
     </g>
     <g id="text_21">
      <!-- 0.6 -->
      <g transform="translate(260.954375 159.974851)scale(0.1 -0.1)">
       <use xlink:href="#DejaVuSans-30"/>
       <use xlink:href="#DejaVuSans-2e" x="63.623047"/>
       <use xlink:href="#DejaVuSans-36" x="95.410156"/>
      </g>
     </g>
    </g>
    <g id="ytick_18">
     <g id="line2d_18">
      <g>
       <use xlink:href="#m7a69596586" x="283.8575" y="114.925004" style="stroke: #000000; stroke-width: 0.8"/>
      </g>
     </g>
     <g id="text_22">
      <!-- 0.8 -->
      <g transform="translate(260.954375 118.724222)scale(0.1 -0.1)">
       <use xlink:href="#DejaVuSans-30"/>
       <use xlink:href="#DejaVuSans-2e" x="63.623047"/>
       <use xlink:href="#DejaVuSans-38" x="95.410156"/>
      </g>
     </g>
    </g>
    <g id="ytick_19">
     <g id="line2d_19">
      <g>
       <use xlink:href="#m7a69596586" x="283.8575" y="73.674375" style="stroke: #000000; stroke-width: 0.8"/>
      </g>
     </g>
     <g id="text_23">
      <!-- 1.0 -->
      <g transform="translate(260.954375 77.473594)scale(0.1 -0.1)">
       <use xlink:href="#DejaVuSans-31"/>
       <use xlink:href="#DejaVuSans-2e" x="63.623047"/>
       <use xlink:href="#DejaVuSans-30" x="95.410156"/>
      </g>
     </g>
    </g>
    <g id="text_24">
     <!-- MSE [$\AA$] -->
     <g transform="translate(254.874687 179.190526)rotate(-90)scale(0.1 -0.1)">
      <use xlink:href="#DejaVuSans-4d" transform="translate(0 0.171875)"/>
      <use xlink:href="#DejaVuSans-53" transform="translate(86.279297 0.171875)"/>
      <use xlink:href="#DejaVuSans-45" transform="translate(149.755859 0.171875)"/>
      <use xlink:href="#DejaVuSans-20" transform="translate(212.939453 0.171875)"/>
      <use xlink:href="#DejaVuSans-5b" transform="translate(244.726562 0.171875)"/>
      <use xlink:href="#DejaVuSans-Oblique-c5" transform="translate(283.740234 0.171875)"/>
      <use xlink:href="#DejaVuSans-5d" transform="translate(352.148438 0.171875)"/>
     </g>
    </g>
   </g>
   <g id="LineCollection_9">
    <path d="M 298.794091 163.2008 
L 323.688409 163.2008 
" clip-path="url(#p177028a2a7)" style="fill: none; stroke: #1f77b4; stroke-width: 1.5"/>
   </g>
   <g id="LineCollection_10">
    <path d="M 298.794091 57.271866 
L 323.688409 57.271866 
" clip-path="url(#p177028a2a7)" style="fill: none; stroke: #1f77b4; stroke-width: 1.5"/>
   </g>
   <g id="LineCollection_11">
    <path d="M 298.794091 261.909187 
L 323.688409 261.909187 
" clip-path="url(#p177028a2a7)" style="fill: none; stroke: #1f77b4; stroke-width: 1.5"/>
   </g>
   <g id="LineCollection_12">
    <path d="M 311.24125 261.909187 
L 311.24125 57.271866 
" clip-path="url(#p177028a2a7)" style="fill: none; stroke: #1f77b4; stroke-width: 1.5"/>
   </g>
   <g id="patch_13">
    <path d="M 283.8575 272.141053 
L 283.8575 47.04 
" style="fill: none; stroke: #000000; stroke-width: 0.8; stroke-linejoin: miter; stroke-linecap: square"/>
   </g>
   <g id="patch_14">
    <path d="M 338.625 272.141053 
L 338.625 47.04 
" style="fill: none; stroke: #000000; stroke-width: 0.8; stroke-linejoin: miter; stroke-linecap: square"/>
   </g>
   <g id="patch_15">
    <path d="M 283.8575 272.141053 
L 338.625 272.141053 
" style="fill: none; stroke: #000000; stroke-width: 0.8; stroke-linejoin: miter; stroke-linecap: square"/>
   </g>
   <g id="patch_16">
    <path d="M 283.8575 47.04 
L 338.625 47.04 
" style="fill: none; stroke: #000000; stroke-width: 0.8; stroke-linejoin: miter; stroke-linecap: square"/>
   </g>
   <g id="text_25">
    <!-- MSE -->
    <g transform="translate(298.464062 41.04)scale(0.12 -0.12)">
     <use xlink:href="#DejaVuSans-4d"/>
     <use xlink:href="#DejaVuSans-53" x="86.279297"/>
     <use xlink:href="#DejaVuSans-45" x="149.755859"/>
    </g>
   </g>
  </g>
  <g id="axes_4">
   <g id="patch_17">
    <path d="M 397.145 272.141053 
L 451.9125 272.141053 
L 451.9125 47.04 
L 397.145 47.04 
z
" style="fill: #ffffff"/>
   </g>
   <g id="PolyCollection_4">
    <path d="M 426.287321 261.909187 
L 422.770179 261.909187 
L 422.552072 259.842143 
L 422.306275 257.775099 
L 422.026164 255.708056 
L 421.705191 253.641012 
L 421.337559 251.573968 
L 420.918836 249.506925 
L 420.446409 247.439881 
L 419.919708 245.372837 
L 419.340165 243.305794 
L 418.710924 241.23875 
L 418.036353 239.171707 
L 417.321476 237.104663 
L 416.571396 235.037619 
L 415.790862 232.970576 
L 414.984016 230.903532 
L 414.154394 228.836488 
L 413.305146 226.769445 
L 412.439424 224.702401 
L 411.560846 222.635357 
L 410.673911 220.568314 
L 409.784272 218.50127 
L 408.898784 216.434226 
L 408.025304 214.367183 
L 407.172265 212.300139 
L 406.348106 210.233096 
L 405.56065 208.166052 
L 404.81656 206.099008 
L 404.120948 204.031965 
L 403.477216 201.964921 
L 402.887116 199.897877 
L 402.351014 197.830834 
L 401.868264 195.76379 
L 401.437622 193.696746 
L 401.057607 191.629703 
L 400.726741 189.562659 
L 400.443648 187.495615 
L 400.206991 185.428572 
L 400.015287 183.361528 
L 399.866635 181.294485 
L 399.758417 179.227441 
L 399.687025 177.160397 
L 399.647685 175.093354 
L 399.634432 173.02631 
L 399.640286 170.959266 
L 399.657674 168.892223 
L 399.679093 166.825179 
L 399.698002 164.758135 
L 399.709842 162.691092 
L 399.713064 160.624048 
L 399.709981 158.557004 
L 399.707282 156.489961 
L 399.71602 154.422917 
L 399.750996 152.355874 
L 399.829539 150.28883 
L 399.969777 148.221786 
L 400.188627 146.154743 
L 400.499776 144.087699 
L 400.91197 142.020655 
L 401.427875 139.953612 
L 402.043675 137.886568 
L 402.749488 135.819524 
L 403.530494 133.752481 
L 404.368597 131.685437 
L 405.244345 129.618394 
L 406.138812 127.55135 
L 407.035188 125.484306 
L 407.919888 123.417263 
L 408.783088 121.350219 
L 409.6187 119.283175 
L 410.423891 117.216132 
L 411.198297 115.149088 
L 411.943112 113.082044 
L 412.660221 111.015001 
L 413.351497 108.947957 
L 414.01834 106.880913 
L 414.661464 104.81387 
L 415.280903 102.746826 
L 415.876153 100.679783 
L 416.446391 98.612739 
L 416.990677 96.545695 
L 417.508112 94.478652 
L 417.997928 92.411608 
L 418.459516 90.344564 
L 418.892437 88.277521 
L 419.296439 86.210477 
L 419.671508 84.143433 
L 420.017974 82.07639 
L 420.336632 80.009346 
L 420.62888 77.942302 
L 420.8968 75.875259 
L 421.143168 73.808215 
L 421.37136 71.741172 
L 421.585147 69.674128 
L 421.788412 67.607084 
L 421.984805 65.540041 
L 422.177415 63.472997 
L 422.368482 61.405953 
L 422.559211 59.33891 
L 422.749708 57.271866 
L 426.307792 57.271866 
L 426.307792 57.271866 
L 426.498289 59.33891 
L 426.689018 61.405953 
L 426.880085 63.472997 
L 427.072695 65.540041 
L 427.269088 67.607084 
L 427.472353 69.674128 
L 427.68614 71.741172 
L 427.914332 73.808215 
L 428.1607 75.875259 
L 428.42862 77.942302 
L 428.720868 80.009346 
L 429.039526 82.07639 
L 429.385992 84.143433 
L 429.761061 86.210477 
L 430.165063 88.277521 
L 430.597984 90.344564 
L 431.059572 92.411608 
L 431.549388 94.478652 
L 432.066823 96.545695 
L 432.611109 98.612739 
L 433.181347 100.679783 
L 433.776597 102.746826 
L 434.396036 104.81387 
L 435.03916 106.880913 
L 435.706003 108.947957 
L 436.397279 111.015001 
L 437.114388 113.082044 
L 437.859203 115.149088 
L 438.633609 117.216132 
L 439.4388 119.283175 
L 440.274412 121.350219 
L 441.137612 123.417263 
L 442.022312 125.484306 
L 442.918688 127.55135 
L 443.813155 129.618394 
L 444.688903 131.685437 
L 445.527006 133.752481 
L 446.308012 135.819524 
L 447.013825 137.886568 
L 447.629625 139.953612 
L 448.14553 142.020655 
L 448.557724 144.087699 
L 448.868873 146.154743 
L 449.087723 148.221786 
L 449.227961 150.28883 
L 449.306504 152.355874 
L 449.34148 154.422917 
L 449.350218 156.489961 
L 449.347519 158.557004 
L 449.344436 160.624048 
L 449.347658 162.691092 
L 449.359498 164.758135 
L 449.378407 166.825179 
L 449.399826 168.892223 
L 449.417214 170.959266 
L 449.423068 173.02631 
L 449.409815 175.093354 
L 449.370475 177.160397 
L 449.299083 179.227441 
L 449.190865 181.294485 
L 449.042213 183.361528 
L 448.850509 185.428572 
L 448.613852 187.495615 
L 448.330759 189.562659 
L 447.999893 191.629703 
L 447.619878 193.696746 
L 447.189236 195.76379 
L 446.706486 197.830834 
L 446.170384 199.897877 
L 445.580284 201.964921 
L 444.936552 204.031965 
L 444.24094 206.099008 
L 443.49685 208.166052 
L 442.709394 210.233096 
L 441.885235 212.300139 
L 441.032196 214.367183 
L 440.158716 216.434226 
L 439.273228 218.50127 
L 438.383589 220.568314 
L 437.496654 222.635357 
L 436.618076 224.702401 
L 435.752354 226.769445 
L 434.903106 228.836488 
L 434.073484 230.903532 
L 433.266638 232.970576 
L 432.486104 235.037619 
L 431.736024 237.104663 
L 431.021147 239.171707 
L 430.346576 241.23875 
L 429.717335 243.305794 
L 429.137792 245.372837 
L 428.611091 247.439881 
L 428.138664 249.506925 
L 427.719941 251.573968 
L 427.352309 253.641012 
L 427.031336 255.708056 
L 426.751225 257.775099 
L 426.505428 259.842143 
L 426.287321 261.909187 
z
" clip-path="url(#pb7fbbdecb5)" style="fill: #1f77b4; fill-opacity: 0.3"/>
   </g>
   <g id="matplotlib.axis_4">
    <g id="ytick_20">
     <g id="line2d_20">
      <g>
       <use xlink:href="#m7a69596586" x="397.145" y="271.064014" style="stroke: #000000; stroke-width: 0.8"/>
      </g>
     </g>
     <g id="text_26">
      <!-- 0.65 -->
      <g transform="translate(367.879375 274.863233)scale(0.1 -0.1)">
       <use xlink:href="#DejaVuSans-30"/>
       <use xlink:href="#DejaVuSans-2e" x="63.623047"/>
       <use xlink:href="#DejaVuSans-36" x="95.410156"/>
       <use xlink:href="#DejaVuSans-35" x="159.033203"/>
      </g>
     </g>
    </g>
    <g id="ytick_21">
     <g id="line2d_21">
      <g>
       <use xlink:href="#m7a69596586" x="397.145" y="222.058761" style="stroke: #000000; stroke-width: 0.8"/>
      </g>
     </g>
     <g id="text_27">
      <!-- 0.70 -->
      <g transform="translate(367.879375 225.85798)scale(0.1 -0.1)">
       <use xlink:href="#DejaVuSans-30"/>
       <use xlink:href="#DejaVuSans-2e" x="63.623047"/>
       <use xlink:href="#DejaVuSans-37" x="95.410156"/>
       <use xlink:href="#DejaVuSans-30" x="159.033203"/>
      </g>
     </g>
    </g>
    <g id="ytick_22">
     <g id="line2d_22">
      <g>
       <use xlink:href="#m7a69596586" x="397.145" y="173.053508" style="stroke: #000000; stroke-width: 0.8"/>
      </g>
     </g>
     <g id="text_28">
      <!-- 0.75 -->
      <g transform="translate(367.879375 176.852727)scale(0.1 -0.1)">
       <use xlink:href="#DejaVuSans-30"/>
       <use xlink:href="#DejaVuSans-2e" x="63.623047"/>
       <use xlink:href="#DejaVuSans-37" x="95.410156"/>
       <use xlink:href="#DejaVuSans-35" x="159.033203"/>
      </g>
     </g>
    </g>
    <g id="ytick_23">
     <g id="line2d_23">
      <g>
       <use xlink:href="#m7a69596586" x="397.145" y="124.048255" style="stroke: #000000; stroke-width: 0.8"/>
      </g>
     </g>
     <g id="text_29">
      <!-- 0.80 -->
      <g transform="translate(367.879375 127.847474)scale(0.1 -0.1)">
       <use xlink:href="#DejaVuSans-30"/>
       <use xlink:href="#DejaVuSans-2e" x="63.623047"/>
       <use xlink:href="#DejaVuSans-38" x="95.410156"/>
       <use xlink:href="#DejaVuSans-30" x="159.033203"/>
      </g>
     </g>
    </g>
    <g id="ytick_24">
     <g id="line2d_24">
      <g>
       <use xlink:href="#m7a69596586" x="397.145" y="75.043002" style="stroke: #000000; stroke-width: 0.8"/>
      </g>
     </g>
     <g id="text_30">
      <!-- 0.85 -->
      <g transform="translate(367.879375 78.842221)scale(0.1 -0.1)">
       <use xlink:href="#DejaVuSans-30"/>
       <use xlink:href="#DejaVuSans-2e" x="63.623047"/>
       <use xlink:href="#DejaVuSans-38" x="95.410156"/>
       <use xlink:href="#DejaVuSans-35" x="159.033203"/>
      </g>
     </g>
    </g>
    <g id="text_31">
     <!-- % NOE fulfilled [1/100 %] -->
     <g transform="translate(361.799687 223.091308)rotate(-90)scale(0.1 -0.1)">
      <defs>
       <path id="DejaVuSans-25" d="M 4653 2053 
Q 4381 2053 4226 1822 
Q 4072 1591 4072 1178 
Q 4072 772 4226 539 
Q 4381 306 4653 306 
Q 4919 306 5073 539 
Q 5228 772 5228 1178 
Q 5228 1588 5073 1820 
Q 4919 2053 4653 2053 
z
M 4653 2450 
Q 5147 2450 5437 2106 
Q 5728 1763 5728 1178 
Q 5728 594 5436 251 
Q 5144 -91 4653 -91 
Q 4153 -91 3862 251 
Q 3572 594 3572 1178 
Q 3572 1766 3864 2108 
Q 4156 2450 4653 2450 
z
M 1428 4353 
Q 1159 4353 1004 4120 
Q 850 3888 850 3481 
Q 850 3069 1003 2837 
Q 1156 2606 1428 2606 
Q 1700 2606 1854 2837 
Q 2009 3069 2009 3481 
Q 2009 3884 1853 4118 
Q 1697 4353 1428 4353 
z
M 4250 4750 
L 4750 4750 
L 1831 -91 
L 1331 -91 
L 4250 4750 
z
M 1428 4750 
Q 1922 4750 2215 4408 
Q 2509 4066 2509 3481 
Q 2509 2891 2217 2550 
Q 1925 2209 1428 2209 
Q 931 2209 642 2551 
Q 353 2894 353 3481 
Q 353 4063 643 4406 
Q 934 4750 1428 4750 
z
" transform="scale(0.015625)"/>
       <path id="DejaVuSans-4e" d="M 628 4666 
L 1478 4666 
L 3547 763 
L 3547 4666 
L 4159 4666 
L 4159 0 
L 3309 0 
L 1241 3903 
L 1241 0 
L 628 0 
L 628 4666 
z
" transform="scale(0.015625)"/>
       <path id="DejaVuSans-4f" d="M 2522 4238 
Q 1834 4238 1429 3725 
Q 1025 3213 1025 2328 
Q 1025 1447 1429 934 
Q 1834 422 2522 422 
Q 3209 422 3611 934 
Q 4013 1447 4013 2328 
Q 4013 3213 3611 3725 
Q 3209 4238 2522 4238 
z
M 2522 4750 
Q 3503 4750 4090 4092 
Q 4678 3434 4678 2328 
Q 4678 1225 4090 567 
Q 3503 -91 2522 -91 
Q 1538 -91 948 565 
Q 359 1222 359 2328 
Q 359 3434 948 4092 
Q 1538 4750 2522 4750 
z
" transform="scale(0.015625)"/>
       <path id="DejaVuSans-66" d="M 2375 4863 
L 2375 4384 
L 1825 4384 
Q 1516 4384 1395 4259 
Q 1275 4134 1275 3809 
L 1275 3500 
L 2222 3500 
L 2222 3053 
L 1275 3053 
L 1275 0 
L 697 0 
L 697 3053 
L 147 3053 
L 147 3500 
L 697 3500 
L 697 3744 
Q 697 4328 969 4595 
Q 1241 4863 1831 4863 
L 2375 4863 
z
" transform="scale(0.015625)"/>
       <path id="DejaVuSans-75" d="M 544 1381 
L 544 3500 
L 1119 3500 
L 1119 1403 
Q 1119 906 1312 657 
Q 1506 409 1894 409 
Q 2359 409 2629 706 
Q 2900 1003 2900 1516 
L 2900 3500 
L 3475 3500 
L 3475 0 
L 2900 0 
L 2900 538 
Q 2691 219 2414 64 
Q 2138 -91 1772 -91 
Q 1169 -91 856 284 
Q 544 659 544 1381 
z
M 1991 3584 
L 1991 3584 
z
" transform="scale(0.015625)"/>
       <path id="DejaVuSans-6c" d="M 603 4863 
L 1178 4863 
L 1178 0 
L 603 0 
L 603 4863 
z
" transform="scale(0.015625)"/>
       <path id="DejaVuSans-69" d="M 603 3500 
L 1178 3500 
L 1178 0 
L 603 0 
L 603 3500 
z
M 603 4863 
L 1178 4863 
L 1178 4134 
L 603 4134 
L 603 4863 
z
" transform="scale(0.015625)"/>
       <path id="DejaVuSans-65" d="M 3597 1894 
L 3597 1613 
L 953 1613 
Q 991 1019 1311 708 
Q 1631 397 2203 397 
Q 2534 397 2845 478 
Q 3156 559 3463 722 
L 3463 178 
Q 3153 47 2828 -22 
Q 2503 -91 2169 -91 
Q 1331 -91 842 396 
Q 353 884 353 1716 
Q 353 2575 817 3079 
Q 1281 3584 2069 3584 
Q 2775 3584 3186 3129 
Q 3597 2675 3597 1894 
z
M 3022 2063 
Q 3016 2534 2758 2815 
Q 2500 3097 2075 3097 
Q 1594 3097 1305 2825 
Q 1016 2553 972 2059 
L 3022 2063 
z
" transform="scale(0.015625)"/>
       <path id="DejaVuSans-64" d="M 2906 2969 
L 2906 4863 
L 3481 4863 
L 3481 0 
L 2906 0 
L 2906 525 
Q 2725 213 2448 61 
Q 2172 -91 1784 -91 
Q 1150 -91 751 415 
Q 353 922 353 1747 
Q 353 2572 751 3078 
Q 1150 3584 1784 3584 
Q 2172 3584 2448 3432 
Q 2725 3281 2906 2969 
z
M 947 1747 
Q 947 1113 1208 752 
Q 1469 391 1925 391 
Q 2381 391 2643 752 
Q 2906 1113 2906 1747 
Q 2906 2381 2643 2742 
Q 2381 3103 1925 3103 
Q 1469 3103 1208 2742 
Q 947 2381 947 1747 
z
" transform="scale(0.015625)"/>
       <path id="DejaVuSans-2f" d="M 1625 4666 
L 2156 4666 
L 531 -594 
L 0 -594 
L 1625 4666 
z
" transform="scale(0.015625)"/>
      </defs>
      <use xlink:href="#DejaVuSans-25"/>
      <use xlink:href="#DejaVuSans-20" x="95.019531"/>
      <use xlink:href="#DejaVuSans-4e" x="126.806641"/>
      <use xlink:href="#DejaVuSans-4f" x="201.611328"/>
      <use xlink:href="#DejaVuSans-45" x="280.322266"/>
      <use xlink:href="#DejaVuSans-20" x="343.505859"/>
      <use xlink:href="#DejaVuSans-66" x="375.292969"/>
      <use xlink:href="#DejaVuSans-75" x="410.498047"/>
      <use xlink:href="#DejaVuSans-6c" x="473.876953"/>
      <use xlink:href="#DejaVuSans-66" x="501.660156"/>
      <use xlink:href="#DejaVuSans-69" x="536.865234"/>
      <use xlink:href="#DejaVuSans-6c" x="564.648438"/>
      <use xlink:href="#DejaVuSans-6c" x="592.431641"/>
      <use xlink:href="#DejaVuSans-65" x="620.214844"/>
      <use xlink:href="#DejaVuSans-64" x="681.738281"/>
      <use xlink:href="#DejaVuSans-20" x="745.214844"/>
      <use xlink:href="#DejaVuSans-5b" x="777.001953"/>
      <use xlink:href="#DejaVuSans-31" x="816.015625"/>
      <use xlink:href="#DejaVuSans-2f" x="879.638672"/>
      <use xlink:href="#DejaVuSans-31" x="913.330078"/>
      <use xlink:href="#DejaVuSans-30" x="976.953125"/>
      <use xlink:href="#DejaVuSans-30" x="1040.576172"/>
      <use xlink:href="#DejaVuSans-20" x="1104.199219"/>
      <use xlink:href="#DejaVuSans-25" x="1135.986328"/>
      <use xlink:href="#DejaVuSans-5d" x="1231.005859"/>
     </g>
    </g>
   </g>
   <g id="LineCollection_13">
    <path d="M 412.081591 165.318998 
L 436.975909 165.318998 
" clip-path="url(#pb7fbbdecb5)" style="fill: none; stroke: #1f77b4; stroke-width: 1.5"/>
   </g>
   <g id="LineCollection_14">
    <path d="M 412.081591 57.271866 
L 436.975909 57.271866 
" clip-path="url(#pb7fbbdecb5)" style="fill: none; stroke: #1f77b4; stroke-width: 1.5"/>
   </g>
   <g id="LineCollection_15">
    <path d="M 412.081591 261.909187 
L 436.975909 261.909187 
" clip-path="url(#pb7fbbdecb5)" style="fill: none; stroke: #1f77b4; stroke-width: 1.5"/>
   </g>
   <g id="LineCollection_16">
    <path d="M 424.52875 261.909187 
L 424.52875 57.271866 
" clip-path="url(#pb7fbbdecb5)" style="fill: none; stroke: #1f77b4; stroke-width: 1.5"/>
   </g>
   <g id="patch_18">
    <path d="M 397.145 272.141053 
L 397.145 47.04 
" style="fill: none; stroke: #000000; stroke-width: 0.8; stroke-linejoin: miter; stroke-linecap: square"/>
   </g>
   <g id="patch_19">
    <path d="M 451.9125 272.141053 
L 451.9125 47.04 
" style="fill: none; stroke: #000000; stroke-width: 0.8; stroke-linejoin: miter; stroke-linecap: square"/>
   </g>
   <g id="patch_20">
    <path d="M 397.145 272.141053 
L 451.9125 272.141053 
" style="fill: none; stroke: #000000; stroke-width: 0.8; stroke-linejoin: miter; stroke-linecap: square"/>
   </g>
   <g id="patch_21">
    <path d="M 397.145 47.04 
L 451.9125 47.04 
" style="fill: none; stroke: #000000; stroke-width: 0.8; stroke-linejoin: miter; stroke-linecap: square"/>
   </g>
   <g id="text_32">
    <!-- % NOE fulfilled -->
    <g transform="translate(379.815625 41.04)scale(0.12 -0.12)">
     <use xlink:href="#DejaVuSans-25"/>
     <use xlink:href="#DejaVuSans-20" x="95.019531"/>
     <use xlink:href="#DejaVuSans-4e" x="126.806641"/>
     <use xlink:href="#DejaVuSans-4f" x="201.611328"/>
     <use xlink:href="#DejaVuSans-45" x="280.322266"/>
     <use xlink:href="#DejaVuSans-20" x="343.505859"/>
     <use xlink:href="#DejaVuSans-66" x="375.292969"/>
     <use xlink:href="#DejaVuSans-75" x="410.498047"/>
     <use xlink:href="#DejaVuSans-6c" x="473.876953"/>
     <use xlink:href="#DejaVuSans-66" x="501.660156"/>
     <use xlink:href="#DejaVuSans-69" x="536.865234"/>
     <use xlink:href="#DejaVuSans-6c" x="564.648438"/>
     <use xlink:href="#DejaVuSans-6c" x="592.431641"/>
     <use xlink:href="#DejaVuSans-65" x="620.214844"/>
     <use xlink:href="#DejaVuSans-64" x="681.738281"/>
    </g>
   </g>
  </g>
  <g id="axes_5">
   <g id="patch_22">
    <path d="M 510.4325 272.141053 
L 565.2 272.141053 
L 565.2 47.04 
L 510.4325 47.04 
z
" style="fill: #ffffff"/>
   </g>
   <g id="PolyCollection_5">
    <path d="M 538.92753 261.909187 
L 536.70497 261.909187 
L 536.575671 259.842143 
L 536.448385 257.775099 
L 536.324249 255.708056 
L 536.20344 253.641012 
L 536.085046 251.573968 
L 535.967047 249.506925 
L 535.846443 247.439881 
L 535.719505 245.372837 
L 535.58211 243.305794 
L 535.43014 241.23875 
L 535.25985 239.171707 
L 535.068179 237.104663 
L 534.85294 235.037619 
L 534.612895 232.970576 
L 534.347726 230.903532 
L 534.057931 228.836488 
L 533.744717 226.769445 
L 533.409904 224.702401 
L 533.05588 222.635357 
L 532.685561 220.568314 
L 532.302324 218.50127 
L 531.909845 216.434226 
L 531.511787 214.367183 
L 531.111332 212.300139 
L 530.710594 210.233096 
L 530.310002 208.166052 
L 529.907791 206.099008 
L 529.499724 204.031965 
L 529.079173 201.964921 
L 528.637573 199.897877 
L 528.165251 197.830834 
L 527.652497 195.76379 
L 527.090729 193.696746 
L 526.473583 191.629703 
L 525.797769 189.562659 
L 525.063613 187.495615 
L 524.275247 185.428572 
L 523.440471 183.361528 
L 522.570361 181.294485 
L 521.678674 179.227441 
L 520.781104 177.160397 
L 519.89441 175.093354 
L 519.035411 173.02631 
L 518.219892 170.959266 
L 517.461457 168.892223 
L 516.77046 166.825179 
L 516.15316 164.758135 
L 515.611284 162.691092 
L 515.142139 160.624048 
L 514.739316 158.557004 
L 514.393932 156.489961 
L 514.096229 154.422917 
L 513.837232 152.355874 
L 513.610194 150.28883 
L 513.411525 148.221786 
L 513.241075 146.154743 
L 513.101721 144.087699 
L 512.998398 142.020655 
L 512.936786 139.953612 
L 512.921932 137.886568 
L 512.957083 135.819524 
L 513.042925 133.752481 
L 513.177356 131.685437 
L 513.355797 129.618394 
L 513.571971 127.55135 
L 513.819018 125.484306 
L 514.090748 123.417263 
L 514.382863 121.350219 
L 514.69394 119.283175 
L 515.026051 117.216132 
L 515.384897 115.149088 
L 515.779423 113.082044 
L 516.22094 111.015001 
L 516.721862 108.947957 
L 517.294187 106.880913 
L 517.94794 104.81387 
L 518.689751 102.746826 
L 519.521745 100.679783 
L 520.440882 98.612739 
L 521.438806 96.545695 
L 522.502211 94.478652 
L 523.613679 92.411608 
L 524.752881 90.344564 
L 525.898024 88.277521 
L 527.027378 86.210477 
L 528.120755 84.143433 
L 529.160773 82.07639 
L 530.133808 80.009346 
L 531.030548 77.942302 
L 531.846117 75.875259 
L 532.579787 73.808215 
L 533.234348 71.741172 
L 533.815239 69.674128 
L 534.329569 67.607084 
L 534.785153 65.540041 
L 535.189683 63.472997 
L 535.550103 61.405953 
L 535.872224 59.33891 
L 536.160595 57.271866 
L 539.471905 57.271866 
L 539.471905 57.271866 
L 539.760276 59.33891 
L 540.082397 61.405953 
L 540.442817 63.472997 
L 540.847347 65.540041 
L 541.302931 67.607084 
L 541.817261 69.674128 
L 542.398152 71.741172 
L 543.052713 73.808215 
L 543.786383 75.875259 
L 544.601952 77.942302 
L 545.498692 80.009346 
L 546.471727 82.07639 
L 547.511745 84.143433 
L 548.605122 86.210477 
L 549.734476 88.277521 
L 550.879619 90.344564 
L 552.018821 92.411608 
L 553.130289 94.478652 
L 554.193694 96.545695 
L 555.191618 98.612739 
L 556.110755 100.679783 
L 556.942749 102.746826 
L 557.68456 104.81387 
L 558.338313 106.880913 
L 558.910638 108.947957 
L 559.41156 111.015001 
L 559.853077 113.082044 
L 560.247603 115.149088 
L 560.606449 117.216132 
L 560.93856 119.283175 
L 561.249637 121.350219 
L 561.541752 123.417263 
L 561.813482 125.484306 
L 562.060529 127.55135 
L 562.276703 129.618394 
L 562.455144 131.685437 
L 562.589575 133.752481 
L 562.675417 135.819524 
L 562.710568 137.886568 
L 562.695714 139.953612 
L 562.634102 142.020655 
L 562.530779 144.087699 
L 562.391425 146.154743 
L 562.220975 148.221786 
L 562.022306 150.28883 
L 561.795268 152.355874 
L 561.536271 154.422917 
L 561.238568 156.489961 
L 560.893184 158.557004 
L 560.490361 160.624048 
L 560.021216 162.691092 
L 559.47934 164.758135 
L 558.86204 166.825179 
L 558.171043 168.892223 
L 557.412608 170.959266 
L 556.597089 173.02631 
L 555.73809 175.093354 
L 554.851396 177.160397 
L 553.953826 179.227441 
L 553.062139 181.294485 
L 552.192029 183.361528 
L 551.357253 185.428572 
L 550.568887 187.495615 
L 549.834731 189.562659 
L 549.158917 191.629703 
L 548.541771 193.696746 
L 547.980003 195.76379 
L 547.467249 197.830834 
L 546.994927 199.897877 
L 546.553327 201.964921 
L 546.132776 204.031965 
L 545.724709 206.099008 
L 545.322498 208.166052 
L 544.921906 210.233096 
L 544.521168 212.300139 
L 544.120713 214.367183 
L 543.722655 216.434226 
L 543.330176 218.50127 
L 542.946939 220.568314 
L 542.57662 222.635357 
L 542.222596 224.702401 
L 541.887783 226.769445 
L 541.574569 228.836488 
L 541.284774 230.903532 
L 541.019605 232.970576 
L 540.77956 235.037619 
L 540.564321 237.104663 
L 540.37265 239.171707 
L 540.20236 241.23875 
L 540.05039 243.305794 
L 539.912995 245.372837 
L 539.786057 247.439881 
L 539.665453 249.506925 
L 539.547454 251.573968 
L 539.42906 253.641012 
L 539.308251 255.708056 
L 539.184115 257.775099 
L 539.056829 259.842143 
L 538.92753 261.909187 
z
" clip-path="url(#pc278e649f9)" style="fill: #1f77b4; fill-opacity: 0.3"/>
   </g>
   <g id="matplotlib.axis_5">
    <g id="ytick_25">
     <g id="line2d_25">
      <g>
       <use xlink:href="#m7a69596586" x="510.4325" y="270.204467" style="stroke: #000000; stroke-width: 0.8"/>
      </g>
     </g>
     <g id="text_33">
      <!-- 0.50 -->
      <g transform="translate(481.166875 274.003686)scale(0.1 -0.1)">
       <use xlink:href="#DejaVuSans-30"/>
       <use xlink:href="#DejaVuSans-2e" x="63.623047"/>
       <use xlink:href="#DejaVuSans-35" x="95.410156"/>
       <use xlink:href="#DejaVuSans-30" x="159.033203"/>
      </g>
     </g>
    </g>
    <g id="ytick_26">
     <g id="line2d_26">
      <g>
       <use xlink:href="#m7a69596586" x="510.4325" y="243.216033" style="stroke: #000000; stroke-width: 0.8"/>
      </g>
     </g>
     <g id="text_34">
      <!-- 0.55 -->
      <g transform="translate(481.166875 247.015252)scale(0.1 -0.1)">
       <use xlink:href="#DejaVuSans-30"/>
       <use xlink:href="#DejaVuSans-2e" x="63.623047"/>
       <use xlink:href="#DejaVuSans-35" x="95.410156"/>
       <use xlink:href="#DejaVuSans-35" x="159.033203"/>
      </g>
     </g>
    </g>
    <g id="ytick_27">
     <g id="line2d_27">
      <g>
       <use xlink:href="#m7a69596586" x="510.4325" y="216.227599" style="stroke: #000000; stroke-width: 0.8"/>
      </g>
     </g>
     <g id="text_35">
      <!-- 0.60 -->
      <g transform="translate(481.166875 220.026818)scale(0.1 -0.1)">
       <use xlink:href="#DejaVuSans-30"/>
       <use xlink:href="#DejaVuSans-2e" x="63.623047"/>
       <use xlink:href="#DejaVuSans-36" x="95.410156"/>
       <use xlink:href="#DejaVuSans-30" x="159.033203"/>
      </g>
     </g>
    </g>
    <g id="ytick_28">
     <g id="line2d_28">
      <g>
       <use xlink:href="#m7a69596586" x="510.4325" y="189.239165" style="stroke: #000000; stroke-width: 0.8"/>
      </g>
     </g>
     <g id="text_36">
      <!-- 0.65 -->
      <g transform="translate(481.166875 193.038384)scale(0.1 -0.1)">
       <use xlink:href="#DejaVuSans-30"/>
       <use xlink:href="#DejaVuSans-2e" x="63.623047"/>
       <use xlink:href="#DejaVuSans-36" x="95.410156"/>
       <use xlink:href="#DejaVuSans-35" x="159.033203"/>
      </g>
     </g>
    </g>
    <g id="ytick_29">
     <g id="line2d_29">
      <g>
       <use xlink:href="#m7a69596586" x="510.4325" y="162.250731" style="stroke: #000000; stroke-width: 0.8"/>
      </g>
     </g>
     <g id="text_37">
      <!-- 0.70 -->
      <g transform="translate(481.166875 166.04995)scale(0.1 -0.1)">
       <use xlink:href="#DejaVuSans-30"/>
       <use xlink:href="#DejaVuSans-2e" x="63.623047"/>
       <use xlink:href="#DejaVuSans-37" x="95.410156"/>
       <use xlink:href="#DejaVuSans-30" x="159.033203"/>
      </g>
     </g>
    </g>
    <g id="ytick_30">
     <g id="line2d_30">
      <g>
       <use xlink:href="#m7a69596586" x="510.4325" y="135.262297" style="stroke: #000000; stroke-width: 0.8"/>
      </g>
     </g>
     <g id="text_38">
      <!-- 0.75 -->
      <g transform="translate(481.166875 139.061516)scale(0.1 -0.1)">
       <use xlink:href="#DejaVuSans-30"/>
       <use xlink:href="#DejaVuSans-2e" x="63.623047"/>
       <use xlink:href="#DejaVuSans-37" x="95.410156"/>
       <use xlink:href="#DejaVuSans-35" x="159.033203"/>
      </g>
     </g>
    </g>
    <g id="ytick_31">
     <g id="line2d_31">
      <g>
       <use xlink:href="#m7a69596586" x="510.4325" y="108.273863" style="stroke: #000000; stroke-width: 0.8"/>
      </g>
     </g>
     <g id="text_39">
      <!-- 0.80 -->
      <g transform="translate(481.166875 112.073082)scale(0.1 -0.1)">
       <use xlink:href="#DejaVuSans-30"/>
       <use xlink:href="#DejaVuSans-2e" x="63.623047"/>
       <use xlink:href="#DejaVuSans-38" x="95.410156"/>
       <use xlink:href="#DejaVuSans-30" x="159.033203"/>
      </g>
     </g>
    </g>
    <g id="ytick_32">
     <g id="line2d_32">
      <g>
       <use xlink:href="#m7a69596586" x="510.4325" y="81.285429" style="stroke: #000000; stroke-width: 0.8"/>
      </g>
     </g>
     <g id="text_40">
      <!-- 0.85 -->
      <g transform="translate(481.166875 85.084648)scale(0.1 -0.1)">
       <use xlink:href="#DejaVuSans-30"/>
       <use xlink:href="#DejaVuSans-2e" x="63.623047"/>
       <use xlink:href="#DejaVuSans-38" x="95.410156"/>
       <use xlink:href="#DejaVuSans-35" x="159.033203"/>
      </g>
     </g>
    </g>
    <g id="ytick_33">
     <g id="line2d_33">
      <g>
       <use xlink:href="#m7a69596586" x="510.4325" y="54.296995" style="stroke: #000000; stroke-width: 0.8"/>
      </g>
     </g>
     <g id="text_41">
      <!-- 0.90 -->
      <g transform="translate(481.166875 58.096214)scale(0.1 -0.1)">
       <defs>
        <path id="DejaVuSans-39" d="M 703 97 
L 703 672 
Q 941 559 1184 500 
Q 1428 441 1663 441 
Q 2288 441 2617 861 
Q 2947 1281 2994 2138 
Q 2813 1869 2534 1725 
Q 2256 1581 1919 1581 
Q 1219 1581 811 2004 
Q 403 2428 403 3163 
Q 403 3881 828 4315 
Q 1253 4750 1959 4750 
Q 2769 4750 3195 4129 
Q 3622 3509 3622 2328 
Q 3622 1225 3098 567 
Q 2575 -91 1691 -91 
Q 1453 -91 1209 -44 
Q 966 3 703 97 
z
M 1959 2075 
Q 2384 2075 2632 2365 
Q 2881 2656 2881 3163 
Q 2881 3666 2632 3958 
Q 2384 4250 1959 4250 
Q 1534 4250 1286 3958 
Q 1038 3666 1038 3163 
Q 1038 2656 1286 2365 
Q 1534 2075 1959 2075 
z
" transform="scale(0.015625)"/>
       </defs>
       <use xlink:href="#DejaVuSans-30"/>
       <use xlink:href="#DejaVuSans-2e" x="63.623047"/>
       <use xlink:href="#DejaVuSans-39" x="95.410156"/>
       <use xlink:href="#DejaVuSans-30" x="159.033203"/>
      </g>
     </g>
    </g>
    <g id="text_42">
     <!-- RMSD stepwise [$\AA$] -->
     <g transform="translate(475.066875 206.890526)rotate(-90)scale(0.1 -0.1)">
      <defs>
       <path id="DejaVuSans-73" d="M 2834 3397 
L 2834 2853 
Q 2591 2978 2328 3040 
Q 2066 3103 1784 3103 
Q 1356 3103 1142 2972 
Q 928 2841 928 2578 
Q 928 2378 1081 2264 
Q 1234 2150 1697 2047 
L 1894 2003 
Q 2506 1872 2764 1633 
Q 3022 1394 3022 966 
Q 3022 478 2636 193 
Q 2250 -91 1575 -91 
Q 1294 -91 989 -36 
Q 684 19 347 128 
L 347 722 
Q 666 556 975 473 
Q 1284 391 1588 391 
Q 1994 391 2212 530 
Q 2431 669 2431 922 
Q 2431 1156 2273 1281 
Q 2116 1406 1581 1522 
L 1381 1569 
Q 847 1681 609 1914 
Q 372 2147 372 2553 
Q 372 3047 722 3315 
Q 1072 3584 1716 3584 
Q 2034 3584 2315 3537 
Q 2597 3491 2834 3397 
z
" transform="scale(0.015625)"/>
       <path id="DejaVuSans-74" d="M 1172 4494 
L 1172 3500 
L 2356 3500 
L 2356 3053 
L 1172 3053 
L 1172 1153 
Q 1172 725 1289 603 
Q 1406 481 1766 481 
L 2356 481 
L 2356 0 
L 1766 0 
Q 1100 0 847 248 
Q 594 497 594 1153 
L 594 3053 
L 172 3053 
L 172 3500 
L 594 3500 
L 594 4494 
L 1172 4494 
z
" transform="scale(0.015625)"/>
       <path id="DejaVuSans-70" d="M 1159 525 
L 1159 -1331 
L 581 -1331 
L 581 3500 
L 1159 3500 
L 1159 2969 
Q 1341 3281 1617 3432 
Q 1894 3584 2278 3584 
Q 2916 3584 3314 3078 
Q 3713 2572 3713 1747 
Q 3713 922 3314 415 
Q 2916 -91 2278 -91 
Q 1894 -91 1617 61 
Q 1341 213 1159 525 
z
M 3116 1747 
Q 3116 2381 2855 2742 
Q 2594 3103 2138 3103 
Q 1681 3103 1420 2742 
Q 1159 2381 1159 1747 
Q 1159 1113 1420 752 
Q 1681 391 2138 391 
Q 2594 391 2855 752 
Q 3116 1113 3116 1747 
z
" transform="scale(0.015625)"/>
       <path id="DejaVuSans-77" d="M 269 3500 
L 844 3500 
L 1563 769 
L 2278 3500 
L 2956 3500 
L 3675 769 
L 4391 3500 
L 4966 3500 
L 4050 0 
L 3372 0 
L 2619 2869 
L 1863 0 
L 1184 0 
L 269 3500 
z
" transform="scale(0.015625)"/>
      </defs>
      <use xlink:href="#DejaVuSans-52" transform="translate(0 0.171875)"/>
      <use xlink:href="#DejaVuSans-4d" transform="translate(69.482422 0.171875)"/>
      <use xlink:href="#DejaVuSans-53" transform="translate(155.761719 0.171875)"/>
      <use xlink:href="#DejaVuSans-44" transform="translate(219.238281 0.171875)"/>
      <use xlink:href="#DejaVuSans-20" transform="translate(296.240234 0.171875)"/>
      <use xlink:href="#DejaVuSans-73" transform="translate(328.027344 0.171875)"/>
      <use xlink:href="#DejaVuSans-74" transform="translate(380.126953 0.171875)"/>
      <use xlink:href="#DejaVuSans-65" transform="translate(419.335938 0.171875)"/>
      <use xlink:href="#DejaVuSans-70" transform="translate(480.859375 0.171875)"/>
      <use xlink:href="#DejaVuSans-77" transform="translate(544.335938 0.171875)"/>
      <use xlink:href="#DejaVuSans-69" transform="translate(626.123047 0.171875)"/>
      <use xlink:href="#DejaVuSans-73" transform="translate(653.90625 0.171875)"/>
      <use xlink:href="#DejaVuSans-65" transform="translate(706.005859 0.171875)"/>
      <use xlink:href="#DejaVuSans-20" transform="translate(767.529297 0.171875)"/>
      <use xlink:href="#DejaVuSans-5b" transform="translate(799.316406 0.171875)"/>
      <use xlink:href="#DejaVuSans-Oblique-c5" transform="translate(838.330078 0.171875)"/>
      <use xlink:href="#DejaVuSans-5d" transform="translate(906.738281 0.171875)"/>
     </g>
    </g>
   </g>
   <g id="LineCollection_17">
    <path d="M 525.369091 144.862225 
L 550.263409 144.862225 
" clip-path="url(#pc278e649f9)" style="fill: none; stroke: #1f77b4; stroke-width: 1.5"/>
   </g>
   <g id="LineCollection_18">
    <path d="M 525.369091 57.271866 
L 550.263409 57.271866 
" clip-path="url(#pc278e649f9)" style="fill: none; stroke: #1f77b4; stroke-width: 1.5"/>
   </g>
   <g id="LineCollection_19">
    <path d="M 525.369091 261.909187 
L 550.263409 261.909187 
" clip-path="url(#pc278e649f9)" style="fill: none; stroke: #1f77b4; stroke-width: 1.5"/>
   </g>
   <g id="LineCollection_20">
    <path d="M 537.81625 261.909187 
L 537.81625 57.271866 
" clip-path="url(#pc278e649f9)" style="fill: none; stroke: #1f77b4; stroke-width: 1.5"/>
   </g>
   <g id="patch_23">
    <path d="M 510.4325 272.141053 
L 510.4325 47.04 
" style="fill: none; stroke: #000000; stroke-width: 0.8; stroke-linejoin: miter; stroke-linecap: square"/>
   </g>
   <g id="patch_24">
    <path d="M 565.2 272.141053 
L 565.2 47.04 
" style="fill: none; stroke: #000000; stroke-width: 0.8; stroke-linejoin: miter; stroke-linecap: square"/>
   </g>
   <g id="patch_25">
    <path d="M 510.4325 272.141053 
L 565.2 272.141053 
" style="fill: none; stroke: #000000; stroke-width: 0.8; stroke-linejoin: miter; stroke-linecap: square"/>
   </g>
   <g id="patch_26">
    <path d="M 510.4325 47.04 
L 565.2 47.04 
" style="fill: none; stroke: #000000; stroke-width: 0.8; stroke-linejoin: miter; stroke-linecap: square"/>
   </g>
   <g id="text_43">
    <!-- RMSD stepwise -->
    <g transform="translate(491.764375 41.04)scale(0.12 -0.12)">
     <use xlink:href="#DejaVuSans-52"/>
     <use xlink:href="#DejaVuSans-4d" x="69.482422"/>
     <use xlink:href="#DejaVuSans-53" x="155.761719"/>
     <use xlink:href="#DejaVuSans-44" x="219.238281"/>
     <use xlink:href="#DejaVuSans-20" x="296.240234"/>
     <use xlink:href="#DejaVuSans-73" x="328.027344"/>
     <use xlink:href="#DejaVuSans-74" x="380.126953"/>
     <use xlink:href="#DejaVuSans-65" x="419.335938"/>
     <use xlink:href="#DejaVuSans-70" x="480.859375"/>
     <use xlink:href="#DejaVuSans-77" x="544.335938"/>
     <use xlink:href="#DejaVuSans-69" x="626.123047"/>
     <use xlink:href="#DejaVuSans-73" x="653.90625"/>
     <use xlink:href="#DejaVuSans-65" x="706.005859"/>
    </g>
   </g>
  </g>
  <g id="text_44">
   <!-- Compound 61. Omega -->
   <g transform="translate(220.299375 14.878125)scale(0.12 -0.12)">
    <defs>
     <path id="DejaVuSans-43" d="M 4122 4306 
L 4122 3641 
Q 3803 3938 3442 4084 
Q 3081 4231 2675 4231 
Q 1875 4231 1450 3742 
Q 1025 3253 1025 2328 
Q 1025 1406 1450 917 
Q 1875 428 2675 428 
Q 3081 428 3442 575 
Q 3803 722 4122 1019 
L 4122 359 
Q 3791 134 3420 21 
Q 3050 -91 2638 -91 
Q 1578 -91 968 557 
Q 359 1206 359 2328 
Q 359 3453 968 4101 
Q 1578 4750 2638 4750 
Q 3056 4750 3426 4639 
Q 3797 4528 4122 4306 
z
" transform="scale(0.015625)"/>
     <path id="DejaVuSans-6f" d="M 1959 3097 
Q 1497 3097 1228 2736 
Q 959 2375 959 1747 
Q 959 1119 1226 758 
Q 1494 397 1959 397 
Q 2419 397 2687 759 
Q 2956 1122 2956 1747 
Q 2956 2369 2687 2733 
Q 2419 3097 1959 3097 
z
M 1959 3584 
Q 2709 3584 3137 3096 
Q 3566 2609 3566 1747 
Q 3566 888 3137 398 
Q 2709 -91 1959 -91 
Q 1206 -91 779 398 
Q 353 888 353 1747 
Q 353 2609 779 3096 
Q 1206 3584 1959 3584 
z
" transform="scale(0.015625)"/>
     <path id="DejaVuSans-6d" d="M 3328 2828 
Q 3544 3216 3844 3400 
Q 4144 3584 4550 3584 
Q 5097 3584 5394 3201 
Q 5691 2819 5691 2113 
L 5691 0 
L 5113 0 
L 5113 2094 
Q 5113 2597 4934 2840 
Q 4756 3084 4391 3084 
Q 3944 3084 3684 2787 
Q 3425 2491 3425 1978 
L 3425 0 
L 2847 0 
L 2847 2094 
Q 2847 2600 2669 2842 
Q 2491 3084 2119 3084 
Q 1678 3084 1418 2786 
Q 1159 2488 1159 1978 
L 1159 0 
L 581 0 
L 581 3500 
L 1159 3500 
L 1159 2956 
Q 1356 3278 1631 3431 
Q 1906 3584 2284 3584 
Q 2666 3584 2933 3390 
Q 3200 3197 3328 2828 
z
" transform="scale(0.015625)"/>
     <path id="DejaVuSans-6e" d="M 3513 2113 
L 3513 0 
L 2938 0 
L 2938 2094 
Q 2938 2591 2744 2837 
Q 2550 3084 2163 3084 
Q 1697 3084 1428 2787 
Q 1159 2491 1159 1978 
L 1159 0 
L 581 0 
L 581 3500 
L 1159 3500 
L 1159 2956 
Q 1366 3272 1645 3428 
Q 1925 3584 2291 3584 
Q 2894 3584 3203 3211 
Q 3513 2838 3513 2113 
z
" transform="scale(0.015625)"/>
     <path id="DejaVuSans-67" d="M 2906 1791 
Q 2906 2416 2648 2759 
Q 2391 3103 1925 3103 
Q 1463 3103 1205 2759 
Q 947 2416 947 1791 
Q 947 1169 1205 825 
Q 1463 481 1925 481 
Q 2391 481 2648 825 
Q 2906 1169 2906 1791 
z
M 3481 434 
Q 3481 -459 3084 -895 
Q 2688 -1331 1869 -1331 
Q 1566 -1331 1297 -1286 
Q 1028 -1241 775 -1147 
L 775 -588 
Q 1028 -725 1275 -790 
Q 1522 -856 1778 -856 
Q 2344 -856 2625 -561 
Q 2906 -266 2906 331 
L 2906 616 
Q 2728 306 2450 153 
Q 2172 0 1784 0 
Q 1141 0 747 490 
Q 353 981 353 1791 
Q 353 2603 747 3093 
Q 1141 3584 1784 3584 
Q 2172 3584 2450 3431 
Q 2728 3278 2906 2969 
L 2906 3500 
L 3481 3500 
L 3481 434 
z
" transform="scale(0.015625)"/>
     <path id="DejaVuSans-61" d="M 2194 1759 
Q 1497 1759 1228 1600 
Q 959 1441 959 1056 
Q 959 750 1161 570 
Q 1363 391 1709 391 
Q 2188 391 2477 730 
Q 2766 1069 2766 1631 
L 2766 1759 
L 2194 1759 
z
M 3341 1997 
L 3341 0 
L 2766 0 
L 2766 531 
Q 2569 213 2275 61 
Q 1981 -91 1556 -91 
Q 1019 -91 701 211 
Q 384 513 384 1019 
Q 384 1609 779 1909 
Q 1175 2209 1959 2209 
L 2766 2209 
L 2766 2266 
Q 2766 2663 2505 2880 
Q 2244 3097 1772 3097 
Q 1472 3097 1187 3025 
Q 903 2953 641 2809 
L 641 3341 
Q 956 3463 1253 3523 
Q 1550 3584 1831 3584 
Q 2591 3584 2966 3190 
Q 3341 2797 3341 1997 
z
" transform="scale(0.015625)"/>
    </defs>
    <use xlink:href="#DejaVuSans-43"/>
    <use xlink:href="#DejaVuSans-6f" x="69.824219"/>
    <use xlink:href="#DejaVuSans-6d" x="131.005859"/>
    <use xlink:href="#DejaVuSans-70" x="228.417969"/>
    <use xlink:href="#DejaVuSans-6f" x="291.894531"/>
    <use xlink:href="#DejaVuSans-75" x="353.076172"/>
    <use xlink:href="#DejaVuSans-6e" x="416.455078"/>
    <use xlink:href="#DejaVuSans-64" x="479.833984"/>
    <use xlink:href="#DejaVuSans-20" x="543.310547"/>
    <use xlink:href="#DejaVuSans-36" x="575.097656"/>
    <use xlink:href="#DejaVuSans-31" x="638.720703"/>
    <use xlink:href="#DejaVuSans-2e" x="702.34375"/>
    <use xlink:href="#DejaVuSans-20" x="734.130859"/>
    <use xlink:href="#DejaVuSans-4f" x="765.917969"/>
    <use xlink:href="#DejaVuSans-6d" x="844.628906"/>
    <use xlink:href="#DejaVuSans-65" x="942.041016"/>
    <use xlink:href="#DejaVuSans-67" x="1003.564453"/>
    <use xlink:href="#DejaVuSans-61" x="1067.041016"/>
   </g>
  </g>
 </g>
 <defs>
  <clipPath id="p4946c7b5a0">
   <rect x="57.2825" y="47.04" width="54.7675" height="225.101053"/>
  </clipPath>
  <clipPath id="pcef034c7e8">
   <rect x="170.57" y="47.04" width="54.7675" height="225.101053"/>
  </clipPath>
  <clipPath id="p177028a2a7">
   <rect x="283.8575" y="47.04" width="54.7675" height="225.101053"/>
  </clipPath>
  <clipPath id="pb7fbbdecb5">
   <rect x="397.145" y="47.04" width="54.7675" height="225.101053"/>
  </clipPath>
  <clipPath id="pc278e649f9">
   <rect x="510.4325" y="47.04" width="54.7675" height="225.101053"/>
  </clipPath>
 </defs>
</svg>
