<?xml version="1.0" encoding="utf-8" standalone="no"?>
<!DOCTYPE svg PUBLIC "-//W3C//DTD SVG 1.1//EN"
  "http://www.w3.org/Graphics/SVG/1.1/DTD/svg11.dtd">
<svg xmlns:xlink="http://www.w3.org/1999/xlink" width="576pt" height="288pt" viewBox="0 0 576 288" xmlns="http://www.w3.org/2000/svg" version="1.1">
 <metadata>
  <rdf:RDF xmlns:dc="http://purl.org/dc/elements/1.1/" xmlns:cc="http://creativecommons.org/ns#" xmlns:rdf="http://www.w3.org/1999/02/22-rdf-syntax-ns#">
   <cc:Work>
    <dc:type rdf:resource="http://purl.org/dc/dcmitype/StillImage"/>
    <dc:date>2023-05-31T12:16:51.580141</dc:date>
    <dc:format>image/svg+xml</dc:format>
    <dc:creator>
     <cc:Agent>
      <dc:title>Matplotlib v3.5.3, https://matplotlib.org/</dc:title>
     </cc:Agent>
    </dc:creator>
   </cc:Work>
  </rdf:RDF>
 </metadata>
 <defs>
  <style type="text/css">*{stroke-linejoin: round; stroke-linecap: butt}</style>
 </defs>
 <g id="figure_1">
  <g id="patch_1">
   <path d="M 0 288 
L 576 288 
L 576 0 
L 0 0 
z
" style="fill: #ffffff"/>
  </g>
  <g id="axes_1">
   <g id="patch_2">
    <path d="M 57.2825 273.7 
L 117.162 273.7 
L 117.162 47.90625 
L 57.2825 47.90625 
z
" style="fill: #ffffff"/>
   </g>
   <g id="PolyCollection_1">
    <path d="M 88.519142 263.436648 
L 85.925358 263.436648 
L 85.698524 261.363243 
L 85.4512 259.289839 
L 85.184053 257.216434 
L 84.898053 255.14303 
L 84.594486 253.069625 
L 84.27492 250.996221 
L 83.941097 248.922816 
L 83.594745 246.849412 
L 83.237303 244.776007 
L 82.869613 242.702603 
L 82.491631 240.629198 
L 82.10222 238.555794 
L 81.69908 236.482389 
L 81.278859 234.408985 
L 80.837423 232.33558 
L 80.37025 230.262176 
L 79.872873 228.188771 
L 79.341277 226.115367 
L 78.772186 224.041962 
L 78.163202 221.968558 
L 77.512804 219.895153 
L 76.820262 217.821749 
L 76.085575 215.748344 
L 75.309487 213.67494 
L 74.493682 211.601535 
L 73.64115 209.528131 
L 72.756681 207.454726 
L 71.84738 205.381322 
L 70.923068 203.307917 
L 69.996418 201.234513 
L 69.082713 199.161108 
L 68.199165 197.087704 
L 67.363813 195.014299 
L 66.594091 192.940895 
L 65.905215 190.86749 
L 65.308604 188.794086 
L 64.81053 186.720681 
L 64.411211 184.647277 
L 64.104497 182.573872 
L 63.878222 180.500468 
L 63.715217 178.427063 
L 63.59489 176.353659 
L 63.495195 174.280254 
L 63.394741 172.20685 
L 63.274796 170.133445 
L 63.12094 168.060041 
L 62.924186 165.986636 
L 62.681477 163.913232 
L 62.395564 161.839827 
L 62.074342 159.766423 
L 61.72983 157.693018 
L 61.376936 155.619614 
L 61.03223 153.546209 
L 60.71282 151.472805 
L 60.435439 149.3994 
L 60.21577 147.325996 
L 60.067959 145.252591 
L 60.004295 143.179187 
L 60.034957 141.105782 
L 60.167784 139.032378 
L 60.408026 136.958973 
L 60.758063 134.885569 
L 61.217123 132.812164 
L 61.781079 130.73876 
L 62.442383 128.665355 
L 63.190259 126.591951 
L 64.011194 124.518546 
L 64.889744 122.445142 
L 65.809589 120.371737 
L 66.754719 118.298333 
L 67.710554 116.224928 
L 68.664822 114.151524 
L 69.608038 112.078119 
L 70.533524 110.004715 
L 71.436997 107.93131 
L 72.31586 105.857906 
L 73.168394 103.784501 
L 73.993042 101.711097 
L 74.787966 99.637692 
L 75.550943 97.564288 
L 76.279597 95.490883 
L 76.971859 93.417479 
L 77.626504 91.344074 
L 78.243615 89.27067 
L 78.824838 87.197265 
L 79.373367 85.123861 
L 79.893653 83.050456 
L 80.390899 80.977052 
L 80.870434 78.903647 
L 81.337078 76.830243 
L 81.794607 74.756838 
L 82.24537 72.683434 
L 82.690125 70.610029 
L 83.128065 68.536625 
L 83.557026 66.46322 
L 83.973822 64.389816 
L 84.374635 62.316411 
L 84.755433 60.243007 
L 85.112342 58.169602 
L 89.332158 58.169602 
L 89.332158 58.169602 
L 89.689067 60.243007 
L 90.069865 62.316411 
L 90.470678 64.389816 
L 90.887474 66.46322 
L 91.316435 68.536625 
L 91.754375 70.610029 
L 92.19913 72.683434 
L 92.649893 74.756838 
L 93.107422 76.830243 
L 93.574066 78.903647 
L 94.053601 80.977052 
L 94.550847 83.050456 
L 95.071133 85.123861 
L 95.619662 87.197265 
L 96.200885 89.27067 
L 96.817996 91.344074 
L 97.472641 93.417479 
L 98.164903 95.490883 
L 98.893557 97.564288 
L 99.656534 99.637692 
L 100.451458 101.711097 
L 101.276106 103.784501 
L 102.12864 105.857906 
L 103.007503 107.93131 
L 103.910976 110.004715 
L 104.836462 112.078119 
L 105.779678 114.151524 
L 106.733946 116.224928 
L 107.689781 118.298333 
L 108.634911 120.371737 
L 109.554756 122.445142 
L 110.433306 124.518546 
L 111.254241 126.591951 
L 112.002117 128.665355 
L 112.663421 130.73876 
L 113.227377 132.812164 
L 113.686437 134.885569 
L 114.036474 136.958973 
L 114.276716 139.032378 
L 114.409543 141.105782 
L 114.440205 143.179187 
L 114.376541 145.252591 
L 114.22873 147.325996 
L 114.009061 149.3994 
L 113.73168 151.472805 
L 113.41227 153.546209 
L 113.067564 155.619614 
L 112.71467 157.693018 
L 112.370158 159.766423 
L 112.048936 161.839827 
L 111.763023 163.913232 
L 111.520314 165.986636 
L 111.32356 168.060041 
L 111.169704 170.133445 
L 111.049759 172.20685 
L 110.949305 174.280254 
L 110.84961 176.353659 
L 110.729283 178.427063 
L 110.566278 180.500468 
L 110.340003 182.573872 
L 110.033289 184.647277 
L 109.63397 186.720681 
L 109.135896 188.794086 
L 108.539285 190.86749 
L 107.850409 192.940895 
L 107.080687 195.014299 
L 106.245335 197.087704 
L 105.361787 199.161108 
L 104.448082 201.234513 
L 103.521432 203.307917 
L 102.59712 205.381322 
L 101.687819 207.454726 
L 100.80335 209.528131 
L 99.950818 211.601535 
L 99.135013 213.67494 
L 98.358925 215.748344 
L 97.624238 217.821749 
L 96.931696 219.895153 
L 96.281298 221.968558 
L 95.672314 224.041962 
L 95.103223 226.115367 
L 94.571627 228.188771 
L 94.07425 230.262176 
L 93.607077 232.33558 
L 93.165641 234.408985 
L 92.74542 236.482389 
L 92.34228 238.555794 
L 91.952869 240.629198 
L 91.574887 242.702603 
L 91.207197 244.776007 
L 90.849755 246.849412 
L 90.503403 248.922816 
L 90.16958 250.996221 
L 89.850014 253.069625 
L 89.546447 255.14303 
L 89.260447 257.216434 
L 88.9933 259.289839 
L 88.745976 261.363243 
L 88.519142 263.436648 
z
" clip-path="url(#p1033b76dbe)" style="fill: #1f77b4; fill-opacity: 0.3"/>
   </g>
   <g id="matplotlib.axis_1">
    <g id="ytick_1">
     <g id="line2d_1">
      <defs>
       <path id="m51eede6aa3" d="M 0 0 
L -3.5 0 
" style="stroke: #000000; stroke-width: 0.8"/>
      </defs>
      <g>
       <use xlink:href="#m51eede6aa3" x="57.2825" y="268.234666" style="stroke: #000000; stroke-width: 0.8"/>
      </g>
     </g>
     <g id="text_1">
      <!-- 0.25 -->
      <g transform="translate(28.016875 272.033884)scale(0.1 -0.1)">
       <defs>
        <path id="DejaVuSans-30" d="M 2034 4250 
Q 1547 4250 1301 3770 
Q 1056 3291 1056 2328 
Q 1056 1369 1301 889 
Q 1547 409 2034 409 
Q 2525 409 2770 889 
Q 3016 1369 3016 2328 
Q 3016 3291 2770 3770 
Q 2525 4250 2034 4250 
z
M 2034 4750 
Q 2819 4750 3233 4129 
Q 3647 3509 3647 2328 
Q 3647 1150 3233 529 
Q 2819 -91 2034 -91 
Q 1250 -91 836 529 
Q 422 1150 422 2328 
Q 422 3509 836 4129 
Q 1250 4750 2034 4750 
z
" transform="scale(0.015625)"/>
        <path id="DejaVuSans-2e" d="M 684 794 
L 1344 794 
L 1344 0 
L 684 0 
L 684 794 
z
" transform="scale(0.015625)"/>
        <path id="DejaVuSans-32" d="M 1228 531 
L 3431 531 
L 3431 0 
L 469 0 
L 469 531 
Q 828 903 1448 1529 
Q 2069 2156 2228 2338 
Q 2531 2678 2651 2914 
Q 2772 3150 2772 3378 
Q 2772 3750 2511 3984 
Q 2250 4219 1831 4219 
Q 1534 4219 1204 4116 
Q 875 4013 500 3803 
L 500 4441 
Q 881 4594 1212 4672 
Q 1544 4750 1819 4750 
Q 2544 4750 2975 4387 
Q 3406 4025 3406 3419 
Q 3406 3131 3298 2873 
Q 3191 2616 2906 2266 
Q 2828 2175 2409 1742 
Q 1991 1309 1228 531 
z
" transform="scale(0.015625)"/>
        <path id="DejaVuSans-35" d="M 691 4666 
L 3169 4666 
L 3169 4134 
L 1269 4134 
L 1269 2991 
Q 1406 3038 1543 3061 
Q 1681 3084 1819 3084 
Q 2600 3084 3056 2656 
Q 3513 2228 3513 1497 
Q 3513 744 3044 326 
Q 2575 -91 1722 -91 
Q 1428 -91 1123 -41 
Q 819 9 494 109 
L 494 744 
Q 775 591 1075 516 
Q 1375 441 1709 441 
Q 2250 441 2565 725 
Q 2881 1009 2881 1497 
Q 2881 1984 2565 2268 
Q 2250 2553 1709 2553 
Q 1456 2553 1204 2497 
Q 953 2441 691 2322 
L 691 4666 
z
" transform="scale(0.015625)"/>
       </defs>
       <use xlink:href="#DejaVuSans-30"/>
       <use xlink:href="#DejaVuSans-2e" x="63.623047"/>
       <use xlink:href="#DejaVuSans-32" x="95.410156"/>
       <use xlink:href="#DejaVuSans-35" x="159.033203"/>
      </g>
     </g>
    </g>
    <g id="ytick_2">
     <g id="line2d_2">
      <g>
       <use xlink:href="#m51eede6aa3" x="57.2825" y="238.622147" style="stroke: #000000; stroke-width: 0.8"/>
      </g>
     </g>
     <g id="text_2">
      <!-- 0.50 -->
      <g transform="translate(28.016875 242.421365)scale(0.1 -0.1)">
       <use xlink:href="#DejaVuSans-30"/>
       <use xlink:href="#DejaVuSans-2e" x="63.623047"/>
       <use xlink:href="#DejaVuSans-35" x="95.410156"/>
       <use xlink:href="#DejaVuSans-30" x="159.033203"/>
      </g>
     </g>
    </g>
    <g id="ytick_3">
     <g id="line2d_3">
      <g>
       <use xlink:href="#m51eede6aa3" x="57.2825" y="209.009628" style="stroke: #000000; stroke-width: 0.8"/>
      </g>
     </g>
     <g id="text_3">
      <!-- 0.75 -->
      <g transform="translate(28.016875 212.808847)scale(0.1 -0.1)">
       <defs>
        <path id="DejaVuSans-37" d="M 525 4666 
L 3525 4666 
L 3525 4397 
L 1831 0 
L 1172 0 
L 2766 4134 
L 525 4134 
L 525 4666 
z
" transform="scale(0.015625)"/>
       </defs>
       <use xlink:href="#DejaVuSans-30"/>
       <use xlink:href="#DejaVuSans-2e" x="63.623047"/>
       <use xlink:href="#DejaVuSans-37" x="95.410156"/>
       <use xlink:href="#DejaVuSans-35" x="159.033203"/>
      </g>
     </g>
    </g>
    <g id="ytick_4">
     <g id="line2d_4">
      <g>
       <use xlink:href="#m51eede6aa3" x="57.2825" y="179.397109" style="stroke: #000000; stroke-width: 0.8"/>
      </g>
     </g>
     <g id="text_4">
      <!-- 1.00 -->
      <g transform="translate(28.016875 183.196328)scale(0.1 -0.1)">
       <defs>
        <path id="DejaVuSans-31" d="M 794 531 
L 1825 531 
L 1825 4091 
L 703 3866 
L 703 4441 
L 1819 4666 
L 2450 4666 
L 2450 531 
L 3481 531 
L 3481 0 
L 794 0 
L 794 531 
z
" transform="scale(0.015625)"/>
       </defs>
       <use xlink:href="#DejaVuSans-31"/>
       <use xlink:href="#DejaVuSans-2e" x="63.623047"/>
       <use xlink:href="#DejaVuSans-30" x="95.410156"/>
       <use xlink:href="#DejaVuSans-30" x="159.033203"/>
      </g>
     </g>
    </g>
    <g id="ytick_5">
     <g id="line2d_5">
      <g>
       <use xlink:href="#m51eede6aa3" x="57.2825" y="149.78459" style="stroke: #000000; stroke-width: 0.8"/>
      </g>
     </g>
     <g id="text_5">
      <!-- 1.25 -->
      <g transform="translate(28.016875 153.583809)scale(0.1 -0.1)">
       <use xlink:href="#DejaVuSans-31"/>
       <use xlink:href="#DejaVuSans-2e" x="63.623047"/>
       <use xlink:href="#DejaVuSans-32" x="95.410156"/>
       <use xlink:href="#DejaVuSans-35" x="159.033203"/>
      </g>
     </g>
    </g>
    <g id="ytick_6">
     <g id="line2d_6">
      <g>
       <use xlink:href="#m51eede6aa3" x="57.2825" y="120.172071" style="stroke: #000000; stroke-width: 0.8"/>
      </g>
     </g>
     <g id="text_6">
      <!-- 1.50 -->
      <g transform="translate(28.016875 123.97129)scale(0.1 -0.1)">
       <use xlink:href="#DejaVuSans-31"/>
       <use xlink:href="#DejaVuSans-2e" x="63.623047"/>
       <use xlink:href="#DejaVuSans-35" x="95.410156"/>
       <use xlink:href="#DejaVuSans-30" x="159.033203"/>
      </g>
     </g>
    </g>
    <g id="ytick_7">
     <g id="line2d_7">
      <g>
       <use xlink:href="#m51eede6aa3" x="57.2825" y="90.559552" style="stroke: #000000; stroke-width: 0.8"/>
      </g>
     </g>
     <g id="text_7">
      <!-- 1.75 -->
      <g transform="translate(28.016875 94.358771)scale(0.1 -0.1)">
       <use xlink:href="#DejaVuSans-31"/>
       <use xlink:href="#DejaVuSans-2e" x="63.623047"/>
       <use xlink:href="#DejaVuSans-37" x="95.410156"/>
       <use xlink:href="#DejaVuSans-35" x="159.033203"/>
      </g>
     </g>
    </g>
    <g id="ytick_8">
     <g id="line2d_8">
      <g>
       <use xlink:href="#m51eede6aa3" x="57.2825" y="60.947033" style="stroke: #000000; stroke-width: 0.8"/>
      </g>
     </g>
     <g id="text_8">
      <!-- 2.00 -->
      <g transform="translate(28.016875 64.746252)scale(0.1 -0.1)">
       <use xlink:href="#DejaVuSans-32"/>
       <use xlink:href="#DejaVuSans-2e" x="63.623047"/>
       <use xlink:href="#DejaVuSans-30" x="95.410156"/>
       <use xlink:href="#DejaVuSans-30" x="159.033203"/>
      </g>
     </g>
    </g>
    <g id="text_9">
     <!-- RMSD [$\AA$] -->
     <g transform="translate(21.937187 184.553125)rotate(-90)scale(0.1 -0.1)">
      <defs>
       <path id="DejaVuSans-52" d="M 2841 2188 
Q 3044 2119 3236 1894 
Q 3428 1669 3622 1275 
L 4263 0 
L 3584 0 
L 2988 1197 
Q 2756 1666 2539 1819 
Q 2322 1972 1947 1972 
L 1259 1972 
L 1259 0 
L 628 0 
L 628 4666 
L 2053 4666 
Q 2853 4666 3247 4331 
Q 3641 3997 3641 3322 
Q 3641 2881 3436 2590 
Q 3231 2300 2841 2188 
z
M 1259 4147 
L 1259 2491 
L 2053 2491 
Q 2509 2491 2742 2702 
Q 2975 2913 2975 3322 
Q 2975 3731 2742 3939 
Q 2509 4147 2053 4147 
L 1259 4147 
z
" transform="scale(0.015625)"/>
       <path id="DejaVuSans-4d" d="M 628 4666 
L 1569 4666 
L 2759 1491 
L 3956 4666 
L 4897 4666 
L 4897 0 
L 4281 0 
L 4281 4097 
L 3078 897 
L 2444 897 
L 1241 4097 
L 1241 0 
L 628 0 
L 628 4666 
z
" transform="scale(0.015625)"/>
       <path id="DejaVuSans-53" d="M 3425 4513 
L 3425 3897 
Q 3066 4069 2747 4153 
Q 2428 4238 2131 4238 
Q 1616 4238 1336 4038 
Q 1056 3838 1056 3469 
Q 1056 3159 1242 3001 
Q 1428 2844 1947 2747 
L 2328 2669 
Q 3034 2534 3370 2195 
Q 3706 1856 3706 1288 
Q 3706 609 3251 259 
Q 2797 -91 1919 -91 
Q 1588 -91 1214 -16 
Q 841 59 441 206 
L 441 856 
Q 825 641 1194 531 
Q 1563 422 1919 422 
Q 2459 422 2753 634 
Q 3047 847 3047 1241 
Q 3047 1584 2836 1778 
Q 2625 1972 2144 2069 
L 1759 2144 
Q 1053 2284 737 2584 
Q 422 2884 422 3419 
Q 422 4038 858 4394 
Q 1294 4750 2059 4750 
Q 2388 4750 2728 4690 
Q 3069 4631 3425 4513 
z
" transform="scale(0.015625)"/>
       <path id="DejaVuSans-44" d="M 1259 4147 
L 1259 519 
L 2022 519 
Q 2988 519 3436 956 
Q 3884 1394 3884 2338 
Q 3884 3275 3436 3711 
Q 2988 4147 2022 4147 
L 1259 4147 
z
M 628 4666 
L 1925 4666 
Q 3281 4666 3915 4102 
Q 4550 3538 4550 2338 
Q 4550 1131 3912 565 
Q 3275 0 1925 0 
L 628 0 
L 628 4666 
z
" transform="scale(0.015625)"/>
       <path id="DejaVuSans-20" transform="scale(0.015625)"/>
       <path id="DejaVuSans-5b" d="M 550 4863 
L 1875 4863 
L 1875 4416 
L 1125 4416 
L 1125 -397 
L 1875 -397 
L 1875 -844 
L 550 -844 
L 550 4863 
z
" transform="scale(0.015625)"/>
       <path id="DejaVuSans-Oblique-c5" d="M 3188 5081 
Q 3188 5278 3048 5417 
Q 2909 5556 2713 5556 
Q 2513 5556 2377 5420 
Q 2241 5284 2241 5081 
Q 2241 4884 2377 4746 
Q 2513 4609 2713 4609 
Q 2909 4609 3048 4746 
Q 3188 4884 3188 5081 
z
M 2203 4397 
Q 2034 4513 1945 4689 
Q 1856 4866 1856 5081 
Q 1856 5438 2106 5689 
Q 2356 5941 2713 5941 
Q 3069 5941 3320 5689 
Q 3572 5438 3572 5081 
Q 3572 4834 3458 4643 
Q 3344 4453 3128 4341 
L 3938 0 
L 3278 0 
L 3084 1197 
L 984 1197 
L 325 0 
L -341 0 
L 2203 4397 
z
M 2584 4044 
L 1275 1722 
L 2988 1722 
L 2584 4044 
z
" transform="scale(0.015625)"/>
       <path id="DejaVuSans-5d" d="M 1947 4863 
L 1947 -844 
L 622 -844 
L 622 -397 
L 1369 -397 
L 1369 4416 
L 622 4416 
L 622 4863 
L 1947 4863 
z
" transform="scale(0.015625)"/>
      </defs>
      <use xlink:href="#DejaVuSans-52" transform="translate(0 0.171875)"/>
      <use xlink:href="#DejaVuSans-4d" transform="translate(69.482422 0.171875)"/>
      <use xlink:href="#DejaVuSans-53" transform="translate(155.761719 0.171875)"/>
      <use xlink:href="#DejaVuSans-44" transform="translate(219.238281 0.171875)"/>
      <use xlink:href="#DejaVuSans-20" transform="translate(296.240234 0.171875)"/>
      <use xlink:href="#DejaVuSans-5b" transform="translate(328.027344 0.171875)"/>
      <use xlink:href="#DejaVuSans-Oblique-c5" transform="translate(367.041016 0.171875)"/>
      <use xlink:href="#DejaVuSans-5d" transform="translate(435.449219 0.171875)"/>
     </g>
    </g>
   </g>
   <g id="LineCollection_1">
    <path d="M 73.613273 156.019017 
L 100.831227 156.019017 
" clip-path="url(#p1033b76dbe)" style="fill: none; stroke: #1f77b4; stroke-width: 1.5"/>
   </g>
   <g id="LineCollection_2">
    <path d="M 73.613273 58.169602 
L 100.831227 58.169602 
" clip-path="url(#p1033b76dbe)" style="fill: none; stroke: #1f77b4; stroke-width: 1.5"/>
   </g>
   <g id="LineCollection_3">
    <path d="M 73.613273 263.436648 
L 100.831227 263.436648 
" clip-path="url(#p1033b76dbe)" style="fill: none; stroke: #1f77b4; stroke-width: 1.5"/>
   </g>
   <g id="LineCollection_4">
    <path d="M 87.22225 263.436648 
L 87.22225 58.169602 
" clip-path="url(#p1033b76dbe)" style="fill: none; stroke: #1f77b4; stroke-width: 1.5"/>
   </g>
   <g id="patch_3">
    <path d="M 57.2825 273.7 
L 57.2825 47.90625 
" style="fill: none; stroke: #000000; stroke-width: 0.8; stroke-linejoin: miter; stroke-linecap: square"/>
   </g>
   <g id="patch_4">
    <path d="M 117.162 273.7 
L 117.162 47.90625 
" style="fill: none; stroke: #000000; stroke-width: 0.8; stroke-linejoin: miter; stroke-linecap: square"/>
   </g>
   <g id="patch_5">
    <path d="M 57.2825 273.7 
L 117.162 273.7 
" style="fill: none; stroke: #000000; stroke-width: 0.8; stroke-linejoin: miter; stroke-linecap: square"/>
   </g>
   <g id="patch_6">
    <path d="M 57.2825 47.90625 
L 117.162 47.90625 
" style="fill: none; stroke: #000000; stroke-width: 0.8; stroke-linejoin: miter; stroke-linecap: square"/>
   </g>
   <g id="text_10">
    <!-- RMSD -->
    <g transform="translate(69.44725 41.90625)scale(0.12 -0.12)">
     <use xlink:href="#DejaVuSans-52"/>
     <use xlink:href="#DejaVuSans-4d" x="69.482422"/>
     <use xlink:href="#DejaVuSans-53" x="155.761719"/>
     <use xlink:href="#DejaVuSans-44" x="219.238281"/>
    </g>
   </g>
  </g>
  <g id="axes_2">
   <g id="patch_7">
    <path d="M 169.292 273.7 
L 229.1715 273.7 
L 229.1715 47.90625 
L 169.292 47.90625 
z
" style="fill: #ffffff"/>
   </g>
   <g id="PolyCollection_2">
    <path d="M 200.957889 263.436648 
L 197.505611 263.436648 
L 197.208374 261.363243 
L 196.889398 259.289839 
L 196.550766 257.216434 
L 196.194183 255.14303 
L 195.820655 253.069625 
L 195.430212 250.996221 
L 195.021767 248.922816 
L 194.593132 246.849412 
L 194.141231 244.776007 
L 193.66252 242.702603 
L 193.153586 240.629198 
L 192.611843 238.555794 
L 192.036223 236.482389 
L 191.427722 234.408985 
L 190.78966 232.33558 
L 190.127542 230.262176 
L 189.448497 228.188771 
L 188.760314 226.115367 
L 188.070243 224.041962 
L 187.383772 221.968558 
L 186.703634 219.895153 
L 186.029309 217.821749 
L 185.357172 215.748344 
L 184.681342 213.67494 
L 183.995128 211.601535 
L 183.292827 209.528131 
L 182.571542 207.454726 
L 181.832638 205.381322 
L 181.08252 203.307917 
L 180.332518 201.234513 
L 179.597842 199.161108 
L 178.895733 197.087704 
L 178.243106 195.014299 
L 177.654088 192.940895 
L 177.137853 190.86749 
L 176.697137 188.794086 
L 176.327689 186.720681 
L 176.018727 184.647277 
L 175.754353 182.573872 
L 175.515671 180.500468 
L 175.283301 178.427063 
L 175.039918 176.353659 
L 174.772456 174.280254 
L 174.473726 172.20685 
L 174.143269 170.133445 
L 173.787402 168.060041 
L 173.418526 165.986636 
L 173.053851 163.913232 
L 172.713725 161.839827 
L 172.419791 159.766423 
L 172.193154 157.693018 
L 172.052717 155.619614 
L 172.013795 153.546209 
L 172.087075 151.472805 
L 172.277978 149.3994 
L 172.586443 147.325996 
L 173.007151 145.252591 
L 173.530158 143.179187 
L 174.141908 141.105782 
L 174.826505 139.032378 
L 175.567132 136.958973 
L 176.347428 134.885569 
L 177.15267 132.812164 
L 177.970611 130.73876 
L 178.791896 128.665355 
L 179.610034 126.591951 
L 180.421003 124.518546 
L 181.222604 122.445142 
L 182.013705 120.371737 
L 182.793525 118.298333 
L 183.561068 116.224928 
L 184.314774 114.151524 
L 185.052384 112.078119 
L 185.771009 110.004715 
L 186.46734 107.93131 
L 187.137938 105.857906 
L 187.779567 103.784501 
L 188.389525 101.711097 
L 188.965951 99.637692 
L 189.508101 97.564288 
L 190.016539 95.490883 
L 190.493252 93.417479 
L 190.941621 91.344074 
L 191.366242 89.27067 
L 191.772591 87.197265 
L 192.166542 85.123861 
L 192.553819 83.050456 
L 192.939428 80.977052 
L 193.327178 78.903647 
L 193.719353 76.830243 
L 194.116569 74.756838 
L 194.517848 72.683434 
L 194.920848 70.610029 
L 195.322211 68.536625 
L 195.717959 66.46322 
L 196.103865 64.389816 
L 196.475771 62.316411 
L 196.829821 60.243007 
L 197.162621 58.169602 
L 201.300879 58.169602 
L 201.300879 58.169602 
L 201.633679 60.243007 
L 201.987729 62.316411 
L 202.359635 64.389816 
L 202.745541 66.46322 
L 203.141289 68.536625 
L 203.542652 70.610029 
L 203.945652 72.683434 
L 204.346931 74.756838 
L 204.744147 76.830243 
L 205.136322 78.903647 
L 205.524072 80.977052 
L 205.909681 83.050456 
L 206.296958 85.123861 
L 206.690909 87.197265 
L 207.097258 89.27067 
L 207.521879 91.344074 
L 207.970248 93.417479 
L 208.446961 95.490883 
L 208.955399 97.564288 
L 209.497549 99.637692 
L 210.073975 101.711097 
L 210.683933 103.784501 
L 211.325562 105.857906 
L 211.99616 107.93131 
L 212.692491 110.004715 
L 213.411116 112.078119 
L 214.148726 114.151524 
L 214.902432 116.224928 
L 215.669975 118.298333 
L 216.449795 120.371737 
L 217.240896 122.445142 
L 218.042497 124.518546 
L 218.853466 126.591951 
L 219.671604 128.665355 
L 220.492889 130.73876 
L 221.31083 132.812164 
L 222.116072 134.885569 
L 222.896368 136.958973 
L 223.636995 139.032378 
L 224.321592 141.105782 
L 224.933342 143.179187 
L 225.456349 145.252591 
L 225.877057 147.325996 
L 226.185522 149.3994 
L 226.376425 151.472805 
L 226.449705 153.546209 
L 226.410783 155.619614 
L 226.270346 157.693018 
L 226.043709 159.766423 
L 225.749775 161.839827 
L 225.409649 163.913232 
L 225.044974 165.986636 
L 224.676098 168.060041 
L 224.320231 170.133445 
L 223.989774 172.20685 
L 223.691044 174.280254 
L 223.423582 176.353659 
L 223.180199 178.427063 
L 222.947829 180.500468 
L 222.709147 182.573872 
L 222.444773 184.647277 
L 222.135811 186.720681 
L 221.766363 188.794086 
L 221.325647 190.86749 
L 220.809412 192.940895 
L 220.220394 195.014299 
L 219.567767 197.087704 
L 218.865658 199.161108 
L 218.130982 201.234513 
L 217.38098 203.307917 
L 216.630862 205.381322 
L 215.891958 207.454726 
L 215.170673 209.528131 
L 214.468372 211.601535 
L 213.782158 213.67494 
L 213.106328 215.748344 
L 212.434191 217.821749 
L 211.759866 219.895153 
L 211.079728 221.968558 
L 210.393257 224.041962 
L 209.703186 226.115367 
L 209.015003 228.188771 
L 208.335958 230.262176 
L 207.67384 232.33558 
L 207.035778 234.408985 
L 206.427277 236.482389 
L 205.851657 238.555794 
L 205.309914 240.629198 
L 204.80098 242.702603 
L 204.322269 244.776007 
L 203.870368 246.849412 
L 203.441733 248.922816 
L 203.033288 250.996221 
L 202.642845 253.069625 
L 202.269317 255.14303 
L 201.912734 257.216434 
L 201.574102 259.289839 
L 201.255126 261.363243 
L 200.957889 263.436648 
z
" clip-path="url(#p6dd76fb3f6)" style="fill: #1f77b4; fill-opacity: 0.3"/>
   </g>
   <g id="matplotlib.axis_2">
    <g id="ytick_9">
     <g id="line2d_9">
      <g>
       <use xlink:href="#m51eede6aa3" x="169.292" y="267.958405" style="stroke: #000000; stroke-width: 0.8"/>
      </g>
     </g>
     <g id="text_11">
      <!-- 0.2 -->
      <g transform="translate(146.388875 271.757624)scale(0.1 -0.1)">
       <use xlink:href="#DejaVuSans-30"/>
       <use xlink:href="#DejaVuSans-2e" x="63.623047"/>
       <use xlink:href="#DejaVuSans-32" x="95.410156"/>
      </g>
     </g>
    </g>
    <g id="ytick_10">
     <g id="line2d_10">
      <g>
       <use xlink:href="#m51eede6aa3" x="169.292" y="237.640617" style="stroke: #000000; stroke-width: 0.8"/>
      </g>
     </g>
     <g id="text_12">
      <!-- 0.4 -->
      <g transform="translate(146.388875 241.439836)scale(0.1 -0.1)">
       <defs>
        <path id="DejaVuSans-34" d="M 2419 4116 
L 825 1625 
L 2419 1625 
L 2419 4116 
z
M 2253 4666 
L 3047 4666 
L 3047 1625 
L 3713 1625 
L 3713 1100 
L 3047 1100 
L 3047 0 
L 2419 0 
L 2419 1100 
L 313 1100 
L 313 1709 
L 2253 4666 
z
" transform="scale(0.015625)"/>
       </defs>
       <use xlink:href="#DejaVuSans-30"/>
       <use xlink:href="#DejaVuSans-2e" x="63.623047"/>
       <use xlink:href="#DejaVuSans-34" x="95.410156"/>
      </g>
     </g>
    </g>
    <g id="ytick_11">
     <g id="line2d_11">
      <g>
       <use xlink:href="#m51eede6aa3" x="169.292" y="207.322828" style="stroke: #000000; stroke-width: 0.8"/>
      </g>
     </g>
     <g id="text_13">
      <!-- 0.6 -->
      <g transform="translate(146.388875 211.122047)scale(0.1 -0.1)">
       <defs>
        <path id="DejaVuSans-36" d="M 2113 2584 
Q 1688 2584 1439 2293 
Q 1191 2003 1191 1497 
Q 1191 994 1439 701 
Q 1688 409 2113 409 
Q 2538 409 2786 701 
Q 3034 994 3034 1497 
Q 3034 2003 2786 2293 
Q 2538 2584 2113 2584 
z
M 3366 4563 
L 3366 3988 
Q 3128 4100 2886 4159 
Q 2644 4219 2406 4219 
Q 1781 4219 1451 3797 
Q 1122 3375 1075 2522 
Q 1259 2794 1537 2939 
Q 1816 3084 2150 3084 
Q 2853 3084 3261 2657 
Q 3669 2231 3669 1497 
Q 3669 778 3244 343 
Q 2819 -91 2113 -91 
Q 1303 -91 875 529 
Q 447 1150 447 2328 
Q 447 3434 972 4092 
Q 1497 4750 2381 4750 
Q 2619 4750 2861 4703 
Q 3103 4656 3366 4563 
z
" transform="scale(0.015625)"/>
       </defs>
       <use xlink:href="#DejaVuSans-30"/>
       <use xlink:href="#DejaVuSans-2e" x="63.623047"/>
       <use xlink:href="#DejaVuSans-36" x="95.410156"/>
      </g>
     </g>
    </g>
    <g id="ytick_12">
     <g id="line2d_12">
      <g>
       <use xlink:href="#m51eede6aa3" x="169.292" y="177.00504" style="stroke: #000000; stroke-width: 0.8"/>
      </g>
     </g>
     <g id="text_14">
      <!-- 0.8 -->
      <g transform="translate(146.388875 180.804259)scale(0.1 -0.1)">
       <defs>
        <path id="DejaVuSans-38" d="M 2034 2216 
Q 1584 2216 1326 1975 
Q 1069 1734 1069 1313 
Q 1069 891 1326 650 
Q 1584 409 2034 409 
Q 2484 409 2743 651 
Q 3003 894 3003 1313 
Q 3003 1734 2745 1975 
Q 2488 2216 2034 2216 
z
M 1403 2484 
Q 997 2584 770 2862 
Q 544 3141 544 3541 
Q 544 4100 942 4425 
Q 1341 4750 2034 4750 
Q 2731 4750 3128 4425 
Q 3525 4100 3525 3541 
Q 3525 3141 3298 2862 
Q 3072 2584 2669 2484 
Q 3125 2378 3379 2068 
Q 3634 1759 3634 1313 
Q 3634 634 3220 271 
Q 2806 -91 2034 -91 
Q 1263 -91 848 271 
Q 434 634 434 1313 
Q 434 1759 690 2068 
Q 947 2378 1403 2484 
z
M 1172 3481 
Q 1172 3119 1398 2916 
Q 1625 2713 2034 2713 
Q 2441 2713 2670 2916 
Q 2900 3119 2900 3481 
Q 2900 3844 2670 4047 
Q 2441 4250 2034 4250 
Q 1625 4250 1398 4047 
Q 1172 3844 1172 3481 
z
" transform="scale(0.015625)"/>
       </defs>
       <use xlink:href="#DejaVuSans-30"/>
       <use xlink:href="#DejaVuSans-2e" x="63.623047"/>
       <use xlink:href="#DejaVuSans-38" x="95.410156"/>
      </g>
     </g>
    </g>
    <g id="ytick_13">
     <g id="line2d_13">
      <g>
       <use xlink:href="#m51eede6aa3" x="169.292" y="146.687251" style="stroke: #000000; stroke-width: 0.8"/>
      </g>
     </g>
     <g id="text_15">
      <!-- 1.0 -->
      <g transform="translate(146.388875 150.48647)scale(0.1 -0.1)">
       <use xlink:href="#DejaVuSans-31"/>
       <use xlink:href="#DejaVuSans-2e" x="63.623047"/>
       <use xlink:href="#DejaVuSans-30" x="95.410156"/>
      </g>
     </g>
    </g>
    <g id="ytick_14">
     <g id="line2d_14">
      <g>
       <use xlink:href="#m51eede6aa3" x="169.292" y="116.369463" style="stroke: #000000; stroke-width: 0.8"/>
      </g>
     </g>
     <g id="text_16">
      <!-- 1.2 -->
      <g transform="translate(146.388875 120.168682)scale(0.1 -0.1)">
       <use xlink:href="#DejaVuSans-31"/>
       <use xlink:href="#DejaVuSans-2e" x="63.623047"/>
       <use xlink:href="#DejaVuSans-32" x="95.410156"/>
      </g>
     </g>
    </g>
    <g id="ytick_15">
     <g id="line2d_15">
      <g>
       <use xlink:href="#m51eede6aa3" x="169.292" y="86.051674" style="stroke: #000000; stroke-width: 0.8"/>
      </g>
     </g>
     <g id="text_17">
      <!-- 1.4 -->
      <g transform="translate(146.388875 89.850893)scale(0.1 -0.1)">
       <use xlink:href="#DejaVuSans-31"/>
       <use xlink:href="#DejaVuSans-2e" x="63.623047"/>
       <use xlink:href="#DejaVuSans-34" x="95.410156"/>
      </g>
     </g>
    </g>
    <g id="ytick_16">
     <g id="line2d_16">
      <g>
       <use xlink:href="#m51eede6aa3" x="169.292" y="55.733886" style="stroke: #000000; stroke-width: 0.8"/>
      </g>
     </g>
     <g id="text_18">
      <!-- 1.6 -->
      <g transform="translate(146.388875 59.533104)scale(0.1 -0.1)">
       <use xlink:href="#DejaVuSans-31"/>
       <use xlink:href="#DejaVuSans-2e" x="63.623047"/>
       <use xlink:href="#DejaVuSans-36" x="95.410156"/>
      </g>
     </g>
    </g>
    <g id="text_19">
     <!-- MAE [$\AA$] -->
     <g transform="translate(140.309188 180.653125)rotate(-90)scale(0.1 -0.1)">
      <defs>
       <path id="DejaVuSans-41" d="M 2188 4044 
L 1331 1722 
L 3047 1722 
L 2188 4044 
z
M 1831 4666 
L 2547 4666 
L 4325 0 
L 3669 0 
L 3244 1197 
L 1141 1197 
L 716 0 
L 50 0 
L 1831 4666 
z
" transform="scale(0.015625)"/>
       <path id="DejaVuSans-45" d="M 628 4666 
L 3578 4666 
L 3578 4134 
L 1259 4134 
L 1259 2753 
L 3481 2753 
L 3481 2222 
L 1259 2222 
L 1259 531 
L 3634 531 
L 3634 0 
L 628 0 
L 628 4666 
z
" transform="scale(0.015625)"/>
      </defs>
      <use xlink:href="#DejaVuSans-4d" transform="translate(0 0.171875)"/>
      <use xlink:href="#DejaVuSans-41" transform="translate(86.279297 0.171875)"/>
      <use xlink:href="#DejaVuSans-45" transform="translate(154.6875 0.171875)"/>
      <use xlink:href="#DejaVuSans-20" transform="translate(217.871094 0.171875)"/>
      <use xlink:href="#DejaVuSans-5b" transform="translate(249.658203 0.171875)"/>
      <use xlink:href="#DejaVuSans-Oblique-c5" transform="translate(288.671875 0.171875)"/>
      <use xlink:href="#DejaVuSans-5d" transform="translate(357.080078 0.171875)"/>
     </g>
    </g>
   </g>
   <g id="LineCollection_5">
    <path d="M 185.622773 161.27477 
L 212.840727 161.27477 
" clip-path="url(#p6dd76fb3f6)" style="fill: none; stroke: #1f77b4; stroke-width: 1.5"/>
   </g>
   <g id="LineCollection_6">
    <path d="M 185.622773 58.169602 
L 212.840727 58.169602 
" clip-path="url(#p6dd76fb3f6)" style="fill: none; stroke: #1f77b4; stroke-width: 1.5"/>
   </g>
   <g id="LineCollection_7">
    <path d="M 185.622773 263.436648 
L 212.840727 263.436648 
" clip-path="url(#p6dd76fb3f6)" style="fill: none; stroke: #1f77b4; stroke-width: 1.5"/>
   </g>
   <g id="LineCollection_8">
    <path d="M 199.23175 263.436648 
L 199.23175 58.169602 
" clip-path="url(#p6dd76fb3f6)" style="fill: none; stroke: #1f77b4; stroke-width: 1.5"/>
   </g>
   <g id="patch_8">
    <path d="M 169.292 273.7 
L 169.292 47.90625 
" style="fill: none; stroke: #000000; stroke-width: 0.8; stroke-linejoin: miter; stroke-linecap: square"/>
   </g>
   <g id="patch_9">
    <path d="M 229.1715 273.7 
L 229.1715 47.90625 
" style="fill: none; stroke: #000000; stroke-width: 0.8; stroke-linejoin: miter; stroke-linecap: square"/>
   </g>
   <g id="patch_10">
    <path d="M 169.292 273.7 
L 229.1715 273.7 
" style="fill: none; stroke: #000000; stroke-width: 0.8; stroke-linejoin: miter; stroke-linecap: square"/>
   </g>
   <g id="patch_11">
    <path d="M 169.292 47.90625 
L 229.1715 47.90625 
" style="fill: none; stroke: #000000; stroke-width: 0.8; stroke-linejoin: miter; stroke-linecap: square"/>
   </g>
   <g id="text_20">
    <!-- MAE -->
    <g transform="translate(186.15925 41.90625)scale(0.12 -0.12)">
     <use xlink:href="#DejaVuSans-4d"/>
     <use xlink:href="#DejaVuSans-41" x="86.279297"/>
     <use xlink:href="#DejaVuSans-45" x="154.6875"/>
    </g>
   </g>
  </g>
  <g id="axes_3">
   <g id="patch_12">
    <path d="M 281.3015 273.7 
L 341.181 273.7 
L 341.181 47.90625 
L 281.3015 47.90625 
z
" style="fill: #ffffff"/>
   </g>
   <g id="PolyCollection_3">
    <path d="M 313.622069 263.436648 
L 308.860431 263.436648 
L 308.335611 261.363243 
L 307.748505 259.289839 
L 307.105555 257.216434 
L 306.416888 255.14303 
L 305.695919 253.069625 
L 304.958424 250.996221 
L 304.221141 248.922816 
L 303.500077 246.849412 
L 302.808755 244.776007 
L 302.156716 242.702603 
L 301.548495 240.629198 
L 300.983243 238.555794 
L 300.454998 236.482389 
L 299.95349 234.408985 
L 299.465279 232.33558 
L 298.974996 230.262176 
L 298.466512 228.188771 
L 297.923961 226.115367 
L 297.332632 224.041962 
L 296.679832 221.968558 
L 295.95581 219.895153 
L 295.154784 217.821749 
L 294.276012 215.748344 
L 293.324733 213.67494 
L 292.312744 211.601535 
L 291.258392 209.528131 
L 290.185822 207.454726 
L 289.123473 205.381322 
L 288.101946 203.307917 
L 287.151525 201.234513 
L 286.299668 199.161108 
L 285.568816 197.087704 
L 284.974781 195.014299 
L 284.52588 192.940895 
L 284.222837 190.86749 
L 284.059367 188.794086 
L 284.023295 186.720681 
L 284.098002 184.647277 
L 284.264033 182.573872 
L 284.500727 180.500468 
L 284.787757 178.427063 
L 285.106528 176.353659 
L 285.441354 174.280254 
L 285.780354 172.20685 
L 286.115972 170.133445 
L 286.445062 168.060041 
L 286.768507 165.986636 
L 287.090409 163.913232 
L 287.417 161.839827 
L 287.755444 159.766423 
L 288.112758 157.693018 
L 288.495035 155.619614 
L 288.907051 153.546209 
L 289.352258 151.472805 
L 289.833059 149.3994 
L 290.351217 147.325996 
L 290.908235 145.252591 
L 291.505584 143.179187 
L 292.144745 141.105782 
L 292.827034 139.032378 
L 293.553273 136.958973 
L 294.323363 134.885569 
L 295.135821 132.812164 
L 295.98735 130.73876 
L 296.872517 128.665355 
L 297.783601 126.591951 
L 298.710669 124.518546 
L 299.641916 122.445142 
L 300.564269 120.371737 
L 301.464197 118.298333 
L 302.328638 116.224928 
L 303.145922 114.151524 
L 303.906569 112.078119 
L 304.603863 110.004715 
L 305.234134 107.93131 
L 305.79675 105.857906 
L 306.293826 103.784501 
L 306.729725 101.711097 
L 307.110424 99.637692 
L 307.442829 97.564288 
L 307.734136 95.490883 
L 307.991306 93.417479 
L 308.220698 91.344074 
L 308.427883 89.27067 
L 308.617607 87.197265 
L 308.793868 85.123861 
L 308.960023 83.050456 
L 309.118875 80.977052 
L 309.272703 78.903647 
L 309.423221 76.830243 
L 309.57151 74.756838 
L 309.71796 72.683434 
L 309.862276 70.610029 
L 310.003576 68.536625 
L 310.140566 66.46322 
L 310.271781 64.389816 
L 310.395811 62.316411 
L 310.511489 60.243007 
L 310.618 58.169602 
L 311.8645 58.169602 
L 311.8645 58.169602 
L 311.971011 60.243007 
L 312.086689 62.316411 
L 312.210719 64.389816 
L 312.341934 66.46322 
L 312.478924 68.536625 
L 312.620224 70.610029 
L 312.76454 72.683434 
L 312.91099 74.756838 
L 313.059279 76.830243 
L 313.209797 78.903647 
L 313.363625 80.977052 
L 313.522477 83.050456 
L 313.688632 85.123861 
L 313.864893 87.197265 
L 314.054617 89.27067 
L 314.261802 91.344074 
L 314.491194 93.417479 
L 314.748364 95.490883 
L 315.039671 97.564288 
L 315.372076 99.637692 
L 315.752775 101.711097 
L 316.188674 103.784501 
L 316.68575 105.857906 
L 317.248366 107.93131 
L 317.878637 110.004715 
L 318.575931 112.078119 
L 319.336578 114.151524 
L 320.153862 116.224928 
L 321.018303 118.298333 
L 321.918231 120.371737 
L 322.840584 122.445142 
L 323.771831 124.518546 
L 324.698899 126.591951 
L 325.609983 128.665355 
L 326.49515 130.73876 
L 327.346679 132.812164 
L 328.159137 134.885569 
L 328.929227 136.958973 
L 329.655466 139.032378 
L 330.337755 141.105782 
L 330.976916 143.179187 
L 331.574265 145.252591 
L 332.131283 147.325996 
L 332.649441 149.3994 
L 333.130242 151.472805 
L 333.575449 153.546209 
L 333.987465 155.619614 
L 334.369742 157.693018 
L 334.727056 159.766423 
L 335.0655 161.839827 
L 335.392091 163.913232 
L 335.713993 165.986636 
L 336.037438 168.060041 
L 336.366528 170.133445 
L 336.702146 172.20685 
L 337.041146 174.280254 
L 337.375972 176.353659 
L 337.694743 178.427063 
L 337.981773 180.500468 
L 338.218467 182.573872 
L 338.384498 184.647277 
L 338.459205 186.720681 
L 338.423133 188.794086 
L 338.259663 190.86749 
L 337.95662 192.940895 
L 337.507719 195.014299 
L 336.913684 197.087704 
L 336.182832 199.161108 
L 335.330975 201.234513 
L 334.380554 203.307917 
L 333.359027 205.381322 
L 332.296678 207.454726 
L 331.224108 209.528131 
L 330.169756 211.601535 
L 329.157767 213.67494 
L 328.206488 215.748344 
L 327.327716 217.821749 
L 326.52669 219.895153 
L 325.802668 221.968558 
L 325.149868 224.041962 
L 324.558539 226.115367 
L 324.015988 228.188771 
L 323.507504 230.262176 
L 323.017221 232.33558 
L 322.52901 234.408985 
L 322.027502 236.482389 
L 321.499257 238.555794 
L 320.934005 240.629198 
L 320.325784 242.702603 
L 319.673745 244.776007 
L 318.982423 246.849412 
L 318.261359 248.922816 
L 317.524076 250.996221 
L 316.786581 253.069625 
L 316.065612 255.14303 
L 315.376945 257.216434 
L 314.733995 259.289839 
L 314.146889 261.363243 
L 313.622069 263.436648 
z
" clip-path="url(#pe68e6d3a34)" style="fill: #1f77b4; fill-opacity: 0.3"/>
   </g>
   <g id="matplotlib.axis_3">
    <g id="ytick_17">
     <g id="line2d_17">
      <g>
       <use xlink:href="#m51eede6aa3" x="281.3015" y="262.728865" style="stroke: #000000; stroke-width: 0.8"/>
      </g>
     </g>
     <g id="text_21">
      <!-- 0.0 -->
      <g transform="translate(258.398375 266.528084)scale(0.1 -0.1)">
       <use xlink:href="#DejaVuSans-30"/>
       <use xlink:href="#DejaVuSans-2e" x="63.623047"/>
       <use xlink:href="#DejaVuSans-30" x="95.410156"/>
      </g>
     </g>
    </g>
    <g id="ytick_18">
     <g id="line2d_18">
      <g>
       <use xlink:href="#m51eede6aa3" x="281.3015" y="233.059396" style="stroke: #000000; stroke-width: 0.8"/>
      </g>
     </g>
     <g id="text_22">
      <!-- 0.2 -->
      <g transform="translate(258.398375 236.858615)scale(0.1 -0.1)">
       <use xlink:href="#DejaVuSans-30"/>
       <use xlink:href="#DejaVuSans-2e" x="63.623047"/>
       <use xlink:href="#DejaVuSans-32" x="95.410156"/>
      </g>
     </g>
    </g>
    <g id="ytick_19">
     <g id="line2d_19">
      <g>
       <use xlink:href="#m51eede6aa3" x="281.3015" y="203.389927" style="stroke: #000000; stroke-width: 0.8"/>
      </g>
     </g>
     <g id="text_23">
      <!-- 0.4 -->
      <g transform="translate(258.398375 207.189146)scale(0.1 -0.1)">
       <use xlink:href="#DejaVuSans-30"/>
       <use xlink:href="#DejaVuSans-2e" x="63.623047"/>
       <use xlink:href="#DejaVuSans-34" x="95.410156"/>
      </g>
     </g>
    </g>
    <g id="ytick_20">
     <g id="line2d_20">
      <g>
       <use xlink:href="#m51eede6aa3" x="281.3015" y="173.720458" style="stroke: #000000; stroke-width: 0.8"/>
      </g>
     </g>
     <g id="text_24">
      <!-- 0.6 -->
      <g transform="translate(258.398375 177.519677)scale(0.1 -0.1)">
       <use xlink:href="#DejaVuSans-30"/>
       <use xlink:href="#DejaVuSans-2e" x="63.623047"/>
       <use xlink:href="#DejaVuSans-36" x="95.410156"/>
      </g>
     </g>
    </g>
    <g id="ytick_21">
     <g id="line2d_21">
      <g>
       <use xlink:href="#m51eede6aa3" x="281.3015" y="144.050989" style="stroke: #000000; stroke-width: 0.8"/>
      </g>
     </g>
     <g id="text_25">
      <!-- 0.8 -->
      <g transform="translate(258.398375 147.850208)scale(0.1 -0.1)">
       <use xlink:href="#DejaVuSans-30"/>
       <use xlink:href="#DejaVuSans-2e" x="63.623047"/>
       <use xlink:href="#DejaVuSans-38" x="95.410156"/>
      </g>
     </g>
    </g>
    <g id="ytick_22">
     <g id="line2d_22">
      <g>
       <use xlink:href="#m51eede6aa3" x="281.3015" y="114.38152" style="stroke: #000000; stroke-width: 0.8"/>
      </g>
     </g>
     <g id="text_26">
      <!-- 1.0 -->
      <g transform="translate(258.398375 118.180738)scale(0.1 -0.1)">
       <use xlink:href="#DejaVuSans-31"/>
       <use xlink:href="#DejaVuSans-2e" x="63.623047"/>
       <use xlink:href="#DejaVuSans-30" x="95.410156"/>
      </g>
     </g>
    </g>
    <g id="ytick_23">
     <g id="line2d_23">
      <g>
       <use xlink:href="#m51eede6aa3" x="281.3015" y="84.712051" style="stroke: #000000; stroke-width: 0.8"/>
      </g>
     </g>
     <g id="text_27">
      <!-- 1.2 -->
      <g transform="translate(258.398375 88.511269)scale(0.1 -0.1)">
       <use xlink:href="#DejaVuSans-31"/>
       <use xlink:href="#DejaVuSans-2e" x="63.623047"/>
       <use xlink:href="#DejaVuSans-32" x="95.410156"/>
      </g>
     </g>
    </g>
    <g id="ytick_24">
     <g id="line2d_24">
      <g>
       <use xlink:href="#m51eede6aa3" x="281.3015" y="55.042582" style="stroke: #000000; stroke-width: 0.8"/>
      </g>
     </g>
     <g id="text_28">
      <!-- 1.4 -->
      <g transform="translate(258.398375 58.8418)scale(0.1 -0.1)">
       <use xlink:href="#DejaVuSans-31"/>
       <use xlink:href="#DejaVuSans-2e" x="63.623047"/>
       <use xlink:href="#DejaVuSans-34" x="95.410156"/>
      </g>
     </g>
    </g>
    <g id="text_29">
     <!-- MSE [$\AA$] -->
     <g transform="translate(252.318687 180.403125)rotate(-90)scale(0.1 -0.1)">
      <use xlink:href="#DejaVuSans-4d" transform="translate(0 0.171875)"/>
      <use xlink:href="#DejaVuSans-53" transform="translate(86.279297 0.171875)"/>
      <use xlink:href="#DejaVuSans-45" transform="translate(149.755859 0.171875)"/>
      <use xlink:href="#DejaVuSans-20" transform="translate(212.939453 0.171875)"/>
      <use xlink:href="#DejaVuSans-5b" transform="translate(244.726562 0.171875)"/>
      <use xlink:href="#DejaVuSans-Oblique-c5" transform="translate(283.740234 0.171875)"/>
      <use xlink:href="#DejaVuSans-5d" transform="translate(352.148438 0.171875)"/>
     </g>
    </g>
   </g>
   <g id="LineCollection_9">
    <path d="M 297.632273 176.386991 
L 324.850227 176.386991 
" clip-path="url(#pe68e6d3a34)" style="fill: none; stroke: #1f77b4; stroke-width: 1.5"/>
   </g>
   <g id="LineCollection_10">
    <path d="M 297.632273 58.169602 
L 324.850227 58.169602 
" clip-path="url(#pe68e6d3a34)" style="fill: none; stroke: #1f77b4; stroke-width: 1.5"/>
   </g>
   <g id="LineCollection_11">
    <path d="M 297.632273 263.436648 
L 324.850227 263.436648 
" clip-path="url(#pe68e6d3a34)" style="fill: none; stroke: #1f77b4; stroke-width: 1.5"/>
   </g>
   <g id="LineCollection_12">
    <path d="M 311.24125 263.436648 
L 311.24125 58.169602 
" clip-path="url(#pe68e6d3a34)" style="fill: none; stroke: #1f77b4; stroke-width: 1.5"/>
   </g>
   <g id="patch_13">
    <path d="M 281.3015 273.7 
L 281.3015 47.90625 
" style="fill: none; stroke: #000000; stroke-width: 0.8; stroke-linejoin: miter; stroke-linecap: square"/>
   </g>
   <g id="patch_14">
    <path d="M 341.181 273.7 
L 341.181 47.90625 
" style="fill: none; stroke: #000000; stroke-width: 0.8; stroke-linejoin: miter; stroke-linecap: square"/>
   </g>
   <g id="patch_15">
    <path d="M 281.3015 273.7 
L 341.181 273.7 
" style="fill: none; stroke: #000000; stroke-width: 0.8; stroke-linejoin: miter; stroke-linecap: square"/>
   </g>
   <g id="patch_16">
    <path d="M 281.3015 47.90625 
L 341.181 47.90625 
" style="fill: none; stroke: #000000; stroke-width: 0.8; stroke-linejoin: miter; stroke-linecap: square"/>
   </g>
   <g id="text_30">
    <!-- MSE -->
    <g transform="translate(298.464062 41.90625)scale(0.12 -0.12)">
     <use xlink:href="#DejaVuSans-4d"/>
     <use xlink:href="#DejaVuSans-53" x="86.279297"/>
     <use xlink:href="#DejaVuSans-45" x="149.755859"/>
    </g>
   </g>
  </g>
  <g id="axes_4">
   <g id="patch_17">
    <path d="M 393.311 273.7 
L 453.1905 273.7 
L 453.1905 47.90625 
L 393.311 47.90625 
z
" style="fill: #ffffff"/>
   </g>
   <g id="PolyCollection_4">
    <path d="M 424.061523 263.436648 
L 422.439977 263.436648 
L 422.30759 261.363243 
L 422.160032 259.289839 
L 421.995012 257.216434 
L 421.810141 255.14303 
L 421.602995 253.069625 
L 421.371159 250.996221 
L 421.112394 248.922816 
L 420.82504 246.849412 
L 420.508706 244.776007 
L 420.16512 242.702603 
L 419.798866 240.629198 
L 419.417602 238.555794 
L 419.031449 236.482389 
L 418.651457 234.408985 
L 418.28737 232.33558 
L 417.945224 230.262176 
L 417.625413 228.188771 
L 417.321763 226.115367 
L 417.021818 224.041962 
L 416.708177 221.968558 
L 416.36046 219.895153 
L 415.957414 217.821749 
L 415.478897 215.748344 
L 414.907699 213.67494 
L 414.231325 211.601535 
L 413.443773 209.528131 
L 412.547076 207.454726 
L 411.552003 205.381322 
L 410.477304 203.307917 
L 409.347148 201.234513 
L 408.187109 199.161108 
L 407.019804 197.087704 
L 405.861702 195.014299 
L 404.722384 192.940895 
L 403.606659 190.86749 
L 402.518689 188.794086 
L 401.466285 186.720681 
L 400.463359 184.647277 
L 399.529224 182.573872 
L 398.684938 180.500468 
L 397.948324 178.427063 
L 397.33007 176.353659 
L 396.832893 174.280254 
L 396.454327 172.20685 
L 396.19189 170.133445 
L 396.048107 168.060041 
L 396.032795 165.986636 
L 396.161202 163.913232 
L 396.448499 161.839827 
L 396.902903 159.766423 
L 397.520381 157.693018 
L 398.283232 155.619614 
L 399.163133 153.546209 
L 400.127326 151.472805 
L 401.145347 149.3994 
L 402.193727 147.325996 
L 403.257171 145.252591 
L 404.326433 143.179187 
L 405.394448 141.105782 
L 406.452828 139.032378 
L 407.490278 136.958973 
L 408.493369 134.885569 
L 409.448917 132.812164 
L 410.346571 130.73876 
L 411.180384 128.665355 
L 411.948797 126.591951 
L 412.653341 124.518546 
L 413.296913 122.445142 
L 413.882488 120.371737 
L 414.412713 118.298333 
L 414.89029 116.224928 
L 415.318631 114.151524 
L 415.702246 112.078119 
L 416.046632 110.004715 
L 416.357752 107.93131 
L 416.641515 105.857906 
L 416.903586 103.784501 
L 417.149627 101.711097 
L 417.385748 99.637692 
L 417.618755 97.564288 
L 417.85585 95.490883 
L 418.103723 93.417479 
L 418.3673 91.344074 
L 418.64866 89.27067 
L 418.946573 87.197265 
L 419.256909 85.123861 
L 419.573773 83.050456 
L 419.89096 80.977052 
L 420.203207 78.903647 
L 420.506854 76.830243 
L 420.799796 74.756838 
L 421.080893 72.683434 
L 421.34919 70.610029 
L 421.603317 68.536625 
L 421.841287 66.46322 
L 422.060716 64.389816 
L 422.259327 62.316411 
L 422.435496 60.243007 
L 422.588625 58.169602 
L 423.912875 58.169602 
L 423.912875 58.169602 
L 424.066004 60.243007 
L 424.242173 62.316411 
L 424.440784 64.389816 
L 424.660213 66.46322 
L 424.898183 68.536625 
L 425.15231 70.610029 
L 425.420607 72.683434 
L 425.701704 74.756838 
L 425.994646 76.830243 
L 426.298293 78.903647 
L 426.61054 80.977052 
L 426.927727 83.050456 
L 427.244591 85.123861 
L 427.554927 87.197265 
L 427.85284 89.27067 
L 428.1342 91.344074 
L 428.397777 93.417479 
L 428.64565 95.490883 
L 428.882745 97.564288 
L 429.115752 99.637692 
L 429.351873 101.711097 
L 429.597914 103.784501 
L 429.859985 105.857906 
L 430.143748 107.93131 
L 430.454868 110.004715 
L 430.799254 112.078119 
L 431.182869 114.151524 
L 431.61121 116.224928 
L 432.088787 118.298333 
L 432.619012 120.371737 
L 433.204587 122.445142 
L 433.848159 124.518546 
L 434.552703 126.591951 
L 435.321116 128.665355 
L 436.154929 130.73876 
L 437.052583 132.812164 
L 438.008131 134.885569 
L 439.011222 136.958973 
L 440.048672 139.032378 
L 441.107052 141.105782 
L 442.175067 143.179187 
L 443.244329 145.252591 
L 444.307773 147.325996 
L 445.356153 149.3994 
L 446.374174 151.472805 
L 447.338367 153.546209 
L 448.218268 155.619614 
L 448.981119 157.693018 
L 449.598597 159.766423 
L 450.053001 161.839827 
L 450.340298 163.913232 
L 450.468705 165.986636 
L 450.453393 168.060041 
L 450.30961 170.133445 
L 450.047173 172.20685 
L 449.668607 174.280254 
L 449.17143 176.353659 
L 448.553176 178.427063 
L 447.816562 180.500468 
L 446.972276 182.573872 
L 446.038141 184.647277 
L 445.035215 186.720681 
L 443.982811 188.794086 
L 442.894841 190.86749 
L 441.779116 192.940895 
L 440.639798 195.014299 
L 439.481696 197.087704 
L 438.314391 199.161108 
L 437.154352 201.234513 
L 436.024196 203.307917 
L 434.949497 205.381322 
L 433.954424 207.454726 
L 433.057727 209.528131 
L 432.270175 211.601535 
L 431.593801 213.67494 
L 431.022603 215.748344 
L 430.544086 217.821749 
L 430.14104 219.895153 
L 429.793323 221.968558 
L 429.479682 224.041962 
L 429.179737 226.115367 
L 428.876087 228.188771 
L 428.556276 230.262176 
L 428.21413 232.33558 
L 427.850043 234.408985 
L 427.470051 236.482389 
L 427.083898 238.555794 
L 426.702634 240.629198 
L 426.33638 242.702603 
L 425.992794 244.776007 
L 425.67646 246.849412 
L 425.389106 248.922816 
L 425.130341 250.996221 
L 424.898505 253.069625 
L 424.691359 255.14303 
L 424.506488 257.216434 
L 424.341468 259.289839 
L 424.19391 261.363243 
L 424.061523 263.436648 
z
" clip-path="url(#p2de135bf82)" style="fill: #1f77b4; fill-opacity: 0.3"/>
   </g>
   <g id="matplotlib.axis_4">
    <g id="ytick_25">
     <g id="line2d_25">
      <g>
       <use xlink:href="#m51eede6aa3" x="393.311" y="249.752178" style="stroke: #000000; stroke-width: 0.8"/>
      </g>
     </g>
     <g id="text_31">
      <!-- 0.3 -->
      <g transform="translate(370.407875 253.551397)scale(0.1 -0.1)">
       <defs>
        <path id="DejaVuSans-33" d="M 2597 2516 
Q 3050 2419 3304 2112 
Q 3559 1806 3559 1356 
Q 3559 666 3084 287 
Q 2609 -91 1734 -91 
Q 1441 -91 1130 -33 
Q 819 25 488 141 
L 488 750 
Q 750 597 1062 519 
Q 1375 441 1716 441 
Q 2309 441 2620 675 
Q 2931 909 2931 1356 
Q 2931 1769 2642 2001 
Q 2353 2234 1838 2234 
L 1294 2234 
L 1294 2753 
L 1863 2753 
Q 2328 2753 2575 2939 
Q 2822 3125 2822 3475 
Q 2822 3834 2567 4026 
Q 2313 4219 1838 4219 
Q 1578 4219 1281 4162 
Q 984 4106 628 3988 
L 628 4550 
Q 988 4650 1302 4700 
Q 1616 4750 1894 4750 
Q 2613 4750 3031 4423 
Q 3450 4097 3450 3541 
Q 3450 3153 3228 2886 
Q 3006 2619 2597 2516 
z
" transform="scale(0.015625)"/>
       </defs>
       <use xlink:href="#DejaVuSans-30"/>
       <use xlink:href="#DejaVuSans-2e" x="63.623047"/>
       <use xlink:href="#DejaVuSans-33" x="95.410156"/>
      </g>
     </g>
    </g>
    <g id="ytick_26">
     <g id="line2d_26">
      <g>
       <use xlink:href="#m51eede6aa3" x="393.311" y="222.383239" style="stroke: #000000; stroke-width: 0.8"/>
      </g>
     </g>
     <g id="text_32">
      <!-- 0.4 -->
      <g transform="translate(370.407875 226.182457)scale(0.1 -0.1)">
       <use xlink:href="#DejaVuSans-30"/>
       <use xlink:href="#DejaVuSans-2e" x="63.623047"/>
       <use xlink:href="#DejaVuSans-34" x="95.410156"/>
      </g>
     </g>
    </g>
    <g id="ytick_27">
     <g id="line2d_27">
      <g>
       <use xlink:href="#m51eede6aa3" x="393.311" y="195.014299" style="stroke: #000000; stroke-width: 0.8"/>
      </g>
     </g>
     <g id="text_33">
      <!-- 0.5 -->
      <g transform="translate(370.407875 198.813518)scale(0.1 -0.1)">
       <use xlink:href="#DejaVuSans-30"/>
       <use xlink:href="#DejaVuSans-2e" x="63.623047"/>
       <use xlink:href="#DejaVuSans-35" x="95.410156"/>
      </g>
     </g>
    </g>
    <g id="ytick_28">
     <g id="line2d_28">
      <g>
       <use xlink:href="#m51eede6aa3" x="393.311" y="167.64536" style="stroke: #000000; stroke-width: 0.8"/>
      </g>
     </g>
     <g id="text_34">
      <!-- 0.6 -->
      <g transform="translate(370.407875 171.444579)scale(0.1 -0.1)">
       <use xlink:href="#DejaVuSans-30"/>
       <use xlink:href="#DejaVuSans-2e" x="63.623047"/>
       <use xlink:href="#DejaVuSans-36" x="95.410156"/>
      </g>
     </g>
    </g>
    <g id="ytick_29">
     <g id="line2d_29">
      <g>
       <use xlink:href="#m51eede6aa3" x="393.311" y="140.27642" style="stroke: #000000; stroke-width: 0.8"/>
      </g>
     </g>
     <g id="text_35">
      <!-- 0.7 -->
      <g transform="translate(370.407875 144.075639)scale(0.1 -0.1)">
       <use xlink:href="#DejaVuSans-30"/>
       <use xlink:href="#DejaVuSans-2e" x="63.623047"/>
       <use xlink:href="#DejaVuSans-37" x="95.410156"/>
      </g>
     </g>
    </g>
    <g id="ytick_30">
     <g id="line2d_30">
      <g>
       <use xlink:href="#m51eede6aa3" x="393.311" y="112.907481" style="stroke: #000000; stroke-width: 0.8"/>
      </g>
     </g>
     <g id="text_36">
      <!-- 0.8 -->
      <g transform="translate(370.407875 116.7067)scale(0.1 -0.1)">
       <use xlink:href="#DejaVuSans-30"/>
       <use xlink:href="#DejaVuSans-2e" x="63.623047"/>
       <use xlink:href="#DejaVuSans-38" x="95.410156"/>
      </g>
     </g>
    </g>
    <g id="ytick_31">
     <g id="line2d_31">
      <g>
       <use xlink:href="#m51eede6aa3" x="393.311" y="85.538542" style="stroke: #000000; stroke-width: 0.8"/>
      </g>
     </g>
     <g id="text_37">
      <!-- 0.9 -->
      <g transform="translate(370.407875 89.33776)scale(0.1 -0.1)">
       <defs>
        <path id="DejaVuSans-39" d="M 703 97 
L 703 672 
Q 941 559 1184 500 
Q 1428 441 1663 441 
Q 2288 441 2617 861 
Q 2947 1281 2994 2138 
Q 2813 1869 2534 1725 
Q 2256 1581 1919 1581 
Q 1219 1581 811 2004 
Q 403 2428 403 3163 
Q 403 3881 828 4315 
Q 1253 4750 1959 4750 
Q 2769 4750 3195 4129 
Q 3622 3509 3622 2328 
Q 3622 1225 3098 567 
Q 2575 -91 1691 -91 
Q 1453 -91 1209 -44 
Q 966 3 703 97 
z
M 1959 2075 
Q 2384 2075 2632 2365 
Q 2881 2656 2881 3163 
Q 2881 3666 2632 3958 
Q 2384 4250 1959 4250 
Q 1534 4250 1286 3958 
Q 1038 3666 1038 3163 
Q 1038 2656 1286 2365 
Q 1534 2075 1959 2075 
z
" transform="scale(0.015625)"/>
       </defs>
       <use xlink:href="#DejaVuSans-30"/>
       <use xlink:href="#DejaVuSans-2e" x="63.623047"/>
       <use xlink:href="#DejaVuSans-39" x="95.410156"/>
      </g>
     </g>
    </g>
    <g id="ytick_32">
     <g id="line2d_32">
      <g>
       <use xlink:href="#m51eede6aa3" x="393.311" y="58.169602" style="stroke: #000000; stroke-width: 0.8"/>
      </g>
     </g>
     <g id="text_38">
      <!-- 1.0 -->
      <g transform="translate(370.407875 61.968821)scale(0.1 -0.1)">
       <use xlink:href="#DejaVuSans-31"/>
       <use xlink:href="#DejaVuSans-2e" x="63.623047"/>
       <use xlink:href="#DejaVuSans-30" x="95.410156"/>
      </g>
     </g>
    </g>
    <g id="text_39">
     <!-- % NOE fulfilled [1/100 %] -->
     <g transform="translate(364.328187 224.303906)rotate(-90)scale(0.1 -0.1)">
      <defs>
       <path id="DejaVuSans-25" d="M 4653 2053 
Q 4381 2053 4226 1822 
Q 4072 1591 4072 1178 
Q 4072 772 4226 539 
Q 4381 306 4653 306 
Q 4919 306 5073 539 
Q 5228 772 5228 1178 
Q 5228 1588 5073 1820 
Q 4919 2053 4653 2053 
z
M 4653 2450 
Q 5147 2450 5437 2106 
Q 5728 1763 5728 1178 
Q 5728 594 5436 251 
Q 5144 -91 4653 -91 
Q 4153 -91 3862 251 
Q 3572 594 3572 1178 
Q 3572 1766 3864 2108 
Q 4156 2450 4653 2450 
z
M 1428 4353 
Q 1159 4353 1004 4120 
Q 850 3888 850 3481 
Q 850 3069 1003 2837 
Q 1156 2606 1428 2606 
Q 1700 2606 1854 2837 
Q 2009 3069 2009 3481 
Q 2009 3884 1853 4118 
Q 1697 4353 1428 4353 
z
M 4250 4750 
L 4750 4750 
L 1831 -91 
L 1331 -91 
L 4250 4750 
z
M 1428 4750 
Q 1922 4750 2215 4408 
Q 2509 4066 2509 3481 
Q 2509 2891 2217 2550 
Q 1925 2209 1428 2209 
Q 931 2209 642 2551 
Q 353 2894 353 3481 
Q 353 4063 643 4406 
Q 934 4750 1428 4750 
z
" transform="scale(0.015625)"/>
       <path id="DejaVuSans-4e" d="M 628 4666 
L 1478 4666 
L 3547 763 
L 3547 4666 
L 4159 4666 
L 4159 0 
L 3309 0 
L 1241 3903 
L 1241 0 
L 628 0 
L 628 4666 
z
" transform="scale(0.015625)"/>
       <path id="DejaVuSans-4f" d="M 2522 4238 
Q 1834 4238 1429 3725 
Q 1025 3213 1025 2328 
Q 1025 1447 1429 934 
Q 1834 422 2522 422 
Q 3209 422 3611 934 
Q 4013 1447 4013 2328 
Q 4013 3213 3611 3725 
Q 3209 4238 2522 4238 
z
M 2522 4750 
Q 3503 4750 4090 4092 
Q 4678 3434 4678 2328 
Q 4678 1225 4090 567 
Q 3503 -91 2522 -91 
Q 1538 -91 948 565 
Q 359 1222 359 2328 
Q 359 3434 948 4092 
Q 1538 4750 2522 4750 
z
" transform="scale(0.015625)"/>
       <path id="DejaVuSans-66" d="M 2375 4863 
L 2375 4384 
L 1825 4384 
Q 1516 4384 1395 4259 
Q 1275 4134 1275 3809 
L 1275 3500 
L 2222 3500 
L 2222 3053 
L 1275 3053 
L 1275 0 
L 697 0 
L 697 3053 
L 147 3053 
L 147 3500 
L 697 3500 
L 697 3744 
Q 697 4328 969 4595 
Q 1241 4863 1831 4863 
L 2375 4863 
z
" transform="scale(0.015625)"/>
       <path id="DejaVuSans-75" d="M 544 1381 
L 544 3500 
L 1119 3500 
L 1119 1403 
Q 1119 906 1312 657 
Q 1506 409 1894 409 
Q 2359 409 2629 706 
Q 2900 1003 2900 1516 
L 2900 3500 
L 3475 3500 
L 3475 0 
L 2900 0 
L 2900 538 
Q 2691 219 2414 64 
Q 2138 -91 1772 -91 
Q 1169 -91 856 284 
Q 544 659 544 1381 
z
M 1991 3584 
L 1991 3584 
z
" transform="scale(0.015625)"/>
       <path id="DejaVuSans-6c" d="M 603 4863 
L 1178 4863 
L 1178 0 
L 603 0 
L 603 4863 
z
" transform="scale(0.015625)"/>
       <path id="DejaVuSans-69" d="M 603 3500 
L 1178 3500 
L 1178 0 
L 603 0 
L 603 3500 
z
M 603 4863 
L 1178 4863 
L 1178 4134 
L 603 4134 
L 603 4863 
z
" transform="scale(0.015625)"/>
       <path id="DejaVuSans-65" d="M 3597 1894 
L 3597 1613 
L 953 1613 
Q 991 1019 1311 708 
Q 1631 397 2203 397 
Q 2534 397 2845 478 
Q 3156 559 3463 722 
L 3463 178 
Q 3153 47 2828 -22 
Q 2503 -91 2169 -91 
Q 1331 -91 842 396 
Q 353 884 353 1716 
Q 353 2575 817 3079 
Q 1281 3584 2069 3584 
Q 2775 3584 3186 3129 
Q 3597 2675 3597 1894 
z
M 3022 2063 
Q 3016 2534 2758 2815 
Q 2500 3097 2075 3097 
Q 1594 3097 1305 2825 
Q 1016 2553 972 2059 
L 3022 2063 
z
" transform="scale(0.015625)"/>
       <path id="DejaVuSans-64" d="M 2906 2969 
L 2906 4863 
L 3481 4863 
L 3481 0 
L 2906 0 
L 2906 525 
Q 2725 213 2448 61 
Q 2172 -91 1784 -91 
Q 1150 -91 751 415 
Q 353 922 353 1747 
Q 353 2572 751 3078 
Q 1150 3584 1784 3584 
Q 2172 3584 2448 3432 
Q 2725 3281 2906 2969 
z
M 947 1747 
Q 947 1113 1208 752 
Q 1469 391 1925 391 
Q 2381 391 2643 752 
Q 2906 1113 2906 1747 
Q 2906 2381 2643 2742 
Q 2381 3103 1925 3103 
Q 1469 3103 1208 2742 
Q 947 2381 947 1747 
z
" transform="scale(0.015625)"/>
       <path id="DejaVuSans-2f" d="M 1625 4666 
L 2156 4666 
L 531 -594 
L 0 -594 
L 1625 4666 
z
" transform="scale(0.015625)"/>
      </defs>
      <use xlink:href="#DejaVuSans-25"/>
      <use xlink:href="#DejaVuSans-20" x="95.019531"/>
      <use xlink:href="#DejaVuSans-4e" x="126.806641"/>
      <use xlink:href="#DejaVuSans-4f" x="201.611328"/>
      <use xlink:href="#DejaVuSans-45" x="280.322266"/>
      <use xlink:href="#DejaVuSans-20" x="343.505859"/>
      <use xlink:href="#DejaVuSans-66" x="375.292969"/>
      <use xlink:href="#DejaVuSans-75" x="410.498047"/>
      <use xlink:href="#DejaVuSans-6c" x="473.876953"/>
      <use xlink:href="#DejaVuSans-66" x="501.660156"/>
      <use xlink:href="#DejaVuSans-69" x="536.865234"/>
      <use xlink:href="#DejaVuSans-6c" x="564.648438"/>
      <use xlink:href="#DejaVuSans-6c" x="592.431641"/>
      <use xlink:href="#DejaVuSans-65" x="620.214844"/>
      <use xlink:href="#DejaVuSans-64" x="681.738281"/>
      <use xlink:href="#DejaVuSans-20" x="745.214844"/>
      <use xlink:href="#DejaVuSans-5b" x="777.001953"/>
      <use xlink:href="#DejaVuSans-31" x="816.015625"/>
      <use xlink:href="#DejaVuSans-2f" x="879.638672"/>
      <use xlink:href="#DejaVuSans-31" x="913.330078"/>
      <use xlink:href="#DejaVuSans-30" x="976.953125"/>
      <use xlink:href="#DejaVuSans-30" x="1040.576172"/>
      <use xlink:href="#DejaVuSans-20" x="1104.199219"/>
      <use xlink:href="#DejaVuSans-25" x="1135.986328"/>
      <use xlink:href="#DejaVuSans-5d" x="1231.005859"/>
     </g>
    </g>
   </g>
   <g id="LineCollection_13">
    <path d="M 409.641773 164.224242 
L 436.859727 164.224242 
" clip-path="url(#p2de135bf82)" style="fill: none; stroke: #1f77b4; stroke-width: 1.5"/>
   </g>
   <g id="LineCollection_14">
    <path d="M 409.641773 58.169602 
L 436.859727 58.169602 
" clip-path="url(#p2de135bf82)" style="fill: none; stroke: #1f77b4; stroke-width: 1.5"/>
   </g>
   <g id="LineCollection_15">
    <path d="M 409.641773 263.436648 
L 436.859727 263.436648 
" clip-path="url(#p2de135bf82)" style="fill: none; stroke: #1f77b4; stroke-width: 1.5"/>
   </g>
   <g id="LineCollection_16">
    <path d="M 423.25075 263.436648 
L 423.25075 58.169602 
" clip-path="url(#p2de135bf82)" style="fill: none; stroke: #1f77b4; stroke-width: 1.5"/>
   </g>
   <g id="patch_18">
    <path d="M 393.311 273.7 
L 393.311 47.90625 
" style="fill: none; stroke: #000000; stroke-width: 0.8; stroke-linejoin: miter; stroke-linecap: square"/>
   </g>
   <g id="patch_19">
    <path d="M 453.1905 273.7 
L 453.1905 47.90625 
" style="fill: none; stroke: #000000; stroke-width: 0.8; stroke-linejoin: miter; stroke-linecap: square"/>
   </g>
   <g id="patch_20">
    <path d="M 393.311 273.7 
L 453.1905 273.7 
" style="fill: none; stroke: #000000; stroke-width: 0.8; stroke-linejoin: miter; stroke-linecap: square"/>
   </g>
   <g id="patch_21">
    <path d="M 393.311 47.90625 
L 453.1905 47.90625 
" style="fill: none; stroke: #000000; stroke-width: 0.8; stroke-linejoin: miter; stroke-linecap: square"/>
   </g>
   <g id="text_40">
    <!-- % NOE fulfilled -->
    <g transform="translate(378.537625 41.90625)scale(0.12 -0.12)">
     <use xlink:href="#DejaVuSans-25"/>
     <use xlink:href="#DejaVuSans-20" x="95.019531"/>
     <use xlink:href="#DejaVuSans-4e" x="126.806641"/>
     <use xlink:href="#DejaVuSans-4f" x="201.611328"/>
     <use xlink:href="#DejaVuSans-45" x="280.322266"/>
     <use xlink:href="#DejaVuSans-20" x="343.505859"/>
     <use xlink:href="#DejaVuSans-66" x="375.292969"/>
     <use xlink:href="#DejaVuSans-75" x="410.498047"/>
     <use xlink:href="#DejaVuSans-6c" x="473.876953"/>
     <use xlink:href="#DejaVuSans-66" x="501.660156"/>
     <use xlink:href="#DejaVuSans-69" x="536.865234"/>
     <use xlink:href="#DejaVuSans-6c" x="564.648438"/>
     <use xlink:href="#DejaVuSans-6c" x="592.431641"/>
     <use xlink:href="#DejaVuSans-65" x="620.214844"/>
     <use xlink:href="#DejaVuSans-64" x="681.738281"/>
    </g>
   </g>
  </g>
  <g id="axes_5">
   <g id="patch_22">
    <path d="M 505.3205 273.7 
L 565.2 273.7 
L 565.2 47.90625 
L 505.3205 47.90625 
z
" style="fill: #ffffff"/>
   </g>
   <g id="PolyCollection_5">
    <path d="M 535.447219 263.436648 
L 535.073281 263.436648 
L 535.078307 261.363243 
L 535.092589 259.289839 
L 535.113943 257.216434 
L 535.139343 255.14303 
L 535.165618 253.069625 
L 535.19007 250.996221 
L 535.210861 248.922816 
L 535.22709 246.849412 
L 535.238611 244.776007 
L 535.245697 242.702603 
L 535.248651 240.629198 
L 535.247465 238.555794 
L 535.241573 236.482389 
L 535.229712 234.408985 
L 535.209926 232.33558 
L 535.179706 230.262176 
L 535.136292 228.188771 
L 535.077098 226.115367 
L 535.000216 224.041962 
L 534.904893 221.968558 
L 534.791883 219.895153 
L 534.663577 217.821749 
L 534.52389 215.748344 
L 534.377931 213.67494 
L 534.231526 211.601535 
L 534.090619 209.528131 
L 533.960563 207.454726 
L 533.845236 205.381322 
L 533.74601 203.307917 
L 533.660722 201.234513 
L 533.582993 199.161108 
L 533.502383 197.087704 
L 533.405736 195.014299 
L 533.279744 192.940895 
L 533.114256 190.86749 
L 532.905405 188.794086 
L 532.657469 186.720681 
L 532.382626 184.647277 
L 532.098388 182.573872 
L 531.823253 180.500468 
L 531.571786 178.427063 
L 531.350638 176.353659 
L 531.156729 174.280254 
L 530.978204 172.20685 
L 530.797784 170.133445 
L 530.597358 168.060041 
L 530.36224 165.986636 
L 530.08375 163.913232 
L 529.759488 161.839827 
L 529.391595 159.766423 
L 528.984005 157.693018 
L 528.539809 155.619614 
L 528.059381 153.546209 
L 527.539211 151.472805 
L 526.970853 149.3994 
L 526.339519 147.325996 
L 525.622654 145.252591 
L 524.789711 143.179187 
L 523.804868 141.105782 
L 522.633794 139.032378 
L 521.254001 136.958973 
L 519.666367 134.885569 
L 517.904029 132.812164 
L 516.034951 130.73876 
L 514.156147 128.665355 
L 512.380293 126.591951 
L 510.818072 124.518546 
L 509.561016 122.445142 
L 508.669214 120.371737 
L 508.166386 118.298333 
L 508.042295 116.224928 
L 508.260458 114.151524 
L 508.768171 112.078119 
L 509.506211 110.004715 
L 510.416542 107.93131 
L 511.447481 105.857906 
L 512.556463 103.784501 
L 513.710792 101.711097 
L 514.886751 99.637692 
L 516.06748 97.564288 
L 517.240268 95.490883 
L 518.394114 93.417479 
L 519.518482 91.344074 
L 520.603799 89.27067 
L 521.643525 87.197265 
L 522.636783 85.123861 
L 523.59012 83.050456 
L 524.517076 80.977052 
L 525.435074 78.903647 
L 526.360273 76.830243 
L 527.301981 74.756838 
L 528.258596 72.683434 
L 529.216572 70.610029 
L 530.152846 68.536625 
L 531.039884 66.46322 
L 531.851661 64.389816 
L 532.568683 62.316411 
L 533.180749 60.243007 
L 533.68709 58.169602 
L 536.83341 58.169602 
L 536.83341 58.169602 
L 537.339751 60.243007 
L 537.951817 62.316411 
L 538.668839 64.389816 
L 539.480616 66.46322 
L 540.367654 68.536625 
L 541.303928 70.610029 
L 542.261904 72.683434 
L 543.218519 74.756838 
L 544.160227 76.830243 
L 545.085426 78.903647 
L 546.003424 80.977052 
L 546.93038 83.050456 
L 547.883717 85.123861 
L 548.876975 87.197265 
L 549.916701 89.27067 
L 551.002018 91.344074 
L 552.126386 93.417479 
L 553.280232 95.490883 
L 554.45302 97.564288 
L 555.633749 99.637692 
L 556.809708 101.711097 
L 557.964037 103.784501 
L 559.073019 105.857906 
L 560.103958 107.93131 
L 561.014289 110.004715 
L 561.752329 112.078119 
L 562.260042 114.151524 
L 562.478205 116.224928 
L 562.354114 118.298333 
L 561.851286 120.371737 
L 560.959484 122.445142 
L 559.702428 124.518546 
L 558.140207 126.591951 
L 556.364353 128.665355 
L 554.485549 130.73876 
L 552.616471 132.812164 
L 550.854133 134.885569 
L 549.266499 136.958973 
L 547.886706 139.032378 
L 546.715632 141.105782 
L 545.730789 143.179187 
L 544.897846 145.252591 
L 544.180981 147.325996 
L 543.549647 149.3994 
L 542.981289 151.472805 
L 542.461119 153.546209 
L 541.980691 155.619614 
L 541.536495 157.693018 
L 541.128905 159.766423 
L 540.761012 161.839827 
L 540.43675 163.913232 
L 540.15826 165.986636 
L 539.923142 168.060041 
L 539.722716 170.133445 
L 539.542296 172.20685 
L 539.363771 174.280254 
L 539.169862 176.353659 
L 538.948714 178.427063 
L 538.697247 180.500468 
L 538.422112 182.573872 
L 538.137874 184.647277 
L 537.863031 186.720681 
L 537.615095 188.794086 
L 537.406244 190.86749 
L 537.240756 192.940895 
L 537.114764 195.014299 
L 537.018117 197.087704 
L 536.937507 199.161108 
L 536.859778 201.234513 
L 536.77449 203.307917 
L 536.675264 205.381322 
L 536.559937 207.454726 
L 536.429881 209.528131 
L 536.288974 211.601535 
L 536.142569 213.67494 
L 535.99661 215.748344 
L 535.856923 217.821749 
L 535.728617 219.895153 
L 535.615607 221.968558 
L 535.520284 224.041962 
L 535.443402 226.115367 
L 535.384208 228.188771 
L 535.340794 230.262176 
L 535.310574 232.33558 
L 535.290788 234.408985 
L 535.278927 236.482389 
L 535.273035 238.555794 
L 535.271849 240.629198 
L 535.274803 242.702603 
L 535.281889 244.776007 
L 535.29341 246.849412 
L 535.309639 248.922816 
L 535.33043 250.996221 
L 535.354882 253.069625 
L 535.381157 255.14303 
L 535.406557 257.216434 
L 535.427911 259.289839 
L 535.442193 261.363243 
L 535.447219 263.436648 
z
" clip-path="url(#p51240acdb3)" style="fill: #1f77b4; fill-opacity: 0.3"/>
   </g>
   <g id="matplotlib.axis_5">
    <g id="ytick_33">
     <g id="line2d_33">
      <g>
       <use xlink:href="#m51eede6aa3" x="505.3205" y="263.436648" style="stroke: #000000; stroke-width: 0.8"/>
      </g>
     </g>
     <g id="text_41">
      <!-- 0.0 -->
      <g transform="translate(482.417375 267.235866)scale(0.1 -0.1)">
       <use xlink:href="#DejaVuSans-30"/>
       <use xlink:href="#DejaVuSans-2e" x="63.623047"/>
       <use xlink:href="#DejaVuSans-30" x="95.410156"/>
      </g>
     </g>
    </g>
    <g id="ytick_34">
     <g id="line2d_34">
      <g>
       <use xlink:href="#m51eede6aa3" x="505.3205" y="227.06941" style="stroke: #000000; stroke-width: 0.8"/>
      </g>
     </g>
     <g id="text_42">
      <!-- 0.1 -->
      <g transform="translate(482.417375 230.868629)scale(0.1 -0.1)">
       <use xlink:href="#DejaVuSans-30"/>
       <use xlink:href="#DejaVuSans-2e" x="63.623047"/>
       <use xlink:href="#DejaVuSans-31" x="95.410156"/>
      </g>
     </g>
    </g>
    <g id="ytick_35">
     <g id="line2d_35">
      <g>
       <use xlink:href="#m51eede6aa3" x="505.3205" y="190.702172" style="stroke: #000000; stroke-width: 0.8"/>
      </g>
     </g>
     <g id="text_43">
      <!-- 0.2 -->
      <g transform="translate(482.417375 194.501391)scale(0.1 -0.1)">
       <use xlink:href="#DejaVuSans-30"/>
       <use xlink:href="#DejaVuSans-2e" x="63.623047"/>
       <use xlink:href="#DejaVuSans-32" x="95.410156"/>
      </g>
     </g>
    </g>
    <g id="ytick_36">
     <g id="line2d_36">
      <g>
       <use xlink:href="#m51eede6aa3" x="505.3205" y="154.334934" style="stroke: #000000; stroke-width: 0.8"/>
      </g>
     </g>
     <g id="text_44">
      <!-- 0.3 -->
      <g transform="translate(482.417375 158.134153)scale(0.1 -0.1)">
       <use xlink:href="#DejaVuSans-30"/>
       <use xlink:href="#DejaVuSans-2e" x="63.623047"/>
       <use xlink:href="#DejaVuSans-33" x="95.410156"/>
      </g>
     </g>
    </g>
    <g id="ytick_37">
     <g id="line2d_37">
      <g>
       <use xlink:href="#m51eede6aa3" x="505.3205" y="117.967696" style="stroke: #000000; stroke-width: 0.8"/>
      </g>
     </g>
     <g id="text_45">
      <!-- 0.4 -->
      <g transform="translate(482.417375 121.766915)scale(0.1 -0.1)">
       <use xlink:href="#DejaVuSans-30"/>
       <use xlink:href="#DejaVuSans-2e" x="63.623047"/>
       <use xlink:href="#DejaVuSans-34" x="95.410156"/>
      </g>
     </g>
    </g>
    <g id="ytick_38">
     <g id="line2d_38">
      <g>
       <use xlink:href="#m51eede6aa3" x="505.3205" y="81.600458" style="stroke: #000000; stroke-width: 0.8"/>
      </g>
     </g>
     <g id="text_46">
      <!-- 0.5 -->
      <g transform="translate(482.417375 85.399677)scale(0.1 -0.1)">
       <use xlink:href="#DejaVuSans-30"/>
       <use xlink:href="#DejaVuSans-2e" x="63.623047"/>
       <use xlink:href="#DejaVuSans-35" x="95.410156"/>
      </g>
     </g>
    </g>
    <g id="text_47">
     <!-- RMSD stepwise [$\AA$] -->
     <g transform="translate(476.317375 208.103125)rotate(-90)scale(0.1 -0.1)">
      <defs>
       <path id="DejaVuSans-73" d="M 2834 3397 
L 2834 2853 
Q 2591 2978 2328 3040 
Q 2066 3103 1784 3103 
Q 1356 3103 1142 2972 
Q 928 2841 928 2578 
Q 928 2378 1081 2264 
Q 1234 2150 1697 2047 
L 1894 2003 
Q 2506 1872 2764 1633 
Q 3022 1394 3022 966 
Q 3022 478 2636 193 
Q 2250 -91 1575 -91 
Q 1294 -91 989 -36 
Q 684 19 347 128 
L 347 722 
Q 666 556 975 473 
Q 1284 391 1588 391 
Q 1994 391 2212 530 
Q 2431 669 2431 922 
Q 2431 1156 2273 1281 
Q 2116 1406 1581 1522 
L 1381 1569 
Q 847 1681 609 1914 
Q 372 2147 372 2553 
Q 372 3047 722 3315 
Q 1072 3584 1716 3584 
Q 2034 3584 2315 3537 
Q 2597 3491 2834 3397 
z
" transform="scale(0.015625)"/>
       <path id="DejaVuSans-74" d="M 1172 4494 
L 1172 3500 
L 2356 3500 
L 2356 3053 
L 1172 3053 
L 1172 1153 
Q 1172 725 1289 603 
Q 1406 481 1766 481 
L 2356 481 
L 2356 0 
L 1766 0 
Q 1100 0 847 248 
Q 594 497 594 1153 
L 594 3053 
L 172 3053 
L 172 3500 
L 594 3500 
L 594 4494 
L 1172 4494 
z
" transform="scale(0.015625)"/>
       <path id="DejaVuSans-70" d="M 1159 525 
L 1159 -1331 
L 581 -1331 
L 581 3500 
L 1159 3500 
L 1159 2969 
Q 1341 3281 1617 3432 
Q 1894 3584 2278 3584 
Q 2916 3584 3314 3078 
Q 3713 2572 3713 1747 
Q 3713 922 3314 415 
Q 2916 -91 2278 -91 
Q 1894 -91 1617 61 
Q 1341 213 1159 525 
z
M 3116 1747 
Q 3116 2381 2855 2742 
Q 2594 3103 2138 3103 
Q 1681 3103 1420 2742 
Q 1159 2381 1159 1747 
Q 1159 1113 1420 752 
Q 1681 391 2138 391 
Q 2594 391 2855 752 
Q 3116 1113 3116 1747 
z
" transform="scale(0.015625)"/>
       <path id="DejaVuSans-77" d="M 269 3500 
L 844 3500 
L 1563 769 
L 2278 3500 
L 2956 3500 
L 3675 769 
L 4391 3500 
L 4966 3500 
L 4050 0 
L 3372 0 
L 2619 2869 
L 1863 0 
L 1184 0 
L 269 3500 
z
" transform="scale(0.015625)"/>
      </defs>
      <use xlink:href="#DejaVuSans-52" transform="translate(0 0.171875)"/>
      <use xlink:href="#DejaVuSans-4d" transform="translate(69.482422 0.171875)"/>
      <use xlink:href="#DejaVuSans-53" transform="translate(155.761719 0.171875)"/>
      <use xlink:href="#DejaVuSans-44" transform="translate(219.238281 0.171875)"/>
      <use xlink:href="#DejaVuSans-20" transform="translate(296.240234 0.171875)"/>
      <use xlink:href="#DejaVuSans-73" transform="translate(328.027344 0.171875)"/>
      <use xlink:href="#DejaVuSans-74" transform="translate(380.126953 0.171875)"/>
      <use xlink:href="#DejaVuSans-65" transform="translate(419.335938 0.171875)"/>
      <use xlink:href="#DejaVuSans-70" transform="translate(480.859375 0.171875)"/>
      <use xlink:href="#DejaVuSans-77" transform="translate(544.335938 0.171875)"/>
      <use xlink:href="#DejaVuSans-69" transform="translate(626.123047 0.171875)"/>
      <use xlink:href="#DejaVuSans-73" transform="translate(653.90625 0.171875)"/>
      <use xlink:href="#DejaVuSans-65" transform="translate(706.005859 0.171875)"/>
      <use xlink:href="#DejaVuSans-20" transform="translate(767.529297 0.171875)"/>
      <use xlink:href="#DejaVuSans-5b" transform="translate(799.316406 0.171875)"/>
      <use xlink:href="#DejaVuSans-Oblique-c5" transform="translate(838.330078 0.171875)"/>
      <use xlink:href="#DejaVuSans-5d" transform="translate(906.738281 0.171875)"/>
     </g>
    </g>
   </g>
   <g id="LineCollection_17">
    <path d="M 521.651273 119.286563 
L 548.869227 119.286563 
" clip-path="url(#p51240acdb3)" style="fill: none; stroke: #1f77b4; stroke-width: 1.5"/>
   </g>
   <g id="LineCollection_18">
    <path d="M 521.651273 58.169602 
L 548.869227 58.169602 
" clip-path="url(#p51240acdb3)" style="fill: none; stroke: #1f77b4; stroke-width: 1.5"/>
   </g>
   <g id="LineCollection_19">
    <path d="M 521.651273 263.436648 
L 548.869227 263.436648 
" clip-path="url(#p51240acdb3)" style="fill: none; stroke: #1f77b4; stroke-width: 1.5"/>
   </g>
   <g id="LineCollection_20">
    <path d="M 535.26025 263.436648 
L 535.26025 58.169602 
" clip-path="url(#p51240acdb3)" style="fill: none; stroke: #1f77b4; stroke-width: 1.5"/>
   </g>
   <g id="patch_23">
    <path d="M 505.3205 273.7 
L 505.3205 47.90625 
" style="fill: none; stroke: #000000; stroke-width: 0.8; stroke-linejoin: miter; stroke-linecap: square"/>
   </g>
   <g id="patch_24">
    <path d="M 565.2 273.7 
L 565.2 47.90625 
" style="fill: none; stroke: #000000; stroke-width: 0.8; stroke-linejoin: miter; stroke-linecap: square"/>
   </g>
   <g id="patch_25">
    <path d="M 505.3205 273.7 
L 565.2 273.7 
" style="fill: none; stroke: #000000; stroke-width: 0.8; stroke-linejoin: miter; stroke-linecap: square"/>
   </g>
   <g id="patch_26">
    <path d="M 505.3205 47.90625 
L 565.2 47.90625 
" style="fill: none; stroke: #000000; stroke-width: 0.8; stroke-linejoin: miter; stroke-linecap: square"/>
   </g>
   <g id="text_48">
    <!-- RMSD stepwise -->
    <g transform="translate(489.208375 41.90625)scale(0.12 -0.12)">
     <use xlink:href="#DejaVuSans-52"/>
     <use xlink:href="#DejaVuSans-4d" x="69.482422"/>
     <use xlink:href="#DejaVuSans-53" x="155.761719"/>
     <use xlink:href="#DejaVuSans-44" x="219.238281"/>
     <use xlink:href="#DejaVuSans-20" x="296.240234"/>
     <use xlink:href="#DejaVuSans-73" x="328.027344"/>
     <use xlink:href="#DejaVuSans-74" x="380.126953"/>
     <use xlink:href="#DejaVuSans-65" x="419.335938"/>
     <use xlink:href="#DejaVuSans-70" x="480.859375"/>
     <use xlink:href="#DejaVuSans-77" x="544.335938"/>
     <use xlink:href="#DejaVuSans-69" x="626.123047"/>
     <use xlink:href="#DejaVuSans-73" x="653.90625"/>
     <use xlink:href="#DejaVuSans-65" x="706.005859"/>
    </g>
   </g>
  </g>
  <g id="text_49">
   <!-- Compound 1_1. Rdkit -->
   <g transform="translate(223.573125 14.878125)scale(0.12 -0.12)">
    <defs>
     <path id="DejaVuSans-43" d="M 4122 4306 
L 4122 3641 
Q 3803 3938 3442 4084 
Q 3081 4231 2675 4231 
Q 1875 4231 1450 3742 
Q 1025 3253 1025 2328 
Q 1025 1406 1450 917 
Q 1875 428 2675 428 
Q 3081 428 3442 575 
Q 3803 722 4122 1019 
L 4122 359 
Q 3791 134 3420 21 
Q 3050 -91 2638 -91 
Q 1578 -91 968 557 
Q 359 1206 359 2328 
Q 359 3453 968 4101 
Q 1578 4750 2638 4750 
Q 3056 4750 3426 4639 
Q 3797 4528 4122 4306 
z
" transform="scale(0.015625)"/>
     <path id="DejaVuSans-6f" d="M 1959 3097 
Q 1497 3097 1228 2736 
Q 959 2375 959 1747 
Q 959 1119 1226 758 
Q 1494 397 1959 397 
Q 2419 397 2687 759 
Q 2956 1122 2956 1747 
Q 2956 2369 2687 2733 
Q 2419 3097 1959 3097 
z
M 1959 3584 
Q 2709 3584 3137 3096 
Q 3566 2609 3566 1747 
Q 3566 888 3137 398 
Q 2709 -91 1959 -91 
Q 1206 -91 779 398 
Q 353 888 353 1747 
Q 353 2609 779 3096 
Q 1206 3584 1959 3584 
z
" transform="scale(0.015625)"/>
     <path id="DejaVuSans-6d" d="M 3328 2828 
Q 3544 3216 3844 3400 
Q 4144 3584 4550 3584 
Q 5097 3584 5394 3201 
Q 5691 2819 5691 2113 
L 5691 0 
L 5113 0 
L 5113 2094 
Q 5113 2597 4934 2840 
Q 4756 3084 4391 3084 
Q 3944 3084 3684 2787 
Q 3425 2491 3425 1978 
L 3425 0 
L 2847 0 
L 2847 2094 
Q 2847 2600 2669 2842 
Q 2491 3084 2119 3084 
Q 1678 3084 1418 2786 
Q 1159 2488 1159 1978 
L 1159 0 
L 581 0 
L 581 3500 
L 1159 3500 
L 1159 2956 
Q 1356 3278 1631 3431 
Q 1906 3584 2284 3584 
Q 2666 3584 2933 3390 
Q 3200 3197 3328 2828 
z
" transform="scale(0.015625)"/>
     <path id="DejaVuSans-6e" d="M 3513 2113 
L 3513 0 
L 2938 0 
L 2938 2094 
Q 2938 2591 2744 2837 
Q 2550 3084 2163 3084 
Q 1697 3084 1428 2787 
Q 1159 2491 1159 1978 
L 1159 0 
L 581 0 
L 581 3500 
L 1159 3500 
L 1159 2956 
Q 1366 3272 1645 3428 
Q 1925 3584 2291 3584 
Q 2894 3584 3203 3211 
Q 3513 2838 3513 2113 
z
" transform="scale(0.015625)"/>
     <path id="DejaVuSans-5f" d="M 3263 -1063 
L 3263 -1509 
L -63 -1509 
L -63 -1063 
L 3263 -1063 
z
" transform="scale(0.015625)"/>
     <path id="DejaVuSans-6b" d="M 581 4863 
L 1159 4863 
L 1159 1991 
L 2875 3500 
L 3609 3500 
L 1753 1863 
L 3688 0 
L 2938 0 
L 1159 1709 
L 1159 0 
L 581 0 
L 581 4863 
z
" transform="scale(0.015625)"/>
    </defs>
    <use xlink:href="#DejaVuSans-43"/>
    <use xlink:href="#DejaVuSans-6f" x="69.824219"/>
    <use xlink:href="#DejaVuSans-6d" x="131.005859"/>
    <use xlink:href="#DejaVuSans-70" x="228.417969"/>
    <use xlink:href="#DejaVuSans-6f" x="291.894531"/>
    <use xlink:href="#DejaVuSans-75" x="353.076172"/>
    <use xlink:href="#DejaVuSans-6e" x="416.455078"/>
    <use xlink:href="#DejaVuSans-64" x="479.833984"/>
    <use xlink:href="#DejaVuSans-20" x="543.310547"/>
    <use xlink:href="#DejaVuSans-31" x="575.097656"/>
    <use xlink:href="#DejaVuSans-5f" x="638.720703"/>
    <use xlink:href="#DejaVuSans-31" x="688.720703"/>
    <use xlink:href="#DejaVuSans-2e" x="752.34375"/>
    <use xlink:href="#DejaVuSans-20" x="784.130859"/>
    <use xlink:href="#DejaVuSans-52" x="815.917969"/>
    <use xlink:href="#DejaVuSans-64" x="885.400391"/>
    <use xlink:href="#DejaVuSans-6b" x="948.876953"/>
    <use xlink:href="#DejaVuSans-69" x="1006.787109"/>
    <use xlink:href="#DejaVuSans-74" x="1034.570312"/>
   </g>
  </g>
 </g>
 <defs>
  <clipPath id="p1033b76dbe">
   <rect x="57.2825" y="47.90625" width="59.8795" height="225.79375"/>
  </clipPath>
  <clipPath id="p6dd76fb3f6">
   <rect x="169.292" y="47.90625" width="59.8795" height="225.79375"/>
  </clipPath>
  <clipPath id="pe68e6d3a34">
   <rect x="281.3015" y="47.90625" width="59.8795" height="225.79375"/>
  </clipPath>
  <clipPath id="p2de135bf82">
   <rect x="393.311" y="47.90625" width="59.8795" height="225.79375"/>
  </clipPath>
  <clipPath id="p51240acdb3">
   <rect x="505.3205" y="47.90625" width="59.8795" height="225.79375"/>
  </clipPath>
 </defs>
</svg>
