<?xml version="1.0" encoding="utf-8" standalone="no"?>
<!DOCTYPE svg PUBLIC "-//W3C//DTD SVG 1.1//EN"
  "http://www.w3.org/Graphics/SVG/1.1/DTD/svg11.dtd">
<svg xmlns:xlink="http://www.w3.org/1999/xlink" width="576pt" height="288pt" viewBox="0 0 576 288" xmlns="http://www.w3.org/2000/svg" version="1.1">
 <metadata>
  <rdf:RDF xmlns:dc="http://purl.org/dc/elements/1.1/" xmlns:cc="http://creativecommons.org/ns#" xmlns:rdf="http://www.w3.org/1999/02/22-rdf-syntax-ns#">
   <cc:Work>
    <dc:type rdf:resource="http://purl.org/dc/dcmitype/StillImage"/>
    <dc:date>2023-05-31T12:16:54.349334</dc:date>
    <dc:format>image/svg+xml</dc:format>
    <dc:creator>
     <cc:Agent>
      <dc:title>Matplotlib v3.5.3, https://matplotlib.org/</dc:title>
     </cc:Agent>
    </dc:creator>
   </cc:Work>
  </rdf:RDF>
 </metadata>
 <defs>
  <style type="text/css">*{stroke-linejoin: round; stroke-linecap: butt}</style>
 </defs>
 <g id="figure_1">
  <g id="patch_1">
   <path d="M 0 288 
L 576 288 
L 576 0 
L 0 0 
z
" style="fill: #ffffff"/>
  </g>
  <g id="axes_1">
   <g id="patch_2">
    <path d="M 50.8925 273.7 
L 107.928 273.7 
L 107.928 47.04 
L 50.8925 47.04 
z
" style="fill: #ffffff"/>
   </g>
   <g id="PolyCollection_1">
    <path d="M 80.986745 263.397273 
L 77.833755 263.397273 
L 77.565799 261.315914 
L 77.282066 259.234555 
L 76.983433 257.153196 
L 76.669407 255.071837 
L 76.338103 252.990478 
L 75.986554 250.909118 
L 75.611295 248.827759 
L 75.209105 246.7464 
L 74.777717 244.665041 
L 74.316282 242.583682 
L 73.825417 240.502323 
L 73.306754 238.420964 
L 72.762014 236.339605 
L 72.191782 234.258246 
L 71.594287 232.176887 
L 70.964514 230.095528 
L 70.293996 228.014169 
L 69.571485 225.93281 
L 68.78453 223.851451 
L 67.921781 221.770092 
L 66.9756 219.688733 
L 65.944478 217.607374 
L 64.834713 215.526015 
L 63.660965 213.444656 
L 62.445495 211.363297 
L 61.216224 209.281938 
L 60.003962 207.200579 
L 58.839362 205.119219 
L 57.750189 203.03786 
L 56.759366 200.956501 
L 55.884098 198.875142 
L 55.136077 196.793783 
L 54.522547 194.712424 
L 54.047834 192.631065 
L 53.714876 190.549706 
L 53.526337 188.468347 
L 53.485023 186.386988 
L 53.593505 184.305629 
L 53.853068 182.22427 
L 54.262246 180.142911 
L 54.815309 178.061552 
L 55.50107 175.980193 
L 56.302303 173.898834 
L 57.195927 171.817475 
L 58.153969 169.736116 
L 59.145175 167.654757 
L 60.137051 165.573398 
L 61.098094 163.492039 
L 61.999985 161.41068 
L 62.819542 159.32932 
L 63.540312 157.247961 
L 64.153666 155.166602 
L 64.659322 153.085243 
L 65.065208 151.003884 
L 65.386608 148.922525 
L 65.644601 146.841166 
L 65.863876 144.759807 
L 66.070132 142.678448 
L 66.287337 140.597089 
L 66.53522 138.51573 
L 66.827345 136.434371 
L 67.170032 134.353012 
L 67.562311 132.271653 
L 67.996851 130.190294 
L 68.461708 128.108935 
L 68.942552 126.027576 
L 69.424997 123.946217 
L 69.896627 121.864858 
L 70.348441 119.783499 
L 70.775509 117.70214 
L 71.176846 115.620781 
L 71.554624 113.539421 
L 71.912965 111.458062 
L 72.256632 109.376703 
L 72.589881 107.295344 
L 72.915708 105.213985 
L 73.235584 103.132626 
L 73.549664 101.051267 
L 73.85734 98.969908 
L 74.157947 96.888549 
L 74.451404 94.80719 
L 74.73863 92.725831 
L 75.021612 90.644472 
L 75.303128 88.563113 
L 75.586173 86.481754 
L 75.873258 84.400395 
L 76.165711 82.319036 
L 76.463168 80.237677 
L 76.763356 78.156318 
L 77.06223 76.074959 
L 77.354437 73.9936 
L 77.634021 71.912241 
L 77.89523 69.830882 
L 78.133266 67.749522 
L 78.344858 65.668163 
L 78.528552 63.586804 
L 78.684698 61.505445 
L 78.815176 59.424086 
L 78.922933 57.342727 
L 79.897567 57.342727 
L 79.897567 57.342727 
L 80.005324 59.424086 
L 80.135802 61.505445 
L 80.291948 63.586804 
L 80.475642 65.668163 
L 80.687234 67.749522 
L 80.92527 69.830882 
L 81.186479 71.912241 
L 81.466063 73.9936 
L 81.75827 76.074959 
L 82.057144 78.156318 
L 82.357332 80.237677 
L 82.654789 82.319036 
L 82.947242 84.400395 
L 83.234327 86.481754 
L 83.517372 88.563113 
L 83.798888 90.644472 
L 84.08187 92.725831 
L 84.369096 94.80719 
L 84.662553 96.888549 
L 84.96316 98.969908 
L 85.270836 101.051267 
L 85.584916 103.132626 
L 85.904792 105.213985 
L 86.230619 107.295344 
L 86.563868 109.376703 
L 86.907535 111.458062 
L 87.265876 113.539421 
L 87.643654 115.620781 
L 88.044991 117.70214 
L 88.472059 119.783499 
L 88.923873 121.864858 
L 89.395503 123.946217 
L 89.877948 126.027576 
L 90.358792 128.108935 
L 90.823649 130.190294 
L 91.258189 132.271653 
L 91.650468 134.353012 
L 91.993155 136.434371 
L 92.28528 138.51573 
L 92.533163 140.597089 
L 92.750368 142.678448 
L 92.956624 144.759807 
L 93.175899 146.841166 
L 93.433892 148.922525 
L 93.755292 151.003884 
L 94.161178 153.085243 
L 94.666834 155.166602 
L 95.280188 157.247961 
L 96.000958 159.32932 
L 96.820515 161.41068 
L 97.722406 163.492039 
L 98.683449 165.573398 
L 99.675325 167.654757 
L 100.666531 169.736116 
L 101.624573 171.817475 
L 102.518197 173.898834 
L 103.31943 175.980193 
L 104.005191 178.061552 
L 104.558254 180.142911 
L 104.967432 182.22427 
L 105.226995 184.305629 
L 105.335477 186.386988 
L 105.294163 188.468347 
L 105.105624 190.549706 
L 104.772666 192.631065 
L 104.297953 194.712424 
L 103.684423 196.793783 
L 102.936402 198.875142 
L 102.061134 200.956501 
L 101.070311 203.03786 
L 99.981138 205.119219 
L 98.816538 207.200579 
L 97.604276 209.281938 
L 96.375005 211.363297 
L 95.159535 213.444656 
L 93.985787 215.526015 
L 92.876022 217.607374 
L 91.8449 219.688733 
L 90.898719 221.770092 
L 90.03597 223.851451 
L 89.249015 225.93281 
L 88.526504 228.014169 
L 87.855986 230.095528 
L 87.226213 232.176887 
L 86.628718 234.258246 
L 86.058486 236.339605 
L 85.513746 238.420964 
L 84.995083 240.502323 
L 84.504218 242.583682 
L 84.042783 244.665041 
L 83.611395 246.7464 
L 83.209205 248.827759 
L 82.833946 250.909118 
L 82.482397 252.990478 
L 82.151093 255.071837 
L 81.837067 257.153196 
L 81.538434 259.234555 
L 81.254701 261.315914 
L 80.986745 263.397273 
z
" clip-path="url(#p1e1136c9b3)" style="fill: #1f77b4; fill-opacity: 0.3"/>
   </g>
   <g id="matplotlib.axis_1">
    <g id="ytick_1">
     <g id="line2d_1">
      <defs>
       <path id="m2f2c2cdfc6" d="M 0 0 
L -3.5 0 
" style="stroke: #000000; stroke-width: 0.8"/>
      </defs>
      <g>
       <use xlink:href="#m2f2c2cdfc6" x="50.8925" y="237.152252" style="stroke: #000000; stroke-width: 0.8"/>
      </g>
     </g>
     <g id="text_1">
      <!-- 0.5 -->
      <g transform="translate(27.989375 240.95147)scale(0.1 -0.1)">
       <defs>
        <path id="DejaVuSans-30" d="M 2034 4250 
Q 1547 4250 1301 3770 
Q 1056 3291 1056 2328 
Q 1056 1369 1301 889 
Q 1547 409 2034 409 
Q 2525 409 2770 889 
Q 3016 1369 3016 2328 
Q 3016 3291 2770 3770 
Q 2525 4250 2034 4250 
z
M 2034 4750 
Q 2819 4750 3233 4129 
Q 3647 3509 3647 2328 
Q 3647 1150 3233 529 
Q 2819 -91 2034 -91 
Q 1250 -91 836 529 
Q 422 1150 422 2328 
Q 422 3509 836 4129 
Q 1250 4750 2034 4750 
z
" transform="scale(0.015625)"/>
        <path id="DejaVuSans-2e" d="M 684 794 
L 1344 794 
L 1344 0 
L 684 0 
L 684 794 
z
" transform="scale(0.015625)"/>
        <path id="DejaVuSans-35" d="M 691 4666 
L 3169 4666 
L 3169 4134 
L 1269 4134 
L 1269 2991 
Q 1406 3038 1543 3061 
Q 1681 3084 1819 3084 
Q 2600 3084 3056 2656 
Q 3513 2228 3513 1497 
Q 3513 744 3044 326 
Q 2575 -91 1722 -91 
Q 1428 -91 1123 -41 
Q 819 9 494 109 
L 494 744 
Q 775 591 1075 516 
Q 1375 441 1709 441 
Q 2250 441 2565 725 
Q 2881 1009 2881 1497 
Q 2881 1984 2565 2268 
Q 2250 2553 1709 2553 
Q 1456 2553 1204 2497 
Q 953 2441 691 2322 
L 691 4666 
z
" transform="scale(0.015625)"/>
       </defs>
       <use xlink:href="#DejaVuSans-30"/>
       <use xlink:href="#DejaVuSans-2e" x="63.623047"/>
       <use xlink:href="#DejaVuSans-35" x="95.410156"/>
      </g>
     </g>
    </g>
    <g id="ytick_2">
     <g id="line2d_2">
      <g>
       <use xlink:href="#m2f2c2cdfc6" x="50.8925" y="198.826989" style="stroke: #000000; stroke-width: 0.8"/>
      </g>
     </g>
     <g id="text_2">
      <!-- 0.6 -->
      <g transform="translate(27.989375 202.626208)scale(0.1 -0.1)">
       <defs>
        <path id="DejaVuSans-36" d="M 2113 2584 
Q 1688 2584 1439 2293 
Q 1191 2003 1191 1497 
Q 1191 994 1439 701 
Q 1688 409 2113 409 
Q 2538 409 2786 701 
Q 3034 994 3034 1497 
Q 3034 2003 2786 2293 
Q 2538 2584 2113 2584 
z
M 3366 4563 
L 3366 3988 
Q 3128 4100 2886 4159 
Q 2644 4219 2406 4219 
Q 1781 4219 1451 3797 
Q 1122 3375 1075 2522 
Q 1259 2794 1537 2939 
Q 1816 3084 2150 3084 
Q 2853 3084 3261 2657 
Q 3669 2231 3669 1497 
Q 3669 778 3244 343 
Q 2819 -91 2113 -91 
Q 1303 -91 875 529 
Q 447 1150 447 2328 
Q 447 3434 972 4092 
Q 1497 4750 2381 4750 
Q 2619 4750 2861 4703 
Q 3103 4656 3366 4563 
z
" transform="scale(0.015625)"/>
       </defs>
       <use xlink:href="#DejaVuSans-30"/>
       <use xlink:href="#DejaVuSans-2e" x="63.623047"/>
       <use xlink:href="#DejaVuSans-36" x="95.410156"/>
      </g>
     </g>
    </g>
    <g id="ytick_3">
     <g id="line2d_3">
      <g>
       <use xlink:href="#m2f2c2cdfc6" x="50.8925" y="160.501726" style="stroke: #000000; stroke-width: 0.8"/>
      </g>
     </g>
     <g id="text_3">
      <!-- 0.7 -->
      <g transform="translate(27.989375 164.300945)scale(0.1 -0.1)">
       <defs>
        <path id="DejaVuSans-37" d="M 525 4666 
L 3525 4666 
L 3525 4397 
L 1831 0 
L 1172 0 
L 2766 4134 
L 525 4134 
L 525 4666 
z
" transform="scale(0.015625)"/>
       </defs>
       <use xlink:href="#DejaVuSans-30"/>
       <use xlink:href="#DejaVuSans-2e" x="63.623047"/>
       <use xlink:href="#DejaVuSans-37" x="95.410156"/>
      </g>
     </g>
    </g>
    <g id="ytick_4">
     <g id="line2d_4">
      <g>
       <use xlink:href="#m2f2c2cdfc6" x="50.8925" y="122.176463" style="stroke: #000000; stroke-width: 0.8"/>
      </g>
     </g>
     <g id="text_4">
      <!-- 0.8 -->
      <g transform="translate(27.989375 125.975682)scale(0.1 -0.1)">
       <defs>
        <path id="DejaVuSans-38" d="M 2034 2216 
Q 1584 2216 1326 1975 
Q 1069 1734 1069 1313 
Q 1069 891 1326 650 
Q 1584 409 2034 409 
Q 2484 409 2743 651 
Q 3003 894 3003 1313 
Q 3003 1734 2745 1975 
Q 2488 2216 2034 2216 
z
M 1403 2484 
Q 997 2584 770 2862 
Q 544 3141 544 3541 
Q 544 4100 942 4425 
Q 1341 4750 2034 4750 
Q 2731 4750 3128 4425 
Q 3525 4100 3525 3541 
Q 3525 3141 3298 2862 
Q 3072 2584 2669 2484 
Q 3125 2378 3379 2068 
Q 3634 1759 3634 1313 
Q 3634 634 3220 271 
Q 2806 -91 2034 -91 
Q 1263 -91 848 271 
Q 434 634 434 1313 
Q 434 1759 690 2068 
Q 947 2378 1403 2484 
z
M 1172 3481 
Q 1172 3119 1398 2916 
Q 1625 2713 2034 2713 
Q 2441 2713 2670 2916 
Q 2900 3119 2900 3481 
Q 2900 3844 2670 4047 
Q 2441 4250 2034 4250 
Q 1625 4250 1398 4047 
Q 1172 3844 1172 3481 
z
" transform="scale(0.015625)"/>
       </defs>
       <use xlink:href="#DejaVuSans-30"/>
       <use xlink:href="#DejaVuSans-2e" x="63.623047"/>
       <use xlink:href="#DejaVuSans-38" x="95.410156"/>
      </g>
     </g>
    </g>
    <g id="ytick_5">
     <g id="line2d_5">
      <g>
       <use xlink:href="#m2f2c2cdfc6" x="50.8925" y="83.8512" style="stroke: #000000; stroke-width: 0.8"/>
      </g>
     </g>
     <g id="text_5">
      <!-- 0.9 -->
      <g transform="translate(27.989375 87.650419)scale(0.1 -0.1)">
       <defs>
        <path id="DejaVuSans-39" d="M 703 97 
L 703 672 
Q 941 559 1184 500 
Q 1428 441 1663 441 
Q 2288 441 2617 861 
Q 2947 1281 2994 2138 
Q 2813 1869 2534 1725 
Q 2256 1581 1919 1581 
Q 1219 1581 811 2004 
Q 403 2428 403 3163 
Q 403 3881 828 4315 
Q 1253 4750 1959 4750 
Q 2769 4750 3195 4129 
Q 3622 3509 3622 2328 
Q 3622 1225 3098 567 
Q 2575 -91 1691 -91 
Q 1453 -91 1209 -44 
Q 966 3 703 97 
z
M 1959 2075 
Q 2384 2075 2632 2365 
Q 2881 2656 2881 3163 
Q 2881 3666 2632 3958 
Q 2384 4250 1959 4250 
Q 1534 4250 1286 3958 
Q 1038 3666 1038 3163 
Q 1038 2656 1286 2365 
Q 1534 2075 1959 2075 
z
" transform="scale(0.015625)"/>
       </defs>
       <use xlink:href="#DejaVuSans-30"/>
       <use xlink:href="#DejaVuSans-2e" x="63.623047"/>
       <use xlink:href="#DejaVuSans-39" x="95.410156"/>
      </g>
     </g>
    </g>
    <g id="text_6">
     <!-- RMSD [$\AA$] -->
     <g transform="translate(21.909688 184.12)rotate(-90)scale(0.1 -0.1)">
      <defs>
       <path id="DejaVuSans-52" d="M 2841 2188 
Q 3044 2119 3236 1894 
Q 3428 1669 3622 1275 
L 4263 0 
L 3584 0 
L 2988 1197 
Q 2756 1666 2539 1819 
Q 2322 1972 1947 1972 
L 1259 1972 
L 1259 0 
L 628 0 
L 628 4666 
L 2053 4666 
Q 2853 4666 3247 4331 
Q 3641 3997 3641 3322 
Q 3641 2881 3436 2590 
Q 3231 2300 2841 2188 
z
M 1259 4147 
L 1259 2491 
L 2053 2491 
Q 2509 2491 2742 2702 
Q 2975 2913 2975 3322 
Q 2975 3731 2742 3939 
Q 2509 4147 2053 4147 
L 1259 4147 
z
" transform="scale(0.015625)"/>
       <path id="DejaVuSans-4d" d="M 628 4666 
L 1569 4666 
L 2759 1491 
L 3956 4666 
L 4897 4666 
L 4897 0 
L 4281 0 
L 4281 4097 
L 3078 897 
L 2444 897 
L 1241 4097 
L 1241 0 
L 628 0 
L 628 4666 
z
" transform="scale(0.015625)"/>
       <path id="DejaVuSans-53" d="M 3425 4513 
L 3425 3897 
Q 3066 4069 2747 4153 
Q 2428 4238 2131 4238 
Q 1616 4238 1336 4038 
Q 1056 3838 1056 3469 
Q 1056 3159 1242 3001 
Q 1428 2844 1947 2747 
L 2328 2669 
Q 3034 2534 3370 2195 
Q 3706 1856 3706 1288 
Q 3706 609 3251 259 
Q 2797 -91 1919 -91 
Q 1588 -91 1214 -16 
Q 841 59 441 206 
L 441 856 
Q 825 641 1194 531 
Q 1563 422 1919 422 
Q 2459 422 2753 634 
Q 3047 847 3047 1241 
Q 3047 1584 2836 1778 
Q 2625 1972 2144 2069 
L 1759 2144 
Q 1053 2284 737 2584 
Q 422 2884 422 3419 
Q 422 4038 858 4394 
Q 1294 4750 2059 4750 
Q 2388 4750 2728 4690 
Q 3069 4631 3425 4513 
z
" transform="scale(0.015625)"/>
       <path id="DejaVuSans-44" d="M 1259 4147 
L 1259 519 
L 2022 519 
Q 2988 519 3436 956 
Q 3884 1394 3884 2338 
Q 3884 3275 3436 3711 
Q 2988 4147 2022 4147 
L 1259 4147 
z
M 628 4666 
L 1925 4666 
Q 3281 4666 3915 4102 
Q 4550 3538 4550 2338 
Q 4550 1131 3912 565 
Q 3275 0 1925 0 
L 628 0 
L 628 4666 
z
" transform="scale(0.015625)"/>
       <path id="DejaVuSans-20" transform="scale(0.015625)"/>
       <path id="DejaVuSans-5b" d="M 550 4863 
L 1875 4863 
L 1875 4416 
L 1125 4416 
L 1125 -397 
L 1875 -397 
L 1875 -844 
L 550 -844 
L 550 4863 
z
" transform="scale(0.015625)"/>
       <path id="DejaVuSans-Oblique-c5" d="M 3188 5081 
Q 3188 5278 3048 5417 
Q 2909 5556 2713 5556 
Q 2513 5556 2377 5420 
Q 2241 5284 2241 5081 
Q 2241 4884 2377 4746 
Q 2513 4609 2713 4609 
Q 2909 4609 3048 4746 
Q 3188 4884 3188 5081 
z
M 2203 4397 
Q 2034 4513 1945 4689 
Q 1856 4866 1856 5081 
Q 1856 5438 2106 5689 
Q 2356 5941 2713 5941 
Q 3069 5941 3320 5689 
Q 3572 5438 3572 5081 
Q 3572 4834 3458 4643 
Q 3344 4453 3128 4341 
L 3938 0 
L 3278 0 
L 3084 1197 
L 984 1197 
L 325 0 
L -341 0 
L 2203 4397 
z
M 2584 4044 
L 1275 1722 
L 2988 1722 
L 2584 4044 
z
" transform="scale(0.015625)"/>
       <path id="DejaVuSans-5d" d="M 1947 4863 
L 1947 -844 
L 622 -844 
L 622 -397 
L 1369 -397 
L 1369 4416 
L 622 4416 
L 622 4863 
L 1947 4863 
z
" transform="scale(0.015625)"/>
      </defs>
      <use xlink:href="#DejaVuSans-52" transform="translate(0 0.171875)"/>
      <use xlink:href="#DejaVuSans-4d" transform="translate(69.482422 0.171875)"/>
      <use xlink:href="#DejaVuSans-53" transform="translate(155.761719 0.171875)"/>
      <use xlink:href="#DejaVuSans-44" transform="translate(219.238281 0.171875)"/>
      <use xlink:href="#DejaVuSans-20" transform="translate(296.240234 0.171875)"/>
      <use xlink:href="#DejaVuSans-5b" transform="translate(328.027344 0.171875)"/>
      <use xlink:href="#DejaVuSans-Oblique-c5" transform="translate(367.041016 0.171875)"/>
      <use xlink:href="#DejaVuSans-5d" transform="translate(435.449219 0.171875)"/>
     </g>
    </g>
   </g>
   <g id="LineCollection_1">
    <path d="M 66.447636 173.499416 
L 92.372864 173.499416 
" clip-path="url(#p1e1136c9b3)" style="fill: none; stroke: #1f77b4; stroke-width: 1.5"/>
   </g>
   <g id="LineCollection_2">
    <path d="M 66.447636 57.342727 
L 92.372864 57.342727 
" clip-path="url(#p1e1136c9b3)" style="fill: none; stroke: #1f77b4; stroke-width: 1.5"/>
   </g>
   <g id="LineCollection_3">
    <path d="M 66.447636 263.397273 
L 92.372864 263.397273 
" clip-path="url(#p1e1136c9b3)" style="fill: none; stroke: #1f77b4; stroke-width: 1.5"/>
   </g>
   <g id="LineCollection_4">
    <path d="M 79.41025 263.397273 
L 79.41025 57.342727 
" clip-path="url(#p1e1136c9b3)" style="fill: none; stroke: #1f77b4; stroke-width: 1.5"/>
   </g>
   <g id="patch_3">
    <path d="M 50.8925 273.7 
L 50.8925 47.04 
" style="fill: none; stroke: #000000; stroke-width: 0.8; stroke-linejoin: miter; stroke-linecap: square"/>
   </g>
   <g id="patch_4">
    <path d="M 107.928 273.7 
L 107.928 47.04 
" style="fill: none; stroke: #000000; stroke-width: 0.8; stroke-linejoin: miter; stroke-linecap: square"/>
   </g>
   <g id="patch_5">
    <path d="M 50.8925 273.7 
L 107.928 273.7 
" style="fill: none; stroke: #000000; stroke-width: 0.8; stroke-linejoin: miter; stroke-linecap: square"/>
   </g>
   <g id="patch_6">
    <path d="M 50.8925 47.04 
L 107.928 47.04 
" style="fill: none; stroke: #000000; stroke-width: 0.8; stroke-linejoin: miter; stroke-linecap: square"/>
   </g>
   <g id="text_7">
    <!-- RMSD -->
    <g transform="translate(61.63525 41.04)scale(0.12 -0.12)">
     <use xlink:href="#DejaVuSans-52"/>
     <use xlink:href="#DejaVuSans-4d" x="69.482422"/>
     <use xlink:href="#DejaVuSans-53" x="155.761719"/>
     <use xlink:href="#DejaVuSans-44" x="219.238281"/>
    </g>
   </g>
  </g>
  <g id="axes_2">
   <g id="patch_7">
    <path d="M 165.2105 273.7 
L 222.246 273.7 
L 222.246 47.04 
L 165.2105 47.04 
z
" style="fill: #ffffff"/>
   </g>
   <g id="PolyCollection_2">
    <path d="M 195.296123 263.397273 
L 192.160377 263.397273 
L 191.834867 261.315914 
L 191.487244 259.234555 
L 191.121225 257.153196 
L 190.73816 255.071837 
L 190.336041 252.990478 
L 189.909052 250.909118 
L 189.447888 248.827759 
L 188.940981 246.7464 
L 188.376557 244.665041 
L 187.745271 242.583682 
L 187.043012 240.502323 
L 186.273301 238.420964 
L 185.448728 236.339605 
L 184.590917 234.258246 
L 183.728682 232.176887 
L 182.894366 230.095528 
L 182.11869 228.014169 
L 181.424905 225.93281 
L 180.823377 223.851451 
L 180.307856 221.770092 
L 179.854503 219.688733 
L 179.424209 217.607374 
L 178.968075 215.526015 
L 178.435187 213.444656 
L 177.781391 211.363297 
L 176.977566 209.281938 
L 176.01598 207.200579 
L 174.913589 205.119219 
L 173.711533 203.03786 
L 172.4706 200.956501 
L 171.263145 198.875142 
L 170.162724 196.793783 
L 169.233415 194.712424 
L 168.521091 192.631065 
L 168.048568 190.549706 
L 167.815557 188.468347 
L 167.803023 186.386988 
L 167.980313 184.305629 
L 168.312842 182.22427 
L 168.76831 180.142911 
L 169.320292 178.061552 
L 169.949138 175.980193 
L 170.640923 173.898834 
L 171.385522 171.817475 
L 172.174664 169.736116 
L 173.000412 167.654757 
L 173.854139 165.573398 
L 174.725965 163.492039 
L 175.604671 161.41068 
L 176.478239 159.32932 
L 177.335062 157.247961 
L 178.165678 155.166602 
L 178.964548 153.085243 
L 179.731237 151.003884 
L 180.470427 148.922525 
L 181.190565 146.841166 
L 181.901386 144.759807 
L 182.610976 142.678448 
L 183.323185 140.597089 
L 184.036107 138.51573 
L 184.742032 136.434371 
L 185.428891 134.353012 
L 186.082847 132.271653 
L 186.691436 130.190294 
L 187.24654 128.108935 
L 187.746492 126.027576 
L 188.196764 123.946217 
L 188.609009 121.864858 
L 188.9986 119.783499 
L 189.38126 117.70214 
L 189.769591 115.620781 
L 190.170415 113.539421 
L 190.583573 111.458062 
L 191.002413 109.376703 
L 191.415706 107.295344 
L 191.810352 105.213985 
L 192.174106 103.132626 
L 192.497664 101.051267 
L 192.775735 98.969908 
L 193.007109 96.888549 
L 193.193944 94.80719 
L 193.340682 92.725831 
L 193.452914 90.644472 
L 193.536462 88.563113 
L 193.596744 86.481754 
L 193.63842 84.400395 
L 193.665256 82.319036 
L 193.680121 80.237677 
L 193.685096 78.156318 
L 193.681652 76.074959 
L 193.670905 73.9936 
L 193.653907 71.912241 
L 193.631936 69.830882 
L 193.60672 67.749522 
L 193.580506 65.668163 
L 193.555958 63.586804 
L 193.535851 61.505445 
L 193.522647 59.424086 
L 193.518051 57.342727 
L 193.938449 57.342727 
L 193.938449 57.342727 
L 193.933853 59.424086 
L 193.920649 61.505445 
L 193.900542 63.586804 
L 193.875994 65.668163 
L 193.84978 67.749522 
L 193.824564 69.830882 
L 193.802593 71.912241 
L 193.785595 73.9936 
L 193.774848 76.074959 
L 193.771404 78.156318 
L 193.776379 80.237677 
L 193.791244 82.319036 
L 193.81808 84.400395 
L 193.859756 86.481754 
L 193.920038 88.563113 
L 194.003586 90.644472 
L 194.115818 92.725831 
L 194.262556 94.80719 
L 194.449391 96.888549 
L 194.680765 98.969908 
L 194.958836 101.051267 
L 195.282394 103.132626 
L 195.646148 105.213985 
L 196.040794 107.295344 
L 196.454087 109.376703 
L 196.872927 111.458062 
L 197.286085 113.539421 
L 197.686909 115.620781 
L 198.07524 117.70214 
L 198.4579 119.783499 
L 198.847491 121.864858 
L 199.259736 123.946217 
L 199.710008 126.027576 
L 200.20996 128.108935 
L 200.765064 130.190294 
L 201.373653 132.271653 
L 202.027609 134.353012 
L 202.714468 136.434371 
L 203.420393 138.51573 
L 204.133315 140.597089 
L 204.845524 142.678448 
L 205.555114 144.759807 
L 206.265935 146.841166 
L 206.986073 148.922525 
L 207.725263 151.003884 
L 208.491952 153.085243 
L 209.290822 155.166602 
L 210.121438 157.247961 
L 210.978261 159.32932 
L 211.851829 161.41068 
L 212.730535 163.492039 
L 213.602361 165.573398 
L 214.456088 167.654757 
L 215.281836 169.736116 
L 216.070978 171.817475 
L 216.815577 173.898834 
L 217.507362 175.980193 
L 218.136208 178.061552 
L 218.68819 180.142911 
L 219.143658 182.22427 
L 219.476187 184.305629 
L 219.653477 186.386988 
L 219.640943 188.468347 
L 219.407932 190.549706 
L 218.935409 192.631065 
L 218.223085 194.712424 
L 217.293776 196.793783 
L 216.193355 198.875142 
L 214.9859 200.956501 
L 213.744967 203.03786 
L 212.542911 205.119219 
L 211.44052 207.200579 
L 210.478934 209.281938 
L 209.675109 211.363297 
L 209.021313 213.444656 
L 208.488425 215.526015 
L 208.032291 217.607374 
L 207.601997 219.688733 
L 207.148644 221.770092 
L 206.633123 223.851451 
L 206.031595 225.93281 
L 205.33781 228.014169 
L 204.562134 230.095528 
L 203.727818 232.176887 
L 202.865583 234.258246 
L 202.007772 236.339605 
L 201.183199 238.420964 
L 200.413488 240.502323 
L 199.711229 242.583682 
L 199.079943 244.665041 
L 198.515519 246.7464 
L 198.008612 248.827759 
L 197.547448 250.909118 
L 197.120459 252.990478 
L 196.71834 255.071837 
L 196.335275 257.153196 
L 195.969256 259.234555 
L 195.621633 261.315914 
L 195.296123 263.397273 
z
" clip-path="url(#p3b9e08e361)" style="fill: #1f77b4; fill-opacity: 0.3"/>
   </g>
   <g id="matplotlib.axis_2">
    <g id="ytick_6">
     <g id="line2d_6">
      <g>
       <use xlink:href="#m2f2c2cdfc6" x="165.2105" y="263.108428" style="stroke: #000000; stroke-width: 0.8"/>
      </g>
     </g>
     <g id="text_8">
      <!-- 0.30 -->
      <g transform="translate(135.944875 266.907646)scale(0.1 -0.1)">
       <defs>
        <path id="DejaVuSans-33" d="M 2597 2516 
Q 3050 2419 3304 2112 
Q 3559 1806 3559 1356 
Q 3559 666 3084 287 
Q 2609 -91 1734 -91 
Q 1441 -91 1130 -33 
Q 819 25 488 141 
L 488 750 
Q 750 597 1062 519 
Q 1375 441 1716 441 
Q 2309 441 2620 675 
Q 2931 909 2931 1356 
Q 2931 1769 2642 2001 
Q 2353 2234 1838 2234 
L 1294 2234 
L 1294 2753 
L 1863 2753 
Q 2328 2753 2575 2939 
Q 2822 3125 2822 3475 
Q 2822 3834 2567 4026 
Q 2313 4219 1838 4219 
Q 1578 4219 1281 4162 
Q 984 4106 628 3988 
L 628 4550 
Q 988 4650 1302 4700 
Q 1616 4750 1894 4750 
Q 2613 4750 3031 4423 
Q 3450 4097 3450 3541 
Q 3450 3153 3228 2886 
Q 3006 2619 2597 2516 
z
" transform="scale(0.015625)"/>
       </defs>
       <use xlink:href="#DejaVuSans-30"/>
       <use xlink:href="#DejaVuSans-2e" x="63.623047"/>
       <use xlink:href="#DejaVuSans-33" x="95.410156"/>
       <use xlink:href="#DejaVuSans-30" x="159.033203"/>
      </g>
     </g>
    </g>
    <g id="ytick_7">
     <g id="line2d_7">
      <g>
       <use xlink:href="#m2f2c2cdfc6" x="165.2105" y="236.462451" style="stroke: #000000; stroke-width: 0.8"/>
      </g>
     </g>
     <g id="text_9">
      <!-- 0.35 -->
      <g transform="translate(135.944875 240.26167)scale(0.1 -0.1)">
       <use xlink:href="#DejaVuSans-30"/>
       <use xlink:href="#DejaVuSans-2e" x="63.623047"/>
       <use xlink:href="#DejaVuSans-33" x="95.410156"/>
       <use xlink:href="#DejaVuSans-35" x="159.033203"/>
      </g>
     </g>
    </g>
    <g id="ytick_8">
     <g id="line2d_8">
      <g>
       <use xlink:href="#m2f2c2cdfc6" x="165.2105" y="209.816475" style="stroke: #000000; stroke-width: 0.8"/>
      </g>
     </g>
     <g id="text_10">
      <!-- 0.40 -->
      <g transform="translate(135.944875 213.615694)scale(0.1 -0.1)">
       <defs>
        <path id="DejaVuSans-34" d="M 2419 4116 
L 825 1625 
L 2419 1625 
L 2419 4116 
z
M 2253 4666 
L 3047 4666 
L 3047 1625 
L 3713 1625 
L 3713 1100 
L 3047 1100 
L 3047 0 
L 2419 0 
L 2419 1100 
L 313 1100 
L 313 1709 
L 2253 4666 
z
" transform="scale(0.015625)"/>
       </defs>
       <use xlink:href="#DejaVuSans-30"/>
       <use xlink:href="#DejaVuSans-2e" x="63.623047"/>
       <use xlink:href="#DejaVuSans-34" x="95.410156"/>
       <use xlink:href="#DejaVuSans-30" x="159.033203"/>
      </g>
     </g>
    </g>
    <g id="ytick_9">
     <g id="line2d_9">
      <g>
       <use xlink:href="#m2f2c2cdfc6" x="165.2105" y="183.170499" style="stroke: #000000; stroke-width: 0.8"/>
      </g>
     </g>
     <g id="text_11">
      <!-- 0.45 -->
      <g transform="translate(135.944875 186.969717)scale(0.1 -0.1)">
       <use xlink:href="#DejaVuSans-30"/>
       <use xlink:href="#DejaVuSans-2e" x="63.623047"/>
       <use xlink:href="#DejaVuSans-34" x="95.410156"/>
       <use xlink:href="#DejaVuSans-35" x="159.033203"/>
      </g>
     </g>
    </g>
    <g id="ytick_10">
     <g id="line2d_10">
      <g>
       <use xlink:href="#m2f2c2cdfc6" x="165.2105" y="156.524522" style="stroke: #000000; stroke-width: 0.8"/>
      </g>
     </g>
     <g id="text_12">
      <!-- 0.50 -->
      <g transform="translate(135.944875 160.323741)scale(0.1 -0.1)">
       <use xlink:href="#DejaVuSans-30"/>
       <use xlink:href="#DejaVuSans-2e" x="63.623047"/>
       <use xlink:href="#DejaVuSans-35" x="95.410156"/>
       <use xlink:href="#DejaVuSans-30" x="159.033203"/>
      </g>
     </g>
    </g>
    <g id="ytick_11">
     <g id="line2d_11">
      <g>
       <use xlink:href="#m2f2c2cdfc6" x="165.2105" y="129.878546" style="stroke: #000000; stroke-width: 0.8"/>
      </g>
     </g>
     <g id="text_13">
      <!-- 0.55 -->
      <g transform="translate(135.944875 133.677765)scale(0.1 -0.1)">
       <use xlink:href="#DejaVuSans-30"/>
       <use xlink:href="#DejaVuSans-2e" x="63.623047"/>
       <use xlink:href="#DejaVuSans-35" x="95.410156"/>
       <use xlink:href="#DejaVuSans-35" x="159.033203"/>
      </g>
     </g>
    </g>
    <g id="ytick_12">
     <g id="line2d_12">
      <g>
       <use xlink:href="#m2f2c2cdfc6" x="165.2105" y="103.232569" style="stroke: #000000; stroke-width: 0.8"/>
      </g>
     </g>
     <g id="text_14">
      <!-- 0.60 -->
      <g transform="translate(135.944875 107.031788)scale(0.1 -0.1)">
       <use xlink:href="#DejaVuSans-30"/>
       <use xlink:href="#DejaVuSans-2e" x="63.623047"/>
       <use xlink:href="#DejaVuSans-36" x="95.410156"/>
       <use xlink:href="#DejaVuSans-30" x="159.033203"/>
      </g>
     </g>
    </g>
    <g id="ytick_13">
     <g id="line2d_13">
      <g>
       <use xlink:href="#m2f2c2cdfc6" x="165.2105" y="76.586593" style="stroke: #000000; stroke-width: 0.8"/>
      </g>
     </g>
     <g id="text_15">
      <!-- 0.65 -->
      <g transform="translate(135.944875 80.385812)scale(0.1 -0.1)">
       <use xlink:href="#DejaVuSans-30"/>
       <use xlink:href="#DejaVuSans-2e" x="63.623047"/>
       <use xlink:href="#DejaVuSans-36" x="95.410156"/>
       <use xlink:href="#DejaVuSans-35" x="159.033203"/>
      </g>
     </g>
    </g>
    <g id="ytick_14">
     <g id="line2d_14">
      <g>
       <use xlink:href="#m2f2c2cdfc6" x="165.2105" y="49.940617" style="stroke: #000000; stroke-width: 0.8"/>
      </g>
     </g>
     <g id="text_16">
      <!-- 0.70 -->
      <g transform="translate(135.944875 53.739835)scale(0.1 -0.1)">
       <use xlink:href="#DejaVuSans-30"/>
       <use xlink:href="#DejaVuSans-2e" x="63.623047"/>
       <use xlink:href="#DejaVuSans-37" x="95.410156"/>
       <use xlink:href="#DejaVuSans-30" x="159.033203"/>
      </g>
     </g>
    </g>
    <g id="text_17">
     <!-- MAE [$\AA$] -->
     <g transform="translate(129.865188 180.22)rotate(-90)scale(0.1 -0.1)">
      <defs>
       <path id="DejaVuSans-41" d="M 2188 4044 
L 1331 1722 
L 3047 1722 
L 2188 4044 
z
M 1831 4666 
L 2547 4666 
L 4325 0 
L 3669 0 
L 3244 1197 
L 1141 1197 
L 716 0 
L 50 0 
L 1831 4666 
z
" transform="scale(0.015625)"/>
       <path id="DejaVuSans-45" d="M 628 4666 
L 3578 4666 
L 3578 4134 
L 1259 4134 
L 1259 2753 
L 3481 2753 
L 3481 2222 
L 1259 2222 
L 1259 531 
L 3634 531 
L 3634 0 
L 628 0 
L 628 4666 
z
" transform="scale(0.015625)"/>
      </defs>
      <use xlink:href="#DejaVuSans-4d" transform="translate(0 0.171875)"/>
      <use xlink:href="#DejaVuSans-41" transform="translate(86.279297 0.171875)"/>
      <use xlink:href="#DejaVuSans-45" transform="translate(154.6875 0.171875)"/>
      <use xlink:href="#DejaVuSans-20" transform="translate(217.871094 0.171875)"/>
      <use xlink:href="#DejaVuSans-5b" transform="translate(249.658203 0.171875)"/>
      <use xlink:href="#DejaVuSans-Oblique-c5" transform="translate(288.671875 0.171875)"/>
      <use xlink:href="#DejaVuSans-5d" transform="translate(357.080078 0.171875)"/>
     </g>
    </g>
   </g>
   <g id="LineCollection_5">
    <path d="M 180.765636 184.01216 
L 206.690864 184.01216 
" clip-path="url(#p3b9e08e361)" style="fill: none; stroke: #1f77b4; stroke-width: 1.5"/>
   </g>
   <g id="LineCollection_6">
    <path d="M 180.765636 57.342727 
L 206.690864 57.342727 
" clip-path="url(#p3b9e08e361)" style="fill: none; stroke: #1f77b4; stroke-width: 1.5"/>
   </g>
   <g id="LineCollection_7">
    <path d="M 180.765636 263.397273 
L 206.690864 263.397273 
" clip-path="url(#p3b9e08e361)" style="fill: none; stroke: #1f77b4; stroke-width: 1.5"/>
   </g>
   <g id="LineCollection_8">
    <path d="M 193.72825 263.397273 
L 193.72825 57.342727 
" clip-path="url(#p3b9e08e361)" style="fill: none; stroke: #1f77b4; stroke-width: 1.5"/>
   </g>
   <g id="patch_8">
    <path d="M 165.2105 273.7 
L 165.2105 47.04 
" style="fill: none; stroke: #000000; stroke-width: 0.8; stroke-linejoin: miter; stroke-linecap: square"/>
   </g>
   <g id="patch_9">
    <path d="M 222.246 273.7 
L 222.246 47.04 
" style="fill: none; stroke: #000000; stroke-width: 0.8; stroke-linejoin: miter; stroke-linecap: square"/>
   </g>
   <g id="patch_10">
    <path d="M 165.2105 273.7 
L 222.246 273.7 
" style="fill: none; stroke: #000000; stroke-width: 0.8; stroke-linejoin: miter; stroke-linecap: square"/>
   </g>
   <g id="patch_11">
    <path d="M 165.2105 47.04 
L 222.246 47.04 
" style="fill: none; stroke: #000000; stroke-width: 0.8; stroke-linejoin: miter; stroke-linecap: square"/>
   </g>
   <g id="text_18">
    <!-- MAE -->
    <g transform="translate(180.65575 41.04)scale(0.12 -0.12)">
     <use xlink:href="#DejaVuSans-4d"/>
     <use xlink:href="#DejaVuSans-41" x="86.279297"/>
     <use xlink:href="#DejaVuSans-45" x="154.6875"/>
    </g>
   </g>
  </g>
  <g id="axes_3">
   <g id="patch_12">
    <path d="M 279.5285 273.7 
L 336.564 273.7 
L 336.564 47.04 
L 279.5285 47.04 
z
" style="fill: #ffffff"/>
   </g>
   <g id="PolyCollection_3">
    <path d="M 309.690293 263.397273 
L 306.402207 263.397273 
L 306.018673 261.315914 
L 305.575422 259.234555 
L 305.060593 257.153196 
L 304.462242 255.071837 
L 303.772017 252.990478 
L 302.988827 250.909118 
L 302.121152 248.827759 
L 301.18695 246.7464 
L 300.210847 244.665041 
L 299.219301 242.583682 
L 298.235166 240.502323 
L 297.273313 238.420964 
L 296.338561 236.339605 
L 295.426277 234.258246 
L 294.525121 232.176887 
L 293.620821 230.095528 
L 292.699827 228.014169 
L 291.752124 225.93281 
L 290.773056 223.851451 
L 289.764382 221.770092 
L 288.734849 219.688733 
L 287.700324 217.607374 
L 286.683251 215.526015 
L 285.711103 213.444656 
L 284.813726 211.363297 
L 284.019801 209.281938 
L 283.35308 207.200579 
L 282.829172 205.119219 
L 282.453642 203.03786 
L 282.221907 200.956501 
L 282.121023 198.875142 
L 282.13308 196.793783 
L 282.239497 194.712424 
L 282.425271 192.631065 
L 282.68217 190.549706 
L 283.010128 188.468347 
L 283.41653 186.386988 
L 283.913645 184.305629 
L 284.514829 182.22427 
L 285.230301 180.142911 
L 286.063263 178.061552 
L 287.007076 175.980193 
L 288.04411 173.898834 
L 289.146729 171.817475 
L 290.280518 169.736116 
L 291.409305 167.654757 
L 292.500903 165.573398 
L 293.532159 163.492039 
L 294.491955 161.41068 
L 295.38141 159.32932 
L 296.211329 157.247961 
L 296.997735 155.166602 
L 297.756749 153.085243 
L 298.500164 151.003884 
L 299.232754 148.922525 
L 299.951859 146.841166 
L 300.64919 144.759807 
L 301.314211 142.678448 
L 301.938027 140.597089 
L 302.516535 138.51573 
L 303.051823 136.434371 
L 303.551386 134.353012 
L 304.025456 132.271653 
L 304.48343 130.190294 
L 304.930642 128.108935 
L 305.366556 126.027576 
L 305.784874 123.946217 
L 306.175332 121.864858 
L 306.526461 119.783499 
L 306.828388 117.70214 
L 307.07496 115.620781 
L 307.264796 113.539421 
L 307.401295 111.458062 
L 307.491825 109.376703 
L 307.54643 107.295344 
L 307.576353 105.213985 
L 307.592605 103.132626 
L 307.604769 101.051267 
L 307.620125 98.969908 
L 307.643191 96.888549 
L 307.675681 94.80719 
L 307.716844 92.725831 
L 307.764092 90.644472 
L 307.813796 88.563113 
L 307.862082 86.481754 
L 307.905483 84.400395 
L 307.941349 82.319036 
L 307.967975 80.237677 
L 307.984517 78.156318 
L 307.990795 76.074959 
L 307.987131 73.9936 
L 307.974307 71.912241 
L 307.953663 69.830882 
L 307.927258 67.749522 
L 307.897956 65.668163 
L 307.869311 63.586804 
L 307.845166 61.505445 
L 307.829027 59.424086 
L 307.823375 57.342727 
L 308.269125 57.342727 
L 308.269125 57.342727 
L 308.263473 59.424086 
L 308.247334 61.505445 
L 308.223189 63.586804 
L 308.194544 65.668163 
L 308.165242 67.749522 
L 308.138837 69.830882 
L 308.118193 71.912241 
L 308.105369 73.9936 
L 308.101705 76.074959 
L 308.107983 78.156318 
L 308.124525 80.237677 
L 308.151151 82.319036 
L 308.187017 84.400395 
L 308.230418 86.481754 
L 308.278704 88.563113 
L 308.328408 90.644472 
L 308.375656 92.725831 
L 308.416819 94.80719 
L 308.449309 96.888549 
L 308.472375 98.969908 
L 308.487731 101.051267 
L 308.499895 103.132626 
L 308.516147 105.213985 
L 308.54607 107.295344 
L 308.600675 109.376703 
L 308.691205 111.458062 
L 308.827704 113.539421 
L 309.01754 115.620781 
L 309.264112 117.70214 
L 309.566039 119.783499 
L 309.917168 121.864858 
L 310.307626 123.946217 
L 310.725944 126.027576 
L 311.161858 128.108935 
L 311.60907 130.190294 
L 312.067044 132.271653 
L 312.541114 134.353012 
L 313.040677 136.434371 
L 313.575965 138.51573 
L 314.154473 140.597089 
L 314.778289 142.678448 
L 315.44331 144.759807 
L 316.140641 146.841166 
L 316.859746 148.922525 
L 317.592336 151.003884 
L 318.335751 153.085243 
L 319.094765 155.166602 
L 319.881171 157.247961 
L 320.71109 159.32932 
L 321.600545 161.41068 
L 322.560341 163.492039 
L 323.591597 165.573398 
L 324.683195 167.654757 
L 325.811982 169.736116 
L 326.945771 171.817475 
L 328.04839 173.898834 
L 329.085424 175.980193 
L 330.029237 178.061552 
L 330.862199 180.142911 
L 331.577671 182.22427 
L 332.178855 184.305629 
L 332.67597 186.386988 
L 333.082372 188.468347 
L 333.41033 190.549706 
L 333.667229 192.631065 
L 333.853003 194.712424 
L 333.95942 196.793783 
L 333.971477 198.875142 
L 333.870593 200.956501 
L 333.638858 203.03786 
L 333.263328 205.119219 
L 332.73942 207.200579 
L 332.072699 209.281938 
L 331.278774 211.363297 
L 330.381397 213.444656 
L 329.409249 215.526015 
L 328.392176 217.607374 
L 327.357651 219.688733 
L 326.328118 221.770092 
L 325.319444 223.851451 
L 324.340376 225.93281 
L 323.392673 228.014169 
L 322.471679 230.095528 
L 321.567379 232.176887 
L 320.666223 234.258246 
L 319.753939 236.339605 
L 318.819187 238.420964 
L 317.857334 240.502323 
L 316.873199 242.583682 
L 315.881653 244.665041 
L 314.90555 246.7464 
L 313.971348 248.827759 
L 313.103673 250.909118 
L 312.320483 252.990478 
L 311.630258 255.071837 
L 311.031907 257.153196 
L 310.517078 259.234555 
L 310.073827 261.315914 
L 309.690293 263.397273 
z
" clip-path="url(#pba5412df8c)" style="fill: #1f77b4; fill-opacity: 0.3"/>
   </g>
   <g id="matplotlib.axis_3">
    <g id="ytick_15">
     <g id="line2d_15">
      <g>
       <use xlink:href="#m2f2c2cdfc6" x="279.5285" y="256.365506" style="stroke: #000000; stroke-width: 0.8"/>
      </g>
     </g>
     <g id="text_19">
      <!-- 0.2 -->
      <g transform="translate(256.625375 260.164725)scale(0.1 -0.1)">
       <defs>
        <path id="DejaVuSans-32" d="M 1228 531 
L 3431 531 
L 3431 0 
L 469 0 
L 469 531 
Q 828 903 1448 1529 
Q 2069 2156 2228 2338 
Q 2531 2678 2651 2914 
Q 2772 3150 2772 3378 
Q 2772 3750 2511 3984 
Q 2250 4219 1831 4219 
Q 1534 4219 1204 4116 
Q 875 4013 500 3803 
L 500 4441 
Q 881 4594 1212 4672 
Q 1544 4750 1819 4750 
Q 2544 4750 2975 4387 
Q 3406 4025 3406 3419 
Q 3406 3131 3298 2873 
Q 3191 2616 2906 2266 
Q 2828 2175 2409 1742 
Q 1991 1309 1228 531 
z
" transform="scale(0.015625)"/>
       </defs>
       <use xlink:href="#DejaVuSans-30"/>
       <use xlink:href="#DejaVuSans-2e" x="63.623047"/>
       <use xlink:href="#DejaVuSans-32" x="95.410156"/>
      </g>
     </g>
    </g>
    <g id="ytick_16">
     <g id="line2d_16">
      <g>
       <use xlink:href="#m2f2c2cdfc6" x="279.5285" y="206.527477" style="stroke: #000000; stroke-width: 0.8"/>
      </g>
     </g>
     <g id="text_20">
      <!-- 0.3 -->
      <g transform="translate(256.625375 210.326696)scale(0.1 -0.1)">
       <use xlink:href="#DejaVuSans-30"/>
       <use xlink:href="#DejaVuSans-2e" x="63.623047"/>
       <use xlink:href="#DejaVuSans-33" x="95.410156"/>
      </g>
     </g>
    </g>
    <g id="ytick_17">
     <g id="line2d_17">
      <g>
       <use xlink:href="#m2f2c2cdfc6" x="279.5285" y="156.689449" style="stroke: #000000; stroke-width: 0.8"/>
      </g>
     </g>
     <g id="text_21">
      <!-- 0.4 -->
      <g transform="translate(256.625375 160.488668)scale(0.1 -0.1)">
       <use xlink:href="#DejaVuSans-30"/>
       <use xlink:href="#DejaVuSans-2e" x="63.623047"/>
       <use xlink:href="#DejaVuSans-34" x="95.410156"/>
      </g>
     </g>
    </g>
    <g id="ytick_18">
     <g id="line2d_18">
      <g>
       <use xlink:href="#m2f2c2cdfc6" x="279.5285" y="106.85142" style="stroke: #000000; stroke-width: 0.8"/>
      </g>
     </g>
     <g id="text_22">
      <!-- 0.5 -->
      <g transform="translate(256.625375 110.650639)scale(0.1 -0.1)">
       <use xlink:href="#DejaVuSans-30"/>
       <use xlink:href="#DejaVuSans-2e" x="63.623047"/>
       <use xlink:href="#DejaVuSans-35" x="95.410156"/>
      </g>
     </g>
    </g>
    <g id="ytick_19">
     <g id="line2d_19">
      <g>
       <use xlink:href="#m2f2c2cdfc6" x="279.5285" y="57.013392" style="stroke: #000000; stroke-width: 0.8"/>
      </g>
     </g>
     <g id="text_23">
      <!-- 0.6 -->
      <g transform="translate(256.625375 60.812611)scale(0.1 -0.1)">
       <use xlink:href="#DejaVuSans-30"/>
       <use xlink:href="#DejaVuSans-2e" x="63.623047"/>
       <use xlink:href="#DejaVuSans-36" x="95.410156"/>
      </g>
     </g>
    </g>
    <g id="text_24">
     <!-- MSE [$\AA$] -->
     <g transform="translate(250.545688 179.97)rotate(-90)scale(0.1 -0.1)">
      <use xlink:href="#DejaVuSans-4d" transform="translate(0 0.171875)"/>
      <use xlink:href="#DejaVuSans-53" transform="translate(86.279297 0.171875)"/>
      <use xlink:href="#DejaVuSans-45" transform="translate(149.755859 0.171875)"/>
      <use xlink:href="#DejaVuSans-20" transform="translate(212.939453 0.171875)"/>
      <use xlink:href="#DejaVuSans-5b" transform="translate(244.726562 0.171875)"/>
      <use xlink:href="#DejaVuSans-Oblique-c5" transform="translate(283.740234 0.171875)"/>
      <use xlink:href="#DejaVuSans-5d" transform="translate(352.148438 0.171875)"/>
     </g>
    </g>
   </g>
   <g id="LineCollection_9">
    <path d="M 295.083636 193.945042 
L 321.008864 193.945042 
" clip-path="url(#pba5412df8c)" style="fill: none; stroke: #1f77b4; stroke-width: 1.5"/>
   </g>
   <g id="LineCollection_10">
    <path d="M 295.083636 57.342727 
L 321.008864 57.342727 
" clip-path="url(#pba5412df8c)" style="fill: none; stroke: #1f77b4; stroke-width: 1.5"/>
   </g>
   <g id="LineCollection_11">
    <path d="M 295.083636 263.397273 
L 321.008864 263.397273 
" clip-path="url(#pba5412df8c)" style="fill: none; stroke: #1f77b4; stroke-width: 1.5"/>
   </g>
   <g id="LineCollection_12">
    <path d="M 308.04625 263.397273 
L 308.04625 57.342727 
" clip-path="url(#pba5412df8c)" style="fill: none; stroke: #1f77b4; stroke-width: 1.5"/>
   </g>
   <g id="patch_13">
    <path d="M 279.5285 273.7 
L 279.5285 47.04 
" style="fill: none; stroke: #000000; stroke-width: 0.8; stroke-linejoin: miter; stroke-linecap: square"/>
   </g>
   <g id="patch_14">
    <path d="M 336.564 273.7 
L 336.564 47.04 
" style="fill: none; stroke: #000000; stroke-width: 0.8; stroke-linejoin: miter; stroke-linecap: square"/>
   </g>
   <g id="patch_15">
    <path d="M 279.5285 273.7 
L 336.564 273.7 
" style="fill: none; stroke: #000000; stroke-width: 0.8; stroke-linejoin: miter; stroke-linecap: square"/>
   </g>
   <g id="patch_16">
    <path d="M 279.5285 47.04 
L 336.564 47.04 
" style="fill: none; stroke: #000000; stroke-width: 0.8; stroke-linejoin: miter; stroke-linecap: square"/>
   </g>
   <g id="text_25">
    <!-- MSE -->
    <g transform="translate(295.269063 41.04)scale(0.12 -0.12)">
     <use xlink:href="#DejaVuSans-4d"/>
     <use xlink:href="#DejaVuSans-53" x="86.279297"/>
     <use xlink:href="#DejaVuSans-45" x="149.755859"/>
    </g>
   </g>
  </g>
  <g id="axes_4">
   <g id="patch_17">
    <path d="M 393.8465 273.7 
L 450.882 273.7 
L 450.882 47.04 
L 393.8465 47.04 
z
" style="fill: #ffffff"/>
   </g>
   <g id="PolyCollection_4">
    <path d="M 423.063647 263.397273 
L 421.664853 263.397273 
L 421.582123 261.315914 
L 421.488402 259.234555 
L 421.378149 257.153196 
L 421.244581 255.071837 
L 421.080039 252.990478 
L 420.876547 250.909118 
L 420.626586 248.827759 
L 420.324032 246.7464 
L 419.965186 244.665041 
L 419.549734 242.583682 
L 419.081447 240.502323 
L 418.568401 238.420964 
L 418.022556 236.339605 
L 417.458631 234.258246 
L 416.892388 232.176887 
L 416.338582 230.095528 
L 415.808957 228.014169 
L 415.31069 225.93281 
L 414.845591 223.851451 
L 414.410187 221.770092 
L 413.996599 219.688733 
L 413.593958 217.607374 
L 413.190006 215.526015 
L 412.772591 213.444656 
L 412.330892 211.363297 
L 411.85637 209.281938 
L 411.343555 207.200579 
L 410.790779 205.119219 
L 410.200847 203.03786 
L 409.581473 200.956501 
L 408.945204 198.875142 
L 408.308521 196.793783 
L 407.689977 194.712424 
L 407.107521 192.631065 
L 406.575445 190.549706 
L 406.101611 188.468347 
L 405.685612 186.386988 
L 405.318324 184.305629 
L 404.982948 182.22427 
L 404.65726 180.142911 
L 404.31655 178.061552 
L 403.93667 175.980193 
L 403.496781 173.898834 
L 402.981628 171.817475 
L 402.383401 169.736116 
L 401.703274 167.654757 
L 400.952633 165.573398 
L 400.153696 163.492039 
L 399.339084 161.41068 
L 398.549842 159.32932 
L 397.831677 157.247961 
L 397.229655 155.166602 
L 396.782159 153.085243 
L 396.515295 151.003884 
L 396.439023 148.922525 
L 396.545926 146.841166 
L 396.812925 144.759807 
L 397.205454 142.678448 
L 397.683068 140.597089 
L 398.205184 138.51573 
L 398.735852 136.434371 
L 399.246915 134.353012 
L 399.719508 132.271653 
L 400.144282 130.190294 
L 400.520905 128.108935 
L 400.857252 126.027576 
L 401.168418 123.946217 
L 401.475357 121.864858 
L 401.802873 119.783499 
L 402.176823 117.70214 
L 402.620695 115.620781 
L 403.152129 113.539421 
L 403.780123 111.458062 
L 404.503641 109.376703 
L 405.312021 107.295344 
L 406.18708 105.213985 
L 407.106367 103.132626 
L 408.046714 101.051267 
L 408.987238 98.969908 
L 409.911212 96.888549 
L 410.806622 94.80719 
L 411.665634 92.725831 
L 412.48348 90.644472 
L 413.257267 88.563113 
L 413.985135 86.481754 
L 414.665902 84.400395 
L 415.299108 82.319036 
L 415.885237 80.237677 
L 416.425878 78.156318 
L 416.923675 76.074959 
L 417.382064 73.9936 
L 417.804891 71.912241 
L 418.19605 69.830882 
L 418.559256 67.749522 
L 418.897974 65.668163 
L 419.215445 63.586804 
L 419.51472 61.505445 
L 419.798611 59.424086 
L 420.069515 57.342727 
L 424.658985 57.342727 
L 424.658985 57.342727 
L 424.929889 59.424086 
L 425.21378 61.505445 
L 425.513055 63.586804 
L 425.830526 65.668163 
L 426.169244 67.749522 
L 426.53245 69.830882 
L 426.923609 71.912241 
L 427.346436 73.9936 
L 427.804825 76.074959 
L 428.302622 78.156318 
L 428.843263 80.237677 
L 429.429392 82.319036 
L 430.062598 84.400395 
L 430.743365 86.481754 
L 431.471233 88.563113 
L 432.24502 90.644472 
L 433.062866 92.725831 
L 433.921878 94.80719 
L 434.817288 96.888549 
L 435.741262 98.969908 
L 436.681786 101.051267 
L 437.622133 103.132626 
L 438.54142 105.213985 
L 439.416479 107.295344 
L 440.224859 109.376703 
L 440.948377 111.458062 
L 441.576371 113.539421 
L 442.107805 115.620781 
L 442.551677 117.70214 
L 442.925627 119.783499 
L 443.253143 121.864858 
L 443.560082 123.946217 
L 443.871248 126.027576 
L 444.207595 128.108935 
L 444.584218 130.190294 
L 445.008992 132.271653 
L 445.481585 134.353012 
L 445.992648 136.434371 
L 446.523316 138.51573 
L 447.045432 140.597089 
L 447.523046 142.678448 
L 447.915575 144.759807 
L 448.182574 146.841166 
L 448.289477 148.922525 
L 448.213205 151.003884 
L 447.946341 153.085243 
L 447.498845 155.166602 
L 446.896823 157.247961 
L 446.178658 159.32932 
L 445.389416 161.41068 
L 444.574804 163.492039 
L 443.775867 165.573398 
L 443.025226 167.654757 
L 442.345099 169.736116 
L 441.746872 171.817475 
L 441.231719 173.898834 
L 440.79183 175.980193 
L 440.41195 178.061552 
L 440.07124 180.142911 
L 439.745552 182.22427 
L 439.410176 184.305629 
L 439.042888 186.386988 
L 438.626889 188.468347 
L 438.153055 190.549706 
L 437.620979 192.631065 
L 437.038523 194.712424 
L 436.419979 196.793783 
L 435.783296 198.875142 
L 435.147027 200.956501 
L 434.527653 203.03786 
L 433.937721 205.119219 
L 433.384945 207.200579 
L 432.87213 209.281938 
L 432.397608 211.363297 
L 431.955909 213.444656 
L 431.538494 215.526015 
L 431.134542 217.607374 
L 430.731901 219.688733 
L 430.318313 221.770092 
L 429.882909 223.851451 
L 429.41781 225.93281 
L 428.919543 228.014169 
L 428.389918 230.095528 
L 427.836112 232.176887 
L 427.269869 234.258246 
L 426.705944 236.339605 
L 426.160099 238.420964 
L 425.647053 240.502323 
L 425.178766 242.583682 
L 424.763314 244.665041 
L 424.404468 246.7464 
L 424.101914 248.827759 
L 423.851953 250.909118 
L 423.648461 252.990478 
L 423.483919 255.071837 
L 423.350351 257.153196 
L 423.240098 259.234555 
L 423.146377 261.315914 
L 423.063647 263.397273 
z
" clip-path="url(#p7bc3a7ad8f)" style="fill: #1f77b4; fill-opacity: 0.3"/>
   </g>
   <g id="matplotlib.axis_4">
    <g id="ytick_20">
     <g id="line2d_20">
      <g>
       <use xlink:href="#m2f2c2cdfc6" x="393.8465" y="244.665041" style="stroke: #000000; stroke-width: 0.8"/>
      </g>
     </g>
     <g id="text_26">
      <!-- 0.50 -->
      <g transform="translate(364.580875 248.46426)scale(0.1 -0.1)">
       <use xlink:href="#DejaVuSans-30"/>
       <use xlink:href="#DejaVuSans-2e" x="63.623047"/>
       <use xlink:href="#DejaVuSans-35" x="95.410156"/>
       <use xlink:href="#DejaVuSans-30" x="159.033203"/>
      </g>
     </g>
    </g>
    <g id="ytick_21">
     <g id="line2d_21">
      <g>
       <use xlink:href="#m2f2c2cdfc6" x="393.8465" y="207.200579" style="stroke: #000000; stroke-width: 0.8"/>
      </g>
     </g>
     <g id="text_27">
      <!-- 0.55 -->
      <g transform="translate(364.580875 210.999797)scale(0.1 -0.1)">
       <use xlink:href="#DejaVuSans-30"/>
       <use xlink:href="#DejaVuSans-2e" x="63.623047"/>
       <use xlink:href="#DejaVuSans-35" x="95.410156"/>
       <use xlink:href="#DejaVuSans-35" x="159.033203"/>
      </g>
     </g>
    </g>
    <g id="ytick_22">
     <g id="line2d_22">
      <g>
       <use xlink:href="#m2f2c2cdfc6" x="393.8465" y="169.736116" style="stroke: #000000; stroke-width: 0.8"/>
      </g>
     </g>
     <g id="text_28">
      <!-- 0.60 -->
      <g transform="translate(364.580875 173.535334)scale(0.1 -0.1)">
       <use xlink:href="#DejaVuSans-30"/>
       <use xlink:href="#DejaVuSans-2e" x="63.623047"/>
       <use xlink:href="#DejaVuSans-36" x="95.410156"/>
       <use xlink:href="#DejaVuSans-30" x="159.033203"/>
      </g>
     </g>
    </g>
    <g id="ytick_23">
     <g id="line2d_23">
      <g>
       <use xlink:href="#m2f2c2cdfc6" x="393.8465" y="132.271653" style="stroke: #000000; stroke-width: 0.8"/>
      </g>
     </g>
     <g id="text_29">
      <!-- 0.65 -->
      <g transform="translate(364.580875 136.070872)scale(0.1 -0.1)">
       <use xlink:href="#DejaVuSans-30"/>
       <use xlink:href="#DejaVuSans-2e" x="63.623047"/>
       <use xlink:href="#DejaVuSans-36" x="95.410156"/>
       <use xlink:href="#DejaVuSans-35" x="159.033203"/>
      </g>
     </g>
    </g>
    <g id="ytick_24">
     <g id="line2d_24">
      <g>
       <use xlink:href="#m2f2c2cdfc6" x="393.8465" y="94.80719" style="stroke: #000000; stroke-width: 0.8"/>
      </g>
     </g>
     <g id="text_30">
      <!-- 0.70 -->
      <g transform="translate(364.580875 98.606409)scale(0.1 -0.1)">
       <use xlink:href="#DejaVuSans-30"/>
       <use xlink:href="#DejaVuSans-2e" x="63.623047"/>
       <use xlink:href="#DejaVuSans-37" x="95.410156"/>
       <use xlink:href="#DejaVuSans-30" x="159.033203"/>
      </g>
     </g>
    </g>
    <g id="ytick_25">
     <g id="line2d_25">
      <g>
       <use xlink:href="#m2f2c2cdfc6" x="393.8465" y="57.342727" style="stroke: #000000; stroke-width: 0.8"/>
      </g>
     </g>
     <g id="text_31">
      <!-- 0.75 -->
      <g transform="translate(364.580875 61.141946)scale(0.1 -0.1)">
       <use xlink:href="#DejaVuSans-30"/>
       <use xlink:href="#DejaVuSans-2e" x="63.623047"/>
       <use xlink:href="#DejaVuSans-37" x="95.410156"/>
       <use xlink:href="#DejaVuSans-35" x="159.033203"/>
      </g>
     </g>
    </g>
    <g id="text_32">
     <!-- % NOE fulfilled [1/100 %] -->
     <g transform="translate(358.501188 223.870781)rotate(-90)scale(0.1 -0.1)">
      <defs>
       <path id="DejaVuSans-25" d="M 4653 2053 
Q 4381 2053 4226 1822 
Q 4072 1591 4072 1178 
Q 4072 772 4226 539 
Q 4381 306 4653 306 
Q 4919 306 5073 539 
Q 5228 772 5228 1178 
Q 5228 1588 5073 1820 
Q 4919 2053 4653 2053 
z
M 4653 2450 
Q 5147 2450 5437 2106 
Q 5728 1763 5728 1178 
Q 5728 594 5436 251 
Q 5144 -91 4653 -91 
Q 4153 -91 3862 251 
Q 3572 594 3572 1178 
Q 3572 1766 3864 2108 
Q 4156 2450 4653 2450 
z
M 1428 4353 
Q 1159 4353 1004 4120 
Q 850 3888 850 3481 
Q 850 3069 1003 2837 
Q 1156 2606 1428 2606 
Q 1700 2606 1854 2837 
Q 2009 3069 2009 3481 
Q 2009 3884 1853 4118 
Q 1697 4353 1428 4353 
z
M 4250 4750 
L 4750 4750 
L 1831 -91 
L 1331 -91 
L 4250 4750 
z
M 1428 4750 
Q 1922 4750 2215 4408 
Q 2509 4066 2509 3481 
Q 2509 2891 2217 2550 
Q 1925 2209 1428 2209 
Q 931 2209 642 2551 
Q 353 2894 353 3481 
Q 353 4063 643 4406 
Q 934 4750 1428 4750 
z
" transform="scale(0.015625)"/>
       <path id="DejaVuSans-4e" d="M 628 4666 
L 1478 4666 
L 3547 763 
L 3547 4666 
L 4159 4666 
L 4159 0 
L 3309 0 
L 1241 3903 
L 1241 0 
L 628 0 
L 628 4666 
z
" transform="scale(0.015625)"/>
       <path id="DejaVuSans-4f" d="M 2522 4238 
Q 1834 4238 1429 3725 
Q 1025 3213 1025 2328 
Q 1025 1447 1429 934 
Q 1834 422 2522 422 
Q 3209 422 3611 934 
Q 4013 1447 4013 2328 
Q 4013 3213 3611 3725 
Q 3209 4238 2522 4238 
z
M 2522 4750 
Q 3503 4750 4090 4092 
Q 4678 3434 4678 2328 
Q 4678 1225 4090 567 
Q 3503 -91 2522 -91 
Q 1538 -91 948 565 
Q 359 1222 359 2328 
Q 359 3434 948 4092 
Q 1538 4750 2522 4750 
z
" transform="scale(0.015625)"/>
       <path id="DejaVuSans-66" d="M 2375 4863 
L 2375 4384 
L 1825 4384 
Q 1516 4384 1395 4259 
Q 1275 4134 1275 3809 
L 1275 3500 
L 2222 3500 
L 2222 3053 
L 1275 3053 
L 1275 0 
L 697 0 
L 697 3053 
L 147 3053 
L 147 3500 
L 697 3500 
L 697 3744 
Q 697 4328 969 4595 
Q 1241 4863 1831 4863 
L 2375 4863 
z
" transform="scale(0.015625)"/>
       <path id="DejaVuSans-75" d="M 544 1381 
L 544 3500 
L 1119 3500 
L 1119 1403 
Q 1119 906 1312 657 
Q 1506 409 1894 409 
Q 2359 409 2629 706 
Q 2900 1003 2900 1516 
L 2900 3500 
L 3475 3500 
L 3475 0 
L 2900 0 
L 2900 538 
Q 2691 219 2414 64 
Q 2138 -91 1772 -91 
Q 1169 -91 856 284 
Q 544 659 544 1381 
z
M 1991 3584 
L 1991 3584 
z
" transform="scale(0.015625)"/>
       <path id="DejaVuSans-6c" d="M 603 4863 
L 1178 4863 
L 1178 0 
L 603 0 
L 603 4863 
z
" transform="scale(0.015625)"/>
       <path id="DejaVuSans-69" d="M 603 3500 
L 1178 3500 
L 1178 0 
L 603 0 
L 603 3500 
z
M 603 4863 
L 1178 4863 
L 1178 4134 
L 603 4134 
L 603 4863 
z
" transform="scale(0.015625)"/>
       <path id="DejaVuSans-65" d="M 3597 1894 
L 3597 1613 
L 953 1613 
Q 991 1019 1311 708 
Q 1631 397 2203 397 
Q 2534 397 2845 478 
Q 3156 559 3463 722 
L 3463 178 
Q 3153 47 2828 -22 
Q 2503 -91 2169 -91 
Q 1331 -91 842 396 
Q 353 884 353 1716 
Q 353 2575 817 3079 
Q 1281 3584 2069 3584 
Q 2775 3584 3186 3129 
Q 3597 2675 3597 1894 
z
M 3022 2063 
Q 3016 2534 2758 2815 
Q 2500 3097 2075 3097 
Q 1594 3097 1305 2825 
Q 1016 2553 972 2059 
L 3022 2063 
z
" transform="scale(0.015625)"/>
       <path id="DejaVuSans-64" d="M 2906 2969 
L 2906 4863 
L 3481 4863 
L 3481 0 
L 2906 0 
L 2906 525 
Q 2725 213 2448 61 
Q 2172 -91 1784 -91 
Q 1150 -91 751 415 
Q 353 922 353 1747 
Q 353 2572 751 3078 
Q 1150 3584 1784 3584 
Q 2172 3584 2448 3432 
Q 2725 3281 2906 2969 
z
M 947 1747 
Q 947 1113 1208 752 
Q 1469 391 1925 391 
Q 2381 391 2643 752 
Q 2906 1113 2906 1747 
Q 2906 2381 2643 2742 
Q 2381 3103 1925 3103 
Q 1469 3103 1208 2742 
Q 947 2381 947 1747 
z
" transform="scale(0.015625)"/>
       <path id="DejaVuSans-31" d="M 794 531 
L 1825 531 
L 1825 4091 
L 703 3866 
L 703 4441 
L 1819 4666 
L 2450 4666 
L 2450 531 
L 3481 531 
L 3481 0 
L 794 0 
L 794 531 
z
" transform="scale(0.015625)"/>
       <path id="DejaVuSans-2f" d="M 1625 4666 
L 2156 4666 
L 531 -594 
L 0 -594 
L 1625 4666 
z
" transform="scale(0.015625)"/>
      </defs>
      <use xlink:href="#DejaVuSans-25"/>
      <use xlink:href="#DejaVuSans-20" x="95.019531"/>
      <use xlink:href="#DejaVuSans-4e" x="126.806641"/>
      <use xlink:href="#DejaVuSans-4f" x="201.611328"/>
      <use xlink:href="#DejaVuSans-45" x="280.322266"/>
      <use xlink:href="#DejaVuSans-20" x="343.505859"/>
      <use xlink:href="#DejaVuSans-66" x="375.292969"/>
      <use xlink:href="#DejaVuSans-75" x="410.498047"/>
      <use xlink:href="#DejaVuSans-6c" x="473.876953"/>
      <use xlink:href="#DejaVuSans-66" x="501.660156"/>
      <use xlink:href="#DejaVuSans-69" x="536.865234"/>
      <use xlink:href="#DejaVuSans-6c" x="564.648438"/>
      <use xlink:href="#DejaVuSans-6c" x="592.431641"/>
      <use xlink:href="#DejaVuSans-65" x="620.214844"/>
      <use xlink:href="#DejaVuSans-64" x="681.738281"/>
      <use xlink:href="#DejaVuSans-20" x="745.214844"/>
      <use xlink:href="#DejaVuSans-5b" x="777.001953"/>
      <use xlink:href="#DejaVuSans-31" x="816.015625"/>
      <use xlink:href="#DejaVuSans-2f" x="879.638672"/>
      <use xlink:href="#DejaVuSans-31" x="913.330078"/>
      <use xlink:href="#DejaVuSans-30" x="976.953125"/>
      <use xlink:href="#DejaVuSans-30" x="1040.576172"/>
      <use xlink:href="#DejaVuSans-20" x="1104.199219"/>
      <use xlink:href="#DejaVuSans-25" x="1135.986328"/>
      <use xlink:href="#DejaVuSans-5d" x="1231.005859"/>
     </g>
    </g>
   </g>
   <g id="LineCollection_13">
    <path d="M 409.401636 150.909752 
L 435.326864 150.909752 
" clip-path="url(#p7bc3a7ad8f)" style="fill: none; stroke: #1f77b4; stroke-width: 1.5"/>
   </g>
   <g id="LineCollection_14">
    <path d="M 409.401636 57.342727 
L 435.326864 57.342727 
" clip-path="url(#p7bc3a7ad8f)" style="fill: none; stroke: #1f77b4; stroke-width: 1.5"/>
   </g>
   <g id="LineCollection_15">
    <path d="M 409.401636 263.397273 
L 435.326864 263.397273 
" clip-path="url(#p7bc3a7ad8f)" style="fill: none; stroke: #1f77b4; stroke-width: 1.5"/>
   </g>
   <g id="LineCollection_16">
    <path d="M 422.36425 263.397273 
L 422.36425 57.342727 
" clip-path="url(#p7bc3a7ad8f)" style="fill: none; stroke: #1f77b4; stroke-width: 1.5"/>
   </g>
   <g id="patch_18">
    <path d="M 393.8465 273.7 
L 393.8465 47.04 
" style="fill: none; stroke: #000000; stroke-width: 0.8; stroke-linejoin: miter; stroke-linecap: square"/>
   </g>
   <g id="patch_19">
    <path d="M 450.882 273.7 
L 450.882 47.04 
" style="fill: none; stroke: #000000; stroke-width: 0.8; stroke-linejoin: miter; stroke-linecap: square"/>
   </g>
   <g id="patch_20">
    <path d="M 393.8465 273.7 
L 450.882 273.7 
" style="fill: none; stroke: #000000; stroke-width: 0.8; stroke-linejoin: miter; stroke-linecap: square"/>
   </g>
   <g id="patch_21">
    <path d="M 393.8465 47.04 
L 450.882 47.04 
" style="fill: none; stroke: #000000; stroke-width: 0.8; stroke-linejoin: miter; stroke-linecap: square"/>
   </g>
   <g id="text_33">
    <!-- % NOE fulfilled -->
    <g transform="translate(377.651125 41.04)scale(0.12 -0.12)">
     <use xlink:href="#DejaVuSans-25"/>
     <use xlink:href="#DejaVuSans-20" x="95.019531"/>
     <use xlink:href="#DejaVuSans-4e" x="126.806641"/>
     <use xlink:href="#DejaVuSans-4f" x="201.611328"/>
     <use xlink:href="#DejaVuSans-45" x="280.322266"/>
     <use xlink:href="#DejaVuSans-20" x="343.505859"/>
     <use xlink:href="#DejaVuSans-66" x="375.292969"/>
     <use xlink:href="#DejaVuSans-75" x="410.498047"/>
     <use xlink:href="#DejaVuSans-6c" x="473.876953"/>
     <use xlink:href="#DejaVuSans-66" x="501.660156"/>
     <use xlink:href="#DejaVuSans-69" x="536.865234"/>
     <use xlink:href="#DejaVuSans-6c" x="564.648438"/>
     <use xlink:href="#DejaVuSans-6c" x="592.431641"/>
     <use xlink:href="#DejaVuSans-65" x="620.214844"/>
     <use xlink:href="#DejaVuSans-64" x="681.738281"/>
    </g>
   </g>
  </g>
  <g id="axes_5">
   <g id="patch_22">
    <path d="M 508.1645 273.7 
L 565.2 273.7 
L 565.2 47.04 
L 508.1645 47.04 
z
" style="fill: #ffffff"/>
   </g>
   <g id="PolyCollection_5">
    <path d="M 538.066335 263.397273 
L 535.298165 263.397273 
L 535.103626 261.315914 
L 534.9252 259.234555 
L 534.769992 257.153196 
L 534.640626 255.071837 
L 534.532906 252.990478 
L 534.433685 250.909118 
L 534.31929 248.827759 
L 534.154929 246.7464 
L 533.895484 244.665041 
L 533.488071 242.583682 
L 532.876616 240.502323 
L 532.008469 238.420964 
L 530.842663 236.339605 
L 529.358977 234.258246 
L 527.566418 232.176887 
L 525.509322 230.095528 
L 523.269192 228.014169 
L 520.960723 225.93281 
L 518.721321 223.851451 
L 516.694709 221.770092 
L 515.010701 219.688733 
L 513.764458 217.607374 
L 512.99927 215.526015 
L 512.696736 213.444656 
L 512.777111 211.363297 
L 513.110728 209.281938 
L 513.539167 207.200579 
L 513.902706 205.119219 
L 514.069052 203.03786 
L 513.957828 200.956501 
L 513.55587 198.875142 
L 512.920061 196.793783 
L 512.166855 194.712424 
L 511.450378 192.631065 
L 510.933399 190.549706 
L 510.757023 188.468347 
L 511.015276 186.386988 
L 511.739618 184.305629 
L 512.89619 182.22427 
L 514.39569 180.142911 
L 516.113002 178.061552 
L 517.911705 175.980193 
L 519.667904 173.898834 
L 521.288493 171.817475 
L 522.720785 169.736116 
L 523.952741 167.654757 
L 525.005289 165.573398 
L 525.919748 163.492039 
L 526.743984 161.41068 
L 527.520525 159.32932 
L 528.278782 157.247961 
L 529.032125 155.166602 
L 529.779266 153.085243 
L 530.508512 151.003884 
L 531.203127 148.922525 
L 531.846217 146.841166 
L 532.424118 144.759807 
L 532.92793 142.678448 
L 533.353465 140.597089 
L 533.700229 138.51573 
L 533.97017 136.434371 
L 534.166739 134.353012 
L 534.294517 132.271653 
L 534.359351 130.190294 
L 534.368675 128.108935 
L 534.331704 126.027576 
L 534.259214 123.946217 
L 534.162863 121.864858 
L 534.05423 119.783499 
L 533.943811 117.70214 
L 533.840303 115.620781 
L 533.750308 113.539421 
L 533.678455 111.458062 
L 533.627776 109.376703 
L 533.600067 107.295344 
L 533.596076 105.213985 
L 533.615433 103.132626 
L 533.65644 101.051267 
L 533.715944 98.969908 
L 533.789475 96.888549 
L 533.871788 94.80719 
L 533.957717 92.725831 
L 534.043148 90.644472 
L 534.125829 88.563113 
L 534.205756 86.481754 
L 534.285035 84.400395 
L 534.367259 82.319036 
L 534.456578 80.237677 
L 534.556718 78.156318 
L 534.670184 76.074959 
L 534.797793 73.9936 
L 534.938583 71.912241 
L 535.090041 69.830882 
L 535.248548 67.749522 
L 535.409898 65.668163 
L 535.569807 63.586804 
L 535.724318 61.505445 
L 535.870085 59.424086 
L 536.004531 57.342727 
L 537.359969 57.342727 
L 537.359969 57.342727 
L 537.494415 59.424086 
L 537.640182 61.505445 
L 537.794693 63.586804 
L 537.954602 65.668163 
L 538.115952 67.749522 
L 538.274459 69.830882 
L 538.425917 71.912241 
L 538.566707 73.9936 
L 538.694316 76.074959 
L 538.807782 78.156318 
L 538.907922 80.237677 
L 538.997241 82.319036 
L 539.079465 84.400395 
L 539.158744 86.481754 
L 539.238671 88.563113 
L 539.321352 90.644472 
L 539.406783 92.725831 
L 539.492712 94.80719 
L 539.575025 96.888549 
L 539.648556 98.969908 
L 539.70806 101.051267 
L 539.749067 103.132626 
L 539.768424 105.213985 
L 539.764433 107.295344 
L 539.736724 109.376703 
L 539.686045 111.458062 
L 539.614192 113.539421 
L 539.524197 115.620781 
L 539.420689 117.70214 
L 539.31027 119.783499 
L 539.201637 121.864858 
L 539.105286 123.946217 
L 539.032796 126.027576 
L 538.995825 128.108935 
L 539.005149 130.190294 
L 539.069983 132.271653 
L 539.197761 134.353012 
L 539.39433 136.434371 
L 539.664271 138.51573 
L 540.011035 140.597089 
L 540.43657 142.678448 
L 540.940382 144.759807 
L 541.518283 146.841166 
L 542.161373 148.922525 
L 542.855988 151.003884 
L 543.585234 153.085243 
L 544.332375 155.166602 
L 545.085718 157.247961 
L 545.843975 159.32932 
L 546.620516 161.41068 
L 547.444752 163.492039 
L 548.359211 165.573398 
L 549.411759 167.654757 
L 550.643715 169.736116 
L 552.076007 171.817475 
L 553.696596 173.898834 
L 555.452795 175.980193 
L 557.251498 178.061552 
L 558.96881 180.142911 
L 560.46831 182.22427 
L 561.624882 184.305629 
L 562.349224 186.386988 
L 562.607477 188.468347 
L 562.431101 190.549706 
L 561.914122 192.631065 
L 561.197645 194.712424 
L 560.444439 196.793783 
L 559.80863 198.875142 
L 559.406672 200.956501 
L 559.295448 203.03786 
L 559.461794 205.119219 
L 559.825333 207.200579 
L 560.253772 209.281938 
L 560.587389 211.363297 
L 560.667764 213.444656 
L 560.36523 215.526015 
L 559.600042 217.607374 
L 558.353799 219.688733 
L 556.669791 221.770092 
L 554.643179 223.851451 
L 552.403777 225.93281 
L 550.095308 228.014169 
L 547.855178 230.095528 
L 545.798082 232.176887 
L 544.005523 234.258246 
L 542.521837 236.339605 
L 541.356031 238.420964 
L 540.487884 240.502323 
L 539.876429 242.583682 
L 539.469016 244.665041 
L 539.209571 246.7464 
L 539.04521 248.827759 
L 538.930815 250.909118 
L 538.831594 252.990478 
L 538.723874 255.071837 
L 538.594508 257.153196 
L 538.4393 259.234555 
L 538.260874 261.315914 
L 538.066335 263.397273 
z
" clip-path="url(#p6990d1b2c8)" style="fill: #1f77b4; fill-opacity: 0.3"/>
   </g>
   <g id="matplotlib.axis_5">
    <g id="ytick_26">
     <g id="line2d_26">
      <g>
       <use xlink:href="#m2f2c2cdfc6" x="508.1645" y="238.164721" style="stroke: #000000; stroke-width: 0.8"/>
      </g>
     </g>
     <g id="text_34">
      <!-- 0.2 -->
      <g transform="translate(485.261375 241.96394)scale(0.1 -0.1)">
       <use xlink:href="#DejaVuSans-30"/>
       <use xlink:href="#DejaVuSans-2e" x="63.623047"/>
       <use xlink:href="#DejaVuSans-32" x="95.410156"/>
      </g>
     </g>
    </g>
    <g id="ytick_27">
     <g id="line2d_27">
      <g>
       <use xlink:href="#m2f2c2cdfc6" x="508.1645" y="193.408086" style="stroke: #000000; stroke-width: 0.8"/>
      </g>
     </g>
     <g id="text_35">
      <!-- 0.3 -->
      <g transform="translate(485.261375 197.207305)scale(0.1 -0.1)">
       <use xlink:href="#DejaVuSans-30"/>
       <use xlink:href="#DejaVuSans-2e" x="63.623047"/>
       <use xlink:href="#DejaVuSans-33" x="95.410156"/>
      </g>
     </g>
    </g>
    <g id="ytick_28">
     <g id="line2d_28">
      <g>
       <use xlink:href="#m2f2c2cdfc6" x="508.1645" y="148.651451" style="stroke: #000000; stroke-width: 0.8"/>
      </g>
     </g>
     <g id="text_36">
      <!-- 0.4 -->
      <g transform="translate(485.261375 152.450669)scale(0.1 -0.1)">
       <use xlink:href="#DejaVuSans-30"/>
       <use xlink:href="#DejaVuSans-2e" x="63.623047"/>
       <use xlink:href="#DejaVuSans-34" x="95.410156"/>
      </g>
     </g>
    </g>
    <g id="ytick_29">
     <g id="line2d_29">
      <g>
       <use xlink:href="#m2f2c2cdfc6" x="508.1645" y="103.894815" style="stroke: #000000; stroke-width: 0.8"/>
      </g>
     </g>
     <g id="text_37">
      <!-- 0.5 -->
      <g transform="translate(485.261375 107.694034)scale(0.1 -0.1)">
       <use xlink:href="#DejaVuSans-30"/>
       <use xlink:href="#DejaVuSans-2e" x="63.623047"/>
       <use xlink:href="#DejaVuSans-35" x="95.410156"/>
      </g>
     </g>
    </g>
    <g id="ytick_30">
     <g id="line2d_30">
      <g>
       <use xlink:href="#m2f2c2cdfc6" x="508.1645" y="59.13818" style="stroke: #000000; stroke-width: 0.8"/>
      </g>
     </g>
     <g id="text_38">
      <!-- 0.6 -->
      <g transform="translate(485.261375 62.937398)scale(0.1 -0.1)">
       <use xlink:href="#DejaVuSans-30"/>
       <use xlink:href="#DejaVuSans-2e" x="63.623047"/>
       <use xlink:href="#DejaVuSans-36" x="95.410156"/>
      </g>
     </g>
    </g>
    <g id="text_39">
     <!-- RMSD stepwise [$\AA$] -->
     <g transform="translate(479.161375 207.67)rotate(-90)scale(0.1 -0.1)">
      <defs>
       <path id="DejaVuSans-73" d="M 2834 3397 
L 2834 2853 
Q 2591 2978 2328 3040 
Q 2066 3103 1784 3103 
Q 1356 3103 1142 2972 
Q 928 2841 928 2578 
Q 928 2378 1081 2264 
Q 1234 2150 1697 2047 
L 1894 2003 
Q 2506 1872 2764 1633 
Q 3022 1394 3022 966 
Q 3022 478 2636 193 
Q 2250 -91 1575 -91 
Q 1294 -91 989 -36 
Q 684 19 347 128 
L 347 722 
Q 666 556 975 473 
Q 1284 391 1588 391 
Q 1994 391 2212 530 
Q 2431 669 2431 922 
Q 2431 1156 2273 1281 
Q 2116 1406 1581 1522 
L 1381 1569 
Q 847 1681 609 1914 
Q 372 2147 372 2553 
Q 372 3047 722 3315 
Q 1072 3584 1716 3584 
Q 2034 3584 2315 3537 
Q 2597 3491 2834 3397 
z
" transform="scale(0.015625)"/>
       <path id="DejaVuSans-74" d="M 1172 4494 
L 1172 3500 
L 2356 3500 
L 2356 3053 
L 1172 3053 
L 1172 1153 
Q 1172 725 1289 603 
Q 1406 481 1766 481 
L 2356 481 
L 2356 0 
L 1766 0 
Q 1100 0 847 248 
Q 594 497 594 1153 
L 594 3053 
L 172 3053 
L 172 3500 
L 594 3500 
L 594 4494 
L 1172 4494 
z
" transform="scale(0.015625)"/>
       <path id="DejaVuSans-70" d="M 1159 525 
L 1159 -1331 
L 581 -1331 
L 581 3500 
L 1159 3500 
L 1159 2969 
Q 1341 3281 1617 3432 
Q 1894 3584 2278 3584 
Q 2916 3584 3314 3078 
Q 3713 2572 3713 1747 
Q 3713 922 3314 415 
Q 2916 -91 2278 -91 
Q 1894 -91 1617 61 
Q 1341 213 1159 525 
z
M 3116 1747 
Q 3116 2381 2855 2742 
Q 2594 3103 2138 3103 
Q 1681 3103 1420 2742 
Q 1159 2381 1159 1747 
Q 1159 1113 1420 752 
Q 1681 391 2138 391 
Q 2594 391 2855 752 
Q 3116 1113 3116 1747 
z
" transform="scale(0.015625)"/>
       <path id="DejaVuSans-77" d="M 269 3500 
L 844 3500 
L 1563 769 
L 2278 3500 
L 2956 3500 
L 3675 769 
L 4391 3500 
L 4966 3500 
L 4050 0 
L 3372 0 
L 2619 2869 
L 1863 0 
L 1184 0 
L 269 3500 
z
" transform="scale(0.015625)"/>
      </defs>
      <use xlink:href="#DejaVuSans-52" transform="translate(0 0.171875)"/>
      <use xlink:href="#DejaVuSans-4d" transform="translate(69.482422 0.171875)"/>
      <use xlink:href="#DejaVuSans-53" transform="translate(155.761719 0.171875)"/>
      <use xlink:href="#DejaVuSans-44" transform="translate(219.238281 0.171875)"/>
      <use xlink:href="#DejaVuSans-20" transform="translate(296.240234 0.171875)"/>
      <use xlink:href="#DejaVuSans-73" transform="translate(328.027344 0.171875)"/>
      <use xlink:href="#DejaVuSans-74" transform="translate(380.126953 0.171875)"/>
      <use xlink:href="#DejaVuSans-65" transform="translate(419.335938 0.171875)"/>
      <use xlink:href="#DejaVuSans-70" transform="translate(480.859375 0.171875)"/>
      <use xlink:href="#DejaVuSans-77" transform="translate(544.335938 0.171875)"/>
      <use xlink:href="#DejaVuSans-69" transform="translate(626.123047 0.171875)"/>
      <use xlink:href="#DejaVuSans-73" transform="translate(653.90625 0.171875)"/>
      <use xlink:href="#DejaVuSans-65" transform="translate(706.005859 0.171875)"/>
      <use xlink:href="#DejaVuSans-20" transform="translate(767.529297 0.171875)"/>
      <use xlink:href="#DejaVuSans-5b" transform="translate(799.316406 0.171875)"/>
      <use xlink:href="#DejaVuSans-Oblique-c5" transform="translate(838.330078 0.171875)"/>
      <use xlink:href="#DejaVuSans-5d" transform="translate(906.738281 0.171875)"/>
     </g>
    </g>
   </g>
   <g id="LineCollection_17">
    <path d="M 523.719636 187.07831 
L 549.644864 187.07831 
" clip-path="url(#p6990d1b2c8)" style="fill: none; stroke: #1f77b4; stroke-width: 1.5"/>
   </g>
   <g id="LineCollection_18">
    <path d="M 523.719636 57.342727 
L 549.644864 57.342727 
" clip-path="url(#p6990d1b2c8)" style="fill: none; stroke: #1f77b4; stroke-width: 1.5"/>
   </g>
   <g id="LineCollection_19">
    <path d="M 523.719636 263.397273 
L 549.644864 263.397273 
" clip-path="url(#p6990d1b2c8)" style="fill: none; stroke: #1f77b4; stroke-width: 1.5"/>
   </g>
   <g id="LineCollection_20">
    <path d="M 536.68225 263.397273 
L 536.68225 57.342727 
" clip-path="url(#p6990d1b2c8)" style="fill: none; stroke: #1f77b4; stroke-width: 1.5"/>
   </g>
   <g id="patch_23">
    <path d="M 508.1645 273.7 
L 508.1645 47.04 
" style="fill: none; stroke: #000000; stroke-width: 0.8; stroke-linejoin: miter; stroke-linecap: square"/>
   </g>
   <g id="patch_24">
    <path d="M 565.2 273.7 
L 565.2 47.04 
" style="fill: none; stroke: #000000; stroke-width: 0.8; stroke-linejoin: miter; stroke-linecap: square"/>
   </g>
   <g id="patch_25">
    <path d="M 508.1645 273.7 
L 565.2 273.7 
" style="fill: none; stroke: #000000; stroke-width: 0.8; stroke-linejoin: miter; stroke-linecap: square"/>
   </g>
   <g id="patch_26">
    <path d="M 508.1645 47.04 
L 565.2 47.04 
" style="fill: none; stroke: #000000; stroke-width: 0.8; stroke-linejoin: miter; stroke-linecap: square"/>
   </g>
   <g id="text_40">
    <!-- RMSD stepwise -->
    <g transform="translate(490.630375 41.04)scale(0.12 -0.12)">
     <use xlink:href="#DejaVuSans-52"/>
     <use xlink:href="#DejaVuSans-4d" x="69.482422"/>
     <use xlink:href="#DejaVuSans-53" x="155.761719"/>
     <use xlink:href="#DejaVuSans-44" x="219.238281"/>
     <use xlink:href="#DejaVuSans-20" x="296.240234"/>
     <use xlink:href="#DejaVuSans-73" x="328.027344"/>
     <use xlink:href="#DejaVuSans-74" x="380.126953"/>
     <use xlink:href="#DejaVuSans-65" x="419.335938"/>
     <use xlink:href="#DejaVuSans-70" x="480.859375"/>
     <use xlink:href="#DejaVuSans-77" x="544.335938"/>
     <use xlink:href="#DejaVuSans-69" x="626.123047"/>
     <use xlink:href="#DejaVuSans-73" x="653.90625"/>
     <use xlink:href="#DejaVuSans-65" x="706.005859"/>
    </g>
   </g>
  </g>
  <g id="text_41">
   <!-- Compound 38. Rdkit -->
   <g transform="translate(226.573125 14.878125)scale(0.12 -0.12)">
    <defs>
     <path id="DejaVuSans-43" d="M 4122 4306 
L 4122 3641 
Q 3803 3938 3442 4084 
Q 3081 4231 2675 4231 
Q 1875 4231 1450 3742 
Q 1025 3253 1025 2328 
Q 1025 1406 1450 917 
Q 1875 428 2675 428 
Q 3081 428 3442 575 
Q 3803 722 4122 1019 
L 4122 359 
Q 3791 134 3420 21 
Q 3050 -91 2638 -91 
Q 1578 -91 968 557 
Q 359 1206 359 2328 
Q 359 3453 968 4101 
Q 1578 4750 2638 4750 
Q 3056 4750 3426 4639 
Q 3797 4528 4122 4306 
z
" transform="scale(0.015625)"/>
     <path id="DejaVuSans-6f" d="M 1959 3097 
Q 1497 3097 1228 2736 
Q 959 2375 959 1747 
Q 959 1119 1226 758 
Q 1494 397 1959 397 
Q 2419 397 2687 759 
Q 2956 1122 2956 1747 
Q 2956 2369 2687 2733 
Q 2419 3097 1959 3097 
z
M 1959 3584 
Q 2709 3584 3137 3096 
Q 3566 2609 3566 1747 
Q 3566 888 3137 398 
Q 2709 -91 1959 -91 
Q 1206 -91 779 398 
Q 353 888 353 1747 
Q 353 2609 779 3096 
Q 1206 3584 1959 3584 
z
" transform="scale(0.015625)"/>
     <path id="DejaVuSans-6d" d="M 3328 2828 
Q 3544 3216 3844 3400 
Q 4144 3584 4550 3584 
Q 5097 3584 5394 3201 
Q 5691 2819 5691 2113 
L 5691 0 
L 5113 0 
L 5113 2094 
Q 5113 2597 4934 2840 
Q 4756 3084 4391 3084 
Q 3944 3084 3684 2787 
Q 3425 2491 3425 1978 
L 3425 0 
L 2847 0 
L 2847 2094 
Q 2847 2600 2669 2842 
Q 2491 3084 2119 3084 
Q 1678 3084 1418 2786 
Q 1159 2488 1159 1978 
L 1159 0 
L 581 0 
L 581 3500 
L 1159 3500 
L 1159 2956 
Q 1356 3278 1631 3431 
Q 1906 3584 2284 3584 
Q 2666 3584 2933 3390 
Q 3200 3197 3328 2828 
z
" transform="scale(0.015625)"/>
     <path id="DejaVuSans-6e" d="M 3513 2113 
L 3513 0 
L 2938 0 
L 2938 2094 
Q 2938 2591 2744 2837 
Q 2550 3084 2163 3084 
Q 1697 3084 1428 2787 
Q 1159 2491 1159 1978 
L 1159 0 
L 581 0 
L 581 3500 
L 1159 3500 
L 1159 2956 
Q 1366 3272 1645 3428 
Q 1925 3584 2291 3584 
Q 2894 3584 3203 3211 
Q 3513 2838 3513 2113 
z
" transform="scale(0.015625)"/>
     <path id="DejaVuSans-6b" d="M 581 4863 
L 1159 4863 
L 1159 1991 
L 2875 3500 
L 3609 3500 
L 1753 1863 
L 3688 0 
L 2938 0 
L 1159 1709 
L 1159 0 
L 581 0 
L 581 4863 
z
" transform="scale(0.015625)"/>
    </defs>
    <use xlink:href="#DejaVuSans-43"/>
    <use xlink:href="#DejaVuSans-6f" x="69.824219"/>
    <use xlink:href="#DejaVuSans-6d" x="131.005859"/>
    <use xlink:href="#DejaVuSans-70" x="228.417969"/>
    <use xlink:href="#DejaVuSans-6f" x="291.894531"/>
    <use xlink:href="#DejaVuSans-75" x="353.076172"/>
    <use xlink:href="#DejaVuSans-6e" x="416.455078"/>
    <use xlink:href="#DejaVuSans-64" x="479.833984"/>
    <use xlink:href="#DejaVuSans-20" x="543.310547"/>
    <use xlink:href="#DejaVuSans-33" x="575.097656"/>
    <use xlink:href="#DejaVuSans-38" x="638.720703"/>
    <use xlink:href="#DejaVuSans-2e" x="702.34375"/>
    <use xlink:href="#DejaVuSans-20" x="734.130859"/>
    <use xlink:href="#DejaVuSans-52" x="765.917969"/>
    <use xlink:href="#DejaVuSans-64" x="835.400391"/>
    <use xlink:href="#DejaVuSans-6b" x="898.876953"/>
    <use xlink:href="#DejaVuSans-69" x="956.787109"/>
    <use xlink:href="#DejaVuSans-74" x="984.570312"/>
   </g>
  </g>
 </g>
 <defs>
  <clipPath id="p1e1136c9b3">
   <rect x="50.8925" y="47.04" width="57.0355" height="226.66"/>
  </clipPath>
  <clipPath id="p3b9e08e361">
   <rect x="165.2105" y="47.04" width="57.0355" height="226.66"/>
  </clipPath>
  <clipPath id="pba5412df8c">
   <rect x="279.5285" y="47.04" width="57.0355" height="226.66"/>
  </clipPath>
  <clipPath id="p7bc3a7ad8f">
   <rect x="393.8465" y="47.04" width="57.0355" height="226.66"/>
  </clipPath>
  <clipPath id="p6990d1b2c8">
   <rect x="508.1645" y="47.04" width="57.0355" height="226.66"/>
  </clipPath>
 </defs>
</svg>
