<?xml version="1.0" encoding="utf-8" standalone="no"?>
<!DOCTYPE svg PUBLIC "-//W3C//DTD SVG 1.1//EN"
  "http://www.w3.org/Graphics/SVG/1.1/DTD/svg11.dtd">
<svg xmlns:xlink="http://www.w3.org/1999/xlink" width="576pt" height="288pt" viewBox="0 0 576 288" xmlns="http://www.w3.org/2000/svg" version="1.1">
 <metadata>
  <rdf:RDF xmlns:dc="http://purl.org/dc/elements/1.1/" xmlns:cc="http://creativecommons.org/ns#" xmlns:rdf="http://www.w3.org/1999/02/22-rdf-syntax-ns#">
   <cc:Work>
    <dc:type rdf:resource="http://purl.org/dc/dcmitype/StillImage"/>
    <dc:date>2023-05-31T12:25:44.278007</dc:date>
    <dc:format>image/svg+xml</dc:format>
    <dc:creator>
     <cc:Agent>
      <dc:title>Matplotlib v3.5.3, https://matplotlib.org/</dc:title>
     </cc:Agent>
    </dc:creator>
   </cc:Work>
  </rdf:RDF>
 </metadata>
 <defs>
  <style type="text/css">*{stroke-linejoin: round; stroke-linecap: butt}</style>
 </defs>
 <g id="figure_1">
  <g id="patch_1">
   <path d="M 0 288 
L 576 288 
L 576 0 
L 0 0 
z
" style="fill: #ffffff"/>
  </g>
  <g id="axes_1">
   <g id="patch_2">
    <path d="M 57.2825 273.7 
L 112.05 273.7 
L 112.05 47.04 
L 57.2825 47.04 
z
" style="fill: #ffffff"/>
   </g>
   <g id="PolyCollection_1">
    <path d="M 85.990493 263.397273 
L 83.342007 263.397273 
L 83.129793 261.315914 
L 82.925682 259.234555 
L 82.734641 257.153196 
L 82.557158 255.071837 
L 82.388086 252.990478 
L 82.216337 250.909118 
L 82.025559 248.827759 
L 81.7957 246.7464 
L 81.505212 244.665041 
L 81.13353 242.583682 
L 80.663455 240.502323 
L 80.083117 238.420964 
L 79.38729 236.339605 
L 78.577937 234.258246 
L 77.66395 232.176887 
L 76.660166 230.095528 
L 75.585805 228.014169 
L 74.462584 225.93281 
L 73.312766 223.851451 
L 72.157438 221.770092 
L 71.015235 219.688733 
L 69.901619 217.607374 
L 68.828727 215.526015 
L 67.805678 213.444656 
L 66.839155 211.363297 
L 65.934067 209.281938 
L 65.094123 207.200579 
L 64.322195 205.119219 
L 63.620465 203.03786 
L 62.990403 200.956501 
L 62.432649 198.875142 
L 61.946891 196.793783 
L 61.531734 194.712424 
L 61.184521 192.631065 
L 60.901041 190.549706 
L 60.675149 188.468347 
L 60.49844 186.386988 
L 60.360288 184.305629 
L 60.248579 182.22427 
L 60.151339 180.142911 
L 60.05914 178.061552 
L 59.967787 175.980193 
L 59.880516 173.898834 
L 59.808891 171.817475 
L 59.771932 169.736116 
L 59.793477 167.654757 
L 59.898402 165.573398 
L 60.108632 163.492039 
L 60.439933 161.41068 
L 60.900139 159.32932 
L 61.489 157.247961 
L 62.199318 155.166602 
L 63.01877 153.085243 
L 63.93179 151.003884 
L 64.921035 148.922525 
L 65.96827 146.841166 
L 67.054747 144.759807 
L 68.161294 142.678448 
L 69.268391 140.597089 
L 70.356451 138.51573 
L 71.406431 136.434371 
L 72.400806 134.353012 
L 73.324822 132.271653 
L 74.167836 130.190294 
L 74.924469 128.108935 
L 75.595274 126.027576 
L 76.186648 123.946217 
L 76.709907 121.864858 
L 77.179612 119.783499 
L 77.611445 117.70214 
L 78.020095 115.620781 
L 78.417542 113.539421 
L 78.812071 111.458062 
L 79.208095 109.376703 
L 79.606666 107.295344 
L 80.006418 105.213985 
L 80.404614 103.132626 
L 80.798049 101.051267 
L 81.183624 98.969908 
L 81.558574 96.888549 
L 81.920386 94.80719 
L 82.26655 92.725831 
L 82.594271 90.644472 
L 82.900278 88.563113 
L 83.180829 86.481754 
L 83.431957 84.400395 
L 83.64993 82.319036 
L 83.83185 80.237677 
L 83.976271 78.156318 
L 84.083685 76.074959 
L 84.15677 73.9936 
L 84.200323 71.912241 
L 84.220859 69.830882 
L 84.225944 67.749522 
L 84.223363 65.668163 
L 84.220256 63.586804 
L 84.222372 61.505445 
L 84.233552 59.424086 
L 84.255512 57.342727 
L 85.076988 57.342727 
L 85.076988 57.342727 
L 85.098948 59.424086 
L 85.110128 61.505445 
L 85.112244 63.586804 
L 85.109137 65.668163 
L 85.106556 67.749522 
L 85.111641 69.830882 
L 85.132177 71.912241 
L 85.17573 73.9936 
L 85.248815 76.074959 
L 85.356229 78.156318 
L 85.50065 80.237677 
L 85.68257 82.319036 
L 85.900543 84.400395 
L 86.151671 86.481754 
L 86.432222 88.563113 
L 86.738229 90.644472 
L 87.06595 92.725831 
L 87.412114 94.80719 
L 87.773926 96.888549 
L 88.148876 98.969908 
L 88.534451 101.051267 
L 88.927886 103.132626 
L 89.326082 105.213985 
L 89.725834 107.295344 
L 90.124405 109.376703 
L 90.520429 111.458062 
L 90.914958 113.539421 
L 91.312405 115.620781 
L 91.721055 117.70214 
L 92.152888 119.783499 
L 92.622593 121.864858 
L 93.145852 123.946217 
L 93.737226 126.027576 
L 94.408031 128.108935 
L 95.164664 130.190294 
L 96.007678 132.271653 
L 96.931694 134.353012 
L 97.926069 136.434371 
L 98.976049 138.51573 
L 100.064109 140.597089 
L 101.171206 142.678448 
L 102.277753 144.759807 
L 103.36423 146.841166 
L 104.411465 148.922525 
L 105.40071 151.003884 
L 106.31373 153.085243 
L 107.133182 155.166602 
L 107.8435 157.247961 
L 108.432361 159.32932 
L 108.892567 161.41068 
L 109.223868 163.492039 
L 109.434098 165.573398 
L 109.539023 167.654757 
L 109.560568 169.736116 
L 109.523609 171.817475 
L 109.451984 173.898834 
L 109.364713 175.980193 
L 109.27336 178.061552 
L 109.181161 180.142911 
L 109.083921 182.22427 
L 108.972212 184.305629 
L 108.83406 186.386988 
L 108.657351 188.468347 
L 108.431459 190.549706 
L 108.147979 192.631065 
L 107.800766 194.712424 
L 107.385609 196.793783 
L 106.899851 198.875142 
L 106.342097 200.956501 
L 105.712035 203.03786 
L 105.010305 205.119219 
L 104.238377 207.200579 
L 103.398433 209.281938 
L 102.493345 211.363297 
L 101.526822 213.444656 
L 100.503773 215.526015 
L 99.430881 217.607374 
L 98.317265 219.688733 
L 97.175062 221.770092 
L 96.019734 223.851451 
L 94.869916 225.93281 
L 93.746695 228.014169 
L 92.672334 230.095528 
L 91.66855 232.176887 
L 90.754563 234.258246 
L 89.94521 236.339605 
L 89.249383 238.420964 
L 88.669045 240.502323 
L 88.19897 242.583682 
L 87.827288 244.665041 
L 87.5368 246.7464 
L 87.306941 248.827759 
L 87.116163 250.909118 
L 86.944414 252.990478 
L 86.775342 255.071837 
L 86.597859 257.153196 
L 86.406818 259.234555 
L 86.202707 261.315914 
L 85.990493 263.397273 
z
" clip-path="url(#p8bc4c4af5d)" style="fill: #1f77b4; fill-opacity: 0.3"/>
   </g>
   <g id="matplotlib.axis_1">
    <g id="ytick_1">
     <g id="line2d_1">
      <defs>
       <path id="m163e5d39b2" d="M 0 0 
L -3.5 0 
" style="stroke: #000000; stroke-width: 0.8"/>
      </defs>
      <g>
       <use xlink:href="#m163e5d39b2" x="57.2825" y="249.471458" style="stroke: #000000; stroke-width: 0.8"/>
      </g>
     </g>
     <g id="text_1">
      <!-- 1.25 -->
      <g transform="translate(28.016875 253.270676)scale(0.1 -0.1)">
       <defs>
        <path id="DejaVuSans-31" d="M 794 531 
L 1825 531 
L 1825 4091 
L 703 3866 
L 703 4441 
L 1819 4666 
L 2450 4666 
L 2450 531 
L 3481 531 
L 3481 0 
L 794 0 
L 794 531 
z
" transform="scale(0.015625)"/>
        <path id="DejaVuSans-2e" d="M 684 794 
L 1344 794 
L 1344 0 
L 684 0 
L 684 794 
z
" transform="scale(0.015625)"/>
        <path id="DejaVuSans-32" d="M 1228 531 
L 3431 531 
L 3431 0 
L 469 0 
L 469 531 
Q 828 903 1448 1529 
Q 2069 2156 2228 2338 
Q 2531 2678 2651 2914 
Q 2772 3150 2772 3378 
Q 2772 3750 2511 3984 
Q 2250 4219 1831 4219 
Q 1534 4219 1204 4116 
Q 875 4013 500 3803 
L 500 4441 
Q 881 4594 1212 4672 
Q 1544 4750 1819 4750 
Q 2544 4750 2975 4387 
Q 3406 4025 3406 3419 
Q 3406 3131 3298 2873 
Q 3191 2616 2906 2266 
Q 2828 2175 2409 1742 
Q 1991 1309 1228 531 
z
" transform="scale(0.015625)"/>
        <path id="DejaVuSans-35" d="M 691 4666 
L 3169 4666 
L 3169 4134 
L 1269 4134 
L 1269 2991 
Q 1406 3038 1543 3061 
Q 1681 3084 1819 3084 
Q 2600 3084 3056 2656 
Q 3513 2228 3513 1497 
Q 3513 744 3044 326 
Q 2575 -91 1722 -91 
Q 1428 -91 1123 -41 
Q 819 9 494 109 
L 494 744 
Q 775 591 1075 516 
Q 1375 441 1709 441 
Q 2250 441 2565 725 
Q 2881 1009 2881 1497 
Q 2881 1984 2565 2268 
Q 2250 2553 1709 2553 
Q 1456 2553 1204 2497 
Q 953 2441 691 2322 
L 691 4666 
z
" transform="scale(0.015625)"/>
       </defs>
       <use xlink:href="#DejaVuSans-31"/>
       <use xlink:href="#DejaVuSans-2e" x="63.623047"/>
       <use xlink:href="#DejaVuSans-32" x="95.410156"/>
       <use xlink:href="#DejaVuSans-35" x="159.033203"/>
      </g>
     </g>
    </g>
    <g id="ytick_2">
     <g id="line2d_2">
      <g>
       <use xlink:href="#m163e5d39b2" x="57.2825" y="219.486349" style="stroke: #000000; stroke-width: 0.8"/>
      </g>
     </g>
     <g id="text_2">
      <!-- 1.50 -->
      <g transform="translate(28.016875 223.285568)scale(0.1 -0.1)">
       <defs>
        <path id="DejaVuSans-30" d="M 2034 4250 
Q 1547 4250 1301 3770 
Q 1056 3291 1056 2328 
Q 1056 1369 1301 889 
Q 1547 409 2034 409 
Q 2525 409 2770 889 
Q 3016 1369 3016 2328 
Q 3016 3291 2770 3770 
Q 2525 4250 2034 4250 
z
M 2034 4750 
Q 2819 4750 3233 4129 
Q 3647 3509 3647 2328 
Q 3647 1150 3233 529 
Q 2819 -91 2034 -91 
Q 1250 -91 836 529 
Q 422 1150 422 2328 
Q 422 3509 836 4129 
Q 1250 4750 2034 4750 
z
" transform="scale(0.015625)"/>
       </defs>
       <use xlink:href="#DejaVuSans-31"/>
       <use xlink:href="#DejaVuSans-2e" x="63.623047"/>
       <use xlink:href="#DejaVuSans-35" x="95.410156"/>
       <use xlink:href="#DejaVuSans-30" x="159.033203"/>
      </g>
     </g>
    </g>
    <g id="ytick_3">
     <g id="line2d_3">
      <g>
       <use xlink:href="#m163e5d39b2" x="57.2825" y="189.50124" style="stroke: #000000; stroke-width: 0.8"/>
      </g>
     </g>
     <g id="text_3">
      <!-- 1.75 -->
      <g transform="translate(28.016875 193.300459)scale(0.1 -0.1)">
       <defs>
        <path id="DejaVuSans-37" d="M 525 4666 
L 3525 4666 
L 3525 4397 
L 1831 0 
L 1172 0 
L 2766 4134 
L 525 4134 
L 525 4666 
z
" transform="scale(0.015625)"/>
       </defs>
       <use xlink:href="#DejaVuSans-31"/>
       <use xlink:href="#DejaVuSans-2e" x="63.623047"/>
       <use xlink:href="#DejaVuSans-37" x="95.410156"/>
       <use xlink:href="#DejaVuSans-35" x="159.033203"/>
      </g>
     </g>
    </g>
    <g id="ytick_4">
     <g id="line2d_4">
      <g>
       <use xlink:href="#m163e5d39b2" x="57.2825" y="159.516131" style="stroke: #000000; stroke-width: 0.8"/>
      </g>
     </g>
     <g id="text_4">
      <!-- 2.00 -->
      <g transform="translate(28.016875 163.31535)scale(0.1 -0.1)">
       <use xlink:href="#DejaVuSans-32"/>
       <use xlink:href="#DejaVuSans-2e" x="63.623047"/>
       <use xlink:href="#DejaVuSans-30" x="95.410156"/>
       <use xlink:href="#DejaVuSans-30" x="159.033203"/>
      </g>
     </g>
    </g>
    <g id="ytick_5">
     <g id="line2d_5">
      <g>
       <use xlink:href="#m163e5d39b2" x="57.2825" y="129.531023" style="stroke: #000000; stroke-width: 0.8"/>
      </g>
     </g>
     <g id="text_5">
      <!-- 2.25 -->
      <g transform="translate(28.016875 133.330241)scale(0.1 -0.1)">
       <use xlink:href="#DejaVuSans-32"/>
       <use xlink:href="#DejaVuSans-2e" x="63.623047"/>
       <use xlink:href="#DejaVuSans-32" x="95.410156"/>
       <use xlink:href="#DejaVuSans-35" x="159.033203"/>
      </g>
     </g>
    </g>
    <g id="ytick_6">
     <g id="line2d_6">
      <g>
       <use xlink:href="#m163e5d39b2" x="57.2825" y="99.545914" style="stroke: #000000; stroke-width: 0.8"/>
      </g>
     </g>
     <g id="text_6">
      <!-- 2.50 -->
      <g transform="translate(28.016875 103.345133)scale(0.1 -0.1)">
       <use xlink:href="#DejaVuSans-32"/>
       <use xlink:href="#DejaVuSans-2e" x="63.623047"/>
       <use xlink:href="#DejaVuSans-35" x="95.410156"/>
       <use xlink:href="#DejaVuSans-30" x="159.033203"/>
      </g>
     </g>
    </g>
    <g id="ytick_7">
     <g id="line2d_7">
      <g>
       <use xlink:href="#m163e5d39b2" x="57.2825" y="69.560805" style="stroke: #000000; stroke-width: 0.8"/>
      </g>
     </g>
     <g id="text_7">
      <!-- 2.75 -->
      <g transform="translate(28.016875 73.360024)scale(0.1 -0.1)">
       <use xlink:href="#DejaVuSans-32"/>
       <use xlink:href="#DejaVuSans-2e" x="63.623047"/>
       <use xlink:href="#DejaVuSans-37" x="95.410156"/>
       <use xlink:href="#DejaVuSans-35" x="159.033203"/>
      </g>
     </g>
    </g>
    <g id="text_8">
     <!-- RMSD [$\AA$] -->
     <g transform="translate(21.937187 184.12)rotate(-90)scale(0.1 -0.1)">
      <defs>
       <path id="DejaVuSans-52" d="M 2841 2188 
Q 3044 2119 3236 1894 
Q 3428 1669 3622 1275 
L 4263 0 
L 3584 0 
L 2988 1197 
Q 2756 1666 2539 1819 
Q 2322 1972 1947 1972 
L 1259 1972 
L 1259 0 
L 628 0 
L 628 4666 
L 2053 4666 
Q 2853 4666 3247 4331 
Q 3641 3997 3641 3322 
Q 3641 2881 3436 2590 
Q 3231 2300 2841 2188 
z
M 1259 4147 
L 1259 2491 
L 2053 2491 
Q 2509 2491 2742 2702 
Q 2975 2913 2975 3322 
Q 2975 3731 2742 3939 
Q 2509 4147 2053 4147 
L 1259 4147 
z
" transform="scale(0.015625)"/>
       <path id="DejaVuSans-4d" d="M 628 4666 
L 1569 4666 
L 2759 1491 
L 3956 4666 
L 4897 4666 
L 4897 0 
L 4281 0 
L 4281 4097 
L 3078 897 
L 2444 897 
L 1241 4097 
L 1241 0 
L 628 0 
L 628 4666 
z
" transform="scale(0.015625)"/>
       <path id="DejaVuSans-53" d="M 3425 4513 
L 3425 3897 
Q 3066 4069 2747 4153 
Q 2428 4238 2131 4238 
Q 1616 4238 1336 4038 
Q 1056 3838 1056 3469 
Q 1056 3159 1242 3001 
Q 1428 2844 1947 2747 
L 2328 2669 
Q 3034 2534 3370 2195 
Q 3706 1856 3706 1288 
Q 3706 609 3251 259 
Q 2797 -91 1919 -91 
Q 1588 -91 1214 -16 
Q 841 59 441 206 
L 441 856 
Q 825 641 1194 531 
Q 1563 422 1919 422 
Q 2459 422 2753 634 
Q 3047 847 3047 1241 
Q 3047 1584 2836 1778 
Q 2625 1972 2144 2069 
L 1759 2144 
Q 1053 2284 737 2584 
Q 422 2884 422 3419 
Q 422 4038 858 4394 
Q 1294 4750 2059 4750 
Q 2388 4750 2728 4690 
Q 3069 4631 3425 4513 
z
" transform="scale(0.015625)"/>
       <path id="DejaVuSans-44" d="M 1259 4147 
L 1259 519 
L 2022 519 
Q 2988 519 3436 956 
Q 3884 1394 3884 2338 
Q 3884 3275 3436 3711 
Q 2988 4147 2022 4147 
L 1259 4147 
z
M 628 4666 
L 1925 4666 
Q 3281 4666 3915 4102 
Q 4550 3538 4550 2338 
Q 4550 1131 3912 565 
Q 3275 0 1925 0 
L 628 0 
L 628 4666 
z
" transform="scale(0.015625)"/>
       <path id="DejaVuSans-20" transform="scale(0.015625)"/>
       <path id="DejaVuSans-5b" d="M 550 4863 
L 1875 4863 
L 1875 4416 
L 1125 4416 
L 1125 -397 
L 1875 -397 
L 1875 -844 
L 550 -844 
L 550 4863 
z
" transform="scale(0.015625)"/>
       <path id="DejaVuSans-Oblique-c5" d="M 3188 5081 
Q 3188 5278 3048 5417 
Q 2909 5556 2713 5556 
Q 2513 5556 2377 5420 
Q 2241 5284 2241 5081 
Q 2241 4884 2377 4746 
Q 2513 4609 2713 4609 
Q 2909 4609 3048 4746 
Q 3188 4884 3188 5081 
z
M 2203 4397 
Q 2034 4513 1945 4689 
Q 1856 4866 1856 5081 
Q 1856 5438 2106 5689 
Q 2356 5941 2713 5941 
Q 3069 5941 3320 5689 
Q 3572 5438 3572 5081 
Q 3572 4834 3458 4643 
Q 3344 4453 3128 4341 
L 3938 0 
L 3278 0 
L 3084 1197 
L 984 1197 
L 325 0 
L -341 0 
L 2203 4397 
z
M 2584 4044 
L 1275 1722 
L 2988 1722 
L 2584 4044 
z
" transform="scale(0.015625)"/>
       <path id="DejaVuSans-5d" d="M 1947 4863 
L 1947 -844 
L 622 -844 
L 622 -397 
L 1369 -397 
L 1369 4416 
L 622 4416 
L 622 4863 
L 1947 4863 
z
" transform="scale(0.015625)"/>
      </defs>
      <use xlink:href="#DejaVuSans-52" transform="translate(0 0.171875)"/>
      <use xlink:href="#DejaVuSans-4d" transform="translate(69.482422 0.171875)"/>
      <use xlink:href="#DejaVuSans-53" transform="translate(155.761719 0.171875)"/>
      <use xlink:href="#DejaVuSans-44" transform="translate(219.238281 0.171875)"/>
      <use xlink:href="#DejaVuSans-20" transform="translate(296.240234 0.171875)"/>
      <use xlink:href="#DejaVuSans-5b" transform="translate(328.027344 0.171875)"/>
      <use xlink:href="#DejaVuSans-Oblique-c5" transform="translate(367.041016 0.171875)"/>
      <use xlink:href="#DejaVuSans-5d" transform="translate(435.449219 0.171875)"/>
     </g>
    </g>
   </g>
   <g id="LineCollection_1">
    <path d="M 72.219091 174.911797 
L 97.113409 174.911797 
" clip-path="url(#p8bc4c4af5d)" style="fill: none; stroke: #1f77b4; stroke-width: 1.5"/>
   </g>
   <g id="LineCollection_2">
    <path d="M 72.219091 57.342727 
L 97.113409 57.342727 
" clip-path="url(#p8bc4c4af5d)" style="fill: none; stroke: #1f77b4; stroke-width: 1.5"/>
   </g>
   <g id="LineCollection_3">
    <path d="M 72.219091 263.397273 
L 97.113409 263.397273 
" clip-path="url(#p8bc4c4af5d)" style="fill: none; stroke: #1f77b4; stroke-width: 1.5"/>
   </g>
   <g id="LineCollection_4">
    <path d="M 84.66625 263.397273 
L 84.66625 57.342727 
" clip-path="url(#p8bc4c4af5d)" style="fill: none; stroke: #1f77b4; stroke-width: 1.5"/>
   </g>
   <g id="patch_3">
    <path d="M 57.2825 273.7 
L 57.2825 47.04 
" style="fill: none; stroke: #000000; stroke-width: 0.8; stroke-linejoin: miter; stroke-linecap: square"/>
   </g>
   <g id="patch_4">
    <path d="M 112.05 273.7 
L 112.05 47.04 
" style="fill: none; stroke: #000000; stroke-width: 0.8; stroke-linejoin: miter; stroke-linecap: square"/>
   </g>
   <g id="patch_5">
    <path d="M 57.2825 273.7 
L 112.05 273.7 
" style="fill: none; stroke: #000000; stroke-width: 0.8; stroke-linejoin: miter; stroke-linecap: square"/>
   </g>
   <g id="patch_6">
    <path d="M 57.2825 47.04 
L 112.05 47.04 
" style="fill: none; stroke: #000000; stroke-width: 0.8; stroke-linejoin: miter; stroke-linecap: square"/>
   </g>
   <g id="text_9">
    <!-- RMSD -->
    <g transform="translate(66.89125 41.04)scale(0.12 -0.12)">
     <use xlink:href="#DejaVuSans-52"/>
     <use xlink:href="#DejaVuSans-4d" x="69.482422"/>
     <use xlink:href="#DejaVuSans-53" x="155.761719"/>
     <use xlink:href="#DejaVuSans-44" x="219.238281"/>
    </g>
   </g>
  </g>
  <g id="axes_2">
   <g id="patch_7">
    <path d="M 170.57 273.7 
L 225.3375 273.7 
L 225.3375 47.04 
L 170.57 47.04 
z
" style="fill: #ffffff"/>
   </g>
   <g id="PolyCollection_2">
    <path d="M 198.925559 263.397273 
L 196.981941 263.397273 
L 196.853635 261.315914 
L 196.731709 259.234555 
L 196.615277 257.153196 
L 196.499415 255.071837 
L 196.374801 252.990478 
L 196.228108 250.909118 
L 196.043247 248.827759 
L 195.803382 246.7464 
L 195.493435 244.665041 
L 195.102618 242.583682 
L 194.626468 240.502323 
L 194.067889 238.420964 
L 193.436907 236.339605 
L 192.74907 234.258246 
L 192.022758 232.176887 
L 191.275883 230.095528 
L 190.522587 228.014169 
L 189.770568 225.93281 
L 189.019573 223.851451 
L 188.261364 221.770092 
L 187.481283 219.688733 
L 186.66124 217.607374 
L 185.783698 215.526015 
L 184.835972 213.444656 
L 183.814043 211.363297 
L 182.725042 209.281938 
L 181.587773 207.200579 
L 180.431005 205.119219 
L 179.289786 203.03786 
L 178.200491 200.956501 
L 177.195691 198.875142 
L 176.299958 196.793783 
L 175.527466 194.712424 
L 174.881758 192.631065 
L 174.35744 190.549706 
L 173.943136 188.468347 
L 173.62477 186.386988 
L 173.388364 184.305629 
L 173.221854 182.22427 
L 173.115813 180.142911 
L 173.06333 178.061552 
L 173.059432 175.980193 
L 173.100449 173.898834 
L 173.183534 171.817475 
L 173.306422 169.736116 
L 173.467368 167.654757 
L 173.665198 165.573398 
L 173.899429 163.492039 
L 174.170463 161.41068 
L 174.479851 159.32932 
L 174.830583 157.247961 
L 175.227263 155.166602 
L 175.676 153.085243 
L 176.183828 151.003884 
L 176.75763 148.922525 
L 177.402686 146.841166 
L 178.121152 144.759807 
L 178.910885 142.678448 
L 179.764952 140.597089 
L 180.672039 138.51573 
L 181.617683 136.434371 
L 182.586026 134.353012 
L 183.56164 132.271653 
L 184.530972 130.190294 
L 185.483116 128.108935 
L 186.409821 126.027576 
L 187.304905 123.946217 
L 188.163406 121.864858 
L 188.980806 119.783499 
L 189.752623 117.70214 
L 190.474474 115.620781 
L 191.142515 113.539421 
L 191.754059 111.458062 
L 192.308109 109.376703 
L 192.805615 107.295344 
L 193.249393 105.213985 
L 193.643785 103.132626 
L 193.994219 101.051267 
L 194.306811 98.969908 
L 194.588098 96.888549 
L 194.84483 94.80719 
L 195.083713 92.725831 
L 195.310975 90.644472 
L 195.531711 88.563113 
L 195.74912 86.481754 
L 195.963866 84.400395 
L 196.173813 82.319036 
L 196.374347 80.237677 
L 196.559318 78.156318 
L 196.722435 76.074959 
L 196.858814 73.9936 
L 196.966263 71.912241 
L 197.045995 69.830882 
L 197.102579 67.749522 
L 197.143135 65.668163 
L 197.176004 63.586804 
L 197.209207 61.505445 
L 197.249079 59.424086 
L 197.299341 57.342727 
L 198.608159 57.342727 
L 198.608159 57.342727 
L 198.658421 59.424086 
L 198.698293 61.505445 
L 198.731496 63.586804 
L 198.764365 65.668163 
L 198.804921 67.749522 
L 198.861505 69.830882 
L 198.941237 71.912241 
L 199.048686 73.9936 
L 199.185065 76.074959 
L 199.348182 78.156318 
L 199.533153 80.237677 
L 199.733687 82.319036 
L 199.943634 84.400395 
L 200.15838 86.481754 
L 200.375789 88.563113 
L 200.596525 90.644472 
L 200.823787 92.725831 
L 201.06267 94.80719 
L 201.319402 96.888549 
L 201.600689 98.969908 
L 201.913281 101.051267 
L 202.263715 103.132626 
L 202.658107 105.213985 
L 203.101885 107.295344 
L 203.599391 109.376703 
L 204.153441 111.458062 
L 204.764985 113.539421 
L 205.433026 115.620781 
L 206.154877 117.70214 
L 206.926694 119.783499 
L 207.744094 121.864858 
L 208.602595 123.946217 
L 209.497679 126.027576 
L 210.424384 128.108935 
L 211.376528 130.190294 
L 212.34586 132.271653 
L 213.321474 134.353012 
L 214.289817 136.434371 
L 215.235461 138.51573 
L 216.142548 140.597089 
L 216.996615 142.678448 
L 217.786348 144.759807 
L 218.504814 146.841166 
L 219.14987 148.922525 
L 219.723672 151.003884 
L 220.2315 153.085243 
L 220.680237 155.166602 
L 221.076917 157.247961 
L 221.427649 159.32932 
L 221.737037 161.41068 
L 222.008071 163.492039 
L 222.242302 165.573398 
L 222.440132 167.654757 
L 222.601078 169.736116 
L 222.723966 171.817475 
L 222.807051 173.898834 
L 222.848068 175.980193 
L 222.84417 178.061552 
L 222.791687 180.142911 
L 222.685646 182.22427 
L 222.519136 184.305629 
L 222.28273 186.386988 
L 221.964364 188.468347 
L 221.55006 190.549706 
L 221.025742 192.631065 
L 220.380034 194.712424 
L 219.607542 196.793783 
L 218.711809 198.875142 
L 217.707009 200.956501 
L 216.617714 203.03786 
L 215.476495 205.119219 
L 214.319727 207.200579 
L 213.182458 209.281938 
L 212.093457 211.363297 
L 211.071528 213.444656 
L 210.123802 215.526015 
L 209.24626 217.607374 
L 208.426217 219.688733 
L 207.646136 221.770092 
L 206.887927 223.851451 
L 206.136932 225.93281 
L 205.384913 228.014169 
L 204.631617 230.095528 
L 203.884742 232.176887 
L 203.15843 234.258246 
L 202.470593 236.339605 
L 201.839611 238.420964 
L 201.281032 240.502323 
L 200.804882 242.583682 
L 200.414065 244.665041 
L 200.104118 246.7464 
L 199.864253 248.827759 
L 199.679392 250.909118 
L 199.532699 252.990478 
L 199.408085 255.071837 
L 199.292223 257.153196 
L 199.175791 259.234555 
L 199.053865 261.315914 
L 198.925559 263.397273 
z
" clip-path="url(#p778cc23fe2)" style="fill: #1f77b4; fill-opacity: 0.3"/>
   </g>
   <g id="matplotlib.axis_2">
    <g id="ytick_8">
     <g id="line2d_8">
      <g>
       <use xlink:href="#m163e5d39b2" x="170.57" y="252.669488" style="stroke: #000000; stroke-width: 0.8"/>
      </g>
     </g>
     <g id="text_10">
      <!-- 0.8 -->
      <g transform="translate(147.666875 256.468707)scale(0.1 -0.1)">
       <defs>
        <path id="DejaVuSans-38" d="M 2034 2216 
Q 1584 2216 1326 1975 
Q 1069 1734 1069 1313 
Q 1069 891 1326 650 
Q 1584 409 2034 409 
Q 2484 409 2743 651 
Q 3003 894 3003 1313 
Q 3003 1734 2745 1975 
Q 2488 2216 2034 2216 
z
M 1403 2484 
Q 997 2584 770 2862 
Q 544 3141 544 3541 
Q 544 4100 942 4425 
Q 1341 4750 2034 4750 
Q 2731 4750 3128 4425 
Q 3525 4100 3525 3541 
Q 3525 3141 3298 2862 
Q 3072 2584 2669 2484 
Q 3125 2378 3379 2068 
Q 3634 1759 3634 1313 
Q 3634 634 3220 271 
Q 2806 -91 2034 -91 
Q 1263 -91 848 271 
Q 434 634 434 1313 
Q 434 1759 690 2068 
Q 947 2378 1403 2484 
z
M 1172 3481 
Q 1172 3119 1398 2916 
Q 1625 2713 2034 2713 
Q 2441 2713 2670 2916 
Q 2900 3119 2900 3481 
Q 2900 3844 2670 4047 
Q 2441 4250 2034 4250 
Q 1625 4250 1398 4047 
Q 1172 3844 1172 3481 
z
" transform="scale(0.015625)"/>
       </defs>
       <use xlink:href="#DejaVuSans-30"/>
       <use xlink:href="#DejaVuSans-2e" x="63.623047"/>
       <use xlink:href="#DejaVuSans-38" x="95.410156"/>
      </g>
     </g>
    </g>
    <g id="ytick_9">
     <g id="line2d_9">
      <g>
       <use xlink:href="#m163e5d39b2" x="170.57" y="227.393261" style="stroke: #000000; stroke-width: 0.8"/>
      </g>
     </g>
     <g id="text_11">
      <!-- 0.9 -->
      <g transform="translate(147.666875 231.192479)scale(0.1 -0.1)">
       <defs>
        <path id="DejaVuSans-39" d="M 703 97 
L 703 672 
Q 941 559 1184 500 
Q 1428 441 1663 441 
Q 2288 441 2617 861 
Q 2947 1281 2994 2138 
Q 2813 1869 2534 1725 
Q 2256 1581 1919 1581 
Q 1219 1581 811 2004 
Q 403 2428 403 3163 
Q 403 3881 828 4315 
Q 1253 4750 1959 4750 
Q 2769 4750 3195 4129 
Q 3622 3509 3622 2328 
Q 3622 1225 3098 567 
Q 2575 -91 1691 -91 
Q 1453 -91 1209 -44 
Q 966 3 703 97 
z
M 1959 2075 
Q 2384 2075 2632 2365 
Q 2881 2656 2881 3163 
Q 2881 3666 2632 3958 
Q 2384 4250 1959 4250 
Q 1534 4250 1286 3958 
Q 1038 3666 1038 3163 
Q 1038 2656 1286 2365 
Q 1534 2075 1959 2075 
z
" transform="scale(0.015625)"/>
       </defs>
       <use xlink:href="#DejaVuSans-30"/>
       <use xlink:href="#DejaVuSans-2e" x="63.623047"/>
       <use xlink:href="#DejaVuSans-39" x="95.410156"/>
      </g>
     </g>
    </g>
    <g id="ytick_10">
     <g id="line2d_10">
      <g>
       <use xlink:href="#m163e5d39b2" x="170.57" y="202.117033" style="stroke: #000000; stroke-width: 0.8"/>
      </g>
     </g>
     <g id="text_12">
      <!-- 1.0 -->
      <g transform="translate(147.666875 205.916252)scale(0.1 -0.1)">
       <use xlink:href="#DejaVuSans-31"/>
       <use xlink:href="#DejaVuSans-2e" x="63.623047"/>
       <use xlink:href="#DejaVuSans-30" x="95.410156"/>
      </g>
     </g>
    </g>
    <g id="ytick_11">
     <g id="line2d_11">
      <g>
       <use xlink:href="#m163e5d39b2" x="170.57" y="176.840805" style="stroke: #000000; stroke-width: 0.8"/>
      </g>
     </g>
     <g id="text_13">
      <!-- 1.1 -->
      <g transform="translate(147.666875 180.640024)scale(0.1 -0.1)">
       <use xlink:href="#DejaVuSans-31"/>
       <use xlink:href="#DejaVuSans-2e" x="63.623047"/>
       <use xlink:href="#DejaVuSans-31" x="95.410156"/>
      </g>
     </g>
    </g>
    <g id="ytick_12">
     <g id="line2d_12">
      <g>
       <use xlink:href="#m163e5d39b2" x="170.57" y="151.564577" style="stroke: #000000; stroke-width: 0.8"/>
      </g>
     </g>
     <g id="text_14">
      <!-- 1.2 -->
      <g transform="translate(147.666875 155.363796)scale(0.1 -0.1)">
       <use xlink:href="#DejaVuSans-31"/>
       <use xlink:href="#DejaVuSans-2e" x="63.623047"/>
       <use xlink:href="#DejaVuSans-32" x="95.410156"/>
      </g>
     </g>
    </g>
    <g id="ytick_13">
     <g id="line2d_13">
      <g>
       <use xlink:href="#m163e5d39b2" x="170.57" y="126.288349" style="stroke: #000000; stroke-width: 0.8"/>
      </g>
     </g>
     <g id="text_15">
      <!-- 1.3 -->
      <g transform="translate(147.666875 130.087568)scale(0.1 -0.1)">
       <defs>
        <path id="DejaVuSans-33" d="M 2597 2516 
Q 3050 2419 3304 2112 
Q 3559 1806 3559 1356 
Q 3559 666 3084 287 
Q 2609 -91 1734 -91 
Q 1441 -91 1130 -33 
Q 819 25 488 141 
L 488 750 
Q 750 597 1062 519 
Q 1375 441 1716 441 
Q 2309 441 2620 675 
Q 2931 909 2931 1356 
Q 2931 1769 2642 2001 
Q 2353 2234 1838 2234 
L 1294 2234 
L 1294 2753 
L 1863 2753 
Q 2328 2753 2575 2939 
Q 2822 3125 2822 3475 
Q 2822 3834 2567 4026 
Q 2313 4219 1838 4219 
Q 1578 4219 1281 4162 
Q 984 4106 628 3988 
L 628 4550 
Q 988 4650 1302 4700 
Q 1616 4750 1894 4750 
Q 2613 4750 3031 4423 
Q 3450 4097 3450 3541 
Q 3450 3153 3228 2886 
Q 3006 2619 2597 2516 
z
" transform="scale(0.015625)"/>
       </defs>
       <use xlink:href="#DejaVuSans-31"/>
       <use xlink:href="#DejaVuSans-2e" x="63.623047"/>
       <use xlink:href="#DejaVuSans-33" x="95.410156"/>
      </g>
     </g>
    </g>
    <g id="ytick_14">
     <g id="line2d_14">
      <g>
       <use xlink:href="#m163e5d39b2" x="170.57" y="101.012122" style="stroke: #000000; stroke-width: 0.8"/>
      </g>
     </g>
     <g id="text_16">
      <!-- 1.4 -->
      <g transform="translate(147.666875 104.81134)scale(0.1 -0.1)">
       <defs>
        <path id="DejaVuSans-34" d="M 2419 4116 
L 825 1625 
L 2419 1625 
L 2419 4116 
z
M 2253 4666 
L 3047 4666 
L 3047 1625 
L 3713 1625 
L 3713 1100 
L 3047 1100 
L 3047 0 
L 2419 0 
L 2419 1100 
L 313 1100 
L 313 1709 
L 2253 4666 
z
" transform="scale(0.015625)"/>
       </defs>
       <use xlink:href="#DejaVuSans-31"/>
       <use xlink:href="#DejaVuSans-2e" x="63.623047"/>
       <use xlink:href="#DejaVuSans-34" x="95.410156"/>
      </g>
     </g>
    </g>
    <g id="ytick_15">
     <g id="line2d_15">
      <g>
       <use xlink:href="#m163e5d39b2" x="170.57" y="75.735894" style="stroke: #000000; stroke-width: 0.8"/>
      </g>
     </g>
     <g id="text_17">
      <!-- 1.5 -->
      <g transform="translate(147.666875 79.535113)scale(0.1 -0.1)">
       <use xlink:href="#DejaVuSans-31"/>
       <use xlink:href="#DejaVuSans-2e" x="63.623047"/>
       <use xlink:href="#DejaVuSans-35" x="95.410156"/>
      </g>
     </g>
    </g>
    <g id="ytick_16">
     <g id="line2d_16">
      <g>
       <use xlink:href="#m163e5d39b2" x="170.57" y="50.459666" style="stroke: #000000; stroke-width: 0.8"/>
      </g>
     </g>
     <g id="text_18">
      <!-- 1.6 -->
      <g transform="translate(147.666875 54.258885)scale(0.1 -0.1)">
       <defs>
        <path id="DejaVuSans-36" d="M 2113 2584 
Q 1688 2584 1439 2293 
Q 1191 2003 1191 1497 
Q 1191 994 1439 701 
Q 1688 409 2113 409 
Q 2538 409 2786 701 
Q 3034 994 3034 1497 
Q 3034 2003 2786 2293 
Q 2538 2584 2113 2584 
z
M 3366 4563 
L 3366 3988 
Q 3128 4100 2886 4159 
Q 2644 4219 2406 4219 
Q 1781 4219 1451 3797 
Q 1122 3375 1075 2522 
Q 1259 2794 1537 2939 
Q 1816 3084 2150 3084 
Q 2853 3084 3261 2657 
Q 3669 2231 3669 1497 
Q 3669 778 3244 343 
Q 2819 -91 2113 -91 
Q 1303 -91 875 529 
Q 447 1150 447 2328 
Q 447 3434 972 4092 
Q 1497 4750 2381 4750 
Q 2619 4750 2861 4703 
Q 3103 4656 3366 4563 
z
" transform="scale(0.015625)"/>
       </defs>
       <use xlink:href="#DejaVuSans-31"/>
       <use xlink:href="#DejaVuSans-2e" x="63.623047"/>
       <use xlink:href="#DejaVuSans-36" x="95.410156"/>
      </g>
     </g>
    </g>
    <g id="text_19">
     <!-- MAE [$\AA$] -->
     <g transform="translate(141.587187 180.22)rotate(-90)scale(0.1 -0.1)">
      <defs>
       <path id="DejaVuSans-41" d="M 2188 4044 
L 1331 1722 
L 3047 1722 
L 2188 4044 
z
M 1831 4666 
L 2547 4666 
L 4325 0 
L 3669 0 
L 3244 1197 
L 1141 1197 
L 716 0 
L 50 0 
L 1831 4666 
z
" transform="scale(0.015625)"/>
       <path id="DejaVuSans-45" d="M 628 4666 
L 3578 4666 
L 3578 4134 
L 1259 4134 
L 1259 2753 
L 3481 2753 
L 3481 2222 
L 1259 2222 
L 1259 531 
L 3634 531 
L 3634 0 
L 628 0 
L 628 4666 
z
" transform="scale(0.015625)"/>
      </defs>
      <use xlink:href="#DejaVuSans-4d" transform="translate(0 0.171875)"/>
      <use xlink:href="#DejaVuSans-41" transform="translate(86.279297 0.171875)"/>
      <use xlink:href="#DejaVuSans-45" transform="translate(154.6875 0.171875)"/>
      <use xlink:href="#DejaVuSans-20" transform="translate(217.871094 0.171875)"/>
      <use xlink:href="#DejaVuSans-5b" transform="translate(249.658203 0.171875)"/>
      <use xlink:href="#DejaVuSans-Oblique-c5" transform="translate(288.671875 0.171875)"/>
      <use xlink:href="#DejaVuSans-5d" transform="translate(357.080078 0.171875)"/>
     </g>
    </g>
   </g>
   <g id="LineCollection_5">
    <path d="M 185.506591 170.103496 
L 210.400909 170.103496 
" clip-path="url(#p778cc23fe2)" style="fill: none; stroke: #1f77b4; stroke-width: 1.5"/>
   </g>
   <g id="LineCollection_6">
    <path d="M 185.506591 57.342727 
L 210.400909 57.342727 
" clip-path="url(#p778cc23fe2)" style="fill: none; stroke: #1f77b4; stroke-width: 1.5"/>
   </g>
   <g id="LineCollection_7">
    <path d="M 185.506591 263.397273 
L 210.400909 263.397273 
" clip-path="url(#p778cc23fe2)" style="fill: none; stroke: #1f77b4; stroke-width: 1.5"/>
   </g>
   <g id="LineCollection_8">
    <path d="M 197.95375 263.397273 
L 197.95375 57.342727 
" clip-path="url(#p778cc23fe2)" style="fill: none; stroke: #1f77b4; stroke-width: 1.5"/>
   </g>
   <g id="patch_8">
    <path d="M 170.57 273.7 
L 170.57 47.04 
" style="fill: none; stroke: #000000; stroke-width: 0.8; stroke-linejoin: miter; stroke-linecap: square"/>
   </g>
   <g id="patch_9">
    <path d="M 225.3375 273.7 
L 225.3375 47.04 
" style="fill: none; stroke: #000000; stroke-width: 0.8; stroke-linejoin: miter; stroke-linecap: square"/>
   </g>
   <g id="patch_10">
    <path d="M 170.57 273.7 
L 225.3375 273.7 
" style="fill: none; stroke: #000000; stroke-width: 0.8; stroke-linejoin: miter; stroke-linecap: square"/>
   </g>
   <g id="patch_11">
    <path d="M 170.57 47.04 
L 225.3375 47.04 
" style="fill: none; stroke: #000000; stroke-width: 0.8; stroke-linejoin: miter; stroke-linecap: square"/>
   </g>
   <g id="text_20">
    <!-- MAE -->
    <g transform="translate(184.88125 41.04)scale(0.12 -0.12)">
     <use xlink:href="#DejaVuSans-4d"/>
     <use xlink:href="#DejaVuSans-41" x="86.279297"/>
     <use xlink:href="#DejaVuSans-45" x="154.6875"/>
    </g>
   </g>
  </g>
  <g id="axes_3">
   <g id="patch_12">
    <path d="M 283.8575 273.7 
L 338.625 273.7 
L 338.625 47.04 
L 283.8575 47.04 
z
" style="fill: #ffffff"/>
   </g>
   <g id="PolyCollection_3">
    <path d="M 311.799846 263.397273 
L 310.682654 263.397273 
L 310.586049 261.315914 
L 310.48254 259.234555 
L 310.372768 257.153196 
L 310.257271 255.071837 
L 310.136257 252.990478 
L 310.009305 250.909118 
L 309.875058 248.827759 
L 309.730953 246.7464 
L 309.573067 244.665041 
L 309.396105 242.583682 
L 309.193568 240.502323 
L 308.958064 238.420964 
L 308.681776 236.339605 
L 308.357045 234.258246 
L 307.977063 232.176887 
L 307.53663 230.095528 
L 307.032916 228.014169 
L 306.466111 225.93281 
L 305.839812 223.851451 
L 305.160991 221.770092 
L 304.439407 219.688733 
L 303.686456 217.607374 
L 302.913534 215.526015 
L 302.130175 213.444656 
L 301.342286 211.363297 
L 300.550902 209.281938 
L 299.751784 207.200579 
L 298.936105 205.119219 
L 298.092253 203.03786 
L 297.208546 200.956501 
L 296.276427 198.875142 
L 295.293523 196.793783 
L 294.265883 194.712424 
L 293.208823 192.631065 
L 292.146027 190.549706 
L 291.106996 188.468347 
L 290.123302 186.386988 
L 289.224464 184.305629 
L 288.43436 182.22427 
L 287.768927 180.142911 
L 287.235554 178.061552 
L 286.834031 175.980193 
L 286.558532 173.898834 
L 286.399817 171.817475 
L 286.346932 169.736116 
L 286.387943 167.654757 
L 286.50973 165.573398 
L 286.697249 163.492039 
L 286.932931 161.41068 
L 287.196848 159.32932 
L 287.467994 157.247961 
L 287.726598 155.166602 
L 287.956997 153.085243 
L 288.150378 151.003884 
L 288.306667 148.922525 
L 288.435112 146.841166 
L 288.553394 144.759807 
L 288.68547 142.678448 
L 288.858538 140.597089 
L 289.099641 138.51573 
L 289.432417 136.434371 
L 289.87439 134.353012 
L 290.435158 132.271653 
L 291.115643 130.190294 
L 291.908471 128.108935 
L 292.799337 126.027576 
L 293.76906 123.946217 
L 294.795886 121.864858 
L 295.857622 119.783499 
L 296.933223 117.70214 
L 298.003733 115.620781 
L 299.052617 113.539421 
L 300.065764 111.458062 
L 301.03142 109.376703 
L 301.940277 107.295344 
L 302.785754 105.213985 
L 303.564327 103.132626 
L 304.275681 101.051267 
L 304.922449 98.969908 
L 305.509439 96.888549 
L 306.042461 94.80719 
L 306.527038 92.725831 
L 306.967367 90.644472 
L 307.36586 88.563113 
L 307.7234 86.481754 
L 308.040217 84.400395 
L 308.317062 82.319036 
L 308.556281 80.237677 
L 308.762402 78.156318 
L 308.942047 76.074959 
L 309.103199 73.9936 
L 309.254052 71.912241 
L 309.401786 69.830882 
L 309.551585 67.749522 
L 309.706119 65.668163 
L 309.865533 63.586804 
L 310.027877 61.505445 
L 310.18979 59.424086 
L 310.347263 57.342727 
L 312.135237 57.342727 
L 312.135237 57.342727 
L 312.29271 59.424086 
L 312.454623 61.505445 
L 312.616967 63.586804 
L 312.776381 65.668163 
L 312.930915 67.749522 
L 313.080714 69.830882 
L 313.228448 71.912241 
L 313.379301 73.9936 
L 313.540453 76.074959 
L 313.720098 78.156318 
L 313.926219 80.237677 
L 314.165438 82.319036 
L 314.442283 84.400395 
L 314.7591 86.481754 
L 315.11664 88.563113 
L 315.515133 90.644472 
L 315.955462 92.725831 
L 316.440039 94.80719 
L 316.973061 96.888549 
L 317.560051 98.969908 
L 318.206819 101.051267 
L 318.918173 103.132626 
L 319.696746 105.213985 
L 320.542223 107.295344 
L 321.45108 109.376703 
L 322.416736 111.458062 
L 323.429883 113.539421 
L 324.478767 115.620781 
L 325.549277 117.70214 
L 326.624878 119.783499 
L 327.686614 121.864858 
L 328.71344 123.946217 
L 329.683163 126.027576 
L 330.574029 128.108935 
L 331.366857 130.190294 
L 332.047342 132.271653 
L 332.60811 134.353012 
L 333.050083 136.434371 
L 333.382859 138.51573 
L 333.623962 140.597089 
L 333.79703 142.678448 
L 333.929106 144.759807 
L 334.047388 146.841166 
L 334.175833 148.922525 
L 334.332122 151.003884 
L 334.525503 153.085243 
L 334.755902 155.166602 
L 335.014506 157.247961 
L 335.285652 159.32932 
L 335.549569 161.41068 
L 335.785251 163.492039 
L 335.97277 165.573398 
L 336.094557 167.654757 
L 336.135568 169.736116 
L 336.082683 171.817475 
L 335.923968 173.898834 
L 335.648469 175.980193 
L 335.246946 178.061552 
L 334.713573 180.142911 
L 334.04814 182.22427 
L 333.258036 184.305629 
L 332.359198 186.386988 
L 331.375504 188.468347 
L 330.336473 190.549706 
L 329.273677 192.631065 
L 328.216617 194.712424 
L 327.188977 196.793783 
L 326.206073 198.875142 
L 325.273954 200.956501 
L 324.390247 203.03786 
L 323.546395 205.119219 
L 322.730716 207.200579 
L 321.931598 209.281938 
L 321.140214 211.363297 
L 320.352325 213.444656 
L 319.568966 215.526015 
L 318.796044 217.607374 
L 318.043093 219.688733 
L 317.321509 221.770092 
L 316.642688 223.851451 
L 316.016389 225.93281 
L 315.449584 228.014169 
L 314.94587 230.095528 
L 314.505437 232.176887 
L 314.125455 234.258246 
L 313.800724 236.339605 
L 313.524436 238.420964 
L 313.288932 240.502323 
L 313.086395 242.583682 
L 312.909433 244.665041 
L 312.751547 246.7464 
L 312.607442 248.827759 
L 312.473195 250.909118 
L 312.346243 252.990478 
L 312.225229 255.071837 
L 312.109732 257.153196 
L 311.99996 259.234555 
L 311.896451 261.315914 
L 311.799846 263.397273 
z
" clip-path="url(#p94bb7f6cb2)" style="fill: #1f77b4; fill-opacity: 0.3"/>
   </g>
   <g id="matplotlib.axis_3">
    <g id="ytick_17">
     <g id="line2d_17">
      <g>
       <use xlink:href="#m163e5d39b2" x="283.8575" y="248.687002" style="stroke: #000000; stroke-width: 0.8"/>
      </g>
     </g>
     <g id="text_21">
      <!-- 0.0 -->
      <g transform="translate(260.954375 252.486221)scale(0.1 -0.1)">
       <use xlink:href="#DejaVuSans-30"/>
       <use xlink:href="#DejaVuSans-2e" x="63.623047"/>
       <use xlink:href="#DejaVuSans-30" x="95.410156"/>
      </g>
     </g>
    </g>
    <g id="ytick_18">
     <g id="line2d_18">
      <g>
       <use xlink:href="#m163e5d39b2" x="283.8575" y="205.157394" style="stroke: #000000; stroke-width: 0.8"/>
      </g>
     </g>
     <g id="text_22">
      <!-- 0.2 -->
      <g transform="translate(260.954375 208.956613)scale(0.1 -0.1)">
       <use xlink:href="#DejaVuSans-30"/>
       <use xlink:href="#DejaVuSans-2e" x="63.623047"/>
       <use xlink:href="#DejaVuSans-32" x="95.410156"/>
      </g>
     </g>
    </g>
    <g id="ytick_19">
     <g id="line2d_19">
      <g>
       <use xlink:href="#m163e5d39b2" x="283.8575" y="161.627786" style="stroke: #000000; stroke-width: 0.8"/>
      </g>
     </g>
     <g id="text_23">
      <!-- 0.4 -->
      <g transform="translate(260.954375 165.427004)scale(0.1 -0.1)">
       <use xlink:href="#DejaVuSans-30"/>
       <use xlink:href="#DejaVuSans-2e" x="63.623047"/>
       <use xlink:href="#DejaVuSans-34" x="95.410156"/>
      </g>
     </g>
    </g>
    <g id="ytick_20">
     <g id="line2d_20">
      <g>
       <use xlink:href="#m163e5d39b2" x="283.8575" y="118.098177" style="stroke: #000000; stroke-width: 0.8"/>
      </g>
     </g>
     <g id="text_24">
      <!-- 0.6 -->
      <g transform="translate(260.954375 121.897396)scale(0.1 -0.1)">
       <use xlink:href="#DejaVuSans-30"/>
       <use xlink:href="#DejaVuSans-2e" x="63.623047"/>
       <use xlink:href="#DejaVuSans-36" x="95.410156"/>
      </g>
     </g>
    </g>
    <g id="ytick_21">
     <g id="line2d_21">
      <g>
       <use xlink:href="#m163e5d39b2" x="283.8575" y="74.568569" style="stroke: #000000; stroke-width: 0.8"/>
      </g>
     </g>
     <g id="text_25">
      <!-- 0.8 -->
      <g transform="translate(260.954375 78.367788)scale(0.1 -0.1)">
       <use xlink:href="#DejaVuSans-30"/>
       <use xlink:href="#DejaVuSans-2e" x="63.623047"/>
       <use xlink:href="#DejaVuSans-38" x="95.410156"/>
      </g>
     </g>
    </g>
    <g id="text_26">
     <!-- MSE [$\AA$] -->
     <g transform="translate(254.874687 179.97)rotate(-90)scale(0.1 -0.1)">
      <use xlink:href="#DejaVuSans-4d" transform="translate(0 0.171875)"/>
      <use xlink:href="#DejaVuSans-53" transform="translate(86.279297 0.171875)"/>
      <use xlink:href="#DejaVuSans-45" transform="translate(149.755859 0.171875)"/>
      <use xlink:href="#DejaVuSans-20" transform="translate(212.939453 0.171875)"/>
      <use xlink:href="#DejaVuSans-5b" transform="translate(244.726562 0.171875)"/>
      <use xlink:href="#DejaVuSans-Oblique-c5" transform="translate(283.740234 0.171875)"/>
      <use xlink:href="#DejaVuSans-5d" transform="translate(352.148438 0.171875)"/>
     </g>
    </g>
   </g>
   <g id="LineCollection_9">
    <path d="M 298.794091 159.1783 
L 323.688409 159.1783 
" clip-path="url(#p94bb7f6cb2)" style="fill: none; stroke: #1f77b4; stroke-width: 1.5"/>
   </g>
   <g id="LineCollection_10">
    <path d="M 298.794091 57.342727 
L 323.688409 57.342727 
" clip-path="url(#p94bb7f6cb2)" style="fill: none; stroke: #1f77b4; stroke-width: 1.5"/>
   </g>
   <g id="LineCollection_11">
    <path d="M 298.794091 263.397273 
L 323.688409 263.397273 
" clip-path="url(#p94bb7f6cb2)" style="fill: none; stroke: #1f77b4; stroke-width: 1.5"/>
   </g>
   <g id="LineCollection_12">
    <path d="M 311.24125 263.397273 
L 311.24125 57.342727 
" clip-path="url(#p94bb7f6cb2)" style="fill: none; stroke: #1f77b4; stroke-width: 1.5"/>
   </g>
   <g id="patch_13">
    <path d="M 283.8575 273.7 
L 283.8575 47.04 
" style="fill: none; stroke: #000000; stroke-width: 0.8; stroke-linejoin: miter; stroke-linecap: square"/>
   </g>
   <g id="patch_14">
    <path d="M 338.625 273.7 
L 338.625 47.04 
" style="fill: none; stroke: #000000; stroke-width: 0.8; stroke-linejoin: miter; stroke-linecap: square"/>
   </g>
   <g id="patch_15">
    <path d="M 283.8575 273.7 
L 338.625 273.7 
" style="fill: none; stroke: #000000; stroke-width: 0.8; stroke-linejoin: miter; stroke-linecap: square"/>
   </g>
   <g id="patch_16">
    <path d="M 283.8575 47.04 
L 338.625 47.04 
" style="fill: none; stroke: #000000; stroke-width: 0.8; stroke-linejoin: miter; stroke-linecap: square"/>
   </g>
   <g id="text_27">
    <!-- MSE -->
    <g transform="translate(298.464062 41.04)scale(0.12 -0.12)">
     <use xlink:href="#DejaVuSans-4d"/>
     <use xlink:href="#DejaVuSans-53" x="86.279297"/>
     <use xlink:href="#DejaVuSans-45" x="149.755859"/>
    </g>
   </g>
  </g>
  <g id="axes_4">
   <g id="patch_17">
    <path d="M 397.145 273.7 
L 451.9125 273.7 
L 451.9125 47.04 
L 397.145 47.04 
z
" style="fill: #ffffff"/>
   </g>
   <g id="PolyCollection_4">
    <path d="M 425.530177 263.397273 
L 423.527323 263.397273 
L 423.373194 261.315914 
L 423.216684 259.234555 
L 423.05986 257.153196 
L 422.903986 255.071837 
L 422.749318 252.990478 
L 422.594956 250.909118 
L 422.438772 248.827759 
L 422.277416 246.7464 
L 422.106394 244.665041 
L 421.920225 242.583682 
L 421.712657 240.502323 
L 421.476966 238.420964 
L 421.206333 236.339605 
L 420.894328 234.258246 
L 420.535502 232.176887 
L 420.126076 230.095528 
L 419.664676 228.014169 
L 419.153007 225.93281 
L 418.596292 223.851451 
L 418.003246 221.770092 
L 417.385367 219.688733 
L 416.755401 217.607374 
L 416.125011 215.526015 
L 415.501967 213.444656 
L 414.887432 211.363297 
L 414.274137 209.281938 
L 413.646179 207.200579 
L 412.980929 205.119219 
L 412.252987 203.03786 
L 411.439526 200.956501 
L 410.525844 198.875142 
L 409.509771 196.793783 
L 408.403753 194.712424 
L 407.23407 192.631065 
L 406.037416 190.549706 
L 404.855759 188.468347 
L 403.730853 186.386988 
L 402.699707 184.305629 
L 401.791878 182.22427 
L 401.028813 180.142911 
L 400.424781 178.061552 
L 399.988529 175.980193 
L 399.724714 173.898834 
L 399.634432 171.817475 
L 399.714621 169.736116 
L 399.956686 167.654757 
L 400.345038 165.573398 
L 400.856417 163.492039 
L 401.460631 161.41068 
L 402.122952 159.32932 
L 402.807846 157.247961 
L 403.483298 155.166602 
L 404.124772 153.085243 
L 404.71795 151.003884 
L 405.259721 148.922525 
L 405.757329 146.841166 
L 406.225987 144.759807 
L 406.68553 142.678448 
L 407.156733 140.597089 
L 407.657896 138.51573 
L 408.20212 136.434371 
L 408.795619 134.353012 
L 409.437213 132.271653 
L 410.119063 130.190294 
L 410.828506 128.108935 
L 411.550667 126.027576 
L 412.271349 123.946217 
L 412.979599 121.864858 
L 413.669407 119.783499 
L 414.340178 117.70214 
L 414.995926 115.620781 
L 415.643462 113.539421 
L 416.290076 111.458062 
L 416.941293 109.376703 
L 417.599215 107.295344 
L 418.261725 105.213985 
L 418.922622 103.132626 
L 419.572477 101.051267 
L 420.199962 98.969908 
L 420.793289 96.888549 
L 421.341556 94.80719 
L 421.835808 92.725831 
L 422.269756 90.644472 
L 422.640154 88.563113 
L 422.946855 86.481754 
L 423.192604 84.400395 
L 423.382628 82.319036 
L 423.524082 80.237677 
L 423.625424 78.156318 
L 423.695748 76.074959 
L 423.744142 73.9936 
L 423.779093 71.912241 
L 423.807982 69.830882 
L 423.836701 67.749522 
L 423.869438 65.668163 
L 423.908623 63.586804 
L 423.955053 61.505445 
L 424.00815 59.424086 
L 424.066313 57.342727 
L 424.991187 57.342727 
L 424.991187 57.342727 
L 425.04935 59.424086 
L 425.102447 61.505445 
L 425.148877 63.586804 
L 425.188062 65.668163 
L 425.220799 67.749522 
L 425.249518 69.830882 
L 425.278407 71.912241 
L 425.313358 73.9936 
L 425.361752 76.074959 
L 425.432076 78.156318 
L 425.533418 80.237677 
L 425.674872 82.319036 
L 425.864896 84.400395 
L 426.110645 86.481754 
L 426.417346 88.563113 
L 426.787744 90.644472 
L 427.221692 92.725831 
L 427.715944 94.80719 
L 428.264211 96.888549 
L 428.857538 98.969908 
L 429.485023 101.051267 
L 430.134878 103.132626 
L 430.795775 105.213985 
L 431.458285 107.295344 
L 432.116207 109.376703 
L 432.767424 111.458062 
L 433.414038 113.539421 
L 434.061574 115.620781 
L 434.717322 117.70214 
L 435.388093 119.783499 
L 436.077901 121.864858 
L 436.786151 123.946217 
L 437.506833 126.027576 
L 438.228994 128.108935 
L 438.938437 130.190294 
L 439.620287 132.271653 
L 440.261881 134.353012 
L 440.85538 136.434371 
L 441.399604 138.51573 
L 441.900767 140.597089 
L 442.37197 142.678448 
L 442.831513 144.759807 
L 443.300171 146.841166 
L 443.797779 148.922525 
L 444.33955 151.003884 
L 444.932728 153.085243 
L 445.574202 155.166602 
L 446.249654 157.247961 
L 446.934548 159.32932 
L 447.596869 161.41068 
L 448.201083 163.492039 
L 448.712462 165.573398 
L 449.100814 167.654757 
L 449.342879 169.736116 
L 449.423068 171.817475 
L 449.332786 173.898834 
L 449.068971 175.980193 
L 448.632719 178.061552 
L 448.028687 180.142911 
L 447.265622 182.22427 
L 446.357793 184.305629 
L 445.326647 186.386988 
L 444.201741 188.468347 
L 443.020084 190.549706 
L 441.82343 192.631065 
L 440.653747 194.712424 
L 439.547729 196.793783 
L 438.531656 198.875142 
L 437.617974 200.956501 
L 436.804513 203.03786 
L 436.076571 205.119219 
L 435.411321 207.200579 
L 434.783363 209.281938 
L 434.170068 211.363297 
L 433.555533 213.444656 
L 432.932489 215.526015 
L 432.302099 217.607374 
L 431.672133 219.688733 
L 431.054254 221.770092 
L 430.461208 223.851451 
L 429.904493 225.93281 
L 429.392824 228.014169 
L 428.931424 230.095528 
L 428.521998 232.176887 
L 428.163172 234.258246 
L 427.851167 236.339605 
L 427.580534 238.420964 
L 427.344843 240.502323 
L 427.137275 242.583682 
L 426.951106 244.665041 
L 426.780084 246.7464 
L 426.618728 248.827759 
L 426.462544 250.909118 
L 426.308182 252.990478 
L 426.153514 255.071837 
L 425.99764 257.153196 
L 425.840816 259.234555 
L 425.684306 261.315914 
L 425.530177 263.397273 
z
" clip-path="url(#p48a6a50f60)" style="fill: #1f77b4; fill-opacity: 0.3"/>
   </g>
   <g id="matplotlib.axis_4">
    <g id="ytick_22">
     <g id="line2d_22">
      <g>
       <use xlink:href="#m163e5d39b2" x="397.145" y="246.045311" style="stroke: #000000; stroke-width: 0.8"/>
      </g>
     </g>
     <g id="text_28">
      <!-- 0.70 -->
      <g transform="translate(367.879375 249.84453)scale(0.1 -0.1)">
       <use xlink:href="#DejaVuSans-30"/>
       <use xlink:href="#DejaVuSans-2e" x="63.623047"/>
       <use xlink:href="#DejaVuSans-37" x="95.410156"/>
       <use xlink:href="#DejaVuSans-30" x="159.033203"/>
      </g>
     </g>
    </g>
    <g id="ytick_23">
     <g id="line2d_23">
      <g>
       <use xlink:href="#m163e5d39b2" x="397.145" y="198.327416" style="stroke: #000000; stroke-width: 0.8"/>
      </g>
     </g>
     <g id="text_29">
      <!-- 0.75 -->
      <g transform="translate(367.879375 202.126635)scale(0.1 -0.1)">
       <use xlink:href="#DejaVuSans-30"/>
       <use xlink:href="#DejaVuSans-2e" x="63.623047"/>
       <use xlink:href="#DejaVuSans-37" x="95.410156"/>
       <use xlink:href="#DejaVuSans-35" x="159.033203"/>
      </g>
     </g>
    </g>
    <g id="ytick_24">
     <g id="line2d_24">
      <g>
       <use xlink:href="#m163e5d39b2" x="397.145" y="150.609522" style="stroke: #000000; stroke-width: 0.8"/>
      </g>
     </g>
     <g id="text_30">
      <!-- 0.80 -->
      <g transform="translate(367.879375 154.40874)scale(0.1 -0.1)">
       <use xlink:href="#DejaVuSans-30"/>
       <use xlink:href="#DejaVuSans-2e" x="63.623047"/>
       <use xlink:href="#DejaVuSans-38" x="95.410156"/>
       <use xlink:href="#DejaVuSans-30" x="159.033203"/>
      </g>
     </g>
    </g>
    <g id="ytick_25">
     <g id="line2d_25">
      <g>
       <use xlink:href="#m163e5d39b2" x="397.145" y="102.891627" style="stroke: #000000; stroke-width: 0.8"/>
      </g>
     </g>
     <g id="text_31">
      <!-- 0.85 -->
      <g transform="translate(367.879375 106.690846)scale(0.1 -0.1)">
       <use xlink:href="#DejaVuSans-30"/>
       <use xlink:href="#DejaVuSans-2e" x="63.623047"/>
       <use xlink:href="#DejaVuSans-38" x="95.410156"/>
       <use xlink:href="#DejaVuSans-35" x="159.033203"/>
      </g>
     </g>
    </g>
    <g id="ytick_26">
     <g id="line2d_26">
      <g>
       <use xlink:href="#m163e5d39b2" x="397.145" y="55.173732" style="stroke: #000000; stroke-width: 0.8"/>
      </g>
     </g>
     <g id="text_32">
      <!-- 0.90 -->
      <g transform="translate(367.879375 58.972951)scale(0.1 -0.1)">
       <use xlink:href="#DejaVuSans-30"/>
       <use xlink:href="#DejaVuSans-2e" x="63.623047"/>
       <use xlink:href="#DejaVuSans-39" x="95.410156"/>
       <use xlink:href="#DejaVuSans-30" x="159.033203"/>
      </g>
     </g>
    </g>
    <g id="text_33">
     <!-- % NOE fulfilled [1/100 %] -->
     <g transform="translate(361.799687 223.870781)rotate(-90)scale(0.1 -0.1)">
      <defs>
       <path id="DejaVuSans-25" d="M 4653 2053 
Q 4381 2053 4226 1822 
Q 4072 1591 4072 1178 
Q 4072 772 4226 539 
Q 4381 306 4653 306 
Q 4919 306 5073 539 
Q 5228 772 5228 1178 
Q 5228 1588 5073 1820 
Q 4919 2053 4653 2053 
z
M 4653 2450 
Q 5147 2450 5437 2106 
Q 5728 1763 5728 1178 
Q 5728 594 5436 251 
Q 5144 -91 4653 -91 
Q 4153 -91 3862 251 
Q 3572 594 3572 1178 
Q 3572 1766 3864 2108 
Q 4156 2450 4653 2450 
z
M 1428 4353 
Q 1159 4353 1004 4120 
Q 850 3888 850 3481 
Q 850 3069 1003 2837 
Q 1156 2606 1428 2606 
Q 1700 2606 1854 2837 
Q 2009 3069 2009 3481 
Q 2009 3884 1853 4118 
Q 1697 4353 1428 4353 
z
M 4250 4750 
L 4750 4750 
L 1831 -91 
L 1331 -91 
L 4250 4750 
z
M 1428 4750 
Q 1922 4750 2215 4408 
Q 2509 4066 2509 3481 
Q 2509 2891 2217 2550 
Q 1925 2209 1428 2209 
Q 931 2209 642 2551 
Q 353 2894 353 3481 
Q 353 4063 643 4406 
Q 934 4750 1428 4750 
z
" transform="scale(0.015625)"/>
       <path id="DejaVuSans-4e" d="M 628 4666 
L 1478 4666 
L 3547 763 
L 3547 4666 
L 4159 4666 
L 4159 0 
L 3309 0 
L 1241 3903 
L 1241 0 
L 628 0 
L 628 4666 
z
" transform="scale(0.015625)"/>
       <path id="DejaVuSans-4f" d="M 2522 4238 
Q 1834 4238 1429 3725 
Q 1025 3213 1025 2328 
Q 1025 1447 1429 934 
Q 1834 422 2522 422 
Q 3209 422 3611 934 
Q 4013 1447 4013 2328 
Q 4013 3213 3611 3725 
Q 3209 4238 2522 4238 
z
M 2522 4750 
Q 3503 4750 4090 4092 
Q 4678 3434 4678 2328 
Q 4678 1225 4090 567 
Q 3503 -91 2522 -91 
Q 1538 -91 948 565 
Q 359 1222 359 2328 
Q 359 3434 948 4092 
Q 1538 4750 2522 4750 
z
" transform="scale(0.015625)"/>
       <path id="DejaVuSans-66" d="M 2375 4863 
L 2375 4384 
L 1825 4384 
Q 1516 4384 1395 4259 
Q 1275 4134 1275 3809 
L 1275 3500 
L 2222 3500 
L 2222 3053 
L 1275 3053 
L 1275 0 
L 697 0 
L 697 3053 
L 147 3053 
L 147 3500 
L 697 3500 
L 697 3744 
Q 697 4328 969 4595 
Q 1241 4863 1831 4863 
L 2375 4863 
z
" transform="scale(0.015625)"/>
       <path id="DejaVuSans-75" d="M 544 1381 
L 544 3500 
L 1119 3500 
L 1119 1403 
Q 1119 906 1312 657 
Q 1506 409 1894 409 
Q 2359 409 2629 706 
Q 2900 1003 2900 1516 
L 2900 3500 
L 3475 3500 
L 3475 0 
L 2900 0 
L 2900 538 
Q 2691 219 2414 64 
Q 2138 -91 1772 -91 
Q 1169 -91 856 284 
Q 544 659 544 1381 
z
M 1991 3584 
L 1991 3584 
z
" transform="scale(0.015625)"/>
       <path id="DejaVuSans-6c" d="M 603 4863 
L 1178 4863 
L 1178 0 
L 603 0 
L 603 4863 
z
" transform="scale(0.015625)"/>
       <path id="DejaVuSans-69" d="M 603 3500 
L 1178 3500 
L 1178 0 
L 603 0 
L 603 3500 
z
M 603 4863 
L 1178 4863 
L 1178 4134 
L 603 4134 
L 603 4863 
z
" transform="scale(0.015625)"/>
       <path id="DejaVuSans-65" d="M 3597 1894 
L 3597 1613 
L 953 1613 
Q 991 1019 1311 708 
Q 1631 397 2203 397 
Q 2534 397 2845 478 
Q 3156 559 3463 722 
L 3463 178 
Q 3153 47 2828 -22 
Q 2503 -91 2169 -91 
Q 1331 -91 842 396 
Q 353 884 353 1716 
Q 353 2575 817 3079 
Q 1281 3584 2069 3584 
Q 2775 3584 3186 3129 
Q 3597 2675 3597 1894 
z
M 3022 2063 
Q 3016 2534 2758 2815 
Q 2500 3097 2075 3097 
Q 1594 3097 1305 2825 
Q 1016 2553 972 2059 
L 3022 2063 
z
" transform="scale(0.015625)"/>
       <path id="DejaVuSans-64" d="M 2906 2969 
L 2906 4863 
L 3481 4863 
L 3481 0 
L 2906 0 
L 2906 525 
Q 2725 213 2448 61 
Q 2172 -91 1784 -91 
Q 1150 -91 751 415 
Q 353 922 353 1747 
Q 353 2572 751 3078 
Q 1150 3584 1784 3584 
Q 2172 3584 2448 3432 
Q 2725 3281 2906 2969 
z
M 947 1747 
Q 947 1113 1208 752 
Q 1469 391 1925 391 
Q 2381 391 2643 752 
Q 2906 1113 2906 1747 
Q 2906 2381 2643 2742 
Q 2381 3103 1925 3103 
Q 1469 3103 1208 2742 
Q 947 2381 947 1747 
z
" transform="scale(0.015625)"/>
       <path id="DejaVuSans-2f" d="M 1625 4666 
L 2156 4666 
L 531 -594 
L 0 -594 
L 1625 4666 
z
" transform="scale(0.015625)"/>
      </defs>
      <use xlink:href="#DejaVuSans-25"/>
      <use xlink:href="#DejaVuSans-20" x="95.019531"/>
      <use xlink:href="#DejaVuSans-4e" x="126.806641"/>
      <use xlink:href="#DejaVuSans-4f" x="201.611328"/>
      <use xlink:href="#DejaVuSans-45" x="280.322266"/>
      <use xlink:href="#DejaVuSans-20" x="343.505859"/>
      <use xlink:href="#DejaVuSans-66" x="375.292969"/>
      <use xlink:href="#DejaVuSans-75" x="410.498047"/>
      <use xlink:href="#DejaVuSans-6c" x="473.876953"/>
      <use xlink:href="#DejaVuSans-66" x="501.660156"/>
      <use xlink:href="#DejaVuSans-69" x="536.865234"/>
      <use xlink:href="#DejaVuSans-6c" x="564.648438"/>
      <use xlink:href="#DejaVuSans-6c" x="592.431641"/>
      <use xlink:href="#DejaVuSans-65" x="620.214844"/>
      <use xlink:href="#DejaVuSans-64" x="681.738281"/>
      <use xlink:href="#DejaVuSans-20" x="745.214844"/>
      <use xlink:href="#DejaVuSans-5b" x="777.001953"/>
      <use xlink:href="#DejaVuSans-31" x="816.015625"/>
      <use xlink:href="#DejaVuSans-2f" x="879.638672"/>
      <use xlink:href="#DejaVuSans-31" x="913.330078"/>
      <use xlink:href="#DejaVuSans-30" x="976.953125"/>
      <use xlink:href="#DejaVuSans-30" x="1040.576172"/>
      <use xlink:href="#DejaVuSans-20" x="1104.199219"/>
      <use xlink:href="#DejaVuSans-25" x="1135.986328"/>
      <use xlink:href="#DejaVuSans-5d" x="1231.005859"/>
     </g>
    </g>
   </g>
   <g id="LineCollection_13">
    <path d="M 412.081591 165.765376 
L 436.975909 165.765376 
" clip-path="url(#p48a6a50f60)" style="fill: none; stroke: #1f77b4; stroke-width: 1.5"/>
   </g>
   <g id="LineCollection_14">
    <path d="M 412.081591 57.342727 
L 436.975909 57.342727 
" clip-path="url(#p48a6a50f60)" style="fill: none; stroke: #1f77b4; stroke-width: 1.5"/>
   </g>
   <g id="LineCollection_15">
    <path d="M 412.081591 263.397273 
L 436.975909 263.397273 
" clip-path="url(#p48a6a50f60)" style="fill: none; stroke: #1f77b4; stroke-width: 1.5"/>
   </g>
   <g id="LineCollection_16">
    <path d="M 424.52875 263.397273 
L 424.52875 57.342727 
" clip-path="url(#p48a6a50f60)" style="fill: none; stroke: #1f77b4; stroke-width: 1.5"/>
   </g>
   <g id="patch_18">
    <path d="M 397.145 273.7 
L 397.145 47.04 
" style="fill: none; stroke: #000000; stroke-width: 0.8; stroke-linejoin: miter; stroke-linecap: square"/>
   </g>
   <g id="patch_19">
    <path d="M 451.9125 273.7 
L 451.9125 47.04 
" style="fill: none; stroke: #000000; stroke-width: 0.8; stroke-linejoin: miter; stroke-linecap: square"/>
   </g>
   <g id="patch_20">
    <path d="M 397.145 273.7 
L 451.9125 273.7 
" style="fill: none; stroke: #000000; stroke-width: 0.8; stroke-linejoin: miter; stroke-linecap: square"/>
   </g>
   <g id="patch_21">
    <path d="M 397.145 47.04 
L 451.9125 47.04 
" style="fill: none; stroke: #000000; stroke-width: 0.8; stroke-linejoin: miter; stroke-linecap: square"/>
   </g>
   <g id="text_34">
    <!-- % NOE fulfilled -->
    <g transform="translate(379.815625 41.04)scale(0.12 -0.12)">
     <use xlink:href="#DejaVuSans-25"/>
     <use xlink:href="#DejaVuSans-20" x="95.019531"/>
     <use xlink:href="#DejaVuSans-4e" x="126.806641"/>
     <use xlink:href="#DejaVuSans-4f" x="201.611328"/>
     <use xlink:href="#DejaVuSans-45" x="280.322266"/>
     <use xlink:href="#DejaVuSans-20" x="343.505859"/>
     <use xlink:href="#DejaVuSans-66" x="375.292969"/>
     <use xlink:href="#DejaVuSans-75" x="410.498047"/>
     <use xlink:href="#DejaVuSans-6c" x="473.876953"/>
     <use xlink:href="#DejaVuSans-66" x="501.660156"/>
     <use xlink:href="#DejaVuSans-69" x="536.865234"/>
     <use xlink:href="#DejaVuSans-6c" x="564.648438"/>
     <use xlink:href="#DejaVuSans-6c" x="592.431641"/>
     <use xlink:href="#DejaVuSans-65" x="620.214844"/>
     <use xlink:href="#DejaVuSans-64" x="681.738281"/>
    </g>
   </g>
  </g>
  <g id="axes_5">
   <g id="patch_22">
    <path d="M 510.4325 273.7 
L 565.2 273.7 
L 565.2 47.04 
L 510.4325 47.04 
z
" style="fill: #ffffff"/>
   </g>
   <g id="PolyCollection_5">
    <path d="M 538.215884 263.397273 
L 537.416616 263.397273 
L 537.374397 261.315914 
L 537.33806 259.234555 
L 537.308406 257.153196 
L 537.285308 255.071837 
L 537.267609 252.990478 
L 537.253149 250.909118 
L 537.238921 248.827759 
L 537.221344 246.7464 
L 537.196611 244.665041 
L 537.161009 242.583682 
L 537.11114 240.502323 
L 537.043972 238.420964 
L 536.956691 236.339605 
L 536.846422 234.258246 
L 536.709935 232.176887 
L 536.543479 230.095528 
L 536.342875 228.014169 
L 536.103912 225.93281 
L 535.822998 223.851451 
L 535.497917 221.770092 
L 535.12852 219.688733 
L 534.717157 217.607374 
L 534.268761 215.526015 
L 533.790557 213.444656 
L 533.291432 211.363297 
L 532.781054 209.281938 
L 532.26879 207.200579 
L 531.762494 205.119219 
L 531.267229 203.03786 
L 530.784098 200.956501 
L 530.309424 198.875142 
L 529.834637 196.793783 
L 529.347154 194.712424 
L 528.832423 192.631065 
L 528.276965 190.549706 
L 527.671914 188.468347 
L 527.016219 186.386988 
L 526.318601 184.305629 
L 525.597457 182.22427 
L 524.878389 180.142911 
L 524.189601 178.061552 
L 523.556093 175.980193 
L 522.993963 173.898834 
L 522.506247 171.817475 
L 522.081354 169.736116 
L 521.694537 167.654757 
L 521.312042 165.573398 
L 520.896997 163.492039 
L 520.415758 161.41068 
L 519.84356 159.32932 
L 519.16863 157.247961 
L 518.394411 155.166602 
L 517.53989 153.085243 
L 516.638205 151.003884 
L 515.733755 148.922525 
L 514.878025 146.841166 
L 514.124414 144.759807 
L 513.522553 142.678448 
L 513.112817 140.597089 
L 512.921932 138.51573 
L 512.960494 136.434371 
L 513.22292 134.353012 
L 513.689806 132.271653 
L 514.332098 130.190294 
L 515.116058 128.108935 
L 516.007893 126.027576 
L 516.977097 123.946217 
L 517.998084 121.864858 
L 519.050193 119.783499 
L 520.116634 117.70214 
L 521.183102 115.620781 
L 522.236704 113.539421 
L 523.265563 111.458062 
L 524.259056 109.376703 
L 525.208426 107.295344 
L 526.107373 105.213985 
L 526.952335 103.132626 
L 527.742364 101.051267 
L 528.47867 98.969908 
L 529.16401 96.888549 
L 529.802095 94.80719 
L 530.397091 92.725831 
L 530.953226 90.644472 
L 531.474436 88.563113 
L 531.964066 86.481754 
L 532.424619 84.400395 
L 532.857678 82.319036 
L 533.264036 80.237677 
L 533.644068 78.156318 
L 533.998264 76.074959 
L 534.327754 73.9936 
L 534.634655 71.912241 
L 534.922098 69.830882 
L 535.193906 67.749522 
L 535.453976 65.668163 
L 535.705559 63.586804 
L 535.950608 61.505445 
L 536.189397 59.424086 
L 536.420478 57.342727 
L 539.212022 57.342727 
L 539.212022 57.342727 
L 539.443103 59.424086 
L 539.681892 61.505445 
L 539.926941 63.586804 
L 540.178524 65.668163 
L 540.438594 67.749522 
L 540.710402 69.830882 
L 540.997845 71.912241 
L 541.304746 73.9936 
L 541.634236 76.074959 
L 541.988432 78.156318 
L 542.368464 80.237677 
L 542.774822 82.319036 
L 543.207881 84.400395 
L 543.668434 86.481754 
L 544.158064 88.563113 
L 544.679274 90.644472 
L 545.235409 92.725831 
L 545.830405 94.80719 
L 546.46849 96.888549 
L 547.15383 98.969908 
L 547.890136 101.051267 
L 548.680165 103.132626 
L 549.525127 105.213985 
L 550.424074 107.295344 
L 551.373444 109.376703 
L 552.366937 111.458062 
L 553.395796 113.539421 
L 554.449398 115.620781 
L 555.515866 117.70214 
L 556.582307 119.783499 
L 557.634416 121.864858 
L 558.655403 123.946217 
L 559.624607 126.027576 
L 560.516442 128.108935 
L 561.300402 130.190294 
L 561.942694 132.271653 
L 562.40958 134.353012 
L 562.672006 136.434371 
L 562.710568 138.51573 
L 562.519683 140.597089 
L 562.109947 142.678448 
L 561.508086 144.759807 
L 560.754475 146.841166 
L 559.898745 148.922525 
L 558.994295 151.003884 
L 558.09261 153.085243 
L 557.238089 155.166602 
L 556.46387 157.247961 
L 555.78894 159.32932 
L 555.216742 161.41068 
L 554.735503 163.492039 
L 554.320458 165.573398 
L 553.937963 167.654757 
L 553.551146 169.736116 
L 553.126253 171.817475 
L 552.638537 173.898834 
L 552.076407 175.980193 
L 551.442899 178.061552 
L 550.754111 180.142911 
L 550.035043 182.22427 
L 549.313899 184.305629 
L 548.616281 186.386988 
L 547.960586 188.468347 
L 547.355535 190.549706 
L 546.800077 192.631065 
L 546.285346 194.712424 
L 545.797863 196.793783 
L 545.323076 198.875142 
L 544.848402 200.956501 
L 544.365271 203.03786 
L 543.870006 205.119219 
L 543.36371 207.200579 
L 542.851446 209.281938 
L 542.341068 211.363297 
L 541.841943 213.444656 
L 541.363739 215.526015 
L 540.915343 217.607374 
L 540.50398 219.688733 
L 540.134583 221.770092 
L 539.809502 223.851451 
L 539.528588 225.93281 
L 539.289625 228.014169 
L 539.089021 230.095528 
L 538.922565 232.176887 
L 538.786078 234.258246 
L 538.675809 236.339605 
L 538.588528 238.420964 
L 538.52136 240.502323 
L 538.471491 242.583682 
L 538.435889 244.665041 
L 538.411156 246.7464 
L 538.393579 248.827759 
L 538.379351 250.909118 
L 538.364891 252.990478 
L 538.347192 255.071837 
L 538.324094 257.153196 
L 538.29444 259.234555 
L 538.258103 261.315914 
L 538.215884 263.397273 
z
" clip-path="url(#p50a6bcbef7)" style="fill: #1f77b4; fill-opacity: 0.3"/>
   </g>
   <g id="matplotlib.axis_5">
    <g id="ytick_27">
     <g id="line2d_27">
      <g>
       <use xlink:href="#m163e5d39b2" x="510.4325" y="257.087536" style="stroke: #000000; stroke-width: 0.8"/>
      </g>
     </g>
     <g id="text_35">
      <!-- 0.50 -->
      <g transform="translate(481.166875 260.886755)scale(0.1 -0.1)">
       <use xlink:href="#DejaVuSans-30"/>
       <use xlink:href="#DejaVuSans-2e" x="63.623047"/>
       <use xlink:href="#DejaVuSans-35" x="95.410156"/>
       <use xlink:href="#DejaVuSans-30" x="159.033203"/>
      </g>
     </g>
    </g>
    <g id="ytick_28">
     <g id="line2d_28">
      <g>
       <use xlink:href="#m163e5d39b2" x="510.4325" y="230.452589" style="stroke: #000000; stroke-width: 0.8"/>
      </g>
     </g>
     <g id="text_36">
      <!-- 0.55 -->
      <g transform="translate(481.166875 234.251807)scale(0.1 -0.1)">
       <use xlink:href="#DejaVuSans-30"/>
       <use xlink:href="#DejaVuSans-2e" x="63.623047"/>
       <use xlink:href="#DejaVuSans-35" x="95.410156"/>
       <use xlink:href="#DejaVuSans-35" x="159.033203"/>
      </g>
     </g>
    </g>
    <g id="ytick_29">
     <g id="line2d_29">
      <g>
       <use xlink:href="#m163e5d39b2" x="510.4325" y="203.817641" style="stroke: #000000; stroke-width: 0.8"/>
      </g>
     </g>
     <g id="text_37">
      <!-- 0.60 -->
      <g transform="translate(481.166875 207.61686)scale(0.1 -0.1)">
       <use xlink:href="#DejaVuSans-30"/>
       <use xlink:href="#DejaVuSans-2e" x="63.623047"/>
       <use xlink:href="#DejaVuSans-36" x="95.410156"/>
       <use xlink:href="#DejaVuSans-30" x="159.033203"/>
      </g>
     </g>
    </g>
    <g id="ytick_30">
     <g id="line2d_30">
      <g>
       <use xlink:href="#m163e5d39b2" x="510.4325" y="177.182694" style="stroke: #000000; stroke-width: 0.8"/>
      </g>
     </g>
     <g id="text_38">
      <!-- 0.65 -->
      <g transform="translate(481.166875 180.981913)scale(0.1 -0.1)">
       <use xlink:href="#DejaVuSans-30"/>
       <use xlink:href="#DejaVuSans-2e" x="63.623047"/>
       <use xlink:href="#DejaVuSans-36" x="95.410156"/>
       <use xlink:href="#DejaVuSans-35" x="159.033203"/>
      </g>
     </g>
    </g>
    <g id="ytick_31">
     <g id="line2d_31">
      <g>
       <use xlink:href="#m163e5d39b2" x="510.4325" y="150.547747" style="stroke: #000000; stroke-width: 0.8"/>
      </g>
     </g>
     <g id="text_39">
      <!-- 0.70 -->
      <g transform="translate(481.166875 154.346966)scale(0.1 -0.1)">
       <use xlink:href="#DejaVuSans-30"/>
       <use xlink:href="#DejaVuSans-2e" x="63.623047"/>
       <use xlink:href="#DejaVuSans-37" x="95.410156"/>
       <use xlink:href="#DejaVuSans-30" x="159.033203"/>
      </g>
     </g>
    </g>
    <g id="ytick_32">
     <g id="line2d_32">
      <g>
       <use xlink:href="#m163e5d39b2" x="510.4325" y="123.9128" style="stroke: #000000; stroke-width: 0.8"/>
      </g>
     </g>
     <g id="text_40">
      <!-- 0.75 -->
      <g transform="translate(481.166875 127.712018)scale(0.1 -0.1)">
       <use xlink:href="#DejaVuSans-30"/>
       <use xlink:href="#DejaVuSans-2e" x="63.623047"/>
       <use xlink:href="#DejaVuSans-37" x="95.410156"/>
       <use xlink:href="#DejaVuSans-35" x="159.033203"/>
      </g>
     </g>
    </g>
    <g id="ytick_33">
     <g id="line2d_33">
      <g>
       <use xlink:href="#m163e5d39b2" x="510.4325" y="97.277852" style="stroke: #000000; stroke-width: 0.8"/>
      </g>
     </g>
     <g id="text_41">
      <!-- 0.80 -->
      <g transform="translate(481.166875 101.077071)scale(0.1 -0.1)">
       <use xlink:href="#DejaVuSans-30"/>
       <use xlink:href="#DejaVuSans-2e" x="63.623047"/>
       <use xlink:href="#DejaVuSans-38" x="95.410156"/>
       <use xlink:href="#DejaVuSans-30" x="159.033203"/>
      </g>
     </g>
    </g>
    <g id="ytick_34">
     <g id="line2d_34">
      <g>
       <use xlink:href="#m163e5d39b2" x="510.4325" y="70.642905" style="stroke: #000000; stroke-width: 0.8"/>
      </g>
     </g>
     <g id="text_42">
      <!-- 0.85 -->
      <g transform="translate(481.166875 74.442124)scale(0.1 -0.1)">
       <use xlink:href="#DejaVuSans-30"/>
       <use xlink:href="#DejaVuSans-2e" x="63.623047"/>
       <use xlink:href="#DejaVuSans-38" x="95.410156"/>
       <use xlink:href="#DejaVuSans-35" x="159.033203"/>
      </g>
     </g>
    </g>
    <g id="text_43">
     <!-- RMSD stepwise [$\AA$] -->
     <g transform="translate(475.066875 207.67)rotate(-90)scale(0.1 -0.1)">
      <defs>
       <path id="DejaVuSans-73" d="M 2834 3397 
L 2834 2853 
Q 2591 2978 2328 3040 
Q 2066 3103 1784 3103 
Q 1356 3103 1142 2972 
Q 928 2841 928 2578 
Q 928 2378 1081 2264 
Q 1234 2150 1697 2047 
L 1894 2003 
Q 2506 1872 2764 1633 
Q 3022 1394 3022 966 
Q 3022 478 2636 193 
Q 2250 -91 1575 -91 
Q 1294 -91 989 -36 
Q 684 19 347 128 
L 347 722 
Q 666 556 975 473 
Q 1284 391 1588 391 
Q 1994 391 2212 530 
Q 2431 669 2431 922 
Q 2431 1156 2273 1281 
Q 2116 1406 1581 1522 
L 1381 1569 
Q 847 1681 609 1914 
Q 372 2147 372 2553 
Q 372 3047 722 3315 
Q 1072 3584 1716 3584 
Q 2034 3584 2315 3537 
Q 2597 3491 2834 3397 
z
" transform="scale(0.015625)"/>
       <path id="DejaVuSans-74" d="M 1172 4494 
L 1172 3500 
L 2356 3500 
L 2356 3053 
L 1172 3053 
L 1172 1153 
Q 1172 725 1289 603 
Q 1406 481 1766 481 
L 2356 481 
L 2356 0 
L 1766 0 
Q 1100 0 847 248 
Q 594 497 594 1153 
L 594 3053 
L 172 3053 
L 172 3500 
L 594 3500 
L 594 4494 
L 1172 4494 
z
" transform="scale(0.015625)"/>
       <path id="DejaVuSans-70" d="M 1159 525 
L 1159 -1331 
L 581 -1331 
L 581 3500 
L 1159 3500 
L 1159 2969 
Q 1341 3281 1617 3432 
Q 1894 3584 2278 3584 
Q 2916 3584 3314 3078 
Q 3713 2572 3713 1747 
Q 3713 922 3314 415 
Q 2916 -91 2278 -91 
Q 1894 -91 1617 61 
Q 1341 213 1159 525 
z
M 3116 1747 
Q 3116 2381 2855 2742 
Q 2594 3103 2138 3103 
Q 1681 3103 1420 2742 
Q 1159 2381 1159 1747 
Q 1159 1113 1420 752 
Q 1681 391 2138 391 
Q 2594 391 2855 752 
Q 3116 1113 3116 1747 
z
" transform="scale(0.015625)"/>
       <path id="DejaVuSans-77" d="M 269 3500 
L 844 3500 
L 1563 769 
L 2278 3500 
L 2956 3500 
L 3675 769 
L 4391 3500 
L 4966 3500 
L 4050 0 
L 3372 0 
L 2619 2869 
L 1863 0 
L 1184 0 
L 269 3500 
z
" transform="scale(0.015625)"/>
      </defs>
      <use xlink:href="#DejaVuSans-52" transform="translate(0 0.171875)"/>
      <use xlink:href="#DejaVuSans-4d" transform="translate(69.482422 0.171875)"/>
      <use xlink:href="#DejaVuSans-53" transform="translate(155.761719 0.171875)"/>
      <use xlink:href="#DejaVuSans-44" transform="translate(219.238281 0.171875)"/>
      <use xlink:href="#DejaVuSans-20" transform="translate(296.240234 0.171875)"/>
      <use xlink:href="#DejaVuSans-73" transform="translate(328.027344 0.171875)"/>
      <use xlink:href="#DejaVuSans-74" transform="translate(380.126953 0.171875)"/>
      <use xlink:href="#DejaVuSans-65" transform="translate(419.335938 0.171875)"/>
      <use xlink:href="#DejaVuSans-70" transform="translate(480.859375 0.171875)"/>
      <use xlink:href="#DejaVuSans-77" transform="translate(544.335938 0.171875)"/>
      <use xlink:href="#DejaVuSans-69" transform="translate(626.123047 0.171875)"/>
      <use xlink:href="#DejaVuSans-73" transform="translate(653.90625 0.171875)"/>
      <use xlink:href="#DejaVuSans-65" transform="translate(706.005859 0.171875)"/>
      <use xlink:href="#DejaVuSans-20" transform="translate(767.529297 0.171875)"/>
      <use xlink:href="#DejaVuSans-5b" transform="translate(799.316406 0.171875)"/>
      <use xlink:href="#DejaVuSans-Oblique-c5" transform="translate(838.330078 0.171875)"/>
      <use xlink:href="#DejaVuSans-5d" transform="translate(906.738281 0.171875)"/>
     </g>
    </g>
   </g>
   <g id="LineCollection_17">
    <path d="M 525.369091 144.632421 
L 550.263409 144.632421 
" clip-path="url(#p50a6bcbef7)" style="fill: none; stroke: #1f77b4; stroke-width: 1.5"/>
   </g>
   <g id="LineCollection_18">
    <path d="M 525.369091 57.342727 
L 550.263409 57.342727 
" clip-path="url(#p50a6bcbef7)" style="fill: none; stroke: #1f77b4; stroke-width: 1.5"/>
   </g>
   <g id="LineCollection_19">
    <path d="M 525.369091 263.397273 
L 550.263409 263.397273 
" clip-path="url(#p50a6bcbef7)" style="fill: none; stroke: #1f77b4; stroke-width: 1.5"/>
   </g>
   <g id="LineCollection_20">
    <path d="M 537.81625 263.397273 
L 537.81625 57.342727 
" clip-path="url(#p50a6bcbef7)" style="fill: none; stroke: #1f77b4; stroke-width: 1.5"/>
   </g>
   <g id="patch_23">
    <path d="M 510.4325 273.7 
L 510.4325 47.04 
" style="fill: none; stroke: #000000; stroke-width: 0.8; stroke-linejoin: miter; stroke-linecap: square"/>
   </g>
   <g id="patch_24">
    <path d="M 565.2 273.7 
L 565.2 47.04 
" style="fill: none; stroke: #000000; stroke-width: 0.8; stroke-linejoin: miter; stroke-linecap: square"/>
   </g>
   <g id="patch_25">
    <path d="M 510.4325 273.7 
L 565.2 273.7 
" style="fill: none; stroke: #000000; stroke-width: 0.8; stroke-linejoin: miter; stroke-linecap: square"/>
   </g>
   <g id="patch_26">
    <path d="M 510.4325 47.04 
L 565.2 47.04 
" style="fill: none; stroke: #000000; stroke-width: 0.8; stroke-linejoin: miter; stroke-linecap: square"/>
   </g>
   <g id="text_44">
    <!-- RMSD stepwise -->
    <g transform="translate(491.764375 41.04)scale(0.12 -0.12)">
     <use xlink:href="#DejaVuSans-52"/>
     <use xlink:href="#DejaVuSans-4d" x="69.482422"/>
     <use xlink:href="#DejaVuSans-53" x="155.761719"/>
     <use xlink:href="#DejaVuSans-44" x="219.238281"/>
     <use xlink:href="#DejaVuSans-20" x="296.240234"/>
     <use xlink:href="#DejaVuSans-73" x="328.027344"/>
     <use xlink:href="#DejaVuSans-74" x="380.126953"/>
     <use xlink:href="#DejaVuSans-65" x="419.335938"/>
     <use xlink:href="#DejaVuSans-70" x="480.859375"/>
     <use xlink:href="#DejaVuSans-77" x="544.335938"/>
     <use xlink:href="#DejaVuSans-69" x="626.123047"/>
     <use xlink:href="#DejaVuSans-73" x="653.90625"/>
     <use xlink:href="#DejaVuSans-65" x="706.005859"/>
    </g>
   </g>
  </g>
  <g id="text_45">
   <!-- Compound 60. Rdkit -->
   <g transform="translate(226.573125 14.878125)scale(0.12 -0.12)">
    <defs>
     <path id="DejaVuSans-43" d="M 4122 4306 
L 4122 3641 
Q 3803 3938 3442 4084 
Q 3081 4231 2675 4231 
Q 1875 4231 1450 3742 
Q 1025 3253 1025 2328 
Q 1025 1406 1450 917 
Q 1875 428 2675 428 
Q 3081 428 3442 575 
Q 3803 722 4122 1019 
L 4122 359 
Q 3791 134 3420 21 
Q 3050 -91 2638 -91 
Q 1578 -91 968 557 
Q 359 1206 359 2328 
Q 359 3453 968 4101 
Q 1578 4750 2638 4750 
Q 3056 4750 3426 4639 
Q 3797 4528 4122 4306 
z
" transform="scale(0.015625)"/>
     <path id="DejaVuSans-6f" d="M 1959 3097 
Q 1497 3097 1228 2736 
Q 959 2375 959 1747 
Q 959 1119 1226 758 
Q 1494 397 1959 397 
Q 2419 397 2687 759 
Q 2956 1122 2956 1747 
Q 2956 2369 2687 2733 
Q 2419 3097 1959 3097 
z
M 1959 3584 
Q 2709 3584 3137 3096 
Q 3566 2609 3566 1747 
Q 3566 888 3137 398 
Q 2709 -91 1959 -91 
Q 1206 -91 779 398 
Q 353 888 353 1747 
Q 353 2609 779 3096 
Q 1206 3584 1959 3584 
z
" transform="scale(0.015625)"/>
     <path id="DejaVuSans-6d" d="M 3328 2828 
Q 3544 3216 3844 3400 
Q 4144 3584 4550 3584 
Q 5097 3584 5394 3201 
Q 5691 2819 5691 2113 
L 5691 0 
L 5113 0 
L 5113 2094 
Q 5113 2597 4934 2840 
Q 4756 3084 4391 3084 
Q 3944 3084 3684 2787 
Q 3425 2491 3425 1978 
L 3425 0 
L 2847 0 
L 2847 2094 
Q 2847 2600 2669 2842 
Q 2491 3084 2119 3084 
Q 1678 3084 1418 2786 
Q 1159 2488 1159 1978 
L 1159 0 
L 581 0 
L 581 3500 
L 1159 3500 
L 1159 2956 
Q 1356 3278 1631 3431 
Q 1906 3584 2284 3584 
Q 2666 3584 2933 3390 
Q 3200 3197 3328 2828 
z
" transform="scale(0.015625)"/>
     <path id="DejaVuSans-6e" d="M 3513 2113 
L 3513 0 
L 2938 0 
L 2938 2094 
Q 2938 2591 2744 2837 
Q 2550 3084 2163 3084 
Q 1697 3084 1428 2787 
Q 1159 2491 1159 1978 
L 1159 0 
L 581 0 
L 581 3500 
L 1159 3500 
L 1159 2956 
Q 1366 3272 1645 3428 
Q 1925 3584 2291 3584 
Q 2894 3584 3203 3211 
Q 3513 2838 3513 2113 
z
" transform="scale(0.015625)"/>
     <path id="DejaVuSans-6b" d="M 581 4863 
L 1159 4863 
L 1159 1991 
L 2875 3500 
L 3609 3500 
L 1753 1863 
L 3688 0 
L 2938 0 
L 1159 1709 
L 1159 0 
L 581 0 
L 581 4863 
z
" transform="scale(0.015625)"/>
    </defs>
    <use xlink:href="#DejaVuSans-43"/>
    <use xlink:href="#DejaVuSans-6f" x="69.824219"/>
    <use xlink:href="#DejaVuSans-6d" x="131.005859"/>
    <use xlink:href="#DejaVuSans-70" x="228.417969"/>
    <use xlink:href="#DejaVuSans-6f" x="291.894531"/>
    <use xlink:href="#DejaVuSans-75" x="353.076172"/>
    <use xlink:href="#DejaVuSans-6e" x="416.455078"/>
    <use xlink:href="#DejaVuSans-64" x="479.833984"/>
    <use xlink:href="#DejaVuSans-20" x="543.310547"/>
    <use xlink:href="#DejaVuSans-36" x="575.097656"/>
    <use xlink:href="#DejaVuSans-30" x="638.720703"/>
    <use xlink:href="#DejaVuSans-2e" x="702.34375"/>
    <use xlink:href="#DejaVuSans-20" x="734.130859"/>
    <use xlink:href="#DejaVuSans-52" x="765.917969"/>
    <use xlink:href="#DejaVuSans-64" x="835.400391"/>
    <use xlink:href="#DejaVuSans-6b" x="898.876953"/>
    <use xlink:href="#DejaVuSans-69" x="956.787109"/>
    <use xlink:href="#DejaVuSans-74" x="984.570312"/>
   </g>
  </g>
 </g>
 <defs>
  <clipPath id="p8bc4c4af5d">
   <rect x="57.2825" y="47.04" width="54.7675" height="226.66"/>
  </clipPath>
  <clipPath id="p778cc23fe2">
   <rect x="170.57" y="47.04" width="54.7675" height="226.66"/>
  </clipPath>
  <clipPath id="p94bb7f6cb2">
   <rect x="283.8575" y="47.04" width="54.7675" height="226.66"/>
  </clipPath>
  <clipPath id="p48a6a50f60">
   <rect x="397.145" y="47.04" width="54.7675" height="226.66"/>
  </clipPath>
  <clipPath id="p50a6bcbef7">
   <rect x="510.4325" y="47.04" width="54.7675" height="226.66"/>
  </clipPath>
 </defs>
</svg>
