<?xml version="1.0" encoding="utf-8" standalone="no"?>
<!DOCTYPE svg PUBLIC "-//W3C//DTD SVG 1.1//EN"
  "http://www.w3.org/Graphics/SVG/1.1/DTD/svg11.dtd">
<svg xmlns:xlink="http://www.w3.org/1999/xlink" width="576pt" height="288pt" viewBox="0 0 576 288" xmlns="http://www.w3.org/2000/svg" version="1.1">
 <metadata>
  <rdf:RDF xmlns:dc="http://purl.org/dc/elements/1.1/" xmlns:cc="http://creativecommons.org/ns#" xmlns:rdf="http://www.w3.org/1999/02/22-rdf-syntax-ns#">
   <cc:Work>
    <dc:type rdf:resource="http://purl.org/dc/dcmitype/StillImage"/>
    <dc:date>2023-05-31T12:25:42.411256</dc:date>
    <dc:format>image/svg+xml</dc:format>
    <dc:creator>
     <cc:Agent>
      <dc:title>Matplotlib v3.5.3, https://matplotlib.org/</dc:title>
     </cc:Agent>
    </dc:creator>
   </cc:Work>
  </rdf:RDF>
 </metadata>
 <defs>
  <style type="text/css">*{stroke-linejoin: round; stroke-linecap: butt}</style>
 </defs>
 <g id="figure_1">
  <g id="patch_1">
   <path d="M 0 288 
L 576 288 
L 576 0 
L 0 0 
z
" style="fill: #ffffff"/>
  </g>
  <g id="axes_1">
   <g id="patch_2">
    <path d="M 50.8925 273.7 
L 106.344 273.7 
L 106.344 47.04 
L 50.8925 47.04 
z
" style="fill: #ffffff"/>
   </g>
   <g id="PolyCollection_1">
    <path d="M 80.782775 263.397273 
L 76.453725 263.397273 
L 75.917915 261.315914 
L 75.309582 259.234555 
L 74.632522 257.153196 
L 73.893612 255.071837 
L 73.102743 252.990478 
L 72.27227 250.909118 
L 71.415801 248.827759 
L 70.546231 246.7464 
L 69.673169 244.665041 
L 68.800254 242.583682 
L 67.923102 240.502323 
L 67.028804 238.420964 
L 66.097652 236.339605 
L 65.107282 234.258246 
L 64.038666 232.176887 
L 62.882664 230.095528 
L 61.645402 228.014169 
L 60.350871 225.93281 
L 59.039783 223.851451 
L 57.764706 221.770092 
L 56.582572 219.688733 
L 55.546294 217.607374 
L 54.697381 215.526015 
L 54.060977 213.444656 
L 53.643988 211.363297 
L 53.436111 209.281938 
L 53.413023 207.200579 
L 53.540758 205.119219 
L 53.78041 203.03786 
L 54.092557 200.956501 
L 54.441119 198.875142 
L 54.796488 196.793783 
L 55.137869 194.712424 
L 55.454736 192.631065 
L 55.747304 190.549706 
L 56.025896 188.468347 
L 56.30918 186.386988 
L 56.621322 184.305629 
L 56.988274 182.22427 
L 57.433578 180.142911 
L 57.974277 178.061552 
L 58.617575 175.980193 
L 59.358944 173.898834 
L 60.182151 171.817475 
L 61.061356 169.736116 
L 61.965015 167.654757 
L 62.860863 165.573398 
L 63.721017 163.492039 
L 64.52613 161.41068 
L 65.267769 159.32932 
L 65.948571 157.247961 
L 66.580277 155.166602 
L 67.180193 153.085243 
L 67.76695 151.003884 
L 68.356498 148.922525 
L 68.959095 146.841166 
L 69.577743 144.759807 
L 70.208151 142.678448 
L 70.839997 140.597089 
L 71.45909 138.51573 
L 72.049928 136.434371 
L 72.598215 134.353012 
L 73.092968 132.271653 
L 73.527937 130.190294 
L 73.902231 128.108935 
L 74.220127 126.027576 
L 74.490186 123.946217 
L 74.723887 121.864858 
L 74.934038 119.783499 
L 75.133194 117.70214 
L 75.3323 115.620781 
L 75.539662 113.539421 
L 75.760326 111.458062 
L 75.995865 109.376703 
L 76.244557 107.295344 
L 76.501939 105.213985 
L 76.761626 103.132626 
L 77.016308 101.051267 
L 77.25875 98.969908 
L 77.482644 96.888549 
L 77.683179 94.80719 
L 77.857275 92.725831 
L 78.003513 90.644472 
L 78.121865 88.563113 
L 78.213344 86.481754 
L 78.279714 84.400395 
L 78.323301 82.319036 
L 78.346907 80.237677 
L 78.353789 78.156318 
L 78.347622 76.074959 
L 78.33239 73.9936 
L 78.312209 71.912241 
L 78.291068 69.830882 
L 78.272567 67.749522 
L 78.259667 65.668163 
L 78.254512 63.586804 
L 78.258327 61.505445 
L 78.271395 59.424086 
L 78.293113 57.342727 
L 78.943387 57.342727 
L 78.943387 57.342727 
L 78.965105 59.424086 
L 78.978173 61.505445 
L 78.981988 63.586804 
L 78.976833 65.668163 
L 78.963933 67.749522 
L 78.945432 69.830882 
L 78.924291 71.912241 
L 78.90411 73.9936 
L 78.888878 76.074959 
L 78.882711 78.156318 
L 78.889593 80.237677 
L 78.913199 82.319036 
L 78.956786 84.400395 
L 79.023156 86.481754 
L 79.114635 88.563113 
L 79.232987 90.644472 
L 79.379225 92.725831 
L 79.553321 94.80719 
L 79.753856 96.888549 
L 79.97775 98.969908 
L 80.220192 101.051267 
L 80.474874 103.132626 
L 80.734561 105.213985 
L 80.991943 107.295344 
L 81.240635 109.376703 
L 81.476174 111.458062 
L 81.696838 113.539421 
L 81.9042 115.620781 
L 82.103306 117.70214 
L 82.302462 119.783499 
L 82.512613 121.864858 
L 82.746314 123.946217 
L 83.016373 126.027576 
L 83.334269 128.108935 
L 83.708563 130.190294 
L 84.143532 132.271653 
L 84.638285 134.353012 
L 85.186572 136.434371 
L 85.77741 138.51573 
L 86.396503 140.597089 
L 87.028349 142.678448 
L 87.658757 144.759807 
L 88.277405 146.841166 
L 88.880002 148.922525 
L 89.46955 151.003884 
L 90.056307 153.085243 
L 90.656223 155.166602 
L 91.287929 157.247961 
L 91.968731 159.32932 
L 92.71037 161.41068 
L 93.515483 163.492039 
L 94.375637 165.573398 
L 95.271485 167.654757 
L 96.175144 169.736116 
L 97.054349 171.817475 
L 97.877556 173.898834 
L 98.618925 175.980193 
L 99.262223 178.061552 
L 99.802922 180.142911 
L 100.248226 182.22427 
L 100.615178 184.305629 
L 100.92732 186.386988 
L 101.210604 188.468347 
L 101.489196 190.549706 
L 101.781764 192.631065 
L 102.098631 194.712424 
L 102.440012 196.793783 
L 102.795381 198.875142 
L 103.143943 200.956501 
L 103.45609 203.03786 
L 103.695742 205.119219 
L 103.823477 207.200579 
L 103.800389 209.281938 
L 103.592512 211.363297 
L 103.175523 213.444656 
L 102.539119 215.526015 
L 101.690206 217.607374 
L 100.653928 219.688733 
L 99.471794 221.770092 
L 98.196717 223.851451 
L 96.885629 225.93281 
L 95.591098 228.014169 
L 94.353836 230.095528 
L 93.197834 232.176887 
L 92.129218 234.258246 
L 91.138848 236.339605 
L 90.207696 238.420964 
L 89.313398 240.502323 
L 88.436246 242.583682 
L 87.563331 244.665041 
L 86.690269 246.7464 
L 85.820699 248.827759 
L 84.96423 250.909118 
L 84.133757 252.990478 
L 83.342888 255.071837 
L 82.603978 257.153196 
L 81.926918 259.234555 
L 81.318585 261.315914 
L 80.782775 263.397273 
z
" clip-path="url(#pf20dc18045)" style="fill: #1f77b4; fill-opacity: 0.3"/>
   </g>
   <g id="matplotlib.axis_1">
    <g id="ytick_1">
     <g id="line2d_1">
      <defs>
       <path id="m2efc8ab32d" d="M 0 0 
L -3.5 0 
" style="stroke: #000000; stroke-width: 0.8"/>
      </defs>
      <g>
       <use xlink:href="#m2efc8ab32d" x="50.8925" y="254.926415" style="stroke: #000000; stroke-width: 0.8"/>
      </g>
     </g>
     <g id="text_1">
      <!-- 0.8 -->
      <g transform="translate(27.989375 258.725633)scale(0.1 -0.1)">
       <defs>
        <path id="DejaVuSans-30" d="M 2034 4250 
Q 1547 4250 1301 3770 
Q 1056 3291 1056 2328 
Q 1056 1369 1301 889 
Q 1547 409 2034 409 
Q 2525 409 2770 889 
Q 3016 1369 3016 2328 
Q 3016 3291 2770 3770 
Q 2525 4250 2034 4250 
z
M 2034 4750 
Q 2819 4750 3233 4129 
Q 3647 3509 3647 2328 
Q 3647 1150 3233 529 
Q 2819 -91 2034 -91 
Q 1250 -91 836 529 
Q 422 1150 422 2328 
Q 422 3509 836 4129 
Q 1250 4750 2034 4750 
z
" transform="scale(0.015625)"/>
        <path id="DejaVuSans-2e" d="M 684 794 
L 1344 794 
L 1344 0 
L 684 0 
L 684 794 
z
" transform="scale(0.015625)"/>
        <path id="DejaVuSans-38" d="M 2034 2216 
Q 1584 2216 1326 1975 
Q 1069 1734 1069 1313 
Q 1069 891 1326 650 
Q 1584 409 2034 409 
Q 2484 409 2743 651 
Q 3003 894 3003 1313 
Q 3003 1734 2745 1975 
Q 2488 2216 2034 2216 
z
M 1403 2484 
Q 997 2584 770 2862 
Q 544 3141 544 3541 
Q 544 4100 942 4425 
Q 1341 4750 2034 4750 
Q 2731 4750 3128 4425 
Q 3525 4100 3525 3541 
Q 3525 3141 3298 2862 
Q 3072 2584 2669 2484 
Q 3125 2378 3379 2068 
Q 3634 1759 3634 1313 
Q 3634 634 3220 271 
Q 2806 -91 2034 -91 
Q 1263 -91 848 271 
Q 434 634 434 1313 
Q 434 1759 690 2068 
Q 947 2378 1403 2484 
z
M 1172 3481 
Q 1172 3119 1398 2916 
Q 1625 2713 2034 2713 
Q 2441 2713 2670 2916 
Q 2900 3119 2900 3481 
Q 2900 3844 2670 4047 
Q 2441 4250 2034 4250 
Q 1625 4250 1398 4047 
Q 1172 3844 1172 3481 
z
" transform="scale(0.015625)"/>
       </defs>
       <use xlink:href="#DejaVuSans-30"/>
       <use xlink:href="#DejaVuSans-2e" x="63.623047"/>
       <use xlink:href="#DejaVuSans-38" x="95.410156"/>
      </g>
     </g>
    </g>
    <g id="ytick_2">
     <g id="line2d_2">
      <g>
       <use xlink:href="#m2efc8ab32d" x="50.8925" y="215.55296" style="stroke: #000000; stroke-width: 0.8"/>
      </g>
     </g>
     <g id="text_2">
      <!-- 1.0 -->
      <g transform="translate(27.989375 219.352179)scale(0.1 -0.1)">
       <defs>
        <path id="DejaVuSans-31" d="M 794 531 
L 1825 531 
L 1825 4091 
L 703 3866 
L 703 4441 
L 1819 4666 
L 2450 4666 
L 2450 531 
L 3481 531 
L 3481 0 
L 794 0 
L 794 531 
z
" transform="scale(0.015625)"/>
       </defs>
       <use xlink:href="#DejaVuSans-31"/>
       <use xlink:href="#DejaVuSans-2e" x="63.623047"/>
       <use xlink:href="#DejaVuSans-30" x="95.410156"/>
      </g>
     </g>
    </g>
    <g id="ytick_3">
     <g id="line2d_3">
      <g>
       <use xlink:href="#m2efc8ab32d" x="50.8925" y="176.179505" style="stroke: #000000; stroke-width: 0.8"/>
      </g>
     </g>
     <g id="text_3">
      <!-- 1.2 -->
      <g transform="translate(27.989375 179.978724)scale(0.1 -0.1)">
       <defs>
        <path id="DejaVuSans-32" d="M 1228 531 
L 3431 531 
L 3431 0 
L 469 0 
L 469 531 
Q 828 903 1448 1529 
Q 2069 2156 2228 2338 
Q 2531 2678 2651 2914 
Q 2772 3150 2772 3378 
Q 2772 3750 2511 3984 
Q 2250 4219 1831 4219 
Q 1534 4219 1204 4116 
Q 875 4013 500 3803 
L 500 4441 
Q 881 4594 1212 4672 
Q 1544 4750 1819 4750 
Q 2544 4750 2975 4387 
Q 3406 4025 3406 3419 
Q 3406 3131 3298 2873 
Q 3191 2616 2906 2266 
Q 2828 2175 2409 1742 
Q 1991 1309 1228 531 
z
" transform="scale(0.015625)"/>
       </defs>
       <use xlink:href="#DejaVuSans-31"/>
       <use xlink:href="#DejaVuSans-2e" x="63.623047"/>
       <use xlink:href="#DejaVuSans-32" x="95.410156"/>
      </g>
     </g>
    </g>
    <g id="ytick_4">
     <g id="line2d_4">
      <g>
       <use xlink:href="#m2efc8ab32d" x="50.8925" y="136.806051" style="stroke: #000000; stroke-width: 0.8"/>
      </g>
     </g>
     <g id="text_4">
      <!-- 1.4 -->
      <g transform="translate(27.989375 140.605269)scale(0.1 -0.1)">
       <defs>
        <path id="DejaVuSans-34" d="M 2419 4116 
L 825 1625 
L 2419 1625 
L 2419 4116 
z
M 2253 4666 
L 3047 4666 
L 3047 1625 
L 3713 1625 
L 3713 1100 
L 3047 1100 
L 3047 0 
L 2419 0 
L 2419 1100 
L 313 1100 
L 313 1709 
L 2253 4666 
z
" transform="scale(0.015625)"/>
       </defs>
       <use xlink:href="#DejaVuSans-31"/>
       <use xlink:href="#DejaVuSans-2e" x="63.623047"/>
       <use xlink:href="#DejaVuSans-34" x="95.410156"/>
      </g>
     </g>
    </g>
    <g id="ytick_5">
     <g id="line2d_5">
      <g>
       <use xlink:href="#m2efc8ab32d" x="50.8925" y="97.432596" style="stroke: #000000; stroke-width: 0.8"/>
      </g>
     </g>
     <g id="text_5">
      <!-- 1.6 -->
      <g transform="translate(27.989375 101.231815)scale(0.1 -0.1)">
       <defs>
        <path id="DejaVuSans-36" d="M 2113 2584 
Q 1688 2584 1439 2293 
Q 1191 2003 1191 1497 
Q 1191 994 1439 701 
Q 1688 409 2113 409 
Q 2538 409 2786 701 
Q 3034 994 3034 1497 
Q 3034 2003 2786 2293 
Q 2538 2584 2113 2584 
z
M 3366 4563 
L 3366 3988 
Q 3128 4100 2886 4159 
Q 2644 4219 2406 4219 
Q 1781 4219 1451 3797 
Q 1122 3375 1075 2522 
Q 1259 2794 1537 2939 
Q 1816 3084 2150 3084 
Q 2853 3084 3261 2657 
Q 3669 2231 3669 1497 
Q 3669 778 3244 343 
Q 2819 -91 2113 -91 
Q 1303 -91 875 529 
Q 447 1150 447 2328 
Q 447 3434 972 4092 
Q 1497 4750 2381 4750 
Q 2619 4750 2861 4703 
Q 3103 4656 3366 4563 
z
" transform="scale(0.015625)"/>
       </defs>
       <use xlink:href="#DejaVuSans-31"/>
       <use xlink:href="#DejaVuSans-2e" x="63.623047"/>
       <use xlink:href="#DejaVuSans-36" x="95.410156"/>
      </g>
     </g>
    </g>
    <g id="ytick_6">
     <g id="line2d_6">
      <g>
       <use xlink:href="#m2efc8ab32d" x="50.8925" y="58.059141" style="stroke: #000000; stroke-width: 0.8"/>
      </g>
     </g>
     <g id="text_6">
      <!-- 1.8 -->
      <g transform="translate(27.989375 61.85836)scale(0.1 -0.1)">
       <use xlink:href="#DejaVuSans-31"/>
       <use xlink:href="#DejaVuSans-2e" x="63.623047"/>
       <use xlink:href="#DejaVuSans-38" x="95.410156"/>
      </g>
     </g>
    </g>
    <g id="text_7">
     <!-- RMSD [$\AA$] -->
     <g transform="translate(21.909688 184.12)rotate(-90)scale(0.1 -0.1)">
      <defs>
       <path id="DejaVuSans-52" d="M 2841 2188 
Q 3044 2119 3236 1894 
Q 3428 1669 3622 1275 
L 4263 0 
L 3584 0 
L 2988 1197 
Q 2756 1666 2539 1819 
Q 2322 1972 1947 1972 
L 1259 1972 
L 1259 0 
L 628 0 
L 628 4666 
L 2053 4666 
Q 2853 4666 3247 4331 
Q 3641 3997 3641 3322 
Q 3641 2881 3436 2590 
Q 3231 2300 2841 2188 
z
M 1259 4147 
L 1259 2491 
L 2053 2491 
Q 2509 2491 2742 2702 
Q 2975 2913 2975 3322 
Q 2975 3731 2742 3939 
Q 2509 4147 2053 4147 
L 1259 4147 
z
" transform="scale(0.015625)"/>
       <path id="DejaVuSans-4d" d="M 628 4666 
L 1569 4666 
L 2759 1491 
L 3956 4666 
L 4897 4666 
L 4897 0 
L 4281 0 
L 4281 4097 
L 3078 897 
L 2444 897 
L 1241 4097 
L 1241 0 
L 628 0 
L 628 4666 
z
" transform="scale(0.015625)"/>
       <path id="DejaVuSans-53" d="M 3425 4513 
L 3425 3897 
Q 3066 4069 2747 4153 
Q 2428 4238 2131 4238 
Q 1616 4238 1336 4038 
Q 1056 3838 1056 3469 
Q 1056 3159 1242 3001 
Q 1428 2844 1947 2747 
L 2328 2669 
Q 3034 2534 3370 2195 
Q 3706 1856 3706 1288 
Q 3706 609 3251 259 
Q 2797 -91 1919 -91 
Q 1588 -91 1214 -16 
Q 841 59 441 206 
L 441 856 
Q 825 641 1194 531 
Q 1563 422 1919 422 
Q 2459 422 2753 634 
Q 3047 847 3047 1241 
Q 3047 1584 2836 1778 
Q 2625 1972 2144 2069 
L 1759 2144 
Q 1053 2284 737 2584 
Q 422 2884 422 3419 
Q 422 4038 858 4394 
Q 1294 4750 2059 4750 
Q 2388 4750 2728 4690 
Q 3069 4631 3425 4513 
z
" transform="scale(0.015625)"/>
       <path id="DejaVuSans-44" d="M 1259 4147 
L 1259 519 
L 2022 519 
Q 2988 519 3436 956 
Q 3884 1394 3884 2338 
Q 3884 3275 3436 3711 
Q 2988 4147 2022 4147 
L 1259 4147 
z
M 628 4666 
L 1925 4666 
Q 3281 4666 3915 4102 
Q 4550 3538 4550 2338 
Q 4550 1131 3912 565 
Q 3275 0 1925 0 
L 628 0 
L 628 4666 
z
" transform="scale(0.015625)"/>
       <path id="DejaVuSans-20" transform="scale(0.015625)"/>
       <path id="DejaVuSans-5b" d="M 550 4863 
L 1875 4863 
L 1875 4416 
L 1125 4416 
L 1125 -397 
L 1875 -397 
L 1875 -844 
L 550 -844 
L 550 4863 
z
" transform="scale(0.015625)"/>
       <path id="DejaVuSans-Oblique-c5" d="M 3188 5081 
Q 3188 5278 3048 5417 
Q 2909 5556 2713 5556 
Q 2513 5556 2377 5420 
Q 2241 5284 2241 5081 
Q 2241 4884 2377 4746 
Q 2513 4609 2713 4609 
Q 2909 4609 3048 4746 
Q 3188 4884 3188 5081 
z
M 2203 4397 
Q 2034 4513 1945 4689 
Q 1856 4866 1856 5081 
Q 1856 5438 2106 5689 
Q 2356 5941 2713 5941 
Q 3069 5941 3320 5689 
Q 3572 5438 3572 5081 
Q 3572 4834 3458 4643 
Q 3344 4453 3128 4341 
L 3938 0 
L 3278 0 
L 3084 1197 
L 984 1197 
L 325 0 
L -341 0 
L 2203 4397 
z
M 2584 4044 
L 1275 1722 
L 2988 1722 
L 2584 4044 
z
" transform="scale(0.015625)"/>
       <path id="DejaVuSans-5d" d="M 1947 4863 
L 1947 -844 
L 622 -844 
L 622 -397 
L 1369 -397 
L 1369 4416 
L 622 4416 
L 622 4863 
L 1947 4863 
z
" transform="scale(0.015625)"/>
      </defs>
      <use xlink:href="#DejaVuSans-52" transform="translate(0 0.171875)"/>
      <use xlink:href="#DejaVuSans-4d" transform="translate(69.482422 0.171875)"/>
      <use xlink:href="#DejaVuSans-53" transform="translate(155.761719 0.171875)"/>
      <use xlink:href="#DejaVuSans-44" transform="translate(219.238281 0.171875)"/>
      <use xlink:href="#DejaVuSans-20" transform="translate(296.240234 0.171875)"/>
      <use xlink:href="#DejaVuSans-5b" transform="translate(328.027344 0.171875)"/>
      <use xlink:href="#DejaVuSans-Oblique-c5" transform="translate(367.041016 0.171875)"/>
      <use xlink:href="#DejaVuSans-5d" transform="translate(435.449219 0.171875)"/>
     </g>
    </g>
   </g>
   <g id="LineCollection_1">
    <path d="M 66.015636 191.812738 
L 91.220864 191.812738 
" clip-path="url(#pf20dc18045)" style="fill: none; stroke: #1f77b4; stroke-width: 1.5"/>
   </g>
   <g id="LineCollection_2">
    <path d="M 66.015636 57.342727 
L 91.220864 57.342727 
" clip-path="url(#pf20dc18045)" style="fill: none; stroke: #1f77b4; stroke-width: 1.5"/>
   </g>
   <g id="LineCollection_3">
    <path d="M 66.015636 263.397273 
L 91.220864 263.397273 
" clip-path="url(#pf20dc18045)" style="fill: none; stroke: #1f77b4; stroke-width: 1.5"/>
   </g>
   <g id="LineCollection_4">
    <path d="M 78.61825 263.397273 
L 78.61825 57.342727 
" clip-path="url(#pf20dc18045)" style="fill: none; stroke: #1f77b4; stroke-width: 1.5"/>
   </g>
   <g id="patch_3">
    <path d="M 50.8925 273.7 
L 50.8925 47.04 
" style="fill: none; stroke: #000000; stroke-width: 0.8; stroke-linejoin: miter; stroke-linecap: square"/>
   </g>
   <g id="patch_4">
    <path d="M 106.344 273.7 
L 106.344 47.04 
" style="fill: none; stroke: #000000; stroke-width: 0.8; stroke-linejoin: miter; stroke-linecap: square"/>
   </g>
   <g id="patch_5">
    <path d="M 50.8925 273.7 
L 106.344 273.7 
" style="fill: none; stroke: #000000; stroke-width: 0.8; stroke-linejoin: miter; stroke-linecap: square"/>
   </g>
   <g id="patch_6">
    <path d="M 50.8925 47.04 
L 106.344 47.04 
" style="fill: none; stroke: #000000; stroke-width: 0.8; stroke-linejoin: miter; stroke-linecap: square"/>
   </g>
   <g id="text_8">
    <!-- RMSD -->
    <g transform="translate(60.84325 41.04)scale(0.12 -0.12)">
     <use xlink:href="#DejaVuSans-52"/>
     <use xlink:href="#DejaVuSans-4d" x="69.482422"/>
     <use xlink:href="#DejaVuSans-53" x="155.761719"/>
     <use xlink:href="#DejaVuSans-44" x="219.238281"/>
    </g>
   </g>
  </g>
  <g id="axes_2">
   <g id="patch_7">
    <path d="M 165.6065 273.7 
L 221.058 273.7 
L 221.058 47.04 
L 165.6065 47.04 
z
" style="fill: #ffffff"/>
   </g>
   <g id="PolyCollection_2">
    <path d="M 194.296946 263.397273 
L 192.367554 263.397273 
L 192.182454 261.315914 
L 191.974897 259.234555 
L 191.740345 257.153196 
L 191.472287 255.071837 
L 191.162503 252.990478 
L 190.801875 250.909118 
L 190.381736 248.827759 
L 189.895571 246.7464 
L 189.340766 244.665041 
L 188.719947 242.583682 
L 188.04149 240.502323 
L 187.31889 238.420964 
L 186.568954 236.339605 
L 185.809089 234.258246 
L 185.054245 232.176887 
L 184.314251 230.095528 
L 183.592209 228.014169 
L 182.884394 225.93281 
L 182.181721 223.851451 
L 181.47241 221.770092 
L 180.745165 219.688733 
L 179.992096 217.607374 
L 179.210653 215.526015 
L 178.404212 213.444656 
L 177.58126 211.363297 
L 176.75356 209.281938 
L 175.933853 207.200579 
L 175.133752 205.119219 
L 174.362328 203.03786 
L 173.625657 200.956501 
L 172.927275 198.875142 
L 172.269232 196.793783 
L 171.653267 194.712424 
L 171.081652 192.631065 
L 170.55738 190.549706 
L 170.08366 188.468347 
L 169.662968 186.386988 
L 169.296092 184.305629 
L 168.981704 182.22427 
L 168.716822 180.142911 
L 168.498235 178.061552 
L 168.324588 175.980193 
L 168.198519 173.898834 
L 168.128111 171.817475 
L 168.127023 169.736116 
L 168.213015 167.654757 
L 168.405041 165.573398 
L 168.719505 163.492039 
L 169.166544 161.41068 
L 169.747215 159.32932 
L 170.452219 157.247961 
L 171.262401 155.166602 
L 172.150818 153.085243 
L 173.085889 151.003884 
L 174.03494 148.922525 
L 174.967569 146.841166 
L 175.858397 144.759807 
L 176.689021 142.678448 
L 177.449132 140.597089 
L 178.136856 138.51573 
L 178.75837 136.434371 
L 179.326777 134.353012 
L 179.860268 132.271653 
L 180.379613 130.190294 
L 180.905225 128.108935 
L 181.454175 126.027576 
L 182.03767 123.946217 
L 182.659484 121.864858 
L 183.315699 119.783499 
L 183.995784 117.70214 
L 184.684782 115.620781 
L 185.366077 113.539421 
L 186.024142 111.458062 
L 186.646695 109.376703 
L 187.225928 107.295344 
L 187.758707 105.213985 
L 188.245896 103.132626 
L 188.691116 101.051267 
L 189.099309 98.969908 
L 189.475406 96.888549 
L 189.823341 94.80719 
L 190.145505 92.725831 
L 190.442667 90.644472 
L 190.714275 88.563113 
L 190.95905 86.481754 
L 191.175704 84.400395 
L 191.36365 82.319036 
L 191.523541 80.237677 
L 191.657563 78.156318 
L 191.769415 76.074959 
L 191.863997 73.9936 
L 191.946894 71.912241 
L 192.023742 69.830882 
L 192.099611 67.749522 
L 192.178493 65.668163 
L 192.262965 63.586804 
L 192.354052 61.505445 
L 192.451297 59.424086 
L 192.552987 57.342727 
L 194.111513 57.342727 
L 194.111513 57.342727 
L 194.213203 59.424086 
L 194.310448 61.505445 
L 194.401535 63.586804 
L 194.486007 65.668163 
L 194.564889 67.749522 
L 194.640758 69.830882 
L 194.717606 71.912241 
L 194.800503 73.9936 
L 194.895085 76.074959 
L 195.006937 78.156318 
L 195.140959 80.237677 
L 195.30085 82.319036 
L 195.488796 84.400395 
L 195.70545 86.481754 
L 195.950225 88.563113 
L 196.221833 90.644472 
L 196.518995 92.725831 
L 196.841159 94.80719 
L 197.189094 96.888549 
L 197.565191 98.969908 
L 197.973384 101.051267 
L 198.418604 103.132626 
L 198.905793 105.213985 
L 199.438572 107.295344 
L 200.017805 109.376703 
L 200.640358 111.458062 
L 201.298423 113.539421 
L 201.979718 115.620781 
L 202.668716 117.70214 
L 203.348801 119.783499 
L 204.005016 121.864858 
L 204.62683 123.946217 
L 205.210325 126.027576 
L 205.759275 128.108935 
L 206.284887 130.190294 
L 206.804232 132.271653 
L 207.337723 134.353012 
L 207.90613 136.434371 
L 208.527644 138.51573 
L 209.215368 140.597089 
L 209.975479 142.678448 
L 210.806103 144.759807 
L 211.696931 146.841166 
L 212.62956 148.922525 
L 213.578611 151.003884 
L 214.513682 153.085243 
L 215.402099 155.166602 
L 216.212281 157.247961 
L 216.917285 159.32932 
L 217.497956 161.41068 
L 217.944995 163.492039 
L 218.259459 165.573398 
L 218.451485 167.654757 
L 218.537477 169.736116 
L 218.536389 171.817475 
L 218.465981 173.898834 
L 218.339912 175.980193 
L 218.166265 178.061552 
L 217.947678 180.142911 
L 217.682796 182.22427 
L 217.368408 184.305629 
L 217.001532 186.386988 
L 216.58084 188.468347 
L 216.10712 190.549706 
L 215.582848 192.631065 
L 215.011233 194.712424 
L 214.395268 196.793783 
L 213.737225 198.875142 
L 213.038843 200.956501 
L 212.302172 203.03786 
L 211.530748 205.119219 
L 210.730647 207.200579 
L 209.91094 209.281938 
L 209.08324 211.363297 
L 208.260288 213.444656 
L 207.453847 215.526015 
L 206.672404 217.607374 
L 205.919335 219.688733 
L 205.19209 221.770092 
L 204.482779 223.851451 
L 203.780106 225.93281 
L 203.072291 228.014169 
L 202.350249 230.095528 
L 201.610255 232.176887 
L 200.855411 234.258246 
L 200.095546 236.339605 
L 199.34561 238.420964 
L 198.62301 240.502323 
L 197.944553 242.583682 
L 197.323734 244.665041 
L 196.768929 246.7464 
L 196.282764 248.827759 
L 195.862625 250.909118 
L 195.501997 252.990478 
L 195.192213 255.071837 
L 194.924155 257.153196 
L 194.689603 259.234555 
L 194.482046 261.315914 
L 194.296946 263.397273 
z
" clip-path="url(#p144c8eb423)" style="fill: #1f77b4; fill-opacity: 0.3"/>
   </g>
   <g id="matplotlib.axis_2">
    <g id="ytick_7">
     <g id="line2d_7">
      <g>
       <use xlink:href="#m2efc8ab32d" x="165.6065" y="256.177358" style="stroke: #000000; stroke-width: 0.8"/>
      </g>
     </g>
     <g id="text_9">
      <!-- 0.6 -->
      <g transform="translate(142.703375 259.976577)scale(0.1 -0.1)">
       <use xlink:href="#DejaVuSans-30"/>
       <use xlink:href="#DejaVuSans-2e" x="63.623047"/>
       <use xlink:href="#DejaVuSans-36" x="95.410156"/>
      </g>
     </g>
    </g>
    <g id="ytick_8">
     <g id="line2d_8">
      <g>
       <use xlink:href="#m2efc8ab32d" x="165.6065" y="212.009995" style="stroke: #000000; stroke-width: 0.8"/>
      </g>
     </g>
     <g id="text_10">
      <!-- 0.7 -->
      <g transform="translate(142.703375 215.809213)scale(0.1 -0.1)">
       <defs>
        <path id="DejaVuSans-37" d="M 525 4666 
L 3525 4666 
L 3525 4397 
L 1831 0 
L 1172 0 
L 2766 4134 
L 525 4134 
L 525 4666 
z
" transform="scale(0.015625)"/>
       </defs>
       <use xlink:href="#DejaVuSans-30"/>
       <use xlink:href="#DejaVuSans-2e" x="63.623047"/>
       <use xlink:href="#DejaVuSans-37" x="95.410156"/>
      </g>
     </g>
    </g>
    <g id="ytick_9">
     <g id="line2d_9">
      <g>
       <use xlink:href="#m2efc8ab32d" x="165.6065" y="167.842631" style="stroke: #000000; stroke-width: 0.8"/>
      </g>
     </g>
     <g id="text_11">
      <!-- 0.8 -->
      <g transform="translate(142.703375 171.641849)scale(0.1 -0.1)">
       <use xlink:href="#DejaVuSans-30"/>
       <use xlink:href="#DejaVuSans-2e" x="63.623047"/>
       <use xlink:href="#DejaVuSans-38" x="95.410156"/>
      </g>
     </g>
    </g>
    <g id="ytick_10">
     <g id="line2d_10">
      <g>
       <use xlink:href="#m2efc8ab32d" x="165.6065" y="123.675267" style="stroke: #000000; stroke-width: 0.8"/>
      </g>
     </g>
     <g id="text_12">
      <!-- 0.9 -->
      <g transform="translate(142.703375 127.474485)scale(0.1 -0.1)">
       <defs>
        <path id="DejaVuSans-39" d="M 703 97 
L 703 672 
Q 941 559 1184 500 
Q 1428 441 1663 441 
Q 2288 441 2617 861 
Q 2947 1281 2994 2138 
Q 2813 1869 2534 1725 
Q 2256 1581 1919 1581 
Q 1219 1581 811 2004 
Q 403 2428 403 3163 
Q 403 3881 828 4315 
Q 1253 4750 1959 4750 
Q 2769 4750 3195 4129 
Q 3622 3509 3622 2328 
Q 3622 1225 3098 567 
Q 2575 -91 1691 -91 
Q 1453 -91 1209 -44 
Q 966 3 703 97 
z
M 1959 2075 
Q 2384 2075 2632 2365 
Q 2881 2656 2881 3163 
Q 2881 3666 2632 3958 
Q 2384 4250 1959 4250 
Q 1534 4250 1286 3958 
Q 1038 3666 1038 3163 
Q 1038 2656 1286 2365 
Q 1534 2075 1959 2075 
z
" transform="scale(0.015625)"/>
       </defs>
       <use xlink:href="#DejaVuSans-30"/>
       <use xlink:href="#DejaVuSans-2e" x="63.623047"/>
       <use xlink:href="#DejaVuSans-39" x="95.410156"/>
      </g>
     </g>
    </g>
    <g id="ytick_11">
     <g id="line2d_11">
      <g>
       <use xlink:href="#m2efc8ab32d" x="165.6065" y="79.507903" style="stroke: #000000; stroke-width: 0.8"/>
      </g>
     </g>
     <g id="text_13">
      <!-- 1.0 -->
      <g transform="translate(142.703375 83.307121)scale(0.1 -0.1)">
       <use xlink:href="#DejaVuSans-31"/>
       <use xlink:href="#DejaVuSans-2e" x="63.623047"/>
       <use xlink:href="#DejaVuSans-30" x="95.410156"/>
      </g>
     </g>
    </g>
    <g id="text_14">
     <!-- MAE [$\AA$] -->
     <g transform="translate(136.623687 180.22)rotate(-90)scale(0.1 -0.1)">
      <defs>
       <path id="DejaVuSans-41" d="M 2188 4044 
L 1331 1722 
L 3047 1722 
L 2188 4044 
z
M 1831 4666 
L 2547 4666 
L 4325 0 
L 3669 0 
L 3244 1197 
L 1141 1197 
L 716 0 
L 50 0 
L 1831 4666 
z
" transform="scale(0.015625)"/>
       <path id="DejaVuSans-45" d="M 628 4666 
L 3578 4666 
L 3578 4134 
L 1259 4134 
L 1259 2753 
L 3481 2753 
L 3481 2222 
L 1259 2222 
L 1259 531 
L 3634 531 
L 3634 0 
L 628 0 
L 628 4666 
z
" transform="scale(0.015625)"/>
      </defs>
      <use xlink:href="#DejaVuSans-4d" transform="translate(0 0.171875)"/>
      <use xlink:href="#DejaVuSans-41" transform="translate(86.279297 0.171875)"/>
      <use xlink:href="#DejaVuSans-45" transform="translate(154.6875 0.171875)"/>
      <use xlink:href="#DejaVuSans-20" transform="translate(217.871094 0.171875)"/>
      <use xlink:href="#DejaVuSans-5b" transform="translate(249.658203 0.171875)"/>
      <use xlink:href="#DejaVuSans-Oblique-c5" transform="translate(288.671875 0.171875)"/>
      <use xlink:href="#DejaVuSans-5d" transform="translate(357.080078 0.171875)"/>
     </g>
    </g>
   </g>
   <g id="LineCollection_5">
    <path d="M 180.729636 171.541058 
L 205.934864 171.541058 
" clip-path="url(#p144c8eb423)" style="fill: none; stroke: #1f77b4; stroke-width: 1.5"/>
   </g>
   <g id="LineCollection_6">
    <path d="M 180.729636 57.342727 
L 205.934864 57.342727 
" clip-path="url(#p144c8eb423)" style="fill: none; stroke: #1f77b4; stroke-width: 1.5"/>
   </g>
   <g id="LineCollection_7">
    <path d="M 180.729636 263.397273 
L 205.934864 263.397273 
" clip-path="url(#p144c8eb423)" style="fill: none; stroke: #1f77b4; stroke-width: 1.5"/>
   </g>
   <g id="LineCollection_8">
    <path d="M 193.33225 263.397273 
L 193.33225 57.342727 
" clip-path="url(#p144c8eb423)" style="fill: none; stroke: #1f77b4; stroke-width: 1.5"/>
   </g>
   <g id="patch_8">
    <path d="M 165.6065 273.7 
L 165.6065 47.04 
" style="fill: none; stroke: #000000; stroke-width: 0.8; stroke-linejoin: miter; stroke-linecap: square"/>
   </g>
   <g id="patch_9">
    <path d="M 221.058 273.7 
L 221.058 47.04 
" style="fill: none; stroke: #000000; stroke-width: 0.8; stroke-linejoin: miter; stroke-linecap: square"/>
   </g>
   <g id="patch_10">
    <path d="M 165.6065 273.7 
L 221.058 273.7 
" style="fill: none; stroke: #000000; stroke-width: 0.8; stroke-linejoin: miter; stroke-linecap: square"/>
   </g>
   <g id="patch_11">
    <path d="M 165.6065 47.04 
L 221.058 47.04 
" style="fill: none; stroke: #000000; stroke-width: 0.8; stroke-linejoin: miter; stroke-linecap: square"/>
   </g>
   <g id="text_15">
    <!-- MAE -->
    <g transform="translate(180.25975 41.04)scale(0.12 -0.12)">
     <use xlink:href="#DejaVuSans-4d"/>
     <use xlink:href="#DejaVuSans-41" x="86.279297"/>
     <use xlink:href="#DejaVuSans-45" x="154.6875"/>
    </g>
   </g>
  </g>
  <g id="axes_3">
   <g id="patch_12">
    <path d="M 280.3205 273.7 
L 335.772 273.7 
L 335.772 47.04 
L 280.3205 47.04 
z
" style="fill: #ffffff"/>
   </g>
   <g id="PolyCollection_3">
    <path d="M 308.599792 263.397273 
L 307.492708 263.397273 
L 307.396391 261.315914 
L 307.28922 259.234555 
L 307.170072 257.153196 
L 307.037736 255.071837 
L 306.890937 252.990478 
L 306.728314 250.909118 
L 306.548382 248.827759 
L 306.349477 246.7464 
L 306.129746 244.665041 
L 305.887206 242.583682 
L 305.619882 240.502323 
L 305.326026 238.420964 
L 305.004364 236.339605 
L 304.654327 234.258246 
L 304.276209 232.176887 
L 303.871223 230.095528 
L 303.441459 228.014169 
L 302.989761 225.93281 
L 302.519597 223.851451 
L 302.034949 221.770092 
L 301.540259 219.688733 
L 301.04042 217.607374 
L 300.54074 215.526015 
L 300.046801 213.444656 
L 299.564105 211.363297 
L 299.097439 209.281938 
L 298.649984 207.200579 
L 298.222254 205.119219 
L 297.811097 203.03786 
L 297.409027 200.956501 
L 297.004174 198.875142 
L 296.581039 196.793783 
L 296.122106 194.712424 
L 295.610139 192.631065 
L 295.030823 190.549706 
L 294.375282 188.468347 
L 293.641999 186.386988 
L 292.837771 184.305629 
L 291.977514 182.22427 
L 291.082922 180.142911 
L 290.180219 178.061552 
L 289.297319 175.980193 
L 288.460797 173.898834 
L 287.693039 171.817475 
L 287.009908 169.736116 
L 286.419201 167.654757 
L 285.920091 165.573398 
L 285.503677 163.492039 
L 285.154642 161.41068 
L 284.853875 159.32932 
L 284.581719 157.247961 
L 284.321365 155.166602 
L 284.061812 153.085243 
L 283.799835 151.003884 
L 283.540566 148.922525 
L 283.296566 146.841166 
L 283.085583 144.759807 
L 282.927487 142.678448 
L 282.841023 140.597089 
L 282.841056 138.51573 
L 282.936802 136.434371 
L 283.131285 134.353012 
L 283.421966 132.271653 
L 283.802244 130.190294 
L 284.263387 128.108935 
L 284.796429 126.027576 
L 285.393649 123.946217 
L 286.049399 121.864858 
L 286.760201 119.783499 
L 287.524215 117.70214 
L 288.340275 115.620781 
L 289.206751 113.539421 
L 290.120526 111.458062 
L 291.076276 109.376703 
L 292.066203 107.295344 
L 293.080215 105.213985 
L 294.106481 103.132626 
L 295.132207 101.051267 
L 296.144474 98.969908 
L 297.131018 96.888549 
L 298.080872 94.80719 
L 298.984852 92.725831 
L 299.8359 90.644472 
L 300.629304 88.563113 
L 301.362798 86.481754 
L 302.036521 84.400395 
L 302.652797 82.319036 
L 303.215726 80.237677 
L 303.730598 78.156318 
L 304.203182 76.074959 
L 304.638996 73.9936 
L 305.042684 71.912241 
L 305.417586 69.830882 
L 305.765606 67.749522 
L 306.087343 65.668163 
L 306.382461 63.586804 
L 306.650181 61.505445 
L 306.889772 59.424086 
L 307.100954 57.342727 
L 308.991546 57.342727 
L 308.991546 57.342727 
L 309.202728 59.424086 
L 309.442319 61.505445 
L 309.710039 63.586804 
L 310.005157 65.668163 
L 310.326894 67.749522 
L 310.674914 69.830882 
L 311.049816 71.912241 
L 311.453504 73.9936 
L 311.889318 76.074959 
L 312.361902 78.156318 
L 312.876774 80.237677 
L 313.439703 82.319036 
L 314.055979 84.400395 
L 314.729702 86.481754 
L 315.463196 88.563113 
L 316.2566 90.644472 
L 317.107648 92.725831 
L 318.011628 94.80719 
L 318.961482 96.888549 
L 319.948026 98.969908 
L 320.960293 101.051267 
L 321.986019 103.132626 
L 323.012285 105.213985 
L 324.026297 107.295344 
L 325.016224 109.376703 
L 325.971974 111.458062 
L 326.885749 113.539421 
L 327.752225 115.620781 
L 328.568285 117.70214 
L 329.332299 119.783499 
L 330.043101 121.864858 
L 330.698851 123.946217 
L 331.296071 126.027576 
L 331.829113 128.108935 
L 332.290256 130.190294 
L 332.670534 132.271653 
L 332.961215 134.353012 
L 333.155698 136.434371 
L 333.251444 138.51573 
L 333.251477 140.597089 
L 333.165013 142.678448 
L 333.006917 144.759807 
L 332.795934 146.841166 
L 332.551934 148.922525 
L 332.292665 151.003884 
L 332.030688 153.085243 
L 331.771135 155.166602 
L 331.510781 157.247961 
L 331.238625 159.32932 
L 330.937858 161.41068 
L 330.588823 163.492039 
L 330.172409 165.573398 
L 329.673299 167.654757 
L 329.082592 169.736116 
L 328.399461 171.817475 
L 327.631703 173.898834 
L 326.795181 175.980193 
L 325.912281 178.061552 
L 325.009578 180.142911 
L 324.114986 182.22427 
L 323.254729 184.305629 
L 322.450501 186.386988 
L 321.717218 188.468347 
L 321.061677 190.549706 
L 320.482361 192.631065 
L 319.970394 194.712424 
L 319.511461 196.793783 
L 319.088326 198.875142 
L 318.683473 200.956501 
L 318.281403 203.03786 
L 317.870246 205.119219 
L 317.442516 207.200579 
L 316.995061 209.281938 
L 316.528395 211.363297 
L 316.045699 213.444656 
L 315.55176 215.526015 
L 315.05208 217.607374 
L 314.552241 219.688733 
L 314.057551 221.770092 
L 313.572903 223.851451 
L 313.102739 225.93281 
L 312.651041 228.014169 
L 312.221277 230.095528 
L 311.816291 232.176887 
L 311.438173 234.258246 
L 311.088136 236.339605 
L 310.766474 238.420964 
L 310.472618 240.502323 
L 310.205294 242.583682 
L 309.962754 244.665041 
L 309.743023 246.7464 
L 309.544118 248.827759 
L 309.364186 250.909118 
L 309.201563 252.990478 
L 309.054764 255.071837 
L 308.922428 257.153196 
L 308.80328 259.234555 
L 308.696109 261.315914 
L 308.599792 263.397273 
z
" clip-path="url(#p918a566b8f)" style="fill: #1f77b4; fill-opacity: 0.3"/>
   </g>
   <g id="matplotlib.axis_3">
    <g id="ytick_12">
     <g id="line2d_12">
      <g>
       <use xlink:href="#m2efc8ab32d" x="280.3205" y="254.668094" style="stroke: #000000; stroke-width: 0.8"/>
      </g>
     </g>
     <g id="text_16">
      <!-- −0.4 -->
      <g transform="translate(249.037687 258.467313)scale(0.1 -0.1)">
       <defs>
        <path id="DejaVuSans-2212" d="M 678 2272 
L 4684 2272 
L 4684 1741 
L 678 1741 
L 678 2272 
z
" transform="scale(0.015625)"/>
       </defs>
       <use xlink:href="#DejaVuSans-2212"/>
       <use xlink:href="#DejaVuSans-30" x="83.789062"/>
       <use xlink:href="#DejaVuSans-2e" x="147.412109"/>
       <use xlink:href="#DejaVuSans-34" x="179.199219"/>
      </g>
     </g>
    </g>
    <g id="ytick_13">
     <g id="line2d_13">
      <g>
       <use xlink:href="#m2efc8ab32d" x="280.3205" y="220.989215" style="stroke: #000000; stroke-width: 0.8"/>
      </g>
     </g>
     <g id="text_17">
      <!-- −0.3 -->
      <g transform="translate(249.037687 224.788433)scale(0.1 -0.1)">
       <defs>
        <path id="DejaVuSans-33" d="M 2597 2516 
Q 3050 2419 3304 2112 
Q 3559 1806 3559 1356 
Q 3559 666 3084 287 
Q 2609 -91 1734 -91 
Q 1441 -91 1130 -33 
Q 819 25 488 141 
L 488 750 
Q 750 597 1062 519 
Q 1375 441 1716 441 
Q 2309 441 2620 675 
Q 2931 909 2931 1356 
Q 2931 1769 2642 2001 
Q 2353 2234 1838 2234 
L 1294 2234 
L 1294 2753 
L 1863 2753 
Q 2328 2753 2575 2939 
Q 2822 3125 2822 3475 
Q 2822 3834 2567 4026 
Q 2313 4219 1838 4219 
Q 1578 4219 1281 4162 
Q 984 4106 628 3988 
L 628 4550 
Q 988 4650 1302 4700 
Q 1616 4750 1894 4750 
Q 2613 4750 3031 4423 
Q 3450 4097 3450 3541 
Q 3450 3153 3228 2886 
Q 3006 2619 2597 2516 
z
" transform="scale(0.015625)"/>
       </defs>
       <use xlink:href="#DejaVuSans-2212"/>
       <use xlink:href="#DejaVuSans-30" x="83.789062"/>
       <use xlink:href="#DejaVuSans-2e" x="147.412109"/>
       <use xlink:href="#DejaVuSans-33" x="179.199219"/>
      </g>
     </g>
    </g>
    <g id="ytick_14">
     <g id="line2d_14">
      <g>
       <use xlink:href="#m2efc8ab32d" x="280.3205" y="187.310335" style="stroke: #000000; stroke-width: 0.8"/>
      </g>
     </g>
     <g id="text_18">
      <!-- −0.2 -->
      <g transform="translate(249.037687 191.109554)scale(0.1 -0.1)">
       <use xlink:href="#DejaVuSans-2212"/>
       <use xlink:href="#DejaVuSans-30" x="83.789062"/>
       <use xlink:href="#DejaVuSans-2e" x="147.412109"/>
       <use xlink:href="#DejaVuSans-32" x="179.199219"/>
      </g>
     </g>
    </g>
    <g id="ytick_15">
     <g id="line2d_15">
      <g>
       <use xlink:href="#m2efc8ab32d" x="280.3205" y="153.631455" style="stroke: #000000; stroke-width: 0.8"/>
      </g>
     </g>
     <g id="text_19">
      <!-- −0.1 -->
      <g transform="translate(249.037687 157.430674)scale(0.1 -0.1)">
       <use xlink:href="#DejaVuSans-2212"/>
       <use xlink:href="#DejaVuSans-30" x="83.789062"/>
       <use xlink:href="#DejaVuSans-2e" x="147.412109"/>
       <use xlink:href="#DejaVuSans-31" x="179.199219"/>
      </g>
     </g>
    </g>
    <g id="ytick_16">
     <g id="line2d_16">
      <g>
       <use xlink:href="#m2efc8ab32d" x="280.3205" y="119.952576" style="stroke: #000000; stroke-width: 0.8"/>
      </g>
     </g>
     <g id="text_20">
      <!-- 0.0 -->
      <g transform="translate(257.417375 123.751795)scale(0.1 -0.1)">
       <use xlink:href="#DejaVuSans-30"/>
       <use xlink:href="#DejaVuSans-2e" x="63.623047"/>
       <use xlink:href="#DejaVuSans-30" x="95.410156"/>
      </g>
     </g>
    </g>
    <g id="ytick_17">
     <g id="line2d_17">
      <g>
       <use xlink:href="#m2efc8ab32d" x="280.3205" y="86.273696" style="stroke: #000000; stroke-width: 0.8"/>
      </g>
     </g>
     <g id="text_21">
      <!-- 0.1 -->
      <g transform="translate(257.417375 90.072915)scale(0.1 -0.1)">
       <use xlink:href="#DejaVuSans-30"/>
       <use xlink:href="#DejaVuSans-2e" x="63.623047"/>
       <use xlink:href="#DejaVuSans-31" x="95.410156"/>
      </g>
     </g>
    </g>
    <g id="ytick_18">
     <g id="line2d_18">
      <g>
       <use xlink:href="#m2efc8ab32d" x="280.3205" y="52.594817" style="stroke: #000000; stroke-width: 0.8"/>
      </g>
     </g>
     <g id="text_22">
      <!-- 0.2 -->
      <g transform="translate(257.417375 56.394035)scale(0.1 -0.1)">
       <use xlink:href="#DejaVuSans-30"/>
       <use xlink:href="#DejaVuSans-2e" x="63.623047"/>
       <use xlink:href="#DejaVuSans-32" x="95.410156"/>
      </g>
     </g>
    </g>
    <g id="text_23">
     <!-- MSE [$\AA$] -->
     <g transform="translate(242.958 179.97)rotate(-90)scale(0.1 -0.1)">
      <use xlink:href="#DejaVuSans-4d" transform="translate(0 0.171875)"/>
      <use xlink:href="#DejaVuSans-53" transform="translate(86.279297 0.171875)"/>
      <use xlink:href="#DejaVuSans-45" transform="translate(149.755859 0.171875)"/>
      <use xlink:href="#DejaVuSans-20" transform="translate(212.939453 0.171875)"/>
      <use xlink:href="#DejaVuSans-5b" transform="translate(244.726562 0.171875)"/>
      <use xlink:href="#DejaVuSans-Oblique-c5" transform="translate(283.740234 0.171875)"/>
      <use xlink:href="#DejaVuSans-5d" transform="translate(352.148438 0.171875)"/>
     </g>
    </g>
   </g>
   <g id="LineCollection_9">
    <path d="M 295.443636 150.641175 
L 320.648864 150.641175 
" clip-path="url(#p918a566b8f)" style="fill: none; stroke: #1f77b4; stroke-width: 1.5"/>
   </g>
   <g id="LineCollection_10">
    <path d="M 295.443636 57.342727 
L 320.648864 57.342727 
" clip-path="url(#p918a566b8f)" style="fill: none; stroke: #1f77b4; stroke-width: 1.5"/>
   </g>
   <g id="LineCollection_11">
    <path d="M 295.443636 263.397273 
L 320.648864 263.397273 
" clip-path="url(#p918a566b8f)" style="fill: none; stroke: #1f77b4; stroke-width: 1.5"/>
   </g>
   <g id="LineCollection_12">
    <path d="M 308.04625 263.397273 
L 308.04625 57.342727 
" clip-path="url(#p918a566b8f)" style="fill: none; stroke: #1f77b4; stroke-width: 1.5"/>
   </g>
   <g id="patch_13">
    <path d="M 280.3205 273.7 
L 280.3205 47.04 
" style="fill: none; stroke: #000000; stroke-width: 0.8; stroke-linejoin: miter; stroke-linecap: square"/>
   </g>
   <g id="patch_14">
    <path d="M 335.772 273.7 
L 335.772 47.04 
" style="fill: none; stroke: #000000; stroke-width: 0.8; stroke-linejoin: miter; stroke-linecap: square"/>
   </g>
   <g id="patch_15">
    <path d="M 280.3205 273.7 
L 335.772 273.7 
" style="fill: none; stroke: #000000; stroke-width: 0.8; stroke-linejoin: miter; stroke-linecap: square"/>
   </g>
   <g id="patch_16">
    <path d="M 280.3205 47.04 
L 335.772 47.04 
" style="fill: none; stroke: #000000; stroke-width: 0.8; stroke-linejoin: miter; stroke-linecap: square"/>
   </g>
   <g id="text_24">
    <!-- MSE -->
    <g transform="translate(295.269062 41.04)scale(0.12 -0.12)">
     <use xlink:href="#DejaVuSans-4d"/>
     <use xlink:href="#DejaVuSans-53" x="86.279297"/>
     <use xlink:href="#DejaVuSans-45" x="149.755859"/>
    </g>
   </g>
  </g>
  <g id="axes_4">
   <g id="patch_17">
    <path d="M 395.0345 273.7 
L 450.486 273.7 
L 450.486 47.04 
L 395.0345 47.04 
z
" style="fill: #ffffff"/>
   </g>
   <g id="PolyCollection_4">
    <path d="M 423.317184 263.397273 
L 422.203316 263.397273 
L 422.090412 261.315914 
L 421.96066 259.234555 
L 421.811702 257.153196 
L 421.641068 255.071837 
L 421.446383 252.990478 
L 421.225615 250.909118 
L 420.977323 248.827759 
L 420.700852 246.7464 
L 420.396431 244.665041 
L 420.065127 242.583682 
L 419.708697 240.502323 
L 419.329376 238.420964 
L 418.929682 236.339605 
L 418.51228 234.258246 
L 418.079893 232.176887 
L 417.635197 230.095528 
L 417.180611 228.014169 
L 416.717955 225.93281 
L 416.248029 223.851451 
L 415.770209 221.770092 
L 415.28222 219.688733 
L 414.780133 217.607374 
L 414.258603 215.526015 
L 413.711263 213.444656 
L 413.131171 211.363297 
L 412.51128 209.281938 
L 411.844909 207.200579 
L 411.126245 205.119219 
L 410.350891 203.03786 
L 409.516464 200.956501 
L 408.623229 198.875142 
L 407.674752 196.793783 
L 406.678552 194.712424 
L 405.64662 192.631065 
L 404.59559 190.549706 
L 403.546298 188.468347 
L 402.522541 186.386988 
L 401.549121 184.305629 
L 400.649534 182.22427 
L 399.843932 180.142911 
L 399.14786 178.061552 
L 398.572019 175.980193 
L 398.122871 173.898834 
L 397.803571 171.817475 
L 397.614774 169.736116 
L 397.555023 167.654757 
L 397.62084 165.573398 
L 397.806759 163.492039 
L 398.105515 161.41068 
L 398.508365 159.32932 
L 399.005323 157.247961 
L 399.585111 155.166602 
L 400.234806 153.085243 
L 400.939479 151.003884 
L 401.682221 148.922525 
L 402.444848 146.841166 
L 403.209294 144.759807 
L 403.959378 142.678448 
L 404.682486 140.597089 
L 405.370733 138.51573 
L 406.021393 136.434371 
L 406.636517 134.353012 
L 407.221888 132.271653 
L 407.785458 130.190294 
L 408.335554 128.108935 
L 408.879137 126.027576 
L 409.420507 123.946217 
L 409.960737 121.864858 
L 410.498017 119.783499 
L 411.028793 117.70214 
L 411.549415 115.620781 
L 412.057819 113.539421 
L 412.554855 111.458062 
L 413.044923 109.376703 
L 413.535783 107.295344 
L 414.037526 105.213985 
L 414.560838 103.132626 
L 415.114797 101.051267 
L 415.704618 98.969908 
L 416.329839 96.888549 
L 416.983434 94.80719 
L 417.65217 92.725831 
L 418.318237 90.644472 
L 418.961809 88.563113 
L 419.563936 86.481754 
L 420.109115 84.400395 
L 420.587007 82.319036 
L 420.993057 80.237677 
L 421.328086 78.156318 
L 421.597171 76.074959 
L 421.808198 73.9936 
L 421.970445 71.912241 
L 422.093448 69.830882 
L 422.186212 67.749522 
L 422.256754 65.668163 
L 422.311892 63.586804 
L 422.357165 61.505445 
L 422.396833 59.424086 
L 422.433905 57.342727 
L 423.086595 57.342727 
L 423.086595 57.342727 
L 423.123667 59.424086 
L 423.163335 61.505445 
L 423.208608 63.586804 
L 423.263746 65.668163 
L 423.334288 67.749522 
L 423.427052 69.830882 
L 423.550055 71.912241 
L 423.712302 73.9936 
L 423.923329 76.074959 
L 424.192414 78.156318 
L 424.527443 80.237677 
L 424.933493 82.319036 
L 425.411385 84.400395 
L 425.956564 86.481754 
L 426.558691 88.563113 
L 427.202263 90.644472 
L 427.86833 92.725831 
L 428.537066 94.80719 
L 429.190661 96.888549 
L 429.815882 98.969908 
L 430.405703 101.051267 
L 430.959662 103.132626 
L 431.482974 105.213985 
L 431.984717 107.295344 
L 432.475577 109.376703 
L 432.965645 111.458062 
L 433.462681 113.539421 
L 433.971085 115.620781 
L 434.491707 117.70214 
L 435.022483 119.783499 
L 435.559763 121.864858 
L 436.099993 123.946217 
L 436.641363 126.027576 
L 437.184946 128.108935 
L 437.735042 130.190294 
L 438.298612 132.271653 
L 438.883983 134.353012 
L 439.499107 136.434371 
L 440.149767 138.51573 
L 440.838014 140.597089 
L 441.561122 142.678448 
L 442.311206 144.759807 
L 443.075652 146.841166 
L 443.838279 148.922525 
L 444.581021 151.003884 
L 445.285694 153.085243 
L 445.935389 155.166602 
L 446.515177 157.247961 
L 447.012135 159.32932 
L 447.414985 161.41068 
L 447.713741 163.492039 
L 447.89966 165.573398 
L 447.965477 167.654757 
L 447.905726 169.736116 
L 447.716929 171.817475 
L 447.397629 173.898834 
L 446.948481 175.980193 
L 446.37264 178.061552 
L 445.676568 180.142911 
L 444.870966 182.22427 
L 443.971379 184.305629 
L 442.997959 186.386988 
L 441.974202 188.468347 
L 440.92491 190.549706 
L 439.87388 192.631065 
L 438.841948 194.712424 
L 437.845748 196.793783 
L 436.897271 198.875142 
L 436.004036 200.956501 
L 435.169609 203.03786 
L 434.394255 205.119219 
L 433.675591 207.200579 
L 433.00922 209.281938 
L 432.389329 211.363297 
L 431.809237 213.444656 
L 431.261897 215.526015 
L 430.740367 217.607374 
L 430.23828 219.688733 
L 429.750291 221.770092 
L 429.272471 223.851451 
L 428.802545 225.93281 
L 428.339889 228.014169 
L 427.885303 230.095528 
L 427.440607 232.176887 
L 427.00822 234.258246 
L 426.590818 236.339605 
L 426.191124 238.420964 
L 425.811803 240.502323 
L 425.455373 242.583682 
L 425.124069 244.665041 
L 424.819648 246.7464 
L 424.543177 248.827759 
L 424.294885 250.909118 
L 424.074117 252.990478 
L 423.879432 255.071837 
L 423.708798 257.153196 
L 423.55984 259.234555 
L 423.430088 261.315914 
L 423.317184 263.397273 
z
" clip-path="url(#pb046cd19a2)" style="fill: #1f77b4; fill-opacity: 0.3"/>
   </g>
   <g id="matplotlib.axis_4">
    <g id="ytick_19">
     <g id="line2d_19">
      <g>
       <use xlink:href="#m2efc8ab32d" x="395.0345" y="263.397273" style="stroke: #000000; stroke-width: 0.8"/>
      </g>
     </g>
     <g id="text_25">
      <!-- 0.75 -->
      <g transform="translate(365.768875 267.196491)scale(0.1 -0.1)">
       <defs>
        <path id="DejaVuSans-35" d="M 691 4666 
L 3169 4666 
L 3169 4134 
L 1269 4134 
L 1269 2991 
Q 1406 3038 1543 3061 
Q 1681 3084 1819 3084 
Q 2600 3084 3056 2656 
Q 3513 2228 3513 1497 
Q 3513 744 3044 326 
Q 2575 -91 1722 -91 
Q 1428 -91 1123 -41 
Q 819 9 494 109 
L 494 744 
Q 775 591 1075 516 
Q 1375 441 1709 441 
Q 2250 441 2565 725 
Q 2881 1009 2881 1497 
Q 2881 1984 2565 2268 
Q 2250 2553 1709 2553 
Q 1456 2553 1204 2497 
Q 953 2441 691 2322 
L 691 4666 
z
" transform="scale(0.015625)"/>
       </defs>
       <use xlink:href="#DejaVuSans-30"/>
       <use xlink:href="#DejaVuSans-2e" x="63.623047"/>
       <use xlink:href="#DejaVuSans-37" x="95.410156"/>
       <use xlink:href="#DejaVuSans-35" x="159.033203"/>
      </g>
     </g>
    </g>
    <g id="ytick_20">
     <g id="line2d_20">
      <g>
       <use xlink:href="#m2efc8ab32d" x="395.0345" y="219.43897" style="stroke: #000000; stroke-width: 0.8"/>
      </g>
     </g>
     <g id="text_26">
      <!-- 0.80 -->
      <g transform="translate(365.768875 223.238188)scale(0.1 -0.1)">
       <use xlink:href="#DejaVuSans-30"/>
       <use xlink:href="#DejaVuSans-2e" x="63.623047"/>
       <use xlink:href="#DejaVuSans-38" x="95.410156"/>
       <use xlink:href="#DejaVuSans-30" x="159.033203"/>
      </g>
     </g>
    </g>
    <g id="ytick_21">
     <g id="line2d_21">
      <g>
       <use xlink:href="#m2efc8ab32d" x="395.0345" y="175.480667" style="stroke: #000000; stroke-width: 0.8"/>
      </g>
     </g>
     <g id="text_27">
      <!-- 0.85 -->
      <g transform="translate(365.768875 179.279885)scale(0.1 -0.1)">
       <use xlink:href="#DejaVuSans-30"/>
       <use xlink:href="#DejaVuSans-2e" x="63.623047"/>
       <use xlink:href="#DejaVuSans-38" x="95.410156"/>
       <use xlink:href="#DejaVuSans-35" x="159.033203"/>
      </g>
     </g>
    </g>
    <g id="ytick_22">
     <g id="line2d_22">
      <g>
       <use xlink:href="#m2efc8ab32d" x="395.0345" y="131.522364" style="stroke: #000000; stroke-width: 0.8"/>
      </g>
     </g>
     <g id="text_28">
      <!-- 0.90 -->
      <g transform="translate(365.768875 135.321582)scale(0.1 -0.1)">
       <use xlink:href="#DejaVuSans-30"/>
       <use xlink:href="#DejaVuSans-2e" x="63.623047"/>
       <use xlink:href="#DejaVuSans-39" x="95.410156"/>
       <use xlink:href="#DejaVuSans-30" x="159.033203"/>
      </g>
     </g>
    </g>
    <g id="ytick_23">
     <g id="line2d_23">
      <g>
       <use xlink:href="#m2efc8ab32d" x="395.0345" y="87.564061" style="stroke: #000000; stroke-width: 0.8"/>
      </g>
     </g>
     <g id="text_29">
      <!-- 0.95 -->
      <g transform="translate(365.768875 91.363279)scale(0.1 -0.1)">
       <use xlink:href="#DejaVuSans-30"/>
       <use xlink:href="#DejaVuSans-2e" x="63.623047"/>
       <use xlink:href="#DejaVuSans-39" x="95.410156"/>
       <use xlink:href="#DejaVuSans-35" x="159.033203"/>
      </g>
     </g>
    </g>
    <g id="text_30">
     <!-- % NOE fulfilled [1/100 %] -->
     <g transform="translate(359.689188 223.870781)rotate(-90)scale(0.1 -0.1)">
      <defs>
       <path id="DejaVuSans-25" d="M 4653 2053 
Q 4381 2053 4226 1822 
Q 4072 1591 4072 1178 
Q 4072 772 4226 539 
Q 4381 306 4653 306 
Q 4919 306 5073 539 
Q 5228 772 5228 1178 
Q 5228 1588 5073 1820 
Q 4919 2053 4653 2053 
z
M 4653 2450 
Q 5147 2450 5437 2106 
Q 5728 1763 5728 1178 
Q 5728 594 5436 251 
Q 5144 -91 4653 -91 
Q 4153 -91 3862 251 
Q 3572 594 3572 1178 
Q 3572 1766 3864 2108 
Q 4156 2450 4653 2450 
z
M 1428 4353 
Q 1159 4353 1004 4120 
Q 850 3888 850 3481 
Q 850 3069 1003 2837 
Q 1156 2606 1428 2606 
Q 1700 2606 1854 2837 
Q 2009 3069 2009 3481 
Q 2009 3884 1853 4118 
Q 1697 4353 1428 4353 
z
M 4250 4750 
L 4750 4750 
L 1831 -91 
L 1331 -91 
L 4250 4750 
z
M 1428 4750 
Q 1922 4750 2215 4408 
Q 2509 4066 2509 3481 
Q 2509 2891 2217 2550 
Q 1925 2209 1428 2209 
Q 931 2209 642 2551 
Q 353 2894 353 3481 
Q 353 4063 643 4406 
Q 934 4750 1428 4750 
z
" transform="scale(0.015625)"/>
       <path id="DejaVuSans-4e" d="M 628 4666 
L 1478 4666 
L 3547 763 
L 3547 4666 
L 4159 4666 
L 4159 0 
L 3309 0 
L 1241 3903 
L 1241 0 
L 628 0 
L 628 4666 
z
" transform="scale(0.015625)"/>
       <path id="DejaVuSans-4f" d="M 2522 4238 
Q 1834 4238 1429 3725 
Q 1025 3213 1025 2328 
Q 1025 1447 1429 934 
Q 1834 422 2522 422 
Q 3209 422 3611 934 
Q 4013 1447 4013 2328 
Q 4013 3213 3611 3725 
Q 3209 4238 2522 4238 
z
M 2522 4750 
Q 3503 4750 4090 4092 
Q 4678 3434 4678 2328 
Q 4678 1225 4090 567 
Q 3503 -91 2522 -91 
Q 1538 -91 948 565 
Q 359 1222 359 2328 
Q 359 3434 948 4092 
Q 1538 4750 2522 4750 
z
" transform="scale(0.015625)"/>
       <path id="DejaVuSans-66" d="M 2375 4863 
L 2375 4384 
L 1825 4384 
Q 1516 4384 1395 4259 
Q 1275 4134 1275 3809 
L 1275 3500 
L 2222 3500 
L 2222 3053 
L 1275 3053 
L 1275 0 
L 697 0 
L 697 3053 
L 147 3053 
L 147 3500 
L 697 3500 
L 697 3744 
Q 697 4328 969 4595 
Q 1241 4863 1831 4863 
L 2375 4863 
z
" transform="scale(0.015625)"/>
       <path id="DejaVuSans-75" d="M 544 1381 
L 544 3500 
L 1119 3500 
L 1119 1403 
Q 1119 906 1312 657 
Q 1506 409 1894 409 
Q 2359 409 2629 706 
Q 2900 1003 2900 1516 
L 2900 3500 
L 3475 3500 
L 3475 0 
L 2900 0 
L 2900 538 
Q 2691 219 2414 64 
Q 2138 -91 1772 -91 
Q 1169 -91 856 284 
Q 544 659 544 1381 
z
M 1991 3584 
L 1991 3584 
z
" transform="scale(0.015625)"/>
       <path id="DejaVuSans-6c" d="M 603 4863 
L 1178 4863 
L 1178 0 
L 603 0 
L 603 4863 
z
" transform="scale(0.015625)"/>
       <path id="DejaVuSans-69" d="M 603 3500 
L 1178 3500 
L 1178 0 
L 603 0 
L 603 3500 
z
M 603 4863 
L 1178 4863 
L 1178 4134 
L 603 4134 
L 603 4863 
z
" transform="scale(0.015625)"/>
       <path id="DejaVuSans-65" d="M 3597 1894 
L 3597 1613 
L 953 1613 
Q 991 1019 1311 708 
Q 1631 397 2203 397 
Q 2534 397 2845 478 
Q 3156 559 3463 722 
L 3463 178 
Q 3153 47 2828 -22 
Q 2503 -91 2169 -91 
Q 1331 -91 842 396 
Q 353 884 353 1716 
Q 353 2575 817 3079 
Q 1281 3584 2069 3584 
Q 2775 3584 3186 3129 
Q 3597 2675 3597 1894 
z
M 3022 2063 
Q 3016 2534 2758 2815 
Q 2500 3097 2075 3097 
Q 1594 3097 1305 2825 
Q 1016 2553 972 2059 
L 3022 2063 
z
" transform="scale(0.015625)"/>
       <path id="DejaVuSans-64" d="M 2906 2969 
L 2906 4863 
L 3481 4863 
L 3481 0 
L 2906 0 
L 2906 525 
Q 2725 213 2448 61 
Q 2172 -91 1784 -91 
Q 1150 -91 751 415 
Q 353 922 353 1747 
Q 353 2572 751 3078 
Q 1150 3584 1784 3584 
Q 2172 3584 2448 3432 
Q 2725 3281 2906 2969 
z
M 947 1747 
Q 947 1113 1208 752 
Q 1469 391 1925 391 
Q 2381 391 2643 752 
Q 2906 1113 2906 1747 
Q 2906 2381 2643 2742 
Q 2381 3103 1925 3103 
Q 1469 3103 1208 2742 
Q 947 2381 947 1747 
z
" transform="scale(0.015625)"/>
       <path id="DejaVuSans-2f" d="M 1625 4666 
L 2156 4666 
L 531 -594 
L 0 -594 
L 1625 4666 
z
" transform="scale(0.015625)"/>
      </defs>
      <use xlink:href="#DejaVuSans-25"/>
      <use xlink:href="#DejaVuSans-20" x="95.019531"/>
      <use xlink:href="#DejaVuSans-4e" x="126.806641"/>
      <use xlink:href="#DejaVuSans-4f" x="201.611328"/>
      <use xlink:href="#DejaVuSans-45" x="280.322266"/>
      <use xlink:href="#DejaVuSans-20" x="343.505859"/>
      <use xlink:href="#DejaVuSans-66" x="375.292969"/>
      <use xlink:href="#DejaVuSans-75" x="410.498047"/>
      <use xlink:href="#DejaVuSans-6c" x="473.876953"/>
      <use xlink:href="#DejaVuSans-66" x="501.660156"/>
      <use xlink:href="#DejaVuSans-69" x="536.865234"/>
      <use xlink:href="#DejaVuSans-6c" x="564.648438"/>
      <use xlink:href="#DejaVuSans-6c" x="592.431641"/>
      <use xlink:href="#DejaVuSans-65" x="620.214844"/>
      <use xlink:href="#DejaVuSans-64" x="681.738281"/>
      <use xlink:href="#DejaVuSans-20" x="745.214844"/>
      <use xlink:href="#DejaVuSans-5b" x="777.001953"/>
      <use xlink:href="#DejaVuSans-31" x="816.015625"/>
      <use xlink:href="#DejaVuSans-2f" x="879.638672"/>
      <use xlink:href="#DejaVuSans-31" x="913.330078"/>
      <use xlink:href="#DejaVuSans-30" x="976.953125"/>
      <use xlink:href="#DejaVuSans-30" x="1040.576172"/>
      <use xlink:href="#DejaVuSans-20" x="1104.199219"/>
      <use xlink:href="#DejaVuSans-25" x="1135.986328"/>
      <use xlink:href="#DejaVuSans-5d" x="1231.005859"/>
     </g>
    </g>
   </g>
   <g id="LineCollection_13">
    <path d="M 410.157636 162.77397 
L 435.362864 162.77397 
" clip-path="url(#pb046cd19a2)" style="fill: none; stroke: #1f77b4; stroke-width: 1.5"/>
   </g>
   <g id="LineCollection_14">
    <path d="M 410.157636 57.342727 
L 435.362864 57.342727 
" clip-path="url(#pb046cd19a2)" style="fill: none; stroke: #1f77b4; stroke-width: 1.5"/>
   </g>
   <g id="LineCollection_15">
    <path d="M 410.157636 263.397273 
L 435.362864 263.397273 
" clip-path="url(#pb046cd19a2)" style="fill: none; stroke: #1f77b4; stroke-width: 1.5"/>
   </g>
   <g id="LineCollection_16">
    <path d="M 422.76025 263.397273 
L 422.76025 57.342727 
" clip-path="url(#pb046cd19a2)" style="fill: none; stroke: #1f77b4; stroke-width: 1.5"/>
   </g>
   <g id="patch_18">
    <path d="M 395.0345 273.7 
L 395.0345 47.04 
" style="fill: none; stroke: #000000; stroke-width: 0.8; stroke-linejoin: miter; stroke-linecap: square"/>
   </g>
   <g id="patch_19">
    <path d="M 450.486 273.7 
L 450.486 47.04 
" style="fill: none; stroke: #000000; stroke-width: 0.8; stroke-linejoin: miter; stroke-linecap: square"/>
   </g>
   <g id="patch_20">
    <path d="M 395.0345 273.7 
L 450.486 273.7 
" style="fill: none; stroke: #000000; stroke-width: 0.8; stroke-linejoin: miter; stroke-linecap: square"/>
   </g>
   <g id="patch_21">
    <path d="M 395.0345 47.04 
L 450.486 47.04 
" style="fill: none; stroke: #000000; stroke-width: 0.8; stroke-linejoin: miter; stroke-linecap: square"/>
   </g>
   <g id="text_31">
    <!-- % NOE fulfilled -->
    <g transform="translate(378.047125 41.04)scale(0.12 -0.12)">
     <use xlink:href="#DejaVuSans-25"/>
     <use xlink:href="#DejaVuSans-20" x="95.019531"/>
     <use xlink:href="#DejaVuSans-4e" x="126.806641"/>
     <use xlink:href="#DejaVuSans-4f" x="201.611328"/>
     <use xlink:href="#DejaVuSans-45" x="280.322266"/>
     <use xlink:href="#DejaVuSans-20" x="343.505859"/>
     <use xlink:href="#DejaVuSans-66" x="375.292969"/>
     <use xlink:href="#DejaVuSans-75" x="410.498047"/>
     <use xlink:href="#DejaVuSans-6c" x="473.876953"/>
     <use xlink:href="#DejaVuSans-66" x="501.660156"/>
     <use xlink:href="#DejaVuSans-69" x="536.865234"/>
     <use xlink:href="#DejaVuSans-6c" x="564.648438"/>
     <use xlink:href="#DejaVuSans-6c" x="592.431641"/>
     <use xlink:href="#DejaVuSans-65" x="620.214844"/>
     <use xlink:href="#DejaVuSans-64" x="681.738281"/>
    </g>
   </g>
  </g>
  <g id="axes_5">
   <g id="patch_22">
    <path d="M 509.7485 273.7 
L 565.2 273.7 
L 565.2 47.04 
L 509.7485 47.04 
z
" style="fill: #ffffff"/>
   </g>
   <g id="PolyCollection_5">
    <path d="M 537.670103 263.397273 
L 537.278397 263.397273 
L 537.283294 261.315914 
L 537.297261 259.234555 
L 537.318295 257.153196 
L 537.343577 255.071837 
L 537.370071 252.990478 
L 537.395073 250.909118 
L 537.416575 248.827759 
L 537.433361 246.7464 
L 537.444888 244.665041 
L 537.451021 242.583682 
L 537.451757 240.502323 
L 537.447016 238.420964 
L 537.436571 236.339605 
L 537.420101 234.258246 
L 537.397322 232.176887 
L 537.368091 230.095528 
L 537.332395 228.014169 
L 537.290155 225.93281 
L 537.240876 223.851451 
L 537.183288 221.770092 
L 537.115204 219.688733 
L 537.033809 217.607374 
L 536.936481 215.526015 
L 536.821976 213.444656 
L 536.69157 211.363297 
L 536.549586 209.281938 
L 536.402834 207.200579 
L 536.25878 205.119219 
L 536.122809 203.03786 
L 535.99533 200.956501 
L 535.869765 198.875142 
L 535.732263 196.793783 
L 535.563545 194.712424 
L 535.342576 192.631065 
L 535.051196 190.549706 
L 534.67849 188.468347 
L 534.223738 186.386988 
L 533.697186 184.305629 
L 533.118448 182.22427 
L 532.512984 180.142911 
L 531.9075 178.061552 
L 531.325366 175.980193 
L 530.783067 173.898834 
L 530.288453 171.817475 
L 529.841052 169.736116 
L 529.434155 167.654757 
L 529.057838 165.573398 
L 528.701813 163.492039 
L 528.35707 161.41068 
L 528.015755 159.32932 
L 527.669514 157.247961 
L 527.307161 155.166602 
L 526.91294 153.085243 
L 526.466439 151.003884 
L 525.944636 148.922525 
L 525.325768 146.841166 
L 524.594046 144.759807 
L 523.74393 142.678448 
L 522.78274 140.597089 
L 521.730848 138.51573 
L 520.61926 136.434371 
L 519.485104 134.353012 
L 518.366088 132.271653 
L 517.295326 130.190294 
L 516.297909 128.108935 
L 515.390086 126.027576 
L 514.581101 123.946217 
L 513.87681 121.864858 
L 513.283605 119.783499 
L 512.811187 117.70214 
L 512.473355 115.620781 
L 512.286856 113.539421 
L 512.269023 111.458062 
L 512.435118 109.376703 
L 512.79592 107.295344 
L 513.355687 105.213985 
L 514.110364 103.132626 
L 515.04614 101.051267 
L 516.138763 98.969908 
L 517.354269 96.888549 
L 518.6515 94.80719 
L 519.986218 92.725831 
L 521.31602 90.644472 
L 522.604949 88.563113 
L 523.826852 86.481754 
L 524.966985 84.400395 
L 526.021837 82.319036 
L 526.997457 80.237677 
L 527.90672 78.156318 
L 528.765967 76.074959 
L 529.591498 73.9936 
L 530.396413 71.912241 
L 531.188302 69.830882 
L 531.968118 67.749522 
L 532.730373 65.668163 
L 533.464501 63.586804 
L 534.157017 61.505445 
L 534.793986 59.424086 
L 535.363343 57.342727 
L 539.585157 57.342727 
L 539.585157 57.342727 
L 540.154514 59.424086 
L 540.791483 61.505445 
L 541.483999 63.586804 
L 542.218127 65.668163 
L 542.980382 67.749522 
L 543.760198 69.830882 
L 544.552087 71.912241 
L 545.357002 73.9936 
L 546.182533 76.074959 
L 547.04178 78.156318 
L 547.951043 80.237677 
L 548.926663 82.319036 
L 549.981515 84.400395 
L 551.121648 86.481754 
L 552.343551 88.563113 
L 553.63248 90.644472 
L 554.962282 92.725831 
L 556.297 94.80719 
L 557.594231 96.888549 
L 558.809737 98.969908 
L 559.90236 101.051267 
L 560.838136 103.132626 
L 561.592813 105.213985 
L 562.15258 107.295344 
L 562.513382 109.376703 
L 562.679477 111.458062 
L 562.661644 113.539421 
L 562.475145 115.620781 
L 562.137313 117.70214 
L 561.664895 119.783499 
L 561.07169 121.864858 
L 560.367399 123.946217 
L 559.558414 126.027576 
L 558.650591 128.108935 
L 557.653174 130.190294 
L 556.582412 132.271653 
L 555.463396 134.353012 
L 554.32924 136.434371 
L 553.217652 138.51573 
L 552.16576 140.597089 
L 551.20457 142.678448 
L 550.354454 144.759807 
L 549.622732 146.841166 
L 549.003864 148.922525 
L 548.482061 151.003884 
L 548.03556 153.085243 
L 547.641339 155.166602 
L 547.278986 157.247961 
L 546.932745 159.32932 
L 546.59143 161.41068 
L 546.246687 163.492039 
L 545.890662 165.573398 
L 545.514345 167.654757 
L 545.107448 169.736116 
L 544.660047 171.817475 
L 544.165433 173.898834 
L 543.623134 175.980193 
L 543.041 178.061552 
L 542.435516 180.142911 
L 541.830052 182.22427 
L 541.251314 184.305629 
L 540.724762 186.386988 
L 540.27001 188.468347 
L 539.897304 190.549706 
L 539.605924 192.631065 
L 539.384955 194.712424 
L 539.216237 196.793783 
L 539.078735 198.875142 
L 538.95317 200.956501 
L 538.825691 203.03786 
L 538.68972 205.119219 
L 538.545666 207.200579 
L 538.398914 209.281938 
L 538.25693 211.363297 
L 538.126524 213.444656 
L 538.012019 215.526015 
L 537.914691 217.607374 
L 537.833296 219.688733 
L 537.765212 221.770092 
L 537.707624 223.851451 
L 537.658345 225.93281 
L 537.616105 228.014169 
L 537.580409 230.095528 
L 537.551178 232.176887 
L 537.528399 234.258246 
L 537.511929 236.339605 
L 537.501484 238.420964 
L 537.496743 240.502323 
L 537.497479 242.583682 
L 537.503612 244.665041 
L 537.515139 246.7464 
L 537.531925 248.827759 
L 537.553427 250.909118 
L 537.578429 252.990478 
L 537.604923 255.071837 
L 537.630205 257.153196 
L 537.651239 259.234555 
L 537.665206 261.315914 
L 537.670103 263.397273 
z
" clip-path="url(#p6eb5f70c8e)" style="fill: #1f77b4; fill-opacity: 0.3"/>
   </g>
   <g id="matplotlib.axis_5">
    <g id="ytick_24">
     <g id="line2d_24">
      <g>
       <use xlink:href="#m2efc8ab32d" x="509.7485" y="259.1564" style="stroke: #000000; stroke-width: 0.8"/>
      </g>
     </g>
     <g id="text_32">
      <!-- 0.1 -->
      <g transform="translate(486.845375 262.955619)scale(0.1 -0.1)">
       <use xlink:href="#DejaVuSans-30"/>
       <use xlink:href="#DejaVuSans-2e" x="63.623047"/>
       <use xlink:href="#DejaVuSans-31" x="95.410156"/>
      </g>
     </g>
    </g>
    <g id="ytick_25">
     <g id="line2d_25">
      <g>
       <use xlink:href="#m2efc8ab32d" x="509.7485" y="225.229418" style="stroke: #000000; stroke-width: 0.8"/>
      </g>
     </g>
     <g id="text_33">
      <!-- 0.2 -->
      <g transform="translate(486.845375 229.028636)scale(0.1 -0.1)">
       <use xlink:href="#DejaVuSans-30"/>
       <use xlink:href="#DejaVuSans-2e" x="63.623047"/>
       <use xlink:href="#DejaVuSans-32" x="95.410156"/>
      </g>
     </g>
    </g>
    <g id="ytick_26">
     <g id="line2d_26">
      <g>
       <use xlink:href="#m2efc8ab32d" x="509.7485" y="191.302435" style="stroke: #000000; stroke-width: 0.8"/>
      </g>
     </g>
     <g id="text_34">
      <!-- 0.3 -->
      <g transform="translate(486.845375 195.101654)scale(0.1 -0.1)">
       <use xlink:href="#DejaVuSans-30"/>
       <use xlink:href="#DejaVuSans-2e" x="63.623047"/>
       <use xlink:href="#DejaVuSans-33" x="95.410156"/>
      </g>
     </g>
    </g>
    <g id="ytick_27">
     <g id="line2d_27">
      <g>
       <use xlink:href="#m2efc8ab32d" x="509.7485" y="157.375453" style="stroke: #000000; stroke-width: 0.8"/>
      </g>
     </g>
     <g id="text_35">
      <!-- 0.4 -->
      <g transform="translate(486.845375 161.174672)scale(0.1 -0.1)">
       <use xlink:href="#DejaVuSans-30"/>
       <use xlink:href="#DejaVuSans-2e" x="63.623047"/>
       <use xlink:href="#DejaVuSans-34" x="95.410156"/>
      </g>
     </g>
    </g>
    <g id="ytick_28">
     <g id="line2d_28">
      <g>
       <use xlink:href="#m2efc8ab32d" x="509.7485" y="123.44847" style="stroke: #000000; stroke-width: 0.8"/>
      </g>
     </g>
     <g id="text_36">
      <!-- 0.5 -->
      <g transform="translate(486.845375 127.247689)scale(0.1 -0.1)">
       <use xlink:href="#DejaVuSans-30"/>
       <use xlink:href="#DejaVuSans-2e" x="63.623047"/>
       <use xlink:href="#DejaVuSans-35" x="95.410156"/>
      </g>
     </g>
    </g>
    <g id="ytick_29">
     <g id="line2d_29">
      <g>
       <use xlink:href="#m2efc8ab32d" x="509.7485" y="89.521488" style="stroke: #000000; stroke-width: 0.8"/>
      </g>
     </g>
     <g id="text_37">
      <!-- 0.6 -->
      <g transform="translate(486.845375 93.320707)scale(0.1 -0.1)">
       <use xlink:href="#DejaVuSans-30"/>
       <use xlink:href="#DejaVuSans-2e" x="63.623047"/>
       <use xlink:href="#DejaVuSans-36" x="95.410156"/>
      </g>
     </g>
    </g>
    <g id="ytick_30">
     <g id="line2d_30">
      <g>
       <use xlink:href="#m2efc8ab32d" x="509.7485" y="55.594506" style="stroke: #000000; stroke-width: 0.8"/>
      </g>
     </g>
     <g id="text_38">
      <!-- 0.7 -->
      <g transform="translate(486.845375 59.393724)scale(0.1 -0.1)">
       <use xlink:href="#DejaVuSans-30"/>
       <use xlink:href="#DejaVuSans-2e" x="63.623047"/>
       <use xlink:href="#DejaVuSans-37" x="95.410156"/>
      </g>
     </g>
    </g>
    <g id="text_39">
     <!-- RMSD stepwise [$\AA$] -->
     <g transform="translate(480.745375 207.67)rotate(-90)scale(0.1 -0.1)">
      <defs>
       <path id="DejaVuSans-73" d="M 2834 3397 
L 2834 2853 
Q 2591 2978 2328 3040 
Q 2066 3103 1784 3103 
Q 1356 3103 1142 2972 
Q 928 2841 928 2578 
Q 928 2378 1081 2264 
Q 1234 2150 1697 2047 
L 1894 2003 
Q 2506 1872 2764 1633 
Q 3022 1394 3022 966 
Q 3022 478 2636 193 
Q 2250 -91 1575 -91 
Q 1294 -91 989 -36 
Q 684 19 347 128 
L 347 722 
Q 666 556 975 473 
Q 1284 391 1588 391 
Q 1994 391 2212 530 
Q 2431 669 2431 922 
Q 2431 1156 2273 1281 
Q 2116 1406 1581 1522 
L 1381 1569 
Q 847 1681 609 1914 
Q 372 2147 372 2553 
Q 372 3047 722 3315 
Q 1072 3584 1716 3584 
Q 2034 3584 2315 3537 
Q 2597 3491 2834 3397 
z
" transform="scale(0.015625)"/>
       <path id="DejaVuSans-74" d="M 1172 4494 
L 1172 3500 
L 2356 3500 
L 2356 3053 
L 1172 3053 
L 1172 1153 
Q 1172 725 1289 603 
Q 1406 481 1766 481 
L 2356 481 
L 2356 0 
L 1766 0 
Q 1100 0 847 248 
Q 594 497 594 1153 
L 594 3053 
L 172 3053 
L 172 3500 
L 594 3500 
L 594 4494 
L 1172 4494 
z
" transform="scale(0.015625)"/>
       <path id="DejaVuSans-70" d="M 1159 525 
L 1159 -1331 
L 581 -1331 
L 581 3500 
L 1159 3500 
L 1159 2969 
Q 1341 3281 1617 3432 
Q 1894 3584 2278 3584 
Q 2916 3584 3314 3078 
Q 3713 2572 3713 1747 
Q 3713 922 3314 415 
Q 2916 -91 2278 -91 
Q 1894 -91 1617 61 
Q 1341 213 1159 525 
z
M 3116 1747 
Q 3116 2381 2855 2742 
Q 2594 3103 2138 3103 
Q 1681 3103 1420 2742 
Q 1159 2381 1159 1747 
Q 1159 1113 1420 752 
Q 1681 391 2138 391 
Q 2594 391 2855 752 
Q 3116 1113 3116 1747 
z
" transform="scale(0.015625)"/>
       <path id="DejaVuSans-77" d="M 269 3500 
L 844 3500 
L 1563 769 
L 2278 3500 
L 2956 3500 
L 3675 769 
L 4391 3500 
L 4966 3500 
L 4050 0 
L 3372 0 
L 2619 2869 
L 1863 0 
L 1184 0 
L 269 3500 
z
" transform="scale(0.015625)"/>
      </defs>
      <use xlink:href="#DejaVuSans-52" transform="translate(0 0.171875)"/>
      <use xlink:href="#DejaVuSans-4d" transform="translate(69.482422 0.171875)"/>
      <use xlink:href="#DejaVuSans-53" transform="translate(155.761719 0.171875)"/>
      <use xlink:href="#DejaVuSans-44" transform="translate(219.238281 0.171875)"/>
      <use xlink:href="#DejaVuSans-20" transform="translate(296.240234 0.171875)"/>
      <use xlink:href="#DejaVuSans-73" transform="translate(328.027344 0.171875)"/>
      <use xlink:href="#DejaVuSans-74" transform="translate(380.126953 0.171875)"/>
      <use xlink:href="#DejaVuSans-65" transform="translate(419.335938 0.171875)"/>
      <use xlink:href="#DejaVuSans-70" transform="translate(480.859375 0.171875)"/>
      <use xlink:href="#DejaVuSans-77" transform="translate(544.335938 0.171875)"/>
      <use xlink:href="#DejaVuSans-69" transform="translate(626.123047 0.171875)"/>
      <use xlink:href="#DejaVuSans-73" transform="translate(653.90625 0.171875)"/>
      <use xlink:href="#DejaVuSans-65" transform="translate(706.005859 0.171875)"/>
      <use xlink:href="#DejaVuSans-20" transform="translate(767.529297 0.171875)"/>
      <use xlink:href="#DejaVuSans-5b" transform="translate(799.316406 0.171875)"/>
      <use xlink:href="#DejaVuSans-Oblique-c5" transform="translate(838.330078 0.171875)"/>
      <use xlink:href="#DejaVuSans-5d" transform="translate(906.738281 0.171875)"/>
     </g>
    </g>
   </g>
   <g id="LineCollection_17">
    <path d="M 524.871636 121.439894 
L 550.076864 121.439894 
" clip-path="url(#p6eb5f70c8e)" style="fill: none; stroke: #1f77b4; stroke-width: 1.5"/>
   </g>
   <g id="LineCollection_18">
    <path d="M 524.871636 57.342727 
L 550.076864 57.342727 
" clip-path="url(#p6eb5f70c8e)" style="fill: none; stroke: #1f77b4; stroke-width: 1.5"/>
   </g>
   <g id="LineCollection_19">
    <path d="M 524.871636 263.397273 
L 550.076864 263.397273 
" clip-path="url(#p6eb5f70c8e)" style="fill: none; stroke: #1f77b4; stroke-width: 1.5"/>
   </g>
   <g id="LineCollection_20">
    <path d="M 537.47425 263.397273 
L 537.47425 57.342727 
" clip-path="url(#p6eb5f70c8e)" style="fill: none; stroke: #1f77b4; stroke-width: 1.5"/>
   </g>
   <g id="patch_23">
    <path d="M 509.7485 273.7 
L 509.7485 47.04 
" style="fill: none; stroke: #000000; stroke-width: 0.8; stroke-linejoin: miter; stroke-linecap: square"/>
   </g>
   <g id="patch_24">
    <path d="M 565.2 273.7 
L 565.2 47.04 
" style="fill: none; stroke: #000000; stroke-width: 0.8; stroke-linejoin: miter; stroke-linecap: square"/>
   </g>
   <g id="patch_25">
    <path d="M 509.7485 273.7 
L 565.2 273.7 
" style="fill: none; stroke: #000000; stroke-width: 0.8; stroke-linejoin: miter; stroke-linecap: square"/>
   </g>
   <g id="patch_26">
    <path d="M 509.7485 47.04 
L 565.2 47.04 
" style="fill: none; stroke: #000000; stroke-width: 0.8; stroke-linejoin: miter; stroke-linecap: square"/>
   </g>
   <g id="text_40">
    <!-- RMSD stepwise -->
    <g transform="translate(491.422375 41.04)scale(0.12 -0.12)">
     <use xlink:href="#DejaVuSans-52"/>
     <use xlink:href="#DejaVuSans-4d" x="69.482422"/>
     <use xlink:href="#DejaVuSans-53" x="155.761719"/>
     <use xlink:href="#DejaVuSans-44" x="219.238281"/>
     <use xlink:href="#DejaVuSans-20" x="296.240234"/>
     <use xlink:href="#DejaVuSans-73" x="328.027344"/>
     <use xlink:href="#DejaVuSans-74" x="380.126953"/>
     <use xlink:href="#DejaVuSans-65" x="419.335938"/>
     <use xlink:href="#DejaVuSans-70" x="480.859375"/>
     <use xlink:href="#DejaVuSans-77" x="544.335938"/>
     <use xlink:href="#DejaVuSans-69" x="626.123047"/>
     <use xlink:href="#DejaVuSans-73" x="653.90625"/>
     <use xlink:href="#DejaVuSans-65" x="706.005859"/>
    </g>
   </g>
  </g>
  <g id="text_41">
   <!-- Compound 58. Rdkit -->
   <g transform="translate(226.573125 14.878125)scale(0.12 -0.12)">
    <defs>
     <path id="DejaVuSans-43" d="M 4122 4306 
L 4122 3641 
Q 3803 3938 3442 4084 
Q 3081 4231 2675 4231 
Q 1875 4231 1450 3742 
Q 1025 3253 1025 2328 
Q 1025 1406 1450 917 
Q 1875 428 2675 428 
Q 3081 428 3442 575 
Q 3803 722 4122 1019 
L 4122 359 
Q 3791 134 3420 21 
Q 3050 -91 2638 -91 
Q 1578 -91 968 557 
Q 359 1206 359 2328 
Q 359 3453 968 4101 
Q 1578 4750 2638 4750 
Q 3056 4750 3426 4639 
Q 3797 4528 4122 4306 
z
" transform="scale(0.015625)"/>
     <path id="DejaVuSans-6f" d="M 1959 3097 
Q 1497 3097 1228 2736 
Q 959 2375 959 1747 
Q 959 1119 1226 758 
Q 1494 397 1959 397 
Q 2419 397 2687 759 
Q 2956 1122 2956 1747 
Q 2956 2369 2687 2733 
Q 2419 3097 1959 3097 
z
M 1959 3584 
Q 2709 3584 3137 3096 
Q 3566 2609 3566 1747 
Q 3566 888 3137 398 
Q 2709 -91 1959 -91 
Q 1206 -91 779 398 
Q 353 888 353 1747 
Q 353 2609 779 3096 
Q 1206 3584 1959 3584 
z
" transform="scale(0.015625)"/>
     <path id="DejaVuSans-6d" d="M 3328 2828 
Q 3544 3216 3844 3400 
Q 4144 3584 4550 3584 
Q 5097 3584 5394 3201 
Q 5691 2819 5691 2113 
L 5691 0 
L 5113 0 
L 5113 2094 
Q 5113 2597 4934 2840 
Q 4756 3084 4391 3084 
Q 3944 3084 3684 2787 
Q 3425 2491 3425 1978 
L 3425 0 
L 2847 0 
L 2847 2094 
Q 2847 2600 2669 2842 
Q 2491 3084 2119 3084 
Q 1678 3084 1418 2786 
Q 1159 2488 1159 1978 
L 1159 0 
L 581 0 
L 581 3500 
L 1159 3500 
L 1159 2956 
Q 1356 3278 1631 3431 
Q 1906 3584 2284 3584 
Q 2666 3584 2933 3390 
Q 3200 3197 3328 2828 
z
" transform="scale(0.015625)"/>
     <path id="DejaVuSans-6e" d="M 3513 2113 
L 3513 0 
L 2938 0 
L 2938 2094 
Q 2938 2591 2744 2837 
Q 2550 3084 2163 3084 
Q 1697 3084 1428 2787 
Q 1159 2491 1159 1978 
L 1159 0 
L 581 0 
L 581 3500 
L 1159 3500 
L 1159 2956 
Q 1366 3272 1645 3428 
Q 1925 3584 2291 3584 
Q 2894 3584 3203 3211 
Q 3513 2838 3513 2113 
z
" transform="scale(0.015625)"/>
     <path id="DejaVuSans-6b" d="M 581 4863 
L 1159 4863 
L 1159 1991 
L 2875 3500 
L 3609 3500 
L 1753 1863 
L 3688 0 
L 2938 0 
L 1159 1709 
L 1159 0 
L 581 0 
L 581 4863 
z
" transform="scale(0.015625)"/>
    </defs>
    <use xlink:href="#DejaVuSans-43"/>
    <use xlink:href="#DejaVuSans-6f" x="69.824219"/>
    <use xlink:href="#DejaVuSans-6d" x="131.005859"/>
    <use xlink:href="#DejaVuSans-70" x="228.417969"/>
    <use xlink:href="#DejaVuSans-6f" x="291.894531"/>
    <use xlink:href="#DejaVuSans-75" x="353.076172"/>
    <use xlink:href="#DejaVuSans-6e" x="416.455078"/>
    <use xlink:href="#DejaVuSans-64" x="479.833984"/>
    <use xlink:href="#DejaVuSans-20" x="543.310547"/>
    <use xlink:href="#DejaVuSans-35" x="575.097656"/>
    <use xlink:href="#DejaVuSans-38" x="638.720703"/>
    <use xlink:href="#DejaVuSans-2e" x="702.34375"/>
    <use xlink:href="#DejaVuSans-20" x="734.130859"/>
    <use xlink:href="#DejaVuSans-52" x="765.917969"/>
    <use xlink:href="#DejaVuSans-64" x="835.400391"/>
    <use xlink:href="#DejaVuSans-6b" x="898.876953"/>
    <use xlink:href="#DejaVuSans-69" x="956.787109"/>
    <use xlink:href="#DejaVuSans-74" x="984.570312"/>
   </g>
  </g>
 </g>
 <defs>
  <clipPath id="pf20dc18045">
   <rect x="50.8925" y="47.04" width="55.4515" height="226.66"/>
  </clipPath>
  <clipPath id="p144c8eb423">
   <rect x="165.6065" y="47.04" width="55.4515" height="226.66"/>
  </clipPath>
  <clipPath id="p918a566b8f">
   <rect x="280.3205" y="47.04" width="55.4515" height="226.66"/>
  </clipPath>
  <clipPath id="pb046cd19a2">
   <rect x="395.0345" y="47.04" width="55.4515" height="226.66"/>
  </clipPath>
  <clipPath id="p6eb5f70c8e">
   <rect x="509.7485" y="47.04" width="55.4515" height="226.66"/>
  </clipPath>
 </defs>
</svg>
