<?xml version="1.0" encoding="utf-8" standalone="no"?>
<!DOCTYPE svg PUBLIC "-//W3C//DTD SVG 1.1//EN"
  "http://www.w3.org/Graphics/SVG/1.1/DTD/svg11.dtd">
<svg xmlns:xlink="http://www.w3.org/1999/xlink" width="576pt" height="288pt" viewBox="0 0 576 288" xmlns="http://www.w3.org/2000/svg" version="1.1">
 <metadata>
  <rdf:RDF xmlns:dc="http://purl.org/dc/elements/1.1/" xmlns:cc="http://creativecommons.org/ns#" xmlns:rdf="http://www.w3.org/1999/02/22-rdf-syntax-ns#">
   <cc:Work>
    <dc:type rdf:resource="http://purl.org/dc/dcmitype/StillImage"/>
    <dc:date>2023-05-31T12:16:56.124412</dc:date>
    <dc:format>image/svg+xml</dc:format>
    <dc:creator>
     <cc:Agent>
      <dc:title>Matplotlib v3.5.3, https://matplotlib.org/</dc:title>
     </cc:Agent>
    </dc:creator>
   </cc:Work>
  </rdf:RDF>
 </metadata>
 <defs>
  <style type="text/css">*{stroke-linejoin: round; stroke-linecap: butt}</style>
 </defs>
 <g id="figure_1">
  <g id="patch_1">
   <path d="M 0 288 
L 576 288 
L 576 0 
L 0 0 
z
" style="fill: #ffffff"/>
  </g>
  <g id="axes_1">
   <g id="patch_2">
    <path d="M 50.8925 271.971884 
L 106.344 271.971884 
L 106.344 47.04 
L 50.8925 47.04 
z
" style="fill: #ffffff"/>
   </g>
   <g id="PolyCollection_1">
    <path d="M 79.964762 261.747708 
L 77.271738 261.747708 
L 76.937963 259.682217 
L 76.541336 257.616727 
L 76.076804 255.551237 
L 75.540941 253.485747 
L 74.932352 251.420257 
L 74.251918 249.354766 
L 73.502881 247.289276 
L 72.690736 245.223786 
L 71.822974 243.158296 
L 70.90872 241.092805 
L 69.958332 239.027315 
L 68.98302 236.961825 
L 67.994515 234.896335 
L 67.004826 232.830845 
L 66.026042 230.765354 
L 65.070176 228.699864 
L 64.148995 226.634374 
L 63.273793 224.568884 
L 62.45509 222.503394 
L 61.702248 220.437903 
L 61.023017 218.372413 
L 60.423027 216.306923 
L 59.905289 214.241433 
L 59.469731 212.175942 
L 59.112832 210.110452 
L 58.827418 208.044962 
L 58.602679 205.979472 
L 58.424487 203.913982 
L 58.27604 201.848491 
L 58.138876 199.783001 
L 57.994192 197.717511 
L 57.824401 195.652021 
L 57.614755 193.586531 
L 57.354852 191.52104 
L 57.039821 189.45555 
L 56.671026 187.39006 
L 56.256153 185.32457 
L 55.808668 183.25908 
L 55.346682 181.193589 
L 54.891369 179.128099 
L 54.465104 177.062609 
L 54.089545 174.997119 
L 53.783862 172.931628 
L 53.563277 170.866138 
L 53.438059 168.800648 
L 53.413023 166.735158 
L 53.487531 164.669668 
L 53.65596 162.604177 
L 53.908514 160.538687 
L 54.232294 158.473197 
L 54.612492 156.407707 
L 55.033624 154.342217 
L 55.480705 152.276726 
L 55.940332 150.211236 
L 56.401597 148.145746 
L 56.856794 146.080256 
L 57.301851 144.014765 
L 57.736437 141.949275 
L 58.163679 139.883785 
L 58.589482 137.818295 
L 59.021496 135.752805 
L 59.467825 133.687314 
L 59.93566 131.621824 
L 60.430044 129.556334 
L 60.952993 127.490844 
L 61.503131 125.425354 
L 62.075923 123.359863 
L 62.664486 121.294373 
L 63.2608 119.228883 
L 63.857112 117.163393 
L 64.447232 115.097903 
L 65.027481 113.032412 
L 65.597086 110.966922 
L 66.157992 108.901432 
L 66.71411 106.835942 
L 67.270204 104.770451 
L 67.830638 102.704961 
L 68.398251 100.639471 
L 68.973562 98.573981 
L 69.554464 96.508491 
L 70.136411 94.443 
L 70.713058 92.37751 
L 71.277174 90.31202 
L 71.821668 88.24653 
L 72.340515 86.18104 
L 72.829445 84.115549 
L 73.286306 82.050059 
L 73.711076 79.984569 
L 74.105575 77.919079 
L 74.472968 75.853588 
L 74.817154 73.788098 
L 75.142166 71.722608 
L 75.451642 69.657118 
L 75.74844 67.591628 
L 76.034408 65.526137 
L 76.310311 63.460647 
L 76.5759 61.395157 
L 76.830082 59.329667 
L 77.071167 57.264177 
L 80.165333 57.264177 
L 80.165333 57.264177 
L 80.406418 59.329667 
L 80.6606 61.395157 
L 80.926189 63.460647 
L 81.202092 65.526137 
L 81.48806 67.591628 
L 81.784858 69.657118 
L 82.094334 71.722608 
L 82.419346 73.788098 
L 82.763532 75.853588 
L 83.130925 77.919079 
L 83.525424 79.984569 
L 83.950194 82.050059 
L 84.407055 84.115549 
L 84.895985 86.18104 
L 85.414832 88.24653 
L 85.959326 90.31202 
L 86.523442 92.37751 
L 87.100089 94.443 
L 87.682036 96.508491 
L 88.262938 98.573981 
L 88.838249 100.639471 
L 89.405862 102.704961 
L 89.966296 104.770451 
L 90.52239 106.835942 
L 91.078508 108.901432 
L 91.639414 110.966922 
L 92.209019 113.032412 
L 92.789268 115.097903 
L 93.379388 117.163393 
L 93.9757 119.228883 
L 94.572014 121.294373 
L 95.160577 123.359863 
L 95.733369 125.425354 
L 96.283507 127.490844 
L 96.806456 129.556334 
L 97.30084 131.621824 
L 97.768675 133.687314 
L 98.215004 135.752805 
L 98.647018 137.818295 
L 99.072821 139.883785 
L 99.500063 141.949275 
L 99.934649 144.014765 
L 100.379706 146.080256 
L 100.834903 148.145746 
L 101.296168 150.211236 
L 101.755795 152.276726 
L 102.202876 154.342217 
L 102.624008 156.407707 
L 103.004206 158.473197 
L 103.327986 160.538687 
L 103.58054 162.604177 
L 103.748969 164.669668 
L 103.823477 166.735158 
L 103.798441 168.800648 
L 103.673223 170.866138 
L 103.452638 172.931628 
L 103.146955 174.997119 
L 102.771396 177.062609 
L 102.345131 179.128099 
L 101.889818 181.193589 
L 101.427832 183.25908 
L 100.980347 185.32457 
L 100.565474 187.39006 
L 100.196679 189.45555 
L 99.881648 191.52104 
L 99.621745 193.586531 
L 99.412099 195.652021 
L 99.242308 197.717511 
L 99.097624 199.783001 
L 98.96046 201.848491 
L 98.812013 203.913982 
L 98.633821 205.979472 
L 98.409082 208.044962 
L 98.123668 210.110452 
L 97.766769 212.175942 
L 97.331211 214.241433 
L 96.813473 216.306923 
L 96.213483 218.372413 
L 95.534252 220.437903 
L 94.78141 222.503394 
L 93.962707 224.568884 
L 93.087505 226.634374 
L 92.166324 228.699864 
L 91.210458 230.765354 
L 90.231674 232.830845 
L 89.241985 234.896335 
L 88.25348 236.961825 
L 87.278168 239.027315 
L 86.32778 241.092805 
L 85.413526 243.158296 
L 84.545764 245.223786 
L 83.733619 247.289276 
L 82.984582 249.354766 
L 82.304148 251.420257 
L 81.695559 253.485747 
L 81.159696 255.551237 
L 80.695164 257.616727 
L 80.298537 259.682217 
L 79.964762 261.747708 
z
" clip-path="url(#p88d1f83122)" style="fill: #1f77b4; fill-opacity: 0.3"/>
   </g>
   <g id="matplotlib.axis_1">
    <g id="ytick_1">
     <g id="line2d_1">
      <defs>
       <path id="m8c97318bf1" d="M 0 0 
L -3.5 0 
" style="stroke: #000000; stroke-width: 0.8"/>
      </defs>
      <g>
       <use xlink:href="#m8c97318bf1" x="50.8925" y="248.35943" style="stroke: #000000; stroke-width: 0.8"/>
      </g>
     </g>
     <g id="text_1">
      <!-- 0.8 -->
      <g transform="translate(27.989375 252.158648)scale(0.1 -0.1)">
       <defs>
        <path id="DejaVuSans-30" d="M 2034 4250 
Q 1547 4250 1301 3770 
Q 1056 3291 1056 2328 
Q 1056 1369 1301 889 
Q 1547 409 2034 409 
Q 2525 409 2770 889 
Q 3016 1369 3016 2328 
Q 3016 3291 2770 3770 
Q 2525 4250 2034 4250 
z
M 2034 4750 
Q 2819 4750 3233 4129 
Q 3647 3509 3647 2328 
Q 3647 1150 3233 529 
Q 2819 -91 2034 -91 
Q 1250 -91 836 529 
Q 422 1150 422 2328 
Q 422 3509 836 4129 
Q 1250 4750 2034 4750 
z
" transform="scale(0.015625)"/>
        <path id="DejaVuSans-2e" d="M 684 794 
L 1344 794 
L 1344 0 
L 684 0 
L 684 794 
z
" transform="scale(0.015625)"/>
        <path id="DejaVuSans-38" d="M 2034 2216 
Q 1584 2216 1326 1975 
Q 1069 1734 1069 1313 
Q 1069 891 1326 650 
Q 1584 409 2034 409 
Q 2484 409 2743 651 
Q 3003 894 3003 1313 
Q 3003 1734 2745 1975 
Q 2488 2216 2034 2216 
z
M 1403 2484 
Q 997 2584 770 2862 
Q 544 3141 544 3541 
Q 544 4100 942 4425 
Q 1341 4750 2034 4750 
Q 2731 4750 3128 4425 
Q 3525 4100 3525 3541 
Q 3525 3141 3298 2862 
Q 3072 2584 2669 2484 
Q 3125 2378 3379 2068 
Q 3634 1759 3634 1313 
Q 3634 634 3220 271 
Q 2806 -91 2034 -91 
Q 1263 -91 848 271 
Q 434 634 434 1313 
Q 434 1759 690 2068 
Q 947 2378 1403 2484 
z
M 1172 3481 
Q 1172 3119 1398 2916 
Q 1625 2713 2034 2713 
Q 2441 2713 2670 2916 
Q 2900 3119 2900 3481 
Q 2900 3844 2670 4047 
Q 2441 4250 2034 4250 
Q 1625 4250 1398 4047 
Q 1172 3844 1172 3481 
z
" transform="scale(0.015625)"/>
       </defs>
       <use xlink:href="#DejaVuSans-30"/>
       <use xlink:href="#DejaVuSans-2e" x="63.623047"/>
       <use xlink:href="#DejaVuSans-38" x="95.410156"/>
      </g>
     </g>
    </g>
    <g id="ytick_2">
     <g id="line2d_2">
      <g>
       <use xlink:href="#m8c97318bf1" x="50.8925" y="218.666799" style="stroke: #000000; stroke-width: 0.8"/>
      </g>
     </g>
     <g id="text_2">
      <!-- 1.0 -->
      <g transform="translate(27.989375 222.466018)scale(0.1 -0.1)">
       <defs>
        <path id="DejaVuSans-31" d="M 794 531 
L 1825 531 
L 1825 4091 
L 703 3866 
L 703 4441 
L 1819 4666 
L 2450 4666 
L 2450 531 
L 3481 531 
L 3481 0 
L 794 0 
L 794 531 
z
" transform="scale(0.015625)"/>
       </defs>
       <use xlink:href="#DejaVuSans-31"/>
       <use xlink:href="#DejaVuSans-2e" x="63.623047"/>
       <use xlink:href="#DejaVuSans-30" x="95.410156"/>
      </g>
     </g>
    </g>
    <g id="ytick_3">
     <g id="line2d_3">
      <g>
       <use xlink:href="#m8c97318bf1" x="50.8925" y="188.974169" style="stroke: #000000; stroke-width: 0.8"/>
      </g>
     </g>
     <g id="text_3">
      <!-- 1.2 -->
      <g transform="translate(27.989375 192.773388)scale(0.1 -0.1)">
       <defs>
        <path id="DejaVuSans-32" d="M 1228 531 
L 3431 531 
L 3431 0 
L 469 0 
L 469 531 
Q 828 903 1448 1529 
Q 2069 2156 2228 2338 
Q 2531 2678 2651 2914 
Q 2772 3150 2772 3378 
Q 2772 3750 2511 3984 
Q 2250 4219 1831 4219 
Q 1534 4219 1204 4116 
Q 875 4013 500 3803 
L 500 4441 
Q 881 4594 1212 4672 
Q 1544 4750 1819 4750 
Q 2544 4750 2975 4387 
Q 3406 4025 3406 3419 
Q 3406 3131 3298 2873 
Q 3191 2616 2906 2266 
Q 2828 2175 2409 1742 
Q 1991 1309 1228 531 
z
" transform="scale(0.015625)"/>
       </defs>
       <use xlink:href="#DejaVuSans-31"/>
       <use xlink:href="#DejaVuSans-2e" x="63.623047"/>
       <use xlink:href="#DejaVuSans-32" x="95.410156"/>
      </g>
     </g>
    </g>
    <g id="ytick_4">
     <g id="line2d_4">
      <g>
       <use xlink:href="#m8c97318bf1" x="50.8925" y="159.281539" style="stroke: #000000; stroke-width: 0.8"/>
      </g>
     </g>
     <g id="text_4">
      <!-- 1.4 -->
      <g transform="translate(27.989375 163.080757)scale(0.1 -0.1)">
       <defs>
        <path id="DejaVuSans-34" d="M 2419 4116 
L 825 1625 
L 2419 1625 
L 2419 4116 
z
M 2253 4666 
L 3047 4666 
L 3047 1625 
L 3713 1625 
L 3713 1100 
L 3047 1100 
L 3047 0 
L 2419 0 
L 2419 1100 
L 313 1100 
L 313 1709 
L 2253 4666 
z
" transform="scale(0.015625)"/>
       </defs>
       <use xlink:href="#DejaVuSans-31"/>
       <use xlink:href="#DejaVuSans-2e" x="63.623047"/>
       <use xlink:href="#DejaVuSans-34" x="95.410156"/>
      </g>
     </g>
    </g>
    <g id="ytick_5">
     <g id="line2d_5">
      <g>
       <use xlink:href="#m8c97318bf1" x="50.8925" y="129.588908" style="stroke: #000000; stroke-width: 0.8"/>
      </g>
     </g>
     <g id="text_5">
      <!-- 1.6 -->
      <g transform="translate(27.989375 133.388127)scale(0.1 -0.1)">
       <defs>
        <path id="DejaVuSans-36" d="M 2113 2584 
Q 1688 2584 1439 2293 
Q 1191 2003 1191 1497 
Q 1191 994 1439 701 
Q 1688 409 2113 409 
Q 2538 409 2786 701 
Q 3034 994 3034 1497 
Q 3034 2003 2786 2293 
Q 2538 2584 2113 2584 
z
M 3366 4563 
L 3366 3988 
Q 3128 4100 2886 4159 
Q 2644 4219 2406 4219 
Q 1781 4219 1451 3797 
Q 1122 3375 1075 2522 
Q 1259 2794 1537 2939 
Q 1816 3084 2150 3084 
Q 2853 3084 3261 2657 
Q 3669 2231 3669 1497 
Q 3669 778 3244 343 
Q 2819 -91 2113 -91 
Q 1303 -91 875 529 
Q 447 1150 447 2328 
Q 447 3434 972 4092 
Q 1497 4750 2381 4750 
Q 2619 4750 2861 4703 
Q 3103 4656 3366 4563 
z
" transform="scale(0.015625)"/>
       </defs>
       <use xlink:href="#DejaVuSans-31"/>
       <use xlink:href="#DejaVuSans-2e" x="63.623047"/>
       <use xlink:href="#DejaVuSans-36" x="95.410156"/>
      </g>
     </g>
    </g>
    <g id="ytick_6">
     <g id="line2d_6">
      <g>
       <use xlink:href="#m8c97318bf1" x="50.8925" y="99.896278" style="stroke: #000000; stroke-width: 0.8"/>
      </g>
     </g>
     <g id="text_6">
      <!-- 1.8 -->
      <g transform="translate(27.989375 103.695497)scale(0.1 -0.1)">
       <use xlink:href="#DejaVuSans-31"/>
       <use xlink:href="#DejaVuSans-2e" x="63.623047"/>
       <use xlink:href="#DejaVuSans-38" x="95.410156"/>
      </g>
     </g>
    </g>
    <g id="ytick_7">
     <g id="line2d_7">
      <g>
       <use xlink:href="#m8c97318bf1" x="50.8925" y="70.203647" style="stroke: #000000; stroke-width: 0.8"/>
      </g>
     </g>
     <g id="text_7">
      <!-- 2.0 -->
      <g transform="translate(27.989375 74.002866)scale(0.1 -0.1)">
       <use xlink:href="#DejaVuSans-32"/>
       <use xlink:href="#DejaVuSans-2e" x="63.623047"/>
       <use xlink:href="#DejaVuSans-30" x="95.410156"/>
      </g>
     </g>
    </g>
    <g id="text_8">
     <!-- RMSD [$\AA$] -->
     <g transform="translate(21.909688 183.255942)rotate(-90)scale(0.1 -0.1)">
      <defs>
       <path id="DejaVuSans-52" d="M 2841 2188 
Q 3044 2119 3236 1894 
Q 3428 1669 3622 1275 
L 4263 0 
L 3584 0 
L 2988 1197 
Q 2756 1666 2539 1819 
Q 2322 1972 1947 1972 
L 1259 1972 
L 1259 0 
L 628 0 
L 628 4666 
L 2053 4666 
Q 2853 4666 3247 4331 
Q 3641 3997 3641 3322 
Q 3641 2881 3436 2590 
Q 3231 2300 2841 2188 
z
M 1259 4147 
L 1259 2491 
L 2053 2491 
Q 2509 2491 2742 2702 
Q 2975 2913 2975 3322 
Q 2975 3731 2742 3939 
Q 2509 4147 2053 4147 
L 1259 4147 
z
" transform="scale(0.015625)"/>
       <path id="DejaVuSans-4d" d="M 628 4666 
L 1569 4666 
L 2759 1491 
L 3956 4666 
L 4897 4666 
L 4897 0 
L 4281 0 
L 4281 4097 
L 3078 897 
L 2444 897 
L 1241 4097 
L 1241 0 
L 628 0 
L 628 4666 
z
" transform="scale(0.015625)"/>
       <path id="DejaVuSans-53" d="M 3425 4513 
L 3425 3897 
Q 3066 4069 2747 4153 
Q 2428 4238 2131 4238 
Q 1616 4238 1336 4038 
Q 1056 3838 1056 3469 
Q 1056 3159 1242 3001 
Q 1428 2844 1947 2747 
L 2328 2669 
Q 3034 2534 3370 2195 
Q 3706 1856 3706 1288 
Q 3706 609 3251 259 
Q 2797 -91 1919 -91 
Q 1588 -91 1214 -16 
Q 841 59 441 206 
L 441 856 
Q 825 641 1194 531 
Q 1563 422 1919 422 
Q 2459 422 2753 634 
Q 3047 847 3047 1241 
Q 3047 1584 2836 1778 
Q 2625 1972 2144 2069 
L 1759 2144 
Q 1053 2284 737 2584 
Q 422 2884 422 3419 
Q 422 4038 858 4394 
Q 1294 4750 2059 4750 
Q 2388 4750 2728 4690 
Q 3069 4631 3425 4513 
z
" transform="scale(0.015625)"/>
       <path id="DejaVuSans-44" d="M 1259 4147 
L 1259 519 
L 2022 519 
Q 2988 519 3436 956 
Q 3884 1394 3884 2338 
Q 3884 3275 3436 3711 
Q 2988 4147 2022 4147 
L 1259 4147 
z
M 628 4666 
L 1925 4666 
Q 3281 4666 3915 4102 
Q 4550 3538 4550 2338 
Q 4550 1131 3912 565 
Q 3275 0 1925 0 
L 628 0 
L 628 4666 
z
" transform="scale(0.015625)"/>
       <path id="DejaVuSans-20" transform="scale(0.015625)"/>
       <path id="DejaVuSans-5b" d="M 550 4863 
L 1875 4863 
L 1875 4416 
L 1125 4416 
L 1125 -397 
L 1875 -397 
L 1875 -844 
L 550 -844 
L 550 4863 
z
" transform="scale(0.015625)"/>
       <path id="DejaVuSans-Oblique-c5" d="M 3188 5081 
Q 3188 5278 3048 5417 
Q 2909 5556 2713 5556 
Q 2513 5556 2377 5420 
Q 2241 5284 2241 5081 
Q 2241 4884 2377 4746 
Q 2513 4609 2713 4609 
Q 2909 4609 3048 4746 
Q 3188 4884 3188 5081 
z
M 2203 4397 
Q 2034 4513 1945 4689 
Q 1856 4866 1856 5081 
Q 1856 5438 2106 5689 
Q 2356 5941 2713 5941 
Q 3069 5941 3320 5689 
Q 3572 5438 3572 5081 
Q 3572 4834 3458 4643 
Q 3344 4453 3128 4341 
L 3938 0 
L 3278 0 
L 3084 1197 
L 984 1197 
L 325 0 
L -341 0 
L 2203 4397 
z
M 2584 4044 
L 1275 1722 
L 2988 1722 
L 2584 4044 
z
" transform="scale(0.015625)"/>
       <path id="DejaVuSans-5d" d="M 1947 4863 
L 1947 -844 
L 622 -844 
L 622 -397 
L 1369 -397 
L 1369 4416 
L 622 4416 
L 622 4863 
L 1947 4863 
z
" transform="scale(0.015625)"/>
      </defs>
      <use xlink:href="#DejaVuSans-52" transform="translate(0 0.171875)"/>
      <use xlink:href="#DejaVuSans-4d" transform="translate(69.482422 0.171875)"/>
      <use xlink:href="#DejaVuSans-53" transform="translate(155.761719 0.171875)"/>
      <use xlink:href="#DejaVuSans-44" transform="translate(219.238281 0.171875)"/>
      <use xlink:href="#DejaVuSans-20" transform="translate(296.240234 0.171875)"/>
      <use xlink:href="#DejaVuSans-5b" transform="translate(328.027344 0.171875)"/>
      <use xlink:href="#DejaVuSans-Oblique-c5" transform="translate(367.041016 0.171875)"/>
      <use xlink:href="#DejaVuSans-5d" transform="translate(435.449219 0.171875)"/>
     </g>
    </g>
   </g>
   <g id="LineCollection_1">
    <path d="M 66.015636 166.065349 
L 91.220864 166.065349 
" clip-path="url(#p88d1f83122)" style="fill: none; stroke: #1f77b4; stroke-width: 1.5"/>
   </g>
   <g id="LineCollection_2">
    <path d="M 66.015636 57.264177 
L 91.220864 57.264177 
" clip-path="url(#p88d1f83122)" style="fill: none; stroke: #1f77b4; stroke-width: 1.5"/>
   </g>
   <g id="LineCollection_3">
    <path d="M 66.015636 261.747708 
L 91.220864 261.747708 
" clip-path="url(#p88d1f83122)" style="fill: none; stroke: #1f77b4; stroke-width: 1.5"/>
   </g>
   <g id="LineCollection_4">
    <path d="M 78.61825 261.747708 
L 78.61825 57.264177 
" clip-path="url(#p88d1f83122)" style="fill: none; stroke: #1f77b4; stroke-width: 1.5"/>
   </g>
   <g id="patch_3">
    <path d="M 50.8925 271.971884 
L 50.8925 47.04 
" style="fill: none; stroke: #000000; stroke-width: 0.8; stroke-linejoin: miter; stroke-linecap: square"/>
   </g>
   <g id="patch_4">
    <path d="M 106.344 271.971884 
L 106.344 47.04 
" style="fill: none; stroke: #000000; stroke-width: 0.8; stroke-linejoin: miter; stroke-linecap: square"/>
   </g>
   <g id="patch_5">
    <path d="M 50.8925 271.971884 
L 106.344 271.971884 
" style="fill: none; stroke: #000000; stroke-width: 0.8; stroke-linejoin: miter; stroke-linecap: square"/>
   </g>
   <g id="patch_6">
    <path d="M 50.8925 47.04 
L 106.344 47.04 
" style="fill: none; stroke: #000000; stroke-width: 0.8; stroke-linejoin: miter; stroke-linecap: square"/>
   </g>
   <g id="text_9">
    <!-- RMSD -->
    <g transform="translate(60.84325 41.04)scale(0.12 -0.12)">
     <use xlink:href="#DejaVuSans-52"/>
     <use xlink:href="#DejaVuSans-4d" x="69.482422"/>
     <use xlink:href="#DejaVuSans-53" x="155.761719"/>
     <use xlink:href="#DejaVuSans-44" x="219.238281"/>
    </g>
   </g>
  </g>
  <g id="axes_2">
   <g id="patch_7">
    <path d="M 165.6065 271.971884 
L 221.058 271.971884 
L 221.058 47.04 
L 165.6065 47.04 
z
" style="fill: #ffffff"/>
   </g>
   <g id="PolyCollection_2">
    <path d="M 194.298286 261.747708 
L 192.366214 261.747708 
L 192.170416 259.682217 
L 191.946544 257.616727 
L 191.692578 255.551237 
L 191.40692 253.485747 
L 191.08863 251.420257 
L 190.737642 249.354766 
L 190.354943 247.289276 
L 189.942668 245.223786 
L 189.504064 243.158296 
L 189.043319 241.092805 
L 188.565225 239.027315 
L 188.074721 236.961825 
L 187.576346 234.896335 
L 187.073695 232.830845 
L 186.56894 230.765354 
L 186.062524 228.699864 
L 185.553096 226.634374 
L 185.037734 224.568884 
L 184.512469 222.503394 
L 183.973062 220.437903 
L 183.415959 218.372413 
L 182.839255 216.306923 
L 182.243518 214.241433 
L 181.632275 212.175942 
L 181.012029 210.110452 
L 180.391707 208.044962 
L 179.781575 205.979472 
L 179.191737 203.913982 
L 178.630447 201.848491 
L 178.10252 199.783001 
L 177.608149 197.717511 
L 177.142366 195.652021 
L 176.69532 193.586531 
L 176.253377 191.52104 
L 175.800938 189.45555 
L 175.322731 187.39006 
L 174.806267 185.32457 
L 174.244085 183.25908 
L 173.63546 181.193589 
L 172.987301 179.128099 
L 172.31406 177.062609 
L 171.636625 174.997119 
L 170.980288 172.931628 
L 170.372012 170.866138 
L 169.837331 168.800648 
L 169.397253 166.735158 
L 169.065582 164.669668 
L 168.847003 162.604177 
L 168.736225 160.538687 
L 168.718312 158.473197 
L 168.770239 156.407707 
L 168.863505 154.342217 
L 168.967523 152.276726 
L 169.053372 150.211236 
L 169.097416 148.145746 
L 169.084304 146.080256 
L 169.008912 144.014765 
L 168.876942 141.949275 
L 168.704087 139.883785 
L 168.51392 137.818295 
L 168.334843 135.752805 
L 168.196618 133.687314 
L 168.127023 131.621824 
L 168.149118 129.556334 
L 168.279476 127.490844 
L 168.527481 125.425354 
L 168.895624 123.359863 
L 169.380531 121.294373 
L 169.97438 119.228883 
L 170.666391 117.163393 
L 171.444107 115.097903 
L 172.294361 113.032412 
L 173.2039 110.966922 
L 174.159764 108.901432 
L 175.149534 106.835942 
L 176.161542 104.770451 
L 177.185101 102.704961 
L 178.210735 100.639471 
L 179.230342 98.573981 
L 180.237228 96.508491 
L 181.225962 94.443 
L 182.192057 92.37751 
L 183.131547 90.31202 
L 184.040557 88.24653 
L 184.914979 86.18104 
L 185.75034 84.115549 
L 186.5419 82.050059 
L 187.284962 79.984569 
L 187.975321 77.919079 
L 188.609749 75.853588 
L 189.186428 73.788098 
L 189.705222 71.722608 
L 190.167757 69.657118 
L 190.577276 67.591628 
L 190.938312 65.526137 
L 191.256217 63.460647 
L 191.536635 61.395157 
L 191.784992 59.329667 
L 192.006077 57.264177 
L 194.658423 57.264177 
L 194.658423 57.264177 
L 194.879508 59.329667 
L 195.127865 61.395157 
L 195.408283 63.460647 
L 195.726188 65.526137 
L 196.087224 67.591628 
L 196.496743 69.657118 
L 196.959278 71.722608 
L 197.478072 73.788098 
L 198.054751 75.853588 
L 198.689179 77.919079 
L 199.379538 79.984569 
L 200.1226 82.050059 
L 200.91416 84.115549 
L 201.749521 86.18104 
L 202.623943 88.24653 
L 203.532953 90.31202 
L 204.472443 92.37751 
L 205.438538 94.443 
L 206.427272 96.508491 
L 207.434158 98.573981 
L 208.453765 100.639471 
L 209.479399 102.704961 
L 210.502958 104.770451 
L 211.514966 106.835942 
L 212.504736 108.901432 
L 213.4606 110.966922 
L 214.370139 113.032412 
L 215.220393 115.097903 
L 215.998109 117.163393 
L 216.69012 119.228883 
L 217.283969 121.294373 
L 217.768876 123.359863 
L 218.137019 125.425354 
L 218.385024 127.490844 
L 218.515382 129.556334 
L 218.537477 131.621824 
L 218.467882 133.687314 
L 218.329657 135.752805 
L 218.15058 137.818295 
L 217.960413 139.883785 
L 217.787558 141.949275 
L 217.655588 144.014765 
L 217.580196 146.080256 
L 217.567084 148.145746 
L 217.611128 150.211236 
L 217.696977 152.276726 
L 217.800995 154.342217 
L 217.894261 156.407707 
L 217.946188 158.473197 
L 217.928275 160.538687 
L 217.817497 162.604177 
L 217.598918 164.669668 
L 217.267247 166.735158 
L 216.827169 168.800648 
L 216.292488 170.866138 
L 215.684212 172.931628 
L 215.027875 174.997119 
L 214.35044 177.062609 
L 213.677199 179.128099 
L 213.02904 181.193589 
L 212.420415 183.25908 
L 211.858233 185.32457 
L 211.341769 187.39006 
L 210.863562 189.45555 
L 210.411123 191.52104 
L 209.96918 193.586531 
L 209.522134 195.652021 
L 209.056351 197.717511 
L 208.56198 199.783001 
L 208.034053 201.848491 
L 207.472763 203.913982 
L 206.882925 205.979472 
L 206.272793 208.044962 
L 205.652471 210.110452 
L 205.032225 212.175942 
L 204.420982 214.241433 
L 203.825245 216.306923 
L 203.248541 218.372413 
L 202.691438 220.437903 
L 202.152031 222.503394 
L 201.626766 224.568884 
L 201.111404 226.634374 
L 200.601976 228.699864 
L 200.09556 230.765354 
L 199.590805 232.830845 
L 199.088154 234.896335 
L 198.589779 236.961825 
L 198.099275 239.027315 
L 197.621181 241.092805 
L 197.160436 243.158296 
L 196.721832 245.223786 
L 196.309557 247.289276 
L 195.926858 249.354766 
L 195.57587 251.420257 
L 195.25758 253.485747 
L 194.971922 255.551237 
L 194.717956 257.616727 
L 194.494084 259.682217 
L 194.298286 261.747708 
z
" clip-path="url(#p399705c1eb)" style="fill: #1f77b4; fill-opacity: 0.3"/>
   </g>
   <g id="matplotlib.axis_2">
    <g id="ytick_8">
     <g id="line2d_8">
      <g>
       <use xlink:href="#m8c97318bf1" x="165.6065" y="271.067243" style="stroke: #000000; stroke-width: 0.8"/>
      </g>
     </g>
     <g id="text_10">
      <!-- 0.5 -->
      <g transform="translate(142.703375 274.866462)scale(0.1 -0.1)">
       <defs>
        <path id="DejaVuSans-35" d="M 691 4666 
L 3169 4666 
L 3169 4134 
L 1269 4134 
L 1269 2991 
Q 1406 3038 1543 3061 
Q 1681 3084 1819 3084 
Q 2600 3084 3056 2656 
Q 3513 2228 3513 1497 
Q 3513 744 3044 326 
Q 2575 -91 1722 -91 
Q 1428 -91 1123 -41 
Q 819 9 494 109 
L 494 744 
Q 775 591 1075 516 
Q 1375 441 1709 441 
Q 2250 441 2565 725 
Q 2881 1009 2881 1497 
Q 2881 1984 2565 2268 
Q 2250 2553 1709 2553 
Q 1456 2553 1204 2497 
Q 953 2441 691 2322 
L 691 4666 
z
" transform="scale(0.015625)"/>
       </defs>
       <use xlink:href="#DejaVuSans-30"/>
       <use xlink:href="#DejaVuSans-2e" x="63.623047"/>
       <use xlink:href="#DejaVuSans-35" x="95.410156"/>
      </g>
     </g>
    </g>
    <g id="ytick_9">
     <g id="line2d_9">
      <g>
       <use xlink:href="#m8c97318bf1" x="165.6065" y="241.048119" style="stroke: #000000; stroke-width: 0.8"/>
      </g>
     </g>
     <g id="text_11">
      <!-- 0.6 -->
      <g transform="translate(142.703375 244.847337)scale(0.1 -0.1)">
       <use xlink:href="#DejaVuSans-30"/>
       <use xlink:href="#DejaVuSans-2e" x="63.623047"/>
       <use xlink:href="#DejaVuSans-36" x="95.410156"/>
      </g>
     </g>
    </g>
    <g id="ytick_10">
     <g id="line2d_10">
      <g>
       <use xlink:href="#m8c97318bf1" x="165.6065" y="211.028994" style="stroke: #000000; stroke-width: 0.8"/>
      </g>
     </g>
     <g id="text_12">
      <!-- 0.7 -->
      <g transform="translate(142.703375 214.828213)scale(0.1 -0.1)">
       <defs>
        <path id="DejaVuSans-37" d="M 525 4666 
L 3525 4666 
L 3525 4397 
L 1831 0 
L 1172 0 
L 2766 4134 
L 525 4134 
L 525 4666 
z
" transform="scale(0.015625)"/>
       </defs>
       <use xlink:href="#DejaVuSans-30"/>
       <use xlink:href="#DejaVuSans-2e" x="63.623047"/>
       <use xlink:href="#DejaVuSans-37" x="95.410156"/>
      </g>
     </g>
    </g>
    <g id="ytick_11">
     <g id="line2d_11">
      <g>
       <use xlink:href="#m8c97318bf1" x="165.6065" y="181.009869" style="stroke: #000000; stroke-width: 0.8"/>
      </g>
     </g>
     <g id="text_13">
      <!-- 0.8 -->
      <g transform="translate(142.703375 184.809088)scale(0.1 -0.1)">
       <use xlink:href="#DejaVuSans-30"/>
       <use xlink:href="#DejaVuSans-2e" x="63.623047"/>
       <use xlink:href="#DejaVuSans-38" x="95.410156"/>
      </g>
     </g>
    </g>
    <g id="ytick_12">
     <g id="line2d_12">
      <g>
       <use xlink:href="#m8c97318bf1" x="165.6065" y="150.990745" style="stroke: #000000; stroke-width: 0.8"/>
      </g>
     </g>
     <g id="text_14">
      <!-- 0.9 -->
      <g transform="translate(142.703375 154.789963)scale(0.1 -0.1)">
       <defs>
        <path id="DejaVuSans-39" d="M 703 97 
L 703 672 
Q 941 559 1184 500 
Q 1428 441 1663 441 
Q 2288 441 2617 861 
Q 2947 1281 2994 2138 
Q 2813 1869 2534 1725 
Q 2256 1581 1919 1581 
Q 1219 1581 811 2004 
Q 403 2428 403 3163 
Q 403 3881 828 4315 
Q 1253 4750 1959 4750 
Q 2769 4750 3195 4129 
Q 3622 3509 3622 2328 
Q 3622 1225 3098 567 
Q 2575 -91 1691 -91 
Q 1453 -91 1209 -44 
Q 966 3 703 97 
z
M 1959 2075 
Q 2384 2075 2632 2365 
Q 2881 2656 2881 3163 
Q 2881 3666 2632 3958 
Q 2384 4250 1959 4250 
Q 1534 4250 1286 3958 
Q 1038 3666 1038 3163 
Q 1038 2656 1286 2365 
Q 1534 2075 1959 2075 
z
" transform="scale(0.015625)"/>
       </defs>
       <use xlink:href="#DejaVuSans-30"/>
       <use xlink:href="#DejaVuSans-2e" x="63.623047"/>
       <use xlink:href="#DejaVuSans-39" x="95.410156"/>
      </g>
     </g>
    </g>
    <g id="ytick_13">
     <g id="line2d_13">
      <g>
       <use xlink:href="#m8c97318bf1" x="165.6065" y="120.97162" style="stroke: #000000; stroke-width: 0.8"/>
      </g>
     </g>
     <g id="text_15">
      <!-- 1.0 -->
      <g transform="translate(142.703375 124.770839)scale(0.1 -0.1)">
       <use xlink:href="#DejaVuSans-31"/>
       <use xlink:href="#DejaVuSans-2e" x="63.623047"/>
       <use xlink:href="#DejaVuSans-30" x="95.410156"/>
      </g>
     </g>
    </g>
    <g id="ytick_14">
     <g id="line2d_14">
      <g>
       <use xlink:href="#m8c97318bf1" x="165.6065" y="90.952495" style="stroke: #000000; stroke-width: 0.8"/>
      </g>
     </g>
     <g id="text_16">
      <!-- 1.1 -->
      <g transform="translate(142.703375 94.751714)scale(0.1 -0.1)">
       <use xlink:href="#DejaVuSans-31"/>
       <use xlink:href="#DejaVuSans-2e" x="63.623047"/>
       <use xlink:href="#DejaVuSans-31" x="95.410156"/>
      </g>
     </g>
    </g>
    <g id="ytick_15">
     <g id="line2d_15">
      <g>
       <use xlink:href="#m8c97318bf1" x="165.6065" y="60.933371" style="stroke: #000000; stroke-width: 0.8"/>
      </g>
     </g>
     <g id="text_17">
      <!-- 1.2 -->
      <g transform="translate(142.703375 64.732589)scale(0.1 -0.1)">
       <use xlink:href="#DejaVuSans-31"/>
       <use xlink:href="#DejaVuSans-2e" x="63.623047"/>
       <use xlink:href="#DejaVuSans-32" x="95.410156"/>
      </g>
     </g>
    </g>
    <g id="text_18">
     <!-- MAE [$\AA$] -->
     <g transform="translate(136.623687 179.355942)rotate(-90)scale(0.1 -0.1)">
      <defs>
       <path id="DejaVuSans-41" d="M 2188 4044 
L 1331 1722 
L 3047 1722 
L 2188 4044 
z
M 1831 4666 
L 2547 4666 
L 4325 0 
L 3669 0 
L 3244 1197 
L 1141 1197 
L 716 0 
L 50 0 
L 1831 4666 
z
" transform="scale(0.015625)"/>
       <path id="DejaVuSans-45" d="M 628 4666 
L 3578 4666 
L 3578 4134 
L 1259 4134 
L 1259 2753 
L 3481 2753 
L 3481 2222 
L 1259 2222 
L 1259 531 
L 3634 531 
L 3634 0 
L 628 0 
L 628 4666 
z
" transform="scale(0.015625)"/>
      </defs>
      <use xlink:href="#DejaVuSans-4d" transform="translate(0 0.171875)"/>
      <use xlink:href="#DejaVuSans-41" transform="translate(86.279297 0.171875)"/>
      <use xlink:href="#DejaVuSans-45" transform="translate(154.6875 0.171875)"/>
      <use xlink:href="#DejaVuSans-20" transform="translate(217.871094 0.171875)"/>
      <use xlink:href="#DejaVuSans-5b" transform="translate(249.658203 0.171875)"/>
      <use xlink:href="#DejaVuSans-Oblique-c5" transform="translate(288.671875 0.171875)"/>
      <use xlink:href="#DejaVuSans-5d" transform="translate(357.080078 0.171875)"/>
     </g>
    </g>
   </g>
   <g id="LineCollection_5">
    <path d="M 180.729636 153.617183 
L 205.934864 153.617183 
" clip-path="url(#p399705c1eb)" style="fill: none; stroke: #1f77b4; stroke-width: 1.5"/>
   </g>
   <g id="LineCollection_6">
    <path d="M 180.729636 57.264177 
L 205.934864 57.264177 
" clip-path="url(#p399705c1eb)" style="fill: none; stroke: #1f77b4; stroke-width: 1.5"/>
   </g>
   <g id="LineCollection_7">
    <path d="M 180.729636 261.747708 
L 205.934864 261.747708 
" clip-path="url(#p399705c1eb)" style="fill: none; stroke: #1f77b4; stroke-width: 1.5"/>
   </g>
   <g id="LineCollection_8">
    <path d="M 193.33225 261.747708 
L 193.33225 57.264177 
" clip-path="url(#p399705c1eb)" style="fill: none; stroke: #1f77b4; stroke-width: 1.5"/>
   </g>
   <g id="patch_8">
    <path d="M 165.6065 271.971884 
L 165.6065 47.04 
" style="fill: none; stroke: #000000; stroke-width: 0.8; stroke-linejoin: miter; stroke-linecap: square"/>
   </g>
   <g id="patch_9">
    <path d="M 221.058 271.971884 
L 221.058 47.04 
" style="fill: none; stroke: #000000; stroke-width: 0.8; stroke-linejoin: miter; stroke-linecap: square"/>
   </g>
   <g id="patch_10">
    <path d="M 165.6065 271.971884 
L 221.058 271.971884 
" style="fill: none; stroke: #000000; stroke-width: 0.8; stroke-linejoin: miter; stroke-linecap: square"/>
   </g>
   <g id="patch_11">
    <path d="M 165.6065 47.04 
L 221.058 47.04 
" style="fill: none; stroke: #000000; stroke-width: 0.8; stroke-linejoin: miter; stroke-linecap: square"/>
   </g>
   <g id="text_19">
    <!-- MAE -->
    <g transform="translate(180.25975 41.04)scale(0.12 -0.12)">
     <use xlink:href="#DejaVuSans-4d"/>
     <use xlink:href="#DejaVuSans-41" x="86.279297"/>
     <use xlink:href="#DejaVuSans-45" x="154.6875"/>
    </g>
   </g>
  </g>
  <g id="axes_3">
   <g id="patch_12">
    <path d="M 280.3205 271.971884 
L 335.772 271.971884 
L 335.772 47.04 
L 280.3205 47.04 
z
" style="fill: #ffffff"/>
   </g>
   <g id="PolyCollection_3">
    <path d="M 308.728248 261.747708 
L 307.364252 261.747708 
L 307.257321 259.682217 
L 307.134851 257.616727 
L 306.992564 255.551237 
L 306.825926 253.485747 
L 306.630558 251.420257 
L 306.402569 249.354766 
L 306.138755 247.289276 
L 305.836669 245.223786 
L 305.494623 243.158296 
L 305.111743 241.092805 
L 304.688175 239.027315 
L 304.225482 236.961825 
L 303.727168 234.896335 
L 303.199155 232.830845 
L 302.649962 230.765354 
L 302.090388 228.699864 
L 301.53255 226.634374 
L 300.988382 224.568884 
L 300.467836 222.503394 
L 299.97722 220.437903 
L 299.518109 218.372413 
L 299.087188 216.306923 
L 298.67715 214.241433 
L 298.278503 212.175942 
L 297.881914 210.110452 
L 297.480539 208.044962 
L 297.071803 205.979472 
L 296.658224 203.913982 
L 296.24709 201.848491 
L 295.849069 199.783001 
L 295.476059 197.717511 
L 295.138729 195.652021 
L 294.84426 193.586531 
L 294.594701 191.52104 
L 294.386229 189.45555 
L 294.209392 187.39006 
L 294.050198 185.32457 
L 293.891784 183.25908 
L 293.716296 181.193589 
L 293.506637 179.128099 
L 293.247859 177.062609 
L 292.928096 174.997119 
L 292.539096 172.931628 
L 292.076496 170.866138 
L 291.539972 168.800648 
L 290.933348 166.735158 
L 290.264602 164.669668 
L 289.545663 162.604177 
L 288.791812 160.538687 
L 288.020654 158.473197 
L 287.250719 156.407707 
L 286.499967 154.342217 
L 285.784591 152.276726 
L 285.118476 150.211236 
L 284.513533 148.145746 
L 283.980838 146.080256 
L 283.532179 144.014765 
L 283.181406 141.949275 
L 282.944945 139.883785 
L 282.841023 137.818295 
L 282.887525 135.752805 
L 283.098888 133.687314 
L 283.482753 131.621824 
L 284.037313 129.556334 
L 284.750131 127.490844 
L 285.598894 125.425354 
L 286.554024 123.359863 
L 287.582614 121.294373 
L 288.652838 119.228883 
L 289.737845 117.163393 
L 290.818368 115.097903 
L 291.88359 113.032412 
L 292.930248 110.966922 
L 293.960368 108.901432 
L 294.978279 106.835942 
L 295.987636 104.770451 
L 296.989113 102.704961 
L 297.979181 100.639471 
L 298.950096 98.573981 
L 299.890964 96.508491 
L 300.789476 94.443 
L 301.633873 92.37751 
L 302.414659 90.31202 
L 303.125732 88.24653 
L 303.764779 86.18104 
L 304.332973 84.115549 
L 304.834161 82.050059 
L 305.273826 79.984569 
L 305.658089 77.919079 
L 305.992951 75.853588 
L 306.283876 73.788098 
L 306.53569 71.722608 
L 306.752697 69.657118 
L 306.938892 67.591628 
L 307.098134 65.526137 
L 307.234231 63.460647 
L 307.350885 61.395157 
L 307.451561 59.329667 
L 307.539304 57.264177 
L 308.553196 57.264177 
L 308.553196 57.264177 
L 308.640939 59.329667 
L 308.741615 61.395157 
L 308.858269 63.460647 
L 308.994366 65.526137 
L 309.153608 67.591628 
L 309.339803 69.657118 
L 309.55681 71.722608 
L 309.808624 73.788098 
L 310.099549 75.853588 
L 310.434411 77.919079 
L 310.818674 79.984569 
L 311.258339 82.050059 
L 311.759527 84.115549 
L 312.327721 86.18104 
L 312.966768 88.24653 
L 313.677841 90.31202 
L 314.458627 92.37751 
L 315.303024 94.443 
L 316.201536 96.508491 
L 317.142404 98.573981 
L 318.113319 100.639471 
L 319.103387 102.704961 
L 320.104864 104.770451 
L 321.114221 106.835942 
L 322.132132 108.901432 
L 323.162252 110.966922 
L 324.20891 113.032412 
L 325.274132 115.097903 
L 326.354655 117.163393 
L 327.439662 119.228883 
L 328.509886 121.294373 
L 329.538476 123.359863 
L 330.493606 125.425354 
L 331.342369 127.490844 
L 332.055187 129.556334 
L 332.609747 131.621824 
L 332.993612 133.687314 
L 333.204975 135.752805 
L 333.251477 137.818295 
L 333.147555 139.883785 
L 332.911094 141.949275 
L 332.560321 144.014765 
L 332.111662 146.080256 
L 331.578967 148.145746 
L 330.974024 150.211236 
L 330.307909 152.276726 
L 329.592533 154.342217 
L 328.841781 156.407707 
L 328.071846 158.473197 
L 327.300688 160.538687 
L 326.546837 162.604177 
L 325.827898 164.669668 
L 325.159152 166.735158 
L 324.552528 168.800648 
L 324.016004 170.866138 
L 323.553404 172.931628 
L 323.164404 174.997119 
L 322.844641 177.062609 
L 322.585863 179.128099 
L 322.376204 181.193589 
L 322.200716 183.25908 
L 322.042302 185.32457 
L 321.883108 187.39006 
L 321.706271 189.45555 
L 321.497799 191.52104 
L 321.24824 193.586531 
L 320.953771 195.652021 
L 320.616441 197.717511 
L 320.243431 199.783001 
L 319.84541 201.848491 
L 319.434276 203.913982 
L 319.020697 205.979472 
L 318.611961 208.044962 
L 318.210586 210.110452 
L 317.813997 212.175942 
L 317.41535 214.241433 
L 317.005312 216.306923 
L 316.574391 218.372413 
L 316.11528 220.437903 
L 315.624664 222.503394 
L 315.104118 224.568884 
L 314.55995 226.634374 
L 314.002112 228.699864 
L 313.442538 230.765354 
L 312.893345 232.830845 
L 312.365332 234.896335 
L 311.867018 236.961825 
L 311.404325 239.027315 
L 310.980757 241.092805 
L 310.597877 243.158296 
L 310.255831 245.223786 
L 309.953745 247.289276 
L 309.689931 249.354766 
L 309.461942 251.420257 
L 309.266574 253.485747 
L 309.099936 255.551237 
L 308.957649 257.616727 
L 308.835179 259.682217 
L 308.728248 261.747708 
z
" clip-path="url(#p7fbea1c00a)" style="fill: #1f77b4; fill-opacity: 0.3"/>
   </g>
   <g id="matplotlib.axis_3">
    <g id="ytick_16">
     <g id="line2d_16">
      <g>
       <use xlink:href="#m8c97318bf1" x="280.3205" y="269.928487" style="stroke: #000000; stroke-width: 0.8"/>
      </g>
     </g>
     <g id="text_20">
      <!-- −0.4 -->
      <g transform="translate(249.037687 273.727706)scale(0.1 -0.1)">
       <defs>
        <path id="DejaVuSans-2212" d="M 678 2272 
L 4684 2272 
L 4684 1741 
L 678 1741 
L 678 2272 
z
" transform="scale(0.015625)"/>
       </defs>
       <use xlink:href="#DejaVuSans-2212"/>
       <use xlink:href="#DejaVuSans-30" x="83.789062"/>
       <use xlink:href="#DejaVuSans-2e" x="147.412109"/>
       <use xlink:href="#DejaVuSans-34" x="179.199219"/>
      </g>
     </g>
    </g>
    <g id="ytick_17">
     <g id="line2d_17">
      <g>
       <use xlink:href="#m8c97318bf1" x="280.3205" y="242.105263" style="stroke: #000000; stroke-width: 0.8"/>
      </g>
     </g>
     <g id="text_21">
      <!-- −0.3 -->
      <g transform="translate(249.037687 245.904482)scale(0.1 -0.1)">
       <defs>
        <path id="DejaVuSans-33" d="M 2597 2516 
Q 3050 2419 3304 2112 
Q 3559 1806 3559 1356 
Q 3559 666 3084 287 
Q 2609 -91 1734 -91 
Q 1441 -91 1130 -33 
Q 819 25 488 141 
L 488 750 
Q 750 597 1062 519 
Q 1375 441 1716 441 
Q 2309 441 2620 675 
Q 2931 909 2931 1356 
Q 2931 1769 2642 2001 
Q 2353 2234 1838 2234 
L 1294 2234 
L 1294 2753 
L 1863 2753 
Q 2328 2753 2575 2939 
Q 2822 3125 2822 3475 
Q 2822 3834 2567 4026 
Q 2313 4219 1838 4219 
Q 1578 4219 1281 4162 
Q 984 4106 628 3988 
L 628 4550 
Q 988 4650 1302 4700 
Q 1616 4750 1894 4750 
Q 2613 4750 3031 4423 
Q 3450 4097 3450 3541 
Q 3450 3153 3228 2886 
Q 3006 2619 2597 2516 
z
" transform="scale(0.015625)"/>
       </defs>
       <use xlink:href="#DejaVuSans-2212"/>
       <use xlink:href="#DejaVuSans-30" x="83.789062"/>
       <use xlink:href="#DejaVuSans-2e" x="147.412109"/>
       <use xlink:href="#DejaVuSans-33" x="179.199219"/>
      </g>
     </g>
    </g>
    <g id="ytick_18">
     <g id="line2d_18">
      <g>
       <use xlink:href="#m8c97318bf1" x="280.3205" y="214.28204" style="stroke: #000000; stroke-width: 0.8"/>
      </g>
     </g>
     <g id="text_22">
      <!-- −0.2 -->
      <g transform="translate(249.037687 218.081259)scale(0.1 -0.1)">
       <use xlink:href="#DejaVuSans-2212"/>
       <use xlink:href="#DejaVuSans-30" x="83.789062"/>
       <use xlink:href="#DejaVuSans-2e" x="147.412109"/>
       <use xlink:href="#DejaVuSans-32" x="179.199219"/>
      </g>
     </g>
    </g>
    <g id="ytick_19">
     <g id="line2d_19">
      <g>
       <use xlink:href="#m8c97318bf1" x="280.3205" y="186.458816" style="stroke: #000000; stroke-width: 0.8"/>
      </g>
     </g>
     <g id="text_23">
      <!-- −0.1 -->
      <g transform="translate(249.037687 190.258035)scale(0.1 -0.1)">
       <use xlink:href="#DejaVuSans-2212"/>
       <use xlink:href="#DejaVuSans-30" x="83.789062"/>
       <use xlink:href="#DejaVuSans-2e" x="147.412109"/>
       <use xlink:href="#DejaVuSans-31" x="179.199219"/>
      </g>
     </g>
    </g>
    <g id="ytick_20">
     <g id="line2d_20">
      <g>
       <use xlink:href="#m8c97318bf1" x="280.3205" y="158.635593" style="stroke: #000000; stroke-width: 0.8"/>
      </g>
     </g>
     <g id="text_24">
      <!-- 0.0 -->
      <g transform="translate(257.417375 162.434811)scale(0.1 -0.1)">
       <use xlink:href="#DejaVuSans-30"/>
       <use xlink:href="#DejaVuSans-2e" x="63.623047"/>
       <use xlink:href="#DejaVuSans-30" x="95.410156"/>
      </g>
     </g>
    </g>
    <g id="ytick_21">
     <g id="line2d_21">
      <g>
       <use xlink:href="#m8c97318bf1" x="280.3205" y="130.812369" style="stroke: #000000; stroke-width: 0.8"/>
      </g>
     </g>
     <g id="text_25">
      <!-- 0.1 -->
      <g transform="translate(257.417375 134.611588)scale(0.1 -0.1)">
       <use xlink:href="#DejaVuSans-30"/>
       <use xlink:href="#DejaVuSans-2e" x="63.623047"/>
       <use xlink:href="#DejaVuSans-31" x="95.410156"/>
      </g>
     </g>
    </g>
    <g id="ytick_22">
     <g id="line2d_22">
      <g>
       <use xlink:href="#m8c97318bf1" x="280.3205" y="102.989146" style="stroke: #000000; stroke-width: 0.8"/>
      </g>
     </g>
     <g id="text_26">
      <!-- 0.2 -->
      <g transform="translate(257.417375 106.788364)scale(0.1 -0.1)">
       <use xlink:href="#DejaVuSans-30"/>
       <use xlink:href="#DejaVuSans-2e" x="63.623047"/>
       <use xlink:href="#DejaVuSans-32" x="95.410156"/>
      </g>
     </g>
    </g>
    <g id="ytick_23">
     <g id="line2d_23">
      <g>
       <use xlink:href="#m8c97318bf1" x="280.3205" y="75.165922" style="stroke: #000000; stroke-width: 0.8"/>
      </g>
     </g>
     <g id="text_27">
      <!-- 0.3 -->
      <g transform="translate(257.417375 78.965141)scale(0.1 -0.1)">
       <use xlink:href="#DejaVuSans-30"/>
       <use xlink:href="#DejaVuSans-2e" x="63.623047"/>
       <use xlink:href="#DejaVuSans-33" x="95.410156"/>
      </g>
     </g>
    </g>
    <g id="ytick_24">
     <g id="line2d_24">
      <g>
       <use xlink:href="#m8c97318bf1" x="280.3205" y="47.342698" style="stroke: #000000; stroke-width: 0.8"/>
      </g>
     </g>
     <g id="text_28">
      <!-- 0.4 -->
      <g transform="translate(257.417375 51.141917)scale(0.1 -0.1)">
       <use xlink:href="#DejaVuSans-30"/>
       <use xlink:href="#DejaVuSans-2e" x="63.623047"/>
       <use xlink:href="#DejaVuSans-34" x="95.410156"/>
      </g>
     </g>
    </g>
    <g id="text_29">
     <!-- MSE [$\AA$] -->
     <g transform="translate(242.958 179.105942)rotate(-90)scale(0.1 -0.1)">
      <use xlink:href="#DejaVuSans-4d" transform="translate(0 0.171875)"/>
      <use xlink:href="#DejaVuSans-53" transform="translate(86.279297 0.171875)"/>
      <use xlink:href="#DejaVuSans-45" transform="translate(149.755859 0.171875)"/>
      <use xlink:href="#DejaVuSans-20" transform="translate(212.939453 0.171875)"/>
      <use xlink:href="#DejaVuSans-5b" transform="translate(244.726562 0.171875)"/>
      <use xlink:href="#DejaVuSans-Oblique-c5" transform="translate(283.740234 0.171875)"/>
      <use xlink:href="#DejaVuSans-5d" transform="translate(352.148438 0.171875)"/>
     </g>
    </g>
   </g>
   <g id="LineCollection_9">
    <path d="M 295.443636 155.120318 
L 320.648864 155.120318 
" clip-path="url(#p7fbea1c00a)" style="fill: none; stroke: #1f77b4; stroke-width: 1.5"/>
   </g>
   <g id="LineCollection_10">
    <path d="M 295.443636 57.264177 
L 320.648864 57.264177 
" clip-path="url(#p7fbea1c00a)" style="fill: none; stroke: #1f77b4; stroke-width: 1.5"/>
   </g>
   <g id="LineCollection_11">
    <path d="M 295.443636 261.747708 
L 320.648864 261.747708 
" clip-path="url(#p7fbea1c00a)" style="fill: none; stroke: #1f77b4; stroke-width: 1.5"/>
   </g>
   <g id="LineCollection_12">
    <path d="M 308.04625 261.747708 
L 308.04625 57.264177 
" clip-path="url(#p7fbea1c00a)" style="fill: none; stroke: #1f77b4; stroke-width: 1.5"/>
   </g>
   <g id="patch_13">
    <path d="M 280.3205 271.971884 
L 280.3205 47.04 
" style="fill: none; stroke: #000000; stroke-width: 0.8; stroke-linejoin: miter; stroke-linecap: square"/>
   </g>
   <g id="patch_14">
    <path d="M 335.772 271.971884 
L 335.772 47.04 
" style="fill: none; stroke: #000000; stroke-width: 0.8; stroke-linejoin: miter; stroke-linecap: square"/>
   </g>
   <g id="patch_15">
    <path d="M 280.3205 271.971884 
L 335.772 271.971884 
" style="fill: none; stroke: #000000; stroke-width: 0.8; stroke-linejoin: miter; stroke-linecap: square"/>
   </g>
   <g id="patch_16">
    <path d="M 280.3205 47.04 
L 335.772 47.04 
" style="fill: none; stroke: #000000; stroke-width: 0.8; stroke-linejoin: miter; stroke-linecap: square"/>
   </g>
   <g id="text_30">
    <!-- MSE -->
    <g transform="translate(295.269062 41.04)scale(0.12 -0.12)">
     <use xlink:href="#DejaVuSans-4d"/>
     <use xlink:href="#DejaVuSans-53" x="86.279297"/>
     <use xlink:href="#DejaVuSans-45" x="149.755859"/>
    </g>
   </g>
  </g>
  <g id="axes_4">
   <g id="patch_17">
    <path d="M 395.0345 271.971884 
L 450.486 271.971884 
L 450.486 47.04 
L 395.0345 47.04 
z
" style="fill: #ffffff"/>
   </g>
   <g id="PolyCollection_4">
    <path d="M 424.244432 261.747708 
L 421.276068 261.747708 
L 421.014068 259.682217 
L 420.730884 257.616727 
L 420.428169 255.551237 
L 420.10741 253.485747 
L 419.769606 251.420257 
L 419.414971 249.354766 
L 419.042698 247.289276 
L 418.650831 245.223786 
L 418.236278 243.158296 
L 417.794941 241.092805 
L 417.321993 239.027315 
L 416.812247 236.961825 
L 416.260609 234.896335 
L 415.662575 232.830845 
L 415.014743 230.765354 
L 414.315289 228.699864 
L 413.564368 226.634374 
L 412.764373 224.568884 
L 411.919993 222.503394 
L 411.038028 220.437903 
L 410.126958 218.372413 
L 409.196283 216.306923 
L 408.255755 214.241433 
L 407.314623 212.175942 
L 406.381055 210.110452 
L 405.461869 208.044962 
L 404.56264 205.979472 
L 403.688167 203.913982 
L 402.843177 201.848491 
L 402.033096 199.783001 
L 401.264649 197.717511 
L 400.546106 195.652021 
L 399.887026 193.586531 
L 399.297495 191.52104 
L 398.786969 189.45555 
L 398.362934 187.39006 
L 398.029699 185.32457 
L 397.787618 183.25908 
L 397.632966 181.193589 
L 397.558557 179.128099 
L 397.555023 177.062609 
L 397.612502 174.997119 
L 397.722419 172.931628 
L 397.878974 170.866138 
L 398.080072 168.800648 
L 398.327508 166.735158 
L 398.626409 164.669668 
L 398.984069 162.604177 
L 399.408415 160.538687 
L 399.906401 158.473197 
L 400.482572 156.407707 
L 401.138012 154.342217 
L 401.869754 152.276726 
L 402.670667 150.211236 
L 403.529755 148.145746 
L 404.432794 146.080256 
L 405.363217 144.014765 
L 406.303163 141.949275 
L 407.234628 139.883785 
L 408.14061 137.818295 
L 409.006164 135.752805 
L 409.819243 133.687314 
L 410.571245 131.621824 
L 411.257198 129.556334 
L 411.875599 127.490844 
L 412.42795 125.425354 
L 412.918109 123.359863 
L 413.351565 121.294373 
L 413.734772 119.228883 
L 414.074614 117.163393 
L 414.378052 115.097903 
L 414.651949 113.032412 
L 414.90302 110.966922 
L 415.137854 108.901432 
L 415.362921 106.835942 
L 415.584513 104.770451 
L 415.808591 102.704961 
L 416.040518 100.639471 
L 416.284748 98.573981 
L 416.5445 96.508491 
L 416.821508 94.443 
L 417.115903 92.37751 
L 417.426265 90.31202 
L 417.74984 88.24653 
L 418.082903 86.18104 
L 418.421177 84.115549 
L 418.760263 82.050059 
L 419.096002 79.984569 
L 419.424725 77.919079 
L 419.743388 75.853588 
L 420.049585 73.788098 
L 420.341488 71.722608 
L 420.617732 69.657118 
L 420.877294 67.591628 
L 421.119395 65.526137 
L 421.343431 63.460647 
L 421.548955 61.395157 
L 421.735685 59.329667 
L 421.903538 57.264177 
L 423.616962 57.264177 
L 423.616962 57.264177 
L 423.784815 59.329667 
L 423.971545 61.395157 
L 424.177069 63.460647 
L 424.401105 65.526137 
L 424.643206 67.591628 
L 424.902768 69.657118 
L 425.179012 71.722608 
L 425.470915 73.788098 
L 425.777112 75.853588 
L 426.095775 77.919079 
L 426.424498 79.984569 
L 426.760237 82.050059 
L 427.099323 84.115549 
L 427.437597 86.18104 
L 427.77066 88.24653 
L 428.094235 90.31202 
L 428.404597 92.37751 
L 428.698992 94.443 
L 428.976 96.508491 
L 429.235752 98.573981 
L 429.479982 100.639471 
L 429.711909 102.704961 
L 429.935987 104.770451 
L 430.157579 106.835942 
L 430.382646 108.901432 
L 430.61748 110.966922 
L 430.868551 113.032412 
L 431.142448 115.097903 
L 431.445886 117.163393 
L 431.785728 119.228883 
L 432.168935 121.294373 
L 432.602391 123.359863 
L 433.09255 125.425354 
L 433.644901 127.490844 
L 434.263302 129.556334 
L 434.949255 131.621824 
L 435.701257 133.687314 
L 436.514336 135.752805 
L 437.37989 137.818295 
L 438.285872 139.883785 
L 439.217337 141.949275 
L 440.157283 144.014765 
L 441.087706 146.080256 
L 441.990745 148.145746 
L 442.849833 150.211236 
L 443.650746 152.276726 
L 444.382488 154.342217 
L 445.037928 156.407707 
L 445.614099 158.473197 
L 446.112085 160.538687 
L 446.536431 162.604177 
L 446.894091 164.669668 
L 447.192992 166.735158 
L 447.440428 168.800648 
L 447.641526 170.866138 
L 447.798081 172.931628 
L 447.907998 174.997119 
L 447.965477 177.062609 
L 447.961943 179.128099 
L 447.887534 181.193589 
L 447.732882 183.25908 
L 447.490801 185.32457 
L 447.157566 187.39006 
L 446.733531 189.45555 
L 446.223005 191.52104 
L 445.633474 193.586531 
L 444.974394 195.652021 
L 444.255851 197.717511 
L 443.487404 199.783001 
L 442.677323 201.848491 
L 441.832333 203.913982 
L 440.95786 205.979472 
L 440.058631 208.044962 
L 439.139445 210.110452 
L 438.205877 212.175942 
L 437.264745 214.241433 
L 436.324217 216.306923 
L 435.393542 218.372413 
L 434.482472 220.437903 
L 433.600507 222.503394 
L 432.756127 224.568884 
L 431.956132 226.634374 
L 431.205211 228.699864 
L 430.505757 230.765354 
L 429.857925 232.830845 
L 429.259891 234.896335 
L 428.708253 236.961825 
L 428.198507 239.027315 
L 427.725559 241.092805 
L 427.284222 243.158296 
L 426.869669 245.223786 
L 426.477802 247.289276 
L 426.105529 249.354766 
L 425.750894 251.420257 
L 425.41309 253.485747 
L 425.092331 255.551237 
L 424.789616 257.616727 
L 424.506432 259.682217 
L 424.244432 261.747708 
z
" clip-path="url(#pb2fad740e6)" style="fill: #1f77b4; fill-opacity: 0.3"/>
   </g>
   <g id="matplotlib.axis_4">
    <g id="ytick_25">
     <g id="line2d_25">
      <g>
       <use xlink:href="#m8c97318bf1" x="395.0345" y="261.747708" style="stroke: #000000; stroke-width: 0.8"/>
      </g>
     </g>
     <g id="text_31">
      <!-- 0.75 -->
      <g transform="translate(365.768875 265.546926)scale(0.1 -0.1)">
       <use xlink:href="#DejaVuSans-30"/>
       <use xlink:href="#DejaVuSans-2e" x="63.623047"/>
       <use xlink:href="#DejaVuSans-37" x="95.410156"/>
       <use xlink:href="#DejaVuSans-35" x="159.033203"/>
      </g>
     </g>
    </g>
    <g id="ytick_26">
     <g id="line2d_26">
      <g>
       <use xlink:href="#m8c97318bf1" x="395.0345" y="215.738913" style="stroke: #000000; stroke-width: 0.8"/>
      </g>
     </g>
     <g id="text_32">
      <!-- 0.80 -->
      <g transform="translate(365.768875 219.538132)scale(0.1 -0.1)">
       <use xlink:href="#DejaVuSans-30"/>
       <use xlink:href="#DejaVuSans-2e" x="63.623047"/>
       <use xlink:href="#DejaVuSans-38" x="95.410156"/>
       <use xlink:href="#DejaVuSans-30" x="159.033203"/>
      </g>
     </g>
    </g>
    <g id="ytick_27">
     <g id="line2d_27">
      <g>
       <use xlink:href="#m8c97318bf1" x="395.0345" y="169.730119" style="stroke: #000000; stroke-width: 0.8"/>
      </g>
     </g>
     <g id="text_33">
      <!-- 0.85 -->
      <g transform="translate(365.768875 173.529337)scale(0.1 -0.1)">
       <use xlink:href="#DejaVuSans-30"/>
       <use xlink:href="#DejaVuSans-2e" x="63.623047"/>
       <use xlink:href="#DejaVuSans-38" x="95.410156"/>
       <use xlink:href="#DejaVuSans-35" x="159.033203"/>
      </g>
     </g>
    </g>
    <g id="ytick_28">
     <g id="line2d_28">
      <g>
       <use xlink:href="#m8c97318bf1" x="395.0345" y="123.721324" style="stroke: #000000; stroke-width: 0.8"/>
      </g>
     </g>
     <g id="text_34">
      <!-- 0.90 -->
      <g transform="translate(365.768875 127.520543)scale(0.1 -0.1)">
       <use xlink:href="#DejaVuSans-30"/>
       <use xlink:href="#DejaVuSans-2e" x="63.623047"/>
       <use xlink:href="#DejaVuSans-39" x="95.410156"/>
       <use xlink:href="#DejaVuSans-30" x="159.033203"/>
      </g>
     </g>
    </g>
    <g id="ytick_29">
     <g id="line2d_29">
      <g>
       <use xlink:href="#m8c97318bf1" x="395.0345" y="77.71253" style="stroke: #000000; stroke-width: 0.8"/>
      </g>
     </g>
     <g id="text_35">
      <!-- 0.95 -->
      <g transform="translate(365.768875 81.511748)scale(0.1 -0.1)">
       <use xlink:href="#DejaVuSans-30"/>
       <use xlink:href="#DejaVuSans-2e" x="63.623047"/>
       <use xlink:href="#DejaVuSans-39" x="95.410156"/>
       <use xlink:href="#DejaVuSans-35" x="159.033203"/>
      </g>
     </g>
    </g>
    <g id="text_36">
     <!-- % NOE fulfilled [1/100 %] -->
     <g transform="translate(359.689188 223.006723)rotate(-90)scale(0.1 -0.1)">
      <defs>
       <path id="DejaVuSans-25" d="M 4653 2053 
Q 4381 2053 4226 1822 
Q 4072 1591 4072 1178 
Q 4072 772 4226 539 
Q 4381 306 4653 306 
Q 4919 306 5073 539 
Q 5228 772 5228 1178 
Q 5228 1588 5073 1820 
Q 4919 2053 4653 2053 
z
M 4653 2450 
Q 5147 2450 5437 2106 
Q 5728 1763 5728 1178 
Q 5728 594 5436 251 
Q 5144 -91 4653 -91 
Q 4153 -91 3862 251 
Q 3572 594 3572 1178 
Q 3572 1766 3864 2108 
Q 4156 2450 4653 2450 
z
M 1428 4353 
Q 1159 4353 1004 4120 
Q 850 3888 850 3481 
Q 850 3069 1003 2837 
Q 1156 2606 1428 2606 
Q 1700 2606 1854 2837 
Q 2009 3069 2009 3481 
Q 2009 3884 1853 4118 
Q 1697 4353 1428 4353 
z
M 4250 4750 
L 4750 4750 
L 1831 -91 
L 1331 -91 
L 4250 4750 
z
M 1428 4750 
Q 1922 4750 2215 4408 
Q 2509 4066 2509 3481 
Q 2509 2891 2217 2550 
Q 1925 2209 1428 2209 
Q 931 2209 642 2551 
Q 353 2894 353 3481 
Q 353 4063 643 4406 
Q 934 4750 1428 4750 
z
" transform="scale(0.015625)"/>
       <path id="DejaVuSans-4e" d="M 628 4666 
L 1478 4666 
L 3547 763 
L 3547 4666 
L 4159 4666 
L 4159 0 
L 3309 0 
L 1241 3903 
L 1241 0 
L 628 0 
L 628 4666 
z
" transform="scale(0.015625)"/>
       <path id="DejaVuSans-4f" d="M 2522 4238 
Q 1834 4238 1429 3725 
Q 1025 3213 1025 2328 
Q 1025 1447 1429 934 
Q 1834 422 2522 422 
Q 3209 422 3611 934 
Q 4013 1447 4013 2328 
Q 4013 3213 3611 3725 
Q 3209 4238 2522 4238 
z
M 2522 4750 
Q 3503 4750 4090 4092 
Q 4678 3434 4678 2328 
Q 4678 1225 4090 567 
Q 3503 -91 2522 -91 
Q 1538 -91 948 565 
Q 359 1222 359 2328 
Q 359 3434 948 4092 
Q 1538 4750 2522 4750 
z
" transform="scale(0.015625)"/>
       <path id="DejaVuSans-66" d="M 2375 4863 
L 2375 4384 
L 1825 4384 
Q 1516 4384 1395 4259 
Q 1275 4134 1275 3809 
L 1275 3500 
L 2222 3500 
L 2222 3053 
L 1275 3053 
L 1275 0 
L 697 0 
L 697 3053 
L 147 3053 
L 147 3500 
L 697 3500 
L 697 3744 
Q 697 4328 969 4595 
Q 1241 4863 1831 4863 
L 2375 4863 
z
" transform="scale(0.015625)"/>
       <path id="DejaVuSans-75" d="M 544 1381 
L 544 3500 
L 1119 3500 
L 1119 1403 
Q 1119 906 1312 657 
Q 1506 409 1894 409 
Q 2359 409 2629 706 
Q 2900 1003 2900 1516 
L 2900 3500 
L 3475 3500 
L 3475 0 
L 2900 0 
L 2900 538 
Q 2691 219 2414 64 
Q 2138 -91 1772 -91 
Q 1169 -91 856 284 
Q 544 659 544 1381 
z
M 1991 3584 
L 1991 3584 
z
" transform="scale(0.015625)"/>
       <path id="DejaVuSans-6c" d="M 603 4863 
L 1178 4863 
L 1178 0 
L 603 0 
L 603 4863 
z
" transform="scale(0.015625)"/>
       <path id="DejaVuSans-69" d="M 603 3500 
L 1178 3500 
L 1178 0 
L 603 0 
L 603 3500 
z
M 603 4863 
L 1178 4863 
L 1178 4134 
L 603 4134 
L 603 4863 
z
" transform="scale(0.015625)"/>
       <path id="DejaVuSans-65" d="M 3597 1894 
L 3597 1613 
L 953 1613 
Q 991 1019 1311 708 
Q 1631 397 2203 397 
Q 2534 397 2845 478 
Q 3156 559 3463 722 
L 3463 178 
Q 3153 47 2828 -22 
Q 2503 -91 2169 -91 
Q 1331 -91 842 396 
Q 353 884 353 1716 
Q 353 2575 817 3079 
Q 1281 3584 2069 3584 
Q 2775 3584 3186 3129 
Q 3597 2675 3597 1894 
z
M 3022 2063 
Q 3016 2534 2758 2815 
Q 2500 3097 2075 3097 
Q 1594 3097 1305 2825 
Q 1016 2553 972 2059 
L 3022 2063 
z
" transform="scale(0.015625)"/>
       <path id="DejaVuSans-64" d="M 2906 2969 
L 2906 4863 
L 3481 4863 
L 3481 0 
L 2906 0 
L 2906 525 
Q 2725 213 2448 61 
Q 2172 -91 1784 -91 
Q 1150 -91 751 415 
Q 353 922 353 1747 
Q 353 2572 751 3078 
Q 1150 3584 1784 3584 
Q 2172 3584 2448 3432 
Q 2725 3281 2906 2969 
z
M 947 1747 
Q 947 1113 1208 752 
Q 1469 391 1925 391 
Q 2381 391 2643 752 
Q 2906 1113 2906 1747 
Q 2906 2381 2643 2742 
Q 2381 3103 1925 3103 
Q 1469 3103 1208 2742 
Q 947 2381 947 1747 
z
" transform="scale(0.015625)"/>
       <path id="DejaVuSans-2f" d="M 1625 4666 
L 2156 4666 
L 531 -594 
L 0 -594 
L 1625 4666 
z
" transform="scale(0.015625)"/>
      </defs>
      <use xlink:href="#DejaVuSans-25"/>
      <use xlink:href="#DejaVuSans-20" x="95.019531"/>
      <use xlink:href="#DejaVuSans-4e" x="126.806641"/>
      <use xlink:href="#DejaVuSans-4f" x="201.611328"/>
      <use xlink:href="#DejaVuSans-45" x="280.322266"/>
      <use xlink:href="#DejaVuSans-20" x="343.505859"/>
      <use xlink:href="#DejaVuSans-66" x="375.292969"/>
      <use xlink:href="#DejaVuSans-75" x="410.498047"/>
      <use xlink:href="#DejaVuSans-6c" x="473.876953"/>
      <use xlink:href="#DejaVuSans-66" x="501.660156"/>
      <use xlink:href="#DejaVuSans-69" x="536.865234"/>
      <use xlink:href="#DejaVuSans-6c" x="564.648438"/>
      <use xlink:href="#DejaVuSans-6c" x="592.431641"/>
      <use xlink:href="#DejaVuSans-65" x="620.214844"/>
      <use xlink:href="#DejaVuSans-64" x="681.738281"/>
      <use xlink:href="#DejaVuSans-20" x="745.214844"/>
      <use xlink:href="#DejaVuSans-5b" x="777.001953"/>
      <use xlink:href="#DejaVuSans-31" x="816.015625"/>
      <use xlink:href="#DejaVuSans-2f" x="879.638672"/>
      <use xlink:href="#DejaVuSans-31" x="913.330078"/>
      <use xlink:href="#DejaVuSans-30" x="976.953125"/>
      <use xlink:href="#DejaVuSans-30" x="1040.576172"/>
      <use xlink:href="#DejaVuSans-20" x="1104.199219"/>
      <use xlink:href="#DejaVuSans-25" x="1135.986328"/>
      <use xlink:href="#DejaVuSans-5d" x="1231.005859"/>
     </g>
    </g>
   </g>
   <g id="LineCollection_13">
    <path d="M 410.157636 169.346712 
L 435.362864 169.346712 
" clip-path="url(#pb2fad740e6)" style="fill: none; stroke: #1f77b4; stroke-width: 1.5"/>
   </g>
   <g id="LineCollection_14">
    <path d="M 410.157636 57.264177 
L 435.362864 57.264177 
" clip-path="url(#pb2fad740e6)" style="fill: none; stroke: #1f77b4; stroke-width: 1.5"/>
   </g>
   <g id="LineCollection_15">
    <path d="M 410.157636 261.747708 
L 435.362864 261.747708 
" clip-path="url(#pb2fad740e6)" style="fill: none; stroke: #1f77b4; stroke-width: 1.5"/>
   </g>
   <g id="LineCollection_16">
    <path d="M 422.76025 261.747708 
L 422.76025 57.264177 
" clip-path="url(#pb2fad740e6)" style="fill: none; stroke: #1f77b4; stroke-width: 1.5"/>
   </g>
   <g id="patch_18">
    <path d="M 395.0345 271.971884 
L 395.0345 47.04 
" style="fill: none; stroke: #000000; stroke-width: 0.8; stroke-linejoin: miter; stroke-linecap: square"/>
   </g>
   <g id="patch_19">
    <path d="M 450.486 271.971884 
L 450.486 47.04 
" style="fill: none; stroke: #000000; stroke-width: 0.8; stroke-linejoin: miter; stroke-linecap: square"/>
   </g>
   <g id="patch_20">
    <path d="M 395.0345 271.971884 
L 450.486 271.971884 
" style="fill: none; stroke: #000000; stroke-width: 0.8; stroke-linejoin: miter; stroke-linecap: square"/>
   </g>
   <g id="patch_21">
    <path d="M 395.0345 47.04 
L 450.486 47.04 
" style="fill: none; stroke: #000000; stroke-width: 0.8; stroke-linejoin: miter; stroke-linecap: square"/>
   </g>
   <g id="text_37">
    <!-- % NOE fulfilled -->
    <g transform="translate(378.047125 41.04)scale(0.12 -0.12)">
     <use xlink:href="#DejaVuSans-25"/>
     <use xlink:href="#DejaVuSans-20" x="95.019531"/>
     <use xlink:href="#DejaVuSans-4e" x="126.806641"/>
     <use xlink:href="#DejaVuSans-4f" x="201.611328"/>
     <use xlink:href="#DejaVuSans-45" x="280.322266"/>
     <use xlink:href="#DejaVuSans-20" x="343.505859"/>
     <use xlink:href="#DejaVuSans-66" x="375.292969"/>
     <use xlink:href="#DejaVuSans-75" x="410.498047"/>
     <use xlink:href="#DejaVuSans-6c" x="473.876953"/>
     <use xlink:href="#DejaVuSans-66" x="501.660156"/>
     <use xlink:href="#DejaVuSans-69" x="536.865234"/>
     <use xlink:href="#DejaVuSans-6c" x="564.648438"/>
     <use xlink:href="#DejaVuSans-6c" x="592.431641"/>
     <use xlink:href="#DejaVuSans-65" x="620.214844"/>
     <use xlink:href="#DejaVuSans-64" x="681.738281"/>
    </g>
   </g>
  </g>
  <g id="axes_5">
   <g id="patch_22">
    <path d="M 509.7485 271.971884 
L 565.2 271.971884 
L 565.2 47.04 
L 509.7485 47.04 
z
" style="fill: #ffffff"/>
   </g>
   <g id="PolyCollection_5">
    <path d="M 537.900885 261.747708 
L 537.047615 261.747708 
L 536.98182 259.682217 
L 536.914904 257.616727 
L 536.848595 255.551237 
L 536.784489 253.485747 
L 536.723691 251.420257 
L 536.66641 249.354766 
L 536.611627 247.289276 
L 536.556939 245.223786 
L 536.498668 243.158296 
L 536.432273 241.092805 
L 536.353 239.027315 
L 536.256652 236.961825 
L 536.140303 234.896335 
L 536.002794 232.830845 
L 535.844885 230.765354 
L 535.669058 228.699864 
L 535.479021 226.634374 
L 535.279079 224.568884 
L 535.073511 222.503394 
L 534.866119 220.437903 
L 534.659988 218.372413 
L 534.457469 216.306923 
L 534.260308 214.241433 
L 534.069813 212.175942 
L 533.887018 210.110452 
L 533.71277 208.044962 
L 533.547784 205.979472 
L 533.392656 203.913982 
L 533.247847 201.848491 
L 533.113616 199.783001 
L 532.989857 197.717511 
L 532.875825 195.652021 
L 532.769783 193.586531 
L 532.668681 191.52104 
L 532.568008 189.45555 
L 532.461945 187.39006 
L 532.343844 185.32457 
L 532.206945 183.25908 
L 532.045123 181.193589 
L 531.853396 179.128099 
L 531.628007 177.062609 
L 531.366004 174.997119 
L 531.064448 172.931628 
L 530.719511 170.866138 
L 530.325796 168.800648 
L 529.876199 166.735158 
L 529.362463 164.669668 
L 528.776408 162.604177 
L 528.111632 160.538687 
L 527.365291 158.473197 
L 526.539546 156.407707 
L 525.642253 154.342217 
L 524.686666 152.276726 
L 523.690131 150.211236 
L 522.67204 148.145746 
L 521.651483 146.080256 
L 520.645168 144.014765 
L 519.66606 141.949275 
L 518.723007 139.883785 
L 517.821307 137.818295 
L 516.963971 135.752805 
L 516.153276 133.687314 
L 515.392271 131.621824 
L 514.686004 129.556334 
L 514.042379 127.490844 
L 513.472663 125.425354 
L 512.991615 123.359863 
L 512.617157 121.294373 
L 512.36942 119.228883 
L 512.269023 117.163393 
L 512.33461 115.097903 
L 512.579898 113.032412 
L 513.010784 110.966922 
L 513.623189 108.901432 
L 514.4023 106.835942 
L 515.323572 104.770451 
L 516.355455 102.704961 
L 517.463354 100.639471 
L 518.613986 98.573981 
L 519.779202 96.508491 
L 520.938482 94.443 
L 522.079686 92.37751 
L 523.198063 90.31202 
L 524.293972 88.24653 
L 525.37 86.18104 
L 526.428217 84.115549 
L 527.468184 82.050059 
L 528.486035 79.984569 
L 529.474649 77.919079 
L 530.424654 75.853588 
L 531.325881 73.788098 
L 532.168832 71.722608 
L 532.945835 69.657118 
L 533.651724 67.591628 
L 534.284026 65.526137 
L 534.842746 63.460647 
L 535.329941 61.395157 
L 535.749206 59.329667 
L 536.105207 57.264177 
L 538.843293 57.264177 
L 538.843293 57.264177 
L 539.199294 59.329667 
L 539.618559 61.395157 
L 540.105754 63.460647 
L 540.664474 65.526137 
L 541.296776 67.591628 
L 542.002665 69.657118 
L 542.779668 71.722608 
L 543.622619 73.788098 
L 544.523846 75.853588 
L 545.473851 77.919079 
L 546.462465 79.984569 
L 547.480316 82.050059 
L 548.520283 84.115549 
L 549.5785 86.18104 
L 550.654528 88.24653 
L 551.750437 90.31202 
L 552.868814 92.37751 
L 554.010018 94.443 
L 555.169298 96.508491 
L 556.334514 98.573981 
L 557.485146 100.639471 
L 558.593045 102.704961 
L 559.624928 104.770451 
L 560.5462 106.835942 
L 561.325311 108.901432 
L 561.937716 110.966922 
L 562.368602 113.032412 
L 562.61389 115.097903 
L 562.679477 117.163393 
L 562.57908 119.228883 
L 562.331343 121.294373 
L 561.956885 123.359863 
L 561.475837 125.425354 
L 560.906121 127.490844 
L 560.262496 129.556334 
L 559.556229 131.621824 
L 558.795224 133.687314 
L 557.984529 135.752805 
L 557.127193 137.818295 
L 556.225493 139.883785 
L 555.28244 141.949275 
L 554.303332 144.014765 
L 553.297017 146.080256 
L 552.27646 148.145746 
L 551.258369 150.211236 
L 550.261834 152.276726 
L 549.306247 154.342217 
L 548.408954 156.407707 
L 547.583209 158.473197 
L 546.836868 160.538687 
L 546.172092 162.604177 
L 545.586037 164.669668 
L 545.072301 166.735158 
L 544.622704 168.800648 
L 544.228989 170.866138 
L 543.884052 172.931628 
L 543.582496 174.997119 
L 543.320493 177.062609 
L 543.095104 179.128099 
L 542.903377 181.193589 
L 542.741555 183.25908 
L 542.604656 185.32457 
L 542.486555 187.39006 
L 542.380492 189.45555 
L 542.279819 191.52104 
L 542.178717 193.586531 
L 542.072675 195.652021 
L 541.958643 197.717511 
L 541.834884 199.783001 
L 541.700653 201.848491 
L 541.555844 203.913982 
L 541.400716 205.979472 
L 541.23573 208.044962 
L 541.061482 210.110452 
L 540.878687 212.175942 
L 540.688192 214.241433 
L 540.491031 216.306923 
L 540.288512 218.372413 
L 540.082381 220.437903 
L 539.874989 222.503394 
L 539.669421 224.568884 
L 539.469479 226.634374 
L 539.279442 228.699864 
L 539.103615 230.765354 
L 538.945706 232.830845 
L 538.808197 234.896335 
L 538.691848 236.961825 
L 538.5955 239.027315 
L 538.516227 241.092805 
L 538.449832 243.158296 
L 538.391561 245.223786 
L 538.336873 247.289276 
L 538.28209 249.354766 
L 538.224809 251.420257 
L 538.164011 253.485747 
L 538.099905 255.551237 
L 538.033596 257.616727 
L 537.96668 259.682217 
L 537.900885 261.747708 
z
" clip-path="url(#p753fb98d03)" style="fill: #1f77b4; fill-opacity: 0.3"/>
   </g>
   <g id="matplotlib.axis_5">
    <g id="ytick_30">
     <g id="line2d_30">
      <g>
       <use xlink:href="#m8c97318bf1" x="509.7485" y="248.213317" style="stroke: #000000; stroke-width: 0.8"/>
      </g>
     </g>
     <g id="text_38">
      <!-- 0.3 -->
      <g transform="translate(486.845375 252.012536)scale(0.1 -0.1)">
       <use xlink:href="#DejaVuSans-30"/>
       <use xlink:href="#DejaVuSans-2e" x="63.623047"/>
       <use xlink:href="#DejaVuSans-33" x="95.410156"/>
      </g>
     </g>
    </g>
    <g id="ytick_31">
     <g id="line2d_31">
      <g>
       <use xlink:href="#m8c97318bf1" x="509.7485" y="207.610145" style="stroke: #000000; stroke-width: 0.8"/>
      </g>
     </g>
     <g id="text_39">
      <!-- 0.4 -->
      <g transform="translate(486.845375 211.409363)scale(0.1 -0.1)">
       <use xlink:href="#DejaVuSans-30"/>
       <use xlink:href="#DejaVuSans-2e" x="63.623047"/>
       <use xlink:href="#DejaVuSans-34" x="95.410156"/>
      </g>
     </g>
    </g>
    <g id="ytick_32">
     <g id="line2d_32">
      <g>
       <use xlink:href="#m8c97318bf1" x="509.7485" y="167.006972" style="stroke: #000000; stroke-width: 0.8"/>
      </g>
     </g>
     <g id="text_40">
      <!-- 0.5 -->
      <g transform="translate(486.845375 170.806191)scale(0.1 -0.1)">
       <use xlink:href="#DejaVuSans-30"/>
       <use xlink:href="#DejaVuSans-2e" x="63.623047"/>
       <use xlink:href="#DejaVuSans-35" x="95.410156"/>
      </g>
     </g>
    </g>
    <g id="ytick_33">
     <g id="line2d_33">
      <g>
       <use xlink:href="#m8c97318bf1" x="509.7485" y="126.4038" style="stroke: #000000; stroke-width: 0.8"/>
      </g>
     </g>
     <g id="text_41">
      <!-- 0.6 -->
      <g transform="translate(486.845375 130.203019)scale(0.1 -0.1)">
       <use xlink:href="#DejaVuSans-30"/>
       <use xlink:href="#DejaVuSans-2e" x="63.623047"/>
       <use xlink:href="#DejaVuSans-36" x="95.410156"/>
      </g>
     </g>
    </g>
    <g id="ytick_34">
     <g id="line2d_34">
      <g>
       <use xlink:href="#m8c97318bf1" x="509.7485" y="85.800628" style="stroke: #000000; stroke-width: 0.8"/>
      </g>
     </g>
     <g id="text_42">
      <!-- 0.7 -->
      <g transform="translate(486.845375 89.599846)scale(0.1 -0.1)">
       <use xlink:href="#DejaVuSans-30"/>
       <use xlink:href="#DejaVuSans-2e" x="63.623047"/>
       <use xlink:href="#DejaVuSans-37" x="95.410156"/>
      </g>
     </g>
    </g>
    <g id="text_43">
     <!-- RMSD stepwise [$\AA$] -->
     <g transform="translate(480.745375 206.805942)rotate(-90)scale(0.1 -0.1)">
      <defs>
       <path id="DejaVuSans-73" d="M 2834 3397 
L 2834 2853 
Q 2591 2978 2328 3040 
Q 2066 3103 1784 3103 
Q 1356 3103 1142 2972 
Q 928 2841 928 2578 
Q 928 2378 1081 2264 
Q 1234 2150 1697 2047 
L 1894 2003 
Q 2506 1872 2764 1633 
Q 3022 1394 3022 966 
Q 3022 478 2636 193 
Q 2250 -91 1575 -91 
Q 1294 -91 989 -36 
Q 684 19 347 128 
L 347 722 
Q 666 556 975 473 
Q 1284 391 1588 391 
Q 1994 391 2212 530 
Q 2431 669 2431 922 
Q 2431 1156 2273 1281 
Q 2116 1406 1581 1522 
L 1381 1569 
Q 847 1681 609 1914 
Q 372 2147 372 2553 
Q 372 3047 722 3315 
Q 1072 3584 1716 3584 
Q 2034 3584 2315 3537 
Q 2597 3491 2834 3397 
z
" transform="scale(0.015625)"/>
       <path id="DejaVuSans-74" d="M 1172 4494 
L 1172 3500 
L 2356 3500 
L 2356 3053 
L 1172 3053 
L 1172 1153 
Q 1172 725 1289 603 
Q 1406 481 1766 481 
L 2356 481 
L 2356 0 
L 1766 0 
Q 1100 0 847 248 
Q 594 497 594 1153 
L 594 3053 
L 172 3053 
L 172 3500 
L 594 3500 
L 594 4494 
L 1172 4494 
z
" transform="scale(0.015625)"/>
       <path id="DejaVuSans-70" d="M 1159 525 
L 1159 -1331 
L 581 -1331 
L 581 3500 
L 1159 3500 
L 1159 2969 
Q 1341 3281 1617 3432 
Q 1894 3584 2278 3584 
Q 2916 3584 3314 3078 
Q 3713 2572 3713 1747 
Q 3713 922 3314 415 
Q 2916 -91 2278 -91 
Q 1894 -91 1617 61 
Q 1341 213 1159 525 
z
M 3116 1747 
Q 3116 2381 2855 2742 
Q 2594 3103 2138 3103 
Q 1681 3103 1420 2742 
Q 1159 2381 1159 1747 
Q 1159 1113 1420 752 
Q 1681 391 2138 391 
Q 2594 391 2855 752 
Q 3116 1113 3116 1747 
z
" transform="scale(0.015625)"/>
       <path id="DejaVuSans-77" d="M 269 3500 
L 844 3500 
L 1563 769 
L 2278 3500 
L 2956 3500 
L 3675 769 
L 4391 3500 
L 4966 3500 
L 4050 0 
L 3372 0 
L 2619 2869 
L 1863 0 
L 1184 0 
L 269 3500 
z
" transform="scale(0.015625)"/>
      </defs>
      <use xlink:href="#DejaVuSans-52" transform="translate(0 0.171875)"/>
      <use xlink:href="#DejaVuSans-4d" transform="translate(69.482422 0.171875)"/>
      <use xlink:href="#DejaVuSans-53" transform="translate(155.761719 0.171875)"/>
      <use xlink:href="#DejaVuSans-44" transform="translate(219.238281 0.171875)"/>
      <use xlink:href="#DejaVuSans-20" transform="translate(296.240234 0.171875)"/>
      <use xlink:href="#DejaVuSans-73" transform="translate(328.027344 0.171875)"/>
      <use xlink:href="#DejaVuSans-74" transform="translate(380.126953 0.171875)"/>
      <use xlink:href="#DejaVuSans-65" transform="translate(419.335938 0.171875)"/>
      <use xlink:href="#DejaVuSans-70" transform="translate(480.859375 0.171875)"/>
      <use xlink:href="#DejaVuSans-77" transform="translate(544.335938 0.171875)"/>
      <use xlink:href="#DejaVuSans-69" transform="translate(626.123047 0.171875)"/>
      <use xlink:href="#DejaVuSans-73" transform="translate(653.90625 0.171875)"/>
      <use xlink:href="#DejaVuSans-65" transform="translate(706.005859 0.171875)"/>
      <use xlink:href="#DejaVuSans-20" transform="translate(767.529297 0.171875)"/>
      <use xlink:href="#DejaVuSans-5b" transform="translate(799.316406 0.171875)"/>
      <use xlink:href="#DejaVuSans-Oblique-c5" transform="translate(838.330078 0.171875)"/>
      <use xlink:href="#DejaVuSans-5d" transform="translate(906.738281 0.171875)"/>
     </g>
    </g>
   </g>
   <g id="LineCollection_17">
    <path d="M 524.871636 130.563349 
L 550.076864 130.563349 
" clip-path="url(#p753fb98d03)" style="fill: none; stroke: #1f77b4; stroke-width: 1.5"/>
   </g>
   <g id="LineCollection_18">
    <path d="M 524.871636 57.264177 
L 550.076864 57.264177 
" clip-path="url(#p753fb98d03)" style="fill: none; stroke: #1f77b4; stroke-width: 1.5"/>
   </g>
   <g id="LineCollection_19">
    <path d="M 524.871636 261.747708 
L 550.076864 261.747708 
" clip-path="url(#p753fb98d03)" style="fill: none; stroke: #1f77b4; stroke-width: 1.5"/>
   </g>
   <g id="LineCollection_20">
    <path d="M 537.47425 261.747708 
L 537.47425 57.264177 
" clip-path="url(#p753fb98d03)" style="fill: none; stroke: #1f77b4; stroke-width: 1.5"/>
   </g>
   <g id="patch_23">
    <path d="M 509.7485 271.971884 
L 509.7485 47.04 
" style="fill: none; stroke: #000000; stroke-width: 0.8; stroke-linejoin: miter; stroke-linecap: square"/>
   </g>
   <g id="patch_24">
    <path d="M 565.2 271.971884 
L 565.2 47.04 
" style="fill: none; stroke: #000000; stroke-width: 0.8; stroke-linejoin: miter; stroke-linecap: square"/>
   </g>
   <g id="patch_25">
    <path d="M 509.7485 271.971884 
L 565.2 271.971884 
" style="fill: none; stroke: #000000; stroke-width: 0.8; stroke-linejoin: miter; stroke-linecap: square"/>
   </g>
   <g id="patch_26">
    <path d="M 509.7485 47.04 
L 565.2 47.04 
" style="fill: none; stroke: #000000; stroke-width: 0.8; stroke-linejoin: miter; stroke-linecap: square"/>
   </g>
   <g id="text_44">
    <!-- RMSD stepwise -->
    <g transform="translate(491.422375 41.04)scale(0.12 -0.12)">
     <use xlink:href="#DejaVuSans-52"/>
     <use xlink:href="#DejaVuSans-4d" x="69.482422"/>
     <use xlink:href="#DejaVuSans-53" x="155.761719"/>
     <use xlink:href="#DejaVuSans-44" x="219.238281"/>
     <use xlink:href="#DejaVuSans-20" x="296.240234"/>
     <use xlink:href="#DejaVuSans-73" x="328.027344"/>
     <use xlink:href="#DejaVuSans-74" x="380.126953"/>
     <use xlink:href="#DejaVuSans-65" x="419.335938"/>
     <use xlink:href="#DejaVuSans-70" x="480.859375"/>
     <use xlink:href="#DejaVuSans-77" x="544.335938"/>
     <use xlink:href="#DejaVuSans-69" x="626.123047"/>
     <use xlink:href="#DejaVuSans-73" x="653.90625"/>
     <use xlink:href="#DejaVuSans-65" x="706.005859"/>
    </g>
   </g>
  </g>
  <g id="text_45">
   <!-- Compound 57. Rdkit -->
   <g transform="translate(226.573125 14.878125)scale(0.12 -0.12)">
    <defs>
     <path id="DejaVuSans-43" d="M 4122 4306 
L 4122 3641 
Q 3803 3938 3442 4084 
Q 3081 4231 2675 4231 
Q 1875 4231 1450 3742 
Q 1025 3253 1025 2328 
Q 1025 1406 1450 917 
Q 1875 428 2675 428 
Q 3081 428 3442 575 
Q 3803 722 4122 1019 
L 4122 359 
Q 3791 134 3420 21 
Q 3050 -91 2638 -91 
Q 1578 -91 968 557 
Q 359 1206 359 2328 
Q 359 3453 968 4101 
Q 1578 4750 2638 4750 
Q 3056 4750 3426 4639 
Q 3797 4528 4122 4306 
z
" transform="scale(0.015625)"/>
     <path id="DejaVuSans-6f" d="M 1959 3097 
Q 1497 3097 1228 2736 
Q 959 2375 959 1747 
Q 959 1119 1226 758 
Q 1494 397 1959 397 
Q 2419 397 2687 759 
Q 2956 1122 2956 1747 
Q 2956 2369 2687 2733 
Q 2419 3097 1959 3097 
z
M 1959 3584 
Q 2709 3584 3137 3096 
Q 3566 2609 3566 1747 
Q 3566 888 3137 398 
Q 2709 -91 1959 -91 
Q 1206 -91 779 398 
Q 353 888 353 1747 
Q 353 2609 779 3096 
Q 1206 3584 1959 3584 
z
" transform="scale(0.015625)"/>
     <path id="DejaVuSans-6d" d="M 3328 2828 
Q 3544 3216 3844 3400 
Q 4144 3584 4550 3584 
Q 5097 3584 5394 3201 
Q 5691 2819 5691 2113 
L 5691 0 
L 5113 0 
L 5113 2094 
Q 5113 2597 4934 2840 
Q 4756 3084 4391 3084 
Q 3944 3084 3684 2787 
Q 3425 2491 3425 1978 
L 3425 0 
L 2847 0 
L 2847 2094 
Q 2847 2600 2669 2842 
Q 2491 3084 2119 3084 
Q 1678 3084 1418 2786 
Q 1159 2488 1159 1978 
L 1159 0 
L 581 0 
L 581 3500 
L 1159 3500 
L 1159 2956 
Q 1356 3278 1631 3431 
Q 1906 3584 2284 3584 
Q 2666 3584 2933 3390 
Q 3200 3197 3328 2828 
z
" transform="scale(0.015625)"/>
     <path id="DejaVuSans-6e" d="M 3513 2113 
L 3513 0 
L 2938 0 
L 2938 2094 
Q 2938 2591 2744 2837 
Q 2550 3084 2163 3084 
Q 1697 3084 1428 2787 
Q 1159 2491 1159 1978 
L 1159 0 
L 581 0 
L 581 3500 
L 1159 3500 
L 1159 2956 
Q 1366 3272 1645 3428 
Q 1925 3584 2291 3584 
Q 2894 3584 3203 3211 
Q 3513 2838 3513 2113 
z
" transform="scale(0.015625)"/>
     <path id="DejaVuSans-6b" d="M 581 4863 
L 1159 4863 
L 1159 1991 
L 2875 3500 
L 3609 3500 
L 1753 1863 
L 3688 0 
L 2938 0 
L 1159 1709 
L 1159 0 
L 581 0 
L 581 4863 
z
" transform="scale(0.015625)"/>
    </defs>
    <use xlink:href="#DejaVuSans-43"/>
    <use xlink:href="#DejaVuSans-6f" x="69.824219"/>
    <use xlink:href="#DejaVuSans-6d" x="131.005859"/>
    <use xlink:href="#DejaVuSans-70" x="228.417969"/>
    <use xlink:href="#DejaVuSans-6f" x="291.894531"/>
    <use xlink:href="#DejaVuSans-75" x="353.076172"/>
    <use xlink:href="#DejaVuSans-6e" x="416.455078"/>
    <use xlink:href="#DejaVuSans-64" x="479.833984"/>
    <use xlink:href="#DejaVuSans-20" x="543.310547"/>
    <use xlink:href="#DejaVuSans-35" x="575.097656"/>
    <use xlink:href="#DejaVuSans-37" x="638.720703"/>
    <use xlink:href="#DejaVuSans-2e" x="702.34375"/>
    <use xlink:href="#DejaVuSans-20" x="734.130859"/>
    <use xlink:href="#DejaVuSans-52" x="765.917969"/>
    <use xlink:href="#DejaVuSans-64" x="835.400391"/>
    <use xlink:href="#DejaVuSans-6b" x="898.876953"/>
    <use xlink:href="#DejaVuSans-69" x="956.787109"/>
    <use xlink:href="#DejaVuSans-74" x="984.570312"/>
   </g>
  </g>
 </g>
 <defs>
  <clipPath id="p88d1f83122">
   <rect x="50.8925" y="47.04" width="55.4515" height="224.931884"/>
  </clipPath>
  <clipPath id="p399705c1eb">
   <rect x="165.6065" y="47.04" width="55.4515" height="224.931884"/>
  </clipPath>
  <clipPath id="p7fbea1c00a">
   <rect x="280.3205" y="47.04" width="55.4515" height="224.931884"/>
  </clipPath>
  <clipPath id="pb2fad740e6">
   <rect x="395.0345" y="47.04" width="55.4515" height="224.931884"/>
  </clipPath>
  <clipPath id="p753fb98d03">
   <rect x="509.7485" y="47.04" width="55.4515" height="224.931884"/>
  </clipPath>
 </defs>
</svg>
