<?xml version="1.0" encoding="utf-8" standalone="no"?>
<!DOCTYPE svg PUBLIC "-//W3C//DTD SVG 1.1//EN"
  "http://www.w3.org/Graphics/SVG/1.1/DTD/svg11.dtd">
<svg xmlns:xlink="http://www.w3.org/1999/xlink" width="576pt" height="288pt" viewBox="0 0 576 288" xmlns="http://www.w3.org/2000/svg" version="1.1">
 <metadata>
  <rdf:RDF xmlns:dc="http://purl.org/dc/elements/1.1/" xmlns:cc="http://creativecommons.org/ns#" xmlns:rdf="http://www.w3.org/1999/02/22-rdf-syntax-ns#">
   <cc:Work>
    <dc:type rdf:resource="http://purl.org/dc/dcmitype/StillImage"/>
    <dc:date>2023-05-31T12:17:07.768332</dc:date>
    <dc:format>image/svg+xml</dc:format>
    <dc:creator>
     <cc:Agent>
      <dc:title>Matplotlib v3.5.3, https://matplotlib.org/</dc:title>
     </cc:Agent>
    </dc:creator>
   </cc:Work>
  </rdf:RDF>
 </metadata>
 <defs>
  <style type="text/css">*{stroke-linejoin: round; stroke-linecap: butt}</style>
 </defs>
 <g id="figure_1">
  <g id="patch_1">
   <path d="M 0 288 
L 576 288 
L 576 0 
L 0 0 
z
" style="fill: #ffffff"/>
  </g>
  <g id="axes_1">
   <g id="patch_2">
    <path d="M 50.8925 273.7 
L 105.282 273.7 
L 105.282 47.04 
L 50.8925 47.04 
z
" style="fill: #ffffff"/>
   </g>
   <g id="PolyCollection_1">
    <path d="M 79.264864 263.397273 
L 76.909636 263.397273 
L 76.795669 261.315914 
L 76.694867 259.234555 
L 76.605403 257.153196 
L 76.522892 255.071837 
L 76.441079 252.990478 
L 76.352862 250.909118 
L 76.251451 248.827759 
L 76.131435 246.7464 
L 75.989588 244.665041 
L 75.825286 242.583682 
L 75.640493 240.502323 
L 75.439329 238.420964 
L 75.227276 236.339605 
L 75.010131 234.258246 
L 74.792826 232.176887 
L 74.578296 230.095528 
L 74.366559 228.014169 
L 74.154182 225.93281 
L 73.934249 223.851451 
L 73.69684 221.770092 
L 73.42995 219.688733 
L 73.12066 217.607374 
L 72.756331 215.526015 
L 72.325646 213.444656 
L 71.819346 211.363297 
L 71.230686 209.281938 
L 70.555668 207.200579 
L 69.793202 205.119219 
L 68.9453 203.03786 
L 68.017344 200.956501 
L 67.018387 198.875142 
L 65.961362 196.793783 
L 64.863052 194.712424 
L 63.743707 192.631065 
L 62.626263 190.549706 
L 61.53517 188.468347 
L 60.494908 186.386988 
L 59.528254 184.305629 
L 58.654419 182.22427 
L 57.887154 180.142911 
L 57.233058 178.061552 
L 56.690384 175.980193 
L 56.248726 173.898834 
L 55.889929 171.817475 
L 55.590382 169.736116 
L 55.324546 167.654757 
L 55.069183 165.573398 
L 54.807495 163.492039 
L 54.532277 161.41068 
L 54.247355 159.32932 
L 53.966954 157.247961 
L 53.713141 155.166602 
L 53.511902 153.085243 
L 53.388747 151.003884 
L 53.36475 148.922525 
L 53.453806 146.841166 
L 53.661532 144.759807 
L 53.98587 142.678448 
L 54.419057 140.597089 
L 54.950379 138.51573 
L 55.568993 136.434371 
L 56.266163 134.353012 
L 57.036394 132.271653 
L 57.877267 130.190294 
L 58.788058 128.108935 
L 59.767509 126.027576 
L 60.811352 123.946217 
L 61.910228 121.864858 
L 63.048587 119.783499 
L 64.204951 117.70214 
L 65.353579 115.620781 
L 66.467271 113.539421 
L 67.520761 111.458062 
L 68.493988 109.376703 
L 69.374568 107.295344 
L 70.158968 105.213985 
L 70.852142 103.132626 
L 71.465776 101.051267 
L 72.015522 98.969908 
L 72.517842 96.888549 
L 72.987085 94.80719 
L 73.433341 92.725831 
L 73.861401 90.644472 
L 74.270903 88.563113 
L 74.657478 86.481754 
L 75.014562 84.400395 
L 75.335456 82.319036 
L 75.615193 80.237677 
L 75.851906 78.156318 
L 76.047474 76.074959 
L 76.207394 73.9936 
L 76.339959 71.912241 
L 76.454945 69.830882 
L 76.562088 67.749522 
L 76.66965 65.668163 
L 76.783347 63.586804 
L 76.905809 61.505445 
L 77.036627 59.424086 
L 77.172905 57.342727 
L 79.001595 57.342727 
L 79.001595 57.342727 
L 79.137873 59.424086 
L 79.268691 61.505445 
L 79.391153 63.586804 
L 79.50485 65.668163 
L 79.612412 67.749522 
L 79.719555 69.830882 
L 79.834541 71.912241 
L 79.967106 73.9936 
L 80.127026 76.074959 
L 80.322594 78.156318 
L 80.559307 80.237677 
L 80.839044 82.319036 
L 81.159938 84.400395 
L 81.517022 86.481754 
L 81.903597 88.563113 
L 82.313099 90.644472 
L 82.741159 92.725831 
L 83.187415 94.80719 
L 83.656658 96.888549 
L 84.158978 98.969908 
L 84.708724 101.051267 
L 85.322358 103.132626 
L 86.015532 105.213985 
L 86.799932 107.295344 
L 87.680512 109.376703 
L 88.653739 111.458062 
L 89.707229 113.539421 
L 90.820921 115.620781 
L 91.969549 117.70214 
L 93.125913 119.783499 
L 94.264272 121.864858 
L 95.363148 123.946217 
L 96.406991 126.027576 
L 97.386442 128.108935 
L 98.297233 130.190294 
L 99.138106 132.271653 
L 99.908337 134.353012 
L 100.605507 136.434371 
L 101.224121 138.51573 
L 101.755443 140.597089 
L 102.18863 142.678448 
L 102.512968 144.759807 
L 102.720694 146.841166 
L 102.80975 148.922525 
L 102.785753 151.003884 
L 102.662598 153.085243 
L 102.461359 155.166602 
L 102.207546 157.247961 
L 101.927145 159.32932 
L 101.642223 161.41068 
L 101.367005 163.492039 
L 101.105317 165.573398 
L 100.849954 167.654757 
L 100.584118 169.736116 
L 100.284571 171.817475 
L 99.925774 173.898834 
L 99.484116 175.980193 
L 98.941442 178.061552 
L 98.287346 180.142911 
L 97.520081 182.22427 
L 96.646246 184.305629 
L 95.679592 186.386988 
L 94.63933 188.468347 
L 93.548237 190.549706 
L 92.430793 192.631065 
L 91.311448 194.712424 
L 90.213138 196.793783 
L 89.156113 198.875142 
L 88.157156 200.956501 
L 87.2292 203.03786 
L 86.381298 205.119219 
L 85.618832 207.200579 
L 84.943814 209.281938 
L 84.355154 211.363297 
L 83.848854 213.444656 
L 83.418169 215.526015 
L 83.05384 217.607374 
L 82.74455 219.688733 
L 82.47766 221.770092 
L 82.240251 223.851451 
L 82.020318 225.93281 
L 81.807941 228.014169 
L 81.596204 230.095528 
L 81.381674 232.176887 
L 81.164369 234.258246 
L 80.947224 236.339605 
L 80.735171 238.420964 
L 80.534007 240.502323 
L 80.349214 242.583682 
L 80.184912 244.665041 
L 80.043065 246.7464 
L 79.923049 248.827759 
L 79.821638 250.909118 
L 79.733421 252.990478 
L 79.651608 255.071837 
L 79.569097 257.153196 
L 79.479633 259.234555 
L 79.378831 261.315914 
L 79.264864 263.397273 
z
" clip-path="url(#p118bcb69d9)" style="fill: #1f77b4; fill-opacity: 0.3"/>
   </g>
   <g id="matplotlib.axis_1">
    <g id="ytick_1">
     <g id="line2d_1">
      <defs>
       <path id="mcb479f0d6e" d="M 0 0 
L -3.5 0 
" style="stroke: #000000; stroke-width: 0.8"/>
      </defs>
      <g>
       <use xlink:href="#mcb479f0d6e" x="50.8925" y="268.270066" style="stroke: #000000; stroke-width: 0.8"/>
      </g>
     </g>
     <g id="text_1">
      <!-- 0.8 -->
      <g transform="translate(27.989375 272.069285)scale(0.1 -0.1)">
       <defs>
        <path id="DejaVuSans-30" d="M 2034 4250 
Q 1547 4250 1301 3770 
Q 1056 3291 1056 2328 
Q 1056 1369 1301 889 
Q 1547 409 2034 409 
Q 2525 409 2770 889 
Q 3016 1369 3016 2328 
Q 3016 3291 2770 3770 
Q 2525 4250 2034 4250 
z
M 2034 4750 
Q 2819 4750 3233 4129 
Q 3647 3509 3647 2328 
Q 3647 1150 3233 529 
Q 2819 -91 2034 -91 
Q 1250 -91 836 529 
Q 422 1150 422 2328 
Q 422 3509 836 4129 
Q 1250 4750 2034 4750 
z
" transform="scale(0.015625)"/>
        <path id="DejaVuSans-2e" d="M 684 794 
L 1344 794 
L 1344 0 
L 684 0 
L 684 794 
z
" transform="scale(0.015625)"/>
        <path id="DejaVuSans-38" d="M 2034 2216 
Q 1584 2216 1326 1975 
Q 1069 1734 1069 1313 
Q 1069 891 1326 650 
Q 1584 409 2034 409 
Q 2484 409 2743 651 
Q 3003 894 3003 1313 
Q 3003 1734 2745 1975 
Q 2488 2216 2034 2216 
z
M 1403 2484 
Q 997 2584 770 2862 
Q 544 3141 544 3541 
Q 544 4100 942 4425 
Q 1341 4750 2034 4750 
Q 2731 4750 3128 4425 
Q 3525 4100 3525 3541 
Q 3525 3141 3298 2862 
Q 3072 2584 2669 2484 
Q 3125 2378 3379 2068 
Q 3634 1759 3634 1313 
Q 3634 634 3220 271 
Q 2806 -91 2034 -91 
Q 1263 -91 848 271 
Q 434 634 434 1313 
Q 434 1759 690 2068 
Q 947 2378 1403 2484 
z
M 1172 3481 
Q 1172 3119 1398 2916 
Q 1625 2713 2034 2713 
Q 2441 2713 2670 2916 
Q 2900 3119 2900 3481 
Q 2900 3844 2670 4047 
Q 2441 4250 2034 4250 
Q 1625 4250 1398 4047 
Q 1172 3844 1172 3481 
z
" transform="scale(0.015625)"/>
       </defs>
       <use xlink:href="#DejaVuSans-30"/>
       <use xlink:href="#DejaVuSans-2e" x="63.623047"/>
       <use xlink:href="#DejaVuSans-38" x="95.410156"/>
      </g>
     </g>
    </g>
    <g id="ytick_2">
     <g id="line2d_2">
      <g>
       <use xlink:href="#mcb479f0d6e" x="50.8925" y="240.169498" style="stroke: #000000; stroke-width: 0.8"/>
      </g>
     </g>
     <g id="text_2">
      <!-- 1.0 -->
      <g transform="translate(27.989375 243.968717)scale(0.1 -0.1)">
       <defs>
        <path id="DejaVuSans-31" d="M 794 531 
L 1825 531 
L 1825 4091 
L 703 3866 
L 703 4441 
L 1819 4666 
L 2450 4666 
L 2450 531 
L 3481 531 
L 3481 0 
L 794 0 
L 794 531 
z
" transform="scale(0.015625)"/>
       </defs>
       <use xlink:href="#DejaVuSans-31"/>
       <use xlink:href="#DejaVuSans-2e" x="63.623047"/>
       <use xlink:href="#DejaVuSans-30" x="95.410156"/>
      </g>
     </g>
    </g>
    <g id="ytick_3">
     <g id="line2d_3">
      <g>
       <use xlink:href="#mcb479f0d6e" x="50.8925" y="212.06893" style="stroke: #000000; stroke-width: 0.8"/>
      </g>
     </g>
     <g id="text_3">
      <!-- 1.2 -->
      <g transform="translate(27.989375 215.868149)scale(0.1 -0.1)">
       <defs>
        <path id="DejaVuSans-32" d="M 1228 531 
L 3431 531 
L 3431 0 
L 469 0 
L 469 531 
Q 828 903 1448 1529 
Q 2069 2156 2228 2338 
Q 2531 2678 2651 2914 
Q 2772 3150 2772 3378 
Q 2772 3750 2511 3984 
Q 2250 4219 1831 4219 
Q 1534 4219 1204 4116 
Q 875 4013 500 3803 
L 500 4441 
Q 881 4594 1212 4672 
Q 1544 4750 1819 4750 
Q 2544 4750 2975 4387 
Q 3406 4025 3406 3419 
Q 3406 3131 3298 2873 
Q 3191 2616 2906 2266 
Q 2828 2175 2409 1742 
Q 1991 1309 1228 531 
z
" transform="scale(0.015625)"/>
       </defs>
       <use xlink:href="#DejaVuSans-31"/>
       <use xlink:href="#DejaVuSans-2e" x="63.623047"/>
       <use xlink:href="#DejaVuSans-32" x="95.410156"/>
      </g>
     </g>
    </g>
    <g id="ytick_4">
     <g id="line2d_4">
      <g>
       <use xlink:href="#mcb479f0d6e" x="50.8925" y="183.968363" style="stroke: #000000; stroke-width: 0.8"/>
      </g>
     </g>
     <g id="text_4">
      <!-- 1.4 -->
      <g transform="translate(27.989375 187.767581)scale(0.1 -0.1)">
       <defs>
        <path id="DejaVuSans-34" d="M 2419 4116 
L 825 1625 
L 2419 1625 
L 2419 4116 
z
M 2253 4666 
L 3047 4666 
L 3047 1625 
L 3713 1625 
L 3713 1100 
L 3047 1100 
L 3047 0 
L 2419 0 
L 2419 1100 
L 313 1100 
L 313 1709 
L 2253 4666 
z
" transform="scale(0.015625)"/>
       </defs>
       <use xlink:href="#DejaVuSans-31"/>
       <use xlink:href="#DejaVuSans-2e" x="63.623047"/>
       <use xlink:href="#DejaVuSans-34" x="95.410156"/>
      </g>
     </g>
    </g>
    <g id="ytick_5">
     <g id="line2d_5">
      <g>
       <use xlink:href="#mcb479f0d6e" x="50.8925" y="155.867795" style="stroke: #000000; stroke-width: 0.8"/>
      </g>
     </g>
     <g id="text_5">
      <!-- 1.6 -->
      <g transform="translate(27.989375 159.667013)scale(0.1 -0.1)">
       <defs>
        <path id="DejaVuSans-36" d="M 2113 2584 
Q 1688 2584 1439 2293 
Q 1191 2003 1191 1497 
Q 1191 994 1439 701 
Q 1688 409 2113 409 
Q 2538 409 2786 701 
Q 3034 994 3034 1497 
Q 3034 2003 2786 2293 
Q 2538 2584 2113 2584 
z
M 3366 4563 
L 3366 3988 
Q 3128 4100 2886 4159 
Q 2644 4219 2406 4219 
Q 1781 4219 1451 3797 
Q 1122 3375 1075 2522 
Q 1259 2794 1537 2939 
Q 1816 3084 2150 3084 
Q 2853 3084 3261 2657 
Q 3669 2231 3669 1497 
Q 3669 778 3244 343 
Q 2819 -91 2113 -91 
Q 1303 -91 875 529 
Q 447 1150 447 2328 
Q 447 3434 972 4092 
Q 1497 4750 2381 4750 
Q 2619 4750 2861 4703 
Q 3103 4656 3366 4563 
z
" transform="scale(0.015625)"/>
       </defs>
       <use xlink:href="#DejaVuSans-31"/>
       <use xlink:href="#DejaVuSans-2e" x="63.623047"/>
       <use xlink:href="#DejaVuSans-36" x="95.410156"/>
      </g>
     </g>
    </g>
    <g id="ytick_6">
     <g id="line2d_6">
      <g>
       <use xlink:href="#mcb479f0d6e" x="50.8925" y="127.767227" style="stroke: #000000; stroke-width: 0.8"/>
      </g>
     </g>
     <g id="text_6">
      <!-- 1.8 -->
      <g transform="translate(27.989375 131.566445)scale(0.1 -0.1)">
       <use xlink:href="#DejaVuSans-31"/>
       <use xlink:href="#DejaVuSans-2e" x="63.623047"/>
       <use xlink:href="#DejaVuSans-38" x="95.410156"/>
      </g>
     </g>
    </g>
    <g id="ytick_7">
     <g id="line2d_7">
      <g>
       <use xlink:href="#mcb479f0d6e" x="50.8925" y="99.666659" style="stroke: #000000; stroke-width: 0.8"/>
      </g>
     </g>
     <g id="text_7">
      <!-- 2.0 -->
      <g transform="translate(27.989375 103.465877)scale(0.1 -0.1)">
       <use xlink:href="#DejaVuSans-32"/>
       <use xlink:href="#DejaVuSans-2e" x="63.623047"/>
       <use xlink:href="#DejaVuSans-30" x="95.410156"/>
      </g>
     </g>
    </g>
    <g id="ytick_8">
     <g id="line2d_8">
      <g>
       <use xlink:href="#mcb479f0d6e" x="50.8925" y="71.566091" style="stroke: #000000; stroke-width: 0.8"/>
      </g>
     </g>
     <g id="text_8">
      <!-- 2.2 -->
      <g transform="translate(27.989375 75.36531)scale(0.1 -0.1)">
       <use xlink:href="#DejaVuSans-32"/>
       <use xlink:href="#DejaVuSans-2e" x="63.623047"/>
       <use xlink:href="#DejaVuSans-32" x="95.410156"/>
      </g>
     </g>
    </g>
    <g id="text_9">
     <!-- RMSD [$\AA$] -->
     <g transform="translate(21.909688 184.12)rotate(-90)scale(0.1 -0.1)">
      <defs>
       <path id="DejaVuSans-52" d="M 2841 2188 
Q 3044 2119 3236 1894 
Q 3428 1669 3622 1275 
L 4263 0 
L 3584 0 
L 2988 1197 
Q 2756 1666 2539 1819 
Q 2322 1972 1947 1972 
L 1259 1972 
L 1259 0 
L 628 0 
L 628 4666 
L 2053 4666 
Q 2853 4666 3247 4331 
Q 3641 3997 3641 3322 
Q 3641 2881 3436 2590 
Q 3231 2300 2841 2188 
z
M 1259 4147 
L 1259 2491 
L 2053 2491 
Q 2509 2491 2742 2702 
Q 2975 2913 2975 3322 
Q 2975 3731 2742 3939 
Q 2509 4147 2053 4147 
L 1259 4147 
z
" transform="scale(0.015625)"/>
       <path id="DejaVuSans-4d" d="M 628 4666 
L 1569 4666 
L 2759 1491 
L 3956 4666 
L 4897 4666 
L 4897 0 
L 4281 0 
L 4281 4097 
L 3078 897 
L 2444 897 
L 1241 4097 
L 1241 0 
L 628 0 
L 628 4666 
z
" transform="scale(0.015625)"/>
       <path id="DejaVuSans-53" d="M 3425 4513 
L 3425 3897 
Q 3066 4069 2747 4153 
Q 2428 4238 2131 4238 
Q 1616 4238 1336 4038 
Q 1056 3838 1056 3469 
Q 1056 3159 1242 3001 
Q 1428 2844 1947 2747 
L 2328 2669 
Q 3034 2534 3370 2195 
Q 3706 1856 3706 1288 
Q 3706 609 3251 259 
Q 2797 -91 1919 -91 
Q 1588 -91 1214 -16 
Q 841 59 441 206 
L 441 856 
Q 825 641 1194 531 
Q 1563 422 1919 422 
Q 2459 422 2753 634 
Q 3047 847 3047 1241 
Q 3047 1584 2836 1778 
Q 2625 1972 2144 2069 
L 1759 2144 
Q 1053 2284 737 2584 
Q 422 2884 422 3419 
Q 422 4038 858 4394 
Q 1294 4750 2059 4750 
Q 2388 4750 2728 4690 
Q 3069 4631 3425 4513 
z
" transform="scale(0.015625)"/>
       <path id="DejaVuSans-44" d="M 1259 4147 
L 1259 519 
L 2022 519 
Q 2988 519 3436 956 
Q 3884 1394 3884 2338 
Q 3884 3275 3436 3711 
Q 2988 4147 2022 4147 
L 1259 4147 
z
M 628 4666 
L 1925 4666 
Q 3281 4666 3915 4102 
Q 4550 3538 4550 2338 
Q 4550 1131 3912 565 
Q 3275 0 1925 0 
L 628 0 
L 628 4666 
z
" transform="scale(0.015625)"/>
       <path id="DejaVuSans-20" transform="scale(0.015625)"/>
       <path id="DejaVuSans-5b" d="M 550 4863 
L 1875 4863 
L 1875 4416 
L 1125 4416 
L 1125 -397 
L 1875 -397 
L 1875 -844 
L 550 -844 
L 550 4863 
z
" transform="scale(0.015625)"/>
       <path id="DejaVuSans-Oblique-c5" d="M 3188 5081 
Q 3188 5278 3048 5417 
Q 2909 5556 2713 5556 
Q 2513 5556 2377 5420 
Q 2241 5284 2241 5081 
Q 2241 4884 2377 4746 
Q 2513 4609 2713 4609 
Q 2909 4609 3048 4746 
Q 3188 4884 3188 5081 
z
M 2203 4397 
Q 2034 4513 1945 4689 
Q 1856 4866 1856 5081 
Q 1856 5438 2106 5689 
Q 2356 5941 2713 5941 
Q 3069 5941 3320 5689 
Q 3572 5438 3572 5081 
Q 3572 4834 3458 4643 
Q 3344 4453 3128 4341 
L 3938 0 
L 3278 0 
L 3084 1197 
L 984 1197 
L 325 0 
L -341 0 
L 2203 4397 
z
M 2584 4044 
L 1275 1722 
L 2988 1722 
L 2584 4044 
z
" transform="scale(0.015625)"/>
       <path id="DejaVuSans-5d" d="M 1947 4863 
L 1947 -844 
L 622 -844 
L 622 -397 
L 1369 -397 
L 1369 4416 
L 622 4416 
L 622 4863 
L 1947 4863 
z
" transform="scale(0.015625)"/>
      </defs>
      <use xlink:href="#DejaVuSans-52" transform="translate(0 0.171875)"/>
      <use xlink:href="#DejaVuSans-4d" transform="translate(69.482422 0.171875)"/>
      <use xlink:href="#DejaVuSans-53" transform="translate(155.761719 0.171875)"/>
      <use xlink:href="#DejaVuSans-44" transform="translate(219.238281 0.171875)"/>
      <use xlink:href="#DejaVuSans-20" transform="translate(296.240234 0.171875)"/>
      <use xlink:href="#DejaVuSans-5b" transform="translate(328.027344 0.171875)"/>
      <use xlink:href="#DejaVuSans-Oblique-c5" transform="translate(367.041016 0.171875)"/>
      <use xlink:href="#DejaVuSans-5d" transform="translate(435.449219 0.171875)"/>
     </g>
    </g>
   </g>
   <g id="LineCollection_1">
    <path d="M 65.726 157.236467 
L 90.4485 157.236467 
" clip-path="url(#p118bcb69d9)" style="fill: none; stroke: #1f77b4; stroke-width: 1.5"/>
   </g>
   <g id="LineCollection_2">
    <path d="M 65.726 57.342727 
L 90.4485 57.342727 
" clip-path="url(#p118bcb69d9)" style="fill: none; stroke: #1f77b4; stroke-width: 1.5"/>
   </g>
   <g id="LineCollection_3">
    <path d="M 65.726 263.397273 
L 90.4485 263.397273 
" clip-path="url(#p118bcb69d9)" style="fill: none; stroke: #1f77b4; stroke-width: 1.5"/>
   </g>
   <g id="LineCollection_4">
    <path d="M 78.08725 263.397273 
L 78.08725 57.342727 
" clip-path="url(#p118bcb69d9)" style="fill: none; stroke: #1f77b4; stroke-width: 1.5"/>
   </g>
   <g id="patch_3">
    <path d="M 50.8925 273.7 
L 50.8925 47.04 
" style="fill: none; stroke: #000000; stroke-width: 0.8; stroke-linejoin: miter; stroke-linecap: square"/>
   </g>
   <g id="patch_4">
    <path d="M 105.282 273.7 
L 105.282 47.04 
" style="fill: none; stroke: #000000; stroke-width: 0.8; stroke-linejoin: miter; stroke-linecap: square"/>
   </g>
   <g id="patch_5">
    <path d="M 50.8925 273.7 
L 105.282 273.7 
" style="fill: none; stroke: #000000; stroke-width: 0.8; stroke-linejoin: miter; stroke-linecap: square"/>
   </g>
   <g id="patch_6">
    <path d="M 50.8925 47.04 
L 105.282 47.04 
" style="fill: none; stroke: #000000; stroke-width: 0.8; stroke-linejoin: miter; stroke-linecap: square"/>
   </g>
   <g id="text_10">
    <!-- RMSD -->
    <g transform="translate(60.31225 41.04)scale(0.12 -0.12)">
     <use xlink:href="#DejaVuSans-52"/>
     <use xlink:href="#DejaVuSans-4d" x="69.482422"/>
     <use xlink:href="#DejaVuSans-53" x="155.761719"/>
     <use xlink:href="#DejaVuSans-44" x="219.238281"/>
    </g>
   </g>
  </g>
  <g id="axes_2">
   <g id="patch_7">
    <path d="M 165.872 273.7 
L 220.2615 273.7 
L 220.2615 47.04 
L 165.872 47.04 
z
" style="fill: #ffffff"/>
   </g>
   <g id="PolyCollection_2">
    <path d="M 194.057932 263.397273 
L 192.075568 263.397273 
L 191.963936 261.315914 
L 191.86782 259.234555 
L 191.789525 257.153196 
L 191.728852 255.071837 
L 191.683056 252.990478 
L 191.647187 250.909118 
L 191.614711 248.827759 
L 191.578313 246.7464 
L 191.530744 244.665041 
L 191.465576 242.583682 
L 191.377794 240.502323 
L 191.264151 238.420964 
L 191.123285 236.339605 
L 190.95562 234.258246 
L 190.763118 232.176887 
L 190.548951 230.095528 
L 190.317144 228.014169 
L 190.072194 225.93281 
L 189.818628 223.851451 
L 189.56042 221.770092 
L 189.300224 219.688733 
L 189.038443 217.607374 
L 188.772263 215.526015 
L 188.494899 213.444656 
L 188.195326 211.363297 
L 187.858728 209.281938 
L 187.467778 207.200579 
L 187.004633 205.119219 
L 186.453344 203.03786 
L 185.802253 200.956501 
L 185.045884 198.875142 
L 184.185953 196.793783 
L 183.231297 194.712424 
L 182.196774 192.631065 
L 181.101414 190.549706 
L 179.966257 188.468347 
L 178.812348 186.386988 
L 177.659282 184.305629 
L 176.524481 182.22427 
L 175.423194 180.142911 
L 174.368951 178.061552 
L 173.374136 175.980193 
L 172.450308 173.898834 
L 171.608072 171.817475 
L 170.856489 169.736116 
L 170.202252 167.654757 
L 169.649011 165.573398 
L 169.197187 163.492039 
L 168.844512 161.41068 
L 168.587186 159.32932 
L 168.421339 157.247961 
L 168.34425 155.166602 
L 168.354852 153.085243 
L 168.45326 151.003884 
L 168.639441 148.922525 
L 168.911484 146.841166 
L 169.264158 144.759807 
L 169.68836 142.678448 
L 170.171807 140.597089 
L 170.700858 138.51573 
L 171.262945 136.434371 
L 171.848874 134.353012 
L 172.454252 132.271653 
L 173.079638 130.190294 
L 173.729396 128.108935 
L 174.409681 126.027576 
L 175.126188 123.946217 
L 175.882312 121.864858 
L 176.678123 119.783499 
L 177.510234 117.70214 
L 178.372355 115.620781 
L 179.256167 113.539421 
L 180.152178 111.458062 
L 181.050365 109.376703 
L 181.940601 107.295344 
L 182.812984 105.213985 
L 183.658214 103.132626 
L 184.468081 101.051267 
L 185.236027 98.969908 
L 185.957617 96.888549 
L 186.630754 94.80719 
L 187.255523 92.725831 
L 187.833641 90.644472 
L 188.367651 88.563113 
L 188.860056 86.481754 
L 189.312625 84.400395 
L 189.726065 82.319036 
L 190.100122 80.237677 
L 190.43409 78.156318 
L 190.727556 76.074959 
L 190.981184 73.9936 
L 191.197313 71.912241 
L 191.38019 69.830882 
L 191.535765 67.749522 
L 191.671087 65.668163 
L 191.793408 63.586804 
L 191.909223 61.505445 
L 192.023426 59.424086 
L 192.138783 57.342727 
L 193.994717 57.342727 
L 193.994717 57.342727 
L 194.110074 59.424086 
L 194.224277 61.505445 
L 194.340092 63.586804 
L 194.462413 65.668163 
L 194.597735 67.749522 
L 194.75331 69.830882 
L 194.936187 71.912241 
L 195.152316 73.9936 
L 195.405944 76.074959 
L 195.69941 78.156318 
L 196.033378 80.237677 
L 196.407435 82.319036 
L 196.820875 84.400395 
L 197.273444 86.481754 
L 197.765849 88.563113 
L 198.299859 90.644472 
L 198.877977 92.725831 
L 199.502746 94.80719 
L 200.175883 96.888549 
L 200.897473 98.969908 
L 201.665419 101.051267 
L 202.475286 103.132626 
L 203.320516 105.213985 
L 204.192899 107.295344 
L 205.083135 109.376703 
L 205.981322 111.458062 
L 206.877333 113.539421 
L 207.761145 115.620781 
L 208.623266 117.70214 
L 209.455377 119.783499 
L 210.251188 121.864858 
L 211.007312 123.946217 
L 211.723819 126.027576 
L 212.404104 128.108935 
L 213.053862 130.190294 
L 213.679248 132.271653 
L 214.284626 134.353012 
L 214.870555 136.434371 
L 215.432642 138.51573 
L 215.961693 140.597089 
L 216.44514 142.678448 
L 216.869342 144.759807 
L 217.222016 146.841166 
L 217.494059 148.922525 
L 217.68024 151.003884 
L 217.778648 153.085243 
L 217.78925 155.166602 
L 217.712161 157.247961 
L 217.546314 159.32932 
L 217.288988 161.41068 
L 216.936313 163.492039 
L 216.484489 165.573398 
L 215.931248 167.654757 
L 215.277011 169.736116 
L 214.525428 171.817475 
L 213.683192 173.898834 
L 212.759364 175.980193 
L 211.764549 178.061552 
L 210.710306 180.142911 
L 209.609019 182.22427 
L 208.474218 184.305629 
L 207.321152 186.386988 
L 206.167243 188.468347 
L 205.032086 190.549706 
L 203.936726 192.631065 
L 202.902203 194.712424 
L 201.947547 196.793783 
L 201.087616 198.875142 
L 200.331247 200.956501 
L 199.680156 203.03786 
L 199.128867 205.119219 
L 198.665722 207.200579 
L 198.274772 209.281938 
L 197.938174 211.363297 
L 197.638601 213.444656 
L 197.361237 215.526015 
L 197.095057 217.607374 
L 196.833276 219.688733 
L 196.57308 221.770092 
L 196.314872 223.851451 
L 196.061306 225.93281 
L 195.816356 228.014169 
L 195.584549 230.095528 
L 195.370382 232.176887 
L 195.17788 234.258246 
L 195.010215 236.339605 
L 194.869349 238.420964 
L 194.755706 240.502323 
L 194.667924 242.583682 
L 194.602756 244.665041 
L 194.555187 246.7464 
L 194.518789 248.827759 
L 194.486313 250.909118 
L 194.450444 252.990478 
L 194.404648 255.071837 
L 194.343975 257.153196 
L 194.26568 259.234555 
L 194.169564 261.315914 
L 194.057932 263.397273 
z
" clip-path="url(#pea5089083d)" style="fill: #1f77b4; fill-opacity: 0.3"/>
   </g>
   <g id="matplotlib.axis_2">
    <g id="ytick_9">
     <g id="line2d_9">
      <g>
       <use xlink:href="#mcb479f0d6e" x="165.872" y="264.487485" style="stroke: #000000; stroke-width: 0.8"/>
      </g>
     </g>
     <g id="text_11">
      <!-- 0.6 -->
      <g transform="translate(142.968875 268.286704)scale(0.1 -0.1)">
       <use xlink:href="#DejaVuSans-30"/>
       <use xlink:href="#DejaVuSans-2e" x="63.623047"/>
       <use xlink:href="#DejaVuSans-36" x="95.410156"/>
      </g>
     </g>
    </g>
    <g id="ytick_10">
     <g id="line2d_10">
      <g>
       <use xlink:href="#mcb479f0d6e" x="165.872" y="235.959117" style="stroke: #000000; stroke-width: 0.8"/>
      </g>
     </g>
     <g id="text_12">
      <!-- 0.7 -->
      <g transform="translate(142.968875 239.758336)scale(0.1 -0.1)">
       <defs>
        <path id="DejaVuSans-37" d="M 525 4666 
L 3525 4666 
L 3525 4397 
L 1831 0 
L 1172 0 
L 2766 4134 
L 525 4134 
L 525 4666 
z
" transform="scale(0.015625)"/>
       </defs>
       <use xlink:href="#DejaVuSans-30"/>
       <use xlink:href="#DejaVuSans-2e" x="63.623047"/>
       <use xlink:href="#DejaVuSans-37" x="95.410156"/>
      </g>
     </g>
    </g>
    <g id="ytick_11">
     <g id="line2d_11">
      <g>
       <use xlink:href="#mcb479f0d6e" x="165.872" y="207.430749" style="stroke: #000000; stroke-width: 0.8"/>
      </g>
     </g>
     <g id="text_13">
      <!-- 0.8 -->
      <g transform="translate(142.968875 211.229968)scale(0.1 -0.1)">
       <use xlink:href="#DejaVuSans-30"/>
       <use xlink:href="#DejaVuSans-2e" x="63.623047"/>
       <use xlink:href="#DejaVuSans-38" x="95.410156"/>
      </g>
     </g>
    </g>
    <g id="ytick_12">
     <g id="line2d_12">
      <g>
       <use xlink:href="#mcb479f0d6e" x="165.872" y="178.902382" style="stroke: #000000; stroke-width: 0.8"/>
      </g>
     </g>
     <g id="text_14">
      <!-- 0.9 -->
      <g transform="translate(142.968875 182.7016)scale(0.1 -0.1)">
       <defs>
        <path id="DejaVuSans-39" d="M 703 97 
L 703 672 
Q 941 559 1184 500 
Q 1428 441 1663 441 
Q 2288 441 2617 861 
Q 2947 1281 2994 2138 
Q 2813 1869 2534 1725 
Q 2256 1581 1919 1581 
Q 1219 1581 811 2004 
Q 403 2428 403 3163 
Q 403 3881 828 4315 
Q 1253 4750 1959 4750 
Q 2769 4750 3195 4129 
Q 3622 3509 3622 2328 
Q 3622 1225 3098 567 
Q 2575 -91 1691 -91 
Q 1453 -91 1209 -44 
Q 966 3 703 97 
z
M 1959 2075 
Q 2384 2075 2632 2365 
Q 2881 2656 2881 3163 
Q 2881 3666 2632 3958 
Q 2384 4250 1959 4250 
Q 1534 4250 1286 3958 
Q 1038 3666 1038 3163 
Q 1038 2656 1286 2365 
Q 1534 2075 1959 2075 
z
" transform="scale(0.015625)"/>
       </defs>
       <use xlink:href="#DejaVuSans-30"/>
       <use xlink:href="#DejaVuSans-2e" x="63.623047"/>
       <use xlink:href="#DejaVuSans-39" x="95.410156"/>
      </g>
     </g>
    </g>
    <g id="ytick_13">
     <g id="line2d_13">
      <g>
       <use xlink:href="#mcb479f0d6e" x="165.872" y="150.374014" style="stroke: #000000; stroke-width: 0.8"/>
      </g>
     </g>
     <g id="text_15">
      <!-- 1.0 -->
      <g transform="translate(142.968875 154.173232)scale(0.1 -0.1)">
       <use xlink:href="#DejaVuSans-31"/>
       <use xlink:href="#DejaVuSans-2e" x="63.623047"/>
       <use xlink:href="#DejaVuSans-30" x="95.410156"/>
      </g>
     </g>
    </g>
    <g id="ytick_14">
     <g id="line2d_14">
      <g>
       <use xlink:href="#mcb479f0d6e" x="165.872" y="121.845646" style="stroke: #000000; stroke-width: 0.8"/>
      </g>
     </g>
     <g id="text_16">
      <!-- 1.1 -->
      <g transform="translate(142.968875 125.644864)scale(0.1 -0.1)">
       <use xlink:href="#DejaVuSans-31"/>
       <use xlink:href="#DejaVuSans-2e" x="63.623047"/>
       <use xlink:href="#DejaVuSans-31" x="95.410156"/>
      </g>
     </g>
    </g>
    <g id="ytick_15">
     <g id="line2d_15">
      <g>
       <use xlink:href="#mcb479f0d6e" x="165.872" y="93.317278" style="stroke: #000000; stroke-width: 0.8"/>
      </g>
     </g>
     <g id="text_17">
      <!-- 1.2 -->
      <g transform="translate(142.968875 97.116497)scale(0.1 -0.1)">
       <use xlink:href="#DejaVuSans-31"/>
       <use xlink:href="#DejaVuSans-2e" x="63.623047"/>
       <use xlink:href="#DejaVuSans-32" x="95.410156"/>
      </g>
     </g>
    </g>
    <g id="ytick_16">
     <g id="line2d_16">
      <g>
       <use xlink:href="#mcb479f0d6e" x="165.872" y="64.78891" style="stroke: #000000; stroke-width: 0.8"/>
      </g>
     </g>
     <g id="text_18">
      <!-- 1.3 -->
      <g transform="translate(142.968875 68.588129)scale(0.1 -0.1)">
       <defs>
        <path id="DejaVuSans-33" d="M 2597 2516 
Q 3050 2419 3304 2112 
Q 3559 1806 3559 1356 
Q 3559 666 3084 287 
Q 2609 -91 1734 -91 
Q 1441 -91 1130 -33 
Q 819 25 488 141 
L 488 750 
Q 750 597 1062 519 
Q 1375 441 1716 441 
Q 2309 441 2620 675 
Q 2931 909 2931 1356 
Q 2931 1769 2642 2001 
Q 2353 2234 1838 2234 
L 1294 2234 
L 1294 2753 
L 1863 2753 
Q 2328 2753 2575 2939 
Q 2822 3125 2822 3475 
Q 2822 3834 2567 4026 
Q 2313 4219 1838 4219 
Q 1578 4219 1281 4162 
Q 984 4106 628 3988 
L 628 4550 
Q 988 4650 1302 4700 
Q 1616 4750 1894 4750 
Q 2613 4750 3031 4423 
Q 3450 4097 3450 3541 
Q 3450 3153 3228 2886 
Q 3006 2619 2597 2516 
z
" transform="scale(0.015625)"/>
       </defs>
       <use xlink:href="#DejaVuSans-31"/>
       <use xlink:href="#DejaVuSans-2e" x="63.623047"/>
       <use xlink:href="#DejaVuSans-33" x="95.410156"/>
      </g>
     </g>
    </g>
    <g id="text_19">
     <!-- MAE [$\AA$] -->
     <g transform="translate(136.889188 180.22)rotate(-90)scale(0.1 -0.1)">
      <defs>
       <path id="DejaVuSans-41" d="M 2188 4044 
L 1331 1722 
L 3047 1722 
L 2188 4044 
z
M 1831 4666 
L 2547 4666 
L 4325 0 
L 3669 0 
L 3244 1197 
L 1141 1197 
L 716 0 
L 50 0 
L 1831 4666 
z
" transform="scale(0.015625)"/>
       <path id="DejaVuSans-45" d="M 628 4666 
L 3578 4666 
L 3578 4134 
L 1259 4134 
L 1259 2753 
L 3481 2753 
L 3481 2222 
L 1259 2222 
L 1259 531 
L 3634 531 
L 3634 0 
L 628 0 
L 628 4666 
z
" transform="scale(0.015625)"/>
      </defs>
      <use xlink:href="#DejaVuSans-4d" transform="translate(0 0.171875)"/>
      <use xlink:href="#DejaVuSans-41" transform="translate(86.279297 0.171875)"/>
      <use xlink:href="#DejaVuSans-45" transform="translate(154.6875 0.171875)"/>
      <use xlink:href="#DejaVuSans-20" transform="translate(217.871094 0.171875)"/>
      <use xlink:href="#DejaVuSans-5b" transform="translate(249.658203 0.171875)"/>
      <use xlink:href="#DejaVuSans-Oblique-c5" transform="translate(288.671875 0.171875)"/>
      <use xlink:href="#DejaVuSans-5d" transform="translate(357.080078 0.171875)"/>
     </g>
    </g>
   </g>
   <g id="LineCollection_5">
    <path d="M 180.7055 152.514799 
L 205.428 152.514799 
" clip-path="url(#pea5089083d)" style="fill: none; stroke: #1f77b4; stroke-width: 1.5"/>
   </g>
   <g id="LineCollection_6">
    <path d="M 180.7055 57.342727 
L 205.428 57.342727 
" clip-path="url(#pea5089083d)" style="fill: none; stroke: #1f77b4; stroke-width: 1.5"/>
   </g>
   <g id="LineCollection_7">
    <path d="M 180.7055 263.397273 
L 205.428 263.397273 
" clip-path="url(#pea5089083d)" style="fill: none; stroke: #1f77b4; stroke-width: 1.5"/>
   </g>
   <g id="LineCollection_8">
    <path d="M 193.06675 263.397273 
L 193.06675 57.342727 
" clip-path="url(#pea5089083d)" style="fill: none; stroke: #1f77b4; stroke-width: 1.5"/>
   </g>
   <g id="patch_8">
    <path d="M 165.872 273.7 
L 165.872 47.04 
" style="fill: none; stroke: #000000; stroke-width: 0.8; stroke-linejoin: miter; stroke-linecap: square"/>
   </g>
   <g id="patch_9">
    <path d="M 220.2615 273.7 
L 220.2615 47.04 
" style="fill: none; stroke: #000000; stroke-width: 0.8; stroke-linejoin: miter; stroke-linecap: square"/>
   </g>
   <g id="patch_10">
    <path d="M 165.872 273.7 
L 220.2615 273.7 
" style="fill: none; stroke: #000000; stroke-width: 0.8; stroke-linejoin: miter; stroke-linecap: square"/>
   </g>
   <g id="patch_11">
    <path d="M 165.872 47.04 
L 220.2615 47.04 
" style="fill: none; stroke: #000000; stroke-width: 0.8; stroke-linejoin: miter; stroke-linecap: square"/>
   </g>
   <g id="text_20">
    <!-- MAE -->
    <g transform="translate(179.99425 41.04)scale(0.12 -0.12)">
     <use xlink:href="#DejaVuSans-4d"/>
     <use xlink:href="#DejaVuSans-41" x="86.279297"/>
     <use xlink:href="#DejaVuSans-45" x="154.6875"/>
    </g>
   </g>
  </g>
  <g id="axes_3">
   <g id="patch_12">
    <path d="M 280.8515 273.7 
L 335.241 273.7 
L 335.241 47.04 
L 280.8515 47.04 
z
" style="fill: #ffffff"/>
   </g>
   <g id="PolyCollection_3">
    <path d="M 308.998198 263.397273 
L 307.094302 263.397273 
L 307.004234 261.315914 
L 306.922739 259.234555 
L 306.847138 257.153196 
L 306.773105 255.071837 
L 306.695559 252.990478 
L 306.609724 250.909118 
L 306.51211 248.827759 
L 306.401167 246.7464 
L 306.277428 244.665041 
L 306.14307 242.583682 
L 306.000977 240.502323 
L 305.853483 238.420964 
L 305.701141 236.339605 
L 305.541835 234.258246 
L 305.370533 232.176887 
L 305.179813 230.095528 
L 304.961062 228.014169 
L 304.706069 225.93281 
L 304.408567 223.851451 
L 304.065282 221.770092 
L 303.676182 219.688733 
L 303.243849 217.607374 
L 302.772164 215.526015 
L 302.264696 213.444656 
L 301.723274 211.363297 
L 301.147122 209.281938 
L 300.532782 207.200579 
L 299.874783 205.119219 
L 299.166879 203.03786 
L 298.403499 200.956501 
L 297.581133 198.875142 
L 296.699393 196.793783 
L 295.761667 194.712424 
L 294.775345 192.631065 
L 293.751705 190.549706 
L 292.705531 188.468347 
L 291.654507 186.386988 
L 290.618389 184.305629 
L 289.617921 182.22427 
L 288.673457 180.142911 
L 287.803349 178.061552 
L 287.022211 175.980193 
L 286.339322 173.898834 
L 285.757464 171.817475 
L 285.272514 169.736116 
L 284.874042 167.654757 
L 284.546982 165.573398 
L 284.274271 163.492039 
L 284.040088 161.41068 
L 283.833135 159.32932 
L 283.649334 157.247961 
L 283.493295 155.166602 
L 283.378165 153.085243 
L 283.32375 151.003884 
L 283.353203 148.922525 
L 283.488896 146.841166 
L 283.748265 144.759807 
L 284.140453 142.678448 
L 284.664341 140.597089 
L 285.30832 138.51573 
L 286.051763 136.434371 
L 286.867912 134.353012 
L 287.727659 132.271653 
L 288.60359 130.190294 
L 289.473657 128.108935 
L 290.323838 126.027576 
L 291.149357 123.946217 
L 291.954203 121.864858 
L 292.749022 119.783499 
L 293.547776 117.70214 
L 294.363864 115.620781 
L 295.206524 113.539421 
L 296.078322 111.458062 
L 296.974238 109.376703 
L 297.882472 107.295344 
L 298.786649 105.213985 
L 299.668752 103.132626 
L 300.511999 101.051267 
L 301.303004 98.969908 
L 302.032855 96.888549 
L 302.697136 94.80719 
L 303.295195 92.725831 
L 303.829129 90.644472 
L 304.30285 88.563113 
L 304.721446 86.481754 
L 305.090819 84.400395 
L 305.417435 82.319036 
L 305.708004 80.237677 
L 305.969016 78.156318 
L 306.206162 76.074959 
L 306.423806 73.9936 
L 306.624694 71.912241 
L 306.810005 69.830882 
L 306.979751 67.749522 
L 307.133386 65.668163 
L 307.270445 63.586804 
L 307.391011 61.505445 
L 307.495911 59.424086 
L 307.586621 57.342727 
L 308.505879 57.342727 
L 308.505879 57.342727 
L 308.596589 59.424086 
L 308.701489 61.505445 
L 308.822055 63.586804 
L 308.959114 65.668163 
L 309.112749 67.749522 
L 309.282495 69.830882 
L 309.467806 71.912241 
L 309.668694 73.9936 
L 309.886338 76.074959 
L 310.123484 78.156318 
L 310.384496 80.237677 
L 310.675065 82.319036 
L 311.001681 84.400395 
L 311.371054 86.481754 
L 311.78965 88.563113 
L 312.263371 90.644472 
L 312.797305 92.725831 
L 313.395364 94.80719 
L 314.059645 96.888549 
L 314.789496 98.969908 
L 315.580501 101.051267 
L 316.423748 103.132626 
L 317.305851 105.213985 
L 318.210028 107.295344 
L 319.118262 109.376703 
L 320.014178 111.458062 
L 320.885976 113.539421 
L 321.728636 115.620781 
L 322.544724 117.70214 
L 323.343478 119.783499 
L 324.138297 121.864858 
L 324.943143 123.946217 
L 325.768662 126.027576 
L 326.618843 128.108935 
L 327.48891 130.190294 
L 328.364841 132.271653 
L 329.224588 134.353012 
L 330.040737 136.434371 
L 330.78418 138.51573 
L 331.428159 140.597089 
L 331.952047 142.678448 
L 332.344235 144.759807 
L 332.603604 146.841166 
L 332.739297 148.922525 
L 332.76875 151.003884 
L 332.714335 153.085243 
L 332.599205 155.166602 
L 332.443166 157.247961 
L 332.259365 159.32932 
L 332.052412 161.41068 
L 331.818229 163.492039 
L 331.545518 165.573398 
L 331.218458 167.654757 
L 330.819986 169.736116 
L 330.335036 171.817475 
L 329.753178 173.898834 
L 329.070289 175.980193 
L 328.289151 178.061552 
L 327.419043 180.142911 
L 326.474579 182.22427 
L 325.474111 184.305629 
L 324.437993 186.386988 
L 323.386969 188.468347 
L 322.340795 190.549706 
L 321.317155 192.631065 
L 320.330833 194.712424 
L 319.393107 196.793783 
L 318.511367 198.875142 
L 317.689001 200.956501 
L 316.925621 203.03786 
L 316.217717 205.119219 
L 315.559718 207.200579 
L 314.945378 209.281938 
L 314.369226 211.363297 
L 313.827804 213.444656 
L 313.320336 215.526015 
L 312.848651 217.607374 
L 312.416318 219.688733 
L 312.027218 221.770092 
L 311.683933 223.851451 
L 311.386431 225.93281 
L 311.131438 228.014169 
L 310.912687 230.095528 
L 310.721967 232.176887 
L 310.550665 234.258246 
L 310.391359 236.339605 
L 310.239017 238.420964 
L 310.091523 240.502323 
L 309.94943 242.583682 
L 309.815072 244.665041 
L 309.691333 246.7464 
L 309.58039 248.827759 
L 309.482776 250.909118 
L 309.396941 252.990478 
L 309.319395 255.071837 
L 309.245362 257.153196 
L 309.169761 259.234555 
L 309.088266 261.315914 
L 308.998198 263.397273 
z
" clip-path="url(#pd18b1df820)" style="fill: #1f77b4; fill-opacity: 0.3"/>
   </g>
   <g id="matplotlib.axis_3">
    <g id="ytick_17">
     <g id="line2d_17">
      <g>
       <use xlink:href="#mcb479f0d6e" x="280.8515" y="262.345597" style="stroke: #000000; stroke-width: 0.8"/>
      </g>
     </g>
     <g id="text_21">
      <!-- −0.2 -->
      <g transform="translate(249.568687 266.144815)scale(0.1 -0.1)">
       <defs>
        <path id="DejaVuSans-2212" d="M 678 2272 
L 4684 2272 
L 4684 1741 
L 678 1741 
L 678 2272 
z
" transform="scale(0.015625)"/>
       </defs>
       <use xlink:href="#DejaVuSans-2212"/>
       <use xlink:href="#DejaVuSans-30" x="83.789062"/>
       <use xlink:href="#DejaVuSans-2e" x="147.412109"/>
       <use xlink:href="#DejaVuSans-32" x="179.199219"/>
      </g>
     </g>
    </g>
    <g id="ytick_18">
     <g id="line2d_18">
      <g>
       <use xlink:href="#mcb479f0d6e" x="280.8515" y="213.469113" style="stroke: #000000; stroke-width: 0.8"/>
      </g>
     </g>
     <g id="text_22">
      <!-- 0.0 -->
      <g transform="translate(257.948375 217.268332)scale(0.1 -0.1)">
       <use xlink:href="#DejaVuSans-30"/>
       <use xlink:href="#DejaVuSans-2e" x="63.623047"/>
       <use xlink:href="#DejaVuSans-30" x="95.410156"/>
      </g>
     </g>
    </g>
    <g id="ytick_19">
     <g id="line2d_19">
      <g>
       <use xlink:href="#mcb479f0d6e" x="280.8515" y="164.59263" style="stroke: #000000; stroke-width: 0.8"/>
      </g>
     </g>
     <g id="text_23">
      <!-- 0.2 -->
      <g transform="translate(257.948375 168.391849)scale(0.1 -0.1)">
       <use xlink:href="#DejaVuSans-30"/>
       <use xlink:href="#DejaVuSans-2e" x="63.623047"/>
       <use xlink:href="#DejaVuSans-32" x="95.410156"/>
      </g>
     </g>
    </g>
    <g id="ytick_20">
     <g id="line2d_20">
      <g>
       <use xlink:href="#mcb479f0d6e" x="280.8515" y="115.716146" style="stroke: #000000; stroke-width: 0.8"/>
      </g>
     </g>
     <g id="text_24">
      <!-- 0.4 -->
      <g transform="translate(257.948375 119.515365)scale(0.1 -0.1)">
       <use xlink:href="#DejaVuSans-30"/>
       <use xlink:href="#DejaVuSans-2e" x="63.623047"/>
       <use xlink:href="#DejaVuSans-34" x="95.410156"/>
      </g>
     </g>
    </g>
    <g id="ytick_21">
     <g id="line2d_21">
      <g>
       <use xlink:href="#mcb479f0d6e" x="280.8515" y="66.839663" style="stroke: #000000; stroke-width: 0.8"/>
      </g>
     </g>
     <g id="text_25">
      <!-- 0.6 -->
      <g transform="translate(257.948375 70.638882)scale(0.1 -0.1)">
       <use xlink:href="#DejaVuSans-30"/>
       <use xlink:href="#DejaVuSans-2e" x="63.623047"/>
       <use xlink:href="#DejaVuSans-36" x="95.410156"/>
      </g>
     </g>
    </g>
    <g id="text_26">
     <!-- MSE [$\AA$] -->
     <g transform="translate(243.489 179.97)rotate(-90)scale(0.1 -0.1)">
      <use xlink:href="#DejaVuSans-4d" transform="translate(0 0.171875)"/>
      <use xlink:href="#DejaVuSans-53" transform="translate(86.279297 0.171875)"/>
      <use xlink:href="#DejaVuSans-45" transform="translate(149.755859 0.171875)"/>
      <use xlink:href="#DejaVuSans-20" transform="translate(212.939453 0.171875)"/>
      <use xlink:href="#DejaVuSans-5b" transform="translate(244.726562 0.171875)"/>
      <use xlink:href="#DejaVuSans-Oblique-c5" transform="translate(283.740234 0.171875)"/>
      <use xlink:href="#DejaVuSans-5d" transform="translate(352.148438 0.171875)"/>
     </g>
    </g>
   </g>
   <g id="LineCollection_9">
    <path d="M 295.685 156.247837 
L 320.4075 156.247837 
" clip-path="url(#pd18b1df820)" style="fill: none; stroke: #1f77b4; stroke-width: 1.5"/>
   </g>
   <g id="LineCollection_10">
    <path d="M 295.685 57.342727 
L 320.4075 57.342727 
" clip-path="url(#pd18b1df820)" style="fill: none; stroke: #1f77b4; stroke-width: 1.5"/>
   </g>
   <g id="LineCollection_11">
    <path d="M 295.685 263.397273 
L 320.4075 263.397273 
" clip-path="url(#pd18b1df820)" style="fill: none; stroke: #1f77b4; stroke-width: 1.5"/>
   </g>
   <g id="LineCollection_12">
    <path d="M 308.04625 263.397273 
L 308.04625 57.342727 
" clip-path="url(#pd18b1df820)" style="fill: none; stroke: #1f77b4; stroke-width: 1.5"/>
   </g>
   <g id="patch_13">
    <path d="M 280.8515 273.7 
L 280.8515 47.04 
" style="fill: none; stroke: #000000; stroke-width: 0.8; stroke-linejoin: miter; stroke-linecap: square"/>
   </g>
   <g id="patch_14">
    <path d="M 335.241 273.7 
L 335.241 47.04 
" style="fill: none; stroke: #000000; stroke-width: 0.8; stroke-linejoin: miter; stroke-linecap: square"/>
   </g>
   <g id="patch_15">
    <path d="M 280.8515 273.7 
L 335.241 273.7 
" style="fill: none; stroke: #000000; stroke-width: 0.8; stroke-linejoin: miter; stroke-linecap: square"/>
   </g>
   <g id="patch_16">
    <path d="M 280.8515 47.04 
L 335.241 47.04 
" style="fill: none; stroke: #000000; stroke-width: 0.8; stroke-linejoin: miter; stroke-linecap: square"/>
   </g>
   <g id="text_27">
    <!-- MSE -->
    <g transform="translate(295.269062 41.04)scale(0.12 -0.12)">
     <use xlink:href="#DejaVuSans-4d"/>
     <use xlink:href="#DejaVuSans-53" x="86.279297"/>
     <use xlink:href="#DejaVuSans-45" x="149.755859"/>
    </g>
   </g>
  </g>
  <g id="axes_4">
   <g id="patch_17">
    <path d="M 395.831 273.7 
L 450.2205 273.7 
L 450.2205 47.04 
L 395.831 47.04 
z
" style="fill: #ffffff"/>
   </g>
   <g id="PolyCollection_4">
    <path d="M 424.692971 263.397273 
L 421.358529 263.397273 
L 421.015566 261.315914 
L 420.646516 259.234555 
L 420.255752 257.153196 
L 419.846698 255.071837 
L 419.421037 252.990478 
L 418.978058 250.909118 
L 418.51421 248.827759 
L 418.022961 246.7464 
L 417.495028 244.665041 
L 416.919064 242.583682 
L 416.282822 240.502323 
L 415.57477 238.420964 
L 414.785991 236.339605 
L 413.912125 234.258246 
L 412.95502 232.176887 
L 411.923763 230.095528 
L 410.834814 228.014169 
L 409.711133 225.93281 
L 408.580319 223.851451 
L 407.471959 221.770092 
L 406.414513 219.688733 
L 405.432125 217.607374 
L 404.541787 215.526015 
L 403.751297 213.444656 
L 403.058389 211.363297 
L 402.451338 209.281938 
L 401.911161 207.200579 
L 401.41526 205.119219 
L 400.942053 203.03786 
L 400.475818 200.956501 
L 400.010789 198.875142 
L 399.5536 196.793783 
L 399.123391 194.712424 
L 398.749384 192.631065 
L 398.46628 190.549706 
L 398.308331 188.468347 
L 398.30325 186.386988 
L 398.46719 184.305629 
L 398.801795 182.22427 
L 399.293893 180.142911 
L 399.917847 178.061552 
L 400.640001 175.980193 
L 401.424268 173.898834 
L 402.237644 171.817475 
L 403.054536 169.736116 
L 403.859087 167.654757 
L 404.645189 165.573398 
L 405.414436 163.492039 
L 406.172735 161.41068 
L 406.926563 159.32932 
L 407.679859 157.247961 
L 408.432276 155.166602 
L 409.179127 153.085243 
L 409.912848 151.003884 
L 410.625444 148.922525 
L 411.311137 146.841166 
L 411.968426 144.759807 
L 412.600953 142.678448 
L 413.216917 140.597089 
L 413.827156 138.51573 
L 414.442381 136.434371 
L 415.070264 134.353012 
L 415.713121 132.271653 
L 416.36676 130.190294 
L 417.020761 128.108935 
L 417.660084 126.027576 
L 418.267582 123.946217 
L 418.826801 121.864858 
L 419.32448 119.783499 
L 419.752269 117.70214 
L 420.107479 115.620781 
L 420.392869 113.539421 
L 420.615696 111.458062 
L 420.786329 109.376703 
L 420.91671 107.295344 
L 421.018911 105.213985 
L 421.103946 103.132626 
L 421.180932 101.051267 
L 421.256633 98.969908 
L 421.335378 96.888549 
L 421.419276 94.80719 
L 421.508655 92.725831 
L 421.602575 90.644472 
L 421.69933 88.563113 
L 421.79682 86.481754 
L 421.892799 84.400395 
L 421.984998 82.319036 
L 422.071203 80.237677 
L 422.149355 78.156318 
L 422.21772 76.074959 
L 422.275133 73.9936 
L 422.321266 71.912241 
L 422.356842 69.830882 
L 422.383722 67.749522 
L 422.404788 65.668163 
L 422.423607 63.586804 
L 422.443927 61.505445 
L 422.469091 59.424086 
L 422.501476 57.342727 
L 423.550024 57.342727 
L 423.550024 57.342727 
L 423.582409 59.424086 
L 423.607573 61.505445 
L 423.627893 63.586804 
L 423.646712 65.668163 
L 423.667778 67.749522 
L 423.694658 69.830882 
L 423.730234 71.912241 
L 423.776367 73.9936 
L 423.83378 76.074959 
L 423.902145 78.156318 
L 423.980297 80.237677 
L 424.066502 82.319036 
L 424.158701 84.400395 
L 424.25468 86.481754 
L 424.35217 88.563113 
L 424.448925 90.644472 
L 424.542845 92.725831 
L 424.632224 94.80719 
L 424.716122 96.888549 
L 424.794867 98.969908 
L 424.870568 101.051267 
L 424.947554 103.132626 
L 425.032589 105.213985 
L 425.13479 107.295344 
L 425.265171 109.376703 
L 425.435804 111.458062 
L 425.658631 113.539421 
L 425.944021 115.620781 
L 426.299231 117.70214 
L 426.72702 119.783499 
L 427.224699 121.864858 
L 427.783918 123.946217 
L 428.391416 126.027576 
L 429.030739 128.108935 
L 429.68474 130.190294 
L 430.338379 132.271653 
L 430.981236 134.353012 
L 431.609119 136.434371 
L 432.224344 138.51573 
L 432.834583 140.597089 
L 433.450547 142.678448 
L 434.083074 144.759807 
L 434.740363 146.841166 
L 435.426056 148.922525 
L 436.138652 151.003884 
L 436.872373 153.085243 
L 437.619224 155.166602 
L 438.371641 157.247961 
L 439.124937 159.32932 
L 439.878765 161.41068 
L 440.637064 163.492039 
L 441.406311 165.573398 
L 442.192413 167.654757 
L 442.996964 169.736116 
L 443.813856 171.817475 
L 444.627232 173.898834 
L 445.411499 175.980193 
L 446.133653 178.061552 
L 446.757607 180.142911 
L 447.249705 182.22427 
L 447.58431 184.305629 
L 447.74825 186.386988 
L 447.743169 188.468347 
L 447.58522 190.549706 
L 447.302116 192.631065 
L 446.928109 194.712424 
L 446.4979 196.793783 
L 446.040711 198.875142 
L 445.575682 200.956501 
L 445.109447 203.03786 
L 444.63624 205.119219 
L 444.140339 207.200579 
L 443.600162 209.281938 
L 442.993111 211.363297 
L 442.300203 213.444656 
L 441.509713 215.526015 
L 440.619375 217.607374 
L 439.636987 219.688733 
L 438.579541 221.770092 
L 437.471181 223.851451 
L 436.340367 225.93281 
L 435.216686 228.014169 
L 434.127737 230.095528 
L 433.09648 232.176887 
L 432.139375 234.258246 
L 431.265509 236.339605 
L 430.47673 238.420964 
L 429.768678 240.502323 
L 429.132436 242.583682 
L 428.556472 244.665041 
L 428.028539 246.7464 
L 427.53729 248.827759 
L 427.073442 250.909118 
L 426.630463 252.990478 
L 426.204802 255.071837 
L 425.795748 257.153196 
L 425.404984 259.234555 
L 425.035934 261.315914 
L 424.692971 263.397273 
z
" clip-path="url(#pf574d9fddf)" style="fill: #1f77b4; fill-opacity: 0.3"/>
   </g>
   <g id="matplotlib.axis_4">
    <g id="ytick_22">
     <g id="line2d_22">
      <g>
       <use xlink:href="#mcb479f0d6e" x="395.831" y="269.64135" style="stroke: #000000; stroke-width: 0.8"/>
      </g>
     </g>
     <g id="text_28">
      <!-- 0.700 -->
      <g transform="translate(360.202875 273.440569)scale(0.1 -0.1)">
       <use xlink:href="#DejaVuSans-30"/>
       <use xlink:href="#DejaVuSans-2e" x="63.623047"/>
       <use xlink:href="#DejaVuSans-37" x="95.410156"/>
       <use xlink:href="#DejaVuSans-30" x="159.033203"/>
       <use xlink:href="#DejaVuSans-30" x="222.65625"/>
      </g>
     </g>
    </g>
    <g id="ytick_23">
     <g id="line2d_23">
      <g>
       <use xlink:href="#mcb479f0d6e" x="395.831" y="243.104022" style="stroke: #000000; stroke-width: 0.8"/>
      </g>
     </g>
     <g id="text_29">
      <!-- 0.725 -->
      <g transform="translate(360.202875 246.903241)scale(0.1 -0.1)">
       <defs>
        <path id="DejaVuSans-35" d="M 691 4666 
L 3169 4666 
L 3169 4134 
L 1269 4134 
L 1269 2991 
Q 1406 3038 1543 3061 
Q 1681 3084 1819 3084 
Q 2600 3084 3056 2656 
Q 3513 2228 3513 1497 
Q 3513 744 3044 326 
Q 2575 -91 1722 -91 
Q 1428 -91 1123 -41 
Q 819 9 494 109 
L 494 744 
Q 775 591 1075 516 
Q 1375 441 1709 441 
Q 2250 441 2565 725 
Q 2881 1009 2881 1497 
Q 2881 1984 2565 2268 
Q 2250 2553 1709 2553 
Q 1456 2553 1204 2497 
Q 953 2441 691 2322 
L 691 4666 
z
" transform="scale(0.015625)"/>
       </defs>
       <use xlink:href="#DejaVuSans-30"/>
       <use xlink:href="#DejaVuSans-2e" x="63.623047"/>
       <use xlink:href="#DejaVuSans-37" x="95.410156"/>
       <use xlink:href="#DejaVuSans-32" x="159.033203"/>
       <use xlink:href="#DejaVuSans-35" x="222.65625"/>
      </g>
     </g>
    </g>
    <g id="ytick_24">
     <g id="line2d_24">
      <g>
       <use xlink:href="#mcb479f0d6e" x="395.831" y="216.566694" style="stroke: #000000; stroke-width: 0.8"/>
      </g>
     </g>
     <g id="text_30">
      <!-- 0.750 -->
      <g transform="translate(360.202875 220.365913)scale(0.1 -0.1)">
       <use xlink:href="#DejaVuSans-30"/>
       <use xlink:href="#DejaVuSans-2e" x="63.623047"/>
       <use xlink:href="#DejaVuSans-37" x="95.410156"/>
       <use xlink:href="#DejaVuSans-35" x="159.033203"/>
       <use xlink:href="#DejaVuSans-30" x="222.65625"/>
      </g>
     </g>
    </g>
    <g id="ytick_25">
     <g id="line2d_25">
      <g>
       <use xlink:href="#mcb479f0d6e" x="395.831" y="190.029366" style="stroke: #000000; stroke-width: 0.8"/>
      </g>
     </g>
     <g id="text_31">
      <!-- 0.775 -->
      <g transform="translate(360.202875 193.828585)scale(0.1 -0.1)">
       <use xlink:href="#DejaVuSans-30"/>
       <use xlink:href="#DejaVuSans-2e" x="63.623047"/>
       <use xlink:href="#DejaVuSans-37" x="95.410156"/>
       <use xlink:href="#DejaVuSans-37" x="159.033203"/>
       <use xlink:href="#DejaVuSans-35" x="222.65625"/>
      </g>
     </g>
    </g>
    <g id="ytick_26">
     <g id="line2d_26">
      <g>
       <use xlink:href="#mcb479f0d6e" x="395.831" y="163.492039" style="stroke: #000000; stroke-width: 0.8"/>
      </g>
     </g>
     <g id="text_32">
      <!-- 0.800 -->
      <g transform="translate(360.202875 167.291257)scale(0.1 -0.1)">
       <use xlink:href="#DejaVuSans-30"/>
       <use xlink:href="#DejaVuSans-2e" x="63.623047"/>
       <use xlink:href="#DejaVuSans-38" x="95.410156"/>
       <use xlink:href="#DejaVuSans-30" x="159.033203"/>
       <use xlink:href="#DejaVuSans-30" x="222.65625"/>
      </g>
     </g>
    </g>
    <g id="ytick_27">
     <g id="line2d_27">
      <g>
       <use xlink:href="#mcb479f0d6e" x="395.831" y="136.954711" style="stroke: #000000; stroke-width: 0.8"/>
      </g>
     </g>
     <g id="text_33">
      <!-- 0.825 -->
      <g transform="translate(360.202875 140.753929)scale(0.1 -0.1)">
       <use xlink:href="#DejaVuSans-30"/>
       <use xlink:href="#DejaVuSans-2e" x="63.623047"/>
       <use xlink:href="#DejaVuSans-38" x="95.410156"/>
       <use xlink:href="#DejaVuSans-32" x="159.033203"/>
       <use xlink:href="#DejaVuSans-35" x="222.65625"/>
      </g>
     </g>
    </g>
    <g id="ytick_28">
     <g id="line2d_28">
      <g>
       <use xlink:href="#mcb479f0d6e" x="395.831" y="110.417383" style="stroke: #000000; stroke-width: 0.8"/>
      </g>
     </g>
     <g id="text_34">
      <!-- 0.850 -->
      <g transform="translate(360.202875 114.216602)scale(0.1 -0.1)">
       <use xlink:href="#DejaVuSans-30"/>
       <use xlink:href="#DejaVuSans-2e" x="63.623047"/>
       <use xlink:href="#DejaVuSans-38" x="95.410156"/>
       <use xlink:href="#DejaVuSans-35" x="159.033203"/>
       <use xlink:href="#DejaVuSans-30" x="222.65625"/>
      </g>
     </g>
    </g>
    <g id="ytick_29">
     <g id="line2d_29">
      <g>
       <use xlink:href="#mcb479f0d6e" x="395.831" y="83.880055" style="stroke: #000000; stroke-width: 0.8"/>
      </g>
     </g>
     <g id="text_35">
      <!-- 0.875 -->
      <g transform="translate(360.202875 87.679274)scale(0.1 -0.1)">
       <use xlink:href="#DejaVuSans-30"/>
       <use xlink:href="#DejaVuSans-2e" x="63.623047"/>
       <use xlink:href="#DejaVuSans-38" x="95.410156"/>
       <use xlink:href="#DejaVuSans-37" x="159.033203"/>
       <use xlink:href="#DejaVuSans-35" x="222.65625"/>
      </g>
     </g>
    </g>
    <g id="ytick_30">
     <g id="line2d_30">
      <g>
       <use xlink:href="#mcb479f0d6e" x="395.831" y="57.342727" style="stroke: #000000; stroke-width: 0.8"/>
      </g>
     </g>
     <g id="text_36">
      <!-- 0.900 -->
      <g transform="translate(360.202875 61.141946)scale(0.1 -0.1)">
       <use xlink:href="#DejaVuSans-30"/>
       <use xlink:href="#DejaVuSans-2e" x="63.623047"/>
       <use xlink:href="#DejaVuSans-39" x="95.410156"/>
       <use xlink:href="#DejaVuSans-30" x="159.033203"/>
       <use xlink:href="#DejaVuSans-30" x="222.65625"/>
      </g>
     </g>
    </g>
    <g id="text_37">
     <!-- % NOE fulfilled [1/100 %] -->
     <g transform="translate(354.123188 223.870781)rotate(-90)scale(0.1 -0.1)">
      <defs>
       <path id="DejaVuSans-25" d="M 4653 2053 
Q 4381 2053 4226 1822 
Q 4072 1591 4072 1178 
Q 4072 772 4226 539 
Q 4381 306 4653 306 
Q 4919 306 5073 539 
Q 5228 772 5228 1178 
Q 5228 1588 5073 1820 
Q 4919 2053 4653 2053 
z
M 4653 2450 
Q 5147 2450 5437 2106 
Q 5728 1763 5728 1178 
Q 5728 594 5436 251 
Q 5144 -91 4653 -91 
Q 4153 -91 3862 251 
Q 3572 594 3572 1178 
Q 3572 1766 3864 2108 
Q 4156 2450 4653 2450 
z
M 1428 4353 
Q 1159 4353 1004 4120 
Q 850 3888 850 3481 
Q 850 3069 1003 2837 
Q 1156 2606 1428 2606 
Q 1700 2606 1854 2837 
Q 2009 3069 2009 3481 
Q 2009 3884 1853 4118 
Q 1697 4353 1428 4353 
z
M 4250 4750 
L 4750 4750 
L 1831 -91 
L 1331 -91 
L 4250 4750 
z
M 1428 4750 
Q 1922 4750 2215 4408 
Q 2509 4066 2509 3481 
Q 2509 2891 2217 2550 
Q 1925 2209 1428 2209 
Q 931 2209 642 2551 
Q 353 2894 353 3481 
Q 353 4063 643 4406 
Q 934 4750 1428 4750 
z
" transform="scale(0.015625)"/>
       <path id="DejaVuSans-4e" d="M 628 4666 
L 1478 4666 
L 3547 763 
L 3547 4666 
L 4159 4666 
L 4159 0 
L 3309 0 
L 1241 3903 
L 1241 0 
L 628 0 
L 628 4666 
z
" transform="scale(0.015625)"/>
       <path id="DejaVuSans-4f" d="M 2522 4238 
Q 1834 4238 1429 3725 
Q 1025 3213 1025 2328 
Q 1025 1447 1429 934 
Q 1834 422 2522 422 
Q 3209 422 3611 934 
Q 4013 1447 4013 2328 
Q 4013 3213 3611 3725 
Q 3209 4238 2522 4238 
z
M 2522 4750 
Q 3503 4750 4090 4092 
Q 4678 3434 4678 2328 
Q 4678 1225 4090 567 
Q 3503 -91 2522 -91 
Q 1538 -91 948 565 
Q 359 1222 359 2328 
Q 359 3434 948 4092 
Q 1538 4750 2522 4750 
z
" transform="scale(0.015625)"/>
       <path id="DejaVuSans-66" d="M 2375 4863 
L 2375 4384 
L 1825 4384 
Q 1516 4384 1395 4259 
Q 1275 4134 1275 3809 
L 1275 3500 
L 2222 3500 
L 2222 3053 
L 1275 3053 
L 1275 0 
L 697 0 
L 697 3053 
L 147 3053 
L 147 3500 
L 697 3500 
L 697 3744 
Q 697 4328 969 4595 
Q 1241 4863 1831 4863 
L 2375 4863 
z
" transform="scale(0.015625)"/>
       <path id="DejaVuSans-75" d="M 544 1381 
L 544 3500 
L 1119 3500 
L 1119 1403 
Q 1119 906 1312 657 
Q 1506 409 1894 409 
Q 2359 409 2629 706 
Q 2900 1003 2900 1516 
L 2900 3500 
L 3475 3500 
L 3475 0 
L 2900 0 
L 2900 538 
Q 2691 219 2414 64 
Q 2138 -91 1772 -91 
Q 1169 -91 856 284 
Q 544 659 544 1381 
z
M 1991 3584 
L 1991 3584 
z
" transform="scale(0.015625)"/>
       <path id="DejaVuSans-6c" d="M 603 4863 
L 1178 4863 
L 1178 0 
L 603 0 
L 603 4863 
z
" transform="scale(0.015625)"/>
       <path id="DejaVuSans-69" d="M 603 3500 
L 1178 3500 
L 1178 0 
L 603 0 
L 603 3500 
z
M 603 4863 
L 1178 4863 
L 1178 4134 
L 603 4134 
L 603 4863 
z
" transform="scale(0.015625)"/>
       <path id="DejaVuSans-65" d="M 3597 1894 
L 3597 1613 
L 953 1613 
Q 991 1019 1311 708 
Q 1631 397 2203 397 
Q 2534 397 2845 478 
Q 3156 559 3463 722 
L 3463 178 
Q 3153 47 2828 -22 
Q 2503 -91 2169 -91 
Q 1331 -91 842 396 
Q 353 884 353 1716 
Q 353 2575 817 3079 
Q 1281 3584 2069 3584 
Q 2775 3584 3186 3129 
Q 3597 2675 3597 1894 
z
M 3022 2063 
Q 3016 2534 2758 2815 
Q 2500 3097 2075 3097 
Q 1594 3097 1305 2825 
Q 1016 2553 972 2059 
L 3022 2063 
z
" transform="scale(0.015625)"/>
       <path id="DejaVuSans-64" d="M 2906 2969 
L 2906 4863 
L 3481 4863 
L 3481 0 
L 2906 0 
L 2906 525 
Q 2725 213 2448 61 
Q 2172 -91 1784 -91 
Q 1150 -91 751 415 
Q 353 922 353 1747 
Q 353 2572 751 3078 
Q 1150 3584 1784 3584 
Q 2172 3584 2448 3432 
Q 2725 3281 2906 2969 
z
M 947 1747 
Q 947 1113 1208 752 
Q 1469 391 1925 391 
Q 2381 391 2643 752 
Q 2906 1113 2906 1747 
Q 2906 2381 2643 2742 
Q 2381 3103 1925 3103 
Q 1469 3103 1208 2742 
Q 947 2381 947 1747 
z
" transform="scale(0.015625)"/>
       <path id="DejaVuSans-2f" d="M 1625 4666 
L 2156 4666 
L 531 -594 
L 0 -594 
L 1625 4666 
z
" transform="scale(0.015625)"/>
      </defs>
      <use xlink:href="#DejaVuSans-25"/>
      <use xlink:href="#DejaVuSans-20" x="95.019531"/>
      <use xlink:href="#DejaVuSans-4e" x="126.806641"/>
      <use xlink:href="#DejaVuSans-4f" x="201.611328"/>
      <use xlink:href="#DejaVuSans-45" x="280.322266"/>
      <use xlink:href="#DejaVuSans-20" x="343.505859"/>
      <use xlink:href="#DejaVuSans-66" x="375.292969"/>
      <use xlink:href="#DejaVuSans-75" x="410.498047"/>
      <use xlink:href="#DejaVuSans-6c" x="473.876953"/>
      <use xlink:href="#DejaVuSans-66" x="501.660156"/>
      <use xlink:href="#DejaVuSans-69" x="536.865234"/>
      <use xlink:href="#DejaVuSans-6c" x="564.648438"/>
      <use xlink:href="#DejaVuSans-6c" x="592.431641"/>
      <use xlink:href="#DejaVuSans-65" x="620.214844"/>
      <use xlink:href="#DejaVuSans-64" x="681.738281"/>
      <use xlink:href="#DejaVuSans-20" x="745.214844"/>
      <use xlink:href="#DejaVuSans-5b" x="777.001953"/>
      <use xlink:href="#DejaVuSans-31" x="816.015625"/>
      <use xlink:href="#DejaVuSans-2f" x="879.638672"/>
      <use xlink:href="#DejaVuSans-31" x="913.330078"/>
      <use xlink:href="#DejaVuSans-30" x="976.953125"/>
      <use xlink:href="#DejaVuSans-30" x="1040.576172"/>
      <use xlink:href="#DejaVuSans-20" x="1104.199219"/>
      <use xlink:href="#DejaVuSans-25" x="1135.986328"/>
      <use xlink:href="#DejaVuSans-5d" x="1231.005859"/>
     </g>
    </g>
   </g>
   <g id="LineCollection_13">
    <path d="M 410.6645 184.409697 
L 435.387 184.409697 
" clip-path="url(#pf574d9fddf)" style="fill: none; stroke: #1f77b4; stroke-width: 1.5"/>
   </g>
   <g id="LineCollection_14">
    <path d="M 410.6645 57.342727 
L 435.387 57.342727 
" clip-path="url(#pf574d9fddf)" style="fill: none; stroke: #1f77b4; stroke-width: 1.5"/>
   </g>
   <g id="LineCollection_15">
    <path d="M 410.6645 263.397273 
L 435.387 263.397273 
" clip-path="url(#pf574d9fddf)" style="fill: none; stroke: #1f77b4; stroke-width: 1.5"/>
   </g>
   <g id="LineCollection_16">
    <path d="M 423.02575 263.397273 
L 423.02575 57.342727 
" clip-path="url(#pf574d9fddf)" style="fill: none; stroke: #1f77b4; stroke-width: 1.5"/>
   </g>
   <g id="patch_18">
    <path d="M 395.831 273.7 
L 395.831 47.04 
" style="fill: none; stroke: #000000; stroke-width: 0.8; stroke-linejoin: miter; stroke-linecap: square"/>
   </g>
   <g id="patch_19">
    <path d="M 450.2205 273.7 
L 450.2205 47.04 
" style="fill: none; stroke: #000000; stroke-width: 0.8; stroke-linejoin: miter; stroke-linecap: square"/>
   </g>
   <g id="patch_20">
    <path d="M 395.831 273.7 
L 450.2205 273.7 
" style="fill: none; stroke: #000000; stroke-width: 0.8; stroke-linejoin: miter; stroke-linecap: square"/>
   </g>
   <g id="patch_21">
    <path d="M 395.831 47.04 
L 450.2205 47.04 
" style="fill: none; stroke: #000000; stroke-width: 0.8; stroke-linejoin: miter; stroke-linecap: square"/>
   </g>
   <g id="text_38">
    <!-- % NOE fulfilled -->
    <g transform="translate(378.312625 41.04)scale(0.12 -0.12)">
     <use xlink:href="#DejaVuSans-25"/>
     <use xlink:href="#DejaVuSans-20" x="95.019531"/>
     <use xlink:href="#DejaVuSans-4e" x="126.806641"/>
     <use xlink:href="#DejaVuSans-4f" x="201.611328"/>
     <use xlink:href="#DejaVuSans-45" x="280.322266"/>
     <use xlink:href="#DejaVuSans-20" x="343.505859"/>
     <use xlink:href="#DejaVuSans-66" x="375.292969"/>
     <use xlink:href="#DejaVuSans-75" x="410.498047"/>
     <use xlink:href="#DejaVuSans-6c" x="473.876953"/>
     <use xlink:href="#DejaVuSans-66" x="501.660156"/>
     <use xlink:href="#DejaVuSans-69" x="536.865234"/>
     <use xlink:href="#DejaVuSans-6c" x="564.648438"/>
     <use xlink:href="#DejaVuSans-6c" x="592.431641"/>
     <use xlink:href="#DejaVuSans-65" x="620.214844"/>
     <use xlink:href="#DejaVuSans-64" x="681.738281"/>
    </g>
   </g>
  </g>
  <g id="axes_5">
   <g id="patch_22">
    <path d="M 510.8105 273.7 
L 565.2 273.7 
L 565.2 47.04 
L 510.8105 47.04 
z
" style="fill: #ffffff"/>
   </g>
   <g id="PolyCollection_5">
    <path d="M 538.331389 263.397273 
L 537.679111 263.397273 
L 537.652977 261.315914 
L 537.635777 259.234555 
L 537.627547 257.153196 
L 537.62715 255.071837 
L 537.632554 252.990478 
L 537.641262 250.909118 
L 537.650781 248.827759 
L 537.658992 246.7464 
L 537.664312 244.665041 
L 537.665648 242.583682 
L 537.6622 240.502323 
L 537.653241 238.420964 
L 537.637991 236.339605 
L 537.615659 234.258246 
L 537.585613 232.176887 
L 537.547594 230.095528 
L 537.501858 228.014169 
L 537.449179 225.93281 
L 537.390701 223.851451 
L 537.32771 221.770092 
L 537.261416 219.688733 
L 537.192785 217.607374 
L 537.122482 215.526015 
L 537.050869 213.444656 
L 536.978066 211.363297 
L 536.904041 209.281938 
L 536.828731 207.200579 
L 536.752175 205.119219 
L 536.674626 203.03786 
L 536.596548 200.956501 
L 536.518458 198.875142 
L 536.440568 196.793783 
L 536.362281 194.712424 
L 536.281659 192.631065 
L 536.194952 190.549706 
L 536.096309 188.468347 
L 535.977695 186.386988 
L 535.829106 184.305629 
L 535.639167 182.22427 
L 535.396261 180.142911 
L 535.090234 178.061552 
L 534.714511 175.980193 
L 534.268154 173.898834 
L 533.757156 171.817475 
L 533.194278 169.736116 
L 532.597063 167.654757 
L 531.984244 165.573398 
L 531.37137 163.492039 
L 530.766886 161.41068 
L 530.169864 159.32932 
L 529.570194 157.247961 
L 528.951302 155.166602 
L 528.294697 153.085243 
L 527.585088 151.003884 
L 526.814564 148.922525 
L 525.984583 146.841166 
L 525.105158 144.759807 
L 524.191534 142.678448 
L 523.25952 140.597089 
L 522.321168 138.51573 
L 521.382411 136.434371 
L 520.443583 134.353012 
L 519.502679 132.271653 
L 518.560172 130.190294 
L 517.623604 128.108935 
L 516.710286 126.027576 
L 515.847039 123.946217 
L 515.066885 121.864858 
L 514.403458 119.783499 
L 513.88454 117.70214 
L 513.526365 115.620781 
L 513.330261 113.539421 
L 513.28275 111.458062 
L 513.359433 109.376703 
L 513.531984 107.295344 
L 513.776507 105.213985 
L 514.080897 103.132626 
L 514.448905 101.051267 
L 514.89948 98.969908 
L 515.461451 96.888549 
L 516.165056 94.80719 
L 517.032844 92.725831 
L 518.072509 90.644472 
L 519.273524 88.563113 
L 520.608101 86.481754 
L 522.035771 84.400395 
L 523.509979 82.319036 
L 524.984839 80.237677 
L 526.420562 78.156318 
L 527.786714 76.074959 
L 529.063215 73.9936 
L 530.239507 71.912241 
L 531.312599 69.830882 
L 532.284652 67.749522 
L 533.160662 65.668163 
L 533.946564 63.586804 
L 534.647929 61.505445 
L 535.269304 59.424086 
L 535.814136 57.342727 
L 540.196364 57.342727 
L 540.196364 57.342727 
L 540.741196 59.424086 
L 541.362571 61.505445 
L 542.063936 63.586804 
L 542.849838 65.668163 
L 543.725848 67.749522 
L 544.697901 69.830882 
L 545.770993 71.912241 
L 546.947285 73.9936 
L 548.223786 76.074959 
L 549.589938 78.156318 
L 551.025661 80.237677 
L 552.500521 82.319036 
L 553.974729 84.400395 
L 555.402399 86.481754 
L 556.736976 88.563113 
L 557.937991 90.644472 
L 558.977656 92.725831 
L 559.845444 94.80719 
L 560.549049 96.888549 
L 561.11102 98.969908 
L 561.561595 101.051267 
L 561.929603 103.132626 
L 562.233993 105.213985 
L 562.478516 107.295344 
L 562.651067 109.376703 
L 562.72775 111.458062 
L 562.680239 113.539421 
L 562.484135 115.620781 
L 562.12596 117.70214 
L 561.607042 119.783499 
L 560.943615 121.864858 
L 560.163461 123.946217 
L 559.300214 126.027576 
L 558.386896 128.108935 
L 557.450328 130.190294 
L 556.507821 132.271653 
L 555.566917 134.353012 
L 554.628089 136.434371 
L 553.689332 138.51573 
L 552.75098 140.597089 
L 551.818966 142.678448 
L 550.905342 144.759807 
L 550.025917 146.841166 
L 549.195936 148.922525 
L 548.425412 151.003884 
L 547.715803 153.085243 
L 547.059198 155.166602 
L 546.440306 157.247961 
L 545.840636 159.32932 
L 545.243614 161.41068 
L 544.63913 163.492039 
L 544.026256 165.573398 
L 543.413437 167.654757 
L 542.816222 169.736116 
L 542.253344 171.817475 
L 541.742346 173.898834 
L 541.295989 175.980193 
L 540.920266 178.061552 
L 540.614239 180.142911 
L 540.371333 182.22427 
L 540.181394 184.305629 
L 540.032805 186.386988 
L 539.914191 188.468347 
L 539.815548 190.549706 
L 539.728841 192.631065 
L 539.648219 194.712424 
L 539.569932 196.793783 
L 539.492042 198.875142 
L 539.413952 200.956501 
L 539.335874 203.03786 
L 539.258325 205.119219 
L 539.181769 207.200579 
L 539.106459 209.281938 
L 539.032434 211.363297 
L 538.959631 213.444656 
L 538.888018 215.526015 
L 538.817715 217.607374 
L 538.749084 219.688733 
L 538.68279 221.770092 
L 538.619799 223.851451 
L 538.561321 225.93281 
L 538.508642 228.014169 
L 538.462906 230.095528 
L 538.424887 232.176887 
L 538.394841 234.258246 
L 538.372509 236.339605 
L 538.357259 238.420964 
L 538.3483 240.502323 
L 538.344852 242.583682 
L 538.346188 244.665041 
L 538.351508 246.7464 
L 538.359719 248.827759 
L 538.369238 250.909118 
L 538.377946 252.990478 
L 538.38335 255.071837 
L 538.382953 257.153196 
L 538.374723 259.234555 
L 538.357523 261.315914 
L 538.331389 263.397273 
z
" clip-path="url(#p9a5f2b267c)" style="fill: #1f77b4; fill-opacity: 0.3"/>
   </g>
   <g id="matplotlib.axis_5">
    <g id="ytick_31">
     <g id="line2d_31">
      <g>
       <use xlink:href="#mcb479f0d6e" x="510.8105" y="249.030744" style="stroke: #000000; stroke-width: 0.8"/>
      </g>
     </g>
     <g id="text_39">
      <!-- 0.4 -->
      <g transform="translate(487.907375 252.829962)scale(0.1 -0.1)">
       <use xlink:href="#DejaVuSans-30"/>
       <use xlink:href="#DejaVuSans-2e" x="63.623047"/>
       <use xlink:href="#DejaVuSans-34" x="95.410156"/>
      </g>
     </g>
    </g>
    <g id="ytick_32">
     <g id="line2d_32">
      <g>
       <use xlink:href="#mcb479f0d6e" x="510.8105" y="199.067307" style="stroke: #000000; stroke-width: 0.8"/>
      </g>
     </g>
     <g id="text_40">
      <!-- 0.5 -->
      <g transform="translate(487.907375 202.866526)scale(0.1 -0.1)">
       <use xlink:href="#DejaVuSans-30"/>
       <use xlink:href="#DejaVuSans-2e" x="63.623047"/>
       <use xlink:href="#DejaVuSans-35" x="95.410156"/>
      </g>
     </g>
    </g>
    <g id="ytick_33">
     <g id="line2d_33">
      <g>
       <use xlink:href="#mcb479f0d6e" x="510.8105" y="149.10387" style="stroke: #000000; stroke-width: 0.8"/>
      </g>
     </g>
     <g id="text_41">
      <!-- 0.6 -->
      <g transform="translate(487.907375 152.903089)scale(0.1 -0.1)">
       <use xlink:href="#DejaVuSans-30"/>
       <use xlink:href="#DejaVuSans-2e" x="63.623047"/>
       <use xlink:href="#DejaVuSans-36" x="95.410156"/>
      </g>
     </g>
    </g>
    <g id="ytick_34">
     <g id="line2d_34">
      <g>
       <use xlink:href="#mcb479f0d6e" x="510.8105" y="99.140433" style="stroke: #000000; stroke-width: 0.8"/>
      </g>
     </g>
     <g id="text_42">
      <!-- 0.7 -->
      <g transform="translate(487.907375 102.939652)scale(0.1 -0.1)">
       <use xlink:href="#DejaVuSans-30"/>
       <use xlink:href="#DejaVuSans-2e" x="63.623047"/>
       <use xlink:href="#DejaVuSans-37" x="95.410156"/>
      </g>
     </g>
    </g>
    <g id="ytick_35">
     <g id="line2d_35">
      <g>
       <use xlink:href="#mcb479f0d6e" x="510.8105" y="49.176997" style="stroke: #000000; stroke-width: 0.8"/>
      </g>
     </g>
     <g id="text_43">
      <!-- 0.8 -->
      <g transform="translate(487.907375 52.976215)scale(0.1 -0.1)">
       <use xlink:href="#DejaVuSans-30"/>
       <use xlink:href="#DejaVuSans-2e" x="63.623047"/>
       <use xlink:href="#DejaVuSans-38" x="95.410156"/>
      </g>
     </g>
    </g>
    <g id="text_44">
     <!-- RMSD stepwise [$\AA$] -->
     <g transform="translate(481.807375 207.67)rotate(-90)scale(0.1 -0.1)">
      <defs>
       <path id="DejaVuSans-73" d="M 2834 3397 
L 2834 2853 
Q 2591 2978 2328 3040 
Q 2066 3103 1784 3103 
Q 1356 3103 1142 2972 
Q 928 2841 928 2578 
Q 928 2378 1081 2264 
Q 1234 2150 1697 2047 
L 1894 2003 
Q 2506 1872 2764 1633 
Q 3022 1394 3022 966 
Q 3022 478 2636 193 
Q 2250 -91 1575 -91 
Q 1294 -91 989 -36 
Q 684 19 347 128 
L 347 722 
Q 666 556 975 473 
Q 1284 391 1588 391 
Q 1994 391 2212 530 
Q 2431 669 2431 922 
Q 2431 1156 2273 1281 
Q 2116 1406 1581 1522 
L 1381 1569 
Q 847 1681 609 1914 
Q 372 2147 372 2553 
Q 372 3047 722 3315 
Q 1072 3584 1716 3584 
Q 2034 3584 2315 3537 
Q 2597 3491 2834 3397 
z
" transform="scale(0.015625)"/>
       <path id="DejaVuSans-74" d="M 1172 4494 
L 1172 3500 
L 2356 3500 
L 2356 3053 
L 1172 3053 
L 1172 1153 
Q 1172 725 1289 603 
Q 1406 481 1766 481 
L 2356 481 
L 2356 0 
L 1766 0 
Q 1100 0 847 248 
Q 594 497 594 1153 
L 594 3053 
L 172 3053 
L 172 3500 
L 594 3500 
L 594 4494 
L 1172 4494 
z
" transform="scale(0.015625)"/>
       <path id="DejaVuSans-70" d="M 1159 525 
L 1159 -1331 
L 581 -1331 
L 581 3500 
L 1159 3500 
L 1159 2969 
Q 1341 3281 1617 3432 
Q 1894 3584 2278 3584 
Q 2916 3584 3314 3078 
Q 3713 2572 3713 1747 
Q 3713 922 3314 415 
Q 2916 -91 2278 -91 
Q 1894 -91 1617 61 
Q 1341 213 1159 525 
z
M 3116 1747 
Q 3116 2381 2855 2742 
Q 2594 3103 2138 3103 
Q 1681 3103 1420 2742 
Q 1159 2381 1159 1747 
Q 1159 1113 1420 752 
Q 1681 391 2138 391 
Q 2594 391 2855 752 
Q 3116 1113 3116 1747 
z
" transform="scale(0.015625)"/>
       <path id="DejaVuSans-77" d="M 269 3500 
L 844 3500 
L 1563 769 
L 2278 3500 
L 2956 3500 
L 3675 769 
L 4391 3500 
L 4966 3500 
L 4050 0 
L 3372 0 
L 2619 2869 
L 1863 0 
L 1184 0 
L 269 3500 
z
" transform="scale(0.015625)"/>
      </defs>
      <use xlink:href="#DejaVuSans-52" transform="translate(0 0.171875)"/>
      <use xlink:href="#DejaVuSans-4d" transform="translate(69.482422 0.171875)"/>
      <use xlink:href="#DejaVuSans-53" transform="translate(155.761719 0.171875)"/>
      <use xlink:href="#DejaVuSans-44" transform="translate(219.238281 0.171875)"/>
      <use xlink:href="#DejaVuSans-20" transform="translate(296.240234 0.171875)"/>
      <use xlink:href="#DejaVuSans-73" transform="translate(328.027344 0.171875)"/>
      <use xlink:href="#DejaVuSans-74" transform="translate(380.126953 0.171875)"/>
      <use xlink:href="#DejaVuSans-65" transform="translate(419.335938 0.171875)"/>
      <use xlink:href="#DejaVuSans-70" transform="translate(480.859375 0.171875)"/>
      <use xlink:href="#DejaVuSans-77" transform="translate(544.335938 0.171875)"/>
      <use xlink:href="#DejaVuSans-69" transform="translate(626.123047 0.171875)"/>
      <use xlink:href="#DejaVuSans-73" transform="translate(653.90625 0.171875)"/>
      <use xlink:href="#DejaVuSans-65" transform="translate(706.005859 0.171875)"/>
      <use xlink:href="#DejaVuSans-20" transform="translate(767.529297 0.171875)"/>
      <use xlink:href="#DejaVuSans-5b" transform="translate(799.316406 0.171875)"/>
      <use xlink:href="#DejaVuSans-Oblique-c5" transform="translate(838.330078 0.171875)"/>
      <use xlink:href="#DejaVuSans-5d" transform="translate(906.738281 0.171875)"/>
     </g>
    </g>
   </g>
   <g id="LineCollection_17">
    <path d="M 525.644 118.706 
L 550.3665 118.706 
" clip-path="url(#p9a5f2b267c)" style="fill: none; stroke: #1f77b4; stroke-width: 1.5"/>
   </g>
   <g id="LineCollection_18">
    <path d="M 525.644 57.342727 
L 550.3665 57.342727 
" clip-path="url(#p9a5f2b267c)" style="fill: none; stroke: #1f77b4; stroke-width: 1.5"/>
   </g>
   <g id="LineCollection_19">
    <path d="M 525.644 263.397273 
L 550.3665 263.397273 
" clip-path="url(#p9a5f2b267c)" style="fill: none; stroke: #1f77b4; stroke-width: 1.5"/>
   </g>
   <g id="LineCollection_20">
    <path d="M 538.00525 263.397273 
L 538.00525 57.342727 
" clip-path="url(#p9a5f2b267c)" style="fill: none; stroke: #1f77b4; stroke-width: 1.5"/>
   </g>
   <g id="patch_23">
    <path d="M 510.8105 273.7 
L 510.8105 47.04 
" style="fill: none; stroke: #000000; stroke-width: 0.8; stroke-linejoin: miter; stroke-linecap: square"/>
   </g>
   <g id="patch_24">
    <path d="M 565.2 273.7 
L 565.2 47.04 
" style="fill: none; stroke: #000000; stroke-width: 0.8; stroke-linejoin: miter; stroke-linecap: square"/>
   </g>
   <g id="patch_25">
    <path d="M 510.8105 273.7 
L 565.2 273.7 
" style="fill: none; stroke: #000000; stroke-width: 0.8; stroke-linejoin: miter; stroke-linecap: square"/>
   </g>
   <g id="patch_26">
    <path d="M 510.8105 47.04 
L 565.2 47.04 
" style="fill: none; stroke: #000000; stroke-width: 0.8; stroke-linejoin: miter; stroke-linecap: square"/>
   </g>
   <g id="text_45">
    <!-- RMSD stepwise -->
    <g transform="translate(491.953375 41.04)scale(0.12 -0.12)">
     <use xlink:href="#DejaVuSans-52"/>
     <use xlink:href="#DejaVuSans-4d" x="69.482422"/>
     <use xlink:href="#DejaVuSans-53" x="155.761719"/>
     <use xlink:href="#DejaVuSans-44" x="219.238281"/>
     <use xlink:href="#DejaVuSans-20" x="296.240234"/>
     <use xlink:href="#DejaVuSans-73" x="328.027344"/>
     <use xlink:href="#DejaVuSans-74" x="380.126953"/>
     <use xlink:href="#DejaVuSans-65" x="419.335938"/>
     <use xlink:href="#DejaVuSans-70" x="480.859375"/>
     <use xlink:href="#DejaVuSans-77" x="544.335938"/>
     <use xlink:href="#DejaVuSans-69" x="626.123047"/>
     <use xlink:href="#DejaVuSans-73" x="653.90625"/>
     <use xlink:href="#DejaVuSans-65" x="706.005859"/>
    </g>
   </g>
  </g>
  <g id="text_46">
   <!-- Compound 59. Rdkit -->
   <g transform="translate(226.573125 14.878125)scale(0.12 -0.12)">
    <defs>
     <path id="DejaVuSans-43" d="M 4122 4306 
L 4122 3641 
Q 3803 3938 3442 4084 
Q 3081 4231 2675 4231 
Q 1875 4231 1450 3742 
Q 1025 3253 1025 2328 
Q 1025 1406 1450 917 
Q 1875 428 2675 428 
Q 3081 428 3442 575 
Q 3803 722 4122 1019 
L 4122 359 
Q 3791 134 3420 21 
Q 3050 -91 2638 -91 
Q 1578 -91 968 557 
Q 359 1206 359 2328 
Q 359 3453 968 4101 
Q 1578 4750 2638 4750 
Q 3056 4750 3426 4639 
Q 3797 4528 4122 4306 
z
" transform="scale(0.015625)"/>
     <path id="DejaVuSans-6f" d="M 1959 3097 
Q 1497 3097 1228 2736 
Q 959 2375 959 1747 
Q 959 1119 1226 758 
Q 1494 397 1959 397 
Q 2419 397 2687 759 
Q 2956 1122 2956 1747 
Q 2956 2369 2687 2733 
Q 2419 3097 1959 3097 
z
M 1959 3584 
Q 2709 3584 3137 3096 
Q 3566 2609 3566 1747 
Q 3566 888 3137 398 
Q 2709 -91 1959 -91 
Q 1206 -91 779 398 
Q 353 888 353 1747 
Q 353 2609 779 3096 
Q 1206 3584 1959 3584 
z
" transform="scale(0.015625)"/>
     <path id="DejaVuSans-6d" d="M 3328 2828 
Q 3544 3216 3844 3400 
Q 4144 3584 4550 3584 
Q 5097 3584 5394 3201 
Q 5691 2819 5691 2113 
L 5691 0 
L 5113 0 
L 5113 2094 
Q 5113 2597 4934 2840 
Q 4756 3084 4391 3084 
Q 3944 3084 3684 2787 
Q 3425 2491 3425 1978 
L 3425 0 
L 2847 0 
L 2847 2094 
Q 2847 2600 2669 2842 
Q 2491 3084 2119 3084 
Q 1678 3084 1418 2786 
Q 1159 2488 1159 1978 
L 1159 0 
L 581 0 
L 581 3500 
L 1159 3500 
L 1159 2956 
Q 1356 3278 1631 3431 
Q 1906 3584 2284 3584 
Q 2666 3584 2933 3390 
Q 3200 3197 3328 2828 
z
" transform="scale(0.015625)"/>
     <path id="DejaVuSans-6e" d="M 3513 2113 
L 3513 0 
L 2938 0 
L 2938 2094 
Q 2938 2591 2744 2837 
Q 2550 3084 2163 3084 
Q 1697 3084 1428 2787 
Q 1159 2491 1159 1978 
L 1159 0 
L 581 0 
L 581 3500 
L 1159 3500 
L 1159 2956 
Q 1366 3272 1645 3428 
Q 1925 3584 2291 3584 
Q 2894 3584 3203 3211 
Q 3513 2838 3513 2113 
z
" transform="scale(0.015625)"/>
     <path id="DejaVuSans-6b" d="M 581 4863 
L 1159 4863 
L 1159 1991 
L 2875 3500 
L 3609 3500 
L 1753 1863 
L 3688 0 
L 2938 0 
L 1159 1709 
L 1159 0 
L 581 0 
L 581 4863 
z
" transform="scale(0.015625)"/>
    </defs>
    <use xlink:href="#DejaVuSans-43"/>
    <use xlink:href="#DejaVuSans-6f" x="69.824219"/>
    <use xlink:href="#DejaVuSans-6d" x="131.005859"/>
    <use xlink:href="#DejaVuSans-70" x="228.417969"/>
    <use xlink:href="#DejaVuSans-6f" x="291.894531"/>
    <use xlink:href="#DejaVuSans-75" x="353.076172"/>
    <use xlink:href="#DejaVuSans-6e" x="416.455078"/>
    <use xlink:href="#DejaVuSans-64" x="479.833984"/>
    <use xlink:href="#DejaVuSans-20" x="543.310547"/>
    <use xlink:href="#DejaVuSans-35" x="575.097656"/>
    <use xlink:href="#DejaVuSans-39" x="638.720703"/>
    <use xlink:href="#DejaVuSans-2e" x="702.34375"/>
    <use xlink:href="#DejaVuSans-20" x="734.130859"/>
    <use xlink:href="#DejaVuSans-52" x="765.917969"/>
    <use xlink:href="#DejaVuSans-64" x="835.400391"/>
    <use xlink:href="#DejaVuSans-6b" x="898.876953"/>
    <use xlink:href="#DejaVuSans-69" x="956.787109"/>
    <use xlink:href="#DejaVuSans-74" x="984.570312"/>
   </g>
  </g>
 </g>
 <defs>
  <clipPath id="p118bcb69d9">
   <rect x="50.8925" y="47.04" width="54.3895" height="226.66"/>
  </clipPath>
  <clipPath id="pea5089083d">
   <rect x="165.872" y="47.04" width="54.3895" height="226.66"/>
  </clipPath>
  <clipPath id="pd18b1df820">
   <rect x="280.8515" y="47.04" width="54.3895" height="226.66"/>
  </clipPath>
  <clipPath id="pf574d9fddf">
   <rect x="395.831" y="47.04" width="54.3895" height="226.66"/>
  </clipPath>
  <clipPath id="p9a5f2b267c">
   <rect x="510.8105" y="47.04" width="54.3895" height="226.66"/>
  </clipPath>
 </defs>
</svg>
