<?xml version="1.0" encoding="utf-8" standalone="no"?>
<!DOCTYPE svg PUBLIC "-//W3C//DTD SVG 1.1//EN"
  "http://www.w3.org/Graphics/SVG/1.1/DTD/svg11.dtd">
<svg xmlns:xlink="http://www.w3.org/1999/xlink" width="576pt" height="288pt" viewBox="0 0 576 288" xmlns="http://www.w3.org/2000/svg" version="1.1">
 <metadata>
  <rdf:RDF xmlns:dc="http://purl.org/dc/elements/1.1/" xmlns:cc="http://creativecommons.org/ns#" xmlns:rdf="http://www.w3.org/1999/02/22-rdf-syntax-ns#">
   <cc:Work>
    <dc:type rdf:resource="http://purl.org/dc/dcmitype/StillImage"/>
    <dc:date>2023-05-31T12:24:05.782773</dc:date>
    <dc:format>image/svg+xml</dc:format>
    <dc:creator>
     <cc:Agent>
      <dc:title>Matplotlib v3.5.3, https://matplotlib.org/</dc:title>
     </cc:Agent>
    </dc:creator>
   </cc:Work>
  </rdf:RDF>
 </metadata>
 <defs>
  <style type="text/css">*{stroke-linejoin: round; stroke-linecap: butt}</style>
 </defs>
 <g id="figure_1">
  <g id="patch_1">
   <path d="M 0 288 
L 576 288 
L 576 0 
L 0 0 
z
" style="fill: #ffffff"/>
  </g>
  <g id="axes_1">
   <g id="patch_2">
    <path d="M 50.8925 273.7 
L 106.938 273.7 
L 106.938 47.04 
L 50.8925 47.04 
z
" style="fill: #ffffff"/>
   </g>
   <g id="PolyCollection_1">
    <path d="M 79.627967 263.397273 
L 78.202533 263.397273 
L 78.041602 261.315914 
L 77.846934 259.234555 
L 77.612647 257.153196 
L 77.332738 255.071837 
L 77.001385 252.990478 
L 76.613298 250.909118 
L 76.164093 248.827759 
L 75.650703 246.7464 
L 75.071795 244.665041 
L 74.428169 242.583682 
L 73.723092 240.502323 
L 72.962487 238.420964 
L 72.154916 236.339605 
L 71.311299 234.258246 
L 70.444346 232.176887 
L 69.567756 230.095528 
L 68.69527 228.014169 
L 67.839738 225.93281 
L 67.012337 223.851451 
L 66.222101 221.770092 
L 65.475815 219.688733 
L 64.77828 217.607374 
L 64.132839 215.526015 
L 63.542016 213.444656 
L 63.008075 211.363297 
L 62.533345 209.281938 
L 62.120204 207.200579 
L 61.770699 205.119219 
L 61.48588 203.03786 
L 61.264952 200.956501 
L 61.10442 198.875142 
L 60.997375 196.793783 
L 60.933067 194.712424 
L 60.896861 192.631065 
L 60.870649 190.549706 
L 60.833743 188.468347 
L 60.764218 186.386988 
L 60.640648 184.305629 
L 60.444083 182.22427 
L 60.160071 180.142911 
L 59.780473 178.061552 
L 59.304813 175.980193 
L 58.74093 173.898834 
L 58.104771 171.817475 
L 57.419296 169.736116 
L 56.712586 167.654757 
L 56.015386 165.573398 
L 55.358392 163.492039 
L 54.76965 161.41068 
L 54.272406 159.32932 
L 53.883679 157.247961 
L 53.61372 155.166602 
L 53.466345 153.085243 
L 53.440023 151.003884 
L 53.529438 148.922525 
L 53.7272 146.841166 
L 54.025337 144.759807 
L 54.416298 142.678448 
L 54.893297 140.597089 
L 55.450002 138.51573 
L 56.079735 136.434371 
L 56.774476 134.353012 
L 57.523996 132.271653 
L 58.315437 130.190294 
L 59.133517 128.108935 
L 59.961406 126.027576 
L 60.78213 123.946217 
L 61.580246 121.864858 
L 62.343459 119.783499 
L 63.063855 117.70214 
L 63.738515 115.620781 
L 64.36941 113.539421 
L 64.962583 111.458062 
L 65.526815 109.376703 
L 66.072001 107.295344 
L 66.607541 105.213985 
L 67.14101 103.132626 
L 67.677316 101.051267 
L 68.218442 98.969908 
L 68.763761 96.888549 
L 69.310806 94.80719 
L 69.856276 92.725831 
L 70.397062 90.644472 
L 70.931043 88.563113 
L 71.45751 86.481754 
L 71.977125 84.400395 
L 72.491468 82.319036 
L 73.002298 80.237677 
L 73.510715 78.156318 
L 74.016439 76.074959 
L 74.517369 73.9936 
L 75.009516 71.912241 
L 75.487335 69.830882 
L 75.944356 67.749522 
L 76.37399 65.668163 
L 76.770343 63.586804 
L 77.128883 61.505445 
L 77.446863 59.424086 
L 77.72347 57.342727 
L 80.10703 57.342727 
L 80.10703 57.342727 
L 80.383637 59.424086 
L 80.701617 61.505445 
L 81.060157 63.586804 
L 81.45651 65.668163 
L 81.886144 67.749522 
L 82.343165 69.830882 
L 82.820984 71.912241 
L 83.313131 73.9936 
L 83.814061 76.074959 
L 84.319785 78.156318 
L 84.828202 80.237677 
L 85.339032 82.319036 
L 85.853375 84.400395 
L 86.37299 86.481754 
L 86.899457 88.563113 
L 87.433438 90.644472 
L 87.974224 92.725831 
L 88.519694 94.80719 
L 89.066739 96.888549 
L 89.612058 98.969908 
L 90.153184 101.051267 
L 90.68949 103.132626 
L 91.222959 105.213985 
L 91.758499 107.295344 
L 92.303685 109.376703 
L 92.867917 111.458062 
L 93.46109 113.539421 
L 94.091985 115.620781 
L 94.766645 117.70214 
L 95.487041 119.783499 
L 96.250254 121.864858 
L 97.04837 123.946217 
L 97.869094 126.027576 
L 98.696983 128.108935 
L 99.515063 130.190294 
L 100.306504 132.271653 
L 101.056024 134.353012 
L 101.750765 136.434371 
L 102.380498 138.51573 
L 102.937203 140.597089 
L 103.414202 142.678448 
L 103.805163 144.759807 
L 104.1033 146.841166 
L 104.301062 148.922525 
L 104.390477 151.003884 
L 104.364155 153.085243 
L 104.21678 155.166602 
L 103.946821 157.247961 
L 103.558094 159.32932 
L 103.06085 161.41068 
L 102.472108 163.492039 
L 101.815114 165.573398 
L 101.117914 167.654757 
L 100.411204 169.736116 
L 99.725729 171.817475 
L 99.08957 173.898834 
L 98.525687 175.980193 
L 98.050027 178.061552 
L 97.670429 180.142911 
L 97.386417 182.22427 
L 97.189852 184.305629 
L 97.066282 186.386988 
L 96.996757 188.468347 
L 96.959851 190.549706 
L 96.933639 192.631065 
L 96.897433 194.712424 
L 96.833125 196.793783 
L 96.72608 198.875142 
L 96.565548 200.956501 
L 96.34462 203.03786 
L 96.059801 205.119219 
L 95.710296 207.200579 
L 95.297155 209.281938 
L 94.822425 211.363297 
L 94.288484 213.444656 
L 93.697661 215.526015 
L 93.05222 217.607374 
L 92.354685 219.688733 
L 91.608399 221.770092 
L 90.818163 223.851451 
L 89.990762 225.93281 
L 89.13523 228.014169 
L 88.262744 230.095528 
L 87.386154 232.176887 
L 86.519201 234.258246 
L 85.675584 236.339605 
L 84.868013 238.420964 
L 84.107408 240.502323 
L 83.402331 242.583682 
L 82.758705 244.665041 
L 82.179797 246.7464 
L 81.666407 248.827759 
L 81.217202 250.909118 
L 80.829115 252.990478 
L 80.497762 255.071837 
L 80.217853 257.153196 
L 79.983566 259.234555 
L 79.788898 261.315914 
L 79.627967 263.397273 
z
" clip-path="url(#p6a71c1c4da)" style="fill: #1f77b4; fill-opacity: 0.3"/>
   </g>
   <g id="matplotlib.axis_1">
    <g id="ytick_1">
     <g id="line2d_1">
      <defs>
       <path id="mbb5f196a4a" d="M 0 0 
L -3.5 0 
" style="stroke: #000000; stroke-width: 0.8"/>
      </defs>
      <g>
       <use xlink:href="#mbb5f196a4a" x="50.8925" y="261.7309" style="stroke: #000000; stroke-width: 0.8"/>
      </g>
     </g>
     <g id="text_1">
      <!-- 0.3 -->
      <g transform="translate(27.989375 265.530119)scale(0.1 -0.1)">
       <defs>
        <path id="DejaVuSans-30" d="M 2034 4250 
Q 1547 4250 1301 3770 
Q 1056 3291 1056 2328 
Q 1056 1369 1301 889 
Q 1547 409 2034 409 
Q 2525 409 2770 889 
Q 3016 1369 3016 2328 
Q 3016 3291 2770 3770 
Q 2525 4250 2034 4250 
z
M 2034 4750 
Q 2819 4750 3233 4129 
Q 3647 3509 3647 2328 
Q 3647 1150 3233 529 
Q 2819 -91 2034 -91 
Q 1250 -91 836 529 
Q 422 1150 422 2328 
Q 422 3509 836 4129 
Q 1250 4750 2034 4750 
z
" transform="scale(0.015625)"/>
        <path id="DejaVuSans-2e" d="M 684 794 
L 1344 794 
L 1344 0 
L 684 0 
L 684 794 
z
" transform="scale(0.015625)"/>
        <path id="DejaVuSans-33" d="M 2597 2516 
Q 3050 2419 3304 2112 
Q 3559 1806 3559 1356 
Q 3559 666 3084 287 
Q 2609 -91 1734 -91 
Q 1441 -91 1130 -33 
Q 819 25 488 141 
L 488 750 
Q 750 597 1062 519 
Q 1375 441 1716 441 
Q 2309 441 2620 675 
Q 2931 909 2931 1356 
Q 2931 1769 2642 2001 
Q 2353 2234 1838 2234 
L 1294 2234 
L 1294 2753 
L 1863 2753 
Q 2328 2753 2575 2939 
Q 2822 3125 2822 3475 
Q 2822 3834 2567 4026 
Q 2313 4219 1838 4219 
Q 1578 4219 1281 4162 
Q 984 4106 628 3988 
L 628 4550 
Q 988 4650 1302 4700 
Q 1616 4750 1894 4750 
Q 2613 4750 3031 4423 
Q 3450 4097 3450 3541 
Q 3450 3153 3228 2886 
Q 3006 2619 2597 2516 
z
" transform="scale(0.015625)"/>
       </defs>
       <use xlink:href="#DejaVuSans-30"/>
       <use xlink:href="#DejaVuSans-2e" x="63.623047"/>
       <use xlink:href="#DejaVuSans-33" x="95.410156"/>
      </g>
     </g>
    </g>
    <g id="ytick_2">
     <g id="line2d_2">
      <g>
       <use xlink:href="#mbb5f196a4a" x="50.8925" y="236.348451" style="stroke: #000000; stroke-width: 0.8"/>
      </g>
     </g>
     <g id="text_2">
      <!-- 0.4 -->
      <g transform="translate(27.989375 240.14767)scale(0.1 -0.1)">
       <defs>
        <path id="DejaVuSans-34" d="M 2419 4116 
L 825 1625 
L 2419 1625 
L 2419 4116 
z
M 2253 4666 
L 3047 4666 
L 3047 1625 
L 3713 1625 
L 3713 1100 
L 3047 1100 
L 3047 0 
L 2419 0 
L 2419 1100 
L 313 1100 
L 313 1709 
L 2253 4666 
z
" transform="scale(0.015625)"/>
       </defs>
       <use xlink:href="#DejaVuSans-30"/>
       <use xlink:href="#DejaVuSans-2e" x="63.623047"/>
       <use xlink:href="#DejaVuSans-34" x="95.410156"/>
      </g>
     </g>
    </g>
    <g id="ytick_3">
     <g id="line2d_3">
      <g>
       <use xlink:href="#mbb5f196a4a" x="50.8925" y="210.966002" style="stroke: #000000; stroke-width: 0.8"/>
      </g>
     </g>
     <g id="text_3">
      <!-- 0.5 -->
      <g transform="translate(27.989375 214.765221)scale(0.1 -0.1)">
       <defs>
        <path id="DejaVuSans-35" d="M 691 4666 
L 3169 4666 
L 3169 4134 
L 1269 4134 
L 1269 2991 
Q 1406 3038 1543 3061 
Q 1681 3084 1819 3084 
Q 2600 3084 3056 2656 
Q 3513 2228 3513 1497 
Q 3513 744 3044 326 
Q 2575 -91 1722 -91 
Q 1428 -91 1123 -41 
Q 819 9 494 109 
L 494 744 
Q 775 591 1075 516 
Q 1375 441 1709 441 
Q 2250 441 2565 725 
Q 2881 1009 2881 1497 
Q 2881 1984 2565 2268 
Q 2250 2553 1709 2553 
Q 1456 2553 1204 2497 
Q 953 2441 691 2322 
L 691 4666 
z
" transform="scale(0.015625)"/>
       </defs>
       <use xlink:href="#DejaVuSans-30"/>
       <use xlink:href="#DejaVuSans-2e" x="63.623047"/>
       <use xlink:href="#DejaVuSans-35" x="95.410156"/>
      </g>
     </g>
    </g>
    <g id="ytick_4">
     <g id="line2d_4">
      <g>
       <use xlink:href="#mbb5f196a4a" x="50.8925" y="185.583553" style="stroke: #000000; stroke-width: 0.8"/>
      </g>
     </g>
     <g id="text_4">
      <!-- 0.6 -->
      <g transform="translate(27.989375 189.382772)scale(0.1 -0.1)">
       <defs>
        <path id="DejaVuSans-36" d="M 2113 2584 
Q 1688 2584 1439 2293 
Q 1191 2003 1191 1497 
Q 1191 994 1439 701 
Q 1688 409 2113 409 
Q 2538 409 2786 701 
Q 3034 994 3034 1497 
Q 3034 2003 2786 2293 
Q 2538 2584 2113 2584 
z
M 3366 4563 
L 3366 3988 
Q 3128 4100 2886 4159 
Q 2644 4219 2406 4219 
Q 1781 4219 1451 3797 
Q 1122 3375 1075 2522 
Q 1259 2794 1537 2939 
Q 1816 3084 2150 3084 
Q 2853 3084 3261 2657 
Q 3669 2231 3669 1497 
Q 3669 778 3244 343 
Q 2819 -91 2113 -91 
Q 1303 -91 875 529 
Q 447 1150 447 2328 
Q 447 3434 972 4092 
Q 1497 4750 2381 4750 
Q 2619 4750 2861 4703 
Q 3103 4656 3366 4563 
z
" transform="scale(0.015625)"/>
       </defs>
       <use xlink:href="#DejaVuSans-30"/>
       <use xlink:href="#DejaVuSans-2e" x="63.623047"/>
       <use xlink:href="#DejaVuSans-36" x="95.410156"/>
      </g>
     </g>
    </g>
    <g id="ytick_5">
     <g id="line2d_5">
      <g>
       <use xlink:href="#mbb5f196a4a" x="50.8925" y="160.201104" style="stroke: #000000; stroke-width: 0.8"/>
      </g>
     </g>
     <g id="text_5">
      <!-- 0.7 -->
      <g transform="translate(27.989375 164.000322)scale(0.1 -0.1)">
       <defs>
        <path id="DejaVuSans-37" d="M 525 4666 
L 3525 4666 
L 3525 4397 
L 1831 0 
L 1172 0 
L 2766 4134 
L 525 4134 
L 525 4666 
z
" transform="scale(0.015625)"/>
       </defs>
       <use xlink:href="#DejaVuSans-30"/>
       <use xlink:href="#DejaVuSans-2e" x="63.623047"/>
       <use xlink:href="#DejaVuSans-37" x="95.410156"/>
      </g>
     </g>
    </g>
    <g id="ytick_6">
     <g id="line2d_6">
      <g>
       <use xlink:href="#mbb5f196a4a" x="50.8925" y="134.818655" style="stroke: #000000; stroke-width: 0.8"/>
      </g>
     </g>
     <g id="text_6">
      <!-- 0.8 -->
      <g transform="translate(27.989375 138.617873)scale(0.1 -0.1)">
       <defs>
        <path id="DejaVuSans-38" d="M 2034 2216 
Q 1584 2216 1326 1975 
Q 1069 1734 1069 1313 
Q 1069 891 1326 650 
Q 1584 409 2034 409 
Q 2484 409 2743 651 
Q 3003 894 3003 1313 
Q 3003 1734 2745 1975 
Q 2488 2216 2034 2216 
z
M 1403 2484 
Q 997 2584 770 2862 
Q 544 3141 544 3541 
Q 544 4100 942 4425 
Q 1341 4750 2034 4750 
Q 2731 4750 3128 4425 
Q 3525 4100 3525 3541 
Q 3525 3141 3298 2862 
Q 3072 2584 2669 2484 
Q 3125 2378 3379 2068 
Q 3634 1759 3634 1313 
Q 3634 634 3220 271 
Q 2806 -91 2034 -91 
Q 1263 -91 848 271 
Q 434 634 434 1313 
Q 434 1759 690 2068 
Q 947 2378 1403 2484 
z
M 1172 3481 
Q 1172 3119 1398 2916 
Q 1625 2713 2034 2713 
Q 2441 2713 2670 2916 
Q 2900 3119 2900 3481 
Q 2900 3844 2670 4047 
Q 2441 4250 2034 4250 
Q 1625 4250 1398 4047 
Q 1172 3844 1172 3481 
z
" transform="scale(0.015625)"/>
       </defs>
       <use xlink:href="#DejaVuSans-30"/>
       <use xlink:href="#DejaVuSans-2e" x="63.623047"/>
       <use xlink:href="#DejaVuSans-38" x="95.410156"/>
      </g>
     </g>
    </g>
    <g id="ytick_7">
     <g id="line2d_7">
      <g>
       <use xlink:href="#mbb5f196a4a" x="50.8925" y="109.436206" style="stroke: #000000; stroke-width: 0.8"/>
      </g>
     </g>
     <g id="text_7">
      <!-- 0.9 -->
      <g transform="translate(27.989375 113.235424)scale(0.1 -0.1)">
       <defs>
        <path id="DejaVuSans-39" d="M 703 97 
L 703 672 
Q 941 559 1184 500 
Q 1428 441 1663 441 
Q 2288 441 2617 861 
Q 2947 1281 2994 2138 
Q 2813 1869 2534 1725 
Q 2256 1581 1919 1581 
Q 1219 1581 811 2004 
Q 403 2428 403 3163 
Q 403 3881 828 4315 
Q 1253 4750 1959 4750 
Q 2769 4750 3195 4129 
Q 3622 3509 3622 2328 
Q 3622 1225 3098 567 
Q 2575 -91 1691 -91 
Q 1453 -91 1209 -44 
Q 966 3 703 97 
z
M 1959 2075 
Q 2384 2075 2632 2365 
Q 2881 2656 2881 3163 
Q 2881 3666 2632 3958 
Q 2384 4250 1959 4250 
Q 1534 4250 1286 3958 
Q 1038 3666 1038 3163 
Q 1038 2656 1286 2365 
Q 1534 2075 1959 2075 
z
" transform="scale(0.015625)"/>
       </defs>
       <use xlink:href="#DejaVuSans-30"/>
       <use xlink:href="#DejaVuSans-2e" x="63.623047"/>
       <use xlink:href="#DejaVuSans-39" x="95.410156"/>
      </g>
     </g>
    </g>
    <g id="ytick_8">
     <g id="line2d_8">
      <g>
       <use xlink:href="#mbb5f196a4a" x="50.8925" y="84.053756" style="stroke: #000000; stroke-width: 0.8"/>
      </g>
     </g>
     <g id="text_8">
      <!-- 1.0 -->
      <g transform="translate(27.989375 87.852975)scale(0.1 -0.1)">
       <defs>
        <path id="DejaVuSans-31" d="M 794 531 
L 1825 531 
L 1825 4091 
L 703 3866 
L 703 4441 
L 1819 4666 
L 2450 4666 
L 2450 531 
L 3481 531 
L 3481 0 
L 794 0 
L 794 531 
z
" transform="scale(0.015625)"/>
       </defs>
       <use xlink:href="#DejaVuSans-31"/>
       <use xlink:href="#DejaVuSans-2e" x="63.623047"/>
       <use xlink:href="#DejaVuSans-30" x="95.410156"/>
      </g>
     </g>
    </g>
    <g id="ytick_9">
     <g id="line2d_9">
      <g>
       <use xlink:href="#mbb5f196a4a" x="50.8925" y="58.671307" style="stroke: #000000; stroke-width: 0.8"/>
      </g>
     </g>
     <g id="text_9">
      <!-- 1.1 -->
      <g transform="translate(27.989375 62.470526)scale(0.1 -0.1)">
       <use xlink:href="#DejaVuSans-31"/>
       <use xlink:href="#DejaVuSans-2e" x="63.623047"/>
       <use xlink:href="#DejaVuSans-31" x="95.410156"/>
      </g>
     </g>
    </g>
    <g id="text_10">
     <!-- RMSD [$\AA$] -->
     <g transform="translate(21.909688 184.12)rotate(-90)scale(0.1 -0.1)">
      <defs>
       <path id="DejaVuSans-52" d="M 2841 2188 
Q 3044 2119 3236 1894 
Q 3428 1669 3622 1275 
L 4263 0 
L 3584 0 
L 2988 1197 
Q 2756 1666 2539 1819 
Q 2322 1972 1947 1972 
L 1259 1972 
L 1259 0 
L 628 0 
L 628 4666 
L 2053 4666 
Q 2853 4666 3247 4331 
Q 3641 3997 3641 3322 
Q 3641 2881 3436 2590 
Q 3231 2300 2841 2188 
z
M 1259 4147 
L 1259 2491 
L 2053 2491 
Q 2509 2491 2742 2702 
Q 2975 2913 2975 3322 
Q 2975 3731 2742 3939 
Q 2509 4147 2053 4147 
L 1259 4147 
z
" transform="scale(0.015625)"/>
       <path id="DejaVuSans-4d" d="M 628 4666 
L 1569 4666 
L 2759 1491 
L 3956 4666 
L 4897 4666 
L 4897 0 
L 4281 0 
L 4281 4097 
L 3078 897 
L 2444 897 
L 1241 4097 
L 1241 0 
L 628 0 
L 628 4666 
z
" transform="scale(0.015625)"/>
       <path id="DejaVuSans-53" d="M 3425 4513 
L 3425 3897 
Q 3066 4069 2747 4153 
Q 2428 4238 2131 4238 
Q 1616 4238 1336 4038 
Q 1056 3838 1056 3469 
Q 1056 3159 1242 3001 
Q 1428 2844 1947 2747 
L 2328 2669 
Q 3034 2534 3370 2195 
Q 3706 1856 3706 1288 
Q 3706 609 3251 259 
Q 2797 -91 1919 -91 
Q 1588 -91 1214 -16 
Q 841 59 441 206 
L 441 856 
Q 825 641 1194 531 
Q 1563 422 1919 422 
Q 2459 422 2753 634 
Q 3047 847 3047 1241 
Q 3047 1584 2836 1778 
Q 2625 1972 2144 2069 
L 1759 2144 
Q 1053 2284 737 2584 
Q 422 2884 422 3419 
Q 422 4038 858 4394 
Q 1294 4750 2059 4750 
Q 2388 4750 2728 4690 
Q 3069 4631 3425 4513 
z
" transform="scale(0.015625)"/>
       <path id="DejaVuSans-44" d="M 1259 4147 
L 1259 519 
L 2022 519 
Q 2988 519 3436 956 
Q 3884 1394 3884 2338 
Q 3884 3275 3436 3711 
Q 2988 4147 2022 4147 
L 1259 4147 
z
M 628 4666 
L 1925 4666 
Q 3281 4666 3915 4102 
Q 4550 3538 4550 2338 
Q 4550 1131 3912 565 
Q 3275 0 1925 0 
L 628 0 
L 628 4666 
z
" transform="scale(0.015625)"/>
       <path id="DejaVuSans-20" transform="scale(0.015625)"/>
       <path id="DejaVuSans-5b" d="M 550 4863 
L 1875 4863 
L 1875 4416 
L 1125 4416 
L 1125 -397 
L 1875 -397 
L 1875 -844 
L 550 -844 
L 550 4863 
z
" transform="scale(0.015625)"/>
       <path id="DejaVuSans-Oblique-c5" d="M 3188 5081 
Q 3188 5278 3048 5417 
Q 2909 5556 2713 5556 
Q 2513 5556 2377 5420 
Q 2241 5284 2241 5081 
Q 2241 4884 2377 4746 
Q 2513 4609 2713 4609 
Q 2909 4609 3048 4746 
Q 3188 4884 3188 5081 
z
M 2203 4397 
Q 2034 4513 1945 4689 
Q 1856 4866 1856 5081 
Q 1856 5438 2106 5689 
Q 2356 5941 2713 5941 
Q 3069 5941 3320 5689 
Q 3572 5438 3572 5081 
Q 3572 4834 3458 4643 
Q 3344 4453 3128 4341 
L 3938 0 
L 3278 0 
L 3084 1197 
L 984 1197 
L 325 0 
L -341 0 
L 2203 4397 
z
M 2584 4044 
L 1275 1722 
L 2988 1722 
L 2584 4044 
z
" transform="scale(0.015625)"/>
       <path id="DejaVuSans-5d" d="M 1947 4863 
L 1947 -844 
L 622 -844 
L 622 -397 
L 1369 -397 
L 1369 4416 
L 622 4416 
L 622 4863 
L 1947 4863 
z
" transform="scale(0.015625)"/>
      </defs>
      <use xlink:href="#DejaVuSans-52" transform="translate(0 0.171875)"/>
      <use xlink:href="#DejaVuSans-4d" transform="translate(69.482422 0.171875)"/>
      <use xlink:href="#DejaVuSans-53" transform="translate(155.761719 0.171875)"/>
      <use xlink:href="#DejaVuSans-44" transform="translate(219.238281 0.171875)"/>
      <use xlink:href="#DejaVuSans-20" transform="translate(296.240234 0.171875)"/>
      <use xlink:href="#DejaVuSans-5b" transform="translate(328.027344 0.171875)"/>
      <use xlink:href="#DejaVuSans-Oblique-c5" transform="translate(367.041016 0.171875)"/>
      <use xlink:href="#DejaVuSans-5d" transform="translate(435.449219 0.171875)"/>
     </g>
    </g>
   </g>
   <g id="LineCollection_1">
    <path d="M 66.177636 159.905176 
L 91.652864 159.905176 
" clip-path="url(#p6a71c1c4da)" style="fill: none; stroke: #1f77b4; stroke-width: 1.5"/>
   </g>
   <g id="LineCollection_2">
    <path d="M 66.177636 57.342727 
L 91.652864 57.342727 
" clip-path="url(#p6a71c1c4da)" style="fill: none; stroke: #1f77b4; stroke-width: 1.5"/>
   </g>
   <g id="LineCollection_3">
    <path d="M 66.177636 263.397273 
L 91.652864 263.397273 
" clip-path="url(#p6a71c1c4da)" style="fill: none; stroke: #1f77b4; stroke-width: 1.5"/>
   </g>
   <g id="LineCollection_4">
    <path d="M 78.91525 263.397273 
L 78.91525 57.342727 
" clip-path="url(#p6a71c1c4da)" style="fill: none; stroke: #1f77b4; stroke-width: 1.5"/>
   </g>
   <g id="patch_3">
    <path d="M 50.8925 273.7 
L 50.8925 47.04 
" style="fill: none; stroke: #000000; stroke-width: 0.8; stroke-linejoin: miter; stroke-linecap: square"/>
   </g>
   <g id="patch_4">
    <path d="M 106.938 273.7 
L 106.938 47.04 
" style="fill: none; stroke: #000000; stroke-width: 0.8; stroke-linejoin: miter; stroke-linecap: square"/>
   </g>
   <g id="patch_5">
    <path d="M 50.8925 273.7 
L 106.938 273.7 
" style="fill: none; stroke: #000000; stroke-width: 0.8; stroke-linejoin: miter; stroke-linecap: square"/>
   </g>
   <g id="patch_6">
    <path d="M 50.8925 47.04 
L 106.938 47.04 
" style="fill: none; stroke: #000000; stroke-width: 0.8; stroke-linejoin: miter; stroke-linecap: square"/>
   </g>
   <g id="text_11">
    <!-- RMSD -->
    <g transform="translate(61.14025 41.04)scale(0.12 -0.12)">
     <use xlink:href="#DejaVuSans-52"/>
     <use xlink:href="#DejaVuSans-4d" x="69.482422"/>
     <use xlink:href="#DejaVuSans-53" x="155.761719"/>
     <use xlink:href="#DejaVuSans-44" x="219.238281"/>
    </g>
   </g>
  </g>
  <g id="axes_2">
   <g id="patch_7">
    <path d="M 165.458 273.7 
L 221.5035 273.7 
L 221.5035 47.04 
L 165.458 47.04 
z
" style="fill: #ffffff"/>
   </g>
   <g id="PolyCollection_2">
    <path d="M 193.941584 263.397273 
L 193.019916 263.397273 
L 192.915538 261.315914 
L 192.780792 259.234555 
L 192.606785 257.153196 
L 192.384484 255.071837 
L 192.105565 252.990478 
L 191.763194 250.909118 
L 191.352594 248.827759 
L 190.871345 246.7464 
L 190.319421 244.665041 
L 189.699031 242.583682 
L 189.0144 240.502323 
L 188.271534 238.420964 
L 187.478029 236.339605 
L 186.642843 234.258246 
L 185.775932 232.176887 
L 184.887631 230.095528 
L 183.987745 228.014169 
L 183.084388 225.93281 
L 182.182801 223.851451 
L 181.284418 221.770092 
L 180.386527 219.688733 
L 179.482797 217.607374 
L 178.564756 215.526015 
L 177.624127 213.444656 
L 176.65564 211.363297 
L 175.659799 209.281938 
L 174.644957 207.200579 
L 173.62814 205.119219 
L 172.634239 203.03786 
L 171.69352 200.956501 
L 170.837764 198.875142 
L 170.095655 196.793783 
L 169.488271 194.712424 
L 169.025557 192.631065 
L 168.704477 190.549706 
L 168.509257 188.468347 
L 168.413718 186.386988 
L 168.385279 184.305629 
L 168.389934 182.22427 
L 168.397339 180.142911 
L 168.385136 178.061552 
L 168.341853 175.980193 
L 168.267962 173.898834 
L 168.175039 171.817475 
L 168.083291 169.736116 
L 168.017994 167.654757 
L 168.005523 165.573398 
L 168.069699 163.492039 
L 168.229039 161.41068 
L 168.495265 159.32932 
L 168.873142 157.247961 
L 169.361394 155.166602 
L 169.954233 153.085243 
L 170.642927 151.003884 
L 171.416904 148.922525 
L 172.264106 146.841166 
L 173.170612 144.759807 
L 174.11987 142.678448 
L 175.092088 140.597089 
L 176.064341 138.51573 
L 177.011799 136.434371 
L 177.910113 134.353012 
L 178.738592 132.271653 
L 179.483499 130.190294 
L 180.140608 128.108935 
L 180.716306 126.027576 
L 181.226804 123.946217 
L 181.695485 121.864858 
L 182.1489 119.783499 
L 182.612223 117.70214 
L 183.105166 115.620781 
L 183.639185 113.539421 
L 184.216492 111.458062 
L 184.830913 109.376703 
L 185.470191 107.295344 
L 186.119011 105.213985 
L 186.761966 103.132626 
L 187.385808 101.051267 
L 187.980667 98.969908 
L 188.540251 96.888549 
L 189.061311 94.80719 
L 189.542776 92.725831 
L 189.984895 90.644472 
L 190.388605 88.563113 
L 190.75515 86.481754 
L 191.085893 84.400395 
L 191.38223 82.319036 
L 191.645537 80.237677 
L 191.877161 78.156318 
L 192.078477 76.074959 
L 192.251051 73.9936 
L 192.396862 71.912241 
L 192.518531 69.830882 
L 192.61944 67.749522 
L 192.703662 65.668163 
L 192.775679 63.586804 
L 192.839919 61.505445 
L 192.90024 59.424086 
L 192.959477 57.342727 
L 194.002023 57.342727 
L 194.002023 57.342727 
L 194.06126 59.424086 
L 194.121581 61.505445 
L 194.185821 63.586804 
L 194.257838 65.668163 
L 194.34206 67.749522 
L 194.442969 69.830882 
L 194.564638 71.912241 
L 194.710449 73.9936 
L 194.883023 76.074959 
L 195.084339 78.156318 
L 195.315963 80.237677 
L 195.57927 82.319036 
L 195.875607 84.400395 
L 196.20635 86.481754 
L 196.572895 88.563113 
L 196.976605 90.644472 
L 197.418724 92.725831 
L 197.900189 94.80719 
L 198.421249 96.888549 
L 198.980833 98.969908 
L 199.575692 101.051267 
L 200.199534 103.132626 
L 200.842489 105.213985 
L 201.491309 107.295344 
L 202.130587 109.376703 
L 202.745008 111.458062 
L 203.322315 113.539421 
L 203.856334 115.620781 
L 204.349277 117.70214 
L 204.8126 119.783499 
L 205.266015 121.864858 
L 205.734696 123.946217 
L 206.245194 126.027576 
L 206.820892 128.108935 
L 207.478001 130.190294 
L 208.222908 132.271653 
L 209.051387 134.353012 
L 209.949701 136.434371 
L 210.897159 138.51573 
L 211.869412 140.597089 
L 212.84163 142.678448 
L 213.790888 144.759807 
L 214.697394 146.841166 
L 215.544596 148.922525 
L 216.318573 151.003884 
L 217.007267 153.085243 
L 217.600106 155.166602 
L 218.088358 157.247961 
L 218.466235 159.32932 
L 218.732461 161.41068 
L 218.891801 163.492039 
L 218.955977 165.573398 
L 218.943506 167.654757 
L 218.878209 169.736116 
L 218.786461 171.817475 
L 218.693538 173.898834 
L 218.619647 175.980193 
L 218.576364 178.061552 
L 218.564161 180.142911 
L 218.571566 182.22427 
L 218.576221 184.305629 
L 218.547782 186.386988 
L 218.452243 188.468347 
L 218.257023 190.549706 
L 217.935943 192.631065 
L 217.473229 194.712424 
L 216.865845 196.793783 
L 216.123736 198.875142 
L 215.26798 200.956501 
L 214.327261 203.03786 
L 213.33336 205.119219 
L 212.316543 207.200579 
L 211.301701 209.281938 
L 210.30586 211.363297 
L 209.337373 213.444656 
L 208.396744 215.526015 
L 207.478703 217.607374 
L 206.574973 219.688733 
L 205.677082 221.770092 
L 204.778699 223.851451 
L 203.877112 225.93281 
L 202.973755 228.014169 
L 202.073869 230.095528 
L 201.185568 232.176887 
L 200.318657 234.258246 
L 199.483471 236.339605 
L 198.689966 238.420964 
L 197.9471 240.502323 
L 197.262469 242.583682 
L 196.642079 244.665041 
L 196.090155 246.7464 
L 195.608906 248.827759 
L 195.198306 250.909118 
L 194.855935 252.990478 
L 194.577016 255.071837 
L 194.354715 257.153196 
L 194.180708 259.234555 
L 194.045962 261.315914 
L 193.941584 263.397273 
z
" clip-path="url(#pcf1a1d7080)" style="fill: #1f77b4; fill-opacity: 0.3"/>
   </g>
   <g id="matplotlib.axis_2">
    <g id="ytick_10">
     <g id="line2d_10">
      <g>
       <use xlink:href="#mbb5f196a4a" x="165.458" y="270.101146" style="stroke: #000000; stroke-width: 0.8"/>
      </g>
     </g>
     <g id="text_12">
      <!-- 0.2 -->
      <g transform="translate(142.554875 273.900364)scale(0.1 -0.1)">
       <defs>
        <path id="DejaVuSans-32" d="M 1228 531 
L 3431 531 
L 3431 0 
L 469 0 
L 469 531 
Q 828 903 1448 1529 
Q 2069 2156 2228 2338 
Q 2531 2678 2651 2914 
Q 2772 3150 2772 3378 
Q 2772 3750 2511 3984 
Q 2250 4219 1831 4219 
Q 1534 4219 1204 4116 
Q 875 4013 500 3803 
L 500 4441 
Q 881 4594 1212 4672 
Q 1544 4750 1819 4750 
Q 2544 4750 2975 4387 
Q 3406 4025 3406 3419 
Q 3406 3131 3298 2873 
Q 3191 2616 2906 2266 
Q 2828 2175 2409 1742 
Q 1991 1309 1228 531 
z
" transform="scale(0.015625)"/>
       </defs>
       <use xlink:href="#DejaVuSans-30"/>
       <use xlink:href="#DejaVuSans-2e" x="63.623047"/>
       <use xlink:href="#DejaVuSans-32" x="95.410156"/>
      </g>
     </g>
    </g>
    <g id="ytick_11">
     <g id="line2d_11">
      <g>
       <use xlink:href="#mbb5f196a4a" x="165.458" y="235.4083" style="stroke: #000000; stroke-width: 0.8"/>
      </g>
     </g>
     <g id="text_13">
      <!-- 0.3 -->
      <g transform="translate(142.554875 239.207519)scale(0.1 -0.1)">
       <use xlink:href="#DejaVuSans-30"/>
       <use xlink:href="#DejaVuSans-2e" x="63.623047"/>
       <use xlink:href="#DejaVuSans-33" x="95.410156"/>
      </g>
     </g>
    </g>
    <g id="ytick_12">
     <g id="line2d_12">
      <g>
       <use xlink:href="#mbb5f196a4a" x="165.458" y="200.715454" style="stroke: #000000; stroke-width: 0.8"/>
      </g>
     </g>
     <g id="text_14">
      <!-- 0.4 -->
      <g transform="translate(142.554875 204.514673)scale(0.1 -0.1)">
       <use xlink:href="#DejaVuSans-30"/>
       <use xlink:href="#DejaVuSans-2e" x="63.623047"/>
       <use xlink:href="#DejaVuSans-34" x="95.410156"/>
      </g>
     </g>
    </g>
    <g id="ytick_13">
     <g id="line2d_13">
      <g>
       <use xlink:href="#mbb5f196a4a" x="165.458" y="166.022608" style="stroke: #000000; stroke-width: 0.8"/>
      </g>
     </g>
     <g id="text_15">
      <!-- 0.5 -->
      <g transform="translate(142.554875 169.821827)scale(0.1 -0.1)">
       <use xlink:href="#DejaVuSans-30"/>
       <use xlink:href="#DejaVuSans-2e" x="63.623047"/>
       <use xlink:href="#DejaVuSans-35" x="95.410156"/>
      </g>
     </g>
    </g>
    <g id="ytick_14">
     <g id="line2d_14">
      <g>
       <use xlink:href="#mbb5f196a4a" x="165.458" y="131.329762" style="stroke: #000000; stroke-width: 0.8"/>
      </g>
     </g>
     <g id="text_16">
      <!-- 0.6 -->
      <g transform="translate(142.554875 135.128981)scale(0.1 -0.1)">
       <use xlink:href="#DejaVuSans-30"/>
       <use xlink:href="#DejaVuSans-2e" x="63.623047"/>
       <use xlink:href="#DejaVuSans-36" x="95.410156"/>
      </g>
     </g>
    </g>
    <g id="ytick_15">
     <g id="line2d_15">
      <g>
       <use xlink:href="#mbb5f196a4a" x="165.458" y="96.636917" style="stroke: #000000; stroke-width: 0.8"/>
      </g>
     </g>
     <g id="text_17">
      <!-- 0.7 -->
      <g transform="translate(142.554875 100.436135)scale(0.1 -0.1)">
       <use xlink:href="#DejaVuSans-30"/>
       <use xlink:href="#DejaVuSans-2e" x="63.623047"/>
       <use xlink:href="#DejaVuSans-37" x="95.410156"/>
      </g>
     </g>
    </g>
    <g id="ytick_16">
     <g id="line2d_16">
      <g>
       <use xlink:href="#mbb5f196a4a" x="165.458" y="61.944071" style="stroke: #000000; stroke-width: 0.8"/>
      </g>
     </g>
     <g id="text_18">
      <!-- 0.8 -->
      <g transform="translate(142.554875 65.743289)scale(0.1 -0.1)">
       <use xlink:href="#DejaVuSans-30"/>
       <use xlink:href="#DejaVuSans-2e" x="63.623047"/>
       <use xlink:href="#DejaVuSans-38" x="95.410156"/>
      </g>
     </g>
    </g>
    <g id="text_19">
     <!-- MAE [$\AA$] -->
     <g transform="translate(136.475187 180.22)rotate(-90)scale(0.1 -0.1)">
      <defs>
       <path id="DejaVuSans-41" d="M 2188 4044 
L 1331 1722 
L 3047 1722 
L 2188 4044 
z
M 1831 4666 
L 2547 4666 
L 4325 0 
L 3669 0 
L 3244 1197 
L 1141 1197 
L 716 0 
L 50 0 
L 1831 4666 
z
" transform="scale(0.015625)"/>
       <path id="DejaVuSans-45" d="M 628 4666 
L 3578 4666 
L 3578 4134 
L 1259 4134 
L 1259 2753 
L 3481 2753 
L 3481 2222 
L 1259 2222 
L 1259 531 
L 3634 531 
L 3634 0 
L 628 0 
L 628 4666 
z
" transform="scale(0.015625)"/>
      </defs>
      <use xlink:href="#DejaVuSans-4d" transform="translate(0 0.171875)"/>
      <use xlink:href="#DejaVuSans-41" transform="translate(86.279297 0.171875)"/>
      <use xlink:href="#DejaVuSans-45" transform="translate(154.6875 0.171875)"/>
      <use xlink:href="#DejaVuSans-20" transform="translate(217.871094 0.171875)"/>
      <use xlink:href="#DejaVuSans-5b" transform="translate(249.658203 0.171875)"/>
      <use xlink:href="#DejaVuSans-Oblique-c5" transform="translate(288.671875 0.171875)"/>
      <use xlink:href="#DejaVuSans-5d" transform="translate(357.080078 0.171875)"/>
     </g>
    </g>
   </g>
   <g id="LineCollection_5">
    <path d="M 180.743136 169.597595 
L 206.218364 169.597595 
" clip-path="url(#pcf1a1d7080)" style="fill: none; stroke: #1f77b4; stroke-width: 1.5"/>
   </g>
   <g id="LineCollection_6">
    <path d="M 180.743136 57.342727 
L 206.218364 57.342727 
" clip-path="url(#pcf1a1d7080)" style="fill: none; stroke: #1f77b4; stroke-width: 1.5"/>
   </g>
   <g id="LineCollection_7">
    <path d="M 180.743136 263.397273 
L 206.218364 263.397273 
" clip-path="url(#pcf1a1d7080)" style="fill: none; stroke: #1f77b4; stroke-width: 1.5"/>
   </g>
   <g id="LineCollection_8">
    <path d="M 193.48075 263.397273 
L 193.48075 57.342727 
" clip-path="url(#pcf1a1d7080)" style="fill: none; stroke: #1f77b4; stroke-width: 1.5"/>
   </g>
   <g id="patch_8">
    <path d="M 165.458 273.7 
L 165.458 47.04 
" style="fill: none; stroke: #000000; stroke-width: 0.8; stroke-linejoin: miter; stroke-linecap: square"/>
   </g>
   <g id="patch_9">
    <path d="M 221.5035 273.7 
L 221.5035 47.04 
" style="fill: none; stroke: #000000; stroke-width: 0.8; stroke-linejoin: miter; stroke-linecap: square"/>
   </g>
   <g id="patch_10">
    <path d="M 165.458 273.7 
L 221.5035 273.7 
" style="fill: none; stroke: #000000; stroke-width: 0.8; stroke-linejoin: miter; stroke-linecap: square"/>
   </g>
   <g id="patch_11">
    <path d="M 165.458 47.04 
L 221.5035 47.04 
" style="fill: none; stroke: #000000; stroke-width: 0.8; stroke-linejoin: miter; stroke-linecap: square"/>
   </g>
   <g id="text_20">
    <!-- MAE -->
    <g transform="translate(180.40825 41.04)scale(0.12 -0.12)">
     <use xlink:href="#DejaVuSans-4d"/>
     <use xlink:href="#DejaVuSans-41" x="86.279297"/>
     <use xlink:href="#DejaVuSans-45" x="154.6875"/>
    </g>
   </g>
  </g>
  <g id="axes_3">
   <g id="patch_12">
    <path d="M 280.0235 273.7 
L 336.069 273.7 
L 336.069 47.04 
L 280.0235 47.04 
z
" style="fill: #ffffff"/>
   </g>
   <g id="PolyCollection_3">
    <path d="M 309.255649 263.397273 
L 306.836851 263.397273 
L 306.651313 261.315914 
L 306.461779 259.234555 
L 306.26929 257.153196 
L 306.073575 255.071837 
L 305.873148 252.990478 
L 305.665613 250.909118 
L 305.44806 248.827759 
L 305.217468 246.7464 
L 304.970993 244.665041 
L 304.706142 242.583682 
L 304.420859 240.502323 
L 304.113615 238.420964 
L 303.783595 236.339605 
L 303.43103 234.258246 
L 303.057603 232.176887 
L 302.666785 230.095528 
L 302.263888 228.014169 
L 301.855617 225.93281 
L 301.449055 223.851451 
L 301.050134 221.770092 
L 300.661879 219.688733 
L 300.282844 217.607374 
L 299.906183 215.526015 
L 299.519725 213.444656 
L 299.107187 211.363297 
L 298.650419 209.281938 
L 298.132259 207.200579 
L 297.539486 205.119219 
L 296.86526 203.03786 
L 296.110615 200.956501 
L 295.284759 198.875142 
L 294.404216 196.793783 
L 293.491062 194.712424 
L 292.570628 192.631065 
L 291.669043 190.549706 
L 290.810908 188.468347 
L 290.017244 186.386988 
L 289.303769 184.305629 
L 288.679493 182.22427 
L 288.145708 180.142911 
L 287.695515 178.061552 
L 287.314117 175.980193 
L 286.980115 173.898834 
L 286.667897 171.817475 
L 286.351011 169.736116 
L 286.006145 167.654757 
L 285.617122 165.573398 
L 285.178225 163.492039 
L 284.69622 161.41068 
L 284.19066 159.32932 
L 283.692338 157.247961 
L 283.240061 155.166602 
L 282.8762 153.085243 
L 282.641666 151.003884 
L 282.571023 148.922525 
L 282.688438 146.841166 
L 283.005042 144.759807 
L 283.518022 142.678448 
L 284.211532 140.597089 
L 285.059161 138.51573 
L 286.027492 136.434371 
L 287.080098 134.353012 
L 288.181334 132.271653 
L 289.299383 130.190294 
L 290.408249 128.108935 
L 291.488646 126.027576 
L 292.527929 123.946217 
L 293.519378 121.864858 
L 294.461146 119.783499 
L 295.355124 117.70214 
L 296.205858 115.620781 
L 297.019522 113.539421 
L 297.802928 111.458062 
L 298.562506 109.376703 
L 299.303293 107.295344 
L 300.028036 105.213985 
L 300.736564 103.132626 
L 301.425621 101.051267 
L 302.089245 98.969908 
L 302.719688 96.888549 
L 303.308706 94.80719 
L 303.84898 92.725831 
L 304.33535 90.644472 
L 304.765626 88.563113 
L 305.140824 86.481754 
L 305.464832 84.400395 
L 305.743634 82.319036 
L 305.984312 80.237677 
L 306.194051 78.156318 
L 306.379356 76.074959 
L 306.545574 73.9936 
L 306.696747 71.912241 
L 306.835718 69.830882 
L 306.964399 67.749522 
L 307.08407 65.668163 
L 307.195627 63.586804 
L 307.29974 61.505445 
L 307.396901 59.424086 
L 307.487425 57.342727 
L 308.605075 57.342727 
L 308.605075 57.342727 
L 308.695599 59.424086 
L 308.79276 61.505445 
L 308.896873 63.586804 
L 309.00843 65.668163 
L 309.128101 67.749522 
L 309.256782 69.830882 
L 309.395753 71.912241 
L 309.546926 73.9936 
L 309.713144 76.074959 
L 309.898449 78.156318 
L 310.108188 80.237677 
L 310.348866 82.319036 
L 310.627668 84.400395 
L 310.951676 86.481754 
L 311.326874 88.563113 
L 311.75715 90.644472 
L 312.24352 92.725831 
L 312.783794 94.80719 
L 313.372812 96.888549 
L 314.003255 98.969908 
L 314.666879 101.051267 
L 315.355936 103.132626 
L 316.064464 105.213985 
L 316.789207 107.295344 
L 317.529994 109.376703 
L 318.289572 111.458062 
L 319.072978 113.539421 
L 319.886642 115.620781 
L 320.737376 117.70214 
L 321.631354 119.783499 
L 322.573122 121.864858 
L 323.564571 123.946217 
L 324.603854 126.027576 
L 325.684251 128.108935 
L 326.793117 130.190294 
L 327.911166 132.271653 
L 329.012402 134.353012 
L 330.065008 136.434371 
L 331.033339 138.51573 
L 331.880968 140.597089 
L 332.574478 142.678448 
L 333.087458 144.759807 
L 333.404062 146.841166 
L 333.521477 148.922525 
L 333.450834 151.003884 
L 333.2163 153.085243 
L 332.852439 155.166602 
L 332.400162 157.247961 
L 331.90184 159.32932 
L 331.39628 161.41068 
L 330.914275 163.492039 
L 330.475378 165.573398 
L 330.086355 167.654757 
L 329.741489 169.736116 
L 329.424603 171.817475 
L 329.112385 173.898834 
L 328.778383 175.980193 
L 328.396985 178.061552 
L 327.946792 180.142911 
L 327.413007 182.22427 
L 326.788731 184.305629 
L 326.075256 186.386988 
L 325.281592 188.468347 
L 324.423457 190.549706 
L 323.521872 192.631065 
L 322.601438 194.712424 
L 321.688284 196.793783 
L 320.807741 198.875142 
L 319.981885 200.956501 
L 319.22724 203.03786 
L 318.553014 205.119219 
L 317.960241 207.200579 
L 317.442081 209.281938 
L 316.985313 211.363297 
L 316.572775 213.444656 
L 316.186317 215.526015 
L 315.809656 217.607374 
L 315.430621 219.688733 
L 315.042366 221.770092 
L 314.643445 223.851451 
L 314.236883 225.93281 
L 313.828612 228.014169 
L 313.425715 230.095528 
L 313.034897 232.176887 
L 312.66147 234.258246 
L 312.308905 236.339605 
L 311.978885 238.420964 
L 311.671641 240.502323 
L 311.386358 242.583682 
L 311.121507 244.665041 
L 310.875032 246.7464 
L 310.64444 248.827759 
L 310.426887 250.909118 
L 310.219352 252.990478 
L 310.018925 255.071837 
L 309.82321 257.153196 
L 309.630721 259.234555 
L 309.441187 261.315914 
L 309.255649 263.397273 
z
" clip-path="url(#pb1c8b3c09f)" style="fill: #1f77b4; fill-opacity: 0.3"/>
   </g>
   <g id="matplotlib.axis_3">
    <g id="ytick_17">
     <g id="line2d_17">
      <g>
       <use xlink:href="#mbb5f196a4a" x="280.0235" y="256.815161" style="stroke: #000000; stroke-width: 0.8"/>
      </g>
     </g>
     <g id="text_21">
      <!-- 0.0 -->
      <g transform="translate(257.120375 260.61438)scale(0.1 -0.1)">
       <use xlink:href="#DejaVuSans-30"/>
       <use xlink:href="#DejaVuSans-2e" x="63.623047"/>
       <use xlink:href="#DejaVuSans-30" x="95.410156"/>
      </g>
     </g>
    </g>
    <g id="ytick_18">
     <g id="line2d_18">
      <g>
       <use xlink:href="#mbb5f196a4a" x="280.0235" y="221.456664" style="stroke: #000000; stroke-width: 0.8"/>
      </g>
     </g>
     <g id="text_22">
      <!-- 0.1 -->
      <g transform="translate(257.120375 225.255882)scale(0.1 -0.1)">
       <use xlink:href="#DejaVuSans-30"/>
       <use xlink:href="#DejaVuSans-2e" x="63.623047"/>
       <use xlink:href="#DejaVuSans-31" x="95.410156"/>
      </g>
     </g>
    </g>
    <g id="ytick_19">
     <g id="line2d_19">
      <g>
       <use xlink:href="#mbb5f196a4a" x="280.0235" y="186.098166" style="stroke: #000000; stroke-width: 0.8"/>
      </g>
     </g>
     <g id="text_23">
      <!-- 0.2 -->
      <g transform="translate(257.120375 189.897385)scale(0.1 -0.1)">
       <use xlink:href="#DejaVuSans-30"/>
       <use xlink:href="#DejaVuSans-2e" x="63.623047"/>
       <use xlink:href="#DejaVuSans-32" x="95.410156"/>
      </g>
     </g>
    </g>
    <g id="ytick_20">
     <g id="line2d_20">
      <g>
       <use xlink:href="#mbb5f196a4a" x="280.0235" y="150.739669" style="stroke: #000000; stroke-width: 0.8"/>
      </g>
     </g>
     <g id="text_24">
      <!-- 0.3 -->
      <g transform="translate(257.120375 154.538888)scale(0.1 -0.1)">
       <use xlink:href="#DejaVuSans-30"/>
       <use xlink:href="#DejaVuSans-2e" x="63.623047"/>
       <use xlink:href="#DejaVuSans-33" x="95.410156"/>
      </g>
     </g>
    </g>
    <g id="ytick_21">
     <g id="line2d_21">
      <g>
       <use xlink:href="#mbb5f196a4a" x="280.0235" y="115.381172" style="stroke: #000000; stroke-width: 0.8"/>
      </g>
     </g>
     <g id="text_25">
      <!-- 0.4 -->
      <g transform="translate(257.120375 119.180391)scale(0.1 -0.1)">
       <use xlink:href="#DejaVuSans-30"/>
       <use xlink:href="#DejaVuSans-2e" x="63.623047"/>
       <use xlink:href="#DejaVuSans-34" x="95.410156"/>
      </g>
     </g>
    </g>
    <g id="ytick_22">
     <g id="line2d_22">
      <g>
       <use xlink:href="#mbb5f196a4a" x="280.0235" y="80.022675" style="stroke: #000000; stroke-width: 0.8"/>
      </g>
     </g>
     <g id="text_26">
      <!-- 0.5 -->
      <g transform="translate(257.120375 83.821894)scale(0.1 -0.1)">
       <use xlink:href="#DejaVuSans-30"/>
       <use xlink:href="#DejaVuSans-2e" x="63.623047"/>
       <use xlink:href="#DejaVuSans-35" x="95.410156"/>
      </g>
     </g>
    </g>
    <g id="text_27">
     <!-- MSE [$\AA$] -->
     <g transform="translate(251.040687 179.97)rotate(-90)scale(0.1 -0.1)">
      <use xlink:href="#DejaVuSans-4d" transform="translate(0 0.171875)"/>
      <use xlink:href="#DejaVuSans-53" transform="translate(86.279297 0.171875)"/>
      <use xlink:href="#DejaVuSans-45" transform="translate(149.755859 0.171875)"/>
      <use xlink:href="#DejaVuSans-20" transform="translate(212.939453 0.171875)"/>
      <use xlink:href="#DejaVuSans-5b" transform="translate(244.726562 0.171875)"/>
      <use xlink:href="#DejaVuSans-Oblique-c5" transform="translate(283.740234 0.171875)"/>
      <use xlink:href="#DejaVuSans-5d" transform="translate(352.148438 0.171875)"/>
     </g>
    </g>
   </g>
   <g id="LineCollection_9">
    <path d="M 295.308636 161.408852 
L 320.783864 161.408852 
" clip-path="url(#pb1c8b3c09f)" style="fill: none; stroke: #1f77b4; stroke-width: 1.5"/>
   </g>
   <g id="LineCollection_10">
    <path d="M 295.308636 57.342727 
L 320.783864 57.342727 
" clip-path="url(#pb1c8b3c09f)" style="fill: none; stroke: #1f77b4; stroke-width: 1.5"/>
   </g>
   <g id="LineCollection_11">
    <path d="M 295.308636 263.397273 
L 320.783864 263.397273 
" clip-path="url(#pb1c8b3c09f)" style="fill: none; stroke: #1f77b4; stroke-width: 1.5"/>
   </g>
   <g id="LineCollection_12">
    <path d="M 308.04625 263.397273 
L 308.04625 57.342727 
" clip-path="url(#pb1c8b3c09f)" style="fill: none; stroke: #1f77b4; stroke-width: 1.5"/>
   </g>
   <g id="patch_13">
    <path d="M 280.0235 273.7 
L 280.0235 47.04 
" style="fill: none; stroke: #000000; stroke-width: 0.8; stroke-linejoin: miter; stroke-linecap: square"/>
   </g>
   <g id="patch_14">
    <path d="M 336.069 273.7 
L 336.069 47.04 
" style="fill: none; stroke: #000000; stroke-width: 0.8; stroke-linejoin: miter; stroke-linecap: square"/>
   </g>
   <g id="patch_15">
    <path d="M 280.0235 273.7 
L 336.069 273.7 
" style="fill: none; stroke: #000000; stroke-width: 0.8; stroke-linejoin: miter; stroke-linecap: square"/>
   </g>
   <g id="patch_16">
    <path d="M 280.0235 47.04 
L 336.069 47.04 
" style="fill: none; stroke: #000000; stroke-width: 0.8; stroke-linejoin: miter; stroke-linecap: square"/>
   </g>
   <g id="text_28">
    <!-- MSE -->
    <g transform="translate(295.269062 41.04)scale(0.12 -0.12)">
     <use xlink:href="#DejaVuSans-4d"/>
     <use xlink:href="#DejaVuSans-53" x="86.279297"/>
     <use xlink:href="#DejaVuSans-45" x="149.755859"/>
    </g>
   </g>
  </g>
  <g id="axes_4">
   <g id="patch_17">
    <path d="M 394.589 273.7 
L 450.6345 273.7 
L 450.6345 47.04 
L 394.589 47.04 
z
" style="fill: #ffffff"/>
   </g>
   <g id="PolyCollection_4">
    <path d="M 423.794106 263.397273 
L 421.429394 263.397273 
L 421.193572 261.315914 
L 420.935069 259.234555 
L 420.657042 257.153196 
L 420.363259 255.071837 
L 420.057324 252.990478 
L 419.741768 250.909118 
L 419.417218 248.827759 
L 419.081869 246.7464 
L 418.731407 244.665041 
L 418.359408 242.583682 
L 417.95815 240.502323 
L 417.519708 238.420964 
L 417.03719 236.339605 
L 416.505952 234.258246 
L 415.924628 232.176887 
L 415.295756 230.095528 
L 414.625781 228.014169 
L 413.924327 225.93281 
L 413.202781 223.851451 
L 412.472492 221.770092 
L 411.743076 219.688733 
L 411.021255 217.607374 
L 410.310524 215.526015 
L 409.611542 213.444656 
L 408.92292 211.363297 
L 408.241979 209.281938 
L 407.565195 207.200579 
L 406.888353 205.119219 
L 406.206644 203.03786 
L 405.51498 200.956501 
L 404.808653 198.875142 
L 404.084236 196.793783 
L 403.340501 194.712424 
L 402.579188 192.631065 
L 401.805626 190.549706 
L 401.029299 188.468347 
L 400.264378 186.386988 
L 399.529996 184.305629 
L 398.849808 182.22427 
L 398.250441 180.142911 
L 397.758783 178.061552 
L 397.398668 175.980193 
L 397.187888 173.898834 
L 397.136523 171.817475 
L 397.247041 169.736116 
L 397.515866 167.654757 
L 397.93549 165.573398 
L 398.496069 163.492039 
L 399.185896 161.41068 
L 399.990861 159.32932 
L 400.893613 157.247961 
L 401.873318 155.166602 
L 402.9065 153.085243 
L 403.968865 151.003884 
L 405.03748 148.922525 
L 406.092553 146.841166 
L 407.118331 144.759807 
L 408.1031 142.678448 
L 409.038628 140.597089 
L 409.91949 138.51573 
L 410.74256 136.434371 
L 411.506711 134.353012 
L 412.212578 132.271653 
L 412.862267 130.190294 
L 413.458962 128.108935 
L 414.006546 126.027576 
L 414.50932 123.946217 
L 414.971885 121.864858 
L 415.399117 119.783499 
L 415.796149 117.70214 
L 416.168294 115.620781 
L 416.520914 113.539421 
L 416.859272 111.458062 
L 417.188406 109.376703 
L 417.512992 107.295344 
L 417.837123 105.213985 
L 418.163951 103.132626 
L 418.495231 101.051267 
L 418.830903 98.969908 
L 419.168897 96.888549 
L 419.505296 94.80719 
L 419.834874 92.725831 
L 420.151874 90.644472 
L 420.450815 88.563113 
L 420.727113 86.481754 
L 420.9774 84.400395 
L 421.199555 82.319036 
L 421.392549 80.237677 
L 421.556258 78.156318 
L 421.691337 76.074959 
L 421.799221 73.9936 
L 421.882194 71.912241 
L 421.943461 69.830882 
L 421.987124 67.749522 
L 422.018011 65.668163 
L 422.041326 63.586804 
L 422.062168 61.505445 
L 422.084989 59.424086 
L 422.1131 57.342727 
L 423.1104 57.342727 
L 423.1104 57.342727 
L 423.138511 59.424086 
L 423.161332 61.505445 
L 423.182174 63.586804 
L 423.205489 65.668163 
L 423.236376 67.749522 
L 423.280039 69.830882 
L 423.341306 71.912241 
L 423.424279 73.9936 
L 423.532163 76.074959 
L 423.667242 78.156318 
L 423.830951 80.237677 
L 424.023945 82.319036 
L 424.2461 84.400395 
L 424.496387 86.481754 
L 424.772685 88.563113 
L 425.071626 90.644472 
L 425.388626 92.725831 
L 425.718204 94.80719 
L 426.054603 96.888549 
L 426.392597 98.969908 
L 426.728269 101.051267 
L 427.059549 103.132626 
L 427.386377 105.213985 
L 427.710508 107.295344 
L 428.035094 109.376703 
L 428.364228 111.458062 
L 428.702586 113.539421 
L 429.055206 115.620781 
L 429.427351 117.70214 
L 429.824383 119.783499 
L 430.251615 121.864858 
L 430.71418 123.946217 
L 431.216954 126.027576 
L 431.764538 128.108935 
L 432.361233 130.190294 
L 433.010922 132.271653 
L 433.716789 134.353012 
L 434.48094 136.434371 
L 435.30401 138.51573 
L 436.184872 140.597089 
L 437.1204 142.678448 
L 438.105169 144.759807 
L 439.130947 146.841166 
L 440.18602 148.922525 
L 441.254635 151.003884 
L 442.317 153.085243 
L 443.350182 155.166602 
L 444.329887 157.247961 
L 445.232639 159.32932 
L 446.037604 161.41068 
L 446.727431 163.492039 
L 447.28801 165.573398 
L 447.707634 167.654757 
L 447.976459 169.736116 
L 448.086977 171.817475 
L 448.035612 173.898834 
L 447.824832 175.980193 
L 447.464717 178.061552 
L 446.973059 180.142911 
L 446.373692 182.22427 
L 445.693504 184.305629 
L 444.959122 186.386988 
L 444.194201 188.468347 
L 443.417874 190.549706 
L 442.644312 192.631065 
L 441.882999 194.712424 
L 441.139264 196.793783 
L 440.414847 198.875142 
L 439.70852 200.956501 
L 439.016856 203.03786 
L 438.335147 205.119219 
L 437.658305 207.200579 
L 436.981521 209.281938 
L 436.30058 211.363297 
L 435.611958 213.444656 
L 434.912976 215.526015 
L 434.202245 217.607374 
L 433.480424 219.688733 
L 432.751008 221.770092 
L 432.020719 223.851451 
L 431.299173 225.93281 
L 430.597719 228.014169 
L 429.927744 230.095528 
L 429.298872 232.176887 
L 428.717548 234.258246 
L 428.18631 236.339605 
L 427.703792 238.420964 
L 427.26535 240.502323 
L 426.864092 242.583682 
L 426.492093 244.665041 
L 426.141631 246.7464 
L 425.806282 248.827759 
L 425.481732 250.909118 
L 425.166176 252.990478 
L 424.860241 255.071837 
L 424.566458 257.153196 
L 424.288431 259.234555 
L 424.029928 261.315914 
L 423.794106 263.397273 
z
" clip-path="url(#pd122894279)" style="fill: #1f77b4; fill-opacity: 0.3"/>
   </g>
   <g id="matplotlib.axis_4">
    <g id="ytick_23">
     <g id="line2d_23">
      <g>
       <use xlink:href="#mbb5f196a4a" x="394.589" y="242.791818" style="stroke: #000000; stroke-width: 0.8"/>
      </g>
     </g>
     <g id="text_29">
      <!-- 0.2 -->
      <g transform="translate(371.685875 246.591037)scale(0.1 -0.1)">
       <use xlink:href="#DejaVuSans-30"/>
       <use xlink:href="#DejaVuSans-2e" x="63.623047"/>
       <use xlink:href="#DejaVuSans-32" x="95.410156"/>
      </g>
     </g>
    </g>
    <g id="ytick_24">
     <g id="line2d_24">
      <g>
       <use xlink:href="#mbb5f196a4a" x="394.589" y="195.693636" style="stroke: #000000; stroke-width: 0.8"/>
      </g>
     </g>
     <g id="text_30">
      <!-- 0.3 -->
      <g transform="translate(371.685875 199.492855)scale(0.1 -0.1)">
       <use xlink:href="#DejaVuSans-30"/>
       <use xlink:href="#DejaVuSans-2e" x="63.623047"/>
       <use xlink:href="#DejaVuSans-33" x="95.410156"/>
      </g>
     </g>
    </g>
    <g id="ytick_25">
     <g id="line2d_25">
      <g>
       <use xlink:href="#mbb5f196a4a" x="394.589" y="148.595455" style="stroke: #000000; stroke-width: 0.8"/>
      </g>
     </g>
     <g id="text_31">
      <!-- 0.4 -->
      <g transform="translate(371.685875 152.394673)scale(0.1 -0.1)">
       <use xlink:href="#DejaVuSans-30"/>
       <use xlink:href="#DejaVuSans-2e" x="63.623047"/>
       <use xlink:href="#DejaVuSans-34" x="95.410156"/>
      </g>
     </g>
    </g>
    <g id="ytick_26">
     <g id="line2d_26">
      <g>
       <use xlink:href="#mbb5f196a4a" x="394.589" y="101.497273" style="stroke: #000000; stroke-width: 0.8"/>
      </g>
     </g>
     <g id="text_32">
      <!-- 0.5 -->
      <g transform="translate(371.685875 105.296491)scale(0.1 -0.1)">
       <use xlink:href="#DejaVuSans-30"/>
       <use xlink:href="#DejaVuSans-2e" x="63.623047"/>
       <use xlink:href="#DejaVuSans-35" x="95.410156"/>
      </g>
     </g>
    </g>
    <g id="ytick_27">
     <g id="line2d_27">
      <g>
       <use xlink:href="#mbb5f196a4a" x="394.589" y="54.399091" style="stroke: #000000; stroke-width: 0.8"/>
      </g>
     </g>
     <g id="text_33">
      <!-- 0.6 -->
      <g transform="translate(371.685875 58.19831)scale(0.1 -0.1)">
       <use xlink:href="#DejaVuSans-30"/>
       <use xlink:href="#DejaVuSans-2e" x="63.623047"/>
       <use xlink:href="#DejaVuSans-36" x="95.410156"/>
      </g>
     </g>
    </g>
    <g id="text_34">
     <!-- % NOE fulfilled [1/100 %] -->
     <g transform="translate(365.606188 223.870781)rotate(-90)scale(0.1 -0.1)">
      <defs>
       <path id="DejaVuSans-25" d="M 4653 2053 
Q 4381 2053 4226 1822 
Q 4072 1591 4072 1178 
Q 4072 772 4226 539 
Q 4381 306 4653 306 
Q 4919 306 5073 539 
Q 5228 772 5228 1178 
Q 5228 1588 5073 1820 
Q 4919 2053 4653 2053 
z
M 4653 2450 
Q 5147 2450 5437 2106 
Q 5728 1763 5728 1178 
Q 5728 594 5436 251 
Q 5144 -91 4653 -91 
Q 4153 -91 3862 251 
Q 3572 594 3572 1178 
Q 3572 1766 3864 2108 
Q 4156 2450 4653 2450 
z
M 1428 4353 
Q 1159 4353 1004 4120 
Q 850 3888 850 3481 
Q 850 3069 1003 2837 
Q 1156 2606 1428 2606 
Q 1700 2606 1854 2837 
Q 2009 3069 2009 3481 
Q 2009 3884 1853 4118 
Q 1697 4353 1428 4353 
z
M 4250 4750 
L 4750 4750 
L 1831 -91 
L 1331 -91 
L 4250 4750 
z
M 1428 4750 
Q 1922 4750 2215 4408 
Q 2509 4066 2509 3481 
Q 2509 2891 2217 2550 
Q 1925 2209 1428 2209 
Q 931 2209 642 2551 
Q 353 2894 353 3481 
Q 353 4063 643 4406 
Q 934 4750 1428 4750 
z
" transform="scale(0.015625)"/>
       <path id="DejaVuSans-4e" d="M 628 4666 
L 1478 4666 
L 3547 763 
L 3547 4666 
L 4159 4666 
L 4159 0 
L 3309 0 
L 1241 3903 
L 1241 0 
L 628 0 
L 628 4666 
z
" transform="scale(0.015625)"/>
       <path id="DejaVuSans-4f" d="M 2522 4238 
Q 1834 4238 1429 3725 
Q 1025 3213 1025 2328 
Q 1025 1447 1429 934 
Q 1834 422 2522 422 
Q 3209 422 3611 934 
Q 4013 1447 4013 2328 
Q 4013 3213 3611 3725 
Q 3209 4238 2522 4238 
z
M 2522 4750 
Q 3503 4750 4090 4092 
Q 4678 3434 4678 2328 
Q 4678 1225 4090 567 
Q 3503 -91 2522 -91 
Q 1538 -91 948 565 
Q 359 1222 359 2328 
Q 359 3434 948 4092 
Q 1538 4750 2522 4750 
z
" transform="scale(0.015625)"/>
       <path id="DejaVuSans-66" d="M 2375 4863 
L 2375 4384 
L 1825 4384 
Q 1516 4384 1395 4259 
Q 1275 4134 1275 3809 
L 1275 3500 
L 2222 3500 
L 2222 3053 
L 1275 3053 
L 1275 0 
L 697 0 
L 697 3053 
L 147 3053 
L 147 3500 
L 697 3500 
L 697 3744 
Q 697 4328 969 4595 
Q 1241 4863 1831 4863 
L 2375 4863 
z
" transform="scale(0.015625)"/>
       <path id="DejaVuSans-75" d="M 544 1381 
L 544 3500 
L 1119 3500 
L 1119 1403 
Q 1119 906 1312 657 
Q 1506 409 1894 409 
Q 2359 409 2629 706 
Q 2900 1003 2900 1516 
L 2900 3500 
L 3475 3500 
L 3475 0 
L 2900 0 
L 2900 538 
Q 2691 219 2414 64 
Q 2138 -91 1772 -91 
Q 1169 -91 856 284 
Q 544 659 544 1381 
z
M 1991 3584 
L 1991 3584 
z
" transform="scale(0.015625)"/>
       <path id="DejaVuSans-6c" d="M 603 4863 
L 1178 4863 
L 1178 0 
L 603 0 
L 603 4863 
z
" transform="scale(0.015625)"/>
       <path id="DejaVuSans-69" d="M 603 3500 
L 1178 3500 
L 1178 0 
L 603 0 
L 603 3500 
z
M 603 4863 
L 1178 4863 
L 1178 4134 
L 603 4134 
L 603 4863 
z
" transform="scale(0.015625)"/>
       <path id="DejaVuSans-65" d="M 3597 1894 
L 3597 1613 
L 953 1613 
Q 991 1019 1311 708 
Q 1631 397 2203 397 
Q 2534 397 2845 478 
Q 3156 559 3463 722 
L 3463 178 
Q 3153 47 2828 -22 
Q 2503 -91 2169 -91 
Q 1331 -91 842 396 
Q 353 884 353 1716 
Q 353 2575 817 3079 
Q 1281 3584 2069 3584 
Q 2775 3584 3186 3129 
Q 3597 2675 3597 1894 
z
M 3022 2063 
Q 3016 2534 2758 2815 
Q 2500 3097 2075 3097 
Q 1594 3097 1305 2825 
Q 1016 2553 972 2059 
L 3022 2063 
z
" transform="scale(0.015625)"/>
       <path id="DejaVuSans-64" d="M 2906 2969 
L 2906 4863 
L 3481 4863 
L 3481 0 
L 2906 0 
L 2906 525 
Q 2725 213 2448 61 
Q 2172 -91 1784 -91 
Q 1150 -91 751 415 
Q 353 922 353 1747 
Q 353 2572 751 3078 
Q 1150 3584 1784 3584 
Q 2172 3584 2448 3432 
Q 2725 3281 2906 2969 
z
M 947 1747 
Q 947 1113 1208 752 
Q 1469 391 1925 391 
Q 2381 391 2643 752 
Q 2906 1113 2906 1747 
Q 2906 2381 2643 2742 
Q 2381 3103 1925 3103 
Q 1469 3103 1208 2742 
Q 947 2381 947 1747 
z
" transform="scale(0.015625)"/>
       <path id="DejaVuSans-2f" d="M 1625 4666 
L 2156 4666 
L 531 -594 
L 0 -594 
L 1625 4666 
z
" transform="scale(0.015625)"/>
      </defs>
      <use xlink:href="#DejaVuSans-25"/>
      <use xlink:href="#DejaVuSans-20" x="95.019531"/>
      <use xlink:href="#DejaVuSans-4e" x="126.806641"/>
      <use xlink:href="#DejaVuSans-4f" x="201.611328"/>
      <use xlink:href="#DejaVuSans-45" x="280.322266"/>
      <use xlink:href="#DejaVuSans-20" x="343.505859"/>
      <use xlink:href="#DejaVuSans-66" x="375.292969"/>
      <use xlink:href="#DejaVuSans-75" x="410.498047"/>
      <use xlink:href="#DejaVuSans-6c" x="473.876953"/>
      <use xlink:href="#DejaVuSans-66" x="501.660156"/>
      <use xlink:href="#DejaVuSans-69" x="536.865234"/>
      <use xlink:href="#DejaVuSans-6c" x="564.648438"/>
      <use xlink:href="#DejaVuSans-6c" x="592.431641"/>
      <use xlink:href="#DejaVuSans-65" x="620.214844"/>
      <use xlink:href="#DejaVuSans-64" x="681.738281"/>
      <use xlink:href="#DejaVuSans-20" x="745.214844"/>
      <use xlink:href="#DejaVuSans-5b" x="777.001953"/>
      <use xlink:href="#DejaVuSans-31" x="816.015625"/>
      <use xlink:href="#DejaVuSans-2f" x="879.638672"/>
      <use xlink:href="#DejaVuSans-31" x="913.330078"/>
      <use xlink:href="#DejaVuSans-30" x="976.953125"/>
      <use xlink:href="#DejaVuSans-30" x="1040.576172"/>
      <use xlink:href="#DejaVuSans-20" x="1104.199219"/>
      <use xlink:href="#DejaVuSans-25" x="1135.986328"/>
      <use xlink:href="#DejaVuSans-5d" x="1231.005859"/>
     </g>
    </g>
   </g>
   <g id="LineCollection_13">
    <path d="M 409.874136 173.211614 
L 435.349364 173.211614 
" clip-path="url(#pd122894279)" style="fill: none; stroke: #1f77b4; stroke-width: 1.5"/>
   </g>
   <g id="LineCollection_14">
    <path d="M 409.874136 57.342727 
L 435.349364 57.342727 
" clip-path="url(#pd122894279)" style="fill: none; stroke: #1f77b4; stroke-width: 1.5"/>
   </g>
   <g id="LineCollection_15">
    <path d="M 409.874136 263.397273 
L 435.349364 263.397273 
" clip-path="url(#pd122894279)" style="fill: none; stroke: #1f77b4; stroke-width: 1.5"/>
   </g>
   <g id="LineCollection_16">
    <path d="M 422.61175 263.397273 
L 422.61175 57.342727 
" clip-path="url(#pd122894279)" style="fill: none; stroke: #1f77b4; stroke-width: 1.5"/>
   </g>
   <g id="patch_18">
    <path d="M 394.589 273.7 
L 394.589 47.04 
" style="fill: none; stroke: #000000; stroke-width: 0.8; stroke-linejoin: miter; stroke-linecap: square"/>
   </g>
   <g id="patch_19">
    <path d="M 450.6345 273.7 
L 450.6345 47.04 
" style="fill: none; stroke: #000000; stroke-width: 0.8; stroke-linejoin: miter; stroke-linecap: square"/>
   </g>
   <g id="patch_20">
    <path d="M 394.589 273.7 
L 450.6345 273.7 
" style="fill: none; stroke: #000000; stroke-width: 0.8; stroke-linejoin: miter; stroke-linecap: square"/>
   </g>
   <g id="patch_21">
    <path d="M 394.589 47.04 
L 450.6345 47.04 
" style="fill: none; stroke: #000000; stroke-width: 0.8; stroke-linejoin: miter; stroke-linecap: square"/>
   </g>
   <g id="text_35">
    <!-- % NOE fulfilled -->
    <g transform="translate(377.898625 41.04)scale(0.12 -0.12)">
     <use xlink:href="#DejaVuSans-25"/>
     <use xlink:href="#DejaVuSans-20" x="95.019531"/>
     <use xlink:href="#DejaVuSans-4e" x="126.806641"/>
     <use xlink:href="#DejaVuSans-4f" x="201.611328"/>
     <use xlink:href="#DejaVuSans-45" x="280.322266"/>
     <use xlink:href="#DejaVuSans-20" x="343.505859"/>
     <use xlink:href="#DejaVuSans-66" x="375.292969"/>
     <use xlink:href="#DejaVuSans-75" x="410.498047"/>
     <use xlink:href="#DejaVuSans-6c" x="473.876953"/>
     <use xlink:href="#DejaVuSans-66" x="501.660156"/>
     <use xlink:href="#DejaVuSans-69" x="536.865234"/>
     <use xlink:href="#DejaVuSans-6c" x="564.648438"/>
     <use xlink:href="#DejaVuSans-6c" x="592.431641"/>
     <use xlink:href="#DejaVuSans-65" x="620.214844"/>
     <use xlink:href="#DejaVuSans-64" x="681.738281"/>
    </g>
   </g>
  </g>
  <g id="axes_5">
   <g id="patch_22">
    <path d="M 509.1545 273.7 
L 565.2 273.7 
L 565.2 47.04 
L 509.1545 47.04 
z
" style="fill: #ffffff"/>
   </g>
   <g id="PolyCollection_5">
    <path d="M 538.140081 263.397273 
L 536.214419 263.397273 
L 536.113839 261.315914 
L 536.030121 259.234555 
L 535.966626 257.153196 
L 535.924464 255.071837 
L 535.902168 252.990478 
L 535.895727 250.909118 
L 535.89899 248.827759 
L 535.90438 246.7464 
L 535.903819 244.665041 
L 535.889696 242.583682 
L 535.855708 240.502323 
L 535.797438 238.420964 
L 535.712548 236.339605 
L 535.600591 234.258246 
L 535.462482 232.176887 
L 535.299785 230.095528 
L 535.113965 228.014169 
L 534.905809 225.93281 
L 534.675136 223.851451 
L 534.420863 221.770092 
L 534.14138 219.688733 
L 533.835118 217.607374 
L 533.501136 215.526015 
L 533.13952 213.444656 
L 532.751467 211.363297 
L 532.338984 209.281938 
L 531.904222 207.200579 
L 531.448592 205.119219 
L 530.971846 203.03786 
L 530.471375 200.956501 
L 529.941932 198.875142 
L 529.375957 196.793783 
L 528.764556 194.712424 
L 528.099082 192.631065 
L 527.373065 190.549706 
L 526.584144 188.468347 
L 525.735526 186.386988 
L 524.836536 184.305629 
L 523.901934 182.22427 
L 522.949975 180.142911 
L 521.999525 178.061552 
L 521.066854 175.980193 
L 520.162969 173.898834 
L 519.292258 171.817475 
L 518.452969 169.736116 
L 517.639523 167.654757 
L 516.846084 165.573398 
L 516.070407 163.492039 
L 515.316761 161.41068 
L 514.596964 159.32932 
L 513.929062 157.247961 
L 513.333885 155.166602 
L 512.830362 153.085243 
L 512.430884 151.003884 
L 512.13799 148.922525 
L 511.943338 146.841166 
L 511.829224 144.759807 
L 511.772254 142.678448 
L 511.748209 140.597089 
L 511.736883 138.51573 
L 511.725794 136.434371 
L 511.712025 134.353012 
L 511.702023 132.271653 
L 511.70964 130.190294 
L 511.753114 128.108935 
L 511.851774 126.027576 
L 512.023188 123.946217 
L 512.281208 121.864858 
L 512.635062 119.783499 
L 513.089346 117.70214 
L 513.644582 115.620781 
L 514.297964 113.539421 
L 515.043958 111.458062 
L 515.874648 109.376703 
L 516.779824 107.295344 
L 517.747039 105.213985 
L 518.761818 103.132626 
L 519.808218 101.051267 
L 520.869724 98.969908 
L 521.930358 96.888549 
L 522.975746 94.80719 
L 523.993862 92.725831 
L 524.975304 90.644472 
L 525.913076 88.563113 
L 526.802061 86.481754 
L 527.638432 84.400395 
L 528.419283 82.319036 
L 529.142645 80.237677 
L 529.807876 78.156318 
L 530.41626 76.074959 
L 530.971539 73.9936 
L 531.480086 71.912241 
L 531.950529 69.830882 
L 532.392807 67.749522 
L 532.8168 65.668163 
L 533.230833 63.586804 
L 533.640377 61.505445 
L 534.047261 59.424086 
L 534.449551 57.342727 
L 539.904949 57.342727 
L 539.904949 57.342727 
L 540.307239 59.424086 
L 540.714123 61.505445 
L 541.123667 63.586804 
L 541.5377 65.668163 
L 541.961693 67.749522 
L 542.403971 69.830882 
L 542.874414 71.912241 
L 543.382961 73.9936 
L 543.93824 76.074959 
L 544.546624 78.156318 
L 545.211855 80.237677 
L 545.935217 82.319036 
L 546.716068 84.400395 
L 547.552439 86.481754 
L 548.441424 88.563113 
L 549.379196 90.644472 
L 550.360638 92.725831 
L 551.378754 94.80719 
L 552.424142 96.888549 
L 553.484776 98.969908 
L 554.546282 101.051267 
L 555.592682 103.132626 
L 556.607461 105.213985 
L 557.574676 107.295344 
L 558.479852 109.376703 
L 559.310542 111.458062 
L 560.056536 113.539421 
L 560.709918 115.620781 
L 561.265154 117.70214 
L 561.719438 119.783499 
L 562.073292 121.864858 
L 562.331312 123.946217 
L 562.502726 126.027576 
L 562.601386 128.108935 
L 562.64486 130.190294 
L 562.652477 132.271653 
L 562.642475 134.353012 
L 562.628706 136.434371 
L 562.617617 138.51573 
L 562.606291 140.597089 
L 562.582246 142.678448 
L 562.525276 144.759807 
L 562.411162 146.841166 
L 562.21651 148.922525 
L 561.923616 151.003884 
L 561.524138 153.085243 
L 561.020615 155.166602 
L 560.425438 157.247961 
L 559.757536 159.32932 
L 559.037739 161.41068 
L 558.284093 163.492039 
L 557.508416 165.573398 
L 556.714977 167.654757 
L 555.901531 169.736116 
L 555.062242 171.817475 
L 554.191531 173.898834 
L 553.287646 175.980193 
L 552.354975 178.061552 
L 551.404525 180.142911 
L 550.452566 182.22427 
L 549.517964 184.305629 
L 548.618974 186.386988 
L 547.770356 188.468347 
L 546.981435 190.549706 
L 546.255418 192.631065 
L 545.589944 194.712424 
L 544.978543 196.793783 
L 544.412568 198.875142 
L 543.883125 200.956501 
L 543.382654 203.03786 
L 542.905908 205.119219 
L 542.450278 207.200579 
L 542.015516 209.281938 
L 541.603033 211.363297 
L 541.21498 213.444656 
L 540.853364 215.526015 
L 540.519382 217.607374 
L 540.21312 219.688733 
L 539.933637 221.770092 
L 539.679364 223.851451 
L 539.448691 225.93281 
L 539.240535 228.014169 
L 539.054715 230.095528 
L 538.892018 232.176887 
L 538.753909 234.258246 
L 538.641952 236.339605 
L 538.557062 238.420964 
L 538.498792 240.502323 
L 538.464804 242.583682 
L 538.450681 244.665041 
L 538.45012 246.7464 
L 538.45551 248.827759 
L 538.458773 250.909118 
L 538.452332 252.990478 
L 538.430036 255.071837 
L 538.387874 257.153196 
L 538.324379 259.234555 
L 538.240661 261.315914 
L 538.140081 263.397273 
z
" clip-path="url(#p13fedb60ff)" style="fill: #1f77b4; fill-opacity: 0.3"/>
   </g>
   <g id="matplotlib.axis_5">
    <g id="ytick_28">
     <g id="line2d_28">
      <g>
       <use xlink:href="#mbb5f196a4a" x="509.1545" y="267.272993" style="stroke: #000000; stroke-width: 0.8"/>
      </g>
     </g>
     <g id="text_36">
      <!-- 0.12 -->
      <g transform="translate(479.888875 271.072211)scale(0.1 -0.1)">
       <use xlink:href="#DejaVuSans-30"/>
       <use xlink:href="#DejaVuSans-2e" x="63.623047"/>
       <use xlink:href="#DejaVuSans-31" x="95.410156"/>
       <use xlink:href="#DejaVuSans-32" x="159.033203"/>
      </g>
     </g>
    </g>
    <g id="ytick_29">
     <g id="line2d_29">
      <g>
       <use xlink:href="#mbb5f196a4a" x="509.1545" y="220.443589" style="stroke: #000000; stroke-width: 0.8"/>
      </g>
     </g>
     <g id="text_37">
      <!-- 0.14 -->
      <g transform="translate(479.888875 224.242808)scale(0.1 -0.1)">
       <use xlink:href="#DejaVuSans-30"/>
       <use xlink:href="#DejaVuSans-2e" x="63.623047"/>
       <use xlink:href="#DejaVuSans-31" x="95.410156"/>
       <use xlink:href="#DejaVuSans-34" x="159.033203"/>
      </g>
     </g>
    </g>
    <g id="ytick_30">
     <g id="line2d_30">
      <g>
       <use xlink:href="#mbb5f196a4a" x="509.1545" y="173.614186" style="stroke: #000000; stroke-width: 0.8"/>
      </g>
     </g>
     <g id="text_38">
      <!-- 0.16 -->
      <g transform="translate(479.888875 177.413404)scale(0.1 -0.1)">
       <use xlink:href="#DejaVuSans-30"/>
       <use xlink:href="#DejaVuSans-2e" x="63.623047"/>
       <use xlink:href="#DejaVuSans-31" x="95.410156"/>
       <use xlink:href="#DejaVuSans-36" x="159.033203"/>
      </g>
     </g>
    </g>
    <g id="ytick_31">
     <g id="line2d_31">
      <g>
       <use xlink:href="#mbb5f196a4a" x="509.1545" y="126.784782" style="stroke: #000000; stroke-width: 0.8"/>
      </g>
     </g>
     <g id="text_39">
      <!-- 0.18 -->
      <g transform="translate(479.888875 130.584001)scale(0.1 -0.1)">
       <use xlink:href="#DejaVuSans-30"/>
       <use xlink:href="#DejaVuSans-2e" x="63.623047"/>
       <use xlink:href="#DejaVuSans-31" x="95.410156"/>
       <use xlink:href="#DejaVuSans-38" x="159.033203"/>
      </g>
     </g>
    </g>
    <g id="ytick_32">
     <g id="line2d_32">
      <g>
       <use xlink:href="#mbb5f196a4a" x="509.1545" y="79.955379" style="stroke: #000000; stroke-width: 0.8"/>
      </g>
     </g>
     <g id="text_40">
      <!-- 0.20 -->
      <g transform="translate(479.888875 83.754598)scale(0.1 -0.1)">
       <use xlink:href="#DejaVuSans-30"/>
       <use xlink:href="#DejaVuSans-2e" x="63.623047"/>
       <use xlink:href="#DejaVuSans-32" x="95.410156"/>
       <use xlink:href="#DejaVuSans-30" x="159.033203"/>
      </g>
     </g>
    </g>
    <g id="text_41">
     <!-- RMSD stepwise [$\AA$] -->
     <g transform="translate(473.788875 207.67)rotate(-90)scale(0.1 -0.1)">
      <defs>
       <path id="DejaVuSans-73" d="M 2834 3397 
L 2834 2853 
Q 2591 2978 2328 3040 
Q 2066 3103 1784 3103 
Q 1356 3103 1142 2972 
Q 928 2841 928 2578 
Q 928 2378 1081 2264 
Q 1234 2150 1697 2047 
L 1894 2003 
Q 2506 1872 2764 1633 
Q 3022 1394 3022 966 
Q 3022 478 2636 193 
Q 2250 -91 1575 -91 
Q 1294 -91 989 -36 
Q 684 19 347 128 
L 347 722 
Q 666 556 975 473 
Q 1284 391 1588 391 
Q 1994 391 2212 530 
Q 2431 669 2431 922 
Q 2431 1156 2273 1281 
Q 2116 1406 1581 1522 
L 1381 1569 
Q 847 1681 609 1914 
Q 372 2147 372 2553 
Q 372 3047 722 3315 
Q 1072 3584 1716 3584 
Q 2034 3584 2315 3537 
Q 2597 3491 2834 3397 
z
" transform="scale(0.015625)"/>
       <path id="DejaVuSans-74" d="M 1172 4494 
L 1172 3500 
L 2356 3500 
L 2356 3053 
L 1172 3053 
L 1172 1153 
Q 1172 725 1289 603 
Q 1406 481 1766 481 
L 2356 481 
L 2356 0 
L 1766 0 
Q 1100 0 847 248 
Q 594 497 594 1153 
L 594 3053 
L 172 3053 
L 172 3500 
L 594 3500 
L 594 4494 
L 1172 4494 
z
" transform="scale(0.015625)"/>
       <path id="DejaVuSans-70" d="M 1159 525 
L 1159 -1331 
L 581 -1331 
L 581 3500 
L 1159 3500 
L 1159 2969 
Q 1341 3281 1617 3432 
Q 1894 3584 2278 3584 
Q 2916 3584 3314 3078 
Q 3713 2572 3713 1747 
Q 3713 922 3314 415 
Q 2916 -91 2278 -91 
Q 1894 -91 1617 61 
Q 1341 213 1159 525 
z
M 3116 1747 
Q 3116 2381 2855 2742 
Q 2594 3103 2138 3103 
Q 1681 3103 1420 2742 
Q 1159 2381 1159 1747 
Q 1159 1113 1420 752 
Q 1681 391 2138 391 
Q 2594 391 2855 752 
Q 3116 1113 3116 1747 
z
" transform="scale(0.015625)"/>
       <path id="DejaVuSans-77" d="M 269 3500 
L 844 3500 
L 1563 769 
L 2278 3500 
L 2956 3500 
L 3675 769 
L 4391 3500 
L 4966 3500 
L 4050 0 
L 3372 0 
L 2619 2869 
L 1863 0 
L 1184 0 
L 269 3500 
z
" transform="scale(0.015625)"/>
      </defs>
      <use xlink:href="#DejaVuSans-52" transform="translate(0 0.171875)"/>
      <use xlink:href="#DejaVuSans-4d" transform="translate(69.482422 0.171875)"/>
      <use xlink:href="#DejaVuSans-53" transform="translate(155.761719 0.171875)"/>
      <use xlink:href="#DejaVuSans-44" transform="translate(219.238281 0.171875)"/>
      <use xlink:href="#DejaVuSans-20" transform="translate(296.240234 0.171875)"/>
      <use xlink:href="#DejaVuSans-73" transform="translate(328.027344 0.171875)"/>
      <use xlink:href="#DejaVuSans-74" transform="translate(380.126953 0.171875)"/>
      <use xlink:href="#DejaVuSans-65" transform="translate(419.335938 0.171875)"/>
      <use xlink:href="#DejaVuSans-70" transform="translate(480.859375 0.171875)"/>
      <use xlink:href="#DejaVuSans-77" transform="translate(544.335938 0.171875)"/>
      <use xlink:href="#DejaVuSans-69" transform="translate(626.123047 0.171875)"/>
      <use xlink:href="#DejaVuSans-73" transform="translate(653.90625 0.171875)"/>
      <use xlink:href="#DejaVuSans-65" transform="translate(706.005859 0.171875)"/>
      <use xlink:href="#DejaVuSans-20" transform="translate(767.529297 0.171875)"/>
      <use xlink:href="#DejaVuSans-5b" transform="translate(799.316406 0.171875)"/>
      <use xlink:href="#DejaVuSans-Oblique-c5" transform="translate(838.330078 0.171875)"/>
      <use xlink:href="#DejaVuSans-5d" transform="translate(906.738281 0.171875)"/>
     </g>
    </g>
   </g>
   <g id="LineCollection_17">
    <path d="M 524.439636 140.217 
L 549.914864 140.217 
" clip-path="url(#p13fedb60ff)" style="fill: none; stroke: #1f77b4; stroke-width: 1.5"/>
   </g>
   <g id="LineCollection_18">
    <path d="M 524.439636 57.342727 
L 549.914864 57.342727 
" clip-path="url(#p13fedb60ff)" style="fill: none; stroke: #1f77b4; stroke-width: 1.5"/>
   </g>
   <g id="LineCollection_19">
    <path d="M 524.439636 263.397273 
L 549.914864 263.397273 
" clip-path="url(#p13fedb60ff)" style="fill: none; stroke: #1f77b4; stroke-width: 1.5"/>
   </g>
   <g id="LineCollection_20">
    <path d="M 537.17725 263.397273 
L 537.17725 57.342727 
" clip-path="url(#p13fedb60ff)" style="fill: none; stroke: #1f77b4; stroke-width: 1.5"/>
   </g>
   <g id="patch_23">
    <path d="M 509.1545 273.7 
L 509.1545 47.04 
" style="fill: none; stroke: #000000; stroke-width: 0.8; stroke-linejoin: miter; stroke-linecap: square"/>
   </g>
   <g id="patch_24">
    <path d="M 565.2 273.7 
L 565.2 47.04 
" style="fill: none; stroke: #000000; stroke-width: 0.8; stroke-linejoin: miter; stroke-linecap: square"/>
   </g>
   <g id="patch_25">
    <path d="M 509.1545 273.7 
L 565.2 273.7 
" style="fill: none; stroke: #000000; stroke-width: 0.8; stroke-linejoin: miter; stroke-linecap: square"/>
   </g>
   <g id="patch_26">
    <path d="M 509.1545 47.04 
L 565.2 47.04 
" style="fill: none; stroke: #000000; stroke-width: 0.8; stroke-linejoin: miter; stroke-linecap: square"/>
   </g>
   <g id="text_42">
    <!-- RMSD stepwise -->
    <g transform="translate(491.125375 41.04)scale(0.12 -0.12)">
     <use xlink:href="#DejaVuSans-52"/>
     <use xlink:href="#DejaVuSans-4d" x="69.482422"/>
     <use xlink:href="#DejaVuSans-53" x="155.761719"/>
     <use xlink:href="#DejaVuSans-44" x="219.238281"/>
     <use xlink:href="#DejaVuSans-20" x="296.240234"/>
     <use xlink:href="#DejaVuSans-73" x="328.027344"/>
     <use xlink:href="#DejaVuSans-74" x="380.126953"/>
     <use xlink:href="#DejaVuSans-65" x="419.335938"/>
     <use xlink:href="#DejaVuSans-70" x="480.859375"/>
     <use xlink:href="#DejaVuSans-77" x="544.335938"/>
     <use xlink:href="#DejaVuSans-69" x="626.123047"/>
     <use xlink:href="#DejaVuSans-73" x="653.90625"/>
     <use xlink:href="#DejaVuSans-65" x="706.005859"/>
    </g>
   </g>
  </g>
  <g id="text_43">
   <!-- Compound 28. Rdkit -->
   <g transform="translate(226.573125 14.878125)scale(0.12 -0.12)">
    <defs>
     <path id="DejaVuSans-43" d="M 4122 4306 
L 4122 3641 
Q 3803 3938 3442 4084 
Q 3081 4231 2675 4231 
Q 1875 4231 1450 3742 
Q 1025 3253 1025 2328 
Q 1025 1406 1450 917 
Q 1875 428 2675 428 
Q 3081 428 3442 575 
Q 3803 722 4122 1019 
L 4122 359 
Q 3791 134 3420 21 
Q 3050 -91 2638 -91 
Q 1578 -91 968 557 
Q 359 1206 359 2328 
Q 359 3453 968 4101 
Q 1578 4750 2638 4750 
Q 3056 4750 3426 4639 
Q 3797 4528 4122 4306 
z
" transform="scale(0.015625)"/>
     <path id="DejaVuSans-6f" d="M 1959 3097 
Q 1497 3097 1228 2736 
Q 959 2375 959 1747 
Q 959 1119 1226 758 
Q 1494 397 1959 397 
Q 2419 397 2687 759 
Q 2956 1122 2956 1747 
Q 2956 2369 2687 2733 
Q 2419 3097 1959 3097 
z
M 1959 3584 
Q 2709 3584 3137 3096 
Q 3566 2609 3566 1747 
Q 3566 888 3137 398 
Q 2709 -91 1959 -91 
Q 1206 -91 779 398 
Q 353 888 353 1747 
Q 353 2609 779 3096 
Q 1206 3584 1959 3584 
z
" transform="scale(0.015625)"/>
     <path id="DejaVuSans-6d" d="M 3328 2828 
Q 3544 3216 3844 3400 
Q 4144 3584 4550 3584 
Q 5097 3584 5394 3201 
Q 5691 2819 5691 2113 
L 5691 0 
L 5113 0 
L 5113 2094 
Q 5113 2597 4934 2840 
Q 4756 3084 4391 3084 
Q 3944 3084 3684 2787 
Q 3425 2491 3425 1978 
L 3425 0 
L 2847 0 
L 2847 2094 
Q 2847 2600 2669 2842 
Q 2491 3084 2119 3084 
Q 1678 3084 1418 2786 
Q 1159 2488 1159 1978 
L 1159 0 
L 581 0 
L 581 3500 
L 1159 3500 
L 1159 2956 
Q 1356 3278 1631 3431 
Q 1906 3584 2284 3584 
Q 2666 3584 2933 3390 
Q 3200 3197 3328 2828 
z
" transform="scale(0.015625)"/>
     <path id="DejaVuSans-6e" d="M 3513 2113 
L 3513 0 
L 2938 0 
L 2938 2094 
Q 2938 2591 2744 2837 
Q 2550 3084 2163 3084 
Q 1697 3084 1428 2787 
Q 1159 2491 1159 1978 
L 1159 0 
L 581 0 
L 581 3500 
L 1159 3500 
L 1159 2956 
Q 1366 3272 1645 3428 
Q 1925 3584 2291 3584 
Q 2894 3584 3203 3211 
Q 3513 2838 3513 2113 
z
" transform="scale(0.015625)"/>
     <path id="DejaVuSans-6b" d="M 581 4863 
L 1159 4863 
L 1159 1991 
L 2875 3500 
L 3609 3500 
L 1753 1863 
L 3688 0 
L 2938 0 
L 1159 1709 
L 1159 0 
L 581 0 
L 581 4863 
z
" transform="scale(0.015625)"/>
    </defs>
    <use xlink:href="#DejaVuSans-43"/>
    <use xlink:href="#DejaVuSans-6f" x="69.824219"/>
    <use xlink:href="#DejaVuSans-6d" x="131.005859"/>
    <use xlink:href="#DejaVuSans-70" x="228.417969"/>
    <use xlink:href="#DejaVuSans-6f" x="291.894531"/>
    <use xlink:href="#DejaVuSans-75" x="353.076172"/>
    <use xlink:href="#DejaVuSans-6e" x="416.455078"/>
    <use xlink:href="#DejaVuSans-64" x="479.833984"/>
    <use xlink:href="#DejaVuSans-20" x="543.310547"/>
    <use xlink:href="#DejaVuSans-32" x="575.097656"/>
    <use xlink:href="#DejaVuSans-38" x="638.720703"/>
    <use xlink:href="#DejaVuSans-2e" x="702.34375"/>
    <use xlink:href="#DejaVuSans-20" x="734.130859"/>
    <use xlink:href="#DejaVuSans-52" x="765.917969"/>
    <use xlink:href="#DejaVuSans-64" x="835.400391"/>
    <use xlink:href="#DejaVuSans-6b" x="898.876953"/>
    <use xlink:href="#DejaVuSans-69" x="956.787109"/>
    <use xlink:href="#DejaVuSans-74" x="984.570312"/>
   </g>
  </g>
 </g>
 <defs>
  <clipPath id="p6a71c1c4da">
   <rect x="50.8925" y="47.04" width="56.0455" height="226.66"/>
  </clipPath>
  <clipPath id="pcf1a1d7080">
   <rect x="165.458" y="47.04" width="56.0455" height="226.66"/>
  </clipPath>
  <clipPath id="pb1c8b3c09f">
   <rect x="280.0235" y="47.04" width="56.0455" height="226.66"/>
  </clipPath>
  <clipPath id="pd122894279">
   <rect x="394.589" y="47.04" width="56.0455" height="226.66"/>
  </clipPath>
  <clipPath id="p13fedb60ff">
   <rect x="509.1545" y="47.04" width="56.0455" height="226.66"/>
  </clipPath>
 </defs>
</svg>
