<?xml version="1.0" encoding="utf-8" standalone="no"?>
<!DOCTYPE svg PUBLIC "-//W3C//DTD SVG 1.1//EN"
  "http://www.w3.org/Graphics/SVG/1.1/DTD/svg11.dtd">
<svg xmlns:xlink="http://www.w3.org/1999/xlink" width="576pt" height="288pt" viewBox="0 0 576 288" xmlns="http://www.w3.org/2000/svg" version="1.1">
 <metadata>
  <rdf:RDF xmlns:dc="http://purl.org/dc/elements/1.1/" xmlns:cc="http://creativecommons.org/ns#" xmlns:rdf="http://www.w3.org/1999/02/22-rdf-syntax-ns#">
   <cc:Work>
    <dc:type rdf:resource="http://purl.org/dc/dcmitype/StillImage"/>
    <dc:date>2023-05-31T12:24:05.783198</dc:date>
    <dc:format>image/svg+xml</dc:format>
    <dc:creator>
     <cc:Agent>
      <dc:title>Matplotlib v3.5.3, https://matplotlib.org/</dc:title>
     </cc:Agent>
    </dc:creator>
   </cc:Work>
  </rdf:RDF>
 </metadata>
 <defs>
  <style type="text/css">*{stroke-linejoin: round; stroke-linecap: butt}</style>
 </defs>
 <g id="figure_1">
  <g id="patch_1">
   <path d="M 0 288 
L 576 288 
L 576 0 
L 0 0 
z
" style="fill: #ffffff"/>
  </g>
  <g id="axes_1">
   <g id="patch_2">
    <path d="M 50.8925 271.08 
L 106.938 271.08 
L 106.938 47.04 
L 50.8925 47.04 
z
" style="fill: #ffffff"/>
   </g>
   <g id="PolyCollection_1">
    <path d="M 80.00532 260.896364 
L 77.82518 260.896364 
L 77.657536 258.839063 
L 77.478501 256.781763 
L 77.285743 254.724463 
L 77.07525 252.667163 
L 76.841351 250.609862 
L 76.576984 248.552562 
L 76.274195 246.495262 
L 75.924833 244.437961 
L 75.521376 242.380661 
L 75.057799 240.323361 
L 74.530404 238.266061 
L 73.938508 236.20876 
L 73.284911 234.15146 
L 72.576062 232.09416 
L 71.821856 230.03686 
L 71.03504 227.979559 
L 70.230225 225.922259 
L 69.422567 223.864959 
L 68.626249 221.807658 
L 67.852922 219.750358 
L 67.110331 217.693058 
L 66.401333 215.635758 
L 65.723482 213.578457 
L 65.069297 211.521157 
L 64.427227 209.463857 
L 63.783223 207.406556 
L 63.122718 205.349256 
L 62.432775 203.291956 
L 61.704096 201.234656 
L 60.932628 199.177355 
L 60.120537 197.120055 
L 59.27645 195.062755 
L 58.414955 193.005455 
L 57.555475 190.948154 
L 56.720718 188.890854 
L 55.934957 186.833554 
L 55.222366 184.776253 
L 54.605588 182.718953 
L 54.104608 180.661653 
L 53.735916 178.604353 
L 53.511849 176.547052 
L 53.440023 174.489752 
L 53.52276 172.432452 
L 53.756522 170.375152 
L 54.131464 168.317851 
L 54.63127 166.260551 
L 55.2335 164.203251 
L 55.910612 162.14595 
L 56.631707 160.08865 
L 57.364953 158.03135 
L 58.080404 155.97405 
L 58.752896 153.916749 
L 59.36455 151.859449 
L 59.906491 149.802149 
L 60.379454 147.744848 
L 60.793123 145.687548 
L 61.164278 143.630248 
L 61.513987 141.572948 
L 61.86429 139.515647 
L 62.234879 137.458347 
L 62.64026 135.401047 
L 63.087838 133.343747 
L 63.57712 131.286446 
L 64.100127 129.229146 
L 64.642845 127.171846 
L 65.187466 125.114545 
L 65.715054 123.057245 
L 66.208263 120.999945 
L 66.653772 118.942645 
L 67.044145 116.885344 
L 67.37893 114.828044 
L 67.664867 112.770744 
L 67.915207 110.713444 
L 68.148208 108.656143 
L 68.385001 106.598843 
L 68.647078 104.541543 
L 68.95373 102.484242 
L 69.319765 100.426942 
L 69.753818 98.369642 
L 70.257434 96.312342 
L 70.825039 94.255041 
L 71.444737 92.197741 
L 72.099767 90.140441 
L 72.770405 88.08314 
L 73.43601 86.02584 
L 74.076991 83.96854 
L 74.676469 81.91124 
L 75.221515 79.853939 
L 75.703876 77.796639 
L 76.120183 75.739339 
L 76.471681 73.682039 
L 76.763546 71.624738 
L 77.003896 69.567438 
L 77.202615 67.510138 
L 77.37013 65.452837 
L 77.516279 63.395537 
L 77.649395 61.338237 
L 77.775694 59.280937 
L 77.899014 57.223636 
L 79.931486 57.223636 
L 79.931486 57.223636 
L 80.054806 59.280937 
L 80.181105 61.338237 
L 80.314221 63.395537 
L 80.46037 65.452837 
L 80.627885 67.510138 
L 80.826604 69.567438 
L 81.066954 71.624738 
L 81.358819 73.682039 
L 81.710317 75.739339 
L 82.126624 77.796639 
L 82.608985 79.853939 
L 83.154031 81.91124 
L 83.753509 83.96854 
L 84.39449 86.02584 
L 85.060095 88.08314 
L 85.730733 90.140441 
L 86.385763 92.197741 
L 87.005461 94.255041 
L 87.573066 96.312342 
L 88.076682 98.369642 
L 88.510735 100.426942 
L 88.87677 102.484242 
L 89.183422 104.541543 
L 89.445499 106.598843 
L 89.682292 108.656143 
L 89.915293 110.713444 
L 90.165633 112.770744 
L 90.45157 114.828044 
L 90.786355 116.885344 
L 91.176728 118.942645 
L 91.622237 120.999945 
L 92.115446 123.057245 
L 92.643034 125.114545 
L 93.187655 127.171846 
L 93.730373 129.229146 
L 94.25338 131.286446 
L 94.742662 133.343747 
L 95.19024 135.401047 
L 95.595621 137.458347 
L 95.96621 139.515647 
L 96.316513 141.572948 
L 96.666222 143.630248 
L 97.037377 145.687548 
L 97.451046 147.744848 
L 97.924009 149.802149 
L 98.46595 151.859449 
L 99.077604 153.916749 
L 99.750096 155.97405 
L 100.465547 158.03135 
L 101.198793 160.08865 
L 101.919888 162.14595 
L 102.597 164.203251 
L 103.19923 166.260551 
L 103.699036 168.317851 
L 104.073978 170.375152 
L 104.30774 172.432452 
L 104.390477 174.489752 
L 104.318651 176.547052 
L 104.094584 178.604353 
L 103.725892 180.661653 
L 103.224912 182.718953 
L 102.608134 184.776253 
L 101.895543 186.833554 
L 101.109782 188.890854 
L 100.275025 190.948154 
L 99.415545 193.005455 
L 98.55405 195.062755 
L 97.709963 197.120055 
L 96.897872 199.177355 
L 96.126404 201.234656 
L 95.397725 203.291956 
L 94.707782 205.349256 
L 94.047277 207.406556 
L 93.403273 209.463857 
L 92.761203 211.521157 
L 92.107018 213.578457 
L 91.429167 215.635758 
L 90.720169 217.693058 
L 89.977578 219.750358 
L 89.204251 221.807658 
L 88.407933 223.864959 
L 87.600275 225.922259 
L 86.79546 227.979559 
L 86.008644 230.03686 
L 85.254438 232.09416 
L 84.545589 234.15146 
L 83.891992 236.20876 
L 83.300096 238.266061 
L 82.772701 240.323361 
L 82.309124 242.380661 
L 81.905667 244.437961 
L 81.556305 246.495262 
L 81.253516 248.552562 
L 80.989149 250.609862 
L 80.75525 252.667163 
L 80.544757 254.724463 
L 80.351999 256.781763 
L 80.172964 258.839063 
L 80.00532 260.896364 
z
" clip-path="url(#p3339820310)" style="fill: #1f77b4; fill-opacity: 0.3"/>
   </g>
   <g id="matplotlib.axis_1">
    <g id="ytick_1">
     <g id="line2d_1">
      <defs>
       <path id="m746820f027" d="M 0 0 
L -3.5 0 
" style="stroke: #000000; stroke-width: 0.8"/>
      </defs>
      <g>
       <use xlink:href="#m746820f027" x="50.8925" y="264.000068" style="stroke: #000000; stroke-width: 0.8"/>
      </g>
     </g>
     <g id="text_1">
      <!-- 0.3 -->
      <g transform="translate(27.989375 267.799287)scale(0.1 -0.1)">
       <defs>
        <path id="DejaVuSans-30" d="M 2034 4250 
Q 1547 4250 1301 3770 
Q 1056 3291 1056 2328 
Q 1056 1369 1301 889 
Q 1547 409 2034 409 
Q 2525 409 2770 889 
Q 3016 1369 3016 2328 
Q 3016 3291 2770 3770 
Q 2525 4250 2034 4250 
z
M 2034 4750 
Q 2819 4750 3233 4129 
Q 3647 3509 3647 2328 
Q 3647 1150 3233 529 
Q 2819 -91 2034 -91 
Q 1250 -91 836 529 
Q 422 1150 422 2328 
Q 422 3509 836 4129 
Q 1250 4750 2034 4750 
z
" transform="scale(0.015625)"/>
        <path id="DejaVuSans-2e" d="M 684 794 
L 1344 794 
L 1344 0 
L 684 0 
L 684 794 
z
" transform="scale(0.015625)"/>
        <path id="DejaVuSans-33" d="M 2597 2516 
Q 3050 2419 3304 2112 
Q 3559 1806 3559 1356 
Q 3559 666 3084 287 
Q 2609 -91 1734 -91 
Q 1441 -91 1130 -33 
Q 819 25 488 141 
L 488 750 
Q 750 597 1062 519 
Q 1375 441 1716 441 
Q 2309 441 2620 675 
Q 2931 909 2931 1356 
Q 2931 1769 2642 2001 
Q 2353 2234 1838 2234 
L 1294 2234 
L 1294 2753 
L 1863 2753 
Q 2328 2753 2575 2939 
Q 2822 3125 2822 3475 
Q 2822 3834 2567 4026 
Q 2313 4219 1838 4219 
Q 1578 4219 1281 4162 
Q 984 4106 628 3988 
L 628 4550 
Q 988 4650 1302 4700 
Q 1616 4750 1894 4750 
Q 2613 4750 3031 4423 
Q 3450 4097 3450 3541 
Q 3450 3153 3228 2886 
Q 3006 2619 2597 2516 
z
" transform="scale(0.015625)"/>
       </defs>
       <use xlink:href="#DejaVuSans-30"/>
       <use xlink:href="#DejaVuSans-2e" x="63.623047"/>
       <use xlink:href="#DejaVuSans-33" x="95.410156"/>
      </g>
     </g>
    </g>
    <g id="ytick_2">
     <g id="line2d_2">
      <g>
       <use xlink:href="#m746820f027" x="50.8925" y="216.512352" style="stroke: #000000; stroke-width: 0.8"/>
      </g>
     </g>
     <g id="text_2">
      <!-- 0.4 -->
      <g transform="translate(27.989375 220.311571)scale(0.1 -0.1)">
       <defs>
        <path id="DejaVuSans-34" d="M 2419 4116 
L 825 1625 
L 2419 1625 
L 2419 4116 
z
M 2253 4666 
L 3047 4666 
L 3047 1625 
L 3713 1625 
L 3713 1100 
L 3047 1100 
L 3047 0 
L 2419 0 
L 2419 1100 
L 313 1100 
L 313 1709 
L 2253 4666 
z
" transform="scale(0.015625)"/>
       </defs>
       <use xlink:href="#DejaVuSans-30"/>
       <use xlink:href="#DejaVuSans-2e" x="63.623047"/>
       <use xlink:href="#DejaVuSans-34" x="95.410156"/>
      </g>
     </g>
    </g>
    <g id="ytick_3">
     <g id="line2d_3">
      <g>
       <use xlink:href="#m746820f027" x="50.8925" y="169.024635" style="stroke: #000000; stroke-width: 0.8"/>
      </g>
     </g>
     <g id="text_3">
      <!-- 0.5 -->
      <g transform="translate(27.989375 172.823854)scale(0.1 -0.1)">
       <defs>
        <path id="DejaVuSans-35" d="M 691 4666 
L 3169 4666 
L 3169 4134 
L 1269 4134 
L 1269 2991 
Q 1406 3038 1543 3061 
Q 1681 3084 1819 3084 
Q 2600 3084 3056 2656 
Q 3513 2228 3513 1497 
Q 3513 744 3044 326 
Q 2575 -91 1722 -91 
Q 1428 -91 1123 -41 
Q 819 9 494 109 
L 494 744 
Q 775 591 1075 516 
Q 1375 441 1709 441 
Q 2250 441 2565 725 
Q 2881 1009 2881 1497 
Q 2881 1984 2565 2268 
Q 2250 2553 1709 2553 
Q 1456 2553 1204 2497 
Q 953 2441 691 2322 
L 691 4666 
z
" transform="scale(0.015625)"/>
       </defs>
       <use xlink:href="#DejaVuSans-30"/>
       <use xlink:href="#DejaVuSans-2e" x="63.623047"/>
       <use xlink:href="#DejaVuSans-35" x="95.410156"/>
      </g>
     </g>
    </g>
    <g id="ytick_4">
     <g id="line2d_4">
      <g>
       <use xlink:href="#m746820f027" x="50.8925" y="121.536919" style="stroke: #000000; stroke-width: 0.8"/>
      </g>
     </g>
     <g id="text_4">
      <!-- 0.6 -->
      <g transform="translate(27.989375 125.336138)scale(0.1 -0.1)">
       <defs>
        <path id="DejaVuSans-36" d="M 2113 2584 
Q 1688 2584 1439 2293 
Q 1191 2003 1191 1497 
Q 1191 994 1439 701 
Q 1688 409 2113 409 
Q 2538 409 2786 701 
Q 3034 994 3034 1497 
Q 3034 2003 2786 2293 
Q 2538 2584 2113 2584 
z
M 3366 4563 
L 3366 3988 
Q 3128 4100 2886 4159 
Q 2644 4219 2406 4219 
Q 1781 4219 1451 3797 
Q 1122 3375 1075 2522 
Q 1259 2794 1537 2939 
Q 1816 3084 2150 3084 
Q 2853 3084 3261 2657 
Q 3669 2231 3669 1497 
Q 3669 778 3244 343 
Q 2819 -91 2113 -91 
Q 1303 -91 875 529 
Q 447 1150 447 2328 
Q 447 3434 972 4092 
Q 1497 4750 2381 4750 
Q 2619 4750 2861 4703 
Q 3103 4656 3366 4563 
z
" transform="scale(0.015625)"/>
       </defs>
       <use xlink:href="#DejaVuSans-30"/>
       <use xlink:href="#DejaVuSans-2e" x="63.623047"/>
       <use xlink:href="#DejaVuSans-36" x="95.410156"/>
      </g>
     </g>
    </g>
    <g id="ytick_5">
     <g id="line2d_5">
      <g>
       <use xlink:href="#m746820f027" x="50.8925" y="74.049202" style="stroke: #000000; stroke-width: 0.8"/>
      </g>
     </g>
     <g id="text_5">
      <!-- 0.7 -->
      <g transform="translate(27.989375 77.848421)scale(0.1 -0.1)">
       <defs>
        <path id="DejaVuSans-37" d="M 525 4666 
L 3525 4666 
L 3525 4397 
L 1831 0 
L 1172 0 
L 2766 4134 
L 525 4134 
L 525 4666 
z
" transform="scale(0.015625)"/>
       </defs>
       <use xlink:href="#DejaVuSans-30"/>
       <use xlink:href="#DejaVuSans-2e" x="63.623047"/>
       <use xlink:href="#DejaVuSans-37" x="95.410156"/>
      </g>
     </g>
    </g>
    <g id="text_6">
     <!-- RMSD [$\AA$] -->
     <g transform="translate(21.909688 182.81)rotate(-90)scale(0.1 -0.1)">
      <defs>
       <path id="DejaVuSans-52" d="M 2841 2188 
Q 3044 2119 3236 1894 
Q 3428 1669 3622 1275 
L 4263 0 
L 3584 0 
L 2988 1197 
Q 2756 1666 2539 1819 
Q 2322 1972 1947 1972 
L 1259 1972 
L 1259 0 
L 628 0 
L 628 4666 
L 2053 4666 
Q 2853 4666 3247 4331 
Q 3641 3997 3641 3322 
Q 3641 2881 3436 2590 
Q 3231 2300 2841 2188 
z
M 1259 4147 
L 1259 2491 
L 2053 2491 
Q 2509 2491 2742 2702 
Q 2975 2913 2975 3322 
Q 2975 3731 2742 3939 
Q 2509 4147 2053 4147 
L 1259 4147 
z
" transform="scale(0.015625)"/>
       <path id="DejaVuSans-4d" d="M 628 4666 
L 1569 4666 
L 2759 1491 
L 3956 4666 
L 4897 4666 
L 4897 0 
L 4281 0 
L 4281 4097 
L 3078 897 
L 2444 897 
L 1241 4097 
L 1241 0 
L 628 0 
L 628 4666 
z
" transform="scale(0.015625)"/>
       <path id="DejaVuSans-53" d="M 3425 4513 
L 3425 3897 
Q 3066 4069 2747 4153 
Q 2428 4238 2131 4238 
Q 1616 4238 1336 4038 
Q 1056 3838 1056 3469 
Q 1056 3159 1242 3001 
Q 1428 2844 1947 2747 
L 2328 2669 
Q 3034 2534 3370 2195 
Q 3706 1856 3706 1288 
Q 3706 609 3251 259 
Q 2797 -91 1919 -91 
Q 1588 -91 1214 -16 
Q 841 59 441 206 
L 441 856 
Q 825 641 1194 531 
Q 1563 422 1919 422 
Q 2459 422 2753 634 
Q 3047 847 3047 1241 
Q 3047 1584 2836 1778 
Q 2625 1972 2144 2069 
L 1759 2144 
Q 1053 2284 737 2584 
Q 422 2884 422 3419 
Q 422 4038 858 4394 
Q 1294 4750 2059 4750 
Q 2388 4750 2728 4690 
Q 3069 4631 3425 4513 
z
" transform="scale(0.015625)"/>
       <path id="DejaVuSans-44" d="M 1259 4147 
L 1259 519 
L 2022 519 
Q 2988 519 3436 956 
Q 3884 1394 3884 2338 
Q 3884 3275 3436 3711 
Q 2988 4147 2022 4147 
L 1259 4147 
z
M 628 4666 
L 1925 4666 
Q 3281 4666 3915 4102 
Q 4550 3538 4550 2338 
Q 4550 1131 3912 565 
Q 3275 0 1925 0 
L 628 0 
L 628 4666 
z
" transform="scale(0.015625)"/>
       <path id="DejaVuSans-20" transform="scale(0.015625)"/>
       <path id="DejaVuSans-5b" d="M 550 4863 
L 1875 4863 
L 1875 4416 
L 1125 4416 
L 1125 -397 
L 1875 -397 
L 1875 -844 
L 550 -844 
L 550 4863 
z
" transform="scale(0.015625)"/>
       <path id="DejaVuSans-Oblique-c5" d="M 3188 5081 
Q 3188 5278 3048 5417 
Q 2909 5556 2713 5556 
Q 2513 5556 2377 5420 
Q 2241 5284 2241 5081 
Q 2241 4884 2377 4746 
Q 2513 4609 2713 4609 
Q 2909 4609 3048 4746 
Q 3188 4884 3188 5081 
z
M 2203 4397 
Q 2034 4513 1945 4689 
Q 1856 4866 1856 5081 
Q 1856 5438 2106 5689 
Q 2356 5941 2713 5941 
Q 3069 5941 3320 5689 
Q 3572 5438 3572 5081 
Q 3572 4834 3458 4643 
Q 3344 4453 3128 4341 
L 3938 0 
L 3278 0 
L 3084 1197 
L 984 1197 
L 325 0 
L -341 0 
L 2203 4397 
z
M 2584 4044 
L 1275 1722 
L 2988 1722 
L 2584 4044 
z
" transform="scale(0.015625)"/>
       <path id="DejaVuSans-5d" d="M 1947 4863 
L 1947 -844 
L 622 -844 
L 622 -397 
L 1369 -397 
L 1369 4416 
L 622 4416 
L 622 4863 
L 1947 4863 
z
" transform="scale(0.015625)"/>
      </defs>
      <use xlink:href="#DejaVuSans-52" transform="translate(0 0.171875)"/>
      <use xlink:href="#DejaVuSans-4d" transform="translate(69.482422 0.171875)"/>
      <use xlink:href="#DejaVuSans-53" transform="translate(155.761719 0.171875)"/>
      <use xlink:href="#DejaVuSans-44" transform="translate(219.238281 0.171875)"/>
      <use xlink:href="#DejaVuSans-20" transform="translate(296.240234 0.171875)"/>
      <use xlink:href="#DejaVuSans-5b" transform="translate(328.027344 0.171875)"/>
      <use xlink:href="#DejaVuSans-Oblique-c5" transform="translate(367.041016 0.171875)"/>
      <use xlink:href="#DejaVuSans-5d" transform="translate(435.449219 0.171875)"/>
     </g>
    </g>
   </g>
   <g id="LineCollection_1">
    <path d="M 66.177636 163.659109 
L 91.652864 163.659109 
" clip-path="url(#p3339820310)" style="fill: none; stroke: #1f77b4; stroke-width: 1.5"/>
   </g>
   <g id="LineCollection_2">
    <path d="M 66.177636 57.223636 
L 91.652864 57.223636 
" clip-path="url(#p3339820310)" style="fill: none; stroke: #1f77b4; stroke-width: 1.5"/>
   </g>
   <g id="LineCollection_3">
    <path d="M 66.177636 260.896364 
L 91.652864 260.896364 
" clip-path="url(#p3339820310)" style="fill: none; stroke: #1f77b4; stroke-width: 1.5"/>
   </g>
   <g id="LineCollection_4">
    <path d="M 78.91525 260.896364 
L 78.91525 57.223636 
" clip-path="url(#p3339820310)" style="fill: none; stroke: #1f77b4; stroke-width: 1.5"/>
   </g>
   <g id="patch_3">
    <path d="M 50.8925 271.08 
L 50.8925 47.04 
" style="fill: none; stroke: #000000; stroke-width: 0.8; stroke-linejoin: miter; stroke-linecap: square"/>
   </g>
   <g id="patch_4">
    <path d="M 106.938 271.08 
L 106.938 47.04 
" style="fill: none; stroke: #000000; stroke-width: 0.8; stroke-linejoin: miter; stroke-linecap: square"/>
   </g>
   <g id="patch_5">
    <path d="M 50.8925 271.08 
L 106.938 271.08 
" style="fill: none; stroke: #000000; stroke-width: 0.8; stroke-linejoin: miter; stroke-linecap: square"/>
   </g>
   <g id="patch_6">
    <path d="M 50.8925 47.04 
L 106.938 47.04 
" style="fill: none; stroke: #000000; stroke-width: 0.8; stroke-linejoin: miter; stroke-linecap: square"/>
   </g>
   <g id="text_7">
    <!-- RMSD -->
    <g transform="translate(61.14025 41.04)scale(0.12 -0.12)">
     <use xlink:href="#DejaVuSans-52"/>
     <use xlink:href="#DejaVuSans-4d" x="69.482422"/>
     <use xlink:href="#DejaVuSans-53" x="155.761719"/>
     <use xlink:href="#DejaVuSans-44" x="219.238281"/>
    </g>
   </g>
  </g>
  <g id="axes_2">
   <g id="patch_7">
    <path d="M 165.458 271.08 
L 221.5035 271.08 
L 221.5035 47.04 
L 165.458 47.04 
z
" style="fill: #ffffff"/>
   </g>
   <g id="PolyCollection_2">
    <path d="M 194.63142 260.896364 
L 192.33008 260.896364 
L 192.174842 258.839063 
L 192.013458 256.781763 
L 191.843702 254.724463 
L 191.661549 252.667163 
L 191.461313 250.609862 
L 191.236061 248.552562 
L 190.978246 246.495262 
L 190.680463 244.437961 
L 190.336186 242.380661 
L 189.940352 240.323361 
L 189.489693 238.266061 
L 188.982761 236.20876 
L 188.41969 234.15146 
L 187.801778 232.09416 
L 187.131048 230.03686 
L 186.409895 227.979559 
L 185.64095 225.922259 
L 184.827176 223.864959 
L 183.972181 221.807658 
L 183.080651 219.750358 
L 182.158786 217.693058 
L 181.214601 215.635758 
L 180.257999 213.578457 
L 179.30052 211.521157 
L 178.354767 209.463857 
L 177.433504 207.406556 
L 176.548529 205.349256 
L 175.709447 203.291956 
L 174.922553 201.234656 
L 174.190044 199.177355 
L 173.509773 197.120055 
L 172.875738 195.062755 
L 172.279308 193.005455 
L 171.7111 190.948154 
L 171.163208 188.890854 
L 170.631366 186.833554 
L 170.116579 184.776253 
L 169.625824 182.718953 
L 169.171572 180.661653 
L 168.770148 178.604353 
L 168.439192 176.547052 
L 168.194721 174.489752 
L 168.048388 172.432452 
L 168.005523 170.375152 
L 168.064379 168.317851 
L 168.216727 166.260551 
L 168.449646 164.203251 
L 168.748101 162.14595 
L 169.097705 160.08865 
L 169.487044 158.03135 
L 169.909079 155.97405 
L 170.361336 153.916749 
L 170.844908 151.859449 
L 171.362555 149.802149 
L 171.916369 147.744848 
L 172.505581 145.687548 
L 173.125 143.630248 
L 173.764439 141.572948 
L 174.409271 139.515647 
L 175.041995 137.458347 
L 175.64451 135.401047 
L 176.200696 133.343747 
L 176.698806 131.286446 
L 177.133288 129.229146 
L 177.505756 127.171846 
L 177.824964 125.114545 
L 178.105859 123.057245 
L 178.367873 120.999945 
L 178.632742 118.942645 
L 178.922154 116.885344 
L 179.255525 114.828044 
L 179.648143 112.770744 
L 180.109839 110.713444 
L 180.644277 108.656143 
L 181.248872 106.598843 
L 181.915275 104.541543 
L 182.630351 102.484242 
L 183.377498 100.426942 
L 184.138178 98.369642 
L 184.893497 96.312342 
L 185.625687 94.255041 
L 186.319384 92.197741 
L 186.962577 90.140441 
L 187.547196 88.08314 
L 188.069305 86.02584 
L 188.528924 83.96854 
L 188.929521 81.91124 
L 189.277278 79.853939 
L 189.580211 77.796639 
L 189.847259 75.739339 
L 190.087447 73.682039 
L 190.309194 71.624738 
L 190.519794 69.567438 
L 190.725105 67.510138 
L 190.929395 65.452837 
L 191.135314 63.395537 
L 191.34396 61.338237 
L 191.555007 59.280937 
L 191.766883 57.223636 
L 195.194617 57.223636 
L 195.194617 57.223636 
L 195.406493 59.280937 
L 195.61754 61.338237 
L 195.826186 63.395537 
L 196.032105 65.452837 
L 196.236395 67.510138 
L 196.441706 69.567438 
L 196.652306 71.624738 
L 196.874053 73.682039 
L 197.114241 75.739339 
L 197.381289 77.796639 
L 197.684222 79.853939 
L 198.031979 81.91124 
L 198.432576 83.96854 
L 198.892195 86.02584 
L 199.414304 88.08314 
L 199.998923 90.140441 
L 200.642116 92.197741 
L 201.335813 94.255041 
L 202.068003 96.312342 
L 202.823322 98.369642 
L 203.584002 100.426942 
L 204.331149 102.484242 
L 205.046225 104.541543 
L 205.712628 106.598843 
L 206.317223 108.656143 
L 206.851661 110.713444 
L 207.313357 112.770744 
L 207.705975 114.828044 
L 208.039346 116.885344 
L 208.328758 118.942645 
L 208.593627 120.999945 
L 208.855641 123.057245 
L 209.136536 125.114545 
L 209.455744 127.171846 
L 209.828212 129.229146 
L 210.262694 131.286446 
L 210.760804 133.343747 
L 211.31699 135.401047 
L 211.919505 137.458347 
L 212.552229 139.515647 
L 213.197061 141.572948 
L 213.8365 143.630248 
L 214.455919 145.687548 
L 215.045131 147.744848 
L 215.598945 149.802149 
L 216.116592 151.859449 
L 216.600164 153.916749 
L 217.052421 155.97405 
L 217.474456 158.03135 
L 217.863795 160.08865 
L 218.213399 162.14595 
L 218.511854 164.203251 
L 218.744773 166.260551 
L 218.897121 168.317851 
L 218.955977 170.375152 
L 218.913112 172.432452 
L 218.766779 174.489752 
L 218.522308 176.547052 
L 218.191352 178.604353 
L 217.789928 180.661653 
L 217.335676 182.718953 
L 216.844921 184.776253 
L 216.330134 186.833554 
L 215.798292 188.890854 
L 215.2504 190.948154 
L 214.682192 193.005455 
L 214.085762 195.062755 
L 213.451727 197.120055 
L 212.771456 199.177355 
L 212.038947 201.234656 
L 211.252053 203.291956 
L 210.412971 205.349256 
L 209.527996 207.406556 
L 208.606733 209.463857 
L 207.66098 211.521157 
L 206.703501 213.578457 
L 205.746899 215.635758 
L 204.802714 217.693058 
L 203.880849 219.750358 
L 202.989319 221.807658 
L 202.134324 223.864959 
L 201.32055 225.922259 
L 200.551605 227.979559 
L 199.830452 230.03686 
L 199.159722 232.09416 
L 198.54181 234.15146 
L 197.978739 236.20876 
L 197.471807 238.266061 
L 197.021148 240.323361 
L 196.625314 242.380661 
L 196.281037 244.437961 
L 195.983254 246.495262 
L 195.725439 248.552562 
L 195.500187 250.609862 
L 195.299951 252.667163 
L 195.117798 254.724463 
L 194.948042 256.781763 
L 194.786658 258.839063 
L 194.63142 260.896364 
z
" clip-path="url(#p756a105878)" style="fill: #1f77b4; fill-opacity: 0.3"/>
   </g>
   <g id="matplotlib.axis_2">
    <g id="ytick_6">
     <g id="line2d_6">
      <g>
       <use xlink:href="#m746820f027" x="165.458" y="263.212285" style="stroke: #000000; stroke-width: 0.8"/>
      </g>
     </g>
     <g id="text_8">
      <!-- 0.25 -->
      <g transform="translate(136.192375 267.011504)scale(0.1 -0.1)">
       <defs>
        <path id="DejaVuSans-32" d="M 1228 531 
L 3431 531 
L 3431 0 
L 469 0 
L 469 531 
Q 828 903 1448 1529 
Q 2069 2156 2228 2338 
Q 2531 2678 2651 2914 
Q 2772 3150 2772 3378 
Q 2772 3750 2511 3984 
Q 2250 4219 1831 4219 
Q 1534 4219 1204 4116 
Q 875 4013 500 3803 
L 500 4441 
Q 881 4594 1212 4672 
Q 1544 4750 1819 4750 
Q 2544 4750 2975 4387 
Q 3406 4025 3406 3419 
Q 3406 3131 3298 2873 
Q 3191 2616 2906 2266 
Q 2828 2175 2409 1742 
Q 1991 1309 1228 531 
z
" transform="scale(0.015625)"/>
       </defs>
       <use xlink:href="#DejaVuSans-30"/>
       <use xlink:href="#DejaVuSans-2e" x="63.623047"/>
       <use xlink:href="#DejaVuSans-32" x="95.410156"/>
       <use xlink:href="#DejaVuSans-35" x="159.033203"/>
      </g>
     </g>
    </g>
    <g id="ytick_7">
     <g id="line2d_7">
      <g>
       <use xlink:href="#m746820f027" x="165.458" y="227.402543" style="stroke: #000000; stroke-width: 0.8"/>
      </g>
     </g>
     <g id="text_9">
      <!-- 0.30 -->
      <g transform="translate(136.192375 231.201762)scale(0.1 -0.1)">
       <use xlink:href="#DejaVuSans-30"/>
       <use xlink:href="#DejaVuSans-2e" x="63.623047"/>
       <use xlink:href="#DejaVuSans-33" x="95.410156"/>
       <use xlink:href="#DejaVuSans-30" x="159.033203"/>
      </g>
     </g>
    </g>
    <g id="ytick_8">
     <g id="line2d_8">
      <g>
       <use xlink:href="#m746820f027" x="165.458" y="191.592801" style="stroke: #000000; stroke-width: 0.8"/>
      </g>
     </g>
     <g id="text_10">
      <!-- 0.35 -->
      <g transform="translate(136.192375 195.39202)scale(0.1 -0.1)">
       <use xlink:href="#DejaVuSans-30"/>
       <use xlink:href="#DejaVuSans-2e" x="63.623047"/>
       <use xlink:href="#DejaVuSans-33" x="95.410156"/>
       <use xlink:href="#DejaVuSans-35" x="159.033203"/>
      </g>
     </g>
    </g>
    <g id="ytick_9">
     <g id="line2d_9">
      <g>
       <use xlink:href="#m746820f027" x="165.458" y="155.783059" style="stroke: #000000; stroke-width: 0.8"/>
      </g>
     </g>
     <g id="text_11">
      <!-- 0.40 -->
      <g transform="translate(136.192375 159.582278)scale(0.1 -0.1)">
       <use xlink:href="#DejaVuSans-30"/>
       <use xlink:href="#DejaVuSans-2e" x="63.623047"/>
       <use xlink:href="#DejaVuSans-34" x="95.410156"/>
       <use xlink:href="#DejaVuSans-30" x="159.033203"/>
      </g>
     </g>
    </g>
    <g id="ytick_10">
     <g id="line2d_10">
      <g>
       <use xlink:href="#m746820f027" x="165.458" y="119.973317" style="stroke: #000000; stroke-width: 0.8"/>
      </g>
     </g>
     <g id="text_12">
      <!-- 0.45 -->
      <g transform="translate(136.192375 123.772536)scale(0.1 -0.1)">
       <use xlink:href="#DejaVuSans-30"/>
       <use xlink:href="#DejaVuSans-2e" x="63.623047"/>
       <use xlink:href="#DejaVuSans-34" x="95.410156"/>
       <use xlink:href="#DejaVuSans-35" x="159.033203"/>
      </g>
     </g>
    </g>
    <g id="ytick_11">
     <g id="line2d_11">
      <g>
       <use xlink:href="#m746820f027" x="165.458" y="84.163575" style="stroke: #000000; stroke-width: 0.8"/>
      </g>
     </g>
     <g id="text_13">
      <!-- 0.50 -->
      <g transform="translate(136.192375 87.962794)scale(0.1 -0.1)">
       <use xlink:href="#DejaVuSans-30"/>
       <use xlink:href="#DejaVuSans-2e" x="63.623047"/>
       <use xlink:href="#DejaVuSans-35" x="95.410156"/>
       <use xlink:href="#DejaVuSans-30" x="159.033203"/>
      </g>
     </g>
    </g>
    <g id="ytick_12">
     <g id="line2d_12">
      <g>
       <use xlink:href="#m746820f027" x="165.458" y="48.353833" style="stroke: #000000; stroke-width: 0.8"/>
      </g>
     </g>
     <g id="text_14">
      <!-- 0.55 -->
      <g transform="translate(136.192375 52.153052)scale(0.1 -0.1)">
       <use xlink:href="#DejaVuSans-30"/>
       <use xlink:href="#DejaVuSans-2e" x="63.623047"/>
       <use xlink:href="#DejaVuSans-35" x="95.410156"/>
       <use xlink:href="#DejaVuSans-35" x="159.033203"/>
      </g>
     </g>
    </g>
    <g id="text_15">
     <!-- MAE [$\AA$] -->
     <g transform="translate(130.112687 178.91)rotate(-90)scale(0.1 -0.1)">
      <defs>
       <path id="DejaVuSans-41" d="M 2188 4044 
L 1331 1722 
L 3047 1722 
L 2188 4044 
z
M 1831 4666 
L 2547 4666 
L 4325 0 
L 3669 0 
L 3244 1197 
L 1141 1197 
L 716 0 
L 50 0 
L 1831 4666 
z
" transform="scale(0.015625)"/>
       <path id="DejaVuSans-45" d="M 628 4666 
L 3578 4666 
L 3578 4134 
L 1259 4134 
L 1259 2753 
L 3481 2753 
L 3481 2222 
L 1259 2222 
L 1259 531 
L 3634 531 
L 3634 0 
L 628 0 
L 628 4666 
z
" transform="scale(0.015625)"/>
      </defs>
      <use xlink:href="#DejaVuSans-4d" transform="translate(0 0.171875)"/>
      <use xlink:href="#DejaVuSans-41" transform="translate(86.279297 0.171875)"/>
      <use xlink:href="#DejaVuSans-45" transform="translate(154.6875 0.171875)"/>
      <use xlink:href="#DejaVuSans-20" transform="translate(217.871094 0.171875)"/>
      <use xlink:href="#DejaVuSans-5b" transform="translate(249.658203 0.171875)"/>
      <use xlink:href="#DejaVuSans-Oblique-c5" transform="translate(288.671875 0.171875)"/>
      <use xlink:href="#DejaVuSans-5d" transform="translate(357.080078 0.171875)"/>
     </g>
    </g>
   </g>
   <g id="LineCollection_5">
    <path d="M 180.743136 161.02533 
L 206.218364 161.02533 
" clip-path="url(#p756a105878)" style="fill: none; stroke: #1f77b4; stroke-width: 1.5"/>
   </g>
   <g id="LineCollection_6">
    <path d="M 180.743136 57.223636 
L 206.218364 57.223636 
" clip-path="url(#p756a105878)" style="fill: none; stroke: #1f77b4; stroke-width: 1.5"/>
   </g>
   <g id="LineCollection_7">
    <path d="M 180.743136 260.896364 
L 206.218364 260.896364 
" clip-path="url(#p756a105878)" style="fill: none; stroke: #1f77b4; stroke-width: 1.5"/>
   </g>
   <g id="LineCollection_8">
    <path d="M 193.48075 260.896364 
L 193.48075 57.223636 
" clip-path="url(#p756a105878)" style="fill: none; stroke: #1f77b4; stroke-width: 1.5"/>
   </g>
   <g id="patch_8">
    <path d="M 165.458 271.08 
L 165.458 47.04 
" style="fill: none; stroke: #000000; stroke-width: 0.8; stroke-linejoin: miter; stroke-linecap: square"/>
   </g>
   <g id="patch_9">
    <path d="M 221.5035 271.08 
L 221.5035 47.04 
" style="fill: none; stroke: #000000; stroke-width: 0.8; stroke-linejoin: miter; stroke-linecap: square"/>
   </g>
   <g id="patch_10">
    <path d="M 165.458 271.08 
L 221.5035 271.08 
" style="fill: none; stroke: #000000; stroke-width: 0.8; stroke-linejoin: miter; stroke-linecap: square"/>
   </g>
   <g id="patch_11">
    <path d="M 165.458 47.04 
L 221.5035 47.04 
" style="fill: none; stroke: #000000; stroke-width: 0.8; stroke-linejoin: miter; stroke-linecap: square"/>
   </g>
   <g id="text_16">
    <!-- MAE -->
    <g transform="translate(180.40825 41.04)scale(0.12 -0.12)">
     <use xlink:href="#DejaVuSans-4d"/>
     <use xlink:href="#DejaVuSans-41" x="86.279297"/>
     <use xlink:href="#DejaVuSans-45" x="154.6875"/>
    </g>
   </g>
  </g>
  <g id="axes_3">
   <g id="patch_12">
    <path d="M 280.0235 271.08 
L 336.069 271.08 
L 336.069 47.04 
L 280.0235 47.04 
z
" style="fill: #ffffff"/>
   </g>
   <g id="PolyCollection_3">
    <path d="M 309.416297 260.896364 
L 306.676203 260.896364 
L 306.480109 258.839063 
L 306.282822 256.781763 
L 306.086122 254.724463 
L 305.890352 252.667163 
L 305.694245 250.609862 
L 305.494882 248.552562 
L 305.287756 246.495262 
L 305.066907 244.437961 
L 304.82511 242.380661 
L 304.554113 240.323361 
L 304.244963 238.266061 
L 303.888446 236.20876 
L 303.475701 234.15146 
L 302.999014 232.09416 
L 302.452756 230.03686 
L 301.834337 227.979559 
L 301.145015 225.922259 
L 300.390327 223.864959 
L 299.57997 221.807658 
L 298.727041 219.750358 
L 297.846693 217.693058 
L 296.954411 215.635758 
L 296.064229 213.578457 
L 295.187239 211.521157 
L 294.330657 209.463857 
L 293.497613 207.406556 
L 292.687621 205.349256 
L 291.89758 203.291956 
L 291.123058 201.234656 
L 290.35962 199.177355 
L 289.603999 197.120055 
L 288.855002 195.062755 
L 288.114106 193.005455 
L 287.385719 190.948154 
L 286.677103 188.890854 
L 285.997942 186.833554 
L 285.359547 184.776253 
L 284.773711 182.718953 
L 284.251326 180.661653 
L 283.800938 178.604353 
L 283.427488 176.547052 
L 283.131523 174.489752 
L 282.909083 172.432452 
L 282.752349 170.375152 
L 282.650982 168.317851 
L 282.593881 166.260551 
L 282.571023 164.203251 
L 282.57501 162.14595 
L 282.602055 160.08865 
L 282.652282 158.03135 
L 282.729403 155.97405 
L 282.839946 153.916749 
L 282.992271 151.859449 
L 283.195566 149.802149 
L 283.458949 147.744848 
L 283.790708 145.687548 
L 284.197664 143.630248 
L 284.684617 141.572948 
L 285.253884 139.515647 
L 285.904932 137.458347 
L 286.634181 135.401047 
L 287.434996 133.343747 
L 288.297897 131.286446 
L 289.21098 129.229146 
L 290.1605 127.171846 
L 291.131592 125.114545 
L 292.109064 123.057245 
L 293.078239 120.999945 
L 294.025789 118.942645 
L 294.940516 116.885344 
L 295.814018 114.828044 
L 296.641145 112.770744 
L 297.420191 110.713444 
L 298.152742 108.656143 
L 298.843153 106.598843 
L 299.497682 104.541543 
L 300.123371 102.484242 
L 300.726824 100.426942 
L 301.313061 98.369642 
L 301.884677 96.312342 
L 302.441424 94.255041 
L 302.980325 92.197741 
L 303.496279 90.140441 
L 303.983029 88.08314 
L 304.434314 86.02584 
L 304.844962 83.96854 
L 305.211742 81.91124 
L 305.533846 79.853939 
L 305.81295 77.796639 
L 306.052896 75.739339 
L 306.259094 73.682039 
L 306.437786 71.624738 
L 306.595294 69.567438 
L 306.737377 67.510138 
L 306.868762 65.452837 
L 306.992886 63.395537 
L 307.111837 61.338237 
L 307.226462 59.280937 
L 307.336606 57.223636 
L 308.755894 57.223636 
L 308.755894 57.223636 
L 308.866038 59.280937 
L 308.980663 61.338237 
L 309.099614 63.395537 
L 309.223738 65.452837 
L 309.355123 67.510138 
L 309.497206 69.567438 
L 309.654714 71.624738 
L 309.833406 73.682039 
L 310.039604 75.739339 
L 310.27955 77.796639 
L 310.558654 79.853939 
L 310.880758 81.91124 
L 311.247538 83.96854 
L 311.658186 86.02584 
L 312.109471 88.08314 
L 312.596221 90.140441 
L 313.112175 92.197741 
L 313.651076 94.255041 
L 314.207823 96.312342 
L 314.779439 98.369642 
L 315.365676 100.426942 
L 315.969129 102.484242 
L 316.594818 104.541543 
L 317.249347 106.598843 
L 317.939758 108.656143 
L 318.672309 110.713444 
L 319.451355 112.770744 
L 320.278482 114.828044 
L 321.151984 116.885344 
L 322.066711 118.942645 
L 323.014261 120.999945 
L 323.983436 123.057245 
L 324.960908 125.114545 
L 325.932 127.171846 
L 326.88152 129.229146 
L 327.794603 131.286446 
L 328.657504 133.343747 
L 329.458319 135.401047 
L 330.187568 137.458347 
L 330.838616 139.515647 
L 331.407883 141.572948 
L 331.894836 143.630248 
L 332.301792 145.687548 
L 332.633551 147.744848 
L 332.896934 149.802149 
L 333.100229 151.859449 
L 333.252554 153.916749 
L 333.363097 155.97405 
L 333.440218 158.03135 
L 333.490445 160.08865 
L 333.51749 162.14595 
L 333.521477 164.203251 
L 333.498619 166.260551 
L 333.441518 168.317851 
L 333.340151 170.375152 
L 333.183417 172.432452 
L 332.960977 174.489752 
L 332.665012 176.547052 
L 332.291562 178.604353 
L 331.841174 180.661653 
L 331.318789 182.718953 
L 330.732953 184.776253 
L 330.094558 186.833554 
L 329.415397 188.890854 
L 328.706781 190.948154 
L 327.978394 193.005455 
L 327.237498 195.062755 
L 326.488501 197.120055 
L 325.73288 199.177355 
L 324.969442 201.234656 
L 324.19492 203.291956 
L 323.404879 205.349256 
L 322.594887 207.406556 
L 321.761843 209.463857 
L 320.905261 211.521157 
L 320.028271 213.578457 
L 319.138089 215.635758 
L 318.245807 217.693058 
L 317.365459 219.750358 
L 316.51253 221.807658 
L 315.702173 223.864959 
L 314.947485 225.922259 
L 314.258163 227.979559 
L 313.639744 230.03686 
L 313.093486 232.09416 
L 312.616799 234.15146 
L 312.204054 236.20876 
L 311.847537 238.266061 
L 311.538387 240.323361 
L 311.26739 242.380661 
L 311.025593 244.437961 
L 310.804744 246.495262 
L 310.597618 248.552562 
L 310.398255 250.609862 
L 310.202148 252.667163 
L 310.006378 254.724463 
L 309.809678 256.781763 
L 309.612391 258.839063 
L 309.416297 260.896364 
z
" clip-path="url(#p358b2a14f3)" style="fill: #1f77b4; fill-opacity: 0.3"/>
   </g>
   <g id="matplotlib.axis_3">
    <g id="ytick_13">
     <g id="line2d_13">
      <g>
       <use xlink:href="#m746820f027" x="280.0235" y="267.305183" style="stroke: #000000; stroke-width: 0.8"/>
      </g>
     </g>
     <g id="text_17">
      <!-- 0.0 -->
      <g transform="translate(257.120375 271.104401)scale(0.1 -0.1)">
       <use xlink:href="#DejaVuSans-30"/>
       <use xlink:href="#DejaVuSans-2e" x="63.623047"/>
       <use xlink:href="#DejaVuSans-30" x="95.410156"/>
      </g>
     </g>
    </g>
    <g id="ytick_14">
     <g id="line2d_14">
      <g>
       <use xlink:href="#m746820f027" x="280.0235" y="219.626621" style="stroke: #000000; stroke-width: 0.8"/>
      </g>
     </g>
     <g id="text_18">
      <!-- 0.1 -->
      <g transform="translate(257.120375 223.42584)scale(0.1 -0.1)">
       <defs>
        <path id="DejaVuSans-31" d="M 794 531 
L 1825 531 
L 1825 4091 
L 703 3866 
L 703 4441 
L 1819 4666 
L 2450 4666 
L 2450 531 
L 3481 531 
L 3481 0 
L 794 0 
L 794 531 
z
" transform="scale(0.015625)"/>
       </defs>
       <use xlink:href="#DejaVuSans-30"/>
       <use xlink:href="#DejaVuSans-2e" x="63.623047"/>
       <use xlink:href="#DejaVuSans-31" x="95.410156"/>
      </g>
     </g>
    </g>
    <g id="ytick_15">
     <g id="line2d_15">
      <g>
       <use xlink:href="#m746820f027" x="280.0235" y="171.948059" style="stroke: #000000; stroke-width: 0.8"/>
      </g>
     </g>
     <g id="text_19">
      <!-- 0.2 -->
      <g transform="translate(257.120375 175.747278)scale(0.1 -0.1)">
       <use xlink:href="#DejaVuSans-30"/>
       <use xlink:href="#DejaVuSans-2e" x="63.623047"/>
       <use xlink:href="#DejaVuSans-32" x="95.410156"/>
      </g>
     </g>
    </g>
    <g id="ytick_16">
     <g id="line2d_16">
      <g>
       <use xlink:href="#m746820f027" x="280.0235" y="124.269498" style="stroke: #000000; stroke-width: 0.8"/>
      </g>
     </g>
     <g id="text_20">
      <!-- 0.3 -->
      <g transform="translate(257.120375 128.068717)scale(0.1 -0.1)">
       <use xlink:href="#DejaVuSans-30"/>
       <use xlink:href="#DejaVuSans-2e" x="63.623047"/>
       <use xlink:href="#DejaVuSans-33" x="95.410156"/>
      </g>
     </g>
    </g>
    <g id="ytick_17">
     <g id="line2d_17">
      <g>
       <use xlink:href="#m746820f027" x="280.0235" y="76.590936" style="stroke: #000000; stroke-width: 0.8"/>
      </g>
     </g>
     <g id="text_21">
      <!-- 0.4 -->
      <g transform="translate(257.120375 80.390155)scale(0.1 -0.1)">
       <use xlink:href="#DejaVuSans-30"/>
       <use xlink:href="#DejaVuSans-2e" x="63.623047"/>
       <use xlink:href="#DejaVuSans-34" x="95.410156"/>
      </g>
     </g>
    </g>
    <g id="text_22">
     <!-- MSE [$\AA$] -->
     <g transform="translate(251.040687 178.66)rotate(-90)scale(0.1 -0.1)">
      <use xlink:href="#DejaVuSans-4d" transform="translate(0 0.171875)"/>
      <use xlink:href="#DejaVuSans-53" transform="translate(86.279297 0.171875)"/>
      <use xlink:href="#DejaVuSans-45" transform="translate(149.755859 0.171875)"/>
      <use xlink:href="#DejaVuSans-20" transform="translate(212.939453 0.171875)"/>
      <use xlink:href="#DejaVuSans-5b" transform="translate(244.726562 0.171875)"/>
      <use xlink:href="#DejaVuSans-Oblique-c5" transform="translate(283.740234 0.171875)"/>
      <use xlink:href="#DejaVuSans-5d" transform="translate(352.148438 0.171875)"/>
     </g>
    </g>
   </g>
   <g id="LineCollection_9">
    <path d="M 295.308636 163.100541 
L 320.783864 163.100541 
" clip-path="url(#p358b2a14f3)" style="fill: none; stroke: #1f77b4; stroke-width: 1.5"/>
   </g>
   <g id="LineCollection_10">
    <path d="M 295.308636 57.223636 
L 320.783864 57.223636 
" clip-path="url(#p358b2a14f3)" style="fill: none; stroke: #1f77b4; stroke-width: 1.5"/>
   </g>
   <g id="LineCollection_11">
    <path d="M 295.308636 260.896364 
L 320.783864 260.896364 
" clip-path="url(#p358b2a14f3)" style="fill: none; stroke: #1f77b4; stroke-width: 1.5"/>
   </g>
   <g id="LineCollection_12">
    <path d="M 308.04625 260.896364 
L 308.04625 57.223636 
" clip-path="url(#p358b2a14f3)" style="fill: none; stroke: #1f77b4; stroke-width: 1.5"/>
   </g>
   <g id="patch_13">
    <path d="M 280.0235 271.08 
L 280.0235 47.04 
" style="fill: none; stroke: #000000; stroke-width: 0.8; stroke-linejoin: miter; stroke-linecap: square"/>
   </g>
   <g id="patch_14">
    <path d="M 336.069 271.08 
L 336.069 47.04 
" style="fill: none; stroke: #000000; stroke-width: 0.8; stroke-linejoin: miter; stroke-linecap: square"/>
   </g>
   <g id="patch_15">
    <path d="M 280.0235 271.08 
L 336.069 271.08 
" style="fill: none; stroke: #000000; stroke-width: 0.8; stroke-linejoin: miter; stroke-linecap: square"/>
   </g>
   <g id="patch_16">
    <path d="M 280.0235 47.04 
L 336.069 47.04 
" style="fill: none; stroke: #000000; stroke-width: 0.8; stroke-linejoin: miter; stroke-linecap: square"/>
   </g>
   <g id="text_23">
    <!-- MSE -->
    <g transform="translate(295.269062 41.04)scale(0.12 -0.12)">
     <use xlink:href="#DejaVuSans-4d"/>
     <use xlink:href="#DejaVuSans-53" x="86.279297"/>
     <use xlink:href="#DejaVuSans-45" x="149.755859"/>
    </g>
   </g>
  </g>
  <g id="axes_4">
   <g id="patch_17">
    <path d="M 394.589 271.08 
L 450.6345 271.08 
L 450.6345 47.04 
L 394.589 47.04 
z
" style="fill: #ffffff"/>
   </g>
   <g id="PolyCollection_4">
    <path d="M 424.549434 260.896364 
L 420.674066 260.896364 
L 420.491201 258.839063 
L 420.29161 256.781763 
L 420.066086 254.724463 
L 419.8069 252.667163 
L 419.509851 250.609862 
L 419.175755 248.552562 
L 418.81093 246.495262 
L 418.426317 244.437961 
L 418.035276 242.380661 
L 417.650374 240.323361 
L 417.279869 238.266061 
L 416.924748 236.20876 
L 416.577207 234.15146 
L 416.221175 232.09416 
L 415.835066 230.03686 
L 415.396339 227.979559 
L 414.886925 225.922259 
L 414.298192 223.864959 
L 413.634052 221.807658 
L 412.91114 219.750358 
L 412.155601 217.693058 
L 411.396896 215.635758 
L 410.659912 213.578457 
L 409.957258 211.521157 
L 409.283897 209.463857 
L 408.615886 207.406556 
L 407.914182 205.349256 
L 407.133224 203.291956 
L 406.232733 201.234656 
L 405.190118 199.177355 
L 404.010398 197.120055 
L 402.730832 195.062755 
L 401.418463 193.005455 
L 400.1604 190.948154 
L 399.048456 188.890854 
L 398.161288 186.833554 
L 397.548093 184.776253 
L 397.217786 182.718953 
L 397.136523 180.661653 
L 397.234572 178.604353 
L 397.421299 176.547052 
L 397.605073 174.489752 
L 397.713589 172.432452 
L 397.709942 170.375152 
L 397.600672 168.317851 
L 397.43393 166.260551 
L 397.288196 164.203251 
L 397.254215 162.14595 
L 397.414412 160.08865 
L 397.824495 158.03135 
L 398.501378 155.97405 
L 399.419935 153.916749 
L 400.518907 151.859449 
L 401.7142 149.802149 
L 402.916141 147.744848 
L 404.046558 145.687548 
L 405.05188 143.630248 
L 405.90963 141.572948 
L 406.627439 139.515647 
L 407.23555 137.458347 
L 407.775215 135.401047 
L 408.28616 133.343747 
L 408.796252 131.286446 
L 409.315669 129.229146 
L 409.836584 127.171846 
L 410.337931 125.114545 
L 410.793584 123.057245 
L 411.181584 120.999945 
L 411.491919 118.942645 
L 411.73093 116.885344 
L 411.921349 114.828044 
L 412.09815 112.770744 
L 412.301362 110.713444 
L 412.567732 108.656143 
L 412.923223 106.598843 
L 413.378057 104.541543 
L 413.925269 102.484242 
L 414.542876 100.426942 
L 415.1989 98.369642 
L 415.857921 96.312342 
L 416.48762 94.255041 
L 417.063913 92.197741 
L 417.573786 90.140441 
L 418.015526 88.08314 
L 418.39668 86.02584 
L 418.730531 83.96854 
L 419.032065 81.91124 
L 419.314415 79.853939 
L 419.586449 77.796639 
L 419.851839 75.739339 
L 420.109544 73.682039 
L 420.355333 71.624738 
L 420.583784 69.567438 
L 420.790221 67.510138 
L 420.972121 65.452837 
L 421.129755 63.395537 
L 421.266046 61.338237 
L 421.3858 59.280937 
L 421.494592 57.223636 
L 423.728908 57.223636 
L 423.728908 57.223636 
L 423.8377 59.280937 
L 423.957454 61.338237 
L 424.093745 63.395537 
L 424.251379 65.452837 
L 424.433279 67.510138 
L 424.639716 69.567438 
L 424.868167 71.624738 
L 425.113956 73.682039 
L 425.371661 75.739339 
L 425.637051 77.796639 
L 425.909085 79.853939 
L 426.191435 81.91124 
L 426.492969 83.96854 
L 426.82682 86.02584 
L 427.207974 88.08314 
L 427.649714 90.140441 
L 428.159587 92.197741 
L 428.73588 94.255041 
L 429.365579 96.312342 
L 430.0246 98.369642 
L 430.680624 100.426942 
L 431.298231 102.484242 
L 431.845443 104.541543 
L 432.300277 106.598843 
L 432.655768 108.656143 
L 432.922138 110.713444 
L 433.12535 112.770744 
L 433.302151 114.828044 
L 433.49257 116.885344 
L 433.731581 118.942645 
L 434.041916 120.999945 
L 434.429916 123.057245 
L 434.885569 125.114545 
L 435.386916 127.171846 
L 435.907831 129.229146 
L 436.427248 131.286446 
L 436.93734 133.343747 
L 437.448285 135.401047 
L 437.98795 137.458347 
L 438.596061 139.515647 
L 439.31387 141.572948 
L 440.17162 143.630248 
L 441.176942 145.687548 
L 442.307359 147.744848 
L 443.5093 149.802149 
L 444.704593 151.859449 
L 445.803565 153.916749 
L 446.722122 155.97405 
L 447.399005 158.03135 
L 447.809088 160.08865 
L 447.969285 162.14595 
L 447.935304 164.203251 
L 447.78957 166.260551 
L 447.622828 168.317851 
L 447.513558 170.375152 
L 447.509911 172.432452 
L 447.618427 174.489752 
L 447.802201 176.547052 
L 447.988928 178.604353 
L 448.086977 180.661653 
L 448.005714 182.718953 
L 447.675407 184.776253 
L 447.062212 186.833554 
L 446.175044 188.890854 
L 445.0631 190.948154 
L 443.805037 193.005455 
L 442.492668 195.062755 
L 441.213102 197.120055 
L 440.033382 199.177355 
L 438.990767 201.234656 
L 438.090276 203.291956 
L 437.309318 205.349256 
L 436.607614 207.406556 
L 435.939603 209.463857 
L 435.266242 211.521157 
L 434.563588 213.578457 
L 433.826604 215.635758 
L 433.067899 217.693058 
L 432.31236 219.750358 
L 431.589448 221.807658 
L 430.925308 223.864959 
L 430.336575 225.922259 
L 429.827161 227.979559 
L 429.388434 230.03686 
L 429.002325 232.09416 
L 428.646293 234.15146 
L 428.298752 236.20876 
L 427.943631 238.266061 
L 427.573126 240.323361 
L 427.188224 242.380661 
L 426.797183 244.437961 
L 426.41257 246.495262 
L 426.047745 248.552562 
L 425.713649 250.609862 
L 425.4166 252.667163 
L 425.157414 254.724463 
L 424.93189 256.781763 
L 424.732299 258.839063 
L 424.549434 260.896364 
z
" clip-path="url(#pcce5647d40)" style="fill: #1f77b4; fill-opacity: 0.3"/>
   </g>
   <g id="matplotlib.axis_4">
    <g id="ytick_18">
     <g id="line2d_18">
      <g>
       <use xlink:href="#m746820f027" x="394.589" y="271.08" style="stroke: #000000; stroke-width: 0.8"/>
      </g>
     </g>
     <g id="text_24">
      <!-- 0.30 -->
      <g transform="translate(365.323375 274.879219)scale(0.1 -0.1)">
       <use xlink:href="#DejaVuSans-30"/>
       <use xlink:href="#DejaVuSans-2e" x="63.623047"/>
       <use xlink:href="#DejaVuSans-33" x="95.410156"/>
       <use xlink:href="#DejaVuSans-30" x="159.033203"/>
      </g>
     </g>
    </g>
    <g id="ytick_19">
     <g id="line2d_19">
      <g>
       <use xlink:href="#m746820f027" x="394.589" y="243.075" style="stroke: #000000; stroke-width: 0.8"/>
      </g>
     </g>
     <g id="text_25">
      <!-- 0.35 -->
      <g transform="translate(365.323375 246.874219)scale(0.1 -0.1)">
       <use xlink:href="#DejaVuSans-30"/>
       <use xlink:href="#DejaVuSans-2e" x="63.623047"/>
       <use xlink:href="#DejaVuSans-33" x="95.410156"/>
       <use xlink:href="#DejaVuSans-35" x="159.033203"/>
      </g>
     </g>
    </g>
    <g id="ytick_20">
     <g id="line2d_20">
      <g>
       <use xlink:href="#m746820f027" x="394.589" y="215.07" style="stroke: #000000; stroke-width: 0.8"/>
      </g>
     </g>
     <g id="text_26">
      <!-- 0.40 -->
      <g transform="translate(365.323375 218.869219)scale(0.1 -0.1)">
       <use xlink:href="#DejaVuSans-30"/>
       <use xlink:href="#DejaVuSans-2e" x="63.623047"/>
       <use xlink:href="#DejaVuSans-34" x="95.410156"/>
       <use xlink:href="#DejaVuSans-30" x="159.033203"/>
      </g>
     </g>
    </g>
    <g id="ytick_21">
     <g id="line2d_21">
      <g>
       <use xlink:href="#m746820f027" x="394.589" y="187.065" style="stroke: #000000; stroke-width: 0.8"/>
      </g>
     </g>
     <g id="text_27">
      <!-- 0.45 -->
      <g transform="translate(365.323375 190.864219)scale(0.1 -0.1)">
       <use xlink:href="#DejaVuSans-30"/>
       <use xlink:href="#DejaVuSans-2e" x="63.623047"/>
       <use xlink:href="#DejaVuSans-34" x="95.410156"/>
       <use xlink:href="#DejaVuSans-35" x="159.033203"/>
      </g>
     </g>
    </g>
    <g id="ytick_22">
     <g id="line2d_22">
      <g>
       <use xlink:href="#m746820f027" x="394.589" y="159.06" style="stroke: #000000; stroke-width: 0.8"/>
      </g>
     </g>
     <g id="text_28">
      <!-- 0.50 -->
      <g transform="translate(365.323375 162.859219)scale(0.1 -0.1)">
       <use xlink:href="#DejaVuSans-30"/>
       <use xlink:href="#DejaVuSans-2e" x="63.623047"/>
       <use xlink:href="#DejaVuSans-35" x="95.410156"/>
       <use xlink:href="#DejaVuSans-30" x="159.033203"/>
      </g>
     </g>
    </g>
    <g id="ytick_23">
     <g id="line2d_23">
      <g>
       <use xlink:href="#m746820f027" x="394.589" y="131.055" style="stroke: #000000; stroke-width: 0.8"/>
      </g>
     </g>
     <g id="text_29">
      <!-- 0.55 -->
      <g transform="translate(365.323375 134.854219)scale(0.1 -0.1)">
       <use xlink:href="#DejaVuSans-30"/>
       <use xlink:href="#DejaVuSans-2e" x="63.623047"/>
       <use xlink:href="#DejaVuSans-35" x="95.410156"/>
       <use xlink:href="#DejaVuSans-35" x="159.033203"/>
      </g>
     </g>
    </g>
    <g id="ytick_24">
     <g id="line2d_24">
      <g>
       <use xlink:href="#m746820f027" x="394.589" y="103.05" style="stroke: #000000; stroke-width: 0.8"/>
      </g>
     </g>
     <g id="text_30">
      <!-- 0.60 -->
      <g transform="translate(365.323375 106.849219)scale(0.1 -0.1)">
       <use xlink:href="#DejaVuSans-30"/>
       <use xlink:href="#DejaVuSans-2e" x="63.623047"/>
       <use xlink:href="#DejaVuSans-36" x="95.410156"/>
       <use xlink:href="#DejaVuSans-30" x="159.033203"/>
      </g>
     </g>
    </g>
    <g id="ytick_25">
     <g id="line2d_25">
      <g>
       <use xlink:href="#m746820f027" x="394.589" y="75.045" style="stroke: #000000; stroke-width: 0.8"/>
      </g>
     </g>
     <g id="text_31">
      <!-- 0.65 -->
      <g transform="translate(365.323375 78.844219)scale(0.1 -0.1)">
       <use xlink:href="#DejaVuSans-30"/>
       <use xlink:href="#DejaVuSans-2e" x="63.623047"/>
       <use xlink:href="#DejaVuSans-36" x="95.410156"/>
       <use xlink:href="#DejaVuSans-35" x="159.033203"/>
      </g>
     </g>
    </g>
    <g id="ytick_26">
     <g id="line2d_26">
      <g>
       <use xlink:href="#m746820f027" x="394.589" y="47.04" style="stroke: #000000; stroke-width: 0.8"/>
      </g>
     </g>
     <g id="text_32">
      <!-- 0.70 -->
      <g transform="translate(365.323375 50.839219)scale(0.1 -0.1)">
       <use xlink:href="#DejaVuSans-30"/>
       <use xlink:href="#DejaVuSans-2e" x="63.623047"/>
       <use xlink:href="#DejaVuSans-37" x="95.410156"/>
       <use xlink:href="#DejaVuSans-30" x="159.033203"/>
      </g>
     </g>
    </g>
    <g id="text_33">
     <!-- % NOE fulfilled [1/100 %] -->
     <g transform="translate(359.243688 222.560781)rotate(-90)scale(0.1 -0.1)">
      <defs>
       <path id="DejaVuSans-25" d="M 4653 2053 
Q 4381 2053 4226 1822 
Q 4072 1591 4072 1178 
Q 4072 772 4226 539 
Q 4381 306 4653 306 
Q 4919 306 5073 539 
Q 5228 772 5228 1178 
Q 5228 1588 5073 1820 
Q 4919 2053 4653 2053 
z
M 4653 2450 
Q 5147 2450 5437 2106 
Q 5728 1763 5728 1178 
Q 5728 594 5436 251 
Q 5144 -91 4653 -91 
Q 4153 -91 3862 251 
Q 3572 594 3572 1178 
Q 3572 1766 3864 2108 
Q 4156 2450 4653 2450 
z
M 1428 4353 
Q 1159 4353 1004 4120 
Q 850 3888 850 3481 
Q 850 3069 1003 2837 
Q 1156 2606 1428 2606 
Q 1700 2606 1854 2837 
Q 2009 3069 2009 3481 
Q 2009 3884 1853 4118 
Q 1697 4353 1428 4353 
z
M 4250 4750 
L 4750 4750 
L 1831 -91 
L 1331 -91 
L 4250 4750 
z
M 1428 4750 
Q 1922 4750 2215 4408 
Q 2509 4066 2509 3481 
Q 2509 2891 2217 2550 
Q 1925 2209 1428 2209 
Q 931 2209 642 2551 
Q 353 2894 353 3481 
Q 353 4063 643 4406 
Q 934 4750 1428 4750 
z
" transform="scale(0.015625)"/>
       <path id="DejaVuSans-4e" d="M 628 4666 
L 1478 4666 
L 3547 763 
L 3547 4666 
L 4159 4666 
L 4159 0 
L 3309 0 
L 1241 3903 
L 1241 0 
L 628 0 
L 628 4666 
z
" transform="scale(0.015625)"/>
       <path id="DejaVuSans-4f" d="M 2522 4238 
Q 1834 4238 1429 3725 
Q 1025 3213 1025 2328 
Q 1025 1447 1429 934 
Q 1834 422 2522 422 
Q 3209 422 3611 934 
Q 4013 1447 4013 2328 
Q 4013 3213 3611 3725 
Q 3209 4238 2522 4238 
z
M 2522 4750 
Q 3503 4750 4090 4092 
Q 4678 3434 4678 2328 
Q 4678 1225 4090 567 
Q 3503 -91 2522 -91 
Q 1538 -91 948 565 
Q 359 1222 359 2328 
Q 359 3434 948 4092 
Q 1538 4750 2522 4750 
z
" transform="scale(0.015625)"/>
       <path id="DejaVuSans-66" d="M 2375 4863 
L 2375 4384 
L 1825 4384 
Q 1516 4384 1395 4259 
Q 1275 4134 1275 3809 
L 1275 3500 
L 2222 3500 
L 2222 3053 
L 1275 3053 
L 1275 0 
L 697 0 
L 697 3053 
L 147 3053 
L 147 3500 
L 697 3500 
L 697 3744 
Q 697 4328 969 4595 
Q 1241 4863 1831 4863 
L 2375 4863 
z
" transform="scale(0.015625)"/>
       <path id="DejaVuSans-75" d="M 544 1381 
L 544 3500 
L 1119 3500 
L 1119 1403 
Q 1119 906 1312 657 
Q 1506 409 1894 409 
Q 2359 409 2629 706 
Q 2900 1003 2900 1516 
L 2900 3500 
L 3475 3500 
L 3475 0 
L 2900 0 
L 2900 538 
Q 2691 219 2414 64 
Q 2138 -91 1772 -91 
Q 1169 -91 856 284 
Q 544 659 544 1381 
z
M 1991 3584 
L 1991 3584 
z
" transform="scale(0.015625)"/>
       <path id="DejaVuSans-6c" d="M 603 4863 
L 1178 4863 
L 1178 0 
L 603 0 
L 603 4863 
z
" transform="scale(0.015625)"/>
       <path id="DejaVuSans-69" d="M 603 3500 
L 1178 3500 
L 1178 0 
L 603 0 
L 603 3500 
z
M 603 4863 
L 1178 4863 
L 1178 4134 
L 603 4134 
L 603 4863 
z
" transform="scale(0.015625)"/>
       <path id="DejaVuSans-65" d="M 3597 1894 
L 3597 1613 
L 953 1613 
Q 991 1019 1311 708 
Q 1631 397 2203 397 
Q 2534 397 2845 478 
Q 3156 559 3463 722 
L 3463 178 
Q 3153 47 2828 -22 
Q 2503 -91 2169 -91 
Q 1331 -91 842 396 
Q 353 884 353 1716 
Q 353 2575 817 3079 
Q 1281 3584 2069 3584 
Q 2775 3584 3186 3129 
Q 3597 2675 3597 1894 
z
M 3022 2063 
Q 3016 2534 2758 2815 
Q 2500 3097 2075 3097 
Q 1594 3097 1305 2825 
Q 1016 2553 972 2059 
L 3022 2063 
z
" transform="scale(0.015625)"/>
       <path id="DejaVuSans-64" d="M 2906 2969 
L 2906 4863 
L 3481 4863 
L 3481 0 
L 2906 0 
L 2906 525 
Q 2725 213 2448 61 
Q 2172 -91 1784 -91 
Q 1150 -91 751 415 
Q 353 922 353 1747 
Q 353 2572 751 3078 
Q 1150 3584 1784 3584 
Q 2172 3584 2448 3432 
Q 2725 3281 2906 2969 
z
M 947 1747 
Q 947 1113 1208 752 
Q 1469 391 1925 391 
Q 2381 391 2643 752 
Q 2906 1113 2906 1747 
Q 2906 2381 2643 2742 
Q 2381 3103 1925 3103 
Q 1469 3103 1208 2742 
Q 947 2381 947 1747 
z
" transform="scale(0.015625)"/>
       <path id="DejaVuSans-2f" d="M 1625 4666 
L 2156 4666 
L 531 -594 
L 0 -594 
L 1625 4666 
z
" transform="scale(0.015625)"/>
      </defs>
      <use xlink:href="#DejaVuSans-25"/>
      <use xlink:href="#DejaVuSans-20" x="95.019531"/>
      <use xlink:href="#DejaVuSans-4e" x="126.806641"/>
      <use xlink:href="#DejaVuSans-4f" x="201.611328"/>
      <use xlink:href="#DejaVuSans-45" x="280.322266"/>
      <use xlink:href="#DejaVuSans-20" x="343.505859"/>
      <use xlink:href="#DejaVuSans-66" x="375.292969"/>
      <use xlink:href="#DejaVuSans-75" x="410.498047"/>
      <use xlink:href="#DejaVuSans-6c" x="473.876953"/>
      <use xlink:href="#DejaVuSans-66" x="501.660156"/>
      <use xlink:href="#DejaVuSans-69" x="536.865234"/>
      <use xlink:href="#DejaVuSans-6c" x="564.648438"/>
      <use xlink:href="#DejaVuSans-6c" x="592.431641"/>
      <use xlink:href="#DejaVuSans-65" x="620.214844"/>
      <use xlink:href="#DejaVuSans-64" x="681.738281"/>
      <use xlink:href="#DejaVuSans-20" x="745.214844"/>
      <use xlink:href="#DejaVuSans-5b" x="777.001953"/>
      <use xlink:href="#DejaVuSans-31" x="816.015625"/>
      <use xlink:href="#DejaVuSans-2f" x="879.638672"/>
      <use xlink:href="#DejaVuSans-31" x="913.330078"/>
      <use xlink:href="#DejaVuSans-30" x="976.953125"/>
      <use xlink:href="#DejaVuSans-30" x="1040.576172"/>
      <use xlink:href="#DejaVuSans-20" x="1104.199219"/>
      <use xlink:href="#DejaVuSans-25" x="1135.986328"/>
      <use xlink:href="#DejaVuSans-5d" x="1231.005859"/>
     </g>
    </g>
   </g>
   <g id="LineCollection_13">
    <path d="M 409.874136 165.933955 
L 435.349364 165.933955 
" clip-path="url(#pcce5647d40)" style="fill: none; stroke: #1f77b4; stroke-width: 1.5"/>
   </g>
   <g id="LineCollection_14">
    <path d="M 409.874136 57.223636 
L 435.349364 57.223636 
" clip-path="url(#pcce5647d40)" style="fill: none; stroke: #1f77b4; stroke-width: 1.5"/>
   </g>
   <g id="LineCollection_15">
    <path d="M 409.874136 260.896364 
L 435.349364 260.896364 
" clip-path="url(#pcce5647d40)" style="fill: none; stroke: #1f77b4; stroke-width: 1.5"/>
   </g>
   <g id="LineCollection_16">
    <path d="M 422.61175 260.896364 
L 422.61175 57.223636 
" clip-path="url(#pcce5647d40)" style="fill: none; stroke: #1f77b4; stroke-width: 1.5"/>
   </g>
   <g id="patch_18">
    <path d="M 394.589 271.08 
L 394.589 47.04 
" style="fill: none; stroke: #000000; stroke-width: 0.8; stroke-linejoin: miter; stroke-linecap: square"/>
   </g>
   <g id="patch_19">
    <path d="M 450.6345 271.08 
L 450.6345 47.04 
" style="fill: none; stroke: #000000; stroke-width: 0.8; stroke-linejoin: miter; stroke-linecap: square"/>
   </g>
   <g id="patch_20">
    <path d="M 394.589 271.08 
L 450.6345 271.08 
" style="fill: none; stroke: #000000; stroke-width: 0.8; stroke-linejoin: miter; stroke-linecap: square"/>
   </g>
   <g id="patch_21">
    <path d="M 394.589 47.04 
L 450.6345 47.04 
" style="fill: none; stroke: #000000; stroke-width: 0.8; stroke-linejoin: miter; stroke-linecap: square"/>
   </g>
   <g id="text_34">
    <!-- % NOE fulfilled -->
    <g transform="translate(377.898625 41.04)scale(0.12 -0.12)">
     <use xlink:href="#DejaVuSans-25"/>
     <use xlink:href="#DejaVuSans-20" x="95.019531"/>
     <use xlink:href="#DejaVuSans-4e" x="126.806641"/>
     <use xlink:href="#DejaVuSans-4f" x="201.611328"/>
     <use xlink:href="#DejaVuSans-45" x="280.322266"/>
     <use xlink:href="#DejaVuSans-20" x="343.505859"/>
     <use xlink:href="#DejaVuSans-66" x="375.292969"/>
     <use xlink:href="#DejaVuSans-75" x="410.498047"/>
     <use xlink:href="#DejaVuSans-6c" x="473.876953"/>
     <use xlink:href="#DejaVuSans-66" x="501.660156"/>
     <use xlink:href="#DejaVuSans-69" x="536.865234"/>
     <use xlink:href="#DejaVuSans-6c" x="564.648438"/>
     <use xlink:href="#DejaVuSans-6c" x="592.431641"/>
     <use xlink:href="#DejaVuSans-65" x="620.214844"/>
     <use xlink:href="#DejaVuSans-64" x="681.738281"/>
    </g>
   </g>
  </g>
  <g id="axes_5">
   <g id="patch_22">
    <path d="M 509.1545 271.08 
L 565.2 271.08 
L 565.2 47.04 
L 509.1545 47.04 
z
" style="fill: #ffffff"/>
   </g>
   <g id="PolyCollection_5">
    <path d="M 545.002642 260.896364 
L 529.351858 260.896364 
L 528.50258 258.839063 
L 527.70086 256.781763 
L 526.973249 254.724463 
L 526.344463 252.667163 
L 525.835813 250.609862 
L 525.463848 248.552562 
L 525.239342 246.495262 
L 525.166705 244.437961 
L 525.243887 242.380661 
L 525.462736 240.323361 
L 525.809775 238.266061 
L 526.267282 236.20876 
L 526.814533 234.15146 
L 527.42908 232.09416 
L 528.087905 230.03686 
L 528.768354 227.979559 
L 529.448753 225.922259 
L 530.108693 223.864959 
L 530.728983 221.807658 
L 531.291339 219.750358 
L 531.777896 217.693058 
L 532.170679 215.635758 
L 532.45116 213.578457 
L 532.600042 211.521157 
L 532.597393 209.463857 
L 532.423218 207.406556 
L 532.058515 205.349256 
L 531.486802 203.291956 
L 530.696046 201.234656 
L 529.680828 199.177355 
L 528.444549 197.120055 
L 527.001391 195.062755 
L 525.37776 193.005455 
L 523.612903 190.948154 
L 521.758474 188.890854 
L 519.876887 186.833554 
L 518.03843 184.776253 
L 516.317249 182.718953 
L 514.786479 180.661653 
L 513.512922 178.604353 
L 512.551759 176.547052 
L 511.941834 174.489752 
L 511.702023 172.432452 
L 511.829082 170.375152 
L 512.297259 168.317851 
L 513.059745 166.260551 
L 514.051865 164.203251 
L 515.195735 162.14595 
L 516.405981 160.08865 
L 517.596022 158.03135 
L 518.68439 155.97405 
L 519.60059 153.916749 
L 520.290047 151.859449 
L 520.717789 149.802149 
L 520.870598 147.744848 
L 520.757508 145.687548 
L 520.408612 143.630248 
L 519.872275 141.572948 
L 519.21097 139.515647 
L 518.496038 137.458347 
L 517.801806 135.401047 
L 517.199537 133.343747 
L 516.751724 131.286446 
L 516.507248 129.229146 
L 516.497825 127.171846 
L 516.736072 125.114545 
L 517.215345 123.057245 
L 517.91133 120.999945 
L 518.78518 118.942645 
L 519.787825 116.885344 
L 520.864983 114.828044 
L 521.96232 112.770744 
L 523.030238 110.713444 
L 524.027822 108.656143 
L 524.925613 106.598843 
L 525.707014 104.541543 
L 526.368294 102.484242 
L 526.917329 100.426942 
L 527.371316 98.369642 
L 527.753804 96.312342 
L 528.09143 94.255041 
L 528.410722 92.197741 
L 528.735314 90.140441 
L 529.083821 88.08314 
L 529.468515 86.02584 
L 529.894864 83.96854 
L 530.361865 81.91124 
L 530.863029 79.853939 
L 531.387817 77.796639 
L 531.923308 75.739339 
L 532.455863 73.682039 
L 532.972608 71.624738 
L 533.462585 69.567438 
L 533.917495 67.510138 
L 534.332032 65.452837 
L 534.703819 63.395537 
L 535.033056 61.338237 
L 535.321958 59.280937 
L 535.574109 57.223636 
L 538.780391 57.223636 
L 538.780391 57.223636 
L 539.032542 59.280937 
L 539.321444 61.338237 
L 539.650681 63.395537 
L 540.022468 65.452837 
L 540.437005 67.510138 
L 540.891915 69.567438 
L 541.381892 71.624738 
L 541.898637 73.682039 
L 542.431192 75.739339 
L 542.966683 77.796639 
L 543.491471 79.853939 
L 543.992635 81.91124 
L 544.459636 83.96854 
L 544.885985 86.02584 
L 545.270679 88.08314 
L 545.619186 90.140441 
L 545.943778 92.197741 
L 546.26307 94.255041 
L 546.600696 96.312342 
L 546.983184 98.369642 
L 547.437171 100.426942 
L 547.986206 102.484242 
L 548.647486 104.541543 
L 549.428887 106.598843 
L 550.326678 108.656143 
L 551.324262 110.713444 
L 552.39218 112.770744 
L 553.489517 114.828044 
L 554.566675 116.885344 
L 555.56932 118.942645 
L 556.44317 120.999945 
L 557.139155 123.057245 
L 557.618428 125.114545 
L 557.856675 127.171846 
L 557.847252 129.229146 
L 557.602776 131.286446 
L 557.154963 133.343747 
L 556.552694 135.401047 
L 555.858462 137.458347 
L 555.14353 139.515647 
L 554.482225 141.572948 
L 553.945888 143.630248 
L 553.596992 145.687548 
L 553.483902 147.744848 
L 553.636711 149.802149 
L 554.064453 151.859449 
L 554.75391 153.916749 
L 555.67011 155.97405 
L 556.758478 158.03135 
L 557.948519 160.08865 
L 559.158765 162.14595 
L 560.302635 164.203251 
L 561.294755 166.260551 
L 562.057241 168.317851 
L 562.525418 170.375152 
L 562.652477 172.432452 
L 562.412666 174.489752 
L 561.802741 176.547052 
L 560.841578 178.604353 
L 559.568021 180.661653 
L 558.037251 182.718953 
L 556.31607 184.776253 
L 554.477613 186.833554 
L 552.596026 188.890854 
L 550.741597 190.948154 
L 548.97674 193.005455 
L 547.353109 195.062755 
L 545.909951 197.120055 
L 544.673672 199.177355 
L 543.658454 201.234656 
L 542.867698 203.291956 
L 542.295985 205.349256 
L 541.931282 207.406556 
L 541.757107 209.463857 
L 541.754458 211.521157 
L 541.90334 213.578457 
L 542.183821 215.635758 
L 542.576604 217.693058 
L 543.063161 219.750358 
L 543.625517 221.807658 
L 544.245807 223.864959 
L 544.905747 225.922259 
L 545.586146 227.979559 
L 546.266595 230.03686 
L 546.92542 232.09416 
L 547.539967 234.15146 
L 548.087218 236.20876 
L 548.544725 238.266061 
L 548.891764 240.323361 
L 549.110613 242.380661 
L 549.187795 244.437961 
L 549.115158 246.495262 
L 548.890652 248.552562 
L 548.518687 250.609862 
L 548.010037 252.667163 
L 547.381251 254.724463 
L 546.65364 256.781763 
L 545.85192 258.839063 
L 545.002642 260.896364 
z
" clip-path="url(#p55962496a5)" style="fill: #1f77b4; fill-opacity: 0.3"/>
   </g>
   <g id="matplotlib.axis_5">
    <g id="ytick_27">
     <g id="line2d_27">
      <g>
       <use xlink:href="#m746820f027" x="509.1545" y="257.760114" style="stroke: #000000; stroke-width: 0.8"/>
      </g>
     </g>
     <g id="text_35">
      <!-- 0.15 -->
      <g transform="translate(479.888875 261.559333)scale(0.1 -0.1)">
       <use xlink:href="#DejaVuSans-30"/>
       <use xlink:href="#DejaVuSans-2e" x="63.623047"/>
       <use xlink:href="#DejaVuSans-31" x="95.410156"/>
       <use xlink:href="#DejaVuSans-35" x="159.033203"/>
      </g>
     </g>
    </g>
    <g id="ytick_28">
     <g id="line2d_28">
      <g>
       <use xlink:href="#m746820f027" x="509.1545" y="232.092112" style="stroke: #000000; stroke-width: 0.8"/>
      </g>
     </g>
     <g id="text_36">
      <!-- 0.20 -->
      <g transform="translate(479.888875 235.891331)scale(0.1 -0.1)">
       <use xlink:href="#DejaVuSans-30"/>
       <use xlink:href="#DejaVuSans-2e" x="63.623047"/>
       <use xlink:href="#DejaVuSans-32" x="95.410156"/>
       <use xlink:href="#DejaVuSans-30" x="159.033203"/>
      </g>
     </g>
    </g>
    <g id="ytick_29">
     <g id="line2d_29">
      <g>
       <use xlink:href="#m746820f027" x="509.1545" y="206.42411" style="stroke: #000000; stroke-width: 0.8"/>
      </g>
     </g>
     <g id="text_37">
      <!-- 0.25 -->
      <g transform="translate(479.888875 210.223328)scale(0.1 -0.1)">
       <use xlink:href="#DejaVuSans-30"/>
       <use xlink:href="#DejaVuSans-2e" x="63.623047"/>
       <use xlink:href="#DejaVuSans-32" x="95.410156"/>
       <use xlink:href="#DejaVuSans-35" x="159.033203"/>
      </g>
     </g>
    </g>
    <g id="ytick_30">
     <g id="line2d_30">
      <g>
       <use xlink:href="#m746820f027" x="509.1545" y="180.756107" style="stroke: #000000; stroke-width: 0.8"/>
      </g>
     </g>
     <g id="text_38">
      <!-- 0.30 -->
      <g transform="translate(479.888875 184.555326)scale(0.1 -0.1)">
       <use xlink:href="#DejaVuSans-30"/>
       <use xlink:href="#DejaVuSans-2e" x="63.623047"/>
       <use xlink:href="#DejaVuSans-33" x="95.410156"/>
       <use xlink:href="#DejaVuSans-30" x="159.033203"/>
      </g>
     </g>
    </g>
    <g id="ytick_31">
     <g id="line2d_31">
      <g>
       <use xlink:href="#m746820f027" x="509.1545" y="155.088105" style="stroke: #000000; stroke-width: 0.8"/>
      </g>
     </g>
     <g id="text_39">
      <!-- 0.35 -->
      <g transform="translate(479.888875 158.887324)scale(0.1 -0.1)">
       <use xlink:href="#DejaVuSans-30"/>
       <use xlink:href="#DejaVuSans-2e" x="63.623047"/>
       <use xlink:href="#DejaVuSans-33" x="95.410156"/>
       <use xlink:href="#DejaVuSans-35" x="159.033203"/>
      </g>
     </g>
    </g>
    <g id="ytick_32">
     <g id="line2d_32">
      <g>
       <use xlink:href="#m746820f027" x="509.1545" y="129.420103" style="stroke: #000000; stroke-width: 0.8"/>
      </g>
     </g>
     <g id="text_40">
      <!-- 0.40 -->
      <g transform="translate(479.888875 133.219321)scale(0.1 -0.1)">
       <use xlink:href="#DejaVuSans-30"/>
       <use xlink:href="#DejaVuSans-2e" x="63.623047"/>
       <use xlink:href="#DejaVuSans-34" x="95.410156"/>
       <use xlink:href="#DejaVuSans-30" x="159.033203"/>
      </g>
     </g>
    </g>
    <g id="ytick_33">
     <g id="line2d_33">
      <g>
       <use xlink:href="#m746820f027" x="509.1545" y="103.7521" style="stroke: #000000; stroke-width: 0.8"/>
      </g>
     </g>
     <g id="text_41">
      <!-- 0.45 -->
      <g transform="translate(479.888875 107.551319)scale(0.1 -0.1)">
       <use xlink:href="#DejaVuSans-30"/>
       <use xlink:href="#DejaVuSans-2e" x="63.623047"/>
       <use xlink:href="#DejaVuSans-34" x="95.410156"/>
       <use xlink:href="#DejaVuSans-35" x="159.033203"/>
      </g>
     </g>
    </g>
    <g id="ytick_34">
     <g id="line2d_34">
      <g>
       <use xlink:href="#m746820f027" x="509.1545" y="78.084098" style="stroke: #000000; stroke-width: 0.8"/>
      </g>
     </g>
     <g id="text_42">
      <!-- 0.50 -->
      <g transform="translate(479.888875 81.883317)scale(0.1 -0.1)">
       <use xlink:href="#DejaVuSans-30"/>
       <use xlink:href="#DejaVuSans-2e" x="63.623047"/>
       <use xlink:href="#DejaVuSans-35" x="95.410156"/>
       <use xlink:href="#DejaVuSans-30" x="159.033203"/>
      </g>
     </g>
    </g>
    <g id="ytick_35">
     <g id="line2d_35">
      <g>
       <use xlink:href="#m746820f027" x="509.1545" y="52.416096" style="stroke: #000000; stroke-width: 0.8"/>
      </g>
     </g>
     <g id="text_43">
      <!-- 0.55 -->
      <g transform="translate(479.888875 56.215314)scale(0.1 -0.1)">
       <use xlink:href="#DejaVuSans-30"/>
       <use xlink:href="#DejaVuSans-2e" x="63.623047"/>
       <use xlink:href="#DejaVuSans-35" x="95.410156"/>
       <use xlink:href="#DejaVuSans-35" x="159.033203"/>
      </g>
     </g>
    </g>
    <g id="text_44">
     <!-- RMSD stepwise [$\AA$] -->
     <g transform="translate(473.788875 206.36)rotate(-90)scale(0.1 -0.1)">
      <defs>
       <path id="DejaVuSans-73" d="M 2834 3397 
L 2834 2853 
Q 2591 2978 2328 3040 
Q 2066 3103 1784 3103 
Q 1356 3103 1142 2972 
Q 928 2841 928 2578 
Q 928 2378 1081 2264 
Q 1234 2150 1697 2047 
L 1894 2003 
Q 2506 1872 2764 1633 
Q 3022 1394 3022 966 
Q 3022 478 2636 193 
Q 2250 -91 1575 -91 
Q 1294 -91 989 -36 
Q 684 19 347 128 
L 347 722 
Q 666 556 975 473 
Q 1284 391 1588 391 
Q 1994 391 2212 530 
Q 2431 669 2431 922 
Q 2431 1156 2273 1281 
Q 2116 1406 1581 1522 
L 1381 1569 
Q 847 1681 609 1914 
Q 372 2147 372 2553 
Q 372 3047 722 3315 
Q 1072 3584 1716 3584 
Q 2034 3584 2315 3537 
Q 2597 3491 2834 3397 
z
" transform="scale(0.015625)"/>
       <path id="DejaVuSans-74" d="M 1172 4494 
L 1172 3500 
L 2356 3500 
L 2356 3053 
L 1172 3053 
L 1172 1153 
Q 1172 725 1289 603 
Q 1406 481 1766 481 
L 2356 481 
L 2356 0 
L 1766 0 
Q 1100 0 847 248 
Q 594 497 594 1153 
L 594 3053 
L 172 3053 
L 172 3500 
L 594 3500 
L 594 4494 
L 1172 4494 
z
" transform="scale(0.015625)"/>
       <path id="DejaVuSans-70" d="M 1159 525 
L 1159 -1331 
L 581 -1331 
L 581 3500 
L 1159 3500 
L 1159 2969 
Q 1341 3281 1617 3432 
Q 1894 3584 2278 3584 
Q 2916 3584 3314 3078 
Q 3713 2572 3713 1747 
Q 3713 922 3314 415 
Q 2916 -91 2278 -91 
Q 1894 -91 1617 61 
Q 1341 213 1159 525 
z
M 3116 1747 
Q 3116 2381 2855 2742 
Q 2594 3103 2138 3103 
Q 1681 3103 1420 2742 
Q 1159 2381 1159 1747 
Q 1159 1113 1420 752 
Q 1681 391 2138 391 
Q 2594 391 2855 752 
Q 3116 1113 3116 1747 
z
" transform="scale(0.015625)"/>
       <path id="DejaVuSans-77" d="M 269 3500 
L 844 3500 
L 1563 769 
L 2278 3500 
L 2956 3500 
L 3675 769 
L 4391 3500 
L 4966 3500 
L 4050 0 
L 3372 0 
L 2619 2869 
L 1863 0 
L 1184 0 
L 269 3500 
z
" transform="scale(0.015625)"/>
      </defs>
      <use xlink:href="#DejaVuSans-52" transform="translate(0 0.171875)"/>
      <use xlink:href="#DejaVuSans-4d" transform="translate(69.482422 0.171875)"/>
      <use xlink:href="#DejaVuSans-53" transform="translate(155.761719 0.171875)"/>
      <use xlink:href="#DejaVuSans-44" transform="translate(219.238281 0.171875)"/>
      <use xlink:href="#DejaVuSans-20" transform="translate(296.240234 0.171875)"/>
      <use xlink:href="#DejaVuSans-73" transform="translate(328.027344 0.171875)"/>
      <use xlink:href="#DejaVuSans-74" transform="translate(380.126953 0.171875)"/>
      <use xlink:href="#DejaVuSans-65" transform="translate(419.335938 0.171875)"/>
      <use xlink:href="#DejaVuSans-70" transform="translate(480.859375 0.171875)"/>
      <use xlink:href="#DejaVuSans-77" transform="translate(544.335938 0.171875)"/>
      <use xlink:href="#DejaVuSans-69" transform="translate(626.123047 0.171875)"/>
      <use xlink:href="#DejaVuSans-73" transform="translate(653.90625 0.171875)"/>
      <use xlink:href="#DejaVuSans-65" transform="translate(706.005859 0.171875)"/>
      <use xlink:href="#DejaVuSans-20" transform="translate(767.529297 0.171875)"/>
      <use xlink:href="#DejaVuSans-5b" transform="translate(799.316406 0.171875)"/>
      <use xlink:href="#DejaVuSans-Oblique-c5" transform="translate(838.330078 0.171875)"/>
      <use xlink:href="#DejaVuSans-5d" transform="translate(906.738281 0.171875)"/>
     </g>
    </g>
   </g>
   <g id="LineCollection_17">
    <path d="M 524.439636 164.16036 
L 549.914864 164.16036 
" clip-path="url(#p55962496a5)" style="fill: none; stroke: #1f77b4; stroke-width: 1.5"/>
   </g>
   <g id="LineCollection_18">
    <path d="M 524.439636 57.223636 
L 549.914864 57.223636 
" clip-path="url(#p55962496a5)" style="fill: none; stroke: #1f77b4; stroke-width: 1.5"/>
   </g>
   <g id="LineCollection_19">
    <path d="M 524.439636 260.896364 
L 549.914864 260.896364 
" clip-path="url(#p55962496a5)" style="fill: none; stroke: #1f77b4; stroke-width: 1.5"/>
   </g>
   <g id="LineCollection_20">
    <path d="M 537.17725 260.896364 
L 537.17725 57.223636 
" clip-path="url(#p55962496a5)" style="fill: none; stroke: #1f77b4; stroke-width: 1.5"/>
   </g>
   <g id="patch_23">
    <path d="M 509.1545 271.08 
L 509.1545 47.04 
" style="fill: none; stroke: #000000; stroke-width: 0.8; stroke-linejoin: miter; stroke-linecap: square"/>
   </g>
   <g id="patch_24">
    <path d="M 565.2 271.08 
L 565.2 47.04 
" style="fill: none; stroke: #000000; stroke-width: 0.8; stroke-linejoin: miter; stroke-linecap: square"/>
   </g>
   <g id="patch_25">
    <path d="M 509.1545 271.08 
L 565.2 271.08 
" style="fill: none; stroke: #000000; stroke-width: 0.8; stroke-linejoin: miter; stroke-linecap: square"/>
   </g>
   <g id="patch_26">
    <path d="M 509.1545 47.04 
L 565.2 47.04 
" style="fill: none; stroke: #000000; stroke-width: 0.8; stroke-linejoin: miter; stroke-linecap: square"/>
   </g>
   <g id="text_45">
    <!-- RMSD stepwise -->
    <g transform="translate(491.125375 41.04)scale(0.12 -0.12)">
     <use xlink:href="#DejaVuSans-52"/>
     <use xlink:href="#DejaVuSans-4d" x="69.482422"/>
     <use xlink:href="#DejaVuSans-53" x="155.761719"/>
     <use xlink:href="#DejaVuSans-44" x="219.238281"/>
     <use xlink:href="#DejaVuSans-20" x="296.240234"/>
     <use xlink:href="#DejaVuSans-73" x="328.027344"/>
     <use xlink:href="#DejaVuSans-74" x="380.126953"/>
     <use xlink:href="#DejaVuSans-65" x="419.335938"/>
     <use xlink:href="#DejaVuSans-70" x="480.859375"/>
     <use xlink:href="#DejaVuSans-77" x="544.335938"/>
     <use xlink:href="#DejaVuSans-69" x="626.123047"/>
     <use xlink:href="#DejaVuSans-73" x="653.90625"/>
     <use xlink:href="#DejaVuSans-65" x="706.005859"/>
    </g>
   </g>
  </g>
  <g id="text_46">
   <!-- Compound 36. Omega -->
   <g transform="translate(220.299375 14.878125)scale(0.12 -0.12)">
    <defs>
     <path id="DejaVuSans-43" d="M 4122 4306 
L 4122 3641 
Q 3803 3938 3442 4084 
Q 3081 4231 2675 4231 
Q 1875 4231 1450 3742 
Q 1025 3253 1025 2328 
Q 1025 1406 1450 917 
Q 1875 428 2675 428 
Q 3081 428 3442 575 
Q 3803 722 4122 1019 
L 4122 359 
Q 3791 134 3420 21 
Q 3050 -91 2638 -91 
Q 1578 -91 968 557 
Q 359 1206 359 2328 
Q 359 3453 968 4101 
Q 1578 4750 2638 4750 
Q 3056 4750 3426 4639 
Q 3797 4528 4122 4306 
z
" transform="scale(0.015625)"/>
     <path id="DejaVuSans-6f" d="M 1959 3097 
Q 1497 3097 1228 2736 
Q 959 2375 959 1747 
Q 959 1119 1226 758 
Q 1494 397 1959 397 
Q 2419 397 2687 759 
Q 2956 1122 2956 1747 
Q 2956 2369 2687 2733 
Q 2419 3097 1959 3097 
z
M 1959 3584 
Q 2709 3584 3137 3096 
Q 3566 2609 3566 1747 
Q 3566 888 3137 398 
Q 2709 -91 1959 -91 
Q 1206 -91 779 398 
Q 353 888 353 1747 
Q 353 2609 779 3096 
Q 1206 3584 1959 3584 
z
" transform="scale(0.015625)"/>
     <path id="DejaVuSans-6d" d="M 3328 2828 
Q 3544 3216 3844 3400 
Q 4144 3584 4550 3584 
Q 5097 3584 5394 3201 
Q 5691 2819 5691 2113 
L 5691 0 
L 5113 0 
L 5113 2094 
Q 5113 2597 4934 2840 
Q 4756 3084 4391 3084 
Q 3944 3084 3684 2787 
Q 3425 2491 3425 1978 
L 3425 0 
L 2847 0 
L 2847 2094 
Q 2847 2600 2669 2842 
Q 2491 3084 2119 3084 
Q 1678 3084 1418 2786 
Q 1159 2488 1159 1978 
L 1159 0 
L 581 0 
L 581 3500 
L 1159 3500 
L 1159 2956 
Q 1356 3278 1631 3431 
Q 1906 3584 2284 3584 
Q 2666 3584 2933 3390 
Q 3200 3197 3328 2828 
z
" transform="scale(0.015625)"/>
     <path id="DejaVuSans-6e" d="M 3513 2113 
L 3513 0 
L 2938 0 
L 2938 2094 
Q 2938 2591 2744 2837 
Q 2550 3084 2163 3084 
Q 1697 3084 1428 2787 
Q 1159 2491 1159 1978 
L 1159 0 
L 581 0 
L 581 3500 
L 1159 3500 
L 1159 2956 
Q 1366 3272 1645 3428 
Q 1925 3584 2291 3584 
Q 2894 3584 3203 3211 
Q 3513 2838 3513 2113 
z
" transform="scale(0.015625)"/>
     <path id="DejaVuSans-67" d="M 2906 1791 
Q 2906 2416 2648 2759 
Q 2391 3103 1925 3103 
Q 1463 3103 1205 2759 
Q 947 2416 947 1791 
Q 947 1169 1205 825 
Q 1463 481 1925 481 
Q 2391 481 2648 825 
Q 2906 1169 2906 1791 
z
M 3481 434 
Q 3481 -459 3084 -895 
Q 2688 -1331 1869 -1331 
Q 1566 -1331 1297 -1286 
Q 1028 -1241 775 -1147 
L 775 -588 
Q 1028 -725 1275 -790 
Q 1522 -856 1778 -856 
Q 2344 -856 2625 -561 
Q 2906 -266 2906 331 
L 2906 616 
Q 2728 306 2450 153 
Q 2172 0 1784 0 
Q 1141 0 747 490 
Q 353 981 353 1791 
Q 353 2603 747 3093 
Q 1141 3584 1784 3584 
Q 2172 3584 2450 3431 
Q 2728 3278 2906 2969 
L 2906 3500 
L 3481 3500 
L 3481 434 
z
" transform="scale(0.015625)"/>
     <path id="DejaVuSans-61" d="M 2194 1759 
Q 1497 1759 1228 1600 
Q 959 1441 959 1056 
Q 959 750 1161 570 
Q 1363 391 1709 391 
Q 2188 391 2477 730 
Q 2766 1069 2766 1631 
L 2766 1759 
L 2194 1759 
z
M 3341 1997 
L 3341 0 
L 2766 0 
L 2766 531 
Q 2569 213 2275 61 
Q 1981 -91 1556 -91 
Q 1019 -91 701 211 
Q 384 513 384 1019 
Q 384 1609 779 1909 
Q 1175 2209 1959 2209 
L 2766 2209 
L 2766 2266 
Q 2766 2663 2505 2880 
Q 2244 3097 1772 3097 
Q 1472 3097 1187 3025 
Q 903 2953 641 2809 
L 641 3341 
Q 956 3463 1253 3523 
Q 1550 3584 1831 3584 
Q 2591 3584 2966 3190 
Q 3341 2797 3341 1997 
z
" transform="scale(0.015625)"/>
    </defs>
    <use xlink:href="#DejaVuSans-43"/>
    <use xlink:href="#DejaVuSans-6f" x="69.824219"/>
    <use xlink:href="#DejaVuSans-6d" x="131.005859"/>
    <use xlink:href="#DejaVuSans-70" x="228.417969"/>
    <use xlink:href="#DejaVuSans-6f" x="291.894531"/>
    <use xlink:href="#DejaVuSans-75" x="353.076172"/>
    <use xlink:href="#DejaVuSans-6e" x="416.455078"/>
    <use xlink:href="#DejaVuSans-64" x="479.833984"/>
    <use xlink:href="#DejaVuSans-20" x="543.310547"/>
    <use xlink:href="#DejaVuSans-33" x="575.097656"/>
    <use xlink:href="#DejaVuSans-36" x="638.720703"/>
    <use xlink:href="#DejaVuSans-2e" x="702.34375"/>
    <use xlink:href="#DejaVuSans-20" x="734.130859"/>
    <use xlink:href="#DejaVuSans-4f" x="765.917969"/>
    <use xlink:href="#DejaVuSans-6d" x="844.628906"/>
    <use xlink:href="#DejaVuSans-65" x="942.041016"/>
    <use xlink:href="#DejaVuSans-67" x="1003.564453"/>
    <use xlink:href="#DejaVuSans-61" x="1067.041016"/>
   </g>
  </g>
 </g>
 <defs>
  <clipPath id="p3339820310">
   <rect x="50.8925" y="47.04" width="56.0455" height="224.04"/>
  </clipPath>
  <clipPath id="p756a105878">
   <rect x="165.458" y="47.04" width="56.0455" height="224.04"/>
  </clipPath>
  <clipPath id="p358b2a14f3">
   <rect x="280.0235" y="47.04" width="56.0455" height="224.04"/>
  </clipPath>
  <clipPath id="pcce5647d40">
   <rect x="394.589" y="47.04" width="56.0455" height="224.04"/>
  </clipPath>
  <clipPath id="p55962496a5">
   <rect x="509.1545" y="47.04" width="56.0455" height="224.04"/>
  </clipPath>
 </defs>
</svg>
