<?xml version="1.0" encoding="utf-8" standalone="no"?>
<!DOCTYPE svg PUBLIC "-//W3C//DTD SVG 1.1//EN"
  "http://www.w3.org/Graphics/SVG/1.1/DTD/svg11.dtd">
<svg xmlns:xlink="http://www.w3.org/1999/xlink" width="576pt" height="288pt" viewBox="0 0 576 288" xmlns="http://www.w3.org/2000/svg" version="1.1">
 <metadata>
  <rdf:RDF xmlns:dc="http://purl.org/dc/elements/1.1/" xmlns:cc="http://creativecommons.org/ns#" xmlns:rdf="http://www.w3.org/1999/02/22-rdf-syntax-ns#">
   <cc:Work>
    <dc:type rdf:resource="http://purl.org/dc/dcmitype/StillImage"/>
    <dc:date>2023-05-31T12:24:05.358406</dc:date>
    <dc:format>image/svg+xml</dc:format>
    <dc:creator>
     <cc:Agent>
      <dc:title>Matplotlib v3.5.3, https://matplotlib.org/</dc:title>
     </cc:Agent>
    </dc:creator>
   </cc:Work>
  </rdf:RDF>
 </metadata>
 <defs>
  <style type="text/css">*{stroke-linejoin: round; stroke-linecap: butt}</style>
 </defs>
 <g id="figure_1">
  <g id="patch_1">
   <path d="M 0 288 
L 576 288 
L 576 0 
L 0 0 
z
" style="fill: #ffffff"/>
  </g>
  <g id="axes_1">
   <g id="patch_2">
    <path d="M 50.8925 273.7 
L 106.938 273.7 
L 106.938 47.04 
L 50.8925 47.04 
z
" style="fill: #ffffff"/>
   </g>
   <g id="PolyCollection_1">
    <path d="M 79.433936 263.397273 
L 78.396564 263.397273 
L 78.306362 261.315914 
L 78.202359 259.234555 
L 78.079375 257.153196 
L 77.930694 255.071837 
L 77.748403 252.990478 
L 77.524002 250.909118 
L 77.249241 248.827759 
L 76.917043 246.7464 
L 76.522332 244.665041 
L 76.062583 242.583682 
L 75.537949 240.502323 
L 74.950921 238.420964 
L 74.305602 236.339605 
L 73.606758 234.258246 
L 72.858894 232.176887 
L 72.065548 230.095528 
L 71.228962 228.014169 
L 70.350173 225.93281 
L 69.429458 223.851451 
L 68.467027 221.770092 
L 67.463816 219.688733 
L 66.422222 217.607374 
L 65.346672 215.526015 
L 64.243959 213.444656 
L 63.1233 211.363297 
L 61.996175 209.281938 
L 60.876015 207.200579 
L 59.777835 205.119219 
L 58.71789 203.03786 
L 57.713339 200.956501 
L 56.781825 198.875142 
L 55.940821 196.793783 
L 55.206604 194.712424 
L 54.592848 192.631065 
L 54.108978 190.549706 
L 53.758668 188.468347 
L 53.538898 186.386988 
L 53.440023 184.305629 
L 53.447034 182.22427 
L 53.541941 180.142911 
L 53.70682 178.061552 
L 53.926886 175.980193 
L 54.192851 173.898834 
L 54.502022 171.817475 
L 54.857894 169.736116 
L 55.268372 167.654757 
L 55.743115 165.573398 
L 56.290654 163.492039 
L 56.915914 161.41068 
L 57.618586 159.32932 
L 58.39248 157.247961 
L 59.225743 155.166602 
L 60.101613 153.085243 
L 60.99942 151.003884 
L 61.895618 148.922525 
L 62.764869 146.841166 
L 63.581302 144.759807 
L 64.320195 142.678448 
L 64.960163 140.597089 
L 65.485773 138.51573 
L 65.890258 136.434371 
L 66.177761 134.353012 
L 66.364515 132.271653 
L 66.478425 130.190294 
L 66.556814 128.108935 
L 66.642445 126.027576 
L 66.778309 123.946217 
L 67.001997 121.864858 
L 67.340599 119.783499 
L 67.807028 117.70214 
L 68.398448 115.620781 
L 69.097066 113.539421 
L 69.873121 111.458062 
L 70.689504 109.376703 
L 71.507144 107.295344 
L 72.290212 105.213985 
L 73.010302 103.132626 
L 73.649022 101.051267 
L 74.198752 98.969908 
L 74.66174 96.888549 
L 75.04792 94.80719 
L 75.372056 92.725831 
L 75.65077 90.644472 
L 75.899963 88.563113 
L 76.132911 86.481754 
L 76.359172 84.400395 
L 76.584251 82.319036 
L 76.809873 80.237677 
L 77.03469 78.156318 
L 77.255223 76.074959 
L 77.466886 73.9936 
L 77.66497 71.912241 
L 77.845471 69.830882 
L 78.00569 67.749522 
L 78.144543 65.668163 
L 78.262581 63.586804 
L 78.36172 61.505445 
L 78.44479 59.424086 
L 78.514982 57.342727 
L 79.315518 57.342727 
L 79.315518 57.342727 
L 79.38571 59.424086 
L 79.46878 61.505445 
L 79.567919 63.586804 
L 79.685957 65.668163 
L 79.82481 67.749522 
L 79.985029 69.830882 
L 80.16553 71.912241 
L 80.363614 73.9936 
L 80.575277 76.074959 
L 80.79581 78.156318 
L 81.020627 80.237677 
L 81.246249 82.319036 
L 81.471328 84.400395 
L 81.697589 86.481754 
L 81.930537 88.563113 
L 82.17973 90.644472 
L 82.458444 92.725831 
L 82.78258 94.80719 
L 83.16876 96.888549 
L 83.631748 98.969908 
L 84.181478 101.051267 
L 84.820198 103.132626 
L 85.540288 105.213985 
L 86.323356 107.295344 
L 87.140996 109.376703 
L 87.957379 111.458062 
L 88.733434 113.539421 
L 89.432052 115.620781 
L 90.023472 117.70214 
L 90.489901 119.783499 
L 90.828503 121.864858 
L 91.052191 123.946217 
L 91.188055 126.027576 
L 91.273686 128.108935 
L 91.352075 130.190294 
L 91.465985 132.271653 
L 91.652739 134.353012 
L 91.940242 136.434371 
L 92.344727 138.51573 
L 92.870337 140.597089 
L 93.510305 142.678448 
L 94.249198 144.759807 
L 95.065631 146.841166 
L 95.934882 148.922525 
L 96.83108 151.003884 
L 97.728887 153.085243 
L 98.604757 155.166602 
L 99.43802 157.247961 
L 100.211914 159.32932 
L 100.914586 161.41068 
L 101.539846 163.492039 
L 102.087385 165.573398 
L 102.562128 167.654757 
L 102.972606 169.736116 
L 103.328478 171.817475 
L 103.637649 173.898834 
L 103.903614 175.980193 
L 104.12368 178.061552 
L 104.288559 180.142911 
L 104.383466 182.22427 
L 104.390477 184.305629 
L 104.291602 186.386988 
L 104.071832 188.468347 
L 103.721522 190.549706 
L 103.237652 192.631065 
L 102.623896 194.712424 
L 101.889679 196.793783 
L 101.048675 198.875142 
L 100.117161 200.956501 
L 99.11261 203.03786 
L 98.052665 205.119219 
L 96.954485 207.200579 
L 95.834325 209.281938 
L 94.7072 211.363297 
L 93.586541 213.444656 
L 92.483828 215.526015 
L 91.408278 217.607374 
L 90.366684 219.688733 
L 89.363473 221.770092 
L 88.401042 223.851451 
L 87.480327 225.93281 
L 86.601538 228.014169 
L 85.764952 230.095528 
L 84.971606 232.176887 
L 84.223742 234.258246 
L 83.524898 236.339605 
L 82.879579 238.420964 
L 82.292551 240.502323 
L 81.767917 242.583682 
L 81.308168 244.665041 
L 80.913457 246.7464 
L 80.581259 248.827759 
L 80.306498 250.909118 
L 80.082097 252.990478 
L 79.899806 255.071837 
L 79.751125 257.153196 
L 79.628141 259.234555 
L 79.524138 261.315914 
L 79.433936 263.397273 
z
" clip-path="url(#p2ca5c17b57)" style="fill: #1f77b4; fill-opacity: 0.3"/>
   </g>
   <g id="matplotlib.axis_1">
    <g id="ytick_1">
     <g id="line2d_1">
      <defs>
       <path id="m936f8c3105" d="M 0 0 
L -3.5 0 
" style="stroke: #000000; stroke-width: 0.8"/>
      </defs>
      <g>
       <use xlink:href="#m936f8c3105" x="50.8925" y="260.2128" style="stroke: #000000; stroke-width: 0.8"/>
      </g>
     </g>
     <g id="text_1">
      <!-- 0.4 -->
      <g transform="translate(27.989375 264.012019)scale(0.1 -0.1)">
       <defs>
        <path id="DejaVuSans-30" d="M 2034 4250 
Q 1547 4250 1301 3770 
Q 1056 3291 1056 2328 
Q 1056 1369 1301 889 
Q 1547 409 2034 409 
Q 2525 409 2770 889 
Q 3016 1369 3016 2328 
Q 3016 3291 2770 3770 
Q 2525 4250 2034 4250 
z
M 2034 4750 
Q 2819 4750 3233 4129 
Q 3647 3509 3647 2328 
Q 3647 1150 3233 529 
Q 2819 -91 2034 -91 
Q 1250 -91 836 529 
Q 422 1150 422 2328 
Q 422 3509 836 4129 
Q 1250 4750 2034 4750 
z
" transform="scale(0.015625)"/>
        <path id="DejaVuSans-2e" d="M 684 794 
L 1344 794 
L 1344 0 
L 684 0 
L 684 794 
z
" transform="scale(0.015625)"/>
        <path id="DejaVuSans-34" d="M 2419 4116 
L 825 1625 
L 2419 1625 
L 2419 4116 
z
M 2253 4666 
L 3047 4666 
L 3047 1625 
L 3713 1625 
L 3713 1100 
L 3047 1100 
L 3047 0 
L 2419 0 
L 2419 1100 
L 313 1100 
L 313 1709 
L 2253 4666 
z
" transform="scale(0.015625)"/>
       </defs>
       <use xlink:href="#DejaVuSans-30"/>
       <use xlink:href="#DejaVuSans-2e" x="63.623047"/>
       <use xlink:href="#DejaVuSans-34" x="95.410156"/>
      </g>
     </g>
    </g>
    <g id="ytick_2">
     <g id="line2d_2">
      <g>
       <use xlink:href="#m936f8c3105" x="50.8925" y="233.971062" style="stroke: #000000; stroke-width: 0.8"/>
      </g>
     </g>
     <g id="text_2">
      <!-- 0.5 -->
      <g transform="translate(27.989375 237.770281)scale(0.1 -0.1)">
       <defs>
        <path id="DejaVuSans-35" d="M 691 4666 
L 3169 4666 
L 3169 4134 
L 1269 4134 
L 1269 2991 
Q 1406 3038 1543 3061 
Q 1681 3084 1819 3084 
Q 2600 3084 3056 2656 
Q 3513 2228 3513 1497 
Q 3513 744 3044 326 
Q 2575 -91 1722 -91 
Q 1428 -91 1123 -41 
Q 819 9 494 109 
L 494 744 
Q 775 591 1075 516 
Q 1375 441 1709 441 
Q 2250 441 2565 725 
Q 2881 1009 2881 1497 
Q 2881 1984 2565 2268 
Q 2250 2553 1709 2553 
Q 1456 2553 1204 2497 
Q 953 2441 691 2322 
L 691 4666 
z
" transform="scale(0.015625)"/>
       </defs>
       <use xlink:href="#DejaVuSans-30"/>
       <use xlink:href="#DejaVuSans-2e" x="63.623047"/>
       <use xlink:href="#DejaVuSans-35" x="95.410156"/>
      </g>
     </g>
    </g>
    <g id="ytick_3">
     <g id="line2d_3">
      <g>
       <use xlink:href="#m936f8c3105" x="50.8925" y="207.729324" style="stroke: #000000; stroke-width: 0.8"/>
      </g>
     </g>
     <g id="text_3">
      <!-- 0.6 -->
      <g transform="translate(27.989375 211.528542)scale(0.1 -0.1)">
       <defs>
        <path id="DejaVuSans-36" d="M 2113 2584 
Q 1688 2584 1439 2293 
Q 1191 2003 1191 1497 
Q 1191 994 1439 701 
Q 1688 409 2113 409 
Q 2538 409 2786 701 
Q 3034 994 3034 1497 
Q 3034 2003 2786 2293 
Q 2538 2584 2113 2584 
z
M 3366 4563 
L 3366 3988 
Q 3128 4100 2886 4159 
Q 2644 4219 2406 4219 
Q 1781 4219 1451 3797 
Q 1122 3375 1075 2522 
Q 1259 2794 1537 2939 
Q 1816 3084 2150 3084 
Q 2853 3084 3261 2657 
Q 3669 2231 3669 1497 
Q 3669 778 3244 343 
Q 2819 -91 2113 -91 
Q 1303 -91 875 529 
Q 447 1150 447 2328 
Q 447 3434 972 4092 
Q 1497 4750 2381 4750 
Q 2619 4750 2861 4703 
Q 3103 4656 3366 4563 
z
" transform="scale(0.015625)"/>
       </defs>
       <use xlink:href="#DejaVuSans-30"/>
       <use xlink:href="#DejaVuSans-2e" x="63.623047"/>
       <use xlink:href="#DejaVuSans-36" x="95.410156"/>
      </g>
     </g>
    </g>
    <g id="ytick_4">
     <g id="line2d_4">
      <g>
       <use xlink:href="#m936f8c3105" x="50.8925" y="181.487586" style="stroke: #000000; stroke-width: 0.8"/>
      </g>
     </g>
     <g id="text_4">
      <!-- 0.7 -->
      <g transform="translate(27.989375 185.286804)scale(0.1 -0.1)">
       <defs>
        <path id="DejaVuSans-37" d="M 525 4666 
L 3525 4666 
L 3525 4397 
L 1831 0 
L 1172 0 
L 2766 4134 
L 525 4134 
L 525 4666 
z
" transform="scale(0.015625)"/>
       </defs>
       <use xlink:href="#DejaVuSans-30"/>
       <use xlink:href="#DejaVuSans-2e" x="63.623047"/>
       <use xlink:href="#DejaVuSans-37" x="95.410156"/>
      </g>
     </g>
    </g>
    <g id="ytick_5">
     <g id="line2d_5">
      <g>
       <use xlink:href="#m936f8c3105" x="50.8925" y="155.245847" style="stroke: #000000; stroke-width: 0.8"/>
      </g>
     </g>
     <g id="text_5">
      <!-- 0.8 -->
      <g transform="translate(27.989375 159.045066)scale(0.1 -0.1)">
       <defs>
        <path id="DejaVuSans-38" d="M 2034 2216 
Q 1584 2216 1326 1975 
Q 1069 1734 1069 1313 
Q 1069 891 1326 650 
Q 1584 409 2034 409 
Q 2484 409 2743 651 
Q 3003 894 3003 1313 
Q 3003 1734 2745 1975 
Q 2488 2216 2034 2216 
z
M 1403 2484 
Q 997 2584 770 2862 
Q 544 3141 544 3541 
Q 544 4100 942 4425 
Q 1341 4750 2034 4750 
Q 2731 4750 3128 4425 
Q 3525 4100 3525 3541 
Q 3525 3141 3298 2862 
Q 3072 2584 2669 2484 
Q 3125 2378 3379 2068 
Q 3634 1759 3634 1313 
Q 3634 634 3220 271 
Q 2806 -91 2034 -91 
Q 1263 -91 848 271 
Q 434 634 434 1313 
Q 434 1759 690 2068 
Q 947 2378 1403 2484 
z
M 1172 3481 
Q 1172 3119 1398 2916 
Q 1625 2713 2034 2713 
Q 2441 2713 2670 2916 
Q 2900 3119 2900 3481 
Q 2900 3844 2670 4047 
Q 2441 4250 2034 4250 
Q 1625 4250 1398 4047 
Q 1172 3844 1172 3481 
z
" transform="scale(0.015625)"/>
       </defs>
       <use xlink:href="#DejaVuSans-30"/>
       <use xlink:href="#DejaVuSans-2e" x="63.623047"/>
       <use xlink:href="#DejaVuSans-38" x="95.410156"/>
      </g>
     </g>
    </g>
    <g id="ytick_6">
     <g id="line2d_6">
      <g>
       <use xlink:href="#m936f8c3105" x="50.8925" y="129.004109" style="stroke: #000000; stroke-width: 0.8"/>
      </g>
     </g>
     <g id="text_6">
      <!-- 0.9 -->
      <g transform="translate(27.989375 132.803328)scale(0.1 -0.1)">
       <defs>
        <path id="DejaVuSans-39" d="M 703 97 
L 703 672 
Q 941 559 1184 500 
Q 1428 441 1663 441 
Q 2288 441 2617 861 
Q 2947 1281 2994 2138 
Q 2813 1869 2534 1725 
Q 2256 1581 1919 1581 
Q 1219 1581 811 2004 
Q 403 2428 403 3163 
Q 403 3881 828 4315 
Q 1253 4750 1959 4750 
Q 2769 4750 3195 4129 
Q 3622 3509 3622 2328 
Q 3622 1225 3098 567 
Q 2575 -91 1691 -91 
Q 1453 -91 1209 -44 
Q 966 3 703 97 
z
M 1959 2075 
Q 2384 2075 2632 2365 
Q 2881 2656 2881 3163 
Q 2881 3666 2632 3958 
Q 2384 4250 1959 4250 
Q 1534 4250 1286 3958 
Q 1038 3666 1038 3163 
Q 1038 2656 1286 2365 
Q 1534 2075 1959 2075 
z
" transform="scale(0.015625)"/>
       </defs>
       <use xlink:href="#DejaVuSans-30"/>
       <use xlink:href="#DejaVuSans-2e" x="63.623047"/>
       <use xlink:href="#DejaVuSans-39" x="95.410156"/>
      </g>
     </g>
    </g>
    <g id="ytick_7">
     <g id="line2d_7">
      <g>
       <use xlink:href="#m936f8c3105" x="50.8925" y="102.762371" style="stroke: #000000; stroke-width: 0.8"/>
      </g>
     </g>
     <g id="text_7">
      <!-- 1.0 -->
      <g transform="translate(27.989375 106.56159)scale(0.1 -0.1)">
       <defs>
        <path id="DejaVuSans-31" d="M 794 531 
L 1825 531 
L 1825 4091 
L 703 3866 
L 703 4441 
L 1819 4666 
L 2450 4666 
L 2450 531 
L 3481 531 
L 3481 0 
L 794 0 
L 794 531 
z
" transform="scale(0.015625)"/>
       </defs>
       <use xlink:href="#DejaVuSans-31"/>
       <use xlink:href="#DejaVuSans-2e" x="63.623047"/>
       <use xlink:href="#DejaVuSans-30" x="95.410156"/>
      </g>
     </g>
    </g>
    <g id="ytick_8">
     <g id="line2d_8">
      <g>
       <use xlink:href="#m936f8c3105" x="50.8925" y="76.520633" style="stroke: #000000; stroke-width: 0.8"/>
      </g>
     </g>
     <g id="text_8">
      <!-- 1.1 -->
      <g transform="translate(27.989375 80.319852)scale(0.1 -0.1)">
       <use xlink:href="#DejaVuSans-31"/>
       <use xlink:href="#DejaVuSans-2e" x="63.623047"/>
       <use xlink:href="#DejaVuSans-31" x="95.410156"/>
      </g>
     </g>
    </g>
    <g id="ytick_9">
     <g id="line2d_9">
      <g>
       <use xlink:href="#m936f8c3105" x="50.8925" y="50.278895" style="stroke: #000000; stroke-width: 0.8"/>
      </g>
     </g>
     <g id="text_9">
      <!-- 1.2 -->
      <g transform="translate(27.989375 54.078113)scale(0.1 -0.1)">
       <defs>
        <path id="DejaVuSans-32" d="M 1228 531 
L 3431 531 
L 3431 0 
L 469 0 
L 469 531 
Q 828 903 1448 1529 
Q 2069 2156 2228 2338 
Q 2531 2678 2651 2914 
Q 2772 3150 2772 3378 
Q 2772 3750 2511 3984 
Q 2250 4219 1831 4219 
Q 1534 4219 1204 4116 
Q 875 4013 500 3803 
L 500 4441 
Q 881 4594 1212 4672 
Q 1544 4750 1819 4750 
Q 2544 4750 2975 4387 
Q 3406 4025 3406 3419 
Q 3406 3131 3298 2873 
Q 3191 2616 2906 2266 
Q 2828 2175 2409 1742 
Q 1991 1309 1228 531 
z
" transform="scale(0.015625)"/>
       </defs>
       <use xlink:href="#DejaVuSans-31"/>
       <use xlink:href="#DejaVuSans-2e" x="63.623047"/>
       <use xlink:href="#DejaVuSans-32" x="95.410156"/>
      </g>
     </g>
    </g>
    <g id="text_10">
     <!-- RMSD [$\AA$] -->
     <g transform="translate(21.909688 184.12)rotate(-90)scale(0.1 -0.1)">
      <defs>
       <path id="DejaVuSans-52" d="M 2841 2188 
Q 3044 2119 3236 1894 
Q 3428 1669 3622 1275 
L 4263 0 
L 3584 0 
L 2988 1197 
Q 2756 1666 2539 1819 
Q 2322 1972 1947 1972 
L 1259 1972 
L 1259 0 
L 628 0 
L 628 4666 
L 2053 4666 
Q 2853 4666 3247 4331 
Q 3641 3997 3641 3322 
Q 3641 2881 3436 2590 
Q 3231 2300 2841 2188 
z
M 1259 4147 
L 1259 2491 
L 2053 2491 
Q 2509 2491 2742 2702 
Q 2975 2913 2975 3322 
Q 2975 3731 2742 3939 
Q 2509 4147 2053 4147 
L 1259 4147 
z
" transform="scale(0.015625)"/>
       <path id="DejaVuSans-4d" d="M 628 4666 
L 1569 4666 
L 2759 1491 
L 3956 4666 
L 4897 4666 
L 4897 0 
L 4281 0 
L 4281 4097 
L 3078 897 
L 2444 897 
L 1241 4097 
L 1241 0 
L 628 0 
L 628 4666 
z
" transform="scale(0.015625)"/>
       <path id="DejaVuSans-53" d="M 3425 4513 
L 3425 3897 
Q 3066 4069 2747 4153 
Q 2428 4238 2131 4238 
Q 1616 4238 1336 4038 
Q 1056 3838 1056 3469 
Q 1056 3159 1242 3001 
Q 1428 2844 1947 2747 
L 2328 2669 
Q 3034 2534 3370 2195 
Q 3706 1856 3706 1288 
Q 3706 609 3251 259 
Q 2797 -91 1919 -91 
Q 1588 -91 1214 -16 
Q 841 59 441 206 
L 441 856 
Q 825 641 1194 531 
Q 1563 422 1919 422 
Q 2459 422 2753 634 
Q 3047 847 3047 1241 
Q 3047 1584 2836 1778 
Q 2625 1972 2144 2069 
L 1759 2144 
Q 1053 2284 737 2584 
Q 422 2884 422 3419 
Q 422 4038 858 4394 
Q 1294 4750 2059 4750 
Q 2388 4750 2728 4690 
Q 3069 4631 3425 4513 
z
" transform="scale(0.015625)"/>
       <path id="DejaVuSans-44" d="M 1259 4147 
L 1259 519 
L 2022 519 
Q 2988 519 3436 956 
Q 3884 1394 3884 2338 
Q 3884 3275 3436 3711 
Q 2988 4147 2022 4147 
L 1259 4147 
z
M 628 4666 
L 1925 4666 
Q 3281 4666 3915 4102 
Q 4550 3538 4550 2338 
Q 4550 1131 3912 565 
Q 3275 0 1925 0 
L 628 0 
L 628 4666 
z
" transform="scale(0.015625)"/>
       <path id="DejaVuSans-20" transform="scale(0.015625)"/>
       <path id="DejaVuSans-5b" d="M 550 4863 
L 1875 4863 
L 1875 4416 
L 1125 4416 
L 1125 -397 
L 1875 -397 
L 1875 -844 
L 550 -844 
L 550 4863 
z
" transform="scale(0.015625)"/>
       <path id="DejaVuSans-Oblique-c5" d="M 3188 5081 
Q 3188 5278 3048 5417 
Q 2909 5556 2713 5556 
Q 2513 5556 2377 5420 
Q 2241 5284 2241 5081 
Q 2241 4884 2377 4746 
Q 2513 4609 2713 4609 
Q 2909 4609 3048 4746 
Q 3188 4884 3188 5081 
z
M 2203 4397 
Q 2034 4513 1945 4689 
Q 1856 4866 1856 5081 
Q 1856 5438 2106 5689 
Q 2356 5941 2713 5941 
Q 3069 5941 3320 5689 
Q 3572 5438 3572 5081 
Q 3572 4834 3458 4643 
Q 3344 4453 3128 4341 
L 3938 0 
L 3278 0 
L 3084 1197 
L 984 1197 
L 325 0 
L -341 0 
L 2203 4397 
z
M 2584 4044 
L 1275 1722 
L 2988 1722 
L 2584 4044 
z
" transform="scale(0.015625)"/>
       <path id="DejaVuSans-5d" d="M 1947 4863 
L 1947 -844 
L 622 -844 
L 622 -397 
L 1369 -397 
L 1369 4416 
L 622 4416 
L 622 4863 
L 1947 4863 
z
" transform="scale(0.015625)"/>
      </defs>
      <use xlink:href="#DejaVuSans-52" transform="translate(0 0.171875)"/>
      <use xlink:href="#DejaVuSans-4d" transform="translate(69.482422 0.171875)"/>
      <use xlink:href="#DejaVuSans-53" transform="translate(155.761719 0.171875)"/>
      <use xlink:href="#DejaVuSans-44" transform="translate(219.238281 0.171875)"/>
      <use xlink:href="#DejaVuSans-20" transform="translate(296.240234 0.171875)"/>
      <use xlink:href="#DejaVuSans-5b" transform="translate(328.027344 0.171875)"/>
      <use xlink:href="#DejaVuSans-Oblique-c5" transform="translate(367.041016 0.171875)"/>
      <use xlink:href="#DejaVuSans-5d" transform="translate(435.449219 0.171875)"/>
     </g>
    </g>
   </g>
   <g id="LineCollection_1">
    <path d="M 66.177636 169.801241 
L 91.652864 169.801241 
" clip-path="url(#p2ca5c17b57)" style="fill: none; stroke: #1f77b4; stroke-width: 1.5"/>
   </g>
   <g id="LineCollection_2">
    <path d="M 66.177636 57.342727 
L 91.652864 57.342727 
" clip-path="url(#p2ca5c17b57)" style="fill: none; stroke: #1f77b4; stroke-width: 1.5"/>
   </g>
   <g id="LineCollection_3">
    <path d="M 66.177636 263.397273 
L 91.652864 263.397273 
" clip-path="url(#p2ca5c17b57)" style="fill: none; stroke: #1f77b4; stroke-width: 1.5"/>
   </g>
   <g id="LineCollection_4">
    <path d="M 78.91525 263.397273 
L 78.91525 57.342727 
" clip-path="url(#p2ca5c17b57)" style="fill: none; stroke: #1f77b4; stroke-width: 1.5"/>
   </g>
   <g id="patch_3">
    <path d="M 50.8925 273.7 
L 50.8925 47.04 
" style="fill: none; stroke: #000000; stroke-width: 0.8; stroke-linejoin: miter; stroke-linecap: square"/>
   </g>
   <g id="patch_4">
    <path d="M 106.938 273.7 
L 106.938 47.04 
" style="fill: none; stroke: #000000; stroke-width: 0.8; stroke-linejoin: miter; stroke-linecap: square"/>
   </g>
   <g id="patch_5">
    <path d="M 50.8925 273.7 
L 106.938 273.7 
" style="fill: none; stroke: #000000; stroke-width: 0.8; stroke-linejoin: miter; stroke-linecap: square"/>
   </g>
   <g id="patch_6">
    <path d="M 50.8925 47.04 
L 106.938 47.04 
" style="fill: none; stroke: #000000; stroke-width: 0.8; stroke-linejoin: miter; stroke-linecap: square"/>
   </g>
   <g id="text_11">
    <!-- RMSD -->
    <g transform="translate(61.14025 41.04)scale(0.12 -0.12)">
     <use xlink:href="#DejaVuSans-52"/>
     <use xlink:href="#DejaVuSans-4d" x="69.482422"/>
     <use xlink:href="#DejaVuSans-53" x="155.761719"/>
     <use xlink:href="#DejaVuSans-44" x="219.238281"/>
    </g>
   </g>
  </g>
  <g id="axes_2">
   <g id="patch_7">
    <path d="M 165.458 273.7 
L 221.5035 273.7 
L 221.5035 47.04 
L 165.458 47.04 
z
" style="fill: #ffffff"/>
   </g>
   <g id="PolyCollection_2">
    <path d="M 195.035257 263.397273 
L 191.926243 263.397273 
L 191.633725 261.315914 
L 191.319631 259.234555 
L 190.986669 257.153196 
L 190.636692 255.071837 
L 190.270196 252.990478 
L 189.886036 250.909118 
L 189.481403 248.827759 
L 189.052088 246.7464 
L 188.592965 244.665041 
L 188.098586 242.583682 
L 187.563781 240.502323 
L 186.984155 238.420964 
L 186.356456 236.339605 
L 185.678798 234.258246 
L 184.950811 232.176887 
L 184.173774 230.095528 
L 183.35078 228.014169 
L 182.486947 225.93281 
L 181.589629 223.851451 
L 180.668573 221.770092 
L 179.73593 219.688733 
L 178.806041 217.607374 
L 177.89495 215.526015 
L 177.019594 213.444656 
L 176.196692 211.363297 
L 175.441369 209.281938 
L 174.76562 207.200579 
L 174.176785 205.119219 
L 173.676282 203.03786 
L 173.258857 200.956501 
L 172.912619 198.875142 
L 172.620013 196.793783 
L 172.35974 194.712424 
L 172.109408 192.631065 
L 171.848512 190.549706 
L 171.561227 188.468347 
L 171.238468 186.386988 
L 170.878844 184.305629 
L 170.488354 182.22427 
L 170.078968 180.142911 
L 169.666509 178.061552 
L 169.268368 175.980193 
L 168.901549 173.898834 
L 168.581419 171.817475 
L 168.321222 169.736116 
L 168.132226 167.654757 
L 168.02415 165.573398 
L 168.005523 163.492039 
L 168.08368 161.41068 
L 168.26431 159.32932 
L 168.550642 157.247961 
L 168.942507 155.166602 
L 169.435598 153.085243 
L 170.021162 151.003884 
L 170.686316 148.922525 
L 171.414986 146.841166 
L 172.189374 144.759807 
L 172.991729 142.678448 
L 173.806177 140.597089 
L 174.620318 138.51573 
L 175.426367 136.434371 
L 176.221628 134.353012 
L 177.008233 132.271653 
L 177.792131 130.190294 
L 178.581472 128.108935 
L 179.3846 126.027576 
L 180.207993 123.946217 
L 181.054458 121.864858 
L 181.921909 119.783499 
L 182.802906 117.70214 
L 183.685047 115.620781 
L 184.552134 113.539421 
L 185.385904 111.458062 
L 186.168062 109.376703 
L 186.882309 107.295344 
L 187.516105 105.213985 
L 188.061948 103.132626 
L 188.518062 101.051267 
L 188.888433 98.969908 
L 189.18223 96.888549 
L 189.412693 94.80719 
L 189.595617 92.725831 
L 189.747643 90.644472 
L 189.884543 88.563113 
L 190.019746 86.481754 
L 190.163288 84.400395 
L 190.321302 82.319036 
L 190.496097 80.237677 
L 190.686725 78.156318 
L 190.889892 76.074959 
L 191.100991 73.9936 
L 191.315062 71.912241 
L 191.527532 69.830882 
L 191.73465 67.749522 
L 191.933622 65.668163 
L 192.122534 63.586804 
L 192.30013 61.505445 
L 192.465575 59.424086 
L 192.618255 57.342727 
L 194.343245 57.342727 
L 194.343245 57.342727 
L 194.495925 59.424086 
L 194.66137 61.505445 
L 194.838966 63.586804 
L 195.027878 65.668163 
L 195.22685 67.749522 
L 195.433968 69.830882 
L 195.646438 71.912241 
L 195.860509 73.9936 
L 196.071608 76.074959 
L 196.274775 78.156318 
L 196.465403 80.237677 
L 196.640198 82.319036 
L 196.798212 84.400395 
L 196.941754 86.481754 
L 197.076957 88.563113 
L 197.213857 90.644472 
L 197.365883 92.725831 
L 197.548807 94.80719 
L 197.77927 96.888549 
L 198.073067 98.969908 
L 198.443438 101.051267 
L 198.899552 103.132626 
L 199.445395 105.213985 
L 200.079191 107.295344 
L 200.793438 109.376703 
L 201.575596 111.458062 
L 202.409366 113.539421 
L 203.276453 115.620781 
L 204.158594 117.70214 
L 205.039591 119.783499 
L 205.907042 121.864858 
L 206.753507 123.946217 
L 207.5769 126.027576 
L 208.380028 128.108935 
L 209.169369 130.190294 
L 209.953267 132.271653 
L 210.739872 134.353012 
L 211.535133 136.434371 
L 212.341182 138.51573 
L 213.155323 140.597089 
L 213.969771 142.678448 
L 214.772126 144.759807 
L 215.546514 146.841166 
L 216.275184 148.922525 
L 216.940338 151.003884 
L 217.525902 153.085243 
L 218.018993 155.166602 
L 218.410858 157.247961 
L 218.69719 159.32932 
L 218.87782 161.41068 
L 218.955977 163.492039 
L 218.93735 165.573398 
L 218.829274 167.654757 
L 218.640278 169.736116 
L 218.380081 171.817475 
L 218.059951 173.898834 
L 217.693132 175.980193 
L 217.294991 178.061552 
L 216.882532 180.142911 
L 216.473146 182.22427 
L 216.082656 184.305629 
L 215.723032 186.386988 
L 215.400273 188.468347 
L 215.112988 190.549706 
L 214.852092 192.631065 
L 214.60176 194.712424 
L 214.341487 196.793783 
L 214.048881 198.875142 
L 213.702643 200.956501 
L 213.285218 203.03786 
L 212.784715 205.119219 
L 212.19588 207.200579 
L 211.520131 209.281938 
L 210.764808 211.363297 
L 209.941906 213.444656 
L 209.06655 215.526015 
L 208.155459 217.607374 
L 207.22557 219.688733 
L 206.292927 221.770092 
L 205.371871 223.851451 
L 204.474553 225.93281 
L 203.61072 228.014169 
L 202.787726 230.095528 
L 202.010689 232.176887 
L 201.282702 234.258246 
L 200.605044 236.339605 
L 199.977345 238.420964 
L 199.397719 240.502323 
L 198.862914 242.583682 
L 198.368535 244.665041 
L 197.909412 246.7464 
L 197.480097 248.827759 
L 197.075464 250.909118 
L 196.691304 252.990478 
L 196.324808 255.071837 
L 195.974831 257.153196 
L 195.641869 259.234555 
L 195.327775 261.315914 
L 195.035257 263.397273 
z
" clip-path="url(#p5fbdac2dfd)" style="fill: #1f77b4; fill-opacity: 0.3"/>
   </g>
   <g id="matplotlib.axis_2">
    <g id="ytick_10">
     <g id="line2d_10">
      <g>
       <use xlink:href="#m936f8c3105" x="165.458" y="270.222151" style="stroke: #000000; stroke-width: 0.8"/>
      </g>
     </g>
     <g id="text_12">
      <!-- 0.3 -->
      <g transform="translate(142.554875 274.02137)scale(0.1 -0.1)">
       <defs>
        <path id="DejaVuSans-33" d="M 2597 2516 
Q 3050 2419 3304 2112 
Q 3559 1806 3559 1356 
Q 3559 666 3084 287 
Q 2609 -91 1734 -91 
Q 1441 -91 1130 -33 
Q 819 25 488 141 
L 488 750 
Q 750 597 1062 519 
Q 1375 441 1716 441 
Q 2309 441 2620 675 
Q 2931 909 2931 1356 
Q 2931 1769 2642 2001 
Q 2353 2234 1838 2234 
L 1294 2234 
L 1294 2753 
L 1863 2753 
Q 2328 2753 2575 2939 
Q 2822 3125 2822 3475 
Q 2822 3834 2567 4026 
Q 2313 4219 1838 4219 
Q 1578 4219 1281 4162 
Q 984 4106 628 3988 
L 628 4550 
Q 988 4650 1302 4700 
Q 1616 4750 1894 4750 
Q 2613 4750 3031 4423 
Q 3450 4097 3450 3541 
Q 3450 3153 3228 2886 
Q 3006 2619 2597 2516 
z
" transform="scale(0.015625)"/>
       </defs>
       <use xlink:href="#DejaVuSans-30"/>
       <use xlink:href="#DejaVuSans-2e" x="63.623047"/>
       <use xlink:href="#DejaVuSans-33" x="95.410156"/>
      </g>
     </g>
    </g>
    <g id="ytick_11">
     <g id="line2d_11">
      <g>
       <use xlink:href="#m936f8c3105" x="165.458" y="226.00327" style="stroke: #000000; stroke-width: 0.8"/>
      </g>
     </g>
     <g id="text_13">
      <!-- 0.4 -->
      <g transform="translate(142.554875 229.802489)scale(0.1 -0.1)">
       <use xlink:href="#DejaVuSans-30"/>
       <use xlink:href="#DejaVuSans-2e" x="63.623047"/>
       <use xlink:href="#DejaVuSans-34" x="95.410156"/>
      </g>
     </g>
    </g>
    <g id="ytick_12">
     <g id="line2d_12">
      <g>
       <use xlink:href="#m936f8c3105" x="165.458" y="181.784389" style="stroke: #000000; stroke-width: 0.8"/>
      </g>
     </g>
     <g id="text_14">
      <!-- 0.5 -->
      <g transform="translate(142.554875 185.583608)scale(0.1 -0.1)">
       <use xlink:href="#DejaVuSans-30"/>
       <use xlink:href="#DejaVuSans-2e" x="63.623047"/>
       <use xlink:href="#DejaVuSans-35" x="95.410156"/>
      </g>
     </g>
    </g>
    <g id="ytick_13">
     <g id="line2d_13">
      <g>
       <use xlink:href="#m936f8c3105" x="165.458" y="137.565509" style="stroke: #000000; stroke-width: 0.8"/>
      </g>
     </g>
     <g id="text_15">
      <!-- 0.6 -->
      <g transform="translate(142.554875 141.364727)scale(0.1 -0.1)">
       <use xlink:href="#DejaVuSans-30"/>
       <use xlink:href="#DejaVuSans-2e" x="63.623047"/>
       <use xlink:href="#DejaVuSans-36" x="95.410156"/>
      </g>
     </g>
    </g>
    <g id="ytick_14">
     <g id="line2d_14">
      <g>
       <use xlink:href="#m936f8c3105" x="165.458" y="93.346628" style="stroke: #000000; stroke-width: 0.8"/>
      </g>
     </g>
     <g id="text_16">
      <!-- 0.7 -->
      <g transform="translate(142.554875 97.145846)scale(0.1 -0.1)">
       <use xlink:href="#DejaVuSans-30"/>
       <use xlink:href="#DejaVuSans-2e" x="63.623047"/>
       <use xlink:href="#DejaVuSans-37" x="95.410156"/>
      </g>
     </g>
    </g>
    <g id="ytick_15">
     <g id="line2d_15">
      <g>
       <use xlink:href="#m936f8c3105" x="165.458" y="49.127747" style="stroke: #000000; stroke-width: 0.8"/>
      </g>
     </g>
     <g id="text_17">
      <!-- 0.8 -->
      <g transform="translate(142.554875 52.926966)scale(0.1 -0.1)">
       <use xlink:href="#DejaVuSans-30"/>
       <use xlink:href="#DejaVuSans-2e" x="63.623047"/>
       <use xlink:href="#DejaVuSans-38" x="95.410156"/>
      </g>
     </g>
    </g>
    <g id="text_18">
     <!-- MAE [$\AA$] -->
     <g transform="translate(136.475187 180.22)rotate(-90)scale(0.1 -0.1)">
      <defs>
       <path id="DejaVuSans-41" d="M 2188 4044 
L 1331 1722 
L 3047 1722 
L 2188 4044 
z
M 1831 4666 
L 2547 4666 
L 4325 0 
L 3669 0 
L 3244 1197 
L 1141 1197 
L 716 0 
L 50 0 
L 1831 4666 
z
" transform="scale(0.015625)"/>
       <path id="DejaVuSans-45" d="M 628 4666 
L 3578 4666 
L 3578 4134 
L 1259 4134 
L 1259 2753 
L 3481 2753 
L 3481 2222 
L 1259 2222 
L 1259 531 
L 3634 531 
L 3634 0 
L 628 0 
L 628 4666 
z
" transform="scale(0.015625)"/>
      </defs>
      <use xlink:href="#DejaVuSans-4d" transform="translate(0 0.171875)"/>
      <use xlink:href="#DejaVuSans-41" transform="translate(86.279297 0.171875)"/>
      <use xlink:href="#DejaVuSans-45" transform="translate(154.6875 0.171875)"/>
      <use xlink:href="#DejaVuSans-20" transform="translate(217.871094 0.171875)"/>
      <use xlink:href="#DejaVuSans-5b" transform="translate(249.658203 0.171875)"/>
      <use xlink:href="#DejaVuSans-Oblique-c5" transform="translate(288.671875 0.171875)"/>
      <use xlink:href="#DejaVuSans-5d" transform="translate(357.080078 0.171875)"/>
     </g>
    </g>
   </g>
   <g id="LineCollection_5">
    <path d="M 180.743136 170.03658 
L 206.218364 170.03658 
" clip-path="url(#p5fbdac2dfd)" style="fill: none; stroke: #1f77b4; stroke-width: 1.5"/>
   </g>
   <g id="LineCollection_6">
    <path d="M 180.743136 57.342727 
L 206.218364 57.342727 
" clip-path="url(#p5fbdac2dfd)" style="fill: none; stroke: #1f77b4; stroke-width: 1.5"/>
   </g>
   <g id="LineCollection_7">
    <path d="M 180.743136 263.397273 
L 206.218364 263.397273 
" clip-path="url(#p5fbdac2dfd)" style="fill: none; stroke: #1f77b4; stroke-width: 1.5"/>
   </g>
   <g id="LineCollection_8">
    <path d="M 193.48075 263.397273 
L 193.48075 57.342727 
" clip-path="url(#p5fbdac2dfd)" style="fill: none; stroke: #1f77b4; stroke-width: 1.5"/>
   </g>
   <g id="patch_8">
    <path d="M 165.458 273.7 
L 165.458 47.04 
" style="fill: none; stroke: #000000; stroke-width: 0.8; stroke-linejoin: miter; stroke-linecap: square"/>
   </g>
   <g id="patch_9">
    <path d="M 221.5035 273.7 
L 221.5035 47.04 
" style="fill: none; stroke: #000000; stroke-width: 0.8; stroke-linejoin: miter; stroke-linecap: square"/>
   </g>
   <g id="patch_10">
    <path d="M 165.458 273.7 
L 221.5035 273.7 
" style="fill: none; stroke: #000000; stroke-width: 0.8; stroke-linejoin: miter; stroke-linecap: square"/>
   </g>
   <g id="patch_11">
    <path d="M 165.458 47.04 
L 221.5035 47.04 
" style="fill: none; stroke: #000000; stroke-width: 0.8; stroke-linejoin: miter; stroke-linecap: square"/>
   </g>
   <g id="text_19">
    <!-- MAE -->
    <g transform="translate(180.40825 41.04)scale(0.12 -0.12)">
     <use xlink:href="#DejaVuSans-4d"/>
     <use xlink:href="#DejaVuSans-41" x="86.279297"/>
     <use xlink:href="#DejaVuSans-45" x="154.6875"/>
    </g>
   </g>
  </g>
  <g id="axes_3">
   <g id="patch_12">
    <path d="M 280.0235 273.7 
L 336.069 273.7 
L 336.069 47.04 
L 280.0235 47.04 
z
" style="fill: #ffffff"/>
   </g>
   <g id="PolyCollection_3">
    <path d="M 308.543048 263.397273 
L 307.549452 263.397273 
L 307.45157 261.315914 
L 307.343801 259.234555 
L 307.227074 257.153196 
L 307.103091 255.071837 
L 306.974116 252.990478 
L 306.842368 250.909118 
L 306.709073 248.827759 
L 306.573395 246.7464 
L 306.431549 244.665041 
L 306.276433 242.583682 
L 306.097947 240.502323 
L 305.884005 238.420964 
L 305.622012 236.339605 
L 305.300436 234.258246 
L 304.910118 232.176887 
L 304.445064 230.095528 
L 303.902698 228.014169 
L 303.283698 225.93281 
L 302.591675 223.851451 
L 301.83287 221.770092 
L 301.015946 219.688733 
L 300.151798 217.607374 
L 299.253204 215.526015 
L 298.334206 213.444656 
L 297.40919 211.363297 
L 296.491799 209.281938 
L 295.593872 207.200579 
L 294.724598 205.119219 
L 293.889964 203.03786 
L 293.092485 200.956501 
L 292.331153 198.875142 
L 291.601539 196.793783 
L 290.896097 194.712424 
L 290.204755 192.631065 
L 289.515925 190.549706 
L 288.818009 188.468347 
L 288.101404 186.386988 
L 287.360861 184.305629 
L 286.597898 182.22427 
L 285.822841 180.142911 
L 285.055933 178.061552 
L 284.327035 175.980193 
L 283.673614 173.898834 
L 283.137091 171.817475 
L 282.758038 169.736116 
L 282.571023 167.654757 
L 282.600011 165.573398 
L 282.855139 163.492039 
L 283.331342 161.41068 
L 284.008998 159.32932 
L 284.85639 157.247961 
L 285.833559 155.166602 
L 286.896919 153.085243 
L 288.003939 151.003884 
L 289.117151 148.922525 
L 290.206944 146.841166 
L 291.252795 144.759807 
L 292.243008 142.678448 
L 293.173323 140.597089 
L 294.044986 138.51573 
L 294.862828 136.434371 
L 295.633739 134.353012 
L 296.365567 132.271653 
L 297.066323 130.190294 
L 297.743443 128.108935 
L 298.40301 126.027576 
L 299.049004 123.946217 
L 299.682813 121.864858 
L 300.303201 119.783499 
L 300.906807 117.70214 
L 301.48902 115.620781 
L 302.044968 113.539421 
L 302.570321 111.458062 
L 303.061787 109.376703 
L 303.517304 107.295344 
L 303.936069 105.213985 
L 304.318526 103.132626 
L 304.666339 101.051267 
L 304.982299 98.969908 
L 305.270031 96.888549 
L 305.533487 94.80719 
L 305.776291 92.725831 
L 306.001134 90.644472 
L 306.209437 88.563113 
L 306.401396 86.481754 
L 306.576398 84.400395 
L 306.733623 82.319036 
L 306.872623 80.237677 
L 306.993694 78.156318 
L 307.097967 76.074959 
L 307.187269 73.9936 
L 307.263887 71.912241 
L 307.33033 69.830882 
L 307.389155 67.749522 
L 307.442848 65.668163 
L 307.493702 63.586804 
L 307.543658 61.505445 
L 307.594117 59.424086 
L 307.645761 57.342727 
L 308.446739 57.342727 
L 308.446739 57.342727 
L 308.498383 59.424086 
L 308.548842 61.505445 
L 308.598798 63.586804 
L 308.649652 65.668163 
L 308.703345 67.749522 
L 308.76217 69.830882 
L 308.828613 71.912241 
L 308.905231 73.9936 
L 308.994533 76.074959 
L 309.098806 78.156318 
L 309.219877 80.237677 
L 309.358877 82.319036 
L 309.516102 84.400395 
L 309.691104 86.481754 
L 309.883063 88.563113 
L 310.091366 90.644472 
L 310.316209 92.725831 
L 310.559013 94.80719 
L 310.822469 96.888549 
L 311.110201 98.969908 
L 311.426161 101.051267 
L 311.773974 103.132626 
L 312.156431 105.213985 
L 312.575196 107.295344 
L 313.030713 109.376703 
L 313.522179 111.458062 
L 314.047532 113.539421 
L 314.60348 115.620781 
L 315.185693 117.70214 
L 315.789299 119.783499 
L 316.409687 121.864858 
L 317.043496 123.946217 
L 317.68949 126.027576 
L 318.349057 128.108935 
L 319.026177 130.190294 
L 319.726933 132.271653 
L 320.458761 134.353012 
L 321.229672 136.434371 
L 322.047514 138.51573 
L 322.919177 140.597089 
L 323.849492 142.678448 
L 324.839705 144.759807 
L 325.885556 146.841166 
L 326.975349 148.922525 
L 328.088561 151.003884 
L 329.195581 153.085243 
L 330.258941 155.166602 
L 331.23611 157.247961 
L 332.083502 159.32932 
L 332.761158 161.41068 
L 333.237361 163.492039 
L 333.492489 165.573398 
L 333.521477 167.654757 
L 333.334462 169.736116 
L 332.955409 171.817475 
L 332.418886 173.898834 
L 331.765465 175.980193 
L 331.036567 178.061552 
L 330.269659 180.142911 
L 329.494602 182.22427 
L 328.731639 184.305629 
L 327.991096 186.386988 
L 327.274491 188.468347 
L 326.576575 190.549706 
L 325.887745 192.631065 
L 325.196403 194.712424 
L 324.490961 196.793783 
L 323.761347 198.875142 
L 323.000015 200.956501 
L 322.202536 203.03786 
L 321.367902 205.119219 
L 320.498628 207.200579 
L 319.600701 209.281938 
L 318.68331 211.363297 
L 317.758294 213.444656 
L 316.839296 215.526015 
L 315.940702 217.607374 
L 315.076554 219.688733 
L 314.25963 221.770092 
L 313.500825 223.851451 
L 312.808802 225.93281 
L 312.189802 228.014169 
L 311.647436 230.095528 
L 311.182382 232.176887 
L 310.792064 234.258246 
L 310.470488 236.339605 
L 310.208495 238.420964 
L 309.994553 240.502323 
L 309.816067 242.583682 
L 309.660951 244.665041 
L 309.519105 246.7464 
L 309.383427 248.827759 
L 309.250132 250.909118 
L 309.118384 252.990478 
L 308.989409 255.071837 
L 308.865426 257.153196 
L 308.748699 259.234555 
L 308.64093 261.315914 
L 308.543048 263.397273 
z
" clip-path="url(#p325a9c7752)" style="fill: #1f77b4; fill-opacity: 0.3"/>
   </g>
   <g id="matplotlib.axis_3">
    <g id="ytick_16">
     <g id="line2d_16">
      <g>
       <use xlink:href="#m936f8c3105" x="280.0235" y="261.347916" style="stroke: #000000; stroke-width: 0.8"/>
      </g>
     </g>
     <g id="text_20">
      <!-- 0.1 -->
      <g transform="translate(257.120375 265.147135)scale(0.1 -0.1)">
       <use xlink:href="#DejaVuSans-30"/>
       <use xlink:href="#DejaVuSans-2e" x="63.623047"/>
       <use xlink:href="#DejaVuSans-31" x="95.410156"/>
      </g>
     </g>
    </g>
    <g id="ytick_17">
     <g id="line2d_17">
      <g>
       <use xlink:href="#m936f8c3105" x="280.0235" y="223.887384" style="stroke: #000000; stroke-width: 0.8"/>
      </g>
     </g>
     <g id="text_21">
      <!-- 0.2 -->
      <g transform="translate(257.120375 227.686602)scale(0.1 -0.1)">
       <use xlink:href="#DejaVuSans-30"/>
       <use xlink:href="#DejaVuSans-2e" x="63.623047"/>
       <use xlink:href="#DejaVuSans-32" x="95.410156"/>
      </g>
     </g>
    </g>
    <g id="ytick_18">
     <g id="line2d_18">
      <g>
       <use xlink:href="#m936f8c3105" x="280.0235" y="186.426851" style="stroke: #000000; stroke-width: 0.8"/>
      </g>
     </g>
     <g id="text_22">
      <!-- 0.3 -->
      <g transform="translate(257.120375 190.22607)scale(0.1 -0.1)">
       <use xlink:href="#DejaVuSans-30"/>
       <use xlink:href="#DejaVuSans-2e" x="63.623047"/>
       <use xlink:href="#DejaVuSans-33" x="95.410156"/>
      </g>
     </g>
    </g>
    <g id="ytick_19">
     <g id="line2d_19">
      <g>
       <use xlink:href="#m936f8c3105" x="280.0235" y="148.966319" style="stroke: #000000; stroke-width: 0.8"/>
      </g>
     </g>
     <g id="text_23">
      <!-- 0.4 -->
      <g transform="translate(257.120375 152.765538)scale(0.1 -0.1)">
       <use xlink:href="#DejaVuSans-30"/>
       <use xlink:href="#DejaVuSans-2e" x="63.623047"/>
       <use xlink:href="#DejaVuSans-34" x="95.410156"/>
      </g>
     </g>
    </g>
    <g id="ytick_20">
     <g id="line2d_20">
      <g>
       <use xlink:href="#m936f8c3105" x="280.0235" y="111.505786" style="stroke: #000000; stroke-width: 0.8"/>
      </g>
     </g>
     <g id="text_24">
      <!-- 0.5 -->
      <g transform="translate(257.120375 115.305005)scale(0.1 -0.1)">
       <use xlink:href="#DejaVuSans-30"/>
       <use xlink:href="#DejaVuSans-2e" x="63.623047"/>
       <use xlink:href="#DejaVuSans-35" x="95.410156"/>
      </g>
     </g>
    </g>
    <g id="ytick_21">
     <g id="line2d_21">
      <g>
       <use xlink:href="#m936f8c3105" x="280.0235" y="74.045254" style="stroke: #000000; stroke-width: 0.8"/>
      </g>
     </g>
     <g id="text_25">
      <!-- 0.6 -->
      <g transform="translate(257.120375 77.844473)scale(0.1 -0.1)">
       <use xlink:href="#DejaVuSans-30"/>
       <use xlink:href="#DejaVuSans-2e" x="63.623047"/>
       <use xlink:href="#DejaVuSans-36" x="95.410156"/>
      </g>
     </g>
    </g>
    <g id="text_26">
     <!-- MSE [$\AA$] -->
     <g transform="translate(251.040687 179.97)rotate(-90)scale(0.1 -0.1)">
      <use xlink:href="#DejaVuSans-4d" transform="translate(0 0.171875)"/>
      <use xlink:href="#DejaVuSans-53" transform="translate(86.279297 0.171875)"/>
      <use xlink:href="#DejaVuSans-45" transform="translate(149.755859 0.171875)"/>
      <use xlink:href="#DejaVuSans-20" transform="translate(212.939453 0.171875)"/>
      <use xlink:href="#DejaVuSans-5b" transform="translate(244.726562 0.171875)"/>
      <use xlink:href="#DejaVuSans-Oblique-c5" transform="translate(283.740234 0.171875)"/>
      <use xlink:href="#DejaVuSans-5d" transform="translate(352.148438 0.171875)"/>
     </g>
    </g>
   </g>
   <g id="LineCollection_9">
    <path d="M 295.308636 167.725622 
L 320.783864 167.725622 
" clip-path="url(#p325a9c7752)" style="fill: none; stroke: #1f77b4; stroke-width: 1.5"/>
   </g>
   <g id="LineCollection_10">
    <path d="M 295.308636 57.342727 
L 320.783864 57.342727 
" clip-path="url(#p325a9c7752)" style="fill: none; stroke: #1f77b4; stroke-width: 1.5"/>
   </g>
   <g id="LineCollection_11">
    <path d="M 295.308636 263.397273 
L 320.783864 263.397273 
" clip-path="url(#p325a9c7752)" style="fill: none; stroke: #1f77b4; stroke-width: 1.5"/>
   </g>
   <g id="LineCollection_12">
    <path d="M 308.04625 263.397273 
L 308.04625 57.342727 
" clip-path="url(#p325a9c7752)" style="fill: none; stroke: #1f77b4; stroke-width: 1.5"/>
   </g>
   <g id="patch_13">
    <path d="M 280.0235 273.7 
L 280.0235 47.04 
" style="fill: none; stroke: #000000; stroke-width: 0.8; stroke-linejoin: miter; stroke-linecap: square"/>
   </g>
   <g id="patch_14">
    <path d="M 336.069 273.7 
L 336.069 47.04 
" style="fill: none; stroke: #000000; stroke-width: 0.8; stroke-linejoin: miter; stroke-linecap: square"/>
   </g>
   <g id="patch_15">
    <path d="M 280.0235 273.7 
L 336.069 273.7 
" style="fill: none; stroke: #000000; stroke-width: 0.8; stroke-linejoin: miter; stroke-linecap: square"/>
   </g>
   <g id="patch_16">
    <path d="M 280.0235 47.04 
L 336.069 47.04 
" style="fill: none; stroke: #000000; stroke-width: 0.8; stroke-linejoin: miter; stroke-linecap: square"/>
   </g>
   <g id="text_27">
    <!-- MSE -->
    <g transform="translate(295.269062 41.04)scale(0.12 -0.12)">
     <use xlink:href="#DejaVuSans-4d"/>
     <use xlink:href="#DejaVuSans-53" x="86.279297"/>
     <use xlink:href="#DejaVuSans-45" x="149.755859"/>
    </g>
   </g>
  </g>
  <g id="axes_4">
   <g id="patch_17">
    <path d="M 394.589 273.7 
L 450.6345 273.7 
L 450.6345 47.04 
L 394.589 47.04 
z
" style="fill: #ffffff"/>
   </g>
   <g id="PolyCollection_4">
    <path d="M 423.339922 263.397273 
L 421.883578 263.397273 
L 421.735223 261.315914 
L 421.569385 259.234555 
L 421.387419 257.153196 
L 421.191447 255.071837 
L 420.984057 252.990478 
L 420.767911 250.909118 
L 420.545334 248.827759 
L 420.318006 246.7464 
L 420.086855 244.665041 
L 419.852131 242.583682 
L 419.613619 240.502323 
L 419.370854 238.420964 
L 419.123212 236.339605 
L 418.869805 234.258246 
L 418.609203 232.176887 
L 418.339064 230.095528 
L 418.055828 228.014169 
L 417.754587 225.93281 
L 417.42918 223.851451 
L 417.072485 221.770092 
L 416.676824 219.688733 
L 416.234425 217.607374 
L 415.737917 215.526015 
L 415.180881 213.444656 
L 414.558497 211.363297 
L 413.868255 209.281938 
L 413.110563 207.200579 
L 412.289065 205.119219 
L 411.410445 203.03786 
L 410.483688 200.956501 
L 409.518976 198.875142 
L 408.526636 196.793783 
L 407.51658 194.712424 
L 406.498557 192.631065 
L 405.483143 190.549706 
L 404.483009 188.468347 
L 403.51375 186.386988 
L 402.593591 184.305629 
L 401.741684 182.22427 
L 400.975264 180.142911 
L 400.306494 178.061552 
L 399.740027 175.980193 
L 399.272148 173.898834 
L 398.891795 171.817475 
L 398.583111 169.736116 
L 398.328661 167.654757 
L 398.112359 165.573398 
L 397.921441 163.492039 
L 397.747372 161.41068 
L 397.586013 159.32932 
L 397.437603 157.247961 
L 397.306885 155.166602 
L 397.203299 153.085243 
L 397.140769 151.003884 
L 397.136523 148.922525 
L 397.208629 146.841166 
L 397.37255 144.759807 
L 397.637508 142.678448 
L 398.00378 140.597089 
L 398.461815 138.51573 
L 398.993532 136.434371 
L 399.575409 134.353012 
L 400.182444 132.271653 
L 400.791919 130.190294 
L 401.386152 128.108935 
L 401.953931 126.027576 
L 402.490832 123.946217 
L 402.998867 121.864858 
L 403.485827 119.783499 
L 403.964445 117.70214 
L 404.451185 115.620781 
L 404.964426 113.539421 
L 405.521962 111.458062 
L 406.138114 109.376703 
L 406.821071 107.295344 
L 407.571204 105.213985 
L 408.380878 103.132626 
L 409.235875 101.051267 
L 410.118002 98.969908 
L 411.008128 96.888549 
L 411.88884 94.80719 
L 412.746096 92.725831 
L 413.569727 90.644472 
L 414.352989 88.563113 
L 415.091646 86.481754 
L 415.783071 84.400395 
L 416.425672 82.319036 
L 417.018719 80.237677 
L 417.562438 78.156318 
L 418.058151 76.074959 
L 418.508289 73.9936 
L 418.91622 71.912241 
L 419.28594 69.830882 
L 419.621732 67.749522 
L 419.92789 65.668163 
L 420.20853 63.586804 
L 420.467469 61.505445 
L 420.708102 59.424086 
L 420.933252 57.342727 
L 424.290248 57.342727 
L 424.290248 57.342727 
L 424.515398 59.424086 
L 424.756031 61.505445 
L 425.01497 63.586804 
L 425.29561 65.668163 
L 425.601768 67.749522 
L 425.93756 69.830882 
L 426.30728 71.912241 
L 426.715211 73.9936 
L 427.165349 76.074959 
L 427.661062 78.156318 
L 428.204781 80.237677 
L 428.797828 82.319036 
L 429.440429 84.400395 
L 430.131854 86.481754 
L 430.870511 88.563113 
L 431.653773 90.644472 
L 432.477404 92.725831 
L 433.33466 94.80719 
L 434.215372 96.888549 
L 435.105498 98.969908 
L 435.987625 101.051267 
L 436.842622 103.132626 
L 437.652296 105.213985 
L 438.402429 107.295344 
L 439.085386 109.376703 
L 439.701538 111.458062 
L 440.259074 113.539421 
L 440.772315 115.620781 
L 441.259055 117.70214 
L 441.737673 119.783499 
L 442.224633 121.864858 
L 442.732668 123.946217 
L 443.269569 126.027576 
L 443.837348 128.108935 
L 444.431581 130.190294 
L 445.041056 132.271653 
L 445.648091 134.353012 
L 446.229968 136.434371 
L 446.761685 138.51573 
L 447.21972 140.597089 
L 447.585992 142.678448 
L 447.85095 144.759807 
L 448.014871 146.841166 
L 448.086977 148.922525 
L 448.082731 151.003884 
L 448.020201 153.085243 
L 447.916615 155.166602 
L 447.785897 157.247961 
L 447.637487 159.32932 
L 447.476128 161.41068 
L 447.302059 163.492039 
L 447.111141 165.573398 
L 446.894839 167.654757 
L 446.640389 169.736116 
L 446.331705 171.817475 
L 445.951352 173.898834 
L 445.483473 175.980193 
L 444.917006 178.061552 
L 444.248236 180.142911 
L 443.481816 182.22427 
L 442.629909 184.305629 
L 441.70975 186.386988 
L 440.740491 188.468347 
L 439.740357 190.549706 
L 438.724943 192.631065 
L 437.70692 194.712424 
L 436.696864 196.793783 
L 435.704524 198.875142 
L 434.739812 200.956501 
L 433.813055 203.03786 
L 432.934435 205.119219 
L 432.112937 207.200579 
L 431.355245 209.281938 
L 430.665003 211.363297 
L 430.042619 213.444656 
L 429.485583 215.526015 
L 428.989075 217.607374 
L 428.546676 219.688733 
L 428.151015 221.770092 
L 427.79432 223.851451 
L 427.468913 225.93281 
L 427.167672 228.014169 
L 426.884436 230.095528 
L 426.614297 232.176887 
L 426.353695 234.258246 
L 426.100288 236.339605 
L 425.852646 238.420964 
L 425.609881 240.502323 
L 425.371369 242.583682 
L 425.136645 244.665041 
L 424.905494 246.7464 
L 424.678166 248.827759 
L 424.455589 250.909118 
L 424.239443 252.990478 
L 424.032053 255.071837 
L 423.836081 257.153196 
L 423.654115 259.234555 
L 423.488277 261.315914 
L 423.339922 263.397273 
z
" clip-path="url(#pf7897a8754)" style="fill: #1f77b4; fill-opacity: 0.3"/>
   </g>
   <g id="matplotlib.axis_4">
    <g id="ytick_22">
     <g id="line2d_22">
      <g>
       <use xlink:href="#m936f8c3105" x="394.589" y="232.489091" style="stroke: #000000; stroke-width: 0.8"/>
      </g>
     </g>
     <g id="text_28">
      <!-- 0.2 -->
      <g transform="translate(371.685875 236.28831)scale(0.1 -0.1)">
       <use xlink:href="#DejaVuSans-30"/>
       <use xlink:href="#DejaVuSans-2e" x="63.623047"/>
       <use xlink:href="#DejaVuSans-32" x="95.410156"/>
      </g>
     </g>
    </g>
    <g id="ytick_23">
     <g id="line2d_23">
      <g>
       <use xlink:href="#m936f8c3105" x="394.589" y="182.692576" style="stroke: #000000; stroke-width: 0.8"/>
      </g>
     </g>
     <g id="text_29">
      <!-- 0.3 -->
      <g transform="translate(371.685875 186.491795)scale(0.1 -0.1)">
       <use xlink:href="#DejaVuSans-30"/>
       <use xlink:href="#DejaVuSans-2e" x="63.623047"/>
       <use xlink:href="#DejaVuSans-33" x="95.410156"/>
      </g>
     </g>
    </g>
    <g id="ytick_24">
     <g id="line2d_24">
      <g>
       <use xlink:href="#m936f8c3105" x="394.589" y="132.896061" style="stroke: #000000; stroke-width: 0.8"/>
      </g>
     </g>
     <g id="text_30">
      <!-- 0.4 -->
      <g transform="translate(371.685875 136.695279)scale(0.1 -0.1)">
       <use xlink:href="#DejaVuSans-30"/>
       <use xlink:href="#DejaVuSans-2e" x="63.623047"/>
       <use xlink:href="#DejaVuSans-34" x="95.410156"/>
      </g>
     </g>
    </g>
    <g id="ytick_25">
     <g id="line2d_25">
      <g>
       <use xlink:href="#m936f8c3105" x="394.589" y="83.099545" style="stroke: #000000; stroke-width: 0.8"/>
      </g>
     </g>
     <g id="text_31">
      <!-- 0.5 -->
      <g transform="translate(371.685875 86.898764)scale(0.1 -0.1)">
       <use xlink:href="#DejaVuSans-30"/>
       <use xlink:href="#DejaVuSans-2e" x="63.623047"/>
       <use xlink:href="#DejaVuSans-35" x="95.410156"/>
      </g>
     </g>
    </g>
    <g id="text_32">
     <!-- % NOE fulfilled [1/100 %] -->
     <g transform="translate(365.606188 223.870781)rotate(-90)scale(0.1 -0.1)">
      <defs>
       <path id="DejaVuSans-25" d="M 4653 2053 
Q 4381 2053 4226 1822 
Q 4072 1591 4072 1178 
Q 4072 772 4226 539 
Q 4381 306 4653 306 
Q 4919 306 5073 539 
Q 5228 772 5228 1178 
Q 5228 1588 5073 1820 
Q 4919 2053 4653 2053 
z
M 4653 2450 
Q 5147 2450 5437 2106 
Q 5728 1763 5728 1178 
Q 5728 594 5436 251 
Q 5144 -91 4653 -91 
Q 4153 -91 3862 251 
Q 3572 594 3572 1178 
Q 3572 1766 3864 2108 
Q 4156 2450 4653 2450 
z
M 1428 4353 
Q 1159 4353 1004 4120 
Q 850 3888 850 3481 
Q 850 3069 1003 2837 
Q 1156 2606 1428 2606 
Q 1700 2606 1854 2837 
Q 2009 3069 2009 3481 
Q 2009 3884 1853 4118 
Q 1697 4353 1428 4353 
z
M 4250 4750 
L 4750 4750 
L 1831 -91 
L 1331 -91 
L 4250 4750 
z
M 1428 4750 
Q 1922 4750 2215 4408 
Q 2509 4066 2509 3481 
Q 2509 2891 2217 2550 
Q 1925 2209 1428 2209 
Q 931 2209 642 2551 
Q 353 2894 353 3481 
Q 353 4063 643 4406 
Q 934 4750 1428 4750 
z
" transform="scale(0.015625)"/>
       <path id="DejaVuSans-4e" d="M 628 4666 
L 1478 4666 
L 3547 763 
L 3547 4666 
L 4159 4666 
L 4159 0 
L 3309 0 
L 1241 3903 
L 1241 0 
L 628 0 
L 628 4666 
z
" transform="scale(0.015625)"/>
       <path id="DejaVuSans-4f" d="M 2522 4238 
Q 1834 4238 1429 3725 
Q 1025 3213 1025 2328 
Q 1025 1447 1429 934 
Q 1834 422 2522 422 
Q 3209 422 3611 934 
Q 4013 1447 4013 2328 
Q 4013 3213 3611 3725 
Q 3209 4238 2522 4238 
z
M 2522 4750 
Q 3503 4750 4090 4092 
Q 4678 3434 4678 2328 
Q 4678 1225 4090 567 
Q 3503 -91 2522 -91 
Q 1538 -91 948 565 
Q 359 1222 359 2328 
Q 359 3434 948 4092 
Q 1538 4750 2522 4750 
z
" transform="scale(0.015625)"/>
       <path id="DejaVuSans-66" d="M 2375 4863 
L 2375 4384 
L 1825 4384 
Q 1516 4384 1395 4259 
Q 1275 4134 1275 3809 
L 1275 3500 
L 2222 3500 
L 2222 3053 
L 1275 3053 
L 1275 0 
L 697 0 
L 697 3053 
L 147 3053 
L 147 3500 
L 697 3500 
L 697 3744 
Q 697 4328 969 4595 
Q 1241 4863 1831 4863 
L 2375 4863 
z
" transform="scale(0.015625)"/>
       <path id="DejaVuSans-75" d="M 544 1381 
L 544 3500 
L 1119 3500 
L 1119 1403 
Q 1119 906 1312 657 
Q 1506 409 1894 409 
Q 2359 409 2629 706 
Q 2900 1003 2900 1516 
L 2900 3500 
L 3475 3500 
L 3475 0 
L 2900 0 
L 2900 538 
Q 2691 219 2414 64 
Q 2138 -91 1772 -91 
Q 1169 -91 856 284 
Q 544 659 544 1381 
z
M 1991 3584 
L 1991 3584 
z
" transform="scale(0.015625)"/>
       <path id="DejaVuSans-6c" d="M 603 4863 
L 1178 4863 
L 1178 0 
L 603 0 
L 603 4863 
z
" transform="scale(0.015625)"/>
       <path id="DejaVuSans-69" d="M 603 3500 
L 1178 3500 
L 1178 0 
L 603 0 
L 603 3500 
z
M 603 4863 
L 1178 4863 
L 1178 4134 
L 603 4134 
L 603 4863 
z
" transform="scale(0.015625)"/>
       <path id="DejaVuSans-65" d="M 3597 1894 
L 3597 1613 
L 953 1613 
Q 991 1019 1311 708 
Q 1631 397 2203 397 
Q 2534 397 2845 478 
Q 3156 559 3463 722 
L 3463 178 
Q 3153 47 2828 -22 
Q 2503 -91 2169 -91 
Q 1331 -91 842 396 
Q 353 884 353 1716 
Q 353 2575 817 3079 
Q 1281 3584 2069 3584 
Q 2775 3584 3186 3129 
Q 3597 2675 3597 1894 
z
M 3022 2063 
Q 3016 2534 2758 2815 
Q 2500 3097 2075 3097 
Q 1594 3097 1305 2825 
Q 1016 2553 972 2059 
L 3022 2063 
z
" transform="scale(0.015625)"/>
       <path id="DejaVuSans-64" d="M 2906 2969 
L 2906 4863 
L 3481 4863 
L 3481 0 
L 2906 0 
L 2906 525 
Q 2725 213 2448 61 
Q 2172 -91 1784 -91 
Q 1150 -91 751 415 
Q 353 922 353 1747 
Q 353 2572 751 3078 
Q 1150 3584 1784 3584 
Q 2172 3584 2448 3432 
Q 2725 3281 2906 2969 
z
M 947 1747 
Q 947 1113 1208 752 
Q 1469 391 1925 391 
Q 2381 391 2643 752 
Q 2906 1113 2906 1747 
Q 2906 2381 2643 2742 
Q 2381 3103 1925 3103 
Q 1469 3103 1208 2742 
Q 947 2381 947 1747 
z
" transform="scale(0.015625)"/>
       <path id="DejaVuSans-2f" d="M 1625 4666 
L 2156 4666 
L 531 -594 
L 0 -594 
L 1625 4666 
z
" transform="scale(0.015625)"/>
      </defs>
      <use xlink:href="#DejaVuSans-25"/>
      <use xlink:href="#DejaVuSans-20" x="95.019531"/>
      <use xlink:href="#DejaVuSans-4e" x="126.806641"/>
      <use xlink:href="#DejaVuSans-4f" x="201.611328"/>
      <use xlink:href="#DejaVuSans-45" x="280.322266"/>
      <use xlink:href="#DejaVuSans-20" x="343.505859"/>
      <use xlink:href="#DejaVuSans-66" x="375.292969"/>
      <use xlink:href="#DejaVuSans-75" x="410.498047"/>
      <use xlink:href="#DejaVuSans-6c" x="473.876953"/>
      <use xlink:href="#DejaVuSans-66" x="501.660156"/>
      <use xlink:href="#DejaVuSans-69" x="536.865234"/>
      <use xlink:href="#DejaVuSans-6c" x="564.648438"/>
      <use xlink:href="#DejaVuSans-6c" x="592.431641"/>
      <use xlink:href="#DejaVuSans-65" x="620.214844"/>
      <use xlink:href="#DejaVuSans-64" x="681.738281"/>
      <use xlink:href="#DejaVuSans-20" x="745.214844"/>
      <use xlink:href="#DejaVuSans-5b" x="777.001953"/>
      <use xlink:href="#DejaVuSans-31" x="816.015625"/>
      <use xlink:href="#DejaVuSans-2f" x="879.638672"/>
      <use xlink:href="#DejaVuSans-31" x="913.330078"/>
      <use xlink:href="#DejaVuSans-30" x="976.953125"/>
      <use xlink:href="#DejaVuSans-30" x="1040.576172"/>
      <use xlink:href="#DejaVuSans-20" x="1104.199219"/>
      <use xlink:href="#DejaVuSans-25" x="1135.986328"/>
      <use xlink:href="#DejaVuSans-5d" x="1231.005859"/>
     </g>
    </g>
   </g>
   <g id="LineCollection_13">
    <path d="M 409.874136 151.999034 
L 435.349364 151.999034 
" clip-path="url(#pf7897a8754)" style="fill: none; stroke: #1f77b4; stroke-width: 1.5"/>
   </g>
   <g id="LineCollection_14">
    <path d="M 409.874136 57.342727 
L 435.349364 57.342727 
" clip-path="url(#pf7897a8754)" style="fill: none; stroke: #1f77b4; stroke-width: 1.5"/>
   </g>
   <g id="LineCollection_15">
    <path d="M 409.874136 263.397273 
L 435.349364 263.397273 
" clip-path="url(#pf7897a8754)" style="fill: none; stroke: #1f77b4; stroke-width: 1.5"/>
   </g>
   <g id="LineCollection_16">
    <path d="M 422.61175 263.397273 
L 422.61175 57.342727 
" clip-path="url(#pf7897a8754)" style="fill: none; stroke: #1f77b4; stroke-width: 1.5"/>
   </g>
   <g id="patch_18">
    <path d="M 394.589 273.7 
L 394.589 47.04 
" style="fill: none; stroke: #000000; stroke-width: 0.8; stroke-linejoin: miter; stroke-linecap: square"/>
   </g>
   <g id="patch_19">
    <path d="M 450.6345 273.7 
L 450.6345 47.04 
" style="fill: none; stroke: #000000; stroke-width: 0.8; stroke-linejoin: miter; stroke-linecap: square"/>
   </g>
   <g id="patch_20">
    <path d="M 394.589 273.7 
L 450.6345 273.7 
" style="fill: none; stroke: #000000; stroke-width: 0.8; stroke-linejoin: miter; stroke-linecap: square"/>
   </g>
   <g id="patch_21">
    <path d="M 394.589 47.04 
L 450.6345 47.04 
" style="fill: none; stroke: #000000; stroke-width: 0.8; stroke-linejoin: miter; stroke-linecap: square"/>
   </g>
   <g id="text_33">
    <!-- % NOE fulfilled -->
    <g transform="translate(377.898625 41.04)scale(0.12 -0.12)">
     <use xlink:href="#DejaVuSans-25"/>
     <use xlink:href="#DejaVuSans-20" x="95.019531"/>
     <use xlink:href="#DejaVuSans-4e" x="126.806641"/>
     <use xlink:href="#DejaVuSans-4f" x="201.611328"/>
     <use xlink:href="#DejaVuSans-45" x="280.322266"/>
     <use xlink:href="#DejaVuSans-20" x="343.505859"/>
     <use xlink:href="#DejaVuSans-66" x="375.292969"/>
     <use xlink:href="#DejaVuSans-75" x="410.498047"/>
     <use xlink:href="#DejaVuSans-6c" x="473.876953"/>
     <use xlink:href="#DejaVuSans-66" x="501.660156"/>
     <use xlink:href="#DejaVuSans-69" x="536.865234"/>
     <use xlink:href="#DejaVuSans-6c" x="564.648438"/>
     <use xlink:href="#DejaVuSans-6c" x="592.431641"/>
     <use xlink:href="#DejaVuSans-65" x="620.214844"/>
     <use xlink:href="#DejaVuSans-64" x="681.738281"/>
    </g>
   </g>
  </g>
  <g id="axes_5">
   <g id="patch_22">
    <path d="M 509.1545 273.7 
L 565.2 273.7 
L 565.2 47.04 
L 509.1545 47.04 
z
" style="fill: #ffffff"/>
   </g>
   <g id="PolyCollection_5">
    <path d="M 537.465799 263.397273 
L 536.888701 263.397273 
L 536.864227 261.315914 
L 536.838871 259.234555 
L 536.810255 257.153196 
L 536.775818 255.071837 
L 536.733147 252.990478 
L 536.680154 250.909118 
L 536.615027 248.827759 
L 536.535975 246.7464 
L 536.440911 244.665041 
L 536.327249 242.583682 
L 536.191972 240.502323 
L 536.03205 238.420964 
L 535.845109 236.339605 
L 535.630143 234.258246 
L 535.388006 232.176887 
L 535.12145 230.095528 
L 534.834654 228.014169 
L 534.532365 225.93281 
L 534.218915 223.851451 
L 533.897422 221.770092 
L 533.569395 219.688733 
L 533.23479 217.607374 
L 532.892384 215.526015 
L 532.540235 213.444656 
L 532.176005 211.363297 
L 531.797038 209.281938 
L 531.400208 207.200579 
L 530.981675 205.119219 
L 530.536711 203.03786 
L 530.059746 200.956501 
L 529.544684 198.875142 
L 528.985511 196.793783 
L 528.377124 194.712424 
L 527.716289 192.631065 
L 527.002546 190.549706 
L 526.23886 188.468347 
L 525.431746 186.386988 
L 524.590703 184.305629 
L 523.726891 182.22427 
L 522.851261 180.142911 
L 521.972531 178.061552 
L 521.095573 175.980193 
L 520.220781 173.898834 
L 519.34479 171.817475 
L 518.46265 169.736116 
L 517.5711 167.654757 
L 516.672233 165.573398 
L 515.776534 163.492039 
L 514.904219 161.41068 
L 514.084081 159.32932 
L 513.349613 157.247961 
L 512.732983 155.166602 
L 512.258217 153.085243 
L 511.935406 151.003884 
L 511.757675 148.922525 
L 511.702023 146.841166 
L 511.734004 144.759807 
L 511.815103 142.678448 
L 511.9108 140.597089 
L 511.997158 138.51573 
L 512.064295 136.434371 
L 512.116161 134.353012 
L 512.167233 132.271653 
L 512.237607 130.190294 
L 512.34827 128.108935 
L 512.517931 126.027576 
L 512.761961 123.946217 
L 513.093023 121.864858 
L 513.522343 119.783499 
L 514.060401 117.70214 
L 514.716265 115.620781 
L 515.495532 113.539421 
L 516.397561 111.458062 
L 517.413138 109.376703 
L 518.523628 107.295344 
L 519.70218 105.213985 
L 520.916821 103.132626 
L 522.134646 101.051267 
L 523.325998 98.969908 
L 524.467629 96.888549 
L 525.54423 94.80719 
L 526.548307 92.725831 
L 527.478802 90.644472 
L 528.339103 88.563113 
L 529.135051 86.481754 
L 529.873363 84.400395 
L 530.560584 82.319036 
L 531.202543 80.237677 
L 531.804126 78.156318 
L 532.369219 76.074959 
L 532.900707 73.9936 
L 533.400499 71.912241 
L 533.869568 69.830882 
L 534.308038 67.749522 
L 534.715336 65.668163 
L 535.090414 63.586804 
L 535.432032 61.505445 
L 535.739074 59.424086 
L 536.010844 57.342727 
L 538.343656 57.342727 
L 538.343656 57.342727 
L 538.615426 59.424086 
L 538.922468 61.505445 
L 539.264086 63.586804 
L 539.639164 65.668163 
L 540.046462 67.749522 
L 540.484932 69.830882 
L 540.954001 71.912241 
L 541.453793 73.9936 
L 541.985281 76.074959 
L 542.550374 78.156318 
L 543.151957 80.237677 
L 543.793916 82.319036 
L 544.481137 84.400395 
L 545.219449 86.481754 
L 546.015397 88.563113 
L 546.875698 90.644472 
L 547.806193 92.725831 
L 548.81027 94.80719 
L 549.886871 96.888549 
L 551.028502 98.969908 
L 552.219854 101.051267 
L 553.437679 103.132626 
L 554.65232 105.213985 
L 555.830872 107.295344 
L 556.941362 109.376703 
L 557.956939 111.458062 
L 558.858968 113.539421 
L 559.638235 115.620781 
L 560.294099 117.70214 
L 560.832157 119.783499 
L 561.261477 121.864858 
L 561.592539 123.946217 
L 561.836569 126.027576 
L 562.00623 128.108935 
L 562.116893 130.190294 
L 562.187267 132.271653 
L 562.238339 134.353012 
L 562.290205 136.434371 
L 562.357342 138.51573 
L 562.4437 140.597089 
L 562.539397 142.678448 
L 562.620496 144.759807 
L 562.652477 146.841166 
L 562.596825 148.922525 
L 562.419094 151.003884 
L 562.096283 153.085243 
L 561.621517 155.166602 
L 561.004887 157.247961 
L 560.270419 159.32932 
L 559.450281 161.41068 
L 558.577966 163.492039 
L 557.682267 165.573398 
L 556.7834 167.654757 
L 555.89185 169.736116 
L 555.00971 171.817475 
L 554.133719 173.898834 
L 553.258927 175.980193 
L 552.381969 178.061552 
L 551.503239 180.142911 
L 550.627609 182.22427 
L 549.763797 184.305629 
L 548.922754 186.386988 
L 548.11564 188.468347 
L 547.351954 190.549706 
L 546.638211 192.631065 
L 545.977376 194.712424 
L 545.368989 196.793783 
L 544.809816 198.875142 
L 544.294754 200.956501 
L 543.817789 203.03786 
L 543.372825 205.119219 
L 542.954292 207.200579 
L 542.557462 209.281938 
L 542.178495 211.363297 
L 541.814265 213.444656 
L 541.462116 215.526015 
L 541.11971 217.607374 
L 540.785105 219.688733 
L 540.457078 221.770092 
L 540.135585 223.851451 
L 539.822135 225.93281 
L 539.519846 228.014169 
L 539.23305 230.095528 
L 538.966494 232.176887 
L 538.724357 234.258246 
L 538.509391 236.339605 
L 538.32245 238.420964 
L 538.162528 240.502323 
L 538.027251 242.583682 
L 537.913589 244.665041 
L 537.818525 246.7464 
L 537.739473 248.827759 
L 537.674346 250.909118 
L 537.621353 252.990478 
L 537.578682 255.071837 
L 537.544245 257.153196 
L 537.515629 259.234555 
L 537.490273 261.315914 
L 537.465799 263.397273 
z
" clip-path="url(#p437bcdb076)" style="fill: #1f77b4; fill-opacity: 0.3"/>
   </g>
   <g id="matplotlib.axis_5">
    <g id="ytick_26">
     <g id="line2d_26">
      <g>
       <use xlink:href="#m936f8c3105" x="509.1545" y="269.93056" style="stroke: #000000; stroke-width: 0.8"/>
      </g>
     </g>
     <g id="text_34">
      <!-- 0.20 -->
      <g transform="translate(479.888875 273.729779)scale(0.1 -0.1)">
       <use xlink:href="#DejaVuSans-30"/>
       <use xlink:href="#DejaVuSans-2e" x="63.623047"/>
       <use xlink:href="#DejaVuSans-32" x="95.410156"/>
       <use xlink:href="#DejaVuSans-30" x="159.033203"/>
      </g>
     </g>
    </g>
    <g id="ytick_27">
     <g id="line2d_27">
      <g>
       <use xlink:href="#m936f8c3105" x="509.1545" y="244.581341" style="stroke: #000000; stroke-width: 0.8"/>
      </g>
     </g>
     <g id="text_35">
      <!-- 0.25 -->
      <g transform="translate(479.888875 248.38056)scale(0.1 -0.1)">
       <use xlink:href="#DejaVuSans-30"/>
       <use xlink:href="#DejaVuSans-2e" x="63.623047"/>
       <use xlink:href="#DejaVuSans-32" x="95.410156"/>
       <use xlink:href="#DejaVuSans-35" x="159.033203"/>
      </g>
     </g>
    </g>
    <g id="ytick_28">
     <g id="line2d_28">
      <g>
       <use xlink:href="#m936f8c3105" x="509.1545" y="219.232122" style="stroke: #000000; stroke-width: 0.8"/>
      </g>
     </g>
     <g id="text_36">
      <!-- 0.30 -->
      <g transform="translate(479.888875 223.031341)scale(0.1 -0.1)">
       <use xlink:href="#DejaVuSans-30"/>
       <use xlink:href="#DejaVuSans-2e" x="63.623047"/>
       <use xlink:href="#DejaVuSans-33" x="95.410156"/>
       <use xlink:href="#DejaVuSans-30" x="159.033203"/>
      </g>
     </g>
    </g>
    <g id="ytick_29">
     <g id="line2d_29">
      <g>
       <use xlink:href="#m936f8c3105" x="509.1545" y="193.882904" style="stroke: #000000; stroke-width: 0.8"/>
      </g>
     </g>
     <g id="text_37">
      <!-- 0.35 -->
      <g transform="translate(479.888875 197.682122)scale(0.1 -0.1)">
       <use xlink:href="#DejaVuSans-30"/>
       <use xlink:href="#DejaVuSans-2e" x="63.623047"/>
       <use xlink:href="#DejaVuSans-33" x="95.410156"/>
       <use xlink:href="#DejaVuSans-35" x="159.033203"/>
      </g>
     </g>
    </g>
    <g id="ytick_30">
     <g id="line2d_30">
      <g>
       <use xlink:href="#m936f8c3105" x="509.1545" y="168.533685" style="stroke: #000000; stroke-width: 0.8"/>
      </g>
     </g>
     <g id="text_38">
      <!-- 0.40 -->
      <g transform="translate(479.888875 172.332904)scale(0.1 -0.1)">
       <use xlink:href="#DejaVuSans-30"/>
       <use xlink:href="#DejaVuSans-2e" x="63.623047"/>
       <use xlink:href="#DejaVuSans-34" x="95.410156"/>
       <use xlink:href="#DejaVuSans-30" x="159.033203"/>
      </g>
     </g>
    </g>
    <g id="ytick_31">
     <g id="line2d_31">
      <g>
       <use xlink:href="#m936f8c3105" x="509.1545" y="143.184466" style="stroke: #000000; stroke-width: 0.8"/>
      </g>
     </g>
     <g id="text_39">
      <!-- 0.45 -->
      <g transform="translate(479.888875 146.983685)scale(0.1 -0.1)">
       <use xlink:href="#DejaVuSans-30"/>
       <use xlink:href="#DejaVuSans-2e" x="63.623047"/>
       <use xlink:href="#DejaVuSans-34" x="95.410156"/>
       <use xlink:href="#DejaVuSans-35" x="159.033203"/>
      </g>
     </g>
    </g>
    <g id="ytick_32">
     <g id="line2d_32">
      <g>
       <use xlink:href="#m936f8c3105" x="509.1545" y="117.835247" style="stroke: #000000; stroke-width: 0.8"/>
      </g>
     </g>
     <g id="text_40">
      <!-- 0.50 -->
      <g transform="translate(479.888875 121.634466)scale(0.1 -0.1)">
       <use xlink:href="#DejaVuSans-30"/>
       <use xlink:href="#DejaVuSans-2e" x="63.623047"/>
       <use xlink:href="#DejaVuSans-35" x="95.410156"/>
       <use xlink:href="#DejaVuSans-30" x="159.033203"/>
      </g>
     </g>
    </g>
    <g id="ytick_33">
     <g id="line2d_33">
      <g>
       <use xlink:href="#m936f8c3105" x="509.1545" y="92.486029" style="stroke: #000000; stroke-width: 0.8"/>
      </g>
     </g>
     <g id="text_41">
      <!-- 0.55 -->
      <g transform="translate(479.888875 96.285247)scale(0.1 -0.1)">
       <use xlink:href="#DejaVuSans-30"/>
       <use xlink:href="#DejaVuSans-2e" x="63.623047"/>
       <use xlink:href="#DejaVuSans-35" x="95.410156"/>
       <use xlink:href="#DejaVuSans-35" x="159.033203"/>
      </g>
     </g>
    </g>
    <g id="ytick_34">
     <g id="line2d_34">
      <g>
       <use xlink:href="#m936f8c3105" x="509.1545" y="67.13681" style="stroke: #000000; stroke-width: 0.8"/>
      </g>
     </g>
     <g id="text_42">
      <!-- 0.60 -->
      <g transform="translate(479.888875 70.936029)scale(0.1 -0.1)">
       <use xlink:href="#DejaVuSans-30"/>
       <use xlink:href="#DejaVuSans-2e" x="63.623047"/>
       <use xlink:href="#DejaVuSans-36" x="95.410156"/>
       <use xlink:href="#DejaVuSans-30" x="159.033203"/>
      </g>
     </g>
    </g>
    <g id="text_43">
     <!-- RMSD stepwise [$\AA$] -->
     <g transform="translate(473.788875 207.67)rotate(-90)scale(0.1 -0.1)">
      <defs>
       <path id="DejaVuSans-73" d="M 2834 3397 
L 2834 2853 
Q 2591 2978 2328 3040 
Q 2066 3103 1784 3103 
Q 1356 3103 1142 2972 
Q 928 2841 928 2578 
Q 928 2378 1081 2264 
Q 1234 2150 1697 2047 
L 1894 2003 
Q 2506 1872 2764 1633 
Q 3022 1394 3022 966 
Q 3022 478 2636 193 
Q 2250 -91 1575 -91 
Q 1294 -91 989 -36 
Q 684 19 347 128 
L 347 722 
Q 666 556 975 473 
Q 1284 391 1588 391 
Q 1994 391 2212 530 
Q 2431 669 2431 922 
Q 2431 1156 2273 1281 
Q 2116 1406 1581 1522 
L 1381 1569 
Q 847 1681 609 1914 
Q 372 2147 372 2553 
Q 372 3047 722 3315 
Q 1072 3584 1716 3584 
Q 2034 3584 2315 3537 
Q 2597 3491 2834 3397 
z
" transform="scale(0.015625)"/>
       <path id="DejaVuSans-74" d="M 1172 4494 
L 1172 3500 
L 2356 3500 
L 2356 3053 
L 1172 3053 
L 1172 1153 
Q 1172 725 1289 603 
Q 1406 481 1766 481 
L 2356 481 
L 2356 0 
L 1766 0 
Q 1100 0 847 248 
Q 594 497 594 1153 
L 594 3053 
L 172 3053 
L 172 3500 
L 594 3500 
L 594 4494 
L 1172 4494 
z
" transform="scale(0.015625)"/>
       <path id="DejaVuSans-70" d="M 1159 525 
L 1159 -1331 
L 581 -1331 
L 581 3500 
L 1159 3500 
L 1159 2969 
Q 1341 3281 1617 3432 
Q 1894 3584 2278 3584 
Q 2916 3584 3314 3078 
Q 3713 2572 3713 1747 
Q 3713 922 3314 415 
Q 2916 -91 2278 -91 
Q 1894 -91 1617 61 
Q 1341 213 1159 525 
z
M 3116 1747 
Q 3116 2381 2855 2742 
Q 2594 3103 2138 3103 
Q 1681 3103 1420 2742 
Q 1159 2381 1159 1747 
Q 1159 1113 1420 752 
Q 1681 391 2138 391 
Q 2594 391 2855 752 
Q 3116 1113 3116 1747 
z
" transform="scale(0.015625)"/>
       <path id="DejaVuSans-77" d="M 269 3500 
L 844 3500 
L 1563 769 
L 2278 3500 
L 2956 3500 
L 3675 769 
L 4391 3500 
L 4966 3500 
L 4050 0 
L 3372 0 
L 2619 2869 
L 1863 0 
L 1184 0 
L 269 3500 
z
" transform="scale(0.015625)"/>
      </defs>
      <use xlink:href="#DejaVuSans-52" transform="translate(0 0.171875)"/>
      <use xlink:href="#DejaVuSans-4d" transform="translate(69.482422 0.171875)"/>
      <use xlink:href="#DejaVuSans-53" transform="translate(155.761719 0.171875)"/>
      <use xlink:href="#DejaVuSans-44" transform="translate(219.238281 0.171875)"/>
      <use xlink:href="#DejaVuSans-20" transform="translate(296.240234 0.171875)"/>
      <use xlink:href="#DejaVuSans-73" transform="translate(328.027344 0.171875)"/>
      <use xlink:href="#DejaVuSans-74" transform="translate(380.126953 0.171875)"/>
      <use xlink:href="#DejaVuSans-65" transform="translate(419.335938 0.171875)"/>
      <use xlink:href="#DejaVuSans-70" transform="translate(480.859375 0.171875)"/>
      <use xlink:href="#DejaVuSans-77" transform="translate(544.335938 0.171875)"/>
      <use xlink:href="#DejaVuSans-69" transform="translate(626.123047 0.171875)"/>
      <use xlink:href="#DejaVuSans-73" transform="translate(653.90625 0.171875)"/>
      <use xlink:href="#DejaVuSans-65" transform="translate(706.005859 0.171875)"/>
      <use xlink:href="#DejaVuSans-20" transform="translate(767.529297 0.171875)"/>
      <use xlink:href="#DejaVuSans-5b" transform="translate(799.316406 0.171875)"/>
      <use xlink:href="#DejaVuSans-Oblique-c5" transform="translate(838.330078 0.171875)"/>
      <use xlink:href="#DejaVuSans-5d" transform="translate(906.738281 0.171875)"/>
     </g>
    </g>
   </g>
   <g id="LineCollection_17">
    <path d="M 524.439636 143.066944 
L 549.914864 143.066944 
" clip-path="url(#p437bcdb076)" style="fill: none; stroke: #1f77b4; stroke-width: 1.5"/>
   </g>
   <g id="LineCollection_18">
    <path d="M 524.439636 57.342727 
L 549.914864 57.342727 
" clip-path="url(#p437bcdb076)" style="fill: none; stroke: #1f77b4; stroke-width: 1.5"/>
   </g>
   <g id="LineCollection_19">
    <path d="M 524.439636 263.397273 
L 549.914864 263.397273 
" clip-path="url(#p437bcdb076)" style="fill: none; stroke: #1f77b4; stroke-width: 1.5"/>
   </g>
   <g id="LineCollection_20">
    <path d="M 537.17725 263.397273 
L 537.17725 57.342727 
" clip-path="url(#p437bcdb076)" style="fill: none; stroke: #1f77b4; stroke-width: 1.5"/>
   </g>
   <g id="patch_23">
    <path d="M 509.1545 273.7 
L 509.1545 47.04 
" style="fill: none; stroke: #000000; stroke-width: 0.8; stroke-linejoin: miter; stroke-linecap: square"/>
   </g>
   <g id="patch_24">
    <path d="M 565.2 273.7 
L 565.2 47.04 
" style="fill: none; stroke: #000000; stroke-width: 0.8; stroke-linejoin: miter; stroke-linecap: square"/>
   </g>
   <g id="patch_25">
    <path d="M 509.1545 273.7 
L 565.2 273.7 
" style="fill: none; stroke: #000000; stroke-width: 0.8; stroke-linejoin: miter; stroke-linecap: square"/>
   </g>
   <g id="patch_26">
    <path d="M 509.1545 47.04 
L 565.2 47.04 
" style="fill: none; stroke: #000000; stroke-width: 0.8; stroke-linejoin: miter; stroke-linecap: square"/>
   </g>
   <g id="text_44">
    <!-- RMSD stepwise -->
    <g transform="translate(491.125375 41.04)scale(0.12 -0.12)">
     <use xlink:href="#DejaVuSans-52"/>
     <use xlink:href="#DejaVuSans-4d" x="69.482422"/>
     <use xlink:href="#DejaVuSans-53" x="155.761719"/>
     <use xlink:href="#DejaVuSans-44" x="219.238281"/>
     <use xlink:href="#DejaVuSans-20" x="296.240234"/>
     <use xlink:href="#DejaVuSans-73" x="328.027344"/>
     <use xlink:href="#DejaVuSans-74" x="380.126953"/>
     <use xlink:href="#DejaVuSans-65" x="419.335938"/>
     <use xlink:href="#DejaVuSans-70" x="480.859375"/>
     <use xlink:href="#DejaVuSans-77" x="544.335938"/>
     <use xlink:href="#DejaVuSans-69" x="626.123047"/>
     <use xlink:href="#DejaVuSans-73" x="653.90625"/>
     <use xlink:href="#DejaVuSans-65" x="706.005859"/>
    </g>
   </g>
  </g>
  <g id="text_45">
   <!-- Compound 35. Rdkit -->
   <g transform="translate(226.573125 14.878125)scale(0.12 -0.12)">
    <defs>
     <path id="DejaVuSans-43" d="M 4122 4306 
L 4122 3641 
Q 3803 3938 3442 4084 
Q 3081 4231 2675 4231 
Q 1875 4231 1450 3742 
Q 1025 3253 1025 2328 
Q 1025 1406 1450 917 
Q 1875 428 2675 428 
Q 3081 428 3442 575 
Q 3803 722 4122 1019 
L 4122 359 
Q 3791 134 3420 21 
Q 3050 -91 2638 -91 
Q 1578 -91 968 557 
Q 359 1206 359 2328 
Q 359 3453 968 4101 
Q 1578 4750 2638 4750 
Q 3056 4750 3426 4639 
Q 3797 4528 4122 4306 
z
" transform="scale(0.015625)"/>
     <path id="DejaVuSans-6f" d="M 1959 3097 
Q 1497 3097 1228 2736 
Q 959 2375 959 1747 
Q 959 1119 1226 758 
Q 1494 397 1959 397 
Q 2419 397 2687 759 
Q 2956 1122 2956 1747 
Q 2956 2369 2687 2733 
Q 2419 3097 1959 3097 
z
M 1959 3584 
Q 2709 3584 3137 3096 
Q 3566 2609 3566 1747 
Q 3566 888 3137 398 
Q 2709 -91 1959 -91 
Q 1206 -91 779 398 
Q 353 888 353 1747 
Q 353 2609 779 3096 
Q 1206 3584 1959 3584 
z
" transform="scale(0.015625)"/>
     <path id="DejaVuSans-6d" d="M 3328 2828 
Q 3544 3216 3844 3400 
Q 4144 3584 4550 3584 
Q 5097 3584 5394 3201 
Q 5691 2819 5691 2113 
L 5691 0 
L 5113 0 
L 5113 2094 
Q 5113 2597 4934 2840 
Q 4756 3084 4391 3084 
Q 3944 3084 3684 2787 
Q 3425 2491 3425 1978 
L 3425 0 
L 2847 0 
L 2847 2094 
Q 2847 2600 2669 2842 
Q 2491 3084 2119 3084 
Q 1678 3084 1418 2786 
Q 1159 2488 1159 1978 
L 1159 0 
L 581 0 
L 581 3500 
L 1159 3500 
L 1159 2956 
Q 1356 3278 1631 3431 
Q 1906 3584 2284 3584 
Q 2666 3584 2933 3390 
Q 3200 3197 3328 2828 
z
" transform="scale(0.015625)"/>
     <path id="DejaVuSans-6e" d="M 3513 2113 
L 3513 0 
L 2938 0 
L 2938 2094 
Q 2938 2591 2744 2837 
Q 2550 3084 2163 3084 
Q 1697 3084 1428 2787 
Q 1159 2491 1159 1978 
L 1159 0 
L 581 0 
L 581 3500 
L 1159 3500 
L 1159 2956 
Q 1366 3272 1645 3428 
Q 1925 3584 2291 3584 
Q 2894 3584 3203 3211 
Q 3513 2838 3513 2113 
z
" transform="scale(0.015625)"/>
     <path id="DejaVuSans-6b" d="M 581 4863 
L 1159 4863 
L 1159 1991 
L 2875 3500 
L 3609 3500 
L 1753 1863 
L 3688 0 
L 2938 0 
L 1159 1709 
L 1159 0 
L 581 0 
L 581 4863 
z
" transform="scale(0.015625)"/>
    </defs>
    <use xlink:href="#DejaVuSans-43"/>
    <use xlink:href="#DejaVuSans-6f" x="69.824219"/>
    <use xlink:href="#DejaVuSans-6d" x="131.005859"/>
    <use xlink:href="#DejaVuSans-70" x="228.417969"/>
    <use xlink:href="#DejaVuSans-6f" x="291.894531"/>
    <use xlink:href="#DejaVuSans-75" x="353.076172"/>
    <use xlink:href="#DejaVuSans-6e" x="416.455078"/>
    <use xlink:href="#DejaVuSans-64" x="479.833984"/>
    <use xlink:href="#DejaVuSans-20" x="543.310547"/>
    <use xlink:href="#DejaVuSans-33" x="575.097656"/>
    <use xlink:href="#DejaVuSans-35" x="638.720703"/>
    <use xlink:href="#DejaVuSans-2e" x="702.34375"/>
    <use xlink:href="#DejaVuSans-20" x="734.130859"/>
    <use xlink:href="#DejaVuSans-52" x="765.917969"/>
    <use xlink:href="#DejaVuSans-64" x="835.400391"/>
    <use xlink:href="#DejaVuSans-6b" x="898.876953"/>
    <use xlink:href="#DejaVuSans-69" x="956.787109"/>
    <use xlink:href="#DejaVuSans-74" x="984.570312"/>
   </g>
  </g>
 </g>
 <defs>
  <clipPath id="p2ca5c17b57">
   <rect x="50.8925" y="47.04" width="56.0455" height="226.66"/>
  </clipPath>
  <clipPath id="p5fbdac2dfd">
   <rect x="165.458" y="47.04" width="56.0455" height="226.66"/>
  </clipPath>
  <clipPath id="p325a9c7752">
   <rect x="280.0235" y="47.04" width="56.0455" height="226.66"/>
  </clipPath>
  <clipPath id="pf7897a8754">
   <rect x="394.589" y="47.04" width="56.0455" height="226.66"/>
  </clipPath>
  <clipPath id="p437bcdb076">
   <rect x="509.1545" y="47.04" width="56.0455" height="226.66"/>
  </clipPath>
 </defs>
</svg>
