<?xml version="1.0" encoding="utf-8" standalone="no"?>
<!DOCTYPE svg PUBLIC "-//W3C//DTD SVG 1.1//EN"
  "http://www.w3.org/Graphics/SVG/1.1/DTD/svg11.dtd">
<svg xmlns:xlink="http://www.w3.org/1999/xlink" width="576pt" height="288pt" viewBox="0 0 576 288" xmlns="http://www.w3.org/2000/svg" version="1.1">
 <metadata>
  <rdf:RDF xmlns:dc="http://purl.org/dc/elements/1.1/" xmlns:cc="http://creativecommons.org/ns#" xmlns:rdf="http://www.w3.org/1999/02/22-rdf-syntax-ns#">
   <cc:Work>
    <dc:type rdf:resource="http://purl.org/dc/dcmitype/StillImage"/>
    <dc:date>2023-05-31T12:20:13.574701</dc:date>
    <dc:format>image/svg+xml</dc:format>
    <dc:creator>
     <cc:Agent>
      <dc:title>Matplotlib v3.5.3, https://matplotlib.org/</dc:title>
     </cc:Agent>
    </dc:creator>
   </cc:Work>
  </rdf:RDF>
 </metadata>
 <defs>
  <style type="text/css">*{stroke-linejoin: round; stroke-linecap: butt}</style>
 </defs>
 <g id="figure_1">
  <g id="patch_1">
   <path d="M 0 288 
L 576 288 
L 576 0 
L 0 0 
z
" style="fill: #ffffff"/>
  </g>
  <g id="axes_1">
   <g id="patch_2">
    <path d="M 50.8925 273.7 
L 106.938 273.7 
L 106.938 47.04 
L 50.8925 47.04 
z
" style="fill: #ffffff"/>
   </g>
   <g id="PolyCollection_1">
    <path d="M 80.159639 263.397273 
L 77.670861 263.397273 
L 77.507638 261.315914 
L 77.340258 259.234555 
L 77.167051 257.153196 
L 76.984622 255.071837 
L 76.787964 252.990478 
L 76.570771 250.909118 
L 76.325901 248.827759 
L 76.045948 246.7464 
L 75.723856 244.665041 
L 75.35356 242.583682 
L 74.930603 240.502323 
L 74.452729 238.420964 
L 73.920371 236.339605 
L 73.336958 234.258246 
L 72.708941 232.176887 
L 72.045395 230.095528 
L 71.357154 228.014169 
L 70.655464 225.93281 
L 69.95031 223.851451 
L 69.248647 221.770092 
L 68.55289 219.688733 
L 67.860015 217.607374 
L 67.161551 215.526015 
L 66.444606 213.444656 
L 65.693859 211.363297 
L 64.894235 209.281938 
L 64.033838 207.200579 
L 63.106626 205.119219 
L 62.114369 203.03786 
L 61.067555 200.956501 
L 59.985117 198.875142 
L 58.893073 196.793783 
L 57.82236 194.712424 
L 56.806232 192.631065 
L 55.877646 190.549706 
L 55.066971 188.468347 
L 54.400247 186.386988 
L 53.898073 184.305629 
L 53.575104 182.22427 
L 53.440023 180.142911 
L 53.495825 178.061552 
L 53.740276 175.980193 
L 54.166403 173.898834 
L 54.762973 171.817475 
L 55.514921 169.736116 
L 56.403761 167.654757 
L 57.408009 165.573398 
L 58.503699 163.492039 
L 59.665 161.41068 
L 60.864988 159.32932 
L 62.076544 157.247961 
L 63.273355 155.166602 
L 64.430937 153.085243 
L 65.527623 151.003884 
L 66.545422 148.922525 
L 67.470689 146.841166 
L 68.294564 144.759807 
L 69.01315 142.678448 
L 69.627416 140.597089 
L 70.142847 138.51573 
L 70.568841 136.434371 
L 70.9179 134.353012 
L 71.204653 132.271653 
L 71.444779 130.190294 
L 71.653902 128.108935 
L 71.84654 126.027576 
L 72.035187 123.946217 
L 72.229592 121.864858 
L 72.436281 119.783499 
L 72.658347 117.70214 
L 72.895511 115.620781 
L 73.144431 113.539421 
L 73.399255 111.458062 
L 73.652357 109.376703 
L 73.895222 107.295344 
L 74.119409 105.213985 
L 74.317516 103.132626 
L 74.48405 101.051267 
L 74.616104 98.969908 
L 74.713764 96.888549 
L 74.780169 94.80719 
L 74.821233 92.725831 
L 74.845051 90.644472 
L 74.861081 88.563113 
L 74.879218 86.481754 
L 74.908897 84.400395 
L 74.958315 82.319036 
L 75.033863 80.237677 
L 75.139791 78.156318 
L 75.27809 76.074959 
L 75.448561 73.9936 
L 75.649015 71.912241 
L 75.875565 69.830882 
L 76.122978 67.749522 
L 76.385063 65.668163 
L 76.655071 63.586804 
L 76.926119 61.505445 
L 77.191583 59.424086 
L 77.445467 57.342727 
L 80.385033 57.342727 
L 80.385033 57.342727 
L 80.638917 59.424086 
L 80.904381 61.505445 
L 81.175429 63.586804 
L 81.445437 65.668163 
L 81.707522 67.749522 
L 81.954935 69.830882 
L 82.181485 71.912241 
L 82.381939 73.9936 
L 82.55241 76.074959 
L 82.690709 78.156318 
L 82.796637 80.237677 
L 82.872185 82.319036 
L 82.921603 84.400395 
L 82.951282 86.481754 
L 82.969419 88.563113 
L 82.985449 90.644472 
L 83.009267 92.725831 
L 83.050331 94.80719 
L 83.116736 96.888549 
L 83.214396 98.969908 
L 83.34645 101.051267 
L 83.512984 103.132626 
L 83.711091 105.213985 
L 83.935278 107.295344 
L 84.178143 109.376703 
L 84.431245 111.458062 
L 84.686069 113.539421 
L 84.934989 115.620781 
L 85.172153 117.70214 
L 85.394219 119.783499 
L 85.600908 121.864858 
L 85.795313 123.946217 
L 85.98396 126.027576 
L 86.176598 128.108935 
L 86.385721 130.190294 
L 86.625847 132.271653 
L 86.9126 134.353012 
L 87.261659 136.434371 
L 87.687653 138.51573 
L 88.203084 140.597089 
L 88.81735 142.678448 
L 89.535936 144.759807 
L 90.359811 146.841166 
L 91.285078 148.922525 
L 92.302877 151.003884 
L 93.399563 153.085243 
L 94.557145 155.166602 
L 95.753956 157.247961 
L 96.965512 159.32932 
L 98.1655 161.41068 
L 99.326801 163.492039 
L 100.422491 165.573398 
L 101.426739 167.654757 
L 102.315579 169.736116 
L 103.067527 171.817475 
L 103.664097 173.898834 
L 104.090224 175.980193 
L 104.334675 178.061552 
L 104.390477 180.142911 
L 104.255396 182.22427 
L 103.932427 184.305629 
L 103.430253 186.386988 
L 102.763529 188.468347 
L 101.952854 190.549706 
L 101.024268 192.631065 
L 100.00814 194.712424 
L 98.937427 196.793783 
L 97.845383 198.875142 
L 96.762945 200.956501 
L 95.716131 203.03786 
L 94.723874 205.119219 
L 93.796662 207.200579 
L 92.936265 209.281938 
L 92.136641 211.363297 
L 91.385894 213.444656 
L 90.668949 215.526015 
L 89.970485 217.607374 
L 89.27761 219.688733 
L 88.581853 221.770092 
L 87.88019 223.851451 
L 87.175036 225.93281 
L 86.473346 228.014169 
L 85.785105 230.095528 
L 85.121559 232.176887 
L 84.493542 234.258246 
L 83.910129 236.339605 
L 83.377771 238.420964 
L 82.899897 240.502323 
L 82.47694 242.583682 
L 82.106644 244.665041 
L 81.784552 246.7464 
L 81.504599 248.827759 
L 81.259729 250.909118 
L 81.042536 252.990478 
L 80.845878 255.071837 
L 80.663449 257.153196 
L 80.490242 259.234555 
L 80.322862 261.315914 
L 80.159639 263.397273 
z
" clip-path="url(#p579b815b9a)" style="fill: #1f77b4; fill-opacity: 0.3"/>
   </g>
   <g id="matplotlib.axis_1">
    <g id="ytick_1">
     <g id="line2d_1">
      <defs>
       <path id="m7c0e0aebac" d="M 0 0 
L -3.5 0 
" style="stroke: #000000; stroke-width: 0.8"/>
      </defs>
      <g>
       <use xlink:href="#m7c0e0aebac" x="50.8925" y="267.715025" style="stroke: #000000; stroke-width: 0.8"/>
      </g>
     </g>
     <g id="text_1">
      <!-- 0.4 -->
      <g transform="translate(27.989375 271.514243)scale(0.1 -0.1)">
       <defs>
        <path id="DejaVuSans-30" d="M 2034 4250 
Q 1547 4250 1301 3770 
Q 1056 3291 1056 2328 
Q 1056 1369 1301 889 
Q 1547 409 2034 409 
Q 2525 409 2770 889 
Q 3016 1369 3016 2328 
Q 3016 3291 2770 3770 
Q 2525 4250 2034 4250 
z
M 2034 4750 
Q 2819 4750 3233 4129 
Q 3647 3509 3647 2328 
Q 3647 1150 3233 529 
Q 2819 -91 2034 -91 
Q 1250 -91 836 529 
Q 422 1150 422 2328 
Q 422 3509 836 4129 
Q 1250 4750 2034 4750 
z
" transform="scale(0.015625)"/>
        <path id="DejaVuSans-2e" d="M 684 794 
L 1344 794 
L 1344 0 
L 684 0 
L 684 794 
z
" transform="scale(0.015625)"/>
        <path id="DejaVuSans-34" d="M 2419 4116 
L 825 1625 
L 2419 1625 
L 2419 4116 
z
M 2253 4666 
L 3047 4666 
L 3047 1625 
L 3713 1625 
L 3713 1100 
L 3047 1100 
L 3047 0 
L 2419 0 
L 2419 1100 
L 313 1100 
L 313 1709 
L 2253 4666 
z
" transform="scale(0.015625)"/>
       </defs>
       <use xlink:href="#DejaVuSans-30"/>
       <use xlink:href="#DejaVuSans-2e" x="63.623047"/>
       <use xlink:href="#DejaVuSans-34" x="95.410156"/>
      </g>
     </g>
    </g>
    <g id="ytick_2">
     <g id="line2d_2">
      <g>
       <use xlink:href="#m7c0e0aebac" x="50.8925" y="234.360909" style="stroke: #000000; stroke-width: 0.8"/>
      </g>
     </g>
     <g id="text_2">
      <!-- 0.5 -->
      <g transform="translate(27.989375 238.160128)scale(0.1 -0.1)">
       <defs>
        <path id="DejaVuSans-35" d="M 691 4666 
L 3169 4666 
L 3169 4134 
L 1269 4134 
L 1269 2991 
Q 1406 3038 1543 3061 
Q 1681 3084 1819 3084 
Q 2600 3084 3056 2656 
Q 3513 2228 3513 1497 
Q 3513 744 3044 326 
Q 2575 -91 1722 -91 
Q 1428 -91 1123 -41 
Q 819 9 494 109 
L 494 744 
Q 775 591 1075 516 
Q 1375 441 1709 441 
Q 2250 441 2565 725 
Q 2881 1009 2881 1497 
Q 2881 1984 2565 2268 
Q 2250 2553 1709 2553 
Q 1456 2553 1204 2497 
Q 953 2441 691 2322 
L 691 4666 
z
" transform="scale(0.015625)"/>
       </defs>
       <use xlink:href="#DejaVuSans-30"/>
       <use xlink:href="#DejaVuSans-2e" x="63.623047"/>
       <use xlink:href="#DejaVuSans-35" x="95.410156"/>
      </g>
     </g>
    </g>
    <g id="ytick_3">
     <g id="line2d_3">
      <g>
       <use xlink:href="#m7c0e0aebac" x="50.8925" y="201.006794" style="stroke: #000000; stroke-width: 0.8"/>
      </g>
     </g>
     <g id="text_3">
      <!-- 0.6 -->
      <g transform="translate(27.989375 204.806013)scale(0.1 -0.1)">
       <defs>
        <path id="DejaVuSans-36" d="M 2113 2584 
Q 1688 2584 1439 2293 
Q 1191 2003 1191 1497 
Q 1191 994 1439 701 
Q 1688 409 2113 409 
Q 2538 409 2786 701 
Q 3034 994 3034 1497 
Q 3034 2003 2786 2293 
Q 2538 2584 2113 2584 
z
M 3366 4563 
L 3366 3988 
Q 3128 4100 2886 4159 
Q 2644 4219 2406 4219 
Q 1781 4219 1451 3797 
Q 1122 3375 1075 2522 
Q 1259 2794 1537 2939 
Q 1816 3084 2150 3084 
Q 2853 3084 3261 2657 
Q 3669 2231 3669 1497 
Q 3669 778 3244 343 
Q 2819 -91 2113 -91 
Q 1303 -91 875 529 
Q 447 1150 447 2328 
Q 447 3434 972 4092 
Q 1497 4750 2381 4750 
Q 2619 4750 2861 4703 
Q 3103 4656 3366 4563 
z
" transform="scale(0.015625)"/>
       </defs>
       <use xlink:href="#DejaVuSans-30"/>
       <use xlink:href="#DejaVuSans-2e" x="63.623047"/>
       <use xlink:href="#DejaVuSans-36" x="95.410156"/>
      </g>
     </g>
    </g>
    <g id="ytick_4">
     <g id="line2d_4">
      <g>
       <use xlink:href="#m7c0e0aebac" x="50.8925" y="167.652679" style="stroke: #000000; stroke-width: 0.8"/>
      </g>
     </g>
     <g id="text_4">
      <!-- 0.7 -->
      <g transform="translate(27.989375 171.451897)scale(0.1 -0.1)">
       <defs>
        <path id="DejaVuSans-37" d="M 525 4666 
L 3525 4666 
L 3525 4397 
L 1831 0 
L 1172 0 
L 2766 4134 
L 525 4134 
L 525 4666 
z
" transform="scale(0.015625)"/>
       </defs>
       <use xlink:href="#DejaVuSans-30"/>
       <use xlink:href="#DejaVuSans-2e" x="63.623047"/>
       <use xlink:href="#DejaVuSans-37" x="95.410156"/>
      </g>
     </g>
    </g>
    <g id="ytick_5">
     <g id="line2d_5">
      <g>
       <use xlink:href="#m7c0e0aebac" x="50.8925" y="134.298563" style="stroke: #000000; stroke-width: 0.8"/>
      </g>
     </g>
     <g id="text_5">
      <!-- 0.8 -->
      <g transform="translate(27.989375 138.097782)scale(0.1 -0.1)">
       <defs>
        <path id="DejaVuSans-38" d="M 2034 2216 
Q 1584 2216 1326 1975 
Q 1069 1734 1069 1313 
Q 1069 891 1326 650 
Q 1584 409 2034 409 
Q 2484 409 2743 651 
Q 3003 894 3003 1313 
Q 3003 1734 2745 1975 
Q 2488 2216 2034 2216 
z
M 1403 2484 
Q 997 2584 770 2862 
Q 544 3141 544 3541 
Q 544 4100 942 4425 
Q 1341 4750 2034 4750 
Q 2731 4750 3128 4425 
Q 3525 4100 3525 3541 
Q 3525 3141 3298 2862 
Q 3072 2584 2669 2484 
Q 3125 2378 3379 2068 
Q 3634 1759 3634 1313 
Q 3634 634 3220 271 
Q 2806 -91 2034 -91 
Q 1263 -91 848 271 
Q 434 634 434 1313 
Q 434 1759 690 2068 
Q 947 2378 1403 2484 
z
M 1172 3481 
Q 1172 3119 1398 2916 
Q 1625 2713 2034 2713 
Q 2441 2713 2670 2916 
Q 2900 3119 2900 3481 
Q 2900 3844 2670 4047 
Q 2441 4250 2034 4250 
Q 1625 4250 1398 4047 
Q 1172 3844 1172 3481 
z
" transform="scale(0.015625)"/>
       </defs>
       <use xlink:href="#DejaVuSans-30"/>
       <use xlink:href="#DejaVuSans-2e" x="63.623047"/>
       <use xlink:href="#DejaVuSans-38" x="95.410156"/>
      </g>
     </g>
    </g>
    <g id="ytick_6">
     <g id="line2d_6">
      <g>
       <use xlink:href="#m7c0e0aebac" x="50.8925" y="100.944448" style="stroke: #000000; stroke-width: 0.8"/>
      </g>
     </g>
     <g id="text_6">
      <!-- 0.9 -->
      <g transform="translate(27.989375 104.743667)scale(0.1 -0.1)">
       <defs>
        <path id="DejaVuSans-39" d="M 703 97 
L 703 672 
Q 941 559 1184 500 
Q 1428 441 1663 441 
Q 2288 441 2617 861 
Q 2947 1281 2994 2138 
Q 2813 1869 2534 1725 
Q 2256 1581 1919 1581 
Q 1219 1581 811 2004 
Q 403 2428 403 3163 
Q 403 3881 828 4315 
Q 1253 4750 1959 4750 
Q 2769 4750 3195 4129 
Q 3622 3509 3622 2328 
Q 3622 1225 3098 567 
Q 2575 -91 1691 -91 
Q 1453 -91 1209 -44 
Q 966 3 703 97 
z
M 1959 2075 
Q 2384 2075 2632 2365 
Q 2881 2656 2881 3163 
Q 2881 3666 2632 3958 
Q 2384 4250 1959 4250 
Q 1534 4250 1286 3958 
Q 1038 3666 1038 3163 
Q 1038 2656 1286 2365 
Q 1534 2075 1959 2075 
z
" transform="scale(0.015625)"/>
       </defs>
       <use xlink:href="#DejaVuSans-30"/>
       <use xlink:href="#DejaVuSans-2e" x="63.623047"/>
       <use xlink:href="#DejaVuSans-39" x="95.410156"/>
      </g>
     </g>
    </g>
    <g id="ytick_7">
     <g id="line2d_7">
      <g>
       <use xlink:href="#m7c0e0aebac" x="50.8925" y="67.590332" style="stroke: #000000; stroke-width: 0.8"/>
      </g>
     </g>
     <g id="text_7">
      <!-- 1.0 -->
      <g transform="translate(27.989375 71.389551)scale(0.1 -0.1)">
       <defs>
        <path id="DejaVuSans-31" d="M 794 531 
L 1825 531 
L 1825 4091 
L 703 3866 
L 703 4441 
L 1819 4666 
L 2450 4666 
L 2450 531 
L 3481 531 
L 3481 0 
L 794 0 
L 794 531 
z
" transform="scale(0.015625)"/>
       </defs>
       <use xlink:href="#DejaVuSans-31"/>
       <use xlink:href="#DejaVuSans-2e" x="63.623047"/>
       <use xlink:href="#DejaVuSans-30" x="95.410156"/>
      </g>
     </g>
    </g>
    <g id="text_8">
     <!-- RMSD [$\AA$] -->
     <g transform="translate(21.909688 184.12)rotate(-90)scale(0.1 -0.1)">
      <defs>
       <path id="DejaVuSans-52" d="M 2841 2188 
Q 3044 2119 3236 1894 
Q 3428 1669 3622 1275 
L 4263 0 
L 3584 0 
L 2988 1197 
Q 2756 1666 2539 1819 
Q 2322 1972 1947 1972 
L 1259 1972 
L 1259 0 
L 628 0 
L 628 4666 
L 2053 4666 
Q 2853 4666 3247 4331 
Q 3641 3997 3641 3322 
Q 3641 2881 3436 2590 
Q 3231 2300 2841 2188 
z
M 1259 4147 
L 1259 2491 
L 2053 2491 
Q 2509 2491 2742 2702 
Q 2975 2913 2975 3322 
Q 2975 3731 2742 3939 
Q 2509 4147 2053 4147 
L 1259 4147 
z
" transform="scale(0.015625)"/>
       <path id="DejaVuSans-4d" d="M 628 4666 
L 1569 4666 
L 2759 1491 
L 3956 4666 
L 4897 4666 
L 4897 0 
L 4281 0 
L 4281 4097 
L 3078 897 
L 2444 897 
L 1241 4097 
L 1241 0 
L 628 0 
L 628 4666 
z
" transform="scale(0.015625)"/>
       <path id="DejaVuSans-53" d="M 3425 4513 
L 3425 3897 
Q 3066 4069 2747 4153 
Q 2428 4238 2131 4238 
Q 1616 4238 1336 4038 
Q 1056 3838 1056 3469 
Q 1056 3159 1242 3001 
Q 1428 2844 1947 2747 
L 2328 2669 
Q 3034 2534 3370 2195 
Q 3706 1856 3706 1288 
Q 3706 609 3251 259 
Q 2797 -91 1919 -91 
Q 1588 -91 1214 -16 
Q 841 59 441 206 
L 441 856 
Q 825 641 1194 531 
Q 1563 422 1919 422 
Q 2459 422 2753 634 
Q 3047 847 3047 1241 
Q 3047 1584 2836 1778 
Q 2625 1972 2144 2069 
L 1759 2144 
Q 1053 2284 737 2584 
Q 422 2884 422 3419 
Q 422 4038 858 4394 
Q 1294 4750 2059 4750 
Q 2388 4750 2728 4690 
Q 3069 4631 3425 4513 
z
" transform="scale(0.015625)"/>
       <path id="DejaVuSans-44" d="M 1259 4147 
L 1259 519 
L 2022 519 
Q 2988 519 3436 956 
Q 3884 1394 3884 2338 
Q 3884 3275 3436 3711 
Q 2988 4147 2022 4147 
L 1259 4147 
z
M 628 4666 
L 1925 4666 
Q 3281 4666 3915 4102 
Q 4550 3538 4550 2338 
Q 4550 1131 3912 565 
Q 3275 0 1925 0 
L 628 0 
L 628 4666 
z
" transform="scale(0.015625)"/>
       <path id="DejaVuSans-20" transform="scale(0.015625)"/>
       <path id="DejaVuSans-5b" d="M 550 4863 
L 1875 4863 
L 1875 4416 
L 1125 4416 
L 1125 -397 
L 1875 -397 
L 1875 -844 
L 550 -844 
L 550 4863 
z
" transform="scale(0.015625)"/>
       <path id="DejaVuSans-Oblique-c5" d="M 3188 5081 
Q 3188 5278 3048 5417 
Q 2909 5556 2713 5556 
Q 2513 5556 2377 5420 
Q 2241 5284 2241 5081 
Q 2241 4884 2377 4746 
Q 2513 4609 2713 4609 
Q 2909 4609 3048 4746 
Q 3188 4884 3188 5081 
z
M 2203 4397 
Q 2034 4513 1945 4689 
Q 1856 4866 1856 5081 
Q 1856 5438 2106 5689 
Q 2356 5941 2713 5941 
Q 3069 5941 3320 5689 
Q 3572 5438 3572 5081 
Q 3572 4834 3458 4643 
Q 3344 4453 3128 4341 
L 3938 0 
L 3278 0 
L 3084 1197 
L 984 1197 
L 325 0 
L -341 0 
L 2203 4397 
z
M 2584 4044 
L 1275 1722 
L 2988 1722 
L 2584 4044 
z
" transform="scale(0.015625)"/>
       <path id="DejaVuSans-5d" d="M 1947 4863 
L 1947 -844 
L 622 -844 
L 622 -397 
L 1369 -397 
L 1369 4416 
L 622 4416 
L 622 4863 
L 1947 4863 
z
" transform="scale(0.015625)"/>
      </defs>
      <use xlink:href="#DejaVuSans-52" transform="translate(0 0.171875)"/>
      <use xlink:href="#DejaVuSans-4d" transform="translate(69.482422 0.171875)"/>
      <use xlink:href="#DejaVuSans-53" transform="translate(155.761719 0.171875)"/>
      <use xlink:href="#DejaVuSans-44" transform="translate(219.238281 0.171875)"/>
      <use xlink:href="#DejaVuSans-20" transform="translate(296.240234 0.171875)"/>
      <use xlink:href="#DejaVuSans-5b" transform="translate(328.027344 0.171875)"/>
      <use xlink:href="#DejaVuSans-Oblique-c5" transform="translate(367.041016 0.171875)"/>
      <use xlink:href="#DejaVuSans-5d" transform="translate(435.449219 0.171875)"/>
     </g>
    </g>
   </g>
   <g id="LineCollection_1">
    <path d="M 66.177636 171.03329 
L 91.652864 171.03329 
" clip-path="url(#p579b815b9a)" style="fill: none; stroke: #1f77b4; stroke-width: 1.5"/>
   </g>
   <g id="LineCollection_2">
    <path d="M 66.177636 57.342727 
L 91.652864 57.342727 
" clip-path="url(#p579b815b9a)" style="fill: none; stroke: #1f77b4; stroke-width: 1.5"/>
   </g>
   <g id="LineCollection_3">
    <path d="M 66.177636 263.397273 
L 91.652864 263.397273 
" clip-path="url(#p579b815b9a)" style="fill: none; stroke: #1f77b4; stroke-width: 1.5"/>
   </g>
   <g id="LineCollection_4">
    <path d="M 78.91525 263.397273 
L 78.91525 57.342727 
" clip-path="url(#p579b815b9a)" style="fill: none; stroke: #1f77b4; stroke-width: 1.5"/>
   </g>
   <g id="patch_3">
    <path d="M 50.8925 273.7 
L 50.8925 47.04 
" style="fill: none; stroke: #000000; stroke-width: 0.8; stroke-linejoin: miter; stroke-linecap: square"/>
   </g>
   <g id="patch_4">
    <path d="M 106.938 273.7 
L 106.938 47.04 
" style="fill: none; stroke: #000000; stroke-width: 0.8; stroke-linejoin: miter; stroke-linecap: square"/>
   </g>
   <g id="patch_5">
    <path d="M 50.8925 273.7 
L 106.938 273.7 
" style="fill: none; stroke: #000000; stroke-width: 0.8; stroke-linejoin: miter; stroke-linecap: square"/>
   </g>
   <g id="patch_6">
    <path d="M 50.8925 47.04 
L 106.938 47.04 
" style="fill: none; stroke: #000000; stroke-width: 0.8; stroke-linejoin: miter; stroke-linecap: square"/>
   </g>
   <g id="text_9">
    <!-- RMSD -->
    <g transform="translate(61.14025 41.04)scale(0.12 -0.12)">
     <use xlink:href="#DejaVuSans-52"/>
     <use xlink:href="#DejaVuSans-4d" x="69.482422"/>
     <use xlink:href="#DejaVuSans-53" x="155.761719"/>
     <use xlink:href="#DejaVuSans-44" x="219.238281"/>
    </g>
   </g>
  </g>
  <g id="axes_2">
   <g id="patch_7">
    <path d="M 165.458 273.7 
L 221.5035 273.7 
L 221.5035 47.04 
L 165.458 47.04 
z
" style="fill: #ffffff"/>
   </g>
   <g id="PolyCollection_2">
    <path d="M 194.76718 263.397273 
L 192.19432 263.397273 
L 191.992849 261.315914 
L 191.773773 259.234555 
L 191.535781 257.153196 
L 191.277426 255.071837 
L 190.997312 252.990478 
L 190.694291 250.909118 
L 190.367601 248.827759 
L 190.016934 246.7464 
L 189.642413 244.665041 
L 189.244497 242.583682 
L 188.823853 240.502323 
L 188.381264 238.420964 
L 187.917607 236.339605 
L 187.433957 234.258246 
L 186.931814 232.176887 
L 186.413419 230.095528 
L 185.882071 228.014169 
L 185.342332 225.93281 
L 184.799988 223.851451 
L 184.261683 221.770092 
L 183.734178 219.688733 
L 183.223296 217.607374 
L 182.7327 215.526015 
L 182.262744 213.444656 
L 181.809654 211.363297 
L 181.36528 209.281938 
L 180.917596 207.200579 
L 180.451936 205.119219 
L 179.952844 203.03786 
L 179.406264 200.956501 
L 178.80168 198.875142 
L 178.133862 196.793783 
L 177.403899 194.712424 
L 176.619352 192.631065 
L 175.793528 190.549706 
L 174.944028 188.468347 
L 174.090814 186.386988 
L 173.25412 184.305629 
L 172.452509 182.22427 
L 171.701336 180.142911 
L 171.011797 178.061552 
L 170.390669 175.980193 
L 169.840748 173.898834 
L 169.361924 171.817475 
L 168.952719 169.736116 
L 168.612041 167.654757 
L 168.340854 165.573398 
L 168.143415 163.492039 
L 168.0278 161.41068 
L 168.005523 159.32932 
L 168.090253 157.247961 
L 168.2958 155.166602 
L 168.633711 153.085243 
L 169.110927 151.003884 
L 169.727928 148.922525 
L 170.477711 146.841166 
L 171.345765 144.759807 
L 172.311011 142.678448 
L 173.347527 140.597089 
L 174.426739 138.51573 
L 175.519757 136.434371 
L 176.599576 134.353012 
L 177.642901 132.271653 
L 178.631503 130.190294 
L 179.553032 128.108935 
L 180.401282 126.027576 
L 181.175939 123.946217 
L 181.881828 121.864858 
L 182.527736 119.783499 
L 183.1249 117.70214 
L 183.685319 115.620781 
L 184.220054 113.539421 
L 184.737753 111.458062 
L 185.24356 109.376703 
L 185.738576 107.295344 
L 186.219919 105.213985 
L 186.681354 103.132626 
L 187.114411 101.051267 
L 187.509798 98.969908 
L 187.858931 96.888549 
L 188.155377 94.80719 
L 188.396018 92.725831 
L 188.581819 90.644472 
L 188.718069 88.563113 
L 188.81411 86.481754 
L 188.882539 84.400395 
L 188.938018 82.319036 
L 188.995824 80.237677 
L 189.070319 78.156318 
L 189.173563 76.074959 
L 189.314209 73.9936 
L 189.49684 71.912241 
L 189.72178 69.830882 
L 189.985387 67.749522 
L 190.280725 65.668163 
L 190.59852 63.586804 
L 190.928226 61.505445 
L 191.259076 59.424086 
L 191.581009 57.342727 
L 195.380491 57.342727 
L 195.380491 57.342727 
L 195.702424 59.424086 
L 196.033274 61.505445 
L 196.36298 63.586804 
L 196.680775 65.668163 
L 196.976113 67.749522 
L 197.23972 69.830882 
L 197.46466 71.912241 
L 197.647291 73.9936 
L 197.787937 76.074959 
L 197.891181 78.156318 
L 197.965676 80.237677 
L 198.023482 82.319036 
L 198.078961 84.400395 
L 198.14739 86.481754 
L 198.243431 88.563113 
L 198.379681 90.644472 
L 198.565482 92.725831 
L 198.806123 94.80719 
L 199.102569 96.888549 
L 199.451702 98.969908 
L 199.847089 101.051267 
L 200.280146 103.132626 
L 200.741581 105.213985 
L 201.222924 107.295344 
L 201.71794 109.376703 
L 202.223747 111.458062 
L 202.741446 113.539421 
L 203.276181 115.620781 
L 203.8366 117.70214 
L 204.433764 119.783499 
L 205.079672 121.864858 
L 205.785561 123.946217 
L 206.560218 126.027576 
L 207.408468 128.108935 
L 208.329997 130.190294 
L 209.318599 132.271653 
L 210.361924 134.353012 
L 211.441743 136.434371 
L 212.534761 138.51573 
L 213.613973 140.597089 
L 214.650489 142.678448 
L 215.615735 144.759807 
L 216.483789 146.841166 
L 217.233572 148.922525 
L 217.850573 151.003884 
L 218.327789 153.085243 
L 218.6657 155.166602 
L 218.871247 157.247961 
L 218.955977 159.32932 
L 218.9337 161.41068 
L 218.818085 163.492039 
L 218.620646 165.573398 
L 218.349459 167.654757 
L 218.008781 169.736116 
L 217.599576 171.817475 
L 217.120752 173.898834 
L 216.570831 175.980193 
L 215.949703 178.061552 
L 215.260164 180.142911 
L 214.508991 182.22427 
L 213.70738 184.305629 
L 212.870686 186.386988 
L 212.017472 188.468347 
L 211.167972 190.549706 
L 210.342148 192.631065 
L 209.557601 194.712424 
L 208.827638 196.793783 
L 208.15982 198.875142 
L 207.555236 200.956501 
L 207.008656 203.03786 
L 206.509564 205.119219 
L 206.043904 207.200579 
L 205.59622 209.281938 
L 205.151846 211.363297 
L 204.698756 213.444656 
L 204.2288 215.526015 
L 203.738204 217.607374 
L 203.227322 219.688733 
L 202.699817 221.770092 
L 202.161512 223.851451 
L 201.619168 225.93281 
L 201.079429 228.014169 
L 200.548081 230.095528 
L 200.029686 232.176887 
L 199.527543 234.258246 
L 199.043893 236.339605 
L 198.580236 238.420964 
L 198.137647 240.502323 
L 197.717003 242.583682 
L 197.319087 244.665041 
L 196.944566 246.7464 
L 196.593899 248.827759 
L 196.267209 250.909118 
L 195.964188 252.990478 
L 195.684074 255.071837 
L 195.425719 257.153196 
L 195.187727 259.234555 
L 194.968651 261.315914 
L 194.76718 263.397273 
z
" clip-path="url(#p31e98024bb)" style="fill: #1f77b4; fill-opacity: 0.3"/>
   </g>
   <g id="matplotlib.axis_2">
    <g id="ytick_8">
     <g id="line2d_8">
      <g>
       <use xlink:href="#m7c0e0aebac" x="165.458" y="262.916928" style="stroke: #000000; stroke-width: 0.8"/>
      </g>
     </g>
     <g id="text_10">
      <!-- 0.30 -->
      <g transform="translate(136.192375 266.716146)scale(0.1 -0.1)">
       <defs>
        <path id="DejaVuSans-33" d="M 2597 2516 
Q 3050 2419 3304 2112 
Q 3559 1806 3559 1356 
Q 3559 666 3084 287 
Q 2609 -91 1734 -91 
Q 1441 -91 1130 -33 
Q 819 25 488 141 
L 488 750 
Q 750 597 1062 519 
Q 1375 441 1716 441 
Q 2309 441 2620 675 
Q 2931 909 2931 1356 
Q 2931 1769 2642 2001 
Q 2353 2234 1838 2234 
L 1294 2234 
L 1294 2753 
L 1863 2753 
Q 2328 2753 2575 2939 
Q 2822 3125 2822 3475 
Q 2822 3834 2567 4026 
Q 2313 4219 1838 4219 
Q 1578 4219 1281 4162 
Q 984 4106 628 3988 
L 628 4550 
Q 988 4650 1302 4700 
Q 1616 4750 1894 4750 
Q 2613 4750 3031 4423 
Q 3450 4097 3450 3541 
Q 3450 3153 3228 2886 
Q 3006 2619 2597 2516 
z
" transform="scale(0.015625)"/>
       </defs>
       <use xlink:href="#DejaVuSans-30"/>
       <use xlink:href="#DejaVuSans-2e" x="63.623047"/>
       <use xlink:href="#DejaVuSans-33" x="95.410156"/>
       <use xlink:href="#DejaVuSans-30" x="159.033203"/>
      </g>
     </g>
    </g>
    <g id="ytick_9">
     <g id="line2d_9">
      <g>
       <use xlink:href="#m7c0e0aebac" x="165.458" y="237.40261" style="stroke: #000000; stroke-width: 0.8"/>
      </g>
     </g>
     <g id="text_11">
      <!-- 0.35 -->
      <g transform="translate(136.192375 241.201829)scale(0.1 -0.1)">
       <use xlink:href="#DejaVuSans-30"/>
       <use xlink:href="#DejaVuSans-2e" x="63.623047"/>
       <use xlink:href="#DejaVuSans-33" x="95.410156"/>
       <use xlink:href="#DejaVuSans-35" x="159.033203"/>
      </g>
     </g>
    </g>
    <g id="ytick_10">
     <g id="line2d_10">
      <g>
       <use xlink:href="#m7c0e0aebac" x="165.458" y="211.888293" style="stroke: #000000; stroke-width: 0.8"/>
      </g>
     </g>
     <g id="text_12">
      <!-- 0.40 -->
      <g transform="translate(136.192375 215.687512)scale(0.1 -0.1)">
       <use xlink:href="#DejaVuSans-30"/>
       <use xlink:href="#DejaVuSans-2e" x="63.623047"/>
       <use xlink:href="#DejaVuSans-34" x="95.410156"/>
       <use xlink:href="#DejaVuSans-30" x="159.033203"/>
      </g>
     </g>
    </g>
    <g id="ytick_11">
     <g id="line2d_11">
      <g>
       <use xlink:href="#m7c0e0aebac" x="165.458" y="186.373976" style="stroke: #000000; stroke-width: 0.8"/>
      </g>
     </g>
     <g id="text_13">
      <!-- 0.45 -->
      <g transform="translate(136.192375 190.173194)scale(0.1 -0.1)">
       <use xlink:href="#DejaVuSans-30"/>
       <use xlink:href="#DejaVuSans-2e" x="63.623047"/>
       <use xlink:href="#DejaVuSans-34" x="95.410156"/>
       <use xlink:href="#DejaVuSans-35" x="159.033203"/>
      </g>
     </g>
    </g>
    <g id="ytick_12">
     <g id="line2d_12">
      <g>
       <use xlink:href="#m7c0e0aebac" x="165.458" y="160.859658" style="stroke: #000000; stroke-width: 0.8"/>
      </g>
     </g>
     <g id="text_14">
      <!-- 0.50 -->
      <g transform="translate(136.192375 164.658877)scale(0.1 -0.1)">
       <use xlink:href="#DejaVuSans-30"/>
       <use xlink:href="#DejaVuSans-2e" x="63.623047"/>
       <use xlink:href="#DejaVuSans-35" x="95.410156"/>
       <use xlink:href="#DejaVuSans-30" x="159.033203"/>
      </g>
     </g>
    </g>
    <g id="ytick_13">
     <g id="line2d_13">
      <g>
       <use xlink:href="#m7c0e0aebac" x="165.458" y="135.345341" style="stroke: #000000; stroke-width: 0.8"/>
      </g>
     </g>
     <g id="text_15">
      <!-- 0.55 -->
      <g transform="translate(136.192375 139.14456)scale(0.1 -0.1)">
       <use xlink:href="#DejaVuSans-30"/>
       <use xlink:href="#DejaVuSans-2e" x="63.623047"/>
       <use xlink:href="#DejaVuSans-35" x="95.410156"/>
       <use xlink:href="#DejaVuSans-35" x="159.033203"/>
      </g>
     </g>
    </g>
    <g id="ytick_14">
     <g id="line2d_14">
      <g>
       <use xlink:href="#m7c0e0aebac" x="165.458" y="109.831024" style="stroke: #000000; stroke-width: 0.8"/>
      </g>
     </g>
     <g id="text_16">
      <!-- 0.60 -->
      <g transform="translate(136.192375 113.630242)scale(0.1 -0.1)">
       <use xlink:href="#DejaVuSans-30"/>
       <use xlink:href="#DejaVuSans-2e" x="63.623047"/>
       <use xlink:href="#DejaVuSans-36" x="95.410156"/>
       <use xlink:href="#DejaVuSans-30" x="159.033203"/>
      </g>
     </g>
    </g>
    <g id="ytick_15">
     <g id="line2d_15">
      <g>
       <use xlink:href="#m7c0e0aebac" x="165.458" y="84.316706" style="stroke: #000000; stroke-width: 0.8"/>
      </g>
     </g>
     <g id="text_17">
      <!-- 0.65 -->
      <g transform="translate(136.192375 88.115925)scale(0.1 -0.1)">
       <use xlink:href="#DejaVuSans-30"/>
       <use xlink:href="#DejaVuSans-2e" x="63.623047"/>
       <use xlink:href="#DejaVuSans-36" x="95.410156"/>
       <use xlink:href="#DejaVuSans-35" x="159.033203"/>
      </g>
     </g>
    </g>
    <g id="ytick_16">
     <g id="line2d_16">
      <g>
       <use xlink:href="#m7c0e0aebac" x="165.458" y="58.802389" style="stroke: #000000; stroke-width: 0.8"/>
      </g>
     </g>
     <g id="text_18">
      <!-- 0.70 -->
      <g transform="translate(136.192375 62.601608)scale(0.1 -0.1)">
       <use xlink:href="#DejaVuSans-30"/>
       <use xlink:href="#DejaVuSans-2e" x="63.623047"/>
       <use xlink:href="#DejaVuSans-37" x="95.410156"/>
       <use xlink:href="#DejaVuSans-30" x="159.033203"/>
      </g>
     </g>
    </g>
    <g id="text_19">
     <!-- MAE [$\AA$] -->
     <g transform="translate(130.112687 180.22)rotate(-90)scale(0.1 -0.1)">
      <defs>
       <path id="DejaVuSans-41" d="M 2188 4044 
L 1331 1722 
L 3047 1722 
L 2188 4044 
z
M 1831 4666 
L 2547 4666 
L 4325 0 
L 3669 0 
L 3244 1197 
L 1141 1197 
L 716 0 
L 50 0 
L 1831 4666 
z
" transform="scale(0.015625)"/>
       <path id="DejaVuSans-45" d="M 628 4666 
L 3578 4666 
L 3578 4134 
L 1259 4134 
L 1259 2753 
L 3481 2753 
L 3481 2222 
L 1259 2222 
L 1259 531 
L 3634 531 
L 3634 0 
L 628 0 
L 628 4666 
z
" transform="scale(0.015625)"/>
      </defs>
      <use xlink:href="#DejaVuSans-4d" transform="translate(0 0.171875)"/>
      <use xlink:href="#DejaVuSans-41" transform="translate(86.279297 0.171875)"/>
      <use xlink:href="#DejaVuSans-45" transform="translate(154.6875 0.171875)"/>
      <use xlink:href="#DejaVuSans-20" transform="translate(217.871094 0.171875)"/>
      <use xlink:href="#DejaVuSans-5b" transform="translate(249.658203 0.171875)"/>
      <use xlink:href="#DejaVuSans-Oblique-c5" transform="translate(288.671875 0.171875)"/>
      <use xlink:href="#DejaVuSans-5d" transform="translate(357.080078 0.171875)"/>
     </g>
    </g>
   </g>
   <g id="LineCollection_5">
    <path d="M 180.743136 162.767474 
L 206.218364 162.767474 
" clip-path="url(#p31e98024bb)" style="fill: none; stroke: #1f77b4; stroke-width: 1.5"/>
   </g>
   <g id="LineCollection_6">
    <path d="M 180.743136 57.342727 
L 206.218364 57.342727 
" clip-path="url(#p31e98024bb)" style="fill: none; stroke: #1f77b4; stroke-width: 1.5"/>
   </g>
   <g id="LineCollection_7">
    <path d="M 180.743136 263.397273 
L 206.218364 263.397273 
" clip-path="url(#p31e98024bb)" style="fill: none; stroke: #1f77b4; stroke-width: 1.5"/>
   </g>
   <g id="LineCollection_8">
    <path d="M 193.48075 263.397273 
L 193.48075 57.342727 
" clip-path="url(#p31e98024bb)" style="fill: none; stroke: #1f77b4; stroke-width: 1.5"/>
   </g>
   <g id="patch_8">
    <path d="M 165.458 273.7 
L 165.458 47.04 
" style="fill: none; stroke: #000000; stroke-width: 0.8; stroke-linejoin: miter; stroke-linecap: square"/>
   </g>
   <g id="patch_9">
    <path d="M 221.5035 273.7 
L 221.5035 47.04 
" style="fill: none; stroke: #000000; stroke-width: 0.8; stroke-linejoin: miter; stroke-linecap: square"/>
   </g>
   <g id="patch_10">
    <path d="M 165.458 273.7 
L 221.5035 273.7 
" style="fill: none; stroke: #000000; stroke-width: 0.8; stroke-linejoin: miter; stroke-linecap: square"/>
   </g>
   <g id="patch_11">
    <path d="M 165.458 47.04 
L 221.5035 47.04 
" style="fill: none; stroke: #000000; stroke-width: 0.8; stroke-linejoin: miter; stroke-linecap: square"/>
   </g>
   <g id="text_20">
    <!-- MAE -->
    <g transform="translate(180.40825 41.04)scale(0.12 -0.12)">
     <use xlink:href="#DejaVuSans-4d"/>
     <use xlink:href="#DejaVuSans-41" x="86.279297"/>
     <use xlink:href="#DejaVuSans-45" x="154.6875"/>
    </g>
   </g>
  </g>
  <g id="axes_3">
   <g id="patch_12">
    <path d="M 280.0235 273.7 
L 336.069 273.7 
L 336.069 47.04 
L 280.0235 47.04 
z
" style="fill: #ffffff"/>
   </g>
   <g id="PolyCollection_3">
    <path d="M 308.572146 263.397273 
L 307.520354 263.397273 
L 307.403805 261.315914 
L 307.260622 259.234555 
L 307.084337 257.153196 
L 306.869028 255.071837 
L 306.610463 252.990478 
L 306.307136 250.909118 
L 305.960854 248.827759 
L 305.576604 246.7464 
L 305.161585 244.665041 
L 304.723469 242.583682 
L 304.268261 240.502323 
L 303.798261 238.420964 
L 303.310741 236.339605 
L 302.797836 234.258246 
L 302.247918 232.176887 
L 301.64834 230.095528 
L 300.989079 228.014169 
L 300.266462 225.93281 
L 299.486052 223.851451 
L 298.663839 221.770092 
L 297.825214 219.688733 
L 297.001706 217.607374 
L 296.225993 215.526015 
L 295.526184 213.444656 
L 294.920584 211.363297 
L 294.414083 209.281938 
L 293.996989 207.200579 
L 293.646553 205.119219 
L 293.330834 203.03786 
L 293.014101 200.956501 
L 292.662652 198.875142 
L 292.249946 196.793783 
L 291.760129 194.712424 
L 291.189441 192.631065 
L 290.545414 190.549706 
L 289.844235 188.468347 
L 289.106982 186.386988 
L 288.355643 184.305629 
L 287.609796 182.22427 
L 286.884609 180.142911 
L 286.190432 178.061552 
L 285.533822 175.980193 
L 284.919486 173.898834 
L 284.352485 171.817475 
L 283.840057 169.736116 
L 283.392704 167.654757 
L 283.024406 165.573398 
L 282.752091 163.492039 
L 282.594564 161.41068 
L 282.571023 159.32932 
L 282.699241 157.247961 
L 282.993412 155.166602 
L 283.461731 153.085243 
L 284.104007 151.003884 
L 284.909763 148.922525 
L 285.857465 146.841166 
L 286.915379 144.759807 
L 288.044276 142.678448 
L 289.201729 140.597089 
L 290.347268 138.51573 
L 291.447359 136.434371 
L 292.479188 134.353012 
L 293.432451 132.271653 
L 294.308901 130.190294 
L 295.119885 128.108935 
L 295.882572 126.027576 
L 296.615763 123.946217 
L 297.336174 121.864858 
L 298.055811 119.783499 
L 298.780758 117.70214 
L 299.511273 115.620781 
L 300.242863 113.539421 
L 300.967816 111.458062 
L 301.676737 109.376703 
L 302.359751 107.295344 
L 303.007267 105.213985 
L 303.610413 103.132626 
L 304.161341 101.051267 
L 304.653606 98.969908 
L 305.082747 96.888549 
L 305.446981 94.80719 
L 305.747837 92.725831 
L 305.990453 90.644472 
L 306.183343 88.563113 
L 306.337538 86.481754 
L 306.465215 84.400395 
L 306.578063 82.319036 
L 306.685736 80.237677 
L 306.794723 78.156318 
L 306.907887 76.074959 
L 307.024706 73.9936 
L 307.142152 71.912241 
L 307.25592 69.830882 
L 307.361726 67.749522 
L 307.456354 65.668163 
L 307.538262 63.586804 
L 307.607674 61.505445 
L 307.666225 59.424086 
L 307.716334 57.342727 
L 308.376166 57.342727 
L 308.376166 57.342727 
L 308.426275 59.424086 
L 308.484826 61.505445 
L 308.554238 63.586804 
L 308.636146 65.668163 
L 308.730774 67.749522 
L 308.83658 69.830882 
L 308.950348 71.912241 
L 309.067794 73.9936 
L 309.184613 76.074959 
L 309.297777 78.156318 
L 309.406764 80.237677 
L 309.514437 82.319036 
L 309.627285 84.400395 
L 309.754962 86.481754 
L 309.909157 88.563113 
L 310.102047 90.644472 
L 310.344663 92.725831 
L 310.645519 94.80719 
L 311.009753 96.888549 
L 311.438894 98.969908 
L 311.931159 101.051267 
L 312.482087 103.132626 
L 313.085233 105.213985 
L 313.732749 107.295344 
L 314.415763 109.376703 
L 315.124684 111.458062 
L 315.849637 113.539421 
L 316.581227 115.620781 
L 317.311742 117.70214 
L 318.036689 119.783499 
L 318.756326 121.864858 
L 319.476737 123.946217 
L 320.209928 126.027576 
L 320.972615 128.108935 
L 321.783599 130.190294 
L 322.660049 132.271653 
L 323.613312 134.353012 
L 324.645141 136.434371 
L 325.745232 138.51573 
L 326.890771 140.597089 
L 328.048224 142.678448 
L 329.177121 144.759807 
L 330.235035 146.841166 
L 331.182737 148.922525 
L 331.988493 151.003884 
L 332.630769 153.085243 
L 333.099088 155.166602 
L 333.393259 157.247961 
L 333.521477 159.32932 
L 333.497936 161.41068 
L 333.340409 163.492039 
L 333.068094 165.573398 
L 332.699796 167.654757 
L 332.252443 169.736116 
L 331.740015 171.817475 
L 331.173014 173.898834 
L 330.558678 175.980193 
L 329.902068 178.061552 
L 329.207891 180.142911 
L 328.482704 182.22427 
L 327.736857 184.305629 
L 326.985518 186.386988 
L 326.248265 188.468347 
L 325.547086 190.549706 
L 324.903059 192.631065 
L 324.332371 194.712424 
L 323.842554 196.793783 
L 323.429848 198.875142 
L 323.078399 200.956501 
L 322.761666 203.03786 
L 322.445947 205.119219 
L 322.095511 207.200579 
L 321.678417 209.281938 
L 321.171916 211.363297 
L 320.566316 213.444656 
L 319.866507 215.526015 
L 319.090794 217.607374 
L 318.267286 219.688733 
L 317.428661 221.770092 
L 316.606448 223.851451 
L 315.826038 225.93281 
L 315.103421 228.014169 
L 314.44416 230.095528 
L 313.844582 232.176887 
L 313.294664 234.258246 
L 312.781759 236.339605 
L 312.294239 238.420964 
L 311.824239 240.502323 
L 311.369031 242.583682 
L 310.930915 244.665041 
L 310.515896 246.7464 
L 310.131646 248.827759 
L 309.785364 250.909118 
L 309.482037 252.990478 
L 309.223472 255.071837 
L 309.008163 257.153196 
L 308.831878 259.234555 
L 308.688695 261.315914 
L 308.572146 263.397273 
z
" clip-path="url(#pfd05c5dd5a)" style="fill: #1f77b4; fill-opacity: 0.3"/>
   </g>
   <g id="matplotlib.axis_3">
    <g id="ytick_17">
     <g id="line2d_17">
      <g>
       <use xlink:href="#m7c0e0aebac" x="280.0235" y="262.178125" style="stroke: #000000; stroke-width: 0.8"/>
      </g>
     </g>
     <g id="text_21">
      <!-- 0.1 -->
      <g transform="translate(257.120375 265.977344)scale(0.1 -0.1)">
       <use xlink:href="#DejaVuSans-30"/>
       <use xlink:href="#DejaVuSans-2e" x="63.623047"/>
       <use xlink:href="#DejaVuSans-31" x="95.410156"/>
      </g>
     </g>
    </g>
    <g id="ytick_18">
     <g id="line2d_18">
      <g>
       <use xlink:href="#m7c0e0aebac" x="280.0235" y="218.686836" style="stroke: #000000; stroke-width: 0.8"/>
      </g>
     </g>
     <g id="text_22">
      <!-- 0.2 -->
      <g transform="translate(257.120375 222.486054)scale(0.1 -0.1)">
       <defs>
        <path id="DejaVuSans-32" d="M 1228 531 
L 3431 531 
L 3431 0 
L 469 0 
L 469 531 
Q 828 903 1448 1529 
Q 2069 2156 2228 2338 
Q 2531 2678 2651 2914 
Q 2772 3150 2772 3378 
Q 2772 3750 2511 3984 
Q 2250 4219 1831 4219 
Q 1534 4219 1204 4116 
Q 875 4013 500 3803 
L 500 4441 
Q 881 4594 1212 4672 
Q 1544 4750 1819 4750 
Q 2544 4750 2975 4387 
Q 3406 4025 3406 3419 
Q 3406 3131 3298 2873 
Q 3191 2616 2906 2266 
Q 2828 2175 2409 1742 
Q 1991 1309 1228 531 
z
" transform="scale(0.015625)"/>
       </defs>
       <use xlink:href="#DejaVuSans-30"/>
       <use xlink:href="#DejaVuSans-2e" x="63.623047"/>
       <use xlink:href="#DejaVuSans-32" x="95.410156"/>
      </g>
     </g>
    </g>
    <g id="ytick_19">
     <g id="line2d_19">
      <g>
       <use xlink:href="#m7c0e0aebac" x="280.0235" y="175.195547" style="stroke: #000000; stroke-width: 0.8"/>
      </g>
     </g>
     <g id="text_23">
      <!-- 0.3 -->
      <g transform="translate(257.120375 178.994765)scale(0.1 -0.1)">
       <use xlink:href="#DejaVuSans-30"/>
       <use xlink:href="#DejaVuSans-2e" x="63.623047"/>
       <use xlink:href="#DejaVuSans-33" x="95.410156"/>
      </g>
     </g>
    </g>
    <g id="ytick_20">
     <g id="line2d_20">
      <g>
       <use xlink:href="#m7c0e0aebac" x="280.0235" y="131.704257" style="stroke: #000000; stroke-width: 0.8"/>
      </g>
     </g>
     <g id="text_24">
      <!-- 0.4 -->
      <g transform="translate(257.120375 135.503476)scale(0.1 -0.1)">
       <use xlink:href="#DejaVuSans-30"/>
       <use xlink:href="#DejaVuSans-2e" x="63.623047"/>
       <use xlink:href="#DejaVuSans-34" x="95.410156"/>
      </g>
     </g>
    </g>
    <g id="ytick_21">
     <g id="line2d_21">
      <g>
       <use xlink:href="#m7c0e0aebac" x="280.0235" y="88.212968" style="stroke: #000000; stroke-width: 0.8"/>
      </g>
     </g>
     <g id="text_25">
      <!-- 0.5 -->
      <g transform="translate(257.120375 92.012187)scale(0.1 -0.1)">
       <use xlink:href="#DejaVuSans-30"/>
       <use xlink:href="#DejaVuSans-2e" x="63.623047"/>
       <use xlink:href="#DejaVuSans-35" x="95.410156"/>
      </g>
     </g>
    </g>
    <g id="text_26">
     <!-- MSE [$\AA$] -->
     <g transform="translate(251.040687 179.97)rotate(-90)scale(0.1 -0.1)">
      <use xlink:href="#DejaVuSans-4d" transform="translate(0 0.171875)"/>
      <use xlink:href="#DejaVuSans-53" transform="translate(86.279297 0.171875)"/>
      <use xlink:href="#DejaVuSans-45" transform="translate(149.755859 0.171875)"/>
      <use xlink:href="#DejaVuSans-20" transform="translate(212.939453 0.171875)"/>
      <use xlink:href="#DejaVuSans-5b" transform="translate(244.726562 0.171875)"/>
      <use xlink:href="#DejaVuSans-Oblique-c5" transform="translate(283.740234 0.171875)"/>
      <use xlink:href="#DejaVuSans-5d" transform="translate(352.148438 0.171875)"/>
     </g>
    </g>
   </g>
   <g id="LineCollection_9">
    <path d="M 295.308636 168.013185 
L 320.783864 168.013185 
" clip-path="url(#pfd05c5dd5a)" style="fill: none; stroke: #1f77b4; stroke-width: 1.5"/>
   </g>
   <g id="LineCollection_10">
    <path d="M 295.308636 57.342727 
L 320.783864 57.342727 
" clip-path="url(#pfd05c5dd5a)" style="fill: none; stroke: #1f77b4; stroke-width: 1.5"/>
   </g>
   <g id="LineCollection_11">
    <path d="M 295.308636 263.397273 
L 320.783864 263.397273 
" clip-path="url(#pfd05c5dd5a)" style="fill: none; stroke: #1f77b4; stroke-width: 1.5"/>
   </g>
   <g id="LineCollection_12">
    <path d="M 308.04625 263.397273 
L 308.04625 57.342727 
" clip-path="url(#pfd05c5dd5a)" style="fill: none; stroke: #1f77b4; stroke-width: 1.5"/>
   </g>
   <g id="patch_13">
    <path d="M 280.0235 273.7 
L 280.0235 47.04 
" style="fill: none; stroke: #000000; stroke-width: 0.8; stroke-linejoin: miter; stroke-linecap: square"/>
   </g>
   <g id="patch_14">
    <path d="M 336.069 273.7 
L 336.069 47.04 
" style="fill: none; stroke: #000000; stroke-width: 0.8; stroke-linejoin: miter; stroke-linecap: square"/>
   </g>
   <g id="patch_15">
    <path d="M 280.0235 273.7 
L 336.069 273.7 
" style="fill: none; stroke: #000000; stroke-width: 0.8; stroke-linejoin: miter; stroke-linecap: square"/>
   </g>
   <g id="patch_16">
    <path d="M 280.0235 47.04 
L 336.069 47.04 
" style="fill: none; stroke: #000000; stroke-width: 0.8; stroke-linejoin: miter; stroke-linecap: square"/>
   </g>
   <g id="text_27">
    <!-- MSE -->
    <g transform="translate(295.269062 41.04)scale(0.12 -0.12)">
     <use xlink:href="#DejaVuSans-4d"/>
     <use xlink:href="#DejaVuSans-53" x="86.279297"/>
     <use xlink:href="#DejaVuSans-45" x="149.755859"/>
    </g>
   </g>
  </g>
  <g id="axes_4">
   <g id="patch_17">
    <path d="M 394.589 273.7 
L 450.6345 273.7 
L 450.6345 47.04 
L 394.589 47.04 
z
" style="fill: #ffffff"/>
   </g>
   <g id="PolyCollection_4">
    <path d="M 422.993026 263.397273 
L 422.230474 263.397273 
L 422.166556 261.315914 
L 422.088709 259.234555 
L 421.989309 257.153196 
L 421.858523 255.071837 
L 421.684619 252.990478 
L 421.454706 250.909118 
L 421.155944 248.827759 
L 420.77716 246.7464 
L 420.31048 244.665041 
L 419.752401 242.583682 
L 419.103729 240.502323 
L 418.368156 238.420964 
L 417.549967 236.339605 
L 416.652052 234.258246 
L 415.675657 232.176887 
L 414.622823 230.095528 
L 413.501182 228.014169 
L 412.329248 225.93281 
L 411.139407 223.851451 
L 409.976112 221.770092 
L 408.88859 219.688733 
L 407.919857 217.607374 
L 407.09589 215.526015 
L 406.419179 213.444656 
L 405.869189 211.363297 
L 405.409308 209.281938 
L 404.997058 207.200579 
L 404.593292 205.119219 
L 404.167329 203.03786 
L 403.697661 200.956501 
L 403.17045 198.875142 
L 402.578813 196.793783 
L 401.92455 194.712424 
L 401.221301 192.631065 
L 400.496139 190.549706 
L 399.786658 188.468347 
L 399.132956 186.386988 
L 398.567246 184.305629 
L 398.105839 182.22427 
L 397.747693 180.142911 
L 397.480448 178.061552 
L 397.29086 175.980193 
L 397.174027 173.898834 
L 397.136523 171.817475 
L 397.192009 169.736116 
L 397.352276 167.654757 
L 397.619213 165.573398 
L 397.982536 163.492039 
L 398.424552 161.41068 
L 398.929053 159.32932 
L 399.488954 157.247961 
L 400.108187 155.166602 
L 400.796729 153.085243 
L 401.561703 151.003884 
L 402.39961 148.922525 
L 403.293946 146.841166 
L 404.219265 144.759807 
L 405.149197 142.678448 
L 406.064047 140.597089 
L 406.954306 138.51573 
L 407.81911 136.434371 
L 408.661514 134.353012 
L 409.483915 132.271653 
L 410.286261 130.190294 
L 411.067508 128.108935 
L 411.828679 126.027576 
L 412.574909 123.946217 
L 413.314729 121.864858 
L 414.056589 119.783499 
L 414.80439 117.70214 
L 415.554372 115.620781 
L 416.294949 113.539421 
L 417.009564 111.458062 
L 417.681199 109.376703 
L 418.296573 107.295344 
L 418.84853 105.213985 
L 419.336149 103.132626 
L 419.76317 101.051267 
L 420.135849 98.969908 
L 420.461204 96.888549 
L 420.746079 94.80719 
L 420.99688 92.725831 
L 421.21953 90.644472 
L 421.419271 88.563113 
L 421.600231 86.481754 
L 421.764927 84.400395 
L 421.914005 82.319036 
L 422.046428 80.237677 
L 422.160119 78.156318 
L 422.252864 76.074959 
L 422.323226 73.9936 
L 422.371219 71.912241 
L 422.398619 69.830882 
L 422.408883 67.749522 
L 422.406757 65.668163 
L 422.39766 63.586804 
L 422.38698 61.505445 
L 422.379382 59.424086 
L 422.378246 57.342727 
L 422.845254 57.342727 
L 422.845254 57.342727 
L 422.844118 59.424086 
L 422.83652 61.505445 
L 422.82584 63.586804 
L 422.816743 65.668163 
L 422.814617 67.749522 
L 422.824881 69.830882 
L 422.852281 71.912241 
L 422.900274 73.9936 
L 422.970636 76.074959 
L 423.063381 78.156318 
L 423.177072 80.237677 
L 423.309495 82.319036 
L 423.458573 84.400395 
L 423.623269 86.481754 
L 423.804229 88.563113 
L 424.00397 90.644472 
L 424.22662 92.725831 
L 424.477421 94.80719 
L 424.762296 96.888549 
L 425.087651 98.969908 
L 425.46033 101.051267 
L 425.887351 103.132626 
L 426.37497 105.213985 
L 426.926927 107.295344 
L 427.542301 109.376703 
L 428.213936 111.458062 
L 428.928551 113.539421 
L 429.669128 115.620781 
L 430.41911 117.70214 
L 431.166911 119.783499 
L 431.908771 121.864858 
L 432.648591 123.946217 
L 433.394821 126.027576 
L 434.155992 128.108935 
L 434.937239 130.190294 
L 435.739585 132.271653 
L 436.561986 134.353012 
L 437.40439 136.434371 
L 438.269194 138.51573 
L 439.159453 140.597089 
L 440.074303 142.678448 
L 441.004235 144.759807 
L 441.929554 146.841166 
L 442.82389 148.922525 
L 443.661797 151.003884 
L 444.426771 153.085243 
L 445.115313 155.166602 
L 445.734546 157.247961 
L 446.294447 159.32932 
L 446.798948 161.41068 
L 447.240964 163.492039 
L 447.604287 165.573398 
L 447.871224 167.654757 
L 448.031491 169.736116 
L 448.086977 171.817475 
L 448.049473 173.898834 
L 447.93264 175.980193 
L 447.743052 178.061552 
L 447.475807 180.142911 
L 447.117661 182.22427 
L 446.656254 184.305629 
L 446.090544 186.386988 
L 445.436842 188.468347 
L 444.727361 190.549706 
L 444.002199 192.631065 
L 443.29895 194.712424 
L 442.644687 196.793783 
L 442.05305 198.875142 
L 441.525839 200.956501 
L 441.056171 203.03786 
L 440.630208 205.119219 
L 440.226442 207.200579 
L 439.814192 209.281938 
L 439.354311 211.363297 
L 438.804321 213.444656 
L 438.12761 215.526015 
L 437.303643 217.607374 
L 436.33491 219.688733 
L 435.247388 221.770092 
L 434.084093 223.851451 
L 432.894252 225.93281 
L 431.722318 228.014169 
L 430.600677 230.095528 
L 429.547843 232.176887 
L 428.571448 234.258246 
L 427.673533 236.339605 
L 426.855344 238.420964 
L 426.119771 240.502323 
L 425.471099 242.583682 
L 424.91302 244.665041 
L 424.44634 246.7464 
L 424.067556 248.827759 
L 423.768794 250.909118 
L 423.538881 252.990478 
L 423.364977 255.071837 
L 423.234191 257.153196 
L 423.134791 259.234555 
L 423.056944 261.315914 
L 422.993026 263.397273 
z
" clip-path="url(#p218c129041)" style="fill: #1f77b4; fill-opacity: 0.3"/>
   </g>
   <g id="matplotlib.axis_4">
    <g id="ytick_22">
     <g id="line2d_22">
      <g>
       <use xlink:href="#m7c0e0aebac" x="394.589" y="234.866643" style="stroke: #000000; stroke-width: 0.8"/>
      </g>
     </g>
     <g id="text_28">
      <!-- 0.2 -->
      <g transform="translate(371.685875 238.665862)scale(0.1 -0.1)">
       <use xlink:href="#DejaVuSans-30"/>
       <use xlink:href="#DejaVuSans-2e" x="63.623047"/>
       <use xlink:href="#DejaVuSans-32" x="95.410156"/>
      </g>
     </g>
    </g>
    <g id="ytick_23">
     <g id="line2d_23">
      <g>
       <use xlink:href="#m7c0e0aebac" x="394.589" y="188.900629" style="stroke: #000000; stroke-width: 0.8"/>
      </g>
     </g>
     <g id="text_29">
      <!-- 0.3 -->
      <g transform="translate(371.685875 192.699848)scale(0.1 -0.1)">
       <use xlink:href="#DejaVuSans-30"/>
       <use xlink:href="#DejaVuSans-2e" x="63.623047"/>
       <use xlink:href="#DejaVuSans-33" x="95.410156"/>
      </g>
     </g>
    </g>
    <g id="ytick_24">
     <g id="line2d_24">
      <g>
       <use xlink:href="#m7c0e0aebac" x="394.589" y="142.934615" style="stroke: #000000; stroke-width: 0.8"/>
      </g>
     </g>
     <g id="text_30">
      <!-- 0.4 -->
      <g transform="translate(371.685875 146.733834)scale(0.1 -0.1)">
       <use xlink:href="#DejaVuSans-30"/>
       <use xlink:href="#DejaVuSans-2e" x="63.623047"/>
       <use xlink:href="#DejaVuSans-34" x="95.410156"/>
      </g>
     </g>
    </g>
    <g id="ytick_25">
     <g id="line2d_25">
      <g>
       <use xlink:href="#m7c0e0aebac" x="394.589" y="96.968601" style="stroke: #000000; stroke-width: 0.8"/>
      </g>
     </g>
     <g id="text_31">
      <!-- 0.5 -->
      <g transform="translate(371.685875 100.76782)scale(0.1 -0.1)">
       <use xlink:href="#DejaVuSans-30"/>
       <use xlink:href="#DejaVuSans-2e" x="63.623047"/>
       <use xlink:href="#DejaVuSans-35" x="95.410156"/>
      </g>
     </g>
    </g>
    <g id="ytick_26">
     <g id="line2d_26">
      <g>
       <use xlink:href="#m7c0e0aebac" x="394.589" y="51.002587" style="stroke: #000000; stroke-width: 0.8"/>
      </g>
     </g>
     <g id="text_32">
      <!-- 0.6 -->
      <g transform="translate(371.685875 54.801806)scale(0.1 -0.1)">
       <use xlink:href="#DejaVuSans-30"/>
       <use xlink:href="#DejaVuSans-2e" x="63.623047"/>
       <use xlink:href="#DejaVuSans-36" x="95.410156"/>
      </g>
     </g>
    </g>
    <g id="text_33">
     <!-- % NOE fulfilled [1/100 %] -->
     <g transform="translate(365.606188 223.870781)rotate(-90)scale(0.1 -0.1)">
      <defs>
       <path id="DejaVuSans-25" d="M 4653 2053 
Q 4381 2053 4226 1822 
Q 4072 1591 4072 1178 
Q 4072 772 4226 539 
Q 4381 306 4653 306 
Q 4919 306 5073 539 
Q 5228 772 5228 1178 
Q 5228 1588 5073 1820 
Q 4919 2053 4653 2053 
z
M 4653 2450 
Q 5147 2450 5437 2106 
Q 5728 1763 5728 1178 
Q 5728 594 5436 251 
Q 5144 -91 4653 -91 
Q 4153 -91 3862 251 
Q 3572 594 3572 1178 
Q 3572 1766 3864 2108 
Q 4156 2450 4653 2450 
z
M 1428 4353 
Q 1159 4353 1004 4120 
Q 850 3888 850 3481 
Q 850 3069 1003 2837 
Q 1156 2606 1428 2606 
Q 1700 2606 1854 2837 
Q 2009 3069 2009 3481 
Q 2009 3884 1853 4118 
Q 1697 4353 1428 4353 
z
M 4250 4750 
L 4750 4750 
L 1831 -91 
L 1331 -91 
L 4250 4750 
z
M 1428 4750 
Q 1922 4750 2215 4408 
Q 2509 4066 2509 3481 
Q 2509 2891 2217 2550 
Q 1925 2209 1428 2209 
Q 931 2209 642 2551 
Q 353 2894 353 3481 
Q 353 4063 643 4406 
Q 934 4750 1428 4750 
z
" transform="scale(0.015625)"/>
       <path id="DejaVuSans-4e" d="M 628 4666 
L 1478 4666 
L 3547 763 
L 3547 4666 
L 4159 4666 
L 4159 0 
L 3309 0 
L 1241 3903 
L 1241 0 
L 628 0 
L 628 4666 
z
" transform="scale(0.015625)"/>
       <path id="DejaVuSans-4f" d="M 2522 4238 
Q 1834 4238 1429 3725 
Q 1025 3213 1025 2328 
Q 1025 1447 1429 934 
Q 1834 422 2522 422 
Q 3209 422 3611 934 
Q 4013 1447 4013 2328 
Q 4013 3213 3611 3725 
Q 3209 4238 2522 4238 
z
M 2522 4750 
Q 3503 4750 4090 4092 
Q 4678 3434 4678 2328 
Q 4678 1225 4090 567 
Q 3503 -91 2522 -91 
Q 1538 -91 948 565 
Q 359 1222 359 2328 
Q 359 3434 948 4092 
Q 1538 4750 2522 4750 
z
" transform="scale(0.015625)"/>
       <path id="DejaVuSans-66" d="M 2375 4863 
L 2375 4384 
L 1825 4384 
Q 1516 4384 1395 4259 
Q 1275 4134 1275 3809 
L 1275 3500 
L 2222 3500 
L 2222 3053 
L 1275 3053 
L 1275 0 
L 697 0 
L 697 3053 
L 147 3053 
L 147 3500 
L 697 3500 
L 697 3744 
Q 697 4328 969 4595 
Q 1241 4863 1831 4863 
L 2375 4863 
z
" transform="scale(0.015625)"/>
       <path id="DejaVuSans-75" d="M 544 1381 
L 544 3500 
L 1119 3500 
L 1119 1403 
Q 1119 906 1312 657 
Q 1506 409 1894 409 
Q 2359 409 2629 706 
Q 2900 1003 2900 1516 
L 2900 3500 
L 3475 3500 
L 3475 0 
L 2900 0 
L 2900 538 
Q 2691 219 2414 64 
Q 2138 -91 1772 -91 
Q 1169 -91 856 284 
Q 544 659 544 1381 
z
M 1991 3584 
L 1991 3584 
z
" transform="scale(0.015625)"/>
       <path id="DejaVuSans-6c" d="M 603 4863 
L 1178 4863 
L 1178 0 
L 603 0 
L 603 4863 
z
" transform="scale(0.015625)"/>
       <path id="DejaVuSans-69" d="M 603 3500 
L 1178 3500 
L 1178 0 
L 603 0 
L 603 3500 
z
M 603 4863 
L 1178 4863 
L 1178 4134 
L 603 4134 
L 603 4863 
z
" transform="scale(0.015625)"/>
       <path id="DejaVuSans-65" d="M 3597 1894 
L 3597 1613 
L 953 1613 
Q 991 1019 1311 708 
Q 1631 397 2203 397 
Q 2534 397 2845 478 
Q 3156 559 3463 722 
L 3463 178 
Q 3153 47 2828 -22 
Q 2503 -91 2169 -91 
Q 1331 -91 842 396 
Q 353 884 353 1716 
Q 353 2575 817 3079 
Q 1281 3584 2069 3584 
Q 2775 3584 3186 3129 
Q 3597 2675 3597 1894 
z
M 3022 2063 
Q 3016 2534 2758 2815 
Q 2500 3097 2075 3097 
Q 1594 3097 1305 2825 
Q 1016 2553 972 2059 
L 3022 2063 
z
" transform="scale(0.015625)"/>
       <path id="DejaVuSans-64" d="M 2906 2969 
L 2906 4863 
L 3481 4863 
L 3481 0 
L 2906 0 
L 2906 525 
Q 2725 213 2448 61 
Q 2172 -91 1784 -91 
Q 1150 -91 751 415 
Q 353 922 353 1747 
Q 353 2572 751 3078 
Q 1150 3584 1784 3584 
Q 2172 3584 2448 3432 
Q 2725 3281 2906 2969 
z
M 947 1747 
Q 947 1113 1208 752 
Q 1469 391 1925 391 
Q 2381 391 2643 752 
Q 2906 1113 2906 1747 
Q 2906 2381 2643 2742 
Q 2381 3103 1925 3103 
Q 1469 3103 1208 2742 
Q 947 2381 947 1747 
z
" transform="scale(0.015625)"/>
       <path id="DejaVuSans-2f" d="M 1625 4666 
L 2156 4666 
L 531 -594 
L 0 -594 
L 1625 4666 
z
" transform="scale(0.015625)"/>
      </defs>
      <use xlink:href="#DejaVuSans-25"/>
      <use xlink:href="#DejaVuSans-20" x="95.019531"/>
      <use xlink:href="#DejaVuSans-4e" x="126.806641"/>
      <use xlink:href="#DejaVuSans-4f" x="201.611328"/>
      <use xlink:href="#DejaVuSans-45" x="280.322266"/>
      <use xlink:href="#DejaVuSans-20" x="343.505859"/>
      <use xlink:href="#DejaVuSans-66" x="375.292969"/>
      <use xlink:href="#DejaVuSans-75" x="410.498047"/>
      <use xlink:href="#DejaVuSans-6c" x="473.876953"/>
      <use xlink:href="#DejaVuSans-66" x="501.660156"/>
      <use xlink:href="#DejaVuSans-69" x="536.865234"/>
      <use xlink:href="#DejaVuSans-6c" x="564.648438"/>
      <use xlink:href="#DejaVuSans-6c" x="592.431641"/>
      <use xlink:href="#DejaVuSans-65" x="620.214844"/>
      <use xlink:href="#DejaVuSans-64" x="681.738281"/>
      <use xlink:href="#DejaVuSans-20" x="745.214844"/>
      <use xlink:href="#DejaVuSans-5b" x="777.001953"/>
      <use xlink:href="#DejaVuSans-31" x="816.015625"/>
      <use xlink:href="#DejaVuSans-2f" x="879.638672"/>
      <use xlink:href="#DejaVuSans-31" x="913.330078"/>
      <use xlink:href="#DejaVuSans-30" x="976.953125"/>
      <use xlink:href="#DejaVuSans-30" x="1040.576172"/>
      <use xlink:href="#DejaVuSans-20" x="1104.199219"/>
      <use xlink:href="#DejaVuSans-25" x="1135.986328"/>
      <use xlink:href="#DejaVuSans-5d" x="1231.005859"/>
     </g>
    </g>
   </g>
   <g id="LineCollection_13">
    <path d="M 409.874136 173.327661 
L 435.349364 173.327661 
" clip-path="url(#p218c129041)" style="fill: none; stroke: #1f77b4; stroke-width: 1.5"/>
   </g>
   <g id="LineCollection_14">
    <path d="M 409.874136 57.342727 
L 435.349364 57.342727 
" clip-path="url(#p218c129041)" style="fill: none; stroke: #1f77b4; stroke-width: 1.5"/>
   </g>
   <g id="LineCollection_15">
    <path d="M 409.874136 263.397273 
L 435.349364 263.397273 
" clip-path="url(#p218c129041)" style="fill: none; stroke: #1f77b4; stroke-width: 1.5"/>
   </g>
   <g id="LineCollection_16">
    <path d="M 422.61175 263.397273 
L 422.61175 57.342727 
" clip-path="url(#p218c129041)" style="fill: none; stroke: #1f77b4; stroke-width: 1.5"/>
   </g>
   <g id="patch_18">
    <path d="M 394.589 273.7 
L 394.589 47.04 
" style="fill: none; stroke: #000000; stroke-width: 0.8; stroke-linejoin: miter; stroke-linecap: square"/>
   </g>
   <g id="patch_19">
    <path d="M 450.6345 273.7 
L 450.6345 47.04 
" style="fill: none; stroke: #000000; stroke-width: 0.8; stroke-linejoin: miter; stroke-linecap: square"/>
   </g>
   <g id="patch_20">
    <path d="M 394.589 273.7 
L 450.6345 273.7 
" style="fill: none; stroke: #000000; stroke-width: 0.8; stroke-linejoin: miter; stroke-linecap: square"/>
   </g>
   <g id="patch_21">
    <path d="M 394.589 47.04 
L 450.6345 47.04 
" style="fill: none; stroke: #000000; stroke-width: 0.8; stroke-linejoin: miter; stroke-linecap: square"/>
   </g>
   <g id="text_34">
    <!-- % NOE fulfilled -->
    <g transform="translate(377.898625 41.04)scale(0.12 -0.12)">
     <use xlink:href="#DejaVuSans-25"/>
     <use xlink:href="#DejaVuSans-20" x="95.019531"/>
     <use xlink:href="#DejaVuSans-4e" x="126.806641"/>
     <use xlink:href="#DejaVuSans-4f" x="201.611328"/>
     <use xlink:href="#DejaVuSans-45" x="280.322266"/>
     <use xlink:href="#DejaVuSans-20" x="343.505859"/>
     <use xlink:href="#DejaVuSans-66" x="375.292969"/>
     <use xlink:href="#DejaVuSans-75" x="410.498047"/>
     <use xlink:href="#DejaVuSans-6c" x="473.876953"/>
     <use xlink:href="#DejaVuSans-66" x="501.660156"/>
     <use xlink:href="#DejaVuSans-69" x="536.865234"/>
     <use xlink:href="#DejaVuSans-6c" x="564.648438"/>
     <use xlink:href="#DejaVuSans-6c" x="592.431641"/>
     <use xlink:href="#DejaVuSans-65" x="620.214844"/>
     <use xlink:href="#DejaVuSans-64" x="681.738281"/>
    </g>
   </g>
  </g>
  <g id="axes_5">
   <g id="patch_22">
    <path d="M 509.1545 273.7 
L 565.2 273.7 
L 565.2 47.04 
L 509.1545 47.04 
z
" style="fill: #ffffff"/>
   </g>
   <g id="PolyCollection_5">
    <path d="M 537.460244 263.397273 
L 536.894256 263.397273 
L 536.868479 261.315914 
L 536.842561 259.234555 
L 536.814463 257.153196 
L 536.782479 255.071837 
L 536.74577 252.990478 
L 536.704511 250.909118 
L 536.659546 248.827759 
L 536.611603 246.7464 
L 536.560372 244.665041 
L 536.503794 242.583682 
L 536.437868 240.502323 
L 536.357085 238.420964 
L 536.255331 236.339605 
L 536.126915 234.258246 
L 535.967339 232.176887 
L 535.773577 230.095528 
L 535.543869 228.014169 
L 535.277274 225.93281 
L 534.973341 223.851451 
L 534.632127 221.770092 
L 534.254567 219.688733 
L 533.842966 217.607374 
L 533.401224 215.526015 
L 532.934515 213.444656 
L 532.448407 211.363297 
L 531.947671 209.281938 
L 531.435214 207.200579 
L 530.911501 205.119219 
L 530.374568 203.03786 
L 529.820439 200.956501 
L 529.243565 198.875142 
L 528.636989 196.793783 
L 527.992203 194.712424 
L 527.298969 192.631065 
L 526.545618 190.549706 
L 525.720223 188.468347 
L 524.812812 186.386988 
L 523.818373 184.305629 
L 522.740072 182.22427 
L 521.591922 180.142911 
L 520.400079 178.061552 
L 519.202032 175.980193 
L 518.043171 173.898834 
L 516.970695 171.817475 
L 516.025537 169.736116 
L 515.233905 167.654757 
L 514.600787 165.573398 
L 514.107859 163.492039 
L 513.717453 161.41068 
L 513.382502 159.32932 
L 513.060274 157.247961 
L 512.726068 155.166602 
L 512.382488 153.085243 
L 512.060944 151.003884 
L 511.814257 148.922525 
L 511.702023 146.841166 
L 511.772735 144.759807 
L 512.047897 142.678448 
L 512.51293 140.597089 
L 513.117909 138.51573 
L 513.788374 136.434371 
L 514.443591 134.353012 
L 515.017387 132.271653 
L 515.475812 130.190294 
L 515.826574 128.108935 
L 516.117452 126.027576 
L 516.423909 123.946217 
L 516.829302 121.864858 
L 517.403185 119.783499 
L 518.183748 117.70214 
L 519.169136 115.620781 
L 520.319631 113.539421 
L 521.569372 111.458062 
L 522.843572 109.376703 
L 524.07589 107.295344 
L 525.221123 105.213985 
L 526.260423 103.132626 
L 527.198865 101.051267 
L 528.057516 98.969908 
L 528.863354 96.888549 
L 529.640304 94.80719 
L 530.403532 92.725831 
L 531.157627 90.644472 
L 531.897991 88.563113 
L 532.614041 86.481754 
L 533.29279 84.400395 
L 533.921788 82.319036 
L 534.490998 80.237677 
L 534.993641 78.156318 
L 535.426345 76.074959 
L 535.788917 73.9936 
L 536.084 71.912241 
L 536.316713 69.830882 
L 536.494246 67.749522 
L 536.625362 65.668163 
L 536.719754 63.586804 
L 536.787259 61.505445 
L 536.83701 59.424086 
L 536.876664 57.342727 
L 537.477836 57.342727 
L 537.477836 57.342727 
L 537.51749 59.424086 
L 537.567241 61.505445 
L 537.634746 63.586804 
L 537.729138 65.668163 
L 537.860254 67.749522 
L 538.037787 69.830882 
L 538.2705 71.912241 
L 538.565583 73.9936 
L 538.928155 76.074959 
L 539.360859 78.156318 
L 539.863502 80.237677 
L 540.432712 82.319036 
L 541.06171 84.400395 
L 541.740459 86.481754 
L 542.456509 88.563113 
L 543.196873 90.644472 
L 543.950968 92.725831 
L 544.714196 94.80719 
L 545.491146 96.888549 
L 546.296984 98.969908 
L 547.155635 101.051267 
L 548.094077 103.132626 
L 549.133377 105.213985 
L 550.27861 107.295344 
L 551.510928 109.376703 
L 552.785128 111.458062 
L 554.034869 113.539421 
L 555.185364 115.620781 
L 556.170752 117.70214 
L 556.951315 119.783499 
L 557.525198 121.864858 
L 557.930591 123.946217 
L 558.237048 126.027576 
L 558.527926 128.108935 
L 558.878688 130.190294 
L 559.337113 132.271653 
L 559.910909 134.353012 
L 560.566126 136.434371 
L 561.236591 138.51573 
L 561.84157 140.597089 
L 562.306603 142.678448 
L 562.581765 144.759807 
L 562.652477 146.841166 
L 562.540243 148.922525 
L 562.293556 151.003884 
L 561.972012 153.085243 
L 561.628432 155.166602 
L 561.294226 157.247961 
L 560.971998 159.32932 
L 560.637047 161.41068 
L 560.246641 163.492039 
L 559.753713 165.573398 
L 559.120595 167.654757 
L 558.328963 169.736116 
L 557.383805 171.817475 
L 556.311329 173.898834 
L 555.152468 175.980193 
L 553.954421 178.061552 
L 552.762578 180.142911 
L 551.614428 182.22427 
L 550.536127 184.305629 
L 549.541688 186.386988 
L 548.634277 188.468347 
L 547.808882 190.549706 
L 547.055531 192.631065 
L 546.362297 194.712424 
L 545.717511 196.793783 
L 545.110935 198.875142 
L 544.534061 200.956501 
L 543.979932 203.03786 
L 543.442999 205.119219 
L 542.919286 207.200579 
L 542.406829 209.281938 
L 541.906093 211.363297 
L 541.419985 213.444656 
L 540.953276 215.526015 
L 540.511534 217.607374 
L 540.099933 219.688733 
L 539.722373 221.770092 
L 539.381159 223.851451 
L 539.077226 225.93281 
L 538.810631 228.014169 
L 538.580923 230.095528 
L 538.387161 232.176887 
L 538.227585 234.258246 
L 538.099169 236.339605 
L 537.997415 238.420964 
L 537.916632 240.502323 
L 537.850706 242.583682 
L 537.794128 244.665041 
L 537.742897 246.7464 
L 537.694954 248.827759 
L 537.649989 250.909118 
L 537.60873 252.990478 
L 537.572021 255.071837 
L 537.540037 257.153196 
L 537.511939 259.234555 
L 537.486021 261.315914 
L 537.460244 263.397273 
z
" clip-path="url(#p3b0695ae81)" style="fill: #1f77b4; fill-opacity: 0.3"/>
   </g>
   <g id="matplotlib.axis_5">
    <g id="ytick_27">
     <g id="line2d_27">
      <g>
       <use xlink:href="#m7c0e0aebac" x="509.1545" y="265.498615" style="stroke: #000000; stroke-width: 0.8"/>
      </g>
     </g>
     <g id="text_35">
      <!-- 0.25 -->
      <g transform="translate(479.888875 269.297834)scale(0.1 -0.1)">
       <use xlink:href="#DejaVuSans-30"/>
       <use xlink:href="#DejaVuSans-2e" x="63.623047"/>
       <use xlink:href="#DejaVuSans-32" x="95.410156"/>
       <use xlink:href="#DejaVuSans-35" x="159.033203"/>
      </g>
     </g>
    </g>
    <g id="ytick_28">
     <g id="line2d_28">
      <g>
       <use xlink:href="#m7c0e0aebac" x="509.1545" y="238.278158" style="stroke: #000000; stroke-width: 0.8"/>
      </g>
     </g>
     <g id="text_36">
      <!-- 0.30 -->
      <g transform="translate(479.888875 242.077376)scale(0.1 -0.1)">
       <use xlink:href="#DejaVuSans-30"/>
       <use xlink:href="#DejaVuSans-2e" x="63.623047"/>
       <use xlink:href="#DejaVuSans-33" x="95.410156"/>
       <use xlink:href="#DejaVuSans-30" x="159.033203"/>
      </g>
     </g>
    </g>
    <g id="ytick_29">
     <g id="line2d_29">
      <g>
       <use xlink:href="#m7c0e0aebac" x="509.1545" y="211.0577" style="stroke: #000000; stroke-width: 0.8"/>
      </g>
     </g>
     <g id="text_37">
      <!-- 0.35 -->
      <g transform="translate(479.888875 214.856919)scale(0.1 -0.1)">
       <use xlink:href="#DejaVuSans-30"/>
       <use xlink:href="#DejaVuSans-2e" x="63.623047"/>
       <use xlink:href="#DejaVuSans-33" x="95.410156"/>
       <use xlink:href="#DejaVuSans-35" x="159.033203"/>
      </g>
     </g>
    </g>
    <g id="ytick_30">
     <g id="line2d_30">
      <g>
       <use xlink:href="#m7c0e0aebac" x="509.1545" y="183.837243" style="stroke: #000000; stroke-width: 0.8"/>
      </g>
     </g>
     <g id="text_38">
      <!-- 0.40 -->
      <g transform="translate(479.888875 187.636462)scale(0.1 -0.1)">
       <use xlink:href="#DejaVuSans-30"/>
       <use xlink:href="#DejaVuSans-2e" x="63.623047"/>
       <use xlink:href="#DejaVuSans-34" x="95.410156"/>
       <use xlink:href="#DejaVuSans-30" x="159.033203"/>
      </g>
     </g>
    </g>
    <g id="ytick_31">
     <g id="line2d_31">
      <g>
       <use xlink:href="#m7c0e0aebac" x="509.1545" y="156.616786" style="stroke: #000000; stroke-width: 0.8"/>
      </g>
     </g>
     <g id="text_39">
      <!-- 0.45 -->
      <g transform="translate(479.888875 160.416005)scale(0.1 -0.1)">
       <use xlink:href="#DejaVuSans-30"/>
       <use xlink:href="#DejaVuSans-2e" x="63.623047"/>
       <use xlink:href="#DejaVuSans-34" x="95.410156"/>
       <use xlink:href="#DejaVuSans-35" x="159.033203"/>
      </g>
     </g>
    </g>
    <g id="ytick_32">
     <g id="line2d_32">
      <g>
       <use xlink:href="#m7c0e0aebac" x="509.1545" y="129.396329" style="stroke: #000000; stroke-width: 0.8"/>
      </g>
     </g>
     <g id="text_40">
      <!-- 0.50 -->
      <g transform="translate(479.888875 133.195548)scale(0.1 -0.1)">
       <use xlink:href="#DejaVuSans-30"/>
       <use xlink:href="#DejaVuSans-2e" x="63.623047"/>
       <use xlink:href="#DejaVuSans-35" x="95.410156"/>
       <use xlink:href="#DejaVuSans-30" x="159.033203"/>
      </g>
     </g>
    </g>
    <g id="ytick_33">
     <g id="line2d_33">
      <g>
       <use xlink:href="#m7c0e0aebac" x="509.1545" y="102.175872" style="stroke: #000000; stroke-width: 0.8"/>
      </g>
     </g>
     <g id="text_41">
      <!-- 0.55 -->
      <g transform="translate(479.888875 105.975091)scale(0.1 -0.1)">
       <use xlink:href="#DejaVuSans-30"/>
       <use xlink:href="#DejaVuSans-2e" x="63.623047"/>
       <use xlink:href="#DejaVuSans-35" x="95.410156"/>
       <use xlink:href="#DejaVuSans-35" x="159.033203"/>
      </g>
     </g>
    </g>
    <g id="ytick_34">
     <g id="line2d_34">
      <g>
       <use xlink:href="#m7c0e0aebac" x="509.1545" y="74.955415" style="stroke: #000000; stroke-width: 0.8"/>
      </g>
     </g>
     <g id="text_42">
      <!-- 0.60 -->
      <g transform="translate(479.888875 78.754633)scale(0.1 -0.1)">
       <use xlink:href="#DejaVuSans-30"/>
       <use xlink:href="#DejaVuSans-2e" x="63.623047"/>
       <use xlink:href="#DejaVuSans-36" x="95.410156"/>
       <use xlink:href="#DejaVuSans-30" x="159.033203"/>
      </g>
     </g>
    </g>
    <g id="ytick_35">
     <g id="line2d_35">
      <g>
       <use xlink:href="#m7c0e0aebac" x="509.1545" y="47.734958" style="stroke: #000000; stroke-width: 0.8"/>
      </g>
     </g>
     <g id="text_43">
      <!-- 0.65 -->
      <g transform="translate(479.888875 51.534176)scale(0.1 -0.1)">
       <use xlink:href="#DejaVuSans-30"/>
       <use xlink:href="#DejaVuSans-2e" x="63.623047"/>
       <use xlink:href="#DejaVuSans-36" x="95.410156"/>
       <use xlink:href="#DejaVuSans-35" x="159.033203"/>
      </g>
     </g>
    </g>
    <g id="text_44">
     <!-- RMSD stepwise [$\AA$] -->
     <g transform="translate(473.788875 207.67)rotate(-90)scale(0.1 -0.1)">
      <defs>
       <path id="DejaVuSans-73" d="M 2834 3397 
L 2834 2853 
Q 2591 2978 2328 3040 
Q 2066 3103 1784 3103 
Q 1356 3103 1142 2972 
Q 928 2841 928 2578 
Q 928 2378 1081 2264 
Q 1234 2150 1697 2047 
L 1894 2003 
Q 2506 1872 2764 1633 
Q 3022 1394 3022 966 
Q 3022 478 2636 193 
Q 2250 -91 1575 -91 
Q 1294 -91 989 -36 
Q 684 19 347 128 
L 347 722 
Q 666 556 975 473 
Q 1284 391 1588 391 
Q 1994 391 2212 530 
Q 2431 669 2431 922 
Q 2431 1156 2273 1281 
Q 2116 1406 1581 1522 
L 1381 1569 
Q 847 1681 609 1914 
Q 372 2147 372 2553 
Q 372 3047 722 3315 
Q 1072 3584 1716 3584 
Q 2034 3584 2315 3537 
Q 2597 3491 2834 3397 
z
" transform="scale(0.015625)"/>
       <path id="DejaVuSans-74" d="M 1172 4494 
L 1172 3500 
L 2356 3500 
L 2356 3053 
L 1172 3053 
L 1172 1153 
Q 1172 725 1289 603 
Q 1406 481 1766 481 
L 2356 481 
L 2356 0 
L 1766 0 
Q 1100 0 847 248 
Q 594 497 594 1153 
L 594 3053 
L 172 3053 
L 172 3500 
L 594 3500 
L 594 4494 
L 1172 4494 
z
" transform="scale(0.015625)"/>
       <path id="DejaVuSans-70" d="M 1159 525 
L 1159 -1331 
L 581 -1331 
L 581 3500 
L 1159 3500 
L 1159 2969 
Q 1341 3281 1617 3432 
Q 1894 3584 2278 3584 
Q 2916 3584 3314 3078 
Q 3713 2572 3713 1747 
Q 3713 922 3314 415 
Q 2916 -91 2278 -91 
Q 1894 -91 1617 61 
Q 1341 213 1159 525 
z
M 3116 1747 
Q 3116 2381 2855 2742 
Q 2594 3103 2138 3103 
Q 1681 3103 1420 2742 
Q 1159 2381 1159 1747 
Q 1159 1113 1420 752 
Q 1681 391 2138 391 
Q 2594 391 2855 752 
Q 3116 1113 3116 1747 
z
" transform="scale(0.015625)"/>
       <path id="DejaVuSans-77" d="M 269 3500 
L 844 3500 
L 1563 769 
L 2278 3500 
L 2956 3500 
L 3675 769 
L 4391 3500 
L 4966 3500 
L 4050 0 
L 3372 0 
L 2619 2869 
L 1863 0 
L 1184 0 
L 269 3500 
z
" transform="scale(0.015625)"/>
      </defs>
      <use xlink:href="#DejaVuSans-52" transform="translate(0 0.171875)"/>
      <use xlink:href="#DejaVuSans-4d" transform="translate(69.482422 0.171875)"/>
      <use xlink:href="#DejaVuSans-53" transform="translate(155.761719 0.171875)"/>
      <use xlink:href="#DejaVuSans-44" transform="translate(219.238281 0.171875)"/>
      <use xlink:href="#DejaVuSans-20" transform="translate(296.240234 0.171875)"/>
      <use xlink:href="#DejaVuSans-73" transform="translate(328.027344 0.171875)"/>
      <use xlink:href="#DejaVuSans-74" transform="translate(380.126953 0.171875)"/>
      <use xlink:href="#DejaVuSans-65" transform="translate(419.335938 0.171875)"/>
      <use xlink:href="#DejaVuSans-70" transform="translate(480.859375 0.171875)"/>
      <use xlink:href="#DejaVuSans-77" transform="translate(544.335938 0.171875)"/>
      <use xlink:href="#DejaVuSans-69" transform="translate(626.123047 0.171875)"/>
      <use xlink:href="#DejaVuSans-73" transform="translate(653.90625 0.171875)"/>
      <use xlink:href="#DejaVuSans-65" transform="translate(706.005859 0.171875)"/>
      <use xlink:href="#DejaVuSans-20" transform="translate(767.529297 0.171875)"/>
      <use xlink:href="#DejaVuSans-5b" transform="translate(799.316406 0.171875)"/>
      <use xlink:href="#DejaVuSans-Oblique-c5" transform="translate(838.330078 0.171875)"/>
      <use xlink:href="#DejaVuSans-5d" transform="translate(906.738281 0.171875)"/>
     </g>
    </g>
   </g>
   <g id="LineCollection_17">
    <path d="M 524.439636 148.825279 
L 549.914864 148.825279 
" clip-path="url(#p3b0695ae81)" style="fill: none; stroke: #1f77b4; stroke-width: 1.5"/>
   </g>
   <g id="LineCollection_18">
    <path d="M 524.439636 57.342727 
L 549.914864 57.342727 
" clip-path="url(#p3b0695ae81)" style="fill: none; stroke: #1f77b4; stroke-width: 1.5"/>
   </g>
   <g id="LineCollection_19">
    <path d="M 524.439636 263.397273 
L 549.914864 263.397273 
" clip-path="url(#p3b0695ae81)" style="fill: none; stroke: #1f77b4; stroke-width: 1.5"/>
   </g>
   <g id="LineCollection_20">
    <path d="M 537.17725 263.397273 
L 537.17725 57.342727 
" clip-path="url(#p3b0695ae81)" style="fill: none; stroke: #1f77b4; stroke-width: 1.5"/>
   </g>
   <g id="patch_23">
    <path d="M 509.1545 273.7 
L 509.1545 47.04 
" style="fill: none; stroke: #000000; stroke-width: 0.8; stroke-linejoin: miter; stroke-linecap: square"/>
   </g>
   <g id="patch_24">
    <path d="M 565.2 273.7 
L 565.2 47.04 
" style="fill: none; stroke: #000000; stroke-width: 0.8; stroke-linejoin: miter; stroke-linecap: square"/>
   </g>
   <g id="patch_25">
    <path d="M 509.1545 273.7 
L 565.2 273.7 
" style="fill: none; stroke: #000000; stroke-width: 0.8; stroke-linejoin: miter; stroke-linecap: square"/>
   </g>
   <g id="patch_26">
    <path d="M 509.1545 47.04 
L 565.2 47.04 
" style="fill: none; stroke: #000000; stroke-width: 0.8; stroke-linejoin: miter; stroke-linecap: square"/>
   </g>
   <g id="text_45">
    <!-- RMSD stepwise -->
    <g transform="translate(491.125375 41.04)scale(0.12 -0.12)">
     <use xlink:href="#DejaVuSans-52"/>
     <use xlink:href="#DejaVuSans-4d" x="69.482422"/>
     <use xlink:href="#DejaVuSans-53" x="155.761719"/>
     <use xlink:href="#DejaVuSans-44" x="219.238281"/>
     <use xlink:href="#DejaVuSans-20" x="296.240234"/>
     <use xlink:href="#DejaVuSans-73" x="328.027344"/>
     <use xlink:href="#DejaVuSans-74" x="380.126953"/>
     <use xlink:href="#DejaVuSans-65" x="419.335938"/>
     <use xlink:href="#DejaVuSans-70" x="480.859375"/>
     <use xlink:href="#DejaVuSans-77" x="544.335938"/>
     <use xlink:href="#DejaVuSans-69" x="626.123047"/>
     <use xlink:href="#DejaVuSans-73" x="653.90625"/>
     <use xlink:href="#DejaVuSans-65" x="706.005859"/>
    </g>
   </g>
  </g>
  <g id="text_46">
   <!-- Compound 35. Omega -->
   <g transform="translate(220.299375 14.878125)scale(0.12 -0.12)">
    <defs>
     <path id="DejaVuSans-43" d="M 4122 4306 
L 4122 3641 
Q 3803 3938 3442 4084 
Q 3081 4231 2675 4231 
Q 1875 4231 1450 3742 
Q 1025 3253 1025 2328 
Q 1025 1406 1450 917 
Q 1875 428 2675 428 
Q 3081 428 3442 575 
Q 3803 722 4122 1019 
L 4122 359 
Q 3791 134 3420 21 
Q 3050 -91 2638 -91 
Q 1578 -91 968 557 
Q 359 1206 359 2328 
Q 359 3453 968 4101 
Q 1578 4750 2638 4750 
Q 3056 4750 3426 4639 
Q 3797 4528 4122 4306 
z
" transform="scale(0.015625)"/>
     <path id="DejaVuSans-6f" d="M 1959 3097 
Q 1497 3097 1228 2736 
Q 959 2375 959 1747 
Q 959 1119 1226 758 
Q 1494 397 1959 397 
Q 2419 397 2687 759 
Q 2956 1122 2956 1747 
Q 2956 2369 2687 2733 
Q 2419 3097 1959 3097 
z
M 1959 3584 
Q 2709 3584 3137 3096 
Q 3566 2609 3566 1747 
Q 3566 888 3137 398 
Q 2709 -91 1959 -91 
Q 1206 -91 779 398 
Q 353 888 353 1747 
Q 353 2609 779 3096 
Q 1206 3584 1959 3584 
z
" transform="scale(0.015625)"/>
     <path id="DejaVuSans-6d" d="M 3328 2828 
Q 3544 3216 3844 3400 
Q 4144 3584 4550 3584 
Q 5097 3584 5394 3201 
Q 5691 2819 5691 2113 
L 5691 0 
L 5113 0 
L 5113 2094 
Q 5113 2597 4934 2840 
Q 4756 3084 4391 3084 
Q 3944 3084 3684 2787 
Q 3425 2491 3425 1978 
L 3425 0 
L 2847 0 
L 2847 2094 
Q 2847 2600 2669 2842 
Q 2491 3084 2119 3084 
Q 1678 3084 1418 2786 
Q 1159 2488 1159 1978 
L 1159 0 
L 581 0 
L 581 3500 
L 1159 3500 
L 1159 2956 
Q 1356 3278 1631 3431 
Q 1906 3584 2284 3584 
Q 2666 3584 2933 3390 
Q 3200 3197 3328 2828 
z
" transform="scale(0.015625)"/>
     <path id="DejaVuSans-6e" d="M 3513 2113 
L 3513 0 
L 2938 0 
L 2938 2094 
Q 2938 2591 2744 2837 
Q 2550 3084 2163 3084 
Q 1697 3084 1428 2787 
Q 1159 2491 1159 1978 
L 1159 0 
L 581 0 
L 581 3500 
L 1159 3500 
L 1159 2956 
Q 1366 3272 1645 3428 
Q 1925 3584 2291 3584 
Q 2894 3584 3203 3211 
Q 3513 2838 3513 2113 
z
" transform="scale(0.015625)"/>
     <path id="DejaVuSans-67" d="M 2906 1791 
Q 2906 2416 2648 2759 
Q 2391 3103 1925 3103 
Q 1463 3103 1205 2759 
Q 947 2416 947 1791 
Q 947 1169 1205 825 
Q 1463 481 1925 481 
Q 2391 481 2648 825 
Q 2906 1169 2906 1791 
z
M 3481 434 
Q 3481 -459 3084 -895 
Q 2688 -1331 1869 -1331 
Q 1566 -1331 1297 -1286 
Q 1028 -1241 775 -1147 
L 775 -588 
Q 1028 -725 1275 -790 
Q 1522 -856 1778 -856 
Q 2344 -856 2625 -561 
Q 2906 -266 2906 331 
L 2906 616 
Q 2728 306 2450 153 
Q 2172 0 1784 0 
Q 1141 0 747 490 
Q 353 981 353 1791 
Q 353 2603 747 3093 
Q 1141 3584 1784 3584 
Q 2172 3584 2450 3431 
Q 2728 3278 2906 2969 
L 2906 3500 
L 3481 3500 
L 3481 434 
z
" transform="scale(0.015625)"/>
     <path id="DejaVuSans-61" d="M 2194 1759 
Q 1497 1759 1228 1600 
Q 959 1441 959 1056 
Q 959 750 1161 570 
Q 1363 391 1709 391 
Q 2188 391 2477 730 
Q 2766 1069 2766 1631 
L 2766 1759 
L 2194 1759 
z
M 3341 1997 
L 3341 0 
L 2766 0 
L 2766 531 
Q 2569 213 2275 61 
Q 1981 -91 1556 -91 
Q 1019 -91 701 211 
Q 384 513 384 1019 
Q 384 1609 779 1909 
Q 1175 2209 1959 2209 
L 2766 2209 
L 2766 2266 
Q 2766 2663 2505 2880 
Q 2244 3097 1772 3097 
Q 1472 3097 1187 3025 
Q 903 2953 641 2809 
L 641 3341 
Q 956 3463 1253 3523 
Q 1550 3584 1831 3584 
Q 2591 3584 2966 3190 
Q 3341 2797 3341 1997 
z
" transform="scale(0.015625)"/>
    </defs>
    <use xlink:href="#DejaVuSans-43"/>
    <use xlink:href="#DejaVuSans-6f" x="69.824219"/>
    <use xlink:href="#DejaVuSans-6d" x="131.005859"/>
    <use xlink:href="#DejaVuSans-70" x="228.417969"/>
    <use xlink:href="#DejaVuSans-6f" x="291.894531"/>
    <use xlink:href="#DejaVuSans-75" x="353.076172"/>
    <use xlink:href="#DejaVuSans-6e" x="416.455078"/>
    <use xlink:href="#DejaVuSans-64" x="479.833984"/>
    <use xlink:href="#DejaVuSans-20" x="543.310547"/>
    <use xlink:href="#DejaVuSans-33" x="575.097656"/>
    <use xlink:href="#DejaVuSans-35" x="638.720703"/>
    <use xlink:href="#DejaVuSans-2e" x="702.34375"/>
    <use xlink:href="#DejaVuSans-20" x="734.130859"/>
    <use xlink:href="#DejaVuSans-4f" x="765.917969"/>
    <use xlink:href="#DejaVuSans-6d" x="844.628906"/>
    <use xlink:href="#DejaVuSans-65" x="942.041016"/>
    <use xlink:href="#DejaVuSans-67" x="1003.564453"/>
    <use xlink:href="#DejaVuSans-61" x="1067.041016"/>
   </g>
  </g>
 </g>
 <defs>
  <clipPath id="p579b815b9a">
   <rect x="50.8925" y="47.04" width="56.0455" height="226.66"/>
  </clipPath>
  <clipPath id="p31e98024bb">
   <rect x="165.458" y="47.04" width="56.0455" height="226.66"/>
  </clipPath>
  <clipPath id="pfd05c5dd5a">
   <rect x="280.0235" y="47.04" width="56.0455" height="226.66"/>
  </clipPath>
  <clipPath id="p218c129041">
   <rect x="394.589" y="47.04" width="56.0455" height="226.66"/>
  </clipPath>
  <clipPath id="p3b0695ae81">
   <rect x="509.1545" y="47.04" width="56.0455" height="226.66"/>
  </clipPath>
 </defs>
</svg>
