<?xml version="1.0" encoding="utf-8" standalone="no"?>
<!DOCTYPE svg PUBLIC "-//W3C//DTD SVG 1.1//EN"
  "http://www.w3.org/Graphics/SVG/1.1/DTD/svg11.dtd">
<svg xmlns:xlink="http://www.w3.org/1999/xlink" width="576pt" height="288pt" viewBox="0 0 576 288" xmlns="http://www.w3.org/2000/svg" version="1.1">
 <metadata>
  <rdf:RDF xmlns:dc="http://purl.org/dc/elements/1.1/" xmlns:cc="http://creativecommons.org/ns#" xmlns:rdf="http://www.w3.org/1999/02/22-rdf-syntax-ns#">
   <cc:Work>
    <dc:type rdf:resource="http://purl.org/dc/dcmitype/StillImage"/>
    <dc:date>2023-05-31T12:20:18.329901</dc:date>
    <dc:format>image/svg+xml</dc:format>
    <dc:creator>
     <cc:Agent>
      <dc:title>Matplotlib v3.5.3, https://matplotlib.org/</dc:title>
     </cc:Agent>
    </dc:creator>
   </cc:Work>
  </rdf:RDF>
 </metadata>
 <defs>
  <style type="text/css">*{stroke-linejoin: round; stroke-linecap: butt}</style>
 </defs>
 <g id="figure_1">
  <g id="patch_1">
   <path d="M 0 288 
L 576 288 
L 576 0 
L 0 0 
z
" style="fill: #ffffff"/>
  </g>
  <g id="axes_1">
   <g id="patch_2">
    <path d="M 57.2825 273.7 
L 112.05 273.7 
L 112.05 47.04 
L 57.2825 47.04 
z
" style="fill: #ffffff"/>
   </g>
   <g id="PolyCollection_1">
    <path d="M 84.868271 263.397273 
L 84.464229 263.397273 
L 84.464518 261.315914 
L 84.469478 259.234555 
L 84.475721 257.153196 
L 84.478361 255.071837 
L 84.471267 252.990478 
L 84.44744 250.909118 
L 84.399496 248.827759 
L 84.320262 246.7464 
L 84.203488 244.665041 
L 84.044622 242.583682 
L 83.84156 240.502323 
L 83.595214 238.420964 
L 83.309711 236.339605 
L 82.992097 234.258246 
L 82.651494 232.176887 
L 82.297811 230.095528 
L 81.940232 228.014169 
L 81.585732 225.93281 
L 81.237913 223.851451 
L 80.896298 221.770092 
L 80.556185 219.688733 
L 80.209011 217.607374 
L 79.843213 215.526015 
L 79.445506 213.444656 
L 79.002551 211.363297 
L 78.502896 209.281938 
L 77.938984 207.200579 
L 77.308863 205.119219 
L 76.617174 203.03786 
L 75.875024 200.956501 
L 75.098584 198.875142 
L 74.306584 196.793783 
L 73.517231 194.712424 
L 72.745267 192.631065 
L 71.999856 190.549706 
L 71.283724 188.468347 
L 70.593606 186.386988 
L 69.921674 184.305629 
L 69.257454 182.22427 
L 68.589709 180.142911 
L 67.907973 178.061552 
L 67.203625 175.980193 
L 66.470632 173.898834 
L 65.706211 171.817475 
L 64.911681 169.736116 
L 64.093658 167.654757 
L 63.265501 165.573398 
L 62.448625 163.492039 
L 61.673027 161.41068 
L 60.976281 159.32932 
L 60.400517 157.247961 
L 59.987405 155.166602 
L 59.771932 153.085243 
L 59.776334 151.003884 
L 60.005804 148.922525 
L 60.447218 146.841166 
L 61.071322 144.759807 
L 61.837775 142.678448 
L 62.701616 140.597089 
L 63.619424 138.51573 
L 64.553735 136.434371 
L 65.47508 134.353012 
L 66.361934 132.271653 
L 67.199533 130.190294 
L 67.978723 128.108935 
L 68.695654 126.027576 
L 69.352469 123.946217 
L 69.958413 121.864858 
L 70.530391 119.783499 
L 71.092016 117.70214 
L 71.670694 115.620781 
L 72.293008 113.539421 
L 72.979372 111.458062 
L 73.739341 109.376703 
L 74.568876 107.295344 
L 75.450395 105.213985 
L 76.355654 103.132626 
L 77.250738 101.051267 
L 78.101929 98.969908 
L 78.881063 96.888549 
L 79.569272 94.80719 
L 80.158526 92.725831 
L 80.651011 90.644472 
L 81.056853 88.563113 
L 81.390992 86.481754 
L 81.669978 84.400395 
L 81.909326 82.319036 
L 82.121768 80.237677 
L 82.316473 78.156318 
L 82.499115 76.074959 
L 82.672541 73.9936 
L 82.837739 71.912241 
L 82.994853 69.830882 
L 83.144007 67.749522 
L 83.285798 65.668163 
L 83.421403 63.586804 
L 83.552333 61.505445 
L 83.679968 59.424086 
L 83.805057 57.342727 
L 85.527443 57.342727 
L 85.527443 57.342727 
L 85.652532 59.424086 
L 85.780167 61.505445 
L 85.911097 63.586804 
L 86.046702 65.668163 
L 86.188493 67.749522 
L 86.337647 69.830882 
L 86.494761 71.912241 
L 86.659959 73.9936 
L 86.833385 76.074959 
L 87.016027 78.156318 
L 87.210732 80.237677 
L 87.423174 82.319036 
L 87.662522 84.400395 
L 87.941508 86.481754 
L 88.275647 88.563113 
L 88.681489 90.644472 
L 89.173974 92.725831 
L 89.763228 94.80719 
L 90.451437 96.888549 
L 91.230571 98.969908 
L 92.081762 101.051267 
L 92.976846 103.132626 
L 93.882105 105.213985 
L 94.763624 107.295344 
L 95.593159 109.376703 
L 96.353128 111.458062 
L 97.039492 113.539421 
L 97.661806 115.620781 
L 98.240484 117.70214 
L 98.802109 119.783499 
L 99.374087 121.864858 
L 99.980031 123.946217 
L 100.636846 126.027576 
L 101.353777 128.108935 
L 102.132967 130.190294 
L 102.970566 132.271653 
L 103.85742 134.353012 
L 104.778765 136.434371 
L 105.713076 138.51573 
L 106.630884 140.597089 
L 107.494725 142.678448 
L 108.261178 144.759807 
L 108.885282 146.841166 
L 109.326696 148.922525 
L 109.556166 151.003884 
L 109.560568 153.085243 
L 109.345095 155.166602 
L 108.931983 157.247961 
L 108.356219 159.32932 
L 107.659473 161.41068 
L 106.883875 163.492039 
L 106.066999 165.573398 
L 105.238842 167.654757 
L 104.420819 169.736116 
L 103.626289 171.817475 
L 102.861868 173.898834 
L 102.128875 175.980193 
L 101.424527 178.061552 
L 100.742791 180.142911 
L 100.075046 182.22427 
L 99.410826 184.305629 
L 98.738894 186.386988 
L 98.048776 188.468347 
L 97.332644 190.549706 
L 96.587233 192.631065 
L 95.815269 194.712424 
L 95.025916 196.793783 
L 94.233916 198.875142 
L 93.457476 200.956501 
L 92.715326 203.03786 
L 92.023637 205.119219 
L 91.393516 207.200579 
L 90.829604 209.281938 
L 90.329949 211.363297 
L 89.886994 213.444656 
L 89.489287 215.526015 
L 89.123489 217.607374 
L 88.776315 219.688733 
L 88.436202 221.770092 
L 88.094587 223.851451 
L 87.746768 225.93281 
L 87.392268 228.014169 
L 87.034689 230.095528 
L 86.681006 232.176887 
L 86.340403 234.258246 
L 86.022789 236.339605 
L 85.737286 238.420964 
L 85.49094 240.502323 
L 85.287878 242.583682 
L 85.129012 244.665041 
L 85.012238 246.7464 
L 84.933004 248.827759 
L 84.88506 250.909118 
L 84.861233 252.990478 
L 84.854139 255.071837 
L 84.856779 257.153196 
L 84.863022 259.234555 
L 84.867982 261.315914 
L 84.868271 263.397273 
z
" clip-path="url(#p95d9c94267)" style="fill: #1f77b4; fill-opacity: 0.3"/>
   </g>
   <g id="matplotlib.axis_1">
    <g id="ytick_1">
     <g id="line2d_1">
      <defs>
       <path id="mc9a0d4bbae" d="M 0 0 
L -3.5 0 
" style="stroke: #000000; stroke-width: 0.8"/>
      </defs>
      <g>
       <use xlink:href="#mc9a0d4bbae" x="57.2825" y="250.826228" style="stroke: #000000; stroke-width: 0.8"/>
      </g>
     </g>
     <g id="text_1">
      <!-- 0.45 -->
      <g transform="translate(28.016875 254.625447)scale(0.1 -0.1)">
       <defs>
        <path id="DejaVuSans-30" d="M 2034 4250 
Q 1547 4250 1301 3770 
Q 1056 3291 1056 2328 
Q 1056 1369 1301 889 
Q 1547 409 2034 409 
Q 2525 409 2770 889 
Q 3016 1369 3016 2328 
Q 3016 3291 2770 3770 
Q 2525 4250 2034 4250 
z
M 2034 4750 
Q 2819 4750 3233 4129 
Q 3647 3509 3647 2328 
Q 3647 1150 3233 529 
Q 2819 -91 2034 -91 
Q 1250 -91 836 529 
Q 422 1150 422 2328 
Q 422 3509 836 4129 
Q 1250 4750 2034 4750 
z
" transform="scale(0.015625)"/>
        <path id="DejaVuSans-2e" d="M 684 794 
L 1344 794 
L 1344 0 
L 684 0 
L 684 794 
z
" transform="scale(0.015625)"/>
        <path id="DejaVuSans-34" d="M 2419 4116 
L 825 1625 
L 2419 1625 
L 2419 4116 
z
M 2253 4666 
L 3047 4666 
L 3047 1625 
L 3713 1625 
L 3713 1100 
L 3047 1100 
L 3047 0 
L 2419 0 
L 2419 1100 
L 313 1100 
L 313 1709 
L 2253 4666 
z
" transform="scale(0.015625)"/>
        <path id="DejaVuSans-35" d="M 691 4666 
L 3169 4666 
L 3169 4134 
L 1269 4134 
L 1269 2991 
Q 1406 3038 1543 3061 
Q 1681 3084 1819 3084 
Q 2600 3084 3056 2656 
Q 3513 2228 3513 1497 
Q 3513 744 3044 326 
Q 2575 -91 1722 -91 
Q 1428 -91 1123 -41 
Q 819 9 494 109 
L 494 744 
Q 775 591 1075 516 
Q 1375 441 1709 441 
Q 2250 441 2565 725 
Q 2881 1009 2881 1497 
Q 2881 1984 2565 2268 
Q 2250 2553 1709 2553 
Q 1456 2553 1204 2497 
Q 953 2441 691 2322 
L 691 4666 
z
" transform="scale(0.015625)"/>
       </defs>
       <use xlink:href="#DejaVuSans-30"/>
       <use xlink:href="#DejaVuSans-2e" x="63.623047"/>
       <use xlink:href="#DejaVuSans-34" x="95.410156"/>
       <use xlink:href="#DejaVuSans-35" x="159.033203"/>
      </g>
     </g>
    </g>
    <g id="ytick_2">
     <g id="line2d_2">
      <g>
       <use xlink:href="#mc9a0d4bbae" x="57.2825" y="220.891705" style="stroke: #000000; stroke-width: 0.8"/>
      </g>
     </g>
     <g id="text_2">
      <!-- 0.50 -->
      <g transform="translate(28.016875 224.690924)scale(0.1 -0.1)">
       <use xlink:href="#DejaVuSans-30"/>
       <use xlink:href="#DejaVuSans-2e" x="63.623047"/>
       <use xlink:href="#DejaVuSans-35" x="95.410156"/>
       <use xlink:href="#DejaVuSans-30" x="159.033203"/>
      </g>
     </g>
    </g>
    <g id="ytick_3">
     <g id="line2d_3">
      <g>
       <use xlink:href="#mc9a0d4bbae" x="57.2825" y="190.957183" style="stroke: #000000; stroke-width: 0.8"/>
      </g>
     </g>
     <g id="text_3">
      <!-- 0.55 -->
      <g transform="translate(28.016875 194.756402)scale(0.1 -0.1)">
       <use xlink:href="#DejaVuSans-30"/>
       <use xlink:href="#DejaVuSans-2e" x="63.623047"/>
       <use xlink:href="#DejaVuSans-35" x="95.410156"/>
       <use xlink:href="#DejaVuSans-35" x="159.033203"/>
      </g>
     </g>
    </g>
    <g id="ytick_4">
     <g id="line2d_4">
      <g>
       <use xlink:href="#mc9a0d4bbae" x="57.2825" y="161.02266" style="stroke: #000000; stroke-width: 0.8"/>
      </g>
     </g>
     <g id="text_4">
      <!-- 0.60 -->
      <g transform="translate(28.016875 164.821879)scale(0.1 -0.1)">
       <defs>
        <path id="DejaVuSans-36" d="M 2113 2584 
Q 1688 2584 1439 2293 
Q 1191 2003 1191 1497 
Q 1191 994 1439 701 
Q 1688 409 2113 409 
Q 2538 409 2786 701 
Q 3034 994 3034 1497 
Q 3034 2003 2786 2293 
Q 2538 2584 2113 2584 
z
M 3366 4563 
L 3366 3988 
Q 3128 4100 2886 4159 
Q 2644 4219 2406 4219 
Q 1781 4219 1451 3797 
Q 1122 3375 1075 2522 
Q 1259 2794 1537 2939 
Q 1816 3084 2150 3084 
Q 2853 3084 3261 2657 
Q 3669 2231 3669 1497 
Q 3669 778 3244 343 
Q 2819 -91 2113 -91 
Q 1303 -91 875 529 
Q 447 1150 447 2328 
Q 447 3434 972 4092 
Q 1497 4750 2381 4750 
Q 2619 4750 2861 4703 
Q 3103 4656 3366 4563 
z
" transform="scale(0.015625)"/>
       </defs>
       <use xlink:href="#DejaVuSans-30"/>
       <use xlink:href="#DejaVuSans-2e" x="63.623047"/>
       <use xlink:href="#DejaVuSans-36" x="95.410156"/>
       <use xlink:href="#DejaVuSans-30" x="159.033203"/>
      </g>
     </g>
    </g>
    <g id="ytick_5">
     <g id="line2d_5">
      <g>
       <use xlink:href="#mc9a0d4bbae" x="57.2825" y="131.088138" style="stroke: #000000; stroke-width: 0.8"/>
      </g>
     </g>
     <g id="text_5">
      <!-- 0.65 -->
      <g transform="translate(28.016875 134.887357)scale(0.1 -0.1)">
       <use xlink:href="#DejaVuSans-30"/>
       <use xlink:href="#DejaVuSans-2e" x="63.623047"/>
       <use xlink:href="#DejaVuSans-36" x="95.410156"/>
       <use xlink:href="#DejaVuSans-35" x="159.033203"/>
      </g>
     </g>
    </g>
    <g id="ytick_6">
     <g id="line2d_6">
      <g>
       <use xlink:href="#mc9a0d4bbae" x="57.2825" y="101.153615" style="stroke: #000000; stroke-width: 0.8"/>
      </g>
     </g>
     <g id="text_6">
      <!-- 0.70 -->
      <g transform="translate(28.016875 104.952834)scale(0.1 -0.1)">
       <defs>
        <path id="DejaVuSans-37" d="M 525 4666 
L 3525 4666 
L 3525 4397 
L 1831 0 
L 1172 0 
L 2766 4134 
L 525 4134 
L 525 4666 
z
" transform="scale(0.015625)"/>
       </defs>
       <use xlink:href="#DejaVuSans-30"/>
       <use xlink:href="#DejaVuSans-2e" x="63.623047"/>
       <use xlink:href="#DejaVuSans-37" x="95.410156"/>
       <use xlink:href="#DejaVuSans-30" x="159.033203"/>
      </g>
     </g>
    </g>
    <g id="ytick_7">
     <g id="line2d_7">
      <g>
       <use xlink:href="#mc9a0d4bbae" x="57.2825" y="71.219093" style="stroke: #000000; stroke-width: 0.8"/>
      </g>
     </g>
     <g id="text_7">
      <!-- 0.75 -->
      <g transform="translate(28.016875 75.018312)scale(0.1 -0.1)">
       <use xlink:href="#DejaVuSans-30"/>
       <use xlink:href="#DejaVuSans-2e" x="63.623047"/>
       <use xlink:href="#DejaVuSans-37" x="95.410156"/>
       <use xlink:href="#DejaVuSans-35" x="159.033203"/>
      </g>
     </g>
    </g>
    <g id="text_8">
     <!-- RMSD [$\AA$] -->
     <g transform="translate(21.937187 184.12)rotate(-90)scale(0.1 -0.1)">
      <defs>
       <path id="DejaVuSans-52" d="M 2841 2188 
Q 3044 2119 3236 1894 
Q 3428 1669 3622 1275 
L 4263 0 
L 3584 0 
L 2988 1197 
Q 2756 1666 2539 1819 
Q 2322 1972 1947 1972 
L 1259 1972 
L 1259 0 
L 628 0 
L 628 4666 
L 2053 4666 
Q 2853 4666 3247 4331 
Q 3641 3997 3641 3322 
Q 3641 2881 3436 2590 
Q 3231 2300 2841 2188 
z
M 1259 4147 
L 1259 2491 
L 2053 2491 
Q 2509 2491 2742 2702 
Q 2975 2913 2975 3322 
Q 2975 3731 2742 3939 
Q 2509 4147 2053 4147 
L 1259 4147 
z
" transform="scale(0.015625)"/>
       <path id="DejaVuSans-4d" d="M 628 4666 
L 1569 4666 
L 2759 1491 
L 3956 4666 
L 4897 4666 
L 4897 0 
L 4281 0 
L 4281 4097 
L 3078 897 
L 2444 897 
L 1241 4097 
L 1241 0 
L 628 0 
L 628 4666 
z
" transform="scale(0.015625)"/>
       <path id="DejaVuSans-53" d="M 3425 4513 
L 3425 3897 
Q 3066 4069 2747 4153 
Q 2428 4238 2131 4238 
Q 1616 4238 1336 4038 
Q 1056 3838 1056 3469 
Q 1056 3159 1242 3001 
Q 1428 2844 1947 2747 
L 2328 2669 
Q 3034 2534 3370 2195 
Q 3706 1856 3706 1288 
Q 3706 609 3251 259 
Q 2797 -91 1919 -91 
Q 1588 -91 1214 -16 
Q 841 59 441 206 
L 441 856 
Q 825 641 1194 531 
Q 1563 422 1919 422 
Q 2459 422 2753 634 
Q 3047 847 3047 1241 
Q 3047 1584 2836 1778 
Q 2625 1972 2144 2069 
L 1759 2144 
Q 1053 2284 737 2584 
Q 422 2884 422 3419 
Q 422 4038 858 4394 
Q 1294 4750 2059 4750 
Q 2388 4750 2728 4690 
Q 3069 4631 3425 4513 
z
" transform="scale(0.015625)"/>
       <path id="DejaVuSans-44" d="M 1259 4147 
L 1259 519 
L 2022 519 
Q 2988 519 3436 956 
Q 3884 1394 3884 2338 
Q 3884 3275 3436 3711 
Q 2988 4147 2022 4147 
L 1259 4147 
z
M 628 4666 
L 1925 4666 
Q 3281 4666 3915 4102 
Q 4550 3538 4550 2338 
Q 4550 1131 3912 565 
Q 3275 0 1925 0 
L 628 0 
L 628 4666 
z
" transform="scale(0.015625)"/>
       <path id="DejaVuSans-20" transform="scale(0.015625)"/>
       <path id="DejaVuSans-5b" d="M 550 4863 
L 1875 4863 
L 1875 4416 
L 1125 4416 
L 1125 -397 
L 1875 -397 
L 1875 -844 
L 550 -844 
L 550 4863 
z
" transform="scale(0.015625)"/>
       <path id="DejaVuSans-Oblique-c5" d="M 3188 5081 
Q 3188 5278 3048 5417 
Q 2909 5556 2713 5556 
Q 2513 5556 2377 5420 
Q 2241 5284 2241 5081 
Q 2241 4884 2377 4746 
Q 2513 4609 2713 4609 
Q 2909 4609 3048 4746 
Q 3188 4884 3188 5081 
z
M 2203 4397 
Q 2034 4513 1945 4689 
Q 1856 4866 1856 5081 
Q 1856 5438 2106 5689 
Q 2356 5941 2713 5941 
Q 3069 5941 3320 5689 
Q 3572 5438 3572 5081 
Q 3572 4834 3458 4643 
Q 3344 4453 3128 4341 
L 3938 0 
L 3278 0 
L 3084 1197 
L 984 1197 
L 325 0 
L -341 0 
L 2203 4397 
z
M 2584 4044 
L 1275 1722 
L 2988 1722 
L 2584 4044 
z
" transform="scale(0.015625)"/>
       <path id="DejaVuSans-5d" d="M 1947 4863 
L 1947 -844 
L 622 -844 
L 622 -397 
L 1369 -397 
L 1369 4416 
L 622 4416 
L 622 4863 
L 1947 4863 
z
" transform="scale(0.015625)"/>
      </defs>
      <use xlink:href="#DejaVuSans-52" transform="translate(0 0.171875)"/>
      <use xlink:href="#DejaVuSans-4d" transform="translate(69.482422 0.171875)"/>
      <use xlink:href="#DejaVuSans-53" transform="translate(155.761719 0.171875)"/>
      <use xlink:href="#DejaVuSans-44" transform="translate(219.238281 0.171875)"/>
      <use xlink:href="#DejaVuSans-20" transform="translate(296.240234 0.171875)"/>
      <use xlink:href="#DejaVuSans-5b" transform="translate(328.027344 0.171875)"/>
      <use xlink:href="#DejaVuSans-Oblique-c5" transform="translate(367.041016 0.171875)"/>
      <use xlink:href="#DejaVuSans-5d" transform="translate(435.449219 0.171875)"/>
     </g>
    </g>
   </g>
   <g id="LineCollection_1">
    <path d="M 72.219091 152.925562 
L 97.113409 152.925562 
" clip-path="url(#p95d9c94267)" style="fill: none; stroke: #1f77b4; stroke-width: 1.5"/>
   </g>
   <g id="LineCollection_2">
    <path d="M 72.219091 57.342727 
L 97.113409 57.342727 
" clip-path="url(#p95d9c94267)" style="fill: none; stroke: #1f77b4; stroke-width: 1.5"/>
   </g>
   <g id="LineCollection_3">
    <path d="M 72.219091 263.397273 
L 97.113409 263.397273 
" clip-path="url(#p95d9c94267)" style="fill: none; stroke: #1f77b4; stroke-width: 1.5"/>
   </g>
   <g id="LineCollection_4">
    <path d="M 84.66625 263.397273 
L 84.66625 57.342727 
" clip-path="url(#p95d9c94267)" style="fill: none; stroke: #1f77b4; stroke-width: 1.5"/>
   </g>
   <g id="patch_3">
    <path d="M 57.2825 273.7 
L 57.2825 47.04 
" style="fill: none; stroke: #000000; stroke-width: 0.8; stroke-linejoin: miter; stroke-linecap: square"/>
   </g>
   <g id="patch_4">
    <path d="M 112.05 273.7 
L 112.05 47.04 
" style="fill: none; stroke: #000000; stroke-width: 0.8; stroke-linejoin: miter; stroke-linecap: square"/>
   </g>
   <g id="patch_5">
    <path d="M 57.2825 273.7 
L 112.05 273.7 
" style="fill: none; stroke: #000000; stroke-width: 0.8; stroke-linejoin: miter; stroke-linecap: square"/>
   </g>
   <g id="patch_6">
    <path d="M 57.2825 47.04 
L 112.05 47.04 
" style="fill: none; stroke: #000000; stroke-width: 0.8; stroke-linejoin: miter; stroke-linecap: square"/>
   </g>
   <g id="text_9">
    <!-- RMSD -->
    <g transform="translate(66.89125 41.04)scale(0.12 -0.12)">
     <use xlink:href="#DejaVuSans-52"/>
     <use xlink:href="#DejaVuSans-4d" x="69.482422"/>
     <use xlink:href="#DejaVuSans-53" x="155.761719"/>
     <use xlink:href="#DejaVuSans-44" x="219.238281"/>
    </g>
   </g>
  </g>
  <g id="axes_2">
   <g id="patch_7">
    <path d="M 170.57 273.7 
L 225.3375 273.7 
L 225.3375 47.04 
L 170.57 47.04 
z
" style="fill: #ffffff"/>
   </g>
   <g id="PolyCollection_2">
    <path d="M 198.350437 263.397273 
L 197.557063 263.397273 
L 197.473706 261.315914 
L 197.368282 259.234555 
L 197.232997 257.153196 
L 197.059788 255.071837 
L 196.841413 252.990478 
L 196.572584 250.909118 
L 196.250902 248.827759 
L 195.877405 246.7464 
L 195.456543 244.665041 
L 194.995496 242.583682 
L 194.502866 240.502323 
L 193.986922 238.420964 
L 193.453739 236.339605 
L 192.905663 234.258246 
L 192.340492 232.176887 
L 191.751608 230.095528 
L 191.129048 228.014169 
L 190.461253 225.93281 
L 189.73713 223.851451 
L 188.948034 221.770092 
L 188.089451 219.688733 
L 187.162266 217.607374 
L 186.173555 215.526015 
L 185.136828 213.444656 
L 184.071496 211.363297 
L 183.001381 209.281938 
L 181.952173 207.200579 
L 180.94809 205.119219 
L 180.008353 203.03786 
L 179.144312 200.956501 
L 178.358086 198.875142 
L 177.643226 196.793783 
L 176.987353 194.712424 
L 176.37616 192.631065 
L 175.797771 190.549706 
L 175.246345 188.468347 
L 174.724114 186.386988 
L 174.241461 184.305629 
L 173.815203 182.22427 
L 173.465617 180.142911 
L 173.212912 178.061552 
L 173.073903 175.980193 
L 173.059432 173.898834 
L 173.172949 171.817475 
L 173.410403 169.736116 
L 173.761379 167.654757 
L 174.211178 165.573398 
L 174.743332 163.492039 
L 175.341939 161.41068 
L 175.99329 159.32932 
L 176.686462 157.247961 
L 177.412951 155.166602 
L 178.165689 153.085243 
L 178.938007 151.003884 
L 179.723051 148.922525 
L 180.513922 146.841166 
L 181.304466 144.759807 
L 182.090381 142.678448 
L 182.870171 140.597089 
L 183.645523 138.51573 
L 184.420951 136.434371 
L 185.202718 134.353012 
L 185.997289 132.271653 
L 186.809593 130.190294 
L 187.641384 128.108935 
L 188.48995 126.027576 
L 189.3474 123.946217 
L 190.200747 121.864858 
L 191.032944 119.783499 
L 191.824861 117.70214 
L 192.557929 115.620781 
L 193.21695 113.539421 
L 193.792401 111.458062 
L 194.281665 109.376703 
L 194.688899 107.295344 
L 195.023632 105.213985 
L 195.298571 103.132626 
L 195.52726 101.051267 
L 195.722184 98.969908 
L 195.893687 96.888549 
L 196.049717 94.80719 
L 196.19617 92.725831 
L 196.337429 90.644472 
L 196.476778 88.563113 
L 196.616491 86.481754 
L 196.757624 84.400395 
L 196.899701 82.319036 
L 197.04054 80.237677 
L 197.176419 78.156318 
L 197.30264 76.074959 
L 197.414414 73.9936 
L 197.507852 71.912241 
L 197.580815 69.830882 
L 197.633408 67.749522 
L 197.667997 65.668163 
L 197.688765 63.586804 
L 197.700903 61.505445 
L 197.709661 59.424086 
L 197.719454 57.342727 
L 198.188046 57.342727 
L 198.188046 57.342727 
L 198.197839 59.424086 
L 198.206597 61.505445 
L 198.218735 63.586804 
L 198.239503 65.668163 
L 198.274092 67.749522 
L 198.326685 69.830882 
L 198.399648 71.912241 
L 198.493086 73.9936 
L 198.60486 76.074959 
L 198.731081 78.156318 
L 198.86696 80.237677 
L 199.007799 82.319036 
L 199.149876 84.400395 
L 199.291009 86.481754 
L 199.430722 88.563113 
L 199.570071 90.644472 
L 199.71133 92.725831 
L 199.857783 94.80719 
L 200.013813 96.888549 
L 200.185316 98.969908 
L 200.38024 101.051267 
L 200.608929 103.132626 
L 200.883868 105.213985 
L 201.218601 107.295344 
L 201.625835 109.376703 
L 202.115099 111.458062 
L 202.69055 113.539421 
L 203.349571 115.620781 
L 204.082639 117.70214 
L 204.874556 119.783499 
L 205.706753 121.864858 
L 206.5601 123.946217 
L 207.41755 126.027576 
L 208.266116 128.108935 
L 209.097907 130.190294 
L 209.910211 132.271653 
L 210.704782 134.353012 
L 211.486549 136.434371 
L 212.261977 138.51573 
L 213.037329 140.597089 
L 213.817119 142.678448 
L 214.603034 144.759807 
L 215.393578 146.841166 
L 216.184449 148.922525 
L 216.969493 151.003884 
L 217.741811 153.085243 
L 218.494549 155.166602 
L 219.221038 157.247961 
L 219.91421 159.32932 
L 220.565561 161.41068 
L 221.164168 163.492039 
L 221.696322 165.573398 
L 222.146121 167.654757 
L 222.497097 169.736116 
L 222.734551 171.817475 
L 222.848068 173.898834 
L 222.833597 175.980193 
L 222.694588 178.061552 
L 222.441883 180.142911 
L 222.092297 182.22427 
L 221.666039 184.305629 
L 221.183386 186.386988 
L 220.661155 188.468347 
L 220.109729 190.549706 
L 219.53134 192.631065 
L 218.920147 194.712424 
L 218.264274 196.793783 
L 217.549414 198.875142 
L 216.763188 200.956501 
L 215.899147 203.03786 
L 214.95941 205.119219 
L 213.955327 207.200579 
L 212.906119 209.281938 
L 211.836004 211.363297 
L 210.770672 213.444656 
L 209.733945 215.526015 
L 208.745234 217.607374 
L 207.818049 219.688733 
L 206.959466 221.770092 
L 206.17037 223.851451 
L 205.446247 225.93281 
L 204.778452 228.014169 
L 204.155892 230.095528 
L 203.567008 232.176887 
L 203.001837 234.258246 
L 202.453761 236.339605 
L 201.920578 238.420964 
L 201.404634 240.502323 
L 200.912004 242.583682 
L 200.450957 244.665041 
L 200.030095 246.7464 
L 199.656598 248.827759 
L 199.334916 250.909118 
L 199.066087 252.990478 
L 198.847712 255.071837 
L 198.674503 257.153196 
L 198.539218 259.234555 
L 198.433794 261.315914 
L 198.350437 263.397273 
z
" clip-path="url(#p1a491142c9)" style="fill: #1f77b4; fill-opacity: 0.3"/>
   </g>
   <g id="matplotlib.axis_2">
    <g id="ytick_8">
     <g id="line2d_8">
      <g>
       <use xlink:href="#mc9a0d4bbae" x="170.57" y="252.816398" style="stroke: #000000; stroke-width: 0.8"/>
      </g>
     </g>
     <g id="text_10">
      <!-- 0.35 -->
      <g transform="translate(141.304375 256.615617)scale(0.1 -0.1)">
       <defs>
        <path id="DejaVuSans-33" d="M 2597 2516 
Q 3050 2419 3304 2112 
Q 3559 1806 3559 1356 
Q 3559 666 3084 287 
Q 2609 -91 1734 -91 
Q 1441 -91 1130 -33 
Q 819 25 488 141 
L 488 750 
Q 750 597 1062 519 
Q 1375 441 1716 441 
Q 2309 441 2620 675 
Q 2931 909 2931 1356 
Q 2931 1769 2642 2001 
Q 2353 2234 1838 2234 
L 1294 2234 
L 1294 2753 
L 1863 2753 
Q 2328 2753 2575 2939 
Q 2822 3125 2822 3475 
Q 2822 3834 2567 4026 
Q 2313 4219 1838 4219 
Q 1578 4219 1281 4162 
Q 984 4106 628 3988 
L 628 4550 
Q 988 4650 1302 4700 
Q 1616 4750 1894 4750 
Q 2613 4750 3031 4423 
Q 3450 4097 3450 3541 
Q 3450 3153 3228 2886 
Q 3006 2619 2597 2516 
z
" transform="scale(0.015625)"/>
       </defs>
       <use xlink:href="#DejaVuSans-30"/>
       <use xlink:href="#DejaVuSans-2e" x="63.623047"/>
       <use xlink:href="#DejaVuSans-33" x="95.410156"/>
       <use xlink:href="#DejaVuSans-35" x="159.033203"/>
      </g>
     </g>
    </g>
    <g id="ytick_9">
     <g id="line2d_9">
      <g>
       <use xlink:href="#mc9a0d4bbae" x="170.57" y="219.684711" style="stroke: #000000; stroke-width: 0.8"/>
      </g>
     </g>
     <g id="text_11">
      <!-- 0.40 -->
      <g transform="translate(141.304375 223.48393)scale(0.1 -0.1)">
       <use xlink:href="#DejaVuSans-30"/>
       <use xlink:href="#DejaVuSans-2e" x="63.623047"/>
       <use xlink:href="#DejaVuSans-34" x="95.410156"/>
       <use xlink:href="#DejaVuSans-30" x="159.033203"/>
      </g>
     </g>
    </g>
    <g id="ytick_10">
     <g id="line2d_10">
      <g>
       <use xlink:href="#mc9a0d4bbae" x="170.57" y="186.553024" style="stroke: #000000; stroke-width: 0.8"/>
      </g>
     </g>
     <g id="text_12">
      <!-- 0.45 -->
      <g transform="translate(141.304375 190.352243)scale(0.1 -0.1)">
       <use xlink:href="#DejaVuSans-30"/>
       <use xlink:href="#DejaVuSans-2e" x="63.623047"/>
       <use xlink:href="#DejaVuSans-34" x="95.410156"/>
       <use xlink:href="#DejaVuSans-35" x="159.033203"/>
      </g>
     </g>
    </g>
    <g id="ytick_11">
     <g id="line2d_11">
      <g>
       <use xlink:href="#mc9a0d4bbae" x="170.57" y="153.421336" style="stroke: #000000; stroke-width: 0.8"/>
      </g>
     </g>
     <g id="text_13">
      <!-- 0.50 -->
      <g transform="translate(141.304375 157.220555)scale(0.1 -0.1)">
       <use xlink:href="#DejaVuSans-30"/>
       <use xlink:href="#DejaVuSans-2e" x="63.623047"/>
       <use xlink:href="#DejaVuSans-35" x="95.410156"/>
       <use xlink:href="#DejaVuSans-30" x="159.033203"/>
      </g>
     </g>
    </g>
    <g id="ytick_12">
     <g id="line2d_12">
      <g>
       <use xlink:href="#mc9a0d4bbae" x="170.57" y="120.289649" style="stroke: #000000; stroke-width: 0.8"/>
      </g>
     </g>
     <g id="text_14">
      <!-- 0.55 -->
      <g transform="translate(141.304375 124.088868)scale(0.1 -0.1)">
       <use xlink:href="#DejaVuSans-30"/>
       <use xlink:href="#DejaVuSans-2e" x="63.623047"/>
       <use xlink:href="#DejaVuSans-35" x="95.410156"/>
       <use xlink:href="#DejaVuSans-35" x="159.033203"/>
      </g>
     </g>
    </g>
    <g id="ytick_13">
     <g id="line2d_13">
      <g>
       <use xlink:href="#mc9a0d4bbae" x="170.57" y="87.157962" style="stroke: #000000; stroke-width: 0.8"/>
      </g>
     </g>
     <g id="text_15">
      <!-- 0.60 -->
      <g transform="translate(141.304375 90.957181)scale(0.1 -0.1)">
       <use xlink:href="#DejaVuSans-30"/>
       <use xlink:href="#DejaVuSans-2e" x="63.623047"/>
       <use xlink:href="#DejaVuSans-36" x="95.410156"/>
       <use xlink:href="#DejaVuSans-30" x="159.033203"/>
      </g>
     </g>
    </g>
    <g id="ytick_14">
     <g id="line2d_14">
      <g>
       <use xlink:href="#mc9a0d4bbae" x="170.57" y="54.026275" style="stroke: #000000; stroke-width: 0.8"/>
      </g>
     </g>
     <g id="text_16">
      <!-- 0.65 -->
      <g transform="translate(141.304375 57.825493)scale(0.1 -0.1)">
       <use xlink:href="#DejaVuSans-30"/>
       <use xlink:href="#DejaVuSans-2e" x="63.623047"/>
       <use xlink:href="#DejaVuSans-36" x="95.410156"/>
       <use xlink:href="#DejaVuSans-35" x="159.033203"/>
      </g>
     </g>
    </g>
    <g id="text_17">
     <!-- MAE [$\AA$] -->
     <g transform="translate(135.224687 180.22)rotate(-90)scale(0.1 -0.1)">
      <defs>
       <path id="DejaVuSans-41" d="M 2188 4044 
L 1331 1722 
L 3047 1722 
L 2188 4044 
z
M 1831 4666 
L 2547 4666 
L 4325 0 
L 3669 0 
L 3244 1197 
L 1141 1197 
L 716 0 
L 50 0 
L 1831 4666 
z
" transform="scale(0.015625)"/>
       <path id="DejaVuSans-45" d="M 628 4666 
L 3578 4666 
L 3578 4134 
L 1259 4134 
L 1259 2753 
L 3481 2753 
L 3481 2222 
L 1259 2222 
L 1259 531 
L 3634 531 
L 3634 0 
L 628 0 
L 628 4666 
z
" transform="scale(0.015625)"/>
      </defs>
      <use xlink:href="#DejaVuSans-4d" transform="translate(0 0.171875)"/>
      <use xlink:href="#DejaVuSans-41" transform="translate(86.279297 0.171875)"/>
      <use xlink:href="#DejaVuSans-45" transform="translate(154.6875 0.171875)"/>
      <use xlink:href="#DejaVuSans-20" transform="translate(217.871094 0.171875)"/>
      <use xlink:href="#DejaVuSans-5b" transform="translate(249.658203 0.171875)"/>
      <use xlink:href="#DejaVuSans-Oblique-c5" transform="translate(288.671875 0.171875)"/>
      <use xlink:href="#DejaVuSans-5d" transform="translate(357.080078 0.171875)"/>
     </g>
    </g>
   </g>
   <g id="LineCollection_5">
    <path d="M 185.506591 173.026137 
L 210.400909 173.026137 
" clip-path="url(#p1a491142c9)" style="fill: none; stroke: #1f77b4; stroke-width: 1.5"/>
   </g>
   <g id="LineCollection_6">
    <path d="M 185.506591 57.342727 
L 210.400909 57.342727 
" clip-path="url(#p1a491142c9)" style="fill: none; stroke: #1f77b4; stroke-width: 1.5"/>
   </g>
   <g id="LineCollection_7">
    <path d="M 185.506591 263.397273 
L 210.400909 263.397273 
" clip-path="url(#p1a491142c9)" style="fill: none; stroke: #1f77b4; stroke-width: 1.5"/>
   </g>
   <g id="LineCollection_8">
    <path d="M 197.95375 263.397273 
L 197.95375 57.342727 
" clip-path="url(#p1a491142c9)" style="fill: none; stroke: #1f77b4; stroke-width: 1.5"/>
   </g>
   <g id="patch_8">
    <path d="M 170.57 273.7 
L 170.57 47.04 
" style="fill: none; stroke: #000000; stroke-width: 0.8; stroke-linejoin: miter; stroke-linecap: square"/>
   </g>
   <g id="patch_9">
    <path d="M 225.3375 273.7 
L 225.3375 47.04 
" style="fill: none; stroke: #000000; stroke-width: 0.8; stroke-linejoin: miter; stroke-linecap: square"/>
   </g>
   <g id="patch_10">
    <path d="M 170.57 273.7 
L 225.3375 273.7 
" style="fill: none; stroke: #000000; stroke-width: 0.8; stroke-linejoin: miter; stroke-linecap: square"/>
   </g>
   <g id="patch_11">
    <path d="M 170.57 47.04 
L 225.3375 47.04 
" style="fill: none; stroke: #000000; stroke-width: 0.8; stroke-linejoin: miter; stroke-linecap: square"/>
   </g>
   <g id="text_18">
    <!-- MAE -->
    <g transform="translate(184.88125 41.04)scale(0.12 -0.12)">
     <use xlink:href="#DejaVuSans-4d"/>
     <use xlink:href="#DejaVuSans-41" x="86.279297"/>
     <use xlink:href="#DejaVuSans-45" x="154.6875"/>
    </g>
   </g>
  </g>
  <g id="axes_3">
   <g id="patch_12">
    <path d="M 283.8575 273.7 
L 338.625 273.7 
L 338.625 47.04 
L 283.8575 47.04 
z
" style="fill: #ffffff"/>
   </g>
   <g id="PolyCollection_3">
    <path d="M 311.938499 263.397273 
L 310.544001 263.397273 
L 310.460749 261.315914 
L 310.376155 259.234555 
L 310.287184 257.153196 
L 310.189599 255.071837 
L 310.078396 252.990478 
L 309.948221 250.909118 
L 309.793655 248.827759 
L 309.609301 246.7464 
L 309.389723 244.665041 
L 309.129371 242.583682 
L 308.822616 240.502323 
L 308.464036 238.420964 
L 308.048919 236.339605 
L 307.57388 234.258246 
L 307.037387 232.176887 
L 306.439997 230.095528 
L 305.784189 228.014169 
L 305.073843 225.93281 
L 304.31355 223.851451 
L 303.508041 221.770092 
L 302.661996 219.688733 
L 301.780374 217.607374 
L 300.869188 215.526015 
L 299.936423 213.444656 
L 298.992683 211.363297 
L 298.051136 209.281938 
L 297.126524 207.200579 
L 296.233293 205.119219 
L 295.383242 203.03786 
L 294.583316 200.956501 
L 293.83421 198.875142 
L 293.130299 196.793783 
L 292.461034 194.712424 
L 291.813554 192.631065 
L 291.175915 190.549706 
L 290.540191 188.468347 
L 289.904732 186.386988 
L 289.275105 184.305629 
L 288.663582 182.22427 
L 288.087374 180.142911 
L 287.56609 178.061552 
L 287.119029 175.980193 
L 286.762914 173.898834 
L 286.510514 171.817475 
L 286.370291 169.736116 
L 286.346932 167.654757 
L 286.442305 165.573398 
L 286.656283 163.492039 
L 286.986941 161.41068 
L 287.42993 159.32932 
L 287.977216 157.247961 
L 288.615749 155.166602 
L 289.326781 153.085243 
L 290.08645 151.003884 
L 290.867856 148.922525 
L 291.644348 146.841166 
L 292.393269 144.759807 
L 293.099202 142.678448 
L 293.75583 140.597089 
L 294.365964 138.51573 
L 294.939817 136.434371 
L 295.492098 134.353012 
L 296.038794 132.271653 
L 296.594447 130.190294 
L 297.170466 128.108935 
L 297.774593 126.027576 
L 298.411231 123.946217 
L 299.082176 121.864858 
L 299.787247 119.783499 
L 300.524526 117.70214 
L 301.290163 115.620781 
L 302.077933 113.539421 
L 302.878846 111.458062 
L 303.681096 109.376703 
L 304.470518 107.295344 
L 305.231553 105.213985 
L 305.948575 103.132626 
L 306.60737 101.051267 
L 307.196495 98.969908 
L 307.708321 96.888549 
L 308.139598 94.80719 
L 308.491513 92.725831 
L 308.769243 90.644472 
L 308.981151 88.563113 
L 309.137766 86.481754 
L 309.250735 84.400395 
L 309.331892 82.319036 
L 309.392518 80.237677 
L 309.442829 78.156318 
L 309.491629 76.074959 
L 309.546077 73.9936 
L 309.611518 71.912241 
L 309.691352 69.830882 
L 309.78698 67.749522 
L 309.897854 65.668163 
L 310.021684 63.586804 
L 310.154797 61.505445 
L 310.292633 59.424086 
L 310.430293 57.342727 
L 312.052207 57.342727 
L 312.052207 57.342727 
L 312.189867 59.424086 
L 312.327703 61.505445 
L 312.460816 63.586804 
L 312.584646 65.668163 
L 312.69552 67.749522 
L 312.791148 69.830882 
L 312.870982 71.912241 
L 312.936423 73.9936 
L 312.990871 76.074959 
L 313.039671 78.156318 
L 313.089982 80.237677 
L 313.150608 82.319036 
L 313.231765 84.400395 
L 313.344734 86.481754 
L 313.501349 88.563113 
L 313.713257 90.644472 
L 313.990987 92.725831 
L 314.342902 94.80719 
L 314.774179 96.888549 
L 315.286005 98.969908 
L 315.87513 101.051267 
L 316.533925 103.132626 
L 317.250947 105.213985 
L 318.011982 107.295344 
L 318.801404 109.376703 
L 319.603654 111.458062 
L 320.404567 113.539421 
L 321.192337 115.620781 
L 321.957974 117.70214 
L 322.695253 119.783499 
L 323.400324 121.864858 
L 324.071269 123.946217 
L 324.707907 126.027576 
L 325.312034 128.108935 
L 325.888053 130.190294 
L 326.443706 132.271653 
L 326.990402 134.353012 
L 327.542683 136.434371 
L 328.116536 138.51573 
L 328.72667 140.597089 
L 329.383298 142.678448 
L 330.089231 144.759807 
L 330.838152 146.841166 
L 331.614644 148.922525 
L 332.39605 151.003884 
L 333.155719 153.085243 
L 333.866751 155.166602 
L 334.505284 157.247961 
L 335.05257 159.32932 
L 335.495559 161.41068 
L 335.826217 163.492039 
L 336.040195 165.573398 
L 336.135568 167.654757 
L 336.112209 169.736116 
L 335.971986 171.817475 
L 335.719586 173.898834 
L 335.363471 175.980193 
L 334.91641 178.061552 
L 334.395126 180.142911 
L 333.818918 182.22427 
L 333.207395 184.305629 
L 332.577768 186.386988 
L 331.942309 188.468347 
L 331.306585 190.549706 
L 330.668946 192.631065 
L 330.021466 194.712424 
L 329.352201 196.793783 
L 328.64829 198.875142 
L 327.899184 200.956501 
L 327.099258 203.03786 
L 326.249207 205.119219 
L 325.355976 207.200579 
L 324.431364 209.281938 
L 323.489817 211.363297 
L 322.546077 213.444656 
L 321.613312 215.526015 
L 320.702126 217.607374 
L 319.820504 219.688733 
L 318.974459 221.770092 
L 318.16895 223.851451 
L 317.408657 225.93281 
L 316.698311 228.014169 
L 316.042503 230.095528 
L 315.445113 232.176887 
L 314.90862 234.258246 
L 314.433581 236.339605 
L 314.018464 238.420964 
L 313.659884 240.502323 
L 313.353129 242.583682 
L 313.092777 244.665041 
L 312.873199 246.7464 
L 312.688845 248.827759 
L 312.534279 250.909118 
L 312.404104 252.990478 
L 312.292901 255.071837 
L 312.195316 257.153196 
L 312.106345 259.234555 
L 312.021751 261.315914 
L 311.938499 263.397273 
z
" clip-path="url(#p0e9bf600b4)" style="fill: #1f77b4; fill-opacity: 0.3"/>
   </g>
   <g id="matplotlib.axis_3">
    <g id="ytick_15">
     <g id="line2d_15">
      <g>
       <use xlink:href="#mc9a0d4bbae" x="283.8575" y="264.959356" style="stroke: #000000; stroke-width: 0.8"/>
      </g>
     </g>
     <g id="text_19">
      <!-- 0.05 -->
      <g transform="translate(254.591875 268.758575)scale(0.1 -0.1)">
       <use xlink:href="#DejaVuSans-30"/>
       <use xlink:href="#DejaVuSans-2e" x="63.623047"/>
       <use xlink:href="#DejaVuSans-30" x="95.410156"/>
       <use xlink:href="#DejaVuSans-35" x="159.033203"/>
      </g>
     </g>
    </g>
    <g id="ytick_16">
     <g id="line2d_16">
      <g>
       <use xlink:href="#mc9a0d4bbae" x="283.8575" y="238.669031" style="stroke: #000000; stroke-width: 0.8"/>
      </g>
     </g>
     <g id="text_20">
      <!-- 0.10 -->
      <g transform="translate(254.591875 242.46825)scale(0.1 -0.1)">
       <defs>
        <path id="DejaVuSans-31" d="M 794 531 
L 1825 531 
L 1825 4091 
L 703 3866 
L 703 4441 
L 1819 4666 
L 2450 4666 
L 2450 531 
L 3481 531 
L 3481 0 
L 794 0 
L 794 531 
z
" transform="scale(0.015625)"/>
       </defs>
       <use xlink:href="#DejaVuSans-30"/>
       <use xlink:href="#DejaVuSans-2e" x="63.623047"/>
       <use xlink:href="#DejaVuSans-31" x="95.410156"/>
       <use xlink:href="#DejaVuSans-30" x="159.033203"/>
      </g>
     </g>
    </g>
    <g id="ytick_17">
     <g id="line2d_17">
      <g>
       <use xlink:href="#mc9a0d4bbae" x="283.8575" y="212.378707" style="stroke: #000000; stroke-width: 0.8"/>
      </g>
     </g>
     <g id="text_21">
      <!-- 0.15 -->
      <g transform="translate(254.591875 216.177925)scale(0.1 -0.1)">
       <use xlink:href="#DejaVuSans-30"/>
       <use xlink:href="#DejaVuSans-2e" x="63.623047"/>
       <use xlink:href="#DejaVuSans-31" x="95.410156"/>
       <use xlink:href="#DejaVuSans-35" x="159.033203"/>
      </g>
     </g>
    </g>
    <g id="ytick_18">
     <g id="line2d_18">
      <g>
       <use xlink:href="#mc9a0d4bbae" x="283.8575" y="186.088382" style="stroke: #000000; stroke-width: 0.8"/>
      </g>
     </g>
     <g id="text_22">
      <!-- 0.20 -->
      <g transform="translate(254.591875 189.887601)scale(0.1 -0.1)">
       <defs>
        <path id="DejaVuSans-32" d="M 1228 531 
L 3431 531 
L 3431 0 
L 469 0 
L 469 531 
Q 828 903 1448 1529 
Q 2069 2156 2228 2338 
Q 2531 2678 2651 2914 
Q 2772 3150 2772 3378 
Q 2772 3750 2511 3984 
Q 2250 4219 1831 4219 
Q 1534 4219 1204 4116 
Q 875 4013 500 3803 
L 500 4441 
Q 881 4594 1212 4672 
Q 1544 4750 1819 4750 
Q 2544 4750 2975 4387 
Q 3406 4025 3406 3419 
Q 3406 3131 3298 2873 
Q 3191 2616 2906 2266 
Q 2828 2175 2409 1742 
Q 1991 1309 1228 531 
z
" transform="scale(0.015625)"/>
       </defs>
       <use xlink:href="#DejaVuSans-30"/>
       <use xlink:href="#DejaVuSans-2e" x="63.623047"/>
       <use xlink:href="#DejaVuSans-32" x="95.410156"/>
       <use xlink:href="#DejaVuSans-30" x="159.033203"/>
      </g>
     </g>
    </g>
    <g id="ytick_19">
     <g id="line2d_19">
      <g>
       <use xlink:href="#mc9a0d4bbae" x="283.8575" y="159.798057" style="stroke: #000000; stroke-width: 0.8"/>
      </g>
     </g>
     <g id="text_23">
      <!-- 0.25 -->
      <g transform="translate(254.591875 163.597276)scale(0.1 -0.1)">
       <use xlink:href="#DejaVuSans-30"/>
       <use xlink:href="#DejaVuSans-2e" x="63.623047"/>
       <use xlink:href="#DejaVuSans-32" x="95.410156"/>
       <use xlink:href="#DejaVuSans-35" x="159.033203"/>
      </g>
     </g>
    </g>
    <g id="ytick_20">
     <g id="line2d_20">
      <g>
       <use xlink:href="#mc9a0d4bbae" x="283.8575" y="133.507732" style="stroke: #000000; stroke-width: 0.8"/>
      </g>
     </g>
     <g id="text_24">
      <!-- 0.30 -->
      <g transform="translate(254.591875 137.306951)scale(0.1 -0.1)">
       <use xlink:href="#DejaVuSans-30"/>
       <use xlink:href="#DejaVuSans-2e" x="63.623047"/>
       <use xlink:href="#DejaVuSans-33" x="95.410156"/>
       <use xlink:href="#DejaVuSans-30" x="159.033203"/>
      </g>
     </g>
    </g>
    <g id="ytick_21">
     <g id="line2d_21">
      <g>
       <use xlink:href="#mc9a0d4bbae" x="283.8575" y="107.217407" style="stroke: #000000; stroke-width: 0.8"/>
      </g>
     </g>
     <g id="text_25">
      <!-- 0.35 -->
      <g transform="translate(254.591875 111.016626)scale(0.1 -0.1)">
       <use xlink:href="#DejaVuSans-30"/>
       <use xlink:href="#DejaVuSans-2e" x="63.623047"/>
       <use xlink:href="#DejaVuSans-33" x="95.410156"/>
       <use xlink:href="#DejaVuSans-35" x="159.033203"/>
      </g>
     </g>
    </g>
    <g id="ytick_22">
     <g id="line2d_22">
      <g>
       <use xlink:href="#mc9a0d4bbae" x="283.8575" y="80.927082" style="stroke: #000000; stroke-width: 0.8"/>
      </g>
     </g>
     <g id="text_26">
      <!-- 0.40 -->
      <g transform="translate(254.591875 84.726301)scale(0.1 -0.1)">
       <use xlink:href="#DejaVuSans-30"/>
       <use xlink:href="#DejaVuSans-2e" x="63.623047"/>
       <use xlink:href="#DejaVuSans-34" x="95.410156"/>
       <use xlink:href="#DejaVuSans-30" x="159.033203"/>
      </g>
     </g>
    </g>
    <g id="ytick_23">
     <g id="line2d_23">
      <g>
       <use xlink:href="#mc9a0d4bbae" x="283.8575" y="54.636757" style="stroke: #000000; stroke-width: 0.8"/>
      </g>
     </g>
     <g id="text_27">
      <!-- 0.45 -->
      <g transform="translate(254.591875 58.435976)scale(0.1 -0.1)">
       <use xlink:href="#DejaVuSans-30"/>
       <use xlink:href="#DejaVuSans-2e" x="63.623047"/>
       <use xlink:href="#DejaVuSans-34" x="95.410156"/>
       <use xlink:href="#DejaVuSans-35" x="159.033203"/>
      </g>
     </g>
    </g>
    <g id="text_28">
     <!-- MSE [$\AA$] -->
     <g transform="translate(248.512187 179.97)rotate(-90)scale(0.1 -0.1)">
      <use xlink:href="#DejaVuSans-4d" transform="translate(0 0.171875)"/>
      <use xlink:href="#DejaVuSans-53" transform="translate(86.279297 0.171875)"/>
      <use xlink:href="#DejaVuSans-45" transform="translate(149.755859 0.171875)"/>
      <use xlink:href="#DejaVuSans-20" transform="translate(212.939453 0.171875)"/>
      <use xlink:href="#DejaVuSans-5b" transform="translate(244.726562 0.171875)"/>
      <use xlink:href="#DejaVuSans-Oblique-c5" transform="translate(283.740234 0.171875)"/>
      <use xlink:href="#DejaVuSans-5d" transform="translate(352.148438 0.171875)"/>
     </g>
    </g>
   </g>
   <g id="LineCollection_9">
    <path d="M 298.794091 165.56244 
L 323.688409 165.56244 
" clip-path="url(#p0e9bf600b4)" style="fill: none; stroke: #1f77b4; stroke-width: 1.5"/>
   </g>
   <g id="LineCollection_10">
    <path d="M 298.794091 57.342727 
L 323.688409 57.342727 
" clip-path="url(#p0e9bf600b4)" style="fill: none; stroke: #1f77b4; stroke-width: 1.5"/>
   </g>
   <g id="LineCollection_11">
    <path d="M 298.794091 263.397273 
L 323.688409 263.397273 
" clip-path="url(#p0e9bf600b4)" style="fill: none; stroke: #1f77b4; stroke-width: 1.5"/>
   </g>
   <g id="LineCollection_12">
    <path d="M 311.24125 263.397273 
L 311.24125 57.342727 
" clip-path="url(#p0e9bf600b4)" style="fill: none; stroke: #1f77b4; stroke-width: 1.5"/>
   </g>
   <g id="patch_13">
    <path d="M 283.8575 273.7 
L 283.8575 47.04 
" style="fill: none; stroke: #000000; stroke-width: 0.8; stroke-linejoin: miter; stroke-linecap: square"/>
   </g>
   <g id="patch_14">
    <path d="M 338.625 273.7 
L 338.625 47.04 
" style="fill: none; stroke: #000000; stroke-width: 0.8; stroke-linejoin: miter; stroke-linecap: square"/>
   </g>
   <g id="patch_15">
    <path d="M 283.8575 273.7 
L 338.625 273.7 
" style="fill: none; stroke: #000000; stroke-width: 0.8; stroke-linejoin: miter; stroke-linecap: square"/>
   </g>
   <g id="patch_16">
    <path d="M 283.8575 47.04 
L 338.625 47.04 
" style="fill: none; stroke: #000000; stroke-width: 0.8; stroke-linejoin: miter; stroke-linecap: square"/>
   </g>
   <g id="text_29">
    <!-- MSE -->
    <g transform="translate(298.464062 41.04)scale(0.12 -0.12)">
     <use xlink:href="#DejaVuSans-4d"/>
     <use xlink:href="#DejaVuSans-53" x="86.279297"/>
     <use xlink:href="#DejaVuSans-45" x="149.755859"/>
    </g>
   </g>
  </g>
  <g id="axes_4">
   <g id="patch_17">
    <path d="M 397.145 273.7 
L 451.9125 273.7 
L 451.9125 47.04 
L 397.145 47.04 
z
" style="fill: #ffffff"/>
   </g>
   <g id="PolyCollection_4">
    <path d="M 424.9292 263.397273 
L 424.1283 263.397273 
L 424.072271 261.315914 
L 424.011741 259.234555 
L 423.945214 257.153196 
L 423.870929 255.071837 
L 423.787049 252.990478 
L 423.691899 250.909118 
L 423.584249 248.827759 
L 423.463641 246.7464 
L 423.33069 244.665041 
L 423.187269 242.583682 
L 423.036447 240.502323 
L 422.882089 238.420964 
L 422.728098 236.339605 
L 422.577424 234.258246 
L 422.431047 232.176887 
L 422.287188 230.095528 
L 422.140947 228.014169 
L 421.984464 225.93281 
L 421.807569 223.851451 
L 421.598791 221.770092 
L 421.34659 219.688733 
L 421.04067 217.607374 
L 420.673253 215.526015 
L 420.240127 213.444656 
L 419.741249 211.363297 
L 419.180639 209.281938 
L 418.565436 207.200579 
L 417.904178 205.119219 
L 417.204724 203.03786 
L 416.472408 200.956501 
L 415.709024 198.875142 
L 414.912929 196.793783 
L 414.080133 194.712424 
L 413.205841 192.631065 
L 412.285845 190.549706 
L 411.317439 188.468347 
L 410.299986 186.386988 
L 409.235656 184.305629 
L 408.130761 182.22427 
L 406.997674 180.142911 
L 405.856565 178.061552 
L 404.735762 175.980193 
L 403.669718 173.898834 
L 402.694417 171.817475 
L 401.841262 169.736116 
L 401.131424 167.654757 
L 400.572658 165.573398 
L 400.159734 163.492039 
L 399.8781 161.41068 
L 399.709085 159.32932 
L 399.634432 157.247961 
L 399.63855 155.166602 
L 399.708199 153.085243 
L 399.830641 151.003884 
L 399.991914 148.922525 
L 400.176521 146.841166 
L 400.368792 144.759807 
L 400.55514 142.678448 
L 400.725996 140.597089 
L 400.876574 138.51573 
L 401.006496 136.434371 
L 401.11899 134.353012 
L 401.220542 132.271653 
L 401.321287 130.190294 
L 401.435623 128.108935 
L 401.582045 126.027576 
L 401.78141 123.946217 
L 402.053717 121.864858 
L 402.414443 119.783499 
L 402.871983 117.70214 
L 403.427337 115.620781 
L 404.076125 113.539421 
L 404.811859 111.458062 
L 405.628739 109.376703 
L 406.522558 107.295344 
L 407.489307 105.213985 
L 408.522318 103.132626 
L 409.609535 101.051267 
L 410.732417 98.969908 
L 411.867187 96.888549 
L 412.988002 94.80719 
L 414.070835 92.725831 
L 415.096676 90.644472 
L 416.053136 88.563113 
L 416.934314 86.481754 
L 417.739451 84.400395 
L 418.471209 82.319036 
L 419.1342 80.237677 
L 419.734061 78.156318 
L 420.276943 76.074959 
L 420.769146 73.9936 
L 421.216698 71.912241 
L 421.624865 69.830882 
L 421.997734 67.749522 
L 422.338061 65.668163 
L 422.647468 63.586804 
L 422.926897 61.505445 
L 423.17715 59.424086 
L 423.399296 57.342727 
L 425.658204 57.342727 
L 425.658204 57.342727 
L 425.88035 59.424086 
L 426.130603 61.505445 
L 426.410032 63.586804 
L 426.719439 65.668163 
L 427.059766 67.749522 
L 427.432635 69.830882 
L 427.840802 71.912241 
L 428.288354 73.9936 
L 428.780557 76.074959 
L 429.323439 78.156318 
L 429.9233 80.237677 
L 430.586291 82.319036 
L 431.318049 84.400395 
L 432.123186 86.481754 
L 433.004364 88.563113 
L 433.960824 90.644472 
L 434.986665 92.725831 
L 436.069498 94.80719 
L 437.190313 96.888549 
L 438.325083 98.969908 
L 439.447965 101.051267 
L 440.535182 103.132626 
L 441.568193 105.213985 
L 442.534942 107.295344 
L 443.428761 109.376703 
L 444.245641 111.458062 
L 444.981375 113.539421 
L 445.630163 115.620781 
L 446.185517 117.70214 
L 446.643057 119.783499 
L 447.003783 121.864858 
L 447.27609 123.946217 
L 447.475455 126.027576 
L 447.621877 128.108935 
L 447.736213 130.190294 
L 447.836958 132.271653 
L 447.93851 134.353012 
L 448.051004 136.434371 
L 448.180926 138.51573 
L 448.331504 140.597089 
L 448.50236 142.678448 
L 448.688708 144.759807 
L 448.880979 146.841166 
L 449.065586 148.922525 
L 449.226859 151.003884 
L 449.349301 153.085243 
L 449.41895 155.166602 
L 449.423068 157.247961 
L 449.348415 159.32932 
L 449.1794 161.41068 
L 448.897766 163.492039 
L 448.484842 165.573398 
L 447.926076 167.654757 
L 447.216238 169.736116 
L 446.363083 171.817475 
L 445.387782 173.898834 
L 444.321738 175.980193 
L 443.200935 178.061552 
L 442.059826 180.142911 
L 440.926739 182.22427 
L 439.821844 184.305629 
L 438.757514 186.386988 
L 437.740061 188.468347 
L 436.771655 190.549706 
L 435.851659 192.631065 
L 434.977367 194.712424 
L 434.144571 196.793783 
L 433.348476 198.875142 
L 432.585092 200.956501 
L 431.852776 203.03786 
L 431.153322 205.119219 
L 430.492064 207.200579 
L 429.876861 209.281938 
L 429.316251 211.363297 
L 428.817373 213.444656 
L 428.384247 215.526015 
L 428.01683 217.607374 
L 427.71091 219.688733 
L 427.458709 221.770092 
L 427.249931 223.851451 
L 427.073036 225.93281 
L 426.916553 228.014169 
L 426.770312 230.095528 
L 426.626453 232.176887 
L 426.480076 234.258246 
L 426.329402 236.339605 
L 426.175411 238.420964 
L 426.021053 240.502323 
L 425.870231 242.583682 
L 425.72681 244.665041 
L 425.593859 246.7464 
L 425.473251 248.827759 
L 425.365601 250.909118 
L 425.270451 252.990478 
L 425.186571 255.071837 
L 425.112286 257.153196 
L 425.045759 259.234555 
L 424.985229 261.315914 
L 424.9292 263.397273 
z
" clip-path="url(#p49590facdb)" style="fill: #1f77b4; fill-opacity: 0.3"/>
   </g>
   <g id="matplotlib.axis_4">
    <g id="ytick_24">
     <g id="line2d_24">
      <g>
       <use xlink:href="#mc9a0d4bbae" x="397.145" y="264.982308" style="stroke: #000000; stroke-width: 0.8"/>
      </g>
     </g>
     <g id="text_30">
      <!-- 0.35 -->
      <g transform="translate(367.879375 268.781526)scale(0.1 -0.1)">
       <use xlink:href="#DejaVuSans-30"/>
       <use xlink:href="#DejaVuSans-2e" x="63.623047"/>
       <use xlink:href="#DejaVuSans-33" x="95.410156"/>
       <use xlink:href="#DejaVuSans-35" x="159.033203"/>
      </g>
     </g>
    </g>
    <g id="ytick_25">
     <g id="line2d_25">
      <g>
       <use xlink:href="#mc9a0d4bbae" x="397.145" y="238.036713" style="stroke: #000000; stroke-width: 0.8"/>
      </g>
     </g>
     <g id="text_31">
      <!-- 0.40 -->
      <g transform="translate(367.879375 241.835932)scale(0.1 -0.1)">
       <use xlink:href="#DejaVuSans-30"/>
       <use xlink:href="#DejaVuSans-2e" x="63.623047"/>
       <use xlink:href="#DejaVuSans-34" x="95.410156"/>
       <use xlink:href="#DejaVuSans-30" x="159.033203"/>
      </g>
     </g>
    </g>
    <g id="ytick_26">
     <g id="line2d_26">
      <g>
       <use xlink:href="#mc9a0d4bbae" x="397.145" y="211.091119" style="stroke: #000000; stroke-width: 0.8"/>
      </g>
     </g>
     <g id="text_32">
      <!-- 0.45 -->
      <g transform="translate(367.879375 214.890338)scale(0.1 -0.1)">
       <use xlink:href="#DejaVuSans-30"/>
       <use xlink:href="#DejaVuSans-2e" x="63.623047"/>
       <use xlink:href="#DejaVuSans-34" x="95.410156"/>
       <use xlink:href="#DejaVuSans-35" x="159.033203"/>
      </g>
     </g>
    </g>
    <g id="ytick_27">
     <g id="line2d_27">
      <g>
       <use xlink:href="#mc9a0d4bbae" x="397.145" y="184.145524" style="stroke: #000000; stroke-width: 0.8"/>
      </g>
     </g>
     <g id="text_33">
      <!-- 0.50 -->
      <g transform="translate(367.879375 187.944743)scale(0.1 -0.1)">
       <use xlink:href="#DejaVuSans-30"/>
       <use xlink:href="#DejaVuSans-2e" x="63.623047"/>
       <use xlink:href="#DejaVuSans-35" x="95.410156"/>
       <use xlink:href="#DejaVuSans-30" x="159.033203"/>
      </g>
     </g>
    </g>
    <g id="ytick_28">
     <g id="line2d_28">
      <g>
       <use xlink:href="#mc9a0d4bbae" x="397.145" y="157.19993" style="stroke: #000000; stroke-width: 0.8"/>
      </g>
     </g>
     <g id="text_34">
      <!-- 0.55 -->
      <g transform="translate(367.879375 160.999149)scale(0.1 -0.1)">
       <use xlink:href="#DejaVuSans-30"/>
       <use xlink:href="#DejaVuSans-2e" x="63.623047"/>
       <use xlink:href="#DejaVuSans-35" x="95.410156"/>
       <use xlink:href="#DejaVuSans-35" x="159.033203"/>
      </g>
     </g>
    </g>
    <g id="ytick_29">
     <g id="line2d_29">
      <g>
       <use xlink:href="#mc9a0d4bbae" x="397.145" y="130.254336" style="stroke: #000000; stroke-width: 0.8"/>
      </g>
     </g>
     <g id="text_35">
      <!-- 0.60 -->
      <g transform="translate(367.879375 134.053554)scale(0.1 -0.1)">
       <use xlink:href="#DejaVuSans-30"/>
       <use xlink:href="#DejaVuSans-2e" x="63.623047"/>
       <use xlink:href="#DejaVuSans-36" x="95.410156"/>
       <use xlink:href="#DejaVuSans-30" x="159.033203"/>
      </g>
     </g>
    </g>
    <g id="ytick_30">
     <g id="line2d_30">
      <g>
       <use xlink:href="#mc9a0d4bbae" x="397.145" y="103.308741" style="stroke: #000000; stroke-width: 0.8"/>
      </g>
     </g>
     <g id="text_36">
      <!-- 0.65 -->
      <g transform="translate(367.879375 107.10796)scale(0.1 -0.1)">
       <use xlink:href="#DejaVuSans-30"/>
       <use xlink:href="#DejaVuSans-2e" x="63.623047"/>
       <use xlink:href="#DejaVuSans-36" x="95.410156"/>
       <use xlink:href="#DejaVuSans-35" x="159.033203"/>
      </g>
     </g>
    </g>
    <g id="ytick_31">
     <g id="line2d_31">
      <g>
       <use xlink:href="#mc9a0d4bbae" x="397.145" y="76.363147" style="stroke: #000000; stroke-width: 0.8"/>
      </g>
     </g>
     <g id="text_37">
      <!-- 0.70 -->
      <g transform="translate(367.879375 80.162366)scale(0.1 -0.1)">
       <use xlink:href="#DejaVuSans-30"/>
       <use xlink:href="#DejaVuSans-2e" x="63.623047"/>
       <use xlink:href="#DejaVuSans-37" x="95.410156"/>
       <use xlink:href="#DejaVuSans-30" x="159.033203"/>
      </g>
     </g>
    </g>
    <g id="ytick_32">
     <g id="line2d_32">
      <g>
       <use xlink:href="#mc9a0d4bbae" x="397.145" y="49.417552" style="stroke: #000000; stroke-width: 0.8"/>
      </g>
     </g>
     <g id="text_38">
      <!-- 0.75 -->
      <g transform="translate(367.879375 53.216771)scale(0.1 -0.1)">
       <use xlink:href="#DejaVuSans-30"/>
       <use xlink:href="#DejaVuSans-2e" x="63.623047"/>
       <use xlink:href="#DejaVuSans-37" x="95.410156"/>
       <use xlink:href="#DejaVuSans-35" x="159.033203"/>
      </g>
     </g>
    </g>
    <g id="text_39">
     <!-- % NOE fulfilled [1/100 %] -->
     <g transform="translate(361.799687 223.870781)rotate(-90)scale(0.1 -0.1)">
      <defs>
       <path id="DejaVuSans-25" d="M 4653 2053 
Q 4381 2053 4226 1822 
Q 4072 1591 4072 1178 
Q 4072 772 4226 539 
Q 4381 306 4653 306 
Q 4919 306 5073 539 
Q 5228 772 5228 1178 
Q 5228 1588 5073 1820 
Q 4919 2053 4653 2053 
z
M 4653 2450 
Q 5147 2450 5437 2106 
Q 5728 1763 5728 1178 
Q 5728 594 5436 251 
Q 5144 -91 4653 -91 
Q 4153 -91 3862 251 
Q 3572 594 3572 1178 
Q 3572 1766 3864 2108 
Q 4156 2450 4653 2450 
z
M 1428 4353 
Q 1159 4353 1004 4120 
Q 850 3888 850 3481 
Q 850 3069 1003 2837 
Q 1156 2606 1428 2606 
Q 1700 2606 1854 2837 
Q 2009 3069 2009 3481 
Q 2009 3884 1853 4118 
Q 1697 4353 1428 4353 
z
M 4250 4750 
L 4750 4750 
L 1831 -91 
L 1331 -91 
L 4250 4750 
z
M 1428 4750 
Q 1922 4750 2215 4408 
Q 2509 4066 2509 3481 
Q 2509 2891 2217 2550 
Q 1925 2209 1428 2209 
Q 931 2209 642 2551 
Q 353 2894 353 3481 
Q 353 4063 643 4406 
Q 934 4750 1428 4750 
z
" transform="scale(0.015625)"/>
       <path id="DejaVuSans-4e" d="M 628 4666 
L 1478 4666 
L 3547 763 
L 3547 4666 
L 4159 4666 
L 4159 0 
L 3309 0 
L 1241 3903 
L 1241 0 
L 628 0 
L 628 4666 
z
" transform="scale(0.015625)"/>
       <path id="DejaVuSans-4f" d="M 2522 4238 
Q 1834 4238 1429 3725 
Q 1025 3213 1025 2328 
Q 1025 1447 1429 934 
Q 1834 422 2522 422 
Q 3209 422 3611 934 
Q 4013 1447 4013 2328 
Q 4013 3213 3611 3725 
Q 3209 4238 2522 4238 
z
M 2522 4750 
Q 3503 4750 4090 4092 
Q 4678 3434 4678 2328 
Q 4678 1225 4090 567 
Q 3503 -91 2522 -91 
Q 1538 -91 948 565 
Q 359 1222 359 2328 
Q 359 3434 948 4092 
Q 1538 4750 2522 4750 
z
" transform="scale(0.015625)"/>
       <path id="DejaVuSans-66" d="M 2375 4863 
L 2375 4384 
L 1825 4384 
Q 1516 4384 1395 4259 
Q 1275 4134 1275 3809 
L 1275 3500 
L 2222 3500 
L 2222 3053 
L 1275 3053 
L 1275 0 
L 697 0 
L 697 3053 
L 147 3053 
L 147 3500 
L 697 3500 
L 697 3744 
Q 697 4328 969 4595 
Q 1241 4863 1831 4863 
L 2375 4863 
z
" transform="scale(0.015625)"/>
       <path id="DejaVuSans-75" d="M 544 1381 
L 544 3500 
L 1119 3500 
L 1119 1403 
Q 1119 906 1312 657 
Q 1506 409 1894 409 
Q 2359 409 2629 706 
Q 2900 1003 2900 1516 
L 2900 3500 
L 3475 3500 
L 3475 0 
L 2900 0 
L 2900 538 
Q 2691 219 2414 64 
Q 2138 -91 1772 -91 
Q 1169 -91 856 284 
Q 544 659 544 1381 
z
M 1991 3584 
L 1991 3584 
z
" transform="scale(0.015625)"/>
       <path id="DejaVuSans-6c" d="M 603 4863 
L 1178 4863 
L 1178 0 
L 603 0 
L 603 4863 
z
" transform="scale(0.015625)"/>
       <path id="DejaVuSans-69" d="M 603 3500 
L 1178 3500 
L 1178 0 
L 603 0 
L 603 3500 
z
M 603 4863 
L 1178 4863 
L 1178 4134 
L 603 4134 
L 603 4863 
z
" transform="scale(0.015625)"/>
       <path id="DejaVuSans-65" d="M 3597 1894 
L 3597 1613 
L 953 1613 
Q 991 1019 1311 708 
Q 1631 397 2203 397 
Q 2534 397 2845 478 
Q 3156 559 3463 722 
L 3463 178 
Q 3153 47 2828 -22 
Q 2503 -91 2169 -91 
Q 1331 -91 842 396 
Q 353 884 353 1716 
Q 353 2575 817 3079 
Q 1281 3584 2069 3584 
Q 2775 3584 3186 3129 
Q 3597 2675 3597 1894 
z
M 3022 2063 
Q 3016 2534 2758 2815 
Q 2500 3097 2075 3097 
Q 1594 3097 1305 2825 
Q 1016 2553 972 2059 
L 3022 2063 
z
" transform="scale(0.015625)"/>
       <path id="DejaVuSans-64" d="M 2906 2969 
L 2906 4863 
L 3481 4863 
L 3481 0 
L 2906 0 
L 2906 525 
Q 2725 213 2448 61 
Q 2172 -91 1784 -91 
Q 1150 -91 751 415 
Q 353 922 353 1747 
Q 353 2572 751 3078 
Q 1150 3584 1784 3584 
Q 2172 3584 2448 3432 
Q 2725 3281 2906 2969 
z
M 947 1747 
Q 947 1113 1208 752 
Q 1469 391 1925 391 
Q 2381 391 2643 752 
Q 2906 1113 2906 1747 
Q 2906 2381 2643 2742 
Q 2381 3103 1925 3103 
Q 1469 3103 1208 2742 
Q 947 2381 947 1747 
z
" transform="scale(0.015625)"/>
       <path id="DejaVuSans-2f" d="M 1625 4666 
L 2156 4666 
L 531 -594 
L 0 -594 
L 1625 4666 
z
" transform="scale(0.015625)"/>
      </defs>
      <use xlink:href="#DejaVuSans-25"/>
      <use xlink:href="#DejaVuSans-20" x="95.019531"/>
      <use xlink:href="#DejaVuSans-4e" x="126.806641"/>
      <use xlink:href="#DejaVuSans-4f" x="201.611328"/>
      <use xlink:href="#DejaVuSans-45" x="280.322266"/>
      <use xlink:href="#DejaVuSans-20" x="343.505859"/>
      <use xlink:href="#DejaVuSans-66" x="375.292969"/>
      <use xlink:href="#DejaVuSans-75" x="410.498047"/>
      <use xlink:href="#DejaVuSans-6c" x="473.876953"/>
      <use xlink:href="#DejaVuSans-66" x="501.660156"/>
      <use xlink:href="#DejaVuSans-69" x="536.865234"/>
      <use xlink:href="#DejaVuSans-6c" x="564.648438"/>
      <use xlink:href="#DejaVuSans-6c" x="592.431641"/>
      <use xlink:href="#DejaVuSans-65" x="620.214844"/>
      <use xlink:href="#DejaVuSans-64" x="681.738281"/>
      <use xlink:href="#DejaVuSans-20" x="745.214844"/>
      <use xlink:href="#DejaVuSans-5b" x="777.001953"/>
      <use xlink:href="#DejaVuSans-31" x="816.015625"/>
      <use xlink:href="#DejaVuSans-2f" x="879.638672"/>
      <use xlink:href="#DejaVuSans-31" x="913.330078"/>
      <use xlink:href="#DejaVuSans-30" x="976.953125"/>
      <use xlink:href="#DejaVuSans-30" x="1040.576172"/>
      <use xlink:href="#DejaVuSans-20" x="1104.199219"/>
      <use xlink:href="#DejaVuSans-25" x="1135.986328"/>
      <use xlink:href="#DejaVuSans-5d" x="1231.005859"/>
     </g>
    </g>
   </g>
   <g id="LineCollection_13">
    <path d="M 412.081591 145.827304 
L 436.975909 145.827304 
" clip-path="url(#p49590facdb)" style="fill: none; stroke: #1f77b4; stroke-width: 1.5"/>
   </g>
   <g id="LineCollection_14">
    <path d="M 412.081591 57.342727 
L 436.975909 57.342727 
" clip-path="url(#p49590facdb)" style="fill: none; stroke: #1f77b4; stroke-width: 1.5"/>
   </g>
   <g id="LineCollection_15">
    <path d="M 412.081591 263.397273 
L 436.975909 263.397273 
" clip-path="url(#p49590facdb)" style="fill: none; stroke: #1f77b4; stroke-width: 1.5"/>
   </g>
   <g id="LineCollection_16">
    <path d="M 424.52875 263.397273 
L 424.52875 57.342727 
" clip-path="url(#p49590facdb)" style="fill: none; stroke: #1f77b4; stroke-width: 1.5"/>
   </g>
   <g id="patch_18">
    <path d="M 397.145 273.7 
L 397.145 47.04 
" style="fill: none; stroke: #000000; stroke-width: 0.8; stroke-linejoin: miter; stroke-linecap: square"/>
   </g>
   <g id="patch_19">
    <path d="M 451.9125 273.7 
L 451.9125 47.04 
" style="fill: none; stroke: #000000; stroke-width: 0.8; stroke-linejoin: miter; stroke-linecap: square"/>
   </g>
   <g id="patch_20">
    <path d="M 397.145 273.7 
L 451.9125 273.7 
" style="fill: none; stroke: #000000; stroke-width: 0.8; stroke-linejoin: miter; stroke-linecap: square"/>
   </g>
   <g id="patch_21">
    <path d="M 397.145 47.04 
L 451.9125 47.04 
" style="fill: none; stroke: #000000; stroke-width: 0.8; stroke-linejoin: miter; stroke-linecap: square"/>
   </g>
   <g id="text_40">
    <!-- % NOE fulfilled -->
    <g transform="translate(379.815625 41.04)scale(0.12 -0.12)">
     <use xlink:href="#DejaVuSans-25"/>
     <use xlink:href="#DejaVuSans-20" x="95.019531"/>
     <use xlink:href="#DejaVuSans-4e" x="126.806641"/>
     <use xlink:href="#DejaVuSans-4f" x="201.611328"/>
     <use xlink:href="#DejaVuSans-45" x="280.322266"/>
     <use xlink:href="#DejaVuSans-20" x="343.505859"/>
     <use xlink:href="#DejaVuSans-66" x="375.292969"/>
     <use xlink:href="#DejaVuSans-75" x="410.498047"/>
     <use xlink:href="#DejaVuSans-6c" x="473.876953"/>
     <use xlink:href="#DejaVuSans-66" x="501.660156"/>
     <use xlink:href="#DejaVuSans-69" x="536.865234"/>
     <use xlink:href="#DejaVuSans-6c" x="564.648438"/>
     <use xlink:href="#DejaVuSans-6c" x="592.431641"/>
     <use xlink:href="#DejaVuSans-65" x="620.214844"/>
     <use xlink:href="#DejaVuSans-64" x="681.738281"/>
    </g>
   </g>
  </g>
  <g id="axes_5">
   <g id="patch_22">
    <path d="M 510.4325 273.7 
L 565.2 273.7 
L 565.2 47.04 
L 510.4325 47.04 
z
" style="fill: #ffffff"/>
   </g>
   <g id="PolyCollection_5">
    <path d="M 538.036114 263.397273 
L 537.596386 263.397273 
L 537.564874 261.315914 
L 537.516726 259.234555 
L 537.434635 257.153196 
L 537.301049 255.071837 
L 537.103929 252.990478 
L 536.841573 250.909118 
L 536.523924 248.827759 
L 536.168749 246.7464 
L 535.793536 244.665041 
L 535.406723 242.583682 
L 535.003333 240.502323 
L 534.568525 238.420964 
L 534.088119 236.339605 
L 533.560097 234.258246 
L 532.99898 232.176887 
L 532.428199 230.095528 
L 531.863107 228.014169 
L 531.294751 225.93281 
L 530.686359 223.851451 
L 529.988034 221.770092 
L 529.163442 219.688733 
L 528.213042 217.607374 
L 527.178878 215.526015 
L 526.126995 213.444656 
L 525.117587 211.363297 
L 524.179986 209.281938 
L 523.304632 207.200579 
L 522.452132 205.119219 
L 521.57047 203.03786 
L 520.611483 200.956501 
L 519.544032 198.875142 
L 518.365581 196.793783 
L 517.111687 194.712424 
L 515.857942 192.631065 
L 514.709 190.549706 
L 513.776746 188.468347 
L 513.157962 186.386988 
L 512.921932 184.305629 
L 513.109174 182.22427 
L 513.732575 180.142911 
L 514.77197 178.061552 
L 516.163316 175.980193 
L 517.794333 173.898834 
L 519.518958 171.817475 
L 521.191702 169.736116 
L 522.708633 167.654757 
L 524.0352 165.573398 
L 525.206794 163.492039 
L 526.301799 161.41068 
L 527.400401 159.32932 
L 528.548227 157.247961 
L 529.73976 155.166602 
L 530.925663 153.085243 
L 532.03697 151.003884 
L 533.013154 148.922525 
L 533.822117 146.841166 
L 534.466069 144.759807 
L 534.97422 142.678448 
L 535.388027 140.597089 
L 535.746175 138.51573 
L 536.074771 136.434371 
L 536.384753 134.353012 
L 536.675142 132.271653 
L 536.938887 130.190294 
L 537.168261 128.108935 
L 537.358198 126.027576 
L 537.507496 123.946217 
L 537.618582 121.864858 
L 537.696548 119.783499 
L 537.747963 117.70214 
L 537.779689 115.620781 
L 537.79794 113.539421 
L 537.807697 111.458062 
L 537.812532 109.376703 
L 537.814749 107.295344 
L 537.815688 105.213985 
L 537.816055 103.132626 
L 537.816187 101.051267 
L 537.816231 98.969908 
L 537.816245 96.888549 
L 537.816247 94.80719 
L 537.816245 92.725831 
L 537.816231 90.644472 
L 537.816186 88.563113 
L 537.81605 86.481754 
L 537.815673 84.400395 
L 537.814715 82.319036 
L 537.81248 80.237677 
L 537.80771 78.156318 
L 537.798401 76.074959 
L 537.781835 73.9936 
L 537.755029 71.912241 
L 537.715775 69.830882 
L 537.664114 67.749522 
L 537.60372 65.668163 
L 537.542329 63.586804 
L 537.490524 61.505445 
L 537.458894 59.424086 
L 537.454531 57.342727 
L 538.177969 57.342727 
L 538.177969 57.342727 
L 538.173606 59.424086 
L 538.141976 61.505445 
L 538.090171 63.586804 
L 538.02878 65.668163 
L 537.968386 67.749522 
L 537.916725 69.830882 
L 537.877471 71.912241 
L 537.850665 73.9936 
L 537.834099 76.074959 
L 537.82479 78.156318 
L 537.82002 80.237677 
L 537.817785 82.319036 
L 537.816827 84.400395 
L 537.81645 86.481754 
L 537.816314 88.563113 
L 537.816269 90.644472 
L 537.816255 92.725831 
L 537.816253 94.80719 
L 537.816255 96.888549 
L 537.816269 98.969908 
L 537.816313 101.051267 
L 537.816445 103.132626 
L 537.816812 105.213985 
L 537.817751 107.295344 
L 537.819968 109.376703 
L 537.824803 111.458062 
L 537.83456 113.539421 
L 537.852811 115.620781 
L 537.884537 117.70214 
L 537.935952 119.783499 
L 538.013918 121.864858 
L 538.125004 123.946217 
L 538.274302 126.027576 
L 538.464239 128.108935 
L 538.693613 130.190294 
L 538.957358 132.271653 
L 539.247747 134.353012 
L 539.557729 136.434371 
L 539.886325 138.51573 
L 540.244473 140.597089 
L 540.65828 142.678448 
L 541.166431 144.759807 
L 541.810383 146.841166 
L 542.619346 148.922525 
L 543.59553 151.003884 
L 544.706837 153.085243 
L 545.89274 155.166602 
L 547.084273 157.247961 
L 548.232099 159.32932 
L 549.330701 161.41068 
L 550.425706 163.492039 
L 551.5973 165.573398 
L 552.923867 167.654757 
L 554.440798 169.736116 
L 556.113542 171.817475 
L 557.838167 173.898834 
L 559.469184 175.980193 
L 560.86053 178.061552 
L 561.899925 180.142911 
L 562.523326 182.22427 
L 562.710568 184.305629 
L 562.474538 186.386988 
L 561.855754 188.468347 
L 560.9235 190.549706 
L 559.774558 192.631065 
L 558.520813 194.712424 
L 557.266919 196.793783 
L 556.088468 198.875142 
L 555.021017 200.956501 
L 554.06203 203.03786 
L 553.180368 205.119219 
L 552.327868 207.200579 
L 551.452514 209.281938 
L 550.514913 211.363297 
L 549.505505 213.444656 
L 548.453622 215.526015 
L 547.419458 217.607374 
L 546.469058 219.688733 
L 545.644466 221.770092 
L 544.946141 223.851451 
L 544.337749 225.93281 
L 543.769393 228.014169 
L 543.204301 230.095528 
L 542.63352 232.176887 
L 542.072403 234.258246 
L 541.544381 236.339605 
L 541.063975 238.420964 
L 540.629167 240.502323 
L 540.225777 242.583682 
L 539.838964 244.665041 
L 539.463751 246.7464 
L 539.108576 248.827759 
L 538.790927 250.909118 
L 538.528571 252.990478 
L 538.331451 255.071837 
L 538.197865 257.153196 
L 538.115774 259.234555 
L 538.067626 261.315914 
L 538.036114 263.397273 
z
" clip-path="url(#pac02792f24)" style="fill: #1f77b4; fill-opacity: 0.3"/>
   </g>
   <g id="matplotlib.axis_5">
    <g id="ytick_33">
     <g id="line2d_33">
      <g>
       <use xlink:href="#mc9a0d4bbae" x="510.4325" y="260.457402" style="stroke: #000000; stroke-width: 0.8"/>
      </g>
     </g>
     <g id="text_41">
      <!-- 0.10 -->
      <g transform="translate(481.166875 264.256621)scale(0.1 -0.1)">
       <use xlink:href="#DejaVuSans-30"/>
       <use xlink:href="#DejaVuSans-2e" x="63.623047"/>
       <use xlink:href="#DejaVuSans-31" x="95.410156"/>
       <use xlink:href="#DejaVuSans-30" x="159.033203"/>
      </g>
     </g>
    </g>
    <g id="ytick_34">
     <g id="line2d_34">
      <g>
       <use xlink:href="#mc9a0d4bbae" x="510.4325" y="232.653584" style="stroke: #000000; stroke-width: 0.8"/>
      </g>
     </g>
     <g id="text_42">
      <!-- 0.15 -->
      <g transform="translate(481.166875 236.452803)scale(0.1 -0.1)">
       <use xlink:href="#DejaVuSans-30"/>
       <use xlink:href="#DejaVuSans-2e" x="63.623047"/>
       <use xlink:href="#DejaVuSans-31" x="95.410156"/>
       <use xlink:href="#DejaVuSans-35" x="159.033203"/>
      </g>
     </g>
    </g>
    <g id="ytick_35">
     <g id="line2d_35">
      <g>
       <use xlink:href="#mc9a0d4bbae" x="510.4325" y="204.849766" style="stroke: #000000; stroke-width: 0.8"/>
      </g>
     </g>
     <g id="text_43">
      <!-- 0.20 -->
      <g transform="translate(481.166875 208.648985)scale(0.1 -0.1)">
       <use xlink:href="#DejaVuSans-30"/>
       <use xlink:href="#DejaVuSans-2e" x="63.623047"/>
       <use xlink:href="#DejaVuSans-32" x="95.410156"/>
       <use xlink:href="#DejaVuSans-30" x="159.033203"/>
      </g>
     </g>
    </g>
    <g id="ytick_36">
     <g id="line2d_36">
      <g>
       <use xlink:href="#mc9a0d4bbae" x="510.4325" y="177.045948" style="stroke: #000000; stroke-width: 0.8"/>
      </g>
     </g>
     <g id="text_44">
      <!-- 0.25 -->
      <g transform="translate(481.166875 180.845167)scale(0.1 -0.1)">
       <use xlink:href="#DejaVuSans-30"/>
       <use xlink:href="#DejaVuSans-2e" x="63.623047"/>
       <use xlink:href="#DejaVuSans-32" x="95.410156"/>
       <use xlink:href="#DejaVuSans-35" x="159.033203"/>
      </g>
     </g>
    </g>
    <g id="ytick_37">
     <g id="line2d_37">
      <g>
       <use xlink:href="#mc9a0d4bbae" x="510.4325" y="149.24213" style="stroke: #000000; stroke-width: 0.8"/>
      </g>
     </g>
     <g id="text_45">
      <!-- 0.30 -->
      <g transform="translate(481.166875 153.041349)scale(0.1 -0.1)">
       <use xlink:href="#DejaVuSans-30"/>
       <use xlink:href="#DejaVuSans-2e" x="63.623047"/>
       <use xlink:href="#DejaVuSans-33" x="95.410156"/>
       <use xlink:href="#DejaVuSans-30" x="159.033203"/>
      </g>
     </g>
    </g>
    <g id="ytick_38">
     <g id="line2d_38">
      <g>
       <use xlink:href="#mc9a0d4bbae" x="510.4325" y="121.438312" style="stroke: #000000; stroke-width: 0.8"/>
      </g>
     </g>
     <g id="text_46">
      <!-- 0.35 -->
      <g transform="translate(481.166875 125.237531)scale(0.1 -0.1)">
       <use xlink:href="#DejaVuSans-30"/>
       <use xlink:href="#DejaVuSans-2e" x="63.623047"/>
       <use xlink:href="#DejaVuSans-33" x="95.410156"/>
       <use xlink:href="#DejaVuSans-35" x="159.033203"/>
      </g>
     </g>
    </g>
    <g id="ytick_39">
     <g id="line2d_39">
      <g>
       <use xlink:href="#mc9a0d4bbae" x="510.4325" y="93.634494" style="stroke: #000000; stroke-width: 0.8"/>
      </g>
     </g>
     <g id="text_47">
      <!-- 0.40 -->
      <g transform="translate(481.166875 97.433713)scale(0.1 -0.1)">
       <use xlink:href="#DejaVuSans-30"/>
       <use xlink:href="#DejaVuSans-2e" x="63.623047"/>
       <use xlink:href="#DejaVuSans-34" x="95.410156"/>
       <use xlink:href="#DejaVuSans-30" x="159.033203"/>
      </g>
     </g>
    </g>
    <g id="ytick_40">
     <g id="line2d_40">
      <g>
       <use xlink:href="#mc9a0d4bbae" x="510.4325" y="65.830676" style="stroke: #000000; stroke-width: 0.8"/>
      </g>
     </g>
     <g id="text_48">
      <!-- 0.45 -->
      <g transform="translate(481.166875 69.629895)scale(0.1 -0.1)">
       <use xlink:href="#DejaVuSans-30"/>
       <use xlink:href="#DejaVuSans-2e" x="63.623047"/>
       <use xlink:href="#DejaVuSans-34" x="95.410156"/>
       <use xlink:href="#DejaVuSans-35" x="159.033203"/>
      </g>
     </g>
    </g>
    <g id="text_49">
     <!-- RMSD stepwise [$\AA$] -->
     <g transform="translate(475.066875 207.67)rotate(-90)scale(0.1 -0.1)">
      <defs>
       <path id="DejaVuSans-73" d="M 2834 3397 
L 2834 2853 
Q 2591 2978 2328 3040 
Q 2066 3103 1784 3103 
Q 1356 3103 1142 2972 
Q 928 2841 928 2578 
Q 928 2378 1081 2264 
Q 1234 2150 1697 2047 
L 1894 2003 
Q 2506 1872 2764 1633 
Q 3022 1394 3022 966 
Q 3022 478 2636 193 
Q 2250 -91 1575 -91 
Q 1294 -91 989 -36 
Q 684 19 347 128 
L 347 722 
Q 666 556 975 473 
Q 1284 391 1588 391 
Q 1994 391 2212 530 
Q 2431 669 2431 922 
Q 2431 1156 2273 1281 
Q 2116 1406 1581 1522 
L 1381 1569 
Q 847 1681 609 1914 
Q 372 2147 372 2553 
Q 372 3047 722 3315 
Q 1072 3584 1716 3584 
Q 2034 3584 2315 3537 
Q 2597 3491 2834 3397 
z
" transform="scale(0.015625)"/>
       <path id="DejaVuSans-74" d="M 1172 4494 
L 1172 3500 
L 2356 3500 
L 2356 3053 
L 1172 3053 
L 1172 1153 
Q 1172 725 1289 603 
Q 1406 481 1766 481 
L 2356 481 
L 2356 0 
L 1766 0 
Q 1100 0 847 248 
Q 594 497 594 1153 
L 594 3053 
L 172 3053 
L 172 3500 
L 594 3500 
L 594 4494 
L 1172 4494 
z
" transform="scale(0.015625)"/>
       <path id="DejaVuSans-70" d="M 1159 525 
L 1159 -1331 
L 581 -1331 
L 581 3500 
L 1159 3500 
L 1159 2969 
Q 1341 3281 1617 3432 
Q 1894 3584 2278 3584 
Q 2916 3584 3314 3078 
Q 3713 2572 3713 1747 
Q 3713 922 3314 415 
Q 2916 -91 2278 -91 
Q 1894 -91 1617 61 
Q 1341 213 1159 525 
z
M 3116 1747 
Q 3116 2381 2855 2742 
Q 2594 3103 2138 3103 
Q 1681 3103 1420 2742 
Q 1159 2381 1159 1747 
Q 1159 1113 1420 752 
Q 1681 391 2138 391 
Q 2594 391 2855 752 
Q 3116 1113 3116 1747 
z
" transform="scale(0.015625)"/>
       <path id="DejaVuSans-77" d="M 269 3500 
L 844 3500 
L 1563 769 
L 2278 3500 
L 2956 3500 
L 3675 769 
L 4391 3500 
L 4966 3500 
L 4050 0 
L 3372 0 
L 2619 2869 
L 1863 0 
L 1184 0 
L 269 3500 
z
" transform="scale(0.015625)"/>
      </defs>
      <use xlink:href="#DejaVuSans-52" transform="translate(0 0.171875)"/>
      <use xlink:href="#DejaVuSans-4d" transform="translate(69.482422 0.171875)"/>
      <use xlink:href="#DejaVuSans-53" transform="translate(155.761719 0.171875)"/>
      <use xlink:href="#DejaVuSans-44" transform="translate(219.238281 0.171875)"/>
      <use xlink:href="#DejaVuSans-20" transform="translate(296.240234 0.171875)"/>
      <use xlink:href="#DejaVuSans-73" transform="translate(328.027344 0.171875)"/>
      <use xlink:href="#DejaVuSans-74" transform="translate(380.126953 0.171875)"/>
      <use xlink:href="#DejaVuSans-65" transform="translate(419.335938 0.171875)"/>
      <use xlink:href="#DejaVuSans-70" transform="translate(480.859375 0.171875)"/>
      <use xlink:href="#DejaVuSans-77" transform="translate(544.335938 0.171875)"/>
      <use xlink:href="#DejaVuSans-69" transform="translate(626.123047 0.171875)"/>
      <use xlink:href="#DejaVuSans-73" transform="translate(653.90625 0.171875)"/>
      <use xlink:href="#DejaVuSans-65" transform="translate(706.005859 0.171875)"/>
      <use xlink:href="#DejaVuSans-20" transform="translate(767.529297 0.171875)"/>
      <use xlink:href="#DejaVuSans-5b" transform="translate(799.316406 0.171875)"/>
      <use xlink:href="#DejaVuSans-Oblique-c5" transform="translate(838.330078 0.171875)"/>
      <use xlink:href="#DejaVuSans-5d" transform="translate(906.738281 0.171875)"/>
     </g>
    </g>
   </g>
   <g id="LineCollection_17">
    <path d="M 525.369091 188.36818 
L 550.263409 188.36818 
" clip-path="url(#pac02792f24)" style="fill: none; stroke: #1f77b4; stroke-width: 1.5"/>
   </g>
   <g id="LineCollection_18">
    <path d="M 525.369091 57.342727 
L 550.263409 57.342727 
" clip-path="url(#pac02792f24)" style="fill: none; stroke: #1f77b4; stroke-width: 1.5"/>
   </g>
   <g id="LineCollection_19">
    <path d="M 525.369091 263.397273 
L 550.263409 263.397273 
" clip-path="url(#pac02792f24)" style="fill: none; stroke: #1f77b4; stroke-width: 1.5"/>
   </g>
   <g id="LineCollection_20">
    <path d="M 537.81625 263.397273 
L 537.81625 57.342727 
" clip-path="url(#pac02792f24)" style="fill: none; stroke: #1f77b4; stroke-width: 1.5"/>
   </g>
   <g id="patch_23">
    <path d="M 510.4325 273.7 
L 510.4325 47.04 
" style="fill: none; stroke: #000000; stroke-width: 0.8; stroke-linejoin: miter; stroke-linecap: square"/>
   </g>
   <g id="patch_24">
    <path d="M 565.2 273.7 
L 565.2 47.04 
" style="fill: none; stroke: #000000; stroke-width: 0.8; stroke-linejoin: miter; stroke-linecap: square"/>
   </g>
   <g id="patch_25">
    <path d="M 510.4325 273.7 
L 565.2 273.7 
" style="fill: none; stroke: #000000; stroke-width: 0.8; stroke-linejoin: miter; stroke-linecap: square"/>
   </g>
   <g id="patch_26">
    <path d="M 510.4325 47.04 
L 565.2 47.04 
" style="fill: none; stroke: #000000; stroke-width: 0.8; stroke-linejoin: miter; stroke-linecap: square"/>
   </g>
   <g id="text_50">
    <!-- RMSD stepwise -->
    <g transform="translate(491.764375 41.04)scale(0.12 -0.12)">
     <use xlink:href="#DejaVuSans-52"/>
     <use xlink:href="#DejaVuSans-4d" x="69.482422"/>
     <use xlink:href="#DejaVuSans-53" x="155.761719"/>
     <use xlink:href="#DejaVuSans-44" x="219.238281"/>
     <use xlink:href="#DejaVuSans-20" x="296.240234"/>
     <use xlink:href="#DejaVuSans-73" x="328.027344"/>
     <use xlink:href="#DejaVuSans-74" x="380.126953"/>
     <use xlink:href="#DejaVuSans-65" x="419.335938"/>
     <use xlink:href="#DejaVuSans-70" x="480.859375"/>
     <use xlink:href="#DejaVuSans-77" x="544.335938"/>
     <use xlink:href="#DejaVuSans-69" x="626.123047"/>
     <use xlink:href="#DejaVuSans-73" x="653.90625"/>
     <use xlink:href="#DejaVuSans-65" x="706.005859"/>
    </g>
   </g>
  </g>
  <g id="text_51">
   <!-- Compound 55. Rdkit -->
   <g transform="translate(226.573125 14.878125)scale(0.12 -0.12)">
    <defs>
     <path id="DejaVuSans-43" d="M 4122 4306 
L 4122 3641 
Q 3803 3938 3442 4084 
Q 3081 4231 2675 4231 
Q 1875 4231 1450 3742 
Q 1025 3253 1025 2328 
Q 1025 1406 1450 917 
Q 1875 428 2675 428 
Q 3081 428 3442 575 
Q 3803 722 4122 1019 
L 4122 359 
Q 3791 134 3420 21 
Q 3050 -91 2638 -91 
Q 1578 -91 968 557 
Q 359 1206 359 2328 
Q 359 3453 968 4101 
Q 1578 4750 2638 4750 
Q 3056 4750 3426 4639 
Q 3797 4528 4122 4306 
z
" transform="scale(0.015625)"/>
     <path id="DejaVuSans-6f" d="M 1959 3097 
Q 1497 3097 1228 2736 
Q 959 2375 959 1747 
Q 959 1119 1226 758 
Q 1494 397 1959 397 
Q 2419 397 2687 759 
Q 2956 1122 2956 1747 
Q 2956 2369 2687 2733 
Q 2419 3097 1959 3097 
z
M 1959 3584 
Q 2709 3584 3137 3096 
Q 3566 2609 3566 1747 
Q 3566 888 3137 398 
Q 2709 -91 1959 -91 
Q 1206 -91 779 398 
Q 353 888 353 1747 
Q 353 2609 779 3096 
Q 1206 3584 1959 3584 
z
" transform="scale(0.015625)"/>
     <path id="DejaVuSans-6d" d="M 3328 2828 
Q 3544 3216 3844 3400 
Q 4144 3584 4550 3584 
Q 5097 3584 5394 3201 
Q 5691 2819 5691 2113 
L 5691 0 
L 5113 0 
L 5113 2094 
Q 5113 2597 4934 2840 
Q 4756 3084 4391 3084 
Q 3944 3084 3684 2787 
Q 3425 2491 3425 1978 
L 3425 0 
L 2847 0 
L 2847 2094 
Q 2847 2600 2669 2842 
Q 2491 3084 2119 3084 
Q 1678 3084 1418 2786 
Q 1159 2488 1159 1978 
L 1159 0 
L 581 0 
L 581 3500 
L 1159 3500 
L 1159 2956 
Q 1356 3278 1631 3431 
Q 1906 3584 2284 3584 
Q 2666 3584 2933 3390 
Q 3200 3197 3328 2828 
z
" transform="scale(0.015625)"/>
     <path id="DejaVuSans-6e" d="M 3513 2113 
L 3513 0 
L 2938 0 
L 2938 2094 
Q 2938 2591 2744 2837 
Q 2550 3084 2163 3084 
Q 1697 3084 1428 2787 
Q 1159 2491 1159 1978 
L 1159 0 
L 581 0 
L 581 3500 
L 1159 3500 
L 1159 2956 
Q 1366 3272 1645 3428 
Q 1925 3584 2291 3584 
Q 2894 3584 3203 3211 
Q 3513 2838 3513 2113 
z
" transform="scale(0.015625)"/>
     <path id="DejaVuSans-6b" d="M 581 4863 
L 1159 4863 
L 1159 1991 
L 2875 3500 
L 3609 3500 
L 1753 1863 
L 3688 0 
L 2938 0 
L 1159 1709 
L 1159 0 
L 581 0 
L 581 4863 
z
" transform="scale(0.015625)"/>
    </defs>
    <use xlink:href="#DejaVuSans-43"/>
    <use xlink:href="#DejaVuSans-6f" x="69.824219"/>
    <use xlink:href="#DejaVuSans-6d" x="131.005859"/>
    <use xlink:href="#DejaVuSans-70" x="228.417969"/>
    <use xlink:href="#DejaVuSans-6f" x="291.894531"/>
    <use xlink:href="#DejaVuSans-75" x="353.076172"/>
    <use xlink:href="#DejaVuSans-6e" x="416.455078"/>
    <use xlink:href="#DejaVuSans-64" x="479.833984"/>
    <use xlink:href="#DejaVuSans-20" x="543.310547"/>
    <use xlink:href="#DejaVuSans-35" x="575.097656"/>
    <use xlink:href="#DejaVuSans-35" x="638.720703"/>
    <use xlink:href="#DejaVuSans-2e" x="702.34375"/>
    <use xlink:href="#DejaVuSans-20" x="734.130859"/>
    <use xlink:href="#DejaVuSans-52" x="765.917969"/>
    <use xlink:href="#DejaVuSans-64" x="835.400391"/>
    <use xlink:href="#DejaVuSans-6b" x="898.876953"/>
    <use xlink:href="#DejaVuSans-69" x="956.787109"/>
    <use xlink:href="#DejaVuSans-74" x="984.570312"/>
   </g>
  </g>
 </g>
 <defs>
  <clipPath id="p95d9c94267">
   <rect x="57.2825" y="47.04" width="54.7675" height="226.66"/>
  </clipPath>
  <clipPath id="p1a491142c9">
   <rect x="170.57" y="47.04" width="54.7675" height="226.66"/>
  </clipPath>
  <clipPath id="p0e9bf600b4">
   <rect x="283.8575" y="47.04" width="54.7675" height="226.66"/>
  </clipPath>
  <clipPath id="p49590facdb">
   <rect x="397.145" y="47.04" width="54.7675" height="226.66"/>
  </clipPath>
  <clipPath id="pac02792f24">
   <rect x="510.4325" y="47.04" width="54.7675" height="226.66"/>
  </clipPath>
 </defs>
</svg>
