<?xml version="1.0" encoding="utf-8" standalone="no"?>
<!DOCTYPE svg PUBLIC "-//W3C//DTD SVG 1.1//EN"
  "http://www.w3.org/Graphics/SVG/1.1/DTD/svg11.dtd">
<svg xmlns:xlink="http://www.w3.org/1999/xlink" width="576pt" height="288pt" viewBox="0 0 576 288" xmlns="http://www.w3.org/2000/svg" version="1.1">
 <metadata>
  <rdf:RDF xmlns:dc="http://purl.org/dc/elements/1.1/" xmlns:cc="http://creativecommons.org/ns#" xmlns:rdf="http://www.w3.org/1999/02/22-rdf-syntax-ns#">
   <cc:Work>
    <dc:type rdf:resource="http://purl.org/dc/dcmitype/StillImage"/>
    <dc:date>2023-05-31T12:16:52.217793</dc:date>
    <dc:format>image/svg+xml</dc:format>
    <dc:creator>
     <cc:Agent>
      <dc:title>Matplotlib v3.5.3, https://matplotlib.org/</dc:title>
     </cc:Agent>
    </dc:creator>
   </cc:Work>
  </rdf:RDF>
 </metadata>
 <defs>
  <style type="text/css">*{stroke-linejoin: round; stroke-linecap: butt}</style>
 </defs>
 <g id="figure_1">
  <g id="patch_1">
   <path d="M 0 288 
L 576 288 
L 576 0 
L 0 0 
z
" style="fill: #ffffff"/>
  </g>
  <g id="axes_1">
   <g id="patch_2">
    <path d="M 57.2825 273.7 
L 106.938 273.7 
L 106.938 47.04 
L 57.2825 47.04 
z
" style="fill: #ffffff"/>
   </g>
   <g id="PolyCollection_1">
    <path d="M 83.945353 263.397273 
L 80.275147 263.397273 
L 79.954851 261.315914 
L 79.616552 259.234555 
L 79.264258 257.153196 
L 78.902114 255.071837 
L 78.534338 252.990478 
L 78.165093 250.909118 
L 77.798252 248.827759 
L 77.437024 246.7464 
L 77.083515 244.665041 
L 76.738337 242.583682 
L 76.400385 240.502323 
L 76.066873 238.420964 
L 75.733675 236.339605 
L 75.395891 234.258246 
L 75.048513 232.176887 
L 74.687044 230.095528 
L 74.307918 228.014169 
L 73.908647 225.93281 
L 73.4877 223.851451 
L 73.044208 221.770092 
L 72.577636 219.688733 
L 72.08759 217.607374 
L 71.573877 215.526015 
L 71.036846 213.444656 
L 70.477915 211.363297 
L 69.900099 209.281938 
L 69.308246 207.200579 
L 68.708762 205.119219 
L 68.108686 203.03786 
L 67.514184 200.956501 
L 66.928787 198.875142 
L 66.351856 196.793783 
L 65.777864 194.712424 
L 65.196989 192.631065 
L 64.597215 190.549706 
L 63.967809 188.468347 
L 63.303557 186.386988 
L 62.608882 184.305629 
L 61.900792 182.22427 
L 61.209779 180.142911 
L 60.578158 178.061552 
L 60.055876 175.980193 
L 59.694377 173.898834 
L 59.539568 171.817475 
L 59.625113 169.736116 
L 59.967225 167.654757 
L 60.561818 165.573398 
L 61.38439 163.492039 
L 62.392533 161.41068 
L 63.530557 159.32932 
L 64.735443 157.247961 
L 65.943278 155.166602 
L 67.095363 153.085243 
L 68.143337 151.003884 
L 69.052865 148.922525 
L 69.805601 146.841166 
L 70.399344 144.759807 
L 70.846476 142.678448 
L 71.170947 140.597089 
L 71.404236 138.51573 
L 71.580819 136.434371 
L 71.7338 134.353012 
L 71.891273 132.271653 
L 72.073935 130.190294 
L 72.294213 128.108935 
L 72.556904 126.027576 
L 72.861044 123.946217 
L 73.202443 121.864858 
L 73.57624 119.783499 
L 73.978832 117.70214 
L 74.408756 115.620781 
L 74.866394 113.539421 
L 75.35274 111.458062 
L 75.867687 109.376703 
L 76.408455 107.295344 
L 76.968654 105.213985 
L 77.538284 103.132626 
L 78.104666 101.051267 
L 78.65402 98.969908 
L 79.173264 96.888549 
L 79.651584 94.80719 
L 80.081446 92.725831 
L 80.458929 90.644472 
L 80.783424 88.563113 
L 81.056917 86.481754 
L 81.283099 84.400395 
L 81.466545 82.319036 
L 81.612086 80.237677 
L 81.724448 78.156318 
L 81.808115 76.074959 
L 81.867349 73.9936 
L 81.906274 71.912241 
L 81.928952 69.830882 
L 81.939405 67.749522 
L 81.941552 65.668163 
L 81.939083 63.586804 
L 81.935277 61.505445 
L 81.932814 59.424086 
L 81.93362 57.342727 
L 82.28688 57.342727 
L 82.28688 57.342727 
L 82.287686 59.424086 
L 82.285223 61.505445 
L 82.281417 63.586804 
L 82.278948 65.668163 
L 82.281095 67.749522 
L 82.291548 69.830882 
L 82.314226 71.912241 
L 82.353151 73.9936 
L 82.412385 76.074959 
L 82.496052 78.156318 
L 82.608414 80.237677 
L 82.753955 82.319036 
L 82.937401 84.400395 
L 83.163583 86.481754 
L 83.437076 88.563113 
L 83.761571 90.644472 
L 84.139054 92.725831 
L 84.568916 94.80719 
L 85.047236 96.888549 
L 85.56648 98.969908 
L 86.115834 101.051267 
L 86.682216 103.132626 
L 87.251846 105.213985 
L 87.812045 107.295344 
L 88.352813 109.376703 
L 88.86776 111.458062 
L 89.354106 113.539421 
L 89.811744 115.620781 
L 90.241668 117.70214 
L 90.64426 119.783499 
L 91.018057 121.864858 
L 91.359456 123.946217 
L 91.663596 126.027576 
L 91.926287 128.108935 
L 92.146565 130.190294 
L 92.329227 132.271653 
L 92.4867 134.353012 
L 92.639681 136.434371 
L 92.816264 138.51573 
L 93.049553 140.597089 
L 93.374024 142.678448 
L 93.821156 144.759807 
L 94.414899 146.841166 
L 95.167635 148.922525 
L 96.077163 151.003884 
L 97.125137 153.085243 
L 98.277222 155.166602 
L 99.485057 157.247961 
L 100.689943 159.32932 
L 101.827967 161.41068 
L 102.83611 163.492039 
L 103.658682 165.573398 
L 104.253275 167.654757 
L 104.595387 169.736116 
L 104.680932 171.817475 
L 104.526123 173.898834 
L 104.164624 175.980193 
L 103.642342 178.061552 
L 103.010721 180.142911 
L 102.319708 182.22427 
L 101.611618 184.305629 
L 100.916943 186.386988 
L 100.252691 188.468347 
L 99.623285 190.549706 
L 99.023511 192.631065 
L 98.442636 194.712424 
L 97.868644 196.793783 
L 97.291713 198.875142 
L 96.706316 200.956501 
L 96.111814 203.03786 
L 95.511738 205.119219 
L 94.912254 207.200579 
L 94.320401 209.281938 
L 93.742585 211.363297 
L 93.183654 213.444656 
L 92.646623 215.526015 
L 92.13291 217.607374 
L 91.642864 219.688733 
L 91.176292 221.770092 
L 90.7328 223.851451 
L 90.311853 225.93281 
L 89.912582 228.014169 
L 89.533456 230.095528 
L 89.171987 232.176887 
L 88.824609 234.258246 
L 88.486825 236.339605 
L 88.153627 238.420964 
L 87.820115 240.502323 
L 87.482163 242.583682 
L 87.136985 244.665041 
L 86.783476 246.7464 
L 86.422248 248.827759 
L 86.055407 250.909118 
L 85.686162 252.990478 
L 85.318386 255.071837 
L 84.956242 257.153196 
L 84.603948 259.234555 
L 84.265649 261.315914 
L 83.945353 263.397273 
z
" clip-path="url(#pee78c2e929)" style="fill: #1f77b4; fill-opacity: 0.3"/>
   </g>
   <g id="matplotlib.axis_1">
    <g id="ytick_1">
     <g id="line2d_1">
      <defs>
       <path id="m19912dd520" d="M 0 0 
L -3.5 0 
" style="stroke: #000000; stroke-width: 0.8"/>
      </defs>
      <g>
       <use xlink:href="#m19912dd520" x="57.2825" y="259.901755" style="stroke: #000000; stroke-width: 0.8"/>
      </g>
     </g>
     <g id="text_1">
      <!-- 0.40 -->
      <g transform="translate(28.016875 263.700974)scale(0.1 -0.1)">
       <defs>
        <path id="DejaVuSans-30" d="M 2034 4250 
Q 1547 4250 1301 3770 
Q 1056 3291 1056 2328 
Q 1056 1369 1301 889 
Q 1547 409 2034 409 
Q 2525 409 2770 889 
Q 3016 1369 3016 2328 
Q 3016 3291 2770 3770 
Q 2525 4250 2034 4250 
z
M 2034 4750 
Q 2819 4750 3233 4129 
Q 3647 3509 3647 2328 
Q 3647 1150 3233 529 
Q 2819 -91 2034 -91 
Q 1250 -91 836 529 
Q 422 1150 422 2328 
Q 422 3509 836 4129 
Q 1250 4750 2034 4750 
z
" transform="scale(0.015625)"/>
        <path id="DejaVuSans-2e" d="M 684 794 
L 1344 794 
L 1344 0 
L 684 0 
L 684 794 
z
" transform="scale(0.015625)"/>
        <path id="DejaVuSans-34" d="M 2419 4116 
L 825 1625 
L 2419 1625 
L 2419 4116 
z
M 2253 4666 
L 3047 4666 
L 3047 1625 
L 3713 1625 
L 3713 1100 
L 3047 1100 
L 3047 0 
L 2419 0 
L 2419 1100 
L 313 1100 
L 313 1709 
L 2253 4666 
z
" transform="scale(0.015625)"/>
       </defs>
       <use xlink:href="#DejaVuSans-30"/>
       <use xlink:href="#DejaVuSans-2e" x="63.623047"/>
       <use xlink:href="#DejaVuSans-34" x="95.410156"/>
       <use xlink:href="#DejaVuSans-30" x="159.033203"/>
      </g>
     </g>
    </g>
    <g id="ytick_2">
     <g id="line2d_2">
      <g>
       <use xlink:href="#m19912dd520" x="57.2825" y="233.356885" style="stroke: #000000; stroke-width: 0.8"/>
      </g>
     </g>
     <g id="text_2">
      <!-- 0.45 -->
      <g transform="translate(28.016875 237.156104)scale(0.1 -0.1)">
       <defs>
        <path id="DejaVuSans-35" d="M 691 4666 
L 3169 4666 
L 3169 4134 
L 1269 4134 
L 1269 2991 
Q 1406 3038 1543 3061 
Q 1681 3084 1819 3084 
Q 2600 3084 3056 2656 
Q 3513 2228 3513 1497 
Q 3513 744 3044 326 
Q 2575 -91 1722 -91 
Q 1428 -91 1123 -41 
Q 819 9 494 109 
L 494 744 
Q 775 591 1075 516 
Q 1375 441 1709 441 
Q 2250 441 2565 725 
Q 2881 1009 2881 1497 
Q 2881 1984 2565 2268 
Q 2250 2553 1709 2553 
Q 1456 2553 1204 2497 
Q 953 2441 691 2322 
L 691 4666 
z
" transform="scale(0.015625)"/>
       </defs>
       <use xlink:href="#DejaVuSans-30"/>
       <use xlink:href="#DejaVuSans-2e" x="63.623047"/>
       <use xlink:href="#DejaVuSans-34" x="95.410156"/>
       <use xlink:href="#DejaVuSans-35" x="159.033203"/>
      </g>
     </g>
    </g>
    <g id="ytick_3">
     <g id="line2d_3">
      <g>
       <use xlink:href="#m19912dd520" x="57.2825" y="206.812015" style="stroke: #000000; stroke-width: 0.8"/>
      </g>
     </g>
     <g id="text_3">
      <!-- 0.50 -->
      <g transform="translate(28.016875 210.611234)scale(0.1 -0.1)">
       <use xlink:href="#DejaVuSans-30"/>
       <use xlink:href="#DejaVuSans-2e" x="63.623047"/>
       <use xlink:href="#DejaVuSans-35" x="95.410156"/>
       <use xlink:href="#DejaVuSans-30" x="159.033203"/>
      </g>
     </g>
    </g>
    <g id="ytick_4">
     <g id="line2d_4">
      <g>
       <use xlink:href="#m19912dd520" x="57.2825" y="180.267145" style="stroke: #000000; stroke-width: 0.8"/>
      </g>
     </g>
     <g id="text_4">
      <!-- 0.55 -->
      <g transform="translate(28.016875 184.066364)scale(0.1 -0.1)">
       <use xlink:href="#DejaVuSans-30"/>
       <use xlink:href="#DejaVuSans-2e" x="63.623047"/>
       <use xlink:href="#DejaVuSans-35" x="95.410156"/>
       <use xlink:href="#DejaVuSans-35" x="159.033203"/>
      </g>
     </g>
    </g>
    <g id="ytick_5">
     <g id="line2d_5">
      <g>
       <use xlink:href="#m19912dd520" x="57.2825" y="153.722275" style="stroke: #000000; stroke-width: 0.8"/>
      </g>
     </g>
     <g id="text_5">
      <!-- 0.60 -->
      <g transform="translate(28.016875 157.521494)scale(0.1 -0.1)">
       <defs>
        <path id="DejaVuSans-36" d="M 2113 2584 
Q 1688 2584 1439 2293 
Q 1191 2003 1191 1497 
Q 1191 994 1439 701 
Q 1688 409 2113 409 
Q 2538 409 2786 701 
Q 3034 994 3034 1497 
Q 3034 2003 2786 2293 
Q 2538 2584 2113 2584 
z
M 3366 4563 
L 3366 3988 
Q 3128 4100 2886 4159 
Q 2644 4219 2406 4219 
Q 1781 4219 1451 3797 
Q 1122 3375 1075 2522 
Q 1259 2794 1537 2939 
Q 1816 3084 2150 3084 
Q 2853 3084 3261 2657 
Q 3669 2231 3669 1497 
Q 3669 778 3244 343 
Q 2819 -91 2113 -91 
Q 1303 -91 875 529 
Q 447 1150 447 2328 
Q 447 3434 972 4092 
Q 1497 4750 2381 4750 
Q 2619 4750 2861 4703 
Q 3103 4656 3366 4563 
z
" transform="scale(0.015625)"/>
       </defs>
       <use xlink:href="#DejaVuSans-30"/>
       <use xlink:href="#DejaVuSans-2e" x="63.623047"/>
       <use xlink:href="#DejaVuSans-36" x="95.410156"/>
       <use xlink:href="#DejaVuSans-30" x="159.033203"/>
      </g>
     </g>
    </g>
    <g id="ytick_6">
     <g id="line2d_6">
      <g>
       <use xlink:href="#m19912dd520" x="57.2825" y="127.177405" style="stroke: #000000; stroke-width: 0.8"/>
      </g>
     </g>
     <g id="text_6">
      <!-- 0.65 -->
      <g transform="translate(28.016875 130.976624)scale(0.1 -0.1)">
       <use xlink:href="#DejaVuSans-30"/>
       <use xlink:href="#DejaVuSans-2e" x="63.623047"/>
       <use xlink:href="#DejaVuSans-36" x="95.410156"/>
       <use xlink:href="#DejaVuSans-35" x="159.033203"/>
      </g>
     </g>
    </g>
    <g id="ytick_7">
     <g id="line2d_7">
      <g>
       <use xlink:href="#m19912dd520" x="57.2825" y="100.632535" style="stroke: #000000; stroke-width: 0.8"/>
      </g>
     </g>
     <g id="text_7">
      <!-- 0.70 -->
      <g transform="translate(28.016875 104.431753)scale(0.1 -0.1)">
       <defs>
        <path id="DejaVuSans-37" d="M 525 4666 
L 3525 4666 
L 3525 4397 
L 1831 0 
L 1172 0 
L 2766 4134 
L 525 4134 
L 525 4666 
z
" transform="scale(0.015625)"/>
       </defs>
       <use xlink:href="#DejaVuSans-30"/>
       <use xlink:href="#DejaVuSans-2e" x="63.623047"/>
       <use xlink:href="#DejaVuSans-37" x="95.410156"/>
       <use xlink:href="#DejaVuSans-30" x="159.033203"/>
      </g>
     </g>
    </g>
    <g id="ytick_8">
     <g id="line2d_8">
      <g>
       <use xlink:href="#m19912dd520" x="57.2825" y="74.087665" style="stroke: #000000; stroke-width: 0.8"/>
      </g>
     </g>
     <g id="text_8">
      <!-- 0.75 -->
      <g transform="translate(28.016875 77.886883)scale(0.1 -0.1)">
       <use xlink:href="#DejaVuSans-30"/>
       <use xlink:href="#DejaVuSans-2e" x="63.623047"/>
       <use xlink:href="#DejaVuSans-37" x="95.410156"/>
       <use xlink:href="#DejaVuSans-35" x="159.033203"/>
      </g>
     </g>
    </g>
    <g id="ytick_9">
     <g id="line2d_9">
      <g>
       <use xlink:href="#m19912dd520" x="57.2825" y="47.542795" style="stroke: #000000; stroke-width: 0.8"/>
      </g>
     </g>
     <g id="text_9">
      <!-- 0.80 -->
      <g transform="translate(28.016875 51.342013)scale(0.1 -0.1)">
       <defs>
        <path id="DejaVuSans-38" d="M 2034 2216 
Q 1584 2216 1326 1975 
Q 1069 1734 1069 1313 
Q 1069 891 1326 650 
Q 1584 409 2034 409 
Q 2484 409 2743 651 
Q 3003 894 3003 1313 
Q 3003 1734 2745 1975 
Q 2488 2216 2034 2216 
z
M 1403 2484 
Q 997 2584 770 2862 
Q 544 3141 544 3541 
Q 544 4100 942 4425 
Q 1341 4750 2034 4750 
Q 2731 4750 3128 4425 
Q 3525 4100 3525 3541 
Q 3525 3141 3298 2862 
Q 3072 2584 2669 2484 
Q 3125 2378 3379 2068 
Q 3634 1759 3634 1313 
Q 3634 634 3220 271 
Q 2806 -91 2034 -91 
Q 1263 -91 848 271 
Q 434 634 434 1313 
Q 434 1759 690 2068 
Q 947 2378 1403 2484 
z
M 1172 3481 
Q 1172 3119 1398 2916 
Q 1625 2713 2034 2713 
Q 2441 2713 2670 2916 
Q 2900 3119 2900 3481 
Q 2900 3844 2670 4047 
Q 2441 4250 2034 4250 
Q 1625 4250 1398 4047 
Q 1172 3844 1172 3481 
z
" transform="scale(0.015625)"/>
       </defs>
       <use xlink:href="#DejaVuSans-30"/>
       <use xlink:href="#DejaVuSans-2e" x="63.623047"/>
       <use xlink:href="#DejaVuSans-38" x="95.410156"/>
       <use xlink:href="#DejaVuSans-30" x="159.033203"/>
      </g>
     </g>
    </g>
    <g id="text_10">
     <!-- RMSD [$\AA$] -->
     <g transform="translate(21.937187 184.12)rotate(-90)scale(0.1 -0.1)">
      <defs>
       <path id="DejaVuSans-52" d="M 2841 2188 
Q 3044 2119 3236 1894 
Q 3428 1669 3622 1275 
L 4263 0 
L 3584 0 
L 2988 1197 
Q 2756 1666 2539 1819 
Q 2322 1972 1947 1972 
L 1259 1972 
L 1259 0 
L 628 0 
L 628 4666 
L 2053 4666 
Q 2853 4666 3247 4331 
Q 3641 3997 3641 3322 
Q 3641 2881 3436 2590 
Q 3231 2300 2841 2188 
z
M 1259 4147 
L 1259 2491 
L 2053 2491 
Q 2509 2491 2742 2702 
Q 2975 2913 2975 3322 
Q 2975 3731 2742 3939 
Q 2509 4147 2053 4147 
L 1259 4147 
z
" transform="scale(0.015625)"/>
       <path id="DejaVuSans-4d" d="M 628 4666 
L 1569 4666 
L 2759 1491 
L 3956 4666 
L 4897 4666 
L 4897 0 
L 4281 0 
L 4281 4097 
L 3078 897 
L 2444 897 
L 1241 4097 
L 1241 0 
L 628 0 
L 628 4666 
z
" transform="scale(0.015625)"/>
       <path id="DejaVuSans-53" d="M 3425 4513 
L 3425 3897 
Q 3066 4069 2747 4153 
Q 2428 4238 2131 4238 
Q 1616 4238 1336 4038 
Q 1056 3838 1056 3469 
Q 1056 3159 1242 3001 
Q 1428 2844 1947 2747 
L 2328 2669 
Q 3034 2534 3370 2195 
Q 3706 1856 3706 1288 
Q 3706 609 3251 259 
Q 2797 -91 1919 -91 
Q 1588 -91 1214 -16 
Q 841 59 441 206 
L 441 856 
Q 825 641 1194 531 
Q 1563 422 1919 422 
Q 2459 422 2753 634 
Q 3047 847 3047 1241 
Q 3047 1584 2836 1778 
Q 2625 1972 2144 2069 
L 1759 2144 
Q 1053 2284 737 2584 
Q 422 2884 422 3419 
Q 422 4038 858 4394 
Q 1294 4750 2059 4750 
Q 2388 4750 2728 4690 
Q 3069 4631 3425 4513 
z
" transform="scale(0.015625)"/>
       <path id="DejaVuSans-44" d="M 1259 4147 
L 1259 519 
L 2022 519 
Q 2988 519 3436 956 
Q 3884 1394 3884 2338 
Q 3884 3275 3436 3711 
Q 2988 4147 2022 4147 
L 1259 4147 
z
M 628 4666 
L 1925 4666 
Q 3281 4666 3915 4102 
Q 4550 3538 4550 2338 
Q 4550 1131 3912 565 
Q 3275 0 1925 0 
L 628 0 
L 628 4666 
z
" transform="scale(0.015625)"/>
       <path id="DejaVuSans-20" transform="scale(0.015625)"/>
       <path id="DejaVuSans-5b" d="M 550 4863 
L 1875 4863 
L 1875 4416 
L 1125 4416 
L 1125 -397 
L 1875 -397 
L 1875 -844 
L 550 -844 
L 550 4863 
z
" transform="scale(0.015625)"/>
       <path id="DejaVuSans-Oblique-c5" d="M 3188 5081 
Q 3188 5278 3048 5417 
Q 2909 5556 2713 5556 
Q 2513 5556 2377 5420 
Q 2241 5284 2241 5081 
Q 2241 4884 2377 4746 
Q 2513 4609 2713 4609 
Q 2909 4609 3048 4746 
Q 3188 4884 3188 5081 
z
M 2203 4397 
Q 2034 4513 1945 4689 
Q 1856 4866 1856 5081 
Q 1856 5438 2106 5689 
Q 2356 5941 2713 5941 
Q 3069 5941 3320 5689 
Q 3572 5438 3572 5081 
Q 3572 4834 3458 4643 
Q 3344 4453 3128 4341 
L 3938 0 
L 3278 0 
L 3084 1197 
L 984 1197 
L 325 0 
L -341 0 
L 2203 4397 
z
M 2584 4044 
L 1275 1722 
L 2988 1722 
L 2584 4044 
z
" transform="scale(0.015625)"/>
       <path id="DejaVuSans-5d" d="M 1947 4863 
L 1947 -844 
L 622 -844 
L 622 -397 
L 1369 -397 
L 1369 4416 
L 622 4416 
L 622 4863 
L 1947 4863 
z
" transform="scale(0.015625)"/>
      </defs>
      <use xlink:href="#DejaVuSans-52" transform="translate(0 0.171875)"/>
      <use xlink:href="#DejaVuSans-4d" transform="translate(69.482422 0.171875)"/>
      <use xlink:href="#DejaVuSans-53" transform="translate(155.761719 0.171875)"/>
      <use xlink:href="#DejaVuSans-44" transform="translate(219.238281 0.171875)"/>
      <use xlink:href="#DejaVuSans-20" transform="translate(296.240234 0.171875)"/>
      <use xlink:href="#DejaVuSans-5b" transform="translate(328.027344 0.171875)"/>
      <use xlink:href="#DejaVuSans-Oblique-c5" transform="translate(367.041016 0.171875)"/>
      <use xlink:href="#DejaVuSans-5d" transform="translate(435.449219 0.171875)"/>
     </g>
    </g>
   </g>
   <g id="LineCollection_1">
    <path d="M 70.824909 175.154915 
L 93.395591 175.154915 
" clip-path="url(#pee78c2e929)" style="fill: none; stroke: #1f77b4; stroke-width: 1.5"/>
   </g>
   <g id="LineCollection_2">
    <path d="M 70.824909 57.342727 
L 93.395591 57.342727 
" clip-path="url(#pee78c2e929)" style="fill: none; stroke: #1f77b4; stroke-width: 1.5"/>
   </g>
   <g id="LineCollection_3">
    <path d="M 70.824909 263.397273 
L 93.395591 263.397273 
" clip-path="url(#pee78c2e929)" style="fill: none; stroke: #1f77b4; stroke-width: 1.5"/>
   </g>
   <g id="LineCollection_4">
    <path d="M 82.11025 263.397273 
L 82.11025 57.342727 
" clip-path="url(#pee78c2e929)" style="fill: none; stroke: #1f77b4; stroke-width: 1.5"/>
   </g>
   <g id="patch_3">
    <path d="M 57.2825 273.7 
L 57.2825 47.04 
" style="fill: none; stroke: #000000; stroke-width: 0.8; stroke-linejoin: miter; stroke-linecap: square"/>
   </g>
   <g id="patch_4">
    <path d="M 106.938 273.7 
L 106.938 47.04 
" style="fill: none; stroke: #000000; stroke-width: 0.8; stroke-linejoin: miter; stroke-linecap: square"/>
   </g>
   <g id="patch_5">
    <path d="M 57.2825 273.7 
L 106.938 273.7 
" style="fill: none; stroke: #000000; stroke-width: 0.8; stroke-linejoin: miter; stroke-linecap: square"/>
   </g>
   <g id="patch_6">
    <path d="M 57.2825 47.04 
L 106.938 47.04 
" style="fill: none; stroke: #000000; stroke-width: 0.8; stroke-linejoin: miter; stroke-linecap: square"/>
   </g>
   <g id="text_11">
    <!-- RMSD -->
    <g transform="translate(64.33525 41.04)scale(0.12 -0.12)">
     <use xlink:href="#DejaVuSans-52"/>
     <use xlink:href="#DejaVuSans-4d" x="69.482422"/>
     <use xlink:href="#DejaVuSans-53" x="155.761719"/>
     <use xlink:href="#DejaVuSans-44" x="219.238281"/>
    </g>
   </g>
  </g>
  <g id="axes_2">
   <g id="patch_7">
    <path d="M 171.848 273.7 
L 221.5035 273.7 
L 221.5035 47.04 
L 171.848 47.04 
z
" style="fill: #ffffff"/>
   </g>
   <g id="PolyCollection_2">
    <path d="M 197.781999 263.397273 
L 195.569501 263.397273 
L 195.374498 261.315914 
L 195.158123 259.234555 
L 194.914188 257.153196 
L 194.635106 255.071837 
L 194.312657 252.990478 
L 193.938929 250.909118 
L 193.507393 248.827759 
L 193.014082 246.7464 
L 192.458774 244.665041 
L 191.845868 242.583682 
L 191.184583 240.502323 
L 190.488055 238.420964 
L 189.771174 236.339605 
L 189.047428 234.258246 
L 188.325482 232.176887 
L 187.606547 230.095528 
L 186.883572 228.014169 
L 186.142831 225.93281 
L 185.367798 223.851451 
L 184.544393 221.770092 
L 183.666191 219.688733 
L 182.738048 217.607374 
L 181.777016 215.526015 
L 180.810133 213.444656 
L 179.869572 211.363297 
L 178.986376 209.281938 
L 178.184475 207.200579 
L 177.476582 205.119219 
L 176.863084 203.03786 
L 176.334146 200.956501 
L 175.874275 198.875142 
L 175.46793 196.793783 
L 175.104506 194.712424 
L 174.781427 192.631065 
L 174.504807 190.549706 
L 174.287938 188.468347 
L 174.148446 186.386988 
L 174.105068 184.305629 
L 174.174801 182.22427 
L 174.370761 180.142911 
L 174.700781 178.061552 
L 175.166569 175.980193 
L 175.763266 173.898834 
L 176.479329 171.817475 
L 177.296779 169.736116 
L 178.191916 167.654757 
L 179.136635 165.573398 
L 180.100412 163.492039 
L 181.052893 161.41068 
L 181.966811 159.32932 
L 182.820773 157.247961 
L 183.60133 155.166602 
L 184.303851 153.085243 
L 184.931952 151.003884 
L 185.495643 148.922525 
L 186.008711 146.841166 
L 186.486007 144.759807 
L 186.941285 142.678448 
L 187.385937 140.597089 
L 187.828635 138.51573 
L 188.275599 136.434371 
L 188.7311 134.353012 
L 189.197879 132.271653 
L 189.677348 130.190294 
L 190.16959 128.108935 
L 190.673301 126.027576 
L 191.185768 123.946217 
L 191.702929 121.864858 
L 192.219493 119.783499 
L 192.729114 117.70214 
L 193.22463 115.620781 
L 193.698441 113.539421 
L 194.143078 111.458062 
L 194.551928 109.376703 
L 194.919983 107.295344 
L 195.2444 105.213985 
L 195.524715 103.132626 
L 195.762626 101.051267 
L 195.961434 98.969908 
L 196.125329 96.888549 
L 196.25873 94.80719 
L 196.365818 92.725831 
L 196.450327 90.644472 
L 196.515517 88.563113 
L 196.564239 86.481754 
L 196.598996 84.400395 
L 196.621959 82.319036 
L 196.634937 80.237677 
L 196.639357 78.156318 
L 196.6363 76.074959 
L 196.626623 73.9936 
L 196.611177 71.912241 
L 196.591048 69.830882 
L 196.567771 67.749522 
L 196.543411 65.668163 
L 196.52047 63.586804 
L 196.501595 61.505445 
L 196.489162 59.424086 
L 196.484825 57.342727 
L 196.866675 57.342727 
L 196.866675 57.342727 
L 196.862338 59.424086 
L 196.849905 61.505445 
L 196.83103 63.586804 
L 196.808089 65.668163 
L 196.783729 67.749522 
L 196.760452 69.830882 
L 196.740323 71.912241 
L 196.724877 73.9936 
L 196.7152 76.074959 
L 196.712143 78.156318 
L 196.716563 80.237677 
L 196.729541 82.319036 
L 196.752504 84.400395 
L 196.787261 86.481754 
L 196.835983 88.563113 
L 196.901173 90.644472 
L 196.985682 92.725831 
L 197.09277 94.80719 
L 197.226171 96.888549 
L 197.390066 98.969908 
L 197.588874 101.051267 
L 197.826785 103.132626 
L 198.1071 105.213985 
L 198.431517 107.295344 
L 198.799572 109.376703 
L 199.208422 111.458062 
L 199.653059 113.539421 
L 200.12687 115.620781 
L 200.622386 117.70214 
L 201.132007 119.783499 
L 201.648571 121.864858 
L 202.165732 123.946217 
L 202.678199 126.027576 
L 203.18191 128.108935 
L 203.674152 130.190294 
L 204.153621 132.271653 
L 204.6204 134.353012 
L 205.075901 136.434371 
L 205.522865 138.51573 
L 205.965563 140.597089 
L 206.410215 142.678448 
L 206.865493 144.759807 
L 207.342789 146.841166 
L 207.855857 148.922525 
L 208.419548 151.003884 
L 209.047649 153.085243 
L 209.75017 155.166602 
L 210.530727 157.247961 
L 211.384689 159.32932 
L 212.298607 161.41068 
L 213.251088 163.492039 
L 214.214865 165.573398 
L 215.159584 167.654757 
L 216.054721 169.736116 
L 216.872171 171.817475 
L 217.588234 173.898834 
L 218.184931 175.980193 
L 218.650719 178.061552 
L 218.980739 180.142911 
L 219.176699 182.22427 
L 219.246432 184.305629 
L 219.203054 186.386988 
L 219.063562 188.468347 
L 218.846693 190.549706 
L 218.570073 192.631065 
L 218.246994 194.712424 
L 217.88357 196.793783 
L 217.477225 198.875142 
L 217.017354 200.956501 
L 216.488416 203.03786 
L 215.874918 205.119219 
L 215.167025 207.200579 
L 214.365124 209.281938 
L 213.481928 211.363297 
L 212.541367 213.444656 
L 211.574484 215.526015 
L 210.613452 217.607374 
L 209.685309 219.688733 
L 208.807107 221.770092 
L 207.983702 223.851451 
L 207.208669 225.93281 
L 206.467928 228.014169 
L 205.744953 230.095528 
L 205.026018 232.176887 
L 204.304072 234.258246 
L 203.580326 236.339605 
L 202.863445 238.420964 
L 202.166917 240.502323 
L 201.505632 242.583682 
L 200.892726 244.665041 
L 200.337418 246.7464 
L 199.844107 248.827759 
L 199.412571 250.909118 
L 199.038843 252.990478 
L 198.716394 255.071837 
L 198.437312 257.153196 
L 198.193377 259.234555 
L 197.977002 261.315914 
L 197.781999 263.397273 
z
" clip-path="url(#p533bb77626)" style="fill: #1f77b4; fill-opacity: 0.3"/>
   </g>
   <g id="matplotlib.axis_2">
    <g id="ytick_10">
     <g id="line2d_10">
      <g>
       <use xlink:href="#m19912dd520" x="171.848" y="263.316429" style="stroke: #000000; stroke-width: 0.8"/>
      </g>
     </g>
     <g id="text_12">
      <!-- 0.30 -->
      <g transform="translate(142.582375 267.115647)scale(0.1 -0.1)">
       <defs>
        <path id="DejaVuSans-33" d="M 2597 2516 
Q 3050 2419 3304 2112 
Q 3559 1806 3559 1356 
Q 3559 666 3084 287 
Q 2609 -91 1734 -91 
Q 1441 -91 1130 -33 
Q 819 25 488 141 
L 488 750 
Q 750 597 1062 519 
Q 1375 441 1716 441 
Q 2309 441 2620 675 
Q 2931 909 2931 1356 
Q 2931 1769 2642 2001 
Q 2353 2234 1838 2234 
L 1294 2234 
L 1294 2753 
L 1863 2753 
Q 2328 2753 2575 2939 
Q 2822 3125 2822 3475 
Q 2822 3834 2567 4026 
Q 2313 4219 1838 4219 
Q 1578 4219 1281 4162 
Q 984 4106 628 3988 
L 628 4550 
Q 988 4650 1302 4700 
Q 1616 4750 1894 4750 
Q 2613 4750 3031 4423 
Q 3450 4097 3450 3541 
Q 3450 3153 3228 2886 
Q 3006 2619 2597 2516 
z
" transform="scale(0.015625)"/>
       </defs>
       <use xlink:href="#DejaVuSans-30"/>
       <use xlink:href="#DejaVuSans-2e" x="63.623047"/>
       <use xlink:href="#DejaVuSans-33" x="95.410156"/>
       <use xlink:href="#DejaVuSans-30" x="159.033203"/>
      </g>
     </g>
    </g>
    <g id="ytick_11">
     <g id="line2d_11">
      <g>
       <use xlink:href="#m19912dd520" x="171.848" y="229.858559" style="stroke: #000000; stroke-width: 0.8"/>
      </g>
     </g>
     <g id="text_13">
      <!-- 0.35 -->
      <g transform="translate(142.582375 233.657778)scale(0.1 -0.1)">
       <use xlink:href="#DejaVuSans-30"/>
       <use xlink:href="#DejaVuSans-2e" x="63.623047"/>
       <use xlink:href="#DejaVuSans-33" x="95.410156"/>
       <use xlink:href="#DejaVuSans-35" x="159.033203"/>
      </g>
     </g>
    </g>
    <g id="ytick_12">
     <g id="line2d_12">
      <g>
       <use xlink:href="#m19912dd520" x="171.848" y="196.40069" style="stroke: #000000; stroke-width: 0.8"/>
      </g>
     </g>
     <g id="text_14">
      <!-- 0.40 -->
      <g transform="translate(142.582375 200.199909)scale(0.1 -0.1)">
       <use xlink:href="#DejaVuSans-30"/>
       <use xlink:href="#DejaVuSans-2e" x="63.623047"/>
       <use xlink:href="#DejaVuSans-34" x="95.410156"/>
       <use xlink:href="#DejaVuSans-30" x="159.033203"/>
      </g>
     </g>
    </g>
    <g id="ytick_13">
     <g id="line2d_13">
      <g>
       <use xlink:href="#m19912dd520" x="171.848" y="162.942821" style="stroke: #000000; stroke-width: 0.8"/>
      </g>
     </g>
     <g id="text_15">
      <!-- 0.45 -->
      <g transform="translate(142.582375 166.74204)scale(0.1 -0.1)">
       <use xlink:href="#DejaVuSans-30"/>
       <use xlink:href="#DejaVuSans-2e" x="63.623047"/>
       <use xlink:href="#DejaVuSans-34" x="95.410156"/>
       <use xlink:href="#DejaVuSans-35" x="159.033203"/>
      </g>
     </g>
    </g>
    <g id="ytick_14">
     <g id="line2d_14">
      <g>
       <use xlink:href="#m19912dd520" x="171.848" y="129.484952" style="stroke: #000000; stroke-width: 0.8"/>
      </g>
     </g>
     <g id="text_16">
      <!-- 0.50 -->
      <g transform="translate(142.582375 133.284171)scale(0.1 -0.1)">
       <use xlink:href="#DejaVuSans-30"/>
       <use xlink:href="#DejaVuSans-2e" x="63.623047"/>
       <use xlink:href="#DejaVuSans-35" x="95.410156"/>
       <use xlink:href="#DejaVuSans-30" x="159.033203"/>
      </g>
     </g>
    </g>
    <g id="ytick_15">
     <g id="line2d_15">
      <g>
       <use xlink:href="#m19912dd520" x="171.848" y="96.027083" style="stroke: #000000; stroke-width: 0.8"/>
      </g>
     </g>
     <g id="text_17">
      <!-- 0.55 -->
      <g transform="translate(142.582375 99.826302)scale(0.1 -0.1)">
       <use xlink:href="#DejaVuSans-30"/>
       <use xlink:href="#DejaVuSans-2e" x="63.623047"/>
       <use xlink:href="#DejaVuSans-35" x="95.410156"/>
       <use xlink:href="#DejaVuSans-35" x="159.033203"/>
      </g>
     </g>
    </g>
    <g id="ytick_16">
     <g id="line2d_16">
      <g>
       <use xlink:href="#m19912dd520" x="171.848" y="62.569214" style="stroke: #000000; stroke-width: 0.8"/>
      </g>
     </g>
     <g id="text_18">
      <!-- 0.60 -->
      <g transform="translate(142.582375 66.368433)scale(0.1 -0.1)">
       <use xlink:href="#DejaVuSans-30"/>
       <use xlink:href="#DejaVuSans-2e" x="63.623047"/>
       <use xlink:href="#DejaVuSans-36" x="95.410156"/>
       <use xlink:href="#DejaVuSans-30" x="159.033203"/>
      </g>
     </g>
    </g>
    <g id="text_19">
     <!-- MAE [$\AA$] -->
     <g transform="translate(136.502687 180.22)rotate(-90)scale(0.1 -0.1)">
      <defs>
       <path id="DejaVuSans-41" d="M 2188 4044 
L 1331 1722 
L 3047 1722 
L 2188 4044 
z
M 1831 4666 
L 2547 4666 
L 4325 0 
L 3669 0 
L 3244 1197 
L 1141 1197 
L 716 0 
L 50 0 
L 1831 4666 
z
" transform="scale(0.015625)"/>
       <path id="DejaVuSans-45" d="M 628 4666 
L 3578 4666 
L 3578 4134 
L 1259 4134 
L 1259 2753 
L 3481 2753 
L 3481 2222 
L 1259 2222 
L 1259 531 
L 3634 531 
L 3634 0 
L 628 0 
L 628 4666 
z
" transform="scale(0.015625)"/>
      </defs>
      <use xlink:href="#DejaVuSans-4d" transform="translate(0 0.171875)"/>
      <use xlink:href="#DejaVuSans-41" transform="translate(86.279297 0.171875)"/>
      <use xlink:href="#DejaVuSans-45" transform="translate(154.6875 0.171875)"/>
      <use xlink:href="#DejaVuSans-20" transform="translate(217.871094 0.171875)"/>
      <use xlink:href="#DejaVuSans-5b" transform="translate(249.658203 0.171875)"/>
      <use xlink:href="#DejaVuSans-Oblique-c5" transform="translate(288.671875 0.171875)"/>
      <use xlink:href="#DejaVuSans-5d" transform="translate(357.080078 0.171875)"/>
     </g>
    </g>
   </g>
   <g id="LineCollection_5">
    <path d="M 185.390409 183.928066 
L 207.961091 183.928066 
" clip-path="url(#p533bb77626)" style="fill: none; stroke: #1f77b4; stroke-width: 1.5"/>
   </g>
   <g id="LineCollection_6">
    <path d="M 185.390409 57.342727 
L 207.961091 57.342727 
" clip-path="url(#p533bb77626)" style="fill: none; stroke: #1f77b4; stroke-width: 1.5"/>
   </g>
   <g id="LineCollection_7">
    <path d="M 185.390409 263.397273 
L 207.961091 263.397273 
" clip-path="url(#p533bb77626)" style="fill: none; stroke: #1f77b4; stroke-width: 1.5"/>
   </g>
   <g id="LineCollection_8">
    <path d="M 196.67575 263.397273 
L 196.67575 57.342727 
" clip-path="url(#p533bb77626)" style="fill: none; stroke: #1f77b4; stroke-width: 1.5"/>
   </g>
   <g id="patch_8">
    <path d="M 171.848 273.7 
L 171.848 47.04 
" style="fill: none; stroke: #000000; stroke-width: 0.8; stroke-linejoin: miter; stroke-linecap: square"/>
   </g>
   <g id="patch_9">
    <path d="M 221.5035 273.7 
L 221.5035 47.04 
" style="fill: none; stroke: #000000; stroke-width: 0.8; stroke-linejoin: miter; stroke-linecap: square"/>
   </g>
   <g id="patch_10">
    <path d="M 171.848 273.7 
L 221.5035 273.7 
" style="fill: none; stroke: #000000; stroke-width: 0.8; stroke-linejoin: miter; stroke-linecap: square"/>
   </g>
   <g id="patch_11">
    <path d="M 171.848 47.04 
L 221.5035 47.04 
" style="fill: none; stroke: #000000; stroke-width: 0.8; stroke-linejoin: miter; stroke-linecap: square"/>
   </g>
   <g id="text_20">
    <!-- MAE -->
    <g transform="translate(183.60325 41.04)scale(0.12 -0.12)">
     <use xlink:href="#DejaVuSans-4d"/>
     <use xlink:href="#DejaVuSans-41" x="86.279297"/>
     <use xlink:href="#DejaVuSans-45" x="154.6875"/>
    </g>
   </g>
  </g>
  <g id="axes_3">
   <g id="patch_12">
    <path d="M 286.4135 273.7 
L 336.069 273.7 
L 336.069 47.04 
L 286.4135 47.04 
z
" style="fill: #ffffff"/>
   </g>
   <g id="PolyCollection_3">
    <path d="M 312.648218 263.397273 
L 309.834282 263.397273 
L 309.544529 261.315914 
L 309.203098 259.234555 
L 308.797167 257.153196 
L 308.31285 255.071837 
L 307.737289 252.990478 
L 307.061278 250.909118 
L 306.281927 248.827759 
L 305.404836 246.7464 
L 304.445203 244.665041 
L 303.427494 242.583682 
L 302.383559 240.502323 
L 301.349366 238.420964 
L 300.360851 236.339605 
L 299.44955 234.258246 
L 298.63875 232.176887 
L 297.94085 230.095528 
L 297.356384 228.014169 
L 296.874918 225.93281 
L 296.477686 223.851451 
L 296.141491 221.770092 
L 295.843192 219.688733 
L 295.563913 217.607374 
L 295.292167 215.526015 
L 295.025293 213.444656 
L 294.768916 211.363297 
L 294.534582 209.281938 
L 294.336104 207.200579 
L 294.185406 205.119219 
L 294.088799 203.03786 
L 294.044458 200.956501 
L 294.041639 198.875142 
L 294.061769 196.793783 
L 294.081132 194.712424 
L 294.07457 192.631065 
L 294.019421 190.549706 
L 293.8989 188.468347 
L 293.704302 186.386988 
L 293.435671 184.305629 
L 293.100941 182.22427 
L 292.713855 180.142911 
L 292.291208 178.061552 
L 291.850042 175.980193 
L 291.40538 173.898834 
L 290.968912 171.817475 
L 290.548833 169.736116 
L 290.150745 167.654757 
L 289.779386 165.573398 
L 289.440741 163.492039 
L 289.14406 161.41068 
L 288.903303 159.32932 
L 288.737611 157.247961 
L 288.670568 155.166602 
L 288.728209 153.085243 
L 288.935973 151.003884 
L 289.31504 148.922525 
L 289.878647 146.841166 
L 290.629086 144.759807 
L 291.555997 142.678448 
L 292.636369 140.597089 
L 293.836371 138.51573 
L 295.114755 136.434371 
L 296.427273 134.353012 
L 297.731365 132.271653 
L 298.990336 130.190294 
L 300.176371 128.108935 
L 301.272019 126.027576 
L 302.270059 123.946217 
L 303.171977 121.864858 
L 303.985502 119.783499 
L 304.721748 117.70214 
L 305.39252 115.620781 
L 306.008206 113.539421 
L 306.576515 111.458062 
L 307.102112 109.376703 
L 307.587026 107.295344 
L 308.031548 105.213985 
L 308.43533 103.132626 
L 308.798363 101.051267 
L 309.121639 98.969908 
L 309.407398 96.888549 
L 309.658978 94.80719 
L 309.880374 92.725831 
L 310.075673 90.644472 
L 310.248522 88.563113 
L 310.401736 86.481754 
L 310.537137 84.400395 
L 310.655613 82.319036 
L 310.757366 80.237677 
L 310.842267 78.156318 
L 310.910252 76.074959 
L 310.961674 73.9936 
L 310.997548 71.912241 
L 311.019671 69.830882 
L 311.030585 67.749522 
L 311.033406 65.668163 
L 311.031534 63.586804 
L 311.028306 61.505445 
L 311.026643 59.424086 
L 311.028743 57.342727 
L 311.453757 57.342727 
L 311.453757 57.342727 
L 311.455857 59.424086 
L 311.454194 61.505445 
L 311.450966 63.586804 
L 311.449094 65.668163 
L 311.451915 67.749522 
L 311.462829 69.830882 
L 311.484952 71.912241 
L 311.520826 73.9936 
L 311.572248 76.074959 
L 311.640233 78.156318 
L 311.725134 80.237677 
L 311.826887 82.319036 
L 311.945363 84.400395 
L 312.080764 86.481754 
L 312.233978 88.563113 
L 312.406827 90.644472 
L 312.602126 92.725831 
L 312.823522 94.80719 
L 313.075102 96.888549 
L 313.360861 98.969908 
L 313.684137 101.051267 
L 314.04717 103.132626 
L 314.450952 105.213985 
L 314.895474 107.295344 
L 315.380388 109.376703 
L 315.905985 111.458062 
L 316.474294 113.539421 
L 317.08998 115.620781 
L 317.760752 117.70214 
L 318.496998 119.783499 
L 319.310523 121.864858 
L 320.212441 123.946217 
L 321.210481 126.027576 
L 322.306129 128.108935 
L 323.492164 130.190294 
L 324.751135 132.271653 
L 326.055227 134.353012 
L 327.367745 136.434371 
L 328.646129 138.51573 
L 329.846131 140.597089 
L 330.926503 142.678448 
L 331.853414 144.759807 
L 332.603853 146.841166 
L 333.16746 148.922525 
L 333.546527 151.003884 
L 333.754291 153.085243 
L 333.811932 155.166602 
L 333.744889 157.247961 
L 333.579197 159.32932 
L 333.33844 161.41068 
L 333.041759 163.492039 
L 332.703114 165.573398 
L 332.331755 167.654757 
L 331.933667 169.736116 
L 331.513588 171.817475 
L 331.07712 173.898834 
L 330.632458 175.980193 
L 330.191292 178.061552 
L 329.768645 180.142911 
L 329.381559 182.22427 
L 329.046829 184.305629 
L 328.778198 186.386988 
L 328.5836 188.468347 
L 328.463079 190.549706 
L 328.40793 192.631065 
L 328.401368 194.712424 
L 328.420731 196.793783 
L 328.440861 198.875142 
L 328.438042 200.956501 
L 328.393701 203.03786 
L 328.297094 205.119219 
L 328.146396 207.200579 
L 327.947918 209.281938 
L 327.713584 211.363297 
L 327.457207 213.444656 
L 327.190333 215.526015 
L 326.918587 217.607374 
L 326.639308 219.688733 
L 326.341009 221.770092 
L 326.004814 223.851451 
L 325.607582 225.93281 
L 325.126116 228.014169 
L 324.54165 230.095528 
L 323.84375 232.176887 
L 323.03295 234.258246 
L 322.121649 236.339605 
L 321.133134 238.420964 
L 320.098941 240.502323 
L 319.055006 242.583682 
L 318.037297 244.665041 
L 317.077664 246.7464 
L 316.200573 248.827759 
L 315.421222 250.909118 
L 314.745211 252.990478 
L 314.16965 255.071837 
L 313.685333 257.153196 
L 313.279402 259.234555 
L 312.937971 261.315914 
L 312.648218 263.397273 
z
" clip-path="url(#pdc4c54ffe1)" style="fill: #1f77b4; fill-opacity: 0.3"/>
   </g>
   <g id="matplotlib.axis_3">
    <g id="ytick_17">
     <g id="line2d_17">
      <g>
       <use xlink:href="#m19912dd520" x="286.4135" y="242.981264" style="stroke: #000000; stroke-width: 0.8"/>
      </g>
     </g>
     <g id="text_21">
      <!-- 0.10 -->
      <g transform="translate(257.147875 246.780482)scale(0.1 -0.1)">
       <defs>
        <path id="DejaVuSans-31" d="M 794 531 
L 1825 531 
L 1825 4091 
L 703 3866 
L 703 4441 
L 1819 4666 
L 2450 4666 
L 2450 531 
L 3481 531 
L 3481 0 
L 794 0 
L 794 531 
z
" transform="scale(0.015625)"/>
       </defs>
       <use xlink:href="#DejaVuSans-30"/>
       <use xlink:href="#DejaVuSans-2e" x="63.623047"/>
       <use xlink:href="#DejaVuSans-31" x="95.410156"/>
       <use xlink:href="#DejaVuSans-30" x="159.033203"/>
      </g>
     </g>
    </g>
    <g id="ytick_18">
     <g id="line2d_18">
      <g>
       <use xlink:href="#m19912dd520" x="286.4135" y="212.125136" style="stroke: #000000; stroke-width: 0.8"/>
      </g>
     </g>
     <g id="text_22">
      <!-- 0.15 -->
      <g transform="translate(257.147875 215.924354)scale(0.1 -0.1)">
       <use xlink:href="#DejaVuSans-30"/>
       <use xlink:href="#DejaVuSans-2e" x="63.623047"/>
       <use xlink:href="#DejaVuSans-31" x="95.410156"/>
       <use xlink:href="#DejaVuSans-35" x="159.033203"/>
      </g>
     </g>
    </g>
    <g id="ytick_19">
     <g id="line2d_19">
      <g>
       <use xlink:href="#m19912dd520" x="286.4135" y="181.269007" style="stroke: #000000; stroke-width: 0.8"/>
      </g>
     </g>
     <g id="text_23">
      <!-- 0.20 -->
      <g transform="translate(257.147875 185.068226)scale(0.1 -0.1)">
       <defs>
        <path id="DejaVuSans-32" d="M 1228 531 
L 3431 531 
L 3431 0 
L 469 0 
L 469 531 
Q 828 903 1448 1529 
Q 2069 2156 2228 2338 
Q 2531 2678 2651 2914 
Q 2772 3150 2772 3378 
Q 2772 3750 2511 3984 
Q 2250 4219 1831 4219 
Q 1534 4219 1204 4116 
Q 875 4013 500 3803 
L 500 4441 
Q 881 4594 1212 4672 
Q 1544 4750 1819 4750 
Q 2544 4750 2975 4387 
Q 3406 4025 3406 3419 
Q 3406 3131 3298 2873 
Q 3191 2616 2906 2266 
Q 2828 2175 2409 1742 
Q 1991 1309 1228 531 
z
" transform="scale(0.015625)"/>
       </defs>
       <use xlink:href="#DejaVuSans-30"/>
       <use xlink:href="#DejaVuSans-2e" x="63.623047"/>
       <use xlink:href="#DejaVuSans-32" x="95.410156"/>
       <use xlink:href="#DejaVuSans-30" x="159.033203"/>
      </g>
     </g>
    </g>
    <g id="ytick_20">
     <g id="line2d_20">
      <g>
       <use xlink:href="#m19912dd520" x="286.4135" y="150.412879" style="stroke: #000000; stroke-width: 0.8"/>
      </g>
     </g>
     <g id="text_24">
      <!-- 0.25 -->
      <g transform="translate(257.147875 154.212098)scale(0.1 -0.1)">
       <use xlink:href="#DejaVuSans-30"/>
       <use xlink:href="#DejaVuSans-2e" x="63.623047"/>
       <use xlink:href="#DejaVuSans-32" x="95.410156"/>
       <use xlink:href="#DejaVuSans-35" x="159.033203"/>
      </g>
     </g>
    </g>
    <g id="ytick_21">
     <g id="line2d_21">
      <g>
       <use xlink:href="#m19912dd520" x="286.4135" y="119.556751" style="stroke: #000000; stroke-width: 0.8"/>
      </g>
     </g>
     <g id="text_25">
      <!-- 0.30 -->
      <g transform="translate(257.147875 123.35597)scale(0.1 -0.1)">
       <use xlink:href="#DejaVuSans-30"/>
       <use xlink:href="#DejaVuSans-2e" x="63.623047"/>
       <use xlink:href="#DejaVuSans-33" x="95.410156"/>
       <use xlink:href="#DejaVuSans-30" x="159.033203"/>
      </g>
     </g>
    </g>
    <g id="ytick_22">
     <g id="line2d_22">
      <g>
       <use xlink:href="#m19912dd520" x="286.4135" y="88.700623" style="stroke: #000000; stroke-width: 0.8"/>
      </g>
     </g>
     <g id="text_26">
      <!-- 0.35 -->
      <g transform="translate(257.147875 92.499842)scale(0.1 -0.1)">
       <use xlink:href="#DejaVuSans-30"/>
       <use xlink:href="#DejaVuSans-2e" x="63.623047"/>
       <use xlink:href="#DejaVuSans-33" x="95.410156"/>
       <use xlink:href="#DejaVuSans-35" x="159.033203"/>
      </g>
     </g>
    </g>
    <g id="ytick_23">
     <g id="line2d_23">
      <g>
       <use xlink:href="#m19912dd520" x="286.4135" y="57.844495" style="stroke: #000000; stroke-width: 0.8"/>
      </g>
     </g>
     <g id="text_27">
      <!-- 0.40 -->
      <g transform="translate(257.147875 61.643714)scale(0.1 -0.1)">
       <use xlink:href="#DejaVuSans-30"/>
       <use xlink:href="#DejaVuSans-2e" x="63.623047"/>
       <use xlink:href="#DejaVuSans-34" x="95.410156"/>
       <use xlink:href="#DejaVuSans-30" x="159.033203"/>
      </g>
     </g>
    </g>
    <g id="text_28">
     <!-- MSE [$\AA$] -->
     <g transform="translate(251.068187 179.97)rotate(-90)scale(0.1 -0.1)">
      <use xlink:href="#DejaVuSans-4d" transform="translate(0 0.171875)"/>
      <use xlink:href="#DejaVuSans-53" transform="translate(86.279297 0.171875)"/>
      <use xlink:href="#DejaVuSans-45" transform="translate(149.755859 0.171875)"/>
      <use xlink:href="#DejaVuSans-20" transform="translate(212.939453 0.171875)"/>
      <use xlink:href="#DejaVuSans-5b" transform="translate(244.726562 0.171875)"/>
      <use xlink:href="#DejaVuSans-Oblique-c5" transform="translate(283.740234 0.171875)"/>
      <use xlink:href="#DejaVuSans-5d" transform="translate(352.148438 0.171875)"/>
     </g>
    </g>
   </g>
   <g id="LineCollection_9">
    <path d="M 299.955909 178.198256 
L 322.526591 178.198256 
" clip-path="url(#pdc4c54ffe1)" style="fill: none; stroke: #1f77b4; stroke-width: 1.5"/>
   </g>
   <g id="LineCollection_10">
    <path d="M 299.955909 57.342727 
L 322.526591 57.342727 
" clip-path="url(#pdc4c54ffe1)" style="fill: none; stroke: #1f77b4; stroke-width: 1.5"/>
   </g>
   <g id="LineCollection_11">
    <path d="M 299.955909 263.397273 
L 322.526591 263.397273 
" clip-path="url(#pdc4c54ffe1)" style="fill: none; stroke: #1f77b4; stroke-width: 1.5"/>
   </g>
   <g id="LineCollection_12">
    <path d="M 311.24125 263.397273 
L 311.24125 57.342727 
" clip-path="url(#pdc4c54ffe1)" style="fill: none; stroke: #1f77b4; stroke-width: 1.5"/>
   </g>
   <g id="patch_13">
    <path d="M 286.4135 273.7 
L 286.4135 47.04 
" style="fill: none; stroke: #000000; stroke-width: 0.8; stroke-linejoin: miter; stroke-linecap: square"/>
   </g>
   <g id="patch_14">
    <path d="M 336.069 273.7 
L 336.069 47.04 
" style="fill: none; stroke: #000000; stroke-width: 0.8; stroke-linejoin: miter; stroke-linecap: square"/>
   </g>
   <g id="patch_15">
    <path d="M 286.4135 273.7 
L 336.069 273.7 
" style="fill: none; stroke: #000000; stroke-width: 0.8; stroke-linejoin: miter; stroke-linecap: square"/>
   </g>
   <g id="patch_16">
    <path d="M 286.4135 47.04 
L 336.069 47.04 
" style="fill: none; stroke: #000000; stroke-width: 0.8; stroke-linejoin: miter; stroke-linecap: square"/>
   </g>
   <g id="text_29">
    <!-- MSE -->
    <g transform="translate(298.464063 41.04)scale(0.12 -0.12)">
     <use xlink:href="#DejaVuSans-4d"/>
     <use xlink:href="#DejaVuSans-53" x="86.279297"/>
     <use xlink:href="#DejaVuSans-45" x="149.755859"/>
    </g>
   </g>
  </g>
  <g id="axes_4">
   <g id="patch_17">
    <path d="M 400.979 273.7 
L 450.6345 273.7 
L 450.6345 47.04 
L 400.979 47.04 
z
" style="fill: #ffffff"/>
   </g>
   <g id="PolyCollection_4">
    <path d="M 426.171665 263.397273 
L 425.441835 263.397273 
L 425.384779 261.315914 
L 425.317655 259.234555 
L 425.236904 257.153196 
L 425.138976 255.071837 
L 425.021005 252.990478 
L 424.881493 250.909118 
L 424.720855 248.827759 
L 424.54161 246.7464 
L 424.348119 244.665041 
L 424.145783 242.583682 
L 423.939799 240.502323 
L 423.733667 238.420964 
L 423.527744 236.339605 
L 423.318191 234.258246 
L 423.096573 232.176887 
L 422.850273 230.095528 
L 422.563694 228.014169 
L 422.220057 225.93281 
L 421.80347 223.851451 
L 421.300892 221.770092 
L 420.703662 219.688733 
L 420.008383 217.607374 
L 419.217134 215.526015 
L 418.337134 213.444656 
L 417.380135 211.363297 
L 416.361755 209.281938 
L 415.300894 207.200579 
L 414.219164 205.119219 
L 413.140133 203.03786 
L 412.088167 200.956501 
L 411.086804 198.875142 
L 410.156809 196.793783 
L 409.314299 194.712424 
L 408.569389 192.631065 
L 407.925653 190.549706 
L 407.380471 188.468347 
L 406.926015 186.386988 
L 406.550538 184.305629 
L 406.239624 182.22427 
L 405.977293 180.142911 
L 405.746979 178.061552 
L 405.532561 175.980193 
L 405.31956 173.898834 
L 405.096479 171.817475 
L 404.856183 169.736116 
L 404.597051 167.654757 
L 404.323672 165.573398 
L 404.04682 163.492039 
L 403.782545 161.41068 
L 403.550332 159.32932 
L 403.370508 157.247961 
L 403.261285 155.166602 
L 403.236068 153.085243 
L 403.301628 151.003884 
L 403.457604 148.922525 
L 403.697417 146.841166 
L 404.010287 144.759807 
L 404.383778 142.678448 
L 404.806242 140.597089 
L 405.268636 138.51573 
L 405.765443 136.434371 
L 406.294604 134.353012 
L 406.856565 132.271653 
L 407.452629 130.190294 
L 408.082934 128.108935 
L 408.744502 126.027576 
L 409.429876 123.946217 
L 410.126836 121.864858 
L 410.81945 119.783499 
L 411.490413 117.70214 
L 412.124234 115.620781 
L 412.710577 113.539421 
L 413.246953 111.458062 
L 413.740095 109.376703 
L 414.205586 107.295344 
L 414.665675 105.213985 
L 415.145606 103.132626 
L 415.669098 101.051267 
L 416.253868 98.969908 
L 416.908126 96.888549 
L 417.628794 94.80719 
L 418.401826 92.725831 
L 419.204528 90.644472 
L 420.009274 88.563113 
L 420.787732 86.481754 
L 421.514701 84.400395 
L 422.17086 82.319036 
L 422.744107 80.237677 
L 423.229584 78.156318 
L 423.628728 76.074959 
L 423.947822 73.9936 
L 424.196454 71.912241 
L 424.386146 69.830882 
L 424.529256 67.749522 
L 424.638115 65.668163 
L 424.724322 63.586804 
L 424.798127 61.505445 
L 424.867891 59.424086 
L 424.939656 57.342727 
L 426.673844 57.342727 
L 426.673844 57.342727 
L 426.745609 59.424086 
L 426.815373 61.505445 
L 426.889178 63.586804 
L 426.975385 65.668163 
L 427.084244 67.749522 
L 427.227354 69.830882 
L 427.417046 71.912241 
L 427.665678 73.9936 
L 427.984772 76.074959 
L 428.383916 78.156318 
L 428.869393 80.237677 
L 429.44264 82.319036 
L 430.098799 84.400395 
L 430.825768 86.481754 
L 431.604226 88.563113 
L 432.408972 90.644472 
L 433.211674 92.725831 
L 433.984706 94.80719 
L 434.705374 96.888549 
L 435.359632 98.969908 
L 435.944402 101.051267 
L 436.467894 103.132626 
L 436.947825 105.213985 
L 437.407914 107.295344 
L 437.873405 109.376703 
L 438.366547 111.458062 
L 438.902923 113.539421 
L 439.489266 115.620781 
L 440.123087 117.70214 
L 440.79405 119.783499 
L 441.486664 121.864858 
L 442.183624 123.946217 
L 442.868998 126.027576 
L 443.530566 128.108935 
L 444.160871 130.190294 
L 444.756935 132.271653 
L 445.318896 134.353012 
L 445.848057 136.434371 
L 446.344864 138.51573 
L 446.807258 140.597089 
L 447.229722 142.678448 
L 447.603213 144.759807 
L 447.916083 146.841166 
L 448.155896 148.922525 
L 448.311872 151.003884 
L 448.377432 153.085243 
L 448.352215 155.166602 
L 448.242992 157.247961 
L 448.063168 159.32932 
L 447.830955 161.41068 
L 447.56668 163.492039 
L 447.289828 165.573398 
L 447.016449 167.654757 
L 446.757317 169.736116 
L 446.517021 171.817475 
L 446.29394 173.898834 
L 446.080939 175.980193 
L 445.866521 178.061552 
L 445.636207 180.142911 
L 445.373876 182.22427 
L 445.062962 184.305629 
L 444.687485 186.386988 
L 444.233029 188.468347 
L 443.687847 190.549706 
L 443.044111 192.631065 
L 442.299201 194.712424 
L 441.456691 196.793783 
L 440.526696 198.875142 
L 439.525333 200.956501 
L 438.473367 203.03786 
L 437.394336 205.119219 
L 436.312606 207.200579 
L 435.251745 209.281938 
L 434.233365 211.363297 
L 433.276366 213.444656 
L 432.396366 215.526015 
L 431.605117 217.607374 
L 430.909838 219.688733 
L 430.312608 221.770092 
L 429.81003 223.851451 
L 429.393443 225.93281 
L 429.049806 228.014169 
L 428.763227 230.095528 
L 428.516927 232.176887 
L 428.295309 234.258246 
L 428.085756 236.339605 
L 427.879833 238.420964 
L 427.673701 240.502323 
L 427.467717 242.583682 
L 427.265381 244.665041 
L 427.07189 246.7464 
L 426.892645 248.827759 
L 426.732007 250.909118 
L 426.592495 252.990478 
L 426.474524 255.071837 
L 426.376596 257.153196 
L 426.295845 259.234555 
L 426.228721 261.315914 
L 426.171665 263.397273 
z
" clip-path="url(#p471320c87c)" style="fill: #1f77b4; fill-opacity: 0.3"/>
   </g>
   <g id="matplotlib.axis_4">
    <g id="ytick_24">
     <g id="line2d_24">
      <g>
       <use xlink:href="#m19912dd520" x="400.979" y="262.023576" style="stroke: #000000; stroke-width: 0.8"/>
      </g>
     </g>
     <g id="text_30">
      <!-- 0.1 -->
      <g transform="translate(378.075875 265.822795)scale(0.1 -0.1)">
       <use xlink:href="#DejaVuSans-30"/>
       <use xlink:href="#DejaVuSans-2e" x="63.623047"/>
       <use xlink:href="#DejaVuSans-31" x="95.410156"/>
      </g>
     </g>
    </g>
    <g id="ytick_25">
     <g id="line2d_25">
      <g>
       <use xlink:href="#m19912dd520" x="400.979" y="219.43897" style="stroke: #000000; stroke-width: 0.8"/>
      </g>
     </g>
     <g id="text_31">
      <!-- 0.2 -->
      <g transform="translate(378.075875 223.238188)scale(0.1 -0.1)">
       <use xlink:href="#DejaVuSans-30"/>
       <use xlink:href="#DejaVuSans-2e" x="63.623047"/>
       <use xlink:href="#DejaVuSans-32" x="95.410156"/>
      </g>
     </g>
    </g>
    <g id="ytick_26">
     <g id="line2d_26">
      <g>
       <use xlink:href="#m19912dd520" x="400.979" y="176.854364" style="stroke: #000000; stroke-width: 0.8"/>
      </g>
     </g>
     <g id="text_32">
      <!-- 0.3 -->
      <g transform="translate(378.075875 180.653582)scale(0.1 -0.1)">
       <use xlink:href="#DejaVuSans-30"/>
       <use xlink:href="#DejaVuSans-2e" x="63.623047"/>
       <use xlink:href="#DejaVuSans-33" x="95.410156"/>
      </g>
     </g>
    </g>
    <g id="ytick_27">
     <g id="line2d_27">
      <g>
       <use xlink:href="#m19912dd520" x="400.979" y="134.269758" style="stroke: #000000; stroke-width: 0.8"/>
      </g>
     </g>
     <g id="text_33">
      <!-- 0.4 -->
      <g transform="translate(378.075875 138.068976)scale(0.1 -0.1)">
       <use xlink:href="#DejaVuSans-30"/>
       <use xlink:href="#DejaVuSans-2e" x="63.623047"/>
       <use xlink:href="#DejaVuSans-34" x="95.410156"/>
      </g>
     </g>
    </g>
    <g id="ytick_28">
     <g id="line2d_28">
      <g>
       <use xlink:href="#m19912dd520" x="400.979" y="91.685152" style="stroke: #000000; stroke-width: 0.8"/>
      </g>
     </g>
     <g id="text_34">
      <!-- 0.5 -->
      <g transform="translate(378.075875 95.48437)scale(0.1 -0.1)">
       <use xlink:href="#DejaVuSans-30"/>
       <use xlink:href="#DejaVuSans-2e" x="63.623047"/>
       <use xlink:href="#DejaVuSans-35" x="95.410156"/>
      </g>
     </g>
    </g>
    <g id="ytick_29">
     <g id="line2d_29">
      <g>
       <use xlink:href="#m19912dd520" x="400.979" y="49.100545" style="stroke: #000000; stroke-width: 0.8"/>
      </g>
     </g>
     <g id="text_35">
      <!-- 0.6 -->
      <g transform="translate(378.075875 52.899764)scale(0.1 -0.1)">
       <use xlink:href="#DejaVuSans-30"/>
       <use xlink:href="#DejaVuSans-2e" x="63.623047"/>
       <use xlink:href="#DejaVuSans-36" x="95.410156"/>
      </g>
     </g>
    </g>
    <g id="text_36">
     <!-- % NOE fulfilled [1/100 %] -->
     <g transform="translate(371.996187 223.870781)rotate(-90)scale(0.1 -0.1)">
      <defs>
       <path id="DejaVuSans-25" d="M 4653 2053 
Q 4381 2053 4226 1822 
Q 4072 1591 4072 1178 
Q 4072 772 4226 539 
Q 4381 306 4653 306 
Q 4919 306 5073 539 
Q 5228 772 5228 1178 
Q 5228 1588 5073 1820 
Q 4919 2053 4653 2053 
z
M 4653 2450 
Q 5147 2450 5437 2106 
Q 5728 1763 5728 1178 
Q 5728 594 5436 251 
Q 5144 -91 4653 -91 
Q 4153 -91 3862 251 
Q 3572 594 3572 1178 
Q 3572 1766 3864 2108 
Q 4156 2450 4653 2450 
z
M 1428 4353 
Q 1159 4353 1004 4120 
Q 850 3888 850 3481 
Q 850 3069 1003 2837 
Q 1156 2606 1428 2606 
Q 1700 2606 1854 2837 
Q 2009 3069 2009 3481 
Q 2009 3884 1853 4118 
Q 1697 4353 1428 4353 
z
M 4250 4750 
L 4750 4750 
L 1831 -91 
L 1331 -91 
L 4250 4750 
z
M 1428 4750 
Q 1922 4750 2215 4408 
Q 2509 4066 2509 3481 
Q 2509 2891 2217 2550 
Q 1925 2209 1428 2209 
Q 931 2209 642 2551 
Q 353 2894 353 3481 
Q 353 4063 643 4406 
Q 934 4750 1428 4750 
z
" transform="scale(0.015625)"/>
       <path id="DejaVuSans-4e" d="M 628 4666 
L 1478 4666 
L 3547 763 
L 3547 4666 
L 4159 4666 
L 4159 0 
L 3309 0 
L 1241 3903 
L 1241 0 
L 628 0 
L 628 4666 
z
" transform="scale(0.015625)"/>
       <path id="DejaVuSans-4f" d="M 2522 4238 
Q 1834 4238 1429 3725 
Q 1025 3213 1025 2328 
Q 1025 1447 1429 934 
Q 1834 422 2522 422 
Q 3209 422 3611 934 
Q 4013 1447 4013 2328 
Q 4013 3213 3611 3725 
Q 3209 4238 2522 4238 
z
M 2522 4750 
Q 3503 4750 4090 4092 
Q 4678 3434 4678 2328 
Q 4678 1225 4090 567 
Q 3503 -91 2522 -91 
Q 1538 -91 948 565 
Q 359 1222 359 2328 
Q 359 3434 948 4092 
Q 1538 4750 2522 4750 
z
" transform="scale(0.015625)"/>
       <path id="DejaVuSans-66" d="M 2375 4863 
L 2375 4384 
L 1825 4384 
Q 1516 4384 1395 4259 
Q 1275 4134 1275 3809 
L 1275 3500 
L 2222 3500 
L 2222 3053 
L 1275 3053 
L 1275 0 
L 697 0 
L 697 3053 
L 147 3053 
L 147 3500 
L 697 3500 
L 697 3744 
Q 697 4328 969 4595 
Q 1241 4863 1831 4863 
L 2375 4863 
z
" transform="scale(0.015625)"/>
       <path id="DejaVuSans-75" d="M 544 1381 
L 544 3500 
L 1119 3500 
L 1119 1403 
Q 1119 906 1312 657 
Q 1506 409 1894 409 
Q 2359 409 2629 706 
Q 2900 1003 2900 1516 
L 2900 3500 
L 3475 3500 
L 3475 0 
L 2900 0 
L 2900 538 
Q 2691 219 2414 64 
Q 2138 -91 1772 -91 
Q 1169 -91 856 284 
Q 544 659 544 1381 
z
M 1991 3584 
L 1991 3584 
z
" transform="scale(0.015625)"/>
       <path id="DejaVuSans-6c" d="M 603 4863 
L 1178 4863 
L 1178 0 
L 603 0 
L 603 4863 
z
" transform="scale(0.015625)"/>
       <path id="DejaVuSans-69" d="M 603 3500 
L 1178 3500 
L 1178 0 
L 603 0 
L 603 3500 
z
M 603 4863 
L 1178 4863 
L 1178 4134 
L 603 4134 
L 603 4863 
z
" transform="scale(0.015625)"/>
       <path id="DejaVuSans-65" d="M 3597 1894 
L 3597 1613 
L 953 1613 
Q 991 1019 1311 708 
Q 1631 397 2203 397 
Q 2534 397 2845 478 
Q 3156 559 3463 722 
L 3463 178 
Q 3153 47 2828 -22 
Q 2503 -91 2169 -91 
Q 1331 -91 842 396 
Q 353 884 353 1716 
Q 353 2575 817 3079 
Q 1281 3584 2069 3584 
Q 2775 3584 3186 3129 
Q 3597 2675 3597 1894 
z
M 3022 2063 
Q 3016 2534 2758 2815 
Q 2500 3097 2075 3097 
Q 1594 3097 1305 2825 
Q 1016 2553 972 2059 
L 3022 2063 
z
" transform="scale(0.015625)"/>
       <path id="DejaVuSans-64" d="M 2906 2969 
L 2906 4863 
L 3481 4863 
L 3481 0 
L 2906 0 
L 2906 525 
Q 2725 213 2448 61 
Q 2172 -91 1784 -91 
Q 1150 -91 751 415 
Q 353 922 353 1747 
Q 353 2572 751 3078 
Q 1150 3584 1784 3584 
Q 2172 3584 2448 3432 
Q 2725 3281 2906 2969 
z
M 947 1747 
Q 947 1113 1208 752 
Q 1469 391 1925 391 
Q 2381 391 2643 752 
Q 2906 1113 2906 1747 
Q 2906 2381 2643 2742 
Q 2381 3103 1925 3103 
Q 1469 3103 1208 2742 
Q 947 2381 947 1747 
z
" transform="scale(0.015625)"/>
       <path id="DejaVuSans-2f" d="M 1625 4666 
L 2156 4666 
L 531 -594 
L 0 -594 
L 1625 4666 
z
" transform="scale(0.015625)"/>
      </defs>
      <use xlink:href="#DejaVuSans-25"/>
      <use xlink:href="#DejaVuSans-20" x="95.019531"/>
      <use xlink:href="#DejaVuSans-4e" x="126.806641"/>
      <use xlink:href="#DejaVuSans-4f" x="201.611328"/>
      <use xlink:href="#DejaVuSans-45" x="280.322266"/>
      <use xlink:href="#DejaVuSans-20" x="343.505859"/>
      <use xlink:href="#DejaVuSans-66" x="375.292969"/>
      <use xlink:href="#DejaVuSans-75" x="410.498047"/>
      <use xlink:href="#DejaVuSans-6c" x="473.876953"/>
      <use xlink:href="#DejaVuSans-66" x="501.660156"/>
      <use xlink:href="#DejaVuSans-69" x="536.865234"/>
      <use xlink:href="#DejaVuSans-6c" x="564.648438"/>
      <use xlink:href="#DejaVuSans-6c" x="592.431641"/>
      <use xlink:href="#DejaVuSans-65" x="620.214844"/>
      <use xlink:href="#DejaVuSans-64" x="681.738281"/>
      <use xlink:href="#DejaVuSans-20" x="745.214844"/>
      <use xlink:href="#DejaVuSans-5b" x="777.001953"/>
      <use xlink:href="#DejaVuSans-31" x="816.015625"/>
      <use xlink:href="#DejaVuSans-2f" x="879.638672"/>
      <use xlink:href="#DejaVuSans-31" x="913.330078"/>
      <use xlink:href="#DejaVuSans-30" x="976.953125"/>
      <use xlink:href="#DejaVuSans-30" x="1040.576172"/>
      <use xlink:href="#DejaVuSans-20" x="1104.199219"/>
      <use xlink:href="#DejaVuSans-25" x="1135.986328"/>
      <use xlink:href="#DejaVuSans-5d" x="1231.005859"/>
     </g>
    </g>
   </g>
   <g id="LineCollection_13">
    <path d="M 414.521409 155.630745 
L 437.092091 155.630745 
" clip-path="url(#p471320c87c)" style="fill: none; stroke: #1f77b4; stroke-width: 1.5"/>
   </g>
   <g id="LineCollection_14">
    <path d="M 414.521409 57.342727 
L 437.092091 57.342727 
" clip-path="url(#p471320c87c)" style="fill: none; stroke: #1f77b4; stroke-width: 1.5"/>
   </g>
   <g id="LineCollection_15">
    <path d="M 414.521409 263.397273 
L 437.092091 263.397273 
" clip-path="url(#p471320c87c)" style="fill: none; stroke: #1f77b4; stroke-width: 1.5"/>
   </g>
   <g id="LineCollection_16">
    <path d="M 425.80675 263.397273 
L 425.80675 57.342727 
" clip-path="url(#p471320c87c)" style="fill: none; stroke: #1f77b4; stroke-width: 1.5"/>
   </g>
   <g id="patch_18">
    <path d="M 400.979 273.7 
L 400.979 47.04 
" style="fill: none; stroke: #000000; stroke-width: 0.8; stroke-linejoin: miter; stroke-linecap: square"/>
   </g>
   <g id="patch_19">
    <path d="M 450.6345 273.7 
L 450.6345 47.04 
" style="fill: none; stroke: #000000; stroke-width: 0.8; stroke-linejoin: miter; stroke-linecap: square"/>
   </g>
   <g id="patch_20">
    <path d="M 400.979 273.7 
L 450.6345 273.7 
" style="fill: none; stroke: #000000; stroke-width: 0.8; stroke-linejoin: miter; stroke-linecap: square"/>
   </g>
   <g id="patch_21">
    <path d="M 400.979 47.04 
L 450.6345 47.04 
" style="fill: none; stroke: #000000; stroke-width: 0.8; stroke-linejoin: miter; stroke-linecap: square"/>
   </g>
   <g id="text_37">
    <!-- % NOE fulfilled -->
    <g transform="translate(381.093625 41.04)scale(0.12 -0.12)">
     <use xlink:href="#DejaVuSans-25"/>
     <use xlink:href="#DejaVuSans-20" x="95.019531"/>
     <use xlink:href="#DejaVuSans-4e" x="126.806641"/>
     <use xlink:href="#DejaVuSans-4f" x="201.611328"/>
     <use xlink:href="#DejaVuSans-45" x="280.322266"/>
     <use xlink:href="#DejaVuSans-20" x="343.505859"/>
     <use xlink:href="#DejaVuSans-66" x="375.292969"/>
     <use xlink:href="#DejaVuSans-75" x="410.498047"/>
     <use xlink:href="#DejaVuSans-6c" x="473.876953"/>
     <use xlink:href="#DejaVuSans-66" x="501.660156"/>
     <use xlink:href="#DejaVuSans-69" x="536.865234"/>
     <use xlink:href="#DejaVuSans-6c" x="564.648438"/>
     <use xlink:href="#DejaVuSans-6c" x="592.431641"/>
     <use xlink:href="#DejaVuSans-65" x="620.214844"/>
     <use xlink:href="#DejaVuSans-64" x="681.738281"/>
    </g>
   </g>
  </g>
  <g id="axes_5">
   <g id="patch_22">
    <path d="M 515.5445 273.7 
L 565.2 273.7 
L 565.2 47.04 
L 515.5445 47.04 
z
" style="fill: #ffffff"/>
   </g>
   <g id="PolyCollection_5">
    <path d="M 541.695934 263.397273 
L 539.048566 263.397273 
L 538.743276 261.315914 
L 538.385749 259.234555 
L 537.969644 257.153196 
L 537.487809 255.071837 
L 536.932272 252.990478 
L 536.294449 250.909118 
L 535.565638 248.827759 
L 534.73786 246.7464 
L 533.805024 244.665041 
L 532.764356 242.583682 
L 531.61791 240.502323 
L 530.373956 238.420964 
L 529.047976 236.339605 
L 527.663022 234.258246 
L 526.249234 232.176887 
L 524.842451 230.095528 
L 523.481941 228.014169 
L 522.207468 225.93281 
L 521.056014 223.851451 
L 520.058592 221.770092 
L 519.237575 219.688733 
L 518.604986 217.607374 
L 518.161995 215.526015 
L 517.89977 213.444656 
L 517.801568 211.363297 
L 517.845778 209.281938 
L 518.009433 207.200579 
L 518.27165 205.119219 
L 518.616424 203.03786 
L 519.034316 200.956501 
L 519.522788 198.875142 
L 520.085127 196.793783 
L 520.728219 194.712424 
L 521.459576 192.631065 
L 522.2842 190.549706 
L 523.201848 188.468347 
L 524.205199 186.386988 
L 525.279201 184.305629 
L 526.401704 182.22427 
L 527.545186 180.142911 
L 528.679261 178.061552 
L 529.77351 175.980193 
L 530.800186 173.898834 
L 531.736428 171.817475 
L 532.565729 169.736116 
L 533.278577 167.654757 
L 533.872339 165.573398 
L 534.350528 163.492039 
L 534.721678 161.41068 
L 534.998043 159.32932 
L 535.194275 157.247961 
L 535.326214 155.166602 
L 535.409833 153.085243 
L 535.46036 151.003884 
L 535.491566 148.922525 
L 535.515215 146.841166 
L 535.540662 144.759807 
L 535.574619 142.678448 
L 535.621094 140.597089 
L 535.681513 138.51573 
L 535.755006 136.434371 
L 535.838843 134.353012 
L 535.928956 132.271653 
L 536.020504 130.190294 
L 536.108405 128.108935 
L 536.187822 126.027576 
L 536.254536 123.946217 
L 536.305236 121.864858 
L 536.337705 119.783499 
L 536.350942 117.70214 
L 536.34521 115.620781 
L 536.322035 113.539421 
L 536.284151 111.458062 
L 536.235387 109.376703 
L 536.180484 107.295344 
L 536.12486 105.213985 
L 536.074312 103.132626 
L 536.034688 101.051267 
L 536.011545 98.969908 
L 536.009822 96.888549 
L 536.033549 94.80719 
L 536.085622 92.725831 
L 536.167643 90.644472 
L 536.279843 88.563113 
L 536.4211 86.481754 
L 536.589037 84.400395 
L 536.780211 82.319036 
L 536.990364 80.237677 
L 537.214735 78.156318 
L 537.448385 76.074959 
L 537.686505 73.9936 
L 537.924684 71.912241 
L 538.159097 69.830882 
L 538.386602 67.749522 
L 538.604754 65.668163 
L 538.811744 63.586804 
L 539.006291 61.505445 
L 539.187517 59.424086 
L 539.354837 57.342727 
L 541.389663 57.342727 
L 541.389663 57.342727 
L 541.556983 59.424086 
L 541.738209 61.505445 
L 541.932756 63.586804 
L 542.139746 65.668163 
L 542.357898 67.749522 
L 542.585403 69.830882 
L 542.819816 71.912241 
L 543.057995 73.9936 
L 543.296115 76.074959 
L 543.529765 78.156318 
L 543.754136 80.237677 
L 543.964289 82.319036 
L 544.155463 84.400395 
L 544.3234 86.481754 
L 544.464657 88.563113 
L 544.576857 90.644472 
L 544.658878 92.725831 
L 544.710951 94.80719 
L 544.734678 96.888549 
L 544.732955 98.969908 
L 544.709812 101.051267 
L 544.670188 103.132626 
L 544.61964 105.213985 
L 544.564016 107.295344 
L 544.509113 109.376703 
L 544.460349 111.458062 
L 544.422465 113.539421 
L 544.39929 115.620781 
L 544.393558 117.70214 
L 544.406795 119.783499 
L 544.439264 121.864858 
L 544.489964 123.946217 
L 544.556678 126.027576 
L 544.636095 128.108935 
L 544.723996 130.190294 
L 544.815544 132.271653 
L 544.905657 134.353012 
L 544.989494 136.434371 
L 545.062987 138.51573 
L 545.123406 140.597089 
L 545.169881 142.678448 
L 545.203838 144.759807 
L 545.229285 146.841166 
L 545.252934 148.922525 
L 545.28414 151.003884 
L 545.334667 153.085243 
L 545.418286 155.166602 
L 545.550225 157.247961 
L 545.746457 159.32932 
L 546.022822 161.41068 
L 546.393972 163.492039 
L 546.872161 165.573398 
L 547.465923 167.654757 
L 548.178771 169.736116 
L 549.008072 171.817475 
L 549.944314 173.898834 
L 550.97099 175.980193 
L 552.065239 178.061552 
L 553.199314 180.142911 
L 554.342796 182.22427 
L 555.465299 184.305629 
L 556.539301 186.386988 
L 557.542652 188.468347 
L 558.4603 190.549706 
L 559.284924 192.631065 
L 560.016281 194.712424 
L 560.659373 196.793783 
L 561.221712 198.875142 
L 561.710184 200.956501 
L 562.128076 203.03786 
L 562.47285 205.119219 
L 562.735067 207.200579 
L 562.898722 209.281938 
L 562.942932 211.363297 
L 562.84473 213.444656 
L 562.582505 215.526015 
L 562.139514 217.607374 
L 561.506925 219.688733 
L 560.685908 221.770092 
L 559.688486 223.851451 
L 558.537032 225.93281 
L 557.262559 228.014169 
L 555.902049 230.095528 
L 554.495266 232.176887 
L 553.081478 234.258246 
L 551.696524 236.339605 
L 550.370544 238.420964 
L 549.12659 240.502323 
L 547.980144 242.583682 
L 546.939476 244.665041 
L 546.00664 246.7464 
L 545.178862 248.827759 
L 544.450051 250.909118 
L 543.812228 252.990478 
L 543.256691 255.071837 
L 542.774856 257.153196 
L 542.358751 259.234555 
L 542.001224 261.315914 
L 541.695934 263.397273 
z
" clip-path="url(#pad1ee412e7)" style="fill: #1f77b4; fill-opacity: 0.3"/>
   </g>
   <g id="matplotlib.axis_5">
    <g id="ytick_30">
     <g id="line2d_30">
      <g>
       <use xlink:href="#m19912dd520" x="515.5445" y="259.185462" style="stroke: #000000; stroke-width: 0.8"/>
      </g>
     </g>
     <g id="text_38">
      <!-- 0.100 -->
      <g transform="translate(479.916375 262.984681)scale(0.1 -0.1)">
       <use xlink:href="#DejaVuSans-30"/>
       <use xlink:href="#DejaVuSans-2e" x="63.623047"/>
       <use xlink:href="#DejaVuSans-31" x="95.410156"/>
       <use xlink:href="#DejaVuSans-30" x="159.033203"/>
       <use xlink:href="#DejaVuSans-30" x="222.65625"/>
      </g>
     </g>
    </g>
    <g id="ytick_31">
     <g id="line2d_31">
      <g>
       <use xlink:href="#m19912dd520" x="515.5445" y="233.817117" style="stroke: #000000; stroke-width: 0.8"/>
      </g>
     </g>
     <g id="text_39">
      <!-- 0.125 -->
      <g transform="translate(479.916375 237.616336)scale(0.1 -0.1)">
       <use xlink:href="#DejaVuSans-30"/>
       <use xlink:href="#DejaVuSans-2e" x="63.623047"/>
       <use xlink:href="#DejaVuSans-31" x="95.410156"/>
       <use xlink:href="#DejaVuSans-32" x="159.033203"/>
       <use xlink:href="#DejaVuSans-35" x="222.65625"/>
      </g>
     </g>
    </g>
    <g id="ytick_32">
     <g id="line2d_32">
      <g>
       <use xlink:href="#m19912dd520" x="515.5445" y="208.448772" style="stroke: #000000; stroke-width: 0.8"/>
      </g>
     </g>
     <g id="text_40">
      <!-- 0.150 -->
      <g transform="translate(479.916375 212.247991)scale(0.1 -0.1)">
       <use xlink:href="#DejaVuSans-30"/>
       <use xlink:href="#DejaVuSans-2e" x="63.623047"/>
       <use xlink:href="#DejaVuSans-31" x="95.410156"/>
       <use xlink:href="#DejaVuSans-35" x="159.033203"/>
       <use xlink:href="#DejaVuSans-30" x="222.65625"/>
      </g>
     </g>
    </g>
    <g id="ytick_33">
     <g id="line2d_33">
      <g>
       <use xlink:href="#m19912dd520" x="515.5445" y="183.080427" style="stroke: #000000; stroke-width: 0.8"/>
      </g>
     </g>
     <g id="text_41">
      <!-- 0.175 -->
      <g transform="translate(479.916375 186.879646)scale(0.1 -0.1)">
       <use xlink:href="#DejaVuSans-30"/>
       <use xlink:href="#DejaVuSans-2e" x="63.623047"/>
       <use xlink:href="#DejaVuSans-31" x="95.410156"/>
       <use xlink:href="#DejaVuSans-37" x="159.033203"/>
       <use xlink:href="#DejaVuSans-35" x="222.65625"/>
      </g>
     </g>
    </g>
    <g id="ytick_34">
     <g id="line2d_34">
      <g>
       <use xlink:href="#m19912dd520" x="515.5445" y="157.712082" style="stroke: #000000; stroke-width: 0.8"/>
      </g>
     </g>
     <g id="text_42">
      <!-- 0.200 -->
      <g transform="translate(479.916375 161.511301)scale(0.1 -0.1)">
       <use xlink:href="#DejaVuSans-30"/>
       <use xlink:href="#DejaVuSans-2e" x="63.623047"/>
       <use xlink:href="#DejaVuSans-32" x="95.410156"/>
       <use xlink:href="#DejaVuSans-30" x="159.033203"/>
       <use xlink:href="#DejaVuSans-30" x="222.65625"/>
      </g>
     </g>
    </g>
    <g id="ytick_35">
     <g id="line2d_35">
      <g>
       <use xlink:href="#m19912dd520" x="515.5445" y="132.343737" style="stroke: #000000; stroke-width: 0.8"/>
      </g>
     </g>
     <g id="text_43">
      <!-- 0.225 -->
      <g transform="translate(479.916375 136.142956)scale(0.1 -0.1)">
       <use xlink:href="#DejaVuSans-30"/>
       <use xlink:href="#DejaVuSans-2e" x="63.623047"/>
       <use xlink:href="#DejaVuSans-32" x="95.410156"/>
       <use xlink:href="#DejaVuSans-32" x="159.033203"/>
       <use xlink:href="#DejaVuSans-35" x="222.65625"/>
      </g>
     </g>
    </g>
    <g id="ytick_36">
     <g id="line2d_36">
      <g>
       <use xlink:href="#m19912dd520" x="515.5445" y="106.975392" style="stroke: #000000; stroke-width: 0.8"/>
      </g>
     </g>
     <g id="text_44">
      <!-- 0.250 -->
      <g transform="translate(479.916375 110.774611)scale(0.1 -0.1)">
       <use xlink:href="#DejaVuSans-30"/>
       <use xlink:href="#DejaVuSans-2e" x="63.623047"/>
       <use xlink:href="#DejaVuSans-32" x="95.410156"/>
       <use xlink:href="#DejaVuSans-35" x="159.033203"/>
       <use xlink:href="#DejaVuSans-30" x="222.65625"/>
      </g>
     </g>
    </g>
    <g id="ytick_37">
     <g id="line2d_37">
      <g>
       <use xlink:href="#m19912dd520" x="515.5445" y="81.607048" style="stroke: #000000; stroke-width: 0.8"/>
      </g>
     </g>
     <g id="text_45">
      <!-- 0.275 -->
      <g transform="translate(479.916375 85.406266)scale(0.1 -0.1)">
       <use xlink:href="#DejaVuSans-30"/>
       <use xlink:href="#DejaVuSans-2e" x="63.623047"/>
       <use xlink:href="#DejaVuSans-32" x="95.410156"/>
       <use xlink:href="#DejaVuSans-37" x="159.033203"/>
       <use xlink:href="#DejaVuSans-35" x="222.65625"/>
      </g>
     </g>
    </g>
    <g id="ytick_38">
     <g id="line2d_38">
      <g>
       <use xlink:href="#m19912dd520" x="515.5445" y="56.238703" style="stroke: #000000; stroke-width: 0.8"/>
      </g>
     </g>
     <g id="text_46">
      <!-- 0.300 -->
      <g transform="translate(479.916375 60.037921)scale(0.1 -0.1)">
       <use xlink:href="#DejaVuSans-30"/>
       <use xlink:href="#DejaVuSans-2e" x="63.623047"/>
       <use xlink:href="#DejaVuSans-33" x="95.410156"/>
       <use xlink:href="#DejaVuSans-30" x="159.033203"/>
       <use xlink:href="#DejaVuSans-30" x="222.65625"/>
      </g>
     </g>
    </g>
    <g id="text_47">
     <!-- RMSD stepwise [$\AA$] -->
     <g transform="translate(473.816375 207.67)rotate(-90)scale(0.1 -0.1)">
      <defs>
       <path id="DejaVuSans-73" d="M 2834 3397 
L 2834 2853 
Q 2591 2978 2328 3040 
Q 2066 3103 1784 3103 
Q 1356 3103 1142 2972 
Q 928 2841 928 2578 
Q 928 2378 1081 2264 
Q 1234 2150 1697 2047 
L 1894 2003 
Q 2506 1872 2764 1633 
Q 3022 1394 3022 966 
Q 3022 478 2636 193 
Q 2250 -91 1575 -91 
Q 1294 -91 989 -36 
Q 684 19 347 128 
L 347 722 
Q 666 556 975 473 
Q 1284 391 1588 391 
Q 1994 391 2212 530 
Q 2431 669 2431 922 
Q 2431 1156 2273 1281 
Q 2116 1406 1581 1522 
L 1381 1569 
Q 847 1681 609 1914 
Q 372 2147 372 2553 
Q 372 3047 722 3315 
Q 1072 3584 1716 3584 
Q 2034 3584 2315 3537 
Q 2597 3491 2834 3397 
z
" transform="scale(0.015625)"/>
       <path id="DejaVuSans-74" d="M 1172 4494 
L 1172 3500 
L 2356 3500 
L 2356 3053 
L 1172 3053 
L 1172 1153 
Q 1172 725 1289 603 
Q 1406 481 1766 481 
L 2356 481 
L 2356 0 
L 1766 0 
Q 1100 0 847 248 
Q 594 497 594 1153 
L 594 3053 
L 172 3053 
L 172 3500 
L 594 3500 
L 594 4494 
L 1172 4494 
z
" transform="scale(0.015625)"/>
       <path id="DejaVuSans-70" d="M 1159 525 
L 1159 -1331 
L 581 -1331 
L 581 3500 
L 1159 3500 
L 1159 2969 
Q 1341 3281 1617 3432 
Q 1894 3584 2278 3584 
Q 2916 3584 3314 3078 
Q 3713 2572 3713 1747 
Q 3713 922 3314 415 
Q 2916 -91 2278 -91 
Q 1894 -91 1617 61 
Q 1341 213 1159 525 
z
M 3116 1747 
Q 3116 2381 2855 2742 
Q 2594 3103 2138 3103 
Q 1681 3103 1420 2742 
Q 1159 2381 1159 1747 
Q 1159 1113 1420 752 
Q 1681 391 2138 391 
Q 2594 391 2855 752 
Q 3116 1113 3116 1747 
z
" transform="scale(0.015625)"/>
       <path id="DejaVuSans-77" d="M 269 3500 
L 844 3500 
L 1563 769 
L 2278 3500 
L 2956 3500 
L 3675 769 
L 4391 3500 
L 4966 3500 
L 4050 0 
L 3372 0 
L 2619 2869 
L 1863 0 
L 1184 0 
L 269 3500 
z
" transform="scale(0.015625)"/>
      </defs>
      <use xlink:href="#DejaVuSans-52" transform="translate(0 0.171875)"/>
      <use xlink:href="#DejaVuSans-4d" transform="translate(69.482422 0.171875)"/>
      <use xlink:href="#DejaVuSans-53" transform="translate(155.761719 0.171875)"/>
      <use xlink:href="#DejaVuSans-44" transform="translate(219.238281 0.171875)"/>
      <use xlink:href="#DejaVuSans-20" transform="translate(296.240234 0.171875)"/>
      <use xlink:href="#DejaVuSans-73" transform="translate(328.027344 0.171875)"/>
      <use xlink:href="#DejaVuSans-74" transform="translate(380.126953 0.171875)"/>
      <use xlink:href="#DejaVuSans-65" transform="translate(419.335938 0.171875)"/>
      <use xlink:href="#DejaVuSans-70" transform="translate(480.859375 0.171875)"/>
      <use xlink:href="#DejaVuSans-77" transform="translate(544.335938 0.171875)"/>
      <use xlink:href="#DejaVuSans-69" transform="translate(626.123047 0.171875)"/>
      <use xlink:href="#DejaVuSans-73" transform="translate(653.90625 0.171875)"/>
      <use xlink:href="#DejaVuSans-65" transform="translate(706.005859 0.171875)"/>
      <use xlink:href="#DejaVuSans-20" transform="translate(767.529297 0.171875)"/>
      <use xlink:href="#DejaVuSans-5b" transform="translate(799.316406 0.171875)"/>
      <use xlink:href="#DejaVuSans-Oblique-c5" transform="translate(838.330078 0.171875)"/>
      <use xlink:href="#DejaVuSans-5d" transform="translate(906.738281 0.171875)"/>
     </g>
    </g>
   </g>
   <g id="LineCollection_17">
    <path d="M 529.086909 186.428199 
L 551.657591 186.428199 
" clip-path="url(#pad1ee412e7)" style="fill: none; stroke: #1f77b4; stroke-width: 1.5"/>
   </g>
   <g id="LineCollection_18">
    <path d="M 529.086909 57.342727 
L 551.657591 57.342727 
" clip-path="url(#pad1ee412e7)" style="fill: none; stroke: #1f77b4; stroke-width: 1.5"/>
   </g>
   <g id="LineCollection_19">
    <path d="M 529.086909 263.397273 
L 551.657591 263.397273 
" clip-path="url(#pad1ee412e7)" style="fill: none; stroke: #1f77b4; stroke-width: 1.5"/>
   </g>
   <g id="LineCollection_20">
    <path d="M 540.37225 263.397273 
L 540.37225 57.342727 
" clip-path="url(#pad1ee412e7)" style="fill: none; stroke: #1f77b4; stroke-width: 1.5"/>
   </g>
   <g id="patch_23">
    <path d="M 515.5445 273.7 
L 515.5445 47.04 
" style="fill: none; stroke: #000000; stroke-width: 0.8; stroke-linejoin: miter; stroke-linecap: square"/>
   </g>
   <g id="patch_24">
    <path d="M 565.2 273.7 
L 565.2 47.04 
" style="fill: none; stroke: #000000; stroke-width: 0.8; stroke-linejoin: miter; stroke-linecap: square"/>
   </g>
   <g id="patch_25">
    <path d="M 515.5445 273.7 
L 565.2 273.7 
" style="fill: none; stroke: #000000; stroke-width: 0.8; stroke-linejoin: miter; stroke-linecap: square"/>
   </g>
   <g id="patch_26">
    <path d="M 515.5445 47.04 
L 565.2 47.04 
" style="fill: none; stroke: #000000; stroke-width: 0.8; stroke-linejoin: miter; stroke-linecap: square"/>
   </g>
   <g id="text_48">
    <!-- RMSD stepwise -->
    <g transform="translate(494.320375 41.04)scale(0.12 -0.12)">
     <use xlink:href="#DejaVuSans-52"/>
     <use xlink:href="#DejaVuSans-4d" x="69.482422"/>
     <use xlink:href="#DejaVuSans-53" x="155.761719"/>
     <use xlink:href="#DejaVuSans-44" x="219.238281"/>
     <use xlink:href="#DejaVuSans-20" x="296.240234"/>
     <use xlink:href="#DejaVuSans-73" x="328.027344"/>
     <use xlink:href="#DejaVuSans-74" x="380.126953"/>
     <use xlink:href="#DejaVuSans-65" x="419.335938"/>
     <use xlink:href="#DejaVuSans-70" x="480.859375"/>
     <use xlink:href="#DejaVuSans-77" x="544.335938"/>
     <use xlink:href="#DejaVuSans-69" x="626.123047"/>
     <use xlink:href="#DejaVuSans-73" x="653.90625"/>
     <use xlink:href="#DejaVuSans-65" x="706.005859"/>
    </g>
   </g>
  </g>
  <g id="text_49">
   <!-- Compound 29. Omega -->
   <g transform="translate(220.299375 14.878125)scale(0.12 -0.12)">
    <defs>
     <path id="DejaVuSans-43" d="M 4122 4306 
L 4122 3641 
Q 3803 3938 3442 4084 
Q 3081 4231 2675 4231 
Q 1875 4231 1450 3742 
Q 1025 3253 1025 2328 
Q 1025 1406 1450 917 
Q 1875 428 2675 428 
Q 3081 428 3442 575 
Q 3803 722 4122 1019 
L 4122 359 
Q 3791 134 3420 21 
Q 3050 -91 2638 -91 
Q 1578 -91 968 557 
Q 359 1206 359 2328 
Q 359 3453 968 4101 
Q 1578 4750 2638 4750 
Q 3056 4750 3426 4639 
Q 3797 4528 4122 4306 
z
" transform="scale(0.015625)"/>
     <path id="DejaVuSans-6f" d="M 1959 3097 
Q 1497 3097 1228 2736 
Q 959 2375 959 1747 
Q 959 1119 1226 758 
Q 1494 397 1959 397 
Q 2419 397 2687 759 
Q 2956 1122 2956 1747 
Q 2956 2369 2687 2733 
Q 2419 3097 1959 3097 
z
M 1959 3584 
Q 2709 3584 3137 3096 
Q 3566 2609 3566 1747 
Q 3566 888 3137 398 
Q 2709 -91 1959 -91 
Q 1206 -91 779 398 
Q 353 888 353 1747 
Q 353 2609 779 3096 
Q 1206 3584 1959 3584 
z
" transform="scale(0.015625)"/>
     <path id="DejaVuSans-6d" d="M 3328 2828 
Q 3544 3216 3844 3400 
Q 4144 3584 4550 3584 
Q 5097 3584 5394 3201 
Q 5691 2819 5691 2113 
L 5691 0 
L 5113 0 
L 5113 2094 
Q 5113 2597 4934 2840 
Q 4756 3084 4391 3084 
Q 3944 3084 3684 2787 
Q 3425 2491 3425 1978 
L 3425 0 
L 2847 0 
L 2847 2094 
Q 2847 2600 2669 2842 
Q 2491 3084 2119 3084 
Q 1678 3084 1418 2786 
Q 1159 2488 1159 1978 
L 1159 0 
L 581 0 
L 581 3500 
L 1159 3500 
L 1159 2956 
Q 1356 3278 1631 3431 
Q 1906 3584 2284 3584 
Q 2666 3584 2933 3390 
Q 3200 3197 3328 2828 
z
" transform="scale(0.015625)"/>
     <path id="DejaVuSans-6e" d="M 3513 2113 
L 3513 0 
L 2938 0 
L 2938 2094 
Q 2938 2591 2744 2837 
Q 2550 3084 2163 3084 
Q 1697 3084 1428 2787 
Q 1159 2491 1159 1978 
L 1159 0 
L 581 0 
L 581 3500 
L 1159 3500 
L 1159 2956 
Q 1366 3272 1645 3428 
Q 1925 3584 2291 3584 
Q 2894 3584 3203 3211 
Q 3513 2838 3513 2113 
z
" transform="scale(0.015625)"/>
     <path id="DejaVuSans-39" d="M 703 97 
L 703 672 
Q 941 559 1184 500 
Q 1428 441 1663 441 
Q 2288 441 2617 861 
Q 2947 1281 2994 2138 
Q 2813 1869 2534 1725 
Q 2256 1581 1919 1581 
Q 1219 1581 811 2004 
Q 403 2428 403 3163 
Q 403 3881 828 4315 
Q 1253 4750 1959 4750 
Q 2769 4750 3195 4129 
Q 3622 3509 3622 2328 
Q 3622 1225 3098 567 
Q 2575 -91 1691 -91 
Q 1453 -91 1209 -44 
Q 966 3 703 97 
z
M 1959 2075 
Q 2384 2075 2632 2365 
Q 2881 2656 2881 3163 
Q 2881 3666 2632 3958 
Q 2384 4250 1959 4250 
Q 1534 4250 1286 3958 
Q 1038 3666 1038 3163 
Q 1038 2656 1286 2365 
Q 1534 2075 1959 2075 
z
" transform="scale(0.015625)"/>
     <path id="DejaVuSans-67" d="M 2906 1791 
Q 2906 2416 2648 2759 
Q 2391 3103 1925 3103 
Q 1463 3103 1205 2759 
Q 947 2416 947 1791 
Q 947 1169 1205 825 
Q 1463 481 1925 481 
Q 2391 481 2648 825 
Q 2906 1169 2906 1791 
z
M 3481 434 
Q 3481 -459 3084 -895 
Q 2688 -1331 1869 -1331 
Q 1566 -1331 1297 -1286 
Q 1028 -1241 775 -1147 
L 775 -588 
Q 1028 -725 1275 -790 
Q 1522 -856 1778 -856 
Q 2344 -856 2625 -561 
Q 2906 -266 2906 331 
L 2906 616 
Q 2728 306 2450 153 
Q 2172 0 1784 0 
Q 1141 0 747 490 
Q 353 981 353 1791 
Q 353 2603 747 3093 
Q 1141 3584 1784 3584 
Q 2172 3584 2450 3431 
Q 2728 3278 2906 2969 
L 2906 3500 
L 3481 3500 
L 3481 434 
z
" transform="scale(0.015625)"/>
     <path id="DejaVuSans-61" d="M 2194 1759 
Q 1497 1759 1228 1600 
Q 959 1441 959 1056 
Q 959 750 1161 570 
Q 1363 391 1709 391 
Q 2188 391 2477 730 
Q 2766 1069 2766 1631 
L 2766 1759 
L 2194 1759 
z
M 3341 1997 
L 3341 0 
L 2766 0 
L 2766 531 
Q 2569 213 2275 61 
Q 1981 -91 1556 -91 
Q 1019 -91 701 211 
Q 384 513 384 1019 
Q 384 1609 779 1909 
Q 1175 2209 1959 2209 
L 2766 2209 
L 2766 2266 
Q 2766 2663 2505 2880 
Q 2244 3097 1772 3097 
Q 1472 3097 1187 3025 
Q 903 2953 641 2809 
L 641 3341 
Q 956 3463 1253 3523 
Q 1550 3584 1831 3584 
Q 2591 3584 2966 3190 
Q 3341 2797 3341 1997 
z
" transform="scale(0.015625)"/>
    </defs>
    <use xlink:href="#DejaVuSans-43"/>
    <use xlink:href="#DejaVuSans-6f" x="69.824219"/>
    <use xlink:href="#DejaVuSans-6d" x="131.005859"/>
    <use xlink:href="#DejaVuSans-70" x="228.417969"/>
    <use xlink:href="#DejaVuSans-6f" x="291.894531"/>
    <use xlink:href="#DejaVuSans-75" x="353.076172"/>
    <use xlink:href="#DejaVuSans-6e" x="416.455078"/>
    <use xlink:href="#DejaVuSans-64" x="479.833984"/>
    <use xlink:href="#DejaVuSans-20" x="543.310547"/>
    <use xlink:href="#DejaVuSans-32" x="575.097656"/>
    <use xlink:href="#DejaVuSans-39" x="638.720703"/>
    <use xlink:href="#DejaVuSans-2e" x="702.34375"/>
    <use xlink:href="#DejaVuSans-20" x="734.130859"/>
    <use xlink:href="#DejaVuSans-4f" x="765.917969"/>
    <use xlink:href="#DejaVuSans-6d" x="844.628906"/>
    <use xlink:href="#DejaVuSans-65" x="942.041016"/>
    <use xlink:href="#DejaVuSans-67" x="1003.564453"/>
    <use xlink:href="#DejaVuSans-61" x="1067.041016"/>
   </g>
  </g>
 </g>
 <defs>
  <clipPath id="pee78c2e929">
   <rect x="57.2825" y="47.04" width="49.6555" height="226.66"/>
  </clipPath>
  <clipPath id="p533bb77626">
   <rect x="171.848" y="47.04" width="49.6555" height="226.66"/>
  </clipPath>
  <clipPath id="pdc4c54ffe1">
   <rect x="286.4135" y="47.04" width="49.6555" height="226.66"/>
  </clipPath>
  <clipPath id="p471320c87c">
   <rect x="400.979" y="47.04" width="49.6555" height="226.66"/>
  </clipPath>
  <clipPath id="pad1ee412e7">
   <rect x="515.5445" y="47.04" width="49.6555" height="226.66"/>
  </clipPath>
 </defs>
</svg>
