<?xml version="1.0" encoding="utf-8" standalone="no"?>
<!DOCTYPE svg PUBLIC "-//W3C//DTD SVG 1.1//EN"
  "http://www.w3.org/Graphics/SVG/1.1/DTD/svg11.dtd">
<svg xmlns:xlink="http://www.w3.org/1999/xlink" width="576pt" height="288pt" viewBox="0 0 576 288" xmlns="http://www.w3.org/2000/svg" version="1.1">
 <metadata>
  <rdf:RDF xmlns:dc="http://purl.org/dc/elements/1.1/" xmlns:cc="http://creativecommons.org/ns#" xmlns:rdf="http://www.w3.org/1999/02/22-rdf-syntax-ns#">
   <cc:Work>
    <dc:type rdf:resource="http://purl.org/dc/dcmitype/StillImage"/>
    <dc:date>2023-05-31T12:20:15.928351</dc:date>
    <dc:format>image/svg+xml</dc:format>
    <dc:creator>
     <cc:Agent>
      <dc:title>Matplotlib v3.5.3, https://matplotlib.org/</dc:title>
     </cc:Agent>
    </dc:creator>
   </cc:Work>
  </rdf:RDF>
 </metadata>
 <defs>
  <style type="text/css">*{stroke-linejoin: round; stroke-linecap: butt}</style>
 </defs>
 <g id="figure_1">
  <g id="patch_1">
   <path d="M 0 288 
L 576 288 
L 576 0 
L 0 0 
z
" style="fill: #ffffff"/>
  </g>
  <g id="axes_1">
   <g id="patch_2">
    <path d="M 50.8925 271.253592 
L 106.938 271.253592 
L 106.938 47.04 
L 50.8925 47.04 
z
" style="fill: #ffffff"/>
   </g>
   <g id="PolyCollection_1">
    <path d="M 84.321486 261.062065 
L 73.509014 261.062065 
L 72.752748 259.00317 
L 71.965221 256.944276 
L 71.149426 254.885382 
L 70.30672 252.826488 
L 69.437128 250.767593 
L 68.539931 248.708699 
L 67.614416 246.649805 
L 66.660651 244.59091 
L 65.680137 242.532016 
L 64.67626 240.473122 
L 63.654484 238.414227 
L 62.622301 236.355333 
L 61.589001 234.296439 
L 60.565329 232.237544 
L 59.563104 230.17865 
L 58.59485 228.119756 
L 57.673472 226.060861 
L 56.811969 224.001967 
L 56.023171 221.943073 
L 55.319472 219.884178 
L 54.712536 217.825284 
L 54.212964 215.76639 
L 53.829905 213.707495 
L 53.570623 211.648601 
L 53.440023 209.589707 
L 53.440169 207.530812 
L 53.569838 205.471918 
L 53.82416 203.413024 
L 54.19443 201.354129 
L 54.668144 199.295235 
L 55.229324 197.236341 
L 55.859145 195.177446 
L 56.536848 193.118552 
L 57.240855 191.059658 
L 57.949996 189.000764 
L 58.644711 186.941869 
L 59.308095 184.882975 
L 59.926699 182.824081 
L 60.491009 180.765186 
L 60.995583 178.706292 
L 61.43888 176.647398 
L 61.822816 174.588503 
L 62.152132 172.529609 
L 62.433631 170.470715 
L 62.675381 168.41182 
L 62.885914 166.352926 
L 63.073515 164.294032 
L 63.245633 162.235137 
L 63.408475 160.176243 
L 63.566822 158.117349 
L 63.724081 156.058454 
L 63.882567 153.99956 
L 64.043968 151.940666 
L 64.209904 149.881771 
L 64.382481 147.822877 
L 64.564707 145.763983 
L 64.76069 143.705088 
L 64.975548 141.646194 
L 65.215031 139.5873 
L 65.484928 137.528405 
L 65.790351 135.469511 
L 66.135043 133.410617 
L 66.520833 131.351722 
L 66.947342 129.292828 
L 67.41198 127.233934 
L 67.910215 125.17504 
L 68.43606 123.116145 
L 68.982654 121.057251 
L 69.542842 118.998357 
L 70.109657 116.939462 
L 70.676644 114.880568 
L 71.238008 112.821674 
L 71.788623 110.762779 
L 72.323946 108.703885 
L 72.839916 106.644991 
L 73.332877 104.586096 
L 73.799594 102.527202 
L 74.237332 100.468308 
L 74.64402 98.409413 
L 75.018421 96.350519 
L 75.360285 94.291625 
L 75.670417 92.23273 
L 75.950641 90.173836 
L 76.203636 88.114942 
L 76.432669 86.056047 
L 76.641265 83.997153 
L 76.832863 81.938259 
L 77.010503 79.879364 
L 77.17662 77.82047 
L 77.332938 75.761576 
L 77.480494 73.702681 
L 77.619754 71.643787 
L 77.750797 69.584893 
L 77.873521 67.525999 
L 77.987812 65.467104 
L 78.09367 63.40821 
L 78.191266 61.349316 
L 78.280929 59.290421 
L 78.363095 57.231527 
L 79.467405 57.231527 
L 79.467405 57.231527 
L 79.549571 59.290421 
L 79.639234 61.349316 
L 79.73683 63.40821 
L 79.842688 65.467104 
L 79.956979 67.525999 
L 80.079703 69.584893 
L 80.210746 71.643787 
L 80.350006 73.702681 
L 80.497562 75.761576 
L 80.65388 77.82047 
L 80.819997 79.879364 
L 80.997637 81.938259 
L 81.189235 83.997153 
L 81.397831 86.056047 
L 81.626864 88.114942 
L 81.879859 90.173836 
L 82.160083 92.23273 
L 82.470215 94.291625 
L 82.812079 96.350519 
L 83.18648 98.409413 
L 83.593168 100.468308 
L 84.030906 102.527202 
L 84.497623 104.586096 
L 84.990584 106.644991 
L 85.506554 108.703885 
L 86.041877 110.762779 
L 86.592492 112.821674 
L 87.153856 114.880568 
L 87.720843 116.939462 
L 88.287658 118.998357 
L 88.847846 121.057251 
L 89.39444 123.116145 
L 89.920285 125.17504 
L 90.41852 127.233934 
L 90.883158 129.292828 
L 91.309667 131.351722 
L 91.695457 133.410617 
L 92.040149 135.469511 
L 92.345572 137.528405 
L 92.615469 139.5873 
L 92.854952 141.646194 
L 93.06981 143.705088 
L 93.265793 145.763983 
L 93.448019 147.822877 
L 93.620596 149.881771 
L 93.786532 151.940666 
L 93.947933 153.99956 
L 94.106419 156.058454 
L 94.263678 158.117349 
L 94.422025 160.176243 
L 94.584867 162.235137 
L 94.756985 164.294032 
L 94.944586 166.352926 
L 95.155119 168.41182 
L 95.396869 170.470715 
L 95.678368 172.529609 
L 96.007684 174.588503 
L 96.39162 176.647398 
L 96.834917 178.706292 
L 97.339491 180.765186 
L 97.903801 182.824081 
L 98.522405 184.882975 
L 99.185789 186.941869 
L 99.880504 189.000764 
L 100.589645 191.059658 
L 101.293652 193.118552 
L 101.971355 195.177446 
L 102.601176 197.236341 
L 103.162356 199.295235 
L 103.63607 201.354129 
L 104.00634 203.413024 
L 104.260662 205.471918 
L 104.390331 207.530812 
L 104.390477 209.589707 
L 104.259877 211.648601 
L 104.000595 213.707495 
L 103.617536 215.76639 
L 103.117964 217.825284 
L 102.511028 219.884178 
L 101.807329 221.943073 
L 101.018531 224.001967 
L 100.157028 226.060861 
L 99.23565 228.119756 
L 98.267396 230.17865 
L 97.265171 232.237544 
L 96.241499 234.296439 
L 95.208199 236.355333 
L 94.176016 238.414227 
L 93.15424 240.473122 
L 92.150363 242.532016 
L 91.169849 244.59091 
L 90.216084 246.649805 
L 89.290569 248.708699 
L 88.393372 250.767593 
L 87.52378 252.826488 
L 86.681074 254.885382 
L 85.865279 256.944276 
L 85.077752 259.00317 
L 84.321486 261.062065 
z
" clip-path="url(#pb084e5ae03)" style="fill: #1f77b4; fill-opacity: 0.3"/>
   </g>
   <g id="matplotlib.axis_1">
    <g id="ytick_1">
     <g id="line2d_1">
      <defs>
       <path id="md015ba2b5f" d="M 0 0 
L -3.5 0 
" style="stroke: #000000; stroke-width: 0.8"/>
      </defs>
      <g>
       <use xlink:href="#md015ba2b5f" x="50.8925" y="253.964955" style="stroke: #000000; stroke-width: 0.8"/>
      </g>
     </g>
     <g id="text_1">
      <!-- 0.4 -->
      <g transform="translate(27.989375 257.764174)scale(0.1 -0.1)">
       <defs>
        <path id="DejaVuSans-30" d="M 2034 4250 
Q 1547 4250 1301 3770 
Q 1056 3291 1056 2328 
Q 1056 1369 1301 889 
Q 1547 409 2034 409 
Q 2525 409 2770 889 
Q 3016 1369 3016 2328 
Q 3016 3291 2770 3770 
Q 2525 4250 2034 4250 
z
M 2034 4750 
Q 2819 4750 3233 4129 
Q 3647 3509 3647 2328 
Q 3647 1150 3233 529 
Q 2819 -91 2034 -91 
Q 1250 -91 836 529 
Q 422 1150 422 2328 
Q 422 3509 836 4129 
Q 1250 4750 2034 4750 
z
" transform="scale(0.015625)"/>
        <path id="DejaVuSans-2e" d="M 684 794 
L 1344 794 
L 1344 0 
L 684 0 
L 684 794 
z
" transform="scale(0.015625)"/>
        <path id="DejaVuSans-34" d="M 2419 4116 
L 825 1625 
L 2419 1625 
L 2419 4116 
z
M 2253 4666 
L 3047 4666 
L 3047 1625 
L 3713 1625 
L 3713 1100 
L 3047 1100 
L 3047 0 
L 2419 0 
L 2419 1100 
L 313 1100 
L 313 1709 
L 2253 4666 
z
" transform="scale(0.015625)"/>
       </defs>
       <use xlink:href="#DejaVuSans-30"/>
       <use xlink:href="#DejaVuSans-2e" x="63.623047"/>
       <use xlink:href="#DejaVuSans-34" x="95.410156"/>
      </g>
     </g>
    </g>
    <g id="ytick_2">
     <g id="line2d_2">
      <g>
       <use xlink:href="#md015ba2b5f" x="50.8925" y="225.017794" style="stroke: #000000; stroke-width: 0.8"/>
      </g>
     </g>
     <g id="text_2">
      <!-- 0.5 -->
      <g transform="translate(27.989375 228.817013)scale(0.1 -0.1)">
       <defs>
        <path id="DejaVuSans-35" d="M 691 4666 
L 3169 4666 
L 3169 4134 
L 1269 4134 
L 1269 2991 
Q 1406 3038 1543 3061 
Q 1681 3084 1819 3084 
Q 2600 3084 3056 2656 
Q 3513 2228 3513 1497 
Q 3513 744 3044 326 
Q 2575 -91 1722 -91 
Q 1428 -91 1123 -41 
Q 819 9 494 109 
L 494 744 
Q 775 591 1075 516 
Q 1375 441 1709 441 
Q 2250 441 2565 725 
Q 2881 1009 2881 1497 
Q 2881 1984 2565 2268 
Q 2250 2553 1709 2553 
Q 1456 2553 1204 2497 
Q 953 2441 691 2322 
L 691 4666 
z
" transform="scale(0.015625)"/>
       </defs>
       <use xlink:href="#DejaVuSans-30"/>
       <use xlink:href="#DejaVuSans-2e" x="63.623047"/>
       <use xlink:href="#DejaVuSans-35" x="95.410156"/>
      </g>
     </g>
    </g>
    <g id="ytick_3">
     <g id="line2d_3">
      <g>
       <use xlink:href="#md015ba2b5f" x="50.8925" y="196.070633" style="stroke: #000000; stroke-width: 0.8"/>
      </g>
     </g>
     <g id="text_3">
      <!-- 0.6 -->
      <g transform="translate(27.989375 199.869852)scale(0.1 -0.1)">
       <defs>
        <path id="DejaVuSans-36" d="M 2113 2584 
Q 1688 2584 1439 2293 
Q 1191 2003 1191 1497 
Q 1191 994 1439 701 
Q 1688 409 2113 409 
Q 2538 409 2786 701 
Q 3034 994 3034 1497 
Q 3034 2003 2786 2293 
Q 2538 2584 2113 2584 
z
M 3366 4563 
L 3366 3988 
Q 3128 4100 2886 4159 
Q 2644 4219 2406 4219 
Q 1781 4219 1451 3797 
Q 1122 3375 1075 2522 
Q 1259 2794 1537 2939 
Q 1816 3084 2150 3084 
Q 2853 3084 3261 2657 
Q 3669 2231 3669 1497 
Q 3669 778 3244 343 
Q 2819 -91 2113 -91 
Q 1303 -91 875 529 
Q 447 1150 447 2328 
Q 447 3434 972 4092 
Q 1497 4750 2381 4750 
Q 2619 4750 2861 4703 
Q 3103 4656 3366 4563 
z
" transform="scale(0.015625)"/>
       </defs>
       <use xlink:href="#DejaVuSans-30"/>
       <use xlink:href="#DejaVuSans-2e" x="63.623047"/>
       <use xlink:href="#DejaVuSans-36" x="95.410156"/>
      </g>
     </g>
    </g>
    <g id="ytick_4">
     <g id="line2d_4">
      <g>
       <use xlink:href="#md015ba2b5f" x="50.8925" y="167.123472" style="stroke: #000000; stroke-width: 0.8"/>
      </g>
     </g>
     <g id="text_4">
      <!-- 0.7 -->
      <g transform="translate(27.989375 170.92269)scale(0.1 -0.1)">
       <defs>
        <path id="DejaVuSans-37" d="M 525 4666 
L 3525 4666 
L 3525 4397 
L 1831 0 
L 1172 0 
L 2766 4134 
L 525 4134 
L 525 4666 
z
" transform="scale(0.015625)"/>
       </defs>
       <use xlink:href="#DejaVuSans-30"/>
       <use xlink:href="#DejaVuSans-2e" x="63.623047"/>
       <use xlink:href="#DejaVuSans-37" x="95.410156"/>
      </g>
     </g>
    </g>
    <g id="ytick_5">
     <g id="line2d_5">
      <g>
       <use xlink:href="#md015ba2b5f" x="50.8925" y="138.17631" style="stroke: #000000; stroke-width: 0.8"/>
      </g>
     </g>
     <g id="text_5">
      <!-- 0.8 -->
      <g transform="translate(27.989375 141.975529)scale(0.1 -0.1)">
       <defs>
        <path id="DejaVuSans-38" d="M 2034 2216 
Q 1584 2216 1326 1975 
Q 1069 1734 1069 1313 
Q 1069 891 1326 650 
Q 1584 409 2034 409 
Q 2484 409 2743 651 
Q 3003 894 3003 1313 
Q 3003 1734 2745 1975 
Q 2488 2216 2034 2216 
z
M 1403 2484 
Q 997 2584 770 2862 
Q 544 3141 544 3541 
Q 544 4100 942 4425 
Q 1341 4750 2034 4750 
Q 2731 4750 3128 4425 
Q 3525 4100 3525 3541 
Q 3525 3141 3298 2862 
Q 3072 2584 2669 2484 
Q 3125 2378 3379 2068 
Q 3634 1759 3634 1313 
Q 3634 634 3220 271 
Q 2806 -91 2034 -91 
Q 1263 -91 848 271 
Q 434 634 434 1313 
Q 434 1759 690 2068 
Q 947 2378 1403 2484 
z
M 1172 3481 
Q 1172 3119 1398 2916 
Q 1625 2713 2034 2713 
Q 2441 2713 2670 2916 
Q 2900 3119 2900 3481 
Q 2900 3844 2670 4047 
Q 2441 4250 2034 4250 
Q 1625 4250 1398 4047 
Q 1172 3844 1172 3481 
z
" transform="scale(0.015625)"/>
       </defs>
       <use xlink:href="#DejaVuSans-30"/>
       <use xlink:href="#DejaVuSans-2e" x="63.623047"/>
       <use xlink:href="#DejaVuSans-38" x="95.410156"/>
      </g>
     </g>
    </g>
    <g id="ytick_6">
     <g id="line2d_6">
      <g>
       <use xlink:href="#md015ba2b5f" x="50.8925" y="109.229149" style="stroke: #000000; stroke-width: 0.8"/>
      </g>
     </g>
     <g id="text_6">
      <!-- 0.9 -->
      <g transform="translate(27.989375 113.028368)scale(0.1 -0.1)">
       <defs>
        <path id="DejaVuSans-39" d="M 703 97 
L 703 672 
Q 941 559 1184 500 
Q 1428 441 1663 441 
Q 2288 441 2617 861 
Q 2947 1281 2994 2138 
Q 2813 1869 2534 1725 
Q 2256 1581 1919 1581 
Q 1219 1581 811 2004 
Q 403 2428 403 3163 
Q 403 3881 828 4315 
Q 1253 4750 1959 4750 
Q 2769 4750 3195 4129 
Q 3622 3509 3622 2328 
Q 3622 1225 3098 567 
Q 2575 -91 1691 -91 
Q 1453 -91 1209 -44 
Q 966 3 703 97 
z
M 1959 2075 
Q 2384 2075 2632 2365 
Q 2881 2656 2881 3163 
Q 2881 3666 2632 3958 
Q 2384 4250 1959 4250 
Q 1534 4250 1286 3958 
Q 1038 3666 1038 3163 
Q 1038 2656 1286 2365 
Q 1534 2075 1959 2075 
z
" transform="scale(0.015625)"/>
       </defs>
       <use xlink:href="#DejaVuSans-30"/>
       <use xlink:href="#DejaVuSans-2e" x="63.623047"/>
       <use xlink:href="#DejaVuSans-39" x="95.410156"/>
      </g>
     </g>
    </g>
    <g id="ytick_7">
     <g id="line2d_7">
      <g>
       <use xlink:href="#md015ba2b5f" x="50.8925" y="80.281988" style="stroke: #000000; stroke-width: 0.8"/>
      </g>
     </g>
     <g id="text_7">
      <!-- 1.0 -->
      <g transform="translate(27.989375 84.081207)scale(0.1 -0.1)">
       <defs>
        <path id="DejaVuSans-31" d="M 794 531 
L 1825 531 
L 1825 4091 
L 703 3866 
L 703 4441 
L 1819 4666 
L 2450 4666 
L 2450 531 
L 3481 531 
L 3481 0 
L 794 0 
L 794 531 
z
" transform="scale(0.015625)"/>
       </defs>
       <use xlink:href="#DejaVuSans-31"/>
       <use xlink:href="#DejaVuSans-2e" x="63.623047"/>
       <use xlink:href="#DejaVuSans-30" x="95.410156"/>
      </g>
     </g>
    </g>
    <g id="ytick_8">
     <g id="line2d_8">
      <g>
       <use xlink:href="#md015ba2b5f" x="50.8925" y="51.334827" style="stroke: #000000; stroke-width: 0.8"/>
      </g>
     </g>
     <g id="text_8">
      <!-- 1.1 -->
      <g transform="translate(27.989375 55.134045)scale(0.1 -0.1)">
       <use xlink:href="#DejaVuSans-31"/>
       <use xlink:href="#DejaVuSans-2e" x="63.623047"/>
       <use xlink:href="#DejaVuSans-31" x="95.410156"/>
      </g>
     </g>
    </g>
    <g id="text_9">
     <!-- RMSD [$\AA$] -->
     <g transform="translate(21.909688 182.896796)rotate(-90)scale(0.1 -0.1)">
      <defs>
       <path id="DejaVuSans-52" d="M 2841 2188 
Q 3044 2119 3236 1894 
Q 3428 1669 3622 1275 
L 4263 0 
L 3584 0 
L 2988 1197 
Q 2756 1666 2539 1819 
Q 2322 1972 1947 1972 
L 1259 1972 
L 1259 0 
L 628 0 
L 628 4666 
L 2053 4666 
Q 2853 4666 3247 4331 
Q 3641 3997 3641 3322 
Q 3641 2881 3436 2590 
Q 3231 2300 2841 2188 
z
M 1259 4147 
L 1259 2491 
L 2053 2491 
Q 2509 2491 2742 2702 
Q 2975 2913 2975 3322 
Q 2975 3731 2742 3939 
Q 2509 4147 2053 4147 
L 1259 4147 
z
" transform="scale(0.015625)"/>
       <path id="DejaVuSans-4d" d="M 628 4666 
L 1569 4666 
L 2759 1491 
L 3956 4666 
L 4897 4666 
L 4897 0 
L 4281 0 
L 4281 4097 
L 3078 897 
L 2444 897 
L 1241 4097 
L 1241 0 
L 628 0 
L 628 4666 
z
" transform="scale(0.015625)"/>
       <path id="DejaVuSans-53" d="M 3425 4513 
L 3425 3897 
Q 3066 4069 2747 4153 
Q 2428 4238 2131 4238 
Q 1616 4238 1336 4038 
Q 1056 3838 1056 3469 
Q 1056 3159 1242 3001 
Q 1428 2844 1947 2747 
L 2328 2669 
Q 3034 2534 3370 2195 
Q 3706 1856 3706 1288 
Q 3706 609 3251 259 
Q 2797 -91 1919 -91 
Q 1588 -91 1214 -16 
Q 841 59 441 206 
L 441 856 
Q 825 641 1194 531 
Q 1563 422 1919 422 
Q 2459 422 2753 634 
Q 3047 847 3047 1241 
Q 3047 1584 2836 1778 
Q 2625 1972 2144 2069 
L 1759 2144 
Q 1053 2284 737 2584 
Q 422 2884 422 3419 
Q 422 4038 858 4394 
Q 1294 4750 2059 4750 
Q 2388 4750 2728 4690 
Q 3069 4631 3425 4513 
z
" transform="scale(0.015625)"/>
       <path id="DejaVuSans-44" d="M 1259 4147 
L 1259 519 
L 2022 519 
Q 2988 519 3436 956 
Q 3884 1394 3884 2338 
Q 3884 3275 3436 3711 
Q 2988 4147 2022 4147 
L 1259 4147 
z
M 628 4666 
L 1925 4666 
Q 3281 4666 3915 4102 
Q 4550 3538 4550 2338 
Q 4550 1131 3912 565 
Q 3275 0 1925 0 
L 628 0 
L 628 4666 
z
" transform="scale(0.015625)"/>
       <path id="DejaVuSans-20" transform="scale(0.015625)"/>
       <path id="DejaVuSans-5b" d="M 550 4863 
L 1875 4863 
L 1875 4416 
L 1125 4416 
L 1125 -397 
L 1875 -397 
L 1875 -844 
L 550 -844 
L 550 4863 
z
" transform="scale(0.015625)"/>
       <path id="DejaVuSans-Oblique-c5" d="M 3188 5081 
Q 3188 5278 3048 5417 
Q 2909 5556 2713 5556 
Q 2513 5556 2377 5420 
Q 2241 5284 2241 5081 
Q 2241 4884 2377 4746 
Q 2513 4609 2713 4609 
Q 2909 4609 3048 4746 
Q 3188 4884 3188 5081 
z
M 2203 4397 
Q 2034 4513 1945 4689 
Q 1856 4866 1856 5081 
Q 1856 5438 2106 5689 
Q 2356 5941 2713 5941 
Q 3069 5941 3320 5689 
Q 3572 5438 3572 5081 
Q 3572 4834 3458 4643 
Q 3344 4453 3128 4341 
L 3938 0 
L 3278 0 
L 3084 1197 
L 984 1197 
L 325 0 
L -341 0 
L 2203 4397 
z
M 2584 4044 
L 1275 1722 
L 2988 1722 
L 2584 4044 
z
" transform="scale(0.015625)"/>
       <path id="DejaVuSans-5d" d="M 1947 4863 
L 1947 -844 
L 622 -844 
L 622 -397 
L 1369 -397 
L 1369 4416 
L 622 4416 
L 622 4863 
L 1947 4863 
z
" transform="scale(0.015625)"/>
      </defs>
      <use xlink:href="#DejaVuSans-52" transform="translate(0 0.171875)"/>
      <use xlink:href="#DejaVuSans-4d" transform="translate(69.482422 0.171875)"/>
      <use xlink:href="#DejaVuSans-53" transform="translate(155.761719 0.171875)"/>
      <use xlink:href="#DejaVuSans-44" transform="translate(219.238281 0.171875)"/>
      <use xlink:href="#DejaVuSans-20" transform="translate(296.240234 0.171875)"/>
      <use xlink:href="#DejaVuSans-5b" transform="translate(328.027344 0.171875)"/>
      <use xlink:href="#DejaVuSans-Oblique-c5" transform="translate(367.041016 0.171875)"/>
      <use xlink:href="#DejaVuSans-5d" transform="translate(435.449219 0.171875)"/>
     </g>
    </g>
   </g>
   <g id="LineCollection_1">
    <path d="M 66.177636 185.618858 
L 91.652864 185.618858 
" clip-path="url(#pb084e5ae03)" style="fill: none; stroke: #1f77b4; stroke-width: 1.5"/>
   </g>
   <g id="LineCollection_2">
    <path d="M 66.177636 57.231527 
L 91.652864 57.231527 
" clip-path="url(#pb084e5ae03)" style="fill: none; stroke: #1f77b4; stroke-width: 1.5"/>
   </g>
   <g id="LineCollection_3">
    <path d="M 66.177636 261.062065 
L 91.652864 261.062065 
" clip-path="url(#pb084e5ae03)" style="fill: none; stroke: #1f77b4; stroke-width: 1.5"/>
   </g>
   <g id="LineCollection_4">
    <path d="M 78.91525 261.062065 
L 78.91525 57.231527 
" clip-path="url(#pb084e5ae03)" style="fill: none; stroke: #1f77b4; stroke-width: 1.5"/>
   </g>
   <g id="patch_3">
    <path d="M 50.8925 271.253592 
L 50.8925 47.04 
" style="fill: none; stroke: #000000; stroke-width: 0.8; stroke-linejoin: miter; stroke-linecap: square"/>
   </g>
   <g id="patch_4">
    <path d="M 106.938 271.253592 
L 106.938 47.04 
" style="fill: none; stroke: #000000; stroke-width: 0.8; stroke-linejoin: miter; stroke-linecap: square"/>
   </g>
   <g id="patch_5">
    <path d="M 50.8925 271.253592 
L 106.938 271.253592 
" style="fill: none; stroke: #000000; stroke-width: 0.8; stroke-linejoin: miter; stroke-linecap: square"/>
   </g>
   <g id="patch_6">
    <path d="M 50.8925 47.04 
L 106.938 47.04 
" style="fill: none; stroke: #000000; stroke-width: 0.8; stroke-linejoin: miter; stroke-linecap: square"/>
   </g>
   <g id="text_10">
    <!-- RMSD -->
    <g transform="translate(61.14025 41.04)scale(0.12 -0.12)">
     <use xlink:href="#DejaVuSans-52"/>
     <use xlink:href="#DejaVuSans-4d" x="69.482422"/>
     <use xlink:href="#DejaVuSans-53" x="155.761719"/>
     <use xlink:href="#DejaVuSans-44" x="219.238281"/>
    </g>
   </g>
  </g>
  <g id="axes_2">
   <g id="patch_7">
    <path d="M 165.458 271.253592 
L 221.5035 271.253592 
L 221.5035 47.04 
L 165.458 47.04 
z
" style="fill: #ffffff"/>
   </g>
   <g id="PolyCollection_2">
    <path d="M 196.17158 261.062065 
L 190.78992 261.062065 
L 190.321844 259.00317 
L 189.833827 256.944276 
L 189.336397 254.885382 
L 188.840004 252.826488 
L 188.353834 250.767593 
L 187.884586 248.708699 
L 187.435368 246.649805 
L 187.004849 244.59091 
L 186.586844 242.532016 
L 186.170429 240.473122 
L 185.740682 238.414227 
L 185.280013 236.355333 
L 184.770023 234.296439 
L 184.193669 232.237544 
L 183.53748 230.17865 
L 182.793522 228.119756 
L 181.960797 226.060861 
L 181.045843 224.001967 
L 180.06244 221.943073 
L 179.030431 219.884178 
L 177.973847 217.825284 
L 176.918618 215.76639 
L 175.890188 213.707495 
L 174.911351 211.648601 
L 174.000528 209.589707 
L 173.170636 207.530812 
L 172.428568 205.471918 
L 171.775276 203.413024 
L 171.206375 201.354129 
L 170.713181 199.295235 
L 170.284116 197.236341 
L 169.906366 195.177446 
L 169.567664 193.118552 
L 169.258051 191.059658 
L 168.971396 189.000764 
L 168.706482 186.941869 
L 168.467466 184.882975 
L 168.263593 182.824081 
L 168.108155 180.765186 
L 168.016817 178.706292 
L 168.005523 176.647398 
L 168.088307 174.588503 
L 168.275344 172.529609 
L 168.571513 170.470715 
L 168.975681 168.41182 
L 169.480752 166.352926 
L 170.074396 164.294032 
L 170.740288 162.235137 
L 171.459604 160.176243 
L 172.212559 158.117349 
L 172.979809 156.058454 
L 173.743593 153.99956 
L 174.488615 151.940666 
L 175.202642 149.881771 
L 175.876878 147.822877 
L 176.506134 145.763983 
L 177.0888 143.705088 
L 177.626622 141.646194 
L 178.12428 139.5873 
L 178.588764 137.528405 
L 179.028596 135.469511 
L 179.452938 133.410617 
L 179.870691 131.351722 
L 180.289666 129.292828 
L 180.71593 127.233934 
L 181.153402 125.17504 
L 181.603758 123.116145 
L 182.066625 121.057251 
L 182.54007 118.998357 
L 183.021257 116.939462 
L 183.507194 114.880568 
L 183.995391 112.821674 
L 184.484338 110.762779 
L 184.973664 108.703885 
L 185.46397 106.644991 
L 185.956365 104.586096 
L 186.451814 102.527202 
L 186.950471 100.468308 
L 187.451142 98.409413 
L 187.95103 96.350519 
L 188.445812 94.291625 
L 188.930013 92.23273 
L 189.397605 90.173836 
L 189.842663 88.114942 
L 190.259968 86.056047 
L 190.645444 83.997153 
L 190.996383 81.938259 
L 191.311483 79.879364 
L 191.590742 77.82047 
L 191.835275 75.761576 
L 192.047117 73.702681 
L 192.229023 71.643787 
L 192.384296 69.584893 
L 192.516601 67.525999 
L 192.62977 65.467104 
L 192.727587 63.40821 
L 192.813555 61.349316 
L 192.89069 59.290421 
L 192.961354 57.231527 
L 194.000146 57.231527 
L 194.000146 57.231527 
L 194.07081 59.290421 
L 194.147945 61.349316 
L 194.233913 63.40821 
L 194.33173 65.467104 
L 194.444899 67.525999 
L 194.577204 69.584893 
L 194.732477 71.643787 
L 194.914383 73.702681 
L 195.126225 75.761576 
L 195.370758 77.82047 
L 195.650017 79.879364 
L 195.965117 81.938259 
L 196.316056 83.997153 
L 196.701532 86.056047 
L 197.118837 88.114942 
L 197.563895 90.173836 
L 198.031487 92.23273 
L 198.515688 94.291625 
L 199.01047 96.350519 
L 199.510358 98.409413 
L 200.011029 100.468308 
L 200.509686 102.527202 
L 201.005135 104.586096 
L 201.49753 106.644991 
L 201.987836 108.703885 
L 202.477162 110.762779 
L 202.966109 112.821674 
L 203.454306 114.880568 
L 203.940243 116.939462 
L 204.42143 118.998357 
L 204.894875 121.057251 
L 205.357742 123.116145 
L 205.808098 125.17504 
L 206.24557 127.233934 
L 206.671834 129.292828 
L 207.090809 131.351722 
L 207.508562 133.410617 
L 207.932904 135.469511 
L 208.372736 137.528405 
L 208.83722 139.5873 
L 209.334878 141.646194 
L 209.8727 143.705088 
L 210.455366 145.763983 
L 211.084622 147.822877 
L 211.758858 149.881771 
L 212.472885 151.940666 
L 213.217907 153.99956 
L 213.981691 156.058454 
L 214.748941 158.117349 
L 215.501896 160.176243 
L 216.221212 162.235137 
L 216.887104 164.294032 
L 217.480748 166.352926 
L 217.985819 168.41182 
L 218.389987 170.470715 
L 218.686156 172.529609 
L 218.873193 174.588503 
L 218.955977 176.647398 
L 218.944683 178.706292 
L 218.853345 180.765186 
L 218.697907 182.824081 
L 218.494034 184.882975 
L 218.255018 186.941869 
L 217.990104 189.000764 
L 217.703449 191.059658 
L 217.393836 193.118552 
L 217.055134 195.177446 
L 216.677384 197.236341 
L 216.248319 199.295235 
L 215.755125 201.354129 
L 215.186224 203.413024 
L 214.532932 205.471918 
L 213.790864 207.530812 
L 212.960972 209.589707 
L 212.050149 211.648601 
L 211.071312 213.707495 
L 210.042882 215.76639 
L 208.987653 217.825284 
L 207.931069 219.884178 
L 206.89906 221.943073 
L 205.915657 224.001967 
L 205.000703 226.060861 
L 204.167978 228.119756 
L 203.42402 230.17865 
L 202.767831 232.237544 
L 202.191477 234.296439 
L 201.681487 236.355333 
L 201.220818 238.414227 
L 200.791071 240.473122 
L 200.374656 242.532016 
L 199.956651 244.59091 
L 199.526132 246.649805 
L 199.076914 248.708699 
L 198.607666 250.767593 
L 198.121496 252.826488 
L 197.625103 254.885382 
L 197.127673 256.944276 
L 196.639656 259.00317 
L 196.17158 261.062065 
z
" clip-path="url(#p9158f7ac0b)" style="fill: #1f77b4; fill-opacity: 0.3"/>
   </g>
   <g id="matplotlib.axis_2">
    <g id="ytick_9">
     <g id="line2d_9">
      <g>
       <use xlink:href="#md015ba2b5f" x="165.458" y="247.910792" style="stroke: #000000; stroke-width: 0.8"/>
      </g>
     </g>
     <g id="text_11">
      <!-- 0.30 -->
      <g transform="translate(136.192375 251.710011)scale(0.1 -0.1)">
       <defs>
        <path id="DejaVuSans-33" d="M 2597 2516 
Q 3050 2419 3304 2112 
Q 3559 1806 3559 1356 
Q 3559 666 3084 287 
Q 2609 -91 1734 -91 
Q 1441 -91 1130 -33 
Q 819 25 488 141 
L 488 750 
Q 750 597 1062 519 
Q 1375 441 1716 441 
Q 2309 441 2620 675 
Q 2931 909 2931 1356 
Q 2931 1769 2642 2001 
Q 2353 2234 1838 2234 
L 1294 2234 
L 1294 2753 
L 1863 2753 
Q 2328 2753 2575 2939 
Q 2822 3125 2822 3475 
Q 2822 3834 2567 4026 
Q 2313 4219 1838 4219 
Q 1578 4219 1281 4162 
Q 984 4106 628 3988 
L 628 4550 
Q 988 4650 1302 4700 
Q 1616 4750 1894 4750 
Q 2613 4750 3031 4423 
Q 3450 4097 3450 3541 
Q 3450 3153 3228 2886 
Q 3006 2619 2597 2516 
z
" transform="scale(0.015625)"/>
       </defs>
       <use xlink:href="#DejaVuSans-30"/>
       <use xlink:href="#DejaVuSans-2e" x="63.623047"/>
       <use xlink:href="#DejaVuSans-33" x="95.410156"/>
       <use xlink:href="#DejaVuSans-30" x="159.033203"/>
      </g>
     </g>
    </g>
    <g id="ytick_10">
     <g id="line2d_10">
      <g>
       <use xlink:href="#md015ba2b5f" x="165.458" y="220.371748" style="stroke: #000000; stroke-width: 0.8"/>
      </g>
     </g>
     <g id="text_12">
      <!-- 0.35 -->
      <g transform="translate(136.192375 224.170967)scale(0.1 -0.1)">
       <use xlink:href="#DejaVuSans-30"/>
       <use xlink:href="#DejaVuSans-2e" x="63.623047"/>
       <use xlink:href="#DejaVuSans-33" x="95.410156"/>
       <use xlink:href="#DejaVuSans-35" x="159.033203"/>
      </g>
     </g>
    </g>
    <g id="ytick_11">
     <g id="line2d_11">
      <g>
       <use xlink:href="#md015ba2b5f" x="165.458" y="192.832705" style="stroke: #000000; stroke-width: 0.8"/>
      </g>
     </g>
     <g id="text_13">
      <!-- 0.40 -->
      <g transform="translate(136.192375 196.631923)scale(0.1 -0.1)">
       <use xlink:href="#DejaVuSans-30"/>
       <use xlink:href="#DejaVuSans-2e" x="63.623047"/>
       <use xlink:href="#DejaVuSans-34" x="95.410156"/>
       <use xlink:href="#DejaVuSans-30" x="159.033203"/>
      </g>
     </g>
    </g>
    <g id="ytick_12">
     <g id="line2d_12">
      <g>
       <use xlink:href="#md015ba2b5f" x="165.458" y="165.293661" style="stroke: #000000; stroke-width: 0.8"/>
      </g>
     </g>
     <g id="text_14">
      <!-- 0.45 -->
      <g transform="translate(136.192375 169.09288)scale(0.1 -0.1)">
       <use xlink:href="#DejaVuSans-30"/>
       <use xlink:href="#DejaVuSans-2e" x="63.623047"/>
       <use xlink:href="#DejaVuSans-34" x="95.410156"/>
       <use xlink:href="#DejaVuSans-35" x="159.033203"/>
      </g>
     </g>
    </g>
    <g id="ytick_13">
     <g id="line2d_13">
      <g>
       <use xlink:href="#md015ba2b5f" x="165.458" y="137.754617" style="stroke: #000000; stroke-width: 0.8"/>
      </g>
     </g>
     <g id="text_15">
      <!-- 0.50 -->
      <g transform="translate(136.192375 141.553836)scale(0.1 -0.1)">
       <use xlink:href="#DejaVuSans-30"/>
       <use xlink:href="#DejaVuSans-2e" x="63.623047"/>
       <use xlink:href="#DejaVuSans-35" x="95.410156"/>
       <use xlink:href="#DejaVuSans-30" x="159.033203"/>
      </g>
     </g>
    </g>
    <g id="ytick_14">
     <g id="line2d_14">
      <g>
       <use xlink:href="#md015ba2b5f" x="165.458" y="110.215574" style="stroke: #000000; stroke-width: 0.8"/>
      </g>
     </g>
     <g id="text_16">
      <!-- 0.55 -->
      <g transform="translate(136.192375 114.014792)scale(0.1 -0.1)">
       <use xlink:href="#DejaVuSans-30"/>
       <use xlink:href="#DejaVuSans-2e" x="63.623047"/>
       <use xlink:href="#DejaVuSans-35" x="95.410156"/>
       <use xlink:href="#DejaVuSans-35" x="159.033203"/>
      </g>
     </g>
    </g>
    <g id="ytick_15">
     <g id="line2d_15">
      <g>
       <use xlink:href="#md015ba2b5f" x="165.458" y="82.67653" style="stroke: #000000; stroke-width: 0.8"/>
      </g>
     </g>
     <g id="text_17">
      <!-- 0.60 -->
      <g transform="translate(136.192375 86.475749)scale(0.1 -0.1)">
       <use xlink:href="#DejaVuSans-30"/>
       <use xlink:href="#DejaVuSans-2e" x="63.623047"/>
       <use xlink:href="#DejaVuSans-36" x="95.410156"/>
       <use xlink:href="#DejaVuSans-30" x="159.033203"/>
      </g>
     </g>
    </g>
    <g id="ytick_16">
     <g id="line2d_16">
      <g>
       <use xlink:href="#md015ba2b5f" x="165.458" y="55.137486" style="stroke: #000000; stroke-width: 0.8"/>
      </g>
     </g>
     <g id="text_18">
      <!-- 0.65 -->
      <g transform="translate(136.192375 58.936705)scale(0.1 -0.1)">
       <use xlink:href="#DejaVuSans-30"/>
       <use xlink:href="#DejaVuSans-2e" x="63.623047"/>
       <use xlink:href="#DejaVuSans-36" x="95.410156"/>
       <use xlink:href="#DejaVuSans-35" x="159.033203"/>
      </g>
     </g>
    </g>
    <g id="text_19">
     <!-- MAE [$\AA$] -->
     <g transform="translate(130.112687 178.996796)rotate(-90)scale(0.1 -0.1)">
      <defs>
       <path id="DejaVuSans-41" d="M 2188 4044 
L 1331 1722 
L 3047 1722 
L 2188 4044 
z
M 1831 4666 
L 2547 4666 
L 4325 0 
L 3669 0 
L 3244 1197 
L 1141 1197 
L 716 0 
L 50 0 
L 1831 4666 
z
" transform="scale(0.015625)"/>
       <path id="DejaVuSans-45" d="M 628 4666 
L 3578 4666 
L 3578 4134 
L 1259 4134 
L 1259 2753 
L 3481 2753 
L 3481 2222 
L 1259 2222 
L 1259 531 
L 3634 531 
L 3634 0 
L 628 0 
L 628 4666 
z
" transform="scale(0.015625)"/>
      </defs>
      <use xlink:href="#DejaVuSans-4d" transform="translate(0 0.171875)"/>
      <use xlink:href="#DejaVuSans-41" transform="translate(86.279297 0.171875)"/>
      <use xlink:href="#DejaVuSans-45" transform="translate(154.6875 0.171875)"/>
      <use xlink:href="#DejaVuSans-20" transform="translate(217.871094 0.171875)"/>
      <use xlink:href="#DejaVuSans-5b" transform="translate(249.658203 0.171875)"/>
      <use xlink:href="#DejaVuSans-Oblique-c5" transform="translate(288.671875 0.171875)"/>
      <use xlink:href="#DejaVuSans-5d" transform="translate(357.080078 0.171875)"/>
     </g>
    </g>
   </g>
   <g id="LineCollection_5">
    <path d="M 180.743136 173.763941 
L 206.218364 173.763941 
" clip-path="url(#p9158f7ac0b)" style="fill: none; stroke: #1f77b4; stroke-width: 1.5"/>
   </g>
   <g id="LineCollection_6">
    <path d="M 180.743136 57.231527 
L 206.218364 57.231527 
" clip-path="url(#p9158f7ac0b)" style="fill: none; stroke: #1f77b4; stroke-width: 1.5"/>
   </g>
   <g id="LineCollection_7">
    <path d="M 180.743136 261.062065 
L 206.218364 261.062065 
" clip-path="url(#p9158f7ac0b)" style="fill: none; stroke: #1f77b4; stroke-width: 1.5"/>
   </g>
   <g id="LineCollection_8">
    <path d="M 193.48075 261.062065 
L 193.48075 57.231527 
" clip-path="url(#p9158f7ac0b)" style="fill: none; stroke: #1f77b4; stroke-width: 1.5"/>
   </g>
   <g id="patch_8">
    <path d="M 165.458 271.253592 
L 165.458 47.04 
" style="fill: none; stroke: #000000; stroke-width: 0.8; stroke-linejoin: miter; stroke-linecap: square"/>
   </g>
   <g id="patch_9">
    <path d="M 221.5035 271.253592 
L 221.5035 47.04 
" style="fill: none; stroke: #000000; stroke-width: 0.8; stroke-linejoin: miter; stroke-linecap: square"/>
   </g>
   <g id="patch_10">
    <path d="M 165.458 271.253592 
L 221.5035 271.253592 
" style="fill: none; stroke: #000000; stroke-width: 0.8; stroke-linejoin: miter; stroke-linecap: square"/>
   </g>
   <g id="patch_11">
    <path d="M 165.458 47.04 
L 221.5035 47.04 
" style="fill: none; stroke: #000000; stroke-width: 0.8; stroke-linejoin: miter; stroke-linecap: square"/>
   </g>
   <g id="text_20">
    <!-- MAE -->
    <g transform="translate(180.40825 41.04)scale(0.12 -0.12)">
     <use xlink:href="#DejaVuSans-4d"/>
     <use xlink:href="#DejaVuSans-41" x="86.279297"/>
     <use xlink:href="#DejaVuSans-45" x="154.6875"/>
    </g>
   </g>
  </g>
  <g id="axes_3">
   <g id="patch_12">
    <path d="M 280.0235 271.253592 
L 336.069 271.253592 
L 336.069 47.04 
L 280.0235 47.04 
z
" style="fill: #ffffff"/>
   </g>
   <g id="PolyCollection_3">
    <path d="M 308.649453 261.062065 
L 307.443047 261.062065 
L 307.358817 259.00317 
L 307.263291 256.944276 
L 307.150757 254.885382 
L 307.014226 252.826488 
L 306.846068 250.767593 
L 306.63889 248.708699 
L 306.386542 246.649805 
L 306.085103 244.59091 
L 305.733692 242.532016 
L 305.334939 240.473122 
L 304.895001 238.414227 
L 304.423085 236.355333 
L 303.930495 234.296439 
L 303.429338 232.237544 
L 302.931074 230.17865 
L 302.445146 228.119756 
L 301.977893 226.060861 
L 301.531913 224.001967 
L 301.105931 221.943073 
L 300.695135 219.884178 
L 300.291886 217.825284 
L 299.886641 215.76639 
L 299.468933 213.707495 
L 299.028325 211.648601 
L 298.555246 209.589707 
L 298.041696 207.530812 
L 297.481798 205.471918 
L 296.87219 203.413024 
L 296.212198 201.354129 
L 295.503767 199.295235 
L 294.751094 197.236341 
L 293.960008 195.177446 
L 293.137162 193.118552 
L 292.289237 191.059658 
L 291.422347 189.000764 
L 290.541867 186.941869 
L 289.652796 184.882975 
L 288.760637 182.824081 
L 287.872594 180.765186 
L 286.998761 178.706292 
L 286.152903 176.647398 
L 285.352476 174.588503 
L 284.617729 172.529609 
L 283.969939 170.470715 
L 283.429089 168.41182 
L 283.011479 166.352926 
L 282.727769 164.294032 
L 282.581895 162.235137 
L 282.571023 160.176243 
L 282.686468 158.117349 
L 282.915288 156.058454 
L 283.242097 153.99956 
L 283.650713 151.940666 
L 284.125349 149.881771 
L 284.651254 147.822877 
L 285.214908 145.763983 
L 285.803941 143.705088 
L 286.40701 141.646194 
L 287.013776 139.5873 
L 287.615057 137.528405 
L 288.20314 135.469511 
L 288.772188 133.410617 
L 289.318664 131.351722 
L 289.841689 129.292828 
L 290.343281 127.233934 
L 290.828384 125.17504 
L 291.304602 123.116145 
L 291.781566 121.057251 
L 292.269911 118.998357 
L 292.779914 116.939462 
L 293.319981 114.880568 
L 293.895253 112.821674 
L 294.506647 110.762779 
L 295.150591 108.703885 
L 295.819572 106.644991 
L 296.50343 104.586096 
L 297.191126 102.527202 
L 297.872603 100.468308 
L 298.5403 98.409413 
L 299.189993 96.350519 
L 299.820804 94.291625 
L 300.434408 92.23273 
L 301.033698 90.173836 
L 301.62125 88.114942 
L 302.197993 86.056047 
L 302.762387 83.997153 
L 303.310292 81.938259 
L 303.835524 79.879364 
L 304.330919 77.82047 
L 304.789634 75.761576 
L 305.206372 73.702681 
L 305.578263 71.643787 
L 305.905232 69.584893 
L 306.189839 67.525999 
L 306.436657 65.467104 
L 306.651395 63.40821 
L 306.839955 61.349316 
L 307.007629 59.290421 
L 307.158553 57.231527 
L 308.933947 57.231527 
L 308.933947 57.231527 
L 309.084871 59.290421 
L 309.252545 61.349316 
L 309.441105 63.40821 
L 309.655843 65.467104 
L 309.902661 67.525999 
L 310.187268 69.584893 
L 310.514237 71.643787 
L 310.886128 73.702681 
L 311.302866 75.761576 
L 311.761581 77.82047 
L 312.256976 79.879364 
L 312.782208 81.938259 
L 313.330113 83.997153 
L 313.894507 86.056047 
L 314.47125 88.114942 
L 315.058802 90.173836 
L 315.658092 92.23273 
L 316.271696 94.291625 
L 316.902507 96.350519 
L 317.5522 98.409413 
L 318.219897 100.468308 
L 318.901374 102.527202 
L 319.58907 104.586096 
L 320.272928 106.644991 
L 320.941909 108.703885 
L 321.585853 110.762779 
L 322.197247 112.821674 
L 322.772519 114.880568 
L 323.312586 116.939462 
L 323.822589 118.998357 
L 324.310934 121.057251 
L 324.787898 123.116145 
L 325.264116 125.17504 
L 325.749219 127.233934 
L 326.250811 129.292828 
L 326.773836 131.351722 
L 327.320312 133.410617 
L 327.88936 135.469511 
L 328.477443 137.528405 
L 329.078724 139.5873 
L 329.68549 141.646194 
L 330.288559 143.705088 
L 330.877592 145.763983 
L 331.441246 147.822877 
L 331.967151 149.881771 
L 332.441787 151.940666 
L 332.850403 153.99956 
L 333.177212 156.058454 
L 333.406032 158.117349 
L 333.521477 160.176243 
L 333.510605 162.235137 
L 333.364731 164.294032 
L 333.081021 166.352926 
L 332.663411 168.41182 
L 332.122561 170.470715 
L 331.474771 172.529609 
L 330.740024 174.588503 
L 329.939597 176.647398 
L 329.093739 178.706292 
L 328.219906 180.765186 
L 327.331863 182.824081 
L 326.439704 184.882975 
L 325.550633 186.941869 
L 324.670153 189.000764 
L 323.803263 191.059658 
L 322.955338 193.118552 
L 322.132492 195.177446 
L 321.341406 197.236341 
L 320.588733 199.295235 
L 319.880302 201.354129 
L 319.22031 203.413024 
L 318.610702 205.471918 
L 318.050804 207.530812 
L 317.537254 209.589707 
L 317.064175 211.648601 
L 316.623567 213.707495 
L 316.205859 215.76639 
L 315.800614 217.825284 
L 315.397365 219.884178 
L 314.986569 221.943073 
L 314.560587 224.001967 
L 314.114607 226.060861 
L 313.647354 228.119756 
L 313.161426 230.17865 
L 312.663162 232.237544 
L 312.162005 234.296439 
L 311.669415 236.355333 
L 311.197499 238.414227 
L 310.757561 240.473122 
L 310.358808 242.532016 
L 310.007397 244.59091 
L 309.705958 246.649805 
L 309.45361 248.708699 
L 309.246432 250.767593 
L 309.078274 252.826488 
L 308.941743 254.885382 
L 308.829209 256.944276 
L 308.733683 259.00317 
L 308.649453 261.062065 
z
" clip-path="url(#p1bcfc744f4)" style="fill: #1f77b4; fill-opacity: 0.3"/>
   </g>
   <g id="matplotlib.axis_3">
    <g id="ytick_17">
     <g id="line2d_17">
      <g>
       <use xlink:href="#md015ba2b5f" x="280.0235" y="234.008371" style="stroke: #000000; stroke-width: 0.8"/>
      </g>
     </g>
     <g id="text_21">
      <!-- 0.1 -->
      <g transform="translate(257.120375 237.80759)scale(0.1 -0.1)">
       <use xlink:href="#DejaVuSans-30"/>
       <use xlink:href="#DejaVuSans-2e" x="63.623047"/>
       <use xlink:href="#DejaVuSans-31" x="95.410156"/>
      </g>
     </g>
    </g>
    <g id="ytick_18">
     <g id="line2d_18">
      <g>
       <use xlink:href="#md015ba2b5f" x="280.0235" y="185.589688" style="stroke: #000000; stroke-width: 0.8"/>
      </g>
     </g>
     <g id="text_22">
      <!-- 0.2 -->
      <g transform="translate(257.120375 189.388907)scale(0.1 -0.1)">
       <defs>
        <path id="DejaVuSans-32" d="M 1228 531 
L 3431 531 
L 3431 0 
L 469 0 
L 469 531 
Q 828 903 1448 1529 
Q 2069 2156 2228 2338 
Q 2531 2678 2651 2914 
Q 2772 3150 2772 3378 
Q 2772 3750 2511 3984 
Q 2250 4219 1831 4219 
Q 1534 4219 1204 4116 
Q 875 4013 500 3803 
L 500 4441 
Q 881 4594 1212 4672 
Q 1544 4750 1819 4750 
Q 2544 4750 2975 4387 
Q 3406 4025 3406 3419 
Q 3406 3131 3298 2873 
Q 3191 2616 2906 2266 
Q 2828 2175 2409 1742 
Q 1991 1309 1228 531 
z
" transform="scale(0.015625)"/>
       </defs>
       <use xlink:href="#DejaVuSans-30"/>
       <use xlink:href="#DejaVuSans-2e" x="63.623047"/>
       <use xlink:href="#DejaVuSans-32" x="95.410156"/>
      </g>
     </g>
    </g>
    <g id="ytick_19">
     <g id="line2d_19">
      <g>
       <use xlink:href="#md015ba2b5f" x="280.0235" y="137.171004" style="stroke: #000000; stroke-width: 0.8"/>
      </g>
     </g>
     <g id="text_23">
      <!-- 0.3 -->
      <g transform="translate(257.120375 140.970223)scale(0.1 -0.1)">
       <use xlink:href="#DejaVuSans-30"/>
       <use xlink:href="#DejaVuSans-2e" x="63.623047"/>
       <use xlink:href="#DejaVuSans-33" x="95.410156"/>
      </g>
     </g>
    </g>
    <g id="ytick_20">
     <g id="line2d_20">
      <g>
       <use xlink:href="#md015ba2b5f" x="280.0235" y="88.752321" style="stroke: #000000; stroke-width: 0.8"/>
      </g>
     </g>
     <g id="text_24">
      <!-- 0.4 -->
      <g transform="translate(257.120375 92.55154)scale(0.1 -0.1)">
       <use xlink:href="#DejaVuSans-30"/>
       <use xlink:href="#DejaVuSans-2e" x="63.623047"/>
       <use xlink:href="#DejaVuSans-34" x="95.410156"/>
      </g>
     </g>
    </g>
    <g id="text_25">
     <!-- MSE [$\AA$] -->
     <g transform="translate(251.040687 178.746796)rotate(-90)scale(0.1 -0.1)">
      <use xlink:href="#DejaVuSans-4d" transform="translate(0 0.171875)"/>
      <use xlink:href="#DejaVuSans-53" transform="translate(86.279297 0.171875)"/>
      <use xlink:href="#DejaVuSans-45" transform="translate(149.755859 0.171875)"/>
      <use xlink:href="#DejaVuSans-20" transform="translate(212.939453 0.171875)"/>
      <use xlink:href="#DejaVuSans-5b" transform="translate(244.726562 0.171875)"/>
      <use xlink:href="#DejaVuSans-Oblique-c5" transform="translate(283.740234 0.171875)"/>
      <use xlink:href="#DejaVuSans-5d" transform="translate(352.148438 0.171875)"/>
     </g>
    </g>
   </g>
   <g id="LineCollection_9">
    <path d="M 295.308636 155.999363 
L 320.783864 155.999363 
" clip-path="url(#p1bcfc744f4)" style="fill: none; stroke: #1f77b4; stroke-width: 1.5"/>
   </g>
   <g id="LineCollection_10">
    <path d="M 295.308636 57.231527 
L 320.783864 57.231527 
" clip-path="url(#p1bcfc744f4)" style="fill: none; stroke: #1f77b4; stroke-width: 1.5"/>
   </g>
   <g id="LineCollection_11">
    <path d="M 295.308636 261.062065 
L 320.783864 261.062065 
" clip-path="url(#p1bcfc744f4)" style="fill: none; stroke: #1f77b4; stroke-width: 1.5"/>
   </g>
   <g id="LineCollection_12">
    <path d="M 308.04625 261.062065 
L 308.04625 57.231527 
" clip-path="url(#p1bcfc744f4)" style="fill: none; stroke: #1f77b4; stroke-width: 1.5"/>
   </g>
   <g id="patch_13">
    <path d="M 280.0235 271.253592 
L 280.0235 47.04 
" style="fill: none; stroke: #000000; stroke-width: 0.8; stroke-linejoin: miter; stroke-linecap: square"/>
   </g>
   <g id="patch_14">
    <path d="M 336.069 271.253592 
L 336.069 47.04 
" style="fill: none; stroke: #000000; stroke-width: 0.8; stroke-linejoin: miter; stroke-linecap: square"/>
   </g>
   <g id="patch_15">
    <path d="M 280.0235 271.253592 
L 336.069 271.253592 
" style="fill: none; stroke: #000000; stroke-width: 0.8; stroke-linejoin: miter; stroke-linecap: square"/>
   </g>
   <g id="patch_16">
    <path d="M 280.0235 47.04 
L 336.069 47.04 
" style="fill: none; stroke: #000000; stroke-width: 0.8; stroke-linejoin: miter; stroke-linecap: square"/>
   </g>
   <g id="text_26">
    <!-- MSE -->
    <g transform="translate(295.269062 41.04)scale(0.12 -0.12)">
     <use xlink:href="#DejaVuSans-4d"/>
     <use xlink:href="#DejaVuSans-53" x="86.279297"/>
     <use xlink:href="#DejaVuSans-45" x="149.755859"/>
    </g>
   </g>
  </g>
  <g id="axes_4">
   <g id="patch_17">
    <path d="M 394.589 271.253592 
L 450.6345 271.253592 
L 450.6345 47.04 
L 394.589 47.04 
z
" style="fill: #ffffff"/>
   </g>
   <g id="PolyCollection_4">
    <path d="M 425.713513 261.062065 
L 419.509987 261.062065 
L 419.298369 259.00317 
L 419.095463 256.944276 
L 418.896159 254.885382 
L 418.694074 252.826488 
L 418.482115 250.767593 
L 418.252958 248.708699 
L 417.999368 246.649805 
L 417.714377 244.59091 
L 417.39138 242.532016 
L 417.02427 240.473122 
L 416.607712 238.414227 
L 416.137618 236.355333 
L 415.611787 234.296439 
L 415.030585 232.237544 
L 414.397446 230.17865 
L 413.718988 228.119756 
L 413.004556 226.060861 
L 412.265183 224.001967 
L 411.51208 221.943073 
L 410.754961 219.884178 
L 410.000602 217.825284 
L 409.252029 215.76639 
L 408.508597 213.707495 
L 407.767025 211.648601 
L 407.023171 209.589707 
L 406.274111 207.530812 
L 405.519953 205.471918 
L 404.764856 203.413024 
L 404.016915 201.354129 
L 403.286876 199.295235 
L 402.586005 197.236341 
L 401.923684 195.177446 
L 401.305442 193.118552 
L 400.73204 191.059658 
L 400.199946 189.000764 
L 399.703141 186.941869 
L 399.235784 184.882975 
L 398.795001 182.824081 
L 398.382962 180.765186 
L 398.007583 178.706292 
L 397.681558 176.647398 
L 397.419897 174.588503 
L 397.23658 172.529609 
L 397.141204 170.470715 
L 397.136523 168.41182 
L 397.217559 166.352926 
L 397.372504 164.294032 
L 397.585175 162.235137 
L 397.83832 160.176243 
L 398.116908 158.117349 
L 398.410514 156.058454 
L 398.71425 153.99956 
L 399.028104 151.940666 
L 399.355007 149.881771 
L 399.698321 147.822877 
L 400.059529 145.763983 
L 400.436841 143.705088 
L 400.825073 141.646194 
L 401.216768 139.5873 
L 401.604129 137.528405 
L 401.981118 135.469511 
L 402.345035 133.410617 
L 402.697089 131.351722 
L 403.041829 129.292828 
L 403.385622 127.233934 
L 403.734712 125.17504 
L 404.093468 123.116145 
L 404.463377 121.057251 
L 404.843071 118.998357 
L 405.229357 116.939462 
L 405.61889 114.880568 
L 406.009945 112.821674 
L 406.403716 110.762779 
L 406.804709 108.703885 
L 407.220097 106.644991 
L 407.658196 104.586096 
L 408.1265 102.527202 
L 408.629811 100.468308 
L 409.168994 98.409413 
L 409.74067 96.350519 
L 410.33792 94.291625 
L 410.951764 92.23273 
L 411.573015 90.173836 
L 412.194007 88.114942 
L 412.809767 86.056047 
L 413.41838 83.997153 
L 414.020514 81.938259 
L 414.618308 79.879364 
L 415.213958 77.82047 
L 415.808384 75.761576 
L 416.400319 73.702681 
L 416.98599 71.643787 
L 417.559448 69.584893 
L 418.113379 67.525999 
L 418.640198 65.467104 
L 419.133128 63.40821 
L 419.587066 61.349316 
L 419.999061 59.290421 
L 420.36839 57.231527 
L 424.85511 57.231527 
L 424.85511 57.231527 
L 425.224439 59.290421 
L 425.636434 61.349316 
L 426.090372 63.40821 
L 426.583302 65.467104 
L 427.110121 67.525999 
L 427.664052 69.584893 
L 428.23751 71.643787 
L 428.823181 73.702681 
L 429.415116 75.761576 
L 430.009542 77.82047 
L 430.605192 79.879364 
L 431.202986 81.938259 
L 431.80512 83.997153 
L 432.413733 86.056047 
L 433.029493 88.114942 
L 433.650485 90.173836 
L 434.271736 92.23273 
L 434.88558 94.291625 
L 435.48283 96.350519 
L 436.054506 98.409413 
L 436.593689 100.468308 
L 437.097 102.527202 
L 437.565304 104.586096 
L 438.003403 106.644991 
L 438.418791 108.703885 
L 438.819784 110.762779 
L 439.213555 112.821674 
L 439.60461 114.880568 
L 439.994143 116.939462 
L 440.380429 118.998357 
L 440.760123 121.057251 
L 441.130032 123.116145 
L 441.488788 125.17504 
L 441.837878 127.233934 
L 442.181671 129.292828 
L 442.526411 131.351722 
L 442.878465 133.410617 
L 443.242382 135.469511 
L 443.619371 137.528405 
L 444.006732 139.5873 
L 444.398427 141.646194 
L 444.786659 143.705088 
L 445.163971 145.763983 
L 445.525179 147.822877 
L 445.868493 149.881771 
L 446.195396 151.940666 
L 446.50925 153.99956 
L 446.812986 156.058454 
L 447.106592 158.117349 
L 447.38518 160.176243 
L 447.638325 162.235137 
L 447.850996 164.294032 
L 448.005941 166.352926 
L 448.086977 168.41182 
L 448.082296 170.470715 
L 447.98692 172.529609 
L 447.803603 174.588503 
L 447.541942 176.647398 
L 447.215917 178.706292 
L 446.840538 180.765186 
L 446.428499 182.824081 
L 445.987716 184.882975 
L 445.520359 186.941869 
L 445.023554 189.000764 
L 444.49146 191.059658 
L 443.918058 193.118552 
L 443.299816 195.177446 
L 442.637495 197.236341 
L 441.936624 199.295235 
L 441.206585 201.354129 
L 440.458644 203.413024 
L 439.703547 205.471918 
L 438.949389 207.530812 
L 438.200329 209.589707 
L 437.456475 211.648601 
L 436.714903 213.707495 
L 435.971471 215.76639 
L 435.222898 217.825284 
L 434.468539 219.884178 
L 433.71142 221.943073 
L 432.958317 224.001967 
L 432.218944 226.060861 
L 431.504512 228.119756 
L 430.826054 230.17865 
L 430.192915 232.237544 
L 429.611713 234.296439 
L 429.085882 236.355333 
L 428.615788 238.414227 
L 428.19923 240.473122 
L 427.83212 242.532016 
L 427.509123 244.59091 
L 427.224132 246.649805 
L 426.970542 248.708699 
L 426.741385 250.767593 
L 426.529426 252.826488 
L 426.327341 254.885382 
L 426.128037 256.944276 
L 425.925131 259.00317 
L 425.713513 261.062065 
z
" clip-path="url(#pcc7a33d0d1)" style="fill: #1f77b4; fill-opacity: 0.3"/>
   </g>
   <g id="matplotlib.axis_4">
    <g id="ytick_21">
     <g id="line2d_21">
      <g>
       <use xlink:href="#md015ba2b5f" x="394.589" y="244.076187" style="stroke: #000000; stroke-width: 0.8"/>
      </g>
     </g>
     <g id="text_27">
      <!-- 0.15 -->
      <g transform="translate(365.323375 247.875405)scale(0.1 -0.1)">
       <use xlink:href="#DejaVuSans-30"/>
       <use xlink:href="#DejaVuSans-2e" x="63.623047"/>
       <use xlink:href="#DejaVuSans-31" x="95.410156"/>
       <use xlink:href="#DejaVuSans-35" x="159.033203"/>
      </g>
     </g>
    </g>
    <g id="ytick_22">
     <g id="line2d_22">
      <g>
       <use xlink:href="#md015ba2b5f" x="394.589" y="215.76639" style="stroke: #000000; stroke-width: 0.8"/>
      </g>
     </g>
     <g id="text_28">
      <!-- 0.20 -->
      <g transform="translate(365.323375 219.565608)scale(0.1 -0.1)">
       <use xlink:href="#DejaVuSans-30"/>
       <use xlink:href="#DejaVuSans-2e" x="63.623047"/>
       <use xlink:href="#DejaVuSans-32" x="95.410156"/>
       <use xlink:href="#DejaVuSans-30" x="159.033203"/>
      </g>
     </g>
    </g>
    <g id="ytick_23">
     <g id="line2d_23">
      <g>
       <use xlink:href="#md015ba2b5f" x="394.589" y="187.456593" style="stroke: #000000; stroke-width: 0.8"/>
      </g>
     </g>
     <g id="text_29">
      <!-- 0.25 -->
      <g transform="translate(365.323375 191.255812)scale(0.1 -0.1)">
       <use xlink:href="#DejaVuSans-30"/>
       <use xlink:href="#DejaVuSans-2e" x="63.623047"/>
       <use xlink:href="#DejaVuSans-32" x="95.410156"/>
       <use xlink:href="#DejaVuSans-35" x="159.033203"/>
      </g>
     </g>
    </g>
    <g id="ytick_24">
     <g id="line2d_24">
      <g>
       <use xlink:href="#md015ba2b5f" x="394.589" y="159.146796" style="stroke: #000000; stroke-width: 0.8"/>
      </g>
     </g>
     <g id="text_30">
      <!-- 0.30 -->
      <g transform="translate(365.323375 162.946015)scale(0.1 -0.1)">
       <use xlink:href="#DejaVuSans-30"/>
       <use xlink:href="#DejaVuSans-2e" x="63.623047"/>
       <use xlink:href="#DejaVuSans-33" x="95.410156"/>
       <use xlink:href="#DejaVuSans-30" x="159.033203"/>
      </g>
     </g>
    </g>
    <g id="ytick_25">
     <g id="line2d_25">
      <g>
       <use xlink:href="#md015ba2b5f" x="394.589" y="130.836999" style="stroke: #000000; stroke-width: 0.8"/>
      </g>
     </g>
     <g id="text_31">
      <!-- 0.35 -->
      <g transform="translate(365.323375 134.636218)scale(0.1 -0.1)">
       <use xlink:href="#DejaVuSans-30"/>
       <use xlink:href="#DejaVuSans-2e" x="63.623047"/>
       <use xlink:href="#DejaVuSans-33" x="95.410156"/>
       <use xlink:href="#DejaVuSans-35" x="159.033203"/>
      </g>
     </g>
    </g>
    <g id="ytick_26">
     <g id="line2d_26">
      <g>
       <use xlink:href="#md015ba2b5f" x="394.589" y="102.527202" style="stroke: #000000; stroke-width: 0.8"/>
      </g>
     </g>
     <g id="text_32">
      <!-- 0.40 -->
      <g transform="translate(365.323375 106.326421)scale(0.1 -0.1)">
       <use xlink:href="#DejaVuSans-30"/>
       <use xlink:href="#DejaVuSans-2e" x="63.623047"/>
       <use xlink:href="#DejaVuSans-34" x="95.410156"/>
       <use xlink:href="#DejaVuSans-30" x="159.033203"/>
      </g>
     </g>
    </g>
    <g id="ytick_27">
     <g id="line2d_27">
      <g>
       <use xlink:href="#md015ba2b5f" x="394.589" y="74.217405" style="stroke: #000000; stroke-width: 0.8"/>
      </g>
     </g>
     <g id="text_33">
      <!-- 0.45 -->
      <g transform="translate(365.323375 78.016624)scale(0.1 -0.1)">
       <use xlink:href="#DejaVuSans-30"/>
       <use xlink:href="#DejaVuSans-2e" x="63.623047"/>
       <use xlink:href="#DejaVuSans-34" x="95.410156"/>
       <use xlink:href="#DejaVuSans-35" x="159.033203"/>
      </g>
     </g>
    </g>
    <g id="text_34">
     <!-- % NOE fulfilled [1/100 %] -->
     <g transform="translate(359.243688 222.647577)rotate(-90)scale(0.1 -0.1)">
      <defs>
       <path id="DejaVuSans-25" d="M 4653 2053 
Q 4381 2053 4226 1822 
Q 4072 1591 4072 1178 
Q 4072 772 4226 539 
Q 4381 306 4653 306 
Q 4919 306 5073 539 
Q 5228 772 5228 1178 
Q 5228 1588 5073 1820 
Q 4919 2053 4653 2053 
z
M 4653 2450 
Q 5147 2450 5437 2106 
Q 5728 1763 5728 1178 
Q 5728 594 5436 251 
Q 5144 -91 4653 -91 
Q 4153 -91 3862 251 
Q 3572 594 3572 1178 
Q 3572 1766 3864 2108 
Q 4156 2450 4653 2450 
z
M 1428 4353 
Q 1159 4353 1004 4120 
Q 850 3888 850 3481 
Q 850 3069 1003 2837 
Q 1156 2606 1428 2606 
Q 1700 2606 1854 2837 
Q 2009 3069 2009 3481 
Q 2009 3884 1853 4118 
Q 1697 4353 1428 4353 
z
M 4250 4750 
L 4750 4750 
L 1831 -91 
L 1331 -91 
L 4250 4750 
z
M 1428 4750 
Q 1922 4750 2215 4408 
Q 2509 4066 2509 3481 
Q 2509 2891 2217 2550 
Q 1925 2209 1428 2209 
Q 931 2209 642 2551 
Q 353 2894 353 3481 
Q 353 4063 643 4406 
Q 934 4750 1428 4750 
z
" transform="scale(0.015625)"/>
       <path id="DejaVuSans-4e" d="M 628 4666 
L 1478 4666 
L 3547 763 
L 3547 4666 
L 4159 4666 
L 4159 0 
L 3309 0 
L 1241 3903 
L 1241 0 
L 628 0 
L 628 4666 
z
" transform="scale(0.015625)"/>
       <path id="DejaVuSans-4f" d="M 2522 4238 
Q 1834 4238 1429 3725 
Q 1025 3213 1025 2328 
Q 1025 1447 1429 934 
Q 1834 422 2522 422 
Q 3209 422 3611 934 
Q 4013 1447 4013 2328 
Q 4013 3213 3611 3725 
Q 3209 4238 2522 4238 
z
M 2522 4750 
Q 3503 4750 4090 4092 
Q 4678 3434 4678 2328 
Q 4678 1225 4090 567 
Q 3503 -91 2522 -91 
Q 1538 -91 948 565 
Q 359 1222 359 2328 
Q 359 3434 948 4092 
Q 1538 4750 2522 4750 
z
" transform="scale(0.015625)"/>
       <path id="DejaVuSans-66" d="M 2375 4863 
L 2375 4384 
L 1825 4384 
Q 1516 4384 1395 4259 
Q 1275 4134 1275 3809 
L 1275 3500 
L 2222 3500 
L 2222 3053 
L 1275 3053 
L 1275 0 
L 697 0 
L 697 3053 
L 147 3053 
L 147 3500 
L 697 3500 
L 697 3744 
Q 697 4328 969 4595 
Q 1241 4863 1831 4863 
L 2375 4863 
z
" transform="scale(0.015625)"/>
       <path id="DejaVuSans-75" d="M 544 1381 
L 544 3500 
L 1119 3500 
L 1119 1403 
Q 1119 906 1312 657 
Q 1506 409 1894 409 
Q 2359 409 2629 706 
Q 2900 1003 2900 1516 
L 2900 3500 
L 3475 3500 
L 3475 0 
L 2900 0 
L 2900 538 
Q 2691 219 2414 64 
Q 2138 -91 1772 -91 
Q 1169 -91 856 284 
Q 544 659 544 1381 
z
M 1991 3584 
L 1991 3584 
z
" transform="scale(0.015625)"/>
       <path id="DejaVuSans-6c" d="M 603 4863 
L 1178 4863 
L 1178 0 
L 603 0 
L 603 4863 
z
" transform="scale(0.015625)"/>
       <path id="DejaVuSans-69" d="M 603 3500 
L 1178 3500 
L 1178 0 
L 603 0 
L 603 3500 
z
M 603 4863 
L 1178 4863 
L 1178 4134 
L 603 4134 
L 603 4863 
z
" transform="scale(0.015625)"/>
       <path id="DejaVuSans-65" d="M 3597 1894 
L 3597 1613 
L 953 1613 
Q 991 1019 1311 708 
Q 1631 397 2203 397 
Q 2534 397 2845 478 
Q 3156 559 3463 722 
L 3463 178 
Q 3153 47 2828 -22 
Q 2503 -91 2169 -91 
Q 1331 -91 842 396 
Q 353 884 353 1716 
Q 353 2575 817 3079 
Q 1281 3584 2069 3584 
Q 2775 3584 3186 3129 
Q 3597 2675 3597 1894 
z
M 3022 2063 
Q 3016 2534 2758 2815 
Q 2500 3097 2075 3097 
Q 1594 3097 1305 2825 
Q 1016 2553 972 2059 
L 3022 2063 
z
" transform="scale(0.015625)"/>
       <path id="DejaVuSans-64" d="M 2906 2969 
L 2906 4863 
L 3481 4863 
L 3481 0 
L 2906 0 
L 2906 525 
Q 2725 213 2448 61 
Q 2172 -91 1784 -91 
Q 1150 -91 751 415 
Q 353 922 353 1747 
Q 353 2572 751 3078 
Q 1150 3584 1784 3584 
Q 2172 3584 2448 3432 
Q 2725 3281 2906 2969 
z
M 947 1747 
Q 947 1113 1208 752 
Q 1469 391 1925 391 
Q 2381 391 2643 752 
Q 2906 1113 2906 1747 
Q 2906 2381 2643 2742 
Q 2381 3103 1925 3103 
Q 1469 3103 1208 2742 
Q 947 2381 947 1747 
z
" transform="scale(0.015625)"/>
       <path id="DejaVuSans-2f" d="M 1625 4666 
L 2156 4666 
L 531 -594 
L 0 -594 
L 1625 4666 
z
" transform="scale(0.015625)"/>
      </defs>
      <use xlink:href="#DejaVuSans-25"/>
      <use xlink:href="#DejaVuSans-20" x="95.019531"/>
      <use xlink:href="#DejaVuSans-4e" x="126.806641"/>
      <use xlink:href="#DejaVuSans-4f" x="201.611328"/>
      <use xlink:href="#DejaVuSans-45" x="280.322266"/>
      <use xlink:href="#DejaVuSans-20" x="343.505859"/>
      <use xlink:href="#DejaVuSans-66" x="375.292969"/>
      <use xlink:href="#DejaVuSans-75" x="410.498047"/>
      <use xlink:href="#DejaVuSans-6c" x="473.876953"/>
      <use xlink:href="#DejaVuSans-66" x="501.660156"/>
      <use xlink:href="#DejaVuSans-69" x="536.865234"/>
      <use xlink:href="#DejaVuSans-6c" x="564.648438"/>
      <use xlink:href="#DejaVuSans-6c" x="592.431641"/>
      <use xlink:href="#DejaVuSans-65" x="620.214844"/>
      <use xlink:href="#DejaVuSans-64" x="681.738281"/>
      <use xlink:href="#DejaVuSans-20" x="745.214844"/>
      <use xlink:href="#DejaVuSans-5b" x="777.001953"/>
      <use xlink:href="#DejaVuSans-31" x="816.015625"/>
      <use xlink:href="#DejaVuSans-2f" x="879.638672"/>
      <use xlink:href="#DejaVuSans-31" x="913.330078"/>
      <use xlink:href="#DejaVuSans-30" x="976.953125"/>
      <use xlink:href="#DejaVuSans-30" x="1040.576172"/>
      <use xlink:href="#DejaVuSans-20" x="1104.199219"/>
      <use xlink:href="#DejaVuSans-25" x="1135.986328"/>
      <use xlink:href="#DejaVuSans-5d" x="1231.005859"/>
     </g>
    </g>
   </g>
   <g id="LineCollection_13">
    <path d="M 409.874136 159.2887 
L 435.349364 159.2887 
" clip-path="url(#pcc7a33d0d1)" style="fill: none; stroke: #1f77b4; stroke-width: 1.5"/>
   </g>
   <g id="LineCollection_14">
    <path d="M 409.874136 57.231527 
L 435.349364 57.231527 
" clip-path="url(#pcc7a33d0d1)" style="fill: none; stroke: #1f77b4; stroke-width: 1.5"/>
   </g>
   <g id="LineCollection_15">
    <path d="M 409.874136 261.062065 
L 435.349364 261.062065 
" clip-path="url(#pcc7a33d0d1)" style="fill: none; stroke: #1f77b4; stroke-width: 1.5"/>
   </g>
   <g id="LineCollection_16">
    <path d="M 422.61175 261.062065 
L 422.61175 57.231527 
" clip-path="url(#pcc7a33d0d1)" style="fill: none; stroke: #1f77b4; stroke-width: 1.5"/>
   </g>
   <g id="patch_18">
    <path d="M 394.589 271.253592 
L 394.589 47.04 
" style="fill: none; stroke: #000000; stroke-width: 0.8; stroke-linejoin: miter; stroke-linecap: square"/>
   </g>
   <g id="patch_19">
    <path d="M 450.6345 271.253592 
L 450.6345 47.04 
" style="fill: none; stroke: #000000; stroke-width: 0.8; stroke-linejoin: miter; stroke-linecap: square"/>
   </g>
   <g id="patch_20">
    <path d="M 394.589 271.253592 
L 450.6345 271.253592 
" style="fill: none; stroke: #000000; stroke-width: 0.8; stroke-linejoin: miter; stroke-linecap: square"/>
   </g>
   <g id="patch_21">
    <path d="M 394.589 47.04 
L 450.6345 47.04 
" style="fill: none; stroke: #000000; stroke-width: 0.8; stroke-linejoin: miter; stroke-linecap: square"/>
   </g>
   <g id="text_35">
    <!-- % NOE fulfilled -->
    <g transform="translate(377.898625 41.04)scale(0.12 -0.12)">
     <use xlink:href="#DejaVuSans-25"/>
     <use xlink:href="#DejaVuSans-20" x="95.019531"/>
     <use xlink:href="#DejaVuSans-4e" x="126.806641"/>
     <use xlink:href="#DejaVuSans-4f" x="201.611328"/>
     <use xlink:href="#DejaVuSans-45" x="280.322266"/>
     <use xlink:href="#DejaVuSans-20" x="343.505859"/>
     <use xlink:href="#DejaVuSans-66" x="375.292969"/>
     <use xlink:href="#DejaVuSans-75" x="410.498047"/>
     <use xlink:href="#DejaVuSans-6c" x="473.876953"/>
     <use xlink:href="#DejaVuSans-66" x="501.660156"/>
     <use xlink:href="#DejaVuSans-69" x="536.865234"/>
     <use xlink:href="#DejaVuSans-6c" x="564.648438"/>
     <use xlink:href="#DejaVuSans-6c" x="592.431641"/>
     <use xlink:href="#DejaVuSans-65" x="620.214844"/>
     <use xlink:href="#DejaVuSans-64" x="681.738281"/>
    </g>
   </g>
  </g>
  <g id="axes_5">
   <g id="patch_22">
    <path d="M 509.1545 271.253592 
L 565.2 271.253592 
L 565.2 47.04 
L 509.1545 47.04 
z
" style="fill: #ffffff"/>
   </g>
   <g id="PolyCollection_5">
    <path d="M 540.2784 261.062065 
L 534.0761 261.062065 
L 533.436032 259.00317 
L 532.706053 256.944276 
L 531.883056 254.885382 
L 530.966005 252.826488 
L 529.956305 250.767593 
L 528.858104 248.708699 
L 527.678486 246.649805 
L 526.427535 244.59091 
L 525.118257 242.532016 
L 523.766365 240.473122 
L 522.389947 238.414227 
L 521.009035 236.355333 
L 519.645124 234.296439 
L 518.32066 232.237544 
L 517.058533 230.17865 
L 515.881582 228.119756 
L 514.812115 226.060861 
L 513.871417 224.001967 
L 513.079231 221.943073 
L 512.453176 219.884178 
L 512.008096 217.825284 
L 511.755344 215.76639 
L 511.702023 213.707495 
L 511.850247 211.648601 
L 512.196508 209.589707 
L 512.731222 207.530812 
L 513.438558 205.471918 
L 514.296599 203.413024 
L 515.277895 201.354129 
L 516.350389 199.295235 
L 517.478684 197.236341 
L 518.625565 195.177446 
L 519.753675 193.118552 
L 520.827228 191.059658 
L 521.813632 189.000764 
L 522.68492 186.941869 
L 523.418903 184.882975 
L 523.999986 182.824081 
L 524.41961 180.765186 
L 524.676324 178.706292 
L 524.775487 176.647398 
L 524.728645 174.588503 
L 524.552634 172.529609 
L 524.268455 170.470715 
L 523.900008 168.41182 
L 523.472761 166.352926 
L 523.012423 164.294032 
L 522.543714 162.235137 
L 522.089299 160.176243 
L 521.668928 158.117349 
L 521.298832 156.058454 
L 520.991382 153.99956 
L 520.754998 151.940666 
L 520.594284 149.881771 
L 520.510358 147.822877 
L 520.501321 145.763983 
L 520.562835 143.705088 
L 520.688769 141.646194 
L 520.871875 139.5873 
L 521.104471 137.528405 
L 521.379093 135.469511 
L 521.689082 133.410617 
L 522.029066 131.351722 
L 522.395277 129.292828 
L 522.785691 127.233934 
L 523.199932 125.17504 
L 523.638943 123.116145 
L 524.104453 121.057251 
L 524.59828 118.998357 
L 525.121548 116.939462 
L 525.673944 114.880568 
L 526.25308 112.821674 
L 526.854104 110.762779 
L 527.469587 108.703885 
L 528.089755 106.644991 
L 528.703027 104.586096 
L 529.296828 102.527202 
L 529.85857 100.468308 
L 530.376703 98.409413 
L 530.841707 96.350519 
L 531.246925 94.291625 
L 531.589138 92.23273 
L 531.868835 90.173836 
L 532.090156 88.114942 
L 532.260509 86.056047 
L 532.389936 83.997153 
L 532.490268 81.938259 
L 532.574175 79.879364 
L 532.654202 77.82047 
L 532.741858 75.761576 
L 532.846859 73.702681 
L 532.976558 71.643787 
L 533.135605 69.584893 
L 533.325845 67.525999 
L 533.546441 65.467104 
L 533.794181 63.40821 
L 534.063947 61.349316 
L 534.349259 59.290421 
L 534.642878 57.231527 
L 539.711622 57.231527 
L 539.711622 57.231527 
L 540.005241 59.290421 
L 540.290553 61.349316 
L 540.560319 63.40821 
L 540.808059 65.467104 
L 541.028655 67.525999 
L 541.218895 69.584893 
L 541.377942 71.643787 
L 541.507641 73.702681 
L 541.612642 75.761576 
L 541.700298 77.82047 
L 541.780325 79.879364 
L 541.864232 81.938259 
L 541.964564 83.997153 
L 542.093991 86.056047 
L 542.264344 88.114942 
L 542.485665 90.173836 
L 542.765362 92.23273 
L 543.107575 94.291625 
L 543.512793 96.350519 
L 543.977797 98.409413 
L 544.49593 100.468308 
L 545.057672 102.527202 
L 545.651473 104.586096 
L 546.264745 106.644991 
L 546.884913 108.703885 
L 547.500396 110.762779 
L 548.10142 112.821674 
L 548.680556 114.880568 
L 549.232952 116.939462 
L 549.75622 118.998357 
L 550.250047 121.057251 
L 550.715557 123.116145 
L 551.154568 125.17504 
L 551.568809 127.233934 
L 551.959223 129.292828 
L 552.325434 131.351722 
L 552.665418 133.410617 
L 552.975407 135.469511 
L 553.250029 137.528405 
L 553.482625 139.5873 
L 553.665731 141.646194 
L 553.791665 143.705088 
L 553.853179 145.763983 
L 553.844142 147.822877 
L 553.760216 149.881771 
L 553.599502 151.940666 
L 553.363118 153.99956 
L 553.055668 156.058454 
L 552.685572 158.117349 
L 552.265201 160.176243 
L 551.810786 162.235137 
L 551.342077 164.294032 
L 550.881739 166.352926 
L 550.454492 168.41182 
L 550.086045 170.470715 
L 549.801866 172.529609 
L 549.625855 174.588503 
L 549.579013 176.647398 
L 549.678176 178.706292 
L 549.93489 180.765186 
L 550.354514 182.824081 
L 550.935597 184.882975 
L 551.66958 186.941869 
L 552.540868 189.000764 
L 553.527272 191.059658 
L 554.600825 193.118552 
L 555.728935 195.177446 
L 556.875816 197.236341 
L 558.004111 199.295235 
L 559.076605 201.354129 
L 560.057901 203.413024 
L 560.915942 205.471918 
L 561.623278 207.530812 
L 562.157992 209.589707 
L 562.504253 211.648601 
L 562.652477 213.707495 
L 562.599156 215.76639 
L 562.346404 217.825284 
L 561.901324 219.884178 
L 561.275269 221.943073 
L 560.483083 224.001967 
L 559.542385 226.060861 
L 558.472918 228.119756 
L 557.295967 230.17865 
L 556.03384 232.237544 
L 554.709376 234.296439 
L 553.345465 236.355333 
L 551.964553 238.414227 
L 550.588135 240.473122 
L 549.236243 242.532016 
L 547.926965 244.59091 
L 546.676014 246.649805 
L 545.496396 248.708699 
L 544.398195 250.767593 
L 543.388495 252.826488 
L 542.471444 254.885382 
L 541.648447 256.944276 
L 540.918468 259.00317 
L 540.2784 261.062065 
z
" clip-path="url(#pd42cd85916)" style="fill: #1f77b4; fill-opacity: 0.3"/>
   </g>
   <g id="matplotlib.axis_5">
    <g id="ytick_28">
     <g id="line2d_28">
      <g>
       <use xlink:href="#md015ba2b5f" x="509.1545" y="271.078079" style="stroke: #000000; stroke-width: 0.8"/>
      </g>
     </g>
     <g id="text_36">
      <!-- 0.08 -->
      <g transform="translate(479.888875 274.877298)scale(0.1 -0.1)">
       <use xlink:href="#DejaVuSans-30"/>
       <use xlink:href="#DejaVuSans-2e" x="63.623047"/>
       <use xlink:href="#DejaVuSans-30" x="95.410156"/>
       <use xlink:href="#DejaVuSans-38" x="159.033203"/>
      </g>
     </g>
    </g>
    <g id="ytick_29">
     <g id="line2d_29">
      <g>
       <use xlink:href="#md015ba2b5f" x="509.1545" y="225.589937" style="stroke: #000000; stroke-width: 0.8"/>
      </g>
     </g>
     <g id="text_37">
      <!-- 0.10 -->
      <g transform="translate(479.888875 229.389155)scale(0.1 -0.1)">
       <use xlink:href="#DejaVuSans-30"/>
       <use xlink:href="#DejaVuSans-2e" x="63.623047"/>
       <use xlink:href="#DejaVuSans-31" x="95.410156"/>
       <use xlink:href="#DejaVuSans-30" x="159.033203"/>
      </g>
     </g>
    </g>
    <g id="ytick_30">
     <g id="line2d_30">
      <g>
       <use xlink:href="#md015ba2b5f" x="509.1545" y="180.101794" style="stroke: #000000; stroke-width: 0.8"/>
      </g>
     </g>
     <g id="text_38">
      <!-- 0.12 -->
      <g transform="translate(479.888875 183.901013)scale(0.1 -0.1)">
       <use xlink:href="#DejaVuSans-30"/>
       <use xlink:href="#DejaVuSans-2e" x="63.623047"/>
       <use xlink:href="#DejaVuSans-31" x="95.410156"/>
       <use xlink:href="#DejaVuSans-32" x="159.033203"/>
      </g>
     </g>
    </g>
    <g id="ytick_31">
     <g id="line2d_31">
      <g>
       <use xlink:href="#md015ba2b5f" x="509.1545" y="134.613651" style="stroke: #000000; stroke-width: 0.8"/>
      </g>
     </g>
     <g id="text_39">
      <!-- 0.14 -->
      <g transform="translate(479.888875 138.41287)scale(0.1 -0.1)">
       <use xlink:href="#DejaVuSans-30"/>
       <use xlink:href="#DejaVuSans-2e" x="63.623047"/>
       <use xlink:href="#DejaVuSans-31" x="95.410156"/>
       <use xlink:href="#DejaVuSans-34" x="159.033203"/>
      </g>
     </g>
    </g>
    <g id="ytick_32">
     <g id="line2d_32">
      <g>
       <use xlink:href="#md015ba2b5f" x="509.1545" y="89.125509" style="stroke: #000000; stroke-width: 0.8"/>
      </g>
     </g>
     <g id="text_40">
      <!-- 0.16 -->
      <g transform="translate(479.888875 92.924727)scale(0.1 -0.1)">
       <use xlink:href="#DejaVuSans-30"/>
       <use xlink:href="#DejaVuSans-2e" x="63.623047"/>
       <use xlink:href="#DejaVuSans-31" x="95.410156"/>
       <use xlink:href="#DejaVuSans-36" x="159.033203"/>
      </g>
     </g>
    </g>
    <g id="text_41">
     <!-- RMSD stepwise [$\AA$] -->
     <g transform="translate(473.788875 206.446796)rotate(-90)scale(0.1 -0.1)">
      <defs>
       <path id="DejaVuSans-73" d="M 2834 3397 
L 2834 2853 
Q 2591 2978 2328 3040 
Q 2066 3103 1784 3103 
Q 1356 3103 1142 2972 
Q 928 2841 928 2578 
Q 928 2378 1081 2264 
Q 1234 2150 1697 2047 
L 1894 2003 
Q 2506 1872 2764 1633 
Q 3022 1394 3022 966 
Q 3022 478 2636 193 
Q 2250 -91 1575 -91 
Q 1294 -91 989 -36 
Q 684 19 347 128 
L 347 722 
Q 666 556 975 473 
Q 1284 391 1588 391 
Q 1994 391 2212 530 
Q 2431 669 2431 922 
Q 2431 1156 2273 1281 
Q 2116 1406 1581 1522 
L 1381 1569 
Q 847 1681 609 1914 
Q 372 2147 372 2553 
Q 372 3047 722 3315 
Q 1072 3584 1716 3584 
Q 2034 3584 2315 3537 
Q 2597 3491 2834 3397 
z
" transform="scale(0.015625)"/>
       <path id="DejaVuSans-74" d="M 1172 4494 
L 1172 3500 
L 2356 3500 
L 2356 3053 
L 1172 3053 
L 1172 1153 
Q 1172 725 1289 603 
Q 1406 481 1766 481 
L 2356 481 
L 2356 0 
L 1766 0 
Q 1100 0 847 248 
Q 594 497 594 1153 
L 594 3053 
L 172 3053 
L 172 3500 
L 594 3500 
L 594 4494 
L 1172 4494 
z
" transform="scale(0.015625)"/>
       <path id="DejaVuSans-70" d="M 1159 525 
L 1159 -1331 
L 581 -1331 
L 581 3500 
L 1159 3500 
L 1159 2969 
Q 1341 3281 1617 3432 
Q 1894 3584 2278 3584 
Q 2916 3584 3314 3078 
Q 3713 2572 3713 1747 
Q 3713 922 3314 415 
Q 2916 -91 2278 -91 
Q 1894 -91 1617 61 
Q 1341 213 1159 525 
z
M 3116 1747 
Q 3116 2381 2855 2742 
Q 2594 3103 2138 3103 
Q 1681 3103 1420 2742 
Q 1159 2381 1159 1747 
Q 1159 1113 1420 752 
Q 1681 391 2138 391 
Q 2594 391 2855 752 
Q 3116 1113 3116 1747 
z
" transform="scale(0.015625)"/>
       <path id="DejaVuSans-77" d="M 269 3500 
L 844 3500 
L 1563 769 
L 2278 3500 
L 2956 3500 
L 3675 769 
L 4391 3500 
L 4966 3500 
L 4050 0 
L 3372 0 
L 2619 2869 
L 1863 0 
L 1184 0 
L 269 3500 
z
" transform="scale(0.015625)"/>
      </defs>
      <use xlink:href="#DejaVuSans-52" transform="translate(0 0.171875)"/>
      <use xlink:href="#DejaVuSans-4d" transform="translate(69.482422 0.171875)"/>
      <use xlink:href="#DejaVuSans-53" transform="translate(155.761719 0.171875)"/>
      <use xlink:href="#DejaVuSans-44" transform="translate(219.238281 0.171875)"/>
      <use xlink:href="#DejaVuSans-20" transform="translate(296.240234 0.171875)"/>
      <use xlink:href="#DejaVuSans-73" transform="translate(328.027344 0.171875)"/>
      <use xlink:href="#DejaVuSans-74" transform="translate(380.126953 0.171875)"/>
      <use xlink:href="#DejaVuSans-65" transform="translate(419.335938 0.171875)"/>
      <use xlink:href="#DejaVuSans-70" transform="translate(480.859375 0.171875)"/>
      <use xlink:href="#DejaVuSans-77" transform="translate(544.335938 0.171875)"/>
      <use xlink:href="#DejaVuSans-69" transform="translate(626.123047 0.171875)"/>
      <use xlink:href="#DejaVuSans-73" transform="translate(653.90625 0.171875)"/>
      <use xlink:href="#DejaVuSans-65" transform="translate(706.005859 0.171875)"/>
      <use xlink:href="#DejaVuSans-20" transform="translate(767.529297 0.171875)"/>
      <use xlink:href="#DejaVuSans-5b" transform="translate(799.316406 0.171875)"/>
      <use xlink:href="#DejaVuSans-Oblique-c5" transform="translate(838.330078 0.171875)"/>
      <use xlink:href="#DejaVuSans-5d" transform="translate(906.738281 0.171875)"/>
     </g>
    </g>
   </g>
   <g id="LineCollection_17">
    <path d="M 524.439636 175.188215 
L 549.914864 175.188215 
" clip-path="url(#pd42cd85916)" style="fill: none; stroke: #1f77b4; stroke-width: 1.5"/>
   </g>
   <g id="LineCollection_18">
    <path d="M 524.439636 57.231527 
L 549.914864 57.231527 
" clip-path="url(#pd42cd85916)" style="fill: none; stroke: #1f77b4; stroke-width: 1.5"/>
   </g>
   <g id="LineCollection_19">
    <path d="M 524.439636 261.062065 
L 549.914864 261.062065 
" clip-path="url(#pd42cd85916)" style="fill: none; stroke: #1f77b4; stroke-width: 1.5"/>
   </g>
   <g id="LineCollection_20">
    <path d="M 537.17725 261.062065 
L 537.17725 57.231527 
" clip-path="url(#pd42cd85916)" style="fill: none; stroke: #1f77b4; stroke-width: 1.5"/>
   </g>
   <g id="patch_23">
    <path d="M 509.1545 271.253592 
L 509.1545 47.04 
" style="fill: none; stroke: #000000; stroke-width: 0.8; stroke-linejoin: miter; stroke-linecap: square"/>
   </g>
   <g id="patch_24">
    <path d="M 565.2 271.253592 
L 565.2 47.04 
" style="fill: none; stroke: #000000; stroke-width: 0.8; stroke-linejoin: miter; stroke-linecap: square"/>
   </g>
   <g id="patch_25">
    <path d="M 509.1545 271.253592 
L 565.2 271.253592 
" style="fill: none; stroke: #000000; stroke-width: 0.8; stroke-linejoin: miter; stroke-linecap: square"/>
   </g>
   <g id="patch_26">
    <path d="M 509.1545 47.04 
L 565.2 47.04 
" style="fill: none; stroke: #000000; stroke-width: 0.8; stroke-linejoin: miter; stroke-linecap: square"/>
   </g>
   <g id="text_42">
    <!-- RMSD stepwise -->
    <g transform="translate(491.125375 41.04)scale(0.12 -0.12)">
     <use xlink:href="#DejaVuSans-52"/>
     <use xlink:href="#DejaVuSans-4d" x="69.482422"/>
     <use xlink:href="#DejaVuSans-53" x="155.761719"/>
     <use xlink:href="#DejaVuSans-44" x="219.238281"/>
     <use xlink:href="#DejaVuSans-20" x="296.240234"/>
     <use xlink:href="#DejaVuSans-73" x="328.027344"/>
     <use xlink:href="#DejaVuSans-74" x="380.126953"/>
     <use xlink:href="#DejaVuSans-65" x="419.335938"/>
     <use xlink:href="#DejaVuSans-70" x="480.859375"/>
     <use xlink:href="#DejaVuSans-77" x="544.335938"/>
     <use xlink:href="#DejaVuSans-69" x="626.123047"/>
     <use xlink:href="#DejaVuSans-73" x="653.90625"/>
     <use xlink:href="#DejaVuSans-65" x="706.005859"/>
    </g>
   </g>
  </g>
  <g id="text_43">
   <!-- Compound 31. Rdkit -->
   <g transform="translate(226.573125 14.878125)scale(0.12 -0.12)">
    <defs>
     <path id="DejaVuSans-43" d="M 4122 4306 
L 4122 3641 
Q 3803 3938 3442 4084 
Q 3081 4231 2675 4231 
Q 1875 4231 1450 3742 
Q 1025 3253 1025 2328 
Q 1025 1406 1450 917 
Q 1875 428 2675 428 
Q 3081 428 3442 575 
Q 3803 722 4122 1019 
L 4122 359 
Q 3791 134 3420 21 
Q 3050 -91 2638 -91 
Q 1578 -91 968 557 
Q 359 1206 359 2328 
Q 359 3453 968 4101 
Q 1578 4750 2638 4750 
Q 3056 4750 3426 4639 
Q 3797 4528 4122 4306 
z
" transform="scale(0.015625)"/>
     <path id="DejaVuSans-6f" d="M 1959 3097 
Q 1497 3097 1228 2736 
Q 959 2375 959 1747 
Q 959 1119 1226 758 
Q 1494 397 1959 397 
Q 2419 397 2687 759 
Q 2956 1122 2956 1747 
Q 2956 2369 2687 2733 
Q 2419 3097 1959 3097 
z
M 1959 3584 
Q 2709 3584 3137 3096 
Q 3566 2609 3566 1747 
Q 3566 888 3137 398 
Q 2709 -91 1959 -91 
Q 1206 -91 779 398 
Q 353 888 353 1747 
Q 353 2609 779 3096 
Q 1206 3584 1959 3584 
z
" transform="scale(0.015625)"/>
     <path id="DejaVuSans-6d" d="M 3328 2828 
Q 3544 3216 3844 3400 
Q 4144 3584 4550 3584 
Q 5097 3584 5394 3201 
Q 5691 2819 5691 2113 
L 5691 0 
L 5113 0 
L 5113 2094 
Q 5113 2597 4934 2840 
Q 4756 3084 4391 3084 
Q 3944 3084 3684 2787 
Q 3425 2491 3425 1978 
L 3425 0 
L 2847 0 
L 2847 2094 
Q 2847 2600 2669 2842 
Q 2491 3084 2119 3084 
Q 1678 3084 1418 2786 
Q 1159 2488 1159 1978 
L 1159 0 
L 581 0 
L 581 3500 
L 1159 3500 
L 1159 2956 
Q 1356 3278 1631 3431 
Q 1906 3584 2284 3584 
Q 2666 3584 2933 3390 
Q 3200 3197 3328 2828 
z
" transform="scale(0.015625)"/>
     <path id="DejaVuSans-6e" d="M 3513 2113 
L 3513 0 
L 2938 0 
L 2938 2094 
Q 2938 2591 2744 2837 
Q 2550 3084 2163 3084 
Q 1697 3084 1428 2787 
Q 1159 2491 1159 1978 
L 1159 0 
L 581 0 
L 581 3500 
L 1159 3500 
L 1159 2956 
Q 1366 3272 1645 3428 
Q 1925 3584 2291 3584 
Q 2894 3584 3203 3211 
Q 3513 2838 3513 2113 
z
" transform="scale(0.015625)"/>
     <path id="DejaVuSans-6b" d="M 581 4863 
L 1159 4863 
L 1159 1991 
L 2875 3500 
L 3609 3500 
L 1753 1863 
L 3688 0 
L 2938 0 
L 1159 1709 
L 1159 0 
L 581 0 
L 581 4863 
z
" transform="scale(0.015625)"/>
    </defs>
    <use xlink:href="#DejaVuSans-43"/>
    <use xlink:href="#DejaVuSans-6f" x="69.824219"/>
    <use xlink:href="#DejaVuSans-6d" x="131.005859"/>
    <use xlink:href="#DejaVuSans-70" x="228.417969"/>
    <use xlink:href="#DejaVuSans-6f" x="291.894531"/>
    <use xlink:href="#DejaVuSans-75" x="353.076172"/>
    <use xlink:href="#DejaVuSans-6e" x="416.455078"/>
    <use xlink:href="#DejaVuSans-64" x="479.833984"/>
    <use xlink:href="#DejaVuSans-20" x="543.310547"/>
    <use xlink:href="#DejaVuSans-33" x="575.097656"/>
    <use xlink:href="#DejaVuSans-31" x="638.720703"/>
    <use xlink:href="#DejaVuSans-2e" x="702.34375"/>
    <use xlink:href="#DejaVuSans-20" x="734.130859"/>
    <use xlink:href="#DejaVuSans-52" x="765.917969"/>
    <use xlink:href="#DejaVuSans-64" x="835.400391"/>
    <use xlink:href="#DejaVuSans-6b" x="898.876953"/>
    <use xlink:href="#DejaVuSans-69" x="956.787109"/>
    <use xlink:href="#DejaVuSans-74" x="984.570312"/>
   </g>
  </g>
 </g>
 <defs>
  <clipPath id="pb084e5ae03">
   <rect x="50.8925" y="47.04" width="56.0455" height="224.213592"/>
  </clipPath>
  <clipPath id="p9158f7ac0b">
   <rect x="165.458" y="47.04" width="56.0455" height="224.213592"/>
  </clipPath>
  <clipPath id="p1bcfc744f4">
   <rect x="280.0235" y="47.04" width="56.0455" height="224.213592"/>
  </clipPath>
  <clipPath id="pcc7a33d0d1">
   <rect x="394.589" y="47.04" width="56.0455" height="224.213592"/>
  </clipPath>
  <clipPath id="pd42cd85916">
   <rect x="509.1545" y="47.04" width="56.0455" height="224.213592"/>
  </clipPath>
 </defs>
</svg>
