<?xml version="1.0" encoding="utf-8" standalone="no"?>
<!DOCTYPE svg PUBLIC "-//W3C//DTD SVG 1.1//EN"
  "http://www.w3.org/Graphics/SVG/1.1/DTD/svg11.dtd">
<svg xmlns:xlink="http://www.w3.org/1999/xlink" width="576pt" height="288pt" viewBox="0 0 576 288" xmlns="http://www.w3.org/2000/svg" version="1.1">
 <metadata>
  <rdf:RDF xmlns:dc="http://purl.org/dc/elements/1.1/" xmlns:cc="http://creativecommons.org/ns#" xmlns:rdf="http://www.w3.org/1999/02/22-rdf-syntax-ns#">
   <cc:Work>
    <dc:type rdf:resource="http://purl.org/dc/dcmitype/StillImage"/>
    <dc:date>2023-05-31T12:25:40.358615</dc:date>
    <dc:format>image/svg+xml</dc:format>
    <dc:creator>
     <cc:Agent>
      <dc:title>Matplotlib v3.5.3, https://matplotlib.org/</dc:title>
     </cc:Agent>
    </dc:creator>
   </cc:Work>
  </rdf:RDF>
 </metadata>
 <defs>
  <style type="text/css">*{stroke-linejoin: round; stroke-linecap: butt}</style>
 </defs>
 <g id="figure_1">
  <g id="patch_1">
   <path d="M 0 288 
L 576 288 
L 576 0 
L 0 0 
z
" style="fill: #ffffff"/>
  </g>
  <g id="axes_1">
   <g id="patch_2">
    <path d="M 50.8925 273.7 
L 106.938 273.7 
L 106.938 47.04 
L 50.8925 47.04 
z
" style="fill: #ffffff"/>
   </g>
   <g id="PolyCollection_1">
    <path d="M 79.634414 263.397273 
L 78.196086 263.397273 
L 78.102457 261.315914 
L 78.006396 259.234555 
L 77.905293 257.153196 
L 77.795334 255.071837 
L 77.671923 252.990478 
L 77.530118 250.909118 
L 77.364919 248.827759 
L 77.171301 246.7464 
L 76.943973 244.665041 
L 76.676967 242.583682 
L 76.363225 240.502323 
L 75.994392 238.420964 
L 75.560961 236.339605 
L 75.052818 234.258246 
L 74.460111 232.176887 
L 73.774278 230.095528 
L 72.98902 228.014169 
L 72.101057 225.93281 
L 71.110574 223.851451 
L 70.021385 221.770092 
L 68.84096 219.688733 
L 67.580438 217.607374 
L 66.254759 215.526015 
L 64.882907 213.444656 
L 63.488077 211.363297 
L 62.097523 209.281938 
L 60.741746 207.200579 
L 59.452805 205.119219 
L 58.261758 203.03786 
L 57.195483 200.956501 
L 56.273447 198.875142 
L 55.505127 196.793783 
L 54.888831 194.712424 
L 54.412435 192.631065 
L 54.056187 190.549706 
L 53.797245 188.468347 
L 53.6151 186.386988 
L 53.4967 184.305629 
L 53.440023 182.22427 
L 53.455062 180.142911 
L 53.561783 178.061552 
L 53.785326 175.980193 
L 54.149463 173.898834 
L 54.669818 171.817475 
L 55.348438 169.736116 
L 56.171013 167.654757 
L 57.107338 165.573398 
L 58.114834 163.492039 
L 59.144238 161.41068 
L 60.146134 159.32932 
L 61.077007 157.247961 
L 61.90378 155.166602 
L 62.606354 153.085243 
L 63.178199 151.003884 
L 63.625429 148.922525 
L 63.964963 146.841166 
L 64.222225 144.759807 
L 64.428668 142.678448 
L 64.619125 140.597089 
L 64.828902 138.51573 
L 65.09061 136.434371 
L 65.430895 134.353012 
L 65.867502 132.271653 
L 66.407205 130.190294 
L 67.045123 128.108935 
L 67.765688 126.027576 
L 68.545178 123.946217 
L 69.355365 121.864858 
L 70.167537 119.783499 
L 70.956119 117.70214 
L 71.701225 115.620781 
L 72.389792 113.539421 
L 73.01531 111.458062 
L 73.5765 109.376703 
L 74.075474 107.295344 
L 74.515969 105.213985 
L 74.902089 103.132626 
L 75.237771 101.051267 
L 75.526906 98.969908 
L 75.77385 96.888549 
L 75.983954 94.80719 
L 76.163788 92.725831 
L 76.320859 90.644472 
L 76.462863 88.563113 
L 76.596639 86.481754 
L 76.727169 84.400395 
L 76.856913 82.319036 
L 76.985701 80.237677 
L 77.111246 78.156318 
L 77.230124 76.074959 
L 77.339005 73.9936 
L 77.435786 71.912241 
L 77.520359 69.830882 
L 77.594845 67.749522 
L 77.663236 65.668163 
L 77.730572 63.586804 
L 77.801867 61.505445 
L 77.881051 59.424086 
L 77.970172 57.342727 
L 79.860328 57.342727 
L 79.860328 57.342727 
L 79.949449 59.424086 
L 80.028633 61.505445 
L 80.099928 63.586804 
L 80.167264 65.668163 
L 80.235655 67.749522 
L 80.310141 69.830882 
L 80.394714 71.912241 
L 80.491495 73.9936 
L 80.600376 76.074959 
L 80.719254 78.156318 
L 80.844799 80.237677 
L 80.973587 82.319036 
L 81.103331 84.400395 
L 81.233861 86.481754 
L 81.367637 88.563113 
L 81.509641 90.644472 
L 81.666712 92.725831 
L 81.846546 94.80719 
L 82.05665 96.888549 
L 82.303594 98.969908 
L 82.592729 101.051267 
L 82.928411 103.132626 
L 83.314531 105.213985 
L 83.755026 107.295344 
L 84.254 109.376703 
L 84.81519 111.458062 
L 85.440708 113.539421 
L 86.129275 115.620781 
L 86.874381 117.70214 
L 87.662963 119.783499 
L 88.475135 121.864858 
L 89.285322 123.946217 
L 90.064812 126.027576 
L 90.785377 128.108935 
L 91.423295 130.190294 
L 91.962998 132.271653 
L 92.399605 134.353012 
L 92.73989 136.434371 
L 93.001598 138.51573 
L 93.211375 140.597089 
L 93.401832 142.678448 
L 93.608275 144.759807 
L 93.865537 146.841166 
L 94.205071 148.922525 
L 94.652301 151.003884 
L 95.224146 153.085243 
L 95.92672 155.166602 
L 96.753493 157.247961 
L 97.684366 159.32932 
L 98.686262 161.41068 
L 99.715666 163.492039 
L 100.723162 165.573398 
L 101.659487 167.654757 
L 102.482062 169.736116 
L 103.160682 171.817475 
L 103.681037 173.898834 
L 104.045174 175.980193 
L 104.268717 178.061552 
L 104.375438 180.142911 
L 104.390477 182.22427 
L 104.3338 184.305629 
L 104.2154 186.386988 
L 104.033255 188.468347 
L 103.774313 190.549706 
L 103.418065 192.631065 
L 102.941669 194.712424 
L 102.325373 196.793783 
L 101.557053 198.875142 
L 100.635017 200.956501 
L 99.568742 203.03786 
L 98.377695 205.119219 
L 97.088754 207.200579 
L 95.732977 209.281938 
L 94.342423 211.363297 
L 92.947593 213.444656 
L 91.575741 215.526015 
L 90.250062 217.607374 
L 88.98954 219.688733 
L 87.809115 221.770092 
L 86.719926 223.851451 
L 85.729443 225.93281 
L 84.84148 228.014169 
L 84.056222 230.095528 
L 83.370389 232.176887 
L 82.777682 234.258246 
L 82.269539 236.339605 
L 81.836108 238.420964 
L 81.467275 240.502323 
L 81.153533 242.583682 
L 80.886527 244.665041 
L 80.659199 246.7464 
L 80.465581 248.827759 
L 80.300382 250.909118 
L 80.158577 252.990478 
L 80.035166 255.071837 
L 79.925207 257.153196 
L 79.824104 259.234555 
L 79.728043 261.315914 
L 79.634414 263.397273 
z
" clip-path="url(#pf7cff89b2e)" style="fill: #1f77b4; fill-opacity: 0.3"/>
   </g>
   <g id="matplotlib.axis_1">
    <g id="ytick_1">
     <g id="line2d_1">
      <defs>
       <path id="maccd20671c" d="M 0 0 
L -3.5 0 
" style="stroke: #000000; stroke-width: 0.8"/>
      </defs>
      <g>
       <use xlink:href="#maccd20671c" x="50.8925" y="254.155665" style="stroke: #000000; stroke-width: 0.8"/>
      </g>
     </g>
     <g id="text_1">
      <!-- 0.3 -->
      <g transform="translate(27.989375 257.954884)scale(0.1 -0.1)">
       <defs>
        <path id="DejaVuSans-30" d="M 2034 4250 
Q 1547 4250 1301 3770 
Q 1056 3291 1056 2328 
Q 1056 1369 1301 889 
Q 1547 409 2034 409 
Q 2525 409 2770 889 
Q 3016 1369 3016 2328 
Q 3016 3291 2770 3770 
Q 2525 4250 2034 4250 
z
M 2034 4750 
Q 2819 4750 3233 4129 
Q 3647 3509 3647 2328 
Q 3647 1150 3233 529 
Q 2819 -91 2034 -91 
Q 1250 -91 836 529 
Q 422 1150 422 2328 
Q 422 3509 836 4129 
Q 1250 4750 2034 4750 
z
" transform="scale(0.015625)"/>
        <path id="DejaVuSans-2e" d="M 684 794 
L 1344 794 
L 1344 0 
L 684 0 
L 684 794 
z
" transform="scale(0.015625)"/>
        <path id="DejaVuSans-33" d="M 2597 2516 
Q 3050 2419 3304 2112 
Q 3559 1806 3559 1356 
Q 3559 666 3084 287 
Q 2609 -91 1734 -91 
Q 1441 -91 1130 -33 
Q 819 25 488 141 
L 488 750 
Q 750 597 1062 519 
Q 1375 441 1716 441 
Q 2309 441 2620 675 
Q 2931 909 2931 1356 
Q 2931 1769 2642 2001 
Q 2353 2234 1838 2234 
L 1294 2234 
L 1294 2753 
L 1863 2753 
Q 2328 2753 2575 2939 
Q 2822 3125 2822 3475 
Q 2822 3834 2567 4026 
Q 2313 4219 1838 4219 
Q 1578 4219 1281 4162 
Q 984 4106 628 3988 
L 628 4550 
Q 988 4650 1302 4700 
Q 1616 4750 1894 4750 
Q 2613 4750 3031 4423 
Q 3450 4097 3450 3541 
Q 3450 3153 3228 2886 
Q 3006 2619 2597 2516 
z
" transform="scale(0.015625)"/>
       </defs>
       <use xlink:href="#DejaVuSans-30"/>
       <use xlink:href="#DejaVuSans-2e" x="63.623047"/>
       <use xlink:href="#DejaVuSans-33" x="95.410156"/>
      </g>
     </g>
    </g>
    <g id="ytick_2">
     <g id="line2d_2">
      <g>
       <use xlink:href="#maccd20671c" x="50.8925" y="227.60594" style="stroke: #000000; stroke-width: 0.8"/>
      </g>
     </g>
     <g id="text_2">
      <!-- 0.4 -->
      <g transform="translate(27.989375 231.405158)scale(0.1 -0.1)">
       <defs>
        <path id="DejaVuSans-34" d="M 2419 4116 
L 825 1625 
L 2419 1625 
L 2419 4116 
z
M 2253 4666 
L 3047 4666 
L 3047 1625 
L 3713 1625 
L 3713 1100 
L 3047 1100 
L 3047 0 
L 2419 0 
L 2419 1100 
L 313 1100 
L 313 1709 
L 2253 4666 
z
" transform="scale(0.015625)"/>
       </defs>
       <use xlink:href="#DejaVuSans-30"/>
       <use xlink:href="#DejaVuSans-2e" x="63.623047"/>
       <use xlink:href="#DejaVuSans-34" x="95.410156"/>
      </g>
     </g>
    </g>
    <g id="ytick_3">
     <g id="line2d_3">
      <g>
       <use xlink:href="#maccd20671c" x="50.8925" y="201.056214" style="stroke: #000000; stroke-width: 0.8"/>
      </g>
     </g>
     <g id="text_3">
      <!-- 0.5 -->
      <g transform="translate(27.989375 204.855433)scale(0.1 -0.1)">
       <defs>
        <path id="DejaVuSans-35" d="M 691 4666 
L 3169 4666 
L 3169 4134 
L 1269 4134 
L 1269 2991 
Q 1406 3038 1543 3061 
Q 1681 3084 1819 3084 
Q 2600 3084 3056 2656 
Q 3513 2228 3513 1497 
Q 3513 744 3044 326 
Q 2575 -91 1722 -91 
Q 1428 -91 1123 -41 
Q 819 9 494 109 
L 494 744 
Q 775 591 1075 516 
Q 1375 441 1709 441 
Q 2250 441 2565 725 
Q 2881 1009 2881 1497 
Q 2881 1984 2565 2268 
Q 2250 2553 1709 2553 
Q 1456 2553 1204 2497 
Q 953 2441 691 2322 
L 691 4666 
z
" transform="scale(0.015625)"/>
       </defs>
       <use xlink:href="#DejaVuSans-30"/>
       <use xlink:href="#DejaVuSans-2e" x="63.623047"/>
       <use xlink:href="#DejaVuSans-35" x="95.410156"/>
      </g>
     </g>
    </g>
    <g id="ytick_4">
     <g id="line2d_4">
      <g>
       <use xlink:href="#maccd20671c" x="50.8925" y="174.506489" style="stroke: #000000; stroke-width: 0.8"/>
      </g>
     </g>
     <g id="text_4">
      <!-- 0.6 -->
      <g transform="translate(27.989375 178.305708)scale(0.1 -0.1)">
       <defs>
        <path id="DejaVuSans-36" d="M 2113 2584 
Q 1688 2584 1439 2293 
Q 1191 2003 1191 1497 
Q 1191 994 1439 701 
Q 1688 409 2113 409 
Q 2538 409 2786 701 
Q 3034 994 3034 1497 
Q 3034 2003 2786 2293 
Q 2538 2584 2113 2584 
z
M 3366 4563 
L 3366 3988 
Q 3128 4100 2886 4159 
Q 2644 4219 2406 4219 
Q 1781 4219 1451 3797 
Q 1122 3375 1075 2522 
Q 1259 2794 1537 2939 
Q 1816 3084 2150 3084 
Q 2853 3084 3261 2657 
Q 3669 2231 3669 1497 
Q 3669 778 3244 343 
Q 2819 -91 2113 -91 
Q 1303 -91 875 529 
Q 447 1150 447 2328 
Q 447 3434 972 4092 
Q 1497 4750 2381 4750 
Q 2619 4750 2861 4703 
Q 3103 4656 3366 4563 
z
" transform="scale(0.015625)"/>
       </defs>
       <use xlink:href="#DejaVuSans-30"/>
       <use xlink:href="#DejaVuSans-2e" x="63.623047"/>
       <use xlink:href="#DejaVuSans-36" x="95.410156"/>
      </g>
     </g>
    </g>
    <g id="ytick_5">
     <g id="line2d_5">
      <g>
       <use xlink:href="#maccd20671c" x="50.8925" y="147.956764" style="stroke: #000000; stroke-width: 0.8"/>
      </g>
     </g>
     <g id="text_5">
      <!-- 0.7 -->
      <g transform="translate(27.989375 151.755983)scale(0.1 -0.1)">
       <defs>
        <path id="DejaVuSans-37" d="M 525 4666 
L 3525 4666 
L 3525 4397 
L 1831 0 
L 1172 0 
L 2766 4134 
L 525 4134 
L 525 4666 
z
" transform="scale(0.015625)"/>
       </defs>
       <use xlink:href="#DejaVuSans-30"/>
       <use xlink:href="#DejaVuSans-2e" x="63.623047"/>
       <use xlink:href="#DejaVuSans-37" x="95.410156"/>
      </g>
     </g>
    </g>
    <g id="ytick_6">
     <g id="line2d_6">
      <g>
       <use xlink:href="#maccd20671c" x="50.8925" y="121.407038" style="stroke: #000000; stroke-width: 0.8"/>
      </g>
     </g>
     <g id="text_6">
      <!-- 0.8 -->
      <g transform="translate(27.989375 125.206257)scale(0.1 -0.1)">
       <defs>
        <path id="DejaVuSans-38" d="M 2034 2216 
Q 1584 2216 1326 1975 
Q 1069 1734 1069 1313 
Q 1069 891 1326 650 
Q 1584 409 2034 409 
Q 2484 409 2743 651 
Q 3003 894 3003 1313 
Q 3003 1734 2745 1975 
Q 2488 2216 2034 2216 
z
M 1403 2484 
Q 997 2584 770 2862 
Q 544 3141 544 3541 
Q 544 4100 942 4425 
Q 1341 4750 2034 4750 
Q 2731 4750 3128 4425 
Q 3525 4100 3525 3541 
Q 3525 3141 3298 2862 
Q 3072 2584 2669 2484 
Q 3125 2378 3379 2068 
Q 3634 1759 3634 1313 
Q 3634 634 3220 271 
Q 2806 -91 2034 -91 
Q 1263 -91 848 271 
Q 434 634 434 1313 
Q 434 1759 690 2068 
Q 947 2378 1403 2484 
z
M 1172 3481 
Q 1172 3119 1398 2916 
Q 1625 2713 2034 2713 
Q 2441 2713 2670 2916 
Q 2900 3119 2900 3481 
Q 2900 3844 2670 4047 
Q 2441 4250 2034 4250 
Q 1625 4250 1398 4047 
Q 1172 3844 1172 3481 
z
" transform="scale(0.015625)"/>
       </defs>
       <use xlink:href="#DejaVuSans-30"/>
       <use xlink:href="#DejaVuSans-2e" x="63.623047"/>
       <use xlink:href="#DejaVuSans-38" x="95.410156"/>
      </g>
     </g>
    </g>
    <g id="ytick_7">
     <g id="line2d_7">
      <g>
       <use xlink:href="#maccd20671c" x="50.8925" y="94.857313" style="stroke: #000000; stroke-width: 0.8"/>
      </g>
     </g>
     <g id="text_7">
      <!-- 0.9 -->
      <g transform="translate(27.989375 98.656532)scale(0.1 -0.1)">
       <defs>
        <path id="DejaVuSans-39" d="M 703 97 
L 703 672 
Q 941 559 1184 500 
Q 1428 441 1663 441 
Q 2288 441 2617 861 
Q 2947 1281 2994 2138 
Q 2813 1869 2534 1725 
Q 2256 1581 1919 1581 
Q 1219 1581 811 2004 
Q 403 2428 403 3163 
Q 403 3881 828 4315 
Q 1253 4750 1959 4750 
Q 2769 4750 3195 4129 
Q 3622 3509 3622 2328 
Q 3622 1225 3098 567 
Q 2575 -91 1691 -91 
Q 1453 -91 1209 -44 
Q 966 3 703 97 
z
M 1959 2075 
Q 2384 2075 2632 2365 
Q 2881 2656 2881 3163 
Q 2881 3666 2632 3958 
Q 2384 4250 1959 4250 
Q 1534 4250 1286 3958 
Q 1038 3666 1038 3163 
Q 1038 2656 1286 2365 
Q 1534 2075 1959 2075 
z
" transform="scale(0.015625)"/>
       </defs>
       <use xlink:href="#DejaVuSans-30"/>
       <use xlink:href="#DejaVuSans-2e" x="63.623047"/>
       <use xlink:href="#DejaVuSans-39" x="95.410156"/>
      </g>
     </g>
    </g>
    <g id="ytick_8">
     <g id="line2d_8">
      <g>
       <use xlink:href="#maccd20671c" x="50.8925" y="68.307588" style="stroke: #000000; stroke-width: 0.8"/>
      </g>
     </g>
     <g id="text_8">
      <!-- 1.0 -->
      <g transform="translate(27.989375 72.106807)scale(0.1 -0.1)">
       <defs>
        <path id="DejaVuSans-31" d="M 794 531 
L 1825 531 
L 1825 4091 
L 703 3866 
L 703 4441 
L 1819 4666 
L 2450 4666 
L 2450 531 
L 3481 531 
L 3481 0 
L 794 0 
L 794 531 
z
" transform="scale(0.015625)"/>
       </defs>
       <use xlink:href="#DejaVuSans-31"/>
       <use xlink:href="#DejaVuSans-2e" x="63.623047"/>
       <use xlink:href="#DejaVuSans-30" x="95.410156"/>
      </g>
     </g>
    </g>
    <g id="text_9">
     <!-- RMSD [$\AA$] -->
     <g transform="translate(21.909688 184.12)rotate(-90)scale(0.1 -0.1)">
      <defs>
       <path id="DejaVuSans-52" d="M 2841 2188 
Q 3044 2119 3236 1894 
Q 3428 1669 3622 1275 
L 4263 0 
L 3584 0 
L 2988 1197 
Q 2756 1666 2539 1819 
Q 2322 1972 1947 1972 
L 1259 1972 
L 1259 0 
L 628 0 
L 628 4666 
L 2053 4666 
Q 2853 4666 3247 4331 
Q 3641 3997 3641 3322 
Q 3641 2881 3436 2590 
Q 3231 2300 2841 2188 
z
M 1259 4147 
L 1259 2491 
L 2053 2491 
Q 2509 2491 2742 2702 
Q 2975 2913 2975 3322 
Q 2975 3731 2742 3939 
Q 2509 4147 2053 4147 
L 1259 4147 
z
" transform="scale(0.015625)"/>
       <path id="DejaVuSans-4d" d="M 628 4666 
L 1569 4666 
L 2759 1491 
L 3956 4666 
L 4897 4666 
L 4897 0 
L 4281 0 
L 4281 4097 
L 3078 897 
L 2444 897 
L 1241 4097 
L 1241 0 
L 628 0 
L 628 4666 
z
" transform="scale(0.015625)"/>
       <path id="DejaVuSans-53" d="M 3425 4513 
L 3425 3897 
Q 3066 4069 2747 4153 
Q 2428 4238 2131 4238 
Q 1616 4238 1336 4038 
Q 1056 3838 1056 3469 
Q 1056 3159 1242 3001 
Q 1428 2844 1947 2747 
L 2328 2669 
Q 3034 2534 3370 2195 
Q 3706 1856 3706 1288 
Q 3706 609 3251 259 
Q 2797 -91 1919 -91 
Q 1588 -91 1214 -16 
Q 841 59 441 206 
L 441 856 
Q 825 641 1194 531 
Q 1563 422 1919 422 
Q 2459 422 2753 634 
Q 3047 847 3047 1241 
Q 3047 1584 2836 1778 
Q 2625 1972 2144 2069 
L 1759 2144 
Q 1053 2284 737 2584 
Q 422 2884 422 3419 
Q 422 4038 858 4394 
Q 1294 4750 2059 4750 
Q 2388 4750 2728 4690 
Q 3069 4631 3425 4513 
z
" transform="scale(0.015625)"/>
       <path id="DejaVuSans-44" d="M 1259 4147 
L 1259 519 
L 2022 519 
Q 2988 519 3436 956 
Q 3884 1394 3884 2338 
Q 3884 3275 3436 3711 
Q 2988 4147 2022 4147 
L 1259 4147 
z
M 628 4666 
L 1925 4666 
Q 3281 4666 3915 4102 
Q 4550 3538 4550 2338 
Q 4550 1131 3912 565 
Q 3275 0 1925 0 
L 628 0 
L 628 4666 
z
" transform="scale(0.015625)"/>
       <path id="DejaVuSans-20" transform="scale(0.015625)"/>
       <path id="DejaVuSans-5b" d="M 550 4863 
L 1875 4863 
L 1875 4416 
L 1125 4416 
L 1125 -397 
L 1875 -397 
L 1875 -844 
L 550 -844 
L 550 4863 
z
" transform="scale(0.015625)"/>
       <path id="DejaVuSans-Oblique-c5" d="M 3188 5081 
Q 3188 5278 3048 5417 
Q 2909 5556 2713 5556 
Q 2513 5556 2377 5420 
Q 2241 5284 2241 5081 
Q 2241 4884 2377 4746 
Q 2513 4609 2713 4609 
Q 2909 4609 3048 4746 
Q 3188 4884 3188 5081 
z
M 2203 4397 
Q 2034 4513 1945 4689 
Q 1856 4866 1856 5081 
Q 1856 5438 2106 5689 
Q 2356 5941 2713 5941 
Q 3069 5941 3320 5689 
Q 3572 5438 3572 5081 
Q 3572 4834 3458 4643 
Q 3344 4453 3128 4341 
L 3938 0 
L 3278 0 
L 3084 1197 
L 984 1197 
L 325 0 
L -341 0 
L 2203 4397 
z
M 2584 4044 
L 1275 1722 
L 2988 1722 
L 2584 4044 
z
" transform="scale(0.015625)"/>
       <path id="DejaVuSans-5d" d="M 1947 4863 
L 1947 -844 
L 622 -844 
L 622 -397 
L 1369 -397 
L 1369 4416 
L 622 4416 
L 622 4863 
L 1947 4863 
z
" transform="scale(0.015625)"/>
      </defs>
      <use xlink:href="#DejaVuSans-52" transform="translate(0 0.171875)"/>
      <use xlink:href="#DejaVuSans-4d" transform="translate(69.482422 0.171875)"/>
      <use xlink:href="#DejaVuSans-53" transform="translate(155.761719 0.171875)"/>
      <use xlink:href="#DejaVuSans-44" transform="translate(219.238281 0.171875)"/>
      <use xlink:href="#DejaVuSans-20" transform="translate(296.240234 0.171875)"/>
      <use xlink:href="#DejaVuSans-5b" transform="translate(328.027344 0.171875)"/>
      <use xlink:href="#DejaVuSans-Oblique-c5" transform="translate(367.041016 0.171875)"/>
      <use xlink:href="#DejaVuSans-5d" transform="translate(435.449219 0.171875)"/>
     </g>
    </g>
   </g>
   <g id="LineCollection_1">
    <path d="M 66.177636 170.658965 
L 91.652864 170.658965 
" clip-path="url(#pf7cff89b2e)" style="fill: none; stroke: #1f77b4; stroke-width: 1.5"/>
   </g>
   <g id="LineCollection_2">
    <path d="M 66.177636 57.342727 
L 91.652864 57.342727 
" clip-path="url(#pf7cff89b2e)" style="fill: none; stroke: #1f77b4; stroke-width: 1.5"/>
   </g>
   <g id="LineCollection_3">
    <path d="M 66.177636 263.397273 
L 91.652864 263.397273 
" clip-path="url(#pf7cff89b2e)" style="fill: none; stroke: #1f77b4; stroke-width: 1.5"/>
   </g>
   <g id="LineCollection_4">
    <path d="M 78.91525 263.397273 
L 78.91525 57.342727 
" clip-path="url(#pf7cff89b2e)" style="fill: none; stroke: #1f77b4; stroke-width: 1.5"/>
   </g>
   <g id="patch_3">
    <path d="M 50.8925 273.7 
L 50.8925 47.04 
" style="fill: none; stroke: #000000; stroke-width: 0.8; stroke-linejoin: miter; stroke-linecap: square"/>
   </g>
   <g id="patch_4">
    <path d="M 106.938 273.7 
L 106.938 47.04 
" style="fill: none; stroke: #000000; stroke-width: 0.8; stroke-linejoin: miter; stroke-linecap: square"/>
   </g>
   <g id="patch_5">
    <path d="M 50.8925 273.7 
L 106.938 273.7 
" style="fill: none; stroke: #000000; stroke-width: 0.8; stroke-linejoin: miter; stroke-linecap: square"/>
   </g>
   <g id="patch_6">
    <path d="M 50.8925 47.04 
L 106.938 47.04 
" style="fill: none; stroke: #000000; stroke-width: 0.8; stroke-linejoin: miter; stroke-linecap: square"/>
   </g>
   <g id="text_10">
    <!-- RMSD -->
    <g transform="translate(61.14025 41.04)scale(0.12 -0.12)">
     <use xlink:href="#DejaVuSans-52"/>
     <use xlink:href="#DejaVuSans-4d" x="69.482422"/>
     <use xlink:href="#DejaVuSans-53" x="155.761719"/>
     <use xlink:href="#DejaVuSans-44" x="219.238281"/>
    </g>
   </g>
  </g>
  <g id="axes_2">
   <g id="patch_7">
    <path d="M 165.458 273.7 
L 221.5035 273.7 
L 221.5035 47.04 
L 165.458 47.04 
z
" style="fill: #ffffff"/>
   </g>
   <g id="PolyCollection_2">
    <path d="M 194.236834 263.397273 
L 192.724666 263.397273 
L 192.604964 261.315914 
L 192.47646 259.234555 
L 192.335011 257.153196 
L 192.174925 255.071837 
L 191.989708 252.990478 
L 191.773045 250.909118 
L 191.51976 248.827759 
L 191.226518 246.7464 
L 190.892086 244.665041 
L 190.517074 242.583682 
L 190.10319 240.502323 
L 189.652191 238.420964 
L 189.164765 236.339605 
L 188.639638 234.258246 
L 188.073166 232.176887 
L 187.4596 230.095528 
L 186.792073 228.014169 
L 186.064207 225.93281 
L 185.272099 223.851451 
L 184.4163 221.770092 
L 183.503362 219.688733 
L 182.546517 217.607374 
L 181.565163 215.526015 
L 180.582998 213.444656 
L 179.62493 211.363297 
L 178.713195 209.281938 
L 177.863421 207.200579 
L 177.081559 205.119219 
L 176.362592 203.03786 
L 175.691623 200.956501 
L 175.047407 198.875142 
L 174.407683 196.793783 
L 173.755052 194.712424 
L 173.081794 192.631065 
L 172.392209 190.549706 
L 171.70167 188.468347 
L 171.032643 186.386988 
L 170.408865 184.305629 
L 169.849593 182.22427 
L 169.365804 180.142911 
L 168.959584 178.061552 
L 168.626819 175.980193 
L 168.362147 173.898834 
L 168.164339 171.817475 
L 168.040187 169.736116 
L 168.005523 167.654757 
L 168.083017 165.573398 
L 168.297429 163.492039 
L 168.669722 161.41068 
L 169.211675 159.32932 
L 169.922308 157.247961 
L 170.786825 155.166602 
L 171.77809 153.085243 
L 172.860068 151.003884 
L 173.992389 148.922525 
L 175.135149 146.841166 
L 176.253199 144.759807 
L 177.319417 142.678448 
L 178.316686 140.597089 
L 179.238494 138.51573 
L 180.088206 136.434371 
L 180.877169 134.353012 
L 181.621903 132.271653 
L 182.340706 130.190294 
L 183.050106 128.108935 
L 183.76167 126.027576 
L 184.479701 123.946217 
L 185.200308 121.864858 
L 185.912136 119.783499 
L 186.598742 117.70214 
L 187.2422 115.620781 
L 187.827183 113.539421 
L 188.344529 111.458062 
L 188.793385 109.376703 
L 189.181327 107.295344 
L 189.522392 105.213985 
L 189.833539 103.132626 
L 190.130517 101.051267 
L 190.424242 98.969908 
L 190.718657 96.888549 
L 191.010539 94.80719 
L 191.291206 92.725831 
L 191.549498 90.644472 
L 191.775174 88.563113 
L 191.961762 86.481754 
L 192.108197 84.400395 
L 192.218927 82.319036 
L 192.302639 80.237677 
L 192.37007 78.156318 
L 192.43158 76.074959 
L 192.495144 73.9936 
L 192.565212 71.912241 
L 192.642603 69.830882 
L 192.725282 67.749522 
L 192.809657 65.668163 
L 192.891937 63.586804 
L 192.969161 61.505445 
L 193.039703 59.424086 
L 193.103228 57.342727 
L 193.858272 57.342727 
L 193.858272 57.342727 
L 193.921797 59.424086 
L 193.992339 61.505445 
L 194.069563 63.586804 
L 194.151843 65.668163 
L 194.236218 67.749522 
L 194.318897 69.830882 
L 194.396288 71.912241 
L 194.466356 73.9936 
L 194.52992 76.074959 
L 194.59143 78.156318 
L 194.658861 80.237677 
L 194.742573 82.319036 
L 194.853303 84.400395 
L 194.999738 86.481754 
L 195.186326 88.563113 
L 195.412002 90.644472 
L 195.670294 92.725831 
L 195.950961 94.80719 
L 196.242843 96.888549 
L 196.537258 98.969908 
L 196.830983 101.051267 
L 197.127961 103.132626 
L 197.439108 105.213985 
L 197.780173 107.295344 
L 198.168115 109.376703 
L 198.616971 111.458062 
L 199.134317 113.539421 
L 199.7193 115.620781 
L 200.362758 117.70214 
L 201.049364 119.783499 
L 201.761192 121.864858 
L 202.481799 123.946217 
L 203.19983 126.027576 
L 203.911394 128.108935 
L 204.620794 130.190294 
L 205.339597 132.271653 
L 206.084331 134.353012 
L 206.873294 136.434371 
L 207.723006 138.51573 
L 208.644814 140.597089 
L 209.642083 142.678448 
L 210.708301 144.759807 
L 211.826351 146.841166 
L 212.969111 148.922525 
L 214.101432 151.003884 
L 215.18341 153.085243 
L 216.174675 155.166602 
L 217.039192 157.247961 
L 217.749825 159.32932 
L 218.291778 161.41068 
L 218.664071 163.492039 
L 218.878483 165.573398 
L 218.955977 167.654757 
L 218.921313 169.736116 
L 218.797161 171.817475 
L 218.599353 173.898834 
L 218.334681 175.980193 
L 218.001916 178.061552 
L 217.595696 180.142911 
L 217.111907 182.22427 
L 216.552635 184.305629 
L 215.928857 186.386988 
L 215.25983 188.468347 
L 214.569291 190.549706 
L 213.879706 192.631065 
L 213.206448 194.712424 
L 212.553817 196.793783 
L 211.914093 198.875142 
L 211.269877 200.956501 
L 210.598908 203.03786 
L 209.879941 205.119219 
L 209.098079 207.200579 
L 208.248305 209.281938 
L 207.33657 211.363297 
L 206.378502 213.444656 
L 205.396337 215.526015 
L 204.414983 217.607374 
L 203.458138 219.688733 
L 202.5452 221.770092 
L 201.689401 223.851451 
L 200.897293 225.93281 
L 200.169427 228.014169 
L 199.5019 230.095528 
L 198.888334 232.176887 
L 198.321862 234.258246 
L 197.796735 236.339605 
L 197.309309 238.420964 
L 196.85831 240.502323 
L 196.444426 242.583682 
L 196.069414 244.665041 
L 195.734982 246.7464 
L 195.44174 248.827759 
L 195.188455 250.909118 
L 194.971792 252.990478 
L 194.786575 255.071837 
L 194.626489 257.153196 
L 194.48504 259.234555 
L 194.356536 261.315914 
L 194.236834 263.397273 
z
" clip-path="url(#p11cc2821f0)" style="fill: #1f77b4; fill-opacity: 0.3"/>
   </g>
   <g id="matplotlib.axis_2">
    <g id="ytick_9">
     <g id="line2d_9">
      <g>
       <use xlink:href="#maccd20671c" x="165.458" y="265.091784" style="stroke: #000000; stroke-width: 0.8"/>
      </g>
     </g>
     <g id="text_11">
      <!-- 0.2 -->
      <g transform="translate(142.554875 268.891003)scale(0.1 -0.1)">
       <defs>
        <path id="DejaVuSans-32" d="M 1228 531 
L 3431 531 
L 3431 0 
L 469 0 
L 469 531 
Q 828 903 1448 1529 
Q 2069 2156 2228 2338 
Q 2531 2678 2651 2914 
Q 2772 3150 2772 3378 
Q 2772 3750 2511 3984 
Q 2250 4219 1831 4219 
Q 1534 4219 1204 4116 
Q 875 4013 500 3803 
L 500 4441 
Q 881 4594 1212 4672 
Q 1544 4750 1819 4750 
Q 2544 4750 2975 4387 
Q 3406 4025 3406 3419 
Q 3406 3131 3298 2873 
Q 3191 2616 2906 2266 
Q 2828 2175 2409 1742 
Q 1991 1309 1228 531 
z
" transform="scale(0.015625)"/>
       </defs>
       <use xlink:href="#DejaVuSans-30"/>
       <use xlink:href="#DejaVuSans-2e" x="63.623047"/>
       <use xlink:href="#DejaVuSans-32" x="95.410156"/>
      </g>
     </g>
    </g>
    <g id="ytick_10">
     <g id="line2d_10">
      <g>
       <use xlink:href="#maccd20671c" x="165.458" y="226.57212" style="stroke: #000000; stroke-width: 0.8"/>
      </g>
     </g>
     <g id="text_12">
      <!-- 0.3 -->
      <g transform="translate(142.554875 230.371339)scale(0.1 -0.1)">
       <use xlink:href="#DejaVuSans-30"/>
       <use xlink:href="#DejaVuSans-2e" x="63.623047"/>
       <use xlink:href="#DejaVuSans-33" x="95.410156"/>
      </g>
     </g>
    </g>
    <g id="ytick_11">
     <g id="line2d_11">
      <g>
       <use xlink:href="#maccd20671c" x="165.458" y="188.052456" style="stroke: #000000; stroke-width: 0.8"/>
      </g>
     </g>
     <g id="text_13">
      <!-- 0.4 -->
      <g transform="translate(142.554875 191.851674)scale(0.1 -0.1)">
       <use xlink:href="#DejaVuSans-30"/>
       <use xlink:href="#DejaVuSans-2e" x="63.623047"/>
       <use xlink:href="#DejaVuSans-34" x="95.410156"/>
      </g>
     </g>
    </g>
    <g id="ytick_12">
     <g id="line2d_12">
      <g>
       <use xlink:href="#maccd20671c" x="165.458" y="149.532791" style="stroke: #000000; stroke-width: 0.8"/>
      </g>
     </g>
     <g id="text_14">
      <!-- 0.5 -->
      <g transform="translate(142.554875 153.33201)scale(0.1 -0.1)">
       <use xlink:href="#DejaVuSans-30"/>
       <use xlink:href="#DejaVuSans-2e" x="63.623047"/>
       <use xlink:href="#DejaVuSans-35" x="95.410156"/>
      </g>
     </g>
    </g>
    <g id="ytick_13">
     <g id="line2d_13">
      <g>
       <use xlink:href="#maccd20671c" x="165.458" y="111.013127" style="stroke: #000000; stroke-width: 0.8"/>
      </g>
     </g>
     <g id="text_15">
      <!-- 0.6 -->
      <g transform="translate(142.554875 114.812346)scale(0.1 -0.1)">
       <use xlink:href="#DejaVuSans-30"/>
       <use xlink:href="#DejaVuSans-2e" x="63.623047"/>
       <use xlink:href="#DejaVuSans-36" x="95.410156"/>
      </g>
     </g>
    </g>
    <g id="ytick_14">
     <g id="line2d_14">
      <g>
       <use xlink:href="#maccd20671c" x="165.458" y="72.493463" style="stroke: #000000; stroke-width: 0.8"/>
      </g>
     </g>
     <g id="text_16">
      <!-- 0.7 -->
      <g transform="translate(142.554875 76.292682)scale(0.1 -0.1)">
       <use xlink:href="#DejaVuSans-30"/>
       <use xlink:href="#DejaVuSans-2e" x="63.623047"/>
       <use xlink:href="#DejaVuSans-37" x="95.410156"/>
      </g>
     </g>
    </g>
    <g id="text_17">
     <!-- MAE [$\AA$] -->
     <g transform="translate(136.475187 180.22)rotate(-90)scale(0.1 -0.1)">
      <defs>
       <path id="DejaVuSans-41" d="M 2188 4044 
L 1331 1722 
L 3047 1722 
L 2188 4044 
z
M 1831 4666 
L 2547 4666 
L 4325 0 
L 3669 0 
L 3244 1197 
L 1141 1197 
L 716 0 
L 50 0 
L 1831 4666 
z
" transform="scale(0.015625)"/>
       <path id="DejaVuSans-45" d="M 628 4666 
L 3578 4666 
L 3578 4134 
L 1259 4134 
L 1259 2753 
L 3481 2753 
L 3481 2222 
L 1259 2222 
L 1259 531 
L 3634 531 
L 3634 0 
L 628 0 
L 628 4666 
z
" transform="scale(0.015625)"/>
      </defs>
      <use xlink:href="#DejaVuSans-4d" transform="translate(0 0.171875)"/>
      <use xlink:href="#DejaVuSans-41" transform="translate(86.279297 0.171875)"/>
      <use xlink:href="#DejaVuSans-45" transform="translate(154.6875 0.171875)"/>
      <use xlink:href="#DejaVuSans-20" transform="translate(217.871094 0.171875)"/>
      <use xlink:href="#DejaVuSans-5b" transform="translate(249.658203 0.171875)"/>
      <use xlink:href="#DejaVuSans-Oblique-c5" transform="translate(288.671875 0.171875)"/>
      <use xlink:href="#DejaVuSans-5d" transform="translate(357.080078 0.171875)"/>
     </g>
    </g>
   </g>
   <g id="LineCollection_5">
    <path d="M 180.743136 171.477689 
L 206.218364 171.477689 
" clip-path="url(#p11cc2821f0)" style="fill: none; stroke: #1f77b4; stroke-width: 1.5"/>
   </g>
   <g id="LineCollection_6">
    <path d="M 180.743136 57.342727 
L 206.218364 57.342727 
" clip-path="url(#p11cc2821f0)" style="fill: none; stroke: #1f77b4; stroke-width: 1.5"/>
   </g>
   <g id="LineCollection_7">
    <path d="M 180.743136 263.397273 
L 206.218364 263.397273 
" clip-path="url(#p11cc2821f0)" style="fill: none; stroke: #1f77b4; stroke-width: 1.5"/>
   </g>
   <g id="LineCollection_8">
    <path d="M 193.48075 263.397273 
L 193.48075 57.342727 
" clip-path="url(#p11cc2821f0)" style="fill: none; stroke: #1f77b4; stroke-width: 1.5"/>
   </g>
   <g id="patch_8">
    <path d="M 165.458 273.7 
L 165.458 47.04 
" style="fill: none; stroke: #000000; stroke-width: 0.8; stroke-linejoin: miter; stroke-linecap: square"/>
   </g>
   <g id="patch_9">
    <path d="M 221.5035 273.7 
L 221.5035 47.04 
" style="fill: none; stroke: #000000; stroke-width: 0.8; stroke-linejoin: miter; stroke-linecap: square"/>
   </g>
   <g id="patch_10">
    <path d="M 165.458 273.7 
L 221.5035 273.7 
" style="fill: none; stroke: #000000; stroke-width: 0.8; stroke-linejoin: miter; stroke-linecap: square"/>
   </g>
   <g id="patch_11">
    <path d="M 165.458 47.04 
L 221.5035 47.04 
" style="fill: none; stroke: #000000; stroke-width: 0.8; stroke-linejoin: miter; stroke-linecap: square"/>
   </g>
   <g id="text_18">
    <!-- MAE -->
    <g transform="translate(180.40825 41.04)scale(0.12 -0.12)">
     <use xlink:href="#DejaVuSans-4d"/>
     <use xlink:href="#DejaVuSans-41" x="86.279297"/>
     <use xlink:href="#DejaVuSans-45" x="154.6875"/>
    </g>
   </g>
  </g>
  <g id="axes_3">
   <g id="patch_12">
    <path d="M 280.0235 273.7 
L 336.069 273.7 
L 336.069 47.04 
L 280.0235 47.04 
z
" style="fill: #ffffff"/>
   </g>
   <g id="PolyCollection_3">
    <path d="M 308.460355 263.397273 
L 307.632145 263.397273 
L 307.62929 261.315914 
L 307.644103 259.234555 
L 307.670616 257.153196 
L 307.699514 255.071837 
L 307.719623 252.990478 
L 307.71973 250.909118 
L 307.690331 248.827759 
L 307.624976 246.7464 
L 307.520953 244.665041 
L 307.379189 242.583682 
L 307.203373 240.502323 
L 306.998485 238.420964 
L 306.769155 236.339605 
L 306.518416 234.258246 
L 306.247295 232.176887 
L 305.955423 230.095528 
L 305.642297 228.014169 
L 305.308485 225.93281 
L 304.956034 223.851451 
L 304.587695 221.770092 
L 304.205261 219.688733 
L 303.807841 217.607374 
L 303.391032 215.526015 
L 302.947586 213.444656 
L 302.469422 211.363297 
L 301.950124 209.281938 
L 301.386723 207.200579 
L 300.779804 205.119219 
L 300.131712 203.03786 
L 299.443505 200.956501 
L 298.711972 198.875142 
L 297.928159 196.793783 
L 297.078356 194.712424 
L 296.14761 192.631065 
L 295.124856 190.549706 
L 294.008138 188.468347 
L 292.808306 186.386988 
L 291.549981 184.305629 
L 290.269399 182.22427 
L 289.009585 180.142911 
L 287.814045 178.061552 
L 286.720535 175.980193 
L 285.756362 173.898834 
L 284.936127 171.817475 
L 284.262054 169.736116 
L 283.726282 167.654757 
L 283.314235 165.573398 
L 283.008263 163.492039 
L 282.791147 161.41068 
L 282.64931 159.32932 
L 282.575568 157.247961 
L 282.571023 155.166602 
L 282.645582 153.085243 
L 282.816775 151.003884 
L 283.106968 148.922525 
L 283.539577 146.841166 
L 284.135044 144.759807 
L 284.907278 142.678448 
L 285.860925 140.597089 
L 286.98963 138.51573 
L 288.275426 136.434371 
L 289.689438 134.353012 
L 291.194091 132.271653 
L 292.746727 130.190294 
L 294.304081 128.108935 
L 295.826588 126.027576 
L 297.281454 123.946217 
L 298.643806 121.864858 
L 299.896021 119.783499 
L 301.026067 117.70214 
L 302.025935 115.620781 
L 302.891011 113.539421 
L 303.620481 111.458062 
L 304.218254 109.376703 
L 304.693579 107.295344 
L 305.060714 105.213985 
L 305.337539 103.132626 
L 305.543512 101.051267 
L 305.697627 98.969908 
L 305.816961 96.888549 
L 305.916077 94.80719 
L 306.007099 92.725831 
L 306.100033 90.644472 
L 306.202866 88.563113 
L 306.321196 86.481754 
L 306.457554 84.400395 
L 306.610833 82.319036 
L 306.776278 80.237677 
L 306.946289 78.156318 
L 307.111898 76.074959 
L 307.264508 73.9936 
L 307.397413 71.912241 
L 307.506754 69.830882 
L 307.59182 67.749522 
L 307.65476 65.668163 
L 307.699903 63.586804 
L 307.732805 61.505445 
L 307.759208 59.424086 
L 307.784031 57.342727 
L 308.308469 57.342727 
L 308.308469 57.342727 
L 308.333292 59.424086 
L 308.359695 61.505445 
L 308.392597 63.586804 
L 308.43774 65.668163 
L 308.50068 67.749522 
L 308.585746 69.830882 
L 308.695087 71.912241 
L 308.827992 73.9936 
L 308.980602 76.074959 
L 309.146211 78.156318 
L 309.316222 80.237677 
L 309.481667 82.319036 
L 309.634946 84.400395 
L 309.771304 86.481754 
L 309.889634 88.563113 
L 309.992467 90.644472 
L 310.085401 92.725831 
L 310.176423 94.80719 
L 310.275539 96.888549 
L 310.394873 98.969908 
L 310.548988 101.051267 
L 310.754961 103.132626 
L 311.031786 105.213985 
L 311.398921 107.295344 
L 311.874246 109.376703 
L 312.472019 111.458062 
L 313.201489 113.539421 
L 314.066565 115.620781 
L 315.066433 117.70214 
L 316.196479 119.783499 
L 317.448694 121.864858 
L 318.811046 123.946217 
L 320.265912 126.027576 
L 321.788419 128.108935 
L 323.345773 130.190294 
L 324.898409 132.271653 
L 326.403062 134.353012 
L 327.817074 136.434371 
L 329.10287 138.51573 
L 330.231575 140.597089 
L 331.185222 142.678448 
L 331.957456 144.759807 
L 332.552923 146.841166 
L 332.985532 148.922525 
L 333.275725 151.003884 
L 333.446918 153.085243 
L 333.521477 155.166602 
L 333.516932 157.247961 
L 333.44319 159.32932 
L 333.301353 161.41068 
L 333.084237 163.492039 
L 332.778265 165.573398 
L 332.366218 167.654757 
L 331.830446 169.736116 
L 331.156373 171.817475 
L 330.336138 173.898834 
L 329.371965 175.980193 
L 328.278455 178.061552 
L 327.082915 180.142911 
L 325.823101 182.22427 
L 324.542519 184.305629 
L 323.284194 186.386988 
L 322.084362 188.468347 
L 320.967644 190.549706 
L 319.94489 192.631065 
L 319.014144 194.712424 
L 318.164341 196.793783 
L 317.380528 198.875142 
L 316.648995 200.956501 
L 315.960788 203.03786 
L 315.312696 205.119219 
L 314.705777 207.200579 
L 314.142376 209.281938 
L 313.623078 211.363297 
L 313.144914 213.444656 
L 312.701468 215.526015 
L 312.284659 217.607374 
L 311.887239 219.688733 
L 311.504805 221.770092 
L 311.136466 223.851451 
L 310.784015 225.93281 
L 310.450203 228.014169 
L 310.137077 230.095528 
L 309.845205 232.176887 
L 309.574084 234.258246 
L 309.323345 236.339605 
L 309.094015 238.420964 
L 308.889127 240.502323 
L 308.713311 242.583682 
L 308.571547 244.665041 
L 308.467524 246.7464 
L 308.402169 248.827759 
L 308.37277 250.909118 
L 308.372877 252.990478 
L 308.392986 255.071837 
L 308.421884 257.153196 
L 308.448397 259.234555 
L 308.46321 261.315914 
L 308.460355 263.397273 
z
" clip-path="url(#p164018e4e7)" style="fill: #1f77b4; fill-opacity: 0.3"/>
   </g>
   <g id="matplotlib.axis_3">
    <g id="ytick_15">
     <g id="line2d_15">
      <g>
       <use xlink:href="#maccd20671c" x="280.0235" y="242.556203" style="stroke: #000000; stroke-width: 0.8"/>
      </g>
     </g>
     <g id="text_19">
      <!-- 0.0 -->
      <g transform="translate(257.120375 246.355422)scale(0.1 -0.1)">
       <use xlink:href="#DejaVuSans-30"/>
       <use xlink:href="#DejaVuSans-2e" x="63.623047"/>
       <use xlink:href="#DejaVuSans-30" x="95.410156"/>
      </g>
     </g>
    </g>
    <g id="ytick_16">
     <g id="line2d_16">
      <g>
       <use xlink:href="#maccd20671c" x="280.0235" y="206.749701" style="stroke: #000000; stroke-width: 0.8"/>
      </g>
     </g>
     <g id="text_20">
      <!-- 0.1 -->
      <g transform="translate(257.120375 210.548919)scale(0.1 -0.1)">
       <use xlink:href="#DejaVuSans-30"/>
       <use xlink:href="#DejaVuSans-2e" x="63.623047"/>
       <use xlink:href="#DejaVuSans-31" x="95.410156"/>
      </g>
     </g>
    </g>
    <g id="ytick_17">
     <g id="line2d_17">
      <g>
       <use xlink:href="#maccd20671c" x="280.0235" y="170.943198" style="stroke: #000000; stroke-width: 0.8"/>
      </g>
     </g>
     <g id="text_21">
      <!-- 0.2 -->
      <g transform="translate(257.120375 174.742417)scale(0.1 -0.1)">
       <use xlink:href="#DejaVuSans-30"/>
       <use xlink:href="#DejaVuSans-2e" x="63.623047"/>
       <use xlink:href="#DejaVuSans-32" x="95.410156"/>
      </g>
     </g>
    </g>
    <g id="ytick_18">
     <g id="line2d_18">
      <g>
       <use xlink:href="#maccd20671c" x="280.0235" y="135.136696" style="stroke: #000000; stroke-width: 0.8"/>
      </g>
     </g>
     <g id="text_22">
      <!-- 0.3 -->
      <g transform="translate(257.120375 138.935915)scale(0.1 -0.1)">
       <use xlink:href="#DejaVuSans-30"/>
       <use xlink:href="#DejaVuSans-2e" x="63.623047"/>
       <use xlink:href="#DejaVuSans-33" x="95.410156"/>
      </g>
     </g>
    </g>
    <g id="ytick_19">
     <g id="line2d_19">
      <g>
       <use xlink:href="#maccd20671c" x="280.0235" y="99.330194" style="stroke: #000000; stroke-width: 0.8"/>
      </g>
     </g>
     <g id="text_23">
      <!-- 0.4 -->
      <g transform="translate(257.120375 103.129412)scale(0.1 -0.1)">
       <use xlink:href="#DejaVuSans-30"/>
       <use xlink:href="#DejaVuSans-2e" x="63.623047"/>
       <use xlink:href="#DejaVuSans-34" x="95.410156"/>
      </g>
     </g>
    </g>
    <g id="ytick_20">
     <g id="line2d_20">
      <g>
       <use xlink:href="#maccd20671c" x="280.0235" y="63.523691" style="stroke: #000000; stroke-width: 0.8"/>
      </g>
     </g>
     <g id="text_24">
      <!-- 0.5 -->
      <g transform="translate(257.120375 67.32291)scale(0.1 -0.1)">
       <use xlink:href="#DejaVuSans-30"/>
       <use xlink:href="#DejaVuSans-2e" x="63.623047"/>
       <use xlink:href="#DejaVuSans-35" x="95.410156"/>
      </g>
     </g>
    </g>
    <g id="text_25">
     <!-- MSE [$\AA$] -->
     <g transform="translate(251.040687 179.97)rotate(-90)scale(0.1 -0.1)">
      <use xlink:href="#DejaVuSans-4d" transform="translate(0 0.171875)"/>
      <use xlink:href="#DejaVuSans-53" transform="translate(86.279297 0.171875)"/>
      <use xlink:href="#DejaVuSans-45" transform="translate(149.755859 0.171875)"/>
      <use xlink:href="#DejaVuSans-20" transform="translate(212.939453 0.171875)"/>
      <use xlink:href="#DejaVuSans-5b" transform="translate(244.726562 0.171875)"/>
      <use xlink:href="#DejaVuSans-Oblique-c5" transform="translate(283.740234 0.171875)"/>
      <use xlink:href="#DejaVuSans-5d" transform="translate(352.148438 0.171875)"/>
     </g>
    </g>
   </g>
   <g id="LineCollection_9">
    <path d="M 295.308636 160.38793 
L 320.783864 160.38793 
" clip-path="url(#p164018e4e7)" style="fill: none; stroke: #1f77b4; stroke-width: 1.5"/>
   </g>
   <g id="LineCollection_10">
    <path d="M 295.308636 57.342727 
L 320.783864 57.342727 
" clip-path="url(#p164018e4e7)" style="fill: none; stroke: #1f77b4; stroke-width: 1.5"/>
   </g>
   <g id="LineCollection_11">
    <path d="M 295.308636 263.397273 
L 320.783864 263.397273 
" clip-path="url(#p164018e4e7)" style="fill: none; stroke: #1f77b4; stroke-width: 1.5"/>
   </g>
   <g id="LineCollection_12">
    <path d="M 308.04625 263.397273 
L 308.04625 57.342727 
" clip-path="url(#p164018e4e7)" style="fill: none; stroke: #1f77b4; stroke-width: 1.5"/>
   </g>
   <g id="patch_13">
    <path d="M 280.0235 273.7 
L 280.0235 47.04 
" style="fill: none; stroke: #000000; stroke-width: 0.8; stroke-linejoin: miter; stroke-linecap: square"/>
   </g>
   <g id="patch_14">
    <path d="M 336.069 273.7 
L 336.069 47.04 
" style="fill: none; stroke: #000000; stroke-width: 0.8; stroke-linejoin: miter; stroke-linecap: square"/>
   </g>
   <g id="patch_15">
    <path d="M 280.0235 273.7 
L 336.069 273.7 
" style="fill: none; stroke: #000000; stroke-width: 0.8; stroke-linejoin: miter; stroke-linecap: square"/>
   </g>
   <g id="patch_16">
    <path d="M 280.0235 47.04 
L 336.069 47.04 
" style="fill: none; stroke: #000000; stroke-width: 0.8; stroke-linejoin: miter; stroke-linecap: square"/>
   </g>
   <g id="text_26">
    <!-- MSE -->
    <g transform="translate(295.269062 41.04)scale(0.12 -0.12)">
     <use xlink:href="#DejaVuSans-4d"/>
     <use xlink:href="#DejaVuSans-53" x="86.279297"/>
     <use xlink:href="#DejaVuSans-45" x="149.755859"/>
    </g>
   </g>
  </g>
  <g id="axes_4">
   <g id="patch_17">
    <path d="M 394.589 273.7 
L 450.6345 273.7 
L 450.6345 47.04 
L 394.589 47.04 
z
" style="fill: #ffffff"/>
   </g>
   <g id="PolyCollection_4">
    <path d="M 423.139774 263.397273 
L 422.083726 263.397273 
L 421.982335 261.315914 
L 421.870116 259.234555 
L 421.745482 257.153196 
L 421.605408 255.071837 
L 421.44476 252.990478 
L 421.255681 250.909118 
L 421.027218 248.827759 
L 420.745431 246.7464 
L 420.394152 244.665041 
L 419.956463 242.583682 
L 419.416747 240.502323 
L 418.76299 238.420964 
L 417.988823 236.339605 
L 417.094785 234.258246 
L 416.088455 232.176887 
L 414.983406 230.095528 
L 413.797343 228.014169 
L 412.549989 225.93281 
L 411.261351 223.851451 
L 409.95066 221.770092 
L 408.635967 219.688733 
L 407.334044 217.607374 
L 406.060281 215.526015 
L 404.828448 213.444656 
L 403.65051 211.363297 
L 402.536758 209.281938 
L 401.496408 207.200579 
L 400.538532 205.119219 
L 399.672991 203.03786 
L 398.911052 200.956501 
L 398.265583 198.875142 
L 397.750832 196.793783 
L 397.381797 194.712424 
L 397.173016 192.631065 
L 397.136523 190.549706 
L 397.278953 188.468347 
L 397.59828 186.386988 
L 398.081202 184.305629 
L 398.702331 182.22427 
L 399.425955 180.142911 
L 400.210279 178.061552 
L 401.013182 175.980193 
L 401.798046 173.898834 
L 402.538254 171.817475 
L 403.219463 169.736116 
L 403.839407 167.654757 
L 404.405578 165.573398 
L 404.931507 163.492039 
L 405.432566 161.41068 
L 405.922251 159.32932 
L 406.409724 157.247961 
L 406.89904 155.166602 
L 407.39001 153.085243 
L 407.880192 151.003884 
L 408.36729 148.922525 
L 408.851208 146.841166 
L 409.33525 144.759807 
L 409.826203 142.678448 
L 410.333275 140.597089 
L 410.866093 138.51573 
L 411.43211 136.434371 
L 412.034033 134.353012 
L 412.667972 132.271653 
L 413.322949 130.190294 
L 413.982081 128.108935 
L 414.625277 126.027576 
L 415.232784 123.946217 
L 415.788688 121.864858 
L 416.283524 119.783499 
L 416.715439 117.70214 
L 417.089814 115.620781 
L 417.417608 113.539421 
L 417.712967 111.458062 
L 417.990681 109.376703 
L 418.264022 107.295344 
L 418.543288 105.213985 
L 418.83513 103.132626 
L 419.14252 101.051267 
L 419.46509 98.969908 
L 419.799577 96.888549 
L 420.14025 94.80719 
L 420.479336 92.725831 
L 420.807593 90.644472 
L 421.115168 88.563113 
L 421.392714 86.481754 
L 421.632633 84.400395 
L 421.830151 82.319036 
L 421.983954 80.237677 
L 422.096225 78.156318 
L 422.172081 76.074959 
L 422.218601 73.9936 
L 422.243686 71.912241 
L 422.255031 69.830882 
L 422.259365 67.749522 
L 422.262042 65.668163 
L 422.266931 63.586804 
L 422.276502 61.505445 
L 422.292008 59.424086 
L 422.313683 57.342727 
L 422.909817 57.342727 
L 422.909817 57.342727 
L 422.931492 59.424086 
L 422.946998 61.505445 
L 422.956569 63.586804 
L 422.961458 65.668163 
L 422.964135 67.749522 
L 422.968469 69.830882 
L 422.979814 71.912241 
L 423.004899 73.9936 
L 423.051419 76.074959 
L 423.127275 78.156318 
L 423.239546 80.237677 
L 423.393349 82.319036 
L 423.590867 84.400395 
L 423.830786 86.481754 
L 424.108332 88.563113 
L 424.415907 90.644472 
L 424.744164 92.725831 
L 425.08325 94.80719 
L 425.423923 96.888549 
L 425.75841 98.969908 
L 426.08098 101.051267 
L 426.38837 103.132626 
L 426.680212 105.213985 
L 426.959478 107.295344 
L 427.232819 109.376703 
L 427.510533 111.458062 
L 427.805892 113.539421 
L 428.133686 115.620781 
L 428.508061 117.70214 
L 428.939976 119.783499 
L 429.434812 121.864858 
L 429.990716 123.946217 
L 430.598223 126.027576 
L 431.241419 128.108935 
L 431.900551 130.190294 
L 432.555528 132.271653 
L 433.189467 134.353012 
L 433.79139 136.434371 
L 434.357407 138.51573 
L 434.890225 140.597089 
L 435.397297 142.678448 
L 435.88825 144.759807 
L 436.372292 146.841166 
L 436.85621 148.922525 
L 437.343308 151.003884 
L 437.83349 153.085243 
L 438.32446 155.166602 
L 438.813776 157.247961 
L 439.301249 159.32932 
L 439.790934 161.41068 
L 440.291993 163.492039 
L 440.817922 165.573398 
L 441.384093 167.654757 
L 442.004037 169.736116 
L 442.685246 171.817475 
L 443.425454 173.898834 
L 444.210318 175.980193 
L 445.013221 178.061552 
L 445.797545 180.142911 
L 446.521169 182.22427 
L 447.142298 184.305629 
L 447.62522 186.386988 
L 447.944547 188.468347 
L 448.086977 190.549706 
L 448.050484 192.631065 
L 447.841703 194.712424 
L 447.472668 196.793783 
L 446.957917 198.875142 
L 446.312448 200.956501 
L 445.550509 203.03786 
L 444.684968 205.119219 
L 443.727092 207.200579 
L 442.686742 209.281938 
L 441.57299 211.363297 
L 440.395052 213.444656 
L 439.163219 215.526015 
L 437.889456 217.607374 
L 436.587533 219.688733 
L 435.27284 221.770092 
L 433.962149 223.851451 
L 432.673511 225.93281 
L 431.426157 228.014169 
L 430.240094 230.095528 
L 429.135045 232.176887 
L 428.128715 234.258246 
L 427.234677 236.339605 
L 426.46051 238.420964 
L 425.806753 240.502323 
L 425.267037 242.583682 
L 424.829348 244.665041 
L 424.478069 246.7464 
L 424.196282 248.827759 
L 423.967819 250.909118 
L 423.77874 252.990478 
L 423.618092 255.071837 
L 423.478018 257.153196 
L 423.353384 259.234555 
L 423.241165 261.315914 
L 423.139774 263.397273 
z
" clip-path="url(#p447ba32e1c)" style="fill: #1f77b4; fill-opacity: 0.3"/>
   </g>
   <g id="matplotlib.axis_4">
    <g id="ytick_21">
     <g id="line2d_21">
      <g>
       <use xlink:href="#maccd20671c" x="394.589" y="245.3675" style="stroke: #000000; stroke-width: 0.8"/>
      </g>
     </g>
     <g id="text_27">
      <!-- 0.2 -->
      <g transform="translate(371.685875 249.166719)scale(0.1 -0.1)">
       <use xlink:href="#DejaVuSans-30"/>
       <use xlink:href="#DejaVuSans-2e" x="63.623047"/>
       <use xlink:href="#DejaVuSans-32" x="95.410156"/>
      </g>
     </g>
    </g>
    <g id="ytick_22">
     <g id="line2d_22">
      <g>
       <use xlink:href="#maccd20671c" x="394.589" y="204.156591" style="stroke: #000000; stroke-width: 0.8"/>
      </g>
     </g>
     <g id="text_28">
      <!-- 0.3 -->
      <g transform="translate(371.685875 207.95581)scale(0.1 -0.1)">
       <use xlink:href="#DejaVuSans-30"/>
       <use xlink:href="#DejaVuSans-2e" x="63.623047"/>
       <use xlink:href="#DejaVuSans-33" x="95.410156"/>
      </g>
     </g>
    </g>
    <g id="ytick_23">
     <g id="line2d_23">
      <g>
       <use xlink:href="#maccd20671c" x="394.589" y="162.945682" style="stroke: #000000; stroke-width: 0.8"/>
      </g>
     </g>
     <g id="text_29">
      <!-- 0.4 -->
      <g transform="translate(371.685875 166.744901)scale(0.1 -0.1)">
       <use xlink:href="#DejaVuSans-30"/>
       <use xlink:href="#DejaVuSans-2e" x="63.623047"/>
       <use xlink:href="#DejaVuSans-34" x="95.410156"/>
      </g>
     </g>
    </g>
    <g id="ytick_24">
     <g id="line2d_24">
      <g>
       <use xlink:href="#maccd20671c" x="394.589" y="121.734773" style="stroke: #000000; stroke-width: 0.8"/>
      </g>
     </g>
     <g id="text_30">
      <!-- 0.5 -->
      <g transform="translate(371.685875 125.533991)scale(0.1 -0.1)">
       <use xlink:href="#DejaVuSans-30"/>
       <use xlink:href="#DejaVuSans-2e" x="63.623047"/>
       <use xlink:href="#DejaVuSans-35" x="95.410156"/>
      </g>
     </g>
    </g>
    <g id="ytick_25">
     <g id="line2d_25">
      <g>
       <use xlink:href="#maccd20671c" x="394.589" y="80.523864" style="stroke: #000000; stroke-width: 0.8"/>
      </g>
     </g>
     <g id="text_31">
      <!-- 0.6 -->
      <g transform="translate(371.685875 84.323082)scale(0.1 -0.1)">
       <use xlink:href="#DejaVuSans-30"/>
       <use xlink:href="#DejaVuSans-2e" x="63.623047"/>
       <use xlink:href="#DejaVuSans-36" x="95.410156"/>
      </g>
     </g>
    </g>
    <g id="text_32">
     <!-- % NOE fulfilled [1/100 %] -->
     <g transform="translate(365.606188 223.870781)rotate(-90)scale(0.1 -0.1)">
      <defs>
       <path id="DejaVuSans-25" d="M 4653 2053 
Q 4381 2053 4226 1822 
Q 4072 1591 4072 1178 
Q 4072 772 4226 539 
Q 4381 306 4653 306 
Q 4919 306 5073 539 
Q 5228 772 5228 1178 
Q 5228 1588 5073 1820 
Q 4919 2053 4653 2053 
z
M 4653 2450 
Q 5147 2450 5437 2106 
Q 5728 1763 5728 1178 
Q 5728 594 5436 251 
Q 5144 -91 4653 -91 
Q 4153 -91 3862 251 
Q 3572 594 3572 1178 
Q 3572 1766 3864 2108 
Q 4156 2450 4653 2450 
z
M 1428 4353 
Q 1159 4353 1004 4120 
Q 850 3888 850 3481 
Q 850 3069 1003 2837 
Q 1156 2606 1428 2606 
Q 1700 2606 1854 2837 
Q 2009 3069 2009 3481 
Q 2009 3884 1853 4118 
Q 1697 4353 1428 4353 
z
M 4250 4750 
L 4750 4750 
L 1831 -91 
L 1331 -91 
L 4250 4750 
z
M 1428 4750 
Q 1922 4750 2215 4408 
Q 2509 4066 2509 3481 
Q 2509 2891 2217 2550 
Q 1925 2209 1428 2209 
Q 931 2209 642 2551 
Q 353 2894 353 3481 
Q 353 4063 643 4406 
Q 934 4750 1428 4750 
z
" transform="scale(0.015625)"/>
       <path id="DejaVuSans-4e" d="M 628 4666 
L 1478 4666 
L 3547 763 
L 3547 4666 
L 4159 4666 
L 4159 0 
L 3309 0 
L 1241 3903 
L 1241 0 
L 628 0 
L 628 4666 
z
" transform="scale(0.015625)"/>
       <path id="DejaVuSans-4f" d="M 2522 4238 
Q 1834 4238 1429 3725 
Q 1025 3213 1025 2328 
Q 1025 1447 1429 934 
Q 1834 422 2522 422 
Q 3209 422 3611 934 
Q 4013 1447 4013 2328 
Q 4013 3213 3611 3725 
Q 3209 4238 2522 4238 
z
M 2522 4750 
Q 3503 4750 4090 4092 
Q 4678 3434 4678 2328 
Q 4678 1225 4090 567 
Q 3503 -91 2522 -91 
Q 1538 -91 948 565 
Q 359 1222 359 2328 
Q 359 3434 948 4092 
Q 1538 4750 2522 4750 
z
" transform="scale(0.015625)"/>
       <path id="DejaVuSans-66" d="M 2375 4863 
L 2375 4384 
L 1825 4384 
Q 1516 4384 1395 4259 
Q 1275 4134 1275 3809 
L 1275 3500 
L 2222 3500 
L 2222 3053 
L 1275 3053 
L 1275 0 
L 697 0 
L 697 3053 
L 147 3053 
L 147 3500 
L 697 3500 
L 697 3744 
Q 697 4328 969 4595 
Q 1241 4863 1831 4863 
L 2375 4863 
z
" transform="scale(0.015625)"/>
       <path id="DejaVuSans-75" d="M 544 1381 
L 544 3500 
L 1119 3500 
L 1119 1403 
Q 1119 906 1312 657 
Q 1506 409 1894 409 
Q 2359 409 2629 706 
Q 2900 1003 2900 1516 
L 2900 3500 
L 3475 3500 
L 3475 0 
L 2900 0 
L 2900 538 
Q 2691 219 2414 64 
Q 2138 -91 1772 -91 
Q 1169 -91 856 284 
Q 544 659 544 1381 
z
M 1991 3584 
L 1991 3584 
z
" transform="scale(0.015625)"/>
       <path id="DejaVuSans-6c" d="M 603 4863 
L 1178 4863 
L 1178 0 
L 603 0 
L 603 4863 
z
" transform="scale(0.015625)"/>
       <path id="DejaVuSans-69" d="M 603 3500 
L 1178 3500 
L 1178 0 
L 603 0 
L 603 3500 
z
M 603 4863 
L 1178 4863 
L 1178 4134 
L 603 4134 
L 603 4863 
z
" transform="scale(0.015625)"/>
       <path id="DejaVuSans-65" d="M 3597 1894 
L 3597 1613 
L 953 1613 
Q 991 1019 1311 708 
Q 1631 397 2203 397 
Q 2534 397 2845 478 
Q 3156 559 3463 722 
L 3463 178 
Q 3153 47 2828 -22 
Q 2503 -91 2169 -91 
Q 1331 -91 842 396 
Q 353 884 353 1716 
Q 353 2575 817 3079 
Q 1281 3584 2069 3584 
Q 2775 3584 3186 3129 
Q 3597 2675 3597 1894 
z
M 3022 2063 
Q 3016 2534 2758 2815 
Q 2500 3097 2075 3097 
Q 1594 3097 1305 2825 
Q 1016 2553 972 2059 
L 3022 2063 
z
" transform="scale(0.015625)"/>
       <path id="DejaVuSans-64" d="M 2906 2969 
L 2906 4863 
L 3481 4863 
L 3481 0 
L 2906 0 
L 2906 525 
Q 2725 213 2448 61 
Q 2172 -91 1784 -91 
Q 1150 -91 751 415 
Q 353 922 353 1747 
Q 353 2572 751 3078 
Q 1150 3584 1784 3584 
Q 2172 3584 2448 3432 
Q 2725 3281 2906 2969 
z
M 947 1747 
Q 947 1113 1208 752 
Q 1469 391 1925 391 
Q 2381 391 2643 752 
Q 2906 1113 2906 1747 
Q 2906 2381 2643 2742 
Q 2381 3103 1925 3103 
Q 1469 3103 1208 2742 
Q 947 2381 947 1747 
z
" transform="scale(0.015625)"/>
       <path id="DejaVuSans-2f" d="M 1625 4666 
L 2156 4666 
L 531 -594 
L 0 -594 
L 1625 4666 
z
" transform="scale(0.015625)"/>
      </defs>
      <use xlink:href="#DejaVuSans-25"/>
      <use xlink:href="#DejaVuSans-20" x="95.019531"/>
      <use xlink:href="#DejaVuSans-4e" x="126.806641"/>
      <use xlink:href="#DejaVuSans-4f" x="201.611328"/>
      <use xlink:href="#DejaVuSans-45" x="280.322266"/>
      <use xlink:href="#DejaVuSans-20" x="343.505859"/>
      <use xlink:href="#DejaVuSans-66" x="375.292969"/>
      <use xlink:href="#DejaVuSans-75" x="410.498047"/>
      <use xlink:href="#DejaVuSans-6c" x="473.876953"/>
      <use xlink:href="#DejaVuSans-66" x="501.660156"/>
      <use xlink:href="#DejaVuSans-69" x="536.865234"/>
      <use xlink:href="#DejaVuSans-6c" x="564.648438"/>
      <use xlink:href="#DejaVuSans-6c" x="592.431641"/>
      <use xlink:href="#DejaVuSans-65" x="620.214844"/>
      <use xlink:href="#DejaVuSans-64" x="681.738281"/>
      <use xlink:href="#DejaVuSans-20" x="745.214844"/>
      <use xlink:href="#DejaVuSans-5b" x="777.001953"/>
      <use xlink:href="#DejaVuSans-31" x="816.015625"/>
      <use xlink:href="#DejaVuSans-2f" x="879.638672"/>
      <use xlink:href="#DejaVuSans-31" x="913.330078"/>
      <use xlink:href="#DejaVuSans-30" x="976.953125"/>
      <use xlink:href="#DejaVuSans-30" x="1040.576172"/>
      <use xlink:href="#DejaVuSans-20" x="1104.199219"/>
      <use xlink:href="#DejaVuSans-25" x="1135.986328"/>
      <use xlink:href="#DejaVuSans-5d" x="1231.005859"/>
     </g>
    </g>
   </g>
   <g id="LineCollection_13">
    <path d="M 409.874136 177.305108 
L 435.349364 177.305108 
" clip-path="url(#p447ba32e1c)" style="fill: none; stroke: #1f77b4; stroke-width: 1.5"/>
   </g>
   <g id="LineCollection_14">
    <path d="M 409.874136 57.342727 
L 435.349364 57.342727 
" clip-path="url(#p447ba32e1c)" style="fill: none; stroke: #1f77b4; stroke-width: 1.5"/>
   </g>
   <g id="LineCollection_15">
    <path d="M 409.874136 263.397273 
L 435.349364 263.397273 
" clip-path="url(#p447ba32e1c)" style="fill: none; stroke: #1f77b4; stroke-width: 1.5"/>
   </g>
   <g id="LineCollection_16">
    <path d="M 422.61175 263.397273 
L 422.61175 57.342727 
" clip-path="url(#p447ba32e1c)" style="fill: none; stroke: #1f77b4; stroke-width: 1.5"/>
   </g>
   <g id="patch_18">
    <path d="M 394.589 273.7 
L 394.589 47.04 
" style="fill: none; stroke: #000000; stroke-width: 0.8; stroke-linejoin: miter; stroke-linecap: square"/>
   </g>
   <g id="patch_19">
    <path d="M 450.6345 273.7 
L 450.6345 47.04 
" style="fill: none; stroke: #000000; stroke-width: 0.8; stroke-linejoin: miter; stroke-linecap: square"/>
   </g>
   <g id="patch_20">
    <path d="M 394.589 273.7 
L 450.6345 273.7 
" style="fill: none; stroke: #000000; stroke-width: 0.8; stroke-linejoin: miter; stroke-linecap: square"/>
   </g>
   <g id="patch_21">
    <path d="M 394.589 47.04 
L 450.6345 47.04 
" style="fill: none; stroke: #000000; stroke-width: 0.8; stroke-linejoin: miter; stroke-linecap: square"/>
   </g>
   <g id="text_33">
    <!-- % NOE fulfilled -->
    <g transform="translate(377.898625 41.04)scale(0.12 -0.12)">
     <use xlink:href="#DejaVuSans-25"/>
     <use xlink:href="#DejaVuSans-20" x="95.019531"/>
     <use xlink:href="#DejaVuSans-4e" x="126.806641"/>
     <use xlink:href="#DejaVuSans-4f" x="201.611328"/>
     <use xlink:href="#DejaVuSans-45" x="280.322266"/>
     <use xlink:href="#DejaVuSans-20" x="343.505859"/>
     <use xlink:href="#DejaVuSans-66" x="375.292969"/>
     <use xlink:href="#DejaVuSans-75" x="410.498047"/>
     <use xlink:href="#DejaVuSans-6c" x="473.876953"/>
     <use xlink:href="#DejaVuSans-66" x="501.660156"/>
     <use xlink:href="#DejaVuSans-69" x="536.865234"/>
     <use xlink:href="#DejaVuSans-6c" x="564.648438"/>
     <use xlink:href="#DejaVuSans-6c" x="592.431641"/>
     <use xlink:href="#DejaVuSans-65" x="620.214844"/>
     <use xlink:href="#DejaVuSans-64" x="681.738281"/>
    </g>
   </g>
  </g>
  <g id="axes_5">
   <g id="patch_22">
    <path d="M 509.1545 273.7 
L 565.2 273.7 
L 565.2 47.04 
L 509.1545 47.04 
z
" style="fill: #ffffff"/>
   </g>
   <g id="PolyCollection_5">
    <path d="M 537.418157 263.397273 
L 536.936343 263.397273 
L 536.918394 261.315914 
L 536.903365 259.234555 
L 536.890161 257.153196 
L 536.877616 255.071837 
L 536.864862 252.990478 
L 536.851539 250.909118 
L 536.837773 248.827759 
L 536.823932 246.7464 
L 536.81024 244.665041 
L 536.79635 242.583682 
L 536.781004 240.502323 
L 536.761857 238.420964 
L 536.735506 236.339605 
L 536.697749 234.258246 
L 536.644023 232.176887 
L 536.569957 230.095528 
L 536.471938 228.014169 
L 536.347546 225.93281 
L 536.195778 223.851451 
L 536.016984 221.770092 
L 535.812533 219.688733 
L 535.58429 217.607374 
L 535.334005 215.526015 
L 535.062727 213.444656 
L 534.770329 211.363297 
L 534.45519 209.281938 
L 534.114066 207.200579 
L 533.742226 205.119219 
L 533.333966 203.03786 
L 532.88359 200.956501 
L 532.38691 198.875142 
L 531.843098 196.793783 
L 531.256479 194.712424 
L 530.637701 192.631065 
L 530.003678 190.549706 
L 529.375934 188.468347 
L 528.777421 186.386988 
L 528.228375 184.305629 
L 527.74212 182.22427 
L 527.321857 180.142911 
L 526.959246 178.061552 
L 526.635168 175.980193 
L 526.322587 173.898834 
L 525.991002 171.817475 
L 525.611683 169.736116 
L 525.16274 167.654757 
L 524.632999 165.573398 
L 524.02378 163.492039 
L 523.347972 161.41068 
L 522.626422 159.32932 
L 521.882368 157.247961 
L 521.135353 155.166602 
L 520.396386 153.085243 
L 519.665843 151.003884 
L 518.934795 148.922525 
L 518.189361 146.841166 
L 517.416684 144.759807 
L 516.610708 142.678448 
L 515.776187 140.597089 
L 514.930163 138.51573 
L 514.101125 136.434371 
L 513.326725 134.353012 
L 512.651089 132.271653 
L 512.122298 130.190294 
L 511.789928 128.108935 
L 511.702023 126.027576 
L 511.900761 123.946217 
L 512.416668 121.864858 
L 513.26208 119.783499 
L 514.425426 117.70214 
L 515.868236 115.620781 
L 517.526387 113.539421 
L 519.316059 111.458062 
L 521.14356 109.376703 
L 522.917077 107.295344 
L 524.557925 105.213985 
L 526.009102 103.132626 
L 527.23976 101.051267 
L 528.245296 98.969908 
L 529.043692 96.888549 
L 529.669401 94.80719 
L 530.166226 92.725831 
L 530.580467 90.644472 
L 530.955197 88.563113 
L 531.326035 86.481754 
L 531.718482 84.400395 
L 532.146684 82.319036 
L 532.613479 80.237677 
L 533.11164 78.156318 
L 533.62621 76.074959 
L 534.137701 73.9936 
L 534.625716 71.912241 
L 535.072426 69.830882 
L 535.46522 67.749522 
L 535.798086 65.668163 
L 536.071525 63.586804 
L 536.291225 61.505445 
L 536.465988 59.424086 
L 536.605521 57.342727 
L 537.748979 57.342727 
L 537.748979 57.342727 
L 537.888512 59.424086 
L 538.063275 61.505445 
L 538.282975 63.586804 
L 538.556414 65.668163 
L 538.88928 67.749522 
L 539.282074 69.830882 
L 539.728784 71.912241 
L 540.216799 73.9936 
L 540.72829 76.074959 
L 541.24286 78.156318 
L 541.741021 80.237677 
L 542.207816 82.319036 
L 542.636018 84.400395 
L 543.028465 86.481754 
L 543.399303 88.563113 
L 543.774033 90.644472 
L 544.188274 92.725831 
L 544.685099 94.80719 
L 545.310808 96.888549 
L 546.109204 98.969908 
L 547.11474 101.051267 
L 548.345398 103.132626 
L 549.796575 105.213985 
L 551.437423 107.295344 
L 553.21094 109.376703 
L 555.038441 111.458062 
L 556.828113 113.539421 
L 558.486264 115.620781 
L 559.929074 117.70214 
L 561.09242 119.783499 
L 561.937832 121.864858 
L 562.453739 123.946217 
L 562.652477 126.027576 
L 562.564572 128.108935 
L 562.232202 130.190294 
L 561.703411 132.271653 
L 561.027775 134.353012 
L 560.253375 136.434371 
L 559.424337 138.51573 
L 558.578313 140.597089 
L 557.743792 142.678448 
L 556.937816 144.759807 
L 556.165139 146.841166 
L 555.419705 148.922525 
L 554.688657 151.003884 
L 553.958114 153.085243 
L 553.219147 155.166602 
L 552.472132 157.247961 
L 551.728078 159.32932 
L 551.006528 161.41068 
L 550.33072 163.492039 
L 549.721501 165.573398 
L 549.19176 167.654757 
L 548.742817 169.736116 
L 548.363498 171.817475 
L 548.031913 173.898834 
L 547.719332 175.980193 
L 547.395254 178.061552 
L 547.032643 180.142911 
L 546.61238 182.22427 
L 546.126125 184.305629 
L 545.577079 186.386988 
L 544.978566 188.468347 
L 544.350822 190.549706 
L 543.716799 192.631065 
L 543.098021 194.712424 
L 542.511402 196.793783 
L 541.96759 198.875142 
L 541.47091 200.956501 
L 541.020534 203.03786 
L 540.612274 205.119219 
L 540.240434 207.200579 
L 539.89931 209.281938 
L 539.584171 211.363297 
L 539.291773 213.444656 
L 539.020495 215.526015 
L 538.77021 217.607374 
L 538.541967 219.688733 
L 538.337516 221.770092 
L 538.158722 223.851451 
L 538.006954 225.93281 
L 537.882562 228.014169 
L 537.784543 230.095528 
L 537.710477 232.176887 
L 537.656751 234.258246 
L 537.618994 236.339605 
L 537.592643 238.420964 
L 537.573496 240.502323 
L 537.55815 242.583682 
L 537.54426 244.665041 
L 537.530568 246.7464 
L 537.516727 248.827759 
L 537.502961 250.909118 
L 537.489638 252.990478 
L 537.476884 255.071837 
L 537.464339 257.153196 
L 537.451135 259.234555 
L 537.436106 261.315914 
L 537.418157 263.397273 
z
" clip-path="url(#p4ab3cdc926)" style="fill: #1f77b4; fill-opacity: 0.3"/>
   </g>
   <g id="matplotlib.axis_5">
    <g id="ytick_26">
     <g id="line2d_26">
      <g>
       <use xlink:href="#maccd20671c" x="509.1545" y="243.398885" style="stroke: #000000; stroke-width: 0.8"/>
      </g>
     </g>
     <g id="text_34">
      <!-- 0.12 -->
      <g transform="translate(479.888875 247.198104)scale(0.1 -0.1)">
       <use xlink:href="#DejaVuSans-30"/>
       <use xlink:href="#DejaVuSans-2e" x="63.623047"/>
       <use xlink:href="#DejaVuSans-31" x="95.410156"/>
       <use xlink:href="#DejaVuSans-32" x="159.033203"/>
      </g>
     </g>
    </g>
    <g id="ytick_27">
     <g id="line2d_27">
      <g>
       <use xlink:href="#maccd20671c" x="509.1545" y="204.508384" style="stroke: #000000; stroke-width: 0.8"/>
      </g>
     </g>
     <g id="text_35">
      <!-- 0.14 -->
      <g transform="translate(479.888875 208.307603)scale(0.1 -0.1)">
       <use xlink:href="#DejaVuSans-30"/>
       <use xlink:href="#DejaVuSans-2e" x="63.623047"/>
       <use xlink:href="#DejaVuSans-31" x="95.410156"/>
       <use xlink:href="#DejaVuSans-34" x="159.033203"/>
      </g>
     </g>
    </g>
    <g id="ytick_28">
     <g id="line2d_28">
      <g>
       <use xlink:href="#maccd20671c" x="509.1545" y="165.617883" style="stroke: #000000; stroke-width: 0.8"/>
      </g>
     </g>
     <g id="text_36">
      <!-- 0.16 -->
      <g transform="translate(479.888875 169.417102)scale(0.1 -0.1)">
       <use xlink:href="#DejaVuSans-30"/>
       <use xlink:href="#DejaVuSans-2e" x="63.623047"/>
       <use xlink:href="#DejaVuSans-31" x="95.410156"/>
       <use xlink:href="#DejaVuSans-36" x="159.033203"/>
      </g>
     </g>
    </g>
    <g id="ytick_29">
     <g id="line2d_29">
      <g>
       <use xlink:href="#maccd20671c" x="509.1545" y="126.727382" style="stroke: #000000; stroke-width: 0.8"/>
      </g>
     </g>
     <g id="text_37">
      <!-- 0.18 -->
      <g transform="translate(479.888875 130.526601)scale(0.1 -0.1)">
       <use xlink:href="#DejaVuSans-30"/>
       <use xlink:href="#DejaVuSans-2e" x="63.623047"/>
       <use xlink:href="#DejaVuSans-31" x="95.410156"/>
       <use xlink:href="#DejaVuSans-38" x="159.033203"/>
      </g>
     </g>
    </g>
    <g id="ytick_30">
     <g id="line2d_30">
      <g>
       <use xlink:href="#maccd20671c" x="509.1545" y="87.836881" style="stroke: #000000; stroke-width: 0.8"/>
      </g>
     </g>
     <g id="text_38">
      <!-- 0.20 -->
      <g transform="translate(479.888875 91.6361)scale(0.1 -0.1)">
       <use xlink:href="#DejaVuSans-30"/>
       <use xlink:href="#DejaVuSans-2e" x="63.623047"/>
       <use xlink:href="#DejaVuSans-32" x="95.410156"/>
       <use xlink:href="#DejaVuSans-30" x="159.033203"/>
      </g>
     </g>
    </g>
    <g id="ytick_31">
     <g id="line2d_31">
      <g>
       <use xlink:href="#maccd20671c" x="509.1545" y="48.94638" style="stroke: #000000; stroke-width: 0.8"/>
      </g>
     </g>
     <g id="text_39">
      <!-- 0.22 -->
      <g transform="translate(479.888875 52.745599)scale(0.1 -0.1)">
       <use xlink:href="#DejaVuSans-30"/>
       <use xlink:href="#DejaVuSans-2e" x="63.623047"/>
       <use xlink:href="#DejaVuSans-32" x="95.410156"/>
       <use xlink:href="#DejaVuSans-32" x="159.033203"/>
      </g>
     </g>
    </g>
    <g id="text_40">
     <!-- RMSD stepwise [$\AA$] -->
     <g transform="translate(473.788875 207.67)rotate(-90)scale(0.1 -0.1)">
      <defs>
       <path id="DejaVuSans-73" d="M 2834 3397 
L 2834 2853 
Q 2591 2978 2328 3040 
Q 2066 3103 1784 3103 
Q 1356 3103 1142 2972 
Q 928 2841 928 2578 
Q 928 2378 1081 2264 
Q 1234 2150 1697 2047 
L 1894 2003 
Q 2506 1872 2764 1633 
Q 3022 1394 3022 966 
Q 3022 478 2636 193 
Q 2250 -91 1575 -91 
Q 1294 -91 989 -36 
Q 684 19 347 128 
L 347 722 
Q 666 556 975 473 
Q 1284 391 1588 391 
Q 1994 391 2212 530 
Q 2431 669 2431 922 
Q 2431 1156 2273 1281 
Q 2116 1406 1581 1522 
L 1381 1569 
Q 847 1681 609 1914 
Q 372 2147 372 2553 
Q 372 3047 722 3315 
Q 1072 3584 1716 3584 
Q 2034 3584 2315 3537 
Q 2597 3491 2834 3397 
z
" transform="scale(0.015625)"/>
       <path id="DejaVuSans-74" d="M 1172 4494 
L 1172 3500 
L 2356 3500 
L 2356 3053 
L 1172 3053 
L 1172 1153 
Q 1172 725 1289 603 
Q 1406 481 1766 481 
L 2356 481 
L 2356 0 
L 1766 0 
Q 1100 0 847 248 
Q 594 497 594 1153 
L 594 3053 
L 172 3053 
L 172 3500 
L 594 3500 
L 594 4494 
L 1172 4494 
z
" transform="scale(0.015625)"/>
       <path id="DejaVuSans-70" d="M 1159 525 
L 1159 -1331 
L 581 -1331 
L 581 3500 
L 1159 3500 
L 1159 2969 
Q 1341 3281 1617 3432 
Q 1894 3584 2278 3584 
Q 2916 3584 3314 3078 
Q 3713 2572 3713 1747 
Q 3713 922 3314 415 
Q 2916 -91 2278 -91 
Q 1894 -91 1617 61 
Q 1341 213 1159 525 
z
M 3116 1747 
Q 3116 2381 2855 2742 
Q 2594 3103 2138 3103 
Q 1681 3103 1420 2742 
Q 1159 2381 1159 1747 
Q 1159 1113 1420 752 
Q 1681 391 2138 391 
Q 2594 391 2855 752 
Q 3116 1113 3116 1747 
z
" transform="scale(0.015625)"/>
       <path id="DejaVuSans-77" d="M 269 3500 
L 844 3500 
L 1563 769 
L 2278 3500 
L 2956 3500 
L 3675 769 
L 4391 3500 
L 4966 3500 
L 4050 0 
L 3372 0 
L 2619 2869 
L 1863 0 
L 1184 0 
L 269 3500 
z
" transform="scale(0.015625)"/>
      </defs>
      <use xlink:href="#DejaVuSans-52" transform="translate(0 0.171875)"/>
      <use xlink:href="#DejaVuSans-4d" transform="translate(69.482422 0.171875)"/>
      <use xlink:href="#DejaVuSans-53" transform="translate(155.761719 0.171875)"/>
      <use xlink:href="#DejaVuSans-44" transform="translate(219.238281 0.171875)"/>
      <use xlink:href="#DejaVuSans-20" transform="translate(296.240234 0.171875)"/>
      <use xlink:href="#DejaVuSans-73" transform="translate(328.027344 0.171875)"/>
      <use xlink:href="#DejaVuSans-74" transform="translate(380.126953 0.171875)"/>
      <use xlink:href="#DejaVuSans-65" transform="translate(419.335938 0.171875)"/>
      <use xlink:href="#DejaVuSans-70" transform="translate(480.859375 0.171875)"/>
      <use xlink:href="#DejaVuSans-77" transform="translate(544.335938 0.171875)"/>
      <use xlink:href="#DejaVuSans-69" transform="translate(626.123047 0.171875)"/>
      <use xlink:href="#DejaVuSans-73" transform="translate(653.90625 0.171875)"/>
      <use xlink:href="#DejaVuSans-65" transform="translate(706.005859 0.171875)"/>
      <use xlink:href="#DejaVuSans-20" transform="translate(767.529297 0.171875)"/>
      <use xlink:href="#DejaVuSans-5b" transform="translate(799.316406 0.171875)"/>
      <use xlink:href="#DejaVuSans-Oblique-c5" transform="translate(838.330078 0.171875)"/>
      <use xlink:href="#DejaVuSans-5d" transform="translate(906.738281 0.171875)"/>
     </g>
    </g>
   </g>
   <g id="LineCollection_17">
    <path d="M 524.439636 139.381148 
L 549.914864 139.381148 
" clip-path="url(#p4ab3cdc926)" style="fill: none; stroke: #1f77b4; stroke-width: 1.5"/>
   </g>
   <g id="LineCollection_18">
    <path d="M 524.439636 57.342727 
L 549.914864 57.342727 
" clip-path="url(#p4ab3cdc926)" style="fill: none; stroke: #1f77b4; stroke-width: 1.5"/>
   </g>
   <g id="LineCollection_19">
    <path d="M 524.439636 263.397273 
L 549.914864 263.397273 
" clip-path="url(#p4ab3cdc926)" style="fill: none; stroke: #1f77b4; stroke-width: 1.5"/>
   </g>
   <g id="LineCollection_20">
    <path d="M 537.17725 263.397273 
L 537.17725 57.342727 
" clip-path="url(#p4ab3cdc926)" style="fill: none; stroke: #1f77b4; stroke-width: 1.5"/>
   </g>
   <g id="patch_23">
    <path d="M 509.1545 273.7 
L 509.1545 47.04 
" style="fill: none; stroke: #000000; stroke-width: 0.8; stroke-linejoin: miter; stroke-linecap: square"/>
   </g>
   <g id="patch_24">
    <path d="M 565.2 273.7 
L 565.2 47.04 
" style="fill: none; stroke: #000000; stroke-width: 0.8; stroke-linejoin: miter; stroke-linecap: square"/>
   </g>
   <g id="patch_25">
    <path d="M 509.1545 273.7 
L 565.2 273.7 
" style="fill: none; stroke: #000000; stroke-width: 0.8; stroke-linejoin: miter; stroke-linecap: square"/>
   </g>
   <g id="patch_26">
    <path d="M 509.1545 47.04 
L 565.2 47.04 
" style="fill: none; stroke: #000000; stroke-width: 0.8; stroke-linejoin: miter; stroke-linecap: square"/>
   </g>
   <g id="text_41">
    <!-- RMSD stepwise -->
    <g transform="translate(491.125375 41.04)scale(0.12 -0.12)">
     <use xlink:href="#DejaVuSans-52"/>
     <use xlink:href="#DejaVuSans-4d" x="69.482422"/>
     <use xlink:href="#DejaVuSans-53" x="155.761719"/>
     <use xlink:href="#DejaVuSans-44" x="219.238281"/>
     <use xlink:href="#DejaVuSans-20" x="296.240234"/>
     <use xlink:href="#DejaVuSans-73" x="328.027344"/>
     <use xlink:href="#DejaVuSans-74" x="380.126953"/>
     <use xlink:href="#DejaVuSans-65" x="419.335938"/>
     <use xlink:href="#DejaVuSans-70" x="480.859375"/>
     <use xlink:href="#DejaVuSans-77" x="544.335938"/>
     <use xlink:href="#DejaVuSans-69" x="626.123047"/>
     <use xlink:href="#DejaVuSans-73" x="653.90625"/>
     <use xlink:href="#DejaVuSans-65" x="706.005859"/>
    </g>
   </g>
  </g>
  <g id="text_42">
   <!-- Compound 28. Omega -->
   <g transform="translate(220.299375 14.878125)scale(0.12 -0.12)">
    <defs>
     <path id="DejaVuSans-43" d="M 4122 4306 
L 4122 3641 
Q 3803 3938 3442 4084 
Q 3081 4231 2675 4231 
Q 1875 4231 1450 3742 
Q 1025 3253 1025 2328 
Q 1025 1406 1450 917 
Q 1875 428 2675 428 
Q 3081 428 3442 575 
Q 3803 722 4122 1019 
L 4122 359 
Q 3791 134 3420 21 
Q 3050 -91 2638 -91 
Q 1578 -91 968 557 
Q 359 1206 359 2328 
Q 359 3453 968 4101 
Q 1578 4750 2638 4750 
Q 3056 4750 3426 4639 
Q 3797 4528 4122 4306 
z
" transform="scale(0.015625)"/>
     <path id="DejaVuSans-6f" d="M 1959 3097 
Q 1497 3097 1228 2736 
Q 959 2375 959 1747 
Q 959 1119 1226 758 
Q 1494 397 1959 397 
Q 2419 397 2687 759 
Q 2956 1122 2956 1747 
Q 2956 2369 2687 2733 
Q 2419 3097 1959 3097 
z
M 1959 3584 
Q 2709 3584 3137 3096 
Q 3566 2609 3566 1747 
Q 3566 888 3137 398 
Q 2709 -91 1959 -91 
Q 1206 -91 779 398 
Q 353 888 353 1747 
Q 353 2609 779 3096 
Q 1206 3584 1959 3584 
z
" transform="scale(0.015625)"/>
     <path id="DejaVuSans-6d" d="M 3328 2828 
Q 3544 3216 3844 3400 
Q 4144 3584 4550 3584 
Q 5097 3584 5394 3201 
Q 5691 2819 5691 2113 
L 5691 0 
L 5113 0 
L 5113 2094 
Q 5113 2597 4934 2840 
Q 4756 3084 4391 3084 
Q 3944 3084 3684 2787 
Q 3425 2491 3425 1978 
L 3425 0 
L 2847 0 
L 2847 2094 
Q 2847 2600 2669 2842 
Q 2491 3084 2119 3084 
Q 1678 3084 1418 2786 
Q 1159 2488 1159 1978 
L 1159 0 
L 581 0 
L 581 3500 
L 1159 3500 
L 1159 2956 
Q 1356 3278 1631 3431 
Q 1906 3584 2284 3584 
Q 2666 3584 2933 3390 
Q 3200 3197 3328 2828 
z
" transform="scale(0.015625)"/>
     <path id="DejaVuSans-6e" d="M 3513 2113 
L 3513 0 
L 2938 0 
L 2938 2094 
Q 2938 2591 2744 2837 
Q 2550 3084 2163 3084 
Q 1697 3084 1428 2787 
Q 1159 2491 1159 1978 
L 1159 0 
L 581 0 
L 581 3500 
L 1159 3500 
L 1159 2956 
Q 1366 3272 1645 3428 
Q 1925 3584 2291 3584 
Q 2894 3584 3203 3211 
Q 3513 2838 3513 2113 
z
" transform="scale(0.015625)"/>
     <path id="DejaVuSans-67" d="M 2906 1791 
Q 2906 2416 2648 2759 
Q 2391 3103 1925 3103 
Q 1463 3103 1205 2759 
Q 947 2416 947 1791 
Q 947 1169 1205 825 
Q 1463 481 1925 481 
Q 2391 481 2648 825 
Q 2906 1169 2906 1791 
z
M 3481 434 
Q 3481 -459 3084 -895 
Q 2688 -1331 1869 -1331 
Q 1566 -1331 1297 -1286 
Q 1028 -1241 775 -1147 
L 775 -588 
Q 1028 -725 1275 -790 
Q 1522 -856 1778 -856 
Q 2344 -856 2625 -561 
Q 2906 -266 2906 331 
L 2906 616 
Q 2728 306 2450 153 
Q 2172 0 1784 0 
Q 1141 0 747 490 
Q 353 981 353 1791 
Q 353 2603 747 3093 
Q 1141 3584 1784 3584 
Q 2172 3584 2450 3431 
Q 2728 3278 2906 2969 
L 2906 3500 
L 3481 3500 
L 3481 434 
z
" transform="scale(0.015625)"/>
     <path id="DejaVuSans-61" d="M 2194 1759 
Q 1497 1759 1228 1600 
Q 959 1441 959 1056 
Q 959 750 1161 570 
Q 1363 391 1709 391 
Q 2188 391 2477 730 
Q 2766 1069 2766 1631 
L 2766 1759 
L 2194 1759 
z
M 3341 1997 
L 3341 0 
L 2766 0 
L 2766 531 
Q 2569 213 2275 61 
Q 1981 -91 1556 -91 
Q 1019 -91 701 211 
Q 384 513 384 1019 
Q 384 1609 779 1909 
Q 1175 2209 1959 2209 
L 2766 2209 
L 2766 2266 
Q 2766 2663 2505 2880 
Q 2244 3097 1772 3097 
Q 1472 3097 1187 3025 
Q 903 2953 641 2809 
L 641 3341 
Q 956 3463 1253 3523 
Q 1550 3584 1831 3584 
Q 2591 3584 2966 3190 
Q 3341 2797 3341 1997 
z
" transform="scale(0.015625)"/>
    </defs>
    <use xlink:href="#DejaVuSans-43"/>
    <use xlink:href="#DejaVuSans-6f" x="69.824219"/>
    <use xlink:href="#DejaVuSans-6d" x="131.005859"/>
    <use xlink:href="#DejaVuSans-70" x="228.417969"/>
    <use xlink:href="#DejaVuSans-6f" x="291.894531"/>
    <use xlink:href="#DejaVuSans-75" x="353.076172"/>
    <use xlink:href="#DejaVuSans-6e" x="416.455078"/>
    <use xlink:href="#DejaVuSans-64" x="479.833984"/>
    <use xlink:href="#DejaVuSans-20" x="543.310547"/>
    <use xlink:href="#DejaVuSans-32" x="575.097656"/>
    <use xlink:href="#DejaVuSans-38" x="638.720703"/>
    <use xlink:href="#DejaVuSans-2e" x="702.34375"/>
    <use xlink:href="#DejaVuSans-20" x="734.130859"/>
    <use xlink:href="#DejaVuSans-4f" x="765.917969"/>
    <use xlink:href="#DejaVuSans-6d" x="844.628906"/>
    <use xlink:href="#DejaVuSans-65" x="942.041016"/>
    <use xlink:href="#DejaVuSans-67" x="1003.564453"/>
    <use xlink:href="#DejaVuSans-61" x="1067.041016"/>
   </g>
  </g>
 </g>
 <defs>
  <clipPath id="pf7cff89b2e">
   <rect x="50.8925" y="47.04" width="56.0455" height="226.66"/>
  </clipPath>
  <clipPath id="p11cc2821f0">
   <rect x="165.458" y="47.04" width="56.0455" height="226.66"/>
  </clipPath>
  <clipPath id="p164018e4e7">
   <rect x="280.0235" y="47.04" width="56.0455" height="226.66"/>
  </clipPath>
  <clipPath id="p447ba32e1c">
   <rect x="394.589" y="47.04" width="56.0455" height="226.66"/>
  </clipPath>
  <clipPath id="p4ab3cdc926">
   <rect x="509.1545" y="47.04" width="56.0455" height="226.66"/>
  </clipPath>
 </defs>
</svg>
