<?xml version="1.0" encoding="utf-8" standalone="no"?>
<!DOCTYPE svg PUBLIC "-//W3C//DTD SVG 1.1//EN"
  "http://www.w3.org/Graphics/SVG/1.1/DTD/svg11.dtd">
<svg xmlns:xlink="http://www.w3.org/1999/xlink" width="576pt" height="288pt" viewBox="0 0 576 288" xmlns="http://www.w3.org/2000/svg" version="1.1">
 <metadata>
  <rdf:RDF xmlns:dc="http://purl.org/dc/elements/1.1/" xmlns:cc="http://creativecommons.org/ns#" xmlns:rdf="http://www.w3.org/1999/02/22-rdf-syntax-ns#">
   <cc:Work>
    <dc:type rdf:resource="http://purl.org/dc/dcmitype/StillImage"/>
    <dc:date>2023-05-31T12:24:06.098362</dc:date>
    <dc:format>image/svg+xml</dc:format>
    <dc:creator>
     <cc:Agent>
      <dc:title>Matplotlib v3.5.3, https://matplotlib.org/</dc:title>
     </cc:Agent>
    </dc:creator>
   </cc:Work>
  </rdf:RDF>
 </metadata>
 <defs>
  <style type="text/css">*{stroke-linejoin: round; stroke-linecap: butt}</style>
 </defs>
 <g id="figure_1">
  <g id="patch_1">
   <path d="M 0 288 
L 576 288 
L 576 0 
L 0 0 
z
" style="fill: #ffffff"/>
  </g>
  <g id="axes_1">
   <g id="patch_2">
    <path d="M 57.2825 273.7 
L 110.394 273.7 
L 110.394 47.04 
L 57.2825 47.04 
z
" style="fill: #ffffff"/>
   </g>
   <g id="PolyCollection_1">
    <path d="M 85.235606 263.397273 
L 82.440894 263.397273 
L 82.195238 261.315914 
L 81.921302 259.234555 
L 81.6152 257.153196 
L 81.272215 255.071837 
L 80.887142 252.990478 
L 80.454823 250.909118 
L 79.970815 248.827759 
L 79.432086 246.7464 
L 78.837628 244.665041 
L 78.188847 242.583682 
L 77.489632 240.502323 
L 76.746057 238.420964 
L 75.965744 236.339605 
L 75.157003 234.258246 
L 74.327926 232.176887 
L 73.485628 230.095528 
L 72.635803 228.014169 
L 71.782687 225.93281 
L 70.9294 223.851451 
L 70.078541 221.770092 
L 69.232849 219.688733 
L 68.39572 217.607374 
L 67.571437 215.526015 
L 66.765061 213.444656 
L 65.982036 211.363297 
L 65.227671 209.281938 
L 64.506668 207.200579 
L 63.822859 205.119219 
L 63.179249 203.03786 
L 62.578344 200.956501 
L 62.022659 198.875142 
L 61.515237 196.793783 
L 61.060002 194.712424 
L 60.661794 192.631065 
L 60.326034 190.549706 
L 60.05807 188.468347 
L 59.862358 186.386988 
L 59.741682 184.305629 
L 59.696659 182.22427 
L 59.725694 180.142911 
L 59.82545 178.061552 
L 59.991745 175.980193 
L 60.220663 173.898834 
L 60.509544 171.817475 
L 60.857546 169.736116 
L 61.265515 167.654757 
L 61.735119 165.573398 
L 62.267365 163.492039 
L 62.860882 161.41068 
L 63.510411 159.32932 
L 64.205995 157.247961 
L 64.933209 155.166602 
L 65.674528 153.085243 
L 66.411636 151.003884 
L 67.128252 148.922525 
L 67.812853 146.841166 
L 68.460708 144.759807 
L 69.074767 142.678448 
L 69.665177 140.597089 
L 70.247529 138.51573 
L 70.84017 136.434371 
L 71.461076 134.353012 
L 72.124855 132.271653 
L 72.840345 130.190294 
L 73.609131 128.108935 
L 74.425142 126.027576 
L 75.275269 123.946217 
L 76.140849 121.864858 
L 76.999753 119.783499 
L 77.828778 117.70214 
L 78.606068 115.620781 
L 79.313267 113.539421 
L 79.937205 111.458062 
L 80.470933 109.376703 
L 80.914016 107.295344 
L 81.272076 105.213985 
L 81.555674 103.132626 
L 81.7787 101.051267 
L 81.956509 98.969908 
L 82.104068 96.888549 
L 82.234356 94.80719 
L 82.357211 92.725831 
L 82.478732 90.644472 
L 82.601249 88.563113 
L 82.723781 86.481754 
L 82.842875 84.400395 
L 82.953636 82.319036 
L 83.050815 80.237677 
L 83.1298 78.156318 
L 83.187409 76.074959 
L 83.222429 73.9936 
L 83.235851 71.912241 
L 83.230807 69.830882 
L 83.21223 67.749522 
L 83.186283 65.668163 
L 83.159638 63.586804 
L 83.138684 61.505445 
L 83.12879 59.424086 
L 83.133717 57.342727 
L 84.542783 57.342727 
L 84.542783 57.342727 
L 84.54771 59.424086 
L 84.537816 61.505445 
L 84.516862 63.586804 
L 84.490217 65.668163 
L 84.46427 67.749522 
L 84.445693 69.830882 
L 84.440649 71.912241 
L 84.454071 73.9936 
L 84.489091 76.074959 
L 84.5467 78.156318 
L 84.625685 80.237677 
L 84.722864 82.319036 
L 84.833625 84.400395 
L 84.952719 86.481754 
L 85.075251 88.563113 
L 85.197768 90.644472 
L 85.319289 92.725831 
L 85.442144 94.80719 
L 85.572432 96.888549 
L 85.719991 98.969908 
L 85.8978 101.051267 
L 86.120826 103.132626 
L 86.404424 105.213985 
L 86.762484 107.295344 
L 87.205567 109.376703 
L 87.739295 111.458062 
L 88.363233 113.539421 
L 89.070432 115.620781 
L 89.847722 117.70214 
L 90.676747 119.783499 
L 91.535651 121.864858 
L 92.401231 123.946217 
L 93.251358 126.027576 
L 94.067369 128.108935 
L 94.836155 130.190294 
L 95.551645 132.271653 
L 96.215424 134.353012 
L 96.83633 136.434371 
L 97.428971 138.51573 
L 98.011323 140.597089 
L 98.601733 142.678448 
L 99.215792 144.759807 
L 99.863647 146.841166 
L 100.548248 148.922525 
L 101.264864 151.003884 
L 102.001972 153.085243 
L 102.743291 155.166602 
L 103.470505 157.247961 
L 104.166089 159.32932 
L 104.815618 161.41068 
L 105.409135 163.492039 
L 105.941381 165.573398 
L 106.410985 167.654757 
L 106.818954 169.736116 
L 107.166956 171.817475 
L 107.455837 173.898834 
L 107.684755 175.980193 
L 107.85105 178.061552 
L 107.950806 180.142911 
L 107.979841 182.22427 
L 107.934818 184.305629 
L 107.814142 186.386988 
L 107.61843 188.468347 
L 107.350466 190.549706 
L 107.014706 192.631065 
L 106.616498 194.712424 
L 106.161263 196.793783 
L 105.653841 198.875142 
L 105.098156 200.956501 
L 104.497251 203.03786 
L 103.853641 205.119219 
L 103.169832 207.200579 
L 102.448829 209.281938 
L 101.694464 211.363297 
L 100.911439 213.444656 
L 100.105063 215.526015 
L 99.28078 217.607374 
L 98.443651 219.688733 
L 97.597959 221.770092 
L 96.7471 223.851451 
L 95.893813 225.93281 
L 95.040697 228.014169 
L 94.190872 230.095528 
L 93.348574 232.176887 
L 92.519497 234.258246 
L 91.710756 236.339605 
L 90.930443 238.420964 
L 90.186868 240.502323 
L 89.487653 242.583682 
L 88.838872 244.665041 
L 88.244414 246.7464 
L 87.705685 248.827759 
L 87.221677 250.909118 
L 86.789358 252.990478 
L 86.404285 255.071837 
L 86.0613 257.153196 
L 85.755198 259.234555 
L 85.481262 261.315914 
L 85.235606 263.397273 
z
" clip-path="url(#p1985aceb3d)" style="fill: #1f77b4; fill-opacity: 0.3"/>
   </g>
   <g id="matplotlib.axis_1">
    <g id="ytick_1">
     <g id="line2d_1">
      <defs>
       <path id="mc421ea5bf5" d="M 0 0 
L -3.5 0 
" style="stroke: #000000; stroke-width: 0.8"/>
      </defs>
      <g>
       <use xlink:href="#mc421ea5bf5" x="57.2825" y="251.185104" style="stroke: #000000; stroke-width: 0.8"/>
      </g>
     </g>
     <g id="text_1">
      <!-- 1.25 -->
      <g transform="translate(28.016875 254.984322)scale(0.1 -0.1)">
       <defs>
        <path id="DejaVuSans-31" d="M 794 531 
L 1825 531 
L 1825 4091 
L 703 3866 
L 703 4441 
L 1819 4666 
L 2450 4666 
L 2450 531 
L 3481 531 
L 3481 0 
L 794 0 
L 794 531 
z
" transform="scale(0.015625)"/>
        <path id="DejaVuSans-2e" d="M 684 794 
L 1344 794 
L 1344 0 
L 684 0 
L 684 794 
z
" transform="scale(0.015625)"/>
        <path id="DejaVuSans-32" d="M 1228 531 
L 3431 531 
L 3431 0 
L 469 0 
L 469 531 
Q 828 903 1448 1529 
Q 2069 2156 2228 2338 
Q 2531 2678 2651 2914 
Q 2772 3150 2772 3378 
Q 2772 3750 2511 3984 
Q 2250 4219 1831 4219 
Q 1534 4219 1204 4116 
Q 875 4013 500 3803 
L 500 4441 
Q 881 4594 1212 4672 
Q 1544 4750 1819 4750 
Q 2544 4750 2975 4387 
Q 3406 4025 3406 3419 
Q 3406 3131 3298 2873 
Q 3191 2616 2906 2266 
Q 2828 2175 2409 1742 
Q 1991 1309 1228 531 
z
" transform="scale(0.015625)"/>
        <path id="DejaVuSans-35" d="M 691 4666 
L 3169 4666 
L 3169 4134 
L 1269 4134 
L 1269 2991 
Q 1406 3038 1543 3061 
Q 1681 3084 1819 3084 
Q 2600 3084 3056 2656 
Q 3513 2228 3513 1497 
Q 3513 744 3044 326 
Q 2575 -91 1722 -91 
Q 1428 -91 1123 -41 
Q 819 9 494 109 
L 494 744 
Q 775 591 1075 516 
Q 1375 441 1709 441 
Q 2250 441 2565 725 
Q 2881 1009 2881 1497 
Q 2881 1984 2565 2268 
Q 2250 2553 1709 2553 
Q 1456 2553 1204 2497 
Q 953 2441 691 2322 
L 691 4666 
z
" transform="scale(0.015625)"/>
       </defs>
       <use xlink:href="#DejaVuSans-31"/>
       <use xlink:href="#DejaVuSans-2e" x="63.623047"/>
       <use xlink:href="#DejaVuSans-32" x="95.410156"/>
       <use xlink:href="#DejaVuSans-35" x="159.033203"/>
      </g>
     </g>
    </g>
    <g id="ytick_2">
     <g id="line2d_2">
      <g>
       <use xlink:href="#mc421ea5bf5" x="57.2825" y="223.252676" style="stroke: #000000; stroke-width: 0.8"/>
      </g>
     </g>
     <g id="text_2">
      <!-- 1.50 -->
      <g transform="translate(28.016875 227.051895)scale(0.1 -0.1)">
       <defs>
        <path id="DejaVuSans-30" d="M 2034 4250 
Q 1547 4250 1301 3770 
Q 1056 3291 1056 2328 
Q 1056 1369 1301 889 
Q 1547 409 2034 409 
Q 2525 409 2770 889 
Q 3016 1369 3016 2328 
Q 3016 3291 2770 3770 
Q 2525 4250 2034 4250 
z
M 2034 4750 
Q 2819 4750 3233 4129 
Q 3647 3509 3647 2328 
Q 3647 1150 3233 529 
Q 2819 -91 2034 -91 
Q 1250 -91 836 529 
Q 422 1150 422 2328 
Q 422 3509 836 4129 
Q 1250 4750 2034 4750 
z
" transform="scale(0.015625)"/>
       </defs>
       <use xlink:href="#DejaVuSans-31"/>
       <use xlink:href="#DejaVuSans-2e" x="63.623047"/>
       <use xlink:href="#DejaVuSans-35" x="95.410156"/>
       <use xlink:href="#DejaVuSans-30" x="159.033203"/>
      </g>
     </g>
    </g>
    <g id="ytick_3">
     <g id="line2d_3">
      <g>
       <use xlink:href="#mc421ea5bf5" x="57.2825" y="195.320249" style="stroke: #000000; stroke-width: 0.8"/>
      </g>
     </g>
     <g id="text_3">
      <!-- 1.75 -->
      <g transform="translate(28.016875 199.119468)scale(0.1 -0.1)">
       <defs>
        <path id="DejaVuSans-37" d="M 525 4666 
L 3525 4666 
L 3525 4397 
L 1831 0 
L 1172 0 
L 2766 4134 
L 525 4134 
L 525 4666 
z
" transform="scale(0.015625)"/>
       </defs>
       <use xlink:href="#DejaVuSans-31"/>
       <use xlink:href="#DejaVuSans-2e" x="63.623047"/>
       <use xlink:href="#DejaVuSans-37" x="95.410156"/>
       <use xlink:href="#DejaVuSans-35" x="159.033203"/>
      </g>
     </g>
    </g>
    <g id="ytick_4">
     <g id="line2d_4">
      <g>
       <use xlink:href="#mc421ea5bf5" x="57.2825" y="167.387822" style="stroke: #000000; stroke-width: 0.8"/>
      </g>
     </g>
     <g id="text_4">
      <!-- 2.00 -->
      <g transform="translate(28.016875 171.187041)scale(0.1 -0.1)">
       <use xlink:href="#DejaVuSans-32"/>
       <use xlink:href="#DejaVuSans-2e" x="63.623047"/>
       <use xlink:href="#DejaVuSans-30" x="95.410156"/>
       <use xlink:href="#DejaVuSans-30" x="159.033203"/>
      </g>
     </g>
    </g>
    <g id="ytick_5">
     <g id="line2d_5">
      <g>
       <use xlink:href="#mc421ea5bf5" x="57.2825" y="139.455395" style="stroke: #000000; stroke-width: 0.8"/>
      </g>
     </g>
     <g id="text_5">
      <!-- 2.25 -->
      <g transform="translate(28.016875 143.254614)scale(0.1 -0.1)">
       <use xlink:href="#DejaVuSans-32"/>
       <use xlink:href="#DejaVuSans-2e" x="63.623047"/>
       <use xlink:href="#DejaVuSans-32" x="95.410156"/>
       <use xlink:href="#DejaVuSans-35" x="159.033203"/>
      </g>
     </g>
    </g>
    <g id="ytick_6">
     <g id="line2d_6">
      <g>
       <use xlink:href="#mc421ea5bf5" x="57.2825" y="111.522968" style="stroke: #000000; stroke-width: 0.8"/>
      </g>
     </g>
     <g id="text_6">
      <!-- 2.50 -->
      <g transform="translate(28.016875 115.322186)scale(0.1 -0.1)">
       <use xlink:href="#DejaVuSans-32"/>
       <use xlink:href="#DejaVuSans-2e" x="63.623047"/>
       <use xlink:href="#DejaVuSans-35" x="95.410156"/>
       <use xlink:href="#DejaVuSans-30" x="159.033203"/>
      </g>
     </g>
    </g>
    <g id="ytick_7">
     <g id="line2d_7">
      <g>
       <use xlink:href="#mc421ea5bf5" x="57.2825" y="83.59054" style="stroke: #000000; stroke-width: 0.8"/>
      </g>
     </g>
     <g id="text_7">
      <!-- 2.75 -->
      <g transform="translate(28.016875 87.389759)scale(0.1 -0.1)">
       <use xlink:href="#DejaVuSans-32"/>
       <use xlink:href="#DejaVuSans-2e" x="63.623047"/>
       <use xlink:href="#DejaVuSans-37" x="95.410156"/>
       <use xlink:href="#DejaVuSans-35" x="159.033203"/>
      </g>
     </g>
    </g>
    <g id="ytick_8">
     <g id="line2d_8">
      <g>
       <use xlink:href="#mc421ea5bf5" x="57.2825" y="55.658113" style="stroke: #000000; stroke-width: 0.8"/>
      </g>
     </g>
     <g id="text_8">
      <!-- 3.00 -->
      <g transform="translate(28.016875 59.457332)scale(0.1 -0.1)">
       <defs>
        <path id="DejaVuSans-33" d="M 2597 2516 
Q 3050 2419 3304 2112 
Q 3559 1806 3559 1356 
Q 3559 666 3084 287 
Q 2609 -91 1734 -91 
Q 1441 -91 1130 -33 
Q 819 25 488 141 
L 488 750 
Q 750 597 1062 519 
Q 1375 441 1716 441 
Q 2309 441 2620 675 
Q 2931 909 2931 1356 
Q 2931 1769 2642 2001 
Q 2353 2234 1838 2234 
L 1294 2234 
L 1294 2753 
L 1863 2753 
Q 2328 2753 2575 2939 
Q 2822 3125 2822 3475 
Q 2822 3834 2567 4026 
Q 2313 4219 1838 4219 
Q 1578 4219 1281 4162 
Q 984 4106 628 3988 
L 628 4550 
Q 988 4650 1302 4700 
Q 1616 4750 1894 4750 
Q 2613 4750 3031 4423 
Q 3450 4097 3450 3541 
Q 3450 3153 3228 2886 
Q 3006 2619 2597 2516 
z
" transform="scale(0.015625)"/>
       </defs>
       <use xlink:href="#DejaVuSans-33"/>
       <use xlink:href="#DejaVuSans-2e" x="63.623047"/>
       <use xlink:href="#DejaVuSans-30" x="95.410156"/>
       <use xlink:href="#DejaVuSans-30" x="159.033203"/>
      </g>
     </g>
    </g>
    <g id="text_9">
     <!-- RMSD [$\AA$] -->
     <g transform="translate(21.937187 184.12)rotate(-90)scale(0.1 -0.1)">
      <defs>
       <path id="DejaVuSans-52" d="M 2841 2188 
Q 3044 2119 3236 1894 
Q 3428 1669 3622 1275 
L 4263 0 
L 3584 0 
L 2988 1197 
Q 2756 1666 2539 1819 
Q 2322 1972 1947 1972 
L 1259 1972 
L 1259 0 
L 628 0 
L 628 4666 
L 2053 4666 
Q 2853 4666 3247 4331 
Q 3641 3997 3641 3322 
Q 3641 2881 3436 2590 
Q 3231 2300 2841 2188 
z
M 1259 4147 
L 1259 2491 
L 2053 2491 
Q 2509 2491 2742 2702 
Q 2975 2913 2975 3322 
Q 2975 3731 2742 3939 
Q 2509 4147 2053 4147 
L 1259 4147 
z
" transform="scale(0.015625)"/>
       <path id="DejaVuSans-4d" d="M 628 4666 
L 1569 4666 
L 2759 1491 
L 3956 4666 
L 4897 4666 
L 4897 0 
L 4281 0 
L 4281 4097 
L 3078 897 
L 2444 897 
L 1241 4097 
L 1241 0 
L 628 0 
L 628 4666 
z
" transform="scale(0.015625)"/>
       <path id="DejaVuSans-53" d="M 3425 4513 
L 3425 3897 
Q 3066 4069 2747 4153 
Q 2428 4238 2131 4238 
Q 1616 4238 1336 4038 
Q 1056 3838 1056 3469 
Q 1056 3159 1242 3001 
Q 1428 2844 1947 2747 
L 2328 2669 
Q 3034 2534 3370 2195 
Q 3706 1856 3706 1288 
Q 3706 609 3251 259 
Q 2797 -91 1919 -91 
Q 1588 -91 1214 -16 
Q 841 59 441 206 
L 441 856 
Q 825 641 1194 531 
Q 1563 422 1919 422 
Q 2459 422 2753 634 
Q 3047 847 3047 1241 
Q 3047 1584 2836 1778 
Q 2625 1972 2144 2069 
L 1759 2144 
Q 1053 2284 737 2584 
Q 422 2884 422 3419 
Q 422 4038 858 4394 
Q 1294 4750 2059 4750 
Q 2388 4750 2728 4690 
Q 3069 4631 3425 4513 
z
" transform="scale(0.015625)"/>
       <path id="DejaVuSans-44" d="M 1259 4147 
L 1259 519 
L 2022 519 
Q 2988 519 3436 956 
Q 3884 1394 3884 2338 
Q 3884 3275 3436 3711 
Q 2988 4147 2022 4147 
L 1259 4147 
z
M 628 4666 
L 1925 4666 
Q 3281 4666 3915 4102 
Q 4550 3538 4550 2338 
Q 4550 1131 3912 565 
Q 3275 0 1925 0 
L 628 0 
L 628 4666 
z
" transform="scale(0.015625)"/>
       <path id="DejaVuSans-20" transform="scale(0.015625)"/>
       <path id="DejaVuSans-5b" d="M 550 4863 
L 1875 4863 
L 1875 4416 
L 1125 4416 
L 1125 -397 
L 1875 -397 
L 1875 -844 
L 550 -844 
L 550 4863 
z
" transform="scale(0.015625)"/>
       <path id="DejaVuSans-Oblique-c5" d="M 3188 5081 
Q 3188 5278 3048 5417 
Q 2909 5556 2713 5556 
Q 2513 5556 2377 5420 
Q 2241 5284 2241 5081 
Q 2241 4884 2377 4746 
Q 2513 4609 2713 4609 
Q 2909 4609 3048 4746 
Q 3188 4884 3188 5081 
z
M 2203 4397 
Q 2034 4513 1945 4689 
Q 1856 4866 1856 5081 
Q 1856 5438 2106 5689 
Q 2356 5941 2713 5941 
Q 3069 5941 3320 5689 
Q 3572 5438 3572 5081 
Q 3572 4834 3458 4643 
Q 3344 4453 3128 4341 
L 3938 0 
L 3278 0 
L 3084 1197 
L 984 1197 
L 325 0 
L -341 0 
L 2203 4397 
z
M 2584 4044 
L 1275 1722 
L 2988 1722 
L 2584 4044 
z
" transform="scale(0.015625)"/>
       <path id="DejaVuSans-5d" d="M 1947 4863 
L 1947 -844 
L 622 -844 
L 622 -397 
L 1369 -397 
L 1369 4416 
L 622 4416 
L 622 4863 
L 1947 4863 
z
" transform="scale(0.015625)"/>
      </defs>
      <use xlink:href="#DejaVuSans-52" transform="translate(0 0.171875)"/>
      <use xlink:href="#DejaVuSans-4d" transform="translate(69.482422 0.171875)"/>
      <use xlink:href="#DejaVuSans-53" transform="translate(155.761719 0.171875)"/>
      <use xlink:href="#DejaVuSans-44" transform="translate(219.238281 0.171875)"/>
      <use xlink:href="#DejaVuSans-20" transform="translate(296.240234 0.171875)"/>
      <use xlink:href="#DejaVuSans-5b" transform="translate(328.027344 0.171875)"/>
      <use xlink:href="#DejaVuSans-Oblique-c5" transform="translate(367.041016 0.171875)"/>
      <use xlink:href="#DejaVuSans-5d" transform="translate(435.449219 0.171875)"/>
     </g>
    </g>
   </g>
   <g id="LineCollection_1">
    <path d="M 71.767455 178.50917 
L 95.909045 178.50917 
" clip-path="url(#p1985aceb3d)" style="fill: none; stroke: #1f77b4; stroke-width: 1.5"/>
   </g>
   <g id="LineCollection_2">
    <path d="M 71.767455 57.342727 
L 95.909045 57.342727 
" clip-path="url(#p1985aceb3d)" style="fill: none; stroke: #1f77b4; stroke-width: 1.5"/>
   </g>
   <g id="LineCollection_3">
    <path d="M 71.767455 263.397273 
L 95.909045 263.397273 
" clip-path="url(#p1985aceb3d)" style="fill: none; stroke: #1f77b4; stroke-width: 1.5"/>
   </g>
   <g id="LineCollection_4">
    <path d="M 83.83825 263.397273 
L 83.83825 57.342727 
" clip-path="url(#p1985aceb3d)" style="fill: none; stroke: #1f77b4; stroke-width: 1.5"/>
   </g>
   <g id="patch_3">
    <path d="M 57.2825 273.7 
L 57.2825 47.04 
" style="fill: none; stroke: #000000; stroke-width: 0.8; stroke-linejoin: miter; stroke-linecap: square"/>
   </g>
   <g id="patch_4">
    <path d="M 110.394 273.7 
L 110.394 47.04 
" style="fill: none; stroke: #000000; stroke-width: 0.8; stroke-linejoin: miter; stroke-linecap: square"/>
   </g>
   <g id="patch_5">
    <path d="M 57.2825 273.7 
L 110.394 273.7 
" style="fill: none; stroke: #000000; stroke-width: 0.8; stroke-linejoin: miter; stroke-linecap: square"/>
   </g>
   <g id="patch_6">
    <path d="M 57.2825 47.04 
L 110.394 47.04 
" style="fill: none; stroke: #000000; stroke-width: 0.8; stroke-linejoin: miter; stroke-linecap: square"/>
   </g>
   <g id="text_10">
    <!-- RMSD -->
    <g transform="translate(66.06325 41.04)scale(0.12 -0.12)">
     <use xlink:href="#DejaVuSans-52"/>
     <use xlink:href="#DejaVuSans-4d" x="69.482422"/>
     <use xlink:href="#DejaVuSans-53" x="155.761719"/>
     <use xlink:href="#DejaVuSans-44" x="219.238281"/>
    </g>
   </g>
  </g>
  <g id="axes_2">
   <g id="patch_7">
    <path d="M 170.984 273.7 
L 224.0955 273.7 
L 224.0955 47.04 
L 170.984 47.04 
z
" style="fill: #ffffff"/>
   </g>
   <g id="PolyCollection_2">
    <path d="M 199.084292 263.397273 
L 195.995208 263.397273 
L 195.737797 261.315914 
L 195.459742 259.234555 
L 195.159789 257.153196 
L 194.835244 255.071837 
L 194.481728 252.990478 
L 194.093143 250.909118 
L 193.661897 248.827759 
L 193.179419 246.7464 
L 192.636936 244.665041 
L 192.026439 242.583682 
L 191.341709 240.502323 
L 190.579282 238.420964 
L 189.73922 236.339605 
L 188.8256 234.258246 
L 187.84668 232.176887 
L 186.814731 230.095528 
L 185.745544 228.014169 
L 184.657624 225.93281 
L 183.571079 223.851451 
L 182.50624 221.770092 
L 181.482064 219.688733 
L 180.514481 217.607374 
L 179.614907 215.526015 
L 178.789213 213.444656 
L 178.037425 211.363297 
L 177.354369 209.281938 
L 176.731273 207.200579 
L 176.158142 205.119219 
L 175.62649 203.03786 
L 175.131895 200.956501 
L 174.675805 198.875142 
L 174.266145 196.793783 
L 173.916518 194.712424 
L 173.644076 192.631065 
L 173.466427 190.549706 
L 173.398159 188.468347 
L 173.447627 186.386988 
L 173.614622 184.305629 
L 173.88936 182.22427 
L 174.252987 180.142911 
L 174.679518 178.061552 
L 175.138898 175.980193 
L 175.600676 173.898834 
L 176.037686 171.817475 
L 176.429192 169.736116 
L 176.763022 167.654757 
L 177.036456 165.573398 
L 177.255838 163.492039 
L 177.435133 161.41068 
L 177.593748 159.32932 
L 177.754074 157.247961 
L 177.939111 155.166602 
L 178.170469 153.085243 
L 178.466902 151.003884 
L 178.843358 148.922525 
L 179.310489 146.841166 
L 179.874475 144.759807 
L 180.537054 142.678448 
L 181.295676 140.597089 
L 182.143743 138.51573 
L 183.070945 136.434371 
L 184.063688 134.353012 
L 185.10565 132.271653 
L 186.178445 130.190294 
L 187.262384 128.108935 
L 188.337314 126.027576 
L 189.383493 123.946217 
L 190.382475 121.864858 
L 191.317949 119.783499 
L 192.17651 117.70214 
L 192.948286 115.620781 
L 193.627375 113.539421 
L 194.212031 111.458062 
L 194.704558 109.376703 
L 195.110896 107.295344 
L 195.439928 105.213985 
L 195.702564 103.132626 
L 195.910707 101.051267 
L 196.076223 98.969908 
L 196.210022 96.888549 
L 196.321356 94.80719 
L 196.417382 92.725831 
L 196.502996 90.644472 
L 196.580929 88.563113 
L 196.652039 86.481754 
L 196.715746 84.400395 
L 196.770563 82.319036 
L 196.814654 80.237677 
L 196.846397 78.156318 
L 196.864879 76.074959 
L 196.870291 73.9936 
L 196.864159 71.912241 
L 196.849375 69.830882 
L 196.82999 67.749522 
L 196.810804 65.668163 
L 196.796787 63.586804 
L 196.792443 61.505445 
L 196.801204 59.424086 
L 196.824988 57.342727 
L 198.254512 57.342727 
L 198.254512 57.342727 
L 198.278296 59.424086 
L 198.287057 61.505445 
L 198.282713 63.586804 
L 198.268696 65.668163 
L 198.24951 67.749522 
L 198.230125 69.830882 
L 198.215341 71.912241 
L 198.209209 73.9936 
L 198.214621 76.074959 
L 198.233103 78.156318 
L 198.264846 80.237677 
L 198.308937 82.319036 
L 198.363754 84.400395 
L 198.427461 86.481754 
L 198.498571 88.563113 
L 198.576504 90.644472 
L 198.662118 92.725831 
L 198.758144 94.80719 
L 198.869478 96.888549 
L 199.003277 98.969908 
L 199.168793 101.051267 
L 199.376936 103.132626 
L 199.639572 105.213985 
L 199.968604 107.295344 
L 200.374942 109.376703 
L 200.867469 111.458062 
L 201.452125 113.539421 
L 202.131214 115.620781 
L 202.90299 117.70214 
L 203.761551 119.783499 
L 204.697025 121.864858 
L 205.696007 123.946217 
L 206.742186 126.027576 
L 207.817116 128.108935 
L 208.901055 130.190294 
L 209.97385 132.271653 
L 211.015812 134.353012 
L 212.008555 136.434371 
L 212.935757 138.51573 
L 213.783824 140.597089 
L 214.542446 142.678448 
L 215.205025 144.759807 
L 215.769011 146.841166 
L 216.236142 148.922525 
L 216.612598 151.003884 
L 216.909031 153.085243 
L 217.140389 155.166602 
L 217.325426 157.247961 
L 217.485752 159.32932 
L 217.644367 161.41068 
L 217.823662 163.492039 
L 218.043044 165.573398 
L 218.316478 167.654757 
L 218.650308 169.736116 
L 219.041814 171.817475 
L 219.478824 173.898834 
L 219.940602 175.980193 
L 220.399982 178.061552 
L 220.826513 180.142911 
L 221.19014 182.22427 
L 221.464878 184.305629 
L 221.631873 186.386988 
L 221.681341 188.468347 
L 221.613073 190.549706 
L 221.435424 192.631065 
L 221.162982 194.712424 
L 220.813355 196.793783 
L 220.403695 198.875142 
L 219.947605 200.956501 
L 219.45301 203.03786 
L 218.921358 205.119219 
L 218.348227 207.200579 
L 217.725131 209.281938 
L 217.042075 211.363297 
L 216.290287 213.444656 
L 215.464593 215.526015 
L 214.565019 217.607374 
L 213.597436 219.688733 
L 212.57326 221.770092 
L 211.508421 223.851451 
L 210.421876 225.93281 
L 209.333956 228.014169 
L 208.264769 230.095528 
L 207.23282 232.176887 
L 206.2539 234.258246 
L 205.34028 236.339605 
L 204.500218 238.420964 
L 203.737791 240.502323 
L 203.053061 242.583682 
L 202.442564 244.665041 
L 201.900081 246.7464 
L 201.417603 248.827759 
L 200.986357 250.909118 
L 200.597772 252.990478 
L 200.244256 255.071837 
L 199.919711 257.153196 
L 199.619758 259.234555 
L 199.341703 261.315914 
L 199.084292 263.397273 
z
" clip-path="url(#p4f262f6ad3)" style="fill: #1f77b4; fill-opacity: 0.3"/>
   </g>
   <g id="matplotlib.axis_2">
    <g id="ytick_9">
     <g id="line2d_9">
      <g>
       <use xlink:href="#mc421ea5bf5" x="170.984" y="256.941427" style="stroke: #000000; stroke-width: 0.8"/>
      </g>
     </g>
     <g id="text_11">
      <!-- 0.8 -->
      <g transform="translate(148.080875 260.740646)scale(0.1 -0.1)">
       <defs>
        <path id="DejaVuSans-38" d="M 2034 2216 
Q 1584 2216 1326 1975 
Q 1069 1734 1069 1313 
Q 1069 891 1326 650 
Q 1584 409 2034 409 
Q 2484 409 2743 651 
Q 3003 894 3003 1313 
Q 3003 1734 2745 1975 
Q 2488 2216 2034 2216 
z
M 1403 2484 
Q 997 2584 770 2862 
Q 544 3141 544 3541 
Q 544 4100 942 4425 
Q 1341 4750 2034 4750 
Q 2731 4750 3128 4425 
Q 3525 4100 3525 3541 
Q 3525 3141 3298 2862 
Q 3072 2584 2669 2484 
Q 3125 2378 3379 2068 
Q 3634 1759 3634 1313 
Q 3634 634 3220 271 
Q 2806 -91 2034 -91 
Q 1263 -91 848 271 
Q 434 634 434 1313 
Q 434 1759 690 2068 
Q 947 2378 1403 2484 
z
M 1172 3481 
Q 1172 3119 1398 2916 
Q 1625 2713 2034 2713 
Q 2441 2713 2670 2916 
Q 2900 3119 2900 3481 
Q 2900 3844 2670 4047 
Q 2441 4250 2034 4250 
Q 1625 4250 1398 4047 
Q 1172 3844 1172 3481 
z
" transform="scale(0.015625)"/>
       </defs>
       <use xlink:href="#DejaVuSans-30"/>
       <use xlink:href="#DejaVuSans-2e" x="63.623047"/>
       <use xlink:href="#DejaVuSans-38" x="95.410156"/>
      </g>
     </g>
    </g>
    <g id="ytick_10">
     <g id="line2d_10">
      <g>
       <use xlink:href="#mc421ea5bf5" x="170.984" y="210.779643" style="stroke: #000000; stroke-width: 0.8"/>
      </g>
     </g>
     <g id="text_12">
      <!-- 1.0 -->
      <g transform="translate(148.080875 214.578862)scale(0.1 -0.1)">
       <use xlink:href="#DejaVuSans-31"/>
       <use xlink:href="#DejaVuSans-2e" x="63.623047"/>
       <use xlink:href="#DejaVuSans-30" x="95.410156"/>
      </g>
     </g>
    </g>
    <g id="ytick_11">
     <g id="line2d_11">
      <g>
       <use xlink:href="#mc421ea5bf5" x="170.984" y="164.617859" style="stroke: #000000; stroke-width: 0.8"/>
      </g>
     </g>
     <g id="text_13">
      <!-- 1.2 -->
      <g transform="translate(148.080875 168.417078)scale(0.1 -0.1)">
       <use xlink:href="#DejaVuSans-31"/>
       <use xlink:href="#DejaVuSans-2e" x="63.623047"/>
       <use xlink:href="#DejaVuSans-32" x="95.410156"/>
      </g>
     </g>
    </g>
    <g id="ytick_12">
     <g id="line2d_12">
      <g>
       <use xlink:href="#mc421ea5bf5" x="170.984" y="118.456075" style="stroke: #000000; stroke-width: 0.8"/>
      </g>
     </g>
     <g id="text_14">
      <!-- 1.4 -->
      <g transform="translate(148.080875 122.255293)scale(0.1 -0.1)">
       <defs>
        <path id="DejaVuSans-34" d="M 2419 4116 
L 825 1625 
L 2419 1625 
L 2419 4116 
z
M 2253 4666 
L 3047 4666 
L 3047 1625 
L 3713 1625 
L 3713 1100 
L 3047 1100 
L 3047 0 
L 2419 0 
L 2419 1100 
L 313 1100 
L 313 1709 
L 2253 4666 
z
" transform="scale(0.015625)"/>
       </defs>
       <use xlink:href="#DejaVuSans-31"/>
       <use xlink:href="#DejaVuSans-2e" x="63.623047"/>
       <use xlink:href="#DejaVuSans-34" x="95.410156"/>
      </g>
     </g>
    </g>
    <g id="ytick_13">
     <g id="line2d_13">
      <g>
       <use xlink:href="#mc421ea5bf5" x="170.984" y="72.29429" style="stroke: #000000; stroke-width: 0.8"/>
      </g>
     </g>
     <g id="text_15">
      <!-- 1.6 -->
      <g transform="translate(148.080875 76.093509)scale(0.1 -0.1)">
       <defs>
        <path id="DejaVuSans-36" d="M 2113 2584 
Q 1688 2584 1439 2293 
Q 1191 2003 1191 1497 
Q 1191 994 1439 701 
Q 1688 409 2113 409 
Q 2538 409 2786 701 
Q 3034 994 3034 1497 
Q 3034 2003 2786 2293 
Q 2538 2584 2113 2584 
z
M 3366 4563 
L 3366 3988 
Q 3128 4100 2886 4159 
Q 2644 4219 2406 4219 
Q 1781 4219 1451 3797 
Q 1122 3375 1075 2522 
Q 1259 2794 1537 2939 
Q 1816 3084 2150 3084 
Q 2853 3084 3261 2657 
Q 3669 2231 3669 1497 
Q 3669 778 3244 343 
Q 2819 -91 2113 -91 
Q 1303 -91 875 529 
Q 447 1150 447 2328 
Q 447 3434 972 4092 
Q 1497 4750 2381 4750 
Q 2619 4750 2861 4703 
Q 3103 4656 3366 4563 
z
" transform="scale(0.015625)"/>
       </defs>
       <use xlink:href="#DejaVuSans-31"/>
       <use xlink:href="#DejaVuSans-2e" x="63.623047"/>
       <use xlink:href="#DejaVuSans-36" x="95.410156"/>
      </g>
     </g>
    </g>
    <g id="text_16">
     <!-- MAE [$\AA$] -->
     <g transform="translate(142.001188 180.22)rotate(-90)scale(0.1 -0.1)">
      <defs>
       <path id="DejaVuSans-41" d="M 2188 4044 
L 1331 1722 
L 3047 1722 
L 2188 4044 
z
M 1831 4666 
L 2547 4666 
L 4325 0 
L 3669 0 
L 3244 1197 
L 1141 1197 
L 716 0 
L 50 0 
L 1831 4666 
z
" transform="scale(0.015625)"/>
       <path id="DejaVuSans-45" d="M 628 4666 
L 3578 4666 
L 3578 4134 
L 1259 4134 
L 1259 2753 
L 3481 2753 
L 3481 2222 
L 1259 2222 
L 1259 531 
L 3634 531 
L 3634 0 
L 628 0 
L 628 4666 
z
" transform="scale(0.015625)"/>
      </defs>
      <use xlink:href="#DejaVuSans-4d" transform="translate(0 0.171875)"/>
      <use xlink:href="#DejaVuSans-41" transform="translate(86.279297 0.171875)"/>
      <use xlink:href="#DejaVuSans-45" transform="translate(154.6875 0.171875)"/>
      <use xlink:href="#DejaVuSans-20" transform="translate(217.871094 0.171875)"/>
      <use xlink:href="#DejaVuSans-5b" transform="translate(249.658203 0.171875)"/>
      <use xlink:href="#DejaVuSans-Oblique-c5" transform="translate(288.671875 0.171875)"/>
      <use xlink:href="#DejaVuSans-5d" transform="translate(357.080078 0.171875)"/>
     </g>
    </g>
   </g>
   <g id="LineCollection_5">
    <path d="M 185.468955 179.346554 
L 209.610545 179.346554 
" clip-path="url(#p4f262f6ad3)" style="fill: none; stroke: #1f77b4; stroke-width: 1.5"/>
   </g>
   <g id="LineCollection_6">
    <path d="M 185.468955 57.342727 
L 209.610545 57.342727 
" clip-path="url(#p4f262f6ad3)" style="fill: none; stroke: #1f77b4; stroke-width: 1.5"/>
   </g>
   <g id="LineCollection_7">
    <path d="M 185.468955 263.397273 
L 209.610545 263.397273 
" clip-path="url(#p4f262f6ad3)" style="fill: none; stroke: #1f77b4; stroke-width: 1.5"/>
   </g>
   <g id="LineCollection_8">
    <path d="M 197.53975 263.397273 
L 197.53975 57.342727 
" clip-path="url(#p4f262f6ad3)" style="fill: none; stroke: #1f77b4; stroke-width: 1.5"/>
   </g>
   <g id="patch_8">
    <path d="M 170.984 273.7 
L 170.984 47.04 
" style="fill: none; stroke: #000000; stroke-width: 0.8; stroke-linejoin: miter; stroke-linecap: square"/>
   </g>
   <g id="patch_9">
    <path d="M 224.0955 273.7 
L 224.0955 47.04 
" style="fill: none; stroke: #000000; stroke-width: 0.8; stroke-linejoin: miter; stroke-linecap: square"/>
   </g>
   <g id="patch_10">
    <path d="M 170.984 273.7 
L 224.0955 273.7 
" style="fill: none; stroke: #000000; stroke-width: 0.8; stroke-linejoin: miter; stroke-linecap: square"/>
   </g>
   <g id="patch_11">
    <path d="M 170.984 47.04 
L 224.0955 47.04 
" style="fill: none; stroke: #000000; stroke-width: 0.8; stroke-linejoin: miter; stroke-linecap: square"/>
   </g>
   <g id="text_17">
    <!-- MAE -->
    <g transform="translate(184.46725 41.04)scale(0.12 -0.12)">
     <use xlink:href="#DejaVuSans-4d"/>
     <use xlink:href="#DejaVuSans-41" x="86.279297"/>
     <use xlink:href="#DejaVuSans-45" x="154.6875"/>
    </g>
   </g>
  </g>
  <g id="axes_3">
   <g id="patch_12">
    <path d="M 284.6855 273.7 
L 337.797 273.7 
L 337.797 47.04 
L 284.6855 47.04 
z
" style="fill: #ffffff"/>
   </g>
   <g id="PolyCollection_3">
    <path d="M 311.899128 263.397273 
L 310.583372 263.397273 
L 310.481142 261.315914 
L 310.361117 259.234555 
L 310.218479 257.153196 
L 310.048013 255.071837 
L 309.844516 252.990478 
L 309.603292 250.909118 
L 309.320682 248.827759 
L 308.994589 246.7464 
L 308.624898 244.665041 
L 308.213748 242.583682 
L 307.765533 240.502323 
L 307.28661 238.420964 
L 306.78466 236.339605 
L 306.267747 234.258246 
L 305.743173 232.176887 
L 305.216286 230.095528 
L 304.689438 228.014169 
L 304.161303 225.93281 
L 303.626699 223.851451 
L 303.07701 221.770092 
L 302.501177 219.688733 
L 301.887127 217.607374 
L 301.223439 215.526015 
L 300.500995 213.444656 
L 299.714381 211.363297 
L 298.86284 209.281938 
L 297.950687 207.200579 
L 296.987154 205.119219 
L 295.985732 203.03786 
L 294.963148 200.956501 
L 293.938137 198.875142 
L 292.930176 196.793783 
L 291.958349 194.712424 
L 291.040445 192.631065 
L 290.192365 190.549706 
L 289.427824 188.468347 
L 288.758316 186.386988 
L 288.193239 184.305629 
L 287.74007 182.22427 
L 287.40449 180.142911 
L 287.190381 178.061552 
L 287.099659 175.980193 
L 287.131963 173.898834 
L 287.284249 171.817475 
L 287.550372 169.736116 
L 287.920737 167.654757 
L 288.382116 165.573398 
L 288.917698 163.492039 
L 289.507429 161.41068 
L 290.128684 159.32932 
L 290.757279 157.247961 
L 291.368801 155.166602 
L 291.940181 153.085243 
L 292.451396 151.003884 
L 292.887129 148.922525 
L 293.238188 146.841166 
L 293.502492 144.759807 
L 293.685453 142.678448 
L 293.799665 140.597089 
L 293.863889 138.51573 
L 293.901443 136.434371 
L 293.938182 134.353012 
L 294.00031 132.271653 
L 294.112298 130.190294 
L 294.295131 128.108935 
L 294.565066 126.027576 
L 294.932949 123.946217 
L 295.404082 121.864858 
L 295.978527 119.783499 
L 296.651679 117.70214 
L 297.414956 115.620781 
L 298.256457 113.539421 
L 299.161541 111.458062 
L 300.113311 109.376703 
L 301.093066 107.295344 
L 302.080819 105.213985 
L 303.055967 103.132626 
L 303.998139 101.051267 
L 304.888225 98.969908 
L 305.709486 96.888549 
L 306.448621 94.80719 
L 307.096636 92.725831 
L 307.649376 90.644472 
L 308.107636 88.563113 
L 308.476814 86.481754 
L 308.766166 84.400395 
L 308.98775 82.319036 
L 309.155208 80.237677 
L 309.282536 78.156318 
L 309.382983 76.074959 
L 309.468186 73.9936 
L 309.547594 71.912241 
L 309.628199 69.830882 
L 309.714547 67.749522 
L 309.808953 65.668163 
L 309.911871 63.586804 
L 310.022319 61.505445 
L 310.138322 59.424086 
L 310.257314 57.342727 
L 312.225186 57.342727 
L 312.225186 57.342727 
L 312.344178 59.424086 
L 312.460181 61.505445 
L 312.570629 63.586804 
L 312.673547 65.668163 
L 312.767953 67.749522 
L 312.854301 69.830882 
L 312.934906 71.912241 
L 313.014314 73.9936 
L 313.099517 76.074959 
L 313.199964 78.156318 
L 313.327292 80.237677 
L 313.49475 82.319036 
L 313.716334 84.400395 
L 314.005686 86.481754 
L 314.374864 88.563113 
L 314.833124 90.644472 
L 315.385864 92.725831 
L 316.033879 94.80719 
L 316.773014 96.888549 
L 317.594275 98.969908 
L 318.484361 101.051267 
L 319.426533 103.132626 
L 320.401681 105.213985 
L 321.389434 107.295344 
L 322.369189 109.376703 
L 323.320959 111.458062 
L 324.226043 113.539421 
L 325.067544 115.620781 
L 325.830821 117.70214 
L 326.503973 119.783499 
L 327.078418 121.864858 
L 327.549551 123.946217 
L 327.917434 126.027576 
L 328.187369 128.108935 
L 328.370202 130.190294 
L 328.48219 132.271653 
L 328.544318 134.353012 
L 328.581057 136.434371 
L 328.618611 138.51573 
L 328.682835 140.597089 
L 328.797047 142.678448 
L 328.980008 144.759807 
L 329.244312 146.841166 
L 329.595371 148.922525 
L 330.031104 151.003884 
L 330.542319 153.085243 
L 331.113699 155.166602 
L 331.725221 157.247961 
L 332.353816 159.32932 
L 332.975071 161.41068 
L 333.564802 163.492039 
L 334.100384 165.573398 
L 334.561763 167.654757 
L 334.932128 169.736116 
L 335.198251 171.817475 
L 335.350537 173.898834 
L 335.382841 175.980193 
L 335.292119 178.061552 
L 335.07801 180.142911 
L 334.74243 182.22427 
L 334.289261 184.305629 
L 333.724184 186.386988 
L 333.054676 188.468347 
L 332.290135 190.549706 
L 331.442055 192.631065 
L 330.524151 194.712424 
L 329.552324 196.793783 
L 328.544363 198.875142 
L 327.519352 200.956501 
L 326.496768 203.03786 
L 325.495346 205.119219 
L 324.531813 207.200579 
L 323.61966 209.281938 
L 322.768119 211.363297 
L 321.981505 213.444656 
L 321.259061 215.526015 
L 320.595373 217.607374 
L 319.981323 219.688733 
L 319.40549 221.770092 
L 318.855801 223.851451 
L 318.321197 225.93281 
L 317.793062 228.014169 
L 317.266214 230.095528 
L 316.739327 232.176887 
L 316.214753 234.258246 
L 315.69784 236.339605 
L 315.19589 238.420964 
L 314.716967 240.502323 
L 314.268752 242.583682 
L 313.857602 244.665041 
L 313.487911 246.7464 
L 313.161818 248.827759 
L 312.879208 250.909118 
L 312.637984 252.990478 
L 312.434487 255.071837 
L 312.264021 257.153196 
L 312.121383 259.234555 
L 312.001358 261.315914 
L 311.899128 263.397273 
z
" clip-path="url(#p4528c703a4)" style="fill: #1f77b4; fill-opacity: 0.3"/>
   </g>
   <g id="matplotlib.axis_3">
    <g id="ytick_14">
     <g id="line2d_14">
      <g>
       <use xlink:href="#mc421ea5bf5" x="284.6855" y="256.601563" style="stroke: #000000; stroke-width: 0.8"/>
      </g>
     </g>
     <g id="text_18">
      <!-- 0.0 -->
      <g transform="translate(261.782375 260.400781)scale(0.1 -0.1)">
       <use xlink:href="#DejaVuSans-30"/>
       <use xlink:href="#DejaVuSans-2e" x="63.623047"/>
       <use xlink:href="#DejaVuSans-30" x="95.410156"/>
      </g>
     </g>
    </g>
    <g id="ytick_15">
     <g id="line2d_15">
      <g>
       <use xlink:href="#mc421ea5bf5" x="284.6855" y="213.287833" style="stroke: #000000; stroke-width: 0.8"/>
      </g>
     </g>
     <g id="text_19">
      <!-- 0.2 -->
      <g transform="translate(261.782375 217.087052)scale(0.1 -0.1)">
       <use xlink:href="#DejaVuSans-30"/>
       <use xlink:href="#DejaVuSans-2e" x="63.623047"/>
       <use xlink:href="#DejaVuSans-32" x="95.410156"/>
      </g>
     </g>
    </g>
    <g id="ytick_16">
     <g id="line2d_16">
      <g>
       <use xlink:href="#mc421ea5bf5" x="284.6855" y="169.974104" style="stroke: #000000; stroke-width: 0.8"/>
      </g>
     </g>
     <g id="text_20">
      <!-- 0.4 -->
      <g transform="translate(261.782375 173.773323)scale(0.1 -0.1)">
       <use xlink:href="#DejaVuSans-30"/>
       <use xlink:href="#DejaVuSans-2e" x="63.623047"/>
       <use xlink:href="#DejaVuSans-34" x="95.410156"/>
      </g>
     </g>
    </g>
    <g id="ytick_17">
     <g id="line2d_17">
      <g>
       <use xlink:href="#mc421ea5bf5" x="284.6855" y="126.660374" style="stroke: #000000; stroke-width: 0.8"/>
      </g>
     </g>
     <g id="text_21">
      <!-- 0.6 -->
      <g transform="translate(261.782375 130.459593)scale(0.1 -0.1)">
       <use xlink:href="#DejaVuSans-30"/>
       <use xlink:href="#DejaVuSans-2e" x="63.623047"/>
       <use xlink:href="#DejaVuSans-36" x="95.410156"/>
      </g>
     </g>
    </g>
    <g id="ytick_18">
     <g id="line2d_18">
      <g>
       <use xlink:href="#mc421ea5bf5" x="284.6855" y="83.346645" style="stroke: #000000; stroke-width: 0.8"/>
      </g>
     </g>
     <g id="text_22">
      <!-- 0.8 -->
      <g transform="translate(261.782375 87.145864)scale(0.1 -0.1)">
       <use xlink:href="#DejaVuSans-30"/>
       <use xlink:href="#DejaVuSans-2e" x="63.623047"/>
       <use xlink:href="#DejaVuSans-38" x="95.410156"/>
      </g>
     </g>
    </g>
    <g id="text_23">
     <!-- MSE [$\AA$] -->
     <g transform="translate(255.702687 179.97)rotate(-90)scale(0.1 -0.1)">
      <use xlink:href="#DejaVuSans-4d" transform="translate(0 0.171875)"/>
      <use xlink:href="#DejaVuSans-53" transform="translate(86.279297 0.171875)"/>
      <use xlink:href="#DejaVuSans-45" transform="translate(149.755859 0.171875)"/>
      <use xlink:href="#DejaVuSans-20" transform="translate(212.939453 0.171875)"/>
      <use xlink:href="#DejaVuSans-5b" transform="translate(244.726562 0.171875)"/>
      <use xlink:href="#DejaVuSans-Oblique-c5" transform="translate(283.740234 0.171875)"/>
      <use xlink:href="#DejaVuSans-5d" transform="translate(352.148438 0.171875)"/>
     </g>
    </g>
   </g>
   <g id="LineCollection_9">
    <path d="M 299.170455 163.256306 
L 323.312045 163.256306 
" clip-path="url(#p4528c703a4)" style="fill: none; stroke: #1f77b4; stroke-width: 1.5"/>
   </g>
   <g id="LineCollection_10">
    <path d="M 299.170455 57.342727 
L 323.312045 57.342727 
" clip-path="url(#p4528c703a4)" style="fill: none; stroke: #1f77b4; stroke-width: 1.5"/>
   </g>
   <g id="LineCollection_11">
    <path d="M 299.170455 263.397273 
L 323.312045 263.397273 
" clip-path="url(#p4528c703a4)" style="fill: none; stroke: #1f77b4; stroke-width: 1.5"/>
   </g>
   <g id="LineCollection_12">
    <path d="M 311.24125 263.397273 
L 311.24125 57.342727 
" clip-path="url(#p4528c703a4)" style="fill: none; stroke: #1f77b4; stroke-width: 1.5"/>
   </g>
   <g id="patch_13">
    <path d="M 284.6855 273.7 
L 284.6855 47.04 
" style="fill: none; stroke: #000000; stroke-width: 0.8; stroke-linejoin: miter; stroke-linecap: square"/>
   </g>
   <g id="patch_14">
    <path d="M 337.797 273.7 
L 337.797 47.04 
" style="fill: none; stroke: #000000; stroke-width: 0.8; stroke-linejoin: miter; stroke-linecap: square"/>
   </g>
   <g id="patch_15">
    <path d="M 284.6855 273.7 
L 337.797 273.7 
" style="fill: none; stroke: #000000; stroke-width: 0.8; stroke-linejoin: miter; stroke-linecap: square"/>
   </g>
   <g id="patch_16">
    <path d="M 284.6855 47.04 
L 337.797 47.04 
" style="fill: none; stroke: #000000; stroke-width: 0.8; stroke-linejoin: miter; stroke-linecap: square"/>
   </g>
   <g id="text_24">
    <!-- MSE -->
    <g transform="translate(298.464062 41.04)scale(0.12 -0.12)">
     <use xlink:href="#DejaVuSans-4d"/>
     <use xlink:href="#DejaVuSans-53" x="86.279297"/>
     <use xlink:href="#DejaVuSans-45" x="149.755859"/>
    </g>
   </g>
  </g>
  <g id="axes_4">
   <g id="patch_17">
    <path d="M 398.387 273.7 
L 451.4985 273.7 
L 451.4985 47.04 
L 398.387 47.04 
z
" style="fill: #ffffff"/>
   </g>
   <g id="PolyCollection_4">
    <path d="M 427.783012 263.397273 
L 422.102488 263.397273 
L 421.842912 261.315914 
L 421.572949 259.234555 
L 421.286062 257.153196 
L 420.975055 255.071837 
L 420.632884 252.990478 
L 420.253342 250.909118 
L 419.831505 248.827759 
L 419.363841 246.7464 
L 418.848011 244.665041 
L 418.282435 242.583682 
L 417.665792 240.502323 
L 416.996621 238.420964 
L 416.273196 236.339605 
L 415.493754 234.258246 
L 414.657105 232.176887 
L 413.763513 230.095528 
L 412.815694 228.014169 
L 411.819725 225.93281 
L 410.785645 223.851451 
L 409.727612 221.770092 
L 408.663513 219.688733 
L 407.614055 217.607374 
L 406.601435 215.526015 
L 405.647734 213.444656 
L 404.773256 211.363297 
L 403.994977 209.281938 
L 403.325297 207.200579 
L 402.771193 205.119219 
L 402.333845 203.03786 
L 402.008742 200.956501 
L 401.786231 198.875142 
L 401.652414 196.793783 
L 401.590318 194.712424 
L 401.581198 192.631065 
L 401.605878 190.549706 
L 401.646021 188.468347 
L 401.685252 186.386988 
L 401.710059 184.305629 
L 401.710457 182.22427 
L 401.680382 180.142911 
L 401.61783 178.061552 
L 401.524759 175.980193 
L 401.406774 173.898834 
L 401.272641 171.817475 
L 401.133654 169.736116 
L 401.002901 167.654757 
L 400.894474 165.573398 
L 400.822659 163.492039 
L 400.801159 161.41068 
L 400.842401 159.32932 
L 400.95696 157.247961 
L 401.153142 155.166602 
L 401.436751 153.085243 
L 401.811031 151.003884 
L 402.276758 148.922525 
L 402.832461 146.841166 
L 403.474682 144.759807 
L 404.198248 142.678448 
L 404.996484 140.597089 
L 405.861354 138.51573 
L 406.783523 136.434371 
L 407.752383 134.353012 
L 408.756085 132.271653 
L 409.781665 130.190294 
L 410.815294 128.108935 
L 411.842706 126.027576 
L 412.849785 123.946217 
L 413.823261 121.864858 
L 414.75145 119.783499 
L 415.62492 117.70214 
L 416.436984 115.620781 
L 417.183955 113.539421 
L 417.865111 111.458062 
L 418.482378 109.376703 
L 419.039781 107.295344 
L 419.542745 105.213985 
L 419.997346 103.132626 
L 420.40961 101.051267 
L 420.784949 98.969908 
L 421.127779 96.888549 
L 421.441357 94.80719 
L 421.727818 92.725831 
L 421.988389 90.644472 
L 422.223717 88.563113 
L 422.434253 86.481754 
L 422.620626 84.400395 
L 422.783947 82.319036 
L 422.926013 80.237677 
L 423.049368 78.156318 
L 423.157228 76.074959 
L 423.253293 73.9936 
L 423.341466 71.912241 
L 423.425532 69.830882 
L 423.508848 67.749522 
L 423.594076 65.668163 
L 423.683002 63.586804 
L 423.776455 61.505445 
L 423.874327 59.424086 
L 423.975692 57.342727 
L 425.909808 57.342727 
L 425.909808 57.342727 
L 426.011173 59.424086 
L 426.109045 61.505445 
L 426.202498 63.586804 
L 426.291424 65.668163 
L 426.376652 67.749522 
L 426.459968 69.830882 
L 426.544034 71.912241 
L 426.632207 73.9936 
L 426.728272 76.074959 
L 426.836132 78.156318 
L 426.959487 80.237677 
L 427.101553 82.319036 
L 427.264874 84.400395 
L 427.451247 86.481754 
L 427.661783 88.563113 
L 427.897111 90.644472 
L 428.157682 92.725831 
L 428.444143 94.80719 
L 428.757721 96.888549 
L 429.100551 98.969908 
L 429.47589 101.051267 
L 429.888154 103.132626 
L 430.342755 105.213985 
L 430.845719 107.295344 
L 431.403122 109.376703 
L 432.020389 111.458062 
L 432.701545 113.539421 
L 433.448516 115.620781 
L 434.26058 117.70214 
L 435.13405 119.783499 
L 436.062239 121.864858 
L 437.035715 123.946217 
L 438.042794 126.027576 
L 439.070206 128.108935 
L 440.103835 130.190294 
L 441.129415 132.271653 
L 442.133117 134.353012 
L 443.101977 136.434371 
L 444.024146 138.51573 
L 444.889016 140.597089 
L 445.687252 142.678448 
L 446.410818 144.759807 
L 447.053039 146.841166 
L 447.608742 148.922525 
L 448.074469 151.003884 
L 448.448749 153.085243 
L 448.732358 155.166602 
L 448.92854 157.247961 
L 449.043099 159.32932 
L 449.084341 161.41068 
L 449.062841 163.492039 
L 448.991026 165.573398 
L 448.882599 167.654757 
L 448.751846 169.736116 
L 448.612859 171.817475 
L 448.478726 173.898834 
L 448.360741 175.980193 
L 448.26767 178.061552 
L 448.205118 180.142911 
L 448.175043 182.22427 
L 448.175441 184.305629 
L 448.200248 186.386988 
L 448.239479 188.468347 
L 448.279622 190.549706 
L 448.304302 192.631065 
L 448.295182 194.712424 
L 448.233086 196.793783 
L 448.099269 198.875142 
L 447.876758 200.956501 
L 447.551655 203.03786 
L 447.114307 205.119219 
L 446.560203 207.200579 
L 445.890523 209.281938 
L 445.112244 211.363297 
L 444.237766 213.444656 
L 443.284065 215.526015 
L 442.271445 217.607374 
L 441.221987 219.688733 
L 440.157888 221.770092 
L 439.099855 223.851451 
L 438.065775 225.93281 
L 437.069806 228.014169 
L 436.121987 230.095528 
L 435.228395 232.176887 
L 434.391746 234.258246 
L 433.612304 236.339605 
L 432.888879 238.420964 
L 432.219708 240.502323 
L 431.603065 242.583682 
L 431.037489 244.665041 
L 430.521659 246.7464 
L 430.053995 248.827759 
L 429.632158 250.909118 
L 429.252616 252.990478 
L 428.910445 255.071837 
L 428.599438 257.153196 
L 428.312551 259.234555 
L 428.042588 261.315914 
L 427.783012 263.397273 
z
" clip-path="url(#p1b37b8883f)" style="fill: #1f77b4; fill-opacity: 0.3"/>
   </g>
   <g id="matplotlib.axis_4">
    <g id="ytick_19">
     <g id="line2d_19">
      <g>
       <use xlink:href="#mc421ea5bf5" x="398.387" y="256.124759" style="stroke: #000000; stroke-width: 0.8"/>
      </g>
     </g>
     <g id="text_25">
      <!-- 0.700 -->
      <g transform="translate(362.758875 259.923978)scale(0.1 -0.1)">
       <use xlink:href="#DejaVuSans-30"/>
       <use xlink:href="#DejaVuSans-2e" x="63.623047"/>
       <use xlink:href="#DejaVuSans-37" x="95.410156"/>
       <use xlink:href="#DejaVuSans-30" x="159.033203"/>
       <use xlink:href="#DejaVuSans-30" x="222.65625"/>
      </g>
     </g>
    </g>
    <g id="ytick_20">
     <g id="line2d_20">
      <g>
       <use xlink:href="#mc421ea5bf5" x="398.387" y="229.458877" style="stroke: #000000; stroke-width: 0.8"/>
      </g>
     </g>
     <g id="text_26">
      <!-- 0.725 -->
      <g transform="translate(362.758875 233.258096)scale(0.1 -0.1)">
       <use xlink:href="#DejaVuSans-30"/>
       <use xlink:href="#DejaVuSans-2e" x="63.623047"/>
       <use xlink:href="#DejaVuSans-37" x="95.410156"/>
       <use xlink:href="#DejaVuSans-32" x="159.033203"/>
       <use xlink:href="#DejaVuSans-35" x="222.65625"/>
      </g>
     </g>
    </g>
    <g id="ytick_21">
     <g id="line2d_21">
      <g>
       <use xlink:href="#mc421ea5bf5" x="398.387" y="202.792995" style="stroke: #000000; stroke-width: 0.8"/>
      </g>
     </g>
     <g id="text_27">
      <!-- 0.750 -->
      <g transform="translate(362.758875 206.592213)scale(0.1 -0.1)">
       <use xlink:href="#DejaVuSans-30"/>
       <use xlink:href="#DejaVuSans-2e" x="63.623047"/>
       <use xlink:href="#DejaVuSans-37" x="95.410156"/>
       <use xlink:href="#DejaVuSans-35" x="159.033203"/>
       <use xlink:href="#DejaVuSans-30" x="222.65625"/>
      </g>
     </g>
    </g>
    <g id="ytick_22">
     <g id="line2d_22">
      <g>
       <use xlink:href="#mc421ea5bf5" x="398.387" y="176.127112" style="stroke: #000000; stroke-width: 0.8"/>
      </g>
     </g>
     <g id="text_28">
      <!-- 0.775 -->
      <g transform="translate(362.758875 179.926331)scale(0.1 -0.1)">
       <use xlink:href="#DejaVuSans-30"/>
       <use xlink:href="#DejaVuSans-2e" x="63.623047"/>
       <use xlink:href="#DejaVuSans-37" x="95.410156"/>
       <use xlink:href="#DejaVuSans-37" x="159.033203"/>
       <use xlink:href="#DejaVuSans-35" x="222.65625"/>
      </g>
     </g>
    </g>
    <g id="ytick_23">
     <g id="line2d_23">
      <g>
       <use xlink:href="#mc421ea5bf5" x="398.387" y="149.46123" style="stroke: #000000; stroke-width: 0.8"/>
      </g>
     </g>
     <g id="text_29">
      <!-- 0.800 -->
      <g transform="translate(362.758875 153.260449)scale(0.1 -0.1)">
       <use xlink:href="#DejaVuSans-30"/>
       <use xlink:href="#DejaVuSans-2e" x="63.623047"/>
       <use xlink:href="#DejaVuSans-38" x="95.410156"/>
       <use xlink:href="#DejaVuSans-30" x="159.033203"/>
       <use xlink:href="#DejaVuSans-30" x="222.65625"/>
      </g>
     </g>
    </g>
    <g id="ytick_24">
     <g id="line2d_24">
      <g>
       <use xlink:href="#mc421ea5bf5" x="398.387" y="122.795348" style="stroke: #000000; stroke-width: 0.8"/>
      </g>
     </g>
     <g id="text_30">
      <!-- 0.825 -->
      <g transform="translate(362.758875 126.594566)scale(0.1 -0.1)">
       <use xlink:href="#DejaVuSans-30"/>
       <use xlink:href="#DejaVuSans-2e" x="63.623047"/>
       <use xlink:href="#DejaVuSans-38" x="95.410156"/>
       <use xlink:href="#DejaVuSans-32" x="159.033203"/>
       <use xlink:href="#DejaVuSans-35" x="222.65625"/>
      </g>
     </g>
    </g>
    <g id="ytick_25">
     <g id="line2d_25">
      <g>
       <use xlink:href="#mc421ea5bf5" x="398.387" y="96.129465" style="stroke: #000000; stroke-width: 0.8"/>
      </g>
     </g>
     <g id="text_31">
      <!-- 0.850 -->
      <g transform="translate(362.758875 99.928684)scale(0.1 -0.1)">
       <use xlink:href="#DejaVuSans-30"/>
       <use xlink:href="#DejaVuSans-2e" x="63.623047"/>
       <use xlink:href="#DejaVuSans-38" x="95.410156"/>
       <use xlink:href="#DejaVuSans-35" x="159.033203"/>
       <use xlink:href="#DejaVuSans-30" x="222.65625"/>
      </g>
     </g>
    </g>
    <g id="ytick_26">
     <g id="line2d_26">
      <g>
       <use xlink:href="#mc421ea5bf5" x="398.387" y="69.463583" style="stroke: #000000; stroke-width: 0.8"/>
      </g>
     </g>
     <g id="text_32">
      <!-- 0.875 -->
      <g transform="translate(362.758875 73.262802)scale(0.1 -0.1)">
       <use xlink:href="#DejaVuSans-30"/>
       <use xlink:href="#DejaVuSans-2e" x="63.623047"/>
       <use xlink:href="#DejaVuSans-38" x="95.410156"/>
       <use xlink:href="#DejaVuSans-37" x="159.033203"/>
       <use xlink:href="#DejaVuSans-35" x="222.65625"/>
      </g>
     </g>
    </g>
    <g id="text_33">
     <!-- % NOE fulfilled [1/100 %] -->
     <g transform="translate(356.679188 223.870781)rotate(-90)scale(0.1 -0.1)">
      <defs>
       <path id="DejaVuSans-25" d="M 4653 2053 
Q 4381 2053 4226 1822 
Q 4072 1591 4072 1178 
Q 4072 772 4226 539 
Q 4381 306 4653 306 
Q 4919 306 5073 539 
Q 5228 772 5228 1178 
Q 5228 1588 5073 1820 
Q 4919 2053 4653 2053 
z
M 4653 2450 
Q 5147 2450 5437 2106 
Q 5728 1763 5728 1178 
Q 5728 594 5436 251 
Q 5144 -91 4653 -91 
Q 4153 -91 3862 251 
Q 3572 594 3572 1178 
Q 3572 1766 3864 2108 
Q 4156 2450 4653 2450 
z
M 1428 4353 
Q 1159 4353 1004 4120 
Q 850 3888 850 3481 
Q 850 3069 1003 2837 
Q 1156 2606 1428 2606 
Q 1700 2606 1854 2837 
Q 2009 3069 2009 3481 
Q 2009 3884 1853 4118 
Q 1697 4353 1428 4353 
z
M 4250 4750 
L 4750 4750 
L 1831 -91 
L 1331 -91 
L 4250 4750 
z
M 1428 4750 
Q 1922 4750 2215 4408 
Q 2509 4066 2509 3481 
Q 2509 2891 2217 2550 
Q 1925 2209 1428 2209 
Q 931 2209 642 2551 
Q 353 2894 353 3481 
Q 353 4063 643 4406 
Q 934 4750 1428 4750 
z
" transform="scale(0.015625)"/>
       <path id="DejaVuSans-4e" d="M 628 4666 
L 1478 4666 
L 3547 763 
L 3547 4666 
L 4159 4666 
L 4159 0 
L 3309 0 
L 1241 3903 
L 1241 0 
L 628 0 
L 628 4666 
z
" transform="scale(0.015625)"/>
       <path id="DejaVuSans-4f" d="M 2522 4238 
Q 1834 4238 1429 3725 
Q 1025 3213 1025 2328 
Q 1025 1447 1429 934 
Q 1834 422 2522 422 
Q 3209 422 3611 934 
Q 4013 1447 4013 2328 
Q 4013 3213 3611 3725 
Q 3209 4238 2522 4238 
z
M 2522 4750 
Q 3503 4750 4090 4092 
Q 4678 3434 4678 2328 
Q 4678 1225 4090 567 
Q 3503 -91 2522 -91 
Q 1538 -91 948 565 
Q 359 1222 359 2328 
Q 359 3434 948 4092 
Q 1538 4750 2522 4750 
z
" transform="scale(0.015625)"/>
       <path id="DejaVuSans-66" d="M 2375 4863 
L 2375 4384 
L 1825 4384 
Q 1516 4384 1395 4259 
Q 1275 4134 1275 3809 
L 1275 3500 
L 2222 3500 
L 2222 3053 
L 1275 3053 
L 1275 0 
L 697 0 
L 697 3053 
L 147 3053 
L 147 3500 
L 697 3500 
L 697 3744 
Q 697 4328 969 4595 
Q 1241 4863 1831 4863 
L 2375 4863 
z
" transform="scale(0.015625)"/>
       <path id="DejaVuSans-75" d="M 544 1381 
L 544 3500 
L 1119 3500 
L 1119 1403 
Q 1119 906 1312 657 
Q 1506 409 1894 409 
Q 2359 409 2629 706 
Q 2900 1003 2900 1516 
L 2900 3500 
L 3475 3500 
L 3475 0 
L 2900 0 
L 2900 538 
Q 2691 219 2414 64 
Q 2138 -91 1772 -91 
Q 1169 -91 856 284 
Q 544 659 544 1381 
z
M 1991 3584 
L 1991 3584 
z
" transform="scale(0.015625)"/>
       <path id="DejaVuSans-6c" d="M 603 4863 
L 1178 4863 
L 1178 0 
L 603 0 
L 603 4863 
z
" transform="scale(0.015625)"/>
       <path id="DejaVuSans-69" d="M 603 3500 
L 1178 3500 
L 1178 0 
L 603 0 
L 603 3500 
z
M 603 4863 
L 1178 4863 
L 1178 4134 
L 603 4134 
L 603 4863 
z
" transform="scale(0.015625)"/>
       <path id="DejaVuSans-65" d="M 3597 1894 
L 3597 1613 
L 953 1613 
Q 991 1019 1311 708 
Q 1631 397 2203 397 
Q 2534 397 2845 478 
Q 3156 559 3463 722 
L 3463 178 
Q 3153 47 2828 -22 
Q 2503 -91 2169 -91 
Q 1331 -91 842 396 
Q 353 884 353 1716 
Q 353 2575 817 3079 
Q 1281 3584 2069 3584 
Q 2775 3584 3186 3129 
Q 3597 2675 3597 1894 
z
M 3022 2063 
Q 3016 2534 2758 2815 
Q 2500 3097 2075 3097 
Q 1594 3097 1305 2825 
Q 1016 2553 972 2059 
L 3022 2063 
z
" transform="scale(0.015625)"/>
       <path id="DejaVuSans-64" d="M 2906 2969 
L 2906 4863 
L 3481 4863 
L 3481 0 
L 2906 0 
L 2906 525 
Q 2725 213 2448 61 
Q 2172 -91 1784 -91 
Q 1150 -91 751 415 
Q 353 922 353 1747 
Q 353 2572 751 3078 
Q 1150 3584 1784 3584 
Q 2172 3584 2448 3432 
Q 2725 3281 2906 2969 
z
M 947 1747 
Q 947 1113 1208 752 
Q 1469 391 1925 391 
Q 2381 391 2643 752 
Q 2906 1113 2906 1747 
Q 2906 2381 2643 2742 
Q 2381 3103 1925 3103 
Q 1469 3103 1208 2742 
Q 947 2381 947 1747 
z
" transform="scale(0.015625)"/>
       <path id="DejaVuSans-2f" d="M 1625 4666 
L 2156 4666 
L 531 -594 
L 0 -594 
L 1625 4666 
z
" transform="scale(0.015625)"/>
      </defs>
      <use xlink:href="#DejaVuSans-25"/>
      <use xlink:href="#DejaVuSans-20" x="95.019531"/>
      <use xlink:href="#DejaVuSans-4e" x="126.806641"/>
      <use xlink:href="#DejaVuSans-4f" x="201.611328"/>
      <use xlink:href="#DejaVuSans-45" x="280.322266"/>
      <use xlink:href="#DejaVuSans-20" x="343.505859"/>
      <use xlink:href="#DejaVuSans-66" x="375.292969"/>
      <use xlink:href="#DejaVuSans-75" x="410.498047"/>
      <use xlink:href="#DejaVuSans-6c" x="473.876953"/>
      <use xlink:href="#DejaVuSans-66" x="501.660156"/>
      <use xlink:href="#DejaVuSans-69" x="536.865234"/>
      <use xlink:href="#DejaVuSans-6c" x="564.648438"/>
      <use xlink:href="#DejaVuSans-6c" x="592.431641"/>
      <use xlink:href="#DejaVuSans-65" x="620.214844"/>
      <use xlink:href="#DejaVuSans-64" x="681.738281"/>
      <use xlink:href="#DejaVuSans-20" x="745.214844"/>
      <use xlink:href="#DejaVuSans-5b" x="777.001953"/>
      <use xlink:href="#DejaVuSans-31" x="816.015625"/>
      <use xlink:href="#DejaVuSans-2f" x="879.638672"/>
      <use xlink:href="#DejaVuSans-31" x="913.330078"/>
      <use xlink:href="#DejaVuSans-30" x="976.953125"/>
      <use xlink:href="#DejaVuSans-30" x="1040.576172"/>
      <use xlink:href="#DejaVuSans-20" x="1104.199219"/>
      <use xlink:href="#DejaVuSans-25" x="1135.986328"/>
      <use xlink:href="#DejaVuSans-5d" x="1231.005859"/>
     </g>
    </g>
   </g>
   <g id="LineCollection_13">
    <path d="M 412.871955 174.937267 
L 437.013545 174.937267 
" clip-path="url(#p1b37b8883f)" style="fill: none; stroke: #1f77b4; stroke-width: 1.5"/>
   </g>
   <g id="LineCollection_14">
    <path d="M 412.871955 57.342727 
L 437.013545 57.342727 
" clip-path="url(#p1b37b8883f)" style="fill: none; stroke: #1f77b4; stroke-width: 1.5"/>
   </g>
   <g id="LineCollection_15">
    <path d="M 412.871955 263.397273 
L 437.013545 263.397273 
" clip-path="url(#p1b37b8883f)" style="fill: none; stroke: #1f77b4; stroke-width: 1.5"/>
   </g>
   <g id="LineCollection_16">
    <path d="M 424.94275 263.397273 
L 424.94275 57.342727 
" clip-path="url(#p1b37b8883f)" style="fill: none; stroke: #1f77b4; stroke-width: 1.5"/>
   </g>
   <g id="patch_18">
    <path d="M 398.387 273.7 
L 398.387 47.04 
" style="fill: none; stroke: #000000; stroke-width: 0.8; stroke-linejoin: miter; stroke-linecap: square"/>
   </g>
   <g id="patch_19">
    <path d="M 451.4985 273.7 
L 451.4985 47.04 
" style="fill: none; stroke: #000000; stroke-width: 0.8; stroke-linejoin: miter; stroke-linecap: square"/>
   </g>
   <g id="patch_20">
    <path d="M 398.387 273.7 
L 451.4985 273.7 
" style="fill: none; stroke: #000000; stroke-width: 0.8; stroke-linejoin: miter; stroke-linecap: square"/>
   </g>
   <g id="patch_21">
    <path d="M 398.387 47.04 
L 451.4985 47.04 
" style="fill: none; stroke: #000000; stroke-width: 0.8; stroke-linejoin: miter; stroke-linecap: square"/>
   </g>
   <g id="text_34">
    <!-- % NOE fulfilled -->
    <g transform="translate(380.229625 41.04)scale(0.12 -0.12)">
     <use xlink:href="#DejaVuSans-25"/>
     <use xlink:href="#DejaVuSans-20" x="95.019531"/>
     <use xlink:href="#DejaVuSans-4e" x="126.806641"/>
     <use xlink:href="#DejaVuSans-4f" x="201.611328"/>
     <use xlink:href="#DejaVuSans-45" x="280.322266"/>
     <use xlink:href="#DejaVuSans-20" x="343.505859"/>
     <use xlink:href="#DejaVuSans-66" x="375.292969"/>
     <use xlink:href="#DejaVuSans-75" x="410.498047"/>
     <use xlink:href="#DejaVuSans-6c" x="473.876953"/>
     <use xlink:href="#DejaVuSans-66" x="501.660156"/>
     <use xlink:href="#DejaVuSans-69" x="536.865234"/>
     <use xlink:href="#DejaVuSans-6c" x="564.648438"/>
     <use xlink:href="#DejaVuSans-6c" x="592.431641"/>
     <use xlink:href="#DejaVuSans-65" x="620.214844"/>
     <use xlink:href="#DejaVuSans-64" x="681.738281"/>
    </g>
   </g>
  </g>
  <g id="axes_5">
   <g id="patch_22">
    <path d="M 512.0885 273.7 
L 565.2 273.7 
L 565.2 47.04 
L 512.0885 47.04 
z
" style="fill: #ffffff"/>
   </g>
   <g id="PolyCollection_5">
    <path d="M 539.400655 263.397273 
L 537.887845 263.397273 
L 537.819417 261.315914 
L 537.756204 259.234555 
L 537.698938 257.153196 
L 537.647914 255.071837 
L 537.602983 252.990478 
L 537.563556 250.909118 
L 537.528566 248.827759 
L 537.4964 246.7464 
L 537.464804 244.665041 
L 537.430798 242.583682 
L 537.390637 240.502323 
L 537.339876 238.420964 
L 537.273562 236.339605 
L 537.186561 234.258246 
L 537.073999 232.176887 
L 536.931742 230.095528 
L 536.756844 228.014169 
L 536.547861 225.93281 
L 536.304972 223.851451 
L 536.029854 221.770092 
L 535.725312 219.688733 
L 535.394729 217.607374 
L 535.041396 215.526015 
L 534.667835 213.444656 
L 534.275225 211.363297 
L 533.863004 209.281938 
L 533.428725 207.200579 
L 532.968181 205.119219 
L 532.475792 203.03786 
L 531.945219 200.956501 
L 531.370128 198.875142 
L 530.745034 196.793783 
L 530.066121 194.712424 
L 529.331969 192.631065 
L 528.54409 190.549706 
L 527.707235 188.468347 
L 526.829441 186.386988 
L 525.921799 184.305629 
L 524.997987 182.22427 
L 524.073604 180.142911 
L 523.165356 178.061552 
L 522.290164 175.980193 
L 521.464242 173.898834 
L 520.702201 171.817475 
L 520.016218 169.736116 
L 519.415321 167.654757 
L 518.904814 165.573398 
L 518.485892 163.492039 
L 518.155489 161.41068 
L 517.906371 159.32932 
L 517.727505 157.247961 
L 517.604693 155.166602 
L 517.521435 153.085243 
L 517.459981 151.003884 
L 517.402491 148.922525 
L 517.332245 146.841166 
L 517.234814 144.759807 
L 517.099122 142.678448 
L 516.918344 140.597089 
L 516.690563 138.51573 
L 516.419145 136.434371 
L 516.112752 134.353012 
L 515.784998 132.271653 
L 515.453695 130.190294 
L 515.139751 128.108935 
L 514.865776 126.027576 
L 514.654528 123.946217 
L 514.527336 121.864858 
L 514.502659 119.783499 
L 514.594933 117.70214 
L 514.813784 115.620781 
L 515.163667 113.539421 
L 515.643919 111.458062 
L 516.249163 109.376703 
L 516.96998 107.295344 
L 517.793753 105.213985 
L 518.705586 103.132626 
L 519.689214 101.051267 
L 520.727835 98.969908 
L 521.804816 96.888549 
L 522.904223 94.80719 
L 524.011184 92.725831 
L 525.112068 90.644472 
L 526.194534 88.563113 
L 527.247504 86.481754 
L 528.261116 84.400395 
L 529.226736 82.319036 
L 530.137055 80.237677 
L 530.986285 78.156318 
L 531.770416 76.074959 
L 532.487468 73.9936 
L 533.137659 71.912241 
L 533.723408 69.830882 
L 534.24913 67.749522 
L 534.720816 65.668163 
L 535.145425 63.586804 
L 535.530191 61.505445 
L 535.881912 59.424086 
L 536.206356 57.342727 
L 541.082144 57.342727 
L 541.082144 57.342727 
L 541.406588 59.424086 
L 541.758309 61.505445 
L 542.143075 63.586804 
L 542.567684 65.668163 
L 543.03937 67.749522 
L 543.565092 69.830882 
L 544.150841 71.912241 
L 544.801032 73.9936 
L 545.518084 76.074959 
L 546.302215 78.156318 
L 547.151445 80.237677 
L 548.061764 82.319036 
L 549.027384 84.400395 
L 550.040996 86.481754 
L 551.093966 88.563113 
L 552.176432 90.644472 
L 553.277316 92.725831 
L 554.384277 94.80719 
L 555.483684 96.888549 
L 556.560665 98.969908 
L 557.599286 101.051267 
L 558.582914 103.132626 
L 559.494747 105.213985 
L 560.31852 107.295344 
L 561.039337 109.376703 
L 561.644581 111.458062 
L 562.124833 113.539421 
L 562.474716 115.620781 
L 562.693567 117.70214 
L 562.785841 119.783499 
L 562.761164 121.864858 
L 562.633972 123.946217 
L 562.422724 126.027576 
L 562.148749 128.108935 
L 561.834805 130.190294 
L 561.503502 132.271653 
L 561.175748 134.353012 
L 560.869355 136.434371 
L 560.597937 138.51573 
L 560.370156 140.597089 
L 560.189378 142.678448 
L 560.053686 144.759807 
L 559.956255 146.841166 
L 559.886009 148.922525 
L 559.828519 151.003884 
L 559.767065 153.085243 
L 559.683807 155.166602 
L 559.560995 157.247961 
L 559.382129 159.32932 
L 559.133011 161.41068 
L 558.802608 163.492039 
L 558.383686 165.573398 
L 557.873179 167.654757 
L 557.272282 169.736116 
L 556.586299 171.817475 
L 555.824258 173.898834 
L 554.998336 175.980193 
L 554.123144 178.061552 
L 553.214896 180.142911 
L 552.290513 182.22427 
L 551.366701 184.305629 
L 550.459059 186.386988 
L 549.581265 188.468347 
L 548.74441 190.549706 
L 547.956531 192.631065 
L 547.222379 194.712424 
L 546.543466 196.793783 
L 545.918372 198.875142 
L 545.343281 200.956501 
L 544.812708 203.03786 
L 544.320319 205.119219 
L 543.859775 207.200579 
L 543.425496 209.281938 
L 543.013275 211.363297 
L 542.620665 213.444656 
L 542.247104 215.526015 
L 541.893771 217.607374 
L 541.563188 219.688733 
L 541.258646 221.770092 
L 540.983528 223.851451 
L 540.740639 225.93281 
L 540.531656 228.014169 
L 540.356758 230.095528 
L 540.214501 232.176887 
L 540.101939 234.258246 
L 540.014938 236.339605 
L 539.948624 238.420964 
L 539.897863 240.502323 
L 539.857702 242.583682 
L 539.823696 244.665041 
L 539.7921 246.7464 
L 539.759934 248.827759 
L 539.724944 250.909118 
L 539.685517 252.990478 
L 539.640586 255.071837 
L 539.589562 257.153196 
L 539.532296 259.234555 
L 539.469083 261.315914 
L 539.400655 263.397273 
z
" clip-path="url(#paeae93a476)" style="fill: #1f77b4; fill-opacity: 0.3"/>
   </g>
   <g id="matplotlib.axis_5">
    <g id="ytick_27">
     <g id="line2d_27">
      <g>
       <use xlink:href="#mc421ea5bf5" x="512.0885" y="266.044876" style="stroke: #000000; stroke-width: 0.8"/>
      </g>
     </g>
     <g id="text_35">
      <!-- 0.50 -->
      <g transform="translate(482.822875 269.844094)scale(0.1 -0.1)">
       <use xlink:href="#DejaVuSans-30"/>
       <use xlink:href="#DejaVuSans-2e" x="63.623047"/>
       <use xlink:href="#DejaVuSans-35" x="95.410156"/>
       <use xlink:href="#DejaVuSans-30" x="159.033203"/>
      </g>
     </g>
    </g>
    <g id="ytick_28">
     <g id="line2d_28">
      <g>
       <use xlink:href="#mc421ea5bf5" x="512.0885" y="237.499807" style="stroke: #000000; stroke-width: 0.8"/>
      </g>
     </g>
     <g id="text_36">
      <!-- 0.55 -->
      <g transform="translate(482.822875 241.299025)scale(0.1 -0.1)">
       <use xlink:href="#DejaVuSans-30"/>
       <use xlink:href="#DejaVuSans-2e" x="63.623047"/>
       <use xlink:href="#DejaVuSans-35" x="95.410156"/>
       <use xlink:href="#DejaVuSans-35" x="159.033203"/>
      </g>
     </g>
    </g>
    <g id="ytick_29">
     <g id="line2d_29">
      <g>
       <use xlink:href="#mc421ea5bf5" x="512.0885" y="208.954738" style="stroke: #000000; stroke-width: 0.8"/>
      </g>
     </g>
     <g id="text_37">
      <!-- 0.60 -->
      <g transform="translate(482.822875 212.753957)scale(0.1 -0.1)">
       <use xlink:href="#DejaVuSans-30"/>
       <use xlink:href="#DejaVuSans-2e" x="63.623047"/>
       <use xlink:href="#DejaVuSans-36" x="95.410156"/>
       <use xlink:href="#DejaVuSans-30" x="159.033203"/>
      </g>
     </g>
    </g>
    <g id="ytick_30">
     <g id="line2d_30">
      <g>
       <use xlink:href="#mc421ea5bf5" x="512.0885" y="180.409669" style="stroke: #000000; stroke-width: 0.8"/>
      </g>
     </g>
     <g id="text_38">
      <!-- 0.65 -->
      <g transform="translate(482.822875 184.208888)scale(0.1 -0.1)">
       <use xlink:href="#DejaVuSans-30"/>
       <use xlink:href="#DejaVuSans-2e" x="63.623047"/>
       <use xlink:href="#DejaVuSans-36" x="95.410156"/>
       <use xlink:href="#DejaVuSans-35" x="159.033203"/>
      </g>
     </g>
    </g>
    <g id="ytick_31">
     <g id="line2d_31">
      <g>
       <use xlink:href="#mc421ea5bf5" x="512.0885" y="151.8646" style="stroke: #000000; stroke-width: 0.8"/>
      </g>
     </g>
     <g id="text_39">
      <!-- 0.70 -->
      <g transform="translate(482.822875 155.663819)scale(0.1 -0.1)">
       <use xlink:href="#DejaVuSans-30"/>
       <use xlink:href="#DejaVuSans-2e" x="63.623047"/>
       <use xlink:href="#DejaVuSans-37" x="95.410156"/>
       <use xlink:href="#DejaVuSans-30" x="159.033203"/>
      </g>
     </g>
    </g>
    <g id="ytick_32">
     <g id="line2d_32">
      <g>
       <use xlink:href="#mc421ea5bf5" x="512.0885" y="123.319531" style="stroke: #000000; stroke-width: 0.8"/>
      </g>
     </g>
     <g id="text_40">
      <!-- 0.75 -->
      <g transform="translate(482.822875 127.11875)scale(0.1 -0.1)">
       <use xlink:href="#DejaVuSans-30"/>
       <use xlink:href="#DejaVuSans-2e" x="63.623047"/>
       <use xlink:href="#DejaVuSans-37" x="95.410156"/>
       <use xlink:href="#DejaVuSans-35" x="159.033203"/>
      </g>
     </g>
    </g>
    <g id="ytick_33">
     <g id="line2d_33">
      <g>
       <use xlink:href="#mc421ea5bf5" x="512.0885" y="94.774462" style="stroke: #000000; stroke-width: 0.8"/>
      </g>
     </g>
     <g id="text_41">
      <!-- 0.80 -->
      <g transform="translate(482.822875 98.573681)scale(0.1 -0.1)">
       <use xlink:href="#DejaVuSans-30"/>
       <use xlink:href="#DejaVuSans-2e" x="63.623047"/>
       <use xlink:href="#DejaVuSans-38" x="95.410156"/>
       <use xlink:href="#DejaVuSans-30" x="159.033203"/>
      </g>
     </g>
    </g>
    <g id="ytick_34">
     <g id="line2d_34">
      <g>
       <use xlink:href="#mc421ea5bf5" x="512.0885" y="66.229393" style="stroke: #000000; stroke-width: 0.8"/>
      </g>
     </g>
     <g id="text_42">
      <!-- 0.85 -->
      <g transform="translate(482.822875 70.028612)scale(0.1 -0.1)">
       <use xlink:href="#DejaVuSans-30"/>
       <use xlink:href="#DejaVuSans-2e" x="63.623047"/>
       <use xlink:href="#DejaVuSans-38" x="95.410156"/>
       <use xlink:href="#DejaVuSans-35" x="159.033203"/>
      </g>
     </g>
    </g>
    <g id="text_43">
     <!-- RMSD stepwise [$\AA$] -->
     <g transform="translate(476.722875 207.67)rotate(-90)scale(0.1 -0.1)">
      <defs>
       <path id="DejaVuSans-73" d="M 2834 3397 
L 2834 2853 
Q 2591 2978 2328 3040 
Q 2066 3103 1784 3103 
Q 1356 3103 1142 2972 
Q 928 2841 928 2578 
Q 928 2378 1081 2264 
Q 1234 2150 1697 2047 
L 1894 2003 
Q 2506 1872 2764 1633 
Q 3022 1394 3022 966 
Q 3022 478 2636 193 
Q 2250 -91 1575 -91 
Q 1294 -91 989 -36 
Q 684 19 347 128 
L 347 722 
Q 666 556 975 473 
Q 1284 391 1588 391 
Q 1994 391 2212 530 
Q 2431 669 2431 922 
Q 2431 1156 2273 1281 
Q 2116 1406 1581 1522 
L 1381 1569 
Q 847 1681 609 1914 
Q 372 2147 372 2553 
Q 372 3047 722 3315 
Q 1072 3584 1716 3584 
Q 2034 3584 2315 3537 
Q 2597 3491 2834 3397 
z
" transform="scale(0.015625)"/>
       <path id="DejaVuSans-74" d="M 1172 4494 
L 1172 3500 
L 2356 3500 
L 2356 3053 
L 1172 3053 
L 1172 1153 
Q 1172 725 1289 603 
Q 1406 481 1766 481 
L 2356 481 
L 2356 0 
L 1766 0 
Q 1100 0 847 248 
Q 594 497 594 1153 
L 594 3053 
L 172 3053 
L 172 3500 
L 594 3500 
L 594 4494 
L 1172 4494 
z
" transform="scale(0.015625)"/>
       <path id="DejaVuSans-70" d="M 1159 525 
L 1159 -1331 
L 581 -1331 
L 581 3500 
L 1159 3500 
L 1159 2969 
Q 1341 3281 1617 3432 
Q 1894 3584 2278 3584 
Q 2916 3584 3314 3078 
Q 3713 2572 3713 1747 
Q 3713 922 3314 415 
Q 2916 -91 2278 -91 
Q 1894 -91 1617 61 
Q 1341 213 1159 525 
z
M 3116 1747 
Q 3116 2381 2855 2742 
Q 2594 3103 2138 3103 
Q 1681 3103 1420 2742 
Q 1159 2381 1159 1747 
Q 1159 1113 1420 752 
Q 1681 391 2138 391 
Q 2594 391 2855 752 
Q 3116 1113 3116 1747 
z
" transform="scale(0.015625)"/>
       <path id="DejaVuSans-77" d="M 269 3500 
L 844 3500 
L 1563 769 
L 2278 3500 
L 2956 3500 
L 3675 769 
L 4391 3500 
L 4966 3500 
L 4050 0 
L 3372 0 
L 2619 2869 
L 1863 0 
L 1184 0 
L 269 3500 
z
" transform="scale(0.015625)"/>
      </defs>
      <use xlink:href="#DejaVuSans-52" transform="translate(0 0.171875)"/>
      <use xlink:href="#DejaVuSans-4d" transform="translate(69.482422 0.171875)"/>
      <use xlink:href="#DejaVuSans-53" transform="translate(155.761719 0.171875)"/>
      <use xlink:href="#DejaVuSans-44" transform="translate(219.238281 0.171875)"/>
      <use xlink:href="#DejaVuSans-20" transform="translate(296.240234 0.171875)"/>
      <use xlink:href="#DejaVuSans-73" transform="translate(328.027344 0.171875)"/>
      <use xlink:href="#DejaVuSans-74" transform="translate(380.126953 0.171875)"/>
      <use xlink:href="#DejaVuSans-65" transform="translate(419.335938 0.171875)"/>
      <use xlink:href="#DejaVuSans-70" transform="translate(480.859375 0.171875)"/>
      <use xlink:href="#DejaVuSans-77" transform="translate(544.335938 0.171875)"/>
      <use xlink:href="#DejaVuSans-69" transform="translate(626.123047 0.171875)"/>
      <use xlink:href="#DejaVuSans-73" transform="translate(653.90625 0.171875)"/>
      <use xlink:href="#DejaVuSans-65" transform="translate(706.005859 0.171875)"/>
      <use xlink:href="#DejaVuSans-20" transform="translate(767.529297 0.171875)"/>
      <use xlink:href="#DejaVuSans-5b" transform="translate(799.316406 0.171875)"/>
      <use xlink:href="#DejaVuSans-Oblique-c5" transform="translate(838.330078 0.171875)"/>
      <use xlink:href="#DejaVuSans-5d" transform="translate(906.738281 0.171875)"/>
     </g>
    </g>
   </g>
   <g id="LineCollection_17">
    <path d="M 526.573455 139.163624 
L 550.715045 139.163624 
" clip-path="url(#paeae93a476)" style="fill: none; stroke: #1f77b4; stroke-width: 1.5"/>
   </g>
   <g id="LineCollection_18">
    <path d="M 526.573455 57.342727 
L 550.715045 57.342727 
" clip-path="url(#paeae93a476)" style="fill: none; stroke: #1f77b4; stroke-width: 1.5"/>
   </g>
   <g id="LineCollection_19">
    <path d="M 526.573455 263.397273 
L 550.715045 263.397273 
" clip-path="url(#paeae93a476)" style="fill: none; stroke: #1f77b4; stroke-width: 1.5"/>
   </g>
   <g id="LineCollection_20">
    <path d="M 538.64425 263.397273 
L 538.64425 57.342727 
" clip-path="url(#paeae93a476)" style="fill: none; stroke: #1f77b4; stroke-width: 1.5"/>
   </g>
   <g id="patch_23">
    <path d="M 512.0885 273.7 
L 512.0885 47.04 
" style="fill: none; stroke: #000000; stroke-width: 0.8; stroke-linejoin: miter; stroke-linecap: square"/>
   </g>
   <g id="patch_24">
    <path d="M 565.2 273.7 
L 565.2 47.04 
" style="fill: none; stroke: #000000; stroke-width: 0.8; stroke-linejoin: miter; stroke-linecap: square"/>
   </g>
   <g id="patch_25">
    <path d="M 512.0885 273.7 
L 565.2 273.7 
" style="fill: none; stroke: #000000; stroke-width: 0.8; stroke-linejoin: miter; stroke-linecap: square"/>
   </g>
   <g id="patch_26">
    <path d="M 512.0885 47.04 
L 565.2 47.04 
" style="fill: none; stroke: #000000; stroke-width: 0.8; stroke-linejoin: miter; stroke-linecap: square"/>
   </g>
   <g id="text_44">
    <!-- RMSD stepwise -->
    <g transform="translate(492.592375 41.04)scale(0.12 -0.12)">
     <use xlink:href="#DejaVuSans-52"/>
     <use xlink:href="#DejaVuSans-4d" x="69.482422"/>
     <use xlink:href="#DejaVuSans-53" x="155.761719"/>
     <use xlink:href="#DejaVuSans-44" x="219.238281"/>
     <use xlink:href="#DejaVuSans-20" x="296.240234"/>
     <use xlink:href="#DejaVuSans-73" x="328.027344"/>
     <use xlink:href="#DejaVuSans-74" x="380.126953"/>
     <use xlink:href="#DejaVuSans-65" x="419.335938"/>
     <use xlink:href="#DejaVuSans-70" x="480.859375"/>
     <use xlink:href="#DejaVuSans-77" x="544.335938"/>
     <use xlink:href="#DejaVuSans-69" x="626.123047"/>
     <use xlink:href="#DejaVuSans-73" x="653.90625"/>
     <use xlink:href="#DejaVuSans-65" x="706.005859"/>
    </g>
   </g>
  </g>
  <g id="text_45">
   <!-- Compound 60. Omega -->
   <g transform="translate(220.299375 14.878125)scale(0.12 -0.12)">
    <defs>
     <path id="DejaVuSans-43" d="M 4122 4306 
L 4122 3641 
Q 3803 3938 3442 4084 
Q 3081 4231 2675 4231 
Q 1875 4231 1450 3742 
Q 1025 3253 1025 2328 
Q 1025 1406 1450 917 
Q 1875 428 2675 428 
Q 3081 428 3442 575 
Q 3803 722 4122 1019 
L 4122 359 
Q 3791 134 3420 21 
Q 3050 -91 2638 -91 
Q 1578 -91 968 557 
Q 359 1206 359 2328 
Q 359 3453 968 4101 
Q 1578 4750 2638 4750 
Q 3056 4750 3426 4639 
Q 3797 4528 4122 4306 
z
" transform="scale(0.015625)"/>
     <path id="DejaVuSans-6f" d="M 1959 3097 
Q 1497 3097 1228 2736 
Q 959 2375 959 1747 
Q 959 1119 1226 758 
Q 1494 397 1959 397 
Q 2419 397 2687 759 
Q 2956 1122 2956 1747 
Q 2956 2369 2687 2733 
Q 2419 3097 1959 3097 
z
M 1959 3584 
Q 2709 3584 3137 3096 
Q 3566 2609 3566 1747 
Q 3566 888 3137 398 
Q 2709 -91 1959 -91 
Q 1206 -91 779 398 
Q 353 888 353 1747 
Q 353 2609 779 3096 
Q 1206 3584 1959 3584 
z
" transform="scale(0.015625)"/>
     <path id="DejaVuSans-6d" d="M 3328 2828 
Q 3544 3216 3844 3400 
Q 4144 3584 4550 3584 
Q 5097 3584 5394 3201 
Q 5691 2819 5691 2113 
L 5691 0 
L 5113 0 
L 5113 2094 
Q 5113 2597 4934 2840 
Q 4756 3084 4391 3084 
Q 3944 3084 3684 2787 
Q 3425 2491 3425 1978 
L 3425 0 
L 2847 0 
L 2847 2094 
Q 2847 2600 2669 2842 
Q 2491 3084 2119 3084 
Q 1678 3084 1418 2786 
Q 1159 2488 1159 1978 
L 1159 0 
L 581 0 
L 581 3500 
L 1159 3500 
L 1159 2956 
Q 1356 3278 1631 3431 
Q 1906 3584 2284 3584 
Q 2666 3584 2933 3390 
Q 3200 3197 3328 2828 
z
" transform="scale(0.015625)"/>
     <path id="DejaVuSans-6e" d="M 3513 2113 
L 3513 0 
L 2938 0 
L 2938 2094 
Q 2938 2591 2744 2837 
Q 2550 3084 2163 3084 
Q 1697 3084 1428 2787 
Q 1159 2491 1159 1978 
L 1159 0 
L 581 0 
L 581 3500 
L 1159 3500 
L 1159 2956 
Q 1366 3272 1645 3428 
Q 1925 3584 2291 3584 
Q 2894 3584 3203 3211 
Q 3513 2838 3513 2113 
z
" transform="scale(0.015625)"/>
     <path id="DejaVuSans-67" d="M 2906 1791 
Q 2906 2416 2648 2759 
Q 2391 3103 1925 3103 
Q 1463 3103 1205 2759 
Q 947 2416 947 1791 
Q 947 1169 1205 825 
Q 1463 481 1925 481 
Q 2391 481 2648 825 
Q 2906 1169 2906 1791 
z
M 3481 434 
Q 3481 -459 3084 -895 
Q 2688 -1331 1869 -1331 
Q 1566 -1331 1297 -1286 
Q 1028 -1241 775 -1147 
L 775 -588 
Q 1028 -725 1275 -790 
Q 1522 -856 1778 -856 
Q 2344 -856 2625 -561 
Q 2906 -266 2906 331 
L 2906 616 
Q 2728 306 2450 153 
Q 2172 0 1784 0 
Q 1141 0 747 490 
Q 353 981 353 1791 
Q 353 2603 747 3093 
Q 1141 3584 1784 3584 
Q 2172 3584 2450 3431 
Q 2728 3278 2906 2969 
L 2906 3500 
L 3481 3500 
L 3481 434 
z
" transform="scale(0.015625)"/>
     <path id="DejaVuSans-61" d="M 2194 1759 
Q 1497 1759 1228 1600 
Q 959 1441 959 1056 
Q 959 750 1161 570 
Q 1363 391 1709 391 
Q 2188 391 2477 730 
Q 2766 1069 2766 1631 
L 2766 1759 
L 2194 1759 
z
M 3341 1997 
L 3341 0 
L 2766 0 
L 2766 531 
Q 2569 213 2275 61 
Q 1981 -91 1556 -91 
Q 1019 -91 701 211 
Q 384 513 384 1019 
Q 384 1609 779 1909 
Q 1175 2209 1959 2209 
L 2766 2209 
L 2766 2266 
Q 2766 2663 2505 2880 
Q 2244 3097 1772 3097 
Q 1472 3097 1187 3025 
Q 903 2953 641 2809 
L 641 3341 
Q 956 3463 1253 3523 
Q 1550 3584 1831 3584 
Q 2591 3584 2966 3190 
Q 3341 2797 3341 1997 
z
" transform="scale(0.015625)"/>
    </defs>
    <use xlink:href="#DejaVuSans-43"/>
    <use xlink:href="#DejaVuSans-6f" x="69.824219"/>
    <use xlink:href="#DejaVuSans-6d" x="131.005859"/>
    <use xlink:href="#DejaVuSans-70" x="228.417969"/>
    <use xlink:href="#DejaVuSans-6f" x="291.894531"/>
    <use xlink:href="#DejaVuSans-75" x="353.076172"/>
    <use xlink:href="#DejaVuSans-6e" x="416.455078"/>
    <use xlink:href="#DejaVuSans-64" x="479.833984"/>
    <use xlink:href="#DejaVuSans-20" x="543.310547"/>
    <use xlink:href="#DejaVuSans-36" x="575.097656"/>
    <use xlink:href="#DejaVuSans-30" x="638.720703"/>
    <use xlink:href="#DejaVuSans-2e" x="702.34375"/>
    <use xlink:href="#DejaVuSans-20" x="734.130859"/>
    <use xlink:href="#DejaVuSans-4f" x="765.917969"/>
    <use xlink:href="#DejaVuSans-6d" x="844.628906"/>
    <use xlink:href="#DejaVuSans-65" x="942.041016"/>
    <use xlink:href="#DejaVuSans-67" x="1003.564453"/>
    <use xlink:href="#DejaVuSans-61" x="1067.041016"/>
   </g>
  </g>
 </g>
 <defs>
  <clipPath id="p1985aceb3d">
   <rect x="57.2825" y="47.04" width="53.1115" height="226.66"/>
  </clipPath>
  <clipPath id="p4f262f6ad3">
   <rect x="170.984" y="47.04" width="53.1115" height="226.66"/>
  </clipPath>
  <clipPath id="p4528c703a4">
   <rect x="284.6855" y="47.04" width="53.1115" height="226.66"/>
  </clipPath>
  <clipPath id="p1b37b8883f">
   <rect x="398.387" y="47.04" width="53.1115" height="226.66"/>
  </clipPath>
  <clipPath id="paeae93a476">
   <rect x="512.0885" y="47.04" width="53.1115" height="226.66"/>
  </clipPath>
 </defs>
</svg>
