<?xml version="1.0" encoding="utf-8" standalone="no"?>
<!DOCTYPE svg PUBLIC "-//W3C//DTD SVG 1.1//EN"
  "http://www.w3.org/Graphics/SVG/1.1/DTD/svg11.dtd">
<svg xmlns:xlink="http://www.w3.org/1999/xlink" width="576pt" height="288pt" viewBox="0 0 576 288" xmlns="http://www.w3.org/2000/svg" version="1.1">
 <metadata>
  <rdf:RDF xmlns:dc="http://purl.org/dc/elements/1.1/" xmlns:cc="http://creativecommons.org/ns#" xmlns:rdf="http://www.w3.org/1999/02/22-rdf-syntax-ns#">
   <cc:Work>
    <dc:type rdf:resource="http://purl.org/dc/dcmitype/StillImage"/>
    <dc:date>2023-05-31T12:16:52.237990</dc:date>
    <dc:format>image/svg+xml</dc:format>
    <dc:creator>
     <cc:Agent>
      <dc:title>Matplotlib v3.5.3, https://matplotlib.org/</dc:title>
     </cc:Agent>
    </dc:creator>
   </cc:Work>
  </rdf:RDF>
 </metadata>
 <defs>
  <style type="text/css">*{stroke-linejoin: round; stroke-linecap: butt}</style>
 </defs>
 <g id="figure_1">
  <g id="patch_1">
   <path d="M 0 288 
L 576 288 
L 576 0 
L 0 0 
z
" style="fill: #ffffff"/>
  </g>
  <g id="axes_1">
   <g id="patch_2">
    <path d="M 50.8925 273.7 
L 106.938 273.7 
L 106.938 47.04 
L 50.8925 47.04 
z
" style="fill: #ffffff"/>
   </g>
   <g id="PolyCollection_1">
    <path d="M 79.174909 263.397273 
L 78.655591 263.397273 
L 78.645618 261.315914 
L 78.637147 259.234555 
L 78.627471 257.153196 
L 78.613288 255.071837 
L 78.591072 252.990478 
L 78.557472 250.909118 
L 78.509663 248.827759 
L 78.445569 246.7464 
L 78.36392 244.665041 
L 78.264143 242.583682 
L 78.146124 240.502323 
L 78.0099 238.420964 
L 77.855378 236.339605 
L 77.682127 234.258246 
L 77.489299 232.176887 
L 77.275655 230.095528 
L 77.039675 228.014169 
L 76.779674 225.93281 
L 76.493889 223.851451 
L 76.180515 221.770092 
L 75.837727 219.688733 
L 75.463777 217.607374 
L 75.057242 215.526015 
L 74.617475 213.444656 
L 74.145201 211.363297 
L 73.643123 209.281938 
L 73.116313 207.200579 
L 72.572129 205.119219 
L 72.019534 203.03786 
L 71.467812 200.956501 
L 70.924912 198.875142 
L 70.395786 196.793783 
L 69.88118 194.712424 
L 69.377227 192.631065 
L 68.875999 190.549706 
L 68.366914 188.468347 
L 67.83863 186.386988 
L 67.280945 184.305629 
L 66.686258 182.22427 
L 66.050276 180.142911 
L 65.371957 178.061552 
L 64.652886 175.980193 
L 63.896442 173.898834 
L 63.107166 171.817475 
L 62.29055 169.736116 
L 61.453339 167.654757 
L 60.60414 165.573398 
L 59.754037 163.492039 
L 58.916812 161.41068 
L 58.108515 159.32932 
L 57.346265 157.247961 
L 56.646429 155.166602 
L 56.022523 153.085243 
L 55.48328 151.003884 
L 55.031365 148.922525 
L 54.663051 146.841166 
L 54.369015 144.759807 
L 54.13614 142.678448 
L 53.950018 140.597089 
L 53.797715 138.51573 
L 53.670305 136.434371 
L 53.564729 134.353012 
L 53.484636 132.271653 
L 53.440023 130.190294 
L 53.445654 128.108935 
L 53.518431 126.027576 
L 53.674064 123.946217 
L 53.923548 121.864858 
L 54.270073 119.783499 
L 54.707002 117.70214 
L 55.217431 115.620781 
L 55.775613 113.539421 
L 56.350178 111.458062 
L 56.908694 109.376703 
L 57.422826 107.295344 
L 57.873151 105.213985 
L 58.252752 103.132626 
L 58.568877 101.051267 
L 58.84235 98.969908 
L 59.10482 96.888549 
L 59.39432 94.80719 
L 59.749908 92.725831 
L 60.206283 90.644472 
L 60.789228 88.563113 
L 61.512547 86.481754 
L 62.376865 84.400395 
L 63.370287 82.319036 
L 64.470642 80.237677 
L 65.648749 78.156318 
L 66.872078 76.074959 
L 68.108177 73.9936 
L 69.3274 71.912241 
L 70.504692 69.830882 
L 71.620393 67.749522 
L 72.66023 65.668163 
L 73.614776 63.586804 
L 74.478647 61.505445 
L 75.249692 59.424086 
L 75.9283 57.342727 
L 81.9022 57.342727 
L 81.9022 57.342727 
L 82.580808 59.424086 
L 83.351853 61.505445 
L 84.215724 63.586804 
L 85.17027 65.668163 
L 86.210107 67.749522 
L 87.325808 69.830882 
L 88.5031 71.912241 
L 89.722323 73.9936 
L 90.958422 76.074959 
L 92.181751 78.156318 
L 93.359858 80.237677 
L 94.460213 82.319036 
L 95.453635 84.400395 
L 96.317953 86.481754 
L 97.041272 88.563113 
L 97.624217 90.644472 
L 98.080592 92.725831 
L 98.43618 94.80719 
L 98.72568 96.888549 
L 98.98815 98.969908 
L 99.261623 101.051267 
L 99.577748 103.132626 
L 99.957349 105.213985 
L 100.407674 107.295344 
L 100.921806 109.376703 
L 101.480322 111.458062 
L 102.054887 113.539421 
L 102.613069 115.620781 
L 103.123498 117.70214 
L 103.560427 119.783499 
L 103.906952 121.864858 
L 104.156436 123.946217 
L 104.312069 126.027576 
L 104.384846 128.108935 
L 104.390477 130.190294 
L 104.345864 132.271653 
L 104.265771 134.353012 
L 104.160195 136.434371 
L 104.032785 138.51573 
L 103.880482 140.597089 
L 103.69436 142.678448 
L 103.461485 144.759807 
L 103.167449 146.841166 
L 102.799135 148.922525 
L 102.34722 151.003884 
L 101.807977 153.085243 
L 101.184071 155.166602 
L 100.484235 157.247961 
L 99.721985 159.32932 
L 98.913688 161.41068 
L 98.076463 163.492039 
L 97.22636 165.573398 
L 96.377161 167.654757 
L 95.53995 169.736116 
L 94.723334 171.817475 
L 93.934058 173.898834 
L 93.177614 175.980193 
L 92.458543 178.061552 
L 91.780224 180.142911 
L 91.144242 182.22427 
L 90.549555 184.305629 
L 89.99187 186.386988 
L 89.463586 188.468347 
L 88.954501 190.549706 
L 88.453273 192.631065 
L 87.94932 194.712424 
L 87.434714 196.793783 
L 86.905588 198.875142 
L 86.362688 200.956501 
L 85.810966 203.03786 
L 85.258371 205.119219 
L 84.714187 207.200579 
L 84.187377 209.281938 
L 83.685299 211.363297 
L 83.213025 213.444656 
L 82.773258 215.526015 
L 82.366723 217.607374 
L 81.992773 219.688733 
L 81.649985 221.770092 
L 81.336611 223.851451 
L 81.050826 225.93281 
L 80.790825 228.014169 
L 80.554845 230.095528 
L 80.341201 232.176887 
L 80.148373 234.258246 
L 79.975122 236.339605 
L 79.8206 238.420964 
L 79.684376 240.502323 
L 79.566357 242.583682 
L 79.46658 244.665041 
L 79.384931 246.7464 
L 79.320837 248.827759 
L 79.273028 250.909118 
L 79.239428 252.990478 
L 79.217212 255.071837 
L 79.203029 257.153196 
L 79.193353 259.234555 
L 79.184882 261.315914 
L 79.174909 263.397273 
z
" clip-path="url(#p1d3321500c)" style="fill: #1f77b4; fill-opacity: 0.3"/>
   </g>
   <g id="matplotlib.axis_1">
    <g id="ytick_1">
     <g id="line2d_1">
      <defs>
       <path id="m430be43013" d="M 0 0 
L -3.5 0 
" style="stroke: #000000; stroke-width: 0.8"/>
      </defs>
      <g>
       <use xlink:href="#m430be43013" x="50.8925" y="256.373345" style="stroke: #000000; stroke-width: 0.8"/>
      </g>
     </g>
     <g id="text_1">
      <!-- 0.4 -->
      <g transform="translate(27.989375 260.172564)scale(0.1 -0.1)">
       <defs>
        <path id="DejaVuSans-30" d="M 2034 4250 
Q 1547 4250 1301 3770 
Q 1056 3291 1056 2328 
Q 1056 1369 1301 889 
Q 1547 409 2034 409 
Q 2525 409 2770 889 
Q 3016 1369 3016 2328 
Q 3016 3291 2770 3770 
Q 2525 4250 2034 4250 
z
M 2034 4750 
Q 2819 4750 3233 4129 
Q 3647 3509 3647 2328 
Q 3647 1150 3233 529 
Q 2819 -91 2034 -91 
Q 1250 -91 836 529 
Q 422 1150 422 2328 
Q 422 3509 836 4129 
Q 1250 4750 2034 4750 
z
" transform="scale(0.015625)"/>
        <path id="DejaVuSans-2e" d="M 684 794 
L 1344 794 
L 1344 0 
L 684 0 
L 684 794 
z
" transform="scale(0.015625)"/>
        <path id="DejaVuSans-34" d="M 2419 4116 
L 825 1625 
L 2419 1625 
L 2419 4116 
z
M 2253 4666 
L 3047 4666 
L 3047 1625 
L 3713 1625 
L 3713 1100 
L 3047 1100 
L 3047 0 
L 2419 0 
L 2419 1100 
L 313 1100 
L 313 1709 
L 2253 4666 
z
" transform="scale(0.015625)"/>
       </defs>
       <use xlink:href="#DejaVuSans-30"/>
       <use xlink:href="#DejaVuSans-2e" x="63.623047"/>
       <use xlink:href="#DejaVuSans-34" x="95.410156"/>
      </g>
     </g>
    </g>
    <g id="ytick_2">
     <g id="line2d_2">
      <g>
       <use xlink:href="#m430be43013" x="50.8925" y="215.505515" style="stroke: #000000; stroke-width: 0.8"/>
      </g>
     </g>
     <g id="text_2">
      <!-- 0.5 -->
      <g transform="translate(27.989375 219.304734)scale(0.1 -0.1)">
       <defs>
        <path id="DejaVuSans-35" d="M 691 4666 
L 3169 4666 
L 3169 4134 
L 1269 4134 
L 1269 2991 
Q 1406 3038 1543 3061 
Q 1681 3084 1819 3084 
Q 2600 3084 3056 2656 
Q 3513 2228 3513 1497 
Q 3513 744 3044 326 
Q 2575 -91 1722 -91 
Q 1428 -91 1123 -41 
Q 819 9 494 109 
L 494 744 
Q 775 591 1075 516 
Q 1375 441 1709 441 
Q 2250 441 2565 725 
Q 2881 1009 2881 1497 
Q 2881 1984 2565 2268 
Q 2250 2553 1709 2553 
Q 1456 2553 1204 2497 
Q 953 2441 691 2322 
L 691 4666 
z
" transform="scale(0.015625)"/>
       </defs>
       <use xlink:href="#DejaVuSans-30"/>
       <use xlink:href="#DejaVuSans-2e" x="63.623047"/>
       <use xlink:href="#DejaVuSans-35" x="95.410156"/>
      </g>
     </g>
    </g>
    <g id="ytick_3">
     <g id="line2d_3">
      <g>
       <use xlink:href="#m430be43013" x="50.8925" y="174.637686" style="stroke: #000000; stroke-width: 0.8"/>
      </g>
     </g>
     <g id="text_3">
      <!-- 0.6 -->
      <g transform="translate(27.989375 178.436905)scale(0.1 -0.1)">
       <defs>
        <path id="DejaVuSans-36" d="M 2113 2584 
Q 1688 2584 1439 2293 
Q 1191 2003 1191 1497 
Q 1191 994 1439 701 
Q 1688 409 2113 409 
Q 2538 409 2786 701 
Q 3034 994 3034 1497 
Q 3034 2003 2786 2293 
Q 2538 2584 2113 2584 
z
M 3366 4563 
L 3366 3988 
Q 3128 4100 2886 4159 
Q 2644 4219 2406 4219 
Q 1781 4219 1451 3797 
Q 1122 3375 1075 2522 
Q 1259 2794 1537 2939 
Q 1816 3084 2150 3084 
Q 2853 3084 3261 2657 
Q 3669 2231 3669 1497 
Q 3669 778 3244 343 
Q 2819 -91 2113 -91 
Q 1303 -91 875 529 
Q 447 1150 447 2328 
Q 447 3434 972 4092 
Q 1497 4750 2381 4750 
Q 2619 4750 2861 4703 
Q 3103 4656 3366 4563 
z
" transform="scale(0.015625)"/>
       </defs>
       <use xlink:href="#DejaVuSans-30"/>
       <use xlink:href="#DejaVuSans-2e" x="63.623047"/>
       <use xlink:href="#DejaVuSans-36" x="95.410156"/>
      </g>
     </g>
    </g>
    <g id="ytick_4">
     <g id="line2d_4">
      <g>
       <use xlink:href="#m430be43013" x="50.8925" y="133.769857" style="stroke: #000000; stroke-width: 0.8"/>
      </g>
     </g>
     <g id="text_4">
      <!-- 0.7 -->
      <g transform="translate(27.989375 137.569075)scale(0.1 -0.1)">
       <defs>
        <path id="DejaVuSans-37" d="M 525 4666 
L 3525 4666 
L 3525 4397 
L 1831 0 
L 1172 0 
L 2766 4134 
L 525 4134 
L 525 4666 
z
" transform="scale(0.015625)"/>
       </defs>
       <use xlink:href="#DejaVuSans-30"/>
       <use xlink:href="#DejaVuSans-2e" x="63.623047"/>
       <use xlink:href="#DejaVuSans-37" x="95.410156"/>
      </g>
     </g>
    </g>
    <g id="ytick_5">
     <g id="line2d_5">
      <g>
       <use xlink:href="#m430be43013" x="50.8925" y="92.902027" style="stroke: #000000; stroke-width: 0.8"/>
      </g>
     </g>
     <g id="text_5">
      <!-- 0.8 -->
      <g transform="translate(27.989375 96.701246)scale(0.1 -0.1)">
       <defs>
        <path id="DejaVuSans-38" d="M 2034 2216 
Q 1584 2216 1326 1975 
Q 1069 1734 1069 1313 
Q 1069 891 1326 650 
Q 1584 409 2034 409 
Q 2484 409 2743 651 
Q 3003 894 3003 1313 
Q 3003 1734 2745 1975 
Q 2488 2216 2034 2216 
z
M 1403 2484 
Q 997 2584 770 2862 
Q 544 3141 544 3541 
Q 544 4100 942 4425 
Q 1341 4750 2034 4750 
Q 2731 4750 3128 4425 
Q 3525 4100 3525 3541 
Q 3525 3141 3298 2862 
Q 3072 2584 2669 2484 
Q 3125 2378 3379 2068 
Q 3634 1759 3634 1313 
Q 3634 634 3220 271 
Q 2806 -91 2034 -91 
Q 1263 -91 848 271 
Q 434 634 434 1313 
Q 434 1759 690 2068 
Q 947 2378 1403 2484 
z
M 1172 3481 
Q 1172 3119 1398 2916 
Q 1625 2713 2034 2713 
Q 2441 2713 2670 2916 
Q 2900 3119 2900 3481 
Q 2900 3844 2670 4047 
Q 2441 4250 2034 4250 
Q 1625 4250 1398 4047 
Q 1172 3844 1172 3481 
z
" transform="scale(0.015625)"/>
       </defs>
       <use xlink:href="#DejaVuSans-30"/>
       <use xlink:href="#DejaVuSans-2e" x="63.623047"/>
       <use xlink:href="#DejaVuSans-38" x="95.410156"/>
      </g>
     </g>
    </g>
    <g id="ytick_6">
     <g id="line2d_6">
      <g>
       <use xlink:href="#m430be43013" x="50.8925" y="52.034198" style="stroke: #000000; stroke-width: 0.8"/>
      </g>
     </g>
     <g id="text_6">
      <!-- 0.9 -->
      <g transform="translate(27.989375 55.833417)scale(0.1 -0.1)">
       <defs>
        <path id="DejaVuSans-39" d="M 703 97 
L 703 672 
Q 941 559 1184 500 
Q 1428 441 1663 441 
Q 2288 441 2617 861 
Q 2947 1281 2994 2138 
Q 2813 1869 2534 1725 
Q 2256 1581 1919 1581 
Q 1219 1581 811 2004 
Q 403 2428 403 3163 
Q 403 3881 828 4315 
Q 1253 4750 1959 4750 
Q 2769 4750 3195 4129 
Q 3622 3509 3622 2328 
Q 3622 1225 3098 567 
Q 2575 -91 1691 -91 
Q 1453 -91 1209 -44 
Q 966 3 703 97 
z
M 1959 2075 
Q 2384 2075 2632 2365 
Q 2881 2656 2881 3163 
Q 2881 3666 2632 3958 
Q 2384 4250 1959 4250 
Q 1534 4250 1286 3958 
Q 1038 3666 1038 3163 
Q 1038 2656 1286 2365 
Q 1534 2075 1959 2075 
z
" transform="scale(0.015625)"/>
       </defs>
       <use xlink:href="#DejaVuSans-30"/>
       <use xlink:href="#DejaVuSans-2e" x="63.623047"/>
       <use xlink:href="#DejaVuSans-39" x="95.410156"/>
      </g>
     </g>
    </g>
    <g id="text_7">
     <!-- RMSD [$\AA$] -->
     <g transform="translate(21.909688 184.12)rotate(-90)scale(0.1 -0.1)">
      <defs>
       <path id="DejaVuSans-52" d="M 2841 2188 
Q 3044 2119 3236 1894 
Q 3428 1669 3622 1275 
L 4263 0 
L 3584 0 
L 2988 1197 
Q 2756 1666 2539 1819 
Q 2322 1972 1947 1972 
L 1259 1972 
L 1259 0 
L 628 0 
L 628 4666 
L 2053 4666 
Q 2853 4666 3247 4331 
Q 3641 3997 3641 3322 
Q 3641 2881 3436 2590 
Q 3231 2300 2841 2188 
z
M 1259 4147 
L 1259 2491 
L 2053 2491 
Q 2509 2491 2742 2702 
Q 2975 2913 2975 3322 
Q 2975 3731 2742 3939 
Q 2509 4147 2053 4147 
L 1259 4147 
z
" transform="scale(0.015625)"/>
       <path id="DejaVuSans-4d" d="M 628 4666 
L 1569 4666 
L 2759 1491 
L 3956 4666 
L 4897 4666 
L 4897 0 
L 4281 0 
L 4281 4097 
L 3078 897 
L 2444 897 
L 1241 4097 
L 1241 0 
L 628 0 
L 628 4666 
z
" transform="scale(0.015625)"/>
       <path id="DejaVuSans-53" d="M 3425 4513 
L 3425 3897 
Q 3066 4069 2747 4153 
Q 2428 4238 2131 4238 
Q 1616 4238 1336 4038 
Q 1056 3838 1056 3469 
Q 1056 3159 1242 3001 
Q 1428 2844 1947 2747 
L 2328 2669 
Q 3034 2534 3370 2195 
Q 3706 1856 3706 1288 
Q 3706 609 3251 259 
Q 2797 -91 1919 -91 
Q 1588 -91 1214 -16 
Q 841 59 441 206 
L 441 856 
Q 825 641 1194 531 
Q 1563 422 1919 422 
Q 2459 422 2753 634 
Q 3047 847 3047 1241 
Q 3047 1584 2836 1778 
Q 2625 1972 2144 2069 
L 1759 2144 
Q 1053 2284 737 2584 
Q 422 2884 422 3419 
Q 422 4038 858 4394 
Q 1294 4750 2059 4750 
Q 2388 4750 2728 4690 
Q 3069 4631 3425 4513 
z
" transform="scale(0.015625)"/>
       <path id="DejaVuSans-44" d="M 1259 4147 
L 1259 519 
L 2022 519 
Q 2988 519 3436 956 
Q 3884 1394 3884 2338 
Q 3884 3275 3436 3711 
Q 2988 4147 2022 4147 
L 1259 4147 
z
M 628 4666 
L 1925 4666 
Q 3281 4666 3915 4102 
Q 4550 3538 4550 2338 
Q 4550 1131 3912 565 
Q 3275 0 1925 0 
L 628 0 
L 628 4666 
z
" transform="scale(0.015625)"/>
       <path id="DejaVuSans-20" transform="scale(0.015625)"/>
       <path id="DejaVuSans-5b" d="M 550 4863 
L 1875 4863 
L 1875 4416 
L 1125 4416 
L 1125 -397 
L 1875 -397 
L 1875 -844 
L 550 -844 
L 550 4863 
z
" transform="scale(0.015625)"/>
       <path id="DejaVuSans-Oblique-c5" d="M 3188 5081 
Q 3188 5278 3048 5417 
Q 2909 5556 2713 5556 
Q 2513 5556 2377 5420 
Q 2241 5284 2241 5081 
Q 2241 4884 2377 4746 
Q 2513 4609 2713 4609 
Q 2909 4609 3048 4746 
Q 3188 4884 3188 5081 
z
M 2203 4397 
Q 2034 4513 1945 4689 
Q 1856 4866 1856 5081 
Q 1856 5438 2106 5689 
Q 2356 5941 2713 5941 
Q 3069 5941 3320 5689 
Q 3572 5438 3572 5081 
Q 3572 4834 3458 4643 
Q 3344 4453 3128 4341 
L 3938 0 
L 3278 0 
L 3084 1197 
L 984 1197 
L 325 0 
L -341 0 
L 2203 4397 
z
M 2584 4044 
L 1275 1722 
L 2988 1722 
L 2584 4044 
z
" transform="scale(0.015625)"/>
       <path id="DejaVuSans-5d" d="M 1947 4863 
L 1947 -844 
L 622 -844 
L 622 -397 
L 1369 -397 
L 1369 4416 
L 622 4416 
L 622 4863 
L 1947 4863 
z
" transform="scale(0.015625)"/>
      </defs>
      <use xlink:href="#DejaVuSans-52" transform="translate(0 0.171875)"/>
      <use xlink:href="#DejaVuSans-4d" transform="translate(69.482422 0.171875)"/>
      <use xlink:href="#DejaVuSans-53" transform="translate(155.761719 0.171875)"/>
      <use xlink:href="#DejaVuSans-44" transform="translate(219.238281 0.171875)"/>
      <use xlink:href="#DejaVuSans-20" transform="translate(296.240234 0.171875)"/>
      <use xlink:href="#DejaVuSans-5b" transform="translate(328.027344 0.171875)"/>
      <use xlink:href="#DejaVuSans-Oblique-c5" transform="translate(367.041016 0.171875)"/>
      <use xlink:href="#DejaVuSans-5d" transform="translate(435.449219 0.171875)"/>
     </g>
    </g>
   </g>
   <g id="LineCollection_1">
    <path d="M 66.177636 134.436443 
L 91.652864 134.436443 
" clip-path="url(#p1d3321500c)" style="fill: none; stroke: #1f77b4; stroke-width: 1.5"/>
   </g>
   <g id="LineCollection_2">
    <path d="M 66.177636 57.342727 
L 91.652864 57.342727 
" clip-path="url(#p1d3321500c)" style="fill: none; stroke: #1f77b4; stroke-width: 1.5"/>
   </g>
   <g id="LineCollection_3">
    <path d="M 66.177636 263.397273 
L 91.652864 263.397273 
" clip-path="url(#p1d3321500c)" style="fill: none; stroke: #1f77b4; stroke-width: 1.5"/>
   </g>
   <g id="LineCollection_4">
    <path d="M 78.91525 263.397273 
L 78.91525 57.342727 
" clip-path="url(#p1d3321500c)" style="fill: none; stroke: #1f77b4; stroke-width: 1.5"/>
   </g>
   <g id="patch_3">
    <path d="M 50.8925 273.7 
L 50.8925 47.04 
" style="fill: none; stroke: #000000; stroke-width: 0.8; stroke-linejoin: miter; stroke-linecap: square"/>
   </g>
   <g id="patch_4">
    <path d="M 106.938 273.7 
L 106.938 47.04 
" style="fill: none; stroke: #000000; stroke-width: 0.8; stroke-linejoin: miter; stroke-linecap: square"/>
   </g>
   <g id="patch_5">
    <path d="M 50.8925 273.7 
L 106.938 273.7 
" style="fill: none; stroke: #000000; stroke-width: 0.8; stroke-linejoin: miter; stroke-linecap: square"/>
   </g>
   <g id="patch_6">
    <path d="M 50.8925 47.04 
L 106.938 47.04 
" style="fill: none; stroke: #000000; stroke-width: 0.8; stroke-linejoin: miter; stroke-linecap: square"/>
   </g>
   <g id="text_8">
    <!-- RMSD -->
    <g transform="translate(61.14025 41.04)scale(0.12 -0.12)">
     <use xlink:href="#DejaVuSans-52"/>
     <use xlink:href="#DejaVuSans-4d" x="69.482422"/>
     <use xlink:href="#DejaVuSans-53" x="155.761719"/>
     <use xlink:href="#DejaVuSans-44" x="219.238281"/>
    </g>
   </g>
  </g>
  <g id="axes_2">
   <g id="patch_7">
    <path d="M 165.458 273.7 
L 221.5035 273.7 
L 221.5035 47.04 
L 165.458 47.04 
z
" style="fill: #ffffff"/>
   </g>
   <g id="PolyCollection_2">
    <path d="M 193.805914 263.397273 
L 193.155586 263.397273 
L 193.112412 261.315914 
L 193.059618 259.234555 
L 192.99261 257.153196 
L 192.906343 255.071837 
L 192.795764 252.990478 
L 192.656251 250.909118 
L 192.483969 248.827759 
L 192.276117 246.7464 
L 192.031074 244.665041 
L 191.748498 242.583682 
L 191.429435 240.502323 
L 191.076485 238.420964 
L 190.693999 236.339605 
L 190.288243 234.258246 
L 189.867369 232.176887 
L 189.44105 230.095528 
L 189.019674 228.014169 
L 188.613078 225.93281 
L 188.228954 223.851451 
L 187.87119 221.770092 
L 187.538461 219.688733 
L 187.223438 217.607374 
L 186.912847 215.526015 
L 186.588503 213.444656 
L 186.229217 211.363297 
L 185.813317 209.281938 
L 185.32141 207.200579 
L 184.738944 205.119219 
L 184.058201 203.03786 
L 183.279432 200.956501 
L 182.411014 198.875142 
L 181.468619 196.793783 
L 180.473569 194.712424 
L 179.450581 192.631065 
L 178.425226 190.549706 
L 177.421412 188.468347 
L 176.459221 186.386988 
L 175.55335 184.305629 
L 174.712354 182.22427 
L 173.938758 180.142911 
L 173.229946 178.061552 
L 172.579655 175.980193 
L 171.97977 173.898834 
L 171.422128 171.817475 
L 170.900068 169.736116 
L 170.409529 167.654757 
L 169.949632 165.573398 
L 169.522733 163.492039 
L 169.134001 161.41068 
L 168.790619 159.32932 
L 168.5007 157.247961 
L 168.272079 155.166602 
L 168.111142 153.085243 
L 168.021906 151.003884 
L 168.005523 148.922525 
L 168.060328 146.841166 
L 168.182432 144.759807 
L 168.366695 142.678448 
L 168.607834 140.597089 
L 168.90134 138.51573 
L 169.243975 136.434371 
L 169.633698 134.353012 
L 170.069095 132.271653 
L 170.548523 130.190294 
L 171.069292 128.108935 
L 171.627181 126.027576 
L 172.216519 123.946217 
L 172.830851 121.864858 
L 173.464025 119.783499 
L 174.111403 117.70214 
L 174.770805 115.620781 
L 175.442874 113.539421 
L 176.130675 111.458062 
L 176.838585 109.376703 
L 177.570699 107.295344 
L 178.329181 105.213985 
L 179.112964 103.132626 
L 179.917185 101.051267 
L 180.733502 98.969908 
L 181.551227 96.888549 
L 182.359002 94.80719 
L 183.146579 92.725831 
L 183.906267 90.644472 
L 184.633692 88.563113 
L 185.327739 86.481754 
L 185.989755 84.400395 
L 186.622288 82.319036 
L 187.227752 80.237677 
L 187.807402 78.156318 
L 188.360859 76.074959 
L 188.886264 73.9936 
L 189.380933 71.912241 
L 189.842258 69.830882 
L 190.268535 67.749522 
L 190.659487 65.668163 
L 191.016339 63.586804 
L 191.341468 61.505445 
L 191.637786 59.424086 
L 191.908067 57.342727 
L 195.053433 57.342727 
L 195.053433 57.342727 
L 195.323714 59.424086 
L 195.620032 61.505445 
L 195.945161 63.586804 
L 196.302013 65.668163 
L 196.692965 67.749522 
L 197.119242 69.830882 
L 197.580567 71.912241 
L 198.075236 73.9936 
L 198.600641 76.074959 
L 199.154098 78.156318 
L 199.733748 80.237677 
L 200.339212 82.319036 
L 200.971745 84.400395 
L 201.633761 86.481754 
L 202.327808 88.563113 
L 203.055233 90.644472 
L 203.814921 92.725831 
L 204.602498 94.80719 
L 205.410273 96.888549 
L 206.227998 98.969908 
L 207.044315 101.051267 
L 207.848536 103.132626 
L 208.632319 105.213985 
L 209.390801 107.295344 
L 210.122915 109.376703 
L 210.830825 111.458062 
L 211.518626 113.539421 
L 212.190695 115.620781 
L 212.850097 117.70214 
L 213.497475 119.783499 
L 214.130649 121.864858 
L 214.744981 123.946217 
L 215.334319 126.027576 
L 215.892208 128.108935 
L 216.412977 130.190294 
L 216.892405 132.271653 
L 217.327802 134.353012 
L 217.717525 136.434371 
L 218.06016 138.51573 
L 218.353666 140.597089 
L 218.594805 142.678448 
L 218.779068 144.759807 
L 218.901172 146.841166 
L 218.955977 148.922525 
L 218.939594 151.003884 
L 218.850358 153.085243 
L 218.689421 155.166602 
L 218.4608 157.247961 
L 218.170881 159.32932 
L 217.827499 161.41068 
L 217.438767 163.492039 
L 217.011868 165.573398 
L 216.551971 167.654757 
L 216.061432 169.736116 
L 215.539372 171.817475 
L 214.98173 173.898834 
L 214.381845 175.980193 
L 213.731554 178.061552 
L 213.022742 180.142911 
L 212.249146 182.22427 
L 211.40815 184.305629 
L 210.502279 186.386988 
L 209.540088 188.468347 
L 208.536274 190.549706 
L 207.510919 192.631065 
L 206.487931 194.712424 
L 205.492881 196.793783 
L 204.550486 198.875142 
L 203.682068 200.956501 
L 202.903299 203.03786 
L 202.222556 205.119219 
L 201.64009 207.200579 
L 201.148183 209.281938 
L 200.732283 211.363297 
L 200.372997 213.444656 
L 200.048653 215.526015 
L 199.738062 217.607374 
L 199.423039 219.688733 
L 199.09031 221.770092 
L 198.732546 223.851451 
L 198.348422 225.93281 
L 197.941826 228.014169 
L 197.52045 230.095528 
L 197.094131 232.176887 
L 196.673257 234.258246 
L 196.267501 236.339605 
L 195.885015 238.420964 
L 195.532065 240.502323 
L 195.213002 242.583682 
L 194.930426 244.665041 
L 194.685383 246.7464 
L 194.477531 248.827759 
L 194.305249 250.909118 
L 194.165736 252.990478 
L 194.055157 255.071837 
L 193.96889 257.153196 
L 193.901882 259.234555 
L 193.849088 261.315914 
L 193.805914 263.397273 
z
" clip-path="url(#pad858cbf0d)" style="fill: #1f77b4; fill-opacity: 0.3"/>
   </g>
   <g id="matplotlib.axis_2">
    <g id="ytick_7">
     <g id="line2d_7">
      <g>
       <use xlink:href="#m430be43013" x="165.458" y="253.647181" style="stroke: #000000; stroke-width: 0.8"/>
      </g>
     </g>
     <g id="text_9">
      <!-- 0.30 -->
      <g transform="translate(136.192375 257.446399)scale(0.1 -0.1)">
       <defs>
        <path id="DejaVuSans-33" d="M 2597 2516 
Q 3050 2419 3304 2112 
Q 3559 1806 3559 1356 
Q 3559 666 3084 287 
Q 2609 -91 1734 -91 
Q 1441 -91 1130 -33 
Q 819 25 488 141 
L 488 750 
Q 750 597 1062 519 
Q 1375 441 1716 441 
Q 2309 441 2620 675 
Q 2931 909 2931 1356 
Q 2931 1769 2642 2001 
Q 2353 2234 1838 2234 
L 1294 2234 
L 1294 2753 
L 1863 2753 
Q 2328 2753 2575 2939 
Q 2822 3125 2822 3475 
Q 2822 3834 2567 4026 
Q 2313 4219 1838 4219 
Q 1578 4219 1281 4162 
Q 984 4106 628 3988 
L 628 4550 
Q 988 4650 1302 4700 
Q 1616 4750 1894 4750 
Q 2613 4750 3031 4423 
Q 3450 4097 3450 3541 
Q 3450 3153 3228 2886 
Q 3006 2619 2597 2516 
z
" transform="scale(0.015625)"/>
       </defs>
       <use xlink:href="#DejaVuSans-30"/>
       <use xlink:href="#DejaVuSans-2e" x="63.623047"/>
       <use xlink:href="#DejaVuSans-33" x="95.410156"/>
       <use xlink:href="#DejaVuSans-30" x="159.033203"/>
      </g>
     </g>
    </g>
    <g id="ytick_8">
     <g id="line2d_8">
      <g>
       <use xlink:href="#m430be43013" x="165.458" y="222.846152" style="stroke: #000000; stroke-width: 0.8"/>
      </g>
     </g>
     <g id="text_10">
      <!-- 0.35 -->
      <g transform="translate(136.192375 226.64537)scale(0.1 -0.1)">
       <use xlink:href="#DejaVuSans-30"/>
       <use xlink:href="#DejaVuSans-2e" x="63.623047"/>
       <use xlink:href="#DejaVuSans-33" x="95.410156"/>
       <use xlink:href="#DejaVuSans-35" x="159.033203"/>
      </g>
     </g>
    </g>
    <g id="ytick_9">
     <g id="line2d_9">
      <g>
       <use xlink:href="#m430be43013" x="165.458" y="192.045123" style="stroke: #000000; stroke-width: 0.8"/>
      </g>
     </g>
     <g id="text_11">
      <!-- 0.40 -->
      <g transform="translate(136.192375 195.844342)scale(0.1 -0.1)">
       <use xlink:href="#DejaVuSans-30"/>
       <use xlink:href="#DejaVuSans-2e" x="63.623047"/>
       <use xlink:href="#DejaVuSans-34" x="95.410156"/>
       <use xlink:href="#DejaVuSans-30" x="159.033203"/>
      </g>
     </g>
    </g>
    <g id="ytick_10">
     <g id="line2d_10">
      <g>
       <use xlink:href="#m430be43013" x="165.458" y="161.244094" style="stroke: #000000; stroke-width: 0.8"/>
      </g>
     </g>
     <g id="text_12">
      <!-- 0.45 -->
      <g transform="translate(136.192375 165.043313)scale(0.1 -0.1)">
       <use xlink:href="#DejaVuSans-30"/>
       <use xlink:href="#DejaVuSans-2e" x="63.623047"/>
       <use xlink:href="#DejaVuSans-34" x="95.410156"/>
       <use xlink:href="#DejaVuSans-35" x="159.033203"/>
      </g>
     </g>
    </g>
    <g id="ytick_11">
     <g id="line2d_11">
      <g>
       <use xlink:href="#m430be43013" x="165.458" y="130.443065" style="stroke: #000000; stroke-width: 0.8"/>
      </g>
     </g>
     <g id="text_13">
      <!-- 0.50 -->
      <g transform="translate(136.192375 134.242284)scale(0.1 -0.1)">
       <use xlink:href="#DejaVuSans-30"/>
       <use xlink:href="#DejaVuSans-2e" x="63.623047"/>
       <use xlink:href="#DejaVuSans-35" x="95.410156"/>
       <use xlink:href="#DejaVuSans-30" x="159.033203"/>
      </g>
     </g>
    </g>
    <g id="ytick_12">
     <g id="line2d_12">
      <g>
       <use xlink:href="#m430be43013" x="165.458" y="99.642036" style="stroke: #000000; stroke-width: 0.8"/>
      </g>
     </g>
     <g id="text_14">
      <!-- 0.55 -->
      <g transform="translate(136.192375 103.441255)scale(0.1 -0.1)">
       <use xlink:href="#DejaVuSans-30"/>
       <use xlink:href="#DejaVuSans-2e" x="63.623047"/>
       <use xlink:href="#DejaVuSans-35" x="95.410156"/>
       <use xlink:href="#DejaVuSans-35" x="159.033203"/>
      </g>
     </g>
    </g>
    <g id="ytick_13">
     <g id="line2d_13">
      <g>
       <use xlink:href="#m430be43013" x="165.458" y="68.841007" style="stroke: #000000; stroke-width: 0.8"/>
      </g>
     </g>
     <g id="text_15">
      <!-- 0.60 -->
      <g transform="translate(136.192375 72.640226)scale(0.1 -0.1)">
       <use xlink:href="#DejaVuSans-30"/>
       <use xlink:href="#DejaVuSans-2e" x="63.623047"/>
       <use xlink:href="#DejaVuSans-36" x="95.410156"/>
       <use xlink:href="#DejaVuSans-30" x="159.033203"/>
      </g>
     </g>
    </g>
    <g id="text_16">
     <!-- MAE [$\AA$] -->
     <g transform="translate(130.112687 180.22)rotate(-90)scale(0.1 -0.1)">
      <defs>
       <path id="DejaVuSans-41" d="M 2188 4044 
L 1331 1722 
L 3047 1722 
L 2188 4044 
z
M 1831 4666 
L 2547 4666 
L 4325 0 
L 3669 0 
L 3244 1197 
L 1141 1197 
L 716 0 
L 50 0 
L 1831 4666 
z
" transform="scale(0.015625)"/>
       <path id="DejaVuSans-45" d="M 628 4666 
L 3578 4666 
L 3578 4134 
L 1259 4134 
L 1259 2753 
L 3481 2753 
L 3481 2222 
L 1259 2222 
L 1259 531 
L 3634 531 
L 3634 0 
L 628 0 
L 628 4666 
z
" transform="scale(0.015625)"/>
      </defs>
      <use xlink:href="#DejaVuSans-4d" transform="translate(0 0.171875)"/>
      <use xlink:href="#DejaVuSans-41" transform="translate(86.279297 0.171875)"/>
      <use xlink:href="#DejaVuSans-45" transform="translate(154.6875 0.171875)"/>
      <use xlink:href="#DejaVuSans-20" transform="translate(217.871094 0.171875)"/>
      <use xlink:href="#DejaVuSans-5b" transform="translate(249.658203 0.171875)"/>
      <use xlink:href="#DejaVuSans-Oblique-c5" transform="translate(288.671875 0.171875)"/>
      <use xlink:href="#DejaVuSans-5d" transform="translate(357.080078 0.171875)"/>
     </g>
    </g>
   </g>
   <g id="LineCollection_5">
    <path d="M 180.743136 149.114248 
L 206.218364 149.114248 
" clip-path="url(#pad858cbf0d)" style="fill: none; stroke: #1f77b4; stroke-width: 1.5"/>
   </g>
   <g id="LineCollection_6">
    <path d="M 180.743136 57.342727 
L 206.218364 57.342727 
" clip-path="url(#pad858cbf0d)" style="fill: none; stroke: #1f77b4; stroke-width: 1.5"/>
   </g>
   <g id="LineCollection_7">
    <path d="M 180.743136 263.397273 
L 206.218364 263.397273 
" clip-path="url(#pad858cbf0d)" style="fill: none; stroke: #1f77b4; stroke-width: 1.5"/>
   </g>
   <g id="LineCollection_8">
    <path d="M 193.48075 263.397273 
L 193.48075 57.342727 
" clip-path="url(#pad858cbf0d)" style="fill: none; stroke: #1f77b4; stroke-width: 1.5"/>
   </g>
   <g id="patch_8">
    <path d="M 165.458 273.7 
L 165.458 47.04 
" style="fill: none; stroke: #000000; stroke-width: 0.8; stroke-linejoin: miter; stroke-linecap: square"/>
   </g>
   <g id="patch_9">
    <path d="M 221.5035 273.7 
L 221.5035 47.04 
" style="fill: none; stroke: #000000; stroke-width: 0.8; stroke-linejoin: miter; stroke-linecap: square"/>
   </g>
   <g id="patch_10">
    <path d="M 165.458 273.7 
L 221.5035 273.7 
" style="fill: none; stroke: #000000; stroke-width: 0.8; stroke-linejoin: miter; stroke-linecap: square"/>
   </g>
   <g id="patch_11">
    <path d="M 165.458 47.04 
L 221.5035 47.04 
" style="fill: none; stroke: #000000; stroke-width: 0.8; stroke-linejoin: miter; stroke-linecap: square"/>
   </g>
   <g id="text_17">
    <!-- MAE -->
    <g transform="translate(180.40825 41.04)scale(0.12 -0.12)">
     <use xlink:href="#DejaVuSans-4d"/>
     <use xlink:href="#DejaVuSans-41" x="86.279297"/>
     <use xlink:href="#DejaVuSans-45" x="154.6875"/>
    </g>
   </g>
  </g>
  <g id="axes_3">
   <g id="patch_12">
    <path d="M 280.0235 273.7 
L 336.069 273.7 
L 336.069 47.04 
L 280.0235 47.04 
z
" style="fill: #ffffff"/>
   </g>
   <g id="PolyCollection_3">
    <path d="M 308.560686 263.397273 
L 307.531814 263.397273 
L 307.464988 261.315914 
L 307.400429 259.234555 
L 307.33994 257.153196 
L 307.285261 255.071837 
L 307.237945 252.990478 
L 307.199152 250.909118 
L 307.169335 248.827759 
L 307.147841 246.7464 
L 307.13245 244.665041 
L 307.118911 242.583682 
L 307.10056 240.502323 
L 307.068115 238.420964 
L 307.009727 236.339605 
L 306.911376 234.258246 
L 306.757623 232.176887 
L 306.532704 230.095528 
L 306.221865 228.014169 
L 305.812772 225.93281 
L 305.296833 223.851451 
L 304.670238 221.770092 
L 303.934576 219.688733 
L 303.096982 217.607374 
L 302.169792 215.526015 
L 301.169798 213.444656 
L 300.117188 211.363297 
L 299.034317 209.281938 
L 297.9444 207.200579 
L 296.87023 205.119219 
L 295.833006 203.03786 
L 294.851288 200.956501 
L 293.940148 198.875142 
L 293.110488 196.793783 
L 292.368518 194.712424 
L 291.715372 192.631065 
L 291.146833 190.549706 
L 290.653212 188.468347 
L 290.219469 186.386988 
L 289.825755 184.305629 
L 289.448601 182.22427 
L 289.062902 180.142911 
L 288.644721 178.061552 
L 288.174677 175.980193 
L 287.641403 173.898834 
L 287.044343 171.817475 
L 286.395116 169.736116 
L 285.716831 167.654757 
L 285.041177 165.573398 
L 284.403631 163.492039 
L 283.837684 161.41068 
L 283.369298 159.32932 
L 283.01287 157.247961 
L 282.769622 155.166602 
L 282.628758 153.085243 
L 282.571023 151.003884 
L 282.57369 148.922525 
L 282.615719 146.841166 
L 282.681837 144.759807 
L 282.764721 142.678448 
L 282.865001 140.597089 
L 282.989411 138.51573 
L 283.14785 136.434371 
L 283.350271 134.353012 
L 283.604201 132.271653 
L 283.913403 130.190294 
L 284.27777 128.108935 
L 284.694242 126.027576 
L 285.15831 123.946217 
L 285.665653 121.864858 
L 286.213508 119.783499 
L 286.801528 117.70214 
L 287.431998 115.620781 
L 288.109375 113.539421 
L 288.839235 111.458062 
L 289.626752 109.376703 
L 290.474969 107.295344 
L 291.383182 105.213985 
L 292.345814 103.132626 
L 293.352091 101.051267 
L 294.386676 98.969908 
L 295.431193 96.888549 
L 296.466338 94.80719 
L 297.474131 92.725831 
L 298.439801 90.644472 
L 299.352965 88.563113 
L 300.207917 86.481754 
L 301.003127 84.400395 
L 301.740176 82.319036 
L 302.422484 80.237677 
L 303.054112 78.156318 
L 303.638859 76.074959 
L 304.179735 73.9936 
L 304.678785 71.912241 
L 305.137188 69.830882 
L 305.555528 67.749522 
L 305.934139 65.668163 
L 306.273433 63.586804 
L 306.574172 61.505445 
L 306.837636 59.424086 
L 307.065664 57.342727 
L 309.026836 57.342727 
L 309.026836 57.342727 
L 309.254864 59.424086 
L 309.518328 61.505445 
L 309.819067 63.586804 
L 310.158361 65.668163 
L 310.536972 67.749522 
L 310.955312 69.830882 
L 311.413715 71.912241 
L 311.912765 73.9936 
L 312.453641 76.074959 
L 313.038388 78.156318 
L 313.670016 80.237677 
L 314.352324 82.319036 
L 315.089373 84.400395 
L 315.884583 86.481754 
L 316.739535 88.563113 
L 317.652699 90.644472 
L 318.618369 92.725831 
L 319.626162 94.80719 
L 320.661307 96.888549 
L 321.705824 98.969908 
L 322.740409 101.051267 
L 323.746686 103.132626 
L 324.709318 105.213985 
L 325.617531 107.295344 
L 326.465748 109.376703 
L 327.253265 111.458062 
L 327.983125 113.539421 
L 328.660502 115.620781 
L 329.290972 117.70214 
L 329.878992 119.783499 
L 330.426847 121.864858 
L 330.93419 123.946217 
L 331.398258 126.027576 
L 331.81473 128.108935 
L 332.179097 130.190294 
L 332.488299 132.271653 
L 332.742229 134.353012 
L 332.94465 136.434371 
L 333.103089 138.51573 
L 333.227499 140.597089 
L 333.327779 142.678448 
L 333.410663 144.759807 
L 333.476781 146.841166 
L 333.51881 148.922525 
L 333.521477 151.003884 
L 333.463742 153.085243 
L 333.322878 155.166602 
L 333.07963 157.247961 
L 332.723202 159.32932 
L 332.254816 161.41068 
L 331.688869 163.492039 
L 331.051323 165.573398 
L 330.375669 167.654757 
L 329.697384 169.736116 
L 329.048157 171.817475 
L 328.451097 173.898834 
L 327.917823 175.980193 
L 327.447779 178.061552 
L 327.029598 180.142911 
L 326.643899 182.22427 
L 326.266745 184.305629 
L 325.873031 186.386988 
L 325.439288 188.468347 
L 324.945667 190.549706 
L 324.377128 192.631065 
L 323.723982 194.712424 
L 322.982012 196.793783 
L 322.152352 198.875142 
L 321.241212 200.956501 
L 320.259494 203.03786 
L 319.22227 205.119219 
L 318.1481 207.200579 
L 317.058183 209.281938 
L 315.975312 211.363297 
L 314.922702 213.444656 
L 313.922708 215.526015 
L 312.995518 217.607374 
L 312.157924 219.688733 
L 311.422262 221.770092 
L 310.795667 223.851451 
L 310.279728 225.93281 
L 309.870635 228.014169 
L 309.559796 230.095528 
L 309.334877 232.176887 
L 309.181124 234.258246 
L 309.082773 236.339605 
L 309.024385 238.420964 
L 308.99194 240.502323 
L 308.973589 242.583682 
L 308.96005 244.665041 
L 308.944659 246.7464 
L 308.923165 248.827759 
L 308.893348 250.909118 
L 308.854555 252.990478 
L 308.807239 255.071837 
L 308.75256 257.153196 
L 308.692071 259.234555 
L 308.627512 261.315914 
L 308.560686 263.397273 
z
" clip-path="url(#p64e1ba98dc)" style="fill: #1f77b4; fill-opacity: 0.3"/>
   </g>
   <g id="matplotlib.axis_3">
    <g id="ytick_14">
     <g id="line2d_14">
      <g>
       <use xlink:href="#m430be43013" x="280.0235" y="247.877591" style="stroke: #000000; stroke-width: 0.8"/>
      </g>
     </g>
     <g id="text_18">
      <!-- 0.15 -->
      <g transform="translate(250.757875 251.676809)scale(0.1 -0.1)">
       <defs>
        <path id="DejaVuSans-31" d="M 794 531 
L 1825 531 
L 1825 4091 
L 703 3866 
L 703 4441 
L 1819 4666 
L 2450 4666 
L 2450 531 
L 3481 531 
L 3481 0 
L 794 0 
L 794 531 
z
" transform="scale(0.015625)"/>
       </defs>
       <use xlink:href="#DejaVuSans-30"/>
       <use xlink:href="#DejaVuSans-2e" x="63.623047"/>
       <use xlink:href="#DejaVuSans-31" x="95.410156"/>
       <use xlink:href="#DejaVuSans-35" x="159.033203"/>
      </g>
     </g>
    </g>
    <g id="ytick_15">
     <g id="line2d_15">
      <g>
       <use xlink:href="#m430be43013" x="280.0235" y="219.389019" style="stroke: #000000; stroke-width: 0.8"/>
      </g>
     </g>
     <g id="text_19">
      <!-- 0.20 -->
      <g transform="translate(250.757875 223.188238)scale(0.1 -0.1)">
       <defs>
        <path id="DejaVuSans-32" d="M 1228 531 
L 3431 531 
L 3431 0 
L 469 0 
L 469 531 
Q 828 903 1448 1529 
Q 2069 2156 2228 2338 
Q 2531 2678 2651 2914 
Q 2772 3150 2772 3378 
Q 2772 3750 2511 3984 
Q 2250 4219 1831 4219 
Q 1534 4219 1204 4116 
Q 875 4013 500 3803 
L 500 4441 
Q 881 4594 1212 4672 
Q 1544 4750 1819 4750 
Q 2544 4750 2975 4387 
Q 3406 4025 3406 3419 
Q 3406 3131 3298 2873 
Q 3191 2616 2906 2266 
Q 2828 2175 2409 1742 
Q 1991 1309 1228 531 
z
" transform="scale(0.015625)"/>
       </defs>
       <use xlink:href="#DejaVuSans-30"/>
       <use xlink:href="#DejaVuSans-2e" x="63.623047"/>
       <use xlink:href="#DejaVuSans-32" x="95.410156"/>
       <use xlink:href="#DejaVuSans-30" x="159.033203"/>
      </g>
     </g>
    </g>
    <g id="ytick_16">
     <g id="line2d_16">
      <g>
       <use xlink:href="#m430be43013" x="280.0235" y="190.900447" style="stroke: #000000; stroke-width: 0.8"/>
      </g>
     </g>
     <g id="text_20">
      <!-- 0.25 -->
      <g transform="translate(250.757875 194.699666)scale(0.1 -0.1)">
       <use xlink:href="#DejaVuSans-30"/>
       <use xlink:href="#DejaVuSans-2e" x="63.623047"/>
       <use xlink:href="#DejaVuSans-32" x="95.410156"/>
       <use xlink:href="#DejaVuSans-35" x="159.033203"/>
      </g>
     </g>
    </g>
    <g id="ytick_17">
     <g id="line2d_17">
      <g>
       <use xlink:href="#m430be43013" x="280.0235" y="162.411875" style="stroke: #000000; stroke-width: 0.8"/>
      </g>
     </g>
     <g id="text_21">
      <!-- 0.30 -->
      <g transform="translate(250.757875 166.211094)scale(0.1 -0.1)">
       <use xlink:href="#DejaVuSans-30"/>
       <use xlink:href="#DejaVuSans-2e" x="63.623047"/>
       <use xlink:href="#DejaVuSans-33" x="95.410156"/>
       <use xlink:href="#DejaVuSans-30" x="159.033203"/>
      </g>
     </g>
    </g>
    <g id="ytick_18">
     <g id="line2d_18">
      <g>
       <use xlink:href="#m430be43013" x="280.0235" y="133.923303" style="stroke: #000000; stroke-width: 0.8"/>
      </g>
     </g>
     <g id="text_22">
      <!-- 0.35 -->
      <g transform="translate(250.757875 137.722522)scale(0.1 -0.1)">
       <use xlink:href="#DejaVuSans-30"/>
       <use xlink:href="#DejaVuSans-2e" x="63.623047"/>
       <use xlink:href="#DejaVuSans-33" x="95.410156"/>
       <use xlink:href="#DejaVuSans-35" x="159.033203"/>
      </g>
     </g>
    </g>
    <g id="ytick_19">
     <g id="line2d_19">
      <g>
       <use xlink:href="#m430be43013" x="280.0235" y="105.434731" style="stroke: #000000; stroke-width: 0.8"/>
      </g>
     </g>
     <g id="text_23">
      <!-- 0.40 -->
      <g transform="translate(250.757875 109.23395)scale(0.1 -0.1)">
       <use xlink:href="#DejaVuSans-30"/>
       <use xlink:href="#DejaVuSans-2e" x="63.623047"/>
       <use xlink:href="#DejaVuSans-34" x="95.410156"/>
       <use xlink:href="#DejaVuSans-30" x="159.033203"/>
      </g>
     </g>
    </g>
    <g id="ytick_20">
     <g id="line2d_20">
      <g>
       <use xlink:href="#m430be43013" x="280.0235" y="76.946159" style="stroke: #000000; stroke-width: 0.8"/>
      </g>
     </g>
     <g id="text_24">
      <!-- 0.45 -->
      <g transform="translate(250.757875 80.745378)scale(0.1 -0.1)">
       <use xlink:href="#DejaVuSans-30"/>
       <use xlink:href="#DejaVuSans-2e" x="63.623047"/>
       <use xlink:href="#DejaVuSans-34" x="95.410156"/>
       <use xlink:href="#DejaVuSans-35" x="159.033203"/>
      </g>
     </g>
    </g>
    <g id="ytick_21">
     <g id="line2d_21">
      <g>
       <use xlink:href="#m430be43013" x="280.0235" y="48.457587" style="stroke: #000000; stroke-width: 0.8"/>
      </g>
     </g>
     <g id="text_25">
      <!-- 0.50 -->
      <g transform="translate(250.757875 52.256806)scale(0.1 -0.1)">
       <use xlink:href="#DejaVuSans-30"/>
       <use xlink:href="#DejaVuSans-2e" x="63.623047"/>
       <use xlink:href="#DejaVuSans-35" x="95.410156"/>
       <use xlink:href="#DejaVuSans-30" x="159.033203"/>
      </g>
     </g>
    </g>
    <g id="text_26">
     <!-- MSE [$\AA$] -->
     <g transform="translate(244.678187 179.97)rotate(-90)scale(0.1 -0.1)">
      <use xlink:href="#DejaVuSans-4d" transform="translate(0 0.171875)"/>
      <use xlink:href="#DejaVuSans-53" transform="translate(86.279297 0.171875)"/>
      <use xlink:href="#DejaVuSans-45" transform="translate(149.755859 0.171875)"/>
      <use xlink:href="#DejaVuSans-20" transform="translate(212.939453 0.171875)"/>
      <use xlink:href="#DejaVuSans-5b" transform="translate(244.726562 0.171875)"/>
      <use xlink:href="#DejaVuSans-Oblique-c5" transform="translate(283.740234 0.171875)"/>
      <use xlink:href="#DejaVuSans-5d" transform="translate(352.148438 0.171875)"/>
     </g>
    </g>
   </g>
   <g id="LineCollection_9">
    <path d="M 295.308636 148.55951 
L 320.783864 148.55951 
" clip-path="url(#p64e1ba98dc)" style="fill: none; stroke: #1f77b4; stroke-width: 1.5"/>
   </g>
   <g id="LineCollection_10">
    <path d="M 295.308636 57.342727 
L 320.783864 57.342727 
" clip-path="url(#p64e1ba98dc)" style="fill: none; stroke: #1f77b4; stroke-width: 1.5"/>
   </g>
   <g id="LineCollection_11">
    <path d="M 295.308636 263.397273 
L 320.783864 263.397273 
" clip-path="url(#p64e1ba98dc)" style="fill: none; stroke: #1f77b4; stroke-width: 1.5"/>
   </g>
   <g id="LineCollection_12">
    <path d="M 308.04625 263.397273 
L 308.04625 57.342727 
" clip-path="url(#p64e1ba98dc)" style="fill: none; stroke: #1f77b4; stroke-width: 1.5"/>
   </g>
   <g id="patch_13">
    <path d="M 280.0235 273.7 
L 280.0235 47.04 
" style="fill: none; stroke: #000000; stroke-width: 0.8; stroke-linejoin: miter; stroke-linecap: square"/>
   </g>
   <g id="patch_14">
    <path d="M 336.069 273.7 
L 336.069 47.04 
" style="fill: none; stroke: #000000; stroke-width: 0.8; stroke-linejoin: miter; stroke-linecap: square"/>
   </g>
   <g id="patch_15">
    <path d="M 280.0235 273.7 
L 336.069 273.7 
" style="fill: none; stroke: #000000; stroke-width: 0.8; stroke-linejoin: miter; stroke-linecap: square"/>
   </g>
   <g id="patch_16">
    <path d="M 280.0235 47.04 
L 336.069 47.04 
" style="fill: none; stroke: #000000; stroke-width: 0.8; stroke-linejoin: miter; stroke-linecap: square"/>
   </g>
   <g id="text_27">
    <!-- MSE -->
    <g transform="translate(295.269062 41.04)scale(0.12 -0.12)">
     <use xlink:href="#DejaVuSans-4d"/>
     <use xlink:href="#DejaVuSans-53" x="86.279297"/>
     <use xlink:href="#DejaVuSans-45" x="149.755859"/>
    </g>
   </g>
  </g>
  <g id="axes_4">
   <g id="patch_17">
    <path d="M 394.589 273.7 
L 450.6345 273.7 
L 450.6345 47.04 
L 394.589 47.04 
z
" style="fill: #ffffff"/>
   </g>
   <g id="PolyCollection_4">
    <path d="M 423.19625 263.397273 
L 422.02725 263.397273 
L 421.979305 261.315914 
L 421.929818 259.234555 
L 421.875482 257.153196 
L 421.812498 255.071837 
L 421.736789 252.990478 
L 421.644028 250.909118 
L 421.529389 248.827759 
L 421.387113 246.7464 
L 421.210043 244.665041 
L 420.989429 242.583682 
L 420.715257 240.502323 
L 420.37732 238.420964 
L 419.966967 236.339605 
L 419.479259 234.258246 
L 418.914945 232.176887 
L 418.281573 230.095528 
L 417.593069 228.014169 
L 416.867483 225.93281 
L 416.123064 223.851451 
L 415.373463 221.770092 
L 414.623344 219.688733 
L 413.865853 217.607374 
L 413.083156 215.526015 
L 412.250534 213.444656 
L 411.34348 211.363297 
L 410.346207 209.281938 
L 409.259214 207.200579 
L 408.103452 205.119219 
L 406.919294 203.03786 
L 405.759824 200.956501 
L 404.679689 198.875142 
L 403.722209 196.793783 
L 402.908391 194.712424 
L 402.231222 192.631065 
L 401.657437 190.549706 
L 401.136844 188.468347 
L 400.617037 186.386988 
L 400.059531 184.305629 
L 399.452672 182.22427 
L 398.817332 180.142911 
L 398.203384 178.061552 
L 397.67759 175.980193 
L 397.306106 173.898834 
L 397.136523 171.817475 
L 397.184581 169.736116 
L 397.429424 167.654757 
L 397.818743 165.573398 
L 398.282274 163.492039 
L 398.749653 161.41068 
L 399.167418 159.32932 
L 399.510308 157.247961 
L 399.783832 155.166602 
L 400.017804 153.085243 
L 400.253239 151.003884 
L 400.526967 148.922525 
L 400.858821 146.841166 
L 401.24528 144.759807 
L 401.661306 142.678448 
L 402.069484 140.597089 
L 402.433308 138.51573 
L 402.730253 136.434371 
L 402.960447 134.353012 
L 403.148251 132.271653 
L 403.336286 130.190294 
L 403.573853 128.108935 
L 403.903297 126.027576 
L 404.348452 123.946217 
L 404.908521 121.864858 
L 405.559016 119.783499 
L 406.259237 117.70214 
L 406.963832 115.620781 
L 407.634941 113.539421 
L 408.251423 111.458062 
L 408.81273 109.376703 
L 409.33672 107.295344 
L 409.852465 105.213985 
L 410.390522 103.132626 
L 410.973619 101.051267 
L 411.610373 98.969908 
L 412.293529 96.888549 
L 413.002791 94.80719 
L 413.710998 92.725831 
L 414.391576 90.644472 
L 415.025055 88.563113 
L 415.60297 86.481754 
L 416.12836 84.400395 
L 416.613176 82.319036 
L 417.073666 80.237677 
L 417.525279 78.156318 
L 417.978489 76.074959 
L 418.436542 73.9936 
L 418.895406 71.912241 
L 419.345603 69.830882 
L 419.775138 67.749522 
L 420.172597 65.668163 
L 420.529601 63.586804 
L 420.842125 61.505445 
L 421.110594 59.424086 
L 421.338983 57.342727 
L 423.884517 57.342727 
L 423.884517 57.342727 
L 424.112906 59.424086 
L 424.381375 61.505445 
L 424.693899 63.586804 
L 425.050903 65.668163 
L 425.448362 67.749522 
L 425.877897 69.830882 
L 426.328094 71.912241 
L 426.786958 73.9936 
L 427.245011 76.074959 
L 427.698221 78.156318 
L 428.149834 80.237677 
L 428.610324 82.319036 
L 429.09514 84.400395 
L 429.62053 86.481754 
L 430.198445 88.563113 
L 430.831924 90.644472 
L 431.512502 92.725831 
L 432.220709 94.80719 
L 432.929971 96.888549 
L 433.613127 98.969908 
L 434.249881 101.051267 
L 434.832978 103.132626 
L 435.371035 105.213985 
L 435.88678 107.295344 
L 436.41077 109.376703 
L 436.972077 111.458062 
L 437.588559 113.539421 
L 438.259668 115.620781 
L 438.964263 117.70214 
L 439.664484 119.783499 
L 440.314979 121.864858 
L 440.875048 123.946217 
L 441.320203 126.027576 
L 441.649647 128.108935 
L 441.887214 130.190294 
L 442.075249 132.271653 
L 442.263053 134.353012 
L 442.493247 136.434371 
L 442.790192 138.51573 
L 443.154016 140.597089 
L 443.562194 142.678448 
L 443.97822 144.759807 
L 444.364679 146.841166 
L 444.696533 148.922525 
L 444.970261 151.003884 
L 445.205696 153.085243 
L 445.439668 155.166602 
L 445.713192 157.247961 
L 446.056082 159.32932 
L 446.473847 161.41068 
L 446.941226 163.492039 
L 447.404757 165.573398 
L 447.794076 167.654757 
L 448.038919 169.736116 
L 448.086977 171.817475 
L 447.917394 173.898834 
L 447.54591 175.980193 
L 447.020116 178.061552 
L 446.406168 180.142911 
L 445.770828 182.22427 
L 445.163969 184.305629 
L 444.606463 186.386988 
L 444.086656 188.468347 
L 443.566063 190.549706 
L 442.992278 192.631065 
L 442.315109 194.712424 
L 441.501291 196.793783 
L 440.543811 198.875142 
L 439.463676 200.956501 
L 438.304206 203.03786 
L 437.120048 205.119219 
L 435.964286 207.200579 
L 434.877293 209.281938 
L 433.88002 211.363297 
L 432.972966 213.444656 
L 432.140344 215.526015 
L 431.357647 217.607374 
L 430.600156 219.688733 
L 429.850037 221.770092 
L 429.100436 223.851451 
L 428.356017 225.93281 
L 427.630431 228.014169 
L 426.941927 230.095528 
L 426.308555 232.176887 
L 425.744241 234.258246 
L 425.256533 236.339605 
L 424.84618 238.420964 
L 424.508243 240.502323 
L 424.234071 242.583682 
L 424.013457 244.665041 
L 423.836387 246.7464 
L 423.694111 248.827759 
L 423.579472 250.909118 
L 423.486711 252.990478 
L 423.411002 255.071837 
L 423.348018 257.153196 
L 423.293682 259.234555 
L 423.244195 261.315914 
L 423.19625 263.397273 
z
" clip-path="url(#pa70fab665a)" style="fill: #1f77b4; fill-opacity: 0.3"/>
   </g>
   <g id="matplotlib.axis_4">
    <g id="ytick_22">
     <g id="line2d_22">
      <g>
       <use xlink:href="#m430be43013" x="394.589" y="241.647071" style="stroke: #000000; stroke-width: 0.8"/>
      </g>
     </g>
     <g id="text_28">
      <!-- 0.45 -->
      <g transform="translate(365.323375 245.446289)scale(0.1 -0.1)">
       <use xlink:href="#DejaVuSans-30"/>
       <use xlink:href="#DejaVuSans-2e" x="63.623047"/>
       <use xlink:href="#DejaVuSans-34" x="95.410156"/>
       <use xlink:href="#DejaVuSans-35" x="159.033203"/>
      </g>
     </g>
    </g>
    <g id="ytick_23">
     <g id="line2d_23">
      <g>
       <use xlink:href="#m430be43013" x="394.589" y="206.159899" style="stroke: #000000; stroke-width: 0.8"/>
      </g>
     </g>
     <g id="text_29">
      <!-- 0.50 -->
      <g transform="translate(365.323375 209.959118)scale(0.1 -0.1)">
       <use xlink:href="#DejaVuSans-30"/>
       <use xlink:href="#DejaVuSans-2e" x="63.623047"/>
       <use xlink:href="#DejaVuSans-35" x="95.410156"/>
       <use xlink:href="#DejaVuSans-30" x="159.033203"/>
      </g>
     </g>
    </g>
    <g id="ytick_24">
     <g id="line2d_24">
      <g>
       <use xlink:href="#m430be43013" x="394.589" y="170.672727" style="stroke: #000000; stroke-width: 0.8"/>
      </g>
     </g>
     <g id="text_30">
      <!-- 0.55 -->
      <g transform="translate(365.323375 174.471946)scale(0.1 -0.1)">
       <use xlink:href="#DejaVuSans-30"/>
       <use xlink:href="#DejaVuSans-2e" x="63.623047"/>
       <use xlink:href="#DejaVuSans-35" x="95.410156"/>
       <use xlink:href="#DejaVuSans-35" x="159.033203"/>
      </g>
     </g>
    </g>
    <g id="ytick_25">
     <g id="line2d_25">
      <g>
       <use xlink:href="#m430be43013" x="394.589" y="135.185556" style="stroke: #000000; stroke-width: 0.8"/>
      </g>
     </g>
     <g id="text_31">
      <!-- 0.60 -->
      <g transform="translate(365.323375 138.984774)scale(0.1 -0.1)">
       <use xlink:href="#DejaVuSans-30"/>
       <use xlink:href="#DejaVuSans-2e" x="63.623047"/>
       <use xlink:href="#DejaVuSans-36" x="95.410156"/>
       <use xlink:href="#DejaVuSans-30" x="159.033203"/>
      </g>
     </g>
    </g>
    <g id="ytick_26">
     <g id="line2d_26">
      <g>
       <use xlink:href="#m430be43013" x="394.589" y="99.698384" style="stroke: #000000; stroke-width: 0.8"/>
      </g>
     </g>
     <g id="text_32">
      <!-- 0.65 -->
      <g transform="translate(365.323375 103.497603)scale(0.1 -0.1)">
       <use xlink:href="#DejaVuSans-30"/>
       <use xlink:href="#DejaVuSans-2e" x="63.623047"/>
       <use xlink:href="#DejaVuSans-36" x="95.410156"/>
       <use xlink:href="#DejaVuSans-35" x="159.033203"/>
      </g>
     </g>
    </g>
    <g id="ytick_27">
     <g id="line2d_27">
      <g>
       <use xlink:href="#m430be43013" x="394.589" y="64.211212" style="stroke: #000000; stroke-width: 0.8"/>
      </g>
     </g>
     <g id="text_33">
      <!-- 0.70 -->
      <g transform="translate(365.323375 68.010431)scale(0.1 -0.1)">
       <use xlink:href="#DejaVuSans-30"/>
       <use xlink:href="#DejaVuSans-2e" x="63.623047"/>
       <use xlink:href="#DejaVuSans-37" x="95.410156"/>
       <use xlink:href="#DejaVuSans-30" x="159.033203"/>
      </g>
     </g>
    </g>
    <g id="text_34">
     <!-- % NOE fulfilled [1/100 %] -->
     <g transform="translate(359.243688 223.870781)rotate(-90)scale(0.1 -0.1)">
      <defs>
       <path id="DejaVuSans-25" d="M 4653 2053 
Q 4381 2053 4226 1822 
Q 4072 1591 4072 1178 
Q 4072 772 4226 539 
Q 4381 306 4653 306 
Q 4919 306 5073 539 
Q 5228 772 5228 1178 
Q 5228 1588 5073 1820 
Q 4919 2053 4653 2053 
z
M 4653 2450 
Q 5147 2450 5437 2106 
Q 5728 1763 5728 1178 
Q 5728 594 5436 251 
Q 5144 -91 4653 -91 
Q 4153 -91 3862 251 
Q 3572 594 3572 1178 
Q 3572 1766 3864 2108 
Q 4156 2450 4653 2450 
z
M 1428 4353 
Q 1159 4353 1004 4120 
Q 850 3888 850 3481 
Q 850 3069 1003 2837 
Q 1156 2606 1428 2606 
Q 1700 2606 1854 2837 
Q 2009 3069 2009 3481 
Q 2009 3884 1853 4118 
Q 1697 4353 1428 4353 
z
M 4250 4750 
L 4750 4750 
L 1831 -91 
L 1331 -91 
L 4250 4750 
z
M 1428 4750 
Q 1922 4750 2215 4408 
Q 2509 4066 2509 3481 
Q 2509 2891 2217 2550 
Q 1925 2209 1428 2209 
Q 931 2209 642 2551 
Q 353 2894 353 3481 
Q 353 4063 643 4406 
Q 934 4750 1428 4750 
z
" transform="scale(0.015625)"/>
       <path id="DejaVuSans-4e" d="M 628 4666 
L 1478 4666 
L 3547 763 
L 3547 4666 
L 4159 4666 
L 4159 0 
L 3309 0 
L 1241 3903 
L 1241 0 
L 628 0 
L 628 4666 
z
" transform="scale(0.015625)"/>
       <path id="DejaVuSans-4f" d="M 2522 4238 
Q 1834 4238 1429 3725 
Q 1025 3213 1025 2328 
Q 1025 1447 1429 934 
Q 1834 422 2522 422 
Q 3209 422 3611 934 
Q 4013 1447 4013 2328 
Q 4013 3213 3611 3725 
Q 3209 4238 2522 4238 
z
M 2522 4750 
Q 3503 4750 4090 4092 
Q 4678 3434 4678 2328 
Q 4678 1225 4090 567 
Q 3503 -91 2522 -91 
Q 1538 -91 948 565 
Q 359 1222 359 2328 
Q 359 3434 948 4092 
Q 1538 4750 2522 4750 
z
" transform="scale(0.015625)"/>
       <path id="DejaVuSans-66" d="M 2375 4863 
L 2375 4384 
L 1825 4384 
Q 1516 4384 1395 4259 
Q 1275 4134 1275 3809 
L 1275 3500 
L 2222 3500 
L 2222 3053 
L 1275 3053 
L 1275 0 
L 697 0 
L 697 3053 
L 147 3053 
L 147 3500 
L 697 3500 
L 697 3744 
Q 697 4328 969 4595 
Q 1241 4863 1831 4863 
L 2375 4863 
z
" transform="scale(0.015625)"/>
       <path id="DejaVuSans-75" d="M 544 1381 
L 544 3500 
L 1119 3500 
L 1119 1403 
Q 1119 906 1312 657 
Q 1506 409 1894 409 
Q 2359 409 2629 706 
Q 2900 1003 2900 1516 
L 2900 3500 
L 3475 3500 
L 3475 0 
L 2900 0 
L 2900 538 
Q 2691 219 2414 64 
Q 2138 -91 1772 -91 
Q 1169 -91 856 284 
Q 544 659 544 1381 
z
M 1991 3584 
L 1991 3584 
z
" transform="scale(0.015625)"/>
       <path id="DejaVuSans-6c" d="M 603 4863 
L 1178 4863 
L 1178 0 
L 603 0 
L 603 4863 
z
" transform="scale(0.015625)"/>
       <path id="DejaVuSans-69" d="M 603 3500 
L 1178 3500 
L 1178 0 
L 603 0 
L 603 3500 
z
M 603 4863 
L 1178 4863 
L 1178 4134 
L 603 4134 
L 603 4863 
z
" transform="scale(0.015625)"/>
       <path id="DejaVuSans-65" d="M 3597 1894 
L 3597 1613 
L 953 1613 
Q 991 1019 1311 708 
Q 1631 397 2203 397 
Q 2534 397 2845 478 
Q 3156 559 3463 722 
L 3463 178 
Q 3153 47 2828 -22 
Q 2503 -91 2169 -91 
Q 1331 -91 842 396 
Q 353 884 353 1716 
Q 353 2575 817 3079 
Q 1281 3584 2069 3584 
Q 2775 3584 3186 3129 
Q 3597 2675 3597 1894 
z
M 3022 2063 
Q 3016 2534 2758 2815 
Q 2500 3097 2075 3097 
Q 1594 3097 1305 2825 
Q 1016 2553 972 2059 
L 3022 2063 
z
" transform="scale(0.015625)"/>
       <path id="DejaVuSans-64" d="M 2906 2969 
L 2906 4863 
L 3481 4863 
L 3481 0 
L 2906 0 
L 2906 525 
Q 2725 213 2448 61 
Q 2172 -91 1784 -91 
Q 1150 -91 751 415 
Q 353 922 353 1747 
Q 353 2572 751 3078 
Q 1150 3584 1784 3584 
Q 2172 3584 2448 3432 
Q 2725 3281 2906 2969 
z
M 947 1747 
Q 947 1113 1208 752 
Q 1469 391 1925 391 
Q 2381 391 2643 752 
Q 2906 1113 2906 1747 
Q 2906 2381 2643 2742 
Q 2381 3103 1925 3103 
Q 1469 3103 1208 2742 
Q 947 2381 947 1747 
z
" transform="scale(0.015625)"/>
       <path id="DejaVuSans-2f" d="M 1625 4666 
L 2156 4666 
L 531 -594 
L 0 -594 
L 1625 4666 
z
" transform="scale(0.015625)"/>
      </defs>
      <use xlink:href="#DejaVuSans-25"/>
      <use xlink:href="#DejaVuSans-20" x="95.019531"/>
      <use xlink:href="#DejaVuSans-4e" x="126.806641"/>
      <use xlink:href="#DejaVuSans-4f" x="201.611328"/>
      <use xlink:href="#DejaVuSans-45" x="280.322266"/>
      <use xlink:href="#DejaVuSans-20" x="343.505859"/>
      <use xlink:href="#DejaVuSans-66" x="375.292969"/>
      <use xlink:href="#DejaVuSans-75" x="410.498047"/>
      <use xlink:href="#DejaVuSans-6c" x="473.876953"/>
      <use xlink:href="#DejaVuSans-66" x="501.660156"/>
      <use xlink:href="#DejaVuSans-69" x="536.865234"/>
      <use xlink:href="#DejaVuSans-6c" x="564.648438"/>
      <use xlink:href="#DejaVuSans-6c" x="592.431641"/>
      <use xlink:href="#DejaVuSans-65" x="620.214844"/>
      <use xlink:href="#DejaVuSans-64" x="681.738281"/>
      <use xlink:href="#DejaVuSans-20" x="745.214844"/>
      <use xlink:href="#DejaVuSans-5b" x="777.001953"/>
      <use xlink:href="#DejaVuSans-31" x="816.015625"/>
      <use xlink:href="#DejaVuSans-2f" x="879.638672"/>
      <use xlink:href="#DejaVuSans-31" x="913.330078"/>
      <use xlink:href="#DejaVuSans-30" x="976.953125"/>
      <use xlink:href="#DejaVuSans-30" x="1040.576172"/>
      <use xlink:href="#DejaVuSans-20" x="1104.199219"/>
      <use xlink:href="#DejaVuSans-25" x="1135.986328"/>
      <use xlink:href="#DejaVuSans-5d" x="1231.005859"/>
     </g>
    </g>
   </g>
   <g id="LineCollection_13">
    <path d="M 409.874136 156.134434 
L 435.349364 156.134434 
" clip-path="url(#pa70fab665a)" style="fill: none; stroke: #1f77b4; stroke-width: 1.5"/>
   </g>
   <g id="LineCollection_14">
    <path d="M 409.874136 57.342727 
L 435.349364 57.342727 
" clip-path="url(#pa70fab665a)" style="fill: none; stroke: #1f77b4; stroke-width: 1.5"/>
   </g>
   <g id="LineCollection_15">
    <path d="M 409.874136 263.397273 
L 435.349364 263.397273 
" clip-path="url(#pa70fab665a)" style="fill: none; stroke: #1f77b4; stroke-width: 1.5"/>
   </g>
   <g id="LineCollection_16">
    <path d="M 422.61175 263.397273 
L 422.61175 57.342727 
" clip-path="url(#pa70fab665a)" style="fill: none; stroke: #1f77b4; stroke-width: 1.5"/>
   </g>
   <g id="patch_18">
    <path d="M 394.589 273.7 
L 394.589 47.04 
" style="fill: none; stroke: #000000; stroke-width: 0.8; stroke-linejoin: miter; stroke-linecap: square"/>
   </g>
   <g id="patch_19">
    <path d="M 450.6345 273.7 
L 450.6345 47.04 
" style="fill: none; stroke: #000000; stroke-width: 0.8; stroke-linejoin: miter; stroke-linecap: square"/>
   </g>
   <g id="patch_20">
    <path d="M 394.589 273.7 
L 450.6345 273.7 
" style="fill: none; stroke: #000000; stroke-width: 0.8; stroke-linejoin: miter; stroke-linecap: square"/>
   </g>
   <g id="patch_21">
    <path d="M 394.589 47.04 
L 450.6345 47.04 
" style="fill: none; stroke: #000000; stroke-width: 0.8; stroke-linejoin: miter; stroke-linecap: square"/>
   </g>
   <g id="text_35">
    <!-- % NOE fulfilled -->
    <g transform="translate(377.898625 41.04)scale(0.12 -0.12)">
     <use xlink:href="#DejaVuSans-25"/>
     <use xlink:href="#DejaVuSans-20" x="95.019531"/>
     <use xlink:href="#DejaVuSans-4e" x="126.806641"/>
     <use xlink:href="#DejaVuSans-4f" x="201.611328"/>
     <use xlink:href="#DejaVuSans-45" x="280.322266"/>
     <use xlink:href="#DejaVuSans-20" x="343.505859"/>
     <use xlink:href="#DejaVuSans-66" x="375.292969"/>
     <use xlink:href="#DejaVuSans-75" x="410.498047"/>
     <use xlink:href="#DejaVuSans-6c" x="473.876953"/>
     <use xlink:href="#DejaVuSans-66" x="501.660156"/>
     <use xlink:href="#DejaVuSans-69" x="536.865234"/>
     <use xlink:href="#DejaVuSans-6c" x="564.648438"/>
     <use xlink:href="#DejaVuSans-6c" x="592.431641"/>
     <use xlink:href="#DejaVuSans-65" x="620.214844"/>
     <use xlink:href="#DejaVuSans-64" x="681.738281"/>
    </g>
   </g>
  </g>
  <g id="axes_5">
   <g id="patch_22">
    <path d="M 509.1545 273.7 
L 565.2 273.7 
L 565.2 47.04 
L 509.1545 47.04 
z
" style="fill: #ffffff"/>
   </g>
   <g id="PolyCollection_5">
    <path d="M 537.375418 263.397273 
L 536.979082 263.397273 
L 536.98446 261.315914 
L 536.999905 259.234555 
L 537.0223 257.153196 
L 537.04725 255.071837 
L 537.069884 252.990478 
L 537.085583 250.909118 
L 537.090509 248.827759 
L 537.081947 246.7464 
L 537.058564 244.665041 
L 537.020671 242.583682 
L 536.97039 240.502323 
L 536.911494 238.420964 
L 536.848622 236.339605 
L 536.785727 234.258246 
L 536.723983 232.176887 
L 536.659785 230.095528 
L 536.583762 228.014169 
L 536.481645 225.93281 
L 536.337388 223.851451 
L 536.138104 221.770092 
L 535.879541 219.688733 
L 535.570222 217.607374 
L 535.232367 215.526015 
L 534.898474 213.444656 
L 534.603739 211.363297 
L 534.376008 209.281938 
L 534.226014 207.200579 
L 534.140819 205.119219 
L 534.082689 203.03786 
L 533.99416 200.956501 
L 533.808596 198.875142 
L 533.464308 196.793783 
L 532.919448 194.712424 
L 532.164401 192.631065 
L 531.228178 190.549706 
L 530.175765 188.468347 
L 529.094957 186.386988 
L 528.07401 184.305629 
L 527.175078 182.22427 
L 526.411321 180.142911 
L 525.736337 178.061552 
L 525.052072 175.980193 
L 524.235837 173.898834 
L 523.180187 171.817475 
L 521.833599 169.736116 
L 520.227681 167.654757 
L 518.479352 165.573398 
L 516.764055 163.492039 
L 515.266335 161.41068 
L 514.123567 159.32932 
L 513.383115 157.247961 
L 512.990041 155.166602 
L 512.811744 153.085243 
L 512.691436 151.003884 
L 512.510143 148.922525 
L 512.232765 146.841166 
L 511.919978 144.759807 
L 511.702023 142.678448 
L 511.726317 140.597089 
L 512.101181 138.51573 
L 512.858365 136.434371 
L 513.94762 134.353012 
L 515.262073 132.271653 
L 516.680382 130.190294 
L 518.106114 128.108935 
L 519.488476 126.027576 
L 520.818899 123.946217 
L 522.109683 121.864858 
L 523.368276 119.783499 
L 524.58083 117.70214 
L 525.712136 115.620781 
L 526.719985 113.539421 
L 527.575126 111.458062 
L 528.276341 109.376703 
L 528.853739 107.295344 
L 529.35963 105.213985 
L 529.851833 103.132626 
L 530.376687 101.051267 
L 530.957927 98.969908 
L 531.594194 96.888549 
L 532.264217 94.80719 
L 532.936235 92.725831 
L 533.577648 90.644472 
L 534.161967 88.563113 
L 534.671965 86.481754 
L 535.099633 84.400395 
L 535.444418 82.319036 
L 535.711155 80.237677 
L 535.908483 78.156318 
L 536.047752 76.074959 
L 536.142069 73.9936 
L 536.20516 71.912241 
L 536.250053 69.830882 
L 536.287903 67.749522 
L 536.327255 65.668163 
L 536.37387 63.586804 
L 536.430942 61.505445 
L 536.49942 59.424086 
L 536.578253 57.342727 
L 537.776247 57.342727 
L 537.776247 57.342727 
L 537.85508 59.424086 
L 537.923558 61.505445 
L 537.98063 63.586804 
L 538.027245 65.668163 
L 538.066597 67.749522 
L 538.104447 69.830882 
L 538.14934 71.912241 
L 538.212431 73.9936 
L 538.306748 76.074959 
L 538.446017 78.156318 
L 538.643345 80.237677 
L 538.910082 82.319036 
L 539.254867 84.400395 
L 539.682535 86.481754 
L 540.192533 88.563113 
L 540.776852 90.644472 
L 541.418265 92.725831 
L 542.090283 94.80719 
L 542.760306 96.888549 
L 543.396573 98.969908 
L 543.977813 101.051267 
L 544.502667 103.132626 
L 544.99487 105.213985 
L 545.500761 107.295344 
L 546.078159 109.376703 
L 546.779374 111.458062 
L 547.634515 113.539421 
L 548.642364 115.620781 
L 549.77367 117.70214 
L 550.986224 119.783499 
L 552.244817 121.864858 
L 553.535601 123.946217 
L 554.866024 126.027576 
L 556.248386 128.108935 
L 557.674118 130.190294 
L 559.092427 132.271653 
L 560.40688 134.353012 
L 561.496135 136.434371 
L 562.253319 138.51573 
L 562.628183 140.597089 
L 562.652477 142.678448 
L 562.434522 144.759807 
L 562.121735 146.841166 
L 561.844357 148.922525 
L 561.663064 151.003884 
L 561.542756 153.085243 
L 561.364459 155.166602 
L 560.971385 157.247961 
L 560.230933 159.32932 
L 559.088165 161.41068 
L 557.590445 163.492039 
L 555.875148 165.573398 
L 554.126819 167.654757 
L 552.520901 169.736116 
L 551.174313 171.817475 
L 550.118663 173.898834 
L 549.302428 175.980193 
L 548.618163 178.061552 
L 547.943179 180.142911 
L 547.179422 182.22427 
L 546.28049 184.305629 
L 545.259543 186.386988 
L 544.178735 188.468347 
L 543.126322 190.549706 
L 542.190099 192.631065 
L 541.435052 194.712424 
L 540.890192 196.793783 
L 540.545904 198.875142 
L 540.36034 200.956501 
L 540.271811 203.03786 
L 540.213681 205.119219 
L 540.128486 207.200579 
L 539.978492 209.281938 
L 539.750761 211.363297 
L 539.456026 213.444656 
L 539.122133 215.526015 
L 538.784278 217.607374 
L 538.474959 219.688733 
L 538.216396 221.770092 
L 538.017112 223.851451 
L 537.872855 225.93281 
L 537.770738 228.014169 
L 537.694715 230.095528 
L 537.630517 232.176887 
L 537.568773 234.258246 
L 537.505878 236.339605 
L 537.443006 238.420964 
L 537.38411 240.502323 
L 537.333829 242.583682 
L 537.295936 244.665041 
L 537.272553 246.7464 
L 537.263991 248.827759 
L 537.268917 250.909118 
L 537.284616 252.990478 
L 537.30725 255.071837 
L 537.3322 257.153196 
L 537.354595 259.234555 
L 537.37004 261.315914 
L 537.375418 263.397273 
z
" clip-path="url(#p5c2a9d0ba5)" style="fill: #1f77b4; fill-opacity: 0.3"/>
   </g>
   <g id="matplotlib.axis_5">
    <g id="ytick_28">
     <g id="line2d_28">
      <g>
       <use xlink:href="#m430be43013" x="509.1545" y="245.728202" style="stroke: #000000; stroke-width: 0.8"/>
      </g>
     </g>
     <g id="text_36">
      <!-- 0.25 -->
      <g transform="translate(479.888875 249.527421)scale(0.1 -0.1)">
       <use xlink:href="#DejaVuSans-30"/>
       <use xlink:href="#DejaVuSans-2e" x="63.623047"/>
       <use xlink:href="#DejaVuSans-32" x="95.410156"/>
       <use xlink:href="#DejaVuSans-35" x="159.033203"/>
      </g>
     </g>
    </g>
    <g id="ytick_29">
     <g id="line2d_29">
      <g>
       <use xlink:href="#m430be43013" x="509.1545" y="212.928548" style="stroke: #000000; stroke-width: 0.8"/>
      </g>
     </g>
     <g id="text_37">
      <!-- 0.30 -->
      <g transform="translate(479.888875 216.727767)scale(0.1 -0.1)">
       <use xlink:href="#DejaVuSans-30"/>
       <use xlink:href="#DejaVuSans-2e" x="63.623047"/>
       <use xlink:href="#DejaVuSans-33" x="95.410156"/>
       <use xlink:href="#DejaVuSans-30" x="159.033203"/>
      </g>
     </g>
    </g>
    <g id="ytick_30">
     <g id="line2d_30">
      <g>
       <use xlink:href="#m430be43013" x="509.1545" y="180.128894" style="stroke: #000000; stroke-width: 0.8"/>
      </g>
     </g>
     <g id="text_38">
      <!-- 0.35 -->
      <g transform="translate(479.888875 183.928113)scale(0.1 -0.1)">
       <use xlink:href="#DejaVuSans-30"/>
       <use xlink:href="#DejaVuSans-2e" x="63.623047"/>
       <use xlink:href="#DejaVuSans-33" x="95.410156"/>
       <use xlink:href="#DejaVuSans-35" x="159.033203"/>
      </g>
     </g>
    </g>
    <g id="ytick_31">
     <g id="line2d_31">
      <g>
       <use xlink:href="#m430be43013" x="509.1545" y="147.32924" style="stroke: #000000; stroke-width: 0.8"/>
      </g>
     </g>
     <g id="text_39">
      <!-- 0.40 -->
      <g transform="translate(479.888875 151.128459)scale(0.1 -0.1)">
       <use xlink:href="#DejaVuSans-30"/>
       <use xlink:href="#DejaVuSans-2e" x="63.623047"/>
       <use xlink:href="#DejaVuSans-34" x="95.410156"/>
       <use xlink:href="#DejaVuSans-30" x="159.033203"/>
      </g>
     </g>
    </g>
    <g id="ytick_32">
     <g id="line2d_32">
      <g>
       <use xlink:href="#m430be43013" x="509.1545" y="114.529586" style="stroke: #000000; stroke-width: 0.8"/>
      </g>
     </g>
     <g id="text_40">
      <!-- 0.45 -->
      <g transform="translate(479.888875 118.328805)scale(0.1 -0.1)">
       <use xlink:href="#DejaVuSans-30"/>
       <use xlink:href="#DejaVuSans-2e" x="63.623047"/>
       <use xlink:href="#DejaVuSans-34" x="95.410156"/>
       <use xlink:href="#DejaVuSans-35" x="159.033203"/>
      </g>
     </g>
    </g>
    <g id="ytick_33">
     <g id="line2d_33">
      <g>
       <use xlink:href="#m430be43013" x="509.1545" y="81.729932" style="stroke: #000000; stroke-width: 0.8"/>
      </g>
     </g>
     <g id="text_41">
      <!-- 0.50 -->
      <g transform="translate(479.888875 85.529151)scale(0.1 -0.1)">
       <use xlink:href="#DejaVuSans-30"/>
       <use xlink:href="#DejaVuSans-2e" x="63.623047"/>
       <use xlink:href="#DejaVuSans-35" x="95.410156"/>
       <use xlink:href="#DejaVuSans-30" x="159.033203"/>
      </g>
     </g>
    </g>
    <g id="ytick_34">
     <g id="line2d_34">
      <g>
       <use xlink:href="#m430be43013" x="509.1545" y="48.930278" style="stroke: #000000; stroke-width: 0.8"/>
      </g>
     </g>
     <g id="text_42">
      <!-- 0.55 -->
      <g transform="translate(479.888875 52.729497)scale(0.1 -0.1)">
       <use xlink:href="#DejaVuSans-30"/>
       <use xlink:href="#DejaVuSans-2e" x="63.623047"/>
       <use xlink:href="#DejaVuSans-35" x="95.410156"/>
       <use xlink:href="#DejaVuSans-35" x="159.033203"/>
      </g>
     </g>
    </g>
    <g id="text_43">
     <!-- RMSD stepwise [$\AA$] -->
     <g transform="translate(473.788875 207.67)rotate(-90)scale(0.1 -0.1)">
      <defs>
       <path id="DejaVuSans-73" d="M 2834 3397 
L 2834 2853 
Q 2591 2978 2328 3040 
Q 2066 3103 1784 3103 
Q 1356 3103 1142 2972 
Q 928 2841 928 2578 
Q 928 2378 1081 2264 
Q 1234 2150 1697 2047 
L 1894 2003 
Q 2506 1872 2764 1633 
Q 3022 1394 3022 966 
Q 3022 478 2636 193 
Q 2250 -91 1575 -91 
Q 1294 -91 989 -36 
Q 684 19 347 128 
L 347 722 
Q 666 556 975 473 
Q 1284 391 1588 391 
Q 1994 391 2212 530 
Q 2431 669 2431 922 
Q 2431 1156 2273 1281 
Q 2116 1406 1581 1522 
L 1381 1569 
Q 847 1681 609 1914 
Q 372 2147 372 2553 
Q 372 3047 722 3315 
Q 1072 3584 1716 3584 
Q 2034 3584 2315 3537 
Q 2597 3491 2834 3397 
z
" transform="scale(0.015625)"/>
       <path id="DejaVuSans-74" d="M 1172 4494 
L 1172 3500 
L 2356 3500 
L 2356 3053 
L 1172 3053 
L 1172 1153 
Q 1172 725 1289 603 
Q 1406 481 1766 481 
L 2356 481 
L 2356 0 
L 1766 0 
Q 1100 0 847 248 
Q 594 497 594 1153 
L 594 3053 
L 172 3053 
L 172 3500 
L 594 3500 
L 594 4494 
L 1172 4494 
z
" transform="scale(0.015625)"/>
       <path id="DejaVuSans-70" d="M 1159 525 
L 1159 -1331 
L 581 -1331 
L 581 3500 
L 1159 3500 
L 1159 2969 
Q 1341 3281 1617 3432 
Q 1894 3584 2278 3584 
Q 2916 3584 3314 3078 
Q 3713 2572 3713 1747 
Q 3713 922 3314 415 
Q 2916 -91 2278 -91 
Q 1894 -91 1617 61 
Q 1341 213 1159 525 
z
M 3116 1747 
Q 3116 2381 2855 2742 
Q 2594 3103 2138 3103 
Q 1681 3103 1420 2742 
Q 1159 2381 1159 1747 
Q 1159 1113 1420 752 
Q 1681 391 2138 391 
Q 2594 391 2855 752 
Q 3116 1113 3116 1747 
z
" transform="scale(0.015625)"/>
       <path id="DejaVuSans-77" d="M 269 3500 
L 844 3500 
L 1563 769 
L 2278 3500 
L 2956 3500 
L 3675 769 
L 4391 3500 
L 4966 3500 
L 4050 0 
L 3372 0 
L 2619 2869 
L 1863 0 
L 1184 0 
L 269 3500 
z
" transform="scale(0.015625)"/>
      </defs>
      <use xlink:href="#DejaVuSans-52" transform="translate(0 0.171875)"/>
      <use xlink:href="#DejaVuSans-4d" transform="translate(69.482422 0.171875)"/>
      <use xlink:href="#DejaVuSans-53" transform="translate(155.761719 0.171875)"/>
      <use xlink:href="#DejaVuSans-44" transform="translate(219.238281 0.171875)"/>
      <use xlink:href="#DejaVuSans-20" transform="translate(296.240234 0.171875)"/>
      <use xlink:href="#DejaVuSans-73" transform="translate(328.027344 0.171875)"/>
      <use xlink:href="#DejaVuSans-74" transform="translate(380.126953 0.171875)"/>
      <use xlink:href="#DejaVuSans-65" transform="translate(419.335938 0.171875)"/>
      <use xlink:href="#DejaVuSans-70" transform="translate(480.859375 0.171875)"/>
      <use xlink:href="#DejaVuSans-77" transform="translate(544.335938 0.171875)"/>
      <use xlink:href="#DejaVuSans-69" transform="translate(626.123047 0.171875)"/>
      <use xlink:href="#DejaVuSans-73" transform="translate(653.90625 0.171875)"/>
      <use xlink:href="#DejaVuSans-65" transform="translate(706.005859 0.171875)"/>
      <use xlink:href="#DejaVuSans-20" transform="translate(767.529297 0.171875)"/>
      <use xlink:href="#DejaVuSans-5b" transform="translate(799.316406 0.171875)"/>
      <use xlink:href="#DejaVuSans-Oblique-c5" transform="translate(838.330078 0.171875)"/>
      <use xlink:href="#DejaVuSans-5d" transform="translate(906.738281 0.171875)"/>
     </g>
    </g>
   </g>
   <g id="LineCollection_17">
    <path d="M 524.439636 146.380779 
L 549.914864 146.380779 
" clip-path="url(#p5c2a9d0ba5)" style="fill: none; stroke: #1f77b4; stroke-width: 1.5"/>
   </g>
   <g id="LineCollection_18">
    <path d="M 524.439636 57.342727 
L 549.914864 57.342727 
" clip-path="url(#p5c2a9d0ba5)" style="fill: none; stroke: #1f77b4; stroke-width: 1.5"/>
   </g>
   <g id="LineCollection_19">
    <path d="M 524.439636 263.397273 
L 549.914864 263.397273 
" clip-path="url(#p5c2a9d0ba5)" style="fill: none; stroke: #1f77b4; stroke-width: 1.5"/>
   </g>
   <g id="LineCollection_20">
    <path d="M 537.17725 263.397273 
L 537.17725 57.342727 
" clip-path="url(#p5c2a9d0ba5)" style="fill: none; stroke: #1f77b4; stroke-width: 1.5"/>
   </g>
   <g id="patch_23">
    <path d="M 509.1545 273.7 
L 509.1545 47.04 
" style="fill: none; stroke: #000000; stroke-width: 0.8; stroke-linejoin: miter; stroke-linecap: square"/>
   </g>
   <g id="patch_24">
    <path d="M 565.2 273.7 
L 565.2 47.04 
" style="fill: none; stroke: #000000; stroke-width: 0.8; stroke-linejoin: miter; stroke-linecap: square"/>
   </g>
   <g id="patch_25">
    <path d="M 509.1545 273.7 
L 565.2 273.7 
" style="fill: none; stroke: #000000; stroke-width: 0.8; stroke-linejoin: miter; stroke-linecap: square"/>
   </g>
   <g id="patch_26">
    <path d="M 509.1545 47.04 
L 565.2 47.04 
" style="fill: none; stroke: #000000; stroke-width: 0.8; stroke-linejoin: miter; stroke-linecap: square"/>
   </g>
   <g id="text_44">
    <!-- RMSD stepwise -->
    <g transform="translate(491.125375 41.04)scale(0.12 -0.12)">
     <use xlink:href="#DejaVuSans-52"/>
     <use xlink:href="#DejaVuSans-4d" x="69.482422"/>
     <use xlink:href="#DejaVuSans-53" x="155.761719"/>
     <use xlink:href="#DejaVuSans-44" x="219.238281"/>
     <use xlink:href="#DejaVuSans-20" x="296.240234"/>
     <use xlink:href="#DejaVuSans-73" x="328.027344"/>
     <use xlink:href="#DejaVuSans-74" x="380.126953"/>
     <use xlink:href="#DejaVuSans-65" x="419.335938"/>
     <use xlink:href="#DejaVuSans-70" x="480.859375"/>
     <use xlink:href="#DejaVuSans-77" x="544.335938"/>
     <use xlink:href="#DejaVuSans-69" x="626.123047"/>
     <use xlink:href="#DejaVuSans-73" x="653.90625"/>
     <use xlink:href="#DejaVuSans-65" x="706.005859"/>
    </g>
   </g>
  </g>
  <g id="text_45">
   <!-- Compound 39. Omega -->
   <g transform="translate(220.299375 14.878125)scale(0.12 -0.12)">
    <defs>
     <path id="DejaVuSans-43" d="M 4122 4306 
L 4122 3641 
Q 3803 3938 3442 4084 
Q 3081 4231 2675 4231 
Q 1875 4231 1450 3742 
Q 1025 3253 1025 2328 
Q 1025 1406 1450 917 
Q 1875 428 2675 428 
Q 3081 428 3442 575 
Q 3803 722 4122 1019 
L 4122 359 
Q 3791 134 3420 21 
Q 3050 -91 2638 -91 
Q 1578 -91 968 557 
Q 359 1206 359 2328 
Q 359 3453 968 4101 
Q 1578 4750 2638 4750 
Q 3056 4750 3426 4639 
Q 3797 4528 4122 4306 
z
" transform="scale(0.015625)"/>
     <path id="DejaVuSans-6f" d="M 1959 3097 
Q 1497 3097 1228 2736 
Q 959 2375 959 1747 
Q 959 1119 1226 758 
Q 1494 397 1959 397 
Q 2419 397 2687 759 
Q 2956 1122 2956 1747 
Q 2956 2369 2687 2733 
Q 2419 3097 1959 3097 
z
M 1959 3584 
Q 2709 3584 3137 3096 
Q 3566 2609 3566 1747 
Q 3566 888 3137 398 
Q 2709 -91 1959 -91 
Q 1206 -91 779 398 
Q 353 888 353 1747 
Q 353 2609 779 3096 
Q 1206 3584 1959 3584 
z
" transform="scale(0.015625)"/>
     <path id="DejaVuSans-6d" d="M 3328 2828 
Q 3544 3216 3844 3400 
Q 4144 3584 4550 3584 
Q 5097 3584 5394 3201 
Q 5691 2819 5691 2113 
L 5691 0 
L 5113 0 
L 5113 2094 
Q 5113 2597 4934 2840 
Q 4756 3084 4391 3084 
Q 3944 3084 3684 2787 
Q 3425 2491 3425 1978 
L 3425 0 
L 2847 0 
L 2847 2094 
Q 2847 2600 2669 2842 
Q 2491 3084 2119 3084 
Q 1678 3084 1418 2786 
Q 1159 2488 1159 1978 
L 1159 0 
L 581 0 
L 581 3500 
L 1159 3500 
L 1159 2956 
Q 1356 3278 1631 3431 
Q 1906 3584 2284 3584 
Q 2666 3584 2933 3390 
Q 3200 3197 3328 2828 
z
" transform="scale(0.015625)"/>
     <path id="DejaVuSans-6e" d="M 3513 2113 
L 3513 0 
L 2938 0 
L 2938 2094 
Q 2938 2591 2744 2837 
Q 2550 3084 2163 3084 
Q 1697 3084 1428 2787 
Q 1159 2491 1159 1978 
L 1159 0 
L 581 0 
L 581 3500 
L 1159 3500 
L 1159 2956 
Q 1366 3272 1645 3428 
Q 1925 3584 2291 3584 
Q 2894 3584 3203 3211 
Q 3513 2838 3513 2113 
z
" transform="scale(0.015625)"/>
     <path id="DejaVuSans-67" d="M 2906 1791 
Q 2906 2416 2648 2759 
Q 2391 3103 1925 3103 
Q 1463 3103 1205 2759 
Q 947 2416 947 1791 
Q 947 1169 1205 825 
Q 1463 481 1925 481 
Q 2391 481 2648 825 
Q 2906 1169 2906 1791 
z
M 3481 434 
Q 3481 -459 3084 -895 
Q 2688 -1331 1869 -1331 
Q 1566 -1331 1297 -1286 
Q 1028 -1241 775 -1147 
L 775 -588 
Q 1028 -725 1275 -790 
Q 1522 -856 1778 -856 
Q 2344 -856 2625 -561 
Q 2906 -266 2906 331 
L 2906 616 
Q 2728 306 2450 153 
Q 2172 0 1784 0 
Q 1141 0 747 490 
Q 353 981 353 1791 
Q 353 2603 747 3093 
Q 1141 3584 1784 3584 
Q 2172 3584 2450 3431 
Q 2728 3278 2906 2969 
L 2906 3500 
L 3481 3500 
L 3481 434 
z
" transform="scale(0.015625)"/>
     <path id="DejaVuSans-61" d="M 2194 1759 
Q 1497 1759 1228 1600 
Q 959 1441 959 1056 
Q 959 750 1161 570 
Q 1363 391 1709 391 
Q 2188 391 2477 730 
Q 2766 1069 2766 1631 
L 2766 1759 
L 2194 1759 
z
M 3341 1997 
L 3341 0 
L 2766 0 
L 2766 531 
Q 2569 213 2275 61 
Q 1981 -91 1556 -91 
Q 1019 -91 701 211 
Q 384 513 384 1019 
Q 384 1609 779 1909 
Q 1175 2209 1959 2209 
L 2766 2209 
L 2766 2266 
Q 2766 2663 2505 2880 
Q 2244 3097 1772 3097 
Q 1472 3097 1187 3025 
Q 903 2953 641 2809 
L 641 3341 
Q 956 3463 1253 3523 
Q 1550 3584 1831 3584 
Q 2591 3584 2966 3190 
Q 3341 2797 3341 1997 
z
" transform="scale(0.015625)"/>
    </defs>
    <use xlink:href="#DejaVuSans-43"/>
    <use xlink:href="#DejaVuSans-6f" x="69.824219"/>
    <use xlink:href="#DejaVuSans-6d" x="131.005859"/>
    <use xlink:href="#DejaVuSans-70" x="228.417969"/>
    <use xlink:href="#DejaVuSans-6f" x="291.894531"/>
    <use xlink:href="#DejaVuSans-75" x="353.076172"/>
    <use xlink:href="#DejaVuSans-6e" x="416.455078"/>
    <use xlink:href="#DejaVuSans-64" x="479.833984"/>
    <use xlink:href="#DejaVuSans-20" x="543.310547"/>
    <use xlink:href="#DejaVuSans-33" x="575.097656"/>
    <use xlink:href="#DejaVuSans-39" x="638.720703"/>
    <use xlink:href="#DejaVuSans-2e" x="702.34375"/>
    <use xlink:href="#DejaVuSans-20" x="734.130859"/>
    <use xlink:href="#DejaVuSans-4f" x="765.917969"/>
    <use xlink:href="#DejaVuSans-6d" x="844.628906"/>
    <use xlink:href="#DejaVuSans-65" x="942.041016"/>
    <use xlink:href="#DejaVuSans-67" x="1003.564453"/>
    <use xlink:href="#DejaVuSans-61" x="1067.041016"/>
   </g>
  </g>
 </g>
 <defs>
  <clipPath id="p1d3321500c">
   <rect x="50.8925" y="47.04" width="56.0455" height="226.66"/>
  </clipPath>
  <clipPath id="pad858cbf0d">
   <rect x="165.458" y="47.04" width="56.0455" height="226.66"/>
  </clipPath>
  <clipPath id="p64e1ba98dc">
   <rect x="280.0235" y="47.04" width="56.0455" height="226.66"/>
  </clipPath>
  <clipPath id="pa70fab665a">
   <rect x="394.589" y="47.04" width="56.0455" height="226.66"/>
  </clipPath>
  <clipPath id="p5c2a9d0ba5">
   <rect x="509.1545" y="47.04" width="56.0455" height="226.66"/>
  </clipPath>
 </defs>
</svg>
