<?xml version="1.0" encoding="utf-8" standalone="no"?>
<!DOCTYPE svg PUBLIC "-//W3C//DTD SVG 1.1//EN"
  "http://www.w3.org/Graphics/SVG/1.1/DTD/svg11.dtd">
<svg xmlns:xlink="http://www.w3.org/1999/xlink" width="576pt" height="288pt" viewBox="0 0 576 288" xmlns="http://www.w3.org/2000/svg" version="1.1">
 <metadata>
  <rdf:RDF xmlns:dc="http://purl.org/dc/elements/1.1/" xmlns:cc="http://creativecommons.org/ns#" xmlns:rdf="http://www.w3.org/1999/02/22-rdf-syntax-ns#">
   <cc:Work>
    <dc:type rdf:resource="http://purl.org/dc/dcmitype/StillImage"/>
    <dc:date>2023-05-31T12:20:24.028142</dc:date>
    <dc:format>image/svg+xml</dc:format>
    <dc:creator>
     <cc:Agent>
      <dc:title>Matplotlib v3.5.3, https://matplotlib.org/</dc:title>
     </cc:Agent>
    </dc:creator>
   </cc:Work>
  </rdf:RDF>
 </metadata>
 <defs>
  <style type="text/css">*{stroke-linejoin: round; stroke-linecap: butt}</style>
 </defs>
 <g id="figure_1">
  <g id="patch_1">
   <path d="M 0 288 
L 576 288 
L 576 0 
L 0 0 
z
" style="fill: #ffffff"/>
  </g>
  <g id="axes_1">
   <g id="patch_2">
    <path d="M 50.8925 271.599312 
L 106.344 271.599312 
L 106.344 47.04 
L 50.8925 47.04 
z
" style="fill: #ffffff"/>
   </g>
   <g id="PolyCollection_1">
    <path d="M 80.002202 261.39207 
L 77.234298 261.39207 
L 76.987897 259.330001 
L 76.700252 257.267932 
L 76.363418 255.205863 
L 75.968969 253.143794 
L 75.508583 251.081725 
L 74.974723 249.019656 
L 74.361363 246.957587 
L 73.664685 244.895518 
L 72.883694 242.833449 
L 72.020694 240.77138 
L 71.081588 238.709311 
L 70.075972 236.647242 
L 69.017009 234.585173 
L 67.921045 232.523105 
L 66.806978 230.461036 
L 65.695373 228.398967 
L 64.60735 226.336898 
L 63.563311 224.274829 
L 62.581604 222.21276 
L 61.677251 220.150691 
L 60.860895 218.088622 
L 60.138104 216.026553 
L 59.509134 213.964484 
L 58.969202 211.902415 
L 58.509245 209.840346 
L 58.117049 207.778277 
L 57.778618 205.716208 
L 57.479575 203.654139 
L 57.206426 201.59207 
L 56.947556 199.530001 
L 56.693848 197.467932 
L 56.438937 195.405863 
L 56.17912 193.343794 
L 55.913032 191.281725 
L 55.641191 189.219656 
L 55.365524 187.157587 
L 55.088983 185.095518 
L 54.815291 183.033449 
L 54.548847 180.97138 
L 54.294748 178.909311 
L 54.058888 176.847242 
L 53.848031 174.785173 
L 53.66977 172.723104 
L 53.532322 170.661035 
L 53.444089 168.598966 
L 53.413023 166.536897 
L 53.445825 164.474828 
L 53.547108 162.412759 
L 53.718639 160.35069 
L 53.95879 158.288621 
L 54.262337 156.226552 
L 54.620629 154.164483 
L 55.022178 152.102414 
L 55.453572 150.040345 
L 55.900619 147.978276 
L 56.349576 145.916207 
L 56.788295 143.854138 
L 57.207156 141.79207 
L 57.599671 139.730001 
L 57.962711 137.667932 
L 58.296343 135.605863 
L 58.603336 133.543794 
L 58.888429 131.481725 
L 59.157481 129.419656 
L 59.416658 127.357587 
L 59.671773 125.295518 
L 59.927886 123.233449 
L 60.189205 121.17138 
L 60.459277 119.109311 
L 60.74139 117.047242 
L 61.03907 114.985173 
L 61.356514 112.923104 
L 61.698833 110.861035 
L 62.071995 108.798966 
L 62.482431 106.736897 
L 62.936345 104.674828 
L 63.438829 102.612759 
L 63.992932 100.55069 
L 64.598866 98.488621 
L 65.253497 96.426552 
L 65.950237 94.364483 
L 66.679381 92.302414 
L 67.428846 90.240345 
L 68.185217 88.178276 
L 68.934948 86.116207 
L 69.665542 84.054138 
L 70.36655 81.992069 
L 71.030282 79.93 
L 71.652135 77.867931 
L 72.230559 75.805862 
L 72.766689 73.743793 
L 73.263736 71.681724 
L 73.726243 69.619655 
L 74.159307 67.557586 
L 74.567867 65.495517 
L 74.956134 63.433448 
L 75.327189 61.371379 
L 75.682785 59.30931 
L 76.023335 57.247241 
L 81.213165 57.247241 
L 81.213165 57.247241 
L 81.553715 59.30931 
L 81.909311 61.371379 
L 82.280366 63.433448 
L 82.668633 65.495517 
L 83.077193 67.557586 
L 83.510257 69.619655 
L 83.972764 71.681724 
L 84.469811 73.743793 
L 85.005941 75.805862 
L 85.584365 77.867931 
L 86.206218 79.93 
L 86.86995 81.992069 
L 87.570958 84.054138 
L 88.301552 86.116207 
L 89.051283 88.178276 
L 89.807654 90.240345 
L 90.557119 92.302414 
L 91.286263 94.364483 
L 91.983003 96.426552 
L 92.637634 98.488621 
L 93.243568 100.55069 
L 93.797671 102.612759 
L 94.300155 104.674828 
L 94.754069 106.736897 
L 95.164505 108.798966 
L 95.537667 110.861035 
L 95.879986 112.923104 
L 96.19743 114.985173 
L 96.49511 117.047242 
L 96.777223 119.109311 
L 97.047295 121.17138 
L 97.308614 123.233449 
L 97.564727 125.295518 
L 97.819842 127.357587 
L 98.079019 129.419656 
L 98.348071 131.481725 
L 98.633164 133.543794 
L 98.940157 135.605863 
L 99.273789 137.667932 
L 99.636829 139.730001 
L 100.029344 141.79207 
L 100.448205 143.854138 
L 100.886924 145.916207 
L 101.335881 147.978276 
L 101.782928 150.040345 
L 102.214322 152.102414 
L 102.615871 154.164483 
L 102.974163 156.226552 
L 103.27771 158.288621 
L 103.517861 160.35069 
L 103.689392 162.412759 
L 103.790675 164.474828 
L 103.823477 166.536897 
L 103.792411 168.598966 
L 103.704178 170.661035 
L 103.56673 172.723104 
L 103.388469 174.785173 
L 103.177612 176.847242 
L 102.941752 178.909311 
L 102.687653 180.97138 
L 102.421209 183.033449 
L 102.147517 185.095518 
L 101.870976 187.157587 
L 101.595309 189.219656 
L 101.323468 191.281725 
L 101.05738 193.343794 
L 100.797563 195.405863 
L 100.542652 197.467932 
L 100.288944 199.530001 
L 100.030074 201.59207 
L 99.756925 203.654139 
L 99.457882 205.716208 
L 99.119451 207.778277 
L 98.727255 209.840346 
L 98.267298 211.902415 
L 97.727366 213.964484 
L 97.098396 216.026553 
L 96.375605 218.088622 
L 95.559249 220.150691 
L 94.654896 222.21276 
L 93.673189 224.274829 
L 92.62915 226.336898 
L 91.541127 228.398967 
L 90.429522 230.461036 
L 89.315455 232.523105 
L 88.219491 234.585173 
L 87.160528 236.647242 
L 86.154912 238.709311 
L 85.215806 240.77138 
L 84.352806 242.833449 
L 83.571815 244.895518 
L 82.875137 246.957587 
L 82.261777 249.019656 
L 81.727917 251.081725 
L 81.267531 253.143794 
L 80.873082 255.205863 
L 80.536248 257.267932 
L 80.248603 259.330001 
L 80.002202 261.39207 
z
" clip-path="url(#pc308ab82a2)" style="fill: #1f77b4; fill-opacity: 0.3"/>
   </g>
   <g id="matplotlib.axis_1">
    <g id="ytick_1">
     <g id="line2d_1">
      <defs>
       <path id="md8f02478c2" d="M 0 0 
L -3.5 0 
" style="stroke: #000000; stroke-width: 0.8"/>
      </defs>
      <g>
       <use xlink:href="#md8f02478c2" x="50.8925" y="256.551657" style="stroke: #000000; stroke-width: 0.8"/>
      </g>
     </g>
     <g id="text_1">
      <!-- 1.0 -->
      <g transform="translate(27.989375 260.350876)scale(0.1 -0.1)">
       <defs>
        <path id="DejaVuSans-31" d="M 794 531 
L 1825 531 
L 1825 4091 
L 703 3866 
L 703 4441 
L 1819 4666 
L 2450 4666 
L 2450 531 
L 3481 531 
L 3481 0 
L 794 0 
L 794 531 
z
" transform="scale(0.015625)"/>
        <path id="DejaVuSans-2e" d="M 684 794 
L 1344 794 
L 1344 0 
L 684 0 
L 684 794 
z
" transform="scale(0.015625)"/>
        <path id="DejaVuSans-30" d="M 2034 4250 
Q 1547 4250 1301 3770 
Q 1056 3291 1056 2328 
Q 1056 1369 1301 889 
Q 1547 409 2034 409 
Q 2525 409 2770 889 
Q 3016 1369 3016 2328 
Q 3016 3291 2770 3770 
Q 2525 4250 2034 4250 
z
M 2034 4750 
Q 2819 4750 3233 4129 
Q 3647 3509 3647 2328 
Q 3647 1150 3233 529 
Q 2819 -91 2034 -91 
Q 1250 -91 836 529 
Q 422 1150 422 2328 
Q 422 3509 836 4129 
Q 1250 4750 2034 4750 
z
" transform="scale(0.015625)"/>
       </defs>
       <use xlink:href="#DejaVuSans-31"/>
       <use xlink:href="#DejaVuSans-2e" x="63.623047"/>
       <use xlink:href="#DejaVuSans-30" x="95.410156"/>
      </g>
     </g>
    </g>
    <g id="ytick_2">
     <g id="line2d_2">
      <g>
       <use xlink:href="#md8f02478c2" x="50.8925" y="210.974722" style="stroke: #000000; stroke-width: 0.8"/>
      </g>
     </g>
     <g id="text_2">
      <!-- 1.5 -->
      <g transform="translate(27.989375 214.77394)scale(0.1 -0.1)">
       <defs>
        <path id="DejaVuSans-35" d="M 691 4666 
L 3169 4666 
L 3169 4134 
L 1269 4134 
L 1269 2991 
Q 1406 3038 1543 3061 
Q 1681 3084 1819 3084 
Q 2600 3084 3056 2656 
Q 3513 2228 3513 1497 
Q 3513 744 3044 326 
Q 2575 -91 1722 -91 
Q 1428 -91 1123 -41 
Q 819 9 494 109 
L 494 744 
Q 775 591 1075 516 
Q 1375 441 1709 441 
Q 2250 441 2565 725 
Q 2881 1009 2881 1497 
Q 2881 1984 2565 2268 
Q 2250 2553 1709 2553 
Q 1456 2553 1204 2497 
Q 953 2441 691 2322 
L 691 4666 
z
" transform="scale(0.015625)"/>
       </defs>
       <use xlink:href="#DejaVuSans-31"/>
       <use xlink:href="#DejaVuSans-2e" x="63.623047"/>
       <use xlink:href="#DejaVuSans-35" x="95.410156"/>
      </g>
     </g>
    </g>
    <g id="ytick_3">
     <g id="line2d_3">
      <g>
       <use xlink:href="#md8f02478c2" x="50.8925" y="165.397786" style="stroke: #000000; stroke-width: 0.8"/>
      </g>
     </g>
     <g id="text_3">
      <!-- 2.0 -->
      <g transform="translate(27.989375 169.197005)scale(0.1 -0.1)">
       <defs>
        <path id="DejaVuSans-32" d="M 1228 531 
L 3431 531 
L 3431 0 
L 469 0 
L 469 531 
Q 828 903 1448 1529 
Q 2069 2156 2228 2338 
Q 2531 2678 2651 2914 
Q 2772 3150 2772 3378 
Q 2772 3750 2511 3984 
Q 2250 4219 1831 4219 
Q 1534 4219 1204 4116 
Q 875 4013 500 3803 
L 500 4441 
Q 881 4594 1212 4672 
Q 1544 4750 1819 4750 
Q 2544 4750 2975 4387 
Q 3406 4025 3406 3419 
Q 3406 3131 3298 2873 
Q 3191 2616 2906 2266 
Q 2828 2175 2409 1742 
Q 1991 1309 1228 531 
z
" transform="scale(0.015625)"/>
       </defs>
       <use xlink:href="#DejaVuSans-32"/>
       <use xlink:href="#DejaVuSans-2e" x="63.623047"/>
       <use xlink:href="#DejaVuSans-30" x="95.410156"/>
      </g>
     </g>
    </g>
    <g id="ytick_4">
     <g id="line2d_4">
      <g>
       <use xlink:href="#md8f02478c2" x="50.8925" y="119.82085" style="stroke: #000000; stroke-width: 0.8"/>
      </g>
     </g>
     <g id="text_4">
      <!-- 2.5 -->
      <g transform="translate(27.989375 123.620069)scale(0.1 -0.1)">
       <use xlink:href="#DejaVuSans-32"/>
       <use xlink:href="#DejaVuSans-2e" x="63.623047"/>
       <use xlink:href="#DejaVuSans-35" x="95.410156"/>
      </g>
     </g>
    </g>
    <g id="ytick_5">
     <g id="line2d_5">
      <g>
       <use xlink:href="#md8f02478c2" x="50.8925" y="74.243915" style="stroke: #000000; stroke-width: 0.8"/>
      </g>
     </g>
     <g id="text_5">
      <!-- 3.0 -->
      <g transform="translate(27.989375 78.043133)scale(0.1 -0.1)">
       <defs>
        <path id="DejaVuSans-33" d="M 2597 2516 
Q 3050 2419 3304 2112 
Q 3559 1806 3559 1356 
Q 3559 666 3084 287 
Q 2609 -91 1734 -91 
Q 1441 -91 1130 -33 
Q 819 25 488 141 
L 488 750 
Q 750 597 1062 519 
Q 1375 441 1716 441 
Q 2309 441 2620 675 
Q 2931 909 2931 1356 
Q 2931 1769 2642 2001 
Q 2353 2234 1838 2234 
L 1294 2234 
L 1294 2753 
L 1863 2753 
Q 2328 2753 2575 2939 
Q 2822 3125 2822 3475 
Q 2822 3834 2567 4026 
Q 2313 4219 1838 4219 
Q 1578 4219 1281 4162 
Q 984 4106 628 3988 
L 628 4550 
Q 988 4650 1302 4700 
Q 1616 4750 1894 4750 
Q 2613 4750 3031 4423 
Q 3450 4097 3450 3541 
Q 3450 3153 3228 2886 
Q 3006 2619 2597 2516 
z
" transform="scale(0.015625)"/>
       </defs>
       <use xlink:href="#DejaVuSans-33"/>
       <use xlink:href="#DejaVuSans-2e" x="63.623047"/>
       <use xlink:href="#DejaVuSans-30" x="95.410156"/>
      </g>
     </g>
    </g>
    <g id="text_6">
     <!-- RMSD [$\AA$] -->
     <g transform="translate(21.909688 183.069656)rotate(-90)scale(0.1 -0.1)">
      <defs>
       <path id="DejaVuSans-52" d="M 2841 2188 
Q 3044 2119 3236 1894 
Q 3428 1669 3622 1275 
L 4263 0 
L 3584 0 
L 2988 1197 
Q 2756 1666 2539 1819 
Q 2322 1972 1947 1972 
L 1259 1972 
L 1259 0 
L 628 0 
L 628 4666 
L 2053 4666 
Q 2853 4666 3247 4331 
Q 3641 3997 3641 3322 
Q 3641 2881 3436 2590 
Q 3231 2300 2841 2188 
z
M 1259 4147 
L 1259 2491 
L 2053 2491 
Q 2509 2491 2742 2702 
Q 2975 2913 2975 3322 
Q 2975 3731 2742 3939 
Q 2509 4147 2053 4147 
L 1259 4147 
z
" transform="scale(0.015625)"/>
       <path id="DejaVuSans-4d" d="M 628 4666 
L 1569 4666 
L 2759 1491 
L 3956 4666 
L 4897 4666 
L 4897 0 
L 4281 0 
L 4281 4097 
L 3078 897 
L 2444 897 
L 1241 4097 
L 1241 0 
L 628 0 
L 628 4666 
z
" transform="scale(0.015625)"/>
       <path id="DejaVuSans-53" d="M 3425 4513 
L 3425 3897 
Q 3066 4069 2747 4153 
Q 2428 4238 2131 4238 
Q 1616 4238 1336 4038 
Q 1056 3838 1056 3469 
Q 1056 3159 1242 3001 
Q 1428 2844 1947 2747 
L 2328 2669 
Q 3034 2534 3370 2195 
Q 3706 1856 3706 1288 
Q 3706 609 3251 259 
Q 2797 -91 1919 -91 
Q 1588 -91 1214 -16 
Q 841 59 441 206 
L 441 856 
Q 825 641 1194 531 
Q 1563 422 1919 422 
Q 2459 422 2753 634 
Q 3047 847 3047 1241 
Q 3047 1584 2836 1778 
Q 2625 1972 2144 2069 
L 1759 2144 
Q 1053 2284 737 2584 
Q 422 2884 422 3419 
Q 422 4038 858 4394 
Q 1294 4750 2059 4750 
Q 2388 4750 2728 4690 
Q 3069 4631 3425 4513 
z
" transform="scale(0.015625)"/>
       <path id="DejaVuSans-44" d="M 1259 4147 
L 1259 519 
L 2022 519 
Q 2988 519 3436 956 
Q 3884 1394 3884 2338 
Q 3884 3275 3436 3711 
Q 2988 4147 2022 4147 
L 1259 4147 
z
M 628 4666 
L 1925 4666 
Q 3281 4666 3915 4102 
Q 4550 3538 4550 2338 
Q 4550 1131 3912 565 
Q 3275 0 1925 0 
L 628 0 
L 628 4666 
z
" transform="scale(0.015625)"/>
       <path id="DejaVuSans-20" transform="scale(0.015625)"/>
       <path id="DejaVuSans-5b" d="M 550 4863 
L 1875 4863 
L 1875 4416 
L 1125 4416 
L 1125 -397 
L 1875 -397 
L 1875 -844 
L 550 -844 
L 550 4863 
z
" transform="scale(0.015625)"/>
       <path id="DejaVuSans-Oblique-c5" d="M 3188 5081 
Q 3188 5278 3048 5417 
Q 2909 5556 2713 5556 
Q 2513 5556 2377 5420 
Q 2241 5284 2241 5081 
Q 2241 4884 2377 4746 
Q 2513 4609 2713 4609 
Q 2909 4609 3048 4746 
Q 3188 4884 3188 5081 
z
M 2203 4397 
Q 2034 4513 1945 4689 
Q 1856 4866 1856 5081 
Q 1856 5438 2106 5689 
Q 2356 5941 2713 5941 
Q 3069 5941 3320 5689 
Q 3572 5438 3572 5081 
Q 3572 4834 3458 4643 
Q 3344 4453 3128 4341 
L 3938 0 
L 3278 0 
L 3084 1197 
L 984 1197 
L 325 0 
L -341 0 
L 2203 4397 
z
M 2584 4044 
L 1275 1722 
L 2988 1722 
L 2584 4044 
z
" transform="scale(0.015625)"/>
       <path id="DejaVuSans-5d" d="M 1947 4863 
L 1947 -844 
L 622 -844 
L 622 -397 
L 1369 -397 
L 1369 4416 
L 622 4416 
L 622 4863 
L 1947 4863 
z
" transform="scale(0.015625)"/>
      </defs>
      <use xlink:href="#DejaVuSans-52" transform="translate(0 0.171875)"/>
      <use xlink:href="#DejaVuSans-4d" transform="translate(69.482422 0.171875)"/>
      <use xlink:href="#DejaVuSans-53" transform="translate(155.761719 0.171875)"/>
      <use xlink:href="#DejaVuSans-44" transform="translate(219.238281 0.171875)"/>
      <use xlink:href="#DejaVuSans-20" transform="translate(296.240234 0.171875)"/>
      <use xlink:href="#DejaVuSans-5b" transform="translate(328.027344 0.171875)"/>
      <use xlink:href="#DejaVuSans-Oblique-c5" transform="translate(367.041016 0.171875)"/>
      <use xlink:href="#DejaVuSans-5d" transform="translate(435.449219 0.171875)"/>
     </g>
    </g>
   </g>
   <g id="LineCollection_1">
    <path d="M 66.015636 160.637448 
L 91.220864 160.637448 
" clip-path="url(#pc308ab82a2)" style="fill: none; stroke: #1f77b4; stroke-width: 1.5"/>
   </g>
   <g id="LineCollection_2">
    <path d="M 66.015636 57.247241 
L 91.220864 57.247241 
" clip-path="url(#pc308ab82a2)" style="fill: none; stroke: #1f77b4; stroke-width: 1.5"/>
   </g>
   <g id="LineCollection_3">
    <path d="M 66.015636 261.39207 
L 91.220864 261.39207 
" clip-path="url(#pc308ab82a2)" style="fill: none; stroke: #1f77b4; stroke-width: 1.5"/>
   </g>
   <g id="LineCollection_4">
    <path d="M 78.61825 261.39207 
L 78.61825 57.247241 
" clip-path="url(#pc308ab82a2)" style="fill: none; stroke: #1f77b4; stroke-width: 1.5"/>
   </g>
   <g id="patch_3">
    <path d="M 50.8925 271.599312 
L 50.8925 47.04 
" style="fill: none; stroke: #000000; stroke-width: 0.8; stroke-linejoin: miter; stroke-linecap: square"/>
   </g>
   <g id="patch_4">
    <path d="M 106.344 271.599312 
L 106.344 47.04 
" style="fill: none; stroke: #000000; stroke-width: 0.8; stroke-linejoin: miter; stroke-linecap: square"/>
   </g>
   <g id="patch_5">
    <path d="M 50.8925 271.599312 
L 106.344 271.599312 
" style="fill: none; stroke: #000000; stroke-width: 0.8; stroke-linejoin: miter; stroke-linecap: square"/>
   </g>
   <g id="patch_6">
    <path d="M 50.8925 47.04 
L 106.344 47.04 
" style="fill: none; stroke: #000000; stroke-width: 0.8; stroke-linejoin: miter; stroke-linecap: square"/>
   </g>
   <g id="text_7">
    <!-- RMSD -->
    <g transform="translate(60.84325 41.04)scale(0.12 -0.12)">
     <use xlink:href="#DejaVuSans-52"/>
     <use xlink:href="#DejaVuSans-4d" x="69.482422"/>
     <use xlink:href="#DejaVuSans-53" x="155.761719"/>
     <use xlink:href="#DejaVuSans-44" x="219.238281"/>
    </g>
   </g>
  </g>
  <g id="axes_2">
   <g id="patch_7">
    <path d="M 165.6065 271.599312 
L 221.058 271.599312 
L 221.058 47.04 
L 165.6065 47.04 
z
" style="fill: #ffffff"/>
   </g>
   <g id="PolyCollection_2">
    <path d="M 194.265148 261.39207 
L 192.399352 261.39207 
L 192.241643 259.330001 
L 192.0566 257.267932 
L 191.833819 255.205863 
L 191.561426 253.143794 
L 191.227399 251.081725 
L 190.821145 249.019656 
L 190.335057 246.957587 
L 189.765746 244.895518 
L 189.114738 242.833449 
L 188.388494 240.77138 
L 187.597793 238.709311 
L 186.756618 236.647242 
L 185.880814 234.585173 
L 184.986759 232.523105 
L 184.090245 230.461036 
L 183.205652 228.398967 
L 182.345352 226.336898 
L 181.519242 224.274829 
L 180.734271 222.21276 
L 179.993944 220.150691 
L 179.297868 218.088622 
L 178.641522 216.026553 
L 178.016478 213.964484 
L 177.411219 211.902415 
L 176.812581 209.840346 
L 176.207685 207.778277 
L 175.586041 205.716208 
L 174.941451 203.654139 
L 174.273354 201.59207 
L 173.587356 199.530001 
L 172.894854 197.467932 
L 172.211856 195.405863 
L 171.557165 193.343794 
L 170.950221 191.281725 
L 170.408813 189.219656 
L 169.9469 187.157587 
L 169.572722 185.095518 
L 169.287423 183.033449 
L 169.084422 180.97138 
L 168.949793 178.909311 
L 168.863823 176.847242 
L 168.803755 174.785173 
L 168.747428 172.723104 
L 168.677248 170.661035 
L 168.583692 168.598966 
L 168.46757 166.536897 
L 168.340459 164.474828 
L 168.223149 162.412759 
L 168.142443 160.35069 
L 168.127023 158.288621 
L 168.203276 156.226552 
L 168.391886 154.164483 
L 168.705665 152.102414 
L 169.148747 150.040345 
L 169.716932 147.978276 
L 170.398823 145.916207 
L 171.177426 143.854138 
L 172.031993 141.79207 
L 172.939984 139.730001 
L 173.879099 137.667932 
L 174.829264 135.605863 
L 175.774363 133.543794 
L 176.703463 131.481725 
L 177.611268 129.419656 
L 178.497676 127.357587 
L 179.366483 125.295518 
L 180.223475 123.233449 
L 181.074322 121.17138 
L 181.922698 119.109311 
L 182.769028 117.047242 
L 183.610084 114.985173 
L 184.439439 112.923104 
L 185.248598 110.861035 
L 186.028459 108.798966 
L 186.770734 106.736897 
L 187.468993 104.674828 
L 188.119155 102.612759 
L 188.719431 100.55069 
L 189.269847 98.488621 
L 189.771617 96.426552 
L 190.22656 94.364483 
L 190.636738 92.302414 
L 191.004323 90.240345 
L 191.331624 88.178276 
L 191.62116 86.116207 
L 191.875648 84.054138 
L 192.097876 81.992069 
L 192.290502 79.93 
L 192.45585 77.867931 
L 192.595829 75.805862 
L 192.712017 73.743793 
L 192.805914 71.681724 
L 192.879273 69.619655 
L 192.9344 67.557586 
L 192.974306 65.495517 
L 193.002635 63.433448 
L 193.023379 61.371379 
L 193.040444 59.30931 
L 193.057175 57.247241 
L 193.607325 57.247241 
L 193.607325 57.247241 
L 193.624056 59.30931 
L 193.641121 61.371379 
L 193.661865 63.433448 
L 193.690194 65.495517 
L 193.7301 67.557586 
L 193.785227 69.619655 
L 193.858586 71.681724 
L 193.952483 73.743793 
L 194.068671 75.805862 
L 194.20865 77.867931 
L 194.373998 79.93 
L 194.566624 81.992069 
L 194.788852 84.054138 
L 195.04334 86.116207 
L 195.332876 88.178276 
L 195.660177 90.240345 
L 196.027762 92.302414 
L 196.43794 94.364483 
L 196.892883 96.426552 
L 197.394653 98.488621 
L 197.945069 100.55069 
L 198.545345 102.612759 
L 199.195507 104.674828 
L 199.893766 106.736897 
L 200.636041 108.798966 
L 201.415902 110.861035 
L 202.225061 112.923104 
L 203.054416 114.985173 
L 203.895472 117.047242 
L 204.741802 119.109311 
L 205.590178 121.17138 
L 206.441025 123.233449 
L 207.298017 125.295518 
L 208.166824 127.357587 
L 209.053232 129.419656 
L 209.961037 131.481725 
L 210.890137 133.543794 
L 211.835236 135.605863 
L 212.785401 137.667932 
L 213.724516 139.730001 
L 214.632507 141.79207 
L 215.487074 143.854138 
L 216.265677 145.916207 
L 216.947568 147.978276 
L 217.515753 150.040345 
L 217.958835 152.102414 
L 218.272614 154.164483 
L 218.461224 156.226552 
L 218.537477 158.288621 
L 218.522057 160.35069 
L 218.441351 162.412759 
L 218.324041 164.474828 
L 218.19693 166.536897 
L 218.080808 168.598966 
L 217.987252 170.661035 
L 217.917072 172.723104 
L 217.860745 174.785173 
L 217.800677 176.847242 
L 217.714707 178.909311 
L 217.580078 180.97138 
L 217.377077 183.033449 
L 217.091778 185.095518 
L 216.7176 187.157587 
L 216.255687 189.219656 
L 215.714279 191.281725 
L 215.107335 193.343794 
L 214.452644 195.405863 
L 213.769646 197.467932 
L 213.077144 199.530001 
L 212.391146 201.59207 
L 211.723049 203.654139 
L 211.078459 205.716208 
L 210.456815 207.778277 
L 209.851919 209.840346 
L 209.253281 211.902415 
L 208.648022 213.964484 
L 208.022978 216.026553 
L 207.366632 218.088622 
L 206.670556 220.150691 
L 205.930229 222.21276 
L 205.145258 224.274829 
L 204.319148 226.336898 
L 203.458848 228.398967 
L 202.574255 230.461036 
L 201.677741 232.523105 
L 200.783686 234.585173 
L 199.907882 236.647242 
L 199.066707 238.709311 
L 198.276006 240.77138 
L 197.549762 242.833449 
L 196.898754 244.895518 
L 196.329443 246.957587 
L 195.843355 249.019656 
L 195.437101 251.081725 
L 195.103074 253.143794 
L 194.830681 255.205863 
L 194.6079 257.267932 
L 194.422857 259.330001 
L 194.265148 261.39207 
z
" clip-path="url(#p949ded5341)" style="fill: #1f77b4; fill-opacity: 0.3"/>
   </g>
   <g id="matplotlib.axis_2">
    <g id="ytick_6">
     <g id="line2d_6">
      <g>
       <use xlink:href="#md8f02478c2" x="165.6065" y="240.155043" style="stroke: #000000; stroke-width: 0.8"/>
      </g>
     </g>
     <g id="text_8">
      <!-- 0.8 -->
      <g transform="translate(142.703375 243.954262)scale(0.1 -0.1)">
       <defs>
        <path id="DejaVuSans-38" d="M 2034 2216 
Q 1584 2216 1326 1975 
Q 1069 1734 1069 1313 
Q 1069 891 1326 650 
Q 1584 409 2034 409 
Q 2484 409 2743 651 
Q 3003 894 3003 1313 
Q 3003 1734 2745 1975 
Q 2488 2216 2034 2216 
z
M 1403 2484 
Q 997 2584 770 2862 
Q 544 3141 544 3541 
Q 544 4100 942 4425 
Q 1341 4750 2034 4750 
Q 2731 4750 3128 4425 
Q 3525 4100 3525 3541 
Q 3525 3141 3298 2862 
Q 3072 2584 2669 2484 
Q 3125 2378 3379 2068 
Q 3634 1759 3634 1313 
Q 3634 634 3220 271 
Q 2806 -91 2034 -91 
Q 1263 -91 848 271 
Q 434 634 434 1313 
Q 434 1759 690 2068 
Q 947 2378 1403 2484 
z
M 1172 3481 
Q 1172 3119 1398 2916 
Q 1625 2713 2034 2713 
Q 2441 2713 2670 2916 
Q 2900 3119 2900 3481 
Q 2900 3844 2670 4047 
Q 2441 4250 2034 4250 
Q 1625 4250 1398 4047 
Q 1172 3844 1172 3481 
z
" transform="scale(0.015625)"/>
       </defs>
       <use xlink:href="#DejaVuSans-30"/>
       <use xlink:href="#DejaVuSans-2e" x="63.623047"/>
       <use xlink:href="#DejaVuSans-38" x="95.410156"/>
      </g>
     </g>
    </g>
    <g id="ytick_7">
     <g id="line2d_7">
      <g>
       <use xlink:href="#md8f02478c2" x="165.6065" y="206.914429" style="stroke: #000000; stroke-width: 0.8"/>
      </g>
     </g>
     <g id="text_9">
      <!-- 1.0 -->
      <g transform="translate(142.703375 210.713648)scale(0.1 -0.1)">
       <use xlink:href="#DejaVuSans-31"/>
       <use xlink:href="#DejaVuSans-2e" x="63.623047"/>
       <use xlink:href="#DejaVuSans-30" x="95.410156"/>
      </g>
     </g>
    </g>
    <g id="ytick_8">
     <g id="line2d_8">
      <g>
       <use xlink:href="#md8f02478c2" x="165.6065" y="173.673815" style="stroke: #000000; stroke-width: 0.8"/>
      </g>
     </g>
     <g id="text_10">
      <!-- 1.2 -->
      <g transform="translate(142.703375 177.473034)scale(0.1 -0.1)">
       <use xlink:href="#DejaVuSans-31"/>
       <use xlink:href="#DejaVuSans-2e" x="63.623047"/>
       <use xlink:href="#DejaVuSans-32" x="95.410156"/>
      </g>
     </g>
    </g>
    <g id="ytick_9">
     <g id="line2d_9">
      <g>
       <use xlink:href="#md8f02478c2" x="165.6065" y="140.433201" style="stroke: #000000; stroke-width: 0.8"/>
      </g>
     </g>
     <g id="text_11">
      <!-- 1.4 -->
      <g transform="translate(142.703375 144.23242)scale(0.1 -0.1)">
       <defs>
        <path id="DejaVuSans-34" d="M 2419 4116 
L 825 1625 
L 2419 1625 
L 2419 4116 
z
M 2253 4666 
L 3047 4666 
L 3047 1625 
L 3713 1625 
L 3713 1100 
L 3047 1100 
L 3047 0 
L 2419 0 
L 2419 1100 
L 313 1100 
L 313 1709 
L 2253 4666 
z
" transform="scale(0.015625)"/>
       </defs>
       <use xlink:href="#DejaVuSans-31"/>
       <use xlink:href="#DejaVuSans-2e" x="63.623047"/>
       <use xlink:href="#DejaVuSans-34" x="95.410156"/>
      </g>
     </g>
    </g>
    <g id="ytick_10">
     <g id="line2d_10">
      <g>
       <use xlink:href="#md8f02478c2" x="165.6065" y="107.192587" style="stroke: #000000; stroke-width: 0.8"/>
      </g>
     </g>
     <g id="text_12">
      <!-- 1.6 -->
      <g transform="translate(142.703375 110.991805)scale(0.1 -0.1)">
       <defs>
        <path id="DejaVuSans-36" d="M 2113 2584 
Q 1688 2584 1439 2293 
Q 1191 2003 1191 1497 
Q 1191 994 1439 701 
Q 1688 409 2113 409 
Q 2538 409 2786 701 
Q 3034 994 3034 1497 
Q 3034 2003 2786 2293 
Q 2538 2584 2113 2584 
z
M 3366 4563 
L 3366 3988 
Q 3128 4100 2886 4159 
Q 2644 4219 2406 4219 
Q 1781 4219 1451 3797 
Q 1122 3375 1075 2522 
Q 1259 2794 1537 2939 
Q 1816 3084 2150 3084 
Q 2853 3084 3261 2657 
Q 3669 2231 3669 1497 
Q 3669 778 3244 343 
Q 2819 -91 2113 -91 
Q 1303 -91 875 529 
Q 447 1150 447 2328 
Q 447 3434 972 4092 
Q 1497 4750 2381 4750 
Q 2619 4750 2861 4703 
Q 3103 4656 3366 4563 
z
" transform="scale(0.015625)"/>
       </defs>
       <use xlink:href="#DejaVuSans-31"/>
       <use xlink:href="#DejaVuSans-2e" x="63.623047"/>
       <use xlink:href="#DejaVuSans-36" x="95.410156"/>
      </g>
     </g>
    </g>
    <g id="ytick_11">
     <g id="line2d_11">
      <g>
       <use xlink:href="#md8f02478c2" x="165.6065" y="73.951973" style="stroke: #000000; stroke-width: 0.8"/>
      </g>
     </g>
     <g id="text_13">
      <!-- 1.8 -->
      <g transform="translate(142.703375 77.751191)scale(0.1 -0.1)">
       <use xlink:href="#DejaVuSans-31"/>
       <use xlink:href="#DejaVuSans-2e" x="63.623047"/>
       <use xlink:href="#DejaVuSans-38" x="95.410156"/>
      </g>
     </g>
    </g>
    <g id="text_14">
     <!-- MAE [$\AA$] -->
     <g transform="translate(136.623687 179.169656)rotate(-90)scale(0.1 -0.1)">
      <defs>
       <path id="DejaVuSans-41" d="M 2188 4044 
L 1331 1722 
L 3047 1722 
L 2188 4044 
z
M 1831 4666 
L 2547 4666 
L 4325 0 
L 3669 0 
L 3244 1197 
L 1141 1197 
L 716 0 
L 50 0 
L 1831 4666 
z
" transform="scale(0.015625)"/>
       <path id="DejaVuSans-45" d="M 628 4666 
L 3578 4666 
L 3578 4134 
L 1259 4134 
L 1259 2753 
L 3481 2753 
L 3481 2222 
L 1259 2222 
L 1259 531 
L 3634 531 
L 3634 0 
L 628 0 
L 628 4666 
z
" transform="scale(0.015625)"/>
      </defs>
      <use xlink:href="#DejaVuSans-4d" transform="translate(0 0.171875)"/>
      <use xlink:href="#DejaVuSans-41" transform="translate(86.279297 0.171875)"/>
      <use xlink:href="#DejaVuSans-45" transform="translate(154.6875 0.171875)"/>
      <use xlink:href="#DejaVuSans-20" transform="translate(217.871094 0.171875)"/>
      <use xlink:href="#DejaVuSans-5b" transform="translate(249.658203 0.171875)"/>
      <use xlink:href="#DejaVuSans-Oblique-c5" transform="translate(288.671875 0.171875)"/>
      <use xlink:href="#DejaVuSans-5d" transform="translate(357.080078 0.171875)"/>
     </g>
    </g>
   </g>
   <g id="LineCollection_5">
    <path d="M 180.729636 170.534768 
L 205.934864 170.534768 
" clip-path="url(#p949ded5341)" style="fill: none; stroke: #1f77b4; stroke-width: 1.5"/>
   </g>
   <g id="LineCollection_6">
    <path d="M 180.729636 57.247241 
L 205.934864 57.247241 
" clip-path="url(#p949ded5341)" style="fill: none; stroke: #1f77b4; stroke-width: 1.5"/>
   </g>
   <g id="LineCollection_7">
    <path d="M 180.729636 261.39207 
L 205.934864 261.39207 
" clip-path="url(#p949ded5341)" style="fill: none; stroke: #1f77b4; stroke-width: 1.5"/>
   </g>
   <g id="LineCollection_8">
    <path d="M 193.33225 261.39207 
L 193.33225 57.247241 
" clip-path="url(#p949ded5341)" style="fill: none; stroke: #1f77b4; stroke-width: 1.5"/>
   </g>
   <g id="patch_8">
    <path d="M 165.6065 271.599312 
L 165.6065 47.04 
" style="fill: none; stroke: #000000; stroke-width: 0.8; stroke-linejoin: miter; stroke-linecap: square"/>
   </g>
   <g id="patch_9">
    <path d="M 221.058 271.599312 
L 221.058 47.04 
" style="fill: none; stroke: #000000; stroke-width: 0.8; stroke-linejoin: miter; stroke-linecap: square"/>
   </g>
   <g id="patch_10">
    <path d="M 165.6065 271.599312 
L 221.058 271.599312 
" style="fill: none; stroke: #000000; stroke-width: 0.8; stroke-linejoin: miter; stroke-linecap: square"/>
   </g>
   <g id="patch_11">
    <path d="M 165.6065 47.04 
L 221.058 47.04 
" style="fill: none; stroke: #000000; stroke-width: 0.8; stroke-linejoin: miter; stroke-linecap: square"/>
   </g>
   <g id="text_15">
    <!-- MAE -->
    <g transform="translate(180.25975 41.04)scale(0.12 -0.12)">
     <use xlink:href="#DejaVuSans-4d"/>
     <use xlink:href="#DejaVuSans-41" x="86.279297"/>
     <use xlink:href="#DejaVuSans-45" x="154.6875"/>
    </g>
   </g>
  </g>
  <g id="axes_3">
   <g id="patch_12">
    <path d="M 280.3205 271.599312 
L 335.772 271.599312 
L 335.772 47.04 
L 280.3205 47.04 
z
" style="fill: #ffffff"/>
   </g>
   <g id="PolyCollection_3">
    <path d="M 308.968853 261.39207 
L 307.123647 261.39207 
L 306.991554 259.330001 
L 306.85334 257.267932 
L 306.707916 255.205863 
L 306.553089 253.143794 
L 306.385691 251.081725 
L 306.201888 249.019656 
L 305.997619 246.957587 
L 305.769073 244.895518 
L 305.513117 242.833449 
L 305.227566 240.77138 
L 304.911261 238.709311 
L 304.563946 236.647242 
L 304.186018 234.585173 
L 303.77824 232.523105 
L 303.341533 230.461036 
L 302.876941 228.398967 
L 302.385792 226.336898 
L 301.869993 224.274829 
L 301.332373 222.21276 
L 300.776892 220.150691 
L 300.208579 218.088622 
L 299.633126 216.026553 
L 299.056125 213.964484 
L 298.482093 211.902415 
L 297.913486 209.840346 
L 297.349965 207.778277 
L 296.788154 205.716208 
L 296.222041 203.654139 
L 295.644045 201.59207 
L 295.046602 199.530001 
L 294.42401 197.467932 
L 293.774149 195.405863 
L 293.09973 193.343794 
L 292.408728 191.281725 
L 291.713861 189.219656 
L 291.031087 187.157587 
L 290.377359 185.095518 
L 289.767981 183.033449 
L 289.214048 180.97138 
L 288.72046 178.909311 
L 288.284919 176.847242 
L 287.898157 174.785173 
L 287.545418 172.723104 
L 287.208952 170.661035 
L 286.871111 168.598966 
L 286.517448 166.536897 
L 286.139247 164.474828 
L 285.734991 162.412759 
L 285.310513 160.35069 
L 284.877842 158.288621 
L 284.45305 156.226552 
L 284.053588 154.164483 
L 283.695711 152.102414 
L 283.392479 150.040345 
L 283.152688 147.978276 
L 282.980765 145.916207 
L 282.877468 143.854138 
L 282.841023 141.79207 
L 282.868292 139.730001 
L 282.955652 137.667932 
L 283.099405 135.605863 
L 283.295758 133.543794 
L 283.540565 131.481725 
L 283.829082 129.419656 
L 284.156006 127.357587 
L 284.515906 125.295518 
L 284.904035 123.233449 
L 285.317347 121.17138 
L 285.755447 119.109311 
L 286.221165 117.047242 
L 286.720548 114.985173 
L 287.262151 112.923104 
L 287.855707 110.861035 
L 288.51038 108.798966 
L 289.232922 106.736897 
L 290.026063 104.674828 
L 290.887453 102.612759 
L 291.80932 100.55069 
L 292.778919 98.488621 
L 293.779662 96.426552 
L 294.79273 94.364483 
L 295.798896 92.302414 
L 296.780272 90.240345 
L 297.721757 88.178276 
L 298.612013 86.116207 
L 299.443907 84.054138 
L 300.214443 81.992069 
L 300.924268 79.93 
L 301.576881 77.867931 
L 302.177695 75.805862 
L 302.733076 73.743793 
L 303.249469 71.681724 
L 303.732697 69.619655 
L 304.187458 67.557586 
L 304.61705 65.495517 
L 305.0233 63.433448 
L 305.406676 61.371379 
L 305.766539 59.30931 
L 306.101482 57.247241 
L 309.991018 57.247241 
L 309.991018 57.247241 
L 310.325961 59.30931 
L 310.685824 61.371379 
L 311.0692 63.433448 
L 311.47545 65.495517 
L 311.905042 67.557586 
L 312.359803 69.619655 
L 312.843031 71.681724 
L 313.359424 73.743793 
L 313.914805 75.805862 
L 314.515619 77.867931 
L 315.168232 79.93 
L 315.878057 81.992069 
L 316.648593 84.054138 
L 317.480487 86.116207 
L 318.370743 88.178276 
L 319.312228 90.240345 
L 320.293604 92.302414 
L 321.29977 94.364483 
L 322.312838 96.426552 
L 323.313581 98.488621 
L 324.28318 100.55069 
L 325.205047 102.612759 
L 326.066437 104.674828 
L 326.859578 106.736897 
L 327.58212 108.798966 
L 328.236793 110.861035 
L 328.830349 112.923104 
L 329.371952 114.985173 
L 329.871335 117.047242 
L 330.337053 119.109311 
L 330.775153 121.17138 
L 331.188465 123.233449 
L 331.576594 125.295518 
L 331.936494 127.357587 
L 332.263418 129.419656 
L 332.551935 131.481725 
L 332.796742 133.543794 
L 332.993095 135.605863 
L 333.136848 137.667932 
L 333.224208 139.730001 
L 333.251477 141.79207 
L 333.215032 143.854138 
L 333.111735 145.916207 
L 332.939812 147.978276 
L 332.700021 150.040345 
L 332.396789 152.102414 
L 332.038912 154.164483 
L 331.63945 156.226552 
L 331.214658 158.288621 
L 330.781987 160.35069 
L 330.357509 162.412759 
L 329.953253 164.474828 
L 329.575052 166.536897 
L 329.221389 168.598966 
L 328.883548 170.661035 
L 328.547082 172.723104 
L 328.194343 174.785173 
L 327.807581 176.847242 
L 327.37204 178.909311 
L 326.878452 180.97138 
L 326.324519 183.033449 
L 325.715141 185.095518 
L 325.061413 187.157587 
L 324.378639 189.219656 
L 323.683772 191.281725 
L 322.99277 193.343794 
L 322.318351 195.405863 
L 321.66849 197.467932 
L 321.045898 199.530001 
L 320.448455 201.59207 
L 319.870459 203.654139 
L 319.304346 205.716208 
L 318.742535 207.778277 
L 318.179014 209.840346 
L 317.610407 211.902415 
L 317.036375 213.964484 
L 316.459374 216.026553 
L 315.883921 218.088622 
L 315.315608 220.150691 
L 314.760127 222.21276 
L 314.222507 224.274829 
L 313.706708 226.336898 
L 313.215559 228.398967 
L 312.750967 230.461036 
L 312.31426 232.523105 
L 311.906482 234.585173 
L 311.528554 236.647242 
L 311.181239 238.709311 
L 310.864934 240.77138 
L 310.579383 242.833449 
L 310.323427 244.895518 
L 310.094881 246.957587 
L 309.890612 249.019656 
L 309.706809 251.081725 
L 309.539411 253.143794 
L 309.384584 255.205863 
L 309.23916 257.267932 
L 309.100946 259.330001 
L 308.968853 261.39207 
z
" clip-path="url(#pc145e71a94)" style="fill: #1f77b4; fill-opacity: 0.3"/>
   </g>
   <g id="matplotlib.axis_3">
    <g id="ytick_12">
     <g id="line2d_12">
      <g>
       <use xlink:href="#md8f02478c2" x="280.3205" y="271.073445" style="stroke: #000000; stroke-width: 0.8"/>
      </g>
     </g>
     <g id="text_16">
      <!-- −0.2 -->
      <g transform="translate(249.037687 274.872663)scale(0.1 -0.1)">
       <defs>
        <path id="DejaVuSans-2212" d="M 678 2272 
L 4684 2272 
L 4684 1741 
L 678 1741 
L 678 2272 
z
" transform="scale(0.015625)"/>
       </defs>
       <use xlink:href="#DejaVuSans-2212"/>
       <use xlink:href="#DejaVuSans-30" x="83.789062"/>
       <use xlink:href="#DejaVuSans-2e" x="147.412109"/>
       <use xlink:href="#DejaVuSans-32" x="179.199219"/>
      </g>
     </g>
    </g>
    <g id="ytick_13">
     <g id="line2d_13">
      <g>
       <use xlink:href="#md8f02478c2" x="280.3205" y="236.52345" style="stroke: #000000; stroke-width: 0.8"/>
      </g>
     </g>
     <g id="text_17">
      <!-- 0.0 -->
      <g transform="translate(257.417375 240.322669)scale(0.1 -0.1)">
       <use xlink:href="#DejaVuSans-30"/>
       <use xlink:href="#DejaVuSans-2e" x="63.623047"/>
       <use xlink:href="#DejaVuSans-30" x="95.410156"/>
      </g>
     </g>
    </g>
    <g id="ytick_14">
     <g id="line2d_14">
      <g>
       <use xlink:href="#md8f02478c2" x="280.3205" y="201.973455" style="stroke: #000000; stroke-width: 0.8"/>
      </g>
     </g>
     <g id="text_18">
      <!-- 0.2 -->
      <g transform="translate(257.417375 205.772674)scale(0.1 -0.1)">
       <use xlink:href="#DejaVuSans-30"/>
       <use xlink:href="#DejaVuSans-2e" x="63.623047"/>
       <use xlink:href="#DejaVuSans-32" x="95.410156"/>
      </g>
     </g>
    </g>
    <g id="ytick_15">
     <g id="line2d_15">
      <g>
       <use xlink:href="#md8f02478c2" x="280.3205" y="167.42346" style="stroke: #000000; stroke-width: 0.8"/>
      </g>
     </g>
     <g id="text_19">
      <!-- 0.4 -->
      <g transform="translate(257.417375 171.222679)scale(0.1 -0.1)">
       <use xlink:href="#DejaVuSans-30"/>
       <use xlink:href="#DejaVuSans-2e" x="63.623047"/>
       <use xlink:href="#DejaVuSans-34" x="95.410156"/>
      </g>
     </g>
    </g>
    <g id="ytick_16">
     <g id="line2d_16">
      <g>
       <use xlink:href="#md8f02478c2" x="280.3205" y="132.873465" style="stroke: #000000; stroke-width: 0.8"/>
      </g>
     </g>
     <g id="text_20">
      <!-- 0.6 -->
      <g transform="translate(257.417375 136.672684)scale(0.1 -0.1)">
       <use xlink:href="#DejaVuSans-30"/>
       <use xlink:href="#DejaVuSans-2e" x="63.623047"/>
       <use xlink:href="#DejaVuSans-36" x="95.410156"/>
      </g>
     </g>
    </g>
    <g id="ytick_17">
     <g id="line2d_17">
      <g>
       <use xlink:href="#md8f02478c2" x="280.3205" y="98.323471" style="stroke: #000000; stroke-width: 0.8"/>
      </g>
     </g>
     <g id="text_21">
      <!-- 0.8 -->
      <g transform="translate(257.417375 102.122689)scale(0.1 -0.1)">
       <use xlink:href="#DejaVuSans-30"/>
       <use xlink:href="#DejaVuSans-2e" x="63.623047"/>
       <use xlink:href="#DejaVuSans-38" x="95.410156"/>
      </g>
     </g>
    </g>
    <g id="ytick_18">
     <g id="line2d_18">
      <g>
       <use xlink:href="#md8f02478c2" x="280.3205" y="63.773476" style="stroke: #000000; stroke-width: 0.8"/>
      </g>
     </g>
     <g id="text_22">
      <!-- 1.0 -->
      <g transform="translate(257.417375 67.572695)scale(0.1 -0.1)">
       <use xlink:href="#DejaVuSans-31"/>
       <use xlink:href="#DejaVuSans-2e" x="63.623047"/>
       <use xlink:href="#DejaVuSans-30" x="95.410156"/>
      </g>
     </g>
    </g>
    <g id="text_23">
     <!-- MSE [$\AA$] -->
     <g transform="translate(242.958 178.919656)rotate(-90)scale(0.1 -0.1)">
      <use xlink:href="#DejaVuSans-4d" transform="translate(0 0.171875)"/>
      <use xlink:href="#DejaVuSans-53" transform="translate(86.279297 0.171875)"/>
      <use xlink:href="#DejaVuSans-45" transform="translate(149.755859 0.171875)"/>
      <use xlink:href="#DejaVuSans-20" transform="translate(212.939453 0.171875)"/>
      <use xlink:href="#DejaVuSans-5b" transform="translate(244.726562 0.171875)"/>
      <use xlink:href="#DejaVuSans-Oblique-c5" transform="translate(283.740234 0.171875)"/>
      <use xlink:href="#DejaVuSans-5d" transform="translate(352.148438 0.171875)"/>
     </g>
    </g>
   </g>
   <g id="LineCollection_9">
    <path d="M 295.443636 149.105083 
L 320.648864 149.105083 
" clip-path="url(#pc145e71a94)" style="fill: none; stroke: #1f77b4; stroke-width: 1.5"/>
   </g>
   <g id="LineCollection_10">
    <path d="M 295.443636 57.247241 
L 320.648864 57.247241 
" clip-path="url(#pc145e71a94)" style="fill: none; stroke: #1f77b4; stroke-width: 1.5"/>
   </g>
   <g id="LineCollection_11">
    <path d="M 295.443636 261.39207 
L 320.648864 261.39207 
" clip-path="url(#pc145e71a94)" style="fill: none; stroke: #1f77b4; stroke-width: 1.5"/>
   </g>
   <g id="LineCollection_12">
    <path d="M 308.04625 261.39207 
L 308.04625 57.247241 
" clip-path="url(#pc145e71a94)" style="fill: none; stroke: #1f77b4; stroke-width: 1.5"/>
   </g>
   <g id="patch_13">
    <path d="M 280.3205 271.599312 
L 280.3205 47.04 
" style="fill: none; stroke: #000000; stroke-width: 0.8; stroke-linejoin: miter; stroke-linecap: square"/>
   </g>
   <g id="patch_14">
    <path d="M 335.772 271.599312 
L 335.772 47.04 
" style="fill: none; stroke: #000000; stroke-width: 0.8; stroke-linejoin: miter; stroke-linecap: square"/>
   </g>
   <g id="patch_15">
    <path d="M 280.3205 271.599312 
L 335.772 271.599312 
" style="fill: none; stroke: #000000; stroke-width: 0.8; stroke-linejoin: miter; stroke-linecap: square"/>
   </g>
   <g id="patch_16">
    <path d="M 280.3205 47.04 
L 335.772 47.04 
" style="fill: none; stroke: #000000; stroke-width: 0.8; stroke-linejoin: miter; stroke-linecap: square"/>
   </g>
   <g id="text_24">
    <!-- MSE -->
    <g transform="translate(295.269062 41.04)scale(0.12 -0.12)">
     <use xlink:href="#DejaVuSans-4d"/>
     <use xlink:href="#DejaVuSans-53" x="86.279297"/>
     <use xlink:href="#DejaVuSans-45" x="149.755859"/>
    </g>
   </g>
  </g>
  <g id="axes_4">
   <g id="patch_17">
    <path d="M 395.0345 271.599312 
L 450.486 271.599312 
L 450.486 47.04 
L 395.0345 47.04 
z
" style="fill: #ffffff"/>
   </g>
   <g id="PolyCollection_4">
    <path d="M 422.962867 261.39207 
L 422.557633 261.39207 
L 422.554847 259.330001 
L 422.555707 257.267932 
L 422.557171 255.205863 
L 422.555231 253.143794 
L 422.545362 251.081725 
L 422.523046 249.019656 
L 422.484262 246.957587 
L 422.425884 244.895518 
L 422.345924 242.833449 
L 422.243624 240.77138 
L 422.119393 238.709311 
L 421.974619 236.647242 
L 421.811382 234.585173 
L 421.632113 232.523105 
L 421.43925 230.461036 
L 421.234914 228.398967 
L 421.020657 226.336898 
L 420.797226 224.274829 
L 420.564338 222.21276 
L 420.320374 220.150691 
L 420.061988 218.088622 
L 419.783665 216.026553 
L 419.477409 213.964484 
L 419.132792 211.902415 
L 418.737625 209.840346 
L 418.279387 207.778277 
L 417.747312 205.716208 
L 417.1348 203.654139 
L 416.441558 201.59207 
L 415.674872 199.530001 
L 414.849505 197.467932 
L 413.986065 195.405863 
L 413.108072 193.343794 
L 412.238258 191.281725 
L 411.394848 189.219656 
L 410.588555 187.157587 
L 409.820821 185.095518 
L 409.083636 183.033449 
L 408.360929 180.97138 
L 407.631362 178.909311 
L 406.872112 176.847242 
L 406.063166 174.785173 
L 405.19151 172.723104 
L 404.254604 170.661035 
L 403.26255 168.598966 
L 402.238507 166.536897 
L 401.217191 164.474828 
L 400.24161 162.412759 
L 399.35856 160.35069 
L 398.613624 158.288621 
L 398.046514 156.226552 
L 397.687458 154.164483 
L 397.555023 152.102414 
L 397.655441 150.040345 
L 397.983173 147.978276 
L 398.522248 145.916207 
L 399.24794 143.854138 
L 400.128426 141.79207 
L 401.126319 139.730001 
L 402.200179 137.667932 
L 403.306251 135.605863 
L 404.400727 133.543794 
L 405.442659 131.481725 
L 406.397423 129.419656 
L 407.24032 127.357587 
L 407.959627 125.295518 
L 408.558342 123.233449 
L 409.053947 121.17138 
L 409.475897 119.109311 
L 409.860993 117.047242 
L 410.247327 114.985173 
L 410.667905 112.923104 
L 411.145231 110.861035 
L 411.687992 108.798966 
L 412.290617 106.736897 
L 412.935774 104.674828 
L 413.599194 102.612759 
L 414.255577 100.55069 
L 414.884086 98.488621 
L 415.472068 96.426552 
L 416.016212 94.364483 
L 416.521106 92.302414 
L 416.99591 90.240345 
L 417.450334 88.178276 
L 417.891166 86.116207 
L 418.320284 84.054138 
L 418.734531 81.992069 
L 419.127244 79.93 
L 419.490772 77.867931 
L 419.819126 75.805862 
L 420.109965 73.743793 
L 420.36541 71.681724 
L 420.591553 69.619655 
L 420.79691 67.557586 
L 420.990341 65.495517 
L 421.179049 63.433448 
L 421.367187 61.371379 
L 421.555355 59.30931 
L 421.741012 57.247241 
L 423.779488 57.247241 
L 423.779488 57.247241 
L 423.965145 59.30931 
L 424.153313 61.371379 
L 424.341451 63.433448 
L 424.530159 65.495517 
L 424.72359 67.557586 
L 424.928947 69.619655 
L 425.15509 71.681724 
L 425.410535 73.743793 
L 425.701374 75.805862 
L 426.029728 77.867931 
L 426.393256 79.93 
L 426.785969 81.992069 
L 427.200216 84.054138 
L 427.629334 86.116207 
L 428.070166 88.178276 
L 428.52459 90.240345 
L 428.999394 92.302414 
L 429.504288 94.364483 
L 430.048432 96.426552 
L 430.636414 98.488621 
L 431.264923 100.55069 
L 431.921306 102.612759 
L 432.584726 104.674828 
L 433.229883 106.736897 
L 433.832508 108.798966 
L 434.375269 110.861035 
L 434.852595 112.923104 
L 435.273173 114.985173 
L 435.659507 117.047242 
L 436.044603 119.109311 
L 436.466553 121.17138 
L 436.962158 123.233449 
L 437.560873 125.295518 
L 438.28018 127.357587 
L 439.123077 129.419656 
L 440.077841 131.481725 
L 441.119773 133.543794 
L 442.214249 135.605863 
L 443.320321 137.667932 
L 444.394181 139.730001 
L 445.392074 141.79207 
L 446.27256 143.854138 
L 446.998252 145.916207 
L 447.537327 147.978276 
L 447.865059 150.040345 
L 447.965477 152.102414 
L 447.833042 154.164483 
L 447.473986 156.226552 
L 446.906876 158.288621 
L 446.16194 160.35069 
L 445.27889 162.412759 
L 444.303309 164.474828 
L 443.281993 166.536897 
L 442.25795 168.598966 
L 441.265896 170.661035 
L 440.32899 172.723104 
L 439.457334 174.785173 
L 438.648388 176.847242 
L 437.889138 178.909311 
L 437.159571 180.97138 
L 436.436864 183.033449 
L 435.699679 185.095518 
L 434.931945 187.157587 
L 434.125652 189.219656 
L 433.282242 191.281725 
L 432.412428 193.343794 
L 431.534435 195.405863 
L 430.670995 197.467932 
L 429.845628 199.530001 
L 429.078942 201.59207 
L 428.3857 203.654139 
L 427.773188 205.716208 
L 427.241113 207.778277 
L 426.782875 209.840346 
L 426.387708 211.902415 
L 426.043091 213.964484 
L 425.736835 216.026553 
L 425.458512 218.088622 
L 425.200126 220.150691 
L 424.956162 222.21276 
L 424.723274 224.274829 
L 424.499843 226.336898 
L 424.285586 228.398967 
L 424.08125 230.461036 
L 423.888387 232.523105 
L 423.709118 234.585173 
L 423.545881 236.647242 
L 423.401107 238.709311 
L 423.276876 240.77138 
L 423.174576 242.833449 
L 423.094616 244.895518 
L 423.036238 246.957587 
L 422.997454 249.019656 
L 422.975138 251.081725 
L 422.965269 253.143794 
L 422.963329 255.205863 
L 422.964793 257.267932 
L 422.965653 259.330001 
L 422.962867 261.39207 
z
" clip-path="url(#pa2fa68a40e)" style="fill: #1f77b4; fill-opacity: 0.3"/>
   </g>
   <g id="matplotlib.axis_4">
    <g id="ytick_19">
     <g id="line2d_19">
      <g>
       <use xlink:href="#md8f02478c2" x="395.0345" y="247.782415" style="stroke: #000000; stroke-width: 0.8"/>
      </g>
     </g>
     <g id="text_25">
      <!-- 0.60 -->
      <g transform="translate(365.768875 251.581634)scale(0.1 -0.1)">
       <use xlink:href="#DejaVuSans-30"/>
       <use xlink:href="#DejaVuSans-2e" x="63.623047"/>
       <use xlink:href="#DejaVuSans-36" x="95.410156"/>
       <use xlink:href="#DejaVuSans-30" x="159.033203"/>
      </g>
     </g>
    </g>
    <g id="ytick_20">
     <g id="line2d_20">
      <g>
       <use xlink:href="#md8f02478c2" x="395.0345" y="211.206466" style="stroke: #000000; stroke-width: 0.8"/>
      </g>
     </g>
     <g id="text_26">
      <!-- 0.65 -->
      <g transform="translate(365.768875 215.005685)scale(0.1 -0.1)">
       <use xlink:href="#DejaVuSans-30"/>
       <use xlink:href="#DejaVuSans-2e" x="63.623047"/>
       <use xlink:href="#DejaVuSans-36" x="95.410156"/>
       <use xlink:href="#DejaVuSans-35" x="159.033203"/>
      </g>
     </g>
    </g>
    <g id="ytick_21">
     <g id="line2d_21">
      <g>
       <use xlink:href="#md8f02478c2" x="395.0345" y="174.630518" style="stroke: #000000; stroke-width: 0.8"/>
      </g>
     </g>
     <g id="text_27">
      <!-- 0.70 -->
      <g transform="translate(365.768875 178.429737)scale(0.1 -0.1)">
       <defs>
        <path id="DejaVuSans-37" d="M 525 4666 
L 3525 4666 
L 3525 4397 
L 1831 0 
L 1172 0 
L 2766 4134 
L 525 4134 
L 525 4666 
z
" transform="scale(0.015625)"/>
       </defs>
       <use xlink:href="#DejaVuSans-30"/>
       <use xlink:href="#DejaVuSans-2e" x="63.623047"/>
       <use xlink:href="#DejaVuSans-37" x="95.410156"/>
       <use xlink:href="#DejaVuSans-30" x="159.033203"/>
      </g>
     </g>
    </g>
    <g id="ytick_22">
     <g id="line2d_22">
      <g>
       <use xlink:href="#md8f02478c2" x="395.0345" y="138.054569" style="stroke: #000000; stroke-width: 0.8"/>
      </g>
     </g>
     <g id="text_28">
      <!-- 0.75 -->
      <g transform="translate(365.768875 141.853788)scale(0.1 -0.1)">
       <use xlink:href="#DejaVuSans-30"/>
       <use xlink:href="#DejaVuSans-2e" x="63.623047"/>
       <use xlink:href="#DejaVuSans-37" x="95.410156"/>
       <use xlink:href="#DejaVuSans-35" x="159.033203"/>
      </g>
     </g>
    </g>
    <g id="ytick_23">
     <g id="line2d_23">
      <g>
       <use xlink:href="#md8f02478c2" x="395.0345" y="101.478621" style="stroke: #000000; stroke-width: 0.8"/>
      </g>
     </g>
     <g id="text_29">
      <!-- 0.80 -->
      <g transform="translate(365.768875 105.27784)scale(0.1 -0.1)">
       <use xlink:href="#DejaVuSans-30"/>
       <use xlink:href="#DejaVuSans-2e" x="63.623047"/>
       <use xlink:href="#DejaVuSans-38" x="95.410156"/>
       <use xlink:href="#DejaVuSans-30" x="159.033203"/>
      </g>
     </g>
    </g>
    <g id="ytick_24">
     <g id="line2d_24">
      <g>
       <use xlink:href="#md8f02478c2" x="395.0345" y="64.902673" style="stroke: #000000; stroke-width: 0.8"/>
      </g>
     </g>
     <g id="text_30">
      <!-- 0.85 -->
      <g transform="translate(365.768875 68.701891)scale(0.1 -0.1)">
       <use xlink:href="#DejaVuSans-30"/>
       <use xlink:href="#DejaVuSans-2e" x="63.623047"/>
       <use xlink:href="#DejaVuSans-38" x="95.410156"/>
       <use xlink:href="#DejaVuSans-35" x="159.033203"/>
      </g>
     </g>
    </g>
    <g id="text_31">
     <!-- % NOE fulfilled [1/100 %] -->
     <g transform="translate(359.689188 222.820437)rotate(-90)scale(0.1 -0.1)">
      <defs>
       <path id="DejaVuSans-25" d="M 4653 2053 
Q 4381 2053 4226 1822 
Q 4072 1591 4072 1178 
Q 4072 772 4226 539 
Q 4381 306 4653 306 
Q 4919 306 5073 539 
Q 5228 772 5228 1178 
Q 5228 1588 5073 1820 
Q 4919 2053 4653 2053 
z
M 4653 2450 
Q 5147 2450 5437 2106 
Q 5728 1763 5728 1178 
Q 5728 594 5436 251 
Q 5144 -91 4653 -91 
Q 4153 -91 3862 251 
Q 3572 594 3572 1178 
Q 3572 1766 3864 2108 
Q 4156 2450 4653 2450 
z
M 1428 4353 
Q 1159 4353 1004 4120 
Q 850 3888 850 3481 
Q 850 3069 1003 2837 
Q 1156 2606 1428 2606 
Q 1700 2606 1854 2837 
Q 2009 3069 2009 3481 
Q 2009 3884 1853 4118 
Q 1697 4353 1428 4353 
z
M 4250 4750 
L 4750 4750 
L 1831 -91 
L 1331 -91 
L 4250 4750 
z
M 1428 4750 
Q 1922 4750 2215 4408 
Q 2509 4066 2509 3481 
Q 2509 2891 2217 2550 
Q 1925 2209 1428 2209 
Q 931 2209 642 2551 
Q 353 2894 353 3481 
Q 353 4063 643 4406 
Q 934 4750 1428 4750 
z
" transform="scale(0.015625)"/>
       <path id="DejaVuSans-4e" d="M 628 4666 
L 1478 4666 
L 3547 763 
L 3547 4666 
L 4159 4666 
L 4159 0 
L 3309 0 
L 1241 3903 
L 1241 0 
L 628 0 
L 628 4666 
z
" transform="scale(0.015625)"/>
       <path id="DejaVuSans-4f" d="M 2522 4238 
Q 1834 4238 1429 3725 
Q 1025 3213 1025 2328 
Q 1025 1447 1429 934 
Q 1834 422 2522 422 
Q 3209 422 3611 934 
Q 4013 1447 4013 2328 
Q 4013 3213 3611 3725 
Q 3209 4238 2522 4238 
z
M 2522 4750 
Q 3503 4750 4090 4092 
Q 4678 3434 4678 2328 
Q 4678 1225 4090 567 
Q 3503 -91 2522 -91 
Q 1538 -91 948 565 
Q 359 1222 359 2328 
Q 359 3434 948 4092 
Q 1538 4750 2522 4750 
z
" transform="scale(0.015625)"/>
       <path id="DejaVuSans-66" d="M 2375 4863 
L 2375 4384 
L 1825 4384 
Q 1516 4384 1395 4259 
Q 1275 4134 1275 3809 
L 1275 3500 
L 2222 3500 
L 2222 3053 
L 1275 3053 
L 1275 0 
L 697 0 
L 697 3053 
L 147 3053 
L 147 3500 
L 697 3500 
L 697 3744 
Q 697 4328 969 4595 
Q 1241 4863 1831 4863 
L 2375 4863 
z
" transform="scale(0.015625)"/>
       <path id="DejaVuSans-75" d="M 544 1381 
L 544 3500 
L 1119 3500 
L 1119 1403 
Q 1119 906 1312 657 
Q 1506 409 1894 409 
Q 2359 409 2629 706 
Q 2900 1003 2900 1516 
L 2900 3500 
L 3475 3500 
L 3475 0 
L 2900 0 
L 2900 538 
Q 2691 219 2414 64 
Q 2138 -91 1772 -91 
Q 1169 -91 856 284 
Q 544 659 544 1381 
z
M 1991 3584 
L 1991 3584 
z
" transform="scale(0.015625)"/>
       <path id="DejaVuSans-6c" d="M 603 4863 
L 1178 4863 
L 1178 0 
L 603 0 
L 603 4863 
z
" transform="scale(0.015625)"/>
       <path id="DejaVuSans-69" d="M 603 3500 
L 1178 3500 
L 1178 0 
L 603 0 
L 603 3500 
z
M 603 4863 
L 1178 4863 
L 1178 4134 
L 603 4134 
L 603 4863 
z
" transform="scale(0.015625)"/>
       <path id="DejaVuSans-65" d="M 3597 1894 
L 3597 1613 
L 953 1613 
Q 991 1019 1311 708 
Q 1631 397 2203 397 
Q 2534 397 2845 478 
Q 3156 559 3463 722 
L 3463 178 
Q 3153 47 2828 -22 
Q 2503 -91 2169 -91 
Q 1331 -91 842 396 
Q 353 884 353 1716 
Q 353 2575 817 3079 
Q 1281 3584 2069 3584 
Q 2775 3584 3186 3129 
Q 3597 2675 3597 1894 
z
M 3022 2063 
Q 3016 2534 2758 2815 
Q 2500 3097 2075 3097 
Q 1594 3097 1305 2825 
Q 1016 2553 972 2059 
L 3022 2063 
z
" transform="scale(0.015625)"/>
       <path id="DejaVuSans-64" d="M 2906 2969 
L 2906 4863 
L 3481 4863 
L 3481 0 
L 2906 0 
L 2906 525 
Q 2725 213 2448 61 
Q 2172 -91 1784 -91 
Q 1150 -91 751 415 
Q 353 922 353 1747 
Q 353 2572 751 3078 
Q 1150 3584 1784 3584 
Q 2172 3584 2448 3432 
Q 2725 3281 2906 2969 
z
M 947 1747 
Q 947 1113 1208 752 
Q 1469 391 1925 391 
Q 2381 391 2643 752 
Q 2906 1113 2906 1747 
Q 2906 2381 2643 2742 
Q 2381 3103 1925 3103 
Q 1469 3103 1208 2742 
Q 947 2381 947 1747 
z
" transform="scale(0.015625)"/>
       <path id="DejaVuSans-2f" d="M 1625 4666 
L 2156 4666 
L 531 -594 
L 0 -594 
L 1625 4666 
z
" transform="scale(0.015625)"/>
      </defs>
      <use xlink:href="#DejaVuSans-25"/>
      <use xlink:href="#DejaVuSans-20" x="95.019531"/>
      <use xlink:href="#DejaVuSans-4e" x="126.806641"/>
      <use xlink:href="#DejaVuSans-4f" x="201.611328"/>
      <use xlink:href="#DejaVuSans-45" x="280.322266"/>
      <use xlink:href="#DejaVuSans-20" x="343.505859"/>
      <use xlink:href="#DejaVuSans-66" x="375.292969"/>
      <use xlink:href="#DejaVuSans-75" x="410.498047"/>
      <use xlink:href="#DejaVuSans-6c" x="473.876953"/>
      <use xlink:href="#DejaVuSans-66" x="501.660156"/>
      <use xlink:href="#DejaVuSans-69" x="536.865234"/>
      <use xlink:href="#DejaVuSans-6c" x="564.648438"/>
      <use xlink:href="#DejaVuSans-6c" x="592.431641"/>
      <use xlink:href="#DejaVuSans-65" x="620.214844"/>
      <use xlink:href="#DejaVuSans-64" x="681.738281"/>
      <use xlink:href="#DejaVuSans-20" x="745.214844"/>
      <use xlink:href="#DejaVuSans-5b" x="777.001953"/>
      <use xlink:href="#DejaVuSans-31" x="816.015625"/>
      <use xlink:href="#DejaVuSans-2f" x="879.638672"/>
      <use xlink:href="#DejaVuSans-31" x="913.330078"/>
      <use xlink:href="#DejaVuSans-30" x="976.953125"/>
      <use xlink:href="#DejaVuSans-30" x="1040.576172"/>
      <use xlink:href="#DejaVuSans-20" x="1104.199219"/>
      <use xlink:href="#DejaVuSans-25" x="1135.986328"/>
      <use xlink:href="#DejaVuSans-5d" x="1231.005859"/>
     </g>
    </g>
   </g>
   <g id="LineCollection_13">
    <path d="M 410.157636 148.495727 
L 435.362864 148.495727 
" clip-path="url(#pa2fa68a40e)" style="fill: none; stroke: #1f77b4; stroke-width: 1.5"/>
   </g>
   <g id="LineCollection_14">
    <path d="M 410.157636 57.247241 
L 435.362864 57.247241 
" clip-path="url(#pa2fa68a40e)" style="fill: none; stroke: #1f77b4; stroke-width: 1.5"/>
   </g>
   <g id="LineCollection_15">
    <path d="M 410.157636 261.39207 
L 435.362864 261.39207 
" clip-path="url(#pa2fa68a40e)" style="fill: none; stroke: #1f77b4; stroke-width: 1.5"/>
   </g>
   <g id="LineCollection_16">
    <path d="M 422.76025 261.39207 
L 422.76025 57.247241 
" clip-path="url(#pa2fa68a40e)" style="fill: none; stroke: #1f77b4; stroke-width: 1.5"/>
   </g>
   <g id="patch_18">
    <path d="M 395.0345 271.599312 
L 395.0345 47.04 
" style="fill: none; stroke: #000000; stroke-width: 0.8; stroke-linejoin: miter; stroke-linecap: square"/>
   </g>
   <g id="patch_19">
    <path d="M 450.486 271.599312 
L 450.486 47.04 
" style="fill: none; stroke: #000000; stroke-width: 0.8; stroke-linejoin: miter; stroke-linecap: square"/>
   </g>
   <g id="patch_20">
    <path d="M 395.0345 271.599312 
L 450.486 271.599312 
" style="fill: none; stroke: #000000; stroke-width: 0.8; stroke-linejoin: miter; stroke-linecap: square"/>
   </g>
   <g id="patch_21">
    <path d="M 395.0345 47.04 
L 450.486 47.04 
" style="fill: none; stroke: #000000; stroke-width: 0.8; stroke-linejoin: miter; stroke-linecap: square"/>
   </g>
   <g id="text_32">
    <!-- % NOE fulfilled -->
    <g transform="translate(378.047125 41.04)scale(0.12 -0.12)">
     <use xlink:href="#DejaVuSans-25"/>
     <use xlink:href="#DejaVuSans-20" x="95.019531"/>
     <use xlink:href="#DejaVuSans-4e" x="126.806641"/>
     <use xlink:href="#DejaVuSans-4f" x="201.611328"/>
     <use xlink:href="#DejaVuSans-45" x="280.322266"/>
     <use xlink:href="#DejaVuSans-20" x="343.505859"/>
     <use xlink:href="#DejaVuSans-66" x="375.292969"/>
     <use xlink:href="#DejaVuSans-75" x="410.498047"/>
     <use xlink:href="#DejaVuSans-6c" x="473.876953"/>
     <use xlink:href="#DejaVuSans-66" x="501.660156"/>
     <use xlink:href="#DejaVuSans-69" x="536.865234"/>
     <use xlink:href="#DejaVuSans-6c" x="564.648438"/>
     <use xlink:href="#DejaVuSans-6c" x="592.431641"/>
     <use xlink:href="#DejaVuSans-65" x="620.214844"/>
     <use xlink:href="#DejaVuSans-64" x="681.738281"/>
    </g>
   </g>
  </g>
  <g id="axes_5">
   <g id="patch_22">
    <path d="M 509.7485 271.599312 
L 565.2 271.599312 
L 565.2 47.04 
L 509.7485 47.04 
z
" style="fill: #ffffff"/>
   </g>
   <g id="PolyCollection_5">
    <path d="M 538.454634 261.39207 
L 536.493866 261.39207 
L 536.354137 259.330001 
L 536.227063 257.267932 
L 536.116594 255.205863 
L 536.023595 253.143794 
L 535.945485 251.081725 
L 535.876489 249.019656 
L 535.808421 246.957587 
L 535.731823 244.895518 
L 535.637212 242.833449 
L 535.51622 240.77138 
L 535.362487 238.709311 
L 535.172249 236.647242 
L 534.9446 234.585173 
L 534.681453 232.523105 
L 534.387156 230.461036 
L 534.067774 228.398967 
L 533.730028 226.336898 
L 533.38002 224.274829 
L 533.021946 222.21276 
L 532.65708 220.150691 
L 532.283285 218.088622 
L 531.895192 216.026553 
L 531.485 213.964484 
L 531.043685 211.902415 
L 530.562305 209.840346 
L 530.033117 207.778277 
L 529.45034 205.716208 
L 528.810583 203.654139 
L 528.113047 201.59207 
L 527.359642 199.530001 
L 526.555028 197.467932 
L 525.706492 195.405863 
L 524.823464 193.343794 
L 523.916565 191.281725 
L 522.996225 189.219656 
L 522.071217 187.157587 
L 521.147529 185.095518 
L 520.228069 183.033449 
L 519.313423 180.97138 
L 518.40363 178.909311 
L 517.500545 176.847242 
L 516.610227 174.785173 
L 515.744667 172.723104 
L 514.922366 170.661035 
L 514.167447 168.598966 
L 513.507306 166.536897 
L 512.969093 164.474828 
L 512.575577 162.412759 
L 512.341175 160.35069 
L 512.269023 158.288621 
L 512.349877 156.226552 
L 512.563368 154.164483 
L 512.881609 152.102414 
L 513.27456 150.040345 
L 513.715996 147.978276 
L 514.188606 145.916207 
L 514.686833 143.854138 
L 515.216605 141.79207 
L 515.791966 139.730001 
L 516.429538 137.667932 
L 517.142429 135.605863 
L 517.935386 133.543794 
L 518.802579 131.481725 
L 519.728547 129.419656 
L 520.691819 127.357587 
L 521.669903 125.295518 
L 522.644023 123.233449 
L 523.602196 121.17138 
L 524.539939 119.109311 
L 525.458732 117.047242 
L 526.363074 114.985173 
L 527.257262 112.923104 
L 528.142927 110.861035 
L 529.017878 108.798966 
L 529.876276 106.736897 
L 530.709732 104.674828 
L 531.508746 102.612759 
L 532.264001 100.55069 
L 532.967283 98.488621 
L 533.612021 96.426552 
L 534.193599 94.364483 
L 534.709564 92.302414 
L 535.159778 90.240345 
L 535.546446 88.178276 
L 535.873916 86.116207 
L 536.148187 84.054138 
L 536.376164 81.992069 
L 536.564801 79.93 
L 536.720348 77.867931 
L 536.84787 75.805862 
L 536.951162 73.743793 
L 537.033025 71.681724 
L 537.095778 69.619655 
L 537.14182 67.557586 
L 537.174032 65.495517 
L 537.195893 63.433448 
L 537.211286 61.371379 
L 537.224061 59.30931 
L 537.237498 57.247241 
L 537.711002 57.247241 
L 537.711002 57.247241 
L 537.724439 59.30931 
L 537.737214 61.371379 
L 537.752607 63.433448 
L 537.774468 65.495517 
L 537.80668 67.557586 
L 537.852722 69.619655 
L 537.915475 71.681724 
L 537.997338 73.743793 
L 538.10063 75.805862 
L 538.228152 77.867931 
L 538.383699 79.93 
L 538.572336 81.992069 
L 538.800313 84.054138 
L 539.074584 86.116207 
L 539.402054 88.178276 
L 539.788722 90.240345 
L 540.238936 92.302414 
L 540.754901 94.364483 
L 541.336479 96.426552 
L 541.981217 98.488621 
L 542.684499 100.55069 
L 543.439754 102.612759 
L 544.238768 104.674828 
L 545.072224 106.736897 
L 545.930622 108.798966 
L 546.805573 110.861035 
L 547.691238 112.923104 
L 548.585426 114.985173 
L 549.489768 117.047242 
L 550.408561 119.109311 
L 551.346304 121.17138 
L 552.304477 123.233449 
L 553.278597 125.295518 
L 554.256681 127.357587 
L 555.219953 129.419656 
L 556.145921 131.481725 
L 557.013114 133.543794 
L 557.806071 135.605863 
L 558.518962 137.667932 
L 559.156534 139.730001 
L 559.731895 141.79207 
L 560.261667 143.854138 
L 560.759894 145.916207 
L 561.232504 147.978276 
L 561.67394 150.040345 
L 562.066891 152.102414 
L 562.385132 154.164483 
L 562.598623 156.226552 
L 562.679477 158.288621 
L 562.607325 160.35069 
L 562.372923 162.412759 
L 561.979407 164.474828 
L 561.441194 166.536897 
L 560.781053 168.598966 
L 560.026134 170.661035 
L 559.203833 172.723104 
L 558.338273 174.785173 
L 557.447955 176.847242 
L 556.54487 178.909311 
L 555.635077 180.97138 
L 554.720431 183.033449 
L 553.800971 185.095518 
L 552.877283 187.157587 
L 551.952275 189.219656 
L 551.031935 191.281725 
L 550.125036 193.343794 
L 549.242008 195.405863 
L 548.393472 197.467932 
L 547.588858 199.530001 
L 546.835453 201.59207 
L 546.137917 203.654139 
L 545.49816 205.716208 
L 544.915383 207.778277 
L 544.386195 209.840346 
L 543.904815 211.902415 
L 543.4635 213.964484 
L 543.053308 216.026553 
L 542.665215 218.088622 
L 542.29142 220.150691 
L 541.926554 222.21276 
L 541.56848 224.274829 
L 541.218472 226.336898 
L 540.880726 228.398967 
L 540.561344 230.461036 
L 540.267047 232.523105 
L 540.0039 234.585173 
L 539.776251 236.647242 
L 539.586013 238.709311 
L 539.43228 240.77138 
L 539.311288 242.833449 
L 539.216677 244.895518 
L 539.140079 246.957587 
L 539.072011 249.019656 
L 539.003015 251.081725 
L 538.924905 253.143794 
L 538.831906 255.205863 
L 538.721437 257.267932 
L 538.594363 259.330001 
L 538.454634 261.39207 
z
" clip-path="url(#p67ea8c9457)" style="fill: #1f77b4; fill-opacity: 0.3"/>
   </g>
   <g id="matplotlib.axis_5">
    <g id="ytick_25">
     <g id="line2d_25">
      <g>
       <use xlink:href="#md8f02478c2" x="509.7485" y="231.183782" style="stroke: #000000; stroke-width: 0.8"/>
      </g>
     </g>
     <g id="text_33">
      <!-- 0.6 -->
      <g transform="translate(486.845375 234.983001)scale(0.1 -0.1)">
       <use xlink:href="#DejaVuSans-30"/>
       <use xlink:href="#DejaVuSans-2e" x="63.623047"/>
       <use xlink:href="#DejaVuSans-36" x="95.410156"/>
      </g>
     </g>
    </g>
    <g id="ytick_26">
     <g id="line2d_26">
      <g>
       <use xlink:href="#md8f02478c2" x="509.7485" y="182.983492" style="stroke: #000000; stroke-width: 0.8"/>
      </g>
     </g>
     <g id="text_34">
      <!-- 0.7 -->
      <g transform="translate(486.845375 186.78271)scale(0.1 -0.1)">
       <use xlink:href="#DejaVuSans-30"/>
       <use xlink:href="#DejaVuSans-2e" x="63.623047"/>
       <use xlink:href="#DejaVuSans-37" x="95.410156"/>
      </g>
     </g>
    </g>
    <g id="ytick_27">
     <g id="line2d_27">
      <g>
       <use xlink:href="#md8f02478c2" x="509.7485" y="134.783201" style="stroke: #000000; stroke-width: 0.8"/>
      </g>
     </g>
     <g id="text_35">
      <!-- 0.8 -->
      <g transform="translate(486.845375 138.58242)scale(0.1 -0.1)">
       <use xlink:href="#DejaVuSans-30"/>
       <use xlink:href="#DejaVuSans-2e" x="63.623047"/>
       <use xlink:href="#DejaVuSans-38" x="95.410156"/>
      </g>
     </g>
    </g>
    <g id="ytick_28">
     <g id="line2d_28">
      <g>
       <use xlink:href="#md8f02478c2" x="509.7485" y="86.58291" style="stroke: #000000; stroke-width: 0.8"/>
      </g>
     </g>
     <g id="text_36">
      <!-- 0.9 -->
      <g transform="translate(486.845375 90.382129)scale(0.1 -0.1)">
       <defs>
        <path id="DejaVuSans-39" d="M 703 97 
L 703 672 
Q 941 559 1184 500 
Q 1428 441 1663 441 
Q 2288 441 2617 861 
Q 2947 1281 2994 2138 
Q 2813 1869 2534 1725 
Q 2256 1581 1919 1581 
Q 1219 1581 811 2004 
Q 403 2428 403 3163 
Q 403 3881 828 4315 
Q 1253 4750 1959 4750 
Q 2769 4750 3195 4129 
Q 3622 3509 3622 2328 
Q 3622 1225 3098 567 
Q 2575 -91 1691 -91 
Q 1453 -91 1209 -44 
Q 966 3 703 97 
z
M 1959 2075 
Q 2384 2075 2632 2365 
Q 2881 2656 2881 3163 
Q 2881 3666 2632 3958 
Q 2384 4250 1959 4250 
Q 1534 4250 1286 3958 
Q 1038 3666 1038 3163 
Q 1038 2656 1286 2365 
Q 1534 2075 1959 2075 
z
" transform="scale(0.015625)"/>
       </defs>
       <use xlink:href="#DejaVuSans-30"/>
       <use xlink:href="#DejaVuSans-2e" x="63.623047"/>
       <use xlink:href="#DejaVuSans-39" x="95.410156"/>
      </g>
     </g>
    </g>
    <g id="text_37">
     <!-- RMSD stepwise [$\AA$] -->
     <g transform="translate(480.745375 206.619656)rotate(-90)scale(0.1 -0.1)">
      <defs>
       <path id="DejaVuSans-73" d="M 2834 3397 
L 2834 2853 
Q 2591 2978 2328 3040 
Q 2066 3103 1784 3103 
Q 1356 3103 1142 2972 
Q 928 2841 928 2578 
Q 928 2378 1081 2264 
Q 1234 2150 1697 2047 
L 1894 2003 
Q 2506 1872 2764 1633 
Q 3022 1394 3022 966 
Q 3022 478 2636 193 
Q 2250 -91 1575 -91 
Q 1294 -91 989 -36 
Q 684 19 347 128 
L 347 722 
Q 666 556 975 473 
Q 1284 391 1588 391 
Q 1994 391 2212 530 
Q 2431 669 2431 922 
Q 2431 1156 2273 1281 
Q 2116 1406 1581 1522 
L 1381 1569 
Q 847 1681 609 1914 
Q 372 2147 372 2553 
Q 372 3047 722 3315 
Q 1072 3584 1716 3584 
Q 2034 3584 2315 3537 
Q 2597 3491 2834 3397 
z
" transform="scale(0.015625)"/>
       <path id="DejaVuSans-74" d="M 1172 4494 
L 1172 3500 
L 2356 3500 
L 2356 3053 
L 1172 3053 
L 1172 1153 
Q 1172 725 1289 603 
Q 1406 481 1766 481 
L 2356 481 
L 2356 0 
L 1766 0 
Q 1100 0 847 248 
Q 594 497 594 1153 
L 594 3053 
L 172 3053 
L 172 3500 
L 594 3500 
L 594 4494 
L 1172 4494 
z
" transform="scale(0.015625)"/>
       <path id="DejaVuSans-70" d="M 1159 525 
L 1159 -1331 
L 581 -1331 
L 581 3500 
L 1159 3500 
L 1159 2969 
Q 1341 3281 1617 3432 
Q 1894 3584 2278 3584 
Q 2916 3584 3314 3078 
Q 3713 2572 3713 1747 
Q 3713 922 3314 415 
Q 2916 -91 2278 -91 
Q 1894 -91 1617 61 
Q 1341 213 1159 525 
z
M 3116 1747 
Q 3116 2381 2855 2742 
Q 2594 3103 2138 3103 
Q 1681 3103 1420 2742 
Q 1159 2381 1159 1747 
Q 1159 1113 1420 752 
Q 1681 391 2138 391 
Q 2594 391 2855 752 
Q 3116 1113 3116 1747 
z
" transform="scale(0.015625)"/>
       <path id="DejaVuSans-77" d="M 269 3500 
L 844 3500 
L 1563 769 
L 2278 3500 
L 2956 3500 
L 3675 769 
L 4391 3500 
L 4966 3500 
L 4050 0 
L 3372 0 
L 2619 2869 
L 1863 0 
L 1184 0 
L 269 3500 
z
" transform="scale(0.015625)"/>
      </defs>
      <use xlink:href="#DejaVuSans-52" transform="translate(0 0.171875)"/>
      <use xlink:href="#DejaVuSans-4d" transform="translate(69.482422 0.171875)"/>
      <use xlink:href="#DejaVuSans-53" transform="translate(155.761719 0.171875)"/>
      <use xlink:href="#DejaVuSans-44" transform="translate(219.238281 0.171875)"/>
      <use xlink:href="#DejaVuSans-20" transform="translate(296.240234 0.171875)"/>
      <use xlink:href="#DejaVuSans-73" transform="translate(328.027344 0.171875)"/>
      <use xlink:href="#DejaVuSans-74" transform="translate(380.126953 0.171875)"/>
      <use xlink:href="#DejaVuSans-65" transform="translate(419.335938 0.171875)"/>
      <use xlink:href="#DejaVuSans-70" transform="translate(480.859375 0.171875)"/>
      <use xlink:href="#DejaVuSans-77" transform="translate(544.335938 0.171875)"/>
      <use xlink:href="#DejaVuSans-69" transform="translate(626.123047 0.171875)"/>
      <use xlink:href="#DejaVuSans-73" transform="translate(653.90625 0.171875)"/>
      <use xlink:href="#DejaVuSans-65" transform="translate(706.005859 0.171875)"/>
      <use xlink:href="#DejaVuSans-20" transform="translate(767.529297 0.171875)"/>
      <use xlink:href="#DejaVuSans-5b" transform="translate(799.316406 0.171875)"/>
      <use xlink:href="#DejaVuSans-Oblique-c5" transform="translate(838.330078 0.171875)"/>
      <use xlink:href="#DejaVuSans-5d" transform="translate(906.738281 0.171875)"/>
     </g>
    </g>
   </g>
   <g id="LineCollection_17">
    <path d="M 524.871636 159.625988 
L 550.076864 159.625988 
" clip-path="url(#p67ea8c9457)" style="fill: none; stroke: #1f77b4; stroke-width: 1.5"/>
   </g>
   <g id="LineCollection_18">
    <path d="M 524.871636 57.247241 
L 550.076864 57.247241 
" clip-path="url(#p67ea8c9457)" style="fill: none; stroke: #1f77b4; stroke-width: 1.5"/>
   </g>
   <g id="LineCollection_19">
    <path d="M 524.871636 261.39207 
L 550.076864 261.39207 
" clip-path="url(#p67ea8c9457)" style="fill: none; stroke: #1f77b4; stroke-width: 1.5"/>
   </g>
   <g id="LineCollection_20">
    <path d="M 537.47425 261.39207 
L 537.47425 57.247241 
" clip-path="url(#p67ea8c9457)" style="fill: none; stroke: #1f77b4; stroke-width: 1.5"/>
   </g>
   <g id="patch_23">
    <path d="M 509.7485 271.599312 
L 509.7485 47.04 
" style="fill: none; stroke: #000000; stroke-width: 0.8; stroke-linejoin: miter; stroke-linecap: square"/>
   </g>
   <g id="patch_24">
    <path d="M 565.2 271.599312 
L 565.2 47.04 
" style="fill: none; stroke: #000000; stroke-width: 0.8; stroke-linejoin: miter; stroke-linecap: square"/>
   </g>
   <g id="patch_25">
    <path d="M 509.7485 271.599312 
L 565.2 271.599312 
" style="fill: none; stroke: #000000; stroke-width: 0.8; stroke-linejoin: miter; stroke-linecap: square"/>
   </g>
   <g id="patch_26">
    <path d="M 509.7485 47.04 
L 565.2 47.04 
" style="fill: none; stroke: #000000; stroke-width: 0.8; stroke-linejoin: miter; stroke-linecap: square"/>
   </g>
   <g id="text_38">
    <!-- RMSD stepwise -->
    <g transform="translate(491.422375 41.04)scale(0.12 -0.12)">
     <use xlink:href="#DejaVuSans-52"/>
     <use xlink:href="#DejaVuSans-4d" x="69.482422"/>
     <use xlink:href="#DejaVuSans-53" x="155.761719"/>
     <use xlink:href="#DejaVuSans-44" x="219.238281"/>
     <use xlink:href="#DejaVuSans-20" x="296.240234"/>
     <use xlink:href="#DejaVuSans-73" x="328.027344"/>
     <use xlink:href="#DejaVuSans-74" x="380.126953"/>
     <use xlink:href="#DejaVuSans-65" x="419.335938"/>
     <use xlink:href="#DejaVuSans-70" x="480.859375"/>
     <use xlink:href="#DejaVuSans-77" x="544.335938"/>
     <use xlink:href="#DejaVuSans-69" x="626.123047"/>
     <use xlink:href="#DejaVuSans-73" x="653.90625"/>
     <use xlink:href="#DejaVuSans-65" x="706.005859"/>
    </g>
   </g>
  </g>
  <g id="text_39">
   <!-- Compound 68. Rdkit -->
   <g transform="translate(226.573125 14.878125)scale(0.12 -0.12)">
    <defs>
     <path id="DejaVuSans-43" d="M 4122 4306 
L 4122 3641 
Q 3803 3938 3442 4084 
Q 3081 4231 2675 4231 
Q 1875 4231 1450 3742 
Q 1025 3253 1025 2328 
Q 1025 1406 1450 917 
Q 1875 428 2675 428 
Q 3081 428 3442 575 
Q 3803 722 4122 1019 
L 4122 359 
Q 3791 134 3420 21 
Q 3050 -91 2638 -91 
Q 1578 -91 968 557 
Q 359 1206 359 2328 
Q 359 3453 968 4101 
Q 1578 4750 2638 4750 
Q 3056 4750 3426 4639 
Q 3797 4528 4122 4306 
z
" transform="scale(0.015625)"/>
     <path id="DejaVuSans-6f" d="M 1959 3097 
Q 1497 3097 1228 2736 
Q 959 2375 959 1747 
Q 959 1119 1226 758 
Q 1494 397 1959 397 
Q 2419 397 2687 759 
Q 2956 1122 2956 1747 
Q 2956 2369 2687 2733 
Q 2419 3097 1959 3097 
z
M 1959 3584 
Q 2709 3584 3137 3096 
Q 3566 2609 3566 1747 
Q 3566 888 3137 398 
Q 2709 -91 1959 -91 
Q 1206 -91 779 398 
Q 353 888 353 1747 
Q 353 2609 779 3096 
Q 1206 3584 1959 3584 
z
" transform="scale(0.015625)"/>
     <path id="DejaVuSans-6d" d="M 3328 2828 
Q 3544 3216 3844 3400 
Q 4144 3584 4550 3584 
Q 5097 3584 5394 3201 
Q 5691 2819 5691 2113 
L 5691 0 
L 5113 0 
L 5113 2094 
Q 5113 2597 4934 2840 
Q 4756 3084 4391 3084 
Q 3944 3084 3684 2787 
Q 3425 2491 3425 1978 
L 3425 0 
L 2847 0 
L 2847 2094 
Q 2847 2600 2669 2842 
Q 2491 3084 2119 3084 
Q 1678 3084 1418 2786 
Q 1159 2488 1159 1978 
L 1159 0 
L 581 0 
L 581 3500 
L 1159 3500 
L 1159 2956 
Q 1356 3278 1631 3431 
Q 1906 3584 2284 3584 
Q 2666 3584 2933 3390 
Q 3200 3197 3328 2828 
z
" transform="scale(0.015625)"/>
     <path id="DejaVuSans-6e" d="M 3513 2113 
L 3513 0 
L 2938 0 
L 2938 2094 
Q 2938 2591 2744 2837 
Q 2550 3084 2163 3084 
Q 1697 3084 1428 2787 
Q 1159 2491 1159 1978 
L 1159 0 
L 581 0 
L 581 3500 
L 1159 3500 
L 1159 2956 
Q 1366 3272 1645 3428 
Q 1925 3584 2291 3584 
Q 2894 3584 3203 3211 
Q 3513 2838 3513 2113 
z
" transform="scale(0.015625)"/>
     <path id="DejaVuSans-6b" d="M 581 4863 
L 1159 4863 
L 1159 1991 
L 2875 3500 
L 3609 3500 
L 1753 1863 
L 3688 0 
L 2938 0 
L 1159 1709 
L 1159 0 
L 581 0 
L 581 4863 
z
" transform="scale(0.015625)"/>
    </defs>
    <use xlink:href="#DejaVuSans-43"/>
    <use xlink:href="#DejaVuSans-6f" x="69.824219"/>
    <use xlink:href="#DejaVuSans-6d" x="131.005859"/>
    <use xlink:href="#DejaVuSans-70" x="228.417969"/>
    <use xlink:href="#DejaVuSans-6f" x="291.894531"/>
    <use xlink:href="#DejaVuSans-75" x="353.076172"/>
    <use xlink:href="#DejaVuSans-6e" x="416.455078"/>
    <use xlink:href="#DejaVuSans-64" x="479.833984"/>
    <use xlink:href="#DejaVuSans-20" x="543.310547"/>
    <use xlink:href="#DejaVuSans-36" x="575.097656"/>
    <use xlink:href="#DejaVuSans-38" x="638.720703"/>
    <use xlink:href="#DejaVuSans-2e" x="702.34375"/>
    <use xlink:href="#DejaVuSans-20" x="734.130859"/>
    <use xlink:href="#DejaVuSans-52" x="765.917969"/>
    <use xlink:href="#DejaVuSans-64" x="835.400391"/>
    <use xlink:href="#DejaVuSans-6b" x="898.876953"/>
    <use xlink:href="#DejaVuSans-69" x="956.787109"/>
    <use xlink:href="#DejaVuSans-74" x="984.570312"/>
   </g>
  </g>
 </g>
 <defs>
  <clipPath id="pc308ab82a2">
   <rect x="50.8925" y="47.04" width="55.4515" height="224.559312"/>
  </clipPath>
  <clipPath id="p949ded5341">
   <rect x="165.6065" y="47.04" width="55.4515" height="224.559312"/>
  </clipPath>
  <clipPath id="pc145e71a94">
   <rect x="280.3205" y="47.04" width="55.4515" height="224.559312"/>
  </clipPath>
  <clipPath id="pa2fa68a40e">
   <rect x="395.0345" y="47.04" width="55.4515" height="224.559312"/>
  </clipPath>
  <clipPath id="p67ea8c9457">
   <rect x="509.7485" y="47.04" width="55.4515" height="224.559312"/>
  </clipPath>
 </defs>
</svg>
