<?xml version="1.0" encoding="utf-8" standalone="no"?>
<!DOCTYPE svg PUBLIC "-//W3C//DTD SVG 1.1//EN"
  "http://www.w3.org/Graphics/SVG/1.1/DTD/svg11.dtd">
<svg xmlns:xlink="http://www.w3.org/1999/xlink" width="576pt" height="288pt" viewBox="0 0 576 288" xmlns="http://www.w3.org/2000/svg" version="1.1">
 <metadata>
  <rdf:RDF xmlns:dc="http://purl.org/dc/elements/1.1/" xmlns:cc="http://creativecommons.org/ns#" xmlns:rdf="http://www.w3.org/1999/02/22-rdf-syntax-ns#">
   <cc:Work>
    <dc:type rdf:resource="http://purl.org/dc/dcmitype/StillImage"/>
    <dc:date>2023-05-31T12:20:24.893571</dc:date>
    <dc:format>image/svg+xml</dc:format>
    <dc:creator>
     <cc:Agent>
      <dc:title>Matplotlib v3.5.3, https://matplotlib.org/</dc:title>
     </cc:Agent>
    </dc:creator>
   </cc:Work>
  </rdf:RDF>
 </metadata>
 <defs>
  <style type="text/css">*{stroke-linejoin: round; stroke-linecap: butt}</style>
 </defs>
 <g id="figure_1">
  <g id="patch_1">
   <path d="M 0 288 
L 576 288 
L 576 0 
L 0 0 
z
" style="fill: #ffffff"/>
  </g>
  <g id="axes_1">
   <g id="patch_2">
    <path d="M 50.8925 273.7 
L 105.282 273.7 
L 105.282 47.04 
L 50.8925 47.04 
z
" style="fill: #ffffff"/>
   </g>
   <g id="PolyCollection_1">
    <path d="M 80.378273 263.397273 
L 75.796227 263.397273 
L 75.470491 261.315914 
L 75.127769 259.234555 
L 74.77025 257.153196 
L 74.399831 255.071837 
L 74.017982 252.990478 
L 73.625653 250.909118 
L 73.223259 248.827759 
L 72.810717 246.7464 
L 72.387535 244.665041 
L 71.952947 242.583682 
L 71.506067 240.502323 
L 71.046053 238.420964 
L 70.572279 236.339605 
L 70.084484 234.258246 
L 69.582912 232.176887 
L 69.068408 230.095528 
L 68.542469 228.014169 
L 68.00722 225.93281 
L 67.465306 223.851451 
L 66.919687 221.770092 
L 66.373328 219.688733 
L 65.828817 217.607374 
L 65.287943 215.526015 
L 64.751298 213.444656 
L 64.217967 211.363297 
L 63.685393 209.281938 
L 63.149464 207.200579 
L 62.604869 205.119219 
L 62.045708 203.03786 
L 61.466318 200.956501 
L 60.862223 198.875142 
L 60.231088 196.793783 
L 59.573538 194.712424 
L 58.893711 192.631065 
L 58.199444 190.549706 
L 57.502031 188.468347 
L 56.815562 186.386988 
L 56.155895 184.305629 
L 55.539394 182.22427 
L 54.981576 180.142911 
L 54.495831 178.061552 
L 54.092367 175.980193 
L 53.777489 173.898834 
L 53.553271 171.817475 
L 53.41763 169.736116 
L 53.36475 167.654757 
L 53.385782 165.573398 
L 53.46972 163.492039 
L 53.604355 161.41068 
L 53.777229 159.32932 
L 53.976513 157.247961 
L 54.191775 155.166602 
L 54.414596 153.085243 
L 54.63902 151.003884 
L 54.86181 148.922525 
L 55.082517 146.841166 
L 55.303327 144.759807 
L 55.528718 142.678448 
L 55.764929 140.597089 
L 56.019289 138.51573 
L 56.299457 136.434371 
L 56.612648 134.353012 
L 56.964909 132.271653 
L 57.360529 130.190294 
L 57.801623 128.108935 
L 58.287924 126.027576 
L 58.816805 123.946217 
L 59.383499 121.864858 
L 59.981496 119.783499 
L 60.603044 117.70214 
L 61.239727 115.620781 
L 61.883034 113.539421 
L 62.524884 111.458062 
L 63.158082 109.376703 
L 63.776652 107.295344 
L 64.376072 105.213985 
L 64.953397 103.132626 
L 65.50728 101.051267 
L 66.03791 98.969908 
L 66.546873 96.888549 
L 67.036951 94.80719 
L 67.51186 92.725831 
L 67.975943 90.644472 
L 68.433818 88.563113 
L 68.890013 86.481754 
L 69.348591 84.400395 
L 69.812812 82.319036 
L 70.284855 80.237677 
L 70.765623 78.156318 
L 71.254657 76.074959 
L 71.750171 73.9936 
L 72.249191 71.912241 
L 72.747791 69.830882 
L 73.241384 67.749522 
L 73.72505 65.668163 
L 74.193854 63.586804 
L 74.643131 61.505445 
L 75.068724 59.424086 
L 75.467149 57.342727 
L 80.707351 57.342727 
L 80.707351 57.342727 
L 81.105776 59.424086 
L 81.531369 61.505445 
L 81.980646 63.586804 
L 82.44945 65.668163 
L 82.933116 67.749522 
L 83.426709 69.830882 
L 83.925309 71.912241 
L 84.424329 73.9936 
L 84.919843 76.074959 
L 85.408877 78.156318 
L 85.889645 80.237677 
L 86.361688 82.319036 
L 86.825909 84.400395 
L 87.284487 86.481754 
L 87.740682 88.563113 
L 88.198557 90.644472 
L 88.66264 92.725831 
L 89.137549 94.80719 
L 89.627627 96.888549 
L 90.13659 98.969908 
L 90.66722 101.051267 
L 91.221103 103.132626 
L 91.798428 105.213985 
L 92.397848 107.295344 
L 93.016418 109.376703 
L 93.649616 111.458062 
L 94.291466 113.539421 
L 94.934773 115.620781 
L 95.571456 117.70214 
L 96.193004 119.783499 
L 96.791001 121.864858 
L 97.357695 123.946217 
L 97.886576 126.027576 
L 98.372877 128.108935 
L 98.813971 130.190294 
L 99.209591 132.271653 
L 99.561852 134.353012 
L 99.875043 136.434371 
L 100.155211 138.51573 
L 100.409571 140.597089 
L 100.645782 142.678448 
L 100.871173 144.759807 
L 101.091983 146.841166 
L 101.31269 148.922525 
L 101.53548 151.003884 
L 101.759904 153.085243 
L 101.982725 155.166602 
L 102.197987 157.247961 
L 102.397271 159.32932 
L 102.570145 161.41068 
L 102.70478 163.492039 
L 102.788718 165.573398 
L 102.80975 167.654757 
L 102.75687 169.736116 
L 102.621229 171.817475 
L 102.397011 173.898834 
L 102.082133 175.980193 
L 101.678669 178.061552 
L 101.192924 180.142911 
L 100.635106 182.22427 
L 100.018605 184.305629 
L 99.358938 186.386988 
L 98.672469 188.468347 
L 97.975056 190.549706 
L 97.280789 192.631065 
L 96.600962 194.712424 
L 95.943412 196.793783 
L 95.312277 198.875142 
L 94.708182 200.956501 
L 94.128792 203.03786 
L 93.569631 205.119219 
L 93.025036 207.200579 
L 92.489107 209.281938 
L 91.956533 211.363297 
L 91.423202 213.444656 
L 90.886557 215.526015 
L 90.345683 217.607374 
L 89.801172 219.688733 
L 89.254813 221.770092 
L 88.709194 223.851451 
L 88.16728 225.93281 
L 87.632031 228.014169 
L 87.106092 230.095528 
L 86.591588 232.176887 
L 86.090016 234.258246 
L 85.602221 236.339605 
L 85.128447 238.420964 
L 84.668433 240.502323 
L 84.221553 242.583682 
L 83.786965 244.665041 
L 83.363783 246.7464 
L 82.951241 248.827759 
L 82.548847 250.909118 
L 82.156518 252.990478 
L 81.774669 255.071837 
L 81.40425 257.153196 
L 81.046731 259.234555 
L 80.704009 261.315914 
L 80.378273 263.397273 
z
" clip-path="url(#p5df029a142)" style="fill: #1f77b4; fill-opacity: 0.3"/>
   </g>
   <g id="matplotlib.axis_1">
    <g id="ytick_1">
     <g id="line2d_1">
      <defs>
       <path id="md5ee98569e" d="M 0 0 
L -3.5 0 
" style="stroke: #000000; stroke-width: 0.8"/>
      </defs>
      <g>
       <use xlink:href="#md5ee98569e" x="50.8925" y="256.591781" style="stroke: #000000; stroke-width: 0.8"/>
      </g>
     </g>
     <g id="text_1">
      <!-- 1.0 -->
      <g transform="translate(27.989375 260.391)scale(0.1 -0.1)">
       <defs>
        <path id="DejaVuSans-31" d="M 794 531 
L 1825 531 
L 1825 4091 
L 703 3866 
L 703 4441 
L 1819 4666 
L 2450 4666 
L 2450 531 
L 3481 531 
L 3481 0 
L 794 0 
L 794 531 
z
" transform="scale(0.015625)"/>
        <path id="DejaVuSans-2e" d="M 684 794 
L 1344 794 
L 1344 0 
L 684 0 
L 684 794 
z
" transform="scale(0.015625)"/>
        <path id="DejaVuSans-30" d="M 2034 4250 
Q 1547 4250 1301 3770 
Q 1056 3291 1056 2328 
Q 1056 1369 1301 889 
Q 1547 409 2034 409 
Q 2525 409 2770 889 
Q 3016 1369 3016 2328 
Q 3016 3291 2770 3770 
Q 2525 4250 2034 4250 
z
M 2034 4750 
Q 2819 4750 3233 4129 
Q 3647 3509 3647 2328 
Q 3647 1150 3233 529 
Q 2819 -91 2034 -91 
Q 1250 -91 836 529 
Q 422 1150 422 2328 
Q 422 3509 836 4129 
Q 1250 4750 2034 4750 
z
" transform="scale(0.015625)"/>
       </defs>
       <use xlink:href="#DejaVuSans-31"/>
       <use xlink:href="#DejaVuSans-2e" x="63.623047"/>
       <use xlink:href="#DejaVuSans-30" x="95.410156"/>
      </g>
     </g>
    </g>
    <g id="ytick_2">
     <g id="line2d_2">
      <g>
       <use xlink:href="#md5ee98569e" x="50.8925" y="226.794469" style="stroke: #000000; stroke-width: 0.8"/>
      </g>
     </g>
     <g id="text_2">
      <!-- 1.2 -->
      <g transform="translate(27.989375 230.593688)scale(0.1 -0.1)">
       <defs>
        <path id="DejaVuSans-32" d="M 1228 531 
L 3431 531 
L 3431 0 
L 469 0 
L 469 531 
Q 828 903 1448 1529 
Q 2069 2156 2228 2338 
Q 2531 2678 2651 2914 
Q 2772 3150 2772 3378 
Q 2772 3750 2511 3984 
Q 2250 4219 1831 4219 
Q 1534 4219 1204 4116 
Q 875 4013 500 3803 
L 500 4441 
Q 881 4594 1212 4672 
Q 1544 4750 1819 4750 
Q 2544 4750 2975 4387 
Q 3406 4025 3406 3419 
Q 3406 3131 3298 2873 
Q 3191 2616 2906 2266 
Q 2828 2175 2409 1742 
Q 1991 1309 1228 531 
z
" transform="scale(0.015625)"/>
       </defs>
       <use xlink:href="#DejaVuSans-31"/>
       <use xlink:href="#DejaVuSans-2e" x="63.623047"/>
       <use xlink:href="#DejaVuSans-32" x="95.410156"/>
      </g>
     </g>
    </g>
    <g id="ytick_3">
     <g id="line2d_3">
      <g>
       <use xlink:href="#md5ee98569e" x="50.8925" y="196.997157" style="stroke: #000000; stroke-width: 0.8"/>
      </g>
     </g>
     <g id="text_3">
      <!-- 1.4 -->
      <g transform="translate(27.989375 200.796375)scale(0.1 -0.1)">
       <defs>
        <path id="DejaVuSans-34" d="M 2419 4116 
L 825 1625 
L 2419 1625 
L 2419 4116 
z
M 2253 4666 
L 3047 4666 
L 3047 1625 
L 3713 1625 
L 3713 1100 
L 3047 1100 
L 3047 0 
L 2419 0 
L 2419 1100 
L 313 1100 
L 313 1709 
L 2253 4666 
z
" transform="scale(0.015625)"/>
       </defs>
       <use xlink:href="#DejaVuSans-31"/>
       <use xlink:href="#DejaVuSans-2e" x="63.623047"/>
       <use xlink:href="#DejaVuSans-34" x="95.410156"/>
      </g>
     </g>
    </g>
    <g id="ytick_4">
     <g id="line2d_4">
      <g>
       <use xlink:href="#md5ee98569e" x="50.8925" y="167.199845" style="stroke: #000000; stroke-width: 0.8"/>
      </g>
     </g>
     <g id="text_4">
      <!-- 1.6 -->
      <g transform="translate(27.989375 170.999063)scale(0.1 -0.1)">
       <defs>
        <path id="DejaVuSans-36" d="M 2113 2584 
Q 1688 2584 1439 2293 
Q 1191 2003 1191 1497 
Q 1191 994 1439 701 
Q 1688 409 2113 409 
Q 2538 409 2786 701 
Q 3034 994 3034 1497 
Q 3034 2003 2786 2293 
Q 2538 2584 2113 2584 
z
M 3366 4563 
L 3366 3988 
Q 3128 4100 2886 4159 
Q 2644 4219 2406 4219 
Q 1781 4219 1451 3797 
Q 1122 3375 1075 2522 
Q 1259 2794 1537 2939 
Q 1816 3084 2150 3084 
Q 2853 3084 3261 2657 
Q 3669 2231 3669 1497 
Q 3669 778 3244 343 
Q 2819 -91 2113 -91 
Q 1303 -91 875 529 
Q 447 1150 447 2328 
Q 447 3434 972 4092 
Q 1497 4750 2381 4750 
Q 2619 4750 2861 4703 
Q 3103 4656 3366 4563 
z
" transform="scale(0.015625)"/>
       </defs>
       <use xlink:href="#DejaVuSans-31"/>
       <use xlink:href="#DejaVuSans-2e" x="63.623047"/>
       <use xlink:href="#DejaVuSans-36" x="95.410156"/>
      </g>
     </g>
    </g>
    <g id="ytick_5">
     <g id="line2d_5">
      <g>
       <use xlink:href="#md5ee98569e" x="50.8925" y="137.402532" style="stroke: #000000; stroke-width: 0.8"/>
      </g>
     </g>
     <g id="text_5">
      <!-- 1.8 -->
      <g transform="translate(27.989375 141.201751)scale(0.1 -0.1)">
       <defs>
        <path id="DejaVuSans-38" d="M 2034 2216 
Q 1584 2216 1326 1975 
Q 1069 1734 1069 1313 
Q 1069 891 1326 650 
Q 1584 409 2034 409 
Q 2484 409 2743 651 
Q 3003 894 3003 1313 
Q 3003 1734 2745 1975 
Q 2488 2216 2034 2216 
z
M 1403 2484 
Q 997 2584 770 2862 
Q 544 3141 544 3541 
Q 544 4100 942 4425 
Q 1341 4750 2034 4750 
Q 2731 4750 3128 4425 
Q 3525 4100 3525 3541 
Q 3525 3141 3298 2862 
Q 3072 2584 2669 2484 
Q 3125 2378 3379 2068 
Q 3634 1759 3634 1313 
Q 3634 634 3220 271 
Q 2806 -91 2034 -91 
Q 1263 -91 848 271 
Q 434 634 434 1313 
Q 434 1759 690 2068 
Q 947 2378 1403 2484 
z
M 1172 3481 
Q 1172 3119 1398 2916 
Q 1625 2713 2034 2713 
Q 2441 2713 2670 2916 
Q 2900 3119 2900 3481 
Q 2900 3844 2670 4047 
Q 2441 4250 2034 4250 
Q 1625 4250 1398 4047 
Q 1172 3844 1172 3481 
z
" transform="scale(0.015625)"/>
       </defs>
       <use xlink:href="#DejaVuSans-31"/>
       <use xlink:href="#DejaVuSans-2e" x="63.623047"/>
       <use xlink:href="#DejaVuSans-38" x="95.410156"/>
      </g>
     </g>
    </g>
    <g id="ytick_6">
     <g id="line2d_6">
      <g>
       <use xlink:href="#md5ee98569e" x="50.8925" y="107.60522" style="stroke: #000000; stroke-width: 0.8"/>
      </g>
     </g>
     <g id="text_6">
      <!-- 2.0 -->
      <g transform="translate(27.989375 111.404439)scale(0.1 -0.1)">
       <use xlink:href="#DejaVuSans-32"/>
       <use xlink:href="#DejaVuSans-2e" x="63.623047"/>
       <use xlink:href="#DejaVuSans-30" x="95.410156"/>
      </g>
     </g>
    </g>
    <g id="ytick_7">
     <g id="line2d_7">
      <g>
       <use xlink:href="#md5ee98569e" x="50.8925" y="77.807908" style="stroke: #000000; stroke-width: 0.8"/>
      </g>
     </g>
     <g id="text_7">
      <!-- 2.2 -->
      <g transform="translate(27.989375 81.607127)scale(0.1 -0.1)">
       <use xlink:href="#DejaVuSans-32"/>
       <use xlink:href="#DejaVuSans-2e" x="63.623047"/>
       <use xlink:href="#DejaVuSans-32" x="95.410156"/>
      </g>
     </g>
    </g>
    <g id="ytick_8">
     <g id="line2d_8">
      <g>
       <use xlink:href="#md5ee98569e" x="50.8925" y="48.010596" style="stroke: #000000; stroke-width: 0.8"/>
      </g>
     </g>
     <g id="text_8">
      <!-- 2.4 -->
      <g transform="translate(27.989375 51.809815)scale(0.1 -0.1)">
       <use xlink:href="#DejaVuSans-32"/>
       <use xlink:href="#DejaVuSans-2e" x="63.623047"/>
       <use xlink:href="#DejaVuSans-34" x="95.410156"/>
      </g>
     </g>
    </g>
    <g id="text_9">
     <!-- RMSD [$\AA$] -->
     <g transform="translate(21.909688 184.12)rotate(-90)scale(0.1 -0.1)">
      <defs>
       <path id="DejaVuSans-52" d="M 2841 2188 
Q 3044 2119 3236 1894 
Q 3428 1669 3622 1275 
L 4263 0 
L 3584 0 
L 2988 1197 
Q 2756 1666 2539 1819 
Q 2322 1972 1947 1972 
L 1259 1972 
L 1259 0 
L 628 0 
L 628 4666 
L 2053 4666 
Q 2853 4666 3247 4331 
Q 3641 3997 3641 3322 
Q 3641 2881 3436 2590 
Q 3231 2300 2841 2188 
z
M 1259 4147 
L 1259 2491 
L 2053 2491 
Q 2509 2491 2742 2702 
Q 2975 2913 2975 3322 
Q 2975 3731 2742 3939 
Q 2509 4147 2053 4147 
L 1259 4147 
z
" transform="scale(0.015625)"/>
       <path id="DejaVuSans-4d" d="M 628 4666 
L 1569 4666 
L 2759 1491 
L 3956 4666 
L 4897 4666 
L 4897 0 
L 4281 0 
L 4281 4097 
L 3078 897 
L 2444 897 
L 1241 4097 
L 1241 0 
L 628 0 
L 628 4666 
z
" transform="scale(0.015625)"/>
       <path id="DejaVuSans-53" d="M 3425 4513 
L 3425 3897 
Q 3066 4069 2747 4153 
Q 2428 4238 2131 4238 
Q 1616 4238 1336 4038 
Q 1056 3838 1056 3469 
Q 1056 3159 1242 3001 
Q 1428 2844 1947 2747 
L 2328 2669 
Q 3034 2534 3370 2195 
Q 3706 1856 3706 1288 
Q 3706 609 3251 259 
Q 2797 -91 1919 -91 
Q 1588 -91 1214 -16 
Q 841 59 441 206 
L 441 856 
Q 825 641 1194 531 
Q 1563 422 1919 422 
Q 2459 422 2753 634 
Q 3047 847 3047 1241 
Q 3047 1584 2836 1778 
Q 2625 1972 2144 2069 
L 1759 2144 
Q 1053 2284 737 2584 
Q 422 2884 422 3419 
Q 422 4038 858 4394 
Q 1294 4750 2059 4750 
Q 2388 4750 2728 4690 
Q 3069 4631 3425 4513 
z
" transform="scale(0.015625)"/>
       <path id="DejaVuSans-44" d="M 1259 4147 
L 1259 519 
L 2022 519 
Q 2988 519 3436 956 
Q 3884 1394 3884 2338 
Q 3884 3275 3436 3711 
Q 2988 4147 2022 4147 
L 1259 4147 
z
M 628 4666 
L 1925 4666 
Q 3281 4666 3915 4102 
Q 4550 3538 4550 2338 
Q 4550 1131 3912 565 
Q 3275 0 1925 0 
L 628 0 
L 628 4666 
z
" transform="scale(0.015625)"/>
       <path id="DejaVuSans-20" transform="scale(0.015625)"/>
       <path id="DejaVuSans-5b" d="M 550 4863 
L 1875 4863 
L 1875 4416 
L 1125 4416 
L 1125 -397 
L 1875 -397 
L 1875 -844 
L 550 -844 
L 550 4863 
z
" transform="scale(0.015625)"/>
       <path id="DejaVuSans-Oblique-c5" d="M 3188 5081 
Q 3188 5278 3048 5417 
Q 2909 5556 2713 5556 
Q 2513 5556 2377 5420 
Q 2241 5284 2241 5081 
Q 2241 4884 2377 4746 
Q 2513 4609 2713 4609 
Q 2909 4609 3048 4746 
Q 3188 4884 3188 5081 
z
M 2203 4397 
Q 2034 4513 1945 4689 
Q 1856 4866 1856 5081 
Q 1856 5438 2106 5689 
Q 2356 5941 2713 5941 
Q 3069 5941 3320 5689 
Q 3572 5438 3572 5081 
Q 3572 4834 3458 4643 
Q 3344 4453 3128 4341 
L 3938 0 
L 3278 0 
L 3084 1197 
L 984 1197 
L 325 0 
L -341 0 
L 2203 4397 
z
M 2584 4044 
L 1275 1722 
L 2988 1722 
L 2584 4044 
z
" transform="scale(0.015625)"/>
       <path id="DejaVuSans-5d" d="M 1947 4863 
L 1947 -844 
L 622 -844 
L 622 -397 
L 1369 -397 
L 1369 4416 
L 622 4416 
L 622 4863 
L 1947 4863 
z
" transform="scale(0.015625)"/>
      </defs>
      <use xlink:href="#DejaVuSans-52" transform="translate(0 0.171875)"/>
      <use xlink:href="#DejaVuSans-4d" transform="translate(69.482422 0.171875)"/>
      <use xlink:href="#DejaVuSans-53" transform="translate(155.761719 0.171875)"/>
      <use xlink:href="#DejaVuSans-44" transform="translate(219.238281 0.171875)"/>
      <use xlink:href="#DejaVuSans-20" transform="translate(296.240234 0.171875)"/>
      <use xlink:href="#DejaVuSans-5b" transform="translate(328.027344 0.171875)"/>
      <use xlink:href="#DejaVuSans-Oblique-c5" transform="translate(367.041016 0.171875)"/>
      <use xlink:href="#DejaVuSans-5d" transform="translate(435.449219 0.171875)"/>
     </g>
    </g>
   </g>
   <g id="LineCollection_1">
    <path d="M 65.726 158.735961 
L 90.4485 158.735961 
" clip-path="url(#p5df029a142)" style="fill: none; stroke: #1f77b4; stroke-width: 1.5"/>
   </g>
   <g id="LineCollection_2">
    <path d="M 65.726 57.342727 
L 90.4485 57.342727 
" clip-path="url(#p5df029a142)" style="fill: none; stroke: #1f77b4; stroke-width: 1.5"/>
   </g>
   <g id="LineCollection_3">
    <path d="M 65.726 263.397273 
L 90.4485 263.397273 
" clip-path="url(#p5df029a142)" style="fill: none; stroke: #1f77b4; stroke-width: 1.5"/>
   </g>
   <g id="LineCollection_4">
    <path d="M 78.08725 263.397273 
L 78.08725 57.342727 
" clip-path="url(#p5df029a142)" style="fill: none; stroke: #1f77b4; stroke-width: 1.5"/>
   </g>
   <g id="patch_3">
    <path d="M 50.8925 273.7 
L 50.8925 47.04 
" style="fill: none; stroke: #000000; stroke-width: 0.8; stroke-linejoin: miter; stroke-linecap: square"/>
   </g>
   <g id="patch_4">
    <path d="M 105.282 273.7 
L 105.282 47.04 
" style="fill: none; stroke: #000000; stroke-width: 0.8; stroke-linejoin: miter; stroke-linecap: square"/>
   </g>
   <g id="patch_5">
    <path d="M 50.8925 273.7 
L 105.282 273.7 
" style="fill: none; stroke: #000000; stroke-width: 0.8; stroke-linejoin: miter; stroke-linecap: square"/>
   </g>
   <g id="patch_6">
    <path d="M 50.8925 47.04 
L 105.282 47.04 
" style="fill: none; stroke: #000000; stroke-width: 0.8; stroke-linejoin: miter; stroke-linecap: square"/>
   </g>
   <g id="text_10">
    <!-- RMSD -->
    <g transform="translate(60.31225 41.04)scale(0.12 -0.12)">
     <use xlink:href="#DejaVuSans-52"/>
     <use xlink:href="#DejaVuSans-4d" x="69.482422"/>
     <use xlink:href="#DejaVuSans-53" x="155.761719"/>
     <use xlink:href="#DejaVuSans-44" x="219.238281"/>
    </g>
   </g>
  </g>
  <g id="axes_2">
   <g id="patch_7">
    <path d="M 165.872 273.7 
L 220.2615 273.7 
L 220.2615 47.04 
L 165.872 47.04 
z
" style="fill: #ffffff"/>
   </g>
   <g id="PolyCollection_2">
    <path d="M 195.624931 263.397273 
L 190.508569 263.397273 
L 190.189785 261.315914 
L 189.85938 259.234555 
L 189.518527 257.153196 
L 189.167514 255.071837 
L 188.805583 252.990478 
L 188.430858 250.909118 
L 188.040367 248.827759 
L 187.630171 246.7464 
L 187.195587 244.665041 
L 186.731502 242.583682 
L 186.232737 240.502323 
L 185.694464 238.420964 
L 185.112614 236.339605 
L 184.484283 234.258246 
L 183.808067 232.176887 
L 183.084344 230.095528 
L 182.315436 228.014169 
L 181.505675 225.93281 
L 180.661334 223.851451 
L 179.790442 221.770092 
L 178.902485 219.688733 
L 178.00802 217.607374 
L 177.118217 215.526015 
L 176.244374 213.444656 
L 175.397432 211.363297 
L 174.587505 209.281938 
L 173.823475 207.200579 
L 173.11264 205.119219 
L 172.460439 203.03786 
L 171.870259 200.956501 
L 171.343336 198.875142 
L 170.878749 196.793783 
L 170.473543 194.712424 
L 170.122981 192.631065 
L 169.820943 190.549706 
L 169.560472 188.468347 
L 169.334436 186.386988 
L 169.136255 184.305629 
L 168.960618 182.22427 
L 168.804095 180.142911 
L 168.665536 178.061552 
L 168.546178 175.980193 
L 168.449411 173.898834 
L 168.380204 171.817475 
L 168.34425 169.736116 
L 168.346945 167.654757 
L 168.392356 165.573398 
L 168.482341 163.492039 
L 168.615966 161.41068 
L 168.78933 159.32932 
L 168.99584 157.247961 
L 169.226889 155.166602 
L 169.47285 153.085243 
L 169.72424 151.003884 
L 169.972865 148.922525 
L 170.212797 146.841166 
L 170.441048 144.759807 
L 170.657853 142.678448 
L 170.866563 140.597089 
L 171.073166 138.51573 
L 171.285543 136.434371 
L 171.512552 134.353012 
L 171.763082 132.271653 
L 172.045168 130.190294 
L 172.365267 128.108935 
L 172.727746 126.027576 
L 173.134598 123.946217 
L 173.585402 121.864858 
L 174.077471 119.783499 
L 174.60618 117.70214 
L 175.165399 115.620781 
L 175.748009 113.539421 
L 176.346443 111.458062 
L 176.953215 109.376703 
L 177.561405 107.295344 
L 178.165072 105.213985 
L 178.759567 103.132626 
L 179.341723 101.051267 
L 179.909918 98.969908 
L 180.464009 96.888549 
L 181.005136 94.80719 
L 181.535425 92.725831 
L 182.057629 90.644472 
L 182.574725 88.563113 
L 183.089534 86.481754 
L 183.604387 84.400395 
L 184.120881 82.319036 
L 184.639733 80.237677 
L 185.160741 78.156318 
L 185.682848 76.074959 
L 186.204266 73.9936 
L 186.722648 71.912241 
L 187.235273 69.830882 
L 187.73921 67.749522 
L 188.231452 65.668163 
L 188.70902 63.586804 
L 189.169024 61.505445 
L 189.608712 59.424086 
L 190.025509 57.342727 
L 196.107991 57.342727 
L 196.107991 57.342727 
L 196.524788 59.424086 
L 196.964476 61.505445 
L 197.42448 63.586804 
L 197.902048 65.668163 
L 198.39429 67.749522 
L 198.898227 69.830882 
L 199.410852 71.912241 
L 199.929234 73.9936 
L 200.450652 76.074959 
L 200.972759 78.156318 
L 201.493767 80.237677 
L 202.012619 82.319036 
L 202.529113 84.400395 
L 203.043966 86.481754 
L 203.558775 88.563113 
L 204.075871 90.644472 
L 204.598075 92.725831 
L 205.128364 94.80719 
L 205.669491 96.888549 
L 206.223582 98.969908 
L 206.791777 101.051267 
L 207.373933 103.132626 
L 207.968428 105.213985 
L 208.572095 107.295344 
L 209.180285 109.376703 
L 209.787057 111.458062 
L 210.385491 113.539421 
L 210.968101 115.620781 
L 211.52732 117.70214 
L 212.056029 119.783499 
L 212.548098 121.864858 
L 212.998902 123.946217 
L 213.405754 126.027576 
L 213.768233 128.108935 
L 214.088332 130.190294 
L 214.370418 132.271653 
L 214.620948 134.353012 
L 214.847957 136.434371 
L 215.060334 138.51573 
L 215.266937 140.597089 
L 215.475647 142.678448 
L 215.692452 144.759807 
L 215.920703 146.841166 
L 216.160635 148.922525 
L 216.40926 151.003884 
L 216.66065 153.085243 
L 216.906611 155.166602 
L 217.13766 157.247961 
L 217.34417 159.32932 
L 217.517534 161.41068 
L 217.651159 163.492039 
L 217.741144 165.573398 
L 217.786555 167.654757 
L 217.78925 169.736116 
L 217.753296 171.817475 
L 217.684089 173.898834 
L 217.587322 175.980193 
L 217.467964 178.061552 
L 217.329405 180.142911 
L 217.172882 182.22427 
L 216.997245 184.305629 
L 216.799064 186.386988 
L 216.573028 188.468347 
L 216.312557 190.549706 
L 216.010519 192.631065 
L 215.659957 194.712424 
L 215.254751 196.793783 
L 214.790164 198.875142 
L 214.263241 200.956501 
L 213.673061 203.03786 
L 213.02086 205.119219 
L 212.310025 207.200579 
L 211.545995 209.281938 
L 210.736068 211.363297 
L 209.889126 213.444656 
L 209.015283 215.526015 
L 208.12548 217.607374 
L 207.231015 219.688733 
L 206.343058 221.770092 
L 205.472166 223.851451 
L 204.627825 225.93281 
L 203.818064 228.014169 
L 203.049156 230.095528 
L 202.325433 232.176887 
L 201.649217 234.258246 
L 201.020886 236.339605 
L 200.439036 238.420964 
L 199.900763 240.502323 
L 199.401998 242.583682 
L 198.937913 244.665041 
L 198.503329 246.7464 
L 198.093133 248.827759 
L 197.702642 250.909118 
L 197.327917 252.990478 
L 196.965986 255.071837 
L 196.614973 257.153196 
L 196.27412 259.234555 
L 195.943715 261.315914 
L 195.624931 263.397273 
z
" clip-path="url(#pc533de06c0)" style="fill: #1f77b4; fill-opacity: 0.3"/>
   </g>
   <g id="matplotlib.axis_2">
    <g id="ytick_9">
     <g id="line2d_9">
      <g>
       <use xlink:href="#md5ee98569e" x="165.872" y="260.107487" style="stroke: #000000; stroke-width: 0.8"/>
      </g>
     </g>
     <g id="text_11">
      <!-- 0.7 -->
      <g transform="translate(142.968875 263.906706)scale(0.1 -0.1)">
       <defs>
        <path id="DejaVuSans-37" d="M 525 4666 
L 3525 4666 
L 3525 4397 
L 1831 0 
L 1172 0 
L 2766 4134 
L 525 4134 
L 525 4666 
z
" transform="scale(0.015625)"/>
       </defs>
       <use xlink:href="#DejaVuSans-30"/>
       <use xlink:href="#DejaVuSans-2e" x="63.623047"/>
       <use xlink:href="#DejaVuSans-37" x="95.410156"/>
      </g>
     </g>
    </g>
    <g id="ytick_10">
     <g id="line2d_10">
      <g>
       <use xlink:href="#md5ee98569e" x="165.872" y="229.826276" style="stroke: #000000; stroke-width: 0.8"/>
      </g>
     </g>
     <g id="text_12">
      <!-- 0.8 -->
      <g transform="translate(142.968875 233.625495)scale(0.1 -0.1)">
       <use xlink:href="#DejaVuSans-30"/>
       <use xlink:href="#DejaVuSans-2e" x="63.623047"/>
       <use xlink:href="#DejaVuSans-38" x="95.410156"/>
      </g>
     </g>
    </g>
    <g id="ytick_11">
     <g id="line2d_11">
      <g>
       <use xlink:href="#md5ee98569e" x="165.872" y="199.545065" style="stroke: #000000; stroke-width: 0.8"/>
      </g>
     </g>
     <g id="text_13">
      <!-- 0.9 -->
      <g transform="translate(142.968875 203.344284)scale(0.1 -0.1)">
       <defs>
        <path id="DejaVuSans-39" d="M 703 97 
L 703 672 
Q 941 559 1184 500 
Q 1428 441 1663 441 
Q 2288 441 2617 861 
Q 2947 1281 2994 2138 
Q 2813 1869 2534 1725 
Q 2256 1581 1919 1581 
Q 1219 1581 811 2004 
Q 403 2428 403 3163 
Q 403 3881 828 4315 
Q 1253 4750 1959 4750 
Q 2769 4750 3195 4129 
Q 3622 3509 3622 2328 
Q 3622 1225 3098 567 
Q 2575 -91 1691 -91 
Q 1453 -91 1209 -44 
Q 966 3 703 97 
z
M 1959 2075 
Q 2384 2075 2632 2365 
Q 2881 2656 2881 3163 
Q 2881 3666 2632 3958 
Q 2384 4250 1959 4250 
Q 1534 4250 1286 3958 
Q 1038 3666 1038 3163 
Q 1038 2656 1286 2365 
Q 1534 2075 1959 2075 
z
" transform="scale(0.015625)"/>
       </defs>
       <use xlink:href="#DejaVuSans-30"/>
       <use xlink:href="#DejaVuSans-2e" x="63.623047"/>
       <use xlink:href="#DejaVuSans-39" x="95.410156"/>
      </g>
     </g>
    </g>
    <g id="ytick_12">
     <g id="line2d_12">
      <g>
       <use xlink:href="#md5ee98569e" x="165.872" y="169.263854" style="stroke: #000000; stroke-width: 0.8"/>
      </g>
     </g>
     <g id="text_14">
      <!-- 1.0 -->
      <g transform="translate(142.968875 173.063073)scale(0.1 -0.1)">
       <use xlink:href="#DejaVuSans-31"/>
       <use xlink:href="#DejaVuSans-2e" x="63.623047"/>
       <use xlink:href="#DejaVuSans-30" x="95.410156"/>
      </g>
     </g>
    </g>
    <g id="ytick_13">
     <g id="line2d_13">
      <g>
       <use xlink:href="#md5ee98569e" x="165.872" y="138.982643" style="stroke: #000000; stroke-width: 0.8"/>
      </g>
     </g>
     <g id="text_15">
      <!-- 1.1 -->
      <g transform="translate(142.968875 142.781861)scale(0.1 -0.1)">
       <use xlink:href="#DejaVuSans-31"/>
       <use xlink:href="#DejaVuSans-2e" x="63.623047"/>
       <use xlink:href="#DejaVuSans-31" x="95.410156"/>
      </g>
     </g>
    </g>
    <g id="ytick_14">
     <g id="line2d_14">
      <g>
       <use xlink:href="#md5ee98569e" x="165.872" y="108.701431" style="stroke: #000000; stroke-width: 0.8"/>
      </g>
     </g>
     <g id="text_16">
      <!-- 1.2 -->
      <g transform="translate(142.968875 112.50065)scale(0.1 -0.1)">
       <use xlink:href="#DejaVuSans-31"/>
       <use xlink:href="#DejaVuSans-2e" x="63.623047"/>
       <use xlink:href="#DejaVuSans-32" x="95.410156"/>
      </g>
     </g>
    </g>
    <g id="ytick_15">
     <g id="line2d_15">
      <g>
       <use xlink:href="#md5ee98569e" x="165.872" y="78.42022" style="stroke: #000000; stroke-width: 0.8"/>
      </g>
     </g>
     <g id="text_17">
      <!-- 1.3 -->
      <g transform="translate(142.968875 82.219439)scale(0.1 -0.1)">
       <defs>
        <path id="DejaVuSans-33" d="M 2597 2516 
Q 3050 2419 3304 2112 
Q 3559 1806 3559 1356 
Q 3559 666 3084 287 
Q 2609 -91 1734 -91 
Q 1441 -91 1130 -33 
Q 819 25 488 141 
L 488 750 
Q 750 597 1062 519 
Q 1375 441 1716 441 
Q 2309 441 2620 675 
Q 2931 909 2931 1356 
Q 2931 1769 2642 2001 
Q 2353 2234 1838 2234 
L 1294 2234 
L 1294 2753 
L 1863 2753 
Q 2328 2753 2575 2939 
Q 2822 3125 2822 3475 
Q 2822 3834 2567 4026 
Q 2313 4219 1838 4219 
Q 1578 4219 1281 4162 
Q 984 4106 628 3988 
L 628 4550 
Q 988 4650 1302 4700 
Q 1616 4750 1894 4750 
Q 2613 4750 3031 4423 
Q 3450 4097 3450 3541 
Q 3450 3153 3228 2886 
Q 3006 2619 2597 2516 
z
" transform="scale(0.015625)"/>
       </defs>
       <use xlink:href="#DejaVuSans-31"/>
       <use xlink:href="#DejaVuSans-2e" x="63.623047"/>
       <use xlink:href="#DejaVuSans-33" x="95.410156"/>
      </g>
     </g>
    </g>
    <g id="ytick_16">
     <g id="line2d_16">
      <g>
       <use xlink:href="#md5ee98569e" x="165.872" y="48.139009" style="stroke: #000000; stroke-width: 0.8"/>
      </g>
     </g>
     <g id="text_18">
      <!-- 1.4 -->
      <g transform="translate(142.968875 51.938228)scale(0.1 -0.1)">
       <use xlink:href="#DejaVuSans-31"/>
       <use xlink:href="#DejaVuSans-2e" x="63.623047"/>
       <use xlink:href="#DejaVuSans-34" x="95.410156"/>
      </g>
     </g>
    </g>
    <g id="text_19">
     <!-- MAE [$\AA$] -->
     <g transform="translate(136.889188 180.22)rotate(-90)scale(0.1 -0.1)">
      <defs>
       <path id="DejaVuSans-41" d="M 2188 4044 
L 1331 1722 
L 3047 1722 
L 2188 4044 
z
M 1831 4666 
L 2547 4666 
L 4325 0 
L 3669 0 
L 3244 1197 
L 1141 1197 
L 716 0 
L 50 0 
L 1831 4666 
z
" transform="scale(0.015625)"/>
       <path id="DejaVuSans-45" d="M 628 4666 
L 3578 4666 
L 3578 4134 
L 1259 4134 
L 1259 2753 
L 3481 2753 
L 3481 2222 
L 1259 2222 
L 1259 531 
L 3634 531 
L 3634 0 
L 628 0 
L 628 4666 
z
" transform="scale(0.015625)"/>
      </defs>
      <use xlink:href="#DejaVuSans-4d" transform="translate(0 0.171875)"/>
      <use xlink:href="#DejaVuSans-41" transform="translate(86.279297 0.171875)"/>
      <use xlink:href="#DejaVuSans-45" transform="translate(154.6875 0.171875)"/>
      <use xlink:href="#DejaVuSans-20" transform="translate(217.871094 0.171875)"/>
      <use xlink:href="#DejaVuSans-5b" transform="translate(249.658203 0.171875)"/>
      <use xlink:href="#DejaVuSans-Oblique-c5" transform="translate(288.671875 0.171875)"/>
      <use xlink:href="#DejaVuSans-5d" transform="translate(357.080078 0.171875)"/>
     </g>
    </g>
   </g>
   <g id="LineCollection_5">
    <path d="M 180.7055 160.071193 
L 205.428 160.071193 
" clip-path="url(#pc533de06c0)" style="fill: none; stroke: #1f77b4; stroke-width: 1.5"/>
   </g>
   <g id="LineCollection_6">
    <path d="M 180.7055 57.342727 
L 205.428 57.342727 
" clip-path="url(#pc533de06c0)" style="fill: none; stroke: #1f77b4; stroke-width: 1.5"/>
   </g>
   <g id="LineCollection_7">
    <path d="M 180.7055 263.397273 
L 205.428 263.397273 
" clip-path="url(#pc533de06c0)" style="fill: none; stroke: #1f77b4; stroke-width: 1.5"/>
   </g>
   <g id="LineCollection_8">
    <path d="M 193.06675 263.397273 
L 193.06675 57.342727 
" clip-path="url(#pc533de06c0)" style="fill: none; stroke: #1f77b4; stroke-width: 1.5"/>
   </g>
   <g id="patch_8">
    <path d="M 165.872 273.7 
L 165.872 47.04 
" style="fill: none; stroke: #000000; stroke-width: 0.8; stroke-linejoin: miter; stroke-linecap: square"/>
   </g>
   <g id="patch_9">
    <path d="M 220.2615 273.7 
L 220.2615 47.04 
" style="fill: none; stroke: #000000; stroke-width: 0.8; stroke-linejoin: miter; stroke-linecap: square"/>
   </g>
   <g id="patch_10">
    <path d="M 165.872 273.7 
L 220.2615 273.7 
" style="fill: none; stroke: #000000; stroke-width: 0.8; stroke-linejoin: miter; stroke-linecap: square"/>
   </g>
   <g id="patch_11">
    <path d="M 165.872 47.04 
L 220.2615 47.04 
" style="fill: none; stroke: #000000; stroke-width: 0.8; stroke-linejoin: miter; stroke-linecap: square"/>
   </g>
   <g id="text_20">
    <!-- MAE -->
    <g transform="translate(179.99425 41.04)scale(0.12 -0.12)">
     <use xlink:href="#DejaVuSans-4d"/>
     <use xlink:href="#DejaVuSans-41" x="86.279297"/>
     <use xlink:href="#DejaVuSans-45" x="154.6875"/>
    </g>
   </g>
  </g>
  <g id="axes_3">
   <g id="patch_12">
    <path d="M 280.8515 273.7 
L 335.241 273.7 
L 335.241 47.04 
L 280.8515 47.04 
z
" style="fill: #ffffff"/>
   </g>
   <g id="PolyCollection_3">
    <path d="M 310.496003 263.397273 
L 305.596497 263.397273 
L 305.318183 261.315914 
L 305.039082 259.234555 
L 304.759927 257.153196 
L 304.480073 255.071837 
L 304.197593 252.990478 
L 303.90952 250.909118 
L 303.612196 248.827759 
L 303.301671 246.7464 
L 302.974094 244.665041 
L 302.626033 242.583682 
L 302.254724 240.502323 
L 301.858209 238.420964 
L 301.435411 236.339605 
L 300.98613 234.258246 
L 300.511006 232.176887 
L 300.011453 230.095528 
L 299.489546 228.014169 
L 298.947869 225.93281 
L 298.38929 223.851451 
L 297.816667 221.770092 
L 297.232502 219.688733 
L 296.638563 217.607374 
L 296.035559 215.526015 
L 295.422916 213.444656 
L 294.798742 211.363297 
L 294.160017 209.281938 
L 293.503025 207.200579 
L 292.824008 205.119219 
L 292.119958 203.03786 
L 291.389462 200.956501 
L 290.633462 198.875142 
L 289.85584 196.793783 
L 289.063721 194.712424 
L 288.267453 192.631065 
L 287.480244 190.549706 
L 286.717515 188.468347 
L 285.996016 186.386988 
L 285.332802 184.305629 
L 284.744186 182.22427 
L 284.244724 180.142911 
L 283.84634 178.061552 
L 283.557605 175.980193 
L 283.38323 173.898834 
L 283.32375 171.817475 
L 283.375419 169.736116 
L 283.530297 167.654757 
L 283.776528 165.573398 
L 284.098815 163.492039 
L 284.479099 161.41068 
L 284.897457 159.32932 
L 285.33321 157.247961 
L 285.766225 155.166602 
L 286.178343 153.085243 
L 286.554837 151.003884 
L 286.885732 148.922525 
L 287.166833 146.841166 
L 287.40027 144.759807 
L 287.594426 142.678448 
L 287.763183 140.597089 
L 287.924507 138.51573 
L 288.098529 136.434371 
L 288.305329 134.353012 
L 288.562734 132.271653 
L 288.884428 130.190294 
L 289.278619 128.108935 
L 289.747446 126.027576 
L 290.287156 123.946217 
L 290.888996 121.864858 
L 291.540621 119.783499 
L 292.227798 117.70214 
L 292.936126 115.620781 
L 293.652555 113.539421 
L 294.366513 111.458062 
L 295.070555 109.376703 
L 295.760506 107.295344 
L 296.435177 105.213985 
L 297.095725 103.132626 
L 297.744821 101.051267 
L 298.38574 98.969908 
L 299.021507 96.888549 
L 299.654189 94.80719 
L 300.284384 92.725831 
L 300.910966 90.644472 
L 301.531042 88.563113 
L 302.140149 86.481754 
L 302.732611 84.400395 
L 303.302032 82.319036 
L 303.84187 80.237677 
L 304.346021 78.156318 
L 304.809373 76.074959 
L 305.228266 73.9936 
L 305.600803 71.912241 
L 305.926996 69.830882 
L 306.208713 67.749522 
L 306.449446 65.668163 
L 306.653916 63.586804 
L 306.827583 61.505445 
L 306.976115 59.424086 
L 307.104893 57.342727 
L 308.987607 57.342727 
L 308.987607 57.342727 
L 309.116385 59.424086 
L 309.264917 61.505445 
L 309.438584 63.586804 
L 309.643054 65.668163 
L 309.883787 67.749522 
L 310.165504 69.830882 
L 310.491697 71.912241 
L 310.864234 73.9936 
L 311.283127 76.074959 
L 311.746479 78.156318 
L 312.25063 80.237677 
L 312.790468 82.319036 
L 313.359889 84.400395 
L 313.952351 86.481754 
L 314.561458 88.563113 
L 315.181534 90.644472 
L 315.808116 92.725831 
L 316.438311 94.80719 
L 317.070993 96.888549 
L 317.70676 98.969908 
L 318.347679 101.051267 
L 318.996775 103.132626 
L 319.657323 105.213985 
L 320.331994 107.295344 
L 321.021945 109.376703 
L 321.725987 111.458062 
L 322.439945 113.539421 
L 323.156374 115.620781 
L 323.864702 117.70214 
L 324.551879 119.783499 
L 325.203504 121.864858 
L 325.805344 123.946217 
L 326.345054 126.027576 
L 326.813881 128.108935 
L 327.208072 130.190294 
L 327.529766 132.271653 
L 327.787171 134.353012 
L 327.993971 136.434371 
L 328.167993 138.51573 
L 328.329317 140.597089 
L 328.498074 142.678448 
L 328.69223 144.759807 
L 328.925667 146.841166 
L 329.206768 148.922525 
L 329.537663 151.003884 
L 329.914157 153.085243 
L 330.326275 155.166602 
L 330.75929 157.247961 
L 331.195043 159.32932 
L 331.613401 161.41068 
L 331.993685 163.492039 
L 332.315972 165.573398 
L 332.562203 167.654757 
L 332.717081 169.736116 
L 332.76875 171.817475 
L 332.70927 173.898834 
L 332.534895 175.980193 
L 332.24616 178.061552 
L 331.847776 180.142911 
L 331.348314 182.22427 
L 330.759698 184.305629 
L 330.096484 186.386988 
L 329.374985 188.468347 
L 328.612256 190.549706 
L 327.825047 192.631065 
L 327.028779 194.712424 
L 326.23666 196.793783 
L 325.459038 198.875142 
L 324.703038 200.956501 
L 323.972542 203.03786 
L 323.268492 205.119219 
L 322.589475 207.200579 
L 321.932483 209.281938 
L 321.293758 211.363297 
L 320.669584 213.444656 
L 320.056941 215.526015 
L 319.453937 217.607374 
L 318.859998 219.688733 
L 318.275833 221.770092 
L 317.70321 223.851451 
L 317.144631 225.93281 
L 316.602954 228.014169 
L 316.081047 230.095528 
L 315.581494 232.176887 
L 315.10637 234.258246 
L 314.657089 236.339605 
L 314.234291 238.420964 
L 313.837776 240.502323 
L 313.466467 242.583682 
L 313.118406 244.665041 
L 312.790829 246.7464 
L 312.480304 248.827759 
L 312.18298 250.909118 
L 311.894907 252.990478 
L 311.612427 255.071837 
L 311.332573 257.153196 
L 311.053418 259.234555 
L 310.774317 261.315914 
L 310.496003 263.397273 
z
" clip-path="url(#p4db5188643)" style="fill: #1f77b4; fill-opacity: 0.3"/>
   </g>
   <g id="matplotlib.axis_3">
    <g id="ytick_17">
     <g id="line2d_17">
      <g>
       <use xlink:href="#md5ee98569e" x="280.8515" y="253.514168" style="stroke: #000000; stroke-width: 0.8"/>
      </g>
     </g>
     <g id="text_21">
      <!-- −0.1 -->
      <g transform="translate(249.568687 257.313387)scale(0.1 -0.1)">
       <defs>
        <path id="DejaVuSans-2212" d="M 678 2272 
L 4684 2272 
L 4684 1741 
L 678 1741 
L 678 2272 
z
" transform="scale(0.015625)"/>
       </defs>
       <use xlink:href="#DejaVuSans-2212"/>
       <use xlink:href="#DejaVuSans-30" x="83.789062"/>
       <use xlink:href="#DejaVuSans-2e" x="147.412109"/>
       <use xlink:href="#DejaVuSans-31" x="179.199219"/>
      </g>
     </g>
    </g>
    <g id="ytick_18">
     <g id="line2d_18">
      <g>
       <use xlink:href="#md5ee98569e" x="280.8515" y="227.55354" style="stroke: #000000; stroke-width: 0.8"/>
      </g>
     </g>
     <g id="text_22">
      <!-- 0.0 -->
      <g transform="translate(257.948375 231.352759)scale(0.1 -0.1)">
       <use xlink:href="#DejaVuSans-30"/>
       <use xlink:href="#DejaVuSans-2e" x="63.623047"/>
       <use xlink:href="#DejaVuSans-30" x="95.410156"/>
      </g>
     </g>
    </g>
    <g id="ytick_19">
     <g id="line2d_19">
      <g>
       <use xlink:href="#md5ee98569e" x="280.8515" y="201.592912" style="stroke: #000000; stroke-width: 0.8"/>
      </g>
     </g>
     <g id="text_23">
      <!-- 0.1 -->
      <g transform="translate(257.948375 205.392131)scale(0.1 -0.1)">
       <use xlink:href="#DejaVuSans-30"/>
       <use xlink:href="#DejaVuSans-2e" x="63.623047"/>
       <use xlink:href="#DejaVuSans-31" x="95.410156"/>
      </g>
     </g>
    </g>
    <g id="ytick_20">
     <g id="line2d_20">
      <g>
       <use xlink:href="#md5ee98569e" x="280.8515" y="175.632284" style="stroke: #000000; stroke-width: 0.8"/>
      </g>
     </g>
     <g id="text_24">
      <!-- 0.2 -->
      <g transform="translate(257.948375 179.431503)scale(0.1 -0.1)">
       <use xlink:href="#DejaVuSans-30"/>
       <use xlink:href="#DejaVuSans-2e" x="63.623047"/>
       <use xlink:href="#DejaVuSans-32" x="95.410156"/>
      </g>
     </g>
    </g>
    <g id="ytick_21">
     <g id="line2d_21">
      <g>
       <use xlink:href="#md5ee98569e" x="280.8515" y="149.671657" style="stroke: #000000; stroke-width: 0.8"/>
      </g>
     </g>
     <g id="text_25">
      <!-- 0.3 -->
      <g transform="translate(257.948375 153.470875)scale(0.1 -0.1)">
       <use xlink:href="#DejaVuSans-30"/>
       <use xlink:href="#DejaVuSans-2e" x="63.623047"/>
       <use xlink:href="#DejaVuSans-33" x="95.410156"/>
      </g>
     </g>
    </g>
    <g id="ytick_22">
     <g id="line2d_22">
      <g>
       <use xlink:href="#md5ee98569e" x="280.8515" y="123.711029" style="stroke: #000000; stroke-width: 0.8"/>
      </g>
     </g>
     <g id="text_26">
      <!-- 0.4 -->
      <g transform="translate(257.948375 127.510247)scale(0.1 -0.1)">
       <use xlink:href="#DejaVuSans-30"/>
       <use xlink:href="#DejaVuSans-2e" x="63.623047"/>
       <use xlink:href="#DejaVuSans-34" x="95.410156"/>
      </g>
     </g>
    </g>
    <g id="ytick_23">
     <g id="line2d_23">
      <g>
       <use xlink:href="#md5ee98569e" x="280.8515" y="97.750401" style="stroke: #000000; stroke-width: 0.8"/>
      </g>
     </g>
     <g id="text_27">
      <!-- 0.5 -->
      <g transform="translate(257.948375 101.54962)scale(0.1 -0.1)">
       <defs>
        <path id="DejaVuSans-35" d="M 691 4666 
L 3169 4666 
L 3169 4134 
L 1269 4134 
L 1269 2991 
Q 1406 3038 1543 3061 
Q 1681 3084 1819 3084 
Q 2600 3084 3056 2656 
Q 3513 2228 3513 1497 
Q 3513 744 3044 326 
Q 2575 -91 1722 -91 
Q 1428 -91 1123 -41 
Q 819 9 494 109 
L 494 744 
Q 775 591 1075 516 
Q 1375 441 1709 441 
Q 2250 441 2565 725 
Q 2881 1009 2881 1497 
Q 2881 1984 2565 2268 
Q 2250 2553 1709 2553 
Q 1456 2553 1204 2497 
Q 953 2441 691 2322 
L 691 4666 
z
" transform="scale(0.015625)"/>
       </defs>
       <use xlink:href="#DejaVuSans-30"/>
       <use xlink:href="#DejaVuSans-2e" x="63.623047"/>
       <use xlink:href="#DejaVuSans-35" x="95.410156"/>
      </g>
     </g>
    </g>
    <g id="ytick_24">
     <g id="line2d_24">
      <g>
       <use xlink:href="#md5ee98569e" x="280.8515" y="71.789773" style="stroke: #000000; stroke-width: 0.8"/>
      </g>
     </g>
     <g id="text_28">
      <!-- 0.6 -->
      <g transform="translate(257.948375 75.588992)scale(0.1 -0.1)">
       <use xlink:href="#DejaVuSans-30"/>
       <use xlink:href="#DejaVuSans-2e" x="63.623047"/>
       <use xlink:href="#DejaVuSans-36" x="95.410156"/>
      </g>
     </g>
    </g>
    <g id="text_29">
     <!-- MSE [$\AA$] -->
     <g transform="translate(243.489 179.97)rotate(-90)scale(0.1 -0.1)">
      <use xlink:href="#DejaVuSans-4d" transform="translate(0 0.171875)"/>
      <use xlink:href="#DejaVuSans-53" transform="translate(86.279297 0.171875)"/>
      <use xlink:href="#DejaVuSans-45" transform="translate(149.755859 0.171875)"/>
      <use xlink:href="#DejaVuSans-20" transform="translate(212.939453 0.171875)"/>
      <use xlink:href="#DejaVuSans-5b" transform="translate(244.726562 0.171875)"/>
      <use xlink:href="#DejaVuSans-Oblique-c5" transform="translate(283.740234 0.171875)"/>
      <use xlink:href="#DejaVuSans-5d" transform="translate(352.148438 0.171875)"/>
     </g>
    </g>
   </g>
   <g id="LineCollection_9">
    <path d="M 295.685 163.655211 
L 320.4075 163.655211 
" clip-path="url(#p4db5188643)" style="fill: none; stroke: #1f77b4; stroke-width: 1.5"/>
   </g>
   <g id="LineCollection_10">
    <path d="M 295.685 57.342727 
L 320.4075 57.342727 
" clip-path="url(#p4db5188643)" style="fill: none; stroke: #1f77b4; stroke-width: 1.5"/>
   </g>
   <g id="LineCollection_11">
    <path d="M 295.685 263.397273 
L 320.4075 263.397273 
" clip-path="url(#p4db5188643)" style="fill: none; stroke: #1f77b4; stroke-width: 1.5"/>
   </g>
   <g id="LineCollection_12">
    <path d="M 308.04625 263.397273 
L 308.04625 57.342727 
" clip-path="url(#p4db5188643)" style="fill: none; stroke: #1f77b4; stroke-width: 1.5"/>
   </g>
   <g id="patch_13">
    <path d="M 280.8515 273.7 
L 280.8515 47.04 
" style="fill: none; stroke: #000000; stroke-width: 0.8; stroke-linejoin: miter; stroke-linecap: square"/>
   </g>
   <g id="patch_14">
    <path d="M 335.241 273.7 
L 335.241 47.04 
" style="fill: none; stroke: #000000; stroke-width: 0.8; stroke-linejoin: miter; stroke-linecap: square"/>
   </g>
   <g id="patch_15">
    <path d="M 280.8515 273.7 
L 335.241 273.7 
" style="fill: none; stroke: #000000; stroke-width: 0.8; stroke-linejoin: miter; stroke-linecap: square"/>
   </g>
   <g id="patch_16">
    <path d="M 280.8515 47.04 
L 335.241 47.04 
" style="fill: none; stroke: #000000; stroke-width: 0.8; stroke-linejoin: miter; stroke-linecap: square"/>
   </g>
   <g id="text_30">
    <!-- MSE -->
    <g transform="translate(295.269062 41.04)scale(0.12 -0.12)">
     <use xlink:href="#DejaVuSans-4d"/>
     <use xlink:href="#DejaVuSans-53" x="86.279297"/>
     <use xlink:href="#DejaVuSans-45" x="149.755859"/>
    </g>
   </g>
  </g>
  <g id="axes_4">
   <g id="patch_17">
    <path d="M 395.831 273.7 
L 450.2205 273.7 
L 450.2205 47.04 
L 395.831 47.04 
z
" style="fill: #ffffff"/>
   </g>
   <g id="PolyCollection_4">
    <path d="M 423.592752 263.397273 
L 422.458748 263.397273 
L 422.332106 261.315914 
L 422.16563 259.234555 
L 421.947301 257.153196 
L 421.664719 255.071837 
L 421.306336 252.990478 
L 420.862791 250.909118 
L 420.32817 248.827759 
L 419.700975 246.7464 
L 418.98463 244.665041 
L 418.187411 242.583682 
L 417.32179 240.502323 
L 416.403288 238.420964 
L 415.449004 236.339605 
L 414.476042 234.258246 
L 413.500075 232.176887 
L 412.534213 230.095528 
L 411.588289 228.014169 
L 410.668573 225.93281 
L 409.777869 223.851451 
L 408.91591 221.770092 
L 408.079942 219.688733 
L 407.265455 217.607374 
L 406.467022 215.526015 
L 405.679248 213.444656 
L 404.897815 211.363297 
L 404.120557 209.281938 
L 403.348463 207.200579 
L 402.58641 205.119219 
L 401.843438 203.03786 
L 401.132422 200.956501 
L 400.469063 198.875142 
L 399.870325 196.793783 
L 399.352533 194.712424 
L 398.929506 192.631065 
L 398.611066 190.549706 
L 398.40224 188.468347 
L 398.30325 186.386988 
L 398.310224 184.305629 
L 398.416368 182.22427 
L 398.613234 180.142911 
L 398.891755 178.061552 
L 399.242802 175.980193 
L 399.657223 173.898834 
L 400.125502 171.817475 
L 400.637281 169.736116 
L 401.181037 167.654757 
L 401.744139 165.573398 
L 402.313374 163.492039 
L 402.875865 161.41068 
L 403.420217 159.32932 
L 403.937632 157.247961 
L 404.422763 155.166602 
L 404.874129 153.085243 
L 405.294058 151.003884 
L 405.688164 148.922525 
L 406.064519 146.841166 
L 406.432671 144.759807 
L 406.802676 142.678448 
L 407.184285 140.597089 
L 407.58634 138.51573 
L 408.016402 136.434371 
L 408.480532 134.353012 
L 408.983175 132.271653 
L 409.527032 130.190294 
L 410.112906 128.108935 
L 410.739473 126.027576 
L 411.403064 123.946217 
L 412.097519 121.864858 
L 412.814227 119.783499 
L 413.542437 117.70214 
L 414.269875 115.620781 
L 414.983653 113.539421 
L 415.671349 111.458062 
L 416.322129 109.376703 
L 416.927708 107.295344 
L 417.482995 105.213985 
L 417.986325 103.132626 
L 418.439235 101.051267 
L 418.845859 98.969908 
L 419.212061 96.888549 
L 419.544476 94.80719 
L 419.849609 92.725831 
L 420.133125 90.644472 
L 420.399383 88.563113 
L 420.651247 86.481754 
L 420.890112 84.400395 
L 421.116119 82.319036 
L 421.328469 80.237677 
L 421.525799 78.156318 
L 421.70657 76.074959 
L 421.869429 73.9936 
L 422.013525 71.912241 
L 422.138734 69.830882 
L 422.245789 67.749522 
L 422.336272 65.668163 
L 422.412484 63.586804 
L 422.4772 61.505445 
L 422.533345 59.424086 
L 422.583661 57.342727 
L 423.467839 57.342727 
L 423.467839 57.342727 
L 423.518155 59.424086 
L 423.5743 61.505445 
L 423.639016 63.586804 
L 423.715228 65.668163 
L 423.805711 67.749522 
L 423.912766 69.830882 
L 424.037975 71.912241 
L 424.182071 73.9936 
L 424.34493 76.074959 
L 424.525701 78.156318 
L 424.723031 80.237677 
L 424.935381 82.319036 
L 425.161388 84.400395 
L 425.400253 86.481754 
L 425.652117 88.563113 
L 425.918375 90.644472 
L 426.201891 92.725831 
L 426.507024 94.80719 
L 426.839439 96.888549 
L 427.205641 98.969908 
L 427.612265 101.051267 
L 428.065175 103.132626 
L 428.568505 105.213985 
L 429.123792 107.295344 
L 429.729371 109.376703 
L 430.380151 111.458062 
L 431.067847 113.539421 
L 431.781625 115.620781 
L 432.509063 117.70214 
L 433.237273 119.783499 
L 433.953981 121.864858 
L 434.648436 123.946217 
L 435.312027 126.027576 
L 435.938594 128.108935 
L 436.524468 130.190294 
L 437.068325 132.271653 
L 437.570968 134.353012 
L 438.035098 136.434371 
L 438.46516 138.51573 
L 438.867215 140.597089 
L 439.248824 142.678448 
L 439.618829 144.759807 
L 439.986981 146.841166 
L 440.363336 148.922525 
L 440.757442 151.003884 
L 441.177371 153.085243 
L 441.628737 155.166602 
L 442.113868 157.247961 
L 442.631283 159.32932 
L 443.175635 161.41068 
L 443.738126 163.492039 
L 444.307361 165.573398 
L 444.870463 167.654757 
L 445.414219 169.736116 
L 445.925998 171.817475 
L 446.394277 173.898834 
L 446.808698 175.980193 
L 447.159745 178.061552 
L 447.438266 180.142911 
L 447.635132 182.22427 
L 447.741276 184.305629 
L 447.74825 186.386988 
L 447.64926 188.468347 
L 447.440434 190.549706 
L 447.121994 192.631065 
L 446.698967 194.712424 
L 446.181175 196.793783 
L 445.582437 198.875142 
L 444.919078 200.956501 
L 444.208062 203.03786 
L 443.46509 205.119219 
L 442.703037 207.200579 
L 441.930943 209.281938 
L 441.153685 211.363297 
L 440.372252 213.444656 
L 439.584478 215.526015 
L 438.786045 217.607374 
L 437.971558 219.688733 
L 437.13559 221.770092 
L 436.273631 223.851451 
L 435.382927 225.93281 
L 434.463211 228.014169 
L 433.517287 230.095528 
L 432.551425 232.176887 
L 431.575458 234.258246 
L 430.602496 236.339605 
L 429.648212 238.420964 
L 428.72971 240.502323 
L 427.864089 242.583682 
L 427.06687 244.665041 
L 426.350525 246.7464 
L 425.72333 248.827759 
L 425.188709 250.909118 
L 424.745164 252.990478 
L 424.386781 255.071837 
L 424.104199 257.153196 
L 423.88587 259.234555 
L 423.719394 261.315914 
L 423.592752 263.397273 
z
" clip-path="url(#p319d50d3a2)" style="fill: #1f77b4; fill-opacity: 0.3"/>
   </g>
   <g id="matplotlib.axis_4">
    <g id="ytick_25">
     <g id="line2d_25">
      <g>
       <use xlink:href="#md5ee98569e" x="395.831" y="257.153196" style="stroke: #000000; stroke-width: 0.8"/>
      </g>
     </g>
     <g id="text_31">
      <!-- 0.700 -->
      <g transform="translate(360.202875 260.952414)scale(0.1 -0.1)">
       <use xlink:href="#DejaVuSans-30"/>
       <use xlink:href="#DejaVuSans-2e" x="63.623047"/>
       <use xlink:href="#DejaVuSans-37" x="95.410156"/>
       <use xlink:href="#DejaVuSans-30" x="159.033203"/>
       <use xlink:href="#DejaVuSans-30" x="222.65625"/>
      </g>
     </g>
    </g>
    <g id="ytick_26">
     <g id="line2d_26">
      <g>
       <use xlink:href="#md5ee98569e" x="395.831" y="230.615868" style="stroke: #000000; stroke-width: 0.8"/>
      </g>
     </g>
     <g id="text_32">
      <!-- 0.725 -->
      <g transform="translate(360.202875 234.415087)scale(0.1 -0.1)">
       <use xlink:href="#DejaVuSans-30"/>
       <use xlink:href="#DejaVuSans-2e" x="63.623047"/>
       <use xlink:href="#DejaVuSans-37" x="95.410156"/>
       <use xlink:href="#DejaVuSans-32" x="159.033203"/>
       <use xlink:href="#DejaVuSans-35" x="222.65625"/>
      </g>
     </g>
    </g>
    <g id="ytick_27">
     <g id="line2d_27">
      <g>
       <use xlink:href="#md5ee98569e" x="395.831" y="204.07854" style="stroke: #000000; stroke-width: 0.8"/>
      </g>
     </g>
     <g id="text_33">
      <!-- 0.750 -->
      <g transform="translate(360.202875 207.877759)scale(0.1 -0.1)">
       <use xlink:href="#DejaVuSans-30"/>
       <use xlink:href="#DejaVuSans-2e" x="63.623047"/>
       <use xlink:href="#DejaVuSans-37" x="95.410156"/>
       <use xlink:href="#DejaVuSans-35" x="159.033203"/>
       <use xlink:href="#DejaVuSans-30" x="222.65625"/>
      </g>
     </g>
    </g>
    <g id="ytick_28">
     <g id="line2d_28">
      <g>
       <use xlink:href="#md5ee98569e" x="395.831" y="177.541212" style="stroke: #000000; stroke-width: 0.8"/>
      </g>
     </g>
     <g id="text_34">
      <!-- 0.775 -->
      <g transform="translate(360.202875 181.340431)scale(0.1 -0.1)">
       <use xlink:href="#DejaVuSans-30"/>
       <use xlink:href="#DejaVuSans-2e" x="63.623047"/>
       <use xlink:href="#DejaVuSans-37" x="95.410156"/>
       <use xlink:href="#DejaVuSans-37" x="159.033203"/>
       <use xlink:href="#DejaVuSans-35" x="222.65625"/>
      </g>
     </g>
    </g>
    <g id="ytick_29">
     <g id="line2d_29">
      <g>
       <use xlink:href="#md5ee98569e" x="395.831" y="151.003884" style="stroke: #000000; stroke-width: 0.8"/>
      </g>
     </g>
     <g id="text_35">
      <!-- 0.800 -->
      <g transform="translate(360.202875 154.803103)scale(0.1 -0.1)">
       <use xlink:href="#DejaVuSans-30"/>
       <use xlink:href="#DejaVuSans-2e" x="63.623047"/>
       <use xlink:href="#DejaVuSans-38" x="95.410156"/>
       <use xlink:href="#DejaVuSans-30" x="159.033203"/>
       <use xlink:href="#DejaVuSans-30" x="222.65625"/>
      </g>
     </g>
    </g>
    <g id="ytick_30">
     <g id="line2d_30">
      <g>
       <use xlink:href="#md5ee98569e" x="395.831" y="124.466556" style="stroke: #000000; stroke-width: 0.8"/>
      </g>
     </g>
     <g id="text_36">
      <!-- 0.825 -->
      <g transform="translate(360.202875 128.265775)scale(0.1 -0.1)">
       <use xlink:href="#DejaVuSans-30"/>
       <use xlink:href="#DejaVuSans-2e" x="63.623047"/>
       <use xlink:href="#DejaVuSans-38" x="95.410156"/>
       <use xlink:href="#DejaVuSans-32" x="159.033203"/>
       <use xlink:href="#DejaVuSans-35" x="222.65625"/>
      </g>
     </g>
    </g>
    <g id="ytick_31">
     <g id="line2d_31">
      <g>
       <use xlink:href="#md5ee98569e" x="395.831" y="97.929229" style="stroke: #000000; stroke-width: 0.8"/>
      </g>
     </g>
     <g id="text_37">
      <!-- 0.850 -->
      <g transform="translate(360.202875 101.728447)scale(0.1 -0.1)">
       <use xlink:href="#DejaVuSans-30"/>
       <use xlink:href="#DejaVuSans-2e" x="63.623047"/>
       <use xlink:href="#DejaVuSans-38" x="95.410156"/>
       <use xlink:href="#DejaVuSans-35" x="159.033203"/>
       <use xlink:href="#DejaVuSans-30" x="222.65625"/>
      </g>
     </g>
    </g>
    <g id="ytick_32">
     <g id="line2d_32">
      <g>
       <use xlink:href="#md5ee98569e" x="395.831" y="71.391901" style="stroke: #000000; stroke-width: 0.8"/>
      </g>
     </g>
     <g id="text_38">
      <!-- 0.875 -->
      <g transform="translate(360.202875 75.19112)scale(0.1 -0.1)">
       <use xlink:href="#DejaVuSans-30"/>
       <use xlink:href="#DejaVuSans-2e" x="63.623047"/>
       <use xlink:href="#DejaVuSans-38" x="95.410156"/>
       <use xlink:href="#DejaVuSans-37" x="159.033203"/>
       <use xlink:href="#DejaVuSans-35" x="222.65625"/>
      </g>
     </g>
    </g>
    <g id="text_39">
     <!-- % NOE fulfilled [1/100 %] -->
     <g transform="translate(354.123188 223.870781)rotate(-90)scale(0.1 -0.1)">
      <defs>
       <path id="DejaVuSans-25" d="M 4653 2053 
Q 4381 2053 4226 1822 
Q 4072 1591 4072 1178 
Q 4072 772 4226 539 
Q 4381 306 4653 306 
Q 4919 306 5073 539 
Q 5228 772 5228 1178 
Q 5228 1588 5073 1820 
Q 4919 2053 4653 2053 
z
M 4653 2450 
Q 5147 2450 5437 2106 
Q 5728 1763 5728 1178 
Q 5728 594 5436 251 
Q 5144 -91 4653 -91 
Q 4153 -91 3862 251 
Q 3572 594 3572 1178 
Q 3572 1766 3864 2108 
Q 4156 2450 4653 2450 
z
M 1428 4353 
Q 1159 4353 1004 4120 
Q 850 3888 850 3481 
Q 850 3069 1003 2837 
Q 1156 2606 1428 2606 
Q 1700 2606 1854 2837 
Q 2009 3069 2009 3481 
Q 2009 3884 1853 4118 
Q 1697 4353 1428 4353 
z
M 4250 4750 
L 4750 4750 
L 1831 -91 
L 1331 -91 
L 4250 4750 
z
M 1428 4750 
Q 1922 4750 2215 4408 
Q 2509 4066 2509 3481 
Q 2509 2891 2217 2550 
Q 1925 2209 1428 2209 
Q 931 2209 642 2551 
Q 353 2894 353 3481 
Q 353 4063 643 4406 
Q 934 4750 1428 4750 
z
" transform="scale(0.015625)"/>
       <path id="DejaVuSans-4e" d="M 628 4666 
L 1478 4666 
L 3547 763 
L 3547 4666 
L 4159 4666 
L 4159 0 
L 3309 0 
L 1241 3903 
L 1241 0 
L 628 0 
L 628 4666 
z
" transform="scale(0.015625)"/>
       <path id="DejaVuSans-4f" d="M 2522 4238 
Q 1834 4238 1429 3725 
Q 1025 3213 1025 2328 
Q 1025 1447 1429 934 
Q 1834 422 2522 422 
Q 3209 422 3611 934 
Q 4013 1447 4013 2328 
Q 4013 3213 3611 3725 
Q 3209 4238 2522 4238 
z
M 2522 4750 
Q 3503 4750 4090 4092 
Q 4678 3434 4678 2328 
Q 4678 1225 4090 567 
Q 3503 -91 2522 -91 
Q 1538 -91 948 565 
Q 359 1222 359 2328 
Q 359 3434 948 4092 
Q 1538 4750 2522 4750 
z
" transform="scale(0.015625)"/>
       <path id="DejaVuSans-66" d="M 2375 4863 
L 2375 4384 
L 1825 4384 
Q 1516 4384 1395 4259 
Q 1275 4134 1275 3809 
L 1275 3500 
L 2222 3500 
L 2222 3053 
L 1275 3053 
L 1275 0 
L 697 0 
L 697 3053 
L 147 3053 
L 147 3500 
L 697 3500 
L 697 3744 
Q 697 4328 969 4595 
Q 1241 4863 1831 4863 
L 2375 4863 
z
" transform="scale(0.015625)"/>
       <path id="DejaVuSans-75" d="M 544 1381 
L 544 3500 
L 1119 3500 
L 1119 1403 
Q 1119 906 1312 657 
Q 1506 409 1894 409 
Q 2359 409 2629 706 
Q 2900 1003 2900 1516 
L 2900 3500 
L 3475 3500 
L 3475 0 
L 2900 0 
L 2900 538 
Q 2691 219 2414 64 
Q 2138 -91 1772 -91 
Q 1169 -91 856 284 
Q 544 659 544 1381 
z
M 1991 3584 
L 1991 3584 
z
" transform="scale(0.015625)"/>
       <path id="DejaVuSans-6c" d="M 603 4863 
L 1178 4863 
L 1178 0 
L 603 0 
L 603 4863 
z
" transform="scale(0.015625)"/>
       <path id="DejaVuSans-69" d="M 603 3500 
L 1178 3500 
L 1178 0 
L 603 0 
L 603 3500 
z
M 603 4863 
L 1178 4863 
L 1178 4134 
L 603 4134 
L 603 4863 
z
" transform="scale(0.015625)"/>
       <path id="DejaVuSans-65" d="M 3597 1894 
L 3597 1613 
L 953 1613 
Q 991 1019 1311 708 
Q 1631 397 2203 397 
Q 2534 397 2845 478 
Q 3156 559 3463 722 
L 3463 178 
Q 3153 47 2828 -22 
Q 2503 -91 2169 -91 
Q 1331 -91 842 396 
Q 353 884 353 1716 
Q 353 2575 817 3079 
Q 1281 3584 2069 3584 
Q 2775 3584 3186 3129 
Q 3597 2675 3597 1894 
z
M 3022 2063 
Q 3016 2534 2758 2815 
Q 2500 3097 2075 3097 
Q 1594 3097 1305 2825 
Q 1016 2553 972 2059 
L 3022 2063 
z
" transform="scale(0.015625)"/>
       <path id="DejaVuSans-64" d="M 2906 2969 
L 2906 4863 
L 3481 4863 
L 3481 0 
L 2906 0 
L 2906 525 
Q 2725 213 2448 61 
Q 2172 -91 1784 -91 
Q 1150 -91 751 415 
Q 353 922 353 1747 
Q 353 2572 751 3078 
Q 1150 3584 1784 3584 
Q 2172 3584 2448 3432 
Q 2725 3281 2906 2969 
z
M 947 1747 
Q 947 1113 1208 752 
Q 1469 391 1925 391 
Q 2381 391 2643 752 
Q 2906 1113 2906 1747 
Q 2906 2381 2643 2742 
Q 2381 3103 1925 3103 
Q 1469 3103 1208 2742 
Q 947 2381 947 1747 
z
" transform="scale(0.015625)"/>
       <path id="DejaVuSans-2f" d="M 1625 4666 
L 2156 4666 
L 531 -594 
L 0 -594 
L 1625 4666 
z
" transform="scale(0.015625)"/>
      </defs>
      <use xlink:href="#DejaVuSans-25"/>
      <use xlink:href="#DejaVuSans-20" x="95.019531"/>
      <use xlink:href="#DejaVuSans-4e" x="126.806641"/>
      <use xlink:href="#DejaVuSans-4f" x="201.611328"/>
      <use xlink:href="#DejaVuSans-45" x="280.322266"/>
      <use xlink:href="#DejaVuSans-20" x="343.505859"/>
      <use xlink:href="#DejaVuSans-66" x="375.292969"/>
      <use xlink:href="#DejaVuSans-75" x="410.498047"/>
      <use xlink:href="#DejaVuSans-6c" x="473.876953"/>
      <use xlink:href="#DejaVuSans-66" x="501.660156"/>
      <use xlink:href="#DejaVuSans-69" x="536.865234"/>
      <use xlink:href="#DejaVuSans-6c" x="564.648438"/>
      <use xlink:href="#DejaVuSans-6c" x="592.431641"/>
      <use xlink:href="#DejaVuSans-65" x="620.214844"/>
      <use xlink:href="#DejaVuSans-64" x="681.738281"/>
      <use xlink:href="#DejaVuSans-20" x="745.214844"/>
      <use xlink:href="#DejaVuSans-5b" x="777.001953"/>
      <use xlink:href="#DejaVuSans-31" x="816.015625"/>
      <use xlink:href="#DejaVuSans-2f" x="879.638672"/>
      <use xlink:href="#DejaVuSans-31" x="913.330078"/>
      <use xlink:href="#DejaVuSans-30" x="976.953125"/>
      <use xlink:href="#DejaVuSans-30" x="1040.576172"/>
      <use xlink:href="#DejaVuSans-20" x="1104.199219"/>
      <use xlink:href="#DejaVuSans-25" x="1135.986328"/>
      <use xlink:href="#DejaVuSans-5d" x="1231.005859"/>
     </g>
    </g>
   </g>
   <g id="LineCollection_13">
    <path d="M 410.6645 173.638664 
L 435.387 173.638664 
" clip-path="url(#p319d50d3a2)" style="fill: none; stroke: #1f77b4; stroke-width: 1.5"/>
   </g>
   <g id="LineCollection_14">
    <path d="M 410.6645 57.342727 
L 435.387 57.342727 
" clip-path="url(#p319d50d3a2)" style="fill: none; stroke: #1f77b4; stroke-width: 1.5"/>
   </g>
   <g id="LineCollection_15">
    <path d="M 410.6645 263.397273 
L 435.387 263.397273 
" clip-path="url(#p319d50d3a2)" style="fill: none; stroke: #1f77b4; stroke-width: 1.5"/>
   </g>
   <g id="LineCollection_16">
    <path d="M 423.02575 263.397273 
L 423.02575 57.342727 
" clip-path="url(#p319d50d3a2)" style="fill: none; stroke: #1f77b4; stroke-width: 1.5"/>
   </g>
   <g id="patch_18">
    <path d="M 395.831 273.7 
L 395.831 47.04 
" style="fill: none; stroke: #000000; stroke-width: 0.8; stroke-linejoin: miter; stroke-linecap: square"/>
   </g>
   <g id="patch_19">
    <path d="M 450.2205 273.7 
L 450.2205 47.04 
" style="fill: none; stroke: #000000; stroke-width: 0.8; stroke-linejoin: miter; stroke-linecap: square"/>
   </g>
   <g id="patch_20">
    <path d="M 395.831 273.7 
L 450.2205 273.7 
" style="fill: none; stroke: #000000; stroke-width: 0.8; stroke-linejoin: miter; stroke-linecap: square"/>
   </g>
   <g id="patch_21">
    <path d="M 395.831 47.04 
L 450.2205 47.04 
" style="fill: none; stroke: #000000; stroke-width: 0.8; stroke-linejoin: miter; stroke-linecap: square"/>
   </g>
   <g id="text_40">
    <!-- % NOE fulfilled -->
    <g transform="translate(378.312625 41.04)scale(0.12 -0.12)">
     <use xlink:href="#DejaVuSans-25"/>
     <use xlink:href="#DejaVuSans-20" x="95.019531"/>
     <use xlink:href="#DejaVuSans-4e" x="126.806641"/>
     <use xlink:href="#DejaVuSans-4f" x="201.611328"/>
     <use xlink:href="#DejaVuSans-45" x="280.322266"/>
     <use xlink:href="#DejaVuSans-20" x="343.505859"/>
     <use xlink:href="#DejaVuSans-66" x="375.292969"/>
     <use xlink:href="#DejaVuSans-75" x="410.498047"/>
     <use xlink:href="#DejaVuSans-6c" x="473.876953"/>
     <use xlink:href="#DejaVuSans-66" x="501.660156"/>
     <use xlink:href="#DejaVuSans-69" x="536.865234"/>
     <use xlink:href="#DejaVuSans-6c" x="564.648438"/>
     <use xlink:href="#DejaVuSans-6c" x="592.431641"/>
     <use xlink:href="#DejaVuSans-65" x="620.214844"/>
     <use xlink:href="#DejaVuSans-64" x="681.738281"/>
    </g>
   </g>
  </g>
  <g id="axes_5">
   <g id="patch_22">
    <path d="M 510.8105 273.7 
L 565.2 273.7 
L 565.2 47.04 
L 510.8105 47.04 
z
" style="fill: #ffffff"/>
   </g>
   <g id="PolyCollection_5">
    <path d="M 538.470389 263.397273 
L 537.540111 263.397273 
L 537.501597 261.315914 
L 537.466358 259.234555 
L 537.433257 257.153196 
L 537.400258 255.071837 
L 537.36453 252.990478 
L 537.322687 250.909118 
L 537.271122 248.827759 
L 537.206435 246.7464 
L 537.125886 244.665041 
L 537.027811 242.583682 
L 536.911929 240.502323 
L 536.779466 238.420964 
L 536.633049 236.339605 
L 536.47634 234.258246 
L 536.313441 232.176887 
L 536.148121 230.095528 
L 535.982982 228.014169 
L 535.818672 225.93281 
L 535.653307 223.851451 
L 535.482218 221.770092 
L 535.298127 219.688733 
L 535.091782 217.607374 
L 534.853026 215.526015 
L 534.572177 213.444656 
L 534.241514 211.363297 
L 533.856643 209.281938 
L 533.41746 207.200579 
L 532.928516 205.119219 
L 532.398666 203.03786 
L 531.840005 200.956501 
L 531.266261 198.875142 
L 530.690923 196.793783 
L 530.125448 194.712424 
L 529.57789 192.631065 
L 529.052194 190.549706 
L 528.548262 188.468347 
L 528.062727 186.386988 
L 527.590197 184.305629 
L 527.124691 182.22427 
L 526.660907 180.142911 
L 526.19509 178.061552 
L 525.725356 175.980193 
L 525.251498 173.898834 
L 524.774409 171.817475 
L 524.295345 169.736116 
L 523.815255 167.654757 
L 523.334341 165.573398 
L 522.851925 163.492039 
L 522.366604 161.41068 
L 521.876566 159.32932 
L 521.379945 157.247961 
L 520.875079 155.166602 
L 520.360607 153.085243 
L 519.835434 151.003884 
L 519.298635 148.922525 
L 518.74946 146.841166 
L 518.187547 144.759807 
L 517.61343 142.678448 
L 517.029323 140.597089 
L 516.440058 138.51573 
L 515.853977 136.434371 
L 515.283538 134.353012 
L 514.745391 132.271653 
L 514.259785 130.190294 
L 513.849227 128.108935 
L 513.536515 126.027576 
L 513.342332 123.946217 
L 513.28275 121.864858 
L 513.367039 119.783499 
L 513.596173 117.70214 
L 513.962387 115.620781 
L 514.449947 113.539421 
L 515.037161 111.458062 
L 515.699339 109.376703 
L 516.41229 107.295344 
L 517.155709 105.213985 
L 517.915872 103.132626 
L 518.687111 101.051267 
L 519.471795 98.969908 
L 520.278848 96.888549 
L 521.12112 94.80719 
L 522.01213 92.725831 
L 522.962794 90.644472 
L 523.978713 88.563113 
L 525.058406 86.481754 
L 526.192707 84.400395 
L 527.36529 82.319036 
L 528.55414 80.237677 
L 529.733688 78.156318 
L 530.87727 76.074959 
L 531.95959 73.9936 
L 532.958904 71.912241 
L 533.858694 69.830882 
L 534.648691 67.749522 
L 535.325158 65.668163 
L 535.890481 63.586804 
L 536.352166 61.505445 
L 536.721435 59.424086 
L 537.011649 57.342727 
L 538.998851 57.342727 
L 538.998851 57.342727 
L 539.289065 59.424086 
L 539.658334 61.505445 
L 540.120019 63.586804 
L 540.685342 65.668163 
L 541.361809 67.749522 
L 542.151806 69.830882 
L 543.051596 71.912241 
L 544.05091 73.9936 
L 545.13323 76.074959 
L 546.276812 78.156318 
L 547.45636 80.237677 
L 548.64521 82.319036 
L 549.817793 84.400395 
L 550.952094 86.481754 
L 552.031787 88.563113 
L 553.047706 90.644472 
L 553.99837 92.725831 
L 554.88938 94.80719 
L 555.731652 96.888549 
L 556.538705 98.969908 
L 557.323389 101.051267 
L 558.094628 103.132626 
L 558.854791 105.213985 
L 559.59821 107.295344 
L 560.311161 109.376703 
L 560.973339 111.458062 
L 561.560553 113.539421 
L 562.048113 115.620781 
L 562.414327 117.70214 
L 562.643461 119.783499 
L 562.72775 121.864858 
L 562.668168 123.946217 
L 562.473985 126.027576 
L 562.161273 128.108935 
L 561.750715 130.190294 
L 561.265109 132.271653 
L 560.726962 134.353012 
L 560.156523 136.434371 
L 559.570442 138.51573 
L 558.981177 140.597089 
L 558.39707 142.678448 
L 557.822953 144.759807 
L 557.26104 146.841166 
L 556.711865 148.922525 
L 556.175066 151.003884 
L 555.649893 153.085243 
L 555.135421 155.166602 
L 554.630555 157.247961 
L 554.133934 159.32932 
L 553.643896 161.41068 
L 553.158575 163.492039 
L 552.676159 165.573398 
L 552.195245 167.654757 
L 551.715155 169.736116 
L 551.236091 171.817475 
L 550.759002 173.898834 
L 550.285144 175.980193 
L 549.81541 178.061552 
L 549.349593 180.142911 
L 548.885809 182.22427 
L 548.420303 184.305629 
L 547.947773 186.386988 
L 547.462238 188.468347 
L 546.958306 190.549706 
L 546.43261 192.631065 
L 545.885052 194.712424 
L 545.319577 196.793783 
L 544.744239 198.875142 
L 544.170495 200.956501 
L 543.611834 203.03786 
L 543.081984 205.119219 
L 542.59304 207.200579 
L 542.153857 209.281938 
L 541.768986 211.363297 
L 541.438323 213.444656 
L 541.157474 215.526015 
L 540.918718 217.607374 
L 540.712373 219.688733 
L 540.528282 221.770092 
L 540.357193 223.851451 
L 540.191828 225.93281 
L 540.027518 228.014169 
L 539.862379 230.095528 
L 539.697059 232.176887 
L 539.53416 234.258246 
L 539.377451 236.339605 
L 539.231034 238.420964 
L 539.098571 240.502323 
L 538.982689 242.583682 
L 538.884614 244.665041 
L 538.804065 246.7464 
L 538.739378 248.827759 
L 538.687813 250.909118 
L 538.64597 252.990478 
L 538.610242 255.071837 
L 538.577243 257.153196 
L 538.544142 259.234555 
L 538.508903 261.315914 
L 538.470389 263.397273 
z
" clip-path="url(#pa49cfde1a9)" style="fill: #1f77b4; fill-opacity: 0.3"/>
   </g>
   <g id="matplotlib.axis_5">
    <g id="ytick_33">
     <g id="line2d_33">
      <g>
       <use xlink:href="#md5ee98569e" x="510.8105" y="254.083532" style="stroke: #000000; stroke-width: 0.8"/>
      </g>
     </g>
     <g id="text_41">
      <!-- 0.45 -->
      <g transform="translate(481.544875 257.882751)scale(0.1 -0.1)">
       <use xlink:href="#DejaVuSans-30"/>
       <use xlink:href="#DejaVuSans-2e" x="63.623047"/>
       <use xlink:href="#DejaVuSans-34" x="95.410156"/>
       <use xlink:href="#DejaVuSans-35" x="159.033203"/>
      </g>
     </g>
    </g>
    <g id="ytick_34">
     <g id="line2d_34">
      <g>
       <use xlink:href="#md5ee98569e" x="510.8105" y="226.280709" style="stroke: #000000; stroke-width: 0.8"/>
      </g>
     </g>
     <g id="text_42">
      <!-- 0.50 -->
      <g transform="translate(481.544875 230.079928)scale(0.1 -0.1)">
       <use xlink:href="#DejaVuSans-30"/>
       <use xlink:href="#DejaVuSans-2e" x="63.623047"/>
       <use xlink:href="#DejaVuSans-35" x="95.410156"/>
       <use xlink:href="#DejaVuSans-30" x="159.033203"/>
      </g>
     </g>
    </g>
    <g id="ytick_35">
     <g id="line2d_35">
      <g>
       <use xlink:href="#md5ee98569e" x="510.8105" y="198.477886" style="stroke: #000000; stroke-width: 0.8"/>
      </g>
     </g>
     <g id="text_43">
      <!-- 0.55 -->
      <g transform="translate(481.544875 202.277104)scale(0.1 -0.1)">
       <use xlink:href="#DejaVuSans-30"/>
       <use xlink:href="#DejaVuSans-2e" x="63.623047"/>
       <use xlink:href="#DejaVuSans-35" x="95.410156"/>
       <use xlink:href="#DejaVuSans-35" x="159.033203"/>
      </g>
     </g>
    </g>
    <g id="ytick_36">
     <g id="line2d_36">
      <g>
       <use xlink:href="#md5ee98569e" x="510.8105" y="170.675062" style="stroke: #000000; stroke-width: 0.8"/>
      </g>
     </g>
     <g id="text_44">
      <!-- 0.60 -->
      <g transform="translate(481.544875 174.474281)scale(0.1 -0.1)">
       <use xlink:href="#DejaVuSans-30"/>
       <use xlink:href="#DejaVuSans-2e" x="63.623047"/>
       <use xlink:href="#DejaVuSans-36" x="95.410156"/>
       <use xlink:href="#DejaVuSans-30" x="159.033203"/>
      </g>
     </g>
    </g>
    <g id="ytick_37">
     <g id="line2d_37">
      <g>
       <use xlink:href="#md5ee98569e" x="510.8105" y="142.872239" style="stroke: #000000; stroke-width: 0.8"/>
      </g>
     </g>
     <g id="text_45">
      <!-- 0.65 -->
      <g transform="translate(481.544875 146.671458)scale(0.1 -0.1)">
       <use xlink:href="#DejaVuSans-30"/>
       <use xlink:href="#DejaVuSans-2e" x="63.623047"/>
       <use xlink:href="#DejaVuSans-36" x="95.410156"/>
       <use xlink:href="#DejaVuSans-35" x="159.033203"/>
      </g>
     </g>
    </g>
    <g id="ytick_38">
     <g id="line2d_38">
      <g>
       <use xlink:href="#md5ee98569e" x="510.8105" y="115.069416" style="stroke: #000000; stroke-width: 0.8"/>
      </g>
     </g>
     <g id="text_46">
      <!-- 0.70 -->
      <g transform="translate(481.544875 118.868634)scale(0.1 -0.1)">
       <use xlink:href="#DejaVuSans-30"/>
       <use xlink:href="#DejaVuSans-2e" x="63.623047"/>
       <use xlink:href="#DejaVuSans-37" x="95.410156"/>
       <use xlink:href="#DejaVuSans-30" x="159.033203"/>
      </g>
     </g>
    </g>
    <g id="ytick_39">
     <g id="line2d_39">
      <g>
       <use xlink:href="#md5ee98569e" x="510.8105" y="87.266592" style="stroke: #000000; stroke-width: 0.8"/>
      </g>
     </g>
     <g id="text_47">
      <!-- 0.75 -->
      <g transform="translate(481.544875 91.065811)scale(0.1 -0.1)">
       <use xlink:href="#DejaVuSans-30"/>
       <use xlink:href="#DejaVuSans-2e" x="63.623047"/>
       <use xlink:href="#DejaVuSans-37" x="95.410156"/>
       <use xlink:href="#DejaVuSans-35" x="159.033203"/>
      </g>
     </g>
    </g>
    <g id="ytick_40">
     <g id="line2d_40">
      <g>
       <use xlink:href="#md5ee98569e" x="510.8105" y="59.463769" style="stroke: #000000; stroke-width: 0.8"/>
      </g>
     </g>
     <g id="text_48">
      <!-- 0.80 -->
      <g transform="translate(481.544875 63.262988)scale(0.1 -0.1)">
       <use xlink:href="#DejaVuSans-30"/>
       <use xlink:href="#DejaVuSans-2e" x="63.623047"/>
       <use xlink:href="#DejaVuSans-38" x="95.410156"/>
       <use xlink:href="#DejaVuSans-30" x="159.033203"/>
      </g>
     </g>
    </g>
    <g id="text_49">
     <!-- RMSD stepwise [$\AA$] -->
     <g transform="translate(475.444875 207.67)rotate(-90)scale(0.1 -0.1)">
      <defs>
       <path id="DejaVuSans-73" d="M 2834 3397 
L 2834 2853 
Q 2591 2978 2328 3040 
Q 2066 3103 1784 3103 
Q 1356 3103 1142 2972 
Q 928 2841 928 2578 
Q 928 2378 1081 2264 
Q 1234 2150 1697 2047 
L 1894 2003 
Q 2506 1872 2764 1633 
Q 3022 1394 3022 966 
Q 3022 478 2636 193 
Q 2250 -91 1575 -91 
Q 1294 -91 989 -36 
Q 684 19 347 128 
L 347 722 
Q 666 556 975 473 
Q 1284 391 1588 391 
Q 1994 391 2212 530 
Q 2431 669 2431 922 
Q 2431 1156 2273 1281 
Q 2116 1406 1581 1522 
L 1381 1569 
Q 847 1681 609 1914 
Q 372 2147 372 2553 
Q 372 3047 722 3315 
Q 1072 3584 1716 3584 
Q 2034 3584 2315 3537 
Q 2597 3491 2834 3397 
z
" transform="scale(0.015625)"/>
       <path id="DejaVuSans-74" d="M 1172 4494 
L 1172 3500 
L 2356 3500 
L 2356 3053 
L 1172 3053 
L 1172 1153 
Q 1172 725 1289 603 
Q 1406 481 1766 481 
L 2356 481 
L 2356 0 
L 1766 0 
Q 1100 0 847 248 
Q 594 497 594 1153 
L 594 3053 
L 172 3053 
L 172 3500 
L 594 3500 
L 594 4494 
L 1172 4494 
z
" transform="scale(0.015625)"/>
       <path id="DejaVuSans-70" d="M 1159 525 
L 1159 -1331 
L 581 -1331 
L 581 3500 
L 1159 3500 
L 1159 2969 
Q 1341 3281 1617 3432 
Q 1894 3584 2278 3584 
Q 2916 3584 3314 3078 
Q 3713 2572 3713 1747 
Q 3713 922 3314 415 
Q 2916 -91 2278 -91 
Q 1894 -91 1617 61 
Q 1341 213 1159 525 
z
M 3116 1747 
Q 3116 2381 2855 2742 
Q 2594 3103 2138 3103 
Q 1681 3103 1420 2742 
Q 1159 2381 1159 1747 
Q 1159 1113 1420 752 
Q 1681 391 2138 391 
Q 2594 391 2855 752 
Q 3116 1113 3116 1747 
z
" transform="scale(0.015625)"/>
       <path id="DejaVuSans-77" d="M 269 3500 
L 844 3500 
L 1563 769 
L 2278 3500 
L 2956 3500 
L 3675 769 
L 4391 3500 
L 4966 3500 
L 4050 0 
L 3372 0 
L 2619 2869 
L 1863 0 
L 1184 0 
L 269 3500 
z
" transform="scale(0.015625)"/>
      </defs>
      <use xlink:href="#DejaVuSans-52" transform="translate(0 0.171875)"/>
      <use xlink:href="#DejaVuSans-4d" transform="translate(69.482422 0.171875)"/>
      <use xlink:href="#DejaVuSans-53" transform="translate(155.761719 0.171875)"/>
      <use xlink:href="#DejaVuSans-44" transform="translate(219.238281 0.171875)"/>
      <use xlink:href="#DejaVuSans-20" transform="translate(296.240234 0.171875)"/>
      <use xlink:href="#DejaVuSans-73" transform="translate(328.027344 0.171875)"/>
      <use xlink:href="#DejaVuSans-74" transform="translate(380.126953 0.171875)"/>
      <use xlink:href="#DejaVuSans-65" transform="translate(419.335938 0.171875)"/>
      <use xlink:href="#DejaVuSans-70" transform="translate(480.859375 0.171875)"/>
      <use xlink:href="#DejaVuSans-77" transform="translate(544.335938 0.171875)"/>
      <use xlink:href="#DejaVuSans-69" transform="translate(626.123047 0.171875)"/>
      <use xlink:href="#DejaVuSans-73" transform="translate(653.90625 0.171875)"/>
      <use xlink:href="#DejaVuSans-65" transform="translate(706.005859 0.171875)"/>
      <use xlink:href="#DejaVuSans-20" transform="translate(767.529297 0.171875)"/>
      <use xlink:href="#DejaVuSans-5b" transform="translate(799.316406 0.171875)"/>
      <use xlink:href="#DejaVuSans-Oblique-c5" transform="translate(838.330078 0.171875)"/>
      <use xlink:href="#DejaVuSans-5d" transform="translate(906.738281 0.171875)"/>
     </g>
    </g>
   </g>
   <g id="LineCollection_17">
    <path d="M 525.644 136.803768 
L 550.3665 136.803768 
" clip-path="url(#pa49cfde1a9)" style="fill: none; stroke: #1f77b4; stroke-width: 1.5"/>
   </g>
   <g id="LineCollection_18">
    <path d="M 525.644 57.342727 
L 550.3665 57.342727 
" clip-path="url(#pa49cfde1a9)" style="fill: none; stroke: #1f77b4; stroke-width: 1.5"/>
   </g>
   <g id="LineCollection_19">
    <path d="M 525.644 263.397273 
L 550.3665 263.397273 
" clip-path="url(#pa49cfde1a9)" style="fill: none; stroke: #1f77b4; stroke-width: 1.5"/>
   </g>
   <g id="LineCollection_20">
    <path d="M 538.00525 263.397273 
L 538.00525 57.342727 
" clip-path="url(#pa49cfde1a9)" style="fill: none; stroke: #1f77b4; stroke-width: 1.5"/>
   </g>
   <g id="patch_23">
    <path d="M 510.8105 273.7 
L 510.8105 47.04 
" style="fill: none; stroke: #000000; stroke-width: 0.8; stroke-linejoin: miter; stroke-linecap: square"/>
   </g>
   <g id="patch_24">
    <path d="M 565.2 273.7 
L 565.2 47.04 
" style="fill: none; stroke: #000000; stroke-width: 0.8; stroke-linejoin: miter; stroke-linecap: square"/>
   </g>
   <g id="patch_25">
    <path d="M 510.8105 273.7 
L 565.2 273.7 
" style="fill: none; stroke: #000000; stroke-width: 0.8; stroke-linejoin: miter; stroke-linecap: square"/>
   </g>
   <g id="patch_26">
    <path d="M 510.8105 47.04 
L 565.2 47.04 
" style="fill: none; stroke: #000000; stroke-width: 0.8; stroke-linejoin: miter; stroke-linecap: square"/>
   </g>
   <g id="text_50">
    <!-- RMSD stepwise -->
    <g transform="translate(491.953375 41.04)scale(0.12 -0.12)">
     <use xlink:href="#DejaVuSans-52"/>
     <use xlink:href="#DejaVuSans-4d" x="69.482422"/>
     <use xlink:href="#DejaVuSans-53" x="155.761719"/>
     <use xlink:href="#DejaVuSans-44" x="219.238281"/>
     <use xlink:href="#DejaVuSans-20" x="296.240234"/>
     <use xlink:href="#DejaVuSans-73" x="328.027344"/>
     <use xlink:href="#DejaVuSans-74" x="380.126953"/>
     <use xlink:href="#DejaVuSans-65" x="419.335938"/>
     <use xlink:href="#DejaVuSans-70" x="480.859375"/>
     <use xlink:href="#DejaVuSans-77" x="544.335938"/>
     <use xlink:href="#DejaVuSans-69" x="626.123047"/>
     <use xlink:href="#DejaVuSans-73" x="653.90625"/>
     <use xlink:href="#DejaVuSans-65" x="706.005859"/>
    </g>
   </g>
  </g>
  <g id="text_51">
   <!-- Compound 59. Omega -->
   <g transform="translate(220.299375 14.878125)scale(0.12 -0.12)">
    <defs>
     <path id="DejaVuSans-43" d="M 4122 4306 
L 4122 3641 
Q 3803 3938 3442 4084 
Q 3081 4231 2675 4231 
Q 1875 4231 1450 3742 
Q 1025 3253 1025 2328 
Q 1025 1406 1450 917 
Q 1875 428 2675 428 
Q 3081 428 3442 575 
Q 3803 722 4122 1019 
L 4122 359 
Q 3791 134 3420 21 
Q 3050 -91 2638 -91 
Q 1578 -91 968 557 
Q 359 1206 359 2328 
Q 359 3453 968 4101 
Q 1578 4750 2638 4750 
Q 3056 4750 3426 4639 
Q 3797 4528 4122 4306 
z
" transform="scale(0.015625)"/>
     <path id="DejaVuSans-6f" d="M 1959 3097 
Q 1497 3097 1228 2736 
Q 959 2375 959 1747 
Q 959 1119 1226 758 
Q 1494 397 1959 397 
Q 2419 397 2687 759 
Q 2956 1122 2956 1747 
Q 2956 2369 2687 2733 
Q 2419 3097 1959 3097 
z
M 1959 3584 
Q 2709 3584 3137 3096 
Q 3566 2609 3566 1747 
Q 3566 888 3137 398 
Q 2709 -91 1959 -91 
Q 1206 -91 779 398 
Q 353 888 353 1747 
Q 353 2609 779 3096 
Q 1206 3584 1959 3584 
z
" transform="scale(0.015625)"/>
     <path id="DejaVuSans-6d" d="M 3328 2828 
Q 3544 3216 3844 3400 
Q 4144 3584 4550 3584 
Q 5097 3584 5394 3201 
Q 5691 2819 5691 2113 
L 5691 0 
L 5113 0 
L 5113 2094 
Q 5113 2597 4934 2840 
Q 4756 3084 4391 3084 
Q 3944 3084 3684 2787 
Q 3425 2491 3425 1978 
L 3425 0 
L 2847 0 
L 2847 2094 
Q 2847 2600 2669 2842 
Q 2491 3084 2119 3084 
Q 1678 3084 1418 2786 
Q 1159 2488 1159 1978 
L 1159 0 
L 581 0 
L 581 3500 
L 1159 3500 
L 1159 2956 
Q 1356 3278 1631 3431 
Q 1906 3584 2284 3584 
Q 2666 3584 2933 3390 
Q 3200 3197 3328 2828 
z
" transform="scale(0.015625)"/>
     <path id="DejaVuSans-6e" d="M 3513 2113 
L 3513 0 
L 2938 0 
L 2938 2094 
Q 2938 2591 2744 2837 
Q 2550 3084 2163 3084 
Q 1697 3084 1428 2787 
Q 1159 2491 1159 1978 
L 1159 0 
L 581 0 
L 581 3500 
L 1159 3500 
L 1159 2956 
Q 1366 3272 1645 3428 
Q 1925 3584 2291 3584 
Q 2894 3584 3203 3211 
Q 3513 2838 3513 2113 
z
" transform="scale(0.015625)"/>
     <path id="DejaVuSans-67" d="M 2906 1791 
Q 2906 2416 2648 2759 
Q 2391 3103 1925 3103 
Q 1463 3103 1205 2759 
Q 947 2416 947 1791 
Q 947 1169 1205 825 
Q 1463 481 1925 481 
Q 2391 481 2648 825 
Q 2906 1169 2906 1791 
z
M 3481 434 
Q 3481 -459 3084 -895 
Q 2688 -1331 1869 -1331 
Q 1566 -1331 1297 -1286 
Q 1028 -1241 775 -1147 
L 775 -588 
Q 1028 -725 1275 -790 
Q 1522 -856 1778 -856 
Q 2344 -856 2625 -561 
Q 2906 -266 2906 331 
L 2906 616 
Q 2728 306 2450 153 
Q 2172 0 1784 0 
Q 1141 0 747 490 
Q 353 981 353 1791 
Q 353 2603 747 3093 
Q 1141 3584 1784 3584 
Q 2172 3584 2450 3431 
Q 2728 3278 2906 2969 
L 2906 3500 
L 3481 3500 
L 3481 434 
z
" transform="scale(0.015625)"/>
     <path id="DejaVuSans-61" d="M 2194 1759 
Q 1497 1759 1228 1600 
Q 959 1441 959 1056 
Q 959 750 1161 570 
Q 1363 391 1709 391 
Q 2188 391 2477 730 
Q 2766 1069 2766 1631 
L 2766 1759 
L 2194 1759 
z
M 3341 1997 
L 3341 0 
L 2766 0 
L 2766 531 
Q 2569 213 2275 61 
Q 1981 -91 1556 -91 
Q 1019 -91 701 211 
Q 384 513 384 1019 
Q 384 1609 779 1909 
Q 1175 2209 1959 2209 
L 2766 2209 
L 2766 2266 
Q 2766 2663 2505 2880 
Q 2244 3097 1772 3097 
Q 1472 3097 1187 3025 
Q 903 2953 641 2809 
L 641 3341 
Q 956 3463 1253 3523 
Q 1550 3584 1831 3584 
Q 2591 3584 2966 3190 
Q 3341 2797 3341 1997 
z
" transform="scale(0.015625)"/>
    </defs>
    <use xlink:href="#DejaVuSans-43"/>
    <use xlink:href="#DejaVuSans-6f" x="69.824219"/>
    <use xlink:href="#DejaVuSans-6d" x="131.005859"/>
    <use xlink:href="#DejaVuSans-70" x="228.417969"/>
    <use xlink:href="#DejaVuSans-6f" x="291.894531"/>
    <use xlink:href="#DejaVuSans-75" x="353.076172"/>
    <use xlink:href="#DejaVuSans-6e" x="416.455078"/>
    <use xlink:href="#DejaVuSans-64" x="479.833984"/>
    <use xlink:href="#DejaVuSans-20" x="543.310547"/>
    <use xlink:href="#DejaVuSans-35" x="575.097656"/>
    <use xlink:href="#DejaVuSans-39" x="638.720703"/>
    <use xlink:href="#DejaVuSans-2e" x="702.34375"/>
    <use xlink:href="#DejaVuSans-20" x="734.130859"/>
    <use xlink:href="#DejaVuSans-4f" x="765.917969"/>
    <use xlink:href="#DejaVuSans-6d" x="844.628906"/>
    <use xlink:href="#DejaVuSans-65" x="942.041016"/>
    <use xlink:href="#DejaVuSans-67" x="1003.564453"/>
    <use xlink:href="#DejaVuSans-61" x="1067.041016"/>
   </g>
  </g>
 </g>
 <defs>
  <clipPath id="p5df029a142">
   <rect x="50.8925" y="47.04" width="54.3895" height="226.66"/>
  </clipPath>
  <clipPath id="pc533de06c0">
   <rect x="165.872" y="47.04" width="54.3895" height="226.66"/>
  </clipPath>
  <clipPath id="p4db5188643">
   <rect x="280.8515" y="47.04" width="54.3895" height="226.66"/>
  </clipPath>
  <clipPath id="p319d50d3a2">
   <rect x="395.831" y="47.04" width="54.3895" height="226.66"/>
  </clipPath>
  <clipPath id="pa49cfde1a9">
   <rect x="510.8105" y="47.04" width="54.3895" height="226.66"/>
  </clipPath>
 </defs>
</svg>
