<?xml version="1.0" encoding="utf-8" standalone="no"?>
<!DOCTYPE svg PUBLIC "-//W3C//DTD SVG 1.1//EN"
  "http://www.w3.org/Graphics/SVG/1.1/DTD/svg11.dtd">
<svg xmlns:xlink="http://www.w3.org/1999/xlink" width="576pt" height="288pt" viewBox="0 0 576 288" xmlns="http://www.w3.org/2000/svg" version="1.1">
 <metadata>
  <rdf:RDF xmlns:dc="http://purl.org/dc/elements/1.1/" xmlns:cc="http://creativecommons.org/ns#" xmlns:rdf="http://www.w3.org/1999/02/22-rdf-syntax-ns#">
   <cc:Work>
    <dc:type rdf:resource="http://purl.org/dc/dcmitype/StillImage"/>
    <dc:date>2023-05-31T12:20:15.768825</dc:date>
    <dc:format>image/svg+xml</dc:format>
    <dc:creator>
     <cc:Agent>
      <dc:title>Matplotlib v3.5.3, https://matplotlib.org/</dc:title>
     </cc:Agent>
    </dc:creator>
   </cc:Work>
  </rdf:RDF>
 </metadata>
 <defs>
  <style type="text/css">*{stroke-linejoin: round; stroke-linecap: butt}</style>
 </defs>
 <g id="figure_1">
  <g id="patch_1">
   <path d="M 0 288 
L 576 288 
L 576 0 
L 0 0 
z
" style="fill: #ffffff"/>
  </g>
  <g id="axes_1">
   <g id="patch_2">
    <path d="M 50.8925 273.7 
L 106.344 273.7 
L 106.344 47.04 
L 50.8925 47.04 
z
" style="fill: #ffffff"/>
   </g>
   <g id="PolyCollection_1">
    <path d="M 78.8731 263.397273 
L 78.3634 263.397273 
L 78.315546 261.315914 
L 78.251957 259.234555 
L 78.165135 257.153196 
L 78.046392 255.071837 
L 77.886497 252.990478 
L 77.676487 250.909118 
L 77.408587 248.827759 
L 77.077155 246.7464 
L 76.679562 244.665041 
L 76.216879 242.583682 
L 75.694231 240.502323 
L 75.120648 238.420964 
L 74.508304 236.339605 
L 73.871116 234.258246 
L 73.222815 232.176887 
L 72.574761 230.095528 
L 71.93389 228.014169 
L 71.301185 225.93281 
L 70.671025 223.851451 
L 70.031563 221.770092 
L 69.366089 219.688733 
L 68.655121 217.607374 
L 67.87888 215.526015 
L 67.019768 213.444656 
L 66.064602 211.363297 
L 65.006491 209.281938 
L 63.846375 207.200579 
L 62.594302 205.119219 
L 61.27045 203.03786 
L 59.905742 200.956501 
L 58.541741 198.875142 
L 57.229386 196.793783 
L 56.026222 194.712424 
L 54.992033 192.631065 
L 54.183176 190.549706 
L 53.646373 188.468347 
L 53.413023 186.386988 
L 53.495142 184.305629 
L 53.883827 182.22427 
L 54.550602 180.142911 
L 55.451436 178.061552 
L 56.532631 175.980193 
L 57.737451 173.898834 
L 59.012276 171.817475 
L 60.311283 169.736116 
L 61.599066 167.654757 
L 62.851086 165.573398 
L 64.052318 163.492039 
L 65.194773 161.41068 
L 66.274683 159.32932 
L 67.290084 157.247961 
L 68.239241 155.166602 
L 69.12007 153.085243 
L 69.930363 151.003884 
L 70.66843 148.922525 
L 71.333718 146.841166 
L 71.927081 144.759807 
L 72.450567 142.678448 
L 72.906837 140.597089 
L 73.298474 138.51573 
L 73.627511 136.434371 
L 73.895422 134.353012 
L 74.103655 132.271653 
L 74.254591 130.190294 
L 74.352629 128.108935 
L 74.40502 126.027576 
L 74.422114 123.946217 
L 74.416834 121.864858 
L 74.403412 119.783499 
L 74.395673 117.70214 
L 74.405289 115.620781 
L 74.44049 113.539421 
L 74.505531 111.458062 
L 74.60103 109.376703 
L 74.724951 107.295344 
L 74.873854 105.213985 
L 75.043985 103.132626 
L 75.231871 101.051267 
L 75.434386 98.969908 
L 75.648415 96.888549 
L 75.870437 94.80719 
L 76.096296 92.725831 
L 76.321312 90.644472 
L 76.540693 88.563113 
L 76.75008 86.481754 
L 76.946034 84.400395 
L 77.126306 82.319036 
L 77.289862 80.237677 
L 77.436722 78.156318 
L 77.567686 76.074959 
L 77.684073 73.9936 
L 77.787481 71.912241 
L 77.879622 69.830882 
L 77.962193 67.749522 
L 78.036784 65.668163 
L 78.104809 63.586804 
L 78.16745 61.505445 
L 78.225622 59.424086 
L 78.279936 57.342727 
L 78.956564 57.342727 
L 78.956564 57.342727 
L 79.010878 59.424086 
L 79.06905 61.505445 
L 79.131691 63.586804 
L 79.199716 65.668163 
L 79.274307 67.749522 
L 79.356878 69.830882 
L 79.449019 71.912241 
L 79.552427 73.9936 
L 79.668814 76.074959 
L 79.799778 78.156318 
L 79.946638 80.237677 
L 80.110194 82.319036 
L 80.290466 84.400395 
L 80.48642 86.481754 
L 80.695807 88.563113 
L 80.915188 90.644472 
L 81.140204 92.725831 
L 81.366063 94.80719 
L 81.588085 96.888549 
L 81.802114 98.969908 
L 82.004629 101.051267 
L 82.192515 103.132626 
L 82.362646 105.213985 
L 82.511549 107.295344 
L 82.63547 109.376703 
L 82.730969 111.458062 
L 82.79601 113.539421 
L 82.831211 115.620781 
L 82.840827 117.70214 
L 82.833088 119.783499 
L 82.819666 121.864858 
L 82.814386 123.946217 
L 82.83148 126.027576 
L 82.883871 128.108935 
L 82.981909 130.190294 
L 83.132845 132.271653 
L 83.341078 134.353012 
L 83.608989 136.434371 
L 83.938026 138.51573 
L 84.329663 140.597089 
L 84.785933 142.678448 
L 85.309419 144.759807 
L 85.902782 146.841166 
L 86.56807 148.922525 
L 87.306137 151.003884 
L 88.11643 153.085243 
L 88.997259 155.166602 
L 89.946416 157.247961 
L 90.961817 159.32932 
L 92.041727 161.41068 
L 93.184182 163.492039 
L 94.385414 165.573398 
L 95.637434 167.654757 
L 96.925217 169.736116 
L 98.224224 171.817475 
L 99.499049 173.898834 
L 100.703869 175.980193 
L 101.785064 178.061552 
L 102.685898 180.142911 
L 103.352673 182.22427 
L 103.741358 184.305629 
L 103.823477 186.386988 
L 103.590127 188.468347 
L 103.053324 190.549706 
L 102.244467 192.631065 
L 101.210278 194.712424 
L 100.007114 196.793783 
L 98.694759 198.875142 
L 97.330758 200.956501 
L 95.96605 203.03786 
L 94.642198 205.119219 
L 93.390125 207.200579 
L 92.230009 209.281938 
L 91.171898 211.363297 
L 90.216732 213.444656 
L 89.35762 215.526015 
L 88.581379 217.607374 
L 87.870411 219.688733 
L 87.204937 221.770092 
L 86.565475 223.851451 
L 85.935315 225.93281 
L 85.30261 228.014169 
L 84.661739 230.095528 
L 84.013685 232.176887 
L 83.365384 234.258246 
L 82.728196 236.339605 
L 82.115852 238.420964 
L 81.542269 240.502323 
L 81.019621 242.583682 
L 80.556938 244.665041 
L 80.159345 246.7464 
L 79.827913 248.827759 
L 79.560013 250.909118 
L 79.350003 252.990478 
L 79.190108 255.071837 
L 79.071365 257.153196 
L 78.984543 259.234555 
L 78.920954 261.315914 
L 78.8731 263.397273 
z
" clip-path="url(#p96a37a4430)" style="fill: #1f77b4; fill-opacity: 0.3"/>
   </g>
   <g id="matplotlib.axis_1">
    <g id="ytick_1">
     <g id="line2d_1">
      <defs>
       <path id="m03c3059232" d="M 0 0 
L -3.5 0 
" style="stroke: #000000; stroke-width: 0.8"/>
      </defs>
      <g>
       <use xlink:href="#m03c3059232" x="50.8925" y="257.203202" style="stroke: #000000; stroke-width: 0.8"/>
      </g>
     </g>
     <g id="text_1">
      <!-- 0.4 -->
      <g transform="translate(27.989375 261.002421)scale(0.1 -0.1)">
       <defs>
        <path id="DejaVuSans-30" d="M 2034 4250 
Q 1547 4250 1301 3770 
Q 1056 3291 1056 2328 
Q 1056 1369 1301 889 
Q 1547 409 2034 409 
Q 2525 409 2770 889 
Q 3016 1369 3016 2328 
Q 3016 3291 2770 3770 
Q 2525 4250 2034 4250 
z
M 2034 4750 
Q 2819 4750 3233 4129 
Q 3647 3509 3647 2328 
Q 3647 1150 3233 529 
Q 2819 -91 2034 -91 
Q 1250 -91 836 529 
Q 422 1150 422 2328 
Q 422 3509 836 4129 
Q 1250 4750 2034 4750 
z
" transform="scale(0.015625)"/>
        <path id="DejaVuSans-2e" d="M 684 794 
L 1344 794 
L 1344 0 
L 684 0 
L 684 794 
z
" transform="scale(0.015625)"/>
        <path id="DejaVuSans-34" d="M 2419 4116 
L 825 1625 
L 2419 1625 
L 2419 4116 
z
M 2253 4666 
L 3047 4666 
L 3047 1625 
L 3713 1625 
L 3713 1100 
L 3047 1100 
L 3047 0 
L 2419 0 
L 2419 1100 
L 313 1100 
L 313 1709 
L 2253 4666 
z
" transform="scale(0.015625)"/>
       </defs>
       <use xlink:href="#DejaVuSans-30"/>
       <use xlink:href="#DejaVuSans-2e" x="63.623047"/>
       <use xlink:href="#DejaVuSans-34" x="95.410156"/>
      </g>
     </g>
    </g>
    <g id="ytick_2">
     <g id="line2d_2">
      <g>
       <use xlink:href="#m03c3059232" x="50.8925" y="227.323649" style="stroke: #000000; stroke-width: 0.8"/>
      </g>
     </g>
     <g id="text_2">
      <!-- 0.5 -->
      <g transform="translate(27.989375 231.122868)scale(0.1 -0.1)">
       <defs>
        <path id="DejaVuSans-35" d="M 691 4666 
L 3169 4666 
L 3169 4134 
L 1269 4134 
L 1269 2991 
Q 1406 3038 1543 3061 
Q 1681 3084 1819 3084 
Q 2600 3084 3056 2656 
Q 3513 2228 3513 1497 
Q 3513 744 3044 326 
Q 2575 -91 1722 -91 
Q 1428 -91 1123 -41 
Q 819 9 494 109 
L 494 744 
Q 775 591 1075 516 
Q 1375 441 1709 441 
Q 2250 441 2565 725 
Q 2881 1009 2881 1497 
Q 2881 1984 2565 2268 
Q 2250 2553 1709 2553 
Q 1456 2553 1204 2497 
Q 953 2441 691 2322 
L 691 4666 
z
" transform="scale(0.015625)"/>
       </defs>
       <use xlink:href="#DejaVuSans-30"/>
       <use xlink:href="#DejaVuSans-2e" x="63.623047"/>
       <use xlink:href="#DejaVuSans-35" x="95.410156"/>
      </g>
     </g>
    </g>
    <g id="ytick_3">
     <g id="line2d_3">
      <g>
       <use xlink:href="#m03c3059232" x="50.8925" y="197.444096" style="stroke: #000000; stroke-width: 0.8"/>
      </g>
     </g>
     <g id="text_3">
      <!-- 0.6 -->
      <g transform="translate(27.989375 201.243314)scale(0.1 -0.1)">
       <defs>
        <path id="DejaVuSans-36" d="M 2113 2584 
Q 1688 2584 1439 2293 
Q 1191 2003 1191 1497 
Q 1191 994 1439 701 
Q 1688 409 2113 409 
Q 2538 409 2786 701 
Q 3034 994 3034 1497 
Q 3034 2003 2786 2293 
Q 2538 2584 2113 2584 
z
M 3366 4563 
L 3366 3988 
Q 3128 4100 2886 4159 
Q 2644 4219 2406 4219 
Q 1781 4219 1451 3797 
Q 1122 3375 1075 2522 
Q 1259 2794 1537 2939 
Q 1816 3084 2150 3084 
Q 2853 3084 3261 2657 
Q 3669 2231 3669 1497 
Q 3669 778 3244 343 
Q 2819 -91 2113 -91 
Q 1303 -91 875 529 
Q 447 1150 447 2328 
Q 447 3434 972 4092 
Q 1497 4750 2381 4750 
Q 2619 4750 2861 4703 
Q 3103 4656 3366 4563 
z
" transform="scale(0.015625)"/>
       </defs>
       <use xlink:href="#DejaVuSans-30"/>
       <use xlink:href="#DejaVuSans-2e" x="63.623047"/>
       <use xlink:href="#DejaVuSans-36" x="95.410156"/>
      </g>
     </g>
    </g>
    <g id="ytick_4">
     <g id="line2d_4">
      <g>
       <use xlink:href="#m03c3059232" x="50.8925" y="167.564542" style="stroke: #000000; stroke-width: 0.8"/>
      </g>
     </g>
     <g id="text_4">
      <!-- 0.7 -->
      <g transform="translate(27.989375 171.363761)scale(0.1 -0.1)">
       <defs>
        <path id="DejaVuSans-37" d="M 525 4666 
L 3525 4666 
L 3525 4397 
L 1831 0 
L 1172 0 
L 2766 4134 
L 525 4134 
L 525 4666 
z
" transform="scale(0.015625)"/>
       </defs>
       <use xlink:href="#DejaVuSans-30"/>
       <use xlink:href="#DejaVuSans-2e" x="63.623047"/>
       <use xlink:href="#DejaVuSans-37" x="95.410156"/>
      </g>
     </g>
    </g>
    <g id="ytick_5">
     <g id="line2d_5">
      <g>
       <use xlink:href="#m03c3059232" x="50.8925" y="137.684989" style="stroke: #000000; stroke-width: 0.8"/>
      </g>
     </g>
     <g id="text_5">
      <!-- 0.8 -->
      <g transform="translate(27.989375 141.484208)scale(0.1 -0.1)">
       <defs>
        <path id="DejaVuSans-38" d="M 2034 2216 
Q 1584 2216 1326 1975 
Q 1069 1734 1069 1313 
Q 1069 891 1326 650 
Q 1584 409 2034 409 
Q 2484 409 2743 651 
Q 3003 894 3003 1313 
Q 3003 1734 2745 1975 
Q 2488 2216 2034 2216 
z
M 1403 2484 
Q 997 2584 770 2862 
Q 544 3141 544 3541 
Q 544 4100 942 4425 
Q 1341 4750 2034 4750 
Q 2731 4750 3128 4425 
Q 3525 4100 3525 3541 
Q 3525 3141 3298 2862 
Q 3072 2584 2669 2484 
Q 3125 2378 3379 2068 
Q 3634 1759 3634 1313 
Q 3634 634 3220 271 
Q 2806 -91 2034 -91 
Q 1263 -91 848 271 
Q 434 634 434 1313 
Q 434 1759 690 2068 
Q 947 2378 1403 2484 
z
M 1172 3481 
Q 1172 3119 1398 2916 
Q 1625 2713 2034 2713 
Q 2441 2713 2670 2916 
Q 2900 3119 2900 3481 
Q 2900 3844 2670 4047 
Q 2441 4250 2034 4250 
Q 1625 4250 1398 4047 
Q 1172 3844 1172 3481 
z
" transform="scale(0.015625)"/>
       </defs>
       <use xlink:href="#DejaVuSans-30"/>
       <use xlink:href="#DejaVuSans-2e" x="63.623047"/>
       <use xlink:href="#DejaVuSans-38" x="95.410156"/>
      </g>
     </g>
    </g>
    <g id="ytick_6">
     <g id="line2d_6">
      <g>
       <use xlink:href="#m03c3059232" x="50.8925" y="107.805436" style="stroke: #000000; stroke-width: 0.8"/>
      </g>
     </g>
     <g id="text_6">
      <!-- 0.9 -->
      <g transform="translate(27.989375 111.604654)scale(0.1 -0.1)">
       <defs>
        <path id="DejaVuSans-39" d="M 703 97 
L 703 672 
Q 941 559 1184 500 
Q 1428 441 1663 441 
Q 2288 441 2617 861 
Q 2947 1281 2994 2138 
Q 2813 1869 2534 1725 
Q 2256 1581 1919 1581 
Q 1219 1581 811 2004 
Q 403 2428 403 3163 
Q 403 3881 828 4315 
Q 1253 4750 1959 4750 
Q 2769 4750 3195 4129 
Q 3622 3509 3622 2328 
Q 3622 1225 3098 567 
Q 2575 -91 1691 -91 
Q 1453 -91 1209 -44 
Q 966 3 703 97 
z
M 1959 2075 
Q 2384 2075 2632 2365 
Q 2881 2656 2881 3163 
Q 2881 3666 2632 3958 
Q 2384 4250 1959 4250 
Q 1534 4250 1286 3958 
Q 1038 3666 1038 3163 
Q 1038 2656 1286 2365 
Q 1534 2075 1959 2075 
z
" transform="scale(0.015625)"/>
       </defs>
       <use xlink:href="#DejaVuSans-30"/>
       <use xlink:href="#DejaVuSans-2e" x="63.623047"/>
       <use xlink:href="#DejaVuSans-39" x="95.410156"/>
      </g>
     </g>
    </g>
    <g id="ytick_7">
     <g id="line2d_7">
      <g>
       <use xlink:href="#m03c3059232" x="50.8925" y="77.925882" style="stroke: #000000; stroke-width: 0.8"/>
      </g>
     </g>
     <g id="text_7">
      <!-- 1.0 -->
      <g transform="translate(27.989375 81.725101)scale(0.1 -0.1)">
       <defs>
        <path id="DejaVuSans-31" d="M 794 531 
L 1825 531 
L 1825 4091 
L 703 3866 
L 703 4441 
L 1819 4666 
L 2450 4666 
L 2450 531 
L 3481 531 
L 3481 0 
L 794 0 
L 794 531 
z
" transform="scale(0.015625)"/>
       </defs>
       <use xlink:href="#DejaVuSans-31"/>
       <use xlink:href="#DejaVuSans-2e" x="63.623047"/>
       <use xlink:href="#DejaVuSans-30" x="95.410156"/>
      </g>
     </g>
    </g>
    <g id="ytick_8">
     <g id="line2d_8">
      <g>
       <use xlink:href="#m03c3059232" x="50.8925" y="48.046329" style="stroke: #000000; stroke-width: 0.8"/>
      </g>
     </g>
     <g id="text_8">
      <!-- 1.1 -->
      <g transform="translate(27.989375 51.845548)scale(0.1 -0.1)">
       <use xlink:href="#DejaVuSans-31"/>
       <use xlink:href="#DejaVuSans-2e" x="63.623047"/>
       <use xlink:href="#DejaVuSans-31" x="95.410156"/>
      </g>
     </g>
    </g>
    <g id="text_9">
     <!-- RMSD [$\AA$] -->
     <g transform="translate(21.909688 184.12)rotate(-90)scale(0.1 -0.1)">
      <defs>
       <path id="DejaVuSans-52" d="M 2841 2188 
Q 3044 2119 3236 1894 
Q 3428 1669 3622 1275 
L 4263 0 
L 3584 0 
L 2988 1197 
Q 2756 1666 2539 1819 
Q 2322 1972 1947 1972 
L 1259 1972 
L 1259 0 
L 628 0 
L 628 4666 
L 2053 4666 
Q 2853 4666 3247 4331 
Q 3641 3997 3641 3322 
Q 3641 2881 3436 2590 
Q 3231 2300 2841 2188 
z
M 1259 4147 
L 1259 2491 
L 2053 2491 
Q 2509 2491 2742 2702 
Q 2975 2913 2975 3322 
Q 2975 3731 2742 3939 
Q 2509 4147 2053 4147 
L 1259 4147 
z
" transform="scale(0.015625)"/>
       <path id="DejaVuSans-4d" d="M 628 4666 
L 1569 4666 
L 2759 1491 
L 3956 4666 
L 4897 4666 
L 4897 0 
L 4281 0 
L 4281 4097 
L 3078 897 
L 2444 897 
L 1241 4097 
L 1241 0 
L 628 0 
L 628 4666 
z
" transform="scale(0.015625)"/>
       <path id="DejaVuSans-53" d="M 3425 4513 
L 3425 3897 
Q 3066 4069 2747 4153 
Q 2428 4238 2131 4238 
Q 1616 4238 1336 4038 
Q 1056 3838 1056 3469 
Q 1056 3159 1242 3001 
Q 1428 2844 1947 2747 
L 2328 2669 
Q 3034 2534 3370 2195 
Q 3706 1856 3706 1288 
Q 3706 609 3251 259 
Q 2797 -91 1919 -91 
Q 1588 -91 1214 -16 
Q 841 59 441 206 
L 441 856 
Q 825 641 1194 531 
Q 1563 422 1919 422 
Q 2459 422 2753 634 
Q 3047 847 3047 1241 
Q 3047 1584 2836 1778 
Q 2625 1972 2144 2069 
L 1759 2144 
Q 1053 2284 737 2584 
Q 422 2884 422 3419 
Q 422 4038 858 4394 
Q 1294 4750 2059 4750 
Q 2388 4750 2728 4690 
Q 3069 4631 3425 4513 
z
" transform="scale(0.015625)"/>
       <path id="DejaVuSans-44" d="M 1259 4147 
L 1259 519 
L 2022 519 
Q 2988 519 3436 956 
Q 3884 1394 3884 2338 
Q 3884 3275 3436 3711 
Q 2988 4147 2022 4147 
L 1259 4147 
z
M 628 4666 
L 1925 4666 
Q 3281 4666 3915 4102 
Q 4550 3538 4550 2338 
Q 4550 1131 3912 565 
Q 3275 0 1925 0 
L 628 0 
L 628 4666 
z
" transform="scale(0.015625)"/>
       <path id="DejaVuSans-20" transform="scale(0.015625)"/>
       <path id="DejaVuSans-5b" d="M 550 4863 
L 1875 4863 
L 1875 4416 
L 1125 4416 
L 1125 -397 
L 1875 -397 
L 1875 -844 
L 550 -844 
L 550 4863 
z
" transform="scale(0.015625)"/>
       <path id="DejaVuSans-Oblique-c5" d="M 3188 5081 
Q 3188 5278 3048 5417 
Q 2909 5556 2713 5556 
Q 2513 5556 2377 5420 
Q 2241 5284 2241 5081 
Q 2241 4884 2377 4746 
Q 2513 4609 2713 4609 
Q 2909 4609 3048 4746 
Q 3188 4884 3188 5081 
z
M 2203 4397 
Q 2034 4513 1945 4689 
Q 1856 4866 1856 5081 
Q 1856 5438 2106 5689 
Q 2356 5941 2713 5941 
Q 3069 5941 3320 5689 
Q 3572 5438 3572 5081 
Q 3572 4834 3458 4643 
Q 3344 4453 3128 4341 
L 3938 0 
L 3278 0 
L 3084 1197 
L 984 1197 
L 325 0 
L -341 0 
L 2203 4397 
z
M 2584 4044 
L 1275 1722 
L 2988 1722 
L 2584 4044 
z
" transform="scale(0.015625)"/>
       <path id="DejaVuSans-5d" d="M 1947 4863 
L 1947 -844 
L 622 -844 
L 622 -397 
L 1369 -397 
L 1369 4416 
L 622 4416 
L 622 4863 
L 1947 4863 
z
" transform="scale(0.015625)"/>
      </defs>
      <use xlink:href="#DejaVuSans-52" transform="translate(0 0.171875)"/>
      <use xlink:href="#DejaVuSans-4d" transform="translate(69.482422 0.171875)"/>
      <use xlink:href="#DejaVuSans-53" transform="translate(155.761719 0.171875)"/>
      <use xlink:href="#DejaVuSans-44" transform="translate(219.238281 0.171875)"/>
      <use xlink:href="#DejaVuSans-20" transform="translate(296.240234 0.171875)"/>
      <use xlink:href="#DejaVuSans-5b" transform="translate(328.027344 0.171875)"/>
      <use xlink:href="#DejaVuSans-Oblique-c5" transform="translate(367.041016 0.171875)"/>
      <use xlink:href="#DejaVuSans-5d" transform="translate(435.449219 0.171875)"/>
     </g>
    </g>
   </g>
   <g id="LineCollection_1">
    <path d="M 66.015636 177.495197 
L 91.220864 177.495197 
" clip-path="url(#p96a37a4430)" style="fill: none; stroke: #1f77b4; stroke-width: 1.5"/>
   </g>
   <g id="LineCollection_2">
    <path d="M 66.015636 57.342727 
L 91.220864 57.342727 
" clip-path="url(#p96a37a4430)" style="fill: none; stroke: #1f77b4; stroke-width: 1.5"/>
   </g>
   <g id="LineCollection_3">
    <path d="M 66.015636 263.397273 
L 91.220864 263.397273 
" clip-path="url(#p96a37a4430)" style="fill: none; stroke: #1f77b4; stroke-width: 1.5"/>
   </g>
   <g id="LineCollection_4">
    <path d="M 78.61825 263.397273 
L 78.61825 57.342727 
" clip-path="url(#p96a37a4430)" style="fill: none; stroke: #1f77b4; stroke-width: 1.5"/>
   </g>
   <g id="patch_3">
    <path d="M 50.8925 273.7 
L 50.8925 47.04 
" style="fill: none; stroke: #000000; stroke-width: 0.8; stroke-linejoin: miter; stroke-linecap: square"/>
   </g>
   <g id="patch_4">
    <path d="M 106.344 273.7 
L 106.344 47.04 
" style="fill: none; stroke: #000000; stroke-width: 0.8; stroke-linejoin: miter; stroke-linecap: square"/>
   </g>
   <g id="patch_5">
    <path d="M 50.8925 273.7 
L 106.344 273.7 
" style="fill: none; stroke: #000000; stroke-width: 0.8; stroke-linejoin: miter; stroke-linecap: square"/>
   </g>
   <g id="patch_6">
    <path d="M 50.8925 47.04 
L 106.344 47.04 
" style="fill: none; stroke: #000000; stroke-width: 0.8; stroke-linejoin: miter; stroke-linecap: square"/>
   </g>
   <g id="text_10">
    <!-- RMSD -->
    <g transform="translate(60.84325 41.04)scale(0.12 -0.12)">
     <use xlink:href="#DejaVuSans-52"/>
     <use xlink:href="#DejaVuSans-4d" x="69.482422"/>
     <use xlink:href="#DejaVuSans-53" x="155.761719"/>
     <use xlink:href="#DejaVuSans-44" x="219.238281"/>
    </g>
   </g>
  </g>
  <g id="axes_2">
   <g id="patch_7">
    <path d="M 165.6065 273.7 
L 221.058 273.7 
L 221.058 47.04 
L 165.6065 47.04 
z
" style="fill: #ffffff"/>
   </g>
   <g id="PolyCollection_2">
    <path d="M 194.238017 263.397273 
L 192.426483 263.397273 
L 192.155353 261.315914 
L 191.822728 259.234555 
L 191.425234 257.153196 
L 190.963959 255.071837 
L 190.445274 252.990478 
L 189.880784 250.909118 
L 189.286212 248.827759 
L 188.679266 246.7464 
L 188.076775 244.665041 
L 187.491688 242.583682 
L 186.930547 240.502323 
L 186.392082 238.420964 
L 185.867274 236.339605 
L 185.340954 234.258246 
L 184.794592 232.176887 
L 184.209668 230.095528 
L 183.570903 228.014169 
L 182.868621 225.93281 
L 182.099843 223.851451 
L 181.267948 221.770092 
L 180.381188 219.688733 
L 179.450557 217.607374 
L 178.487684 215.526015 
L 177.503357 213.444656 
L 176.507039 211.363297 
L 175.507436 209.281938 
L 174.513786 207.200579 
L 173.537314 205.119219 
L 172.59223 203.03786 
L 171.695768 200.956501 
L 170.867131 198.875142 
L 170.125548 196.793783 
L 169.487983 194.712424 
L 168.967159 192.631065 
L 168.570458 190.549706 
L 168.299977 188.468347 
L 168.153644 186.386988 
L 168.127023 184.305629 
L 168.21525 182.22427 
L 168.414596 180.142911 
L 168.723306 178.061552 
L 169.141597 175.980193 
L 169.670874 173.898834 
L 170.312364 171.817475 
L 171.065417 169.736116 
L 171.925732 167.654757 
L 172.883802 165.573398 
L 173.923852 163.492039 
L 175.023587 161.41068 
L 176.154941 159.32932 
L 177.285937 157.247961 
L 178.383481 155.166602 
L 179.416716 153.085243 
L 180.360336 151.003884 
L 181.19724 148.922525 
L 181.919978 146.841166 
L 182.530754 144.759807 
L 183.040044 142.678448 
L 183.46424 140.597089 
L 183.822887 138.51573 
L 184.136113 136.434371 
L 184.422706 134.353012 
L 184.699001 132.271653 
L 184.978522 130.190294 
L 185.272073 128.108935 
L 185.587954 126.027576 
L 185.932004 123.946217 
L 186.307345 121.864858 
L 186.713926 119.783499 
L 187.148055 117.70214 
L 187.602233 115.620781 
L 188.065534 113.539421 
L 188.52462 111.458062 
L 188.965334 109.376703 
L 189.3746 107.295344 
L 189.742272 105.213985 
L 190.062542 103.132626 
L 190.334615 101.051267 
L 190.562515 98.969908 
L 190.754084 96.888549 
L 190.919399 94.80719 
L 191.068968 92.725831 
L 191.212047 90.644472 
L 191.355406 88.563113 
L 191.502711 86.481754 
L 191.654546 84.400395 
L 191.808985 82.319036 
L 191.962481 80.237677 
L 192.110871 78.156318 
L 192.250264 76.074959 
L 192.377683 73.9936 
L 192.491409 71.912241 
L 192.591035 69.830882 
L 192.677311 67.749522 
L 192.751839 65.668163 
L 192.816725 63.586804 
L 192.874216 61.505445 
L 192.926395 59.424086 
L 192.974935 57.342727 
L 193.689565 57.342727 
L 193.689565 57.342727 
L 193.738105 59.424086 
L 193.790284 61.505445 
L 193.847775 63.586804 
L 193.912661 65.668163 
L 193.987189 67.749522 
L 194.073465 69.830882 
L 194.173091 71.912241 
L 194.286817 73.9936 
L 194.414236 76.074959 
L 194.553629 78.156318 
L 194.702019 80.237677 
L 194.855515 82.319036 
L 195.009954 84.400395 
L 195.161789 86.481754 
L 195.309094 88.563113 
L 195.452453 90.644472 
L 195.595532 92.725831 
L 195.745101 94.80719 
L 195.910416 96.888549 
L 196.101985 98.969908 
L 196.329885 101.051267 
L 196.601958 103.132626 
L 196.922228 105.213985 
L 197.2899 107.295344 
L 197.699166 109.376703 
L 198.13988 111.458062 
L 198.598966 113.539421 
L 199.062267 115.620781 
L 199.516445 117.70214 
L 199.950574 119.783499 
L 200.357155 121.864858 
L 200.732496 123.946217 
L 201.076546 126.027576 
L 201.392427 128.108935 
L 201.685978 130.190294 
L 201.965499 132.271653 
L 202.241794 134.353012 
L 202.528387 136.434371 
L 202.841613 138.51573 
L 203.20026 140.597089 
L 203.624456 142.678448 
L 204.133746 144.759807 
L 204.744522 146.841166 
L 205.46726 148.922525 
L 206.304164 151.003884 
L 207.247784 153.085243 
L 208.281019 155.166602 
L 209.378563 157.247961 
L 210.509559 159.32932 
L 211.640913 161.41068 
L 212.740648 163.492039 
L 213.780698 165.573398 
L 214.738768 167.654757 
L 215.599083 169.736116 
L 216.352136 171.817475 
L 216.993626 173.898834 
L 217.522903 175.980193 
L 217.941194 178.061552 
L 218.249904 180.142911 
L 218.44925 182.22427 
L 218.537477 184.305629 
L 218.510856 186.386988 
L 218.364523 188.468347 
L 218.094042 190.549706 
L 217.697341 192.631065 
L 217.176517 194.712424 
L 216.538952 196.793783 
L 215.797369 198.875142 
L 214.968732 200.956501 
L 214.07227 203.03786 
L 213.127186 205.119219 
L 212.150714 207.200579 
L 211.157064 209.281938 
L 210.157461 211.363297 
L 209.161143 213.444656 
L 208.176816 215.526015 
L 207.213943 217.607374 
L 206.283312 219.688733 
L 205.396552 221.770092 
L 204.564657 223.851451 
L 203.795879 225.93281 
L 203.093597 228.014169 
L 202.454832 230.095528 
L 201.869908 232.176887 
L 201.323546 234.258246 
L 200.797226 236.339605 
L 200.272418 238.420964 
L 199.733953 240.502323 
L 199.172812 242.583682 
L 198.587725 244.665041 
L 197.985234 246.7464 
L 197.378288 248.827759 
L 196.783716 250.909118 
L 196.219226 252.990478 
L 195.700541 255.071837 
L 195.239266 257.153196 
L 194.841772 259.234555 
L 194.509147 261.315914 
L 194.238017 263.397273 
z
" clip-path="url(#pd7b3036a11)" style="fill: #1f77b4; fill-opacity: 0.3"/>
   </g>
   <g id="matplotlib.axis_2">
    <g id="ytick_9">
     <g id="line2d_9">
      <g>
       <use xlink:href="#m03c3059232" x="165.6065" y="262.526471" style="stroke: #000000; stroke-width: 0.8"/>
      </g>
     </g>
     <g id="text_11">
      <!-- 0.3 -->
      <g transform="translate(142.703375 266.325689)scale(0.1 -0.1)">
       <defs>
        <path id="DejaVuSans-33" d="M 2597 2516 
Q 3050 2419 3304 2112 
Q 3559 1806 3559 1356 
Q 3559 666 3084 287 
Q 2609 -91 1734 -91 
Q 1441 -91 1130 -33 
Q 819 25 488 141 
L 488 750 
Q 750 597 1062 519 
Q 1375 441 1716 441 
Q 2309 441 2620 675 
Q 2931 909 2931 1356 
Q 2931 1769 2642 2001 
Q 2353 2234 1838 2234 
L 1294 2234 
L 1294 2753 
L 1863 2753 
Q 2328 2753 2575 2939 
Q 2822 3125 2822 3475 
Q 2822 3834 2567 4026 
Q 2313 4219 1838 4219 
Q 1578 4219 1281 4162 
Q 984 4106 628 3988 
L 628 4550 
Q 988 4650 1302 4700 
Q 1616 4750 1894 4750 
Q 2613 4750 3031 4423 
Q 3450 4097 3450 3541 
Q 3450 3153 3228 2886 
Q 3006 2619 2597 2516 
z
" transform="scale(0.015625)"/>
       </defs>
       <use xlink:href="#DejaVuSans-30"/>
       <use xlink:href="#DejaVuSans-2e" x="63.623047"/>
       <use xlink:href="#DejaVuSans-33" x="95.410156"/>
      </g>
     </g>
    </g>
    <g id="ytick_10">
     <g id="line2d_10">
      <g>
       <use xlink:href="#m03c3059232" x="165.6065" y="217.358971" style="stroke: #000000; stroke-width: 0.8"/>
      </g>
     </g>
     <g id="text_12">
      <!-- 0.4 -->
      <g transform="translate(142.703375 221.15819)scale(0.1 -0.1)">
       <use xlink:href="#DejaVuSans-30"/>
       <use xlink:href="#DejaVuSans-2e" x="63.623047"/>
       <use xlink:href="#DejaVuSans-34" x="95.410156"/>
      </g>
     </g>
    </g>
    <g id="ytick_11">
     <g id="line2d_11">
      <g>
       <use xlink:href="#m03c3059232" x="165.6065" y="172.191471" style="stroke: #000000; stroke-width: 0.8"/>
      </g>
     </g>
     <g id="text_13">
      <!-- 0.5 -->
      <g transform="translate(142.703375 175.99069)scale(0.1 -0.1)">
       <use xlink:href="#DejaVuSans-30"/>
       <use xlink:href="#DejaVuSans-2e" x="63.623047"/>
       <use xlink:href="#DejaVuSans-35" x="95.410156"/>
      </g>
     </g>
    </g>
    <g id="ytick_12">
     <g id="line2d_12">
      <g>
       <use xlink:href="#m03c3059232" x="165.6065" y="127.023972" style="stroke: #000000; stroke-width: 0.8"/>
      </g>
     </g>
     <g id="text_14">
      <!-- 0.6 -->
      <g transform="translate(142.703375 130.82319)scale(0.1 -0.1)">
       <use xlink:href="#DejaVuSans-30"/>
       <use xlink:href="#DejaVuSans-2e" x="63.623047"/>
       <use xlink:href="#DejaVuSans-36" x="95.410156"/>
      </g>
     </g>
    </g>
    <g id="ytick_13">
     <g id="line2d_13">
      <g>
       <use xlink:href="#m03c3059232" x="165.6065" y="81.856472" style="stroke: #000000; stroke-width: 0.8"/>
      </g>
     </g>
     <g id="text_15">
      <!-- 0.7 -->
      <g transform="translate(142.703375 85.655691)scale(0.1 -0.1)">
       <use xlink:href="#DejaVuSans-30"/>
       <use xlink:href="#DejaVuSans-2e" x="63.623047"/>
       <use xlink:href="#DejaVuSans-37" x="95.410156"/>
      </g>
     </g>
    </g>
    <g id="text_16">
     <!-- MAE [$\AA$] -->
     <g transform="translate(136.623687 180.22)rotate(-90)scale(0.1 -0.1)">
      <defs>
       <path id="DejaVuSans-41" d="M 2188 4044 
L 1331 1722 
L 3047 1722 
L 2188 4044 
z
M 1831 4666 
L 2547 4666 
L 4325 0 
L 3669 0 
L 3244 1197 
L 1141 1197 
L 716 0 
L 50 0 
L 1831 4666 
z
" transform="scale(0.015625)"/>
       <path id="DejaVuSans-45" d="M 628 4666 
L 3578 4666 
L 3578 4134 
L 1259 4134 
L 1259 2753 
L 3481 2753 
L 3481 2222 
L 1259 2222 
L 1259 531 
L 3634 531 
L 3634 0 
L 628 0 
L 628 4666 
z
" transform="scale(0.015625)"/>
      </defs>
      <use xlink:href="#DejaVuSans-4d" transform="translate(0 0.171875)"/>
      <use xlink:href="#DejaVuSans-41" transform="translate(86.279297 0.171875)"/>
      <use xlink:href="#DejaVuSans-45" transform="translate(154.6875 0.171875)"/>
      <use xlink:href="#DejaVuSans-20" transform="translate(217.871094 0.171875)"/>
      <use xlink:href="#DejaVuSans-5b" transform="translate(249.658203 0.171875)"/>
      <use xlink:href="#DejaVuSans-Oblique-c5" transform="translate(288.671875 0.171875)"/>
      <use xlink:href="#DejaVuSans-5d" transform="translate(357.080078 0.171875)"/>
     </g>
    </g>
   </g>
   <g id="LineCollection_5">
    <path d="M 180.729636 179.033288 
L 205.934864 179.033288 
" clip-path="url(#pd7b3036a11)" style="fill: none; stroke: #1f77b4; stroke-width: 1.5"/>
   </g>
   <g id="LineCollection_6">
    <path d="M 180.729636 57.342727 
L 205.934864 57.342727 
" clip-path="url(#pd7b3036a11)" style="fill: none; stroke: #1f77b4; stroke-width: 1.5"/>
   </g>
   <g id="LineCollection_7">
    <path d="M 180.729636 263.397273 
L 205.934864 263.397273 
" clip-path="url(#pd7b3036a11)" style="fill: none; stroke: #1f77b4; stroke-width: 1.5"/>
   </g>
   <g id="LineCollection_8">
    <path d="M 193.33225 263.397273 
L 193.33225 57.342727 
" clip-path="url(#pd7b3036a11)" style="fill: none; stroke: #1f77b4; stroke-width: 1.5"/>
   </g>
   <g id="patch_8">
    <path d="M 165.6065 273.7 
L 165.6065 47.04 
" style="fill: none; stroke: #000000; stroke-width: 0.8; stroke-linejoin: miter; stroke-linecap: square"/>
   </g>
   <g id="patch_9">
    <path d="M 221.058 273.7 
L 221.058 47.04 
" style="fill: none; stroke: #000000; stroke-width: 0.8; stroke-linejoin: miter; stroke-linecap: square"/>
   </g>
   <g id="patch_10">
    <path d="M 165.6065 273.7 
L 221.058 273.7 
" style="fill: none; stroke: #000000; stroke-width: 0.8; stroke-linejoin: miter; stroke-linecap: square"/>
   </g>
   <g id="patch_11">
    <path d="M 165.6065 47.04 
L 221.058 47.04 
" style="fill: none; stroke: #000000; stroke-width: 0.8; stroke-linejoin: miter; stroke-linecap: square"/>
   </g>
   <g id="text_17">
    <!-- MAE -->
    <g transform="translate(180.25975 41.04)scale(0.12 -0.12)">
     <use xlink:href="#DejaVuSans-4d"/>
     <use xlink:href="#DejaVuSans-41" x="86.279297"/>
     <use xlink:href="#DejaVuSans-45" x="154.6875"/>
    </g>
   </g>
  </g>
  <g id="axes_3">
   <g id="patch_12">
    <path d="M 280.3205 273.7 
L 335.772 273.7 
L 335.772 47.04 
L 280.3205 47.04 
z
" style="fill: #ffffff"/>
   </g>
   <g id="PolyCollection_3">
    <path d="M 308.275358 263.397273 
L 307.817142 263.397273 
L 307.800242 261.315914 
L 307.780458 259.234555 
L 307.75334 257.153196 
L 307.713307 255.071837 
L 307.653955 252.990478 
L 307.568387 250.909118 
L 307.449499 248.827759 
L 307.290151 246.7464 
L 307.083242 244.665041 
L 306.821719 242.583682 
L 306.498583 240.502323 
L 306.106979 238.420964 
L 305.640415 236.339605 
L 305.093106 234.258246 
L 304.460427 232.176887 
L 303.739374 230.095528 
L 302.928973 228.014169 
L 302.030541 225.93281 
L 301.047772 223.851451 
L 299.986599 221.770092 
L 298.854859 219.688733 
L 297.66179 217.607374 
L 296.417455 215.526015 
L 295.132252 213.444656 
L 293.816726 211.363297 
L 292.481903 209.281938 
L 291.140235 207.200579 
L 289.807104 205.119219 
L 288.502494 203.03786 
L 287.252283 200.956501 
L 286.088502 198.875142 
L 285.048086 196.793783 
L 284.170012 194.712424 
L 283.491179 192.631065 
L 283.041769 190.549706 
L 282.841023 188.468347 
L 282.894229 186.386988 
L 283.191438 184.305629 
L 283.707966 182.22427 
L 284.406444 180.142911 
L 285.239976 178.061552 
L 286.155938 175.980193 
L 287.100068 173.898834 
L 288.020596 171.817475 
L 288.872206 169.736116 
L 289.619606 167.654757 
L 290.240428 165.573398 
L 290.727058 163.492039 
L 291.087037 161.41068 
L 291.341726 159.32932 
L 291.523165 157.247961 
L 291.669359 155.166602 
L 291.818597 153.085243 
L 292.003717 151.003884 
L 292.247354 148.922525 
L 292.559118 146.841166 
L 292.935279 144.759807 
L 293.360981 142.678448 
L 293.814432 140.597089 
L 294.272084 138.51573 
L 294.713639 136.434371 
L 295.125864 134.353012 
L 295.504594 132.271653 
L 295.854765 130.190294 
L 296.188797 128.108935 
L 296.523882 126.027576 
L 296.878832 123.946217 
L 297.271042 121.864858 
L 297.713948 119.783499 
L 298.215185 117.70214 
L 298.775536 115.620781 
L 299.388684 113.539421 
L 300.04176 111.458062 
L 300.716665 109.376703 
L 301.392053 107.295344 
L 302.04578 105.213985 
L 302.657512 103.132626 
L 303.211104 101.051267 
L 303.696355 98.969908 
L 304.109838 96.888549 
L 304.454696 94.80719 
L 304.739468 92.725831 
L 304.976245 90.644472 
L 305.178536 88.563113 
L 305.359269 86.481754 
L 305.529243 84.400395 
L 305.696234 82.319036 
L 305.864758 80.237677 
L 306.036389 78.156318 
L 306.210433 76.074959 
L 306.384739 73.9936 
L 306.55648 71.912241 
L 306.722782 69.830882 
L 306.881148 67.749522 
L 307.029691 65.668163 
L 307.167196 63.586804 
L 307.293075 61.505445 
L 307.407234 59.424086 
L 307.509922 57.342727 
L 308.582578 57.342727 
L 308.582578 57.342727 
L 308.685266 59.424086 
L 308.799425 61.505445 
L 308.925304 63.586804 
L 309.062809 65.668163 
L 309.211352 67.749522 
L 309.369718 69.830882 
L 309.53602 71.912241 
L 309.707761 73.9936 
L 309.882067 76.074959 
L 310.056111 78.156318 
L 310.227742 80.237677 
L 310.396266 82.319036 
L 310.563257 84.400395 
L 310.733231 86.481754 
L 310.913964 88.563113 
L 311.116255 90.644472 
L 311.353032 92.725831 
L 311.637804 94.80719 
L 311.982662 96.888549 
L 312.396145 98.969908 
L 312.881396 101.051267 
L 313.434988 103.132626 
L 314.04672 105.213985 
L 314.700447 107.295344 
L 315.375835 109.376703 
L 316.05074 111.458062 
L 316.703816 113.539421 
L 317.316964 115.620781 
L 317.877315 117.70214 
L 318.378552 119.783499 
L 318.821458 121.864858 
L 319.213668 123.946217 
L 319.568618 126.027576 
L 319.903703 128.108935 
L 320.237735 130.190294 
L 320.587906 132.271653 
L 320.966636 134.353012 
L 321.378861 136.434371 
L 321.820416 138.51573 
L 322.278068 140.597089 
L 322.731519 142.678448 
L 323.157221 144.759807 
L 323.533382 146.841166 
L 323.845146 148.922525 
L 324.088783 151.003884 
L 324.273903 153.085243 
L 324.423141 155.166602 
L 324.569335 157.247961 
L 324.750774 159.32932 
L 325.005463 161.41068 
L 325.365442 163.492039 
L 325.852072 165.573398 
L 326.472894 167.654757 
L 327.220294 169.736116 
L 328.071904 171.817475 
L 328.992432 173.898834 
L 329.936562 175.980193 
L 330.852524 178.061552 
L 331.686056 180.142911 
L 332.384534 182.22427 
L 332.901062 184.305629 
L 333.198271 186.386988 
L 333.251477 188.468347 
L 333.050731 190.549706 
L 332.601321 192.631065 
L 331.922488 194.712424 
L 331.044414 196.793783 
L 330.003998 198.875142 
L 328.840217 200.956501 
L 327.590006 203.03786 
L 326.285396 205.119219 
L 324.952265 207.200579 
L 323.610597 209.281938 
L 322.275774 211.363297 
L 320.960248 213.444656 
L 319.675045 215.526015 
L 318.43071 217.607374 
L 317.237641 219.688733 
L 316.105901 221.770092 
L 315.044728 223.851451 
L 314.061959 225.93281 
L 313.163527 228.014169 
L 312.353126 230.095528 
L 311.632073 232.176887 
L 310.999394 234.258246 
L 310.452085 236.339605 
L 309.985521 238.420964 
L 309.593917 240.502323 
L 309.270781 242.583682 
L 309.009258 244.665041 
L 308.802349 246.7464 
L 308.643001 248.827759 
L 308.524113 250.909118 
L 308.438545 252.990478 
L 308.379193 255.071837 
L 308.33916 257.153196 
L 308.312042 259.234555 
L 308.292258 261.315914 
L 308.275358 263.397273 
z
" clip-path="url(#pabd12fb07e)" style="fill: #1f77b4; fill-opacity: 0.3"/>
   </g>
   <g id="matplotlib.axis_3">
    <g id="ytick_14">
     <g id="line2d_14">
      <g>
       <use xlink:href="#m03c3059232" x="280.3205" y="261.514016" style="stroke: #000000; stroke-width: 0.8"/>
      </g>
     </g>
     <g id="text_18">
      <!-- −0.1 -->
      <g transform="translate(249.037687 265.313234)scale(0.1 -0.1)">
       <defs>
        <path id="DejaVuSans-2212" d="M 678 2272 
L 4684 2272 
L 4684 1741 
L 678 1741 
L 678 2272 
z
" transform="scale(0.015625)"/>
       </defs>
       <use xlink:href="#DejaVuSans-2212"/>
       <use xlink:href="#DejaVuSans-30" x="83.789062"/>
       <use xlink:href="#DejaVuSans-2e" x="147.412109"/>
       <use xlink:href="#DejaVuSans-31" x="179.199219"/>
      </g>
     </g>
    </g>
    <g id="ytick_15">
     <g id="line2d_15">
      <g>
       <use xlink:href="#m03c3059232" x="280.3205" y="225.722669" style="stroke: #000000; stroke-width: 0.8"/>
      </g>
     </g>
     <g id="text_19">
      <!-- 0.0 -->
      <g transform="translate(257.417375 229.521887)scale(0.1 -0.1)">
       <use xlink:href="#DejaVuSans-30"/>
       <use xlink:href="#DejaVuSans-2e" x="63.623047"/>
       <use xlink:href="#DejaVuSans-30" x="95.410156"/>
      </g>
     </g>
    </g>
    <g id="ytick_16">
     <g id="line2d_16">
      <g>
       <use xlink:href="#m03c3059232" x="280.3205" y="189.931321" style="stroke: #000000; stroke-width: 0.8"/>
      </g>
     </g>
     <g id="text_20">
      <!-- 0.1 -->
      <g transform="translate(257.417375 193.73054)scale(0.1 -0.1)">
       <use xlink:href="#DejaVuSans-30"/>
       <use xlink:href="#DejaVuSans-2e" x="63.623047"/>
       <use xlink:href="#DejaVuSans-31" x="95.410156"/>
      </g>
     </g>
    </g>
    <g id="ytick_17">
     <g id="line2d_17">
      <g>
       <use xlink:href="#m03c3059232" x="280.3205" y="154.139974" style="stroke: #000000; stroke-width: 0.8"/>
      </g>
     </g>
     <g id="text_21">
      <!-- 0.2 -->
      <g transform="translate(257.417375 157.939193)scale(0.1 -0.1)">
       <defs>
        <path id="DejaVuSans-32" d="M 1228 531 
L 3431 531 
L 3431 0 
L 469 0 
L 469 531 
Q 828 903 1448 1529 
Q 2069 2156 2228 2338 
Q 2531 2678 2651 2914 
Q 2772 3150 2772 3378 
Q 2772 3750 2511 3984 
Q 2250 4219 1831 4219 
Q 1534 4219 1204 4116 
Q 875 4013 500 3803 
L 500 4441 
Q 881 4594 1212 4672 
Q 1544 4750 1819 4750 
Q 2544 4750 2975 4387 
Q 3406 4025 3406 3419 
Q 3406 3131 3298 2873 
Q 3191 2616 2906 2266 
Q 2828 2175 2409 1742 
Q 1991 1309 1228 531 
z
" transform="scale(0.015625)"/>
       </defs>
       <use xlink:href="#DejaVuSans-30"/>
       <use xlink:href="#DejaVuSans-2e" x="63.623047"/>
       <use xlink:href="#DejaVuSans-32" x="95.410156"/>
      </g>
     </g>
    </g>
    <g id="ytick_18">
     <g id="line2d_18">
      <g>
       <use xlink:href="#m03c3059232" x="280.3205" y="118.348627" style="stroke: #000000; stroke-width: 0.8"/>
      </g>
     </g>
     <g id="text_22">
      <!-- 0.3 -->
      <g transform="translate(257.417375 122.147846)scale(0.1 -0.1)">
       <use xlink:href="#DejaVuSans-30"/>
       <use xlink:href="#DejaVuSans-2e" x="63.623047"/>
       <use xlink:href="#DejaVuSans-33" x="95.410156"/>
      </g>
     </g>
    </g>
    <g id="ytick_19">
     <g id="line2d_19">
      <g>
       <use xlink:href="#m03c3059232" x="280.3205" y="82.55728" style="stroke: #000000; stroke-width: 0.8"/>
      </g>
     </g>
     <g id="text_23">
      <!-- 0.4 -->
      <g transform="translate(257.417375 86.356499)scale(0.1 -0.1)">
       <use xlink:href="#DejaVuSans-30"/>
       <use xlink:href="#DejaVuSans-2e" x="63.623047"/>
       <use xlink:href="#DejaVuSans-34" x="95.410156"/>
      </g>
     </g>
    </g>
    <g id="text_24">
     <!-- MSE [$\AA$] -->
     <g transform="translate(242.958 179.97)rotate(-90)scale(0.1 -0.1)">
      <use xlink:href="#DejaVuSans-4d" transform="translate(0 0.171875)"/>
      <use xlink:href="#DejaVuSans-53" transform="translate(86.279297 0.171875)"/>
      <use xlink:href="#DejaVuSans-45" transform="translate(149.755859 0.171875)"/>
      <use xlink:href="#DejaVuSans-20" transform="translate(212.939453 0.171875)"/>
      <use xlink:href="#DejaVuSans-5b" transform="translate(244.726562 0.171875)"/>
      <use xlink:href="#DejaVuSans-Oblique-c5" transform="translate(283.740234 0.171875)"/>
      <use xlink:href="#DejaVuSans-5d" transform="translate(352.148438 0.171875)"/>
     </g>
    </g>
   </g>
   <g id="LineCollection_9">
    <path d="M 295.443636 167.741037 
L 320.648864 167.741037 
" clip-path="url(#pabd12fb07e)" style="fill: none; stroke: #1f77b4; stroke-width: 1.5"/>
   </g>
   <g id="LineCollection_10">
    <path d="M 295.443636 57.342727 
L 320.648864 57.342727 
" clip-path="url(#pabd12fb07e)" style="fill: none; stroke: #1f77b4; stroke-width: 1.5"/>
   </g>
   <g id="LineCollection_11">
    <path d="M 295.443636 263.397273 
L 320.648864 263.397273 
" clip-path="url(#pabd12fb07e)" style="fill: none; stroke: #1f77b4; stroke-width: 1.5"/>
   </g>
   <g id="LineCollection_12">
    <path d="M 308.04625 263.397273 
L 308.04625 57.342727 
" clip-path="url(#pabd12fb07e)" style="fill: none; stroke: #1f77b4; stroke-width: 1.5"/>
   </g>
   <g id="patch_13">
    <path d="M 280.3205 273.7 
L 280.3205 47.04 
" style="fill: none; stroke: #000000; stroke-width: 0.8; stroke-linejoin: miter; stroke-linecap: square"/>
   </g>
   <g id="patch_14">
    <path d="M 335.772 273.7 
L 335.772 47.04 
" style="fill: none; stroke: #000000; stroke-width: 0.8; stroke-linejoin: miter; stroke-linecap: square"/>
   </g>
   <g id="patch_15">
    <path d="M 280.3205 273.7 
L 335.772 273.7 
" style="fill: none; stroke: #000000; stroke-width: 0.8; stroke-linejoin: miter; stroke-linecap: square"/>
   </g>
   <g id="patch_16">
    <path d="M 280.3205 47.04 
L 335.772 47.04 
" style="fill: none; stroke: #000000; stroke-width: 0.8; stroke-linejoin: miter; stroke-linecap: square"/>
   </g>
   <g id="text_25">
    <!-- MSE -->
    <g transform="translate(295.269062 41.04)scale(0.12 -0.12)">
     <use xlink:href="#DejaVuSans-4d"/>
     <use xlink:href="#DejaVuSans-53" x="86.279297"/>
     <use xlink:href="#DejaVuSans-45" x="149.755859"/>
    </g>
   </g>
  </g>
  <g id="axes_4">
   <g id="patch_17">
    <path d="M 395.0345 273.7 
L 450.486 273.7 
L 450.486 47.04 
L 395.0345 47.04 
z
" style="fill: #ffffff"/>
   </g>
   <g id="PolyCollection_4">
    <path d="M 423.931667 263.397273 
L 421.588833 263.397273 
L 421.414405 261.315914 
L 421.2274 259.234555 
L 421.029903 257.153196 
L 420.826011 255.071837 
L 420.621775 252.990478 
L 420.424516 250.909118 
L 420.241593 248.827759 
L 420.07888 246.7464 
L 419.939346 244.665041 
L 419.822128 242.583682 
L 419.722328 240.502323 
L 419.631559 238.420964 
L 419.53901 236.339605 
L 419.432707 234.258246 
L 419.300616 232.176887 
L 419.131448 230.095528 
L 418.915201 228.014169 
L 418.64362 225.93281 
L 418.310777 223.851451 
L 417.913792 221.770092 
L 417.453509 219.688733 
L 416.934706 217.607374 
L 416.365474 215.526015 
L 415.755613 213.444656 
L 415.114323 211.363297 
L 414.447895 209.281938 
L 413.758267 207.200579 
L 413.043168 205.119219 
L 412.297991 203.03786 
L 411.518811 200.956501 
L 410.705395 198.875142 
L 409.862894 196.793783 
L 409.001318 194.712424 
L 408.132835 192.631065 
L 407.267915 190.549706 
L 406.411996 188.468347 
L 405.564345 186.386988 
L 404.719907 184.305629 
L 403.873715 182.22427 
L 403.02613 180.142911 
L 402.186631 178.061552 
L 401.374259 175.980193 
L 400.614088 173.898834 
L 399.930824 171.817475 
L 399.341945 169.736116 
L 398.853221 167.654757 
L 398.458586 165.573398 
L 398.144615 163.492039 
L 397.897884 161.41068 
L 397.712225 159.32932 
L 397.592774 157.247961 
L 397.555023 155.166602 
L 397.619099 153.085243 
L 397.801492 151.003884 
L 398.10752 148.922525 
L 398.527497 146.841166 
L 399.038062 144.759807 
L 399.607996 142.678448 
L 400.206154 140.597089 
L 400.808439 138.51573 
L 401.4014 136.434371 
L 401.981625 134.353012 
L 402.55194 132.271653 
L 403.116636 130.190294 
L 403.67812 128.108935 
L 404.236432 126.027576 
L 404.79155 123.946217 
L 405.346996 121.864858 
L 405.912612 119.783499 
L 406.504742 117.70214 
L 407.143233 115.620781 
L 407.8461 113.539421 
L 408.623758 111.458062 
L 409.474958 109.376703 
L 410.38591 107.295344 
L 411.332893 105.213985 
L 412.287373 103.132626 
L 413.221866 101.051267 
L 414.1147 98.969908 
L 414.952448 96.888549 
L 415.729734 94.80719 
L 416.447063 92.725831 
L 417.107838 90.644472 
L 417.715736 88.563113 
L 418.273223 86.481754 
L 418.781366 84.400395 
L 419.240577 82.319036 
L 419.651678 80.237677 
L 420.016689 78.156318 
L 420.339049 76.074959 
L 420.623253 73.9936 
L 420.874176 71.912241 
L 421.096402 69.830882 
L 421.293821 67.749522 
L 421.469561 65.668163 
L 421.626193 63.586804 
L 421.766021 61.505445 
L 421.891291 59.424086 
L 422.004227 57.342727 
L 423.516273 57.342727 
L 423.516273 57.342727 
L 423.629209 59.424086 
L 423.754479 61.505445 
L 423.894307 63.586804 
L 424.050939 65.668163 
L 424.226679 67.749522 
L 424.424098 69.830882 
L 424.646324 71.912241 
L 424.897247 73.9936 
L 425.181451 76.074959 
L 425.503811 78.156318 
L 425.868822 80.237677 
L 426.279923 82.319036 
L 426.739134 84.400395 
L 427.247277 86.481754 
L 427.804764 88.563113 
L 428.412662 90.644472 
L 429.073437 92.725831 
L 429.790766 94.80719 
L 430.568052 96.888549 
L 431.4058 98.969908 
L 432.298634 101.051267 
L 433.233127 103.132626 
L 434.187607 105.213985 
L 435.13459 107.295344 
L 436.045542 109.376703 
L 436.896742 111.458062 
L 437.6744 113.539421 
L 438.377267 115.620781 
L 439.015758 117.70214 
L 439.607888 119.783499 
L 440.173504 121.864858 
L 440.72895 123.946217 
L 441.284068 126.027576 
L 441.84238 128.108935 
L 442.403864 130.190294 
L 442.96856 132.271653 
L 443.538875 134.353012 
L 444.1191 136.434371 
L 444.712061 138.51573 
L 445.314346 140.597089 
L 445.912504 142.678448 
L 446.482438 144.759807 
L 446.993003 146.841166 
L 447.41298 148.922525 
L 447.719008 151.003884 
L 447.901401 153.085243 
L 447.965477 155.166602 
L 447.927726 157.247961 
L 447.808275 159.32932 
L 447.622616 161.41068 
L 447.375885 163.492039 
L 447.061914 165.573398 
L 446.667279 167.654757 
L 446.178555 169.736116 
L 445.589676 171.817475 
L 444.906412 173.898834 
L 444.146241 175.980193 
L 443.333869 178.061552 
L 442.49437 180.142911 
L 441.646785 182.22427 
L 440.800593 184.305629 
L 439.956155 186.386988 
L 439.108504 188.468347 
L 438.252585 190.549706 
L 437.387665 192.631065 
L 436.519182 194.712424 
L 435.657606 196.793783 
L 434.815105 198.875142 
L 434.001689 200.956501 
L 433.222509 203.03786 
L 432.477332 205.119219 
L 431.762233 207.200579 
L 431.072605 209.281938 
L 430.406177 211.363297 
L 429.764887 213.444656 
L 429.155026 215.526015 
L 428.585794 217.607374 
L 428.066991 219.688733 
L 427.606708 221.770092 
L 427.209723 223.851451 
L 426.87688 225.93281 
L 426.605299 228.014169 
L 426.389052 230.095528 
L 426.219884 232.176887 
L 426.087793 234.258246 
L 425.98149 236.339605 
L 425.888941 238.420964 
L 425.798172 240.502323 
L 425.698372 242.583682 
L 425.581154 244.665041 
L 425.44162 246.7464 
L 425.278907 248.827759 
L 425.095984 250.909118 
L 424.898725 252.990478 
L 424.694489 255.071837 
L 424.490597 257.153196 
L 424.2931 259.234555 
L 424.106095 261.315914 
L 423.931667 263.397273 
z
" clip-path="url(#pd2c229692a)" style="fill: #1f77b4; fill-opacity: 0.3"/>
   </g>
   <g id="matplotlib.axis_4">
    <g id="ytick_20">
     <g id="line2d_20">
      <g>
       <use xlink:href="#m03c3059232" x="395.0345" y="252.157934" style="stroke: #000000; stroke-width: 0.8"/>
      </g>
     </g>
     <g id="text_26">
      <!-- 0.40 -->
      <g transform="translate(365.768875 255.957153)scale(0.1 -0.1)">
       <use xlink:href="#DejaVuSans-30"/>
       <use xlink:href="#DejaVuSans-2e" x="63.623047"/>
       <use xlink:href="#DejaVuSans-34" x="95.410156"/>
       <use xlink:href="#DejaVuSans-30" x="159.033203"/>
      </g>
     </g>
    </g>
    <g id="ytick_21">
     <g id="line2d_21">
      <g>
       <use xlink:href="#m03c3059232" x="395.0345" y="224.996198" style="stroke: #000000; stroke-width: 0.8"/>
      </g>
     </g>
     <g id="text_27">
      <!-- 0.45 -->
      <g transform="translate(365.768875 228.795417)scale(0.1 -0.1)">
       <use xlink:href="#DejaVuSans-30"/>
       <use xlink:href="#DejaVuSans-2e" x="63.623047"/>
       <use xlink:href="#DejaVuSans-34" x="95.410156"/>
       <use xlink:href="#DejaVuSans-35" x="159.033203"/>
      </g>
     </g>
    </g>
    <g id="ytick_22">
     <g id="line2d_22">
      <g>
       <use xlink:href="#m03c3059232" x="395.0345" y="197.834463" style="stroke: #000000; stroke-width: 0.8"/>
      </g>
     </g>
     <g id="text_28">
      <!-- 0.50 -->
      <g transform="translate(365.768875 201.633682)scale(0.1 -0.1)">
       <use xlink:href="#DejaVuSans-30"/>
       <use xlink:href="#DejaVuSans-2e" x="63.623047"/>
       <use xlink:href="#DejaVuSans-35" x="95.410156"/>
       <use xlink:href="#DejaVuSans-30" x="159.033203"/>
      </g>
     </g>
    </g>
    <g id="ytick_23">
     <g id="line2d_23">
      <g>
       <use xlink:href="#m03c3059232" x="395.0345" y="170.672727" style="stroke: #000000; stroke-width: 0.8"/>
      </g>
     </g>
     <g id="text_29">
      <!-- 0.55 -->
      <g transform="translate(365.768875 174.471946)scale(0.1 -0.1)">
       <use xlink:href="#DejaVuSans-30"/>
       <use xlink:href="#DejaVuSans-2e" x="63.623047"/>
       <use xlink:href="#DejaVuSans-35" x="95.410156"/>
       <use xlink:href="#DejaVuSans-35" x="159.033203"/>
      </g>
     </g>
    </g>
    <g id="ytick_24">
     <g id="line2d_24">
      <g>
       <use xlink:href="#m03c3059232" x="395.0345" y="143.510992" style="stroke: #000000; stroke-width: 0.8"/>
      </g>
     </g>
     <g id="text_30">
      <!-- 0.60 -->
      <g transform="translate(365.768875 147.31021)scale(0.1 -0.1)">
       <use xlink:href="#DejaVuSans-30"/>
       <use xlink:href="#DejaVuSans-2e" x="63.623047"/>
       <use xlink:href="#DejaVuSans-36" x="95.410156"/>
       <use xlink:href="#DejaVuSans-30" x="159.033203"/>
      </g>
     </g>
    </g>
    <g id="ytick_25">
     <g id="line2d_25">
      <g>
       <use xlink:href="#m03c3059232" x="395.0345" y="116.349256" style="stroke: #000000; stroke-width: 0.8"/>
      </g>
     </g>
     <g id="text_31">
      <!-- 0.65 -->
      <g transform="translate(365.768875 120.148475)scale(0.1 -0.1)">
       <use xlink:href="#DejaVuSans-30"/>
       <use xlink:href="#DejaVuSans-2e" x="63.623047"/>
       <use xlink:href="#DejaVuSans-36" x="95.410156"/>
       <use xlink:href="#DejaVuSans-35" x="159.033203"/>
      </g>
     </g>
    </g>
    <g id="ytick_26">
     <g id="line2d_26">
      <g>
       <use xlink:href="#m03c3059232" x="395.0345" y="89.187521" style="stroke: #000000; stroke-width: 0.8"/>
      </g>
     </g>
     <g id="text_32">
      <!-- 0.70 -->
      <g transform="translate(365.768875 92.986739)scale(0.1 -0.1)">
       <use xlink:href="#DejaVuSans-30"/>
       <use xlink:href="#DejaVuSans-2e" x="63.623047"/>
       <use xlink:href="#DejaVuSans-37" x="95.410156"/>
       <use xlink:href="#DejaVuSans-30" x="159.033203"/>
      </g>
     </g>
    </g>
    <g id="ytick_27">
     <g id="line2d_27">
      <g>
       <use xlink:href="#m03c3059232" x="395.0345" y="62.025785" style="stroke: #000000; stroke-width: 0.8"/>
      </g>
     </g>
     <g id="text_33">
      <!-- 0.75 -->
      <g transform="translate(365.768875 65.825004)scale(0.1 -0.1)">
       <use xlink:href="#DejaVuSans-30"/>
       <use xlink:href="#DejaVuSans-2e" x="63.623047"/>
       <use xlink:href="#DejaVuSans-37" x="95.410156"/>
       <use xlink:href="#DejaVuSans-35" x="159.033203"/>
      </g>
     </g>
    </g>
    <g id="text_34">
     <!-- % NOE fulfilled [1/100 %] -->
     <g transform="translate(359.689188 223.870781)rotate(-90)scale(0.1 -0.1)">
      <defs>
       <path id="DejaVuSans-25" d="M 4653 2053 
Q 4381 2053 4226 1822 
Q 4072 1591 4072 1178 
Q 4072 772 4226 539 
Q 4381 306 4653 306 
Q 4919 306 5073 539 
Q 5228 772 5228 1178 
Q 5228 1588 5073 1820 
Q 4919 2053 4653 2053 
z
M 4653 2450 
Q 5147 2450 5437 2106 
Q 5728 1763 5728 1178 
Q 5728 594 5436 251 
Q 5144 -91 4653 -91 
Q 4153 -91 3862 251 
Q 3572 594 3572 1178 
Q 3572 1766 3864 2108 
Q 4156 2450 4653 2450 
z
M 1428 4353 
Q 1159 4353 1004 4120 
Q 850 3888 850 3481 
Q 850 3069 1003 2837 
Q 1156 2606 1428 2606 
Q 1700 2606 1854 2837 
Q 2009 3069 2009 3481 
Q 2009 3884 1853 4118 
Q 1697 4353 1428 4353 
z
M 4250 4750 
L 4750 4750 
L 1831 -91 
L 1331 -91 
L 4250 4750 
z
M 1428 4750 
Q 1922 4750 2215 4408 
Q 2509 4066 2509 3481 
Q 2509 2891 2217 2550 
Q 1925 2209 1428 2209 
Q 931 2209 642 2551 
Q 353 2894 353 3481 
Q 353 4063 643 4406 
Q 934 4750 1428 4750 
z
" transform="scale(0.015625)"/>
       <path id="DejaVuSans-4e" d="M 628 4666 
L 1478 4666 
L 3547 763 
L 3547 4666 
L 4159 4666 
L 4159 0 
L 3309 0 
L 1241 3903 
L 1241 0 
L 628 0 
L 628 4666 
z
" transform="scale(0.015625)"/>
       <path id="DejaVuSans-4f" d="M 2522 4238 
Q 1834 4238 1429 3725 
Q 1025 3213 1025 2328 
Q 1025 1447 1429 934 
Q 1834 422 2522 422 
Q 3209 422 3611 934 
Q 4013 1447 4013 2328 
Q 4013 3213 3611 3725 
Q 3209 4238 2522 4238 
z
M 2522 4750 
Q 3503 4750 4090 4092 
Q 4678 3434 4678 2328 
Q 4678 1225 4090 567 
Q 3503 -91 2522 -91 
Q 1538 -91 948 565 
Q 359 1222 359 2328 
Q 359 3434 948 4092 
Q 1538 4750 2522 4750 
z
" transform="scale(0.015625)"/>
       <path id="DejaVuSans-66" d="M 2375 4863 
L 2375 4384 
L 1825 4384 
Q 1516 4384 1395 4259 
Q 1275 4134 1275 3809 
L 1275 3500 
L 2222 3500 
L 2222 3053 
L 1275 3053 
L 1275 0 
L 697 0 
L 697 3053 
L 147 3053 
L 147 3500 
L 697 3500 
L 697 3744 
Q 697 4328 969 4595 
Q 1241 4863 1831 4863 
L 2375 4863 
z
" transform="scale(0.015625)"/>
       <path id="DejaVuSans-75" d="M 544 1381 
L 544 3500 
L 1119 3500 
L 1119 1403 
Q 1119 906 1312 657 
Q 1506 409 1894 409 
Q 2359 409 2629 706 
Q 2900 1003 2900 1516 
L 2900 3500 
L 3475 3500 
L 3475 0 
L 2900 0 
L 2900 538 
Q 2691 219 2414 64 
Q 2138 -91 1772 -91 
Q 1169 -91 856 284 
Q 544 659 544 1381 
z
M 1991 3584 
L 1991 3584 
z
" transform="scale(0.015625)"/>
       <path id="DejaVuSans-6c" d="M 603 4863 
L 1178 4863 
L 1178 0 
L 603 0 
L 603 4863 
z
" transform="scale(0.015625)"/>
       <path id="DejaVuSans-69" d="M 603 3500 
L 1178 3500 
L 1178 0 
L 603 0 
L 603 3500 
z
M 603 4863 
L 1178 4863 
L 1178 4134 
L 603 4134 
L 603 4863 
z
" transform="scale(0.015625)"/>
       <path id="DejaVuSans-65" d="M 3597 1894 
L 3597 1613 
L 953 1613 
Q 991 1019 1311 708 
Q 1631 397 2203 397 
Q 2534 397 2845 478 
Q 3156 559 3463 722 
L 3463 178 
Q 3153 47 2828 -22 
Q 2503 -91 2169 -91 
Q 1331 -91 842 396 
Q 353 884 353 1716 
Q 353 2575 817 3079 
Q 1281 3584 2069 3584 
Q 2775 3584 3186 3129 
Q 3597 2675 3597 1894 
z
M 3022 2063 
Q 3016 2534 2758 2815 
Q 2500 3097 2075 3097 
Q 1594 3097 1305 2825 
Q 1016 2553 972 2059 
L 3022 2063 
z
" transform="scale(0.015625)"/>
       <path id="DejaVuSans-64" d="M 2906 2969 
L 2906 4863 
L 3481 4863 
L 3481 0 
L 2906 0 
L 2906 525 
Q 2725 213 2448 61 
Q 2172 -91 1784 -91 
Q 1150 -91 751 415 
Q 353 922 353 1747 
Q 353 2572 751 3078 
Q 1150 3584 1784 3584 
Q 2172 3584 2448 3432 
Q 2725 3281 2906 2969 
z
M 947 1747 
Q 947 1113 1208 752 
Q 1469 391 1925 391 
Q 2381 391 2643 752 
Q 2906 1113 2906 1747 
Q 2906 2381 2643 2742 
Q 2381 3103 1925 3103 
Q 1469 3103 1208 2742 
Q 947 2381 947 1747 
z
" transform="scale(0.015625)"/>
       <path id="DejaVuSans-2f" d="M 1625 4666 
L 2156 4666 
L 531 -594 
L 0 -594 
L 1625 4666 
z
" transform="scale(0.015625)"/>
      </defs>
      <use xlink:href="#DejaVuSans-25"/>
      <use xlink:href="#DejaVuSans-20" x="95.019531"/>
      <use xlink:href="#DejaVuSans-4e" x="126.806641"/>
      <use xlink:href="#DejaVuSans-4f" x="201.611328"/>
      <use xlink:href="#DejaVuSans-45" x="280.322266"/>
      <use xlink:href="#DejaVuSans-20" x="343.505859"/>
      <use xlink:href="#DejaVuSans-66" x="375.292969"/>
      <use xlink:href="#DejaVuSans-75" x="410.498047"/>
      <use xlink:href="#DejaVuSans-6c" x="473.876953"/>
      <use xlink:href="#DejaVuSans-66" x="501.660156"/>
      <use xlink:href="#DejaVuSans-69" x="536.865234"/>
      <use xlink:href="#DejaVuSans-6c" x="564.648438"/>
      <use xlink:href="#DejaVuSans-6c" x="592.431641"/>
      <use xlink:href="#DejaVuSans-65" x="620.214844"/>
      <use xlink:href="#DejaVuSans-64" x="681.738281"/>
      <use xlink:href="#DejaVuSans-20" x="745.214844"/>
      <use xlink:href="#DejaVuSans-5b" x="777.001953"/>
      <use xlink:href="#DejaVuSans-31" x="816.015625"/>
      <use xlink:href="#DejaVuSans-2f" x="879.638672"/>
      <use xlink:href="#DejaVuSans-31" x="913.330078"/>
      <use xlink:href="#DejaVuSans-30" x="976.953125"/>
      <use xlink:href="#DejaVuSans-30" x="1040.576172"/>
      <use xlink:href="#DejaVuSans-20" x="1104.199219"/>
      <use xlink:href="#DejaVuSans-25" x="1135.986328"/>
      <use xlink:href="#DejaVuSans-5d" x="1231.005859"/>
     </g>
    </g>
   </g>
   <g id="LineCollection_13">
    <path d="M 410.157636 156.389401 
L 435.362864 156.389401 
" clip-path="url(#pd2c229692a)" style="fill: none; stroke: #1f77b4; stroke-width: 1.5"/>
   </g>
   <g id="LineCollection_14">
    <path d="M 410.157636 57.342727 
L 435.362864 57.342727 
" clip-path="url(#pd2c229692a)" style="fill: none; stroke: #1f77b4; stroke-width: 1.5"/>
   </g>
   <g id="LineCollection_15">
    <path d="M 410.157636 263.397273 
L 435.362864 263.397273 
" clip-path="url(#pd2c229692a)" style="fill: none; stroke: #1f77b4; stroke-width: 1.5"/>
   </g>
   <g id="LineCollection_16">
    <path d="M 422.76025 263.397273 
L 422.76025 57.342727 
" clip-path="url(#pd2c229692a)" style="fill: none; stroke: #1f77b4; stroke-width: 1.5"/>
   </g>
   <g id="patch_18">
    <path d="M 395.0345 273.7 
L 395.0345 47.04 
" style="fill: none; stroke: #000000; stroke-width: 0.8; stroke-linejoin: miter; stroke-linecap: square"/>
   </g>
   <g id="patch_19">
    <path d="M 450.486 273.7 
L 450.486 47.04 
" style="fill: none; stroke: #000000; stroke-width: 0.8; stroke-linejoin: miter; stroke-linecap: square"/>
   </g>
   <g id="patch_20">
    <path d="M 395.0345 273.7 
L 450.486 273.7 
" style="fill: none; stroke: #000000; stroke-width: 0.8; stroke-linejoin: miter; stroke-linecap: square"/>
   </g>
   <g id="patch_21">
    <path d="M 395.0345 47.04 
L 450.486 47.04 
" style="fill: none; stroke: #000000; stroke-width: 0.8; stroke-linejoin: miter; stroke-linecap: square"/>
   </g>
   <g id="text_35">
    <!-- % NOE fulfilled -->
    <g transform="translate(378.047125 41.04)scale(0.12 -0.12)">
     <use xlink:href="#DejaVuSans-25"/>
     <use xlink:href="#DejaVuSans-20" x="95.019531"/>
     <use xlink:href="#DejaVuSans-4e" x="126.806641"/>
     <use xlink:href="#DejaVuSans-4f" x="201.611328"/>
     <use xlink:href="#DejaVuSans-45" x="280.322266"/>
     <use xlink:href="#DejaVuSans-20" x="343.505859"/>
     <use xlink:href="#DejaVuSans-66" x="375.292969"/>
     <use xlink:href="#DejaVuSans-75" x="410.498047"/>
     <use xlink:href="#DejaVuSans-6c" x="473.876953"/>
     <use xlink:href="#DejaVuSans-66" x="501.660156"/>
     <use xlink:href="#DejaVuSans-69" x="536.865234"/>
     <use xlink:href="#DejaVuSans-6c" x="564.648438"/>
     <use xlink:href="#DejaVuSans-6c" x="592.431641"/>
     <use xlink:href="#DejaVuSans-65" x="620.214844"/>
     <use xlink:href="#DejaVuSans-64" x="681.738281"/>
    </g>
   </g>
  </g>
  <g id="axes_5">
   <g id="patch_22">
    <path d="M 509.7485 273.7 
L 565.2 273.7 
L 565.2 47.04 
L 509.7485 47.04 
z
" style="fill: #ffffff"/>
   </g>
   <g id="PolyCollection_5">
    <path d="M 538.509764 263.397273 
L 536.438736 263.397273 
L 536.328817 261.315914 
L 536.250451 259.234555 
L 536.211087 257.153196 
L 536.21444 255.071837 
L 536.259819 252.990478 
L 536.342088 250.909118 
L 536.452228 248.827759 
L 536.578289 246.7464 
L 536.706481 244.665041 
L 536.822085 242.583682 
L 536.910004 240.502323 
L 536.954892 238.420964 
L 536.941033 236.339605 
L 536.852287 234.258246 
L 536.672549 232.176887 
L 536.387101 230.095528 
L 535.985061 228.014169 
L 535.462753 225.93281 
L 534.827423 223.851451 
L 534.100325 221.770092 
L 533.318051 219.688733 
L 532.531063 217.607374 
L 531.798924 215.526015 
L 531.182428 213.444656 
L 530.733697 211.363297 
L 530.485954 209.281938 
L 530.444974 207.200579 
L 530.584022 205.119219 
L 530.843498 203.03786 
L 531.135692 200.956501 
L 531.354295 198.875142 
L 531.387651 196.793783 
L 531.134348 194.712424 
L 530.519401 192.631065 
L 529.508975 190.549706 
L 528.121292 188.468347 
L 526.431222 186.386988 
L 524.566409 184.305629 
L 522.693783 182.22427 
L 520.997077 180.142911 
L 519.648108 178.061552 
L 518.776602 175.980193 
L 518.44442 173.898834 
L 518.629879 171.817475 
L 519.226207 169.736116 
L 520.055472 167.654757 
L 520.89628 165.573398 
L 521.520774 163.492039 
L 521.734607 161.41068 
L 521.412839 159.32932 
L 520.525142 157.247961 
L 519.145221 155.166602 
L 517.44181 153.085243 
L 515.651851 151.003884 
L 514.03997 148.922525 
L 512.851598 146.841166 
L 512.269023 144.759807 
L 512.37965 142.678448 
L 513.163397 140.597089 
L 514.501877 138.51573 
L 516.206856 136.434371 
L 518.060902 134.353012 
L 519.860444 132.271653 
L 521.451393 130.190294 
L 522.750011 128.108935 
L 523.745882 126.027576 
L 524.488553 123.946217 
L 525.063226 121.864858 
L 525.562921 119.783499 
L 526.064468 117.70214 
L 526.613654 115.620781 
L 527.22173 113.539421 
L 527.872099 111.458062 
L 528.533436 109.376703 
L 529.174254 107.295344 
L 529.774337 105.213985 
L 530.330132 103.132626 
L 530.853478 101.051267 
L 531.365228 98.969908 
L 531.886629 96.888549 
L 532.431591 94.80719 
L 533.002155 92.725831 
L 533.588086 90.644472 
L 534.17009 88.563113 
L 534.725102 86.481754 
L 535.231799 84.400395 
L 535.674759 82.319036 
L 536.04645 80.237677 
L 536.347026 78.156318 
L 536.582543 76.074959 
L 536.762484 73.9936 
L 536.897419 71.912241 
L 536.997341 69.830882 
L 537.070826 67.749522 
L 537.124874 65.668163 
L 537.16514 63.586804 
L 537.196246 61.505445 
L 537.221971 59.424086 
L 537.245287 57.342727 
L 537.703213 57.342727 
L 537.703213 57.342727 
L 537.726529 59.424086 
L 537.752254 61.505445 
L 537.78336 63.586804 
L 537.823626 65.668163 
L 537.877674 67.749522 
L 537.951159 69.830882 
L 538.051081 71.912241 
L 538.186016 73.9936 
L 538.365957 76.074959 
L 538.601474 78.156318 
L 538.90205 80.237677 
L 539.273741 82.319036 
L 539.716701 84.400395 
L 540.223398 86.481754 
L 540.77841 88.563113 
L 541.360414 90.644472 
L 541.946345 92.725831 
L 542.516909 94.80719 
L 543.061871 96.888549 
L 543.583272 98.969908 
L 544.095022 101.051267 
L 544.618368 103.132626 
L 545.174163 105.213985 
L 545.774246 107.295344 
L 546.415064 109.376703 
L 547.076401 111.458062 
L 547.72677 113.539421 
L 548.334846 115.620781 
L 548.884032 117.70214 
L 549.385579 119.783499 
L 549.885274 121.864858 
L 550.459947 123.946217 
L 551.202618 126.027576 
L 552.198489 128.108935 
L 553.497107 130.190294 
L 555.088056 132.271653 
L 556.887598 134.353012 
L 558.741644 136.434371 
L 560.446623 138.51573 
L 561.785103 140.597089 
L 562.56885 142.678448 
L 562.679477 144.759807 
L 562.096902 146.841166 
L 560.90853 148.922525 
L 559.296649 151.003884 
L 557.50669 153.085243 
L 555.803279 155.166602 
L 554.423358 157.247961 
L 553.535661 159.32932 
L 553.213893 161.41068 
L 553.427726 163.492039 
L 554.05222 165.573398 
L 554.893028 167.654757 
L 555.722293 169.736116 
L 556.318621 171.817475 
L 556.50408 173.898834 
L 556.171898 175.980193 
L 555.300392 178.061552 
L 553.951423 180.142911 
L 552.254717 182.22427 
L 550.382091 184.305629 
L 548.517278 186.386988 
L 546.827208 188.468347 
L 545.439525 190.549706 
L 544.429099 192.631065 
L 543.814152 194.712424 
L 543.560849 196.793783 
L 543.594205 198.875142 
L 543.812808 200.956501 
L 544.105002 203.03786 
L 544.364478 205.119219 
L 544.503526 207.200579 
L 544.462546 209.281938 
L 544.214803 211.363297 
L 543.766072 213.444656 
L 543.149576 215.526015 
L 542.417437 217.607374 
L 541.630449 219.688733 
L 540.848175 221.770092 
L 540.121077 223.851451 
L 539.485747 225.93281 
L 538.963439 228.014169 
L 538.561399 230.095528 
L 538.275951 232.176887 
L 538.096213 234.258246 
L 538.007467 236.339605 
L 537.993608 238.420964 
L 538.038496 240.502323 
L 538.126415 242.583682 
L 538.242019 244.665041 
L 538.370211 246.7464 
L 538.496272 248.827759 
L 538.606412 250.909118 
L 538.688681 252.990478 
L 538.73406 255.071837 
L 538.737413 257.153196 
L 538.698049 259.234555 
L 538.619683 261.315914 
L 538.509764 263.397273 
z
" clip-path="url(#p691b3a70c2)" style="fill: #1f77b4; fill-opacity: 0.3"/>
   </g>
   <g id="matplotlib.axis_5">
    <g id="ytick_28">
     <g id="line2d_28">
      <g>
       <use xlink:href="#m03c3059232" x="509.7485" y="246.341949" style="stroke: #000000; stroke-width: 0.8"/>
      </g>
     </g>
     <g id="text_36">
      <!-- 0.2 -->
      <g transform="translate(486.845375 250.141168)scale(0.1 -0.1)">
       <use xlink:href="#DejaVuSans-30"/>
       <use xlink:href="#DejaVuSans-2e" x="63.623047"/>
       <use xlink:href="#DejaVuSans-32" x="95.410156"/>
      </g>
     </g>
    </g>
    <g id="ytick_29">
     <g id="line2d_29">
      <g>
       <use xlink:href="#m03c3059232" x="509.7485" y="201.706703" style="stroke: #000000; stroke-width: 0.8"/>
      </g>
     </g>
     <g id="text_37">
      <!-- 0.3 -->
      <g transform="translate(486.845375 205.505921)scale(0.1 -0.1)">
       <use xlink:href="#DejaVuSans-30"/>
       <use xlink:href="#DejaVuSans-2e" x="63.623047"/>
       <use xlink:href="#DejaVuSans-33" x="95.410156"/>
      </g>
     </g>
    </g>
    <g id="ytick_30">
     <g id="line2d_30">
      <g>
       <use xlink:href="#m03c3059232" x="509.7485" y="157.071456" style="stroke: #000000; stroke-width: 0.8"/>
      </g>
     </g>
     <g id="text_38">
      <!-- 0.4 -->
      <g transform="translate(486.845375 160.870675)scale(0.1 -0.1)">
       <use xlink:href="#DejaVuSans-30"/>
       <use xlink:href="#DejaVuSans-2e" x="63.623047"/>
       <use xlink:href="#DejaVuSans-34" x="95.410156"/>
      </g>
     </g>
    </g>
    <g id="ytick_31">
     <g id="line2d_31">
      <g>
       <use xlink:href="#m03c3059232" x="509.7485" y="112.43621" style="stroke: #000000; stroke-width: 0.8"/>
      </g>
     </g>
     <g id="text_39">
      <!-- 0.5 -->
      <g transform="translate(486.845375 116.235428)scale(0.1 -0.1)">
       <use xlink:href="#DejaVuSans-30"/>
       <use xlink:href="#DejaVuSans-2e" x="63.623047"/>
       <use xlink:href="#DejaVuSans-35" x="95.410156"/>
      </g>
     </g>
    </g>
    <g id="ytick_32">
     <g id="line2d_32">
      <g>
       <use xlink:href="#m03c3059232" x="509.7485" y="67.800963" style="stroke: #000000; stroke-width: 0.8"/>
      </g>
     </g>
     <g id="text_40">
      <!-- 0.6 -->
      <g transform="translate(486.845375 71.600182)scale(0.1 -0.1)">
       <use xlink:href="#DejaVuSans-30"/>
       <use xlink:href="#DejaVuSans-2e" x="63.623047"/>
       <use xlink:href="#DejaVuSans-36" x="95.410156"/>
      </g>
     </g>
    </g>
    <g id="text_41">
     <!-- RMSD stepwise [$\AA$] -->
     <g transform="translate(480.745375 207.67)rotate(-90)scale(0.1 -0.1)">
      <defs>
       <path id="DejaVuSans-73" d="M 2834 3397 
L 2834 2853 
Q 2591 2978 2328 3040 
Q 2066 3103 1784 3103 
Q 1356 3103 1142 2972 
Q 928 2841 928 2578 
Q 928 2378 1081 2264 
Q 1234 2150 1697 2047 
L 1894 2003 
Q 2506 1872 2764 1633 
Q 3022 1394 3022 966 
Q 3022 478 2636 193 
Q 2250 -91 1575 -91 
Q 1294 -91 989 -36 
Q 684 19 347 128 
L 347 722 
Q 666 556 975 473 
Q 1284 391 1588 391 
Q 1994 391 2212 530 
Q 2431 669 2431 922 
Q 2431 1156 2273 1281 
Q 2116 1406 1581 1522 
L 1381 1569 
Q 847 1681 609 1914 
Q 372 2147 372 2553 
Q 372 3047 722 3315 
Q 1072 3584 1716 3584 
Q 2034 3584 2315 3537 
Q 2597 3491 2834 3397 
z
" transform="scale(0.015625)"/>
       <path id="DejaVuSans-74" d="M 1172 4494 
L 1172 3500 
L 2356 3500 
L 2356 3053 
L 1172 3053 
L 1172 1153 
Q 1172 725 1289 603 
Q 1406 481 1766 481 
L 2356 481 
L 2356 0 
L 1766 0 
Q 1100 0 847 248 
Q 594 497 594 1153 
L 594 3053 
L 172 3053 
L 172 3500 
L 594 3500 
L 594 4494 
L 1172 4494 
z
" transform="scale(0.015625)"/>
       <path id="DejaVuSans-70" d="M 1159 525 
L 1159 -1331 
L 581 -1331 
L 581 3500 
L 1159 3500 
L 1159 2969 
Q 1341 3281 1617 3432 
Q 1894 3584 2278 3584 
Q 2916 3584 3314 3078 
Q 3713 2572 3713 1747 
Q 3713 922 3314 415 
Q 2916 -91 2278 -91 
Q 1894 -91 1617 61 
Q 1341 213 1159 525 
z
M 3116 1747 
Q 3116 2381 2855 2742 
Q 2594 3103 2138 3103 
Q 1681 3103 1420 2742 
Q 1159 2381 1159 1747 
Q 1159 1113 1420 752 
Q 1681 391 2138 391 
Q 2594 391 2855 752 
Q 3116 1113 3116 1747 
z
" transform="scale(0.015625)"/>
       <path id="DejaVuSans-77" d="M 269 3500 
L 844 3500 
L 1563 769 
L 2278 3500 
L 2956 3500 
L 3675 769 
L 4391 3500 
L 4966 3500 
L 4050 0 
L 3372 0 
L 2619 2869 
L 1863 0 
L 1184 0 
L 269 3500 
z
" transform="scale(0.015625)"/>
      </defs>
      <use xlink:href="#DejaVuSans-52" transform="translate(0 0.171875)"/>
      <use xlink:href="#DejaVuSans-4d" transform="translate(69.482422 0.171875)"/>
      <use xlink:href="#DejaVuSans-53" transform="translate(155.761719 0.171875)"/>
      <use xlink:href="#DejaVuSans-44" transform="translate(219.238281 0.171875)"/>
      <use xlink:href="#DejaVuSans-20" transform="translate(296.240234 0.171875)"/>
      <use xlink:href="#DejaVuSans-73" transform="translate(328.027344 0.171875)"/>
      <use xlink:href="#DejaVuSans-74" transform="translate(380.126953 0.171875)"/>
      <use xlink:href="#DejaVuSans-65" transform="translate(419.335938 0.171875)"/>
      <use xlink:href="#DejaVuSans-70" transform="translate(480.859375 0.171875)"/>
      <use xlink:href="#DejaVuSans-77" transform="translate(544.335938 0.171875)"/>
      <use xlink:href="#DejaVuSans-69" transform="translate(626.123047 0.171875)"/>
      <use xlink:href="#DejaVuSans-73" transform="translate(653.90625 0.171875)"/>
      <use xlink:href="#DejaVuSans-65" transform="translate(706.005859 0.171875)"/>
      <use xlink:href="#DejaVuSans-20" transform="translate(767.529297 0.171875)"/>
      <use xlink:href="#DejaVuSans-5b" transform="translate(799.316406 0.171875)"/>
      <use xlink:href="#DejaVuSans-Oblique-c5" transform="translate(838.330078 0.171875)"/>
      <use xlink:href="#DejaVuSans-5d" transform="translate(906.738281 0.171875)"/>
     </g>
    </g>
   </g>
   <g id="LineCollection_17">
    <path d="M 524.871636 154.699325 
L 550.076864 154.699325 
" clip-path="url(#p691b3a70c2)" style="fill: none; stroke: #1f77b4; stroke-width: 1.5"/>
   </g>
   <g id="LineCollection_18">
    <path d="M 524.871636 57.342727 
L 550.076864 57.342727 
" clip-path="url(#p691b3a70c2)" style="fill: none; stroke: #1f77b4; stroke-width: 1.5"/>
   </g>
   <g id="LineCollection_19">
    <path d="M 524.871636 263.397273 
L 550.076864 263.397273 
" clip-path="url(#p691b3a70c2)" style="fill: none; stroke: #1f77b4; stroke-width: 1.5"/>
   </g>
   <g id="LineCollection_20">
    <path d="M 537.47425 263.397273 
L 537.47425 57.342727 
" clip-path="url(#p691b3a70c2)" style="fill: none; stroke: #1f77b4; stroke-width: 1.5"/>
   </g>
   <g id="patch_23">
    <path d="M 509.7485 273.7 
L 509.7485 47.04 
" style="fill: none; stroke: #000000; stroke-width: 0.8; stroke-linejoin: miter; stroke-linecap: square"/>
   </g>
   <g id="patch_24">
    <path d="M 565.2 273.7 
L 565.2 47.04 
" style="fill: none; stroke: #000000; stroke-width: 0.8; stroke-linejoin: miter; stroke-linecap: square"/>
   </g>
   <g id="patch_25">
    <path d="M 509.7485 273.7 
L 565.2 273.7 
" style="fill: none; stroke: #000000; stroke-width: 0.8; stroke-linejoin: miter; stroke-linecap: square"/>
   </g>
   <g id="patch_26">
    <path d="M 509.7485 47.04 
L 565.2 47.04 
" style="fill: none; stroke: #000000; stroke-width: 0.8; stroke-linejoin: miter; stroke-linecap: square"/>
   </g>
   <g id="text_42">
    <!-- RMSD stepwise -->
    <g transform="translate(491.422375 41.04)scale(0.12 -0.12)">
     <use xlink:href="#DejaVuSans-52"/>
     <use xlink:href="#DejaVuSans-4d" x="69.482422"/>
     <use xlink:href="#DejaVuSans-53" x="155.761719"/>
     <use xlink:href="#DejaVuSans-44" x="219.238281"/>
     <use xlink:href="#DejaVuSans-20" x="296.240234"/>
     <use xlink:href="#DejaVuSans-73" x="328.027344"/>
     <use xlink:href="#DejaVuSans-74" x="380.126953"/>
     <use xlink:href="#DejaVuSans-65" x="419.335938"/>
     <use xlink:href="#DejaVuSans-70" x="480.859375"/>
     <use xlink:href="#DejaVuSans-77" x="544.335938"/>
     <use xlink:href="#DejaVuSans-69" x="626.123047"/>
     <use xlink:href="#DejaVuSans-73" x="653.90625"/>
     <use xlink:href="#DejaVuSans-65" x="706.005859"/>
    </g>
   </g>
  </g>
  <g id="text_43">
   <!-- Compound 42. Omega -->
   <g transform="translate(220.299375 14.878125)scale(0.12 -0.12)">
    <defs>
     <path id="DejaVuSans-43" d="M 4122 4306 
L 4122 3641 
Q 3803 3938 3442 4084 
Q 3081 4231 2675 4231 
Q 1875 4231 1450 3742 
Q 1025 3253 1025 2328 
Q 1025 1406 1450 917 
Q 1875 428 2675 428 
Q 3081 428 3442 575 
Q 3803 722 4122 1019 
L 4122 359 
Q 3791 134 3420 21 
Q 3050 -91 2638 -91 
Q 1578 -91 968 557 
Q 359 1206 359 2328 
Q 359 3453 968 4101 
Q 1578 4750 2638 4750 
Q 3056 4750 3426 4639 
Q 3797 4528 4122 4306 
z
" transform="scale(0.015625)"/>
     <path id="DejaVuSans-6f" d="M 1959 3097 
Q 1497 3097 1228 2736 
Q 959 2375 959 1747 
Q 959 1119 1226 758 
Q 1494 397 1959 397 
Q 2419 397 2687 759 
Q 2956 1122 2956 1747 
Q 2956 2369 2687 2733 
Q 2419 3097 1959 3097 
z
M 1959 3584 
Q 2709 3584 3137 3096 
Q 3566 2609 3566 1747 
Q 3566 888 3137 398 
Q 2709 -91 1959 -91 
Q 1206 -91 779 398 
Q 353 888 353 1747 
Q 353 2609 779 3096 
Q 1206 3584 1959 3584 
z
" transform="scale(0.015625)"/>
     <path id="DejaVuSans-6d" d="M 3328 2828 
Q 3544 3216 3844 3400 
Q 4144 3584 4550 3584 
Q 5097 3584 5394 3201 
Q 5691 2819 5691 2113 
L 5691 0 
L 5113 0 
L 5113 2094 
Q 5113 2597 4934 2840 
Q 4756 3084 4391 3084 
Q 3944 3084 3684 2787 
Q 3425 2491 3425 1978 
L 3425 0 
L 2847 0 
L 2847 2094 
Q 2847 2600 2669 2842 
Q 2491 3084 2119 3084 
Q 1678 3084 1418 2786 
Q 1159 2488 1159 1978 
L 1159 0 
L 581 0 
L 581 3500 
L 1159 3500 
L 1159 2956 
Q 1356 3278 1631 3431 
Q 1906 3584 2284 3584 
Q 2666 3584 2933 3390 
Q 3200 3197 3328 2828 
z
" transform="scale(0.015625)"/>
     <path id="DejaVuSans-6e" d="M 3513 2113 
L 3513 0 
L 2938 0 
L 2938 2094 
Q 2938 2591 2744 2837 
Q 2550 3084 2163 3084 
Q 1697 3084 1428 2787 
Q 1159 2491 1159 1978 
L 1159 0 
L 581 0 
L 581 3500 
L 1159 3500 
L 1159 2956 
Q 1366 3272 1645 3428 
Q 1925 3584 2291 3584 
Q 2894 3584 3203 3211 
Q 3513 2838 3513 2113 
z
" transform="scale(0.015625)"/>
     <path id="DejaVuSans-67" d="M 2906 1791 
Q 2906 2416 2648 2759 
Q 2391 3103 1925 3103 
Q 1463 3103 1205 2759 
Q 947 2416 947 1791 
Q 947 1169 1205 825 
Q 1463 481 1925 481 
Q 2391 481 2648 825 
Q 2906 1169 2906 1791 
z
M 3481 434 
Q 3481 -459 3084 -895 
Q 2688 -1331 1869 -1331 
Q 1566 -1331 1297 -1286 
Q 1028 -1241 775 -1147 
L 775 -588 
Q 1028 -725 1275 -790 
Q 1522 -856 1778 -856 
Q 2344 -856 2625 -561 
Q 2906 -266 2906 331 
L 2906 616 
Q 2728 306 2450 153 
Q 2172 0 1784 0 
Q 1141 0 747 490 
Q 353 981 353 1791 
Q 353 2603 747 3093 
Q 1141 3584 1784 3584 
Q 2172 3584 2450 3431 
Q 2728 3278 2906 2969 
L 2906 3500 
L 3481 3500 
L 3481 434 
z
" transform="scale(0.015625)"/>
     <path id="DejaVuSans-61" d="M 2194 1759 
Q 1497 1759 1228 1600 
Q 959 1441 959 1056 
Q 959 750 1161 570 
Q 1363 391 1709 391 
Q 2188 391 2477 730 
Q 2766 1069 2766 1631 
L 2766 1759 
L 2194 1759 
z
M 3341 1997 
L 3341 0 
L 2766 0 
L 2766 531 
Q 2569 213 2275 61 
Q 1981 -91 1556 -91 
Q 1019 -91 701 211 
Q 384 513 384 1019 
Q 384 1609 779 1909 
Q 1175 2209 1959 2209 
L 2766 2209 
L 2766 2266 
Q 2766 2663 2505 2880 
Q 2244 3097 1772 3097 
Q 1472 3097 1187 3025 
Q 903 2953 641 2809 
L 641 3341 
Q 956 3463 1253 3523 
Q 1550 3584 1831 3584 
Q 2591 3584 2966 3190 
Q 3341 2797 3341 1997 
z
" transform="scale(0.015625)"/>
    </defs>
    <use xlink:href="#DejaVuSans-43"/>
    <use xlink:href="#DejaVuSans-6f" x="69.824219"/>
    <use xlink:href="#DejaVuSans-6d" x="131.005859"/>
    <use xlink:href="#DejaVuSans-70" x="228.417969"/>
    <use xlink:href="#DejaVuSans-6f" x="291.894531"/>
    <use xlink:href="#DejaVuSans-75" x="353.076172"/>
    <use xlink:href="#DejaVuSans-6e" x="416.455078"/>
    <use xlink:href="#DejaVuSans-64" x="479.833984"/>
    <use xlink:href="#DejaVuSans-20" x="543.310547"/>
    <use xlink:href="#DejaVuSans-34" x="575.097656"/>
    <use xlink:href="#DejaVuSans-32" x="638.720703"/>
    <use xlink:href="#DejaVuSans-2e" x="702.34375"/>
    <use xlink:href="#DejaVuSans-20" x="734.130859"/>
    <use xlink:href="#DejaVuSans-4f" x="765.917969"/>
    <use xlink:href="#DejaVuSans-6d" x="844.628906"/>
    <use xlink:href="#DejaVuSans-65" x="942.041016"/>
    <use xlink:href="#DejaVuSans-67" x="1003.564453"/>
    <use xlink:href="#DejaVuSans-61" x="1067.041016"/>
   </g>
  </g>
 </g>
 <defs>
  <clipPath id="p96a37a4430">
   <rect x="50.8925" y="47.04" width="55.4515" height="226.66"/>
  </clipPath>
  <clipPath id="pd7b3036a11">
   <rect x="165.6065" y="47.04" width="55.4515" height="226.66"/>
  </clipPath>
  <clipPath id="pabd12fb07e">
   <rect x="280.3205" y="47.04" width="55.4515" height="226.66"/>
  </clipPath>
  <clipPath id="pd2c229692a">
   <rect x="395.0345" y="47.04" width="55.4515" height="226.66"/>
  </clipPath>
  <clipPath id="p691b3a70c2">
   <rect x="509.7485" y="47.04" width="55.4515" height="226.66"/>
  </clipPath>
 </defs>
</svg>
